<?xml version="1.0" encoding="utf-8" standalone="no"?>
<!DOCTYPE svg PUBLIC "-//W3C//DTD SVG 1.1//EN"
  "http://www.w3.org/Graphics/SVG/1.1/DTD/svg11.dtd">
<svg xmlns:xlink="http://www.w3.org/1999/xlink" width="864pt" height="360pt" viewBox="0 0 864 360" xmlns="http://www.w3.org/2000/svg" version="1.1">
 <metadata>
  <rdf:RDF xmlns:dc="http://purl.org/dc/elements/1.1/" xmlns:cc="http://creativecommons.org/ns#" xmlns:rdf="http://www.w3.org/1999/02/22-rdf-syntax-ns#">
   <cc:Work>
    <dc:type rdf:resource="http://purl.org/dc/dcmitype/StillImage"/>
    <dc:date>2023-02-08T08:52:38.476071</dc:date>
    <dc:format>image/svg+xml</dc:format>
    <dc:creator>
     <cc:Agent>
      <dc:title>Matplotlib v3.5.1, https://matplotlib.org/</dc:title>
     </cc:Agent>
    </dc:creator>
   </cc:Work>
  </rdf:RDF>
 </metadata>
 <defs>
  <style type="text/css">*{stroke-linejoin: round; stroke-linecap: butt}</style>
 </defs>
 <g id="figure_1">
  <g id="patch_1">
   <path d="M 0 360 
L 864 360 
L 864 0 
L 0 0 
z
" style="fill: #ffffff"/>
  </g>
  <g id="axes_1">
   <g id="patch_2">
    <path d="M 127.418126 180 
Q 253.489907 180 376.207585 180 
" clip-path="url(#p9931dd2011)" style="fill: none; stroke: #2ca02c; stroke-width: 3; stroke-linecap: round"/>
    <path d="M 372.207585 178 
L 376.207585 180 
L 372.207585 182 
L 372.207585 178 
z
" clip-path="url(#p9931dd2011)" style="fill: #2ca02c; stroke: #2ca02c; stroke-width: 3; stroke-linecap: round"/>
   </g>
   <g id="patch_3">
    <path d="M 484.44292 180 
Q 610.5147 180 733.232378 180 
" clip-path="url(#p9931dd2011)" style="fill: none; stroke: #2ca02c; stroke-width: 3; stroke-linecap: round"/>
    <path d="M 729.232378 178 
L 733.232378 180 
L 729.232378 182 
L 729.232378 178 
z
" clip-path="url(#p9931dd2011)" style="fill: #2ca02c; stroke: #2ca02c; stroke-width: 3; stroke-linecap: round"/>
   </g>
   <g id="text_1">
    <g id="patch_4">
     <path d="M 219.270416 193.437969 
L 287.704791 193.437969 
Q 290.704791 193.437969 290.704791 190.437969 
L 290.704791 169.562031 
Q 290.704791 166.562031 287.704791 166.562031 
L 219.270416 166.562031 
Q 216.270416 166.562031 216.270416 169.562031 
L 216.270416 190.437969 
Q 216.270416 193.437969 219.270416 193.437969 
z
" clip-path="url(#p9931dd2011)" style="fill: #ffffff; stroke: #ffffff; stroke-linejoin: miter"/>
    </g>
    <g clip-path="url(#p9931dd2011)">
     <!-- increases -->
     <g transform="translate(229.811041 177.160469)scale(0.1 -0.1)">
      <defs>
       <path id="DejaVuSans-69" d="M 603 3500 
L 1178 3500 
L 1178 0 
L 603 0 
L 603 3500 
z
M 603 4863 
L 1178 4863 
L 1178 4134 
L 603 4134 
L 603 4863 
z
" transform="scale(0.015625)"/>
       <path id="DejaVuSans-6e" d="M 3513 2113 
L 3513 0 
L 2938 0 
L 2938 2094 
Q 2938 2591 2744 2837 
Q 2550 3084 2163 3084 
Q 1697 3084 1428 2787 
Q 1159 2491 1159 1978 
L 1159 0 
L 581 0 
L 581 3500 
L 1159 3500 
L 1159 2956 
Q 1366 3272 1645 3428 
Q 1925 3584 2291 3584 
Q 2894 3584 3203 3211 
Q 3513 2838 3513 2113 
z
" transform="scale(0.015625)"/>
       <path id="DejaVuSans-63" d="M 3122 3366 
L 3122 2828 
Q 2878 2963 2633 3030 
Q 2388 3097 2138 3097 
Q 1578 3097 1268 2742 
Q 959 2388 959 1747 
Q 959 1106 1268 751 
Q 1578 397 2138 397 
Q 2388 397 2633 464 
Q 2878 531 3122 666 
L 3122 134 
Q 2881 22 2623 -34 
Q 2366 -91 2075 -91 
Q 1284 -91 818 406 
Q 353 903 353 1747 
Q 353 2603 823 3093 
Q 1294 3584 2113 3584 
Q 2378 3584 2631 3529 
Q 2884 3475 3122 3366 
z
" transform="scale(0.015625)"/>
       <path id="DejaVuSans-72" d="M 2631 2963 
Q 2534 3019 2420 3045 
Q 2306 3072 2169 3072 
Q 1681 3072 1420 2755 
Q 1159 2438 1159 1844 
L 1159 0 
L 581 0 
L 581 3500 
L 1159 3500 
L 1159 2956 
Q 1341 3275 1631 3429 
Q 1922 3584 2338 3584 
Q 2397 3584 2469 3576 
Q 2541 3569 2628 3553 
L 2631 2963 
z
" transform="scale(0.015625)"/>
       <path id="DejaVuSans-65" d="M 3597 1894 
L 3597 1613 
L 953 1613 
Q 991 1019 1311 708 
Q 1631 397 2203 397 
Q 2534 397 2845 478 
Q 3156 559 3463 722 
L 3463 178 
Q 3153 47 2828 -22 
Q 2503 -91 2169 -91 
Q 1331 -91 842 396 
Q 353 884 353 1716 
Q 353 2575 817 3079 
Q 1281 3584 2069 3584 
Q 2775 3584 3186 3129 
Q 3597 2675 3597 1894 
z
M 3022 2063 
Q 3016 2534 2758 2815 
Q 2500 3097 2075 3097 
Q 1594 3097 1305 2825 
Q 1016 2553 972 2059 
L 3022 2063 
z
" transform="scale(0.015625)"/>
       <path id="DejaVuSans-61" d="M 2194 1759 
Q 1497 1759 1228 1600 
Q 959 1441 959 1056 
Q 959 750 1161 570 
Q 1363 391 1709 391 
Q 2188 391 2477 730 
Q 2766 1069 2766 1631 
L 2766 1759 
L 2194 1759 
z
M 3341 1997 
L 3341 0 
L 2766 0 
L 2766 531 
Q 2569 213 2275 61 
Q 1981 -91 1556 -91 
Q 1019 -91 701 211 
Q 384 513 384 1019 
Q 384 1609 779 1909 
Q 1175 2209 1959 2209 
L 2766 2209 
L 2766 2266 
Q 2766 2663 2505 2880 
Q 2244 3097 1772 3097 
Q 1472 3097 1187 3025 
Q 903 2953 641 2809 
L 641 3341 
Q 956 3463 1253 3523 
Q 1550 3584 1831 3584 
Q 2591 3584 2966 3190 
Q 3341 2797 3341 1997 
z
" transform="scale(0.015625)"/>
       <path id="DejaVuSans-73" d="M 2834 3397 
L 2834 2853 
Q 2591 2978 2328 3040 
Q 2066 3103 1784 3103 
Q 1356 3103 1142 2972 
Q 928 2841 928 2578 
Q 928 2378 1081 2264 
Q 1234 2150 1697 2047 
L 1894 2003 
Q 2506 1872 2764 1633 
Q 3022 1394 3022 966 
Q 3022 478 2636 193 
Q 2250 -91 1575 -91 
Q 1294 -91 989 -36 
Q 684 19 347 128 
L 347 722 
Q 666 556 975 473 
Q 1284 391 1588 391 
Q 1994 391 2212 530 
Q 2431 669 2431 922 
Q 2431 1156 2273 1281 
Q 2116 1406 1581 1522 
L 1381 1569 
Q 847 1681 609 1914 
Q 372 2147 372 2553 
Q 372 3047 722 3315 
Q 1072 3584 1716 3584 
Q 2034 3584 2315 3537 
Q 2597 3491 2834 3397 
z
" transform="scale(0.015625)"/>
      </defs>
      <use xlink:href="#DejaVuSans-69"/>
      <use xlink:href="#DejaVuSans-6e" x="27.783203"/>
      <use xlink:href="#DejaVuSans-63" x="91.162109"/>
      <use xlink:href="#DejaVuSans-72" x="146.142578"/>
      <use xlink:href="#DejaVuSans-65" x="185.005859"/>
      <use xlink:href="#DejaVuSans-61" x="246.529297"/>
      <use xlink:href="#DejaVuSans-73" x="307.808594"/>
      <use xlink:href="#DejaVuSans-65" x="359.908203"/>
      <use xlink:href="#DejaVuSans-73" x="421.431641"/>
     </g>
    </g>
    <g clip-path="url(#p9931dd2011)">
     <!-- abundance of -->
     <g transform="translate(219.270416 188.358281)scale(0.1 -0.1)">
      <defs>
       <path id="DejaVuSans-62" d="M 3116 1747 
Q 3116 2381 2855 2742 
Q 2594 3103 2138 3103 
Q 1681 3103 1420 2742 
Q 1159 2381 1159 1747 
Q 1159 1113 1420 752 
Q 1681 391 2138 391 
Q 2594 391 2855 752 
Q 3116 1113 3116 1747 
z
M 1159 2969 
Q 1341 3281 1617 3432 
Q 1894 3584 2278 3584 
Q 2916 3584 3314 3078 
Q 3713 2572 3713 1747 
Q 3713 922 3314 415 
Q 2916 -91 2278 -91 
Q 1894 -91 1617 61 
Q 1341 213 1159 525 
L 1159 0 
L 581 0 
L 581 4863 
L 1159 4863 
L 1159 2969 
z
" transform="scale(0.015625)"/>
       <path id="DejaVuSans-75" d="M 544 1381 
L 544 3500 
L 1119 3500 
L 1119 1403 
Q 1119 906 1312 657 
Q 1506 409 1894 409 
Q 2359 409 2629 706 
Q 2900 1003 2900 1516 
L 2900 3500 
L 3475 3500 
L 3475 0 
L 2900 0 
L 2900 538 
Q 2691 219 2414 64 
Q 2138 -91 1772 -91 
Q 1169 -91 856 284 
Q 544 659 544 1381 
z
M 1991 3584 
L 1991 3584 
z
" transform="scale(0.015625)"/>
       <path id="DejaVuSans-64" d="M 2906 2969 
L 2906 4863 
L 3481 4863 
L 3481 0 
L 2906 0 
L 2906 525 
Q 2725 213 2448 61 
Q 2172 -91 1784 -91 
Q 1150 -91 751 415 
Q 353 922 353 1747 
Q 353 2572 751 3078 
Q 1150 3584 1784 3584 
Q 2172 3584 2448 3432 
Q 2725 3281 2906 2969 
z
M 947 1747 
Q 947 1113 1208 752 
Q 1469 391 1925 391 
Q 2381 391 2643 752 
Q 2906 1113 2906 1747 
Q 2906 2381 2643 2742 
Q 2381 3103 1925 3103 
Q 1469 3103 1208 2742 
Q 947 2381 947 1747 
z
" transform="scale(0.015625)"/>
       <path id="DejaVuSans-20" transform="scale(0.015625)"/>
       <path id="DejaVuSans-6f" d="M 1959 3097 
Q 1497 3097 1228 2736 
Q 959 2375 959 1747 
Q 959 1119 1226 758 
Q 1494 397 1959 397 
Q 2419 397 2687 759 
Q 2956 1122 2956 1747 
Q 2956 2369 2687 2733 
Q 2419 3097 1959 3097 
z
M 1959 3584 
Q 2709 3584 3137 3096 
Q 3566 2609 3566 1747 
Q 3566 888 3137 398 
Q 2709 -91 1959 -91 
Q 1206 -91 779 398 
Q 353 888 353 1747 
Q 353 2609 779 3096 
Q 1206 3584 1959 3584 
z
" transform="scale(0.015625)"/>
       <path id="DejaVuSans-66" d="M 2375 4863 
L 2375 4384 
L 1825 4384 
Q 1516 4384 1395 4259 
Q 1275 4134 1275 3809 
L 1275 3500 
L 2222 3500 
L 2222 3053 
L 1275 3053 
L 1275 0 
L 697 0 
L 697 3053 
L 147 3053 
L 147 3500 
L 697 3500 
L 697 3744 
Q 697 4328 969 4595 
Q 1241 4863 1831 4863 
L 2375 4863 
z
" transform="scale(0.015625)"/>
      </defs>
      <use xlink:href="#DejaVuSans-61"/>
      <use xlink:href="#DejaVuSans-62" x="61.279297"/>
      <use xlink:href="#DejaVuSans-75" x="124.755859"/>
      <use xlink:href="#DejaVuSans-6e" x="188.134766"/>
      <use xlink:href="#DejaVuSans-64" x="251.513672"/>
      <use xlink:href="#DejaVuSans-61" x="314.990234"/>
      <use xlink:href="#DejaVuSans-6e" x="376.269531"/>
      <use xlink:href="#DejaVuSans-63" x="439.648438"/>
      <use xlink:href="#DejaVuSans-65" x="494.628906"/>
      <use xlink:href="#DejaVuSans-20" x="556.152344"/>
      <use xlink:href="#DejaVuSans-6f" x="587.939453"/>
      <use xlink:href="#DejaVuSans-66" x="649.121094"/>
     </g>
    </g>
   </g>
   <g id="text_2">
    <g id="patch_5">
     <path d="M 579.012397 187.839062 
L 642.012397 187.839062 
Q 645.012397 187.839062 645.012397 184.839062 
L 645.012397 175.160937 
Q 645.012397 172.160937 642.012397 172.160937 
L 579.012397 172.160937 
Q 576.012397 172.160937 576.012397 175.160937 
L 576.012397 184.839062 
Q 576.012397 187.839062 579.012397 187.839062 
z
" clip-path="url(#p9931dd2011)" style="fill: #ffffff; stroke: #ffffff; stroke-linejoin: miter"/>
    </g>
    <g clip-path="url(#p9931dd2011)">
     <!-- disrupted by -->
     <g transform="translate(579.012397 182.759375)scale(0.1 -0.1)">
      <defs>
       <path id="DejaVuSans-70" d="M 1159 525 
L 1159 -1331 
L 581 -1331 
L 581 3500 
L 1159 3500 
L 1159 2969 
Q 1341 3281 1617 3432 
Q 1894 3584 2278 3584 
Q 2916 3584 3314 3078 
Q 3713 2572 3713 1747 
Q 3713 922 3314 415 
Q 2916 -91 2278 -91 
Q 1894 -91 1617 61 
Q 1341 213 1159 525 
z
M 3116 1747 
Q 3116 2381 2855 2742 
Q 2594 3103 2138 3103 
Q 1681 3103 1420 2742 
Q 1159 2381 1159 1747 
Q 1159 1113 1420 752 
Q 1681 391 2138 391 
Q 2594 391 2855 752 
Q 3116 1113 3116 1747 
z
" transform="scale(0.015625)"/>
       <path id="DejaVuSans-74" d="M 1172 4494 
L 1172 3500 
L 2356 3500 
L 2356 3053 
L 1172 3053 
L 1172 1153 
Q 1172 725 1289 603 
Q 1406 481 1766 481 
L 2356 481 
L 2356 0 
L 1766 0 
Q 1100 0 847 248 
Q 594 497 594 1153 
L 594 3053 
L 172 3053 
L 172 3500 
L 594 3500 
L 594 4494 
L 1172 4494 
z
" transform="scale(0.015625)"/>
       <path id="DejaVuSans-79" d="M 2059 -325 
Q 1816 -950 1584 -1140 
Q 1353 -1331 966 -1331 
L 506 -1331 
L 506 -850 
L 844 -850 
Q 1081 -850 1212 -737 
Q 1344 -625 1503 -206 
L 1606 56 
L 191 3500 
L 800 3500 
L 1894 763 
L 2988 3500 
L 3597 3500 
L 2059 -325 
z
" transform="scale(0.015625)"/>
      </defs>
      <use xlink:href="#DejaVuSans-64"/>
      <use xlink:href="#DejaVuSans-69" x="63.476562"/>
      <use xlink:href="#DejaVuSans-73" x="91.259766"/>
      <use xlink:href="#DejaVuSans-72" x="143.359375"/>
      <use xlink:href="#DejaVuSans-75" x="184.472656"/>
      <use xlink:href="#DejaVuSans-70" x="247.851562"/>
      <use xlink:href="#DejaVuSans-74" x="311.328125"/>
      <use xlink:href="#DejaVuSans-65" x="350.537109"/>
      <use xlink:href="#DejaVuSans-64" x="412.060547"/>
      <use xlink:href="#DejaVuSans-20" x="475.537109"/>
      <use xlink:href="#DejaVuSans-62" x="507.324219"/>
      <use xlink:href="#DejaVuSans-79" x="570.800781"/>
     </g>
    </g>
   </g>
   <g id="PathCollection_1">
    <defs>
     <path id="C0_0_3c0730c2df" d="M 0 52.440442 
C 13.907368 52.440442 27.246998 46.914987 37.080992 37.080992 
C 46.914987 27.246998 52.440442 13.907368 52.440442 -0 
C 52.440442 -13.907368 46.914987 -27.246998 37.080992 -37.080992 
C 27.246998 -46.914987 13.907368 -52.440442 0 -52.440442 
C -13.907368 -52.440442 -27.246998 -46.914987 -37.080992 -37.080992 
C -46.914987 -27.246998 -52.440442 -13.907368 -52.440442 0 
C -52.440442 13.907368 -46.914987 27.246998 -37.080992 37.080992 
C -27.246998 46.914987 -13.907368 52.440442 0 52.440442 
z
"/>
    </defs>
    <g clip-path="url(#p9931dd2011)">
     <use xlink:href="#C0_0_3c0730c2df" x="74.975207" y="180" style="fill: #01c472; stroke: #01c472"/>
    </g>
    <g clip-path="url(#p9931dd2011)">
     <use xlink:href="#C0_0_3c0730c2df" x="432" y="180" style="fill: #e71761; stroke: #e71761"/>
    </g>
    <g clip-path="url(#p9931dd2011)">
     <use xlink:href="#C0_0_3c0730c2df" x="789.024793" y="180" style="fill: #70c6ca; stroke: #70c6ca"/>
    </g>
   </g>
   <g id="text_3">
    <path d="M 390.359062 163.155187 
L 387.019687 154.406437 
L 388.255312 154.406437 
L 391.028437 161.771437 
L 393.805312 154.406437 
L 395.035312 154.406437 
L 391.701562 163.155187 
L 390.359062 163.155187 
z
M 397.878047 157.348312 
Q 397.011797 157.348312 396.507422 158.025187 
Q 396.003047 158.702062 396.003047 159.879562 
Q 396.003047 161.057062 396.503672 161.733937 
Q 397.006172 162.410812 397.878047 162.410812 
Q 398.740547 162.410812 399.243047 161.732062 
Q 399.747422 161.051437 399.747422 159.879562 
Q 399.747422 158.713312 399.243047 158.030812 
Q 398.740547 157.348312 397.878047 157.348312 
z
M 397.878047 156.435187 
Q 399.284297 156.435187 400.086797 157.350187 
Q 400.891172 158.263312 400.891172 159.879562 
Q 400.891172 161.490187 400.086797 162.408937 
Q 399.284297 163.325812 397.878047 163.325812 
Q 396.466172 163.325812 395.665547 162.408937 
Q 394.866797 161.490187 394.866797 159.879562 
Q 394.866797 158.263312 395.665547 157.350187 
Q 396.466172 156.435187 397.878047 156.435187 
z
M 408.133594 159.193312 
L 408.133594 163.155187 
L 407.055469 163.155187 
L 407.055469 159.228937 
Q 407.055469 158.297062 406.691719 157.835812 
Q 406.327969 157.372687 405.602344 157.372687 
Q 404.728594 157.372687 404.224219 157.929562 
Q 403.719844 158.484562 403.719844 159.446437 
L 403.719844 163.155187 
L 402.636094 163.155187 
L 402.636094 156.592687 
L 403.719844 156.592687 
L 403.719844 157.612687 
Q 404.107969 157.020187 404.631094 156.727687 
Q 405.156094 156.435187 405.842344 156.435187 
Q 406.972969 156.435187 407.552344 157.134562 
Q 408.133594 157.833937 408.133594 159.193312 
z
M 413.366016 154.406437 
L 414.560391 154.406437 
L 416.399766 161.801437 
L 418.233516 154.406437 
L 419.564766 154.406437 
L 421.404141 161.801437 
L 423.237891 154.406437 
L 424.439766 154.406437 
L 422.242266 163.155187 
L 420.753516 163.155187 
L 418.908516 155.561437 
L 417.044766 163.155187 
L 415.556016 163.155187 
L 413.366016 154.406437 
z
M 425.6925 156.592687 
L 426.770625 156.592687 
L 426.770625 163.155187 
L 425.6925 163.155187 
L 425.6925 156.592687 
z
M 425.6925 154.037062 
L 426.770625 154.037062 
L 426.770625 155.403937 
L 425.6925 155.403937 
L 425.6925 154.037062 
z
M 429.026484 154.037062 
L 430.104609 154.037062 
L 430.104609 163.155187 
L 429.026484 163.155187 
L 429.026484 154.037062 
z
M 432.360469 154.037062 
L 433.438594 154.037062 
L 433.438594 163.155187 
L 432.360469 163.155187 
L 432.360469 154.037062 
z
M 441.308203 159.603937 
L 441.308203 160.130812 
L 436.350703 160.130812 
Q 436.421953 161.244562 437.021953 161.827687 
Q 437.621953 162.410812 438.694453 162.410812 
Q 439.315078 162.410812 439.898203 162.258937 
Q 440.481328 162.107062 441.056953 161.801437 
L 441.056953 162.821437 
Q 440.475703 163.067062 439.866328 163.196437 
Q 439.256953 163.325812 438.630703 163.325812 
Q 437.059453 163.325812 436.142578 162.412687 
Q 435.225703 161.497687 435.225703 159.937687 
Q 435.225703 158.327062 436.095703 157.382062 
Q 436.965703 156.435187 438.443203 156.435187 
Q 439.766953 156.435187 440.537578 157.288312 
Q 441.308203 158.139562 441.308203 159.603937 
z
M 440.230078 159.287062 
Q 440.218828 158.403937 439.735078 157.877062 
Q 439.251328 157.348312 438.454453 157.348312 
Q 437.552578 157.348312 437.010703 157.858312 
Q 436.468828 158.368312 436.386328 159.294562 
L 440.230078 159.287062 
z
M 447.789141 159.879562 
Q 447.789141 158.690812 447.299766 158.013937 
Q 446.810391 157.337062 445.955391 157.337062 
Q 445.098516 157.337062 444.609141 158.013937 
Q 444.119766 158.690812 444.119766 159.879562 
Q 444.119766 161.068312 444.609141 161.745187 
Q 445.098516 162.422062 445.955391 162.422062 
Q 446.810391 162.422062 447.299766 161.745187 
Q 447.789141 161.068312 447.789141 159.879562 
z
M 444.119766 157.588312 
Q 444.461016 157.003312 444.978516 156.720187 
Q 445.497891 156.435187 446.217891 156.435187 
Q 447.414141 156.435187 448.160391 157.383937 
Q 448.908516 158.332687 448.908516 159.879562 
Q 448.908516 161.426437 448.160391 162.377062 
Q 447.414141 163.325812 446.217891 163.325812 
Q 445.497891 163.325812 444.978516 163.040812 
Q 444.461016 162.755812 444.119766 162.170812 
L 444.119766 163.155187 
L 443.036016 163.155187 
L 443.036016 154.037062 
L 444.119766 154.037062 
L 444.119766 157.588312 
z
M 454.496953 157.599562 
Q 454.315078 157.494562 454.101328 157.445812 
Q 453.887578 157.395187 453.630703 157.395187 
Q 452.715703 157.395187 452.226328 157.989562 
Q 451.736953 158.583937 451.736953 159.697687 
L 451.736953 163.155187 
L 450.653203 163.155187 
L 450.653203 156.592687 
L 451.736953 156.592687 
L 451.736953 157.612687 
Q 452.078203 157.014562 452.621953 156.725812 
Q 453.167578 156.435187 453.947578 156.435187 
Q 454.058203 156.435187 454.193203 156.450187 
Q 454.328203 156.463312 454.491328 156.493312 
L 454.496953 157.599562 
z
M 458.611172 159.857062 
Q 457.304297 159.857062 456.799922 160.155187 
Q 456.295547 160.453312 456.295547 161.175187 
Q 456.295547 161.748937 456.674297 162.086437 
Q 457.053047 162.422062 457.701797 162.422062 
Q 458.599922 162.422062 459.141797 161.786437 
Q 459.683672 161.150812 459.683672 160.097062 
L 459.683672 159.857062 
L 458.611172 159.857062 
z
M 460.761797 159.410812 
L 460.761797 163.155187 
L 459.683672 163.155187 
L 459.683672 162.159562 
Q 459.314297 162.755812 458.763047 163.040812 
Q 458.211797 163.325812 457.414922 163.325812 
Q 456.408047 163.325812 455.811797 162.759562 
Q 455.217422 162.193312 455.217422 161.244562 
Q 455.217422 160.138312 455.958047 159.575812 
Q 456.700547 159.013312 458.170547 159.013312 
L 459.683672 159.013312 
L 459.683672 158.906437 
Q 459.683672 158.162062 459.194297 157.755187 
Q 458.704922 157.348312 457.819922 157.348312 
Q 457.257422 157.348312 456.723047 157.483312 
Q 456.190547 157.618312 455.699297 157.888312 
L 455.699297 156.890812 
Q 456.289922 156.662062 456.846797 156.549562 
Q 457.403672 156.435187 457.930547 156.435187 
Q 459.355547 156.435187 460.058672 157.173937 
Q 460.761797 157.910812 460.761797 159.410812 
z
M 468.437812 159.193312 
L 468.437812 163.155187 
L 467.359687 163.155187 
L 467.359687 159.228937 
Q 467.359687 158.297062 466.995937 157.835812 
Q 466.632187 157.372687 465.906562 157.372687 
Q 465.032812 157.372687 464.528437 157.929562 
Q 464.024062 158.484562 464.024062 159.446437 
L 464.024062 163.155187 
L 462.940312 163.155187 
L 462.940312 156.592687 
L 464.024062 156.592687 
L 464.024062 157.612687 
Q 464.412187 157.020187 464.935312 156.727687 
Q 465.460312 156.435187 466.146562 156.435187 
Q 467.277187 156.435187 467.856562 157.134562 
Q 468.437812 157.833937 468.437812 159.193312 
z
M 474.905156 157.588312 
L 474.905156 154.037062 
L 475.983281 154.037062 
L 475.983281 163.155187 
L 474.905156 163.155187 
L 474.905156 162.170812 
Q 474.565781 162.755812 474.046406 163.040812 
Q 473.528906 163.325812 472.801406 163.325812 
Q 471.612656 163.325812 470.864531 162.377062 
Q 470.118281 161.426437 470.118281 159.879562 
Q 470.118281 158.332687 470.864531 157.383937 
Q 471.612656 156.435187 472.801406 156.435187 
Q 473.528906 156.435187 474.046406 156.720187 
Q 474.565781 157.003312 474.905156 157.588312 
z
M 471.232031 159.879562 
Q 471.232031 161.068312 471.721406 161.745187 
Q 472.210781 162.422062 473.065781 162.422062 
Q 473.920781 162.422062 474.412031 161.745187 
Q 474.905156 161.068312 474.905156 159.879562 
Q 474.905156 158.690812 474.412031 158.013937 
Q 473.920781 157.337062 473.065781 157.337062 
Q 472.210781 157.337062 471.721406 158.013937 
Q 471.232031 158.690812 471.232031 159.879562 
z
" clip-path="url(#p9931dd2011)" style="fill: #ffffff; stroke: #000000; stroke-width: 2"/>
    <path d="M 390.359062 163.155187 
L 387.019687 154.406437 
L 388.255312 154.406437 
L 391.028437 161.771437 
L 393.805312 154.406437 
L 395.035312 154.406437 
L 391.701562 163.155187 
L 390.359062 163.155187 
z
M 397.878047 157.348312 
Q 397.011797 157.348312 396.507422 158.025187 
Q 396.003047 158.702062 396.003047 159.879562 
Q 396.003047 161.057062 396.503672 161.733937 
Q 397.006172 162.410812 397.878047 162.410812 
Q 398.740547 162.410812 399.243047 161.732062 
Q 399.747422 161.051437 399.747422 159.879562 
Q 399.747422 158.713312 399.243047 158.030812 
Q 398.740547 157.348312 397.878047 157.348312 
z
M 397.878047 156.435187 
Q 399.284297 156.435187 400.086797 157.350187 
Q 400.891172 158.263312 400.891172 159.879562 
Q 400.891172 161.490187 400.086797 162.408937 
Q 399.284297 163.325812 397.878047 163.325812 
Q 396.466172 163.325812 395.665547 162.408937 
Q 394.866797 161.490187 394.866797 159.879562 
Q 394.866797 158.263312 395.665547 157.350187 
Q 396.466172 156.435187 397.878047 156.435187 
z
M 408.133594 159.193312 
L 408.133594 163.155187 
L 407.055469 163.155187 
L 407.055469 159.228937 
Q 407.055469 158.297062 406.691719 157.835812 
Q 406.327969 157.372687 405.602344 157.372687 
Q 404.728594 157.372687 404.224219 157.929562 
Q 403.719844 158.484562 403.719844 159.446437 
L 403.719844 163.155187 
L 402.636094 163.155187 
L 402.636094 156.592687 
L 403.719844 156.592687 
L 403.719844 157.612687 
Q 404.107969 157.020187 404.631094 156.727687 
Q 405.156094 156.435187 405.842344 156.435187 
Q 406.972969 156.435187 407.552344 157.134562 
Q 408.133594 157.833937 408.133594 159.193312 
z
M 413.366016 154.406437 
L 414.560391 154.406437 
L 416.399766 161.801437 
L 418.233516 154.406437 
L 419.564766 154.406437 
L 421.404141 161.801437 
L 423.237891 154.406437 
L 424.439766 154.406437 
L 422.242266 163.155187 
L 420.753516 163.155187 
L 418.908516 155.561437 
L 417.044766 163.155187 
L 415.556016 163.155187 
L 413.366016 154.406437 
z
M 425.6925 156.592687 
L 426.770625 156.592687 
L 426.770625 163.155187 
L 425.6925 163.155187 
L 425.6925 156.592687 
z
M 425.6925 154.037062 
L 426.770625 154.037062 
L 426.770625 155.403937 
L 425.6925 155.403937 
L 425.6925 154.037062 
z
M 429.026484 154.037062 
L 430.104609 154.037062 
L 430.104609 163.155187 
L 429.026484 163.155187 
L 429.026484 154.037062 
z
M 432.360469 154.037062 
L 433.438594 154.037062 
L 433.438594 163.155187 
L 432.360469 163.155187 
L 432.360469 154.037062 
z
M 441.308203 159.603937 
L 441.308203 160.130812 
L 436.350703 160.130812 
Q 436.421953 161.244562 437.021953 161.827687 
Q 437.621953 162.410812 438.694453 162.410812 
Q 439.315078 162.410812 439.898203 162.258937 
Q 440.481328 162.107062 441.056953 161.801437 
L 441.056953 162.821437 
Q 440.475703 163.067062 439.866328 163.196437 
Q 439.256953 163.325812 438.630703 163.325812 
Q 437.059453 163.325812 436.142578 162.412687 
Q 435.225703 161.497687 435.225703 159.937687 
Q 435.225703 158.327062 436.095703 157.382062 
Q 436.965703 156.435187 438.443203 156.435187 
Q 439.766953 156.435187 440.537578 157.288312 
Q 441.308203 158.139562 441.308203 159.603937 
z
M 440.230078 159.287062 
Q 440.218828 158.403937 439.735078 157.877062 
Q 439.251328 157.348312 438.454453 157.348312 
Q 437.552578 157.348312 437.010703 157.858312 
Q 436.468828 158.368312 436.386328 159.294562 
L 440.230078 159.287062 
z
M 447.789141 159.879562 
Q 447.789141 158.690812 447.299766 158.013937 
Q 446.810391 157.337062 445.955391 157.337062 
Q 445.098516 157.337062 444.609141 158.013937 
Q 444.119766 158.690812 444.119766 159.879562 
Q 444.119766 161.068312 444.609141 161.745187 
Q 445.098516 162.422062 445.955391 162.422062 
Q 446.810391 162.422062 447.299766 161.745187 
Q 447.789141 161.068312 447.789141 159.879562 
z
M 444.119766 157.588312 
Q 444.461016 157.003312 444.978516 156.720187 
Q 445.497891 156.435187 446.217891 156.435187 
Q 447.414141 156.435187 448.160391 157.383937 
Q 448.908516 158.332687 448.908516 159.879562 
Q 448.908516 161.426437 448.160391 162.377062 
Q 447.414141 163.325812 446.217891 163.325812 
Q 445.497891 163.325812 444.978516 163.040812 
Q 444.461016 162.755812 444.119766 162.170812 
L 444.119766 163.155187 
L 443.036016 163.155187 
L 443.036016 154.037062 
L 444.119766 154.037062 
L 444.119766 157.588312 
z
M 454.496953 157.599562 
Q 454.315078 157.494562 454.101328 157.445812 
Q 453.887578 157.395187 453.630703 157.395187 
Q 452.715703 157.395187 452.226328 157.989562 
Q 451.736953 158.583937 451.736953 159.697687 
L 451.736953 163.155187 
L 450.653203 163.155187 
L 450.653203 156.592687 
L 451.736953 156.592687 
L 451.736953 157.612687 
Q 452.078203 157.014562 452.621953 156.725812 
Q 453.167578 156.435187 453.947578 156.435187 
Q 454.058203 156.435187 454.193203 156.450187 
Q 454.328203 156.463312 454.491328 156.493312 
L 454.496953 157.599562 
z
M 458.611172 159.857062 
Q 457.304297 159.857062 456.799922 160.155187 
Q 456.295547 160.453312 456.295547 161.175187 
Q 456.295547 161.748937 456.674297 162.086437 
Q 457.053047 162.422062 457.701797 162.422062 
Q 458.599922 162.422062 459.141797 161.786437 
Q 459.683672 161.150812 459.683672 160.097062 
L 459.683672 159.857062 
L 458.611172 159.857062 
z
M 460.761797 159.410812 
L 460.761797 163.155187 
L 459.683672 163.155187 
L 459.683672 162.159562 
Q 459.314297 162.755812 458.763047 163.040812 
Q 458.211797 163.325812 457.414922 163.325812 
Q 456.408047 163.325812 455.811797 162.759562 
Q 455.217422 162.193312 455.217422 161.244562 
Q 455.217422 160.138312 455.958047 159.575812 
Q 456.700547 159.013312 458.170547 159.013312 
L 459.683672 159.013312 
L 459.683672 158.906437 
Q 459.683672 158.162062 459.194297 157.755187 
Q 458.704922 157.348312 457.819922 157.348312 
Q 457.257422 157.348312 456.723047 157.483312 
Q 456.190547 157.618312 455.699297 157.888312 
L 455.699297 156.890812 
Q 456.289922 156.662062 456.846797 156.549562 
Q 457.403672 156.435187 457.930547 156.435187 
Q 459.355547 156.435187 460.058672 157.173937 
Q 460.761797 157.910812 460.761797 159.410812 
z
M 468.437812 159.193312 
L 468.437812 163.155187 
L 467.359687 163.155187 
L 467.359687 159.228937 
Q 467.359687 158.297062 466.995937 157.835812 
Q 466.632187 157.372687 465.906562 157.372687 
Q 465.032812 157.372687 464.528437 157.929562 
Q 464.024062 158.484562 464.024062 159.446437 
L 464.024062 163.155187 
L 462.940312 163.155187 
L 462.940312 156.592687 
L 464.024062 156.592687 
L 464.024062 157.612687 
Q 464.412187 157.020187 464.935312 156.727687 
Q 465.460312 156.435187 466.146562 156.435187 
Q 467.277187 156.435187 467.856562 157.134562 
Q 468.437812 157.833937 468.437812 159.193312 
z
M 474.905156 157.588312 
L 474.905156 154.037062 
L 475.983281 154.037062 
L 475.983281 163.155187 
L 474.905156 163.155187 
L 474.905156 162.170812 
Q 474.565781 162.755812 474.046406 163.040812 
Q 473.528906 163.325812 472.801406 163.325812 
Q 471.612656 163.325812 470.864531 162.377062 
Q 470.118281 161.426437 470.118281 159.879562 
Q 470.118281 158.332687 470.864531 157.383937 
Q 471.612656 156.435187 472.801406 156.435187 
Q 473.528906 156.435187 474.046406 156.720187 
Q 474.565781 157.003312 474.905156 157.588312 
z
M 471.232031 159.879562 
Q 471.232031 161.068312 471.721406 161.745187 
Q 472.210781 162.422062 473.065781 162.422062 
Q 473.920781 162.422062 474.412031 161.745187 
Q 474.905156 161.068312 474.905156 159.879562 
Q 474.905156 158.690812 474.412031 158.013937 
Q 473.920781 157.337062 473.065781 157.337062 
Q 472.210781 157.337062 471.721406 158.013937 
Q 471.232031 158.690812 471.232031 159.879562 
z
" clip-path="url(#p9931dd2011)" style="fill: #ffffff"/>
    <path d="M 418.875 167.474437 
L 418.875 168.372562 
L 417.84375 168.372562 
Q 417.264375 168.372562 417.0375 168.606937 
Q 416.8125 168.841312 416.8125 169.450687 
L 416.8125 170.030062 
L 418.588125 170.030062 
L 418.588125 170.868187 
L 416.8125 170.868187 
L 416.8125 176.592562 
L 415.72875 176.592562 
L 415.72875 170.868187 
L 414.6975 170.868187 
L 414.6975 170.030062 
L 415.72875 170.030062 
L 415.72875 169.572562 
Q 415.72875 168.477562 416.23875 167.976937 
Q 416.74875 167.474437 417.855 167.474437 
L 418.875 167.474437 
z
M 422.760234 173.294437 
Q 421.453359 173.294437 420.948984 173.592562 
Q 420.444609 173.890687 420.444609 174.612562 
Q 420.444609 175.186312 420.823359 175.523812 
Q 421.202109 175.859437 421.850859 175.859437 
Q 422.748984 175.859437 423.290859 175.223812 
Q 423.832734 174.588187 423.832734 173.534437 
L 423.832734 173.294437 
L 422.760234 173.294437 
z
M 424.910859 172.848187 
L 424.910859 176.592562 
L 423.832734 176.592562 
L 423.832734 175.596937 
Q 423.463359 176.193187 422.912109 176.478187 
Q 422.360859 176.763187 421.563984 176.763187 
Q 420.557109 176.763187 419.960859 176.196937 
Q 419.366484 175.630687 419.366484 174.681937 
Q 419.366484 173.575687 420.107109 173.013187 
Q 420.849609 172.450687 422.319609 172.450687 
L 423.832734 172.450687 
L 423.832734 172.343812 
Q 423.832734 171.599437 423.343359 171.192562 
Q 422.853984 170.785687 421.968984 170.785687 
Q 421.406484 170.785687 420.872109 170.920687 
Q 420.339609 171.055687 419.848359 171.325687 
L 419.848359 170.328187 
Q 420.438984 170.099437 420.995859 169.986937 
Q 421.552734 169.872562 422.079609 169.872562 
Q 423.504609 169.872562 424.207734 170.611312 
Q 424.910859 171.348187 424.910859 172.848187 
z
M 431.85375 170.281312 
L 431.85375 171.290062 
Q 431.39625 171.036937 430.936875 170.911312 
Q 430.4775 170.785687 430.00875 170.785687 
Q 428.95875 170.785687 428.3775 171.451312 
Q 427.798125 172.115062 427.798125 173.316937 
Q 427.798125 174.518812 428.3775 175.184437 
Q 428.95875 175.848187 430.00875 175.848187 
Q 430.4775 175.848187 430.936875 175.722562 
Q 431.39625 175.596937 431.85375 175.343812 
L 431.85375 176.341312 
Q 431.401875 176.551312 430.918125 176.656312 
Q 430.43625 176.763187 429.890625 176.763187 
Q 428.4075 176.763187 427.53375 175.831312 
Q 426.661875 174.899437 426.661875 173.316937 
Q 426.661875 171.711937 427.543125 170.793187 
Q 428.42625 169.872562 429.961875 169.872562 
Q 430.45875 169.872562 430.933125 169.975687 
Q 431.4075 170.076937 431.85375 170.281312 
z
M 434.795156 168.166312 
L 434.795156 170.030062 
L 437.015156 170.030062 
L 437.015156 170.868187 
L 434.795156 170.868187 
L 434.795156 174.430687 
Q 434.795156 175.233187 435.014531 175.461937 
Q 435.233906 175.690687 435.908906 175.690687 
L 437.015156 175.690687 
L 437.015156 176.592562 
L 435.908906 176.592562 
Q 434.660156 176.592562 434.185781 176.127562 
Q 433.711406 175.660687 433.711406 174.430687 
L 433.711406 170.868187 
L 432.920156 170.868187 
L 432.920156 170.030062 
L 433.711406 170.030062 
L 433.711406 168.166312 
L 434.795156 168.166312 
z
M 440.975859 170.785687 
Q 440.109609 170.785687 439.605234 171.462562 
Q 439.100859 172.139437 439.100859 173.316937 
Q 439.100859 174.494437 439.601484 175.171312 
Q 440.103984 175.848187 440.975859 175.848187 
Q 441.838359 175.848187 442.340859 175.169437 
Q 442.845234 174.488812 442.845234 173.316937 
Q 442.845234 172.150687 442.340859 171.468187 
Q 441.838359 170.785687 440.975859 170.785687 
z
M 440.975859 169.872562 
Q 442.382109 169.872562 443.184609 170.787562 
Q 443.988984 171.700687 443.988984 173.316937 
Q 443.988984 174.927562 443.184609 175.846312 
Q 442.382109 176.763187 440.975859 176.763187 
Q 439.563984 176.763187 438.763359 175.846312 
Q 437.964609 174.927562 437.964609 173.316937 
Q 437.964609 171.700687 438.763359 170.787562 
Q 439.563984 169.872562 440.975859 169.872562 
z
M 449.577656 171.036937 
Q 449.395781 170.931937 449.182031 170.883187 
Q 448.968281 170.832562 448.711406 170.832562 
Q 447.796406 170.832562 447.307031 171.426937 
Q 446.817656 172.021312 446.817656 173.135062 
L 446.817656 176.592562 
L 445.733906 176.592562 
L 445.733906 170.030062 
L 446.817656 170.030062 
L 446.817656 171.050062 
Q 447.158906 170.451937 447.702656 170.163187 
Q 448.248281 169.872562 449.028281 169.872562 
Q 449.138906 169.872562 449.273906 169.887562 
Q 449.408906 169.900687 449.572031 169.930687 
L 449.577656 171.036937 
z
" clip-path="url(#p9931dd2011)" style="fill: #ffffff; stroke: #000000; stroke-width: 2"/>
    <path d="M 418.875 167.474437 
L 418.875 168.372562 
L 417.84375 168.372562 
Q 417.264375 168.372562 417.0375 168.606937 
Q 416.8125 168.841312 416.8125 169.450687 
L 416.8125 170.030062 
L 418.588125 170.030062 
L 418.588125 170.868187 
L 416.8125 170.868187 
L 416.8125 176.592562 
L 415.72875 176.592562 
L 415.72875 170.868187 
L 414.6975 170.868187 
L 414.6975 170.030062 
L 415.72875 170.030062 
L 415.72875 169.572562 
Q 415.72875 168.477562 416.23875 167.976937 
Q 416.74875 167.474437 417.855 167.474437 
L 418.875 167.474437 
z
M 422.760234 173.294437 
Q 421.453359 173.294437 420.948984 173.592562 
Q 420.444609 173.890687 420.444609 174.612562 
Q 420.444609 175.186312 420.823359 175.523812 
Q 421.202109 175.859437 421.850859 175.859437 
Q 422.748984 175.859437 423.290859 175.223812 
Q 423.832734 174.588187 423.832734 173.534437 
L 423.832734 173.294437 
L 422.760234 173.294437 
z
M 424.910859 172.848187 
L 424.910859 176.592562 
L 423.832734 176.592562 
L 423.832734 175.596937 
Q 423.463359 176.193187 422.912109 176.478187 
Q 422.360859 176.763187 421.563984 176.763187 
Q 420.557109 176.763187 419.960859 176.196937 
Q 419.366484 175.630687 419.366484 174.681937 
Q 419.366484 173.575687 420.107109 173.013187 
Q 420.849609 172.450687 422.319609 172.450687 
L 423.832734 172.450687 
L 423.832734 172.343812 
Q 423.832734 171.599437 423.343359 171.192562 
Q 422.853984 170.785687 421.968984 170.785687 
Q 421.406484 170.785687 420.872109 170.920687 
Q 420.339609 171.055687 419.848359 171.325687 
L 419.848359 170.328187 
Q 420.438984 170.099437 420.995859 169.986937 
Q 421.552734 169.872562 422.079609 169.872562 
Q 423.504609 169.872562 424.207734 170.611312 
Q 424.910859 171.348187 424.910859 172.848187 
z
M 431.85375 170.281312 
L 431.85375 171.290062 
Q 431.39625 171.036937 430.936875 170.911312 
Q 430.4775 170.785687 430.00875 170.785687 
Q 428.95875 170.785687 428.3775 171.451312 
Q 427.798125 172.115062 427.798125 173.316937 
Q 427.798125 174.518812 428.3775 175.184437 
Q 428.95875 175.848187 430.00875 175.848187 
Q 430.4775 175.848187 430.936875 175.722562 
Q 431.39625 175.596937 431.85375 175.343812 
L 431.85375 176.341312 
Q 431.401875 176.551312 430.918125 176.656312 
Q 430.43625 176.763187 429.890625 176.763187 
Q 428.4075 176.763187 427.53375 175.831312 
Q 426.661875 174.899437 426.661875 173.316937 
Q 426.661875 171.711937 427.543125 170.793187 
Q 428.42625 169.872562 429.961875 169.872562 
Q 430.45875 169.872562 430.933125 169.975687 
Q 431.4075 170.076937 431.85375 170.281312 
z
M 434.795156 168.166312 
L 434.795156 170.030062 
L 437.015156 170.030062 
L 437.015156 170.868187 
L 434.795156 170.868187 
L 434.795156 174.430687 
Q 434.795156 175.233187 435.014531 175.461937 
Q 435.233906 175.690687 435.908906 175.690687 
L 437.015156 175.690687 
L 437.015156 176.592562 
L 435.908906 176.592562 
Q 434.660156 176.592562 434.185781 176.127562 
Q 433.711406 175.660687 433.711406 174.430687 
L 433.711406 170.868187 
L 432.920156 170.868187 
L 432.920156 170.030062 
L 433.711406 170.030062 
L 433.711406 168.166312 
L 434.795156 168.166312 
z
M 440.975859 170.785687 
Q 440.109609 170.785687 439.605234 171.462562 
Q 439.100859 172.139437 439.100859 173.316937 
Q 439.100859 174.494437 439.601484 175.171312 
Q 440.103984 175.848187 440.975859 175.848187 
Q 441.838359 175.848187 442.340859 175.169437 
Q 442.845234 174.488812 442.845234 173.316937 
Q 442.845234 172.150687 442.340859 171.468187 
Q 441.838359 170.785687 440.975859 170.785687 
z
M 440.975859 169.872562 
Q 442.382109 169.872562 443.184609 170.787562 
Q 443.988984 171.700687 443.988984 173.316937 
Q 443.988984 174.927562 443.184609 175.846312 
Q 442.382109 176.763187 440.975859 176.763187 
Q 439.563984 176.763187 438.763359 175.846312 
Q 437.964609 174.927562 437.964609 173.316937 
Q 437.964609 171.700687 438.763359 170.787562 
Q 439.563984 169.872562 440.975859 169.872562 
z
M 449.577656 171.036937 
Q 449.395781 170.931937 449.182031 170.883187 
Q 448.968281 170.832562 448.711406 170.832562 
Q 447.796406 170.832562 447.307031 171.426937 
Q 446.817656 172.021312 446.817656 173.135062 
L 446.817656 176.592562 
L 445.733906 176.592562 
L 445.733906 170.030062 
L 446.817656 170.030062 
L 446.817656 171.050062 
Q 447.158906 170.451937 447.702656 170.163187 
Q 448.248281 169.872562 449.028281 169.872562 
Q 449.138906 169.872562 449.273906 169.887562 
Q 449.408906 169.900687 449.572031 169.930687 
L 449.577656 171.036937 
z
" clip-path="url(#p9931dd2011)" style="fill: #ffffff"/>
    <path d="M 386.5875 181.281187 
L 387.778125 181.281187 
L 387.778125 186.596812 
Q 387.778125 188.003062 388.28625 188.621812 
Q 388.79625 189.238687 389.94 189.238687 
Q 391.07625 189.238687 391.58625 188.621812 
Q 392.09625 188.003062 392.09625 186.596812 
L 392.09625 181.281187 
L 393.285 181.281187 
L 393.285 186.743062 
Q 393.285 188.453062 392.4375 189.326812 
Q 391.591875 190.200562 389.94 190.200562 
Q 388.280625 190.200562 387.433125 189.326812 
Q 386.5875 188.453062 386.5875 186.743062 
L 386.5875 181.281187 
z
M 400.915078 186.068062 
L 400.915078 190.029937 
L 399.836953 190.029937 
L 399.836953 186.103687 
Q 399.836953 185.171812 399.473203 184.710562 
Q 399.109453 184.247437 398.383828 184.247437 
Q 397.510078 184.247437 397.005703 184.804312 
Q 396.501328 185.359312 396.501328 186.321187 
L 396.501328 190.029937 
L 395.417578 190.029937 
L 395.417578 183.467437 
L 396.501328 183.467437 
L 396.501328 184.487437 
Q 396.889453 183.894937 397.412578 183.602437 
Q 397.937578 183.309937 398.623828 183.309937 
Q 399.754453 183.309937 400.333828 184.009312 
Q 400.915078 184.708687 400.915078 186.068062 
z
M 403.064297 183.467437 
L 404.142422 183.467437 
L 404.142422 190.029937 
L 403.064297 190.029937 
L 403.064297 183.467437 
z
M 403.064297 180.911812 
L 404.142422 180.911812 
L 404.142422 182.278687 
L 403.064297 182.278687 
L 403.064297 180.911812 
z
M 407.628281 182.254312 
L 407.628281 185.541187 
L 409.117031 185.541187 
Q 409.943906 185.541187 410.393906 185.113687 
Q 410.845781 184.686187 410.845781 183.894937 
Q 410.845781 183.109312 410.393906 182.681812 
Q 409.943906 182.254312 409.117031 182.254312 
L 407.628281 182.254312 
z
M 406.445156 181.281187 
L 409.117031 181.281187 
Q 410.588906 181.281187 411.340781 181.946812 
Q 412.094531 182.612437 412.094531 183.894937 
Q 412.094531 185.190562 411.340781 185.852437 
Q 410.588906 186.514312 409.117031 186.514312 
L 407.628281 186.514312 
L 407.628281 190.029937 
L 406.445156 190.029937 
L 406.445156 181.281187 
z
M 417.227109 184.474312 
Q 417.045234 184.369312 416.831484 184.320562 
Q 416.617734 184.269937 416.360859 184.269937 
Q 415.445859 184.269937 414.956484 184.864312 
Q 414.467109 185.458687 414.467109 186.572437 
L 414.467109 190.029937 
L 413.383359 190.029937 
L 413.383359 183.467437 
L 414.467109 183.467437 
L 414.467109 184.487437 
Q 414.808359 183.889312 415.352109 183.600562 
Q 415.897734 183.309937 416.677734 183.309937 
Q 416.788359 183.309937 416.923359 183.324937 
Q 417.058359 183.338062 417.221484 183.368062 
L 417.227109 184.474312 
z
M 420.630703 184.223062 
Q 419.764453 184.223062 419.260078 184.899937 
Q 418.755703 185.576812 418.755703 186.754312 
Q 418.755703 187.931812 419.256328 188.608687 
Q 419.758828 189.285562 420.630703 189.285562 
Q 421.493203 189.285562 421.995703 188.606812 
Q 422.500078 187.926187 422.500078 186.754312 
Q 422.500078 185.588062 421.995703 184.905562 
Q 421.493203 184.223062 420.630703 184.223062 
z
M 420.630703 183.309937 
Q 422.036953 183.309937 422.839453 184.224937 
Q 423.643828 185.138062 423.643828 186.754312 
Q 423.643828 188.364937 422.839453 189.283687 
Q 422.036953 190.200562 420.630703 190.200562 
Q 419.218828 190.200562 418.418203 189.283687 
Q 417.619453 188.364937 417.619453 186.754312 
Q 417.619453 185.138062 418.418203 184.224937 
Q 419.218828 183.309937 420.630703 183.309937 
z
M 426.496875 181.603687 
L 426.496875 183.467437 
L 428.716875 183.467437 
L 428.716875 184.305562 
L 426.496875 184.305562 
L 426.496875 187.868062 
Q 426.496875 188.670562 426.71625 188.899312 
Q 426.935625 189.128062 427.610625 189.128062 
L 428.716875 189.128062 
L 428.716875 190.029937 
L 427.610625 190.029937 
Q 426.361875 190.029937 425.8875 189.564937 
Q 425.413125 189.098062 425.413125 187.868062 
L 425.413125 184.305562 
L 424.621875 184.305562 
L 424.621875 183.467437 
L 425.413125 183.467437 
L 425.413125 181.603687 
L 426.496875 181.603687 
z
M 430.410703 188.541187 
L 431.646328 188.541187 
L 431.646328 190.029937 
L 430.410703 190.029937 
L 430.410703 188.541187 
z
M 430.410703 183.825562 
L 431.646328 183.825562 
L 431.646328 185.312437 
L 430.410703 185.312437 
L 430.410703 183.825562 
z
M 435.408047 182.254312 
L 435.408047 185.541187 
L 436.896797 185.541187 
Q 437.723672 185.541187 438.173672 185.113687 
Q 438.625547 184.686187 438.625547 183.894937 
Q 438.625547 183.109312 438.173672 182.681812 
Q 437.723672 182.254312 436.896797 182.254312 
L 435.408047 182.254312 
z
M 434.224922 181.281187 
L 436.896797 181.281187 
Q 438.368672 181.281187 439.120547 181.946812 
Q 439.874297 182.612437 439.874297 183.894937 
Q 439.874297 185.190562 439.120547 185.852437 
Q 438.368672 186.514312 436.896797 186.514312 
L 435.408047 186.514312 
L 435.408047 190.029937 
L 434.224922 190.029937 
L 434.224922 181.281187 
z
M 444.0975 182.061187 
Q 443.184375 182.061187 442.723125 182.961187 
Q 442.26375 183.859312 442.26375 185.664937 
Q 442.26375 187.463062 442.723125 188.363062 
Q 443.184375 189.263062 444.0975 189.263062 
Q 445.018125 189.263062 445.4775 188.363062 
Q 445.93875 187.463062 445.93875 185.664937 
Q 445.93875 183.859312 445.4775 182.961187 
Q 445.018125 182.061187 444.0975 182.061187 
z
M 444.0975 181.123687 
Q 445.569375 181.123687 446.345625 182.288062 
Q 447.121875 183.450562 447.121875 185.664937 
Q 447.121875 187.873687 446.345625 189.038062 
Q 445.569375 190.200562 444.0975 190.200562 
Q 442.6275 190.200562 441.85125 189.038062 
Q 441.075 187.873687 441.075 185.664937 
Q 441.075 183.450562 441.85125 182.288062 
Q 442.6275 181.123687 444.0975 181.123687 
z
M 452.454141 182.312437 
L 449.465391 186.983062 
L 452.454141 186.983062 
L 452.454141 182.312437 
z
M 452.142891 181.281187 
L 453.631641 181.281187 
L 453.631641 186.983062 
L 454.880391 186.983062 
L 454.880391 187.967437 
L 453.631641 187.967437 
L 453.631641 190.029937 
L 452.454141 190.029937 
L 452.454141 187.967437 
L 448.505391 187.967437 
L 448.505391 186.825562 
L 452.142891 181.281187 
z
M 457.855781 189.034312 
L 461.986406 189.034312 
L 461.986406 190.029937 
L 456.432656 190.029937 
L 456.432656 189.034312 
Q 457.105781 188.336812 458.268281 187.163062 
Q 459.432656 185.987437 459.730781 185.646187 
Q 460.298906 185.008687 460.523906 184.566187 
Q 460.750781 184.123687 460.750781 183.696187 
Q 460.750781 182.998687 460.261406 182.559937 
Q 459.772031 182.119312 458.986406 182.119312 
Q 458.429531 182.119312 457.810781 182.312437 
Q 457.193906 182.505562 456.490781 182.899312 
L 456.490781 181.703062 
Q 457.205156 181.416187 457.825781 181.269937 
Q 458.448281 181.123687 458.963906 181.123687 
Q 460.323281 181.123687 461.131406 181.804312 
Q 461.939531 182.483062 461.939531 183.619312 
Q 461.939531 184.159312 461.737031 184.643062 
Q 461.536406 185.124937 461.002031 185.781187 
Q 460.855781 185.951812 460.070156 186.763687 
Q 459.286406 187.575562 457.855781 189.034312 
z
M 464.172422 181.281187 
L 469.797422 181.281187 
L 469.797422 181.785562 
L 466.621172 190.029937 
L 465.385547 190.029937 
L 468.374297 182.278687 
L 464.172422 182.278687 
L 464.172422 181.281187 
z
M 472.118437 181.281187 
L 476.764687 181.281187 
L 476.764687 182.278687 
L 473.202187 182.278687 
L 473.202187 184.421812 
Q 473.459062 184.333687 473.715937 184.290562 
Q 473.974687 184.247437 474.233437 184.247437 
Q 475.697812 184.247437 476.552812 185.049937 
Q 477.409687 185.852437 477.409687 187.223062 
Q 477.409687 188.634937 476.530312 189.418687 
Q 475.650937 190.200562 474.051562 190.200562 
Q 473.500312 190.200562 472.928437 190.106812 
Q 472.358437 190.013062 471.749062 189.825562 
L 471.749062 188.634937 
Q 472.275937 188.921812 472.838437 189.062437 
Q 473.400937 189.203062 474.027187 189.203062 
Q 475.041562 189.203062 475.632187 188.670562 
Q 476.224687 188.138062 476.224687 187.223062 
Q 476.224687 186.309937 475.632187 185.777437 
Q 475.041562 185.243062 474.027187 185.243062 
Q 473.552812 185.243062 473.080312 185.348062 
Q 472.609687 185.453062 472.118437 185.676187 
L 472.118437 181.281187 
z
" clip-path="url(#p9931dd2011)" style="fill: #ffffff; stroke: #000000; stroke-width: 2"/>
    <path d="M 386.5875 181.281187 
L 387.778125 181.281187 
L 387.778125 186.596812 
Q 387.778125 188.003062 388.28625 188.621812 
Q 388.79625 189.238687 389.94 189.238687 
Q 391.07625 189.238687 391.58625 188.621812 
Q 392.09625 188.003062 392.09625 186.596812 
L 392.09625 181.281187 
L 393.285 181.281187 
L 393.285 186.743062 
Q 393.285 188.453062 392.4375 189.326812 
Q 391.591875 190.200562 389.94 190.200562 
Q 388.280625 190.200562 387.433125 189.326812 
Q 386.5875 188.453062 386.5875 186.743062 
L 386.5875 181.281187 
z
M 400.915078 186.068062 
L 400.915078 190.029937 
L 399.836953 190.029937 
L 399.836953 186.103687 
Q 399.836953 185.171812 399.473203 184.710562 
Q 399.109453 184.247437 398.383828 184.247437 
Q 397.510078 184.247437 397.005703 184.804312 
Q 396.501328 185.359312 396.501328 186.321187 
L 396.501328 190.029937 
L 395.417578 190.029937 
L 395.417578 183.467437 
L 396.501328 183.467437 
L 396.501328 184.487437 
Q 396.889453 183.894937 397.412578 183.602437 
Q 397.937578 183.309937 398.623828 183.309937 
Q 399.754453 183.309937 400.333828 184.009312 
Q 400.915078 184.708687 400.915078 186.068062 
z
M 403.064297 183.467437 
L 404.142422 183.467437 
L 404.142422 190.029937 
L 403.064297 190.029937 
L 403.064297 183.467437 
z
M 403.064297 180.911812 
L 404.142422 180.911812 
L 404.142422 182.278687 
L 403.064297 182.278687 
L 403.064297 180.911812 
z
M 407.628281 182.254312 
L 407.628281 185.541187 
L 409.117031 185.541187 
Q 409.943906 185.541187 410.393906 185.113687 
Q 410.845781 184.686187 410.845781 183.894937 
Q 410.845781 183.109312 410.393906 182.681812 
Q 409.943906 182.254312 409.117031 182.254312 
L 407.628281 182.254312 
z
M 406.445156 181.281187 
L 409.117031 181.281187 
Q 410.588906 181.281187 411.340781 181.946812 
Q 412.094531 182.612437 412.094531 183.894937 
Q 412.094531 185.190562 411.340781 185.852437 
Q 410.588906 186.514312 409.117031 186.514312 
L 407.628281 186.514312 
L 407.628281 190.029937 
L 406.445156 190.029937 
L 406.445156 181.281187 
z
M 417.227109 184.474312 
Q 417.045234 184.369312 416.831484 184.320562 
Q 416.617734 184.269937 416.360859 184.269937 
Q 415.445859 184.269937 414.956484 184.864312 
Q 414.467109 185.458687 414.467109 186.572437 
L 414.467109 190.029937 
L 413.383359 190.029937 
L 413.383359 183.467437 
L 414.467109 183.467437 
L 414.467109 184.487437 
Q 414.808359 183.889312 415.352109 183.600562 
Q 415.897734 183.309937 416.677734 183.309937 
Q 416.788359 183.309937 416.923359 183.324937 
Q 417.058359 183.338062 417.221484 183.368062 
L 417.227109 184.474312 
z
M 420.630703 184.223062 
Q 419.764453 184.223062 419.260078 184.899937 
Q 418.755703 185.576812 418.755703 186.754312 
Q 418.755703 187.931812 419.256328 188.608687 
Q 419.758828 189.285562 420.630703 189.285562 
Q 421.493203 189.285562 421.995703 188.606812 
Q 422.500078 187.926187 422.500078 186.754312 
Q 422.500078 185.588062 421.995703 184.905562 
Q 421.493203 184.223062 420.630703 184.223062 
z
M 420.630703 183.309937 
Q 422.036953 183.309937 422.839453 184.224937 
Q 423.643828 185.138062 423.643828 186.754312 
Q 423.643828 188.364937 422.839453 189.283687 
Q 422.036953 190.200562 420.630703 190.200562 
Q 419.218828 190.200562 418.418203 189.283687 
Q 417.619453 188.364937 417.619453 186.754312 
Q 417.619453 185.138062 418.418203 184.224937 
Q 419.218828 183.309937 420.630703 183.309937 
z
M 426.496875 181.603687 
L 426.496875 183.467437 
L 428.716875 183.467437 
L 428.716875 184.305562 
L 426.496875 184.305562 
L 426.496875 187.868062 
Q 426.496875 188.670562 426.71625 188.899312 
Q 426.935625 189.128062 427.610625 189.128062 
L 428.716875 189.128062 
L 428.716875 190.029937 
L 427.610625 190.029937 
Q 426.361875 190.029937 425.8875 189.564937 
Q 425.413125 189.098062 425.413125 187.868062 
L 425.413125 184.305562 
L 424.621875 184.305562 
L 424.621875 183.467437 
L 425.413125 183.467437 
L 425.413125 181.603687 
L 426.496875 181.603687 
z
M 430.410703 188.541187 
L 431.646328 188.541187 
L 431.646328 190.029937 
L 430.410703 190.029937 
L 430.410703 188.541187 
z
M 430.410703 183.825562 
L 431.646328 183.825562 
L 431.646328 185.312437 
L 430.410703 185.312437 
L 430.410703 183.825562 
z
M 435.408047 182.254312 
L 435.408047 185.541187 
L 436.896797 185.541187 
Q 437.723672 185.541187 438.173672 185.113687 
Q 438.625547 184.686187 438.625547 183.894937 
Q 438.625547 183.109312 438.173672 182.681812 
Q 437.723672 182.254312 436.896797 182.254312 
L 435.408047 182.254312 
z
M 434.224922 181.281187 
L 436.896797 181.281187 
Q 438.368672 181.281187 439.120547 181.946812 
Q 439.874297 182.612437 439.874297 183.894937 
Q 439.874297 185.190562 439.120547 185.852437 
Q 438.368672 186.514312 436.896797 186.514312 
L 435.408047 186.514312 
L 435.408047 190.029937 
L 434.224922 190.029937 
L 434.224922 181.281187 
z
M 444.0975 182.061187 
Q 443.184375 182.061187 442.723125 182.961187 
Q 442.26375 183.859312 442.26375 185.664937 
Q 442.26375 187.463062 442.723125 188.363062 
Q 443.184375 189.263062 444.0975 189.263062 
Q 445.018125 189.263062 445.4775 188.363062 
Q 445.93875 187.463062 445.93875 185.664937 
Q 445.93875 183.859312 445.4775 182.961187 
Q 445.018125 182.061187 444.0975 182.061187 
z
M 444.0975 181.123687 
Q 445.569375 181.123687 446.345625 182.288062 
Q 447.121875 183.450562 447.121875 185.664937 
Q 447.121875 187.873687 446.345625 189.038062 
Q 445.569375 190.200562 444.0975 190.200562 
Q 442.6275 190.200562 441.85125 189.038062 
Q 441.075 187.873687 441.075 185.664937 
Q 441.075 183.450562 441.85125 182.288062 
Q 442.6275 181.123687 444.0975 181.123687 
z
M 452.454141 182.312437 
L 449.465391 186.983062 
L 452.454141 186.983062 
L 452.454141 182.312437 
z
M 452.142891 181.281187 
L 453.631641 181.281187 
L 453.631641 186.983062 
L 454.880391 186.983062 
L 454.880391 187.967437 
L 453.631641 187.967437 
L 453.631641 190.029937 
L 452.454141 190.029937 
L 452.454141 187.967437 
L 448.505391 187.967437 
L 448.505391 186.825562 
L 452.142891 181.281187 
z
M 457.855781 189.034312 
L 461.986406 189.034312 
L 461.986406 190.029937 
L 456.432656 190.029937 
L 456.432656 189.034312 
Q 457.105781 188.336812 458.268281 187.163062 
Q 459.432656 185.987437 459.730781 185.646187 
Q 460.298906 185.008687 460.523906 184.566187 
Q 460.750781 184.123687 460.750781 183.696187 
Q 460.750781 182.998687 460.261406 182.559937 
Q 459.772031 182.119312 458.986406 182.119312 
Q 458.429531 182.119312 457.810781 182.312437 
Q 457.193906 182.505562 456.490781 182.899312 
L 456.490781 181.703062 
Q 457.205156 181.416187 457.825781 181.269937 
Q 458.448281 181.123687 458.963906 181.123687 
Q 460.323281 181.123687 461.131406 181.804312 
Q 461.939531 182.483062 461.939531 183.619312 
Q 461.939531 184.159312 461.737031 184.643062 
Q 461.536406 185.124937 461.002031 185.781187 
Q 460.855781 185.951812 460.070156 186.763687 
Q 459.286406 187.575562 457.855781 189.034312 
z
M 464.172422 181.281187 
L 469.797422 181.281187 
L 469.797422 181.785562 
L 466.621172 190.029937 
L 465.385547 190.029937 
L 468.374297 182.278687 
L 464.172422 182.278687 
L 464.172422 181.281187 
z
M 472.118437 181.281187 
L 476.764687 181.281187 
L 476.764687 182.278687 
L 473.202187 182.278687 
L 473.202187 184.421812 
Q 473.459062 184.333687 473.715937 184.290562 
Q 473.974687 184.247437 474.233437 184.247437 
Q 475.697812 184.247437 476.552812 185.049937 
Q 477.409687 185.852437 477.409687 187.223062 
Q 477.409687 188.634937 476.530312 189.418687 
Q 475.650937 190.200562 474.051562 190.200562 
Q 473.500312 190.200562 472.928437 190.106812 
Q 472.358437 190.013062 471.749062 189.825562 
L 471.749062 188.634937 
Q 472.275937 188.921812 472.838437 189.062437 
Q 473.400937 189.203062 474.027187 189.203062 
Q 475.041562 189.203062 475.632187 188.670562 
Q 476.224687 188.138062 476.224687 187.223062 
Q 476.224687 186.309937 475.632187 185.777437 
Q 475.041562 185.243062 474.027187 185.243062 
Q 473.552812 185.243062 473.080312 185.348062 
Q 472.609687 185.453062 472.118437 185.676187 
L 472.118437 181.281187 
z
" clip-path="url(#p9931dd2011)" style="fill: #ffffff"/>
    <path d="M 413.331562 195.691687 
L 413.331562 198.978562 
L 414.820312 198.978562 
Q 415.647187 198.978562 416.097187 198.551062 
Q 416.549062 198.123562 416.549062 197.332312 
Q 416.549062 196.546687 416.097187 196.119187 
Q 415.647187 195.691687 414.820312 195.691687 
L 413.331562 195.691687 
z
M 412.148437 194.718562 
L 414.820312 194.718562 
Q 416.292187 194.718562 417.044062 195.384187 
Q 417.797812 196.049812 417.797812 197.332312 
Q 417.797812 198.627937 417.044062 199.289812 
Q 416.292187 199.951687 414.820312 199.951687 
L 413.331562 199.951687 
L 413.331562 203.467312 
L 412.148437 203.467312 
L 412.148437 194.718562 
z
M 422.930391 197.911687 
Q 422.748516 197.806687 422.534766 197.757937 
Q 422.321016 197.707312 422.064141 197.707312 
Q 421.149141 197.707312 420.659766 198.301687 
Q 420.170391 198.896062 420.170391 200.009812 
L 420.170391 203.467312 
L 419.086641 203.467312 
L 419.086641 196.904812 
L 420.170391 196.904812 
L 420.170391 197.924812 
Q 420.511641 197.326687 421.055391 197.037937 
Q 421.601016 196.747312 422.381016 196.747312 
Q 422.491641 196.747312 422.626641 196.762312 
Q 422.761641 196.775437 422.924766 196.805437 
L 422.930391 197.911687 
z
M 426.333984 197.660437 
Q 425.467734 197.660437 424.963359 198.337312 
Q 424.458984 199.014187 424.458984 200.191687 
Q 424.458984 201.369187 424.959609 202.046062 
Q 425.462109 202.722937 426.333984 202.722937 
Q 427.196484 202.722937 427.698984 202.044187 
Q 428.203359 201.363562 428.203359 200.191687 
Q 428.203359 199.025437 427.698984 198.342937 
Q 427.196484 197.660437 426.333984 197.660437 
z
M 426.333984 196.747312 
Q 427.740234 196.747312 428.542734 197.662312 
Q 429.347109 198.575437 429.347109 200.191687 
Q 429.347109 201.802312 428.542734 202.721062 
Q 427.740234 203.637937 426.333984 203.637937 
Q 424.922109 203.637937 424.121484 202.721062 
Q 423.322734 201.802312 423.322734 200.191687 
Q 423.322734 198.575437 424.121484 197.662312 
Q 424.922109 196.747312 426.333984 196.747312 
z
M 432.200156 195.041062 
L 432.200156 196.904812 
L 434.420156 196.904812 
L 434.420156 197.742937 
L 432.200156 197.742937 
L 432.200156 201.305437 
Q 432.200156 202.107937 432.419531 202.336687 
Q 432.638906 202.565437 433.313906 202.565437 
L 434.420156 202.565437 
L 434.420156 203.467312 
L 433.313906 203.467312 
Q 432.065156 203.467312 431.590781 203.002312 
Q 431.116406 202.535437 431.116406 201.305437 
L 431.116406 197.742937 
L 430.325156 197.742937 
L 430.325156 196.904812 
L 431.116406 196.904812 
L 431.116406 195.041062 
L 432.200156 195.041062 
z
M 441.452109 199.916062 
L 441.452109 200.442937 
L 436.494609 200.442937 
Q 436.565859 201.556687 437.165859 202.139812 
Q 437.765859 202.722937 438.838359 202.722937 
Q 439.458984 202.722937 440.042109 202.571062 
Q 440.625234 202.419187 441.200859 202.113562 
L 441.200859 203.133562 
Q 440.619609 203.379187 440.010234 203.508562 
Q 439.400859 203.637937 438.774609 203.637937 
Q 437.203359 203.637937 436.286484 202.724812 
Q 435.369609 201.809812 435.369609 200.249812 
Q 435.369609 198.639187 436.239609 197.694187 
Q 437.109609 196.747312 438.587109 196.747312 
Q 439.910859 196.747312 440.681484 197.600437 
Q 441.452109 198.451687 441.452109 199.916062 
z
M 440.373984 199.599187 
Q 440.362734 198.716062 439.878984 198.189187 
Q 439.395234 197.660437 438.598359 197.660437 
Q 437.696484 197.660437 437.154609 198.170437 
Q 436.612734 198.680437 436.530234 199.606687 
L 440.373984 199.599187 
z
M 443.221172 196.904812 
L 444.299297 196.904812 
L 444.299297 203.467312 
L 443.221172 203.467312 
L 443.221172 196.904812 
z
M 443.221172 194.349187 
L 444.299297 194.349187 
L 444.299297 195.716062 
L 443.221172 195.716062 
L 443.221172 194.349187 
z
M 452.011406 199.505437 
L 452.011406 203.467312 
L 450.933281 203.467312 
L 450.933281 199.541062 
Q 450.933281 198.609187 450.569531 198.147937 
Q 450.205781 197.684812 449.480156 197.684812 
Q 448.606406 197.684812 448.102031 198.241687 
Q 447.597656 198.796687 447.597656 199.758562 
L 447.597656 203.467312 
L 446.513906 203.467312 
L 446.513906 196.904812 
L 447.597656 196.904812 
L 447.597656 197.924812 
Q 447.985781 197.332312 448.508906 197.039812 
Q 449.033906 196.747312 449.720156 196.747312 
Q 450.850781 196.747312 451.430156 197.446687 
Q 452.011406 198.146062 452.011406 199.505437 
z
" clip-path="url(#p9931dd2011)" style="fill: #ffffff; stroke: #000000; stroke-width: 2"/>
    <path d="M 413.331562 195.691687 
L 413.331562 198.978562 
L 414.820312 198.978562 
Q 415.647187 198.978562 416.097187 198.551062 
Q 416.549062 198.123562 416.549062 197.332312 
Q 416.549062 196.546687 416.097187 196.119187 
Q 415.647187 195.691687 414.820312 195.691687 
L 413.331562 195.691687 
z
M 412.148437 194.718562 
L 414.820312 194.718562 
Q 416.292187 194.718562 417.044062 195.384187 
Q 417.797812 196.049812 417.797812 197.332312 
Q 417.797812 198.627937 417.044062 199.289812 
Q 416.292187 199.951687 414.820312 199.951687 
L 413.331562 199.951687 
L 413.331562 203.467312 
L 412.148437 203.467312 
L 412.148437 194.718562 
z
M 422.930391 197.911687 
Q 422.748516 197.806687 422.534766 197.757937 
Q 422.321016 197.707312 422.064141 197.707312 
Q 421.149141 197.707312 420.659766 198.301687 
Q 420.170391 198.896062 420.170391 200.009812 
L 420.170391 203.467312 
L 419.086641 203.467312 
L 419.086641 196.904812 
L 420.170391 196.904812 
L 420.170391 197.924812 
Q 420.511641 197.326687 421.055391 197.037937 
Q 421.601016 196.747312 422.381016 196.747312 
Q 422.491641 196.747312 422.626641 196.762312 
Q 422.761641 196.775437 422.924766 196.805437 
L 422.930391 197.911687 
z
M 426.333984 197.660437 
Q 425.467734 197.660437 424.963359 198.337312 
Q 424.458984 199.014187 424.458984 200.191687 
Q 424.458984 201.369187 424.959609 202.046062 
Q 425.462109 202.722937 426.333984 202.722937 
Q 427.196484 202.722937 427.698984 202.044187 
Q 428.203359 201.363562 428.203359 200.191687 
Q 428.203359 199.025437 427.698984 198.342937 
Q 427.196484 197.660437 426.333984 197.660437 
z
M 426.333984 196.747312 
Q 427.740234 196.747312 428.542734 197.662312 
Q 429.347109 198.575437 429.347109 200.191687 
Q 429.347109 201.802312 428.542734 202.721062 
Q 427.740234 203.637937 426.333984 203.637937 
Q 424.922109 203.637937 424.121484 202.721062 
Q 423.322734 201.802312 423.322734 200.191687 
Q 423.322734 198.575437 424.121484 197.662312 
Q 424.922109 196.747312 426.333984 196.747312 
z
M 432.200156 195.041062 
L 432.200156 196.904812 
L 434.420156 196.904812 
L 434.420156 197.742937 
L 432.200156 197.742937 
L 432.200156 201.305437 
Q 432.200156 202.107937 432.419531 202.336687 
Q 432.638906 202.565437 433.313906 202.565437 
L 434.420156 202.565437 
L 434.420156 203.467312 
L 433.313906 203.467312 
Q 432.065156 203.467312 431.590781 203.002312 
Q 431.116406 202.535437 431.116406 201.305437 
L 431.116406 197.742937 
L 430.325156 197.742937 
L 430.325156 196.904812 
L 431.116406 196.904812 
L 431.116406 195.041062 
L 432.200156 195.041062 
z
M 441.452109 199.916062 
L 441.452109 200.442937 
L 436.494609 200.442937 
Q 436.565859 201.556687 437.165859 202.139812 
Q 437.765859 202.722937 438.838359 202.722937 
Q 439.458984 202.722937 440.042109 202.571062 
Q 440.625234 202.419187 441.200859 202.113562 
L 441.200859 203.133562 
Q 440.619609 203.379187 440.010234 203.508562 
Q 439.400859 203.637937 438.774609 203.637937 
Q 437.203359 203.637937 436.286484 202.724812 
Q 435.369609 201.809812 435.369609 200.249812 
Q 435.369609 198.639187 436.239609 197.694187 
Q 437.109609 196.747312 438.587109 196.747312 
Q 439.910859 196.747312 440.681484 197.600437 
Q 441.452109 198.451687 441.452109 199.916062 
z
M 440.373984 199.599187 
Q 440.362734 198.716062 439.878984 198.189187 
Q 439.395234 197.660437 438.598359 197.660437 
Q 437.696484 197.660437 437.154609 198.170437 
Q 436.612734 198.680437 436.530234 199.606687 
L 440.373984 199.599187 
z
M 443.221172 196.904812 
L 444.299297 196.904812 
L 444.299297 203.467312 
L 443.221172 203.467312 
L 443.221172 196.904812 
z
M 443.221172 194.349187 
L 444.299297 194.349187 
L 444.299297 195.716062 
L 443.221172 195.716062 
L 443.221172 194.349187 
z
M 452.011406 199.505437 
L 452.011406 203.467312 
L 450.933281 203.467312 
L 450.933281 199.541062 
Q 450.933281 198.609187 450.569531 198.147937 
Q 450.205781 197.684812 449.480156 197.684812 
Q 448.606406 197.684812 448.102031 198.241687 
Q 447.597656 198.796687 447.597656 199.758562 
L 447.597656 203.467312 
L 446.513906 203.467312 
L 446.513906 196.904812 
L 447.597656 196.904812 
L 447.597656 197.924812 
Q 447.985781 197.332312 448.508906 197.039812 
Q 449.033906 196.747312 449.720156 196.747312 
Q 450.850781 196.747312 451.430156 197.446687 
Q 452.011406 198.146062 452.011406 199.505437 
z
" clip-path="url(#p9931dd2011)" style="fill: #ffffff"/>
   </g>
   <g id="text_4">
    <g clip-path="url(#p9931dd2011)">
     <!-- Vasopressin -->
     <g transform="translate(39.308957 169.873875)scale(0.12 -0.12)">
      <defs>
       <path id="DejaVuSans-56" d="M 1831 0 
L 50 4666 
L 709 4666 
L 2188 738 
L 3669 4666 
L 4325 4666 
L 2547 0 
L 1831 0 
z
" transform="scale(0.015625)"/>
      </defs>
      <use xlink:href="#DejaVuSans-56"/>
      <use xlink:href="#DejaVuSans-61" x="60.658203"/>
      <use xlink:href="#DejaVuSans-73" x="121.9375"/>
      <use xlink:href="#DejaVuSans-6f" x="174.037109"/>
      <use xlink:href="#DejaVuSans-70" x="235.21875"/>
      <use xlink:href="#DejaVuSans-72" x="298.695312"/>
      <use xlink:href="#DejaVuSans-65" x="337.558594"/>
      <use xlink:href="#DejaVuSans-73" x="399.082031"/>
      <use xlink:href="#DejaVuSans-73" x="451.181641"/>
      <use xlink:href="#DejaVuSans-69" x="503.28125"/>
      <use xlink:href="#DejaVuSans-6e" x="531.064453"/>
     </g>
    </g>
    <g clip-path="url(#p9931dd2011)">
     <!-- MESH:C016671 -->
     <g transform="translate(28.569894 183.31125)scale(0.12 -0.12)">
      <defs>
       <path id="DejaVuSans-4d" d="M 628 4666 
L 1569 4666 
L 2759 1491 
L 3956 4666 
L 4897 4666 
L 4897 0 
L 4281 0 
L 4281 4097 
L 3078 897 
L 2444 897 
L 1241 4097 
L 1241 0 
L 628 0 
L 628 4666 
z
" transform="scale(0.015625)"/>
       <path id="DejaVuSans-45" d="M 628 4666 
L 3578 4666 
L 3578 4134 
L 1259 4134 
L 1259 2753 
L 3481 2753 
L 3481 2222 
L 1259 2222 
L 1259 531 
L 3634 531 
L 3634 0 
L 628 0 
L 628 4666 
z
" transform="scale(0.015625)"/>
       <path id="DejaVuSans-53" d="M 3425 4513 
L 3425 3897 
Q 3066 4069 2747 4153 
Q 2428 4238 2131 4238 
Q 1616 4238 1336 4038 
Q 1056 3838 1056 3469 
Q 1056 3159 1242 3001 
Q 1428 2844 1947 2747 
L 2328 2669 
Q 3034 2534 3370 2195 
Q 3706 1856 3706 1288 
Q 3706 609 3251 259 
Q 2797 -91 1919 -91 
Q 1588 -91 1214 -16 
Q 841 59 441 206 
L 441 856 
Q 825 641 1194 531 
Q 1563 422 1919 422 
Q 2459 422 2753 634 
Q 3047 847 3047 1241 
Q 3047 1584 2836 1778 
Q 2625 1972 2144 2069 
L 1759 2144 
Q 1053 2284 737 2584 
Q 422 2884 422 3419 
Q 422 4038 858 4394 
Q 1294 4750 2059 4750 
Q 2388 4750 2728 4690 
Q 3069 4631 3425 4513 
z
" transform="scale(0.015625)"/>
       <path id="DejaVuSans-48" d="M 628 4666 
L 1259 4666 
L 1259 2753 
L 3553 2753 
L 3553 4666 
L 4184 4666 
L 4184 0 
L 3553 0 
L 3553 2222 
L 1259 2222 
L 1259 0 
L 628 0 
L 628 4666 
z
" transform="scale(0.015625)"/>
       <path id="DejaVuSans-3a" d="M 750 794 
L 1409 794 
L 1409 0 
L 750 0 
L 750 794 
z
M 750 3309 
L 1409 3309 
L 1409 2516 
L 750 2516 
L 750 3309 
z
" transform="scale(0.015625)"/>
       <path id="DejaVuSans-43" d="M 4122 4306 
L 4122 3641 
Q 3803 3938 3442 4084 
Q 3081 4231 2675 4231 
Q 1875 4231 1450 3742 
Q 1025 3253 1025 2328 
Q 1025 1406 1450 917 
Q 1875 428 2675 428 
Q 3081 428 3442 575 
Q 3803 722 4122 1019 
L 4122 359 
Q 3791 134 3420 21 
Q 3050 -91 2638 -91 
Q 1578 -91 968 557 
Q 359 1206 359 2328 
Q 359 3453 968 4101 
Q 1578 4750 2638 4750 
Q 3056 4750 3426 4639 
Q 3797 4528 4122 4306 
z
" transform="scale(0.015625)"/>
       <path id="DejaVuSans-30" d="M 2034 4250 
Q 1547 4250 1301 3770 
Q 1056 3291 1056 2328 
Q 1056 1369 1301 889 
Q 1547 409 2034 409 
Q 2525 409 2770 889 
Q 3016 1369 3016 2328 
Q 3016 3291 2770 3770 
Q 2525 4250 2034 4250 
z
M 2034 4750 
Q 2819 4750 3233 4129 
Q 3647 3509 3647 2328 
Q 3647 1150 3233 529 
Q 2819 -91 2034 -91 
Q 1250 -91 836 529 
Q 422 1150 422 2328 
Q 422 3509 836 4129 
Q 1250 4750 2034 4750 
z
" transform="scale(0.015625)"/>
       <path id="DejaVuSans-31" d="M 794 531 
L 1825 531 
L 1825 4091 
L 703 3866 
L 703 4441 
L 1819 4666 
L 2450 4666 
L 2450 531 
L 3481 531 
L 3481 0 
L 794 0 
L 794 531 
z
" transform="scale(0.015625)"/>
       <path id="DejaVuSans-36" d="M 2113 2584 
Q 1688 2584 1439 2293 
Q 1191 2003 1191 1497 
Q 1191 994 1439 701 
Q 1688 409 2113 409 
Q 2538 409 2786 701 
Q 3034 994 3034 1497 
Q 3034 2003 2786 2293 
Q 2538 2584 2113 2584 
z
M 3366 4563 
L 3366 3988 
Q 3128 4100 2886 4159 
Q 2644 4219 2406 4219 
Q 1781 4219 1451 3797 
Q 1122 3375 1075 2522 
Q 1259 2794 1537 2939 
Q 1816 3084 2150 3084 
Q 2853 3084 3261 2657 
Q 3669 2231 3669 1497 
Q 3669 778 3244 343 
Q 2819 -91 2113 -91 
Q 1303 -91 875 529 
Q 447 1150 447 2328 
Q 447 3434 972 4092 
Q 1497 4750 2381 4750 
Q 2619 4750 2861 4703 
Q 3103 4656 3366 4563 
z
" transform="scale(0.015625)"/>
       <path id="DejaVuSans-37" d="M 525 4666 
L 3525 4666 
L 3525 4397 
L 1831 0 
L 1172 0 
L 2766 4134 
L 525 4134 
L 525 4666 
z
" transform="scale(0.015625)"/>
      </defs>
      <use xlink:href="#DejaVuSans-4d"/>
      <use xlink:href="#DejaVuSans-45" x="86.279297"/>
      <use xlink:href="#DejaVuSans-53" x="149.462891"/>
      <use xlink:href="#DejaVuSans-48" x="212.939453"/>
      <use xlink:href="#DejaVuSans-3a" x="288.134766"/>
      <use xlink:href="#DejaVuSans-43" x="321.826172"/>
      <use xlink:href="#DejaVuSans-30" x="391.650391"/>
      <use xlink:href="#DejaVuSans-31" x="455.273438"/>
      <use xlink:href="#DejaVuSans-36" x="518.896484"/>
      <use xlink:href="#DejaVuSans-36" x="582.519531"/>
      <use xlink:href="#DejaVuSans-37" x="646.142578"/>
      <use xlink:href="#DejaVuSans-31" x="709.765625"/>
     </g>
    </g>
    <g clip-path="url(#p9931dd2011)">
     <!-- Drug -->
     <g transform="translate(60.277082 196.748625)scale(0.12 -0.12)">
      <defs>
       <path id="DejaVuSans-44" d="M 1259 4147 
L 1259 519 
L 2022 519 
Q 2988 519 3436 956 
Q 3884 1394 3884 2338 
Q 3884 3275 3436 3711 
Q 2988 4147 2022 4147 
L 1259 4147 
z
M 628 4666 
L 1925 4666 
Q 3281 4666 3915 4102 
Q 4550 3538 4550 2338 
Q 4550 1131 3912 565 
Q 3275 0 1925 0 
L 628 0 
L 628 4666 
z
" transform="scale(0.015625)"/>
       <path id="DejaVuSans-67" d="M 2906 1791 
Q 2906 2416 2648 2759 
Q 2391 3103 1925 3103 
Q 1463 3103 1205 2759 
Q 947 2416 947 1791 
Q 947 1169 1205 825 
Q 1463 481 1925 481 
Q 2391 481 2648 825 
Q 2906 1169 2906 1791 
z
M 3481 434 
Q 3481 -459 3084 -895 
Q 2688 -1331 1869 -1331 
Q 1566 -1331 1297 -1286 
Q 1028 -1241 775 -1147 
L 775 -588 
Q 1028 -725 1275 -790 
Q 1522 -856 1778 -856 
Q 2344 -856 2625 -561 
Q 2906 -266 2906 331 
L 2906 616 
Q 2728 306 2450 153 
Q 2172 0 1784 0 
Q 1141 0 747 490 
Q 353 981 353 1791 
Q 353 2603 747 3093 
Q 1141 3584 1784 3584 
Q 2172 3584 2450 3431 
Q 2728 3278 2906 2969 
L 2906 3500 
L 3481 3500 
L 3481 434 
z
" transform="scale(0.015625)"/>
      </defs>
      <use xlink:href="#DejaVuSans-44"/>
      <use xlink:href="#DejaVuSans-72" x="77.001953"/>
      <use xlink:href="#DejaVuSans-75" x="118.115234"/>
      <use xlink:href="#DejaVuSans-67" x="181.494141"/>
     </g>
    </g>
   </g>
   <g id="text_5">
    <g clip-path="url(#p9931dd2011)">
     <!-- Von Willebrand -->
     <g transform="translate(743.950731 163.155187)scale(0.12 -0.12)">
      <defs>
       <path id="DejaVuSans-57" d="M 213 4666 
L 850 4666 
L 1831 722 
L 2809 4666 
L 3519 4666 
L 4500 722 
L 5478 4666 
L 6119 4666 
L 4947 0 
L 4153 0 
L 3169 4050 
L 2175 0 
L 1381 0 
L 213 4666 
z
" transform="scale(0.015625)"/>
       <path id="DejaVuSans-6c" d="M 603 4863 
L 1178 4863 
L 1178 0 
L 603 0 
L 603 4863 
z
" transform="scale(0.015625)"/>
      </defs>
      <use xlink:href="#DejaVuSans-56"/>
      <use xlink:href="#DejaVuSans-6f" x="60.658203"/>
      <use xlink:href="#DejaVuSans-6e" x="121.839844"/>
      <use xlink:href="#DejaVuSans-20" x="185.21875"/>
      <use xlink:href="#DejaVuSans-57" x="217.005859"/>
      <use xlink:href="#DejaVuSans-69" x="313.632812"/>
      <use xlink:href="#DejaVuSans-6c" x="341.416016"/>
      <use xlink:href="#DejaVuSans-6c" x="369.199219"/>
      <use xlink:href="#DejaVuSans-65" x="396.982422"/>
      <use xlink:href="#DejaVuSans-62" x="458.505859"/>
      <use xlink:href="#DejaVuSans-72" x="521.982422"/>
      <use xlink:href="#DejaVuSans-61" x="563.095703"/>
      <use xlink:href="#DejaVuSans-6e" x="624.375"/>
      <use xlink:href="#DejaVuSans-64" x="687.753906"/>
     </g>
    </g>
    <g clip-path="url(#p9931dd2011)">
     <!-- disorder -->
     <g transform="translate(764.422918 176.592562)scale(0.12 -0.12)">
      <use xlink:href="#DejaVuSans-64"/>
      <use xlink:href="#DejaVuSans-69" x="63.476562"/>
      <use xlink:href="#DejaVuSans-73" x="91.259766"/>
      <use xlink:href="#DejaVuSans-6f" x="143.359375"/>
      <use xlink:href="#DejaVuSans-72" x="204.541016"/>
      <use xlink:href="#DejaVuSans-64" x="243.904297"/>
      <use xlink:href="#DejaVuSans-65" x="307.380859"/>
      <use xlink:href="#DejaVuSans-72" x="368.904297"/>
     </g>
    </g>
    <g clip-path="url(#p9931dd2011)">
     <!-- MESH:D014842 -->
     <g transform="translate(742.189168 190.029937)scale(0.12 -0.12)">
      <defs>
       <path id="DejaVuSans-34" d="M 2419 4116 
L 825 1625 
L 2419 1625 
L 2419 4116 
z
M 2253 4666 
L 3047 4666 
L 3047 1625 
L 3713 1625 
L 3713 1100 
L 3047 1100 
L 3047 0 
L 2419 0 
L 2419 1100 
L 313 1100 
L 313 1709 
L 2253 4666 
z
" transform="scale(0.015625)"/>
       <path id="DejaVuSans-38" d="M 2034 2216 
Q 1584 2216 1326 1975 
Q 1069 1734 1069 1313 
Q 1069 891 1326 650 
Q 1584 409 2034 409 
Q 2484 409 2743 651 
Q 3003 894 3003 1313 
Q 3003 1734 2745 1975 
Q 2488 2216 2034 2216 
z
M 1403 2484 
Q 997 2584 770 2862 
Q 544 3141 544 3541 
Q 544 4100 942 4425 
Q 1341 4750 2034 4750 
Q 2731 4750 3128 4425 
Q 3525 4100 3525 3541 
Q 3525 3141 3298 2862 
Q 3072 2584 2669 2484 
Q 3125 2378 3379 2068 
Q 3634 1759 3634 1313 
Q 3634 634 3220 271 
Q 2806 -91 2034 -91 
Q 1263 -91 848 271 
Q 434 634 434 1313 
Q 434 1759 690 2068 
Q 947 2378 1403 2484 
z
M 1172 3481 
Q 1172 3119 1398 2916 
Q 1625 2713 2034 2713 
Q 2441 2713 2670 2916 
Q 2900 3119 2900 3481 
Q 2900 3844 2670 4047 
Q 2441 4250 2034 4250 
Q 1625 4250 1398 4047 
Q 1172 3844 1172 3481 
z
" transform="scale(0.015625)"/>
       <path id="DejaVuSans-32" d="M 1228 531 
L 3431 531 
L 3431 0 
L 469 0 
L 469 531 
Q 828 903 1448 1529 
Q 2069 2156 2228 2338 
Q 2531 2678 2651 2914 
Q 2772 3150 2772 3378 
Q 2772 3750 2511 3984 
Q 2250 4219 1831 4219 
Q 1534 4219 1204 4116 
Q 875 4013 500 3803 
L 500 4441 
Q 881 4594 1212 4672 
Q 1544 4750 1819 4750 
Q 2544 4750 2975 4387 
Q 3406 4025 3406 3419 
Q 3406 3131 3298 2873 
Q 3191 2616 2906 2266 
Q 2828 2175 2409 1742 
Q 1991 1309 1228 531 
z
" transform="scale(0.015625)"/>
      </defs>
      <use xlink:href="#DejaVuSans-4d"/>
      <use xlink:href="#DejaVuSans-45" x="86.279297"/>
      <use xlink:href="#DejaVuSans-53" x="149.462891"/>
      <use xlink:href="#DejaVuSans-48" x="212.939453"/>
      <use xlink:href="#DejaVuSans-3a" x="288.134766"/>
      <use xlink:href="#DejaVuSans-44" x="321.826172"/>
      <use xlink:href="#DejaVuSans-30" x="398.828125"/>
      <use xlink:href="#DejaVuSans-31" x="462.451172"/>
      <use xlink:href="#DejaVuSans-34" x="526.074219"/>
      <use xlink:href="#DejaVuSans-38" x="589.697266"/>
      <use xlink:href="#DejaVuSans-34" x="653.320312"/>
      <use xlink:href="#DejaVuSans-32" x="716.943359"/>
     </g>
    </g>
    <g clip-path="url(#p9931dd2011)">
     <!-- Disease -->
     <g transform="translate(765.426043 203.467312)scale(0.12 -0.12)">
      <use xlink:href="#DejaVuSans-44"/>
      <use xlink:href="#DejaVuSans-69" x="77.001953"/>
      <use xlink:href="#DejaVuSans-73" x="104.785156"/>
      <use xlink:href="#DejaVuSans-65" x="156.884766"/>
      <use xlink:href="#DejaVuSans-61" x="218.408203"/>
      <use xlink:href="#DejaVuSans-73" x="279.6875"/>
      <use xlink:href="#DejaVuSans-65" x="331.787109"/>
     </g>
    </g>
   </g>
  </g>
 </g>
 <defs>
  <clipPath id="p9931dd2011">
   <rect x="0" y="0" width="864" height="360"/>
  </clipPath>
 </defs>
</svg>
