<?xml version="1.0" encoding="utf-8" standalone="no"?>
<!DOCTYPE svg PUBLIC "-//W3C//DTD SVG 1.1//EN"
  "http://www.w3.org/Graphics/SVG/1.1/DTD/svg11.dtd">
<svg xmlns:xlink="http://www.w3.org/1999/xlink" width="864pt" height="360pt" viewBox="0 0 864 360" xmlns="http://www.w3.org/2000/svg" version="1.1">
 <metadata>
  <rdf:RDF xmlns:dc="http://purl.org/dc/elements/1.1/" xmlns:cc="http://creativecommons.org/ns#" xmlns:rdf="http://www.w3.org/1999/02/22-rdf-syntax-ns#">
   <cc:Work>
    <dc:type rdf:resource="http://purl.org/dc/dcmitype/StillImage"/>
    <dc:date>2023-02-08T08:52:38.197600</dc:date>
    <dc:format>image/svg+xml</dc:format>
    <dc:creator>
     <cc:Agent>
      <dc:title>Matplotlib v3.5.1, https://matplotlib.org/</dc:title>
     </cc:Agent>
    </dc:creator>
   </cc:Work>
  </rdf:RDF>
 </metadata>
 <defs>
  <style type="text/css">*{stroke-linejoin: round; stroke-linecap: butt}</style>
 </defs>
 <g id="figure_1">
  <g id="patch_1">
   <path d="M 0 360 
L 864 360 
L 864 0 
L 0 0 
z
" style="fill: #ffffff"/>
  </g>
  <g id="axes_1">
   <g id="patch_2">
    <path d="M 127.418126 180 
Q 253.489907 180 376.207585 180 
" clip-path="url(#p82bd0d179d)" style="fill: none; stroke: #2ca02c; stroke-width: 3; stroke-linecap: round"/>
    <path d="M 372.207585 178 
L 376.207585 180 
L 372.207585 182 
L 372.207585 178 
z
" clip-path="url(#p82bd0d179d)" style="fill: #2ca02c; stroke: #2ca02c; stroke-width: 3; stroke-linecap: round"/>
   </g>
   <g id="patch_3">
    <path d="M 484.44292 180 
Q 610.5147 180 733.232378 180 
" clip-path="url(#p82bd0d179d)" style="fill: none; stroke: #2ca02c; stroke-width: 3; stroke-linecap: round"/>
    <path d="M 729.232378 178 
L 733.232378 180 
L 729.232378 182 
L 729.232378 178 
z
" clip-path="url(#p82bd0d179d)" style="fill: #2ca02c; stroke: #2ca02c; stroke-width: 3; stroke-linecap: round"/>
   </g>
   <g id="text_1">
    <g id="patch_4">
     <path d="M 219.270416 193.437969 
L 287.704791 193.437969 
Q 290.704791 193.437969 290.704791 190.437969 
L 290.704791 169.562031 
Q 290.704791 166.562031 287.704791 166.562031 
L 219.270416 166.562031 
Q 216.270416 166.562031 216.270416 169.562031 
L 216.270416 190.437969 
Q 216.270416 193.437969 219.270416 193.437969 
z
" clip-path="url(#p82bd0d179d)" style="fill: #ffffff; stroke: #ffffff; stroke-linejoin: miter"/>
    </g>
    <g clip-path="url(#p82bd0d179d)">
     <!-- increases -->
     <g transform="translate(229.811041 177.160469)scale(0.1 -0.1)">
      <defs>
       <path id="DejaVuSans-69" d="M 603 3500 
L 1178 3500 
L 1178 0 
L 603 0 
L 603 3500 
z
M 603 4863 
L 1178 4863 
L 1178 4134 
L 603 4134 
L 603 4863 
z
" transform="scale(0.015625)"/>
       <path id="DejaVuSans-6e" d="M 3513 2113 
L 3513 0 
L 2938 0 
L 2938 2094 
Q 2938 2591 2744 2837 
Q 2550 3084 2163 3084 
Q 1697 3084 1428 2787 
Q 1159 2491 1159 1978 
L 1159 0 
L 581 0 
L 581 3500 
L 1159 3500 
L 1159 2956 
Q 1366 3272 1645 3428 
Q 1925 3584 2291 3584 
Q 2894 3584 3203 3211 
Q 3513 2838 3513 2113 
z
" transform="scale(0.015625)"/>
       <path id="DejaVuSans-63" d="M 3122 3366 
L 3122 2828 
Q 2878 2963 2633 3030 
Q 2388 3097 2138 3097 
Q 1578 3097 1268 2742 
Q 959 2388 959 1747 
Q 959 1106 1268 751 
Q 1578 397 2138 397 
Q 2388 397 2633 464 
Q 2878 531 3122 666 
L 3122 134 
Q 2881 22 2623 -34 
Q 2366 -91 2075 -91 
Q 1284 -91 818 406 
Q 353 903 353 1747 
Q 353 2603 823 3093 
Q 1294 3584 2113 3584 
Q 2378 3584 2631 3529 
Q 2884 3475 3122 3366 
z
" transform="scale(0.015625)"/>
       <path id="DejaVuSans-72" d="M 2631 2963 
Q 2534 3019 2420 3045 
Q 2306 3072 2169 3072 
Q 1681 3072 1420 2755 
Q 1159 2438 1159 1844 
L 1159 0 
L 581 0 
L 581 3500 
L 1159 3500 
L 1159 2956 
Q 1341 3275 1631 3429 
Q 1922 3584 2338 3584 
Q 2397 3584 2469 3576 
Q 2541 3569 2628 3553 
L 2631 2963 
z
" transform="scale(0.015625)"/>
       <path id="DejaVuSans-65" d="M 3597 1894 
L 3597 1613 
L 953 1613 
Q 991 1019 1311 708 
Q 1631 397 2203 397 
Q 2534 397 2845 478 
Q 3156 559 3463 722 
L 3463 178 
Q 3153 47 2828 -22 
Q 2503 -91 2169 -91 
Q 1331 -91 842 396 
Q 353 884 353 1716 
Q 353 2575 817 3079 
Q 1281 3584 2069 3584 
Q 2775 3584 3186 3129 
Q 3597 2675 3597 1894 
z
M 3022 2063 
Q 3016 2534 2758 2815 
Q 2500 3097 2075 3097 
Q 1594 3097 1305 2825 
Q 1016 2553 972 2059 
L 3022 2063 
z
" transform="scale(0.015625)"/>
       <path id="DejaVuSans-61" d="M 2194 1759 
Q 1497 1759 1228 1600 
Q 959 1441 959 1056 
Q 959 750 1161 570 
Q 1363 391 1709 391 
Q 2188 391 2477 730 
Q 2766 1069 2766 1631 
L 2766 1759 
L 2194 1759 
z
M 3341 1997 
L 3341 0 
L 2766 0 
L 2766 531 
Q 2569 213 2275 61 
Q 1981 -91 1556 -91 
Q 1019 -91 701 211 
Q 384 513 384 1019 
Q 384 1609 779 1909 
Q 1175 2209 1959 2209 
L 2766 2209 
L 2766 2266 
Q 2766 2663 2505 2880 
Q 2244 3097 1772 3097 
Q 1472 3097 1187 3025 
Q 903 2953 641 2809 
L 641 3341 
Q 956 3463 1253 3523 
Q 1550 3584 1831 3584 
Q 2591 3584 2966 3190 
Q 3341 2797 3341 1997 
z
" transform="scale(0.015625)"/>
       <path id="DejaVuSans-73" d="M 2834 3397 
L 2834 2853 
Q 2591 2978 2328 3040 
Q 2066 3103 1784 3103 
Q 1356 3103 1142 2972 
Q 928 2841 928 2578 
Q 928 2378 1081 2264 
Q 1234 2150 1697 2047 
L 1894 2003 
Q 2506 1872 2764 1633 
Q 3022 1394 3022 966 
Q 3022 478 2636 193 
Q 2250 -91 1575 -91 
Q 1294 -91 989 -36 
Q 684 19 347 128 
L 347 722 
Q 666 556 975 473 
Q 1284 391 1588 391 
Q 1994 391 2212 530 
Q 2431 669 2431 922 
Q 2431 1156 2273 1281 
Q 2116 1406 1581 1522 
L 1381 1569 
Q 847 1681 609 1914 
Q 372 2147 372 2553 
Q 372 3047 722 3315 
Q 1072 3584 1716 3584 
Q 2034 3584 2315 3537 
Q 2597 3491 2834 3397 
z
" transform="scale(0.015625)"/>
      </defs>
      <use xlink:href="#DejaVuSans-69"/>
      <use xlink:href="#DejaVuSans-6e" x="27.783203"/>
      <use xlink:href="#DejaVuSans-63" x="91.162109"/>
      <use xlink:href="#DejaVuSans-72" x="146.142578"/>
      <use xlink:href="#DejaVuSans-65" x="185.005859"/>
      <use xlink:href="#DejaVuSans-61" x="246.529297"/>
      <use xlink:href="#DejaVuSans-73" x="307.808594"/>
      <use xlink:href="#DejaVuSans-65" x="359.908203"/>
      <use xlink:href="#DejaVuSans-73" x="421.431641"/>
     </g>
    </g>
    <g clip-path="url(#p82bd0d179d)">
     <!-- abundance of -->
     <g transform="translate(219.270416 188.358281)scale(0.1 -0.1)">
      <defs>
       <path id="DejaVuSans-62" d="M 3116 1747 
Q 3116 2381 2855 2742 
Q 2594 3103 2138 3103 
Q 1681 3103 1420 2742 
Q 1159 2381 1159 1747 
Q 1159 1113 1420 752 
Q 1681 391 2138 391 
Q 2594 391 2855 752 
Q 3116 1113 3116 1747 
z
M 1159 2969 
Q 1341 3281 1617 3432 
Q 1894 3584 2278 3584 
Q 2916 3584 3314 3078 
Q 3713 2572 3713 1747 
Q 3713 922 3314 415 
Q 2916 -91 2278 -91 
Q 1894 -91 1617 61 
Q 1341 213 1159 525 
L 1159 0 
L 581 0 
L 581 4863 
L 1159 4863 
L 1159 2969 
z
" transform="scale(0.015625)"/>
       <path id="DejaVuSans-75" d="M 544 1381 
L 544 3500 
L 1119 3500 
L 1119 1403 
Q 1119 906 1312 657 
Q 1506 409 1894 409 
Q 2359 409 2629 706 
Q 2900 1003 2900 1516 
L 2900 3500 
L 3475 3500 
L 3475 0 
L 2900 0 
L 2900 538 
Q 2691 219 2414 64 
Q 2138 -91 1772 -91 
Q 1169 -91 856 284 
Q 544 659 544 1381 
z
M 1991 3584 
L 1991 3584 
z
" transform="scale(0.015625)"/>
       <path id="DejaVuSans-64" d="M 2906 2969 
L 2906 4863 
L 3481 4863 
L 3481 0 
L 2906 0 
L 2906 525 
Q 2725 213 2448 61 
Q 2172 -91 1784 -91 
Q 1150 -91 751 415 
Q 353 922 353 1747 
Q 353 2572 751 3078 
Q 1150 3584 1784 3584 
Q 2172 3584 2448 3432 
Q 2725 3281 2906 2969 
z
M 947 1747 
Q 947 1113 1208 752 
Q 1469 391 1925 391 
Q 2381 391 2643 752 
Q 2906 1113 2906 1747 
Q 2906 2381 2643 2742 
Q 2381 3103 1925 3103 
Q 1469 3103 1208 2742 
Q 947 2381 947 1747 
z
" transform="scale(0.015625)"/>
       <path id="DejaVuSans-20" transform="scale(0.015625)"/>
       <path id="DejaVuSans-6f" d="M 1959 3097 
Q 1497 3097 1228 2736 
Q 959 2375 959 1747 
Q 959 1119 1226 758 
Q 1494 397 1959 397 
Q 2419 397 2687 759 
Q 2956 1122 2956 1747 
Q 2956 2369 2687 2733 
Q 2419 3097 1959 3097 
z
M 1959 3584 
Q 2709 3584 3137 3096 
Q 3566 2609 3566 1747 
Q 3566 888 3137 398 
Q 2709 -91 1959 -91 
Q 1206 -91 779 398 
Q 353 888 353 1747 
Q 353 2609 779 3096 
Q 1206 3584 1959 3584 
z
" transform="scale(0.015625)"/>
       <path id="DejaVuSans-66" d="M 2375 4863 
L 2375 4384 
L 1825 4384 
Q 1516 4384 1395 4259 
Q 1275 4134 1275 3809 
L 1275 3500 
L 2222 3500 
L 2222 3053 
L 1275 3053 
L 1275 0 
L 697 0 
L 697 3053 
L 147 3053 
L 147 3500 
L 697 3500 
L 697 3744 
Q 697 4328 969 4595 
Q 1241 4863 1831 4863 
L 2375 4863 
z
" transform="scale(0.015625)"/>
      </defs>
      <use xlink:href="#DejaVuSans-61"/>
      <use xlink:href="#DejaVuSans-62" x="61.279297"/>
      <use xlink:href="#DejaVuSans-75" x="124.755859"/>
      <use xlink:href="#DejaVuSans-6e" x="188.134766"/>
      <use xlink:href="#DejaVuSans-64" x="251.513672"/>
      <use xlink:href="#DejaVuSans-61" x="314.990234"/>
      <use xlink:href="#DejaVuSans-6e" x="376.269531"/>
      <use xlink:href="#DejaVuSans-63" x="439.648438"/>
      <use xlink:href="#DejaVuSans-65" x="494.628906"/>
      <use xlink:href="#DejaVuSans-20" x="556.152344"/>
      <use xlink:href="#DejaVuSans-6f" x="587.939453"/>
      <use xlink:href="#DejaVuSans-66" x="649.121094"/>
     </g>
    </g>
   </g>
   <g id="text_2">
    <g id="patch_5">
     <path d="M 579.012397 187.839062 
L 642.012397 187.839062 
Q 645.012397 187.839062 645.012397 184.839062 
L 645.012397 175.160937 
Q 645.012397 172.160937 642.012397 172.160937 
L 579.012397 172.160937 
Q 576.012397 172.160937 576.012397 175.160937 
L 576.012397 184.839062 
Q 576.012397 187.839062 579.012397 187.839062 
z
" clip-path="url(#p82bd0d179d)" style="fill: #ffffff; stroke: #ffffff; stroke-linejoin: miter"/>
    </g>
    <g clip-path="url(#p82bd0d179d)">
     <!-- disrupted by -->
     <g transform="translate(579.012397 182.759375)scale(0.1 -0.1)">
      <defs>
       <path id="DejaVuSans-70" d="M 1159 525 
L 1159 -1331 
L 581 -1331 
L 581 3500 
L 1159 3500 
L 1159 2969 
Q 1341 3281 1617 3432 
Q 1894 3584 2278 3584 
Q 2916 3584 3314 3078 
Q 3713 2572 3713 1747 
Q 3713 922 3314 415 
Q 2916 -91 2278 -91 
Q 1894 -91 1617 61 
Q 1341 213 1159 525 
z
M 3116 1747 
Q 3116 2381 2855 2742 
Q 2594 3103 2138 3103 
Q 1681 3103 1420 2742 
Q 1159 2381 1159 1747 
Q 1159 1113 1420 752 
Q 1681 391 2138 391 
Q 2594 391 2855 752 
Q 3116 1113 3116 1747 
z
" transform="scale(0.015625)"/>
       <path id="DejaVuSans-74" d="M 1172 4494 
L 1172 3500 
L 2356 3500 
L 2356 3053 
L 1172 3053 
L 1172 1153 
Q 1172 725 1289 603 
Q 1406 481 1766 481 
L 2356 481 
L 2356 0 
L 1766 0 
Q 1100 0 847 248 
Q 594 497 594 1153 
L 594 3053 
L 172 3053 
L 172 3500 
L 594 3500 
L 594 4494 
L 1172 4494 
z
" transform="scale(0.015625)"/>
       <path id="DejaVuSans-79" d="M 2059 -325 
Q 1816 -950 1584 -1140 
Q 1353 -1331 966 -1331 
L 506 -1331 
L 506 -850 
L 844 -850 
Q 1081 -850 1212 -737 
Q 1344 -625 1503 -206 
L 1606 56 
L 191 3500 
L 800 3500 
L 1894 763 
L 2988 3500 
L 3597 3500 
L 2059 -325 
z
" transform="scale(0.015625)"/>
      </defs>
      <use xlink:href="#DejaVuSans-64"/>
      <use xlink:href="#DejaVuSans-69" x="63.476562"/>
      <use xlink:href="#DejaVuSans-73" x="91.259766"/>
      <use xlink:href="#DejaVuSans-72" x="143.359375"/>
      <use xlink:href="#DejaVuSans-75" x="184.472656"/>
      <use xlink:href="#DejaVuSans-70" x="247.851562"/>
      <use xlink:href="#DejaVuSans-74" x="311.328125"/>
      <use xlink:href="#DejaVuSans-65" x="350.537109"/>
      <use xlink:href="#DejaVuSans-64" x="412.060547"/>
      <use xlink:href="#DejaVuSans-20" x="475.537109"/>
      <use xlink:href="#DejaVuSans-62" x="507.324219"/>
      <use xlink:href="#DejaVuSans-79" x="570.800781"/>
     </g>
    </g>
   </g>
   <g id="PathCollection_1">
    <defs>
     <path id="C0_0_07f759f1e8" d="M 0 52.440442 
C 13.907368 52.440442 27.246998 46.914987 37.080992 37.080992 
C 46.914987 27.246998 52.440442 13.907368 52.440442 -0 
C 52.440442 -13.907368 46.914987 -27.246998 37.080992 -37.080992 
C 27.246998 -46.914987 13.907368 -52.440442 0 -52.440442 
C -13.907368 -52.440442 -27.246998 -46.914987 -37.080992 -37.080992 
C -46.914987 -27.246998 -52.440442 -13.907368 -52.440442 0 
C -52.440442 13.907368 -46.914987 27.246998 -37.080992 37.080992 
C -27.246998 46.914987 -13.907368 52.440442 0 52.440442 
z
"/>
    </defs>
    <g clip-path="url(#p82bd0d179d)">
     <use xlink:href="#C0_0_07f759f1e8" x="74.975207" y="180" style="fill: #01c472; stroke: #01c472"/>
    </g>
    <g clip-path="url(#p82bd0d179d)">
     <use xlink:href="#C0_0_07f759f1e8" x="432" y="180" style="fill: #e71761; stroke: #e71761"/>
    </g>
    <g clip-path="url(#p82bd0d179d)">
     <use xlink:href="#C0_0_07f759f1e8" x="789.024793" y="180" style="fill: #70c6ca; stroke: #70c6ca"/>
    </g>
   </g>
   <g id="text_3">
    <path d="M 403.742812 155.081437 
L 403.742812 156.328312 
Q 403.144687 155.771437 402.467812 155.497687 
Q 401.790937 155.222062 401.029687 155.222062 
Q 399.529687 155.222062 398.732812 156.138937 
Q 397.935937 157.055812 397.935937 158.790187 
Q 397.935937 160.518937 398.732812 161.435812 
Q 399.529687 162.352687 401.029687 162.352687 
Q 401.790937 162.352687 402.467812 162.077062 
Q 403.144687 161.801437 403.742812 161.244562 
L 403.742812 162.482062 
Q 403.122187 162.903937 402.426562 163.115812 
Q 401.732812 163.325812 400.960312 163.325812 
Q 398.972812 163.325812 397.829062 162.110812 
Q 396.687187 160.893937 396.687187 158.790187 
Q 396.687187 156.680812 397.829062 155.465812 
Q 398.972812 154.248937 400.960312 154.248937 
Q 401.744062 154.248937 402.437812 154.457062 
Q 403.133437 154.665187 403.742812 155.081437 
z
M 408.066094 157.348312 
Q 407.199844 157.348312 406.695469 158.025187 
Q 406.191094 158.702062 406.191094 159.879562 
Q 406.191094 161.057062 406.691719 161.733937 
Q 407.194219 162.410812 408.066094 162.410812 
Q 408.928594 162.410812 409.431094 161.732062 
Q 409.935469 161.051437 409.935469 159.879562 
Q 409.935469 158.713312 409.431094 158.030812 
Q 408.928594 157.348312 408.066094 157.348312 
z
M 408.066094 156.435187 
Q 409.472344 156.435187 410.274844 157.350187 
Q 411.079219 158.263312 411.079219 159.879562 
Q 411.079219 161.490187 410.274844 162.408937 
Q 409.472344 163.325812 408.066094 163.325812 
Q 406.654219 163.325812 405.853594 162.408937 
Q 405.054844 161.490187 405.054844 159.879562 
Q 405.054844 158.263312 405.853594 157.350187 
Q 406.654219 156.435187 408.066094 156.435187 
z
M 415.848516 159.857062 
Q 414.541641 159.857062 414.037266 160.155187 
Q 413.532891 160.453312 413.532891 161.175187 
Q 413.532891 161.748937 413.911641 162.086437 
Q 414.290391 162.422062 414.939141 162.422062 
Q 415.837266 162.422062 416.379141 161.786437 
Q 416.921016 161.150812 416.921016 160.097062 
L 416.921016 159.857062 
L 415.848516 159.857062 
z
M 417.999141 159.410812 
L 417.999141 163.155187 
L 416.921016 163.155187 
L 416.921016 162.159562 
Q 416.551641 162.755812 416.000391 163.040812 
Q 415.449141 163.325812 414.652266 163.325812 
Q 413.645391 163.325812 413.049141 162.759562 
Q 412.454766 162.193312 412.454766 161.244562 
Q 412.454766 160.138312 413.195391 159.575812 
Q 413.937891 159.013312 415.407891 159.013312 
L 416.921016 159.013312 
L 416.921016 158.906437 
Q 416.921016 158.162062 416.431641 157.755187 
Q 415.942266 157.348312 415.057266 157.348312 
Q 414.494766 157.348312 413.960391 157.483312 
Q 413.427891 157.618312 412.936641 157.888312 
L 412.936641 156.890812 
Q 413.527266 156.662062 414.084141 156.549562 
Q 414.641016 156.435187 415.167891 156.435187 
Q 416.592891 156.435187 417.296016 157.173937 
Q 417.999141 157.910812 417.999141 159.410812 
z
M 424.537031 159.797062 
Q 424.537031 158.625187 424.053281 157.982062 
Q 423.571406 157.337062 422.697656 157.337062 
Q 421.831406 157.337062 421.347656 157.982062 
Q 420.863906 158.625187 420.863906 159.797062 
Q 420.863906 160.963312 421.347656 161.608312 
Q 421.831406 162.253312 422.697656 162.253312 
Q 423.571406 162.253312 424.053281 161.608312 
Q 424.537031 160.963312 424.537031 159.797062 
z
M 425.615156 162.341437 
Q 425.615156 164.015812 424.870781 164.833312 
Q 424.128281 165.650812 422.592656 165.650812 
Q 422.024531 165.650812 421.520156 165.566437 
Q 421.015781 165.482062 420.541406 165.305812 
L 420.541406 164.257687 
Q 421.015781 164.514562 421.478906 164.636437 
Q 421.942031 164.760187 422.422031 164.760187 
Q 423.483281 164.760187 424.010156 164.207062 
Q 424.537031 163.653937 424.537031 162.534562 
L 424.537031 162.000187 
Q 424.203281 162.581437 423.682031 162.868312 
Q 423.160781 163.155187 422.433281 163.155187 
Q 421.227656 163.155187 420.488906 162.236437 
Q 419.750156 161.315812 419.750156 159.797062 
Q 419.750156 158.274562 420.488906 157.355812 
Q 421.227656 156.435187 422.433281 156.435187 
Q 423.160781 156.435187 423.682031 156.722062 
Q 424.203281 157.008937 424.537031 157.588312 
L 424.537031 156.592687 
L 425.615156 156.592687 
L 425.615156 162.341437 
z
M 427.725469 160.565812 
L 427.725469 156.592687 
L 428.803594 156.592687 
L 428.803594 160.524562 
Q 428.803594 161.456437 429.165469 161.923312 
Q 429.529219 162.388312 430.256719 162.388312 
Q 431.128594 162.388312 431.634844 161.831437 
Q 432.142969 161.274562 432.142969 160.312687 
L 432.142969 156.592687 
L 433.221094 156.592687 
L 433.221094 163.155187 
L 432.142969 163.155187 
L 432.142969 162.146437 
Q 431.751094 162.744562 431.231719 163.035187 
Q 430.714219 163.325812 430.027969 163.325812 
Q 428.897344 163.325812 428.310469 162.622687 
Q 427.725469 161.919562 427.725469 160.565812 
z
M 430.438594 156.435187 
L 430.438594 156.435187 
z
M 435.441562 154.037062 
L 436.519687 154.037062 
L 436.519687 163.155187 
L 435.441562 163.155187 
L 435.441562 154.037062 
z
M 441.758672 159.857062 
Q 440.451797 159.857062 439.947422 160.155187 
Q 439.443047 160.453312 439.443047 161.175187 
Q 439.443047 161.748937 439.821797 162.086437 
Q 440.200547 162.422062 440.849297 162.422062 
Q 441.747422 162.422062 442.289297 161.786437 
Q 442.831172 161.150812 442.831172 160.097062 
L 442.831172 159.857062 
L 441.758672 159.857062 
z
M 443.909297 159.410812 
L 443.909297 163.155187 
L 442.831172 163.155187 
L 442.831172 162.159562 
Q 442.461797 162.755812 441.910547 163.040812 
Q 441.359297 163.325812 440.562422 163.325812 
Q 439.555547 163.325812 438.959297 162.759562 
Q 438.364922 162.193312 438.364922 161.244562 
Q 438.364922 160.138312 439.105547 159.575812 
Q 439.848047 159.013312 441.318047 159.013312 
L 442.831172 159.013312 
L 442.831172 158.906437 
Q 442.831172 158.162062 442.341797 157.755187 
Q 441.852422 157.348312 440.967422 157.348312 
Q 440.404922 157.348312 439.870547 157.483312 
Q 439.338047 157.618312 438.846797 157.888312 
L 438.846797 156.890812 
Q 439.437422 156.662062 439.994297 156.549562 
Q 440.551172 156.435187 441.078047 156.435187 
Q 442.503047 156.435187 443.206172 157.173937 
Q 443.909297 157.910812 443.909297 159.410812 
z
M 447.195937 154.728937 
L 447.195937 156.592687 
L 449.415937 156.592687 
L 449.415937 157.430812 
L 447.195937 157.430812 
L 447.195937 160.993312 
Q 447.195937 161.795812 447.415312 162.024562 
Q 447.634687 162.253312 448.309687 162.253312 
L 449.415937 162.253312 
L 449.415937 163.155187 
L 448.309687 163.155187 
Q 447.060937 163.155187 446.586562 162.690187 
Q 446.112187 162.223312 446.112187 160.993312 
L 446.112187 157.430812 
L 445.320937 157.430812 
L 445.320937 156.592687 
L 446.112187 156.592687 
L 446.112187 154.728937 
L 447.195937 154.728937 
z
M 450.834141 156.592687 
L 451.912266 156.592687 
L 451.912266 163.155187 
L 450.834141 163.155187 
L 450.834141 156.592687 
z
M 450.834141 154.037062 
L 451.912266 154.037062 
L 451.912266 155.403937 
L 450.834141 155.403937 
L 450.834141 154.037062 
z
M 456.710625 157.348312 
Q 455.844375 157.348312 455.34 158.025187 
Q 454.835625 158.702062 454.835625 159.879562 
Q 454.835625 161.057062 455.33625 161.733937 
Q 455.83875 162.410812 456.710625 162.410812 
Q 457.573125 162.410812 458.075625 161.732062 
Q 458.58 161.051437 458.58 159.879562 
Q 458.58 158.713312 458.075625 158.030812 
Q 457.573125 157.348312 456.710625 157.348312 
z
M 456.710625 156.435187 
Q 458.116875 156.435187 458.919375 157.350187 
Q 459.72375 158.263312 459.72375 159.879562 
Q 459.72375 161.490187 458.919375 162.408937 
Q 458.116875 163.325812 456.710625 163.325812 
Q 455.29875 163.325812 454.498125 162.408937 
Q 453.699375 161.490187 453.699375 159.879562 
Q 453.699375 158.263312 454.498125 157.350187 
Q 455.29875 156.435187 456.710625 156.435187 
z
M 466.966172 159.193312 
L 466.966172 163.155187 
L 465.888047 163.155187 
L 465.888047 159.228937 
Q 465.888047 158.297062 465.524297 157.835812 
Q 465.160547 157.372687 464.434922 157.372687 
Q 463.561172 157.372687 463.056797 157.929562 
Q 462.552422 158.484562 462.552422 159.446437 
L 462.552422 163.155187 
L 461.468672 163.155187 
L 461.468672 156.592687 
L 462.552422 156.592687 
L 462.552422 157.612687 
Q 462.940547 157.020187 463.463672 156.727687 
Q 463.988672 156.435187 464.674922 156.435187 
Q 465.805547 156.435187 466.384922 157.134562 
Q 466.966172 157.833937 466.966172 159.193312 
z
" clip-path="url(#p82bd0d179d)" style="fill: #ffffff; stroke: #000000; stroke-width: 2"/>
    <path d="M 403.742812 155.081437 
L 403.742812 156.328312 
Q 403.144687 155.771437 402.467812 155.497687 
Q 401.790937 155.222062 401.029687 155.222062 
Q 399.529687 155.222062 398.732812 156.138937 
Q 397.935937 157.055812 397.935937 158.790187 
Q 397.935937 160.518937 398.732812 161.435812 
Q 399.529687 162.352687 401.029687 162.352687 
Q 401.790937 162.352687 402.467812 162.077062 
Q 403.144687 161.801437 403.742812 161.244562 
L 403.742812 162.482062 
Q 403.122187 162.903937 402.426562 163.115812 
Q 401.732812 163.325812 400.960312 163.325812 
Q 398.972812 163.325812 397.829062 162.110812 
Q 396.687187 160.893937 396.687187 158.790187 
Q 396.687187 156.680812 397.829062 155.465812 
Q 398.972812 154.248937 400.960312 154.248937 
Q 401.744062 154.248937 402.437812 154.457062 
Q 403.133437 154.665187 403.742812 155.081437 
z
M 408.066094 157.348312 
Q 407.199844 157.348312 406.695469 158.025187 
Q 406.191094 158.702062 406.191094 159.879562 
Q 406.191094 161.057062 406.691719 161.733937 
Q 407.194219 162.410812 408.066094 162.410812 
Q 408.928594 162.410812 409.431094 161.732062 
Q 409.935469 161.051437 409.935469 159.879562 
Q 409.935469 158.713312 409.431094 158.030812 
Q 408.928594 157.348312 408.066094 157.348312 
z
M 408.066094 156.435187 
Q 409.472344 156.435187 410.274844 157.350187 
Q 411.079219 158.263312 411.079219 159.879562 
Q 411.079219 161.490187 410.274844 162.408937 
Q 409.472344 163.325812 408.066094 163.325812 
Q 406.654219 163.325812 405.853594 162.408937 
Q 405.054844 161.490187 405.054844 159.879562 
Q 405.054844 158.263312 405.853594 157.350187 
Q 406.654219 156.435187 408.066094 156.435187 
z
M 415.848516 159.857062 
Q 414.541641 159.857062 414.037266 160.155187 
Q 413.532891 160.453312 413.532891 161.175187 
Q 413.532891 161.748937 413.911641 162.086437 
Q 414.290391 162.422062 414.939141 162.422062 
Q 415.837266 162.422062 416.379141 161.786437 
Q 416.921016 161.150812 416.921016 160.097062 
L 416.921016 159.857062 
L 415.848516 159.857062 
z
M 417.999141 159.410812 
L 417.999141 163.155187 
L 416.921016 163.155187 
L 416.921016 162.159562 
Q 416.551641 162.755812 416.000391 163.040812 
Q 415.449141 163.325812 414.652266 163.325812 
Q 413.645391 163.325812 413.049141 162.759562 
Q 412.454766 162.193312 412.454766 161.244562 
Q 412.454766 160.138312 413.195391 159.575812 
Q 413.937891 159.013312 415.407891 159.013312 
L 416.921016 159.013312 
L 416.921016 158.906437 
Q 416.921016 158.162062 416.431641 157.755187 
Q 415.942266 157.348312 415.057266 157.348312 
Q 414.494766 157.348312 413.960391 157.483312 
Q 413.427891 157.618312 412.936641 157.888312 
L 412.936641 156.890812 
Q 413.527266 156.662062 414.084141 156.549562 
Q 414.641016 156.435187 415.167891 156.435187 
Q 416.592891 156.435187 417.296016 157.173937 
Q 417.999141 157.910812 417.999141 159.410812 
z
M 424.537031 159.797062 
Q 424.537031 158.625187 424.053281 157.982062 
Q 423.571406 157.337062 422.697656 157.337062 
Q 421.831406 157.337062 421.347656 157.982062 
Q 420.863906 158.625187 420.863906 159.797062 
Q 420.863906 160.963312 421.347656 161.608312 
Q 421.831406 162.253312 422.697656 162.253312 
Q 423.571406 162.253312 424.053281 161.608312 
Q 424.537031 160.963312 424.537031 159.797062 
z
M 425.615156 162.341437 
Q 425.615156 164.015812 424.870781 164.833312 
Q 424.128281 165.650812 422.592656 165.650812 
Q 422.024531 165.650812 421.520156 165.566437 
Q 421.015781 165.482062 420.541406 165.305812 
L 420.541406 164.257687 
Q 421.015781 164.514562 421.478906 164.636437 
Q 421.942031 164.760187 422.422031 164.760187 
Q 423.483281 164.760187 424.010156 164.207062 
Q 424.537031 163.653937 424.537031 162.534562 
L 424.537031 162.000187 
Q 424.203281 162.581437 423.682031 162.868312 
Q 423.160781 163.155187 422.433281 163.155187 
Q 421.227656 163.155187 420.488906 162.236437 
Q 419.750156 161.315812 419.750156 159.797062 
Q 419.750156 158.274562 420.488906 157.355812 
Q 421.227656 156.435187 422.433281 156.435187 
Q 423.160781 156.435187 423.682031 156.722062 
Q 424.203281 157.008937 424.537031 157.588312 
L 424.537031 156.592687 
L 425.615156 156.592687 
L 425.615156 162.341437 
z
M 427.725469 160.565812 
L 427.725469 156.592687 
L 428.803594 156.592687 
L 428.803594 160.524562 
Q 428.803594 161.456437 429.165469 161.923312 
Q 429.529219 162.388312 430.256719 162.388312 
Q 431.128594 162.388312 431.634844 161.831437 
Q 432.142969 161.274562 432.142969 160.312687 
L 432.142969 156.592687 
L 433.221094 156.592687 
L 433.221094 163.155187 
L 432.142969 163.155187 
L 432.142969 162.146437 
Q 431.751094 162.744562 431.231719 163.035187 
Q 430.714219 163.325812 430.027969 163.325812 
Q 428.897344 163.325812 428.310469 162.622687 
Q 427.725469 161.919562 427.725469 160.565812 
z
M 430.438594 156.435187 
L 430.438594 156.435187 
z
M 435.441562 154.037062 
L 436.519687 154.037062 
L 436.519687 163.155187 
L 435.441562 163.155187 
L 435.441562 154.037062 
z
M 441.758672 159.857062 
Q 440.451797 159.857062 439.947422 160.155187 
Q 439.443047 160.453312 439.443047 161.175187 
Q 439.443047 161.748937 439.821797 162.086437 
Q 440.200547 162.422062 440.849297 162.422062 
Q 441.747422 162.422062 442.289297 161.786437 
Q 442.831172 161.150812 442.831172 160.097062 
L 442.831172 159.857062 
L 441.758672 159.857062 
z
M 443.909297 159.410812 
L 443.909297 163.155187 
L 442.831172 163.155187 
L 442.831172 162.159562 
Q 442.461797 162.755812 441.910547 163.040812 
Q 441.359297 163.325812 440.562422 163.325812 
Q 439.555547 163.325812 438.959297 162.759562 
Q 438.364922 162.193312 438.364922 161.244562 
Q 438.364922 160.138312 439.105547 159.575812 
Q 439.848047 159.013312 441.318047 159.013312 
L 442.831172 159.013312 
L 442.831172 158.906437 
Q 442.831172 158.162062 442.341797 157.755187 
Q 441.852422 157.348312 440.967422 157.348312 
Q 440.404922 157.348312 439.870547 157.483312 
Q 439.338047 157.618312 438.846797 157.888312 
L 438.846797 156.890812 
Q 439.437422 156.662062 439.994297 156.549562 
Q 440.551172 156.435187 441.078047 156.435187 
Q 442.503047 156.435187 443.206172 157.173937 
Q 443.909297 157.910812 443.909297 159.410812 
z
M 447.195937 154.728937 
L 447.195937 156.592687 
L 449.415937 156.592687 
L 449.415937 157.430812 
L 447.195937 157.430812 
L 447.195937 160.993312 
Q 447.195937 161.795812 447.415312 162.024562 
Q 447.634687 162.253312 448.309687 162.253312 
L 449.415937 162.253312 
L 449.415937 163.155187 
L 448.309687 163.155187 
Q 447.060937 163.155187 446.586562 162.690187 
Q 446.112187 162.223312 446.112187 160.993312 
L 446.112187 157.430812 
L 445.320937 157.430812 
L 445.320937 156.592687 
L 446.112187 156.592687 
L 446.112187 154.728937 
L 447.195937 154.728937 
z
M 450.834141 156.592687 
L 451.912266 156.592687 
L 451.912266 163.155187 
L 450.834141 163.155187 
L 450.834141 156.592687 
z
M 450.834141 154.037062 
L 451.912266 154.037062 
L 451.912266 155.403937 
L 450.834141 155.403937 
L 450.834141 154.037062 
z
M 456.710625 157.348312 
Q 455.844375 157.348312 455.34 158.025187 
Q 454.835625 158.702062 454.835625 159.879562 
Q 454.835625 161.057062 455.33625 161.733937 
Q 455.83875 162.410812 456.710625 162.410812 
Q 457.573125 162.410812 458.075625 161.732062 
Q 458.58 161.051437 458.58 159.879562 
Q 458.58 158.713312 458.075625 158.030812 
Q 457.573125 157.348312 456.710625 157.348312 
z
M 456.710625 156.435187 
Q 458.116875 156.435187 458.919375 157.350187 
Q 459.72375 158.263312 459.72375 159.879562 
Q 459.72375 161.490187 458.919375 162.408937 
Q 458.116875 163.325812 456.710625 163.325812 
Q 455.29875 163.325812 454.498125 162.408937 
Q 453.699375 161.490187 453.699375 159.879562 
Q 453.699375 158.263312 454.498125 157.350187 
Q 455.29875 156.435187 456.710625 156.435187 
z
M 466.966172 159.193312 
L 466.966172 163.155187 
L 465.888047 163.155187 
L 465.888047 159.228937 
Q 465.888047 158.297062 465.524297 157.835812 
Q 465.160547 157.372687 464.434922 157.372687 
Q 463.561172 157.372687 463.056797 157.929562 
Q 462.552422 158.484562 462.552422 159.446437 
L 462.552422 163.155187 
L 461.468672 163.155187 
L 461.468672 156.592687 
L 462.552422 156.592687 
L 462.552422 157.612687 
Q 462.940547 157.020187 463.463672 156.727687 
Q 463.988672 156.435187 464.674922 156.435187 
Q 465.805547 156.435187 466.384922 157.134562 
Q 466.966172 157.833937 466.966172 159.193312 
z
" clip-path="url(#p82bd0d179d)" style="fill: #ffffff"/>
    <path d="M 407.55375 167.474437 
L 407.55375 168.372562 
L 406.5225 168.372562 
Q 405.943125 168.372562 405.71625 168.606937 
Q 405.49125 168.841312 405.49125 169.450687 
L 405.49125 170.030062 
L 407.266875 170.030062 
L 407.266875 170.868187 
L 405.49125 170.868187 
L 405.49125 176.592562 
L 404.4075 176.592562 
L 404.4075 170.868187 
L 403.37625 170.868187 
L 403.37625 170.030062 
L 404.4075 170.030062 
L 404.4075 169.572562 
Q 404.4075 168.477562 404.9175 167.976937 
Q 405.4275 167.474437 406.53375 167.474437 
L 407.55375 167.474437 
z
M 411.438984 173.294437 
Q 410.132109 173.294437 409.627734 173.592562 
Q 409.123359 173.890687 409.123359 174.612562 
Q 409.123359 175.186312 409.502109 175.523812 
Q 409.880859 175.859437 410.529609 175.859437 
Q 411.427734 175.859437 411.969609 175.223812 
Q 412.511484 174.588187 412.511484 173.534437 
L 412.511484 173.294437 
L 411.438984 173.294437 
z
M 413.589609 172.848187 
L 413.589609 176.592562 
L 412.511484 176.592562 
L 412.511484 175.596937 
Q 412.142109 176.193187 411.590859 176.478187 
Q 411.039609 176.763187 410.242734 176.763187 
Q 409.235859 176.763187 408.639609 176.196937 
Q 408.045234 175.630687 408.045234 174.681937 
Q 408.045234 173.575687 408.785859 173.013187 
Q 409.528359 172.450687 410.998359 172.450687 
L 412.511484 172.450687 
L 412.511484 172.343812 
Q 412.511484 171.599437 412.022109 171.192562 
Q 411.532734 170.785687 410.647734 170.785687 
Q 410.085234 170.785687 409.550859 170.920687 
Q 409.018359 171.055687 408.527109 171.325687 
L 408.527109 170.328187 
Q 409.117734 170.099437 409.674609 169.986937 
Q 410.231484 169.872562 410.758359 169.872562 
Q 412.183359 169.872562 412.886484 170.611312 
Q 413.589609 171.348187 413.589609 172.848187 
z
M 420.5325 170.281312 
L 420.5325 171.290062 
Q 420.075 171.036937 419.615625 170.911312 
Q 419.15625 170.785687 418.6875 170.785687 
Q 417.6375 170.785687 417.05625 171.451312 
Q 416.476875 172.115062 416.476875 173.316937 
Q 416.476875 174.518812 417.05625 175.184437 
Q 417.6375 175.848187 418.6875 175.848187 
Q 419.15625 175.848187 419.615625 175.722562 
Q 420.075 175.596937 420.5325 175.343812 
L 420.5325 176.341312 
Q 420.080625 176.551312 419.596875 176.656312 
Q 419.115 176.763187 418.569375 176.763187 
Q 417.08625 176.763187 416.2125 175.831312 
Q 415.340625 174.899437 415.340625 173.316937 
Q 415.340625 171.711937 416.221875 170.793187 
Q 417.105 169.872562 418.640625 169.872562 
Q 419.1375 169.872562 419.611875 169.975687 
Q 420.08625 170.076937 420.5325 170.281312 
z
M 423.473906 168.166312 
L 423.473906 170.030062 
L 425.693906 170.030062 
L 425.693906 170.868187 
L 423.473906 170.868187 
L 423.473906 174.430687 
Q 423.473906 175.233187 423.693281 175.461937 
Q 423.912656 175.690687 424.587656 175.690687 
L 425.693906 175.690687 
L 425.693906 176.592562 
L 424.587656 176.592562 
Q 423.338906 176.592562 422.864531 176.127562 
Q 422.390156 175.660687 422.390156 174.430687 
L 422.390156 170.868187 
L 421.598906 170.868187 
L 421.598906 170.030062 
L 422.390156 170.030062 
L 422.390156 168.166312 
L 423.473906 168.166312 
z
M 429.654609 170.785687 
Q 428.788359 170.785687 428.283984 171.462562 
Q 427.779609 172.139437 427.779609 173.316937 
Q 427.779609 174.494437 428.280234 175.171312 
Q 428.782734 175.848187 429.654609 175.848187 
Q 430.517109 175.848187 431.019609 175.169437 
Q 431.523984 174.488812 431.523984 173.316937 
Q 431.523984 172.150687 431.019609 171.468187 
Q 430.517109 170.785687 429.654609 170.785687 
z
M 429.654609 169.872562 
Q 431.060859 169.872562 431.863359 170.787562 
Q 432.667734 171.700687 432.667734 173.316937 
Q 432.667734 174.927562 431.863359 175.846312 
Q 431.060859 176.763187 429.654609 176.763187 
Q 428.242734 176.763187 427.442109 175.846312 
Q 426.643359 174.927562 426.643359 173.316937 
Q 426.643359 171.700687 427.442109 170.787562 
Q 428.242734 169.872562 429.654609 169.872562 
z
M 438.256406 171.036937 
Q 438.074531 170.931937 437.860781 170.883187 
Q 437.647031 170.832562 437.390156 170.832562 
Q 436.475156 170.832562 435.985781 171.426937 
Q 435.496406 172.021312 435.496406 173.135062 
L 435.496406 176.592562 
L 434.412656 176.592562 
L 434.412656 170.030062 
L 435.496406 170.030062 
L 435.496406 171.050062 
Q 435.837656 170.451937 436.381406 170.163187 
Q 436.927031 169.872562 437.707031 169.872562 
Q 437.817656 169.872562 437.952656 169.887562 
Q 438.087656 169.900687 438.250781 169.930687 
L 438.256406 171.036937 
z
M 445.504453 176.592562 
L 442.165078 167.843812 
L 443.400703 167.843812 
L 446.173828 175.208812 
L 448.950703 167.843812 
L 450.180703 167.843812 
L 446.846953 176.592562 
L 445.504453 176.592562 
z
M 451.457812 167.843812 
L 452.640937 167.843812 
L 452.640937 176.592562 
L 451.457812 176.592562 
L 451.457812 167.843812 
z
M 454.996875 167.843812 
L 456.18 167.843812 
L 456.18 176.592562 
L 454.996875 176.592562 
L 454.996875 167.843812 
z
M 458.535937 167.843812 
L 459.719062 167.843812 
L 459.719062 176.592562 
L 458.535937 176.592562 
L 458.535937 167.843812 
z
" clip-path="url(#p82bd0d179d)" style="fill: #ffffff; stroke: #000000; stroke-width: 2"/>
    <path d="M 407.55375 167.474437 
L 407.55375 168.372562 
L 406.5225 168.372562 
Q 405.943125 168.372562 405.71625 168.606937 
Q 405.49125 168.841312 405.49125 169.450687 
L 405.49125 170.030062 
L 407.266875 170.030062 
L 407.266875 170.868187 
L 405.49125 170.868187 
L 405.49125 176.592562 
L 404.4075 176.592562 
L 404.4075 170.868187 
L 403.37625 170.868187 
L 403.37625 170.030062 
L 404.4075 170.030062 
L 404.4075 169.572562 
Q 404.4075 168.477562 404.9175 167.976937 
Q 405.4275 167.474437 406.53375 167.474437 
L 407.55375 167.474437 
z
M 411.438984 173.294437 
Q 410.132109 173.294437 409.627734 173.592562 
Q 409.123359 173.890687 409.123359 174.612562 
Q 409.123359 175.186312 409.502109 175.523812 
Q 409.880859 175.859437 410.529609 175.859437 
Q 411.427734 175.859437 411.969609 175.223812 
Q 412.511484 174.588187 412.511484 173.534437 
L 412.511484 173.294437 
L 411.438984 173.294437 
z
M 413.589609 172.848187 
L 413.589609 176.592562 
L 412.511484 176.592562 
L 412.511484 175.596937 
Q 412.142109 176.193187 411.590859 176.478187 
Q 411.039609 176.763187 410.242734 176.763187 
Q 409.235859 176.763187 408.639609 176.196937 
Q 408.045234 175.630687 408.045234 174.681937 
Q 408.045234 173.575687 408.785859 173.013187 
Q 409.528359 172.450687 410.998359 172.450687 
L 412.511484 172.450687 
L 412.511484 172.343812 
Q 412.511484 171.599437 412.022109 171.192562 
Q 411.532734 170.785687 410.647734 170.785687 
Q 410.085234 170.785687 409.550859 170.920687 
Q 409.018359 171.055687 408.527109 171.325687 
L 408.527109 170.328187 
Q 409.117734 170.099437 409.674609 169.986937 
Q 410.231484 169.872562 410.758359 169.872562 
Q 412.183359 169.872562 412.886484 170.611312 
Q 413.589609 171.348187 413.589609 172.848187 
z
M 420.5325 170.281312 
L 420.5325 171.290062 
Q 420.075 171.036937 419.615625 170.911312 
Q 419.15625 170.785687 418.6875 170.785687 
Q 417.6375 170.785687 417.05625 171.451312 
Q 416.476875 172.115062 416.476875 173.316937 
Q 416.476875 174.518812 417.05625 175.184437 
Q 417.6375 175.848187 418.6875 175.848187 
Q 419.15625 175.848187 419.615625 175.722562 
Q 420.075 175.596937 420.5325 175.343812 
L 420.5325 176.341312 
Q 420.080625 176.551312 419.596875 176.656312 
Q 419.115 176.763187 418.569375 176.763187 
Q 417.08625 176.763187 416.2125 175.831312 
Q 415.340625 174.899437 415.340625 173.316937 
Q 415.340625 171.711937 416.221875 170.793187 
Q 417.105 169.872562 418.640625 169.872562 
Q 419.1375 169.872562 419.611875 169.975687 
Q 420.08625 170.076937 420.5325 170.281312 
z
M 423.473906 168.166312 
L 423.473906 170.030062 
L 425.693906 170.030062 
L 425.693906 170.868187 
L 423.473906 170.868187 
L 423.473906 174.430687 
Q 423.473906 175.233187 423.693281 175.461937 
Q 423.912656 175.690687 424.587656 175.690687 
L 425.693906 175.690687 
L 425.693906 176.592562 
L 424.587656 176.592562 
Q 423.338906 176.592562 422.864531 176.127562 
Q 422.390156 175.660687 422.390156 174.430687 
L 422.390156 170.868187 
L 421.598906 170.868187 
L 421.598906 170.030062 
L 422.390156 170.030062 
L 422.390156 168.166312 
L 423.473906 168.166312 
z
M 429.654609 170.785687 
Q 428.788359 170.785687 428.283984 171.462562 
Q 427.779609 172.139437 427.779609 173.316937 
Q 427.779609 174.494437 428.280234 175.171312 
Q 428.782734 175.848187 429.654609 175.848187 
Q 430.517109 175.848187 431.019609 175.169437 
Q 431.523984 174.488812 431.523984 173.316937 
Q 431.523984 172.150687 431.019609 171.468187 
Q 430.517109 170.785687 429.654609 170.785687 
z
M 429.654609 169.872562 
Q 431.060859 169.872562 431.863359 170.787562 
Q 432.667734 171.700687 432.667734 173.316937 
Q 432.667734 174.927562 431.863359 175.846312 
Q 431.060859 176.763187 429.654609 176.763187 
Q 428.242734 176.763187 427.442109 175.846312 
Q 426.643359 174.927562 426.643359 173.316937 
Q 426.643359 171.700687 427.442109 170.787562 
Q 428.242734 169.872562 429.654609 169.872562 
z
M 438.256406 171.036937 
Q 438.074531 170.931937 437.860781 170.883187 
Q 437.647031 170.832562 437.390156 170.832562 
Q 436.475156 170.832562 435.985781 171.426937 
Q 435.496406 172.021312 435.496406 173.135062 
L 435.496406 176.592562 
L 434.412656 176.592562 
L 434.412656 170.030062 
L 435.496406 170.030062 
L 435.496406 171.050062 
Q 435.837656 170.451937 436.381406 170.163187 
Q 436.927031 169.872562 437.707031 169.872562 
Q 437.817656 169.872562 437.952656 169.887562 
Q 438.087656 169.900687 438.250781 169.930687 
L 438.256406 171.036937 
z
M 445.504453 176.592562 
L 442.165078 167.843812 
L 443.400703 167.843812 
L 446.173828 175.208812 
L 448.950703 167.843812 
L 450.180703 167.843812 
L 446.846953 176.592562 
L 445.504453 176.592562 
z
M 451.457812 167.843812 
L 452.640937 167.843812 
L 452.640937 176.592562 
L 451.457812 176.592562 
L 451.457812 167.843812 
z
M 454.996875 167.843812 
L 456.18 167.843812 
L 456.18 176.592562 
L 454.996875 176.592562 
L 454.996875 167.843812 
z
M 458.535937 167.843812 
L 459.719062 167.843812 
L 459.719062 176.592562 
L 458.535937 176.592562 
L 458.535937 167.843812 
z
" clip-path="url(#p82bd0d179d)" style="fill: #ffffff"/>
    <path d="M 386.5875 181.281187 
L 387.778125 181.281187 
L 387.778125 186.596812 
Q 387.778125 188.003062 388.28625 188.621812 
Q 388.79625 189.238687 389.94 189.238687 
Q 391.07625 189.238687 391.58625 188.621812 
Q 392.09625 188.003062 392.09625 186.596812 
L 392.09625 181.281187 
L 393.285 181.281187 
L 393.285 186.743062 
Q 393.285 188.453062 392.4375 189.326812 
Q 391.591875 190.200562 389.94 190.200562 
Q 388.280625 190.200562 387.433125 189.326812 
Q 386.5875 188.453062 386.5875 186.743062 
L 386.5875 181.281187 
z
M 400.915078 186.068062 
L 400.915078 190.029937 
L 399.836953 190.029937 
L 399.836953 186.103687 
Q 399.836953 185.171812 399.473203 184.710562 
Q 399.109453 184.247437 398.383828 184.247437 
Q 397.510078 184.247437 397.005703 184.804312 
Q 396.501328 185.359312 396.501328 186.321187 
L 396.501328 190.029937 
L 395.417578 190.029937 
L 395.417578 183.467437 
L 396.501328 183.467437 
L 396.501328 184.487437 
Q 396.889453 183.894937 397.412578 183.602437 
Q 397.937578 183.309937 398.623828 183.309937 
Q 399.754453 183.309937 400.333828 184.009312 
Q 400.915078 184.708687 400.915078 186.068062 
z
M 403.064297 183.467437 
L 404.142422 183.467437 
L 404.142422 190.029937 
L 403.064297 190.029937 
L 403.064297 183.467437 
z
M 403.064297 180.911812 
L 404.142422 180.911812 
L 404.142422 182.278687 
L 403.064297 182.278687 
L 403.064297 180.911812 
z
M 407.628281 182.254312 
L 407.628281 185.541187 
L 409.117031 185.541187 
Q 409.943906 185.541187 410.393906 185.113687 
Q 410.845781 184.686187 410.845781 183.894937 
Q 410.845781 183.109312 410.393906 182.681812 
Q 409.943906 182.254312 409.117031 182.254312 
L 407.628281 182.254312 
z
M 406.445156 181.281187 
L 409.117031 181.281187 
Q 410.588906 181.281187 411.340781 181.946812 
Q 412.094531 182.612437 412.094531 183.894937 
Q 412.094531 185.190562 411.340781 185.852437 
Q 410.588906 186.514312 409.117031 186.514312 
L 407.628281 186.514312 
L 407.628281 190.029937 
L 406.445156 190.029937 
L 406.445156 181.281187 
z
M 417.227109 184.474312 
Q 417.045234 184.369312 416.831484 184.320562 
Q 416.617734 184.269937 416.360859 184.269937 
Q 415.445859 184.269937 414.956484 184.864312 
Q 414.467109 185.458687 414.467109 186.572437 
L 414.467109 190.029937 
L 413.383359 190.029937 
L 413.383359 183.467437 
L 414.467109 183.467437 
L 414.467109 184.487437 
Q 414.808359 183.889312 415.352109 183.600562 
Q 415.897734 183.309937 416.677734 183.309937 
Q 416.788359 183.309937 416.923359 183.324937 
Q 417.058359 183.338062 417.221484 183.368062 
L 417.227109 184.474312 
z
M 420.630703 184.223062 
Q 419.764453 184.223062 419.260078 184.899937 
Q 418.755703 185.576812 418.755703 186.754312 
Q 418.755703 187.931812 419.256328 188.608687 
Q 419.758828 189.285562 420.630703 189.285562 
Q 421.493203 189.285562 421.995703 188.606812 
Q 422.500078 187.926187 422.500078 186.754312 
Q 422.500078 185.588062 421.995703 184.905562 
Q 421.493203 184.223062 420.630703 184.223062 
z
M 420.630703 183.309937 
Q 422.036953 183.309937 422.839453 184.224937 
Q 423.643828 185.138062 423.643828 186.754312 
Q 423.643828 188.364937 422.839453 189.283687 
Q 422.036953 190.200562 420.630703 190.200562 
Q 419.218828 190.200562 418.418203 189.283687 
Q 417.619453 188.364937 417.619453 186.754312 
Q 417.619453 185.138062 418.418203 184.224937 
Q 419.218828 183.309937 420.630703 183.309937 
z
M 426.496875 181.603687 
L 426.496875 183.467437 
L 428.716875 183.467437 
L 428.716875 184.305562 
L 426.496875 184.305562 
L 426.496875 187.868062 
Q 426.496875 188.670562 426.71625 188.899312 
Q 426.935625 189.128062 427.610625 189.128062 
L 428.716875 189.128062 
L 428.716875 190.029937 
L 427.610625 190.029937 
Q 426.361875 190.029937 425.8875 189.564937 
Q 425.413125 189.098062 425.413125 187.868062 
L 425.413125 184.305562 
L 424.621875 184.305562 
L 424.621875 183.467437 
L 425.413125 183.467437 
L 425.413125 181.603687 
L 426.496875 181.603687 
z
M 430.410703 188.541187 
L 431.646328 188.541187 
L 431.646328 190.029937 
L 430.410703 190.029937 
L 430.410703 188.541187 
z
M 430.410703 183.825562 
L 431.646328 183.825562 
L 431.646328 185.312437 
L 430.410703 185.312437 
L 430.410703 183.825562 
z
M 435.408047 182.254312 
L 435.408047 185.541187 
L 436.896797 185.541187 
Q 437.723672 185.541187 438.173672 185.113687 
Q 438.625547 184.686187 438.625547 183.894937 
Q 438.625547 183.109312 438.173672 182.681812 
Q 437.723672 182.254312 436.896797 182.254312 
L 435.408047 182.254312 
z
M 434.224922 181.281187 
L 436.896797 181.281187 
Q 438.368672 181.281187 439.120547 181.946812 
Q 439.874297 182.612437 439.874297 183.894937 
Q 439.874297 185.190562 439.120547 185.852437 
Q 438.368672 186.514312 436.896797 186.514312 
L 435.408047 186.514312 
L 435.408047 190.029937 
L 434.224922 190.029937 
L 434.224922 181.281187 
z
M 444.0975 182.061187 
Q 443.184375 182.061187 442.723125 182.961187 
Q 442.26375 183.859312 442.26375 185.664937 
Q 442.26375 187.463062 442.723125 188.363062 
Q 443.184375 189.263062 444.0975 189.263062 
Q 445.018125 189.263062 445.4775 188.363062 
Q 445.93875 187.463062 445.93875 185.664937 
Q 445.93875 183.859312 445.4775 182.961187 
Q 445.018125 182.061187 444.0975 182.061187 
z
M 444.0975 181.123687 
Q 445.569375 181.123687 446.345625 182.288062 
Q 447.121875 183.450562 447.121875 185.664937 
Q 447.121875 187.873687 446.345625 189.038062 
Q 445.569375 190.200562 444.0975 190.200562 
Q 442.6275 190.200562 441.85125 189.038062 
Q 441.075 187.873687 441.075 185.664937 
Q 441.075 183.450562 441.85125 182.288062 
Q 442.6275 181.123687 444.0975 181.123687 
z
M 451.732266 182.061187 
Q 450.819141 182.061187 450.357891 182.961187 
Q 449.898516 183.859312 449.898516 185.664937 
Q 449.898516 187.463062 450.357891 188.363062 
Q 450.819141 189.263062 451.732266 189.263062 
Q 452.652891 189.263062 453.112266 188.363062 
Q 453.573516 187.463062 453.573516 185.664937 
Q 453.573516 183.859312 453.112266 182.961187 
Q 452.652891 182.061187 451.732266 182.061187 
z
M 451.732266 181.123687 
Q 453.204141 181.123687 453.980391 182.288062 
Q 454.756641 183.450562 454.756641 185.664937 
Q 454.756641 187.873687 453.980391 189.038062 
Q 453.204141 190.200562 451.732266 190.200562 
Q 450.262266 190.200562 449.486016 189.038062 
Q 448.709766 187.873687 448.709766 185.664937 
Q 448.709766 183.450562 449.486016 182.288062 
Q 450.262266 181.123687 451.732266 181.123687 
z
M 460.088906 182.312437 
L 457.100156 186.983062 
L 460.088906 186.983062 
L 460.088906 182.312437 
z
M 459.777656 181.281187 
L 461.266406 181.281187 
L 461.266406 186.983062 
L 462.515156 186.983062 
L 462.515156 187.967437 
L 461.266406 187.967437 
L 461.266406 190.029937 
L 460.088906 190.029937 
L 460.088906 187.967437 
L 456.140156 187.967437 
L 456.140156 186.825562 
L 459.777656 181.281187 
z
M 464.483672 181.281187 
L 469.129922 181.281187 
L 469.129922 182.278687 
L 465.567422 182.278687 
L 465.567422 184.421812 
Q 465.824297 184.333687 466.081172 184.290562 
Q 466.339922 184.247437 466.598672 184.247437 
Q 468.063047 184.247437 468.918047 185.049937 
Q 469.774922 185.852437 469.774922 187.223062 
Q 469.774922 188.634937 468.895547 189.418687 
Q 468.016172 190.200562 466.416797 190.200562 
Q 465.865547 190.200562 465.293672 190.106812 
Q 464.723672 190.013062 464.114297 189.825562 
L 464.114297 188.634937 
Q 464.641172 188.921812 465.203672 189.062437 
Q 465.766172 189.203062 466.392422 189.203062 
Q 467.406797 189.203062 467.997422 188.670562 
Q 468.589922 188.138062 468.589922 187.223062 
Q 468.589922 186.309937 467.997422 185.777437 
Q 467.406797 185.243062 466.392422 185.243062 
Q 465.918047 185.243062 465.445547 185.348062 
Q 464.974922 185.453062 464.483672 185.676187 
L 464.483672 181.281187 
z
M 472.311562 189.034312 
L 474.244687 189.034312 
L 474.244687 182.359312 
L 472.140937 182.781187 
L 472.140937 181.703062 
L 474.233437 181.281187 
L 475.416562 181.281187 
L 475.416562 189.034312 
L 477.349687 189.034312 
L 477.349687 190.029937 
L 472.311562 190.029937 
L 472.311562 189.034312 
z
" clip-path="url(#p82bd0d179d)" style="fill: #ffffff; stroke: #000000; stroke-width: 2"/>
    <path d="M 386.5875 181.281187 
L 387.778125 181.281187 
L 387.778125 186.596812 
Q 387.778125 188.003062 388.28625 188.621812 
Q 388.79625 189.238687 389.94 189.238687 
Q 391.07625 189.238687 391.58625 188.621812 
Q 392.09625 188.003062 392.09625 186.596812 
L 392.09625 181.281187 
L 393.285 181.281187 
L 393.285 186.743062 
Q 393.285 188.453062 392.4375 189.326812 
Q 391.591875 190.200562 389.94 190.200562 
Q 388.280625 190.200562 387.433125 189.326812 
Q 386.5875 188.453062 386.5875 186.743062 
L 386.5875 181.281187 
z
M 400.915078 186.068062 
L 400.915078 190.029937 
L 399.836953 190.029937 
L 399.836953 186.103687 
Q 399.836953 185.171812 399.473203 184.710562 
Q 399.109453 184.247437 398.383828 184.247437 
Q 397.510078 184.247437 397.005703 184.804312 
Q 396.501328 185.359312 396.501328 186.321187 
L 396.501328 190.029937 
L 395.417578 190.029937 
L 395.417578 183.467437 
L 396.501328 183.467437 
L 396.501328 184.487437 
Q 396.889453 183.894937 397.412578 183.602437 
Q 397.937578 183.309937 398.623828 183.309937 
Q 399.754453 183.309937 400.333828 184.009312 
Q 400.915078 184.708687 400.915078 186.068062 
z
M 403.064297 183.467437 
L 404.142422 183.467437 
L 404.142422 190.029937 
L 403.064297 190.029937 
L 403.064297 183.467437 
z
M 403.064297 180.911812 
L 404.142422 180.911812 
L 404.142422 182.278687 
L 403.064297 182.278687 
L 403.064297 180.911812 
z
M 407.628281 182.254312 
L 407.628281 185.541187 
L 409.117031 185.541187 
Q 409.943906 185.541187 410.393906 185.113687 
Q 410.845781 184.686187 410.845781 183.894937 
Q 410.845781 183.109312 410.393906 182.681812 
Q 409.943906 182.254312 409.117031 182.254312 
L 407.628281 182.254312 
z
M 406.445156 181.281187 
L 409.117031 181.281187 
Q 410.588906 181.281187 411.340781 181.946812 
Q 412.094531 182.612437 412.094531 183.894937 
Q 412.094531 185.190562 411.340781 185.852437 
Q 410.588906 186.514312 409.117031 186.514312 
L 407.628281 186.514312 
L 407.628281 190.029937 
L 406.445156 190.029937 
L 406.445156 181.281187 
z
M 417.227109 184.474312 
Q 417.045234 184.369312 416.831484 184.320562 
Q 416.617734 184.269937 416.360859 184.269937 
Q 415.445859 184.269937 414.956484 184.864312 
Q 414.467109 185.458687 414.467109 186.572437 
L 414.467109 190.029937 
L 413.383359 190.029937 
L 413.383359 183.467437 
L 414.467109 183.467437 
L 414.467109 184.487437 
Q 414.808359 183.889312 415.352109 183.600562 
Q 415.897734 183.309937 416.677734 183.309937 
Q 416.788359 183.309937 416.923359 183.324937 
Q 417.058359 183.338062 417.221484 183.368062 
L 417.227109 184.474312 
z
M 420.630703 184.223062 
Q 419.764453 184.223062 419.260078 184.899937 
Q 418.755703 185.576812 418.755703 186.754312 
Q 418.755703 187.931812 419.256328 188.608687 
Q 419.758828 189.285562 420.630703 189.285562 
Q 421.493203 189.285562 421.995703 188.606812 
Q 422.500078 187.926187 422.500078 186.754312 
Q 422.500078 185.588062 421.995703 184.905562 
Q 421.493203 184.223062 420.630703 184.223062 
z
M 420.630703 183.309937 
Q 422.036953 183.309937 422.839453 184.224937 
Q 423.643828 185.138062 423.643828 186.754312 
Q 423.643828 188.364937 422.839453 189.283687 
Q 422.036953 190.200562 420.630703 190.200562 
Q 419.218828 190.200562 418.418203 189.283687 
Q 417.619453 188.364937 417.619453 186.754312 
Q 417.619453 185.138062 418.418203 184.224937 
Q 419.218828 183.309937 420.630703 183.309937 
z
M 426.496875 181.603687 
L 426.496875 183.467437 
L 428.716875 183.467437 
L 428.716875 184.305562 
L 426.496875 184.305562 
L 426.496875 187.868062 
Q 426.496875 188.670562 426.71625 188.899312 
Q 426.935625 189.128062 427.610625 189.128062 
L 428.716875 189.128062 
L 428.716875 190.029937 
L 427.610625 190.029937 
Q 426.361875 190.029937 425.8875 189.564937 
Q 425.413125 189.098062 425.413125 187.868062 
L 425.413125 184.305562 
L 424.621875 184.305562 
L 424.621875 183.467437 
L 425.413125 183.467437 
L 425.413125 181.603687 
L 426.496875 181.603687 
z
M 430.410703 188.541187 
L 431.646328 188.541187 
L 431.646328 190.029937 
L 430.410703 190.029937 
L 430.410703 188.541187 
z
M 430.410703 183.825562 
L 431.646328 183.825562 
L 431.646328 185.312437 
L 430.410703 185.312437 
L 430.410703 183.825562 
z
M 435.408047 182.254312 
L 435.408047 185.541187 
L 436.896797 185.541187 
Q 437.723672 185.541187 438.173672 185.113687 
Q 438.625547 184.686187 438.625547 183.894937 
Q 438.625547 183.109312 438.173672 182.681812 
Q 437.723672 182.254312 436.896797 182.254312 
L 435.408047 182.254312 
z
M 434.224922 181.281187 
L 436.896797 181.281187 
Q 438.368672 181.281187 439.120547 181.946812 
Q 439.874297 182.612437 439.874297 183.894937 
Q 439.874297 185.190562 439.120547 185.852437 
Q 438.368672 186.514312 436.896797 186.514312 
L 435.408047 186.514312 
L 435.408047 190.029937 
L 434.224922 190.029937 
L 434.224922 181.281187 
z
M 444.0975 182.061187 
Q 443.184375 182.061187 442.723125 182.961187 
Q 442.26375 183.859312 442.26375 185.664937 
Q 442.26375 187.463062 442.723125 188.363062 
Q 443.184375 189.263062 444.0975 189.263062 
Q 445.018125 189.263062 445.4775 188.363062 
Q 445.93875 187.463062 445.93875 185.664937 
Q 445.93875 183.859312 445.4775 182.961187 
Q 445.018125 182.061187 444.0975 182.061187 
z
M 444.0975 181.123687 
Q 445.569375 181.123687 446.345625 182.288062 
Q 447.121875 183.450562 447.121875 185.664937 
Q 447.121875 187.873687 446.345625 189.038062 
Q 445.569375 190.200562 444.0975 190.200562 
Q 442.6275 190.200562 441.85125 189.038062 
Q 441.075 187.873687 441.075 185.664937 
Q 441.075 183.450562 441.85125 182.288062 
Q 442.6275 181.123687 444.0975 181.123687 
z
M 451.732266 182.061187 
Q 450.819141 182.061187 450.357891 182.961187 
Q 449.898516 183.859312 449.898516 185.664937 
Q 449.898516 187.463062 450.357891 188.363062 
Q 450.819141 189.263062 451.732266 189.263062 
Q 452.652891 189.263062 453.112266 188.363062 
Q 453.573516 187.463062 453.573516 185.664937 
Q 453.573516 183.859312 453.112266 182.961187 
Q 452.652891 182.061187 451.732266 182.061187 
z
M 451.732266 181.123687 
Q 453.204141 181.123687 453.980391 182.288062 
Q 454.756641 183.450562 454.756641 185.664937 
Q 454.756641 187.873687 453.980391 189.038062 
Q 453.204141 190.200562 451.732266 190.200562 
Q 450.262266 190.200562 449.486016 189.038062 
Q 448.709766 187.873687 448.709766 185.664937 
Q 448.709766 183.450562 449.486016 182.288062 
Q 450.262266 181.123687 451.732266 181.123687 
z
M 460.088906 182.312437 
L 457.100156 186.983062 
L 460.088906 186.983062 
L 460.088906 182.312437 
z
M 459.777656 181.281187 
L 461.266406 181.281187 
L 461.266406 186.983062 
L 462.515156 186.983062 
L 462.515156 187.967437 
L 461.266406 187.967437 
L 461.266406 190.029937 
L 460.088906 190.029937 
L 460.088906 187.967437 
L 456.140156 187.967437 
L 456.140156 186.825562 
L 459.777656 181.281187 
z
M 464.483672 181.281187 
L 469.129922 181.281187 
L 469.129922 182.278687 
L 465.567422 182.278687 
L 465.567422 184.421812 
Q 465.824297 184.333687 466.081172 184.290562 
Q 466.339922 184.247437 466.598672 184.247437 
Q 468.063047 184.247437 468.918047 185.049937 
Q 469.774922 185.852437 469.774922 187.223062 
Q 469.774922 188.634937 468.895547 189.418687 
Q 468.016172 190.200562 466.416797 190.200562 
Q 465.865547 190.200562 465.293672 190.106812 
Q 464.723672 190.013062 464.114297 189.825562 
L 464.114297 188.634937 
Q 464.641172 188.921812 465.203672 189.062437 
Q 465.766172 189.203062 466.392422 189.203062 
Q 467.406797 189.203062 467.997422 188.670562 
Q 468.589922 188.138062 468.589922 187.223062 
Q 468.589922 186.309937 467.997422 185.777437 
Q 467.406797 185.243062 466.392422 185.243062 
Q 465.918047 185.243062 465.445547 185.348062 
Q 464.974922 185.453062 464.483672 185.676187 
L 464.483672 181.281187 
z
M 472.311562 189.034312 
L 474.244687 189.034312 
L 474.244687 182.359312 
L 472.140937 182.781187 
L 472.140937 181.703062 
L 474.233437 181.281187 
L 475.416562 181.281187 
L 475.416562 189.034312 
L 477.349687 189.034312 
L 477.349687 190.029937 
L 472.311562 190.029937 
L 472.311562 189.034312 
z
" clip-path="url(#p82bd0d179d)" style="fill: #ffffff"/>
    <path d="M 413.331562 195.691687 
L 413.331562 198.978562 
L 414.820312 198.978562 
Q 415.647187 198.978562 416.097187 198.551062 
Q 416.549062 198.123562 416.549062 197.332312 
Q 416.549062 196.546687 416.097187 196.119187 
Q 415.647187 195.691687 414.820312 195.691687 
L 413.331562 195.691687 
z
M 412.148437 194.718562 
L 414.820312 194.718562 
Q 416.292187 194.718562 417.044062 195.384187 
Q 417.797812 196.049812 417.797812 197.332312 
Q 417.797812 198.627937 417.044062 199.289812 
Q 416.292187 199.951687 414.820312 199.951687 
L 413.331562 199.951687 
L 413.331562 203.467312 
L 412.148437 203.467312 
L 412.148437 194.718562 
z
M 422.930391 197.911687 
Q 422.748516 197.806687 422.534766 197.757937 
Q 422.321016 197.707312 422.064141 197.707312 
Q 421.149141 197.707312 420.659766 198.301687 
Q 420.170391 198.896062 420.170391 200.009812 
L 420.170391 203.467312 
L 419.086641 203.467312 
L 419.086641 196.904812 
L 420.170391 196.904812 
L 420.170391 197.924812 
Q 420.511641 197.326687 421.055391 197.037937 
Q 421.601016 196.747312 422.381016 196.747312 
Q 422.491641 196.747312 422.626641 196.762312 
Q 422.761641 196.775437 422.924766 196.805437 
L 422.930391 197.911687 
z
M 426.333984 197.660437 
Q 425.467734 197.660437 424.963359 198.337312 
Q 424.458984 199.014187 424.458984 200.191687 
Q 424.458984 201.369187 424.959609 202.046062 
Q 425.462109 202.722937 426.333984 202.722937 
Q 427.196484 202.722937 427.698984 202.044187 
Q 428.203359 201.363562 428.203359 200.191687 
Q 428.203359 199.025437 427.698984 198.342937 
Q 427.196484 197.660437 426.333984 197.660437 
z
M 426.333984 196.747312 
Q 427.740234 196.747312 428.542734 197.662312 
Q 429.347109 198.575437 429.347109 200.191687 
Q 429.347109 201.802312 428.542734 202.721062 
Q 427.740234 203.637937 426.333984 203.637937 
Q 424.922109 203.637937 424.121484 202.721062 
Q 423.322734 201.802312 423.322734 200.191687 
Q 423.322734 198.575437 424.121484 197.662312 
Q 424.922109 196.747312 426.333984 196.747312 
z
M 432.200156 195.041062 
L 432.200156 196.904812 
L 434.420156 196.904812 
L 434.420156 197.742937 
L 432.200156 197.742937 
L 432.200156 201.305437 
Q 432.200156 202.107937 432.419531 202.336687 
Q 432.638906 202.565437 433.313906 202.565437 
L 434.420156 202.565437 
L 434.420156 203.467312 
L 433.313906 203.467312 
Q 432.065156 203.467312 431.590781 203.002312 
Q 431.116406 202.535437 431.116406 201.305437 
L 431.116406 197.742937 
L 430.325156 197.742937 
L 430.325156 196.904812 
L 431.116406 196.904812 
L 431.116406 195.041062 
L 432.200156 195.041062 
z
M 441.452109 199.916062 
L 441.452109 200.442937 
L 436.494609 200.442937 
Q 436.565859 201.556687 437.165859 202.139812 
Q 437.765859 202.722937 438.838359 202.722937 
Q 439.458984 202.722937 440.042109 202.571062 
Q 440.625234 202.419187 441.200859 202.113562 
L 441.200859 203.133562 
Q 440.619609 203.379187 440.010234 203.508562 
Q 439.400859 203.637937 438.774609 203.637937 
Q 437.203359 203.637937 436.286484 202.724812 
Q 435.369609 201.809812 435.369609 200.249812 
Q 435.369609 198.639187 436.239609 197.694187 
Q 437.109609 196.747312 438.587109 196.747312 
Q 439.910859 196.747312 440.681484 197.600437 
Q 441.452109 198.451687 441.452109 199.916062 
z
M 440.373984 199.599187 
Q 440.362734 198.716062 439.878984 198.189187 
Q 439.395234 197.660437 438.598359 197.660437 
Q 437.696484 197.660437 437.154609 198.170437 
Q 436.612734 198.680437 436.530234 199.606687 
L 440.373984 199.599187 
z
M 443.221172 196.904812 
L 444.299297 196.904812 
L 444.299297 203.467312 
L 443.221172 203.467312 
L 443.221172 196.904812 
z
M 443.221172 194.349187 
L 444.299297 194.349187 
L 444.299297 195.716062 
L 443.221172 195.716062 
L 443.221172 194.349187 
z
M 452.011406 199.505437 
L 452.011406 203.467312 
L 450.933281 203.467312 
L 450.933281 199.541062 
Q 450.933281 198.609187 450.569531 198.147937 
Q 450.205781 197.684812 449.480156 197.684812 
Q 448.606406 197.684812 448.102031 198.241687 
Q 447.597656 198.796687 447.597656 199.758562 
L 447.597656 203.467312 
L 446.513906 203.467312 
L 446.513906 196.904812 
L 447.597656 196.904812 
L 447.597656 197.924812 
Q 447.985781 197.332312 448.508906 197.039812 
Q 449.033906 196.747312 449.720156 196.747312 
Q 450.850781 196.747312 451.430156 197.446687 
Q 452.011406 198.146062 452.011406 199.505437 
z
" clip-path="url(#p82bd0d179d)" style="fill: #ffffff; stroke: #000000; stroke-width: 2"/>
    <path d="M 413.331562 195.691687 
L 413.331562 198.978562 
L 414.820312 198.978562 
Q 415.647187 198.978562 416.097187 198.551062 
Q 416.549062 198.123562 416.549062 197.332312 
Q 416.549062 196.546687 416.097187 196.119187 
Q 415.647187 195.691687 414.820312 195.691687 
L 413.331562 195.691687 
z
M 412.148437 194.718562 
L 414.820312 194.718562 
Q 416.292187 194.718562 417.044062 195.384187 
Q 417.797812 196.049812 417.797812 197.332312 
Q 417.797812 198.627937 417.044062 199.289812 
Q 416.292187 199.951687 414.820312 199.951687 
L 413.331562 199.951687 
L 413.331562 203.467312 
L 412.148437 203.467312 
L 412.148437 194.718562 
z
M 422.930391 197.911687 
Q 422.748516 197.806687 422.534766 197.757937 
Q 422.321016 197.707312 422.064141 197.707312 
Q 421.149141 197.707312 420.659766 198.301687 
Q 420.170391 198.896062 420.170391 200.009812 
L 420.170391 203.467312 
L 419.086641 203.467312 
L 419.086641 196.904812 
L 420.170391 196.904812 
L 420.170391 197.924812 
Q 420.511641 197.326687 421.055391 197.037937 
Q 421.601016 196.747312 422.381016 196.747312 
Q 422.491641 196.747312 422.626641 196.762312 
Q 422.761641 196.775437 422.924766 196.805437 
L 422.930391 197.911687 
z
M 426.333984 197.660437 
Q 425.467734 197.660437 424.963359 198.337312 
Q 424.458984 199.014187 424.458984 200.191687 
Q 424.458984 201.369187 424.959609 202.046062 
Q 425.462109 202.722937 426.333984 202.722937 
Q 427.196484 202.722937 427.698984 202.044187 
Q 428.203359 201.363562 428.203359 200.191687 
Q 428.203359 199.025437 427.698984 198.342937 
Q 427.196484 197.660437 426.333984 197.660437 
z
M 426.333984 196.747312 
Q 427.740234 196.747312 428.542734 197.662312 
Q 429.347109 198.575437 429.347109 200.191687 
Q 429.347109 201.802312 428.542734 202.721062 
Q 427.740234 203.637937 426.333984 203.637937 
Q 424.922109 203.637937 424.121484 202.721062 
Q 423.322734 201.802312 423.322734 200.191687 
Q 423.322734 198.575437 424.121484 197.662312 
Q 424.922109 196.747312 426.333984 196.747312 
z
M 432.200156 195.041062 
L 432.200156 196.904812 
L 434.420156 196.904812 
L 434.420156 197.742937 
L 432.200156 197.742937 
L 432.200156 201.305437 
Q 432.200156 202.107937 432.419531 202.336687 
Q 432.638906 202.565437 433.313906 202.565437 
L 434.420156 202.565437 
L 434.420156 203.467312 
L 433.313906 203.467312 
Q 432.065156 203.467312 431.590781 203.002312 
Q 431.116406 202.535437 431.116406 201.305437 
L 431.116406 197.742937 
L 430.325156 197.742937 
L 430.325156 196.904812 
L 431.116406 196.904812 
L 431.116406 195.041062 
L 432.200156 195.041062 
z
M 441.452109 199.916062 
L 441.452109 200.442937 
L 436.494609 200.442937 
Q 436.565859 201.556687 437.165859 202.139812 
Q 437.765859 202.722937 438.838359 202.722937 
Q 439.458984 202.722937 440.042109 202.571062 
Q 440.625234 202.419187 441.200859 202.113562 
L 441.200859 203.133562 
Q 440.619609 203.379187 440.010234 203.508562 
Q 439.400859 203.637937 438.774609 203.637937 
Q 437.203359 203.637937 436.286484 202.724812 
Q 435.369609 201.809812 435.369609 200.249812 
Q 435.369609 198.639187 436.239609 197.694187 
Q 437.109609 196.747312 438.587109 196.747312 
Q 439.910859 196.747312 440.681484 197.600437 
Q 441.452109 198.451687 441.452109 199.916062 
z
M 440.373984 199.599187 
Q 440.362734 198.716062 439.878984 198.189187 
Q 439.395234 197.660437 438.598359 197.660437 
Q 437.696484 197.660437 437.154609 198.170437 
Q 436.612734 198.680437 436.530234 199.606687 
L 440.373984 199.599187 
z
M 443.221172 196.904812 
L 444.299297 196.904812 
L 444.299297 203.467312 
L 443.221172 203.467312 
L 443.221172 196.904812 
z
M 443.221172 194.349187 
L 444.299297 194.349187 
L 444.299297 195.716062 
L 443.221172 195.716062 
L 443.221172 194.349187 
z
M 452.011406 199.505437 
L 452.011406 203.467312 
L 450.933281 203.467312 
L 450.933281 199.541062 
Q 450.933281 198.609187 450.569531 198.147937 
Q 450.205781 197.684812 449.480156 197.684812 
Q 448.606406 197.684812 448.102031 198.241687 
Q 447.597656 198.796687 447.597656 199.758562 
L 447.597656 203.467312 
L 446.513906 203.467312 
L 446.513906 196.904812 
L 447.597656 196.904812 
L 447.597656 197.924812 
Q 447.985781 197.332312 448.508906 197.039812 
Q 449.033906 196.747312 449.720156 196.747312 
Q 450.850781 196.747312 451.430156 197.446687 
Q 452.011406 198.146062 452.011406 199.505437 
z
" clip-path="url(#p82bd0d179d)" style="fill: #ffffff"/>
   </g>
   <g id="text_4">
    <g clip-path="url(#p82bd0d179d)">
     <!-- Vasopressin -->
     <g transform="translate(39.308957 169.873875)scale(0.12 -0.12)">
      <defs>
       <path id="DejaVuSans-56" d="M 1831 0 
L 50 4666 
L 709 4666 
L 2188 738 
L 3669 4666 
L 4325 4666 
L 2547 0 
L 1831 0 
z
" transform="scale(0.015625)"/>
      </defs>
      <use xlink:href="#DejaVuSans-56"/>
      <use xlink:href="#DejaVuSans-61" x="60.658203"/>
      <use xlink:href="#DejaVuSans-73" x="121.9375"/>
      <use xlink:href="#DejaVuSans-6f" x="174.037109"/>
      <use xlink:href="#DejaVuSans-70" x="235.21875"/>
      <use xlink:href="#DejaVuSans-72" x="298.695312"/>
      <use xlink:href="#DejaVuSans-65" x="337.558594"/>
      <use xlink:href="#DejaVuSans-73" x="399.082031"/>
      <use xlink:href="#DejaVuSans-73" x="451.181641"/>
      <use xlink:href="#DejaVuSans-69" x="503.28125"/>
      <use xlink:href="#DejaVuSans-6e" x="531.064453"/>
     </g>
    </g>
    <g clip-path="url(#p82bd0d179d)">
     <!-- MESH:C016671 -->
     <g transform="translate(28.569894 183.31125)scale(0.12 -0.12)">
      <defs>
       <path id="DejaVuSans-4d" d="M 628 4666 
L 1569 4666 
L 2759 1491 
L 3956 4666 
L 4897 4666 
L 4897 0 
L 4281 0 
L 4281 4097 
L 3078 897 
L 2444 897 
L 1241 4097 
L 1241 0 
L 628 0 
L 628 4666 
z
" transform="scale(0.015625)"/>
       <path id="DejaVuSans-45" d="M 628 4666 
L 3578 4666 
L 3578 4134 
L 1259 4134 
L 1259 2753 
L 3481 2753 
L 3481 2222 
L 1259 2222 
L 1259 531 
L 3634 531 
L 3634 0 
L 628 0 
L 628 4666 
z
" transform="scale(0.015625)"/>
       <path id="DejaVuSans-53" d="M 3425 4513 
L 3425 3897 
Q 3066 4069 2747 4153 
Q 2428 4238 2131 4238 
Q 1616 4238 1336 4038 
Q 1056 3838 1056 3469 
Q 1056 3159 1242 3001 
Q 1428 2844 1947 2747 
L 2328 2669 
Q 3034 2534 3370 2195 
Q 3706 1856 3706 1288 
Q 3706 609 3251 259 
Q 2797 -91 1919 -91 
Q 1588 -91 1214 -16 
Q 841 59 441 206 
L 441 856 
Q 825 641 1194 531 
Q 1563 422 1919 422 
Q 2459 422 2753 634 
Q 3047 847 3047 1241 
Q 3047 1584 2836 1778 
Q 2625 1972 2144 2069 
L 1759 2144 
Q 1053 2284 737 2584 
Q 422 2884 422 3419 
Q 422 4038 858 4394 
Q 1294 4750 2059 4750 
Q 2388 4750 2728 4690 
Q 3069 4631 3425 4513 
z
" transform="scale(0.015625)"/>
       <path id="DejaVuSans-48" d="M 628 4666 
L 1259 4666 
L 1259 2753 
L 3553 2753 
L 3553 4666 
L 4184 4666 
L 4184 0 
L 3553 0 
L 3553 2222 
L 1259 2222 
L 1259 0 
L 628 0 
L 628 4666 
z
" transform="scale(0.015625)"/>
       <path id="DejaVuSans-3a" d="M 750 794 
L 1409 794 
L 1409 0 
L 750 0 
L 750 794 
z
M 750 3309 
L 1409 3309 
L 1409 2516 
L 750 2516 
L 750 3309 
z
" transform="scale(0.015625)"/>
       <path id="DejaVuSans-43" d="M 4122 4306 
L 4122 3641 
Q 3803 3938 3442 4084 
Q 3081 4231 2675 4231 
Q 1875 4231 1450 3742 
Q 1025 3253 1025 2328 
Q 1025 1406 1450 917 
Q 1875 428 2675 428 
Q 3081 428 3442 575 
Q 3803 722 4122 1019 
L 4122 359 
Q 3791 134 3420 21 
Q 3050 -91 2638 -91 
Q 1578 -91 968 557 
Q 359 1206 359 2328 
Q 359 3453 968 4101 
Q 1578 4750 2638 4750 
Q 3056 4750 3426 4639 
Q 3797 4528 4122 4306 
z
" transform="scale(0.015625)"/>
       <path id="DejaVuSans-30" d="M 2034 4250 
Q 1547 4250 1301 3770 
Q 1056 3291 1056 2328 
Q 1056 1369 1301 889 
Q 1547 409 2034 409 
Q 2525 409 2770 889 
Q 3016 1369 3016 2328 
Q 3016 3291 2770 3770 
Q 2525 4250 2034 4250 
z
M 2034 4750 
Q 2819 4750 3233 4129 
Q 3647 3509 3647 2328 
Q 3647 1150 3233 529 
Q 2819 -91 2034 -91 
Q 1250 -91 836 529 
Q 422 1150 422 2328 
Q 422 3509 836 4129 
Q 1250 4750 2034 4750 
z
" transform="scale(0.015625)"/>
       <path id="DejaVuSans-31" d="M 794 531 
L 1825 531 
L 1825 4091 
L 703 3866 
L 703 4441 
L 1819 4666 
L 2450 4666 
L 2450 531 
L 3481 531 
L 3481 0 
L 794 0 
L 794 531 
z
" transform="scale(0.015625)"/>
       <path id="DejaVuSans-36" d="M 2113 2584 
Q 1688 2584 1439 2293 
Q 1191 2003 1191 1497 
Q 1191 994 1439 701 
Q 1688 409 2113 409 
Q 2538 409 2786 701 
Q 3034 994 3034 1497 
Q 3034 2003 2786 2293 
Q 2538 2584 2113 2584 
z
M 3366 4563 
L 3366 3988 
Q 3128 4100 2886 4159 
Q 2644 4219 2406 4219 
Q 1781 4219 1451 3797 
Q 1122 3375 1075 2522 
Q 1259 2794 1537 2939 
Q 1816 3084 2150 3084 
Q 2853 3084 3261 2657 
Q 3669 2231 3669 1497 
Q 3669 778 3244 343 
Q 2819 -91 2113 -91 
Q 1303 -91 875 529 
Q 447 1150 447 2328 
Q 447 3434 972 4092 
Q 1497 4750 2381 4750 
Q 2619 4750 2861 4703 
Q 3103 4656 3366 4563 
z
" transform="scale(0.015625)"/>
       <path id="DejaVuSans-37" d="M 525 4666 
L 3525 4666 
L 3525 4397 
L 1831 0 
L 1172 0 
L 2766 4134 
L 525 4134 
L 525 4666 
z
" transform="scale(0.015625)"/>
      </defs>
      <use xlink:href="#DejaVuSans-4d"/>
      <use xlink:href="#DejaVuSans-45" x="86.279297"/>
      <use xlink:href="#DejaVuSans-53" x="149.462891"/>
      <use xlink:href="#DejaVuSans-48" x="212.939453"/>
      <use xlink:href="#DejaVuSans-3a" x="288.134766"/>
      <use xlink:href="#DejaVuSans-43" x="321.826172"/>
      <use xlink:href="#DejaVuSans-30" x="391.650391"/>
      <use xlink:href="#DejaVuSans-31" x="455.273438"/>
      <use xlink:href="#DejaVuSans-36" x="518.896484"/>
      <use xlink:href="#DejaVuSans-36" x="582.519531"/>
      <use xlink:href="#DejaVuSans-37" x="646.142578"/>
      <use xlink:href="#DejaVuSans-31" x="709.765625"/>
     </g>
    </g>
    <g clip-path="url(#p82bd0d179d)">
     <!-- Drug -->
     <g transform="translate(60.277082 196.748625)scale(0.12 -0.12)">
      <defs>
       <path id="DejaVuSans-44" d="M 1259 4147 
L 1259 519 
L 2022 519 
Q 2988 519 3436 956 
Q 3884 1394 3884 2338 
Q 3884 3275 3436 3711 
Q 2988 4147 2022 4147 
L 1259 4147 
z
M 628 4666 
L 1925 4666 
Q 3281 4666 3915 4102 
Q 4550 3538 4550 2338 
Q 4550 1131 3912 565 
Q 3275 0 1925 0 
L 628 0 
L 628 4666 
z
" transform="scale(0.015625)"/>
       <path id="DejaVuSans-67" d="M 2906 1791 
Q 2906 2416 2648 2759 
Q 2391 3103 1925 3103 
Q 1463 3103 1205 2759 
Q 947 2416 947 1791 
Q 947 1169 1205 825 
Q 1463 481 1925 481 
Q 2391 481 2648 825 
Q 2906 1169 2906 1791 
z
M 3481 434 
Q 3481 -459 3084 -895 
Q 2688 -1331 1869 -1331 
Q 1566 -1331 1297 -1286 
Q 1028 -1241 775 -1147 
L 775 -588 
Q 1028 -725 1275 -790 
Q 1522 -856 1778 -856 
Q 2344 -856 2625 -561 
Q 2906 -266 2906 331 
L 2906 616 
Q 2728 306 2450 153 
Q 2172 0 1784 0 
Q 1141 0 747 490 
Q 353 981 353 1791 
Q 353 2603 747 3093 
Q 1141 3584 1784 3584 
Q 2172 3584 2450 3431 
Q 2728 3278 2906 2969 
L 2906 3500 
L 3481 3500 
L 3481 434 
z
" transform="scale(0.015625)"/>
      </defs>
      <use xlink:href="#DejaVuSans-44"/>
      <use xlink:href="#DejaVuSans-72" x="77.001953"/>
      <use xlink:href="#DejaVuSans-75" x="118.115234"/>
      <use xlink:href="#DejaVuSans-67" x="181.494141"/>
     </g>
    </g>
   </g>
   <g id="text_5">
    <g clip-path="url(#p82bd0d179d)">
     <!-- Hereditary -->
     <g transform="translate(757.274481 149.717812)scale(0.12 -0.12)">
      <use xlink:href="#DejaVuSans-48"/>
      <use xlink:href="#DejaVuSans-65" x="75.195312"/>
      <use xlink:href="#DejaVuSans-72" x="136.71875"/>
      <use xlink:href="#DejaVuSans-65" x="175.582031"/>
      <use xlink:href="#DejaVuSans-64" x="237.105469"/>
      <use xlink:href="#DejaVuSans-69" x="300.582031"/>
      <use xlink:href="#DejaVuSans-74" x="328.365234"/>
      <use xlink:href="#DejaVuSans-61" x="367.574219"/>
      <use xlink:href="#DejaVuSans-72" x="428.853516"/>
      <use xlink:href="#DejaVuSans-79" x="469.966797"/>
     </g>
    </g>
    <g clip-path="url(#p82bd0d179d)">
     <!-- factor VIII -->
     <g transform="translate(760.125418 163.155187)scale(0.12 -0.12)">
      <defs>
       <path id="DejaVuSans-49" d="M 628 4666 
L 1259 4666 
L 1259 0 
L 628 0 
L 628 4666 
z
" transform="scale(0.015625)"/>
      </defs>
      <use xlink:href="#DejaVuSans-66"/>
      <use xlink:href="#DejaVuSans-61" x="35.205078"/>
      <use xlink:href="#DejaVuSans-63" x="96.484375"/>
      <use xlink:href="#DejaVuSans-74" x="151.464844"/>
      <use xlink:href="#DejaVuSans-6f" x="190.673828"/>
      <use xlink:href="#DejaVuSans-72" x="251.855469"/>
      <use xlink:href="#DejaVuSans-20" x="292.96875"/>
      <use xlink:href="#DejaVuSans-56" x="324.755859"/>
      <use xlink:href="#DejaVuSans-49" x="393.164062"/>
      <use xlink:href="#DejaVuSans-49" x="422.65625"/>
      <use xlink:href="#DejaVuSans-49" x="452.148438"/>
     </g>
    </g>
    <g clip-path="url(#p82bd0d179d)">
     <!-- deficiency -->
     <g transform="translate(758.434168 176.592562)scale(0.12 -0.12)">
      <use xlink:href="#DejaVuSans-64"/>
      <use xlink:href="#DejaVuSans-65" x="63.476562"/>
      <use xlink:href="#DejaVuSans-66" x="125"/>
      <use xlink:href="#DejaVuSans-69" x="160.205078"/>
      <use xlink:href="#DejaVuSans-63" x="187.988281"/>
      <use xlink:href="#DejaVuSans-69" x="242.96875"/>
      <use xlink:href="#DejaVuSans-65" x="270.751953"/>
      <use xlink:href="#DejaVuSans-6e" x="332.275391"/>
      <use xlink:href="#DejaVuSans-63" x="395.654297"/>
      <use xlink:href="#DejaVuSans-79" x="450.634766"/>
     </g>
    </g>
    <g clip-path="url(#p82bd0d179d)">
     <!-- disease -->
     <g transform="translate(766.236981 190.029937)scale(0.12 -0.12)">
      <use xlink:href="#DejaVuSans-64"/>
      <use xlink:href="#DejaVuSans-69" x="63.476562"/>
      <use xlink:href="#DejaVuSans-73" x="91.259766"/>
      <use xlink:href="#DejaVuSans-65" x="143.359375"/>
      <use xlink:href="#DejaVuSans-61" x="204.882812"/>
      <use xlink:href="#DejaVuSans-73" x="266.162109"/>
      <use xlink:href="#DejaVuSans-65" x="318.261719"/>
     </g>
    </g>
    <g clip-path="url(#p82bd0d179d)">
     <!-- MESH:D006467 -->
     <g transform="translate(742.189168 203.467312)scale(0.12 -0.12)">
      <defs>
       <path id="DejaVuSans-34" d="M 2419 4116 
L 825 1625 
L 2419 1625 
L 2419 4116 
z
M 2253 4666 
L 3047 4666 
L 3047 1625 
L 3713 1625 
L 3713 1100 
L 3047 1100 
L 3047 0 
L 2419 0 
L 2419 1100 
L 313 1100 
L 313 1709 
L 2253 4666 
z
" transform="scale(0.015625)"/>
      </defs>
      <use xlink:href="#DejaVuSans-4d"/>
      <use xlink:href="#DejaVuSans-45" x="86.279297"/>
      <use xlink:href="#DejaVuSans-53" x="149.462891"/>
      <use xlink:href="#DejaVuSans-48" x="212.939453"/>
      <use xlink:href="#DejaVuSans-3a" x="288.134766"/>
      <use xlink:href="#DejaVuSans-44" x="321.826172"/>
      <use xlink:href="#DejaVuSans-30" x="398.828125"/>
      <use xlink:href="#DejaVuSans-30" x="462.451172"/>
      <use xlink:href="#DejaVuSans-36" x="526.074219"/>
      <use xlink:href="#DejaVuSans-34" x="589.697266"/>
      <use xlink:href="#DejaVuSans-36" x="653.320312"/>
      <use xlink:href="#DejaVuSans-37" x="716.943359"/>
     </g>
    </g>
    <g clip-path="url(#p82bd0d179d)">
     <!-- Disease -->
     <g transform="translate(765.426043 216.904687)scale(0.12 -0.12)">
      <use xlink:href="#DejaVuSans-44"/>
      <use xlink:href="#DejaVuSans-69" x="77.001953"/>
      <use xlink:href="#DejaVuSans-73" x="104.785156"/>
      <use xlink:href="#DejaVuSans-65" x="156.884766"/>
      <use xlink:href="#DejaVuSans-61" x="218.408203"/>
      <use xlink:href="#DejaVuSans-73" x="279.6875"/>
      <use xlink:href="#DejaVuSans-65" x="331.787109"/>
     </g>
    </g>
   </g>
  </g>
 </g>
 <defs>
  <clipPath id="p82bd0d179d">
   <rect x="0" y="0" width="864" height="360"/>
  </clipPath>
 </defs>
</svg>
