<?xml version="1.0" encoding="utf-8" standalone="no"?>
<!DOCTYPE svg PUBLIC "-//W3C//DTD SVG 1.1//EN"
  "http://www.w3.org/Graphics/SVG/1.1/DTD/svg11.dtd">
<svg xmlns:xlink="http://www.w3.org/1999/xlink" width="1036.8pt" height="360pt" viewBox="0 0 1036.8 360" xmlns="http://www.w3.org/2000/svg" version="1.1">
 <metadata>
  <rdf:RDF xmlns:dc="http://purl.org/dc/elements/1.1/" xmlns:cc="http://creativecommons.org/ns#" xmlns:rdf="http://www.w3.org/1999/02/22-rdf-syntax-ns#">
   <cc:Work>
    <dc:type rdf:resource="http://purl.org/dc/dcmitype/StillImage"/>
    <dc:date>2023-02-08T08:52:09.801265</dc:date>
    <dc:format>image/svg+xml</dc:format>
    <dc:creator>
     <cc:Agent>
      <dc:title>Matplotlib v3.5.1, https://matplotlib.org/</dc:title>
     </cc:Agent>
    </dc:creator>
   </cc:Work>
  </rdf:RDF>
 </metadata>
 <defs>
  <style type="text/css">*{stroke-linejoin: round; stroke-linecap: butt}</style>
 </defs>
 <g id="figure_1">
  <g id="patch_1">
   <path d="M 0 360 
L 1036.8 360 
L 1036.8 0 
L 0 0 
z
" style="fill: #ffffff"/>
  </g>
  <g id="axes_1">
   <g id="patch_2">
    <path d="M 142.412623 180 
Q 232.78063 180 319.794535 180 
" clip-path="url(#p80fa3dcd32)" style="fill: none; stroke: #2ca02c; stroke-width: 3; stroke-linecap: round"/>
    <path d="M 315.794535 178 
L 319.794535 180 
L 315.794535 182 
L 315.794535 178 
z
" clip-path="url(#p80fa3dcd32)" style="fill: #2ca02c; stroke: #2ca02c; stroke-width: 3; stroke-linecap: round"/>
   </g>
   <g id="patch_3">
    <path d="M 428.032457 180 
Q 518.400465 180 605.41437 180 
" clip-path="url(#p80fa3dcd32)" style="fill: none; stroke: #2ca02c; stroke-width: 3; stroke-linecap: round"/>
    <path d="M 601.41437 178 
L 605.41437 180 
L 601.41437 182 
L 601.41437 178 
z
" clip-path="url(#p80fa3dcd32)" style="fill: #2ca02c; stroke: #2ca02c; stroke-width: 3; stroke-linecap: round"/>
   </g>
   <g id="patch_4">
    <path d="M 713.652292 180 
Q 804.020299 180 891.034204 180 
" clip-path="url(#p80fa3dcd32)" style="fill: none; stroke: #2ca02c; stroke-width: 3; stroke-linecap: round"/>
    <path d="M 887.034204 178 
L 891.034204 180 
L 887.034204 182 
L 887.034204 178 
z
" clip-path="url(#p80fa3dcd32)" style="fill: #2ca02c; stroke: #2ca02c; stroke-width: 3; stroke-linecap: round"/>
   </g>
   <g id="text_1">
    <g id="patch_5">
     <path d="M 207.410634 193.437969 
L 258.149697 193.437969 
Q 261.149697 193.437969 261.149697 190.437969 
L 261.149697 169.562031 
Q 261.149697 166.562031 258.149697 166.562031 
L 207.410634 166.562031 
Q 204.410634 166.562031 204.410634 169.562031 
L 204.410634 190.437969 
Q 204.410634 193.437969 207.410634 193.437969 
z
" clip-path="url(#p80fa3dcd32)" style="fill: #ffffff; stroke: #ffffff; stroke-linejoin: miter"/>
    </g>
    <g clip-path="url(#p80fa3dcd32)">
     <!-- decreases -->
     <g transform="translate(207.410634 177.160469)scale(0.1 -0.1)">
      <defs>
       <path id="DejaVuSans-64" d="M 2906 2969 
L 2906 4863 
L 3481 4863 
L 3481 0 
L 2906 0 
L 2906 525 
Q 2725 213 2448 61 
Q 2172 -91 1784 -91 
Q 1150 -91 751 415 
Q 353 922 353 1747 
Q 353 2572 751 3078 
Q 1150 3584 1784 3584 
Q 2172 3584 2448 3432 
Q 2725 3281 2906 2969 
z
M 947 1747 
Q 947 1113 1208 752 
Q 1469 391 1925 391 
Q 2381 391 2643 752 
Q 2906 1113 2906 1747 
Q 2906 2381 2643 2742 
Q 2381 3103 1925 3103 
Q 1469 3103 1208 2742 
Q 947 2381 947 1747 
z
" transform="scale(0.015625)"/>
       <path id="DejaVuSans-65" d="M 3597 1894 
L 3597 1613 
L 953 1613 
Q 991 1019 1311 708 
Q 1631 397 2203 397 
Q 2534 397 2845 478 
Q 3156 559 3463 722 
L 3463 178 
Q 3153 47 2828 -22 
Q 2503 -91 2169 -91 
Q 1331 -91 842 396 
Q 353 884 353 1716 
Q 353 2575 817 3079 
Q 1281 3584 2069 3584 
Q 2775 3584 3186 3129 
Q 3597 2675 3597 1894 
z
M 3022 2063 
Q 3016 2534 2758 2815 
Q 2500 3097 2075 3097 
Q 1594 3097 1305 2825 
Q 1016 2553 972 2059 
L 3022 2063 
z
" transform="scale(0.015625)"/>
       <path id="DejaVuSans-63" d="M 3122 3366 
L 3122 2828 
Q 2878 2963 2633 3030 
Q 2388 3097 2138 3097 
Q 1578 3097 1268 2742 
Q 959 2388 959 1747 
Q 959 1106 1268 751 
Q 1578 397 2138 397 
Q 2388 397 2633 464 
Q 2878 531 3122 666 
L 3122 134 
Q 2881 22 2623 -34 
Q 2366 -91 2075 -91 
Q 1284 -91 818 406 
Q 353 903 353 1747 
Q 353 2603 823 3093 
Q 1294 3584 2113 3584 
Q 2378 3584 2631 3529 
Q 2884 3475 3122 3366 
z
" transform="scale(0.015625)"/>
       <path id="DejaVuSans-72" d="M 2631 2963 
Q 2534 3019 2420 3045 
Q 2306 3072 2169 3072 
Q 1681 3072 1420 2755 
Q 1159 2438 1159 1844 
L 1159 0 
L 581 0 
L 581 3500 
L 1159 3500 
L 1159 2956 
Q 1341 3275 1631 3429 
Q 1922 3584 2338 3584 
Q 2397 3584 2469 3576 
Q 2541 3569 2628 3553 
L 2631 2963 
z
" transform="scale(0.015625)"/>
       <path id="DejaVuSans-61" d="M 2194 1759 
Q 1497 1759 1228 1600 
Q 959 1441 959 1056 
Q 959 750 1161 570 
Q 1363 391 1709 391 
Q 2188 391 2477 730 
Q 2766 1069 2766 1631 
L 2766 1759 
L 2194 1759 
z
M 3341 1997 
L 3341 0 
L 2766 0 
L 2766 531 
Q 2569 213 2275 61 
Q 1981 -91 1556 -91 
Q 1019 -91 701 211 
Q 384 513 384 1019 
Q 384 1609 779 1909 
Q 1175 2209 1959 2209 
L 2766 2209 
L 2766 2266 
Q 2766 2663 2505 2880 
Q 2244 3097 1772 3097 
Q 1472 3097 1187 3025 
Q 903 2953 641 2809 
L 641 3341 
Q 956 3463 1253 3523 
Q 1550 3584 1831 3584 
Q 2591 3584 2966 3190 
Q 3341 2797 3341 1997 
z
" transform="scale(0.015625)"/>
       <path id="DejaVuSans-73" d="M 2834 3397 
L 2834 2853 
Q 2591 2978 2328 3040 
Q 2066 3103 1784 3103 
Q 1356 3103 1142 2972 
Q 928 2841 928 2578 
Q 928 2378 1081 2264 
Q 1234 2150 1697 2047 
L 1894 2003 
Q 2506 1872 2764 1633 
Q 3022 1394 3022 966 
Q 3022 478 2636 193 
Q 2250 -91 1575 -91 
Q 1294 -91 989 -36 
Q 684 19 347 128 
L 347 722 
Q 666 556 975 473 
Q 1284 391 1588 391 
Q 1994 391 2212 530 
Q 2431 669 2431 922 
Q 2431 1156 2273 1281 
Q 2116 1406 1581 1522 
L 1381 1569 
Q 847 1681 609 1914 
Q 372 2147 372 2553 
Q 372 3047 722 3315 
Q 1072 3584 1716 3584 
Q 2034 3584 2315 3537 
Q 2597 3491 2834 3397 
z
" transform="scale(0.015625)"/>
      </defs>
      <use xlink:href="#DejaVuSans-64"/>
      <use xlink:href="#DejaVuSans-65" x="63.476562"/>
      <use xlink:href="#DejaVuSans-63" x="125"/>
      <use xlink:href="#DejaVuSans-72" x="179.980469"/>
      <use xlink:href="#DejaVuSans-65" x="218.84375"/>
      <use xlink:href="#DejaVuSans-61" x="280.367188"/>
      <use xlink:href="#DejaVuSans-73" x="341.646484"/>
      <use xlink:href="#DejaVuSans-65" x="393.746094"/>
      <use xlink:href="#DejaVuSans-73" x="455.269531"/>
     </g>
    </g>
    <g clip-path="url(#p80fa3dcd32)">
     <!-- activity of -->
     <g transform="translate(207.941103 188.358281)scale(0.1 -0.1)">
      <defs>
       <path id="DejaVuSans-74" d="M 1172 4494 
L 1172 3500 
L 2356 3500 
L 2356 3053 
L 1172 3053 
L 1172 1153 
Q 1172 725 1289 603 
Q 1406 481 1766 481 
L 2356 481 
L 2356 0 
L 1766 0 
Q 1100 0 847 248 
Q 594 497 594 1153 
L 594 3053 
L 172 3053 
L 172 3500 
L 594 3500 
L 594 4494 
L 1172 4494 
z
" transform="scale(0.015625)"/>
       <path id="DejaVuSans-69" d="M 603 3500 
L 1178 3500 
L 1178 0 
L 603 0 
L 603 3500 
z
M 603 4863 
L 1178 4863 
L 1178 4134 
L 603 4134 
L 603 4863 
z
" transform="scale(0.015625)"/>
       <path id="DejaVuSans-76" d="M 191 3500 
L 800 3500 
L 1894 563 
L 2988 3500 
L 3597 3500 
L 2284 0 
L 1503 0 
L 191 3500 
z
" transform="scale(0.015625)"/>
       <path id="DejaVuSans-79" d="M 2059 -325 
Q 1816 -950 1584 -1140 
Q 1353 -1331 966 -1331 
L 506 -1331 
L 506 -850 
L 844 -850 
Q 1081 -850 1212 -737 
Q 1344 -625 1503 -206 
L 1606 56 
L 191 3500 
L 800 3500 
L 1894 763 
L 2988 3500 
L 3597 3500 
L 2059 -325 
z
" transform="scale(0.015625)"/>
       <path id="DejaVuSans-20" transform="scale(0.015625)"/>
       <path id="DejaVuSans-6f" d="M 1959 3097 
Q 1497 3097 1228 2736 
Q 959 2375 959 1747 
Q 959 1119 1226 758 
Q 1494 397 1959 397 
Q 2419 397 2687 759 
Q 2956 1122 2956 1747 
Q 2956 2369 2687 2733 
Q 2419 3097 1959 3097 
z
M 1959 3584 
Q 2709 3584 3137 3096 
Q 3566 2609 3566 1747 
Q 3566 888 3137 398 
Q 2709 -91 1959 -91 
Q 1206 -91 779 398 
Q 353 888 353 1747 
Q 353 2609 779 3096 
Q 1206 3584 1959 3584 
z
" transform="scale(0.015625)"/>
       <path id="DejaVuSans-66" d="M 2375 4863 
L 2375 4384 
L 1825 4384 
Q 1516 4384 1395 4259 
Q 1275 4134 1275 3809 
L 1275 3500 
L 2222 3500 
L 2222 3053 
L 1275 3053 
L 1275 0 
L 697 0 
L 697 3053 
L 147 3053 
L 147 3500 
L 697 3500 
L 697 3744 
Q 697 4328 969 4595 
Q 1241 4863 1831 4863 
L 2375 4863 
z
" transform="scale(0.015625)"/>
      </defs>
      <use xlink:href="#DejaVuSans-61"/>
      <use xlink:href="#DejaVuSans-63" x="61.279297"/>
      <use xlink:href="#DejaVuSans-74" x="116.259766"/>
      <use xlink:href="#DejaVuSans-69" x="155.46875"/>
      <use xlink:href="#DejaVuSans-76" x="183.251953"/>
      <use xlink:href="#DejaVuSans-69" x="242.431641"/>
      <use xlink:href="#DejaVuSans-74" x="270.214844"/>
      <use xlink:href="#DejaVuSans-79" x="309.423828"/>
      <use xlink:href="#DejaVuSans-20" x="368.603516"/>
      <use xlink:href="#DejaVuSans-6f" x="400.390625"/>
      <use xlink:href="#DejaVuSans-66" x="461.572266"/>
     </g>
    </g>
   </g>
   <g id="text_2">
    <g id="patch_6">
     <path d="M 480.74375 193.437969 
L 556.05625 193.437969 
Q 559.05625 193.437969 559.05625 190.437969 
L 559.05625 169.562031 
Q 559.05625 166.562031 556.05625 166.562031 
L 480.74375 166.562031 
Q 477.74375 166.562031 477.74375 169.562031 
L 477.74375 190.437969 
Q 477.74375 193.437969 480.74375 193.437969 
z
" clip-path="url(#p80fa3dcd32)" style="fill: #ffffff; stroke: #ffffff; stroke-linejoin: miter"/>
    </g>
    <g clip-path="url(#p80fa3dcd32)">
     <!-- positively -->
     <g transform="translate(494.439062 177.160469)scale(0.1 -0.1)">
      <defs>
       <path id="DejaVuSans-70" d="M 1159 525 
L 1159 -1331 
L 581 -1331 
L 581 3500 
L 1159 3500 
L 1159 2969 
Q 1341 3281 1617 3432 
Q 1894 3584 2278 3584 
Q 2916 3584 3314 3078 
Q 3713 2572 3713 1747 
Q 3713 922 3314 415 
Q 2916 -91 2278 -91 
Q 1894 -91 1617 61 
Q 1341 213 1159 525 
z
M 3116 1747 
Q 3116 2381 2855 2742 
Q 2594 3103 2138 3103 
Q 1681 3103 1420 2742 
Q 1159 2381 1159 1747 
Q 1159 1113 1420 752 
Q 1681 391 2138 391 
Q 2594 391 2855 752 
Q 3116 1113 3116 1747 
z
" transform="scale(0.015625)"/>
       <path id="DejaVuSans-6c" d="M 603 4863 
L 1178 4863 
L 1178 0 
L 603 0 
L 603 4863 
z
" transform="scale(0.015625)"/>
      </defs>
      <use xlink:href="#DejaVuSans-70"/>
      <use xlink:href="#DejaVuSans-6f" x="63.476562"/>
      <use xlink:href="#DejaVuSans-73" x="124.658203"/>
      <use xlink:href="#DejaVuSans-69" x="176.757812"/>
      <use xlink:href="#DejaVuSans-74" x="204.541016"/>
      <use xlink:href="#DejaVuSans-69" x="243.75"/>
      <use xlink:href="#DejaVuSans-76" x="271.533203"/>
      <use xlink:href="#DejaVuSans-65" x="330.712891"/>
      <use xlink:href="#DejaVuSans-6c" x="392.236328"/>
      <use xlink:href="#DejaVuSans-79" x="420.019531"/>
     </g>
    </g>
    <g clip-path="url(#p80fa3dcd32)">
     <!-- correlated with -->
     <g transform="translate(480.74375 188.358281)scale(0.1 -0.1)">
      <defs>
       <path id="DejaVuSans-77" d="M 269 3500 
L 844 3500 
L 1563 769 
L 2278 3500 
L 2956 3500 
L 3675 769 
L 4391 3500 
L 4966 3500 
L 4050 0 
L 3372 0 
L 2619 2869 
L 1863 0 
L 1184 0 
L 269 3500 
z
" transform="scale(0.015625)"/>
       <path id="DejaVuSans-68" d="M 3513 2113 
L 3513 0 
L 2938 0 
L 2938 2094 
Q 2938 2591 2744 2837 
Q 2550 3084 2163 3084 
Q 1697 3084 1428 2787 
Q 1159 2491 1159 1978 
L 1159 0 
L 581 0 
L 581 4863 
L 1159 4863 
L 1159 2956 
Q 1366 3272 1645 3428 
Q 1925 3584 2291 3584 
Q 2894 3584 3203 3211 
Q 3513 2838 3513 2113 
z
" transform="scale(0.015625)"/>
      </defs>
      <use xlink:href="#DejaVuSans-63"/>
      <use xlink:href="#DejaVuSans-6f" x="54.980469"/>
      <use xlink:href="#DejaVuSans-72" x="116.162109"/>
      <use xlink:href="#DejaVuSans-72" x="155.525391"/>
      <use xlink:href="#DejaVuSans-65" x="194.388672"/>
      <use xlink:href="#DejaVuSans-6c" x="255.912109"/>
      <use xlink:href="#DejaVuSans-61" x="283.695312"/>
      <use xlink:href="#DejaVuSans-74" x="344.974609"/>
      <use xlink:href="#DejaVuSans-65" x="384.183594"/>
      <use xlink:href="#DejaVuSans-64" x="445.707031"/>
      <use xlink:href="#DejaVuSans-20" x="509.183594"/>
      <use xlink:href="#DejaVuSans-77" x="540.970703"/>
      <use xlink:href="#DejaVuSans-69" x="622.757812"/>
      <use xlink:href="#DejaVuSans-74" x="650.541016"/>
      <use xlink:href="#DejaVuSans-68" x="689.75"/>
     </g>
    </g>
   </g>
   <g id="text_3">
    <g id="patch_7">
     <path d="M 766.363585 193.437969 
L 841.676085 193.437969 
Q 844.676085 193.437969 844.676085 190.437969 
L 844.676085 169.562031 
Q 844.676085 166.562031 841.676085 166.562031 
L 766.363585 166.562031 
Q 763.363585 166.562031 763.363585 169.562031 
L 763.363585 190.437969 
Q 763.363585 193.437969 766.363585 193.437969 
z
" clip-path="url(#p80fa3dcd32)" style="fill: #ffffff; stroke: #ffffff; stroke-linejoin: miter"/>
    </g>
    <g clip-path="url(#p80fa3dcd32)">
     <!-- positively -->
     <g transform="translate(780.058897 177.160469)scale(0.1 -0.1)">
      <use xlink:href="#DejaVuSans-70"/>
      <use xlink:href="#DejaVuSans-6f" x="63.476562"/>
      <use xlink:href="#DejaVuSans-73" x="124.658203"/>
      <use xlink:href="#DejaVuSans-69" x="176.757812"/>
      <use xlink:href="#DejaVuSans-74" x="204.541016"/>
      <use xlink:href="#DejaVuSans-69" x="243.75"/>
      <use xlink:href="#DejaVuSans-76" x="271.533203"/>
      <use xlink:href="#DejaVuSans-65" x="330.712891"/>
      <use xlink:href="#DejaVuSans-6c" x="392.236328"/>
      <use xlink:href="#DejaVuSans-79" x="420.019531"/>
     </g>
    </g>
    <g clip-path="url(#p80fa3dcd32)">
     <!-- correlated with -->
     <g transform="translate(766.363585 188.358281)scale(0.1 -0.1)">
      <use xlink:href="#DejaVuSans-63"/>
      <use xlink:href="#DejaVuSans-6f" x="54.980469"/>
      <use xlink:href="#DejaVuSans-72" x="116.162109"/>
      <use xlink:href="#DejaVuSans-72" x="155.525391"/>
      <use xlink:href="#DejaVuSans-65" x="194.388672"/>
      <use xlink:href="#DejaVuSans-6c" x="255.912109"/>
      <use xlink:href="#DejaVuSans-61" x="283.695312"/>
      <use xlink:href="#DejaVuSans-74" x="344.974609"/>
      <use xlink:href="#DejaVuSans-65" x="384.183594"/>
      <use xlink:href="#DejaVuSans-64" x="445.707031"/>
      <use xlink:href="#DejaVuSans-20" x="509.183594"/>
      <use xlink:href="#DejaVuSans-77" x="540.970703"/>
      <use xlink:href="#DejaVuSans-69" x="622.757812"/>
      <use xlink:href="#DejaVuSans-74" x="650.541016"/>
      <use xlink:href="#DejaVuSans-68" x="689.75"/>
     </g>
    </g>
   </g>
   <g id="PathCollection_1">
    <defs>
     <path id="C0_0_0ebb98a12c" d="M 0 52.440442 
C 13.907368 52.440442 27.246998 46.914987 37.080992 37.080992 
C 46.914987 27.246998 52.440442 13.907368 52.440442 -0 
C 52.440442 -13.907368 46.914987 -27.246998 37.080992 -37.080992 
C 27.246998 -46.914987 13.907368 -52.440442 0 -52.440442 
C -13.907368 -52.440442 -27.246998 -46.914987 -37.080992 -37.080992 
C -46.914987 -27.246998 -52.440442 -13.907368 -52.440442 0 
C -52.440442 13.907368 -46.914987 27.246998 -37.080992 37.080992 
C -27.246998 46.914987 -13.907368 52.440442 0 52.440442 
z
"/>
    </defs>
    <g clip-path="url(#p80fa3dcd32)">
     <use xlink:href="#C0_0_0ebb98a12c" x="89.970248" y="180" style="fill: #01c472; stroke: #01c472"/>
    </g>
    <g clip-path="url(#p80fa3dcd32)">
     <use xlink:href="#C0_0_0ebb98a12c" x="375.590083" y="180" style="fill: #e71761; stroke: #e71761"/>
    </g>
    <g clip-path="url(#p80fa3dcd32)">
     <use xlink:href="#C0_0_0ebb98a12c" x="661.209917" y="180" style="fill: #01c472; stroke: #01c472"/>
    </g>
    <g clip-path="url(#p80fa3dcd32)">
     <use xlink:href="#C0_0_0ebb98a12c" x="946.829752" y="180" style="fill: #70c6ca; stroke: #70c6ca"/>
    </g>
   </g>
   <g id="text_4">
    <path d="M 332.952583 155.379562 
L 332.952583 162.182062 
L 334.383208 162.182062 
Q 336.194458 162.182062 337.034458 161.362687 
Q 337.874458 160.541437 337.874458 158.771437 
Q 337.874458 157.014562 337.034458 156.197062 
Q 336.194458 155.379562 334.383208 155.379562 
L 332.952583 155.379562 
z
M 331.769458 154.406437 
L 334.201333 154.406437 
Q 336.743833 154.406437 337.932583 155.463937 
Q 339.123208 156.521437 339.123208 158.771437 
Q 339.123208 161.034562 337.926958 162.095812 
Q 336.732583 163.155187 334.201333 163.155187 
L 331.769458 163.155187 
L 331.769458 154.406437 
z
M 343.552192 154.050187 
Q 342.768442 155.396437 342.385942 156.716437 
Q 342.005317 158.034562 342.005317 159.388312 
Q 342.005317 160.740187 342.389692 162.067687 
Q 342.774067 163.395187 343.552192 164.737687 
L 342.614692 164.737687 
Q 341.737192 163.359562 341.300317 162.030187 
Q 340.863442 160.700812 340.863442 159.388312 
Q 340.863442 158.081437 341.296567 156.757687 
Q 341.731567 155.432062 342.614692 154.050187 
L 343.552192 154.050187 
z
M 346.816333 162.159562 
L 350.946958 162.159562 
L 350.946958 163.155187 
L 345.393208 163.155187 
L 345.393208 162.159562 
Q 346.066333 161.462062 347.228833 160.288312 
Q 348.393208 159.112687 348.691333 158.771437 
Q 349.259458 158.133937 349.484458 157.691437 
Q 349.711333 157.248937 349.711333 156.821437 
Q 349.711333 156.123937 349.221958 155.685187 
Q 348.732583 155.244562 347.946958 155.244562 
Q 347.390083 155.244562 346.771333 155.437687 
Q 346.154458 155.630812 345.451333 156.024562 
L 345.451333 154.828312 
Q 346.165708 154.541437 346.786333 154.395187 
Q 347.408833 154.248937 347.924458 154.248937 
Q 349.283833 154.248937 350.091958 154.929562 
Q 350.900083 155.608312 350.900083 156.744562 
Q 350.900083 157.284562 350.697583 157.768312 
Q 350.496958 158.250187 349.962583 158.906437 
Q 349.816333 159.077062 349.030708 159.888937 
Q 348.246958 160.700812 346.816333 162.159562 
z
M 353.110473 154.050187 
L 354.047973 154.050187 
Q 354.925473 155.432062 355.362348 156.757687 
Q 355.799223 158.081437 355.799223 159.388312 
Q 355.799223 160.700812 355.362348 162.030187 
Q 354.925473 163.359562 354.047973 164.737687 
L 353.110473 164.737687 
Q 353.888598 163.395187 354.272973 162.067687 
Q 354.657348 160.740187 354.657348 159.388312 
Q 354.657348 158.034562 354.272973 156.716437 
Q 353.888598 155.396437 353.110473 154.050187 
z
M 366.093442 157.588312 
L 366.093442 154.037062 
L 367.171567 154.037062 
L 367.171567 163.155187 
L 366.093442 163.155187 
L 366.093442 162.170812 
Q 365.754067 162.755812 365.234692 163.040812 
Q 364.717192 163.325812 363.989692 163.325812 
Q 362.800942 163.325812 362.052817 162.377062 
Q 361.306567 161.426437 361.306567 159.879562 
Q 361.306567 158.332687 362.052817 157.383937 
Q 362.800942 156.435187 363.989692 156.435187 
Q 364.717192 156.435187 365.234692 156.720187 
Q 365.754067 157.003312 366.093442 157.588312 
z
M 362.420317 159.879562 
Q 362.420317 161.068312 362.909692 161.745187 
Q 363.399067 162.422062 364.254067 162.422062 
Q 365.109067 162.422062 365.600317 161.745187 
Q 366.093442 161.068312 366.093442 159.879562 
Q 366.093442 158.690812 365.600317 158.013937 
Q 365.109067 157.337062 364.254067 157.337062 
Q 363.399067 157.337062 362.909692 158.013937 
Q 362.420317 158.690812 362.420317 159.879562 
z
M 371.935005 157.348312 
Q 371.068755 157.348312 370.56438 158.025187 
Q 370.060005 158.702062 370.060005 159.879562 
Q 370.060005 161.057062 370.56063 161.733937 
Q 371.06313 162.410812 371.935005 162.410812 
Q 372.797505 162.410812 373.300005 161.732062 
Q 373.80438 161.051437 373.80438 159.879562 
Q 373.80438 158.713312 373.300005 158.030812 
Q 372.797505 157.348312 371.935005 157.348312 
z
M 371.935005 156.435187 
Q 373.341255 156.435187 374.143755 157.350187 
Q 374.94813 158.263312 374.94813 159.879562 
Q 374.94813 161.490187 374.143755 162.408937 
Q 373.341255 163.325812 371.935005 163.325812 
Q 370.52313 163.325812 369.722505 162.408937 
Q 368.923755 161.490187 368.923755 159.879562 
Q 368.923755 158.263312 369.722505 157.350187 
Q 370.52313 156.435187 371.935005 156.435187 
z
M 377.776801 162.170812 
L 377.776801 165.650812 
L 376.693051 165.650812 
L 376.693051 156.592687 
L 377.776801 156.592687 
L 377.776801 157.588312 
Q 378.118051 157.003312 378.635551 156.720187 
Q 379.154926 156.435187 379.874926 156.435187 
Q 381.071176 156.435187 381.817426 157.383937 
Q 382.565551 158.332687 382.565551 159.879562 
Q 382.565551 161.426437 381.817426 162.377062 
Q 381.071176 163.325812 379.874926 163.325812 
Q 379.154926 163.325812 378.635551 163.040812 
Q 378.118051 162.755812 377.776801 162.170812 
z
M 381.446176 159.879562 
Q 381.446176 158.690812 380.956801 158.013937 
Q 380.467426 157.337062 379.612426 157.337062 
Q 378.755551 157.337062 378.266176 158.013937 
Q 377.776801 158.690812 377.776801 159.879562 
Q 377.776801 161.068312 378.266176 161.745187 
Q 378.755551 162.422062 379.612426 162.422062 
Q 380.467426 162.422062 380.956801 161.745187 
Q 381.446176 161.068312 381.446176 159.879562 
z
M 387.334614 159.857062 
Q 386.027739 159.857062 385.523364 160.155187 
Q 385.018989 160.453312 385.018989 161.175187 
Q 385.018989 161.748937 385.397739 162.086437 
Q 385.776489 162.422062 386.425239 162.422062 
Q 387.323364 162.422062 387.865239 161.786437 
Q 388.407114 161.150812 388.407114 160.097062 
L 388.407114 159.857062 
L 387.334614 159.857062 
z
M 389.485239 159.410812 
L 389.485239 163.155187 
L 388.407114 163.155187 
L 388.407114 162.159562 
Q 388.037739 162.755812 387.486489 163.040812 
Q 386.935239 163.325812 386.138364 163.325812 
Q 385.131489 163.325812 384.535239 162.759562 
Q 383.940864 162.193312 383.940864 161.244562 
Q 383.940864 160.138312 384.681489 159.575812 
Q 385.423989 159.013312 386.893989 159.013312 
L 388.407114 159.013312 
L 388.407114 158.906437 
Q 388.407114 158.162062 387.917739 157.755187 
Q 387.428364 157.348312 386.543364 157.348312 
Q 385.980864 157.348312 385.446489 157.483312 
Q 384.913989 157.618312 384.422739 157.888312 
L 384.422739 156.890812 
Q 385.013364 156.662062 385.570239 156.549562 
Q 386.127114 156.435187 386.653989 156.435187 
Q 388.078989 156.435187 388.782114 157.173937 
Q 389.485239 157.910812 389.485239 159.410812 
z
M 396.81438 157.852687 
Q 397.21938 157.125187 397.78188 156.780187 
Q 398.34438 156.435187 399.10563 156.435187 
Q 400.131255 156.435187 400.68813 157.153312 
Q 401.245005 157.869562 401.245005 159.193312 
L 401.245005 163.155187 
L 400.161255 163.155187 
L 400.161255 159.228937 
Q 400.161255 158.285812 399.82563 157.830187 
Q 399.49188 157.372687 398.807505 157.372687 
Q 397.96938 157.372687 397.48188 157.929562 
Q 396.996255 158.484562 396.996255 159.446437 
L 396.996255 163.155187 
L 395.912505 163.155187 
L 395.912505 159.228937 
Q 395.912505 158.280187 395.578755 157.826437 
Q 395.245005 157.372687 394.547505 157.372687 
Q 393.72063 157.372687 393.23313 157.931437 
Q 392.747505 158.490187 392.747505 159.446437 
L 392.747505 163.155187 
L 391.663755 163.155187 
L 391.663755 156.592687 
L 392.747505 156.592687 
L 392.747505 157.612687 
Q 393.11688 157.008937 393.632505 156.722062 
Q 394.14813 156.435187 394.85688 156.435187 
Q 395.57313 156.435187 396.073755 156.798937 
Q 396.57438 157.160812 396.81438 157.852687 
z
M 403.394458 156.592687 
L 404.472583 156.592687 
L 404.472583 163.155187 
L 403.394458 163.155187 
L 403.394458 156.592687 
z
M 403.394458 154.037062 
L 404.472583 154.037062 
L 404.472583 155.403937 
L 403.394458 155.403937 
L 403.394458 154.037062 
z
M 412.184692 159.193312 
L 412.184692 163.155187 
L 411.106567 163.155187 
L 411.106567 159.228937 
Q 411.106567 158.297062 410.742817 157.835812 
Q 410.379067 157.372687 409.653442 157.372687 
Q 408.779692 157.372687 408.275317 157.929562 
Q 407.770942 158.484562 407.770942 159.446437 
L 407.770942 163.155187 
L 406.687192 163.155187 
L 406.687192 156.592687 
L 407.770942 156.592687 
L 407.770942 157.612687 
Q 408.159067 157.020187 408.682192 156.727687 
Q 409.207192 156.435187 409.893442 156.435187 
Q 411.024067 156.435187 411.603442 157.134562 
Q 412.184692 157.833937 412.184692 159.193312 
z
M 419.947661 159.603937 
L 419.947661 160.130812 
L 414.990161 160.130812 
Q 415.061411 161.244562 415.661411 161.827687 
Q 416.261411 162.410812 417.333911 162.410812 
Q 417.954536 162.410812 418.537661 162.258937 
Q 419.120786 162.107062 419.696411 161.801437 
L 419.696411 162.821437 
Q 419.115161 163.067062 418.505786 163.196437 
Q 417.896411 163.325812 417.270161 163.325812 
Q 415.698911 163.325812 414.782036 162.412687 
Q 413.865161 161.497687 413.865161 159.937687 
Q 413.865161 158.327062 414.735161 157.382062 
Q 415.605161 156.435187 417.082661 156.435187 
Q 418.406411 156.435187 419.177036 157.288312 
Q 419.947661 158.139562 419.947661 159.603937 
z
M 418.869536 159.287062 
Q 418.858286 158.403937 418.374536 157.877062 
Q 417.890786 157.348312 417.093911 157.348312 
Q 416.192036 157.348312 415.650161 157.858312 
Q 415.108286 158.368312 415.025786 159.294562 
L 418.869536 159.287062 
z
" clip-path="url(#p80fa3dcd32)" style="fill: #ffffff; stroke: #000000; stroke-width: 2"/>
    <path d="M 332.952583 155.379562 
L 332.952583 162.182062 
L 334.383208 162.182062 
Q 336.194458 162.182062 337.034458 161.362687 
Q 337.874458 160.541437 337.874458 158.771437 
Q 337.874458 157.014562 337.034458 156.197062 
Q 336.194458 155.379562 334.383208 155.379562 
L 332.952583 155.379562 
z
M 331.769458 154.406437 
L 334.201333 154.406437 
Q 336.743833 154.406437 337.932583 155.463937 
Q 339.123208 156.521437 339.123208 158.771437 
Q 339.123208 161.034562 337.926958 162.095812 
Q 336.732583 163.155187 334.201333 163.155187 
L 331.769458 163.155187 
L 331.769458 154.406437 
z
M 343.552192 154.050187 
Q 342.768442 155.396437 342.385942 156.716437 
Q 342.005317 158.034562 342.005317 159.388312 
Q 342.005317 160.740187 342.389692 162.067687 
Q 342.774067 163.395187 343.552192 164.737687 
L 342.614692 164.737687 
Q 341.737192 163.359562 341.300317 162.030187 
Q 340.863442 160.700812 340.863442 159.388312 
Q 340.863442 158.081437 341.296567 156.757687 
Q 341.731567 155.432062 342.614692 154.050187 
L 343.552192 154.050187 
z
M 346.816333 162.159562 
L 350.946958 162.159562 
L 350.946958 163.155187 
L 345.393208 163.155187 
L 345.393208 162.159562 
Q 346.066333 161.462062 347.228833 160.288312 
Q 348.393208 159.112687 348.691333 158.771437 
Q 349.259458 158.133937 349.484458 157.691437 
Q 349.711333 157.248937 349.711333 156.821437 
Q 349.711333 156.123937 349.221958 155.685187 
Q 348.732583 155.244562 347.946958 155.244562 
Q 347.390083 155.244562 346.771333 155.437687 
Q 346.154458 155.630812 345.451333 156.024562 
L 345.451333 154.828312 
Q 346.165708 154.541437 346.786333 154.395187 
Q 347.408833 154.248937 347.924458 154.248937 
Q 349.283833 154.248937 350.091958 154.929562 
Q 350.900083 155.608312 350.900083 156.744562 
Q 350.900083 157.284562 350.697583 157.768312 
Q 350.496958 158.250187 349.962583 158.906437 
Q 349.816333 159.077062 349.030708 159.888937 
Q 348.246958 160.700812 346.816333 162.159562 
z
M 353.110473 154.050187 
L 354.047973 154.050187 
Q 354.925473 155.432062 355.362348 156.757687 
Q 355.799223 158.081437 355.799223 159.388312 
Q 355.799223 160.700812 355.362348 162.030187 
Q 354.925473 163.359562 354.047973 164.737687 
L 353.110473 164.737687 
Q 353.888598 163.395187 354.272973 162.067687 
Q 354.657348 160.740187 354.657348 159.388312 
Q 354.657348 158.034562 354.272973 156.716437 
Q 353.888598 155.396437 353.110473 154.050187 
z
M 366.093442 157.588312 
L 366.093442 154.037062 
L 367.171567 154.037062 
L 367.171567 163.155187 
L 366.093442 163.155187 
L 366.093442 162.170812 
Q 365.754067 162.755812 365.234692 163.040812 
Q 364.717192 163.325812 363.989692 163.325812 
Q 362.800942 163.325812 362.052817 162.377062 
Q 361.306567 161.426437 361.306567 159.879562 
Q 361.306567 158.332687 362.052817 157.383937 
Q 362.800942 156.435187 363.989692 156.435187 
Q 364.717192 156.435187 365.234692 156.720187 
Q 365.754067 157.003312 366.093442 157.588312 
z
M 362.420317 159.879562 
Q 362.420317 161.068312 362.909692 161.745187 
Q 363.399067 162.422062 364.254067 162.422062 
Q 365.109067 162.422062 365.600317 161.745187 
Q 366.093442 161.068312 366.093442 159.879562 
Q 366.093442 158.690812 365.600317 158.013937 
Q 365.109067 157.337062 364.254067 157.337062 
Q 363.399067 157.337062 362.909692 158.013937 
Q 362.420317 158.690812 362.420317 159.879562 
z
M 371.935005 157.348312 
Q 371.068755 157.348312 370.56438 158.025187 
Q 370.060005 158.702062 370.060005 159.879562 
Q 370.060005 161.057062 370.56063 161.733937 
Q 371.06313 162.410812 371.935005 162.410812 
Q 372.797505 162.410812 373.300005 161.732062 
Q 373.80438 161.051437 373.80438 159.879562 
Q 373.80438 158.713312 373.300005 158.030812 
Q 372.797505 157.348312 371.935005 157.348312 
z
M 371.935005 156.435187 
Q 373.341255 156.435187 374.143755 157.350187 
Q 374.94813 158.263312 374.94813 159.879562 
Q 374.94813 161.490187 374.143755 162.408937 
Q 373.341255 163.325812 371.935005 163.325812 
Q 370.52313 163.325812 369.722505 162.408937 
Q 368.923755 161.490187 368.923755 159.879562 
Q 368.923755 158.263312 369.722505 157.350187 
Q 370.52313 156.435187 371.935005 156.435187 
z
M 377.776801 162.170812 
L 377.776801 165.650812 
L 376.693051 165.650812 
L 376.693051 156.592687 
L 377.776801 156.592687 
L 377.776801 157.588312 
Q 378.118051 157.003312 378.635551 156.720187 
Q 379.154926 156.435187 379.874926 156.435187 
Q 381.071176 156.435187 381.817426 157.383937 
Q 382.565551 158.332687 382.565551 159.879562 
Q 382.565551 161.426437 381.817426 162.377062 
Q 381.071176 163.325812 379.874926 163.325812 
Q 379.154926 163.325812 378.635551 163.040812 
Q 378.118051 162.755812 377.776801 162.170812 
z
M 381.446176 159.879562 
Q 381.446176 158.690812 380.956801 158.013937 
Q 380.467426 157.337062 379.612426 157.337062 
Q 378.755551 157.337062 378.266176 158.013937 
Q 377.776801 158.690812 377.776801 159.879562 
Q 377.776801 161.068312 378.266176 161.745187 
Q 378.755551 162.422062 379.612426 162.422062 
Q 380.467426 162.422062 380.956801 161.745187 
Q 381.446176 161.068312 381.446176 159.879562 
z
M 387.334614 159.857062 
Q 386.027739 159.857062 385.523364 160.155187 
Q 385.018989 160.453312 385.018989 161.175187 
Q 385.018989 161.748937 385.397739 162.086437 
Q 385.776489 162.422062 386.425239 162.422062 
Q 387.323364 162.422062 387.865239 161.786437 
Q 388.407114 161.150812 388.407114 160.097062 
L 388.407114 159.857062 
L 387.334614 159.857062 
z
M 389.485239 159.410812 
L 389.485239 163.155187 
L 388.407114 163.155187 
L 388.407114 162.159562 
Q 388.037739 162.755812 387.486489 163.040812 
Q 386.935239 163.325812 386.138364 163.325812 
Q 385.131489 163.325812 384.535239 162.759562 
Q 383.940864 162.193312 383.940864 161.244562 
Q 383.940864 160.138312 384.681489 159.575812 
Q 385.423989 159.013312 386.893989 159.013312 
L 388.407114 159.013312 
L 388.407114 158.906437 
Q 388.407114 158.162062 387.917739 157.755187 
Q 387.428364 157.348312 386.543364 157.348312 
Q 385.980864 157.348312 385.446489 157.483312 
Q 384.913989 157.618312 384.422739 157.888312 
L 384.422739 156.890812 
Q 385.013364 156.662062 385.570239 156.549562 
Q 386.127114 156.435187 386.653989 156.435187 
Q 388.078989 156.435187 388.782114 157.173937 
Q 389.485239 157.910812 389.485239 159.410812 
z
M 396.81438 157.852687 
Q 397.21938 157.125187 397.78188 156.780187 
Q 398.34438 156.435187 399.10563 156.435187 
Q 400.131255 156.435187 400.68813 157.153312 
Q 401.245005 157.869562 401.245005 159.193312 
L 401.245005 163.155187 
L 400.161255 163.155187 
L 400.161255 159.228937 
Q 400.161255 158.285812 399.82563 157.830187 
Q 399.49188 157.372687 398.807505 157.372687 
Q 397.96938 157.372687 397.48188 157.929562 
Q 396.996255 158.484562 396.996255 159.446437 
L 396.996255 163.155187 
L 395.912505 163.155187 
L 395.912505 159.228937 
Q 395.912505 158.280187 395.578755 157.826437 
Q 395.245005 157.372687 394.547505 157.372687 
Q 393.72063 157.372687 393.23313 157.931437 
Q 392.747505 158.490187 392.747505 159.446437 
L 392.747505 163.155187 
L 391.663755 163.155187 
L 391.663755 156.592687 
L 392.747505 156.592687 
L 392.747505 157.612687 
Q 393.11688 157.008937 393.632505 156.722062 
Q 394.14813 156.435187 394.85688 156.435187 
Q 395.57313 156.435187 396.073755 156.798937 
Q 396.57438 157.160812 396.81438 157.852687 
z
M 403.394458 156.592687 
L 404.472583 156.592687 
L 404.472583 163.155187 
L 403.394458 163.155187 
L 403.394458 156.592687 
z
M 403.394458 154.037062 
L 404.472583 154.037062 
L 404.472583 155.403937 
L 403.394458 155.403937 
L 403.394458 154.037062 
z
M 412.184692 159.193312 
L 412.184692 163.155187 
L 411.106567 163.155187 
L 411.106567 159.228937 
Q 411.106567 158.297062 410.742817 157.835812 
Q 410.379067 157.372687 409.653442 157.372687 
Q 408.779692 157.372687 408.275317 157.929562 
Q 407.770942 158.484562 407.770942 159.446437 
L 407.770942 163.155187 
L 406.687192 163.155187 
L 406.687192 156.592687 
L 407.770942 156.592687 
L 407.770942 157.612687 
Q 408.159067 157.020187 408.682192 156.727687 
Q 409.207192 156.435187 409.893442 156.435187 
Q 411.024067 156.435187 411.603442 157.134562 
Q 412.184692 157.833937 412.184692 159.193312 
z
M 419.947661 159.603937 
L 419.947661 160.130812 
L 414.990161 160.130812 
Q 415.061411 161.244562 415.661411 161.827687 
Q 416.261411 162.410812 417.333911 162.410812 
Q 417.954536 162.410812 418.537661 162.258937 
Q 419.120786 162.107062 419.696411 161.801437 
L 419.696411 162.821437 
Q 419.115161 163.067062 418.505786 163.196437 
Q 417.896411 163.325812 417.270161 163.325812 
Q 415.698911 163.325812 414.782036 162.412687 
Q 413.865161 161.497687 413.865161 159.937687 
Q 413.865161 158.327062 414.735161 157.382062 
Q 415.605161 156.435187 417.082661 156.435187 
Q 418.406411 156.435187 419.177036 157.288312 
Q 419.947661 158.139562 419.947661 159.603937 
z
M 418.869536 159.287062 
Q 418.858286 158.403937 418.374536 157.877062 
Q 417.890786 157.348312 417.093911 157.348312 
Q 416.192036 157.348312 415.650161 157.858312 
Q 415.108286 158.368312 415.025786 159.294562 
L 418.869536 159.287062 
z
" clip-path="url(#p80fa3dcd32)" style="fill: #ffffff"/>
    <path d="M 355.20977 171.036937 
Q 355.027895 170.931937 354.814145 170.883187 
Q 354.600395 170.832562 354.34352 170.832562 
Q 353.42852 170.832562 352.939145 171.426937 
Q 352.44977 172.021312 352.44977 173.135062 
L 352.44977 176.592562 
L 351.36602 176.592562 
L 351.36602 170.030062 
L 352.44977 170.030062 
L 352.44977 171.050062 
Q 352.79102 170.451937 353.33477 170.163187 
Q 353.880395 169.872562 354.660395 169.872562 
Q 354.77102 169.872562 354.90602 169.887562 
Q 355.04102 169.900687 355.204145 169.930687 
L 355.20977 171.036937 
z
M 361.684614 173.041312 
L 361.684614 173.568187 
L 356.727114 173.568187 
Q 356.798364 174.681937 357.398364 175.265062 
Q 357.998364 175.848187 359.070864 175.848187 
Q 359.691489 175.848187 360.274614 175.696312 
Q 360.857739 175.544437 361.433364 175.238812 
L 361.433364 176.258812 
Q 360.852114 176.504437 360.242739 176.633812 
Q 359.633364 176.763187 359.007114 176.763187 
Q 357.435864 176.763187 356.518989 175.850062 
Q 355.602114 174.935062 355.602114 173.375062 
Q 355.602114 171.764437 356.472114 170.819437 
Q 357.342114 169.872562 358.819614 169.872562 
Q 360.143364 169.872562 360.913989 170.725687 
Q 361.684614 171.576937 361.684614 173.041312 
z
M 360.606489 172.724437 
Q 360.595239 171.841312 360.111489 171.314437 
Q 359.627739 170.785687 358.830864 170.785687 
Q 357.928989 170.785687 357.387114 171.295687 
Q 356.845239 171.805687 356.762739 172.731937 
L 360.606489 172.724437 
z
M 368.176801 170.281312 
L 368.176801 171.290062 
Q 367.719301 171.036937 367.259926 170.911312 
Q 366.800551 170.785687 366.331801 170.785687 
Q 365.281801 170.785687 364.700551 171.451312 
Q 364.121176 172.115062 364.121176 173.316937 
Q 364.121176 174.518812 364.700551 175.184437 
Q 365.281801 175.848187 366.331801 175.848187 
Q 366.800551 175.848187 367.259926 175.722562 
Q 367.719301 175.596937 368.176801 175.343812 
L 368.176801 176.341312 
Q 367.724926 176.551312 367.241176 176.656312 
Q 366.759301 176.763187 366.213676 176.763187 
Q 364.730551 176.763187 363.856801 175.831312 
Q 362.984926 174.899437 362.984926 173.316937 
Q 362.984926 171.711937 363.866176 170.793187 
Q 364.749301 169.872562 366.284926 169.872562 
Q 366.781801 169.872562 367.256176 169.975687 
Q 367.730551 170.076937 368.176801 170.281312 
z
M 375.665083 173.041312 
L 375.665083 173.568187 
L 370.707583 173.568187 
Q 370.778833 174.681937 371.378833 175.265062 
Q 371.978833 175.848187 373.051333 175.848187 
Q 373.671958 175.848187 374.255083 175.696312 
Q 374.838208 175.544437 375.413833 175.238812 
L 375.413833 176.258812 
Q 374.832583 176.504437 374.223208 176.633812 
Q 373.613833 176.763187 372.987583 176.763187 
Q 371.416333 176.763187 370.499458 175.850062 
Q 369.582583 174.935062 369.582583 173.375062 
Q 369.582583 171.764437 370.452583 170.819437 
Q 371.322583 169.872562 372.800083 169.872562 
Q 374.123833 169.872562 374.894458 170.725687 
Q 375.665083 171.576937 375.665083 173.041312 
z
M 374.586958 172.724437 
Q 374.575708 171.841312 374.091958 171.314437 
Q 373.608208 170.785687 372.811333 170.785687 
Q 371.909458 170.785687 371.367583 171.295687 
Q 370.825708 171.805687 370.743208 172.731937 
L 374.586958 172.724437 
z
M 378.476645 175.608187 
L 378.476645 179.088187 
L 377.392895 179.088187 
L 377.392895 170.030062 
L 378.476645 170.030062 
L 378.476645 171.025687 
Q 378.817895 170.440687 379.335395 170.157562 
Q 379.85477 169.872562 380.57477 169.872562 
Q 381.77102 169.872562 382.51727 170.821312 
Q 383.265395 171.770062 383.265395 173.316937 
Q 383.265395 174.863812 382.51727 175.814437 
Q 381.77102 176.763187 380.57477 176.763187 
Q 379.85477 176.763187 379.335395 176.478187 
Q 378.817895 176.193187 378.476645 175.608187 
z
M 382.14602 173.316937 
Q 382.14602 172.128187 381.656645 171.451312 
Q 381.16727 170.774437 380.31227 170.774437 
Q 379.455395 170.774437 378.96602 171.451312 
Q 378.476645 172.128187 378.476645 173.316937 
Q 378.476645 174.505687 378.96602 175.182562 
Q 379.455395 175.859437 380.31227 175.859437 
Q 381.16727 175.859437 381.656645 175.182562 
Q 382.14602 174.505687 382.14602 173.316937 
z
M 386.118208 168.166312 
L 386.118208 170.030062 
L 388.338208 170.030062 
L 388.338208 170.868187 
L 386.118208 170.868187 
L 386.118208 174.430687 
Q 386.118208 175.233187 386.337583 175.461937 
Q 386.556958 175.690687 387.231958 175.690687 
L 388.338208 175.690687 
L 388.338208 176.592562 
L 387.231958 176.592562 
Q 385.983208 176.592562 385.508833 176.127562 
Q 385.034458 175.660687 385.034458 174.430687 
L 385.034458 170.868187 
L 384.243208 170.868187 
L 384.243208 170.030062 
L 385.034458 170.030062 
L 385.034458 168.166312 
L 386.118208 168.166312 
z
M 392.298911 170.785687 
Q 391.432661 170.785687 390.928286 171.462562 
Q 390.423911 172.139437 390.423911 173.316937 
Q 390.423911 174.494437 390.924536 175.171312 
Q 391.427036 175.848187 392.298911 175.848187 
Q 393.161411 175.848187 393.663911 175.169437 
Q 394.168286 174.488812 394.168286 173.316937 
Q 394.168286 172.150687 393.663911 171.468187 
Q 393.161411 170.785687 392.298911 170.785687 
z
M 392.298911 169.872562 
Q 393.705161 169.872562 394.507661 170.787562 
Q 395.312036 171.700687 395.312036 173.316937 
Q 395.312036 174.927562 394.507661 175.846312 
Q 393.705161 176.763187 392.298911 176.763187 
Q 390.887036 176.763187 390.086411 175.846312 
Q 389.287661 174.927562 389.287661 173.316937 
Q 389.287661 171.700687 390.086411 170.787562 
Q 390.887036 169.872562 392.298911 169.872562 
z
M 400.900708 171.036937 
Q 400.718833 170.931937 400.505083 170.883187 
Q 400.291333 170.832562 400.034458 170.832562 
Q 399.119458 170.832562 398.630083 171.426937 
Q 398.140708 172.021312 398.140708 173.135062 
L 398.140708 176.592562 
L 397.056958 176.592562 
L 397.056958 170.030062 
L 398.140708 170.030062 
L 398.140708 171.050062 
Q 398.481958 170.451937 399.025708 170.163187 
Q 399.571333 169.872562 400.351333 169.872562 
Q 400.461958 169.872562 400.596958 169.887562 
Q 400.731958 169.900687 400.895083 169.930687 
L 400.900708 171.036937 
z
" clip-path="url(#p80fa3dcd32)" style="fill: #ffffff; stroke: #000000; stroke-width: 2"/>
    <path d="M 355.20977 171.036937 
Q 355.027895 170.931937 354.814145 170.883187 
Q 354.600395 170.832562 354.34352 170.832562 
Q 353.42852 170.832562 352.939145 171.426937 
Q 352.44977 172.021312 352.44977 173.135062 
L 352.44977 176.592562 
L 351.36602 176.592562 
L 351.36602 170.030062 
L 352.44977 170.030062 
L 352.44977 171.050062 
Q 352.79102 170.451937 353.33477 170.163187 
Q 353.880395 169.872562 354.660395 169.872562 
Q 354.77102 169.872562 354.90602 169.887562 
Q 355.04102 169.900687 355.204145 169.930687 
L 355.20977 171.036937 
z
M 361.684614 173.041312 
L 361.684614 173.568187 
L 356.727114 173.568187 
Q 356.798364 174.681937 357.398364 175.265062 
Q 357.998364 175.848187 359.070864 175.848187 
Q 359.691489 175.848187 360.274614 175.696312 
Q 360.857739 175.544437 361.433364 175.238812 
L 361.433364 176.258812 
Q 360.852114 176.504437 360.242739 176.633812 
Q 359.633364 176.763187 359.007114 176.763187 
Q 357.435864 176.763187 356.518989 175.850062 
Q 355.602114 174.935062 355.602114 173.375062 
Q 355.602114 171.764437 356.472114 170.819437 
Q 357.342114 169.872562 358.819614 169.872562 
Q 360.143364 169.872562 360.913989 170.725687 
Q 361.684614 171.576937 361.684614 173.041312 
z
M 360.606489 172.724437 
Q 360.595239 171.841312 360.111489 171.314437 
Q 359.627739 170.785687 358.830864 170.785687 
Q 357.928989 170.785687 357.387114 171.295687 
Q 356.845239 171.805687 356.762739 172.731937 
L 360.606489 172.724437 
z
M 368.176801 170.281312 
L 368.176801 171.290062 
Q 367.719301 171.036937 367.259926 170.911312 
Q 366.800551 170.785687 366.331801 170.785687 
Q 365.281801 170.785687 364.700551 171.451312 
Q 364.121176 172.115062 364.121176 173.316937 
Q 364.121176 174.518812 364.700551 175.184437 
Q 365.281801 175.848187 366.331801 175.848187 
Q 366.800551 175.848187 367.259926 175.722562 
Q 367.719301 175.596937 368.176801 175.343812 
L 368.176801 176.341312 
Q 367.724926 176.551312 367.241176 176.656312 
Q 366.759301 176.763187 366.213676 176.763187 
Q 364.730551 176.763187 363.856801 175.831312 
Q 362.984926 174.899437 362.984926 173.316937 
Q 362.984926 171.711937 363.866176 170.793187 
Q 364.749301 169.872562 366.284926 169.872562 
Q 366.781801 169.872562 367.256176 169.975687 
Q 367.730551 170.076937 368.176801 170.281312 
z
M 375.665083 173.041312 
L 375.665083 173.568187 
L 370.707583 173.568187 
Q 370.778833 174.681937 371.378833 175.265062 
Q 371.978833 175.848187 373.051333 175.848187 
Q 373.671958 175.848187 374.255083 175.696312 
Q 374.838208 175.544437 375.413833 175.238812 
L 375.413833 176.258812 
Q 374.832583 176.504437 374.223208 176.633812 
Q 373.613833 176.763187 372.987583 176.763187 
Q 371.416333 176.763187 370.499458 175.850062 
Q 369.582583 174.935062 369.582583 173.375062 
Q 369.582583 171.764437 370.452583 170.819437 
Q 371.322583 169.872562 372.800083 169.872562 
Q 374.123833 169.872562 374.894458 170.725687 
Q 375.665083 171.576937 375.665083 173.041312 
z
M 374.586958 172.724437 
Q 374.575708 171.841312 374.091958 171.314437 
Q 373.608208 170.785687 372.811333 170.785687 
Q 371.909458 170.785687 371.367583 171.295687 
Q 370.825708 171.805687 370.743208 172.731937 
L 374.586958 172.724437 
z
M 378.476645 175.608187 
L 378.476645 179.088187 
L 377.392895 179.088187 
L 377.392895 170.030062 
L 378.476645 170.030062 
L 378.476645 171.025687 
Q 378.817895 170.440687 379.335395 170.157562 
Q 379.85477 169.872562 380.57477 169.872562 
Q 381.77102 169.872562 382.51727 170.821312 
Q 383.265395 171.770062 383.265395 173.316937 
Q 383.265395 174.863812 382.51727 175.814437 
Q 381.77102 176.763187 380.57477 176.763187 
Q 379.85477 176.763187 379.335395 176.478187 
Q 378.817895 176.193187 378.476645 175.608187 
z
M 382.14602 173.316937 
Q 382.14602 172.128187 381.656645 171.451312 
Q 381.16727 170.774437 380.31227 170.774437 
Q 379.455395 170.774437 378.96602 171.451312 
Q 378.476645 172.128187 378.476645 173.316937 
Q 378.476645 174.505687 378.96602 175.182562 
Q 379.455395 175.859437 380.31227 175.859437 
Q 381.16727 175.859437 381.656645 175.182562 
Q 382.14602 174.505687 382.14602 173.316937 
z
M 386.118208 168.166312 
L 386.118208 170.030062 
L 388.338208 170.030062 
L 388.338208 170.868187 
L 386.118208 170.868187 
L 386.118208 174.430687 
Q 386.118208 175.233187 386.337583 175.461937 
Q 386.556958 175.690687 387.231958 175.690687 
L 388.338208 175.690687 
L 388.338208 176.592562 
L 387.231958 176.592562 
Q 385.983208 176.592562 385.508833 176.127562 
Q 385.034458 175.660687 385.034458 174.430687 
L 385.034458 170.868187 
L 384.243208 170.868187 
L 384.243208 170.030062 
L 385.034458 170.030062 
L 385.034458 168.166312 
L 386.118208 168.166312 
z
M 392.298911 170.785687 
Q 391.432661 170.785687 390.928286 171.462562 
Q 390.423911 172.139437 390.423911 173.316937 
Q 390.423911 174.494437 390.924536 175.171312 
Q 391.427036 175.848187 392.298911 175.848187 
Q 393.161411 175.848187 393.663911 175.169437 
Q 394.168286 174.488812 394.168286 173.316937 
Q 394.168286 172.150687 393.663911 171.468187 
Q 393.161411 170.785687 392.298911 170.785687 
z
M 392.298911 169.872562 
Q 393.705161 169.872562 394.507661 170.787562 
Q 395.312036 171.700687 395.312036 173.316937 
Q 395.312036 174.927562 394.507661 175.846312 
Q 393.705161 176.763187 392.298911 176.763187 
Q 390.887036 176.763187 390.086411 175.846312 
Q 389.287661 174.927562 389.287661 173.316937 
Q 389.287661 171.700687 390.086411 170.787562 
Q 390.887036 169.872562 392.298911 169.872562 
z
M 400.900708 171.036937 
Q 400.718833 170.931937 400.505083 170.883187 
Q 400.291333 170.832562 400.034458 170.832562 
Q 399.119458 170.832562 398.630083 171.426937 
Q 398.140708 172.021312 398.140708 173.135062 
L 398.140708 176.592562 
L 397.056958 176.592562 
L 397.056958 170.030062 
L 398.140708 170.030062 
L 398.140708 171.050062 
Q 398.481958 170.451937 399.025708 170.163187 
Q 399.571333 169.872562 400.351333 169.872562 
Q 400.461958 169.872562 400.596958 169.887562 
Q 400.731958 169.900687 400.895083 169.930687 
L 400.900708 171.036937 
z
" clip-path="url(#p80fa3dcd32)" style="fill: #ffffff"/>
    <path d="M 330.177583 181.281187 
L 331.368208 181.281187 
L 331.368208 186.596812 
Q 331.368208 188.003062 331.876333 188.621812 
Q 332.386333 189.238687 333.530083 189.238687 
Q 334.666333 189.238687 335.176333 188.621812 
Q 335.686333 188.003062 335.686333 186.596812 
L 335.686333 181.281187 
L 336.875083 181.281187 
L 336.875083 186.743062 
Q 336.875083 188.453062 336.027583 189.326812 
Q 335.181958 190.200562 333.530083 190.200562 
Q 331.870708 190.200562 331.023208 189.326812 
Q 330.177583 188.453062 330.177583 186.743062 
L 330.177583 181.281187 
z
M 344.505161 186.068062 
L 344.505161 190.029937 
L 343.427036 190.029937 
L 343.427036 186.103687 
Q 343.427036 185.171812 343.063286 184.710562 
Q 342.699536 184.247437 341.973911 184.247437 
Q 341.100161 184.247437 340.595786 184.804312 
Q 340.091411 185.359312 340.091411 186.321187 
L 340.091411 190.029937 
L 339.007661 190.029937 
L 339.007661 183.467437 
L 340.091411 183.467437 
L 340.091411 184.487437 
Q 340.479536 183.894937 341.002661 183.602437 
Q 341.527661 183.309937 342.213911 183.309937 
Q 343.344536 183.309937 343.923911 184.009312 
Q 344.505161 184.708687 344.505161 186.068062 
z
M 346.65438 183.467437 
L 347.732505 183.467437 
L 347.732505 190.029937 
L 346.65438 190.029937 
L 346.65438 183.467437 
z
M 346.65438 180.911812 
L 347.732505 180.911812 
L 347.732505 182.278687 
L 346.65438 182.278687 
L 346.65438 180.911812 
z
M 351.218364 182.254312 
L 351.218364 185.541187 
L 352.707114 185.541187 
Q 353.533989 185.541187 353.983989 185.113687 
Q 354.435864 184.686187 354.435864 183.894937 
Q 354.435864 183.109312 353.983989 182.681812 
Q 353.533989 182.254312 352.707114 182.254312 
L 351.218364 182.254312 
z
M 350.035239 181.281187 
L 352.707114 181.281187 
Q 354.178989 181.281187 354.930864 181.946812 
Q 355.684614 182.612437 355.684614 183.894937 
Q 355.684614 185.190562 354.930864 185.852437 
Q 354.178989 186.514312 352.707114 186.514312 
L 351.218364 186.514312 
L 351.218364 190.029937 
L 350.035239 190.029937 
L 350.035239 181.281187 
z
M 360.817192 184.474312 
Q 360.635317 184.369312 360.421567 184.320562 
Q 360.207817 184.269937 359.950942 184.269937 
Q 359.035942 184.269937 358.546567 184.864312 
Q 358.057192 185.458687 358.057192 186.572437 
L 358.057192 190.029937 
L 356.973442 190.029937 
L 356.973442 183.467437 
L 358.057192 183.467437 
L 358.057192 184.487437 
Q 358.398442 183.889312 358.942192 183.600562 
Q 359.487817 183.309937 360.267817 183.309937 
Q 360.378442 183.309937 360.513442 183.324937 
Q 360.648442 183.338062 360.811567 183.368062 
L 360.817192 184.474312 
z
M 364.220786 184.223062 
Q 363.354536 184.223062 362.850161 184.899937 
Q 362.345786 185.576812 362.345786 186.754312 
Q 362.345786 187.931812 362.846411 188.608687 
Q 363.348911 189.285562 364.220786 189.285562 
Q 365.083286 189.285562 365.585786 188.606812 
Q 366.090161 187.926187 366.090161 186.754312 
Q 366.090161 185.588062 365.585786 184.905562 
Q 365.083286 184.223062 364.220786 184.223062 
z
M 364.220786 183.309937 
Q 365.627036 183.309937 366.429536 184.224937 
Q 367.233911 185.138062 367.233911 186.754312 
Q 367.233911 188.364937 366.429536 189.283687 
Q 365.627036 190.200562 364.220786 190.200562 
Q 362.808911 190.200562 362.008286 189.283687 
Q 361.209536 188.364937 361.209536 186.754312 
Q 361.209536 185.138062 362.008286 184.224937 
Q 362.808911 183.309937 364.220786 183.309937 
z
M 370.086958 181.603687 
L 370.086958 183.467437 
L 372.306958 183.467437 
L 372.306958 184.305562 
L 370.086958 184.305562 
L 370.086958 187.868062 
Q 370.086958 188.670562 370.306333 188.899312 
Q 370.525708 189.128062 371.200708 189.128062 
L 372.306958 189.128062 
L 372.306958 190.029937 
L 371.200708 190.029937 
Q 369.951958 190.029937 369.477583 189.564937 
Q 369.003208 189.098062 369.003208 187.868062 
L 369.003208 184.305562 
L 368.211958 184.305562 
L 368.211958 183.467437 
L 369.003208 183.467437 
L 369.003208 181.603687 
L 370.086958 181.603687 
z
M 374.000786 188.541187 
L 375.236411 188.541187 
L 375.236411 190.029937 
L 374.000786 190.029937 
L 374.000786 188.541187 
z
M 374.000786 183.825562 
L 375.236411 183.825562 
L 375.236411 185.312437 
L 374.000786 185.312437 
L 374.000786 183.825562 
z
M 378.99813 182.254312 
L 378.99813 185.541187 
L 380.48688 185.541187 
Q 381.313755 185.541187 381.763755 185.113687 
Q 382.21563 184.686187 382.21563 183.894937 
Q 382.21563 183.109312 381.763755 182.681812 
Q 381.313755 182.254312 380.48688 182.254312 
L 378.99813 182.254312 
z
M 377.815005 181.281187 
L 380.48688 181.281187 
Q 381.958755 181.281187 382.71063 181.946812 
Q 383.46438 182.612437 383.46438 183.894937 
Q 383.46438 185.190562 382.71063 185.852437 
Q 381.958755 186.514312 380.48688 186.514312 
L 378.99813 186.514312 
L 378.99813 190.029937 
L 377.815005 190.029937 
L 377.815005 181.281187 
z
M 385.362583 189.034312 
L 387.295708 189.034312 
L 387.295708 182.359312 
L 385.191958 182.781187 
L 385.191958 181.703062 
L 387.284458 181.281187 
L 388.467583 181.281187 
L 388.467583 189.034312 
L 390.400708 189.034312 
L 390.400708 190.029937 
L 385.362583 190.029937 
L 385.362583 189.034312 
z
M 396.044223 182.312437 
L 393.055473 186.983062 
L 396.044223 186.983062 
L 396.044223 182.312437 
z
M 395.732973 181.281187 
L 397.221723 181.281187 
L 397.221723 186.983062 
L 398.470473 186.983062 
L 398.470473 187.967437 
L 397.221723 187.967437 
L 397.221723 190.029937 
L 396.044223 190.029937 
L 396.044223 187.967437 
L 392.095473 187.967437 
L 392.095473 186.825562 
L 395.732973 181.281187 
z
M 403.678989 182.312437 
L 400.690239 186.983062 
L 403.678989 186.983062 
L 403.678989 182.312437 
z
M 403.367739 181.281187 
L 404.856489 181.281187 
L 404.856489 186.983062 
L 406.105239 186.983062 
L 406.105239 187.967437 
L 404.856489 187.967437 
L 404.856489 190.029937 
L 403.678989 190.029937 
L 403.678989 187.967437 
L 399.730239 187.967437 
L 399.730239 186.825562 
L 403.367739 181.281187 
z
M 408.26688 189.034312 
L 410.200005 189.034312 
L 410.200005 182.359312 
L 408.096255 182.781187 
L 408.096255 181.703062 
L 410.188755 181.281187 
L 411.37188 181.281187 
L 411.37188 189.034312 
L 413.305005 189.034312 
L 413.305005 190.029937 
L 408.26688 190.029937 
L 408.26688 189.034312 
z
M 418.37477 185.184937 
Q 417.577895 185.184937 417.11102 185.730562 
Q 416.64602 186.274312 416.64602 187.223062 
Q 416.64602 188.166187 417.11102 188.715562 
Q 417.577895 189.263062 418.37477 189.263062 
Q 419.171645 189.263062 419.636645 188.715562 
Q 420.101645 188.166187 420.101645 187.223062 
Q 420.101645 186.274312 419.636645 185.730562 
Q 419.171645 185.184937 418.37477 185.184937 
z
M 420.724145 181.474312 
L 420.724145 182.552437 
Q 420.277895 182.342437 419.824145 182.231812 
Q 419.370395 182.119312 418.924145 182.119312 
Q 417.75227 182.119312 417.13352 182.910562 
Q 416.516645 183.701812 416.42852 185.301187 
Q 416.77352 184.791187 417.29477 184.519312 
Q 417.817895 184.247437 418.444145 184.247437 
Q 419.76227 184.247437 420.52727 185.048062 
Q 421.29227 185.846812 421.29227 187.223062 
Q 421.29227 188.571187 420.495395 189.386812 
Q 419.69852 190.200562 418.37477 190.200562 
Q 416.85602 190.200562 416.05352 189.038062 
Q 415.25102 187.873687 415.25102 185.664937 
Q 415.25102 183.591187 416.235395 182.357437 
Q 417.21977 181.123687 418.87727 181.123687 
Q 419.32352 181.123687 419.77727 181.211812 
Q 420.23102 181.299937 420.724145 181.474312 
z
" clip-path="url(#p80fa3dcd32)" style="fill: #ffffff; stroke: #000000; stroke-width: 2"/>
    <path d="M 330.177583 181.281187 
L 331.368208 181.281187 
L 331.368208 186.596812 
Q 331.368208 188.003062 331.876333 188.621812 
Q 332.386333 189.238687 333.530083 189.238687 
Q 334.666333 189.238687 335.176333 188.621812 
Q 335.686333 188.003062 335.686333 186.596812 
L 335.686333 181.281187 
L 336.875083 181.281187 
L 336.875083 186.743062 
Q 336.875083 188.453062 336.027583 189.326812 
Q 335.181958 190.200562 333.530083 190.200562 
Q 331.870708 190.200562 331.023208 189.326812 
Q 330.177583 188.453062 330.177583 186.743062 
L 330.177583 181.281187 
z
M 344.505161 186.068062 
L 344.505161 190.029937 
L 343.427036 190.029937 
L 343.427036 186.103687 
Q 343.427036 185.171812 343.063286 184.710562 
Q 342.699536 184.247437 341.973911 184.247437 
Q 341.100161 184.247437 340.595786 184.804312 
Q 340.091411 185.359312 340.091411 186.321187 
L 340.091411 190.029937 
L 339.007661 190.029937 
L 339.007661 183.467437 
L 340.091411 183.467437 
L 340.091411 184.487437 
Q 340.479536 183.894937 341.002661 183.602437 
Q 341.527661 183.309937 342.213911 183.309937 
Q 343.344536 183.309937 343.923911 184.009312 
Q 344.505161 184.708687 344.505161 186.068062 
z
M 346.65438 183.467437 
L 347.732505 183.467437 
L 347.732505 190.029937 
L 346.65438 190.029937 
L 346.65438 183.467437 
z
M 346.65438 180.911812 
L 347.732505 180.911812 
L 347.732505 182.278687 
L 346.65438 182.278687 
L 346.65438 180.911812 
z
M 351.218364 182.254312 
L 351.218364 185.541187 
L 352.707114 185.541187 
Q 353.533989 185.541187 353.983989 185.113687 
Q 354.435864 184.686187 354.435864 183.894937 
Q 354.435864 183.109312 353.983989 182.681812 
Q 353.533989 182.254312 352.707114 182.254312 
L 351.218364 182.254312 
z
M 350.035239 181.281187 
L 352.707114 181.281187 
Q 354.178989 181.281187 354.930864 181.946812 
Q 355.684614 182.612437 355.684614 183.894937 
Q 355.684614 185.190562 354.930864 185.852437 
Q 354.178989 186.514312 352.707114 186.514312 
L 351.218364 186.514312 
L 351.218364 190.029937 
L 350.035239 190.029937 
L 350.035239 181.281187 
z
M 360.817192 184.474312 
Q 360.635317 184.369312 360.421567 184.320562 
Q 360.207817 184.269937 359.950942 184.269937 
Q 359.035942 184.269937 358.546567 184.864312 
Q 358.057192 185.458687 358.057192 186.572437 
L 358.057192 190.029937 
L 356.973442 190.029937 
L 356.973442 183.467437 
L 358.057192 183.467437 
L 358.057192 184.487437 
Q 358.398442 183.889312 358.942192 183.600562 
Q 359.487817 183.309937 360.267817 183.309937 
Q 360.378442 183.309937 360.513442 183.324937 
Q 360.648442 183.338062 360.811567 183.368062 
L 360.817192 184.474312 
z
M 364.220786 184.223062 
Q 363.354536 184.223062 362.850161 184.899937 
Q 362.345786 185.576812 362.345786 186.754312 
Q 362.345786 187.931812 362.846411 188.608687 
Q 363.348911 189.285562 364.220786 189.285562 
Q 365.083286 189.285562 365.585786 188.606812 
Q 366.090161 187.926187 366.090161 186.754312 
Q 366.090161 185.588062 365.585786 184.905562 
Q 365.083286 184.223062 364.220786 184.223062 
z
M 364.220786 183.309937 
Q 365.627036 183.309937 366.429536 184.224937 
Q 367.233911 185.138062 367.233911 186.754312 
Q 367.233911 188.364937 366.429536 189.283687 
Q 365.627036 190.200562 364.220786 190.200562 
Q 362.808911 190.200562 362.008286 189.283687 
Q 361.209536 188.364937 361.209536 186.754312 
Q 361.209536 185.138062 362.008286 184.224937 
Q 362.808911 183.309937 364.220786 183.309937 
z
M 370.086958 181.603687 
L 370.086958 183.467437 
L 372.306958 183.467437 
L 372.306958 184.305562 
L 370.086958 184.305562 
L 370.086958 187.868062 
Q 370.086958 188.670562 370.306333 188.899312 
Q 370.525708 189.128062 371.200708 189.128062 
L 372.306958 189.128062 
L 372.306958 190.029937 
L 371.200708 190.029937 
Q 369.951958 190.029937 369.477583 189.564937 
Q 369.003208 189.098062 369.003208 187.868062 
L 369.003208 184.305562 
L 368.211958 184.305562 
L 368.211958 183.467437 
L 369.003208 183.467437 
L 369.003208 181.603687 
L 370.086958 181.603687 
z
M 374.000786 188.541187 
L 375.236411 188.541187 
L 375.236411 190.029937 
L 374.000786 190.029937 
L 374.000786 188.541187 
z
M 374.000786 183.825562 
L 375.236411 183.825562 
L 375.236411 185.312437 
L 374.000786 185.312437 
L 374.000786 183.825562 
z
M 378.99813 182.254312 
L 378.99813 185.541187 
L 380.48688 185.541187 
Q 381.313755 185.541187 381.763755 185.113687 
Q 382.21563 184.686187 382.21563 183.894937 
Q 382.21563 183.109312 381.763755 182.681812 
Q 381.313755 182.254312 380.48688 182.254312 
L 378.99813 182.254312 
z
M 377.815005 181.281187 
L 380.48688 181.281187 
Q 381.958755 181.281187 382.71063 181.946812 
Q 383.46438 182.612437 383.46438 183.894937 
Q 383.46438 185.190562 382.71063 185.852437 
Q 381.958755 186.514312 380.48688 186.514312 
L 378.99813 186.514312 
L 378.99813 190.029937 
L 377.815005 190.029937 
L 377.815005 181.281187 
z
M 385.362583 189.034312 
L 387.295708 189.034312 
L 387.295708 182.359312 
L 385.191958 182.781187 
L 385.191958 181.703062 
L 387.284458 181.281187 
L 388.467583 181.281187 
L 388.467583 189.034312 
L 390.400708 189.034312 
L 390.400708 190.029937 
L 385.362583 190.029937 
L 385.362583 189.034312 
z
M 396.044223 182.312437 
L 393.055473 186.983062 
L 396.044223 186.983062 
L 396.044223 182.312437 
z
M 395.732973 181.281187 
L 397.221723 181.281187 
L 397.221723 186.983062 
L 398.470473 186.983062 
L 398.470473 187.967437 
L 397.221723 187.967437 
L 397.221723 190.029937 
L 396.044223 190.029937 
L 396.044223 187.967437 
L 392.095473 187.967437 
L 392.095473 186.825562 
L 395.732973 181.281187 
z
M 403.678989 182.312437 
L 400.690239 186.983062 
L 403.678989 186.983062 
L 403.678989 182.312437 
z
M 403.367739 181.281187 
L 404.856489 181.281187 
L 404.856489 186.983062 
L 406.105239 186.983062 
L 406.105239 187.967437 
L 404.856489 187.967437 
L 404.856489 190.029937 
L 403.678989 190.029937 
L 403.678989 187.967437 
L 399.730239 187.967437 
L 399.730239 186.825562 
L 403.367739 181.281187 
z
M 408.26688 189.034312 
L 410.200005 189.034312 
L 410.200005 182.359312 
L 408.096255 182.781187 
L 408.096255 181.703062 
L 410.188755 181.281187 
L 411.37188 181.281187 
L 411.37188 189.034312 
L 413.305005 189.034312 
L 413.305005 190.029937 
L 408.26688 190.029937 
L 408.26688 189.034312 
z
M 418.37477 185.184937 
Q 417.577895 185.184937 417.11102 185.730562 
Q 416.64602 186.274312 416.64602 187.223062 
Q 416.64602 188.166187 417.11102 188.715562 
Q 417.577895 189.263062 418.37477 189.263062 
Q 419.171645 189.263062 419.636645 188.715562 
Q 420.101645 188.166187 420.101645 187.223062 
Q 420.101645 186.274312 419.636645 185.730562 
Q 419.171645 185.184937 418.37477 185.184937 
z
M 420.724145 181.474312 
L 420.724145 182.552437 
Q 420.277895 182.342437 419.824145 182.231812 
Q 419.370395 182.119312 418.924145 182.119312 
Q 417.75227 182.119312 417.13352 182.910562 
Q 416.516645 183.701812 416.42852 185.301187 
Q 416.77352 184.791187 417.29477 184.519312 
Q 417.817895 184.247437 418.444145 184.247437 
Q 419.76227 184.247437 420.52727 185.048062 
Q 421.29227 185.846812 421.29227 187.223062 
Q 421.29227 188.571187 420.495395 189.386812 
Q 419.69852 190.200562 418.37477 190.200562 
Q 416.85602 190.200562 416.05352 189.038062 
Q 415.25102 187.873687 415.25102 185.664937 
Q 415.25102 183.591187 416.235395 182.357437 
Q 417.21977 181.123687 418.87727 181.123687 
Q 419.32352 181.123687 419.77727 181.211812 
Q 420.23102 181.299937 420.724145 181.474312 
z
" clip-path="url(#p80fa3dcd32)" style="fill: #ffffff"/>
    <path d="M 356.921645 195.691687 
L 356.921645 198.978562 
L 358.410395 198.978562 
Q 359.23727 198.978562 359.68727 198.551062 
Q 360.139145 198.123562 360.139145 197.332312 
Q 360.139145 196.546687 359.68727 196.119187 
Q 359.23727 195.691687 358.410395 195.691687 
L 356.921645 195.691687 
z
M 355.73852 194.718562 
L 358.410395 194.718562 
Q 359.88227 194.718562 360.634145 195.384187 
Q 361.387895 196.049812 361.387895 197.332312 
Q 361.387895 198.627937 360.634145 199.289812 
Q 359.88227 199.951687 358.410395 199.951687 
L 356.921645 199.951687 
L 356.921645 203.467312 
L 355.73852 203.467312 
L 355.73852 194.718562 
z
M 366.520473 197.911687 
Q 366.338598 197.806687 366.124848 197.757937 
Q 365.911098 197.707312 365.654223 197.707312 
Q 364.739223 197.707312 364.249848 198.301687 
Q 363.760473 198.896062 363.760473 200.009812 
L 363.760473 203.467312 
L 362.676723 203.467312 
L 362.676723 196.904812 
L 363.760473 196.904812 
L 363.760473 197.924812 
Q 364.101723 197.326687 364.645473 197.037937 
Q 365.191098 196.747312 365.971098 196.747312 
Q 366.081723 196.747312 366.216723 196.762312 
Q 366.351723 196.775437 366.514848 196.805437 
L 366.520473 197.911687 
z
M 369.924067 197.660437 
Q 369.057817 197.660437 368.553442 198.337312 
Q 368.049067 199.014187 368.049067 200.191687 
Q 368.049067 201.369187 368.549692 202.046062 
Q 369.052192 202.722937 369.924067 202.722937 
Q 370.786567 202.722937 371.289067 202.044187 
Q 371.793442 201.363562 371.793442 200.191687 
Q 371.793442 199.025437 371.289067 198.342937 
Q 370.786567 197.660437 369.924067 197.660437 
z
M 369.924067 196.747312 
Q 371.330317 196.747312 372.132817 197.662312 
Q 372.937192 198.575437 372.937192 200.191687 
Q 372.937192 201.802312 372.132817 202.721062 
Q 371.330317 203.637937 369.924067 203.637937 
Q 368.512192 203.637937 367.711567 202.721062 
Q 366.912817 201.802312 366.912817 200.191687 
Q 366.912817 198.575437 367.711567 197.662312 
Q 368.512192 196.747312 369.924067 196.747312 
z
M 375.790239 195.041062 
L 375.790239 196.904812 
L 378.010239 196.904812 
L 378.010239 197.742937 
L 375.790239 197.742937 
L 375.790239 201.305437 
Q 375.790239 202.107937 376.009614 202.336687 
Q 376.228989 202.565437 376.903989 202.565437 
L 378.010239 202.565437 
L 378.010239 203.467312 
L 376.903989 203.467312 
Q 375.655239 203.467312 375.180864 203.002312 
Q 374.706489 202.535437 374.706489 201.305437 
L 374.706489 197.742937 
L 373.915239 197.742937 
L 373.915239 196.904812 
L 374.706489 196.904812 
L 374.706489 195.041062 
L 375.790239 195.041062 
z
M 385.042192 199.916062 
L 385.042192 200.442937 
L 380.084692 200.442937 
Q 380.155942 201.556687 380.755942 202.139812 
Q 381.355942 202.722937 382.428442 202.722937 
Q 383.049067 202.722937 383.632192 202.571062 
Q 384.215317 202.419187 384.790942 202.113562 
L 384.790942 203.133562 
Q 384.209692 203.379187 383.600317 203.508562 
Q 382.990942 203.637937 382.364692 203.637937 
Q 380.793442 203.637937 379.876567 202.724812 
Q 378.959692 201.809812 378.959692 200.249812 
Q 378.959692 198.639187 379.829692 197.694187 
Q 380.699692 196.747312 382.177192 196.747312 
Q 383.500942 196.747312 384.271567 197.600437 
Q 385.042192 198.451687 385.042192 199.916062 
z
M 383.964067 199.599187 
Q 383.952817 198.716062 383.469067 198.189187 
Q 382.985317 197.660437 382.188442 197.660437 
Q 381.286567 197.660437 380.744692 198.170437 
Q 380.202817 198.680437 380.120317 199.606687 
L 383.964067 199.599187 
z
M 386.811255 196.904812 
L 387.88938 196.904812 
L 387.88938 203.467312 
L 386.811255 203.467312 
L 386.811255 196.904812 
z
M 386.811255 194.349187 
L 387.88938 194.349187 
L 387.88938 195.716062 
L 386.811255 195.716062 
L 386.811255 194.349187 
z
M 395.601489 199.505437 
L 395.601489 203.467312 
L 394.523364 203.467312 
L 394.523364 199.541062 
Q 394.523364 198.609187 394.159614 198.147937 
Q 393.795864 197.684812 393.070239 197.684812 
Q 392.196489 197.684812 391.692114 198.241687 
Q 391.187739 198.796687 391.187739 199.758562 
L 391.187739 203.467312 
L 390.103989 203.467312 
L 390.103989 196.904812 
L 391.187739 196.904812 
L 391.187739 197.924812 
Q 391.575864 197.332312 392.098989 197.039812 
Q 392.623989 196.747312 393.310239 196.747312 
Q 394.440864 196.747312 395.020239 197.446687 
Q 395.601489 198.146062 395.601489 199.505437 
z
" clip-path="url(#p80fa3dcd32)" style="fill: #ffffff; stroke: #000000; stroke-width: 2"/>
    <path d="M 356.921645 195.691687 
L 356.921645 198.978562 
L 358.410395 198.978562 
Q 359.23727 198.978562 359.68727 198.551062 
Q 360.139145 198.123562 360.139145 197.332312 
Q 360.139145 196.546687 359.68727 196.119187 
Q 359.23727 195.691687 358.410395 195.691687 
L 356.921645 195.691687 
z
M 355.73852 194.718562 
L 358.410395 194.718562 
Q 359.88227 194.718562 360.634145 195.384187 
Q 361.387895 196.049812 361.387895 197.332312 
Q 361.387895 198.627937 360.634145 199.289812 
Q 359.88227 199.951687 358.410395 199.951687 
L 356.921645 199.951687 
L 356.921645 203.467312 
L 355.73852 203.467312 
L 355.73852 194.718562 
z
M 366.520473 197.911687 
Q 366.338598 197.806687 366.124848 197.757937 
Q 365.911098 197.707312 365.654223 197.707312 
Q 364.739223 197.707312 364.249848 198.301687 
Q 363.760473 198.896062 363.760473 200.009812 
L 363.760473 203.467312 
L 362.676723 203.467312 
L 362.676723 196.904812 
L 363.760473 196.904812 
L 363.760473 197.924812 
Q 364.101723 197.326687 364.645473 197.037937 
Q 365.191098 196.747312 365.971098 196.747312 
Q 366.081723 196.747312 366.216723 196.762312 
Q 366.351723 196.775437 366.514848 196.805437 
L 366.520473 197.911687 
z
M 369.924067 197.660437 
Q 369.057817 197.660437 368.553442 198.337312 
Q 368.049067 199.014187 368.049067 200.191687 
Q 368.049067 201.369187 368.549692 202.046062 
Q 369.052192 202.722937 369.924067 202.722937 
Q 370.786567 202.722937 371.289067 202.044187 
Q 371.793442 201.363562 371.793442 200.191687 
Q 371.793442 199.025437 371.289067 198.342937 
Q 370.786567 197.660437 369.924067 197.660437 
z
M 369.924067 196.747312 
Q 371.330317 196.747312 372.132817 197.662312 
Q 372.937192 198.575437 372.937192 200.191687 
Q 372.937192 201.802312 372.132817 202.721062 
Q 371.330317 203.637937 369.924067 203.637937 
Q 368.512192 203.637937 367.711567 202.721062 
Q 366.912817 201.802312 366.912817 200.191687 
Q 366.912817 198.575437 367.711567 197.662312 
Q 368.512192 196.747312 369.924067 196.747312 
z
M 375.790239 195.041062 
L 375.790239 196.904812 
L 378.010239 196.904812 
L 378.010239 197.742937 
L 375.790239 197.742937 
L 375.790239 201.305437 
Q 375.790239 202.107937 376.009614 202.336687 
Q 376.228989 202.565437 376.903989 202.565437 
L 378.010239 202.565437 
L 378.010239 203.467312 
L 376.903989 203.467312 
Q 375.655239 203.467312 375.180864 203.002312 
Q 374.706489 202.535437 374.706489 201.305437 
L 374.706489 197.742937 
L 373.915239 197.742937 
L 373.915239 196.904812 
L 374.706489 196.904812 
L 374.706489 195.041062 
L 375.790239 195.041062 
z
M 385.042192 199.916062 
L 385.042192 200.442937 
L 380.084692 200.442937 
Q 380.155942 201.556687 380.755942 202.139812 
Q 381.355942 202.722937 382.428442 202.722937 
Q 383.049067 202.722937 383.632192 202.571062 
Q 384.215317 202.419187 384.790942 202.113562 
L 384.790942 203.133562 
Q 384.209692 203.379187 383.600317 203.508562 
Q 382.990942 203.637937 382.364692 203.637937 
Q 380.793442 203.637937 379.876567 202.724812 
Q 378.959692 201.809812 378.959692 200.249812 
Q 378.959692 198.639187 379.829692 197.694187 
Q 380.699692 196.747312 382.177192 196.747312 
Q 383.500942 196.747312 384.271567 197.600437 
Q 385.042192 198.451687 385.042192 199.916062 
z
M 383.964067 199.599187 
Q 383.952817 198.716062 383.469067 198.189187 
Q 382.985317 197.660437 382.188442 197.660437 
Q 381.286567 197.660437 380.744692 198.170437 
Q 380.202817 198.680437 380.120317 199.606687 
L 383.964067 199.599187 
z
M 386.811255 196.904812 
L 387.88938 196.904812 
L 387.88938 203.467312 
L 386.811255 203.467312 
L 386.811255 196.904812 
z
M 386.811255 194.349187 
L 387.88938 194.349187 
L 387.88938 195.716062 
L 386.811255 195.716062 
L 386.811255 194.349187 
z
M 395.601489 199.505437 
L 395.601489 203.467312 
L 394.523364 203.467312 
L 394.523364 199.541062 
Q 394.523364 198.609187 394.159614 198.147937 
Q 393.795864 197.684812 393.070239 197.684812 
Q 392.196489 197.684812 391.692114 198.241687 
Q 391.187739 198.796687 391.187739 199.758562 
L 391.187739 203.467312 
L 390.103989 203.467312 
L 390.103989 196.904812 
L 391.187739 196.904812 
L 391.187739 197.924812 
Q 391.575864 197.332312 392.098989 197.039812 
Q 392.623989 196.747312 393.310239 196.747312 
Q 394.440864 196.747312 395.020239 197.446687 
Q 395.601489 198.146062 395.601489 199.505437 
z
" clip-path="url(#p80fa3dcd32)" style="fill: #ffffff"/>
   </g>
   <g id="text_5">
    <g clip-path="url(#p80fa3dcd32)">
     <!-- Triflupromazine -->
     <g transform="translate(43.832123 169.873875)scale(0.12 -0.12)">
      <defs>
       <path id="DejaVuSans-54" d="M -19 4666 
L 3928 4666 
L 3928 4134 
L 2272 4134 
L 2272 0 
L 1638 0 
L 1638 4134 
L -19 4134 
L -19 4666 
z
" transform="scale(0.015625)"/>
       <path id="DejaVuSans-75" d="M 544 1381 
L 544 3500 
L 1119 3500 
L 1119 1403 
Q 1119 906 1312 657 
Q 1506 409 1894 409 
Q 2359 409 2629 706 
Q 2900 1003 2900 1516 
L 2900 3500 
L 3475 3500 
L 3475 0 
L 2900 0 
L 2900 538 
Q 2691 219 2414 64 
Q 2138 -91 1772 -91 
Q 1169 -91 856 284 
Q 544 659 544 1381 
z
M 1991 3584 
L 1991 3584 
z
" transform="scale(0.015625)"/>
       <path id="DejaVuSans-6d" d="M 3328 2828 
Q 3544 3216 3844 3400 
Q 4144 3584 4550 3584 
Q 5097 3584 5394 3201 
Q 5691 2819 5691 2113 
L 5691 0 
L 5113 0 
L 5113 2094 
Q 5113 2597 4934 2840 
Q 4756 3084 4391 3084 
Q 3944 3084 3684 2787 
Q 3425 2491 3425 1978 
L 3425 0 
L 2847 0 
L 2847 2094 
Q 2847 2600 2669 2842 
Q 2491 3084 2119 3084 
Q 1678 3084 1418 2786 
Q 1159 2488 1159 1978 
L 1159 0 
L 581 0 
L 581 3500 
L 1159 3500 
L 1159 2956 
Q 1356 3278 1631 3431 
Q 1906 3584 2284 3584 
Q 2666 3584 2933 3390 
Q 3200 3197 3328 2828 
z
" transform="scale(0.015625)"/>
       <path id="DejaVuSans-7a" d="M 353 3500 
L 3084 3500 
L 3084 2975 
L 922 459 
L 3084 459 
L 3084 0 
L 275 0 
L 275 525 
L 2438 3041 
L 353 3041 
L 353 3500 
z
" transform="scale(0.015625)"/>
       <path id="DejaVuSans-6e" d="M 3513 2113 
L 3513 0 
L 2938 0 
L 2938 2094 
Q 2938 2591 2744 2837 
Q 2550 3084 2163 3084 
Q 1697 3084 1428 2787 
Q 1159 2491 1159 1978 
L 1159 0 
L 581 0 
L 581 3500 
L 1159 3500 
L 1159 2956 
Q 1366 3272 1645 3428 
Q 1925 3584 2291 3584 
Q 2894 3584 3203 3211 
Q 3513 2838 3513 2113 
z
" transform="scale(0.015625)"/>
      </defs>
      <use xlink:href="#DejaVuSans-54"/>
      <use xlink:href="#DejaVuSans-72" x="46.333984"/>
      <use xlink:href="#DejaVuSans-69" x="87.447266"/>
      <use xlink:href="#DejaVuSans-66" x="115.230469"/>
      <use xlink:href="#DejaVuSans-6c" x="150.435547"/>
      <use xlink:href="#DejaVuSans-75" x="178.21875"/>
      <use xlink:href="#DejaVuSans-70" x="241.597656"/>
      <use xlink:href="#DejaVuSans-72" x="305.074219"/>
      <use xlink:href="#DejaVuSans-6f" x="343.9375"/>
      <use xlink:href="#DejaVuSans-6d" x="405.119141"/>
      <use xlink:href="#DejaVuSans-61" x="502.53125"/>
      <use xlink:href="#DejaVuSans-7a" x="563.810547"/>
      <use xlink:href="#DejaVuSans-69" x="616.300781"/>
      <use xlink:href="#DejaVuSans-6e" x="644.083984"/>
      <use xlink:href="#DejaVuSans-65" x="707.462891"/>
     </g>
    </g>
    <g clip-path="url(#p80fa3dcd32)">
     <!-- MESH:D014273 -->
     <g transform="translate(43.134623 183.31125)scale(0.12 -0.12)">
      <defs>
       <path id="DejaVuSans-4d" d="M 628 4666 
L 1569 4666 
L 2759 1491 
L 3956 4666 
L 4897 4666 
L 4897 0 
L 4281 0 
L 4281 4097 
L 3078 897 
L 2444 897 
L 1241 4097 
L 1241 0 
L 628 0 
L 628 4666 
z
" transform="scale(0.015625)"/>
       <path id="DejaVuSans-45" d="M 628 4666 
L 3578 4666 
L 3578 4134 
L 1259 4134 
L 1259 2753 
L 3481 2753 
L 3481 2222 
L 1259 2222 
L 1259 531 
L 3634 531 
L 3634 0 
L 628 0 
L 628 4666 
z
" transform="scale(0.015625)"/>
       <path id="DejaVuSans-53" d="M 3425 4513 
L 3425 3897 
Q 3066 4069 2747 4153 
Q 2428 4238 2131 4238 
Q 1616 4238 1336 4038 
Q 1056 3838 1056 3469 
Q 1056 3159 1242 3001 
Q 1428 2844 1947 2747 
L 2328 2669 
Q 3034 2534 3370 2195 
Q 3706 1856 3706 1288 
Q 3706 609 3251 259 
Q 2797 -91 1919 -91 
Q 1588 -91 1214 -16 
Q 841 59 441 206 
L 441 856 
Q 825 641 1194 531 
Q 1563 422 1919 422 
Q 2459 422 2753 634 
Q 3047 847 3047 1241 
Q 3047 1584 2836 1778 
Q 2625 1972 2144 2069 
L 1759 2144 
Q 1053 2284 737 2584 
Q 422 2884 422 3419 
Q 422 4038 858 4394 
Q 1294 4750 2059 4750 
Q 2388 4750 2728 4690 
Q 3069 4631 3425 4513 
z
" transform="scale(0.015625)"/>
       <path id="DejaVuSans-48" d="M 628 4666 
L 1259 4666 
L 1259 2753 
L 3553 2753 
L 3553 4666 
L 4184 4666 
L 4184 0 
L 3553 0 
L 3553 2222 
L 1259 2222 
L 1259 0 
L 628 0 
L 628 4666 
z
" transform="scale(0.015625)"/>
       <path id="DejaVuSans-3a" d="M 750 794 
L 1409 794 
L 1409 0 
L 750 0 
L 750 794 
z
M 750 3309 
L 1409 3309 
L 1409 2516 
L 750 2516 
L 750 3309 
z
" transform="scale(0.015625)"/>
       <path id="DejaVuSans-44" d="M 1259 4147 
L 1259 519 
L 2022 519 
Q 2988 519 3436 956 
Q 3884 1394 3884 2338 
Q 3884 3275 3436 3711 
Q 2988 4147 2022 4147 
L 1259 4147 
z
M 628 4666 
L 1925 4666 
Q 3281 4666 3915 4102 
Q 4550 3538 4550 2338 
Q 4550 1131 3912 565 
Q 3275 0 1925 0 
L 628 0 
L 628 4666 
z
" transform="scale(0.015625)"/>
       <path id="DejaVuSans-30" d="M 2034 4250 
Q 1547 4250 1301 3770 
Q 1056 3291 1056 2328 
Q 1056 1369 1301 889 
Q 1547 409 2034 409 
Q 2525 409 2770 889 
Q 3016 1369 3016 2328 
Q 3016 3291 2770 3770 
Q 2525 4250 2034 4250 
z
M 2034 4750 
Q 2819 4750 3233 4129 
Q 3647 3509 3647 2328 
Q 3647 1150 3233 529 
Q 2819 -91 2034 -91 
Q 1250 -91 836 529 
Q 422 1150 422 2328 
Q 422 3509 836 4129 
Q 1250 4750 2034 4750 
z
" transform="scale(0.015625)"/>
       <path id="DejaVuSans-31" d="M 794 531 
L 1825 531 
L 1825 4091 
L 703 3866 
L 703 4441 
L 1819 4666 
L 2450 4666 
L 2450 531 
L 3481 531 
L 3481 0 
L 794 0 
L 794 531 
z
" transform="scale(0.015625)"/>
       <path id="DejaVuSans-34" d="M 2419 4116 
L 825 1625 
L 2419 1625 
L 2419 4116 
z
M 2253 4666 
L 3047 4666 
L 3047 1625 
L 3713 1625 
L 3713 1100 
L 3047 1100 
L 3047 0 
L 2419 0 
L 2419 1100 
L 313 1100 
L 313 1709 
L 2253 4666 
z
" transform="scale(0.015625)"/>
       <path id="DejaVuSans-32" d="M 1228 531 
L 3431 531 
L 3431 0 
L 469 0 
L 469 531 
Q 828 903 1448 1529 
Q 2069 2156 2228 2338 
Q 2531 2678 2651 2914 
Q 2772 3150 2772 3378 
Q 2772 3750 2511 3984 
Q 2250 4219 1831 4219 
Q 1534 4219 1204 4116 
Q 875 4013 500 3803 
L 500 4441 
Q 881 4594 1212 4672 
Q 1544 4750 1819 4750 
Q 2544 4750 2975 4387 
Q 3406 4025 3406 3419 
Q 3406 3131 3298 2873 
Q 3191 2616 2906 2266 
Q 2828 2175 2409 1742 
Q 1991 1309 1228 531 
z
" transform="scale(0.015625)"/>
       <path id="DejaVuSans-37" d="M 525 4666 
L 3525 4666 
L 3525 4397 
L 1831 0 
L 1172 0 
L 2766 4134 
L 525 4134 
L 525 4666 
z
" transform="scale(0.015625)"/>
       <path id="DejaVuSans-33" d="M 2597 2516 
Q 3050 2419 3304 2112 
Q 3559 1806 3559 1356 
Q 3559 666 3084 287 
Q 2609 -91 1734 -91 
Q 1441 -91 1130 -33 
Q 819 25 488 141 
L 488 750 
Q 750 597 1062 519 
Q 1375 441 1716 441 
Q 2309 441 2620 675 
Q 2931 909 2931 1356 
Q 2931 1769 2642 2001 
Q 2353 2234 1838 2234 
L 1294 2234 
L 1294 2753 
L 1863 2753 
Q 2328 2753 2575 2939 
Q 2822 3125 2822 3475 
Q 2822 3834 2567 4026 
Q 2313 4219 1838 4219 
Q 1578 4219 1281 4162 
Q 984 4106 628 3988 
L 628 4550 
Q 988 4650 1302 4700 
Q 1616 4750 1894 4750 
Q 2613 4750 3031 4423 
Q 3450 4097 3450 3541 
Q 3450 3153 3228 2886 
Q 3006 2619 2597 2516 
z
" transform="scale(0.015625)"/>
      </defs>
      <use xlink:href="#DejaVuSans-4d"/>
      <use xlink:href="#DejaVuSans-45" x="86.279297"/>
      <use xlink:href="#DejaVuSans-53" x="149.462891"/>
      <use xlink:href="#DejaVuSans-48" x="212.939453"/>
      <use xlink:href="#DejaVuSans-3a" x="288.134766"/>
      <use xlink:href="#DejaVuSans-44" x="321.826172"/>
      <use xlink:href="#DejaVuSans-30" x="398.828125"/>
      <use xlink:href="#DejaVuSans-31" x="462.451172"/>
      <use xlink:href="#DejaVuSans-34" x="526.074219"/>
      <use xlink:href="#DejaVuSans-32" x="589.697266"/>
      <use xlink:href="#DejaVuSans-37" x="653.320312"/>
      <use xlink:href="#DejaVuSans-33" x="716.943359"/>
     </g>
    </g>
    <g clip-path="url(#p80fa3dcd32)">
     <!-- Drug -->
     <g transform="translate(75.272123 196.748625)scale(0.12 -0.12)">
      <defs>
       <path id="DejaVuSans-67" d="M 2906 1791 
Q 2906 2416 2648 2759 
Q 2391 3103 1925 3103 
Q 1463 3103 1205 2759 
Q 947 2416 947 1791 
Q 947 1169 1205 825 
Q 1463 481 1925 481 
Q 2391 481 2648 825 
Q 2906 1169 2906 1791 
z
M 3481 434 
Q 3481 -459 3084 -895 
Q 2688 -1331 1869 -1331 
Q 1566 -1331 1297 -1286 
Q 1028 -1241 775 -1147 
L 775 -588 
Q 1028 -725 1275 -790 
Q 1522 -856 1778 -856 
Q 2344 -856 2625 -561 
Q 2906 -266 2906 331 
L 2906 616 
Q 2728 306 2450 153 
Q 2172 0 1784 0 
Q 1141 0 747 490 
Q 353 981 353 1791 
Q 353 2603 747 3093 
Q 1141 3584 1784 3584 
Q 2172 3584 2450 3431 
Q 2728 3278 2906 2969 
L 2906 3500 
L 3481 3500 
L 3481 434 
z
" transform="scale(0.015625)"/>
      </defs>
      <use xlink:href="#DejaVuSans-44"/>
      <use xlink:href="#DejaVuSans-72" x="77.001953"/>
      <use xlink:href="#DejaVuSans-75" x="118.115234"/>
      <use xlink:href="#DejaVuSans-67" x="181.494141"/>
     </g>
    </g>
   </g>
   <g id="text_6">
    <g clip-path="url(#p80fa3dcd32)">
     <!-- Dopamine -->
     <g transform="translate(630.427105 169.873875)scale(0.12 -0.12)">
      <use xlink:href="#DejaVuSans-44"/>
      <use xlink:href="#DejaVuSans-6f" x="77.001953"/>
      <use xlink:href="#DejaVuSans-70" x="138.183594"/>
      <use xlink:href="#DejaVuSans-61" x="201.660156"/>
      <use xlink:href="#DejaVuSans-6d" x="262.939453"/>
      <use xlink:href="#DejaVuSans-69" x="360.351562"/>
      <use xlink:href="#DejaVuSans-6e" x="388.134766"/>
      <use xlink:href="#DejaVuSans-65" x="451.513672"/>
     </g>
    </g>
    <g clip-path="url(#p80fa3dcd32)">
     <!-- MESH:D004298 -->
     <g transform="translate(614.374292 183.31125)scale(0.12 -0.12)">
      <defs>
       <path id="DejaVuSans-39" d="M 703 97 
L 703 672 
Q 941 559 1184 500 
Q 1428 441 1663 441 
Q 2288 441 2617 861 
Q 2947 1281 2994 2138 
Q 2813 1869 2534 1725 
Q 2256 1581 1919 1581 
Q 1219 1581 811 2004 
Q 403 2428 403 3163 
Q 403 3881 828 4315 
Q 1253 4750 1959 4750 
Q 2769 4750 3195 4129 
Q 3622 3509 3622 2328 
Q 3622 1225 3098 567 
Q 2575 -91 1691 -91 
Q 1453 -91 1209 -44 
Q 966 3 703 97 
z
M 1959 2075 
Q 2384 2075 2632 2365 
Q 2881 2656 2881 3163 
Q 2881 3666 2632 3958 
Q 2384 4250 1959 4250 
Q 1534 4250 1286 3958 
Q 1038 3666 1038 3163 
Q 1038 2656 1286 2365 
Q 1534 2075 1959 2075 
z
" transform="scale(0.015625)"/>
       <path id="DejaVuSans-38" d="M 2034 2216 
Q 1584 2216 1326 1975 
Q 1069 1734 1069 1313 
Q 1069 891 1326 650 
Q 1584 409 2034 409 
Q 2484 409 2743 651 
Q 3003 894 3003 1313 
Q 3003 1734 2745 1975 
Q 2488 2216 2034 2216 
z
M 1403 2484 
Q 997 2584 770 2862 
Q 544 3141 544 3541 
Q 544 4100 942 4425 
Q 1341 4750 2034 4750 
Q 2731 4750 3128 4425 
Q 3525 4100 3525 3541 
Q 3525 3141 3298 2862 
Q 3072 2584 2669 2484 
Q 3125 2378 3379 2068 
Q 3634 1759 3634 1313 
Q 3634 634 3220 271 
Q 2806 -91 2034 -91 
Q 1263 -91 848 271 
Q 434 634 434 1313 
Q 434 1759 690 2068 
Q 947 2378 1403 2484 
z
M 1172 3481 
Q 1172 3119 1398 2916 
Q 1625 2713 2034 2713 
Q 2441 2713 2670 2916 
Q 2900 3119 2900 3481 
Q 2900 3844 2670 4047 
Q 2441 4250 2034 4250 
Q 1625 4250 1398 4047 
Q 1172 3844 1172 3481 
z
" transform="scale(0.015625)"/>
      </defs>
      <use xlink:href="#DejaVuSans-4d"/>
      <use xlink:href="#DejaVuSans-45" x="86.279297"/>
      <use xlink:href="#DejaVuSans-53" x="149.462891"/>
      <use xlink:href="#DejaVuSans-48" x="212.939453"/>
      <use xlink:href="#DejaVuSans-3a" x="288.134766"/>
      <use xlink:href="#DejaVuSans-44" x="321.826172"/>
      <use xlink:href="#DejaVuSans-30" x="398.828125"/>
      <use xlink:href="#DejaVuSans-30" x="462.451172"/>
      <use xlink:href="#DejaVuSans-34" x="526.074219"/>
      <use xlink:href="#DejaVuSans-32" x="589.697266"/>
      <use xlink:href="#DejaVuSans-39" x="653.320312"/>
      <use xlink:href="#DejaVuSans-38" x="716.943359"/>
     </g>
    </g>
    <g clip-path="url(#p80fa3dcd32)">
     <!-- ChemicalSubstance -->
     <g transform="translate(602.003042 196.748625)scale(0.12 -0.12)">
      <defs>
       <path id="DejaVuSans-43" d="M 4122 4306 
L 4122 3641 
Q 3803 3938 3442 4084 
Q 3081 4231 2675 4231 
Q 1875 4231 1450 3742 
Q 1025 3253 1025 2328 
Q 1025 1406 1450 917 
Q 1875 428 2675 428 
Q 3081 428 3442 575 
Q 3803 722 4122 1019 
L 4122 359 
Q 3791 134 3420 21 
Q 3050 -91 2638 -91 
Q 1578 -91 968 557 
Q 359 1206 359 2328 
Q 359 3453 968 4101 
Q 1578 4750 2638 4750 
Q 3056 4750 3426 4639 
Q 3797 4528 4122 4306 
z
" transform="scale(0.015625)"/>
       <path id="DejaVuSans-62" d="M 3116 1747 
Q 3116 2381 2855 2742 
Q 2594 3103 2138 3103 
Q 1681 3103 1420 2742 
Q 1159 2381 1159 1747 
Q 1159 1113 1420 752 
Q 1681 391 2138 391 
Q 2594 391 2855 752 
Q 3116 1113 3116 1747 
z
M 1159 2969 
Q 1341 3281 1617 3432 
Q 1894 3584 2278 3584 
Q 2916 3584 3314 3078 
Q 3713 2572 3713 1747 
Q 3713 922 3314 415 
Q 2916 -91 2278 -91 
Q 1894 -91 1617 61 
Q 1341 213 1159 525 
L 1159 0 
L 581 0 
L 581 4863 
L 1159 4863 
L 1159 2969 
z
" transform="scale(0.015625)"/>
      </defs>
      <use xlink:href="#DejaVuSans-43"/>
      <use xlink:href="#DejaVuSans-68" x="69.824219"/>
      <use xlink:href="#DejaVuSans-65" x="133.203125"/>
      <use xlink:href="#DejaVuSans-6d" x="194.726562"/>
      <use xlink:href="#DejaVuSans-69" x="292.138672"/>
      <use xlink:href="#DejaVuSans-63" x="319.921875"/>
      <use xlink:href="#DejaVuSans-61" x="374.902344"/>
      <use xlink:href="#DejaVuSans-6c" x="436.181641"/>
      <use xlink:href="#DejaVuSans-53" x="463.964844"/>
      <use xlink:href="#DejaVuSans-75" x="527.441406"/>
      <use xlink:href="#DejaVuSans-62" x="590.820312"/>
      <use xlink:href="#DejaVuSans-73" x="654.296875"/>
      <use xlink:href="#DejaVuSans-74" x="706.396484"/>
      <use xlink:href="#DejaVuSans-61" x="745.605469"/>
      <use xlink:href="#DejaVuSans-6e" x="806.884766"/>
      <use xlink:href="#DejaVuSans-63" x="870.263672"/>
      <use xlink:href="#DejaVuSans-65" x="925.244141"/>
     </g>
    </g>
   </g>
   <g id="text_7">
    <g clip-path="url(#p80fa3dcd32)">
     <!-- Nausea -->
     <g transform="translate(924.367252 169.873875)scale(0.12 -0.12)">
      <defs>
       <path id="DejaVuSans-4e" d="M 628 4666 
L 1478 4666 
L 3547 763 
L 3547 4666 
L 4159 4666 
L 4159 0 
L 3309 0 
L 1241 3903 
L 1241 0 
L 628 0 
L 628 4666 
z
" transform="scale(0.015625)"/>
      </defs>
      <use xlink:href="#DejaVuSans-4e"/>
      <use xlink:href="#DejaVuSans-61" x="74.804688"/>
      <use xlink:href="#DejaVuSans-75" x="136.083984"/>
      <use xlink:href="#DejaVuSans-73" x="199.462891"/>
      <use xlink:href="#DejaVuSans-65" x="251.5625"/>
      <use xlink:href="#DejaVuSans-61" x="313.085938"/>
     </g>
    </g>
    <g clip-path="url(#p80fa3dcd32)">
     <!-- MESH:D009325 -->
     <g transform="translate(899.994127 183.31125)scale(0.12 -0.12)">
      <defs>
       <path id="DejaVuSans-35" d="M 691 4666 
L 3169 4666 
L 3169 4134 
L 1269 4134 
L 1269 2991 
Q 1406 3038 1543 3061 
Q 1681 3084 1819 3084 
Q 2600 3084 3056 2656 
Q 3513 2228 3513 1497 
Q 3513 744 3044 326 
Q 2575 -91 1722 -91 
Q 1428 -91 1123 -41 
Q 819 9 494 109 
L 494 744 
Q 775 591 1075 516 
Q 1375 441 1709 441 
Q 2250 441 2565 725 
Q 2881 1009 2881 1497 
Q 2881 1984 2565 2268 
Q 2250 2553 1709 2553 
Q 1456 2553 1204 2497 
Q 953 2441 691 2322 
L 691 4666 
z
" transform="scale(0.015625)"/>
      </defs>
      <use xlink:href="#DejaVuSans-4d"/>
      <use xlink:href="#DejaVuSans-45" x="86.279297"/>
      <use xlink:href="#DejaVuSans-53" x="149.462891"/>
      <use xlink:href="#DejaVuSans-48" x="212.939453"/>
      <use xlink:href="#DejaVuSans-3a" x="288.134766"/>
      <use xlink:href="#DejaVuSans-44" x="321.826172"/>
      <use xlink:href="#DejaVuSans-30" x="398.828125"/>
      <use xlink:href="#DejaVuSans-30" x="462.451172"/>
      <use xlink:href="#DejaVuSans-39" x="526.074219"/>
      <use xlink:href="#DejaVuSans-33" x="589.697266"/>
      <use xlink:href="#DejaVuSans-32" x="653.320312"/>
      <use xlink:href="#DejaVuSans-35" x="716.943359"/>
     </g>
    </g>
    <g clip-path="url(#p80fa3dcd32)">
     <!-- Disease -->
     <g transform="translate(923.231002 196.748625)scale(0.12 -0.12)">
      <use xlink:href="#DejaVuSans-44"/>
      <use xlink:href="#DejaVuSans-69" x="77.001953"/>
      <use xlink:href="#DejaVuSans-73" x="104.785156"/>
      <use xlink:href="#DejaVuSans-65" x="156.884766"/>
      <use xlink:href="#DejaVuSans-61" x="218.408203"/>
      <use xlink:href="#DejaVuSans-73" x="279.6875"/>
      <use xlink:href="#DejaVuSans-65" x="331.787109"/>
     </g>
    </g>
   </g>
  </g>
 </g>
 <defs>
  <clipPath id="p80fa3dcd32">
   <rect x="0" y="0" width="1036.8" height="360"/>
  </clipPath>
 </defs>
</svg>
