<?xml version="1.0" encoding="utf-8" standalone="no"?>
<!DOCTYPE svg PUBLIC "-//W3C//DTD SVG 1.1//EN"
  "http://www.w3.org/Graphics/SVG/1.1/DTD/svg11.dtd">
<svg xmlns:xlink="http://www.w3.org/1999/xlink" width="1036.8pt" height="360pt" viewBox="0 0 1036.8 360" xmlns="http://www.w3.org/2000/svg" version="1.1">
 <metadata>
  <rdf:RDF xmlns:dc="http://purl.org/dc/elements/1.1/" xmlns:cc="http://creativecommons.org/ns#" xmlns:rdf="http://www.w3.org/1999/02/22-rdf-syntax-ns#">
   <cc:Work>
    <dc:type rdf:resource="http://purl.org/dc/dcmitype/StillImage"/>
    <dc:date>2023-02-08T08:52:21.454011</dc:date>
    <dc:format>image/svg+xml</dc:format>
    <dc:creator>
     <cc:Agent>
      <dc:title>Matplotlib v3.5.1, https://matplotlib.org/</dc:title>
     </cc:Agent>
    </dc:creator>
   </cc:Work>
  </rdf:RDF>
 </metadata>
 <defs>
  <style type="text/css">*{stroke-linejoin: round; stroke-linecap: butt}</style>
 </defs>
 <g id="figure_1">
  <g id="patch_1">
   <path d="M 0 360 
L 1036.8 360 
L 1036.8 0 
L 0 0 
z
" style="fill: #ffffff"/>
  </g>
  <g id="axes_1">
   <g id="patch_2">
    <path d="M 142.412623 180 
Q 232.78063 180 319.794535 180 
" clip-path="url(#p564e563d3e)" style="fill: none; stroke: #2ca02c; stroke-width: 3; stroke-linecap: round"/>
    <path d="M 315.794535 178 
L 319.794535 180 
L 315.794535 182 
L 315.794535 178 
z
" clip-path="url(#p564e563d3e)" style="fill: #2ca02c; stroke: #2ca02c; stroke-width: 3; stroke-linecap: round"/>
   </g>
   <g id="patch_3">
    <path d="M 428.032457 180 
Q 518.400465 180 605.41437 180 
" clip-path="url(#p564e563d3e)" style="fill: none; stroke: #2ca02c; stroke-width: 3; stroke-linecap: round"/>
    <path d="M 601.41437 178 
L 605.41437 180 
L 601.41437 182 
L 601.41437 178 
z
" clip-path="url(#p564e563d3e)" style="fill: #2ca02c; stroke: #2ca02c; stroke-width: 3; stroke-linecap: round"/>
   </g>
   <g id="patch_4">
    <path d="M 713.652292 180 
Q 804.020299 180 891.034204 180 
" clip-path="url(#p564e563d3e)" style="fill: none; stroke: #2ca02c; stroke-width: 3; stroke-linecap: round"/>
    <path d="M 887.034204 178 
L 891.034204 180 
L 887.034204 182 
L 887.034204 178 
z
" clip-path="url(#p564e563d3e)" style="fill: #2ca02c; stroke: #2ca02c; stroke-width: 3; stroke-linecap: round"/>
   </g>
   <g id="text_1">
    <g id="patch_5">
     <path d="M 208.819228 193.437969 
L 256.741103 193.437969 
Q 259.741103 193.437969 259.741103 190.437969 
L 259.741103 169.562031 
Q 259.741103 166.562031 256.741103 166.562031 
L 208.819228 166.562031 
Q 205.819228 166.562031 205.819228 169.562031 
L 205.819228 190.437969 
Q 205.819228 193.437969 208.819228 193.437969 
z
" clip-path="url(#p564e563d3e)" style="fill: #ffffff; stroke: #ffffff; stroke-linejoin: miter"/>
    </g>
    <g clip-path="url(#p564e563d3e)">
     <!-- positively -->
     <g transform="translate(208.819228 177.160469)scale(0.1 -0.1)">
      <defs>
       <path id="DejaVuSans-70" d="M 1159 525 
L 1159 -1331 
L 581 -1331 
L 581 3500 
L 1159 3500 
L 1159 2969 
Q 1341 3281 1617 3432 
Q 1894 3584 2278 3584 
Q 2916 3584 3314 3078 
Q 3713 2572 3713 1747 
Q 3713 922 3314 415 
Q 2916 -91 2278 -91 
Q 1894 -91 1617 61 
Q 1341 213 1159 525 
z
M 3116 1747 
Q 3116 2381 2855 2742 
Q 2594 3103 2138 3103 
Q 1681 3103 1420 2742 
Q 1159 2381 1159 1747 
Q 1159 1113 1420 752 
Q 1681 391 2138 391 
Q 2594 391 2855 752 
Q 3116 1113 3116 1747 
z
" transform="scale(0.015625)"/>
       <path id="DejaVuSans-6f" d="M 1959 3097 
Q 1497 3097 1228 2736 
Q 959 2375 959 1747 
Q 959 1119 1226 758 
Q 1494 397 1959 397 
Q 2419 397 2687 759 
Q 2956 1122 2956 1747 
Q 2956 2369 2687 2733 
Q 2419 3097 1959 3097 
z
M 1959 3584 
Q 2709 3584 3137 3096 
Q 3566 2609 3566 1747 
Q 3566 888 3137 398 
Q 2709 -91 1959 -91 
Q 1206 -91 779 398 
Q 353 888 353 1747 
Q 353 2609 779 3096 
Q 1206 3584 1959 3584 
z
" transform="scale(0.015625)"/>
       <path id="DejaVuSans-73" d="M 2834 3397 
L 2834 2853 
Q 2591 2978 2328 3040 
Q 2066 3103 1784 3103 
Q 1356 3103 1142 2972 
Q 928 2841 928 2578 
Q 928 2378 1081 2264 
Q 1234 2150 1697 2047 
L 1894 2003 
Q 2506 1872 2764 1633 
Q 3022 1394 3022 966 
Q 3022 478 2636 193 
Q 2250 -91 1575 -91 
Q 1294 -91 989 -36 
Q 684 19 347 128 
L 347 722 
Q 666 556 975 473 
Q 1284 391 1588 391 
Q 1994 391 2212 530 
Q 2431 669 2431 922 
Q 2431 1156 2273 1281 
Q 2116 1406 1581 1522 
L 1381 1569 
Q 847 1681 609 1914 
Q 372 2147 372 2553 
Q 372 3047 722 3315 
Q 1072 3584 1716 3584 
Q 2034 3584 2315 3537 
Q 2597 3491 2834 3397 
z
" transform="scale(0.015625)"/>
       <path id="DejaVuSans-69" d="M 603 3500 
L 1178 3500 
L 1178 0 
L 603 0 
L 603 3500 
z
M 603 4863 
L 1178 4863 
L 1178 4134 
L 603 4134 
L 603 4863 
z
" transform="scale(0.015625)"/>
       <path id="DejaVuSans-74" d="M 1172 4494 
L 1172 3500 
L 2356 3500 
L 2356 3053 
L 1172 3053 
L 1172 1153 
Q 1172 725 1289 603 
Q 1406 481 1766 481 
L 2356 481 
L 2356 0 
L 1766 0 
Q 1100 0 847 248 
Q 594 497 594 1153 
L 594 3053 
L 172 3053 
L 172 3500 
L 594 3500 
L 594 4494 
L 1172 4494 
z
" transform="scale(0.015625)"/>
       <path id="DejaVuSans-76" d="M 191 3500 
L 800 3500 
L 1894 563 
L 2988 3500 
L 3597 3500 
L 2284 0 
L 1503 0 
L 191 3500 
z
" transform="scale(0.015625)"/>
       <path id="DejaVuSans-65" d="M 3597 1894 
L 3597 1613 
L 953 1613 
Q 991 1019 1311 708 
Q 1631 397 2203 397 
Q 2534 397 2845 478 
Q 3156 559 3463 722 
L 3463 178 
Q 3153 47 2828 -22 
Q 2503 -91 2169 -91 
Q 1331 -91 842 396 
Q 353 884 353 1716 
Q 353 2575 817 3079 
Q 1281 3584 2069 3584 
Q 2775 3584 3186 3129 
Q 3597 2675 3597 1894 
z
M 3022 2063 
Q 3016 2534 2758 2815 
Q 2500 3097 2075 3097 
Q 1594 3097 1305 2825 
Q 1016 2553 972 2059 
L 3022 2063 
z
" transform="scale(0.015625)"/>
       <path id="DejaVuSans-6c" d="M 603 4863 
L 1178 4863 
L 1178 0 
L 603 0 
L 603 4863 
z
" transform="scale(0.015625)"/>
       <path id="DejaVuSans-79" d="M 2059 -325 
Q 1816 -950 1584 -1140 
Q 1353 -1331 966 -1331 
L 506 -1331 
L 506 -850 
L 844 -850 
Q 1081 -850 1212 -737 
Q 1344 -625 1503 -206 
L 1606 56 
L 191 3500 
L 800 3500 
L 1894 763 
L 2988 3500 
L 3597 3500 
L 2059 -325 
z
" transform="scale(0.015625)"/>
      </defs>
      <use xlink:href="#DejaVuSans-70"/>
      <use xlink:href="#DejaVuSans-6f" x="63.476562"/>
      <use xlink:href="#DejaVuSans-73" x="124.658203"/>
      <use xlink:href="#DejaVuSans-69" x="176.757812"/>
      <use xlink:href="#DejaVuSans-74" x="204.541016"/>
      <use xlink:href="#DejaVuSans-69" x="243.75"/>
      <use xlink:href="#DejaVuSans-76" x="271.533203"/>
      <use xlink:href="#DejaVuSans-65" x="330.712891"/>
      <use xlink:href="#DejaVuSans-6c" x="392.236328"/>
      <use xlink:href="#DejaVuSans-79" x="420.019531"/>
     </g>
    </g>
    <g clip-path="url(#p564e563d3e)">
     <!-- regulates -->
     <g transform="translate(209.323134 188.358281)scale(0.1 -0.1)">
      <defs>
       <path id="DejaVuSans-72" d="M 2631 2963 
Q 2534 3019 2420 3045 
Q 2306 3072 2169 3072 
Q 1681 3072 1420 2755 
Q 1159 2438 1159 1844 
L 1159 0 
L 581 0 
L 581 3500 
L 1159 3500 
L 1159 2956 
Q 1341 3275 1631 3429 
Q 1922 3584 2338 3584 
Q 2397 3584 2469 3576 
Q 2541 3569 2628 3553 
L 2631 2963 
z
" transform="scale(0.015625)"/>
       <path id="DejaVuSans-67" d="M 2906 1791 
Q 2906 2416 2648 2759 
Q 2391 3103 1925 3103 
Q 1463 3103 1205 2759 
Q 947 2416 947 1791 
Q 947 1169 1205 825 
Q 1463 481 1925 481 
Q 2391 481 2648 825 
Q 2906 1169 2906 1791 
z
M 3481 434 
Q 3481 -459 3084 -895 
Q 2688 -1331 1869 -1331 
Q 1566 -1331 1297 -1286 
Q 1028 -1241 775 -1147 
L 775 -588 
Q 1028 -725 1275 -790 
Q 1522 -856 1778 -856 
Q 2344 -856 2625 -561 
Q 2906 -266 2906 331 
L 2906 616 
Q 2728 306 2450 153 
Q 2172 0 1784 0 
Q 1141 0 747 490 
Q 353 981 353 1791 
Q 353 2603 747 3093 
Q 1141 3584 1784 3584 
Q 2172 3584 2450 3431 
Q 2728 3278 2906 2969 
L 2906 3500 
L 3481 3500 
L 3481 434 
z
" transform="scale(0.015625)"/>
       <path id="DejaVuSans-75" d="M 544 1381 
L 544 3500 
L 1119 3500 
L 1119 1403 
Q 1119 906 1312 657 
Q 1506 409 1894 409 
Q 2359 409 2629 706 
Q 2900 1003 2900 1516 
L 2900 3500 
L 3475 3500 
L 3475 0 
L 2900 0 
L 2900 538 
Q 2691 219 2414 64 
Q 2138 -91 1772 -91 
Q 1169 -91 856 284 
Q 544 659 544 1381 
z
M 1991 3584 
L 1991 3584 
z
" transform="scale(0.015625)"/>
       <path id="DejaVuSans-61" d="M 2194 1759 
Q 1497 1759 1228 1600 
Q 959 1441 959 1056 
Q 959 750 1161 570 
Q 1363 391 1709 391 
Q 2188 391 2477 730 
Q 2766 1069 2766 1631 
L 2766 1759 
L 2194 1759 
z
M 3341 1997 
L 3341 0 
L 2766 0 
L 2766 531 
Q 2569 213 2275 61 
Q 1981 -91 1556 -91 
Q 1019 -91 701 211 
Q 384 513 384 1019 
Q 384 1609 779 1909 
Q 1175 2209 1959 2209 
L 2766 2209 
L 2766 2266 
Q 2766 2663 2505 2880 
Q 2244 3097 1772 3097 
Q 1472 3097 1187 3025 
Q 903 2953 641 2809 
L 641 3341 
Q 956 3463 1253 3523 
Q 1550 3584 1831 3584 
Q 2591 3584 2966 3190 
Q 3341 2797 3341 1997 
z
" transform="scale(0.015625)"/>
      </defs>
      <use xlink:href="#DejaVuSans-72"/>
      <use xlink:href="#DejaVuSans-65" x="38.863281"/>
      <use xlink:href="#DejaVuSans-67" x="100.386719"/>
      <use xlink:href="#DejaVuSans-75" x="163.863281"/>
      <use xlink:href="#DejaVuSans-6c" x="227.242188"/>
      <use xlink:href="#DejaVuSans-61" x="255.025391"/>
      <use xlink:href="#DejaVuSans-74" x="316.304688"/>
      <use xlink:href="#DejaVuSans-65" x="355.513672"/>
      <use xlink:href="#DejaVuSans-73" x="417.037109"/>
     </g>
    </g>
   </g>
   <g id="text_2">
    <g id="patch_6">
     <path d="M 494.439062 193.437969 
L 542.360937 193.437969 
Q 545.360937 193.437969 545.360937 190.437969 
L 545.360937 169.562031 
Q 545.360937 166.562031 542.360937 166.562031 
L 494.439062 166.562031 
Q 491.439062 166.562031 491.439062 169.562031 
L 491.439062 190.437969 
Q 491.439062 193.437969 494.439062 193.437969 
z
" clip-path="url(#p564e563d3e)" style="fill: #ffffff; stroke: #ffffff; stroke-linejoin: miter"/>
    </g>
    <g clip-path="url(#p564e563d3e)">
     <!-- positively -->
     <g transform="translate(494.439062 177.160469)scale(0.1 -0.1)">
      <use xlink:href="#DejaVuSans-70"/>
      <use xlink:href="#DejaVuSans-6f" x="63.476562"/>
      <use xlink:href="#DejaVuSans-73" x="124.658203"/>
      <use xlink:href="#DejaVuSans-69" x="176.757812"/>
      <use xlink:href="#DejaVuSans-74" x="204.541016"/>
      <use xlink:href="#DejaVuSans-69" x="243.75"/>
      <use xlink:href="#DejaVuSans-76" x="271.533203"/>
      <use xlink:href="#DejaVuSans-65" x="330.712891"/>
      <use xlink:href="#DejaVuSans-6c" x="392.236328"/>
      <use xlink:href="#DejaVuSans-79" x="420.019531"/>
     </g>
    </g>
    <g clip-path="url(#p564e563d3e)">
     <!-- regulates -->
     <g transform="translate(494.942969 188.358281)scale(0.1 -0.1)">
      <use xlink:href="#DejaVuSans-72"/>
      <use xlink:href="#DejaVuSans-65" x="38.863281"/>
      <use xlink:href="#DejaVuSans-67" x="100.386719"/>
      <use xlink:href="#DejaVuSans-75" x="163.863281"/>
      <use xlink:href="#DejaVuSans-6c" x="227.242188"/>
      <use xlink:href="#DejaVuSans-61" x="255.025391"/>
      <use xlink:href="#DejaVuSans-74" x="316.304688"/>
      <use xlink:href="#DejaVuSans-65" x="355.513672"/>
      <use xlink:href="#DejaVuSans-73" x="417.037109"/>
     </g>
    </g>
   </g>
   <g id="text_3">
    <g id="patch_7">
     <path d="M 766.363585 193.437969 
L 841.676085 193.437969 
Q 844.676085 193.437969 844.676085 190.437969 
L 844.676085 169.562031 
Q 844.676085 166.562031 841.676085 166.562031 
L 766.363585 166.562031 
Q 763.363585 166.562031 763.363585 169.562031 
L 763.363585 190.437969 
Q 763.363585 193.437969 766.363585 193.437969 
z
" clip-path="url(#p564e563d3e)" style="fill: #ffffff; stroke: #ffffff; stroke-linejoin: miter"/>
    </g>
    <g clip-path="url(#p564e563d3e)">
     <!-- negatively -->
     <g transform="translate(777.802647 177.160469)scale(0.1 -0.1)">
      <defs>
       <path id="DejaVuSans-6e" d="M 3513 2113 
L 3513 0 
L 2938 0 
L 2938 2094 
Q 2938 2591 2744 2837 
Q 2550 3084 2163 3084 
Q 1697 3084 1428 2787 
Q 1159 2491 1159 1978 
L 1159 0 
L 581 0 
L 581 3500 
L 1159 3500 
L 1159 2956 
Q 1366 3272 1645 3428 
Q 1925 3584 2291 3584 
Q 2894 3584 3203 3211 
Q 3513 2838 3513 2113 
z
" transform="scale(0.015625)"/>
      </defs>
      <use xlink:href="#DejaVuSans-6e"/>
      <use xlink:href="#DejaVuSans-65" x="63.378906"/>
      <use xlink:href="#DejaVuSans-67" x="124.902344"/>
      <use xlink:href="#DejaVuSans-61" x="188.378906"/>
      <use xlink:href="#DejaVuSans-74" x="249.658203"/>
      <use xlink:href="#DejaVuSans-69" x="288.867188"/>
      <use xlink:href="#DejaVuSans-76" x="316.650391"/>
      <use xlink:href="#DejaVuSans-65" x="375.830078"/>
      <use xlink:href="#DejaVuSans-6c" x="437.353516"/>
      <use xlink:href="#DejaVuSans-79" x="465.136719"/>
     </g>
    </g>
    <g clip-path="url(#p564e563d3e)">
     <!-- correlated with -->
     <g transform="translate(766.363585 188.358281)scale(0.1 -0.1)">
      <defs>
       <path id="DejaVuSans-63" d="M 3122 3366 
L 3122 2828 
Q 2878 2963 2633 3030 
Q 2388 3097 2138 3097 
Q 1578 3097 1268 2742 
Q 959 2388 959 1747 
Q 959 1106 1268 751 
Q 1578 397 2138 397 
Q 2388 397 2633 464 
Q 2878 531 3122 666 
L 3122 134 
Q 2881 22 2623 -34 
Q 2366 -91 2075 -91 
Q 1284 -91 818 406 
Q 353 903 353 1747 
Q 353 2603 823 3093 
Q 1294 3584 2113 3584 
Q 2378 3584 2631 3529 
Q 2884 3475 3122 3366 
z
" transform="scale(0.015625)"/>
       <path id="DejaVuSans-64" d="M 2906 2969 
L 2906 4863 
L 3481 4863 
L 3481 0 
L 2906 0 
L 2906 525 
Q 2725 213 2448 61 
Q 2172 -91 1784 -91 
Q 1150 -91 751 415 
Q 353 922 353 1747 
Q 353 2572 751 3078 
Q 1150 3584 1784 3584 
Q 2172 3584 2448 3432 
Q 2725 3281 2906 2969 
z
M 947 1747 
Q 947 1113 1208 752 
Q 1469 391 1925 391 
Q 2381 391 2643 752 
Q 2906 1113 2906 1747 
Q 2906 2381 2643 2742 
Q 2381 3103 1925 3103 
Q 1469 3103 1208 2742 
Q 947 2381 947 1747 
z
" transform="scale(0.015625)"/>
       <path id="DejaVuSans-20" transform="scale(0.015625)"/>
       <path id="DejaVuSans-77" d="M 269 3500 
L 844 3500 
L 1563 769 
L 2278 3500 
L 2956 3500 
L 3675 769 
L 4391 3500 
L 4966 3500 
L 4050 0 
L 3372 0 
L 2619 2869 
L 1863 0 
L 1184 0 
L 269 3500 
z
" transform="scale(0.015625)"/>
       <path id="DejaVuSans-68" d="M 3513 2113 
L 3513 0 
L 2938 0 
L 2938 2094 
Q 2938 2591 2744 2837 
Q 2550 3084 2163 3084 
Q 1697 3084 1428 2787 
Q 1159 2491 1159 1978 
L 1159 0 
L 581 0 
L 581 4863 
L 1159 4863 
L 1159 2956 
Q 1366 3272 1645 3428 
Q 1925 3584 2291 3584 
Q 2894 3584 3203 3211 
Q 3513 2838 3513 2113 
z
" transform="scale(0.015625)"/>
      </defs>
      <use xlink:href="#DejaVuSans-63"/>
      <use xlink:href="#DejaVuSans-6f" x="54.980469"/>
      <use xlink:href="#DejaVuSans-72" x="116.162109"/>
      <use xlink:href="#DejaVuSans-72" x="155.525391"/>
      <use xlink:href="#DejaVuSans-65" x="194.388672"/>
      <use xlink:href="#DejaVuSans-6c" x="255.912109"/>
      <use xlink:href="#DejaVuSans-61" x="283.695312"/>
      <use xlink:href="#DejaVuSans-74" x="344.974609"/>
      <use xlink:href="#DejaVuSans-65" x="384.183594"/>
      <use xlink:href="#DejaVuSans-64" x="445.707031"/>
      <use xlink:href="#DejaVuSans-20" x="509.183594"/>
      <use xlink:href="#DejaVuSans-77" x="540.970703"/>
      <use xlink:href="#DejaVuSans-69" x="622.757812"/>
      <use xlink:href="#DejaVuSans-74" x="650.541016"/>
      <use xlink:href="#DejaVuSans-68" x="689.75"/>
     </g>
    </g>
   </g>
   <g id="PathCollection_1">
    <defs>
     <path id="C0_0_5a475b7f8e" d="M 0 52.440442 
C 13.907368 52.440442 27.246998 46.914987 37.080992 37.080992 
C 46.914987 27.246998 52.440442 13.907368 52.440442 -0 
C 52.440442 -13.907368 46.914987 -27.246998 37.080992 -37.080992 
C 27.246998 -46.914987 13.907368 -52.440442 0 -52.440442 
C -13.907368 -52.440442 -27.246998 -46.914987 -37.080992 -37.080992 
C -46.914987 -27.246998 -52.440442 -13.907368 -52.440442 0 
C -52.440442 13.907368 -46.914987 27.246998 -37.080992 37.080992 
C -27.246998 46.914987 -13.907368 52.440442 0 52.440442 
z
"/>
    </defs>
    <g clip-path="url(#p564e563d3e)">
     <use xlink:href="#C0_0_5a475b7f8e" x="89.970248" y="180" style="fill: #01c472; stroke: #01c472"/>
    </g>
    <g clip-path="url(#p564e563d3e)">
     <use xlink:href="#C0_0_5a475b7f8e" x="375.590083" y="180" style="fill: #8c88d7; stroke: #8c88d7"/>
    </g>
    <g clip-path="url(#p564e563d3e)">
     <use xlink:href="#C0_0_5a475b7f8e" x="661.209917" y="180" style="fill: #b75970; stroke: #b75970"/>
    </g>
    <g clip-path="url(#p564e563d3e)">
     <use xlink:href="#C0_0_5a475b7f8e" x="946.829752" y="180" style="fill: #70c6ca; stroke: #70c6ca"/>
    </g>
   </g>
   <g id="text_4">
    <path d="M 623.751167 162.09825 
L 623.751167 165.385125 
L 625.239917 165.385125 
Q 626.066792 165.385125 626.516792 164.957625 
Q 626.968667 164.530125 626.968667 163.738875 
Q 626.968667 162.95325 626.516792 162.52575 
Q 626.066792 162.09825 625.239917 162.09825 
L 623.751167 162.09825 
z
M 622.568042 161.125125 
L 625.239917 161.125125 
Q 626.711792 161.125125 627.463667 161.79075 
Q 628.217417 162.456375 628.217417 163.738875 
Q 628.217417 165.0345 627.463667 165.696375 
Q 626.711792 166.35825 625.239917 166.35825 
L 623.751167 166.35825 
L 623.751167 169.873875 
L 622.568042 169.873875 
L 622.568042 161.125125 
z
M 629.487495 163.311375 
L 630.56562 163.311375 
L 630.56562 169.873875 
L 629.487495 169.873875 
L 629.487495 163.311375 
z
M 629.487495 160.75575 
L 630.56562 160.75575 
L 630.56562 162.122625 
L 629.487495 162.122625 
L 629.487495 160.75575 
z
M 637.139605 166.51575 
Q 637.139605 165.343875 636.655855 164.70075 
Q 636.17398 164.05575 635.30023 164.05575 
Q 634.43398 164.05575 633.95023 164.70075 
Q 633.46648 165.343875 633.46648 166.51575 
Q 633.46648 167.682 633.95023 168.327 
Q 634.43398 168.972 635.30023 168.972 
Q 636.17398 168.972 636.655855 168.327 
Q 637.139605 167.682 637.139605 166.51575 
z
M 638.21773 169.060125 
Q 638.21773 170.7345 637.473355 171.552 
Q 636.730855 172.3695 635.19523 172.3695 
Q 634.627105 172.3695 634.12273 172.285125 
Q 633.618355 172.20075 633.14398 172.0245 
L 633.14398 170.976375 
Q 633.618355 171.23325 634.08148 171.355125 
Q 634.544605 171.478875 635.024605 171.478875 
Q 636.085855 171.478875 636.61273 170.92575 
Q 637.139605 170.372625 637.139605 169.25325 
L 637.139605 168.718875 
Q 636.805855 169.300125 636.284605 169.587 
Q 635.763355 169.873875 635.035855 169.873875 
Q 633.83023 169.873875 633.09148 168.955125 
Q 632.35273 168.0345 632.35273 166.51575 
Q 632.35273 164.99325 633.09148 164.0745 
Q 633.83023 163.153875 635.035855 163.153875 
Q 635.763355 163.153875 636.284605 163.44075 
Q 636.805855 163.727625 637.139605 164.307 
L 637.139605 163.311375 
L 638.21773 163.311375 
L 638.21773 169.060125 
z
M 645.548042 164.571375 
Q 645.953042 163.843875 646.515542 163.498875 
Q 647.078042 163.153875 647.839292 163.153875 
Q 648.864917 163.153875 649.421792 163.872 
Q 649.978667 164.58825 649.978667 165.912 
L 649.978667 169.873875 
L 648.894917 169.873875 
L 648.894917 165.947625 
Q 648.894917 165.0045 648.559292 164.548875 
Q 648.225542 164.091375 647.541167 164.091375 
Q 646.703042 164.091375 646.215542 164.64825 
Q 645.729917 165.20325 645.729917 166.165125 
L 645.729917 169.873875 
L 644.646167 169.873875 
L 644.646167 165.947625 
Q 644.646167 164.998875 644.312417 164.545125 
Q 643.978667 164.091375 643.281167 164.091375 
Q 642.454292 164.091375 641.966792 164.650125 
Q 641.481167 165.208875 641.481167 166.165125 
L 641.481167 169.873875 
L 640.397417 169.873875 
L 640.397417 163.311375 
L 641.481167 163.311375 
L 641.481167 164.331375 
Q 641.850542 163.727625 642.366167 163.44075 
Q 642.881792 163.153875 643.590542 163.153875 
Q 644.306792 163.153875 644.807417 163.517625 
Q 645.308042 163.8795 645.548042 164.571375 
z
M 657.74187 166.322625 
L 657.74187 166.8495 
L 652.78437 166.8495 
Q 652.85562 167.96325 653.45562 168.546375 
Q 654.05562 169.1295 655.12812 169.1295 
Q 655.748745 169.1295 656.33187 168.977625 
Q 656.914995 168.82575 657.49062 168.520125 
L 657.49062 169.540125 
Q 656.90937 169.78575 656.299995 169.915125 
Q 655.69062 170.0445 655.06437 170.0445 
Q 653.49312 170.0445 652.576245 169.131375 
Q 651.65937 168.216375 651.65937 166.656375 
Q 651.65937 165.04575 652.52937 164.10075 
Q 653.39937 163.153875 654.87687 163.153875 
Q 656.20062 163.153875 656.971245 164.007 
Q 657.74187 164.85825 657.74187 166.322625 
z
M 656.663745 166.00575 
Q 656.652495 165.122625 656.168745 164.59575 
Q 655.684995 164.067 654.88812 164.067 
Q 653.986245 164.067 653.44437 164.577 
Q 652.902495 165.087 652.819995 166.01325 
L 656.663745 166.00575 
z
M 664.967183 165.912 
L 664.967183 169.873875 
L 663.889058 169.873875 
L 663.889058 165.947625 
Q 663.889058 165.01575 663.525308 164.5545 
Q 663.161558 164.091375 662.435933 164.091375 
Q 661.562183 164.091375 661.057808 164.64825 
Q 660.553433 165.20325 660.553433 166.165125 
L 660.553433 169.873875 
L 659.469683 169.873875 
L 659.469683 163.311375 
L 660.553433 163.311375 
L 660.553433 164.331375 
Q 660.941558 163.738875 661.464683 163.446375 
Q 661.989683 163.153875 662.675933 163.153875 
Q 663.806558 163.153875 664.385933 163.85325 
Q 664.967183 164.552625 664.967183 165.912 
z
M 668.183277 161.447625 
L 668.183277 163.311375 
L 670.403277 163.311375 
L 670.403277 164.1495 
L 668.183277 164.1495 
L 668.183277 167.712 
Q 668.183277 168.5145 668.402652 168.74325 
Q 668.622027 168.972 669.297027 168.972 
L 670.403277 168.972 
L 670.403277 169.873875 
L 669.297027 169.873875 
Q 668.048277 169.873875 667.573902 169.408875 
Q 667.099527 168.942 667.099527 167.712 
L 667.099527 164.1495 
L 666.308277 164.1495 
L 666.308277 163.311375 
L 667.099527 163.311375 
L 667.099527 161.447625 
L 668.183277 161.447625 
z
M 674.804605 166.57575 
Q 673.49773 166.57575 672.993355 166.873875 
Q 672.48898 167.172 672.48898 167.893875 
Q 672.48898 168.467625 672.86773 168.805125 
Q 673.24648 169.14075 673.89523 169.14075 
Q 674.793355 169.14075 675.33523 168.505125 
Q 675.877105 167.8695 675.877105 166.81575 
L 675.877105 166.57575 
L 674.804605 166.57575 
z
M 676.95523 166.1295 
L 676.95523 169.873875 
L 675.877105 169.873875 
L 675.877105 168.87825 
Q 675.50773 169.4745 674.95648 169.7595 
Q 674.40523 170.0445 673.608355 170.0445 
Q 672.60148 170.0445 672.00523 169.47825 
Q 671.410855 168.912 671.410855 167.96325 
Q 671.410855 166.857 672.15148 166.2945 
Q 672.89398 165.732 674.36398 165.732 
L 675.877105 165.732 
L 675.877105 165.625125 
Q 675.877105 164.88075 675.38773 164.473875 
Q 674.898355 164.067 674.013355 164.067 
Q 673.450855 164.067 672.91648 164.202 
Q 672.38398 164.337 671.89273 164.607 
L 671.89273 163.6095 
Q 672.483355 163.38075 673.04023 163.26825 
Q 673.597105 163.153875 674.12398 163.153875 
Q 675.54898 163.153875 676.252105 163.892625 
Q 676.95523 164.6295 676.95523 166.1295 
z
M 680.24187 161.447625 
L 680.24187 163.311375 
L 682.46187 163.311375 
L 682.46187 164.1495 
L 680.24187 164.1495 
L 680.24187 167.712 
Q 680.24187 168.5145 680.461245 168.74325 
Q 680.68062 168.972 681.35562 168.972 
L 682.46187 168.972 
L 682.46187 169.873875 
L 681.35562 169.873875 
Q 680.10687 169.873875 679.632495 169.408875 
Q 679.15812 168.942 679.15812 167.712 
L 679.15812 164.1495 
L 678.36687 164.1495 
L 678.36687 163.311375 
L 679.15812 163.311375 
L 679.15812 161.447625 
L 680.24187 161.447625 
z
M 683.880074 163.311375 
L 684.958199 163.311375 
L 684.958199 169.873875 
L 683.880074 169.873875 
L 683.880074 163.311375 
z
M 683.880074 160.75575 
L 684.958199 160.75575 
L 684.958199 162.122625 
L 683.880074 162.122625 
L 683.880074 160.75575 
z
M 689.756558 164.067 
Q 688.890308 164.067 688.385933 164.743875 
Q 687.881558 165.42075 687.881558 166.59825 
Q 687.881558 167.77575 688.382183 168.452625 
Q 688.884683 169.1295 689.756558 169.1295 
Q 690.619058 169.1295 691.121558 168.45075 
Q 691.625933 167.770125 691.625933 166.59825 
Q 691.625933 165.432 691.121558 164.7495 
Q 690.619058 164.067 689.756558 164.067 
z
M 689.756558 163.153875 
Q 691.162808 163.153875 691.965308 164.068875 
Q 692.769683 164.982 692.769683 166.59825 
Q 692.769683 168.208875 691.965308 169.127625 
Q 691.162808 170.0445 689.756558 170.0445 
Q 688.344683 170.0445 687.544058 169.127625 
Q 686.745308 168.208875 686.745308 166.59825 
Q 686.745308 164.982 687.544058 164.068875 
Q 688.344683 163.153875 689.756558 163.153875 
z
M 700.012105 165.912 
L 700.012105 169.873875 
L 698.93398 169.873875 
L 698.93398 165.947625 
Q 698.93398 165.01575 698.57023 164.5545 
Q 698.20648 164.091375 697.480855 164.091375 
Q 696.607105 164.091375 696.10273 164.64825 
Q 695.598355 165.20325 695.598355 166.165125 
L 695.598355 169.873875 
L 694.514605 169.873875 
L 694.514605 163.311375 
L 695.598355 163.311375 
L 695.598355 164.331375 
Q 695.98648 163.738875 696.509605 163.446375 
Q 697.034605 163.153875 697.720855 163.153875 
Q 698.85148 163.153875 699.430855 163.85325 
Q 700.012105 164.552625 700.012105 165.912 
z
" clip-path="url(#p564e563d3e)" style="fill: #ffffff; stroke: #000000; stroke-width: 2"/>
    <path d="M 623.751167 162.09825 
L 623.751167 165.385125 
L 625.239917 165.385125 
Q 626.066792 165.385125 626.516792 164.957625 
Q 626.968667 164.530125 626.968667 163.738875 
Q 626.968667 162.95325 626.516792 162.52575 
Q 626.066792 162.09825 625.239917 162.09825 
L 623.751167 162.09825 
z
M 622.568042 161.125125 
L 625.239917 161.125125 
Q 626.711792 161.125125 627.463667 161.79075 
Q 628.217417 162.456375 628.217417 163.738875 
Q 628.217417 165.0345 627.463667 165.696375 
Q 626.711792 166.35825 625.239917 166.35825 
L 623.751167 166.35825 
L 623.751167 169.873875 
L 622.568042 169.873875 
L 622.568042 161.125125 
z
M 629.487495 163.311375 
L 630.56562 163.311375 
L 630.56562 169.873875 
L 629.487495 169.873875 
L 629.487495 163.311375 
z
M 629.487495 160.75575 
L 630.56562 160.75575 
L 630.56562 162.122625 
L 629.487495 162.122625 
L 629.487495 160.75575 
z
M 637.139605 166.51575 
Q 637.139605 165.343875 636.655855 164.70075 
Q 636.17398 164.05575 635.30023 164.05575 
Q 634.43398 164.05575 633.95023 164.70075 
Q 633.46648 165.343875 633.46648 166.51575 
Q 633.46648 167.682 633.95023 168.327 
Q 634.43398 168.972 635.30023 168.972 
Q 636.17398 168.972 636.655855 168.327 
Q 637.139605 167.682 637.139605 166.51575 
z
M 638.21773 169.060125 
Q 638.21773 170.7345 637.473355 171.552 
Q 636.730855 172.3695 635.19523 172.3695 
Q 634.627105 172.3695 634.12273 172.285125 
Q 633.618355 172.20075 633.14398 172.0245 
L 633.14398 170.976375 
Q 633.618355 171.23325 634.08148 171.355125 
Q 634.544605 171.478875 635.024605 171.478875 
Q 636.085855 171.478875 636.61273 170.92575 
Q 637.139605 170.372625 637.139605 169.25325 
L 637.139605 168.718875 
Q 636.805855 169.300125 636.284605 169.587 
Q 635.763355 169.873875 635.035855 169.873875 
Q 633.83023 169.873875 633.09148 168.955125 
Q 632.35273 168.0345 632.35273 166.51575 
Q 632.35273 164.99325 633.09148 164.0745 
Q 633.83023 163.153875 635.035855 163.153875 
Q 635.763355 163.153875 636.284605 163.44075 
Q 636.805855 163.727625 637.139605 164.307 
L 637.139605 163.311375 
L 638.21773 163.311375 
L 638.21773 169.060125 
z
M 645.548042 164.571375 
Q 645.953042 163.843875 646.515542 163.498875 
Q 647.078042 163.153875 647.839292 163.153875 
Q 648.864917 163.153875 649.421792 163.872 
Q 649.978667 164.58825 649.978667 165.912 
L 649.978667 169.873875 
L 648.894917 169.873875 
L 648.894917 165.947625 
Q 648.894917 165.0045 648.559292 164.548875 
Q 648.225542 164.091375 647.541167 164.091375 
Q 646.703042 164.091375 646.215542 164.64825 
Q 645.729917 165.20325 645.729917 166.165125 
L 645.729917 169.873875 
L 644.646167 169.873875 
L 644.646167 165.947625 
Q 644.646167 164.998875 644.312417 164.545125 
Q 643.978667 164.091375 643.281167 164.091375 
Q 642.454292 164.091375 641.966792 164.650125 
Q 641.481167 165.208875 641.481167 166.165125 
L 641.481167 169.873875 
L 640.397417 169.873875 
L 640.397417 163.311375 
L 641.481167 163.311375 
L 641.481167 164.331375 
Q 641.850542 163.727625 642.366167 163.44075 
Q 642.881792 163.153875 643.590542 163.153875 
Q 644.306792 163.153875 644.807417 163.517625 
Q 645.308042 163.8795 645.548042 164.571375 
z
M 657.74187 166.322625 
L 657.74187 166.8495 
L 652.78437 166.8495 
Q 652.85562 167.96325 653.45562 168.546375 
Q 654.05562 169.1295 655.12812 169.1295 
Q 655.748745 169.1295 656.33187 168.977625 
Q 656.914995 168.82575 657.49062 168.520125 
L 657.49062 169.540125 
Q 656.90937 169.78575 656.299995 169.915125 
Q 655.69062 170.0445 655.06437 170.0445 
Q 653.49312 170.0445 652.576245 169.131375 
Q 651.65937 168.216375 651.65937 166.656375 
Q 651.65937 165.04575 652.52937 164.10075 
Q 653.39937 163.153875 654.87687 163.153875 
Q 656.20062 163.153875 656.971245 164.007 
Q 657.74187 164.85825 657.74187 166.322625 
z
M 656.663745 166.00575 
Q 656.652495 165.122625 656.168745 164.59575 
Q 655.684995 164.067 654.88812 164.067 
Q 653.986245 164.067 653.44437 164.577 
Q 652.902495 165.087 652.819995 166.01325 
L 656.663745 166.00575 
z
M 664.967183 165.912 
L 664.967183 169.873875 
L 663.889058 169.873875 
L 663.889058 165.947625 
Q 663.889058 165.01575 663.525308 164.5545 
Q 663.161558 164.091375 662.435933 164.091375 
Q 661.562183 164.091375 661.057808 164.64825 
Q 660.553433 165.20325 660.553433 166.165125 
L 660.553433 169.873875 
L 659.469683 169.873875 
L 659.469683 163.311375 
L 660.553433 163.311375 
L 660.553433 164.331375 
Q 660.941558 163.738875 661.464683 163.446375 
Q 661.989683 163.153875 662.675933 163.153875 
Q 663.806558 163.153875 664.385933 163.85325 
Q 664.967183 164.552625 664.967183 165.912 
z
M 668.183277 161.447625 
L 668.183277 163.311375 
L 670.403277 163.311375 
L 670.403277 164.1495 
L 668.183277 164.1495 
L 668.183277 167.712 
Q 668.183277 168.5145 668.402652 168.74325 
Q 668.622027 168.972 669.297027 168.972 
L 670.403277 168.972 
L 670.403277 169.873875 
L 669.297027 169.873875 
Q 668.048277 169.873875 667.573902 169.408875 
Q 667.099527 168.942 667.099527 167.712 
L 667.099527 164.1495 
L 666.308277 164.1495 
L 666.308277 163.311375 
L 667.099527 163.311375 
L 667.099527 161.447625 
L 668.183277 161.447625 
z
M 674.804605 166.57575 
Q 673.49773 166.57575 672.993355 166.873875 
Q 672.48898 167.172 672.48898 167.893875 
Q 672.48898 168.467625 672.86773 168.805125 
Q 673.24648 169.14075 673.89523 169.14075 
Q 674.793355 169.14075 675.33523 168.505125 
Q 675.877105 167.8695 675.877105 166.81575 
L 675.877105 166.57575 
L 674.804605 166.57575 
z
M 676.95523 166.1295 
L 676.95523 169.873875 
L 675.877105 169.873875 
L 675.877105 168.87825 
Q 675.50773 169.4745 674.95648 169.7595 
Q 674.40523 170.0445 673.608355 170.0445 
Q 672.60148 170.0445 672.00523 169.47825 
Q 671.410855 168.912 671.410855 167.96325 
Q 671.410855 166.857 672.15148 166.2945 
Q 672.89398 165.732 674.36398 165.732 
L 675.877105 165.732 
L 675.877105 165.625125 
Q 675.877105 164.88075 675.38773 164.473875 
Q 674.898355 164.067 674.013355 164.067 
Q 673.450855 164.067 672.91648 164.202 
Q 672.38398 164.337 671.89273 164.607 
L 671.89273 163.6095 
Q 672.483355 163.38075 673.04023 163.26825 
Q 673.597105 163.153875 674.12398 163.153875 
Q 675.54898 163.153875 676.252105 163.892625 
Q 676.95523 164.6295 676.95523 166.1295 
z
M 680.24187 161.447625 
L 680.24187 163.311375 
L 682.46187 163.311375 
L 682.46187 164.1495 
L 680.24187 164.1495 
L 680.24187 167.712 
Q 680.24187 168.5145 680.461245 168.74325 
Q 680.68062 168.972 681.35562 168.972 
L 682.46187 168.972 
L 682.46187 169.873875 
L 681.35562 169.873875 
Q 680.10687 169.873875 679.632495 169.408875 
Q 679.15812 168.942 679.15812 167.712 
L 679.15812 164.1495 
L 678.36687 164.1495 
L 678.36687 163.311375 
L 679.15812 163.311375 
L 679.15812 161.447625 
L 680.24187 161.447625 
z
M 683.880074 163.311375 
L 684.958199 163.311375 
L 684.958199 169.873875 
L 683.880074 169.873875 
L 683.880074 163.311375 
z
M 683.880074 160.75575 
L 684.958199 160.75575 
L 684.958199 162.122625 
L 683.880074 162.122625 
L 683.880074 160.75575 
z
M 689.756558 164.067 
Q 688.890308 164.067 688.385933 164.743875 
Q 687.881558 165.42075 687.881558 166.59825 
Q 687.881558 167.77575 688.382183 168.452625 
Q 688.884683 169.1295 689.756558 169.1295 
Q 690.619058 169.1295 691.121558 168.45075 
Q 691.625933 167.770125 691.625933 166.59825 
Q 691.625933 165.432 691.121558 164.7495 
Q 690.619058 164.067 689.756558 164.067 
z
M 689.756558 163.153875 
Q 691.162808 163.153875 691.965308 164.068875 
Q 692.769683 164.982 692.769683 166.59825 
Q 692.769683 168.208875 691.965308 169.127625 
Q 691.162808 170.0445 689.756558 170.0445 
Q 688.344683 170.0445 687.544058 169.127625 
Q 686.745308 168.208875 686.745308 166.59825 
Q 686.745308 164.982 687.544058 164.068875 
Q 688.344683 163.153875 689.756558 163.153875 
z
M 700.012105 165.912 
L 700.012105 169.873875 
L 698.93398 169.873875 
L 698.93398 165.947625 
Q 698.93398 165.01575 698.57023 164.5545 
Q 698.20648 164.091375 697.480855 164.091375 
Q 696.607105 164.091375 696.10273 164.64825 
Q 695.598355 165.20325 695.598355 166.165125 
L 695.598355 169.873875 
L 694.514605 169.873875 
L 694.514605 163.311375 
L 695.598355 163.311375 
L 695.598355 164.331375 
Q 695.98648 163.738875 696.509605 163.446375 
Q 697.034605 163.153875 697.720855 163.153875 
Q 698.85148 163.153875 699.430855 163.85325 
Q 700.012105 164.552625 700.012105 165.912 
z
" clip-path="url(#p564e563d3e)" style="fill: #ffffff"/>
    <path d="M 630.340855 182.0625 
L 630.340855 179.713125 
L 628.40773 179.713125 
L 628.40773 178.74 
L 631.51273 178.74 
L 631.51273 182.4975 
Q 630.828355 182.983125 630.00148 183.2325 
Q 629.17648 183.481875 628.23898 183.481875 
Q 626.18773 183.481875 625.02898 182.28375 
Q 623.872105 181.08375 623.872105 178.94625 
Q 623.872105 176.80125 625.02898 175.603125 
Q 626.18773 174.405 628.23898 174.405 
Q 629.09398 174.405 629.864605 174.616875 
Q 630.63523 174.826875 631.285855 175.2375 
L 631.285855 176.4975 
Q 630.629605 175.940625 629.890855 175.659375 
Q 629.152105 175.378125 628.338355 175.378125 
Q 626.73148 175.378125 625.92523 176.274375 
Q 625.120855 177.170625 625.120855 178.94625 
Q 625.120855 180.71625 625.92523 181.6125 
Q 626.73148 182.50875 628.338355 182.50875 
Q 628.964605 182.50875 629.455855 182.4 
Q 629.94898 182.29125 630.340855 182.0625 
z
M 637.226558 175.365 
Q 635.936558 175.365 635.177183 176.326875 
Q 634.419683 177.286875 634.419683 178.94625 
Q 634.419683 180.598125 635.177183 181.56 
Q 635.936558 182.52 637.226558 182.52 
Q 638.514683 182.52 639.268433 181.56 
Q 640.022183 180.598125 640.022183 178.94625 
Q 640.022183 177.286875 639.268433 176.326875 
Q 638.514683 175.365 637.226558 175.365 
z
M 637.226558 174.405 
Q 639.065933 174.405 640.166558 175.63875 
Q 641.269058 176.8725 641.269058 178.94625 
Q 641.269058 181.014375 640.166558 182.248125 
Q 639.065933 183.481875 637.226558 183.481875 
Q 635.381558 183.481875 634.275308 182.251875 
Q 633.170933 181.02 633.170933 178.94625 
Q 633.170933 176.8725 634.275308 175.63875 
Q 635.381558 174.405 637.226558 174.405 
z
M 643.13937 181.8225 
L 644.374995 181.8225 
L 644.374995 183.31125 
L 643.13937 183.31125 
L 643.13937 181.8225 
z
M 643.13937 177.106875 
L 644.374995 177.106875 
L 644.374995 178.59375 
L 643.13937 178.59375 
L 643.13937 177.106875 
z
M 649.589839 175.3425 
Q 648.676714 175.3425 648.215464 176.2425 
Q 647.756089 177.140625 647.756089 178.94625 
Q 647.756089 180.744375 648.215464 181.644375 
Q 648.676714 182.544375 649.589839 182.544375 
Q 650.510464 182.544375 650.969839 181.644375 
Q 651.431089 180.744375 651.431089 178.94625 
Q 651.431089 177.140625 650.969839 176.2425 
Q 650.510464 175.3425 649.589839 175.3425 
z
M 649.589839 174.405 
Q 651.061714 174.405 651.837964 175.569375 
Q 652.614214 176.731875 652.614214 178.94625 
Q 652.614214 181.155 651.837964 182.319375 
Q 651.061714 183.481875 649.589839 183.481875 
Q 648.119839 183.481875 647.343589 182.319375 
Q 646.567339 181.155 646.567339 178.94625 
Q 646.567339 176.731875 647.343589 175.569375 
Q 648.119839 174.405 649.589839 174.405 
z
M 657.224605 175.3425 
Q 656.31148 175.3425 655.85023 176.2425 
Q 655.390855 177.140625 655.390855 178.94625 
Q 655.390855 180.744375 655.85023 181.644375 
Q 656.31148 182.544375 657.224605 182.544375 
Q 658.14523 182.544375 658.604605 181.644375 
Q 659.065855 180.744375 659.065855 178.94625 
Q 659.065855 177.140625 658.604605 176.2425 
Q 658.14523 175.3425 657.224605 175.3425 
z
M 657.224605 174.405 
Q 658.69648 174.405 659.47273 175.569375 
Q 660.24898 176.731875 660.24898 178.94625 
Q 660.24898 181.155 659.47273 182.319375 
Q 658.69648 183.481875 657.224605 183.481875 
Q 655.754605 183.481875 654.978355 182.319375 
Q 654.202105 181.155 654.202105 178.94625 
Q 654.202105 176.731875 654.978355 175.569375 
Q 655.754605 174.405 657.224605 174.405 
z
M 665.581245 175.59375 
L 662.592495 180.264375 
L 665.581245 180.264375 
L 665.581245 175.59375 
z
M 665.269995 174.5625 
L 666.758745 174.5625 
L 666.758745 180.264375 
L 668.007495 180.264375 
L 668.007495 181.24875 
L 666.758745 181.24875 
L 666.758745 183.31125 
L 665.581245 183.31125 
L 665.581245 181.24875 
L 661.632495 181.24875 
L 661.632495 180.106875 
L 665.269995 174.5625 
z
M 673.549761 178.59375 
Q 674.399136 178.775625 674.875386 179.35125 
Q 675.353511 179.925 675.353511 180.76875 
Q 675.353511 182.0625 674.462886 182.773125 
Q 673.572261 183.481875 671.931636 183.481875 
Q 671.382261 183.481875 670.799136 183.373125 
Q 670.216011 183.264375 669.595386 183.046875 
L 669.595386 181.905 
Q 670.086636 182.191875 670.671636 182.338125 
Q 671.258511 182.484375 671.897886 182.484375 
Q 673.009761 182.484375 673.592886 182.045625 
Q 674.176011 181.606875 674.176011 180.76875 
Q 674.176011 179.994375 673.634136 179.559375 
Q 673.092261 179.1225 672.126636 179.1225 
L 671.106636 179.1225 
L 671.106636 178.149375 
L 672.173511 178.149375 
Q 673.045386 178.149375 673.508511 177.800625 
Q 673.971636 177.451875 673.971636 176.795625 
Q 673.971636 176.1225 673.493511 175.7625 
Q 673.017261 175.400625 672.126636 175.400625 
Q 671.639136 175.400625 671.082261 175.5075 
Q 670.525386 175.6125 669.857886 175.83375 
L 669.857886 174.78 
Q 670.532886 174.5925 671.121636 174.49875 
Q 671.710386 174.405 672.231636 174.405 
Q 673.579761 174.405 674.363511 175.018125 
Q 675.149136 175.629375 675.149136 176.671875 
Q 675.149136 177.399375 674.732886 177.9 
Q 674.316636 178.400625 673.549761 178.59375 
z
M 680.850777 175.59375 
L 677.862027 180.264375 
L 680.850777 180.264375 
L 680.850777 175.59375 
z
M 680.539527 174.5625 
L 682.028277 174.5625 
L 682.028277 180.264375 
L 683.277027 180.264375 
L 683.277027 181.24875 
L 682.028277 181.24875 
L 682.028277 183.31125 
L 680.850777 183.31125 
L 680.850777 181.24875 
L 676.902027 181.24875 
L 676.902027 180.106875 
L 680.539527 174.5625 
z
M 684.934292 174.5625 
L 690.559292 174.5625 
L 690.559292 175.066875 
L 687.383042 183.31125 
L 686.147417 183.31125 
L 689.136167 175.56 
L 684.934292 175.56 
L 684.934292 174.5625 
z
M 696.454058 178.59375 
Q 697.303433 178.775625 697.779683 179.35125 
Q 698.257808 179.925 698.257808 180.76875 
Q 698.257808 182.0625 697.367183 182.773125 
Q 696.476558 183.481875 694.835933 183.481875 
Q 694.286558 183.481875 693.703433 183.373125 
Q 693.120308 183.264375 692.499683 183.046875 
L 692.499683 181.905 
Q 692.990933 182.191875 693.575933 182.338125 
Q 694.162808 182.484375 694.802183 182.484375 
Q 695.914058 182.484375 696.497183 182.045625 
Q 697.080308 181.606875 697.080308 180.76875 
Q 697.080308 179.994375 696.538433 179.559375 
Q 695.996558 179.1225 695.030933 179.1225 
L 694.010933 179.1225 
L 694.010933 178.149375 
L 695.077808 178.149375 
Q 695.949683 178.149375 696.412808 177.800625 
Q 696.875933 177.451875 696.875933 176.795625 
Q 696.875933 176.1225 696.397808 175.7625 
Q 695.921558 175.400625 695.030933 175.400625 
Q 694.543433 175.400625 693.986558 175.5075 
Q 693.429683 175.6125 692.762183 175.83375 
L 692.762183 174.78 
Q 693.437183 174.5925 694.025933 174.49875 
Q 694.614683 174.405 695.135933 174.405 
Q 696.484058 174.405 697.267808 175.018125 
Q 698.053433 175.629375 698.053433 176.671875 
Q 698.053433 177.399375 697.637183 177.9 
Q 697.220933 178.400625 696.454058 178.59375 
z
" clip-path="url(#p564e563d3e)" style="fill: #ffffff; stroke: #000000; stroke-width: 2"/>
    <path d="M 630.340855 182.0625 
L 630.340855 179.713125 
L 628.40773 179.713125 
L 628.40773 178.74 
L 631.51273 178.74 
L 631.51273 182.4975 
Q 630.828355 182.983125 630.00148 183.2325 
Q 629.17648 183.481875 628.23898 183.481875 
Q 626.18773 183.481875 625.02898 182.28375 
Q 623.872105 181.08375 623.872105 178.94625 
Q 623.872105 176.80125 625.02898 175.603125 
Q 626.18773 174.405 628.23898 174.405 
Q 629.09398 174.405 629.864605 174.616875 
Q 630.63523 174.826875 631.285855 175.2375 
L 631.285855 176.4975 
Q 630.629605 175.940625 629.890855 175.659375 
Q 629.152105 175.378125 628.338355 175.378125 
Q 626.73148 175.378125 625.92523 176.274375 
Q 625.120855 177.170625 625.120855 178.94625 
Q 625.120855 180.71625 625.92523 181.6125 
Q 626.73148 182.50875 628.338355 182.50875 
Q 628.964605 182.50875 629.455855 182.4 
Q 629.94898 182.29125 630.340855 182.0625 
z
M 637.226558 175.365 
Q 635.936558 175.365 635.177183 176.326875 
Q 634.419683 177.286875 634.419683 178.94625 
Q 634.419683 180.598125 635.177183 181.56 
Q 635.936558 182.52 637.226558 182.52 
Q 638.514683 182.52 639.268433 181.56 
Q 640.022183 180.598125 640.022183 178.94625 
Q 640.022183 177.286875 639.268433 176.326875 
Q 638.514683 175.365 637.226558 175.365 
z
M 637.226558 174.405 
Q 639.065933 174.405 640.166558 175.63875 
Q 641.269058 176.8725 641.269058 178.94625 
Q 641.269058 181.014375 640.166558 182.248125 
Q 639.065933 183.481875 637.226558 183.481875 
Q 635.381558 183.481875 634.275308 182.251875 
Q 633.170933 181.02 633.170933 178.94625 
Q 633.170933 176.8725 634.275308 175.63875 
Q 635.381558 174.405 637.226558 174.405 
z
M 643.13937 181.8225 
L 644.374995 181.8225 
L 644.374995 183.31125 
L 643.13937 183.31125 
L 643.13937 181.8225 
z
M 643.13937 177.106875 
L 644.374995 177.106875 
L 644.374995 178.59375 
L 643.13937 178.59375 
L 643.13937 177.106875 
z
M 649.589839 175.3425 
Q 648.676714 175.3425 648.215464 176.2425 
Q 647.756089 177.140625 647.756089 178.94625 
Q 647.756089 180.744375 648.215464 181.644375 
Q 648.676714 182.544375 649.589839 182.544375 
Q 650.510464 182.544375 650.969839 181.644375 
Q 651.431089 180.744375 651.431089 178.94625 
Q 651.431089 177.140625 650.969839 176.2425 
Q 650.510464 175.3425 649.589839 175.3425 
z
M 649.589839 174.405 
Q 651.061714 174.405 651.837964 175.569375 
Q 652.614214 176.731875 652.614214 178.94625 
Q 652.614214 181.155 651.837964 182.319375 
Q 651.061714 183.481875 649.589839 183.481875 
Q 648.119839 183.481875 647.343589 182.319375 
Q 646.567339 181.155 646.567339 178.94625 
Q 646.567339 176.731875 647.343589 175.569375 
Q 648.119839 174.405 649.589839 174.405 
z
M 657.224605 175.3425 
Q 656.31148 175.3425 655.85023 176.2425 
Q 655.390855 177.140625 655.390855 178.94625 
Q 655.390855 180.744375 655.85023 181.644375 
Q 656.31148 182.544375 657.224605 182.544375 
Q 658.14523 182.544375 658.604605 181.644375 
Q 659.065855 180.744375 659.065855 178.94625 
Q 659.065855 177.140625 658.604605 176.2425 
Q 658.14523 175.3425 657.224605 175.3425 
z
M 657.224605 174.405 
Q 658.69648 174.405 659.47273 175.569375 
Q 660.24898 176.731875 660.24898 178.94625 
Q 660.24898 181.155 659.47273 182.319375 
Q 658.69648 183.481875 657.224605 183.481875 
Q 655.754605 183.481875 654.978355 182.319375 
Q 654.202105 181.155 654.202105 178.94625 
Q 654.202105 176.731875 654.978355 175.569375 
Q 655.754605 174.405 657.224605 174.405 
z
M 665.581245 175.59375 
L 662.592495 180.264375 
L 665.581245 180.264375 
L 665.581245 175.59375 
z
M 665.269995 174.5625 
L 666.758745 174.5625 
L 666.758745 180.264375 
L 668.007495 180.264375 
L 668.007495 181.24875 
L 666.758745 181.24875 
L 666.758745 183.31125 
L 665.581245 183.31125 
L 665.581245 181.24875 
L 661.632495 181.24875 
L 661.632495 180.106875 
L 665.269995 174.5625 
z
M 673.549761 178.59375 
Q 674.399136 178.775625 674.875386 179.35125 
Q 675.353511 179.925 675.353511 180.76875 
Q 675.353511 182.0625 674.462886 182.773125 
Q 673.572261 183.481875 671.931636 183.481875 
Q 671.382261 183.481875 670.799136 183.373125 
Q 670.216011 183.264375 669.595386 183.046875 
L 669.595386 181.905 
Q 670.086636 182.191875 670.671636 182.338125 
Q 671.258511 182.484375 671.897886 182.484375 
Q 673.009761 182.484375 673.592886 182.045625 
Q 674.176011 181.606875 674.176011 180.76875 
Q 674.176011 179.994375 673.634136 179.559375 
Q 673.092261 179.1225 672.126636 179.1225 
L 671.106636 179.1225 
L 671.106636 178.149375 
L 672.173511 178.149375 
Q 673.045386 178.149375 673.508511 177.800625 
Q 673.971636 177.451875 673.971636 176.795625 
Q 673.971636 176.1225 673.493511 175.7625 
Q 673.017261 175.400625 672.126636 175.400625 
Q 671.639136 175.400625 671.082261 175.5075 
Q 670.525386 175.6125 669.857886 175.83375 
L 669.857886 174.78 
Q 670.532886 174.5925 671.121636 174.49875 
Q 671.710386 174.405 672.231636 174.405 
Q 673.579761 174.405 674.363511 175.018125 
Q 675.149136 175.629375 675.149136 176.671875 
Q 675.149136 177.399375 674.732886 177.9 
Q 674.316636 178.400625 673.549761 178.59375 
z
M 680.850777 175.59375 
L 677.862027 180.264375 
L 680.850777 180.264375 
L 680.850777 175.59375 
z
M 680.539527 174.5625 
L 682.028277 174.5625 
L 682.028277 180.264375 
L 683.277027 180.264375 
L 683.277027 181.24875 
L 682.028277 181.24875 
L 682.028277 183.31125 
L 680.850777 183.31125 
L 680.850777 181.24875 
L 676.902027 181.24875 
L 676.902027 180.106875 
L 680.539527 174.5625 
z
M 684.934292 174.5625 
L 690.559292 174.5625 
L 690.559292 175.066875 
L 687.383042 183.31125 
L 686.147417 183.31125 
L 689.136167 175.56 
L 684.934292 175.56 
L 684.934292 174.5625 
z
M 696.454058 178.59375 
Q 697.303433 178.775625 697.779683 179.35125 
Q 698.257808 179.925 698.257808 180.76875 
Q 698.257808 182.0625 697.367183 182.773125 
Q 696.476558 183.481875 694.835933 183.481875 
Q 694.286558 183.481875 693.703433 183.373125 
Q 693.120308 183.264375 692.499683 183.046875 
L 692.499683 181.905 
Q 692.990933 182.191875 693.575933 182.338125 
Q 694.162808 182.484375 694.802183 182.484375 
Q 695.914058 182.484375 696.497183 182.045625 
Q 697.080308 181.606875 697.080308 180.76875 
Q 697.080308 179.994375 696.538433 179.559375 
Q 695.996558 179.1225 695.030933 179.1225 
L 694.010933 179.1225 
L 694.010933 178.149375 
L 695.077808 178.149375 
Q 695.949683 178.149375 696.412808 177.800625 
Q 696.875933 177.451875 696.875933 176.795625 
Q 696.875933 176.1225 696.397808 175.7625 
Q 695.921558 175.400625 695.030933 175.400625 
Q 694.543433 175.400625 693.986558 175.5075 
Q 693.429683 175.6125 692.762183 175.83375 
L 692.762183 174.78 
Q 693.437183 174.5925 694.025933 174.49875 
Q 694.614683 174.405 695.135933 174.405 
Q 696.484058 174.405 697.267808 175.018125 
Q 698.053433 175.629375 698.053433 176.671875 
Q 698.053433 177.399375 697.637183 177.9 
Q 697.220933 178.400625 696.454058 178.59375 
z
" clip-path="url(#p564e563d3e)" style="fill: #ffffff"/>
    <path d="M 611.901167 192.571125 
L 611.901167 195.7755 
L 613.800542 195.7755 
Q 614.754917 195.7755 615.214292 195.379875 
Q 615.675542 194.98425 615.675542 194.1705 
Q 615.675542 193.34925 615.214292 192.961125 
Q 614.754917 192.571125 613.800542 192.571125 
L 611.901167 192.571125 
z
M 611.901167 188.973 
L 611.901167 191.60925 
L 613.654292 191.60925 
Q 614.520542 191.60925 614.944292 191.284875 
Q 615.369917 190.958625 615.369917 190.291125 
Q 615.369917 189.62925 614.944292 189.301125 
Q 614.520542 188.973 613.654292 188.973 
L 611.901167 188.973 
z
M 610.718042 187.999875 
L 613.742417 187.999875 
Q 615.096167 187.999875 615.827417 188.562375 
Q 616.560542 189.124875 616.560542 190.16175 
Q 616.560542 190.966125 616.185542 191.4405 
Q 615.810542 191.914875 615.083042 192.031125 
Q 615.956792 192.218625 616.440542 192.814875 
Q 616.924292 193.40925 616.924292 194.299875 
Q 616.924292 195.47175 616.127417 196.111125 
Q 615.330542 196.748625 613.858667 196.748625 
L 610.718042 196.748625 
L 610.718042 187.999875 
z
M 618.903589 190.186125 
L 619.981714 190.186125 
L 619.981714 196.748625 
L 618.903589 196.748625 
L 618.903589 190.186125 
z
M 618.903589 187.6305 
L 619.981714 187.6305 
L 619.981714 188.997375 
L 618.903589 188.997375 
L 618.903589 187.6305 
z
M 624.780074 190.94175 
Q 623.913824 190.94175 623.409449 191.618625 
Q 622.905074 192.2955 622.905074 193.473 
Q 622.905074 194.6505 623.405699 195.327375 
Q 623.908199 196.00425 624.780074 196.00425 
Q 625.642574 196.00425 626.145074 195.3255 
Q 626.649449 194.644875 626.649449 193.473 
Q 626.649449 192.30675 626.145074 191.62425 
Q 625.642574 190.94175 624.780074 190.94175 
z
M 624.780074 190.028625 
Q 626.186324 190.028625 626.988824 190.943625 
Q 627.793199 191.85675 627.793199 193.473 
Q 627.793199 195.083625 626.988824 196.002375 
Q 626.186324 196.91925 624.780074 196.91925 
Q 623.368199 196.91925 622.567574 196.002375 
Q 621.768824 195.083625 621.768824 193.473 
Q 621.768824 191.85675 622.567574 190.943625 
Q 623.368199 190.028625 624.780074 190.028625 
z
M 629.57937 187.6305 
L 630.657495 187.6305 
L 630.657495 196.748625 
L 629.57937 196.748625 
L 629.57937 187.6305 
z
M 635.455855 190.94175 
Q 634.589605 190.94175 634.08523 191.618625 
Q 633.580855 192.2955 633.580855 193.473 
Q 633.580855 194.6505 634.08148 195.327375 
Q 634.58398 196.00425 635.455855 196.00425 
Q 636.318355 196.00425 636.820855 195.3255 
Q 637.32523 194.644875 637.32523 193.473 
Q 637.32523 192.30675 636.820855 191.62425 
Q 636.318355 190.94175 635.455855 190.94175 
z
M 635.455855 190.028625 
Q 636.862105 190.028625 637.664605 190.943625 
Q 638.46898 191.85675 638.46898 193.473 
Q 638.46898 195.083625 637.664605 196.002375 
Q 636.862105 196.91925 635.455855 196.91925 
Q 634.04398 196.91925 633.243355 196.002375 
Q 632.444605 195.083625 632.444605 193.473 
Q 632.444605 191.85675 633.243355 190.943625 
Q 634.04398 190.028625 635.455855 190.028625 
z
M 644.573277 193.3905 
Q 644.573277 192.218625 644.089527 191.5755 
Q 643.607652 190.9305 642.733902 190.9305 
Q 641.867652 190.9305 641.383902 191.5755 
Q 640.900152 192.218625 640.900152 193.3905 
Q 640.900152 194.55675 641.383902 195.20175 
Q 641.867652 195.84675 642.733902 195.84675 
Q 643.607652 195.84675 644.089527 195.20175 
Q 644.573277 194.55675 644.573277 193.3905 
z
M 645.651402 195.934875 
Q 645.651402 197.60925 644.907027 198.42675 
Q 644.164527 199.24425 642.628902 199.24425 
Q 642.060777 199.24425 641.556402 199.159875 
Q 641.052027 199.0755 640.577652 198.89925 
L 640.577652 197.851125 
Q 641.052027 198.108 641.515152 198.229875 
Q 641.978277 198.353625 642.458277 198.353625 
Q 643.519527 198.353625 644.046402 197.8005 
Q 644.573277 197.247375 644.573277 196.128 
L 644.573277 195.593625 
Q 644.239527 196.174875 643.718277 196.46175 
Q 643.197027 196.748625 642.469527 196.748625 
Q 641.263902 196.748625 640.525152 195.829875 
Q 639.786402 194.90925 639.786402 193.3905 
Q 639.786402 191.868 640.525152 190.94925 
Q 641.263902 190.028625 642.469527 190.028625 
Q 643.197027 190.028625 643.718277 190.3155 
Q 644.239527 190.602375 644.573277 191.18175 
L 644.573277 190.186125 
L 645.651402 190.186125 
L 645.651402 195.934875 
z
M 647.872339 190.186125 
L 648.950464 190.186125 
L 648.950464 196.748625 
L 647.872339 196.748625 
L 647.872339 190.186125 
z
M 647.872339 187.6305 
L 648.950464 187.6305 
L 648.950464 188.997375 
L 647.872339 188.997375 
L 647.872339 187.6305 
z
M 655.929449 190.437375 
L 655.929449 191.446125 
Q 655.471949 191.193 655.012574 191.067375 
Q 654.553199 190.94175 654.084449 190.94175 
Q 653.034449 190.94175 652.453199 191.607375 
Q 651.873824 192.271125 651.873824 193.473 
Q 651.873824 194.674875 652.453199 195.3405 
Q 653.034449 196.00425 654.084449 196.00425 
Q 654.553199 196.00425 655.012574 195.878625 
Q 655.471949 195.753 655.929449 195.499875 
L 655.929449 196.497375 
Q 655.477574 196.707375 654.993824 196.812375 
Q 654.511949 196.91925 653.966324 196.91925 
Q 652.483199 196.91925 651.609449 195.987375 
Q 650.737574 195.0555 650.737574 193.473 
Q 650.737574 191.868 651.618824 190.94925 
Q 652.501949 190.028625 654.037574 190.028625 
Q 654.534449 190.028625 655.008824 190.13175 
Q 655.483199 190.233 655.929449 190.437375 
z
M 660.787105 193.4505 
Q 659.48023 193.4505 658.975855 193.748625 
Q 658.47148 194.04675 658.47148 194.768625 
Q 658.47148 195.342375 658.85023 195.679875 
Q 659.22898 196.0155 659.87773 196.0155 
Q 660.775855 196.0155 661.31773 195.379875 
Q 661.859605 194.74425 661.859605 193.6905 
L 661.859605 193.4505 
L 660.787105 193.4505 
z
M 662.93773 193.00425 
L 662.93773 196.748625 
L 661.859605 196.748625 
L 661.859605 195.753 
Q 661.49023 196.34925 660.93898 196.63425 
Q 660.38773 196.91925 659.590855 196.91925 
Q 658.58398 196.91925 657.98773 196.353 
Q 657.393355 195.78675 657.393355 194.838 
Q 657.393355 193.73175 658.13398 193.16925 
Q 658.87648 192.60675 660.34648 192.60675 
L 661.859605 192.60675 
L 661.859605 192.499875 
Q 661.859605 191.7555 661.37023 191.348625 
Q 660.880855 190.94175 659.995855 190.94175 
Q 659.433355 190.94175 658.89898 191.07675 
Q 658.36648 191.21175 657.87523 191.48175 
L 657.87523 190.48425 
Q 658.465855 190.2555 659.02273 190.143 
Q 659.579605 190.028625 660.10648 190.028625 
Q 661.53148 190.028625 662.234605 190.767375 
Q 662.93773 191.50425 662.93773 193.00425 
z
M 665.157495 187.6305 
L 666.23562 187.6305 
L 666.23562 196.748625 
L 665.157495 196.748625 
L 665.157495 187.6305 
z
M 669.72148 188.973 
L 669.72148 192.259875 
L 671.21023 192.259875 
Q 672.037105 192.259875 672.487105 191.832375 
Q 672.93898 191.404875 672.93898 190.613625 
Q 672.93898 189.828 672.487105 189.4005 
Q 672.037105 188.973 671.21023 188.973 
L 669.72148 188.973 
z
M 668.538355 187.999875 
L 671.21023 187.999875 
Q 672.682105 187.999875 673.43398 188.6655 
Q 674.18773 189.331125 674.18773 190.613625 
Q 674.18773 191.90925 673.43398 192.571125 
Q 672.682105 193.233 671.21023 193.233 
L 669.72148 193.233 
L 669.72148 196.748625 
L 668.538355 196.748625 
L 668.538355 187.999875 
z
M 679.320308 191.193 
Q 679.138433 191.088 678.924683 191.03925 
Q 678.710933 190.988625 678.454058 190.988625 
Q 677.539058 190.988625 677.049683 191.583 
Q 676.560308 192.177375 676.560308 193.291125 
L 676.560308 196.748625 
L 675.476558 196.748625 
L 675.476558 190.186125 
L 676.560308 190.186125 
L 676.560308 191.206125 
Q 676.901558 190.608 677.445308 190.31925 
Q 677.990933 190.028625 678.770933 190.028625 
Q 678.881558 190.028625 679.016558 190.043625 
Q 679.151558 190.05675 679.314683 190.08675 
L 679.320308 191.193 
z
M 682.723902 190.94175 
Q 681.857652 190.94175 681.353277 191.618625 
Q 680.848902 192.2955 680.848902 193.473 
Q 680.848902 194.6505 681.349527 195.327375 
Q 681.852027 196.00425 682.723902 196.00425 
Q 683.586402 196.00425 684.088902 195.3255 
Q 684.593277 194.644875 684.593277 193.473 
Q 684.593277 192.30675 684.088902 191.62425 
Q 683.586402 190.94175 682.723902 190.94175 
z
M 682.723902 190.028625 
Q 684.130152 190.028625 684.932652 190.943625 
Q 685.737027 191.85675 685.737027 193.473 
Q 685.737027 195.083625 684.932652 196.002375 
Q 684.130152 196.91925 682.723902 196.91925 
Q 681.312027 196.91925 680.511402 196.002375 
Q 679.712652 195.083625 679.712652 193.473 
Q 679.712652 191.85675 680.511402 190.943625 
Q 681.312027 190.028625 682.723902 190.028625 
z
M 692.246324 190.437375 
L 692.246324 191.446125 
Q 691.788824 191.193 691.329449 191.067375 
Q 690.870074 190.94175 690.401324 190.94175 
Q 689.351324 190.94175 688.770074 191.607375 
Q 688.190699 192.271125 688.190699 193.473 
Q 688.190699 194.674875 688.770074 195.3405 
Q 689.351324 196.00425 690.401324 196.00425 
Q 690.870074 196.00425 691.329449 195.878625 
Q 691.788824 195.753 692.246324 195.499875 
L 692.246324 196.497375 
Q 691.794449 196.707375 691.310699 196.812375 
Q 690.828824 196.91925 690.283199 196.91925 
Q 688.800074 196.91925 687.926324 195.987375 
Q 687.054449 195.0555 687.054449 193.473 
Q 687.054449 191.868 687.935699 190.94925 
Q 688.818824 190.028625 690.354449 190.028625 
Q 690.851324 190.028625 691.325699 190.13175 
Q 691.800074 190.233 692.246324 190.437375 
z
M 699.734605 193.197375 
L 699.734605 193.72425 
L 694.777105 193.72425 
Q 694.848355 194.838 695.448355 195.421125 
Q 696.048355 196.00425 697.120855 196.00425 
Q 697.74148 196.00425 698.324605 195.852375 
Q 698.90773 195.7005 699.483355 195.394875 
L 699.483355 196.414875 
Q 698.902105 196.6605 698.29273 196.789875 
Q 697.683355 196.91925 697.057105 196.91925 
Q 695.485855 196.91925 694.56898 196.006125 
Q 693.652105 195.091125 693.652105 193.531125 
Q 693.652105 191.9205 694.522105 190.9755 
Q 695.392105 190.028625 696.869605 190.028625 
Q 698.193355 190.028625 698.96398 190.88175 
Q 699.734605 191.733 699.734605 193.197375 
z
M 698.65648 192.8805 
Q 698.64523 191.997375 698.16148 191.4705 
Q 697.67773 190.94175 696.880855 190.94175 
Q 695.97898 190.94175 695.437105 191.45175 
Q 694.89523 191.96175 694.81273 192.888 
L 698.65648 192.8805 
z
M 705.686792 190.37925 
L 705.686792 191.39925 
Q 705.231167 191.164875 704.738042 191.048625 
Q 704.246792 190.9305 703.718042 190.9305 
Q 702.915542 190.9305 702.514292 191.176125 
Q 702.113042 191.42175 702.113042 191.914875 
Q 702.113042 192.289875 702.399917 192.503625 
Q 702.686792 192.717375 703.554917 192.9105 
L 703.924292 192.993 
Q 705.071792 193.238625 705.555542 193.68675 
Q 706.039292 194.134875 706.039292 194.937375 
Q 706.039292 195.852375 705.315542 196.38675 
Q 704.591792 196.91925 703.326167 196.91925 
Q 702.799292 196.91925 702.227417 196.816125 
Q 701.655542 196.713 701.023667 196.508625 
L 701.023667 195.394875 
Q 701.621792 195.706125 702.201167 195.86175 
Q 702.780542 196.0155 703.350542 196.0155 
Q 704.111792 196.0155 704.520542 195.754875 
Q 704.931167 195.49425 704.931167 195.019875 
Q 704.931167 194.581125 704.634917 194.34675 
Q 704.340542 194.112375 703.337417 193.894875 
L 702.962417 193.80675 
Q 701.961167 193.59675 701.514917 193.159875 
Q 701.070542 192.723 701.070542 191.96175 
Q 701.070542 191.0355 701.726792 190.533 
Q 702.383042 190.028625 703.590542 190.028625 
Q 704.186792 190.028625 704.713667 190.11675 
Q 705.242417 190.203 705.686792 190.37925 
z
M 711.938745 190.37925 
L 711.938745 191.39925 
Q 711.48312 191.164875 710.989995 191.048625 
Q 710.498745 190.9305 709.969995 190.9305 
Q 709.167495 190.9305 708.766245 191.176125 
Q 708.364995 191.42175 708.364995 191.914875 
Q 708.364995 192.289875 708.65187 192.503625 
Q 708.938745 192.717375 709.80687 192.9105 
L 710.176245 192.993 
Q 711.323745 193.238625 711.807495 193.68675 
Q 712.291245 194.134875 712.291245 194.937375 
Q 712.291245 195.852375 711.567495 196.38675 
Q 710.843745 196.91925 709.57812 196.91925 
Q 709.051245 196.91925 708.47937 196.816125 
Q 707.907495 196.713 707.27562 196.508625 
L 707.27562 195.394875 
Q 707.873745 195.706125 708.45312 195.86175 
Q 709.032495 196.0155 709.602495 196.0155 
Q 710.363745 196.0155 710.772495 195.754875 
Q 711.18312 195.49425 711.18312 195.019875 
Q 711.18312 194.581125 710.88687 194.34675 
Q 710.592495 194.112375 709.58937 193.894875 
L 709.21437 193.80675 
Q 708.21312 193.59675 707.76687 193.159875 
Q 707.322495 192.723 707.322495 191.96175 
Q 707.322495 191.0355 707.978745 190.533 
Q 708.634995 190.028625 709.842495 190.028625 
Q 710.438745 190.028625 710.96562 190.11675 
Q 711.49437 190.203 711.938745 190.37925 
z
" clip-path="url(#p564e563d3e)" style="fill: #ffffff; stroke: #000000; stroke-width: 2"/>
    <path d="M 611.901167 192.571125 
L 611.901167 195.7755 
L 613.800542 195.7755 
Q 614.754917 195.7755 615.214292 195.379875 
Q 615.675542 194.98425 615.675542 194.1705 
Q 615.675542 193.34925 615.214292 192.961125 
Q 614.754917 192.571125 613.800542 192.571125 
L 611.901167 192.571125 
z
M 611.901167 188.973 
L 611.901167 191.60925 
L 613.654292 191.60925 
Q 614.520542 191.60925 614.944292 191.284875 
Q 615.369917 190.958625 615.369917 190.291125 
Q 615.369917 189.62925 614.944292 189.301125 
Q 614.520542 188.973 613.654292 188.973 
L 611.901167 188.973 
z
M 610.718042 187.999875 
L 613.742417 187.999875 
Q 615.096167 187.999875 615.827417 188.562375 
Q 616.560542 189.124875 616.560542 190.16175 
Q 616.560542 190.966125 616.185542 191.4405 
Q 615.810542 191.914875 615.083042 192.031125 
Q 615.956792 192.218625 616.440542 192.814875 
Q 616.924292 193.40925 616.924292 194.299875 
Q 616.924292 195.47175 616.127417 196.111125 
Q 615.330542 196.748625 613.858667 196.748625 
L 610.718042 196.748625 
L 610.718042 187.999875 
z
M 618.903589 190.186125 
L 619.981714 190.186125 
L 619.981714 196.748625 
L 618.903589 196.748625 
L 618.903589 190.186125 
z
M 618.903589 187.6305 
L 619.981714 187.6305 
L 619.981714 188.997375 
L 618.903589 188.997375 
L 618.903589 187.6305 
z
M 624.780074 190.94175 
Q 623.913824 190.94175 623.409449 191.618625 
Q 622.905074 192.2955 622.905074 193.473 
Q 622.905074 194.6505 623.405699 195.327375 
Q 623.908199 196.00425 624.780074 196.00425 
Q 625.642574 196.00425 626.145074 195.3255 
Q 626.649449 194.644875 626.649449 193.473 
Q 626.649449 192.30675 626.145074 191.62425 
Q 625.642574 190.94175 624.780074 190.94175 
z
M 624.780074 190.028625 
Q 626.186324 190.028625 626.988824 190.943625 
Q 627.793199 191.85675 627.793199 193.473 
Q 627.793199 195.083625 626.988824 196.002375 
Q 626.186324 196.91925 624.780074 196.91925 
Q 623.368199 196.91925 622.567574 196.002375 
Q 621.768824 195.083625 621.768824 193.473 
Q 621.768824 191.85675 622.567574 190.943625 
Q 623.368199 190.028625 624.780074 190.028625 
z
M 629.57937 187.6305 
L 630.657495 187.6305 
L 630.657495 196.748625 
L 629.57937 196.748625 
L 629.57937 187.6305 
z
M 635.455855 190.94175 
Q 634.589605 190.94175 634.08523 191.618625 
Q 633.580855 192.2955 633.580855 193.473 
Q 633.580855 194.6505 634.08148 195.327375 
Q 634.58398 196.00425 635.455855 196.00425 
Q 636.318355 196.00425 636.820855 195.3255 
Q 637.32523 194.644875 637.32523 193.473 
Q 637.32523 192.30675 636.820855 191.62425 
Q 636.318355 190.94175 635.455855 190.94175 
z
M 635.455855 190.028625 
Q 636.862105 190.028625 637.664605 190.943625 
Q 638.46898 191.85675 638.46898 193.473 
Q 638.46898 195.083625 637.664605 196.002375 
Q 636.862105 196.91925 635.455855 196.91925 
Q 634.04398 196.91925 633.243355 196.002375 
Q 632.444605 195.083625 632.444605 193.473 
Q 632.444605 191.85675 633.243355 190.943625 
Q 634.04398 190.028625 635.455855 190.028625 
z
M 644.573277 193.3905 
Q 644.573277 192.218625 644.089527 191.5755 
Q 643.607652 190.9305 642.733902 190.9305 
Q 641.867652 190.9305 641.383902 191.5755 
Q 640.900152 192.218625 640.900152 193.3905 
Q 640.900152 194.55675 641.383902 195.20175 
Q 641.867652 195.84675 642.733902 195.84675 
Q 643.607652 195.84675 644.089527 195.20175 
Q 644.573277 194.55675 644.573277 193.3905 
z
M 645.651402 195.934875 
Q 645.651402 197.60925 644.907027 198.42675 
Q 644.164527 199.24425 642.628902 199.24425 
Q 642.060777 199.24425 641.556402 199.159875 
Q 641.052027 199.0755 640.577652 198.89925 
L 640.577652 197.851125 
Q 641.052027 198.108 641.515152 198.229875 
Q 641.978277 198.353625 642.458277 198.353625 
Q 643.519527 198.353625 644.046402 197.8005 
Q 644.573277 197.247375 644.573277 196.128 
L 644.573277 195.593625 
Q 644.239527 196.174875 643.718277 196.46175 
Q 643.197027 196.748625 642.469527 196.748625 
Q 641.263902 196.748625 640.525152 195.829875 
Q 639.786402 194.90925 639.786402 193.3905 
Q 639.786402 191.868 640.525152 190.94925 
Q 641.263902 190.028625 642.469527 190.028625 
Q 643.197027 190.028625 643.718277 190.3155 
Q 644.239527 190.602375 644.573277 191.18175 
L 644.573277 190.186125 
L 645.651402 190.186125 
L 645.651402 195.934875 
z
M 647.872339 190.186125 
L 648.950464 190.186125 
L 648.950464 196.748625 
L 647.872339 196.748625 
L 647.872339 190.186125 
z
M 647.872339 187.6305 
L 648.950464 187.6305 
L 648.950464 188.997375 
L 647.872339 188.997375 
L 647.872339 187.6305 
z
M 655.929449 190.437375 
L 655.929449 191.446125 
Q 655.471949 191.193 655.012574 191.067375 
Q 654.553199 190.94175 654.084449 190.94175 
Q 653.034449 190.94175 652.453199 191.607375 
Q 651.873824 192.271125 651.873824 193.473 
Q 651.873824 194.674875 652.453199 195.3405 
Q 653.034449 196.00425 654.084449 196.00425 
Q 654.553199 196.00425 655.012574 195.878625 
Q 655.471949 195.753 655.929449 195.499875 
L 655.929449 196.497375 
Q 655.477574 196.707375 654.993824 196.812375 
Q 654.511949 196.91925 653.966324 196.91925 
Q 652.483199 196.91925 651.609449 195.987375 
Q 650.737574 195.0555 650.737574 193.473 
Q 650.737574 191.868 651.618824 190.94925 
Q 652.501949 190.028625 654.037574 190.028625 
Q 654.534449 190.028625 655.008824 190.13175 
Q 655.483199 190.233 655.929449 190.437375 
z
M 660.787105 193.4505 
Q 659.48023 193.4505 658.975855 193.748625 
Q 658.47148 194.04675 658.47148 194.768625 
Q 658.47148 195.342375 658.85023 195.679875 
Q 659.22898 196.0155 659.87773 196.0155 
Q 660.775855 196.0155 661.31773 195.379875 
Q 661.859605 194.74425 661.859605 193.6905 
L 661.859605 193.4505 
L 660.787105 193.4505 
z
M 662.93773 193.00425 
L 662.93773 196.748625 
L 661.859605 196.748625 
L 661.859605 195.753 
Q 661.49023 196.34925 660.93898 196.63425 
Q 660.38773 196.91925 659.590855 196.91925 
Q 658.58398 196.91925 657.98773 196.353 
Q 657.393355 195.78675 657.393355 194.838 
Q 657.393355 193.73175 658.13398 193.16925 
Q 658.87648 192.60675 660.34648 192.60675 
L 661.859605 192.60675 
L 661.859605 192.499875 
Q 661.859605 191.7555 661.37023 191.348625 
Q 660.880855 190.94175 659.995855 190.94175 
Q 659.433355 190.94175 658.89898 191.07675 
Q 658.36648 191.21175 657.87523 191.48175 
L 657.87523 190.48425 
Q 658.465855 190.2555 659.02273 190.143 
Q 659.579605 190.028625 660.10648 190.028625 
Q 661.53148 190.028625 662.234605 190.767375 
Q 662.93773 191.50425 662.93773 193.00425 
z
M 665.157495 187.6305 
L 666.23562 187.6305 
L 666.23562 196.748625 
L 665.157495 196.748625 
L 665.157495 187.6305 
z
M 669.72148 188.973 
L 669.72148 192.259875 
L 671.21023 192.259875 
Q 672.037105 192.259875 672.487105 191.832375 
Q 672.93898 191.404875 672.93898 190.613625 
Q 672.93898 189.828 672.487105 189.4005 
Q 672.037105 188.973 671.21023 188.973 
L 669.72148 188.973 
z
M 668.538355 187.999875 
L 671.21023 187.999875 
Q 672.682105 187.999875 673.43398 188.6655 
Q 674.18773 189.331125 674.18773 190.613625 
Q 674.18773 191.90925 673.43398 192.571125 
Q 672.682105 193.233 671.21023 193.233 
L 669.72148 193.233 
L 669.72148 196.748625 
L 668.538355 196.748625 
L 668.538355 187.999875 
z
M 679.320308 191.193 
Q 679.138433 191.088 678.924683 191.03925 
Q 678.710933 190.988625 678.454058 190.988625 
Q 677.539058 190.988625 677.049683 191.583 
Q 676.560308 192.177375 676.560308 193.291125 
L 676.560308 196.748625 
L 675.476558 196.748625 
L 675.476558 190.186125 
L 676.560308 190.186125 
L 676.560308 191.206125 
Q 676.901558 190.608 677.445308 190.31925 
Q 677.990933 190.028625 678.770933 190.028625 
Q 678.881558 190.028625 679.016558 190.043625 
Q 679.151558 190.05675 679.314683 190.08675 
L 679.320308 191.193 
z
M 682.723902 190.94175 
Q 681.857652 190.94175 681.353277 191.618625 
Q 680.848902 192.2955 680.848902 193.473 
Q 680.848902 194.6505 681.349527 195.327375 
Q 681.852027 196.00425 682.723902 196.00425 
Q 683.586402 196.00425 684.088902 195.3255 
Q 684.593277 194.644875 684.593277 193.473 
Q 684.593277 192.30675 684.088902 191.62425 
Q 683.586402 190.94175 682.723902 190.94175 
z
M 682.723902 190.028625 
Q 684.130152 190.028625 684.932652 190.943625 
Q 685.737027 191.85675 685.737027 193.473 
Q 685.737027 195.083625 684.932652 196.002375 
Q 684.130152 196.91925 682.723902 196.91925 
Q 681.312027 196.91925 680.511402 196.002375 
Q 679.712652 195.083625 679.712652 193.473 
Q 679.712652 191.85675 680.511402 190.943625 
Q 681.312027 190.028625 682.723902 190.028625 
z
M 692.246324 190.437375 
L 692.246324 191.446125 
Q 691.788824 191.193 691.329449 191.067375 
Q 690.870074 190.94175 690.401324 190.94175 
Q 689.351324 190.94175 688.770074 191.607375 
Q 688.190699 192.271125 688.190699 193.473 
Q 688.190699 194.674875 688.770074 195.3405 
Q 689.351324 196.00425 690.401324 196.00425 
Q 690.870074 196.00425 691.329449 195.878625 
Q 691.788824 195.753 692.246324 195.499875 
L 692.246324 196.497375 
Q 691.794449 196.707375 691.310699 196.812375 
Q 690.828824 196.91925 690.283199 196.91925 
Q 688.800074 196.91925 687.926324 195.987375 
Q 687.054449 195.0555 687.054449 193.473 
Q 687.054449 191.868 687.935699 190.94925 
Q 688.818824 190.028625 690.354449 190.028625 
Q 690.851324 190.028625 691.325699 190.13175 
Q 691.800074 190.233 692.246324 190.437375 
z
M 699.734605 193.197375 
L 699.734605 193.72425 
L 694.777105 193.72425 
Q 694.848355 194.838 695.448355 195.421125 
Q 696.048355 196.00425 697.120855 196.00425 
Q 697.74148 196.00425 698.324605 195.852375 
Q 698.90773 195.7005 699.483355 195.394875 
L 699.483355 196.414875 
Q 698.902105 196.6605 698.29273 196.789875 
Q 697.683355 196.91925 697.057105 196.91925 
Q 695.485855 196.91925 694.56898 196.006125 
Q 693.652105 195.091125 693.652105 193.531125 
Q 693.652105 191.9205 694.522105 190.9755 
Q 695.392105 190.028625 696.869605 190.028625 
Q 698.193355 190.028625 698.96398 190.88175 
Q 699.734605 191.733 699.734605 193.197375 
z
M 698.65648 192.8805 
Q 698.64523 191.997375 698.16148 191.4705 
Q 697.67773 190.94175 696.880855 190.94175 
Q 695.97898 190.94175 695.437105 191.45175 
Q 694.89523 191.96175 694.81273 192.888 
L 698.65648 192.8805 
z
M 705.686792 190.37925 
L 705.686792 191.39925 
Q 705.231167 191.164875 704.738042 191.048625 
Q 704.246792 190.9305 703.718042 190.9305 
Q 702.915542 190.9305 702.514292 191.176125 
Q 702.113042 191.42175 702.113042 191.914875 
Q 702.113042 192.289875 702.399917 192.503625 
Q 702.686792 192.717375 703.554917 192.9105 
L 703.924292 192.993 
Q 705.071792 193.238625 705.555542 193.68675 
Q 706.039292 194.134875 706.039292 194.937375 
Q 706.039292 195.852375 705.315542 196.38675 
Q 704.591792 196.91925 703.326167 196.91925 
Q 702.799292 196.91925 702.227417 196.816125 
Q 701.655542 196.713 701.023667 196.508625 
L 701.023667 195.394875 
Q 701.621792 195.706125 702.201167 195.86175 
Q 702.780542 196.0155 703.350542 196.0155 
Q 704.111792 196.0155 704.520542 195.754875 
Q 704.931167 195.49425 704.931167 195.019875 
Q 704.931167 194.581125 704.634917 194.34675 
Q 704.340542 194.112375 703.337417 193.894875 
L 702.962417 193.80675 
Q 701.961167 193.59675 701.514917 193.159875 
Q 701.070542 192.723 701.070542 191.96175 
Q 701.070542 191.0355 701.726792 190.533 
Q 702.383042 190.028625 703.590542 190.028625 
Q 704.186792 190.028625 704.713667 190.11675 
Q 705.242417 190.203 705.686792 190.37925 
z
M 711.938745 190.37925 
L 711.938745 191.39925 
Q 711.48312 191.164875 710.989995 191.048625 
Q 710.498745 190.9305 709.969995 190.9305 
Q 709.167495 190.9305 708.766245 191.176125 
Q 708.364995 191.42175 708.364995 191.914875 
Q 708.364995 192.289875 708.65187 192.503625 
Q 708.938745 192.717375 709.80687 192.9105 
L 710.176245 192.993 
Q 711.323745 193.238625 711.807495 193.68675 
Q 712.291245 194.134875 712.291245 194.937375 
Q 712.291245 195.852375 711.567495 196.38675 
Q 710.843745 196.91925 709.57812 196.91925 
Q 709.051245 196.91925 708.47937 196.816125 
Q 707.907495 196.713 707.27562 196.508625 
L 707.27562 195.394875 
Q 707.873745 195.706125 708.45312 195.86175 
Q 709.032495 196.0155 709.602495 196.0155 
Q 710.363745 196.0155 710.772495 195.754875 
Q 711.18312 195.49425 711.18312 195.019875 
Q 711.18312 194.581125 710.88687 194.34675 
Q 710.592495 194.112375 709.58937 193.894875 
L 709.21437 193.80675 
Q 708.21312 193.59675 707.76687 193.159875 
Q 707.322495 192.723 707.322495 191.96175 
Q 707.322495 191.0355 707.978745 190.533 
Q 708.634995 190.028625 709.842495 190.028625 
Q 710.438745 190.028625 710.96562 190.11675 
Q 711.49437 190.203 711.938745 190.37925 
z
" clip-path="url(#p564e563d3e)" style="fill: #ffffff"/>
   </g>
   <g id="text_5">
    <g clip-path="url(#p564e563d3e)">
     <!-- Methoxsalen -->
     <g transform="translate(51.94806 169.873875)scale(0.12 -0.12)">
      <defs>
       <path id="DejaVuSans-4d" d="M 628 4666 
L 1569 4666 
L 2759 1491 
L 3956 4666 
L 4897 4666 
L 4897 0 
L 4281 0 
L 4281 4097 
L 3078 897 
L 2444 897 
L 1241 4097 
L 1241 0 
L 628 0 
L 628 4666 
z
" transform="scale(0.015625)"/>
       <path id="DejaVuSans-78" d="M 3513 3500 
L 2247 1797 
L 3578 0 
L 2900 0 
L 1881 1375 
L 863 0 
L 184 0 
L 1544 1831 
L 300 3500 
L 978 3500 
L 1906 2253 
L 2834 3500 
L 3513 3500 
z
" transform="scale(0.015625)"/>
      </defs>
      <use xlink:href="#DejaVuSans-4d"/>
      <use xlink:href="#DejaVuSans-65" x="86.279297"/>
      <use xlink:href="#DejaVuSans-74" x="147.802734"/>
      <use xlink:href="#DejaVuSans-68" x="187.011719"/>
      <use xlink:href="#DejaVuSans-6f" x="250.390625"/>
      <use xlink:href="#DejaVuSans-78" x="308.447266"/>
      <use xlink:href="#DejaVuSans-73" x="367.626953"/>
      <use xlink:href="#DejaVuSans-61" x="419.726562"/>
      <use xlink:href="#DejaVuSans-6c" x="481.005859"/>
      <use xlink:href="#DejaVuSans-65" x="508.789062"/>
      <use xlink:href="#DejaVuSans-6e" x="570.3125"/>
     </g>
    </g>
    <g clip-path="url(#p564e563d3e)">
     <!-- MESH:D008730 -->
     <g transform="translate(43.134623 183.31125)scale(0.12 -0.12)">
      <defs>
       <path id="DejaVuSans-45" d="M 628 4666 
L 3578 4666 
L 3578 4134 
L 1259 4134 
L 1259 2753 
L 3481 2753 
L 3481 2222 
L 1259 2222 
L 1259 531 
L 3634 531 
L 3634 0 
L 628 0 
L 628 4666 
z
" transform="scale(0.015625)"/>
       <path id="DejaVuSans-53" d="M 3425 4513 
L 3425 3897 
Q 3066 4069 2747 4153 
Q 2428 4238 2131 4238 
Q 1616 4238 1336 4038 
Q 1056 3838 1056 3469 
Q 1056 3159 1242 3001 
Q 1428 2844 1947 2747 
L 2328 2669 
Q 3034 2534 3370 2195 
Q 3706 1856 3706 1288 
Q 3706 609 3251 259 
Q 2797 -91 1919 -91 
Q 1588 -91 1214 -16 
Q 841 59 441 206 
L 441 856 
Q 825 641 1194 531 
Q 1563 422 1919 422 
Q 2459 422 2753 634 
Q 3047 847 3047 1241 
Q 3047 1584 2836 1778 
Q 2625 1972 2144 2069 
L 1759 2144 
Q 1053 2284 737 2584 
Q 422 2884 422 3419 
Q 422 4038 858 4394 
Q 1294 4750 2059 4750 
Q 2388 4750 2728 4690 
Q 3069 4631 3425 4513 
z
" transform="scale(0.015625)"/>
       <path id="DejaVuSans-48" d="M 628 4666 
L 1259 4666 
L 1259 2753 
L 3553 2753 
L 3553 4666 
L 4184 4666 
L 4184 0 
L 3553 0 
L 3553 2222 
L 1259 2222 
L 1259 0 
L 628 0 
L 628 4666 
z
" transform="scale(0.015625)"/>
       <path id="DejaVuSans-3a" d="M 750 794 
L 1409 794 
L 1409 0 
L 750 0 
L 750 794 
z
M 750 3309 
L 1409 3309 
L 1409 2516 
L 750 2516 
L 750 3309 
z
" transform="scale(0.015625)"/>
       <path id="DejaVuSans-44" d="M 1259 4147 
L 1259 519 
L 2022 519 
Q 2988 519 3436 956 
Q 3884 1394 3884 2338 
Q 3884 3275 3436 3711 
Q 2988 4147 2022 4147 
L 1259 4147 
z
M 628 4666 
L 1925 4666 
Q 3281 4666 3915 4102 
Q 4550 3538 4550 2338 
Q 4550 1131 3912 565 
Q 3275 0 1925 0 
L 628 0 
L 628 4666 
z
" transform="scale(0.015625)"/>
       <path id="DejaVuSans-30" d="M 2034 4250 
Q 1547 4250 1301 3770 
Q 1056 3291 1056 2328 
Q 1056 1369 1301 889 
Q 1547 409 2034 409 
Q 2525 409 2770 889 
Q 3016 1369 3016 2328 
Q 3016 3291 2770 3770 
Q 2525 4250 2034 4250 
z
M 2034 4750 
Q 2819 4750 3233 4129 
Q 3647 3509 3647 2328 
Q 3647 1150 3233 529 
Q 2819 -91 2034 -91 
Q 1250 -91 836 529 
Q 422 1150 422 2328 
Q 422 3509 836 4129 
Q 1250 4750 2034 4750 
z
" transform="scale(0.015625)"/>
       <path id="DejaVuSans-38" d="M 2034 2216 
Q 1584 2216 1326 1975 
Q 1069 1734 1069 1313 
Q 1069 891 1326 650 
Q 1584 409 2034 409 
Q 2484 409 2743 651 
Q 3003 894 3003 1313 
Q 3003 1734 2745 1975 
Q 2488 2216 2034 2216 
z
M 1403 2484 
Q 997 2584 770 2862 
Q 544 3141 544 3541 
Q 544 4100 942 4425 
Q 1341 4750 2034 4750 
Q 2731 4750 3128 4425 
Q 3525 4100 3525 3541 
Q 3525 3141 3298 2862 
Q 3072 2584 2669 2484 
Q 3125 2378 3379 2068 
Q 3634 1759 3634 1313 
Q 3634 634 3220 271 
Q 2806 -91 2034 -91 
Q 1263 -91 848 271 
Q 434 634 434 1313 
Q 434 1759 690 2068 
Q 947 2378 1403 2484 
z
M 1172 3481 
Q 1172 3119 1398 2916 
Q 1625 2713 2034 2713 
Q 2441 2713 2670 2916 
Q 2900 3119 2900 3481 
Q 2900 3844 2670 4047 
Q 2441 4250 2034 4250 
Q 1625 4250 1398 4047 
Q 1172 3844 1172 3481 
z
" transform="scale(0.015625)"/>
       <path id="DejaVuSans-37" d="M 525 4666 
L 3525 4666 
L 3525 4397 
L 1831 0 
L 1172 0 
L 2766 4134 
L 525 4134 
L 525 4666 
z
" transform="scale(0.015625)"/>
       <path id="DejaVuSans-33" d="M 2597 2516 
Q 3050 2419 3304 2112 
Q 3559 1806 3559 1356 
Q 3559 666 3084 287 
Q 2609 -91 1734 -91 
Q 1441 -91 1130 -33 
Q 819 25 488 141 
L 488 750 
Q 750 597 1062 519 
Q 1375 441 1716 441 
Q 2309 441 2620 675 
Q 2931 909 2931 1356 
Q 2931 1769 2642 2001 
Q 2353 2234 1838 2234 
L 1294 2234 
L 1294 2753 
L 1863 2753 
Q 2328 2753 2575 2939 
Q 2822 3125 2822 3475 
Q 2822 3834 2567 4026 
Q 2313 4219 1838 4219 
Q 1578 4219 1281 4162 
Q 984 4106 628 3988 
L 628 4550 
Q 988 4650 1302 4700 
Q 1616 4750 1894 4750 
Q 2613 4750 3031 4423 
Q 3450 4097 3450 3541 
Q 3450 3153 3228 2886 
Q 3006 2619 2597 2516 
z
" transform="scale(0.015625)"/>
      </defs>
      <use xlink:href="#DejaVuSans-4d"/>
      <use xlink:href="#DejaVuSans-45" x="86.279297"/>
      <use xlink:href="#DejaVuSans-53" x="149.462891"/>
      <use xlink:href="#DejaVuSans-48" x="212.939453"/>
      <use xlink:href="#DejaVuSans-3a" x="288.134766"/>
      <use xlink:href="#DejaVuSans-44" x="321.826172"/>
      <use xlink:href="#DejaVuSans-30" x="398.828125"/>
      <use xlink:href="#DejaVuSans-30" x="462.451172"/>
      <use xlink:href="#DejaVuSans-38" x="526.074219"/>
      <use xlink:href="#DejaVuSans-37" x="589.697266"/>
      <use xlink:href="#DejaVuSans-33" x="653.320312"/>
      <use xlink:href="#DejaVuSans-30" x="716.943359"/>
     </g>
    </g>
    <g clip-path="url(#p564e563d3e)">
     <!-- Drug -->
     <g transform="translate(75.272123 196.748625)scale(0.12 -0.12)">
      <use xlink:href="#DejaVuSans-44"/>
      <use xlink:href="#DejaVuSans-72" x="77.001953"/>
      <use xlink:href="#DejaVuSans-75" x="118.115234"/>
      <use xlink:href="#DejaVuSans-67" x="181.494141"/>
     </g>
    </g>
   </g>
   <g id="text_6">
    <g clip-path="url(#p564e563d3e)">
     <!-- Melanocyte -->
     <g transform="translate(341.009458 169.873875)scale(0.12 -0.12)">
      <use xlink:href="#DejaVuSans-4d"/>
      <use xlink:href="#DejaVuSans-65" x="86.279297"/>
      <use xlink:href="#DejaVuSans-6c" x="147.802734"/>
      <use xlink:href="#DejaVuSans-61" x="175.585938"/>
      <use xlink:href="#DejaVuSans-6e" x="236.865234"/>
      <use xlink:href="#DejaVuSans-6f" x="300.244141"/>
      <use xlink:href="#DejaVuSans-63" x="361.425781"/>
      <use xlink:href="#DejaVuSans-79" x="416.40625"/>
      <use xlink:href="#DejaVuSans-74" x="475.585938"/>
      <use xlink:href="#DejaVuSans-65" x="514.794922"/>
     </g>
    </g>
    <g clip-path="url(#p564e563d3e)">
     <!-- CL:0000148 -->
     <g transform="translate(339.31352 183.31125)scale(0.12 -0.12)">
      <defs>
       <path id="DejaVuSans-43" d="M 4122 4306 
L 4122 3641 
Q 3803 3938 3442 4084 
Q 3081 4231 2675 4231 
Q 1875 4231 1450 3742 
Q 1025 3253 1025 2328 
Q 1025 1406 1450 917 
Q 1875 428 2675 428 
Q 3081 428 3442 575 
Q 3803 722 4122 1019 
L 4122 359 
Q 3791 134 3420 21 
Q 3050 -91 2638 -91 
Q 1578 -91 968 557 
Q 359 1206 359 2328 
Q 359 3453 968 4101 
Q 1578 4750 2638 4750 
Q 3056 4750 3426 4639 
Q 3797 4528 4122 4306 
z
" transform="scale(0.015625)"/>
       <path id="DejaVuSans-4c" d="M 628 4666 
L 1259 4666 
L 1259 531 
L 3531 531 
L 3531 0 
L 628 0 
L 628 4666 
z
" transform="scale(0.015625)"/>
       <path id="DejaVuSans-31" d="M 794 531 
L 1825 531 
L 1825 4091 
L 703 3866 
L 703 4441 
L 1819 4666 
L 2450 4666 
L 2450 531 
L 3481 531 
L 3481 0 
L 794 0 
L 794 531 
z
" transform="scale(0.015625)"/>
       <path id="DejaVuSans-34" d="M 2419 4116 
L 825 1625 
L 2419 1625 
L 2419 4116 
z
M 2253 4666 
L 3047 4666 
L 3047 1625 
L 3713 1625 
L 3713 1100 
L 3047 1100 
L 3047 0 
L 2419 0 
L 2419 1100 
L 313 1100 
L 313 1709 
L 2253 4666 
z
" transform="scale(0.015625)"/>
      </defs>
      <use xlink:href="#DejaVuSans-43"/>
      <use xlink:href="#DejaVuSans-4c" x="69.824219"/>
      <use xlink:href="#DejaVuSans-3a" x="125.537109"/>
      <use xlink:href="#DejaVuSans-30" x="159.228516"/>
      <use xlink:href="#DejaVuSans-30" x="222.851562"/>
      <use xlink:href="#DejaVuSans-30" x="286.474609"/>
      <use xlink:href="#DejaVuSans-30" x="350.097656"/>
      <use xlink:href="#DejaVuSans-31" x="413.720703"/>
      <use xlink:href="#DejaVuSans-34" x="477.34375"/>
      <use xlink:href="#DejaVuSans-38" x="540.966797"/>
     </g>
    </g>
    <g clip-path="url(#p564e563d3e)">
     <!-- Cell -->
     <g transform="translate(364.37477 196.748625)scale(0.12 -0.12)">
      <use xlink:href="#DejaVuSans-43"/>
      <use xlink:href="#DejaVuSans-65" x="69.824219"/>
      <use xlink:href="#DejaVuSans-6c" x="131.347656"/>
      <use xlink:href="#DejaVuSans-6c" x="159.130859"/>
     </g>
    </g>
   </g>
   <g id="text_7">
    <g clip-path="url(#p564e563d3e)">
     <!-- Vitiligo -->
     <g transform="translate(926.360377 169.873875)scale(0.12 -0.12)">
      <defs>
       <path id="DejaVuSans-56" d="M 1831 0 
L 50 4666 
L 709 4666 
L 2188 738 
L 3669 4666 
L 4325 4666 
L 2547 0 
L 1831 0 
z
" transform="scale(0.015625)"/>
      </defs>
      <use xlink:href="#DejaVuSans-56"/>
      <use xlink:href="#DejaVuSans-69" x="66.158203"/>
      <use xlink:href="#DejaVuSans-74" x="93.941406"/>
      <use xlink:href="#DejaVuSans-69" x="133.150391"/>
      <use xlink:href="#DejaVuSans-6c" x="160.933594"/>
      <use xlink:href="#DejaVuSans-69" x="188.716797"/>
      <use xlink:href="#DejaVuSans-67" x="216.5"/>
      <use xlink:href="#DejaVuSans-6f" x="279.976562"/>
     </g>
    </g>
    <g clip-path="url(#p564e563d3e)">
     <!-- MESH:D014820 -->
     <g transform="translate(899.994127 183.31125)scale(0.12 -0.12)">
      <defs>
       <path id="DejaVuSans-32" d="M 1228 531 
L 3431 531 
L 3431 0 
L 469 0 
L 469 531 
Q 828 903 1448 1529 
Q 2069 2156 2228 2338 
Q 2531 2678 2651 2914 
Q 2772 3150 2772 3378 
Q 2772 3750 2511 3984 
Q 2250 4219 1831 4219 
Q 1534 4219 1204 4116 
Q 875 4013 500 3803 
L 500 4441 
Q 881 4594 1212 4672 
Q 1544 4750 1819 4750 
Q 2544 4750 2975 4387 
Q 3406 4025 3406 3419 
Q 3406 3131 3298 2873 
Q 3191 2616 2906 2266 
Q 2828 2175 2409 1742 
Q 1991 1309 1228 531 
z
" transform="scale(0.015625)"/>
      </defs>
      <use xlink:href="#DejaVuSans-4d"/>
      <use xlink:href="#DejaVuSans-45" x="86.279297"/>
      <use xlink:href="#DejaVuSans-53" x="149.462891"/>
      <use xlink:href="#DejaVuSans-48" x="212.939453"/>
      <use xlink:href="#DejaVuSans-3a" x="288.134766"/>
      <use xlink:href="#DejaVuSans-44" x="321.826172"/>
      <use xlink:href="#DejaVuSans-30" x="398.828125"/>
      <use xlink:href="#DejaVuSans-31" x="462.451172"/>
      <use xlink:href="#DejaVuSans-34" x="526.074219"/>
      <use xlink:href="#DejaVuSans-38" x="589.697266"/>
      <use xlink:href="#DejaVuSans-32" x="653.320312"/>
      <use xlink:href="#DejaVuSans-30" x="716.943359"/>
     </g>
    </g>
    <g clip-path="url(#p564e563d3e)">
     <!-- Disease -->
     <g transform="translate(923.231002 196.748625)scale(0.12 -0.12)">
      <use xlink:href="#DejaVuSans-44"/>
      <use xlink:href="#DejaVuSans-69" x="77.001953"/>
      <use xlink:href="#DejaVuSans-73" x="104.785156"/>
      <use xlink:href="#DejaVuSans-65" x="156.884766"/>
      <use xlink:href="#DejaVuSans-61" x="218.408203"/>
      <use xlink:href="#DejaVuSans-73" x="279.6875"/>
      <use xlink:href="#DejaVuSans-65" x="331.787109"/>
     </g>
    </g>
   </g>
  </g>
 </g>
 <defs>
  <clipPath id="p564e563d3e">
   <rect x="0" y="0" width="1036.8" height="360"/>
  </clipPath>
 </defs>
</svg>
