<?xml version="1.0" encoding="utf-8" standalone="no"?>
<!DOCTYPE svg PUBLIC "-//W3C//DTD SVG 1.1//EN"
  "http://www.w3.org/Graphics/SVG/1.1/DTD/svg11.dtd">
<svg xmlns:xlink="http://www.w3.org/1999/xlink" width="1036.8pt" height="360pt" viewBox="0 0 1036.8 360" xmlns="http://www.w3.org/2000/svg" version="1.1">
 <metadata>
  <rdf:RDF xmlns:dc="http://purl.org/dc/elements/1.1/" xmlns:cc="http://creativecommons.org/ns#" xmlns:rdf="http://www.w3.org/1999/02/22-rdf-syntax-ns#">
   <cc:Work>
    <dc:type rdf:resource="http://purl.org/dc/dcmitype/StillImage"/>
    <dc:date>2023-02-08T08:50:59.505675</dc:date>
    <dc:format>image/svg+xml</dc:format>
    <dc:creator>
     <cc:Agent>
      <dc:title>Matplotlib v3.5.1, https://matplotlib.org/</dc:title>
     </cc:Agent>
    </dc:creator>
   </cc:Work>
  </rdf:RDF>
 </metadata>
 <defs>
  <style type="text/css">*{stroke-linejoin: round; stroke-linecap: butt}</style>
 </defs>
 <g id="figure_1">
  <g id="patch_1">
   <path d="M 0 360 
L 1036.8 360 
L 1036.8 0 
L 0 0 
z
" style="fill: #ffffff"/>
  </g>
  <g id="axes_1">
   <g id="patch_2">
    <path d="M 142.412623 180 
Q 232.78063 180 319.794535 180 
" clip-path="url(#p2d01857bff)" style="fill: none; stroke: #2ca02c; stroke-width: 3; stroke-linecap: round"/>
    <path d="M 315.794535 178 
L 319.794535 180 
L 315.794535 182 
L 315.794535 178 
z
" clip-path="url(#p2d01857bff)" style="fill: #2ca02c; stroke: #2ca02c; stroke-width: 3; stroke-linecap: round"/>
   </g>
   <g id="patch_3">
    <path d="M 428.032457 180 
Q 518.400465 180 605.41437 180 
" clip-path="url(#p2d01857bff)" style="fill: none; stroke: #2ca02c; stroke-width: 3; stroke-linecap: round"/>
    <path d="M 601.41437 178 
L 605.41437 180 
L 601.41437 182 
L 601.41437 178 
z
" clip-path="url(#p2d01857bff)" style="fill: #2ca02c; stroke: #2ca02c; stroke-width: 3; stroke-linecap: round"/>
   </g>
   <g id="patch_4">
    <path d="M 713.652292 180 
Q 804.020299 180 891.034204 180 
" clip-path="url(#p2d01857bff)" style="fill: none; stroke: #2ca02c; stroke-width: 3; stroke-linecap: round"/>
    <path d="M 887.034204 178 
L 891.034204 180 
L 887.034204 182 
L 887.034204 178 
z
" clip-path="url(#p2d01857bff)" style="fill: #2ca02c; stroke: #2ca02c; stroke-width: 3; stroke-linecap: round"/>
   </g>
   <g id="text_1">
    <g id="patch_5">
     <path d="M 207.941103 193.437969 
L 257.619228 193.437969 
Q 260.619228 193.437969 260.619228 190.437969 
L 260.619228 169.562031 
Q 260.619228 166.562031 257.619228 166.562031 
L 207.941103 166.562031 
Q 204.941103 166.562031 204.941103 169.562031 
L 204.941103 190.437969 
Q 204.941103 193.437969 207.941103 193.437969 
z
" clip-path="url(#p2d01857bff)" style="fill: #ffffff; stroke: #ffffff; stroke-linejoin: miter"/>
    </g>
    <g clip-path="url(#p2d01857bff)">
     <!-- increases -->
     <g transform="translate(209.103603 177.160469)scale(0.1 -0.1)">
      <defs>
       <path id="DejaVuSans-69" d="M 603 3500 
L 1178 3500 
L 1178 0 
L 603 0 
L 603 3500 
z
M 603 4863 
L 1178 4863 
L 1178 4134 
L 603 4134 
L 603 4863 
z
" transform="scale(0.015625)"/>
       <path id="DejaVuSans-6e" d="M 3513 2113 
L 3513 0 
L 2938 0 
L 2938 2094 
Q 2938 2591 2744 2837 
Q 2550 3084 2163 3084 
Q 1697 3084 1428 2787 
Q 1159 2491 1159 1978 
L 1159 0 
L 581 0 
L 581 3500 
L 1159 3500 
L 1159 2956 
Q 1366 3272 1645 3428 
Q 1925 3584 2291 3584 
Q 2894 3584 3203 3211 
Q 3513 2838 3513 2113 
z
" transform="scale(0.015625)"/>
       <path id="DejaVuSans-63" d="M 3122 3366 
L 3122 2828 
Q 2878 2963 2633 3030 
Q 2388 3097 2138 3097 
Q 1578 3097 1268 2742 
Q 959 2388 959 1747 
Q 959 1106 1268 751 
Q 1578 397 2138 397 
Q 2388 397 2633 464 
Q 2878 531 3122 666 
L 3122 134 
Q 2881 22 2623 -34 
Q 2366 -91 2075 -91 
Q 1284 -91 818 406 
Q 353 903 353 1747 
Q 353 2603 823 3093 
Q 1294 3584 2113 3584 
Q 2378 3584 2631 3529 
Q 2884 3475 3122 3366 
z
" transform="scale(0.015625)"/>
       <path id="DejaVuSans-72" d="M 2631 2963 
Q 2534 3019 2420 3045 
Q 2306 3072 2169 3072 
Q 1681 3072 1420 2755 
Q 1159 2438 1159 1844 
L 1159 0 
L 581 0 
L 581 3500 
L 1159 3500 
L 1159 2956 
Q 1341 3275 1631 3429 
Q 1922 3584 2338 3584 
Q 2397 3584 2469 3576 
Q 2541 3569 2628 3553 
L 2631 2963 
z
" transform="scale(0.015625)"/>
       <path id="DejaVuSans-65" d="M 3597 1894 
L 3597 1613 
L 953 1613 
Q 991 1019 1311 708 
Q 1631 397 2203 397 
Q 2534 397 2845 478 
Q 3156 559 3463 722 
L 3463 178 
Q 3153 47 2828 -22 
Q 2503 -91 2169 -91 
Q 1331 -91 842 396 
Q 353 884 353 1716 
Q 353 2575 817 3079 
Q 1281 3584 2069 3584 
Q 2775 3584 3186 3129 
Q 3597 2675 3597 1894 
z
M 3022 2063 
Q 3016 2534 2758 2815 
Q 2500 3097 2075 3097 
Q 1594 3097 1305 2825 
Q 1016 2553 972 2059 
L 3022 2063 
z
" transform="scale(0.015625)"/>
       <path id="DejaVuSans-61" d="M 2194 1759 
Q 1497 1759 1228 1600 
Q 959 1441 959 1056 
Q 959 750 1161 570 
Q 1363 391 1709 391 
Q 2188 391 2477 730 
Q 2766 1069 2766 1631 
L 2766 1759 
L 2194 1759 
z
M 3341 1997 
L 3341 0 
L 2766 0 
L 2766 531 
Q 2569 213 2275 61 
Q 1981 -91 1556 -91 
Q 1019 -91 701 211 
Q 384 513 384 1019 
Q 384 1609 779 1909 
Q 1175 2209 1959 2209 
L 2766 2209 
L 2766 2266 
Q 2766 2663 2505 2880 
Q 2244 3097 1772 3097 
Q 1472 3097 1187 3025 
Q 903 2953 641 2809 
L 641 3341 
Q 956 3463 1253 3523 
Q 1550 3584 1831 3584 
Q 2591 3584 2966 3190 
Q 3341 2797 3341 1997 
z
" transform="scale(0.015625)"/>
       <path id="DejaVuSans-73" d="M 2834 3397 
L 2834 2853 
Q 2591 2978 2328 3040 
Q 2066 3103 1784 3103 
Q 1356 3103 1142 2972 
Q 928 2841 928 2578 
Q 928 2378 1081 2264 
Q 1234 2150 1697 2047 
L 1894 2003 
Q 2506 1872 2764 1633 
Q 3022 1394 3022 966 
Q 3022 478 2636 193 
Q 2250 -91 1575 -91 
Q 1294 -91 989 -36 
Q 684 19 347 128 
L 347 722 
Q 666 556 975 473 
Q 1284 391 1588 391 
Q 1994 391 2212 530 
Q 2431 669 2431 922 
Q 2431 1156 2273 1281 
Q 2116 1406 1581 1522 
L 1381 1569 
Q 847 1681 609 1914 
Q 372 2147 372 2553 
Q 372 3047 722 3315 
Q 1072 3584 1716 3584 
Q 2034 3584 2315 3537 
Q 2597 3491 2834 3397 
z
" transform="scale(0.015625)"/>
      </defs>
      <use xlink:href="#DejaVuSans-69"/>
      <use xlink:href="#DejaVuSans-6e" x="27.783203"/>
      <use xlink:href="#DejaVuSans-63" x="91.162109"/>
      <use xlink:href="#DejaVuSans-72" x="146.142578"/>
      <use xlink:href="#DejaVuSans-65" x="185.005859"/>
      <use xlink:href="#DejaVuSans-61" x="246.529297"/>
      <use xlink:href="#DejaVuSans-73" x="307.808594"/>
      <use xlink:href="#DejaVuSans-65" x="359.908203"/>
      <use xlink:href="#DejaVuSans-73" x="421.431641"/>
     </g>
    </g>
    <g clip-path="url(#p2d01857bff)">
     <!-- activity of -->
     <g transform="translate(207.941103 188.358281)scale(0.1 -0.1)">
      <defs>
       <path id="DejaVuSans-74" d="M 1172 4494 
L 1172 3500 
L 2356 3500 
L 2356 3053 
L 1172 3053 
L 1172 1153 
Q 1172 725 1289 603 
Q 1406 481 1766 481 
L 2356 481 
L 2356 0 
L 1766 0 
Q 1100 0 847 248 
Q 594 497 594 1153 
L 594 3053 
L 172 3053 
L 172 3500 
L 594 3500 
L 594 4494 
L 1172 4494 
z
" transform="scale(0.015625)"/>
       <path id="DejaVuSans-76" d="M 191 3500 
L 800 3500 
L 1894 563 
L 2988 3500 
L 3597 3500 
L 2284 0 
L 1503 0 
L 191 3500 
z
" transform="scale(0.015625)"/>
       <path id="DejaVuSans-79" d="M 2059 -325 
Q 1816 -950 1584 -1140 
Q 1353 -1331 966 -1331 
L 506 -1331 
L 506 -850 
L 844 -850 
Q 1081 -850 1212 -737 
Q 1344 -625 1503 -206 
L 1606 56 
L 191 3500 
L 800 3500 
L 1894 763 
L 2988 3500 
L 3597 3500 
L 2059 -325 
z
" transform="scale(0.015625)"/>
       <path id="DejaVuSans-20" transform="scale(0.015625)"/>
       <path id="DejaVuSans-6f" d="M 1959 3097 
Q 1497 3097 1228 2736 
Q 959 2375 959 1747 
Q 959 1119 1226 758 
Q 1494 397 1959 397 
Q 2419 397 2687 759 
Q 2956 1122 2956 1747 
Q 2956 2369 2687 2733 
Q 2419 3097 1959 3097 
z
M 1959 3584 
Q 2709 3584 3137 3096 
Q 3566 2609 3566 1747 
Q 3566 888 3137 398 
Q 2709 -91 1959 -91 
Q 1206 -91 779 398 
Q 353 888 353 1747 
Q 353 2609 779 3096 
Q 1206 3584 1959 3584 
z
" transform="scale(0.015625)"/>
       <path id="DejaVuSans-66" d="M 2375 4863 
L 2375 4384 
L 1825 4384 
Q 1516 4384 1395 4259 
Q 1275 4134 1275 3809 
L 1275 3500 
L 2222 3500 
L 2222 3053 
L 1275 3053 
L 1275 0 
L 697 0 
L 697 3053 
L 147 3053 
L 147 3500 
L 697 3500 
L 697 3744 
Q 697 4328 969 4595 
Q 1241 4863 1831 4863 
L 2375 4863 
z
" transform="scale(0.015625)"/>
      </defs>
      <use xlink:href="#DejaVuSans-61"/>
      <use xlink:href="#DejaVuSans-63" x="61.279297"/>
      <use xlink:href="#DejaVuSans-74" x="116.259766"/>
      <use xlink:href="#DejaVuSans-69" x="155.46875"/>
      <use xlink:href="#DejaVuSans-76" x="183.251953"/>
      <use xlink:href="#DejaVuSans-69" x="242.431641"/>
      <use xlink:href="#DejaVuSans-74" x="270.214844"/>
      <use xlink:href="#DejaVuSans-79" x="309.423828"/>
      <use xlink:href="#DejaVuSans-20" x="368.603516"/>
      <use xlink:href="#DejaVuSans-6f" x="400.390625"/>
      <use xlink:href="#DejaVuSans-66" x="461.572266"/>
     </g>
    </g>
   </g>
   <g id="text_2">
    <g id="patch_6">
     <path d="M 486.650781 187.839062 
L 550.149219 187.839062 
Q 553.149219 187.839062 553.149219 184.839062 
L 553.149219 175.160937 
Q 553.149219 172.160937 550.149219 172.160937 
L 486.650781 172.160937 
Q 483.650781 172.160937 483.650781 175.160937 
L 483.650781 184.839062 
Q 483.650781 187.839062 486.650781 187.839062 
z
" clip-path="url(#p2d01857bff)" style="fill: #ffffff; stroke: #ffffff; stroke-linejoin: miter"/>
    </g>
    <g clip-path="url(#p2d01857bff)">
     <!-- expressed in -->
     <g transform="translate(486.650781 182.759375)scale(0.1 -0.1)">
      <defs>
       <path id="DejaVuSans-78" d="M 3513 3500 
L 2247 1797 
L 3578 0 
L 2900 0 
L 1881 1375 
L 863 0 
L 184 0 
L 1544 1831 
L 300 3500 
L 978 3500 
L 1906 2253 
L 2834 3500 
L 3513 3500 
z
" transform="scale(0.015625)"/>
       <path id="DejaVuSans-70" d="M 1159 525 
L 1159 -1331 
L 581 -1331 
L 581 3500 
L 1159 3500 
L 1159 2969 
Q 1341 3281 1617 3432 
Q 1894 3584 2278 3584 
Q 2916 3584 3314 3078 
Q 3713 2572 3713 1747 
Q 3713 922 3314 415 
Q 2916 -91 2278 -91 
Q 1894 -91 1617 61 
Q 1341 213 1159 525 
z
M 3116 1747 
Q 3116 2381 2855 2742 
Q 2594 3103 2138 3103 
Q 1681 3103 1420 2742 
Q 1159 2381 1159 1747 
Q 1159 1113 1420 752 
Q 1681 391 2138 391 
Q 2594 391 2855 752 
Q 3116 1113 3116 1747 
z
" transform="scale(0.015625)"/>
       <path id="DejaVuSans-64" d="M 2906 2969 
L 2906 4863 
L 3481 4863 
L 3481 0 
L 2906 0 
L 2906 525 
Q 2725 213 2448 61 
Q 2172 -91 1784 -91 
Q 1150 -91 751 415 
Q 353 922 353 1747 
Q 353 2572 751 3078 
Q 1150 3584 1784 3584 
Q 2172 3584 2448 3432 
Q 2725 3281 2906 2969 
z
M 947 1747 
Q 947 1113 1208 752 
Q 1469 391 1925 391 
Q 2381 391 2643 752 
Q 2906 1113 2906 1747 
Q 2906 2381 2643 2742 
Q 2381 3103 1925 3103 
Q 1469 3103 1208 2742 
Q 947 2381 947 1747 
z
" transform="scale(0.015625)"/>
      </defs>
      <use xlink:href="#DejaVuSans-65"/>
      <use xlink:href="#DejaVuSans-78" x="59.773438"/>
      <use xlink:href="#DejaVuSans-70" x="118.953125"/>
      <use xlink:href="#DejaVuSans-72" x="182.429688"/>
      <use xlink:href="#DejaVuSans-65" x="221.292969"/>
      <use xlink:href="#DejaVuSans-73" x="282.816406"/>
      <use xlink:href="#DejaVuSans-73" x="334.916016"/>
      <use xlink:href="#DejaVuSans-65" x="387.015625"/>
      <use xlink:href="#DejaVuSans-64" x="448.539062"/>
      <use xlink:href="#DejaVuSans-20" x="512.015625"/>
      <use xlink:href="#DejaVuSans-69" x="543.802734"/>
      <use xlink:href="#DejaVuSans-6e" x="571.585938"/>
     </g>
    </g>
   </g>
   <g id="text_3">
    <g id="patch_7">
     <path d="M 777.772178 187.839062 
L 830.267491 187.839062 
Q 833.267491 187.839062 833.267491 184.839062 
L 833.267491 175.160937 
Q 833.267491 172.160937 830.267491 172.160937 
L 777.772178 172.160937 
Q 774.772178 172.160937 774.772178 175.160937 
L 774.772178 184.839062 
Q 774.772178 187.839062 777.772178 187.839062 
z
" clip-path="url(#p2d01857bff)" style="fill: #ffffff; stroke: #ffffff; stroke-linejoin: miter"/>
    </g>
    <g clip-path="url(#p2d01857bff)">
     <!-- location of -->
     <g transform="translate(777.772178 182.759375)scale(0.1 -0.1)">
      <defs>
       <path id="DejaVuSans-6c" d="M 603 4863 
L 1178 4863 
L 1178 0 
L 603 0 
L 603 4863 
z
" transform="scale(0.015625)"/>
      </defs>
      <use xlink:href="#DejaVuSans-6c"/>
      <use xlink:href="#DejaVuSans-6f" x="27.783203"/>
      <use xlink:href="#DejaVuSans-63" x="88.964844"/>
      <use xlink:href="#DejaVuSans-61" x="143.945312"/>
      <use xlink:href="#DejaVuSans-74" x="205.224609"/>
      <use xlink:href="#DejaVuSans-69" x="244.433594"/>
      <use xlink:href="#DejaVuSans-6f" x="272.216797"/>
      <use xlink:href="#DejaVuSans-6e" x="333.398438"/>
      <use xlink:href="#DejaVuSans-20" x="396.777344"/>
      <use xlink:href="#DejaVuSans-6f" x="428.564453"/>
      <use xlink:href="#DejaVuSans-66" x="489.746094"/>
     </g>
    </g>
   </g>
   <g id="PathCollection_1">
    <defs>
     <path id="C0_0_1cbf2bd754" d="M 0 52.440442 
C 13.907368 52.440442 27.246998 46.914987 37.080992 37.080992 
C 46.914987 27.246998 52.440442 13.907368 52.440442 -0 
C 52.440442 -13.907368 46.914987 -27.246998 37.080992 -37.080992 
C 27.246998 -46.914987 13.907368 -52.440442 0 -52.440442 
C -13.907368 -52.440442 -27.246998 -46.914987 -37.080992 -37.080992 
C -46.914987 -27.246998 -52.440442 -13.907368 -52.440442 0 
C -52.440442 13.907368 -46.914987 27.246998 -37.080992 37.080992 
C -27.246998 46.914987 -13.907368 52.440442 0 52.440442 
z
"/>
    </defs>
    <g clip-path="url(#p2d01857bff)">
     <use xlink:href="#C0_0_1cbf2bd754" x="89.970248" y="180" style="fill: #01c472; stroke: #01c472"/>
    </g>
    <g clip-path="url(#p2d01857bff)">
     <use xlink:href="#C0_0_1cbf2bd754" x="375.590083" y="180" style="fill: #e71761; stroke: #e71761"/>
    </g>
    <g clip-path="url(#p2d01857bff)">
     <use xlink:href="#C0_0_1cbf2bd754" x="661.209917" y="180" style="fill: #8c88d7; stroke: #8c88d7"/>
    </g>
    <g clip-path="url(#p2d01857bff)">
     <use xlink:href="#C0_0_1cbf2bd754" x="946.829752" y="180" style="fill: #70c6ca; stroke: #70c6ca"/>
    </g>
   </g>
   <g id="text_4">
    <path d="M 340.89977 154.406437 
L 348.300395 154.406437 
L 348.300395 155.403937 
L 345.195395 155.403937 
L 345.195395 163.155187 
L 344.006645 163.155187 
L 344.006645 155.403937 
L 340.89977 155.403937 
L 340.89977 154.406437 
z
M 354.852348 159.193312 
L 354.852348 163.155187 
L 353.774223 163.155187 
L 353.774223 159.228937 
Q 353.774223 158.297062 353.410473 157.835812 
Q 353.046723 157.372687 352.321098 157.372687 
Q 351.447348 157.372687 350.942973 157.929562 
Q 350.438598 158.484562 350.438598 159.446437 
L 350.438598 163.155187 
L 349.354848 163.155187 
L 349.354848 154.037062 
L 350.438598 154.037062 
L 350.438598 157.612687 
Q 350.826723 157.020187 351.349848 156.727687 
Q 351.874848 156.435187 352.561098 156.435187 
Q 353.691723 156.435187 354.271098 157.134562 
Q 354.852348 157.833937 354.852348 159.193312 
z
M 359.731567 163.764562 
Q 359.275942 164.936437 358.840942 165.292687 
Q 358.407817 165.650812 357.682192 165.650812 
L 356.819692 165.650812 
L 356.819692 164.748937 
L 357.453442 164.748937 
Q 357.897817 164.748937 358.143442 164.537062 
Q 358.390942 164.327062 358.689067 163.541437 
L 358.882192 163.050187 
L 356.229067 156.592687 
L 357.370942 156.592687 
L 359.422192 161.724562 
L 361.473442 156.592687 
L 362.615317 156.592687 
L 359.731567 163.764562 
z
M 367.90563 157.599562 
Q 367.723755 157.494562 367.510005 157.445812 
Q 367.296255 157.395187 367.03938 157.395187 
Q 366.12438 157.395187 365.635005 157.989562 
Q 365.14563 158.583937 365.14563 159.697687 
L 365.14563 163.155187 
L 364.06188 163.155187 
L 364.06188 156.592687 
L 365.14563 156.592687 
L 365.14563 157.612687 
Q 365.48688 157.014562 366.03063 156.725812 
Q 366.576255 156.435187 367.356255 156.435187 
Q 367.46688 156.435187 367.60188 156.450187 
Q 367.73688 156.463312 367.900005 156.493312 
L 367.90563 157.599562 
z
M 371.309223 157.348312 
Q 370.442973 157.348312 369.938598 158.025187 
Q 369.434223 158.702062 369.434223 159.879562 
Q 369.434223 161.057062 369.934848 161.733937 
Q 370.437348 162.410812 371.309223 162.410812 
Q 372.171723 162.410812 372.674223 161.732062 
Q 373.178598 161.051437 373.178598 159.879562 
Q 373.178598 158.713312 372.674223 158.030812 
Q 372.171723 157.348312 371.309223 157.348312 
z
M 371.309223 156.435187 
Q 372.715473 156.435187 373.517973 157.350187 
Q 374.322348 158.263312 374.322348 159.879562 
Q 374.322348 161.490187 373.517973 162.408937 
Q 372.715473 163.325812 371.309223 163.325812 
Q 369.897348 163.325812 369.096723 162.408937 
Q 368.297973 161.490187 368.297973 159.879562 
Q 368.297973 158.263312 369.096723 157.350187 
Q 369.897348 156.435187 371.309223 156.435187 
z
M 377.175395 154.728937 
L 377.175395 156.592687 
L 379.395395 156.592687 
L 379.395395 157.430812 
L 377.175395 157.430812 
L 377.175395 160.993312 
Q 377.175395 161.795812 377.39477 162.024562 
Q 377.614145 162.253312 378.289145 162.253312 
L 379.395395 162.253312 
L 379.395395 163.155187 
L 378.289145 163.155187 
Q 377.040395 163.155187 376.56602 162.690187 
Q 376.091645 162.223312 376.091645 160.993312 
L 376.091645 157.430812 
L 375.300395 157.430812 
L 375.300395 156.592687 
L 376.091645 156.592687 
L 376.091645 154.728937 
L 377.175395 154.728937 
z
M 384.616098 157.599562 
Q 384.434223 157.494562 384.220473 157.445812 
Q 384.006723 157.395187 383.749848 157.395187 
Q 382.834848 157.395187 382.345473 157.989562 
Q 381.856098 158.583937 381.856098 159.697687 
L 381.856098 163.155187 
L 380.772348 163.155187 
L 380.772348 156.592687 
L 381.856098 156.592687 
L 381.856098 157.612687 
Q 382.197348 157.014562 382.741098 156.725812 
Q 383.286723 156.435187 384.066723 156.435187 
Q 384.177348 156.435187 384.312348 156.450187 
Q 384.447348 156.463312 384.610473 156.493312 
L 384.616098 157.599562 
z
M 388.019692 157.348312 
Q 387.153442 157.348312 386.649067 158.025187 
Q 386.144692 158.702062 386.144692 159.879562 
Q 386.144692 161.057062 386.645317 161.733937 
Q 387.147817 162.410812 388.019692 162.410812 
Q 388.882192 162.410812 389.384692 161.732062 
Q 389.889067 161.051437 389.889067 159.879562 
Q 389.889067 158.713312 389.384692 158.030812 
Q 388.882192 157.348312 388.019692 157.348312 
z
M 388.019692 156.435187 
Q 389.425942 156.435187 390.228442 157.350187 
Q 391.032817 158.263312 391.032817 159.879562 
Q 391.032817 161.490187 390.228442 162.408937 
Q 389.425942 163.325812 388.019692 163.325812 
Q 386.607817 163.325812 385.807192 162.408937 
Q 385.008442 161.490187 385.008442 159.879562 
Q 385.008442 158.263312 385.807192 157.350187 
Q 386.607817 156.435187 388.019692 156.435187 
z
M 393.861489 162.170812 
L 393.861489 165.650812 
L 392.777739 165.650812 
L 392.777739 156.592687 
L 393.861489 156.592687 
L 393.861489 157.588312 
Q 394.202739 157.003312 394.720239 156.720187 
Q 395.239614 156.435187 395.959614 156.435187 
Q 397.155864 156.435187 397.902114 157.383937 
Q 398.650239 158.332687 398.650239 159.879562 
Q 398.650239 161.426437 397.902114 162.377062 
Q 397.155864 163.325812 395.959614 163.325812 
Q 395.239614 163.325812 394.720239 163.040812 
Q 394.202739 162.755812 393.861489 162.170812 
z
M 397.530864 159.879562 
Q 397.530864 158.690812 397.041489 158.013937 
Q 396.552114 157.337062 395.697114 157.337062 
Q 394.840239 157.337062 394.350864 158.013937 
Q 393.861489 158.690812 393.861489 159.879562 
Q 393.861489 161.068312 394.350864 161.745187 
Q 394.840239 162.422062 395.697114 162.422062 
Q 396.552114 162.422062 397.041489 161.745187 
Q 397.530864 161.068312 397.530864 159.879562 
z
M 400.436176 156.592687 
L 401.514301 156.592687 
L 401.514301 163.155187 
L 400.436176 163.155187 
L 400.436176 156.592687 
z
M 400.436176 154.037062 
L 401.514301 154.037062 
L 401.514301 155.403937 
L 400.436176 155.403937 
L 400.436176 154.037062 
z
M 409.226411 159.193312 
L 409.226411 163.155187 
L 408.148286 163.155187 
L 408.148286 159.228937 
Q 408.148286 158.297062 407.784536 157.835812 
Q 407.420786 157.372687 406.695161 157.372687 
Q 405.821411 157.372687 405.317036 157.929562 
Q 404.812661 158.484562 404.812661 159.446437 
L 404.812661 163.155187 
L 403.728911 163.155187 
L 403.728911 156.592687 
L 404.812661 156.592687 
L 404.812661 157.612687 
Q 405.200786 157.020187 405.723911 156.727687 
Q 406.248911 156.435187 406.935161 156.435187 
Q 408.065786 156.435187 408.645161 157.134562 
Q 409.226411 157.833937 409.226411 159.193312 
z
" clip-path="url(#p2d01857bff)" style="fill: #ffffff; stroke: #000000; stroke-width: 2"/>
    <path d="M 340.89977 154.406437 
L 348.300395 154.406437 
L 348.300395 155.403937 
L 345.195395 155.403937 
L 345.195395 163.155187 
L 344.006645 163.155187 
L 344.006645 155.403937 
L 340.89977 155.403937 
L 340.89977 154.406437 
z
M 354.852348 159.193312 
L 354.852348 163.155187 
L 353.774223 163.155187 
L 353.774223 159.228937 
Q 353.774223 158.297062 353.410473 157.835812 
Q 353.046723 157.372687 352.321098 157.372687 
Q 351.447348 157.372687 350.942973 157.929562 
Q 350.438598 158.484562 350.438598 159.446437 
L 350.438598 163.155187 
L 349.354848 163.155187 
L 349.354848 154.037062 
L 350.438598 154.037062 
L 350.438598 157.612687 
Q 350.826723 157.020187 351.349848 156.727687 
Q 351.874848 156.435187 352.561098 156.435187 
Q 353.691723 156.435187 354.271098 157.134562 
Q 354.852348 157.833937 354.852348 159.193312 
z
M 359.731567 163.764562 
Q 359.275942 164.936437 358.840942 165.292687 
Q 358.407817 165.650812 357.682192 165.650812 
L 356.819692 165.650812 
L 356.819692 164.748937 
L 357.453442 164.748937 
Q 357.897817 164.748937 358.143442 164.537062 
Q 358.390942 164.327062 358.689067 163.541437 
L 358.882192 163.050187 
L 356.229067 156.592687 
L 357.370942 156.592687 
L 359.422192 161.724562 
L 361.473442 156.592687 
L 362.615317 156.592687 
L 359.731567 163.764562 
z
M 367.90563 157.599562 
Q 367.723755 157.494562 367.510005 157.445812 
Q 367.296255 157.395187 367.03938 157.395187 
Q 366.12438 157.395187 365.635005 157.989562 
Q 365.14563 158.583937 365.14563 159.697687 
L 365.14563 163.155187 
L 364.06188 163.155187 
L 364.06188 156.592687 
L 365.14563 156.592687 
L 365.14563 157.612687 
Q 365.48688 157.014562 366.03063 156.725812 
Q 366.576255 156.435187 367.356255 156.435187 
Q 367.46688 156.435187 367.60188 156.450187 
Q 367.73688 156.463312 367.900005 156.493312 
L 367.90563 157.599562 
z
M 371.309223 157.348312 
Q 370.442973 157.348312 369.938598 158.025187 
Q 369.434223 158.702062 369.434223 159.879562 
Q 369.434223 161.057062 369.934848 161.733937 
Q 370.437348 162.410812 371.309223 162.410812 
Q 372.171723 162.410812 372.674223 161.732062 
Q 373.178598 161.051437 373.178598 159.879562 
Q 373.178598 158.713312 372.674223 158.030812 
Q 372.171723 157.348312 371.309223 157.348312 
z
M 371.309223 156.435187 
Q 372.715473 156.435187 373.517973 157.350187 
Q 374.322348 158.263312 374.322348 159.879562 
Q 374.322348 161.490187 373.517973 162.408937 
Q 372.715473 163.325812 371.309223 163.325812 
Q 369.897348 163.325812 369.096723 162.408937 
Q 368.297973 161.490187 368.297973 159.879562 
Q 368.297973 158.263312 369.096723 157.350187 
Q 369.897348 156.435187 371.309223 156.435187 
z
M 377.175395 154.728937 
L 377.175395 156.592687 
L 379.395395 156.592687 
L 379.395395 157.430812 
L 377.175395 157.430812 
L 377.175395 160.993312 
Q 377.175395 161.795812 377.39477 162.024562 
Q 377.614145 162.253312 378.289145 162.253312 
L 379.395395 162.253312 
L 379.395395 163.155187 
L 378.289145 163.155187 
Q 377.040395 163.155187 376.56602 162.690187 
Q 376.091645 162.223312 376.091645 160.993312 
L 376.091645 157.430812 
L 375.300395 157.430812 
L 375.300395 156.592687 
L 376.091645 156.592687 
L 376.091645 154.728937 
L 377.175395 154.728937 
z
M 384.616098 157.599562 
Q 384.434223 157.494562 384.220473 157.445812 
Q 384.006723 157.395187 383.749848 157.395187 
Q 382.834848 157.395187 382.345473 157.989562 
Q 381.856098 158.583937 381.856098 159.697687 
L 381.856098 163.155187 
L 380.772348 163.155187 
L 380.772348 156.592687 
L 381.856098 156.592687 
L 381.856098 157.612687 
Q 382.197348 157.014562 382.741098 156.725812 
Q 383.286723 156.435187 384.066723 156.435187 
Q 384.177348 156.435187 384.312348 156.450187 
Q 384.447348 156.463312 384.610473 156.493312 
L 384.616098 157.599562 
z
M 388.019692 157.348312 
Q 387.153442 157.348312 386.649067 158.025187 
Q 386.144692 158.702062 386.144692 159.879562 
Q 386.144692 161.057062 386.645317 161.733937 
Q 387.147817 162.410812 388.019692 162.410812 
Q 388.882192 162.410812 389.384692 161.732062 
Q 389.889067 161.051437 389.889067 159.879562 
Q 389.889067 158.713312 389.384692 158.030812 
Q 388.882192 157.348312 388.019692 157.348312 
z
M 388.019692 156.435187 
Q 389.425942 156.435187 390.228442 157.350187 
Q 391.032817 158.263312 391.032817 159.879562 
Q 391.032817 161.490187 390.228442 162.408937 
Q 389.425942 163.325812 388.019692 163.325812 
Q 386.607817 163.325812 385.807192 162.408937 
Q 385.008442 161.490187 385.008442 159.879562 
Q 385.008442 158.263312 385.807192 157.350187 
Q 386.607817 156.435187 388.019692 156.435187 
z
M 393.861489 162.170812 
L 393.861489 165.650812 
L 392.777739 165.650812 
L 392.777739 156.592687 
L 393.861489 156.592687 
L 393.861489 157.588312 
Q 394.202739 157.003312 394.720239 156.720187 
Q 395.239614 156.435187 395.959614 156.435187 
Q 397.155864 156.435187 397.902114 157.383937 
Q 398.650239 158.332687 398.650239 159.879562 
Q 398.650239 161.426437 397.902114 162.377062 
Q 397.155864 163.325812 395.959614 163.325812 
Q 395.239614 163.325812 394.720239 163.040812 
Q 394.202739 162.755812 393.861489 162.170812 
z
M 397.530864 159.879562 
Q 397.530864 158.690812 397.041489 158.013937 
Q 396.552114 157.337062 395.697114 157.337062 
Q 394.840239 157.337062 394.350864 158.013937 
Q 393.861489 158.690812 393.861489 159.879562 
Q 393.861489 161.068312 394.350864 161.745187 
Q 394.840239 162.422062 395.697114 162.422062 
Q 396.552114 162.422062 397.041489 161.745187 
Q 397.530864 161.068312 397.530864 159.879562 
z
M 400.436176 156.592687 
L 401.514301 156.592687 
L 401.514301 163.155187 
L 400.436176 163.155187 
L 400.436176 156.592687 
z
M 400.436176 154.037062 
L 401.514301 154.037062 
L 401.514301 155.403937 
L 400.436176 155.403937 
L 400.436176 154.037062 
z
M 409.226411 159.193312 
L 409.226411 163.155187 
L 408.148286 163.155187 
L 408.148286 159.228937 
Q 408.148286 158.297062 407.784536 157.835812 
Q 407.420786 157.372687 406.695161 157.372687 
Q 405.821411 157.372687 405.317036 157.929562 
Q 404.812661 158.484562 404.812661 159.446437 
L 404.812661 163.155187 
L 403.728911 163.155187 
L 403.728911 156.592687 
L 404.812661 156.592687 
L 404.812661 157.612687 
Q 405.200786 157.020187 405.723911 156.727687 
Q 406.248911 156.435187 406.935161 156.435187 
Q 408.065786 156.435187 408.645161 157.134562 
Q 409.226411 157.833937 409.226411 159.193312 
z
" clip-path="url(#p2d01857bff)" style="fill: #ffffff"/>
    <path d="M 355.20977 171.036937 
Q 355.027895 170.931937 354.814145 170.883187 
Q 354.600395 170.832562 354.34352 170.832562 
Q 353.42852 170.832562 352.939145 171.426937 
Q 352.44977 172.021312 352.44977 173.135062 
L 352.44977 176.592562 
L 351.36602 176.592562 
L 351.36602 170.030062 
L 352.44977 170.030062 
L 352.44977 171.050062 
Q 352.79102 170.451937 353.33477 170.163187 
Q 353.880395 169.872562 354.660395 169.872562 
Q 354.77102 169.872562 354.90602 169.887562 
Q 355.04102 169.900687 355.204145 169.930687 
L 355.20977 171.036937 
z
M 361.684614 173.041312 
L 361.684614 173.568187 
L 356.727114 173.568187 
Q 356.798364 174.681937 357.398364 175.265062 
Q 357.998364 175.848187 359.070864 175.848187 
Q 359.691489 175.848187 360.274614 175.696312 
Q 360.857739 175.544437 361.433364 175.238812 
L 361.433364 176.258812 
Q 360.852114 176.504437 360.242739 176.633812 
Q 359.633364 176.763187 359.007114 176.763187 
Q 357.435864 176.763187 356.518989 175.850062 
Q 355.602114 174.935062 355.602114 173.375062 
Q 355.602114 171.764437 356.472114 170.819437 
Q 357.342114 169.872562 358.819614 169.872562 
Q 360.143364 169.872562 360.913989 170.725687 
Q 361.684614 171.576937 361.684614 173.041312 
z
M 360.606489 172.724437 
Q 360.595239 171.841312 360.111489 171.314437 
Q 359.627739 170.785687 358.830864 170.785687 
Q 357.928989 170.785687 357.387114 171.295687 
Q 356.845239 171.805687 356.762739 172.731937 
L 360.606489 172.724437 
z
M 368.176801 170.281312 
L 368.176801 171.290062 
Q 367.719301 171.036937 367.259926 170.911312 
Q 366.800551 170.785687 366.331801 170.785687 
Q 365.281801 170.785687 364.700551 171.451312 
Q 364.121176 172.115062 364.121176 173.316937 
Q 364.121176 174.518812 364.700551 175.184437 
Q 365.281801 175.848187 366.331801 175.848187 
Q 366.800551 175.848187 367.259926 175.722562 
Q 367.719301 175.596937 368.176801 175.343812 
L 368.176801 176.341312 
Q 367.724926 176.551312 367.241176 176.656312 
Q 366.759301 176.763187 366.213676 176.763187 
Q 364.730551 176.763187 363.856801 175.831312 
Q 362.984926 174.899437 362.984926 173.316937 
Q 362.984926 171.711937 363.866176 170.793187 
Q 364.749301 169.872562 366.284926 169.872562 
Q 366.781801 169.872562 367.256176 169.975687 
Q 367.730551 170.076937 368.176801 170.281312 
z
M 375.665083 173.041312 
L 375.665083 173.568187 
L 370.707583 173.568187 
Q 370.778833 174.681937 371.378833 175.265062 
Q 371.978833 175.848187 373.051333 175.848187 
Q 373.671958 175.848187 374.255083 175.696312 
Q 374.838208 175.544437 375.413833 175.238812 
L 375.413833 176.258812 
Q 374.832583 176.504437 374.223208 176.633812 
Q 373.613833 176.763187 372.987583 176.763187 
Q 371.416333 176.763187 370.499458 175.850062 
Q 369.582583 174.935062 369.582583 173.375062 
Q 369.582583 171.764437 370.452583 170.819437 
Q 371.322583 169.872562 372.800083 169.872562 
Q 374.123833 169.872562 374.894458 170.725687 
Q 375.665083 171.576937 375.665083 173.041312 
z
M 374.586958 172.724437 
Q 374.575708 171.841312 374.091958 171.314437 
Q 373.608208 170.785687 372.811333 170.785687 
Q 371.909458 170.785687 371.367583 171.295687 
Q 370.825708 171.805687 370.743208 172.731937 
L 374.586958 172.724437 
z
M 378.476645 175.608187 
L 378.476645 179.088187 
L 377.392895 179.088187 
L 377.392895 170.030062 
L 378.476645 170.030062 
L 378.476645 171.025687 
Q 378.817895 170.440687 379.335395 170.157562 
Q 379.85477 169.872562 380.57477 169.872562 
Q 381.77102 169.872562 382.51727 170.821312 
Q 383.265395 171.770062 383.265395 173.316937 
Q 383.265395 174.863812 382.51727 175.814437 
Q 381.77102 176.763187 380.57477 176.763187 
Q 379.85477 176.763187 379.335395 176.478187 
Q 378.817895 176.193187 378.476645 175.608187 
z
M 382.14602 173.316937 
Q 382.14602 172.128187 381.656645 171.451312 
Q 381.16727 170.774437 380.31227 170.774437 
Q 379.455395 170.774437 378.96602 171.451312 
Q 378.476645 172.128187 378.476645 173.316937 
Q 378.476645 174.505687 378.96602 175.182562 
Q 379.455395 175.859437 380.31227 175.859437 
Q 381.16727 175.859437 381.656645 175.182562 
Q 382.14602 174.505687 382.14602 173.316937 
z
M 386.118208 168.166312 
L 386.118208 170.030062 
L 388.338208 170.030062 
L 388.338208 170.868187 
L 386.118208 170.868187 
L 386.118208 174.430687 
Q 386.118208 175.233187 386.337583 175.461937 
Q 386.556958 175.690687 387.231958 175.690687 
L 388.338208 175.690687 
L 388.338208 176.592562 
L 387.231958 176.592562 
Q 385.983208 176.592562 385.508833 176.127562 
Q 385.034458 175.660687 385.034458 174.430687 
L 385.034458 170.868187 
L 384.243208 170.868187 
L 384.243208 170.030062 
L 385.034458 170.030062 
L 385.034458 168.166312 
L 386.118208 168.166312 
z
M 392.298911 170.785687 
Q 391.432661 170.785687 390.928286 171.462562 
Q 390.423911 172.139437 390.423911 173.316937 
Q 390.423911 174.494437 390.924536 175.171312 
Q 391.427036 175.848187 392.298911 175.848187 
Q 393.161411 175.848187 393.663911 175.169437 
Q 394.168286 174.488812 394.168286 173.316937 
Q 394.168286 172.150687 393.663911 171.468187 
Q 393.161411 170.785687 392.298911 170.785687 
z
M 392.298911 169.872562 
Q 393.705161 169.872562 394.507661 170.787562 
Q 395.312036 171.700687 395.312036 173.316937 
Q 395.312036 174.927562 394.507661 175.846312 
Q 393.705161 176.763187 392.298911 176.763187 
Q 390.887036 176.763187 390.086411 175.846312 
Q 389.287661 174.927562 389.287661 173.316937 
Q 389.287661 171.700687 390.086411 170.787562 
Q 390.887036 169.872562 392.298911 169.872562 
z
M 400.900708 171.036937 
Q 400.718833 170.931937 400.505083 170.883187 
Q 400.291333 170.832562 400.034458 170.832562 
Q 399.119458 170.832562 398.630083 171.426937 
Q 398.140708 172.021312 398.140708 173.135062 
L 398.140708 176.592562 
L 397.056958 176.592562 
L 397.056958 170.030062 
L 398.140708 170.030062 
L 398.140708 171.050062 
Q 398.481958 170.451937 399.025708 170.163187 
Q 399.571333 169.872562 400.351333 169.872562 
Q 400.461958 169.872562 400.596958 169.887562 
Q 400.731958 169.900687 400.895083 169.930687 
L 400.900708 171.036937 
z
" clip-path="url(#p2d01857bff)" style="fill: #ffffff; stroke: #000000; stroke-width: 2"/>
    <path d="M 355.20977 171.036937 
Q 355.027895 170.931937 354.814145 170.883187 
Q 354.600395 170.832562 354.34352 170.832562 
Q 353.42852 170.832562 352.939145 171.426937 
Q 352.44977 172.021312 352.44977 173.135062 
L 352.44977 176.592562 
L 351.36602 176.592562 
L 351.36602 170.030062 
L 352.44977 170.030062 
L 352.44977 171.050062 
Q 352.79102 170.451937 353.33477 170.163187 
Q 353.880395 169.872562 354.660395 169.872562 
Q 354.77102 169.872562 354.90602 169.887562 
Q 355.04102 169.900687 355.204145 169.930687 
L 355.20977 171.036937 
z
M 361.684614 173.041312 
L 361.684614 173.568187 
L 356.727114 173.568187 
Q 356.798364 174.681937 357.398364 175.265062 
Q 357.998364 175.848187 359.070864 175.848187 
Q 359.691489 175.848187 360.274614 175.696312 
Q 360.857739 175.544437 361.433364 175.238812 
L 361.433364 176.258812 
Q 360.852114 176.504437 360.242739 176.633812 
Q 359.633364 176.763187 359.007114 176.763187 
Q 357.435864 176.763187 356.518989 175.850062 
Q 355.602114 174.935062 355.602114 173.375062 
Q 355.602114 171.764437 356.472114 170.819437 
Q 357.342114 169.872562 358.819614 169.872562 
Q 360.143364 169.872562 360.913989 170.725687 
Q 361.684614 171.576937 361.684614 173.041312 
z
M 360.606489 172.724437 
Q 360.595239 171.841312 360.111489 171.314437 
Q 359.627739 170.785687 358.830864 170.785687 
Q 357.928989 170.785687 357.387114 171.295687 
Q 356.845239 171.805687 356.762739 172.731937 
L 360.606489 172.724437 
z
M 368.176801 170.281312 
L 368.176801 171.290062 
Q 367.719301 171.036937 367.259926 170.911312 
Q 366.800551 170.785687 366.331801 170.785687 
Q 365.281801 170.785687 364.700551 171.451312 
Q 364.121176 172.115062 364.121176 173.316937 
Q 364.121176 174.518812 364.700551 175.184437 
Q 365.281801 175.848187 366.331801 175.848187 
Q 366.800551 175.848187 367.259926 175.722562 
Q 367.719301 175.596937 368.176801 175.343812 
L 368.176801 176.341312 
Q 367.724926 176.551312 367.241176 176.656312 
Q 366.759301 176.763187 366.213676 176.763187 
Q 364.730551 176.763187 363.856801 175.831312 
Q 362.984926 174.899437 362.984926 173.316937 
Q 362.984926 171.711937 363.866176 170.793187 
Q 364.749301 169.872562 366.284926 169.872562 
Q 366.781801 169.872562 367.256176 169.975687 
Q 367.730551 170.076937 368.176801 170.281312 
z
M 375.665083 173.041312 
L 375.665083 173.568187 
L 370.707583 173.568187 
Q 370.778833 174.681937 371.378833 175.265062 
Q 371.978833 175.848187 373.051333 175.848187 
Q 373.671958 175.848187 374.255083 175.696312 
Q 374.838208 175.544437 375.413833 175.238812 
L 375.413833 176.258812 
Q 374.832583 176.504437 374.223208 176.633812 
Q 373.613833 176.763187 372.987583 176.763187 
Q 371.416333 176.763187 370.499458 175.850062 
Q 369.582583 174.935062 369.582583 173.375062 
Q 369.582583 171.764437 370.452583 170.819437 
Q 371.322583 169.872562 372.800083 169.872562 
Q 374.123833 169.872562 374.894458 170.725687 
Q 375.665083 171.576937 375.665083 173.041312 
z
M 374.586958 172.724437 
Q 374.575708 171.841312 374.091958 171.314437 
Q 373.608208 170.785687 372.811333 170.785687 
Q 371.909458 170.785687 371.367583 171.295687 
Q 370.825708 171.805687 370.743208 172.731937 
L 374.586958 172.724437 
z
M 378.476645 175.608187 
L 378.476645 179.088187 
L 377.392895 179.088187 
L 377.392895 170.030062 
L 378.476645 170.030062 
L 378.476645 171.025687 
Q 378.817895 170.440687 379.335395 170.157562 
Q 379.85477 169.872562 380.57477 169.872562 
Q 381.77102 169.872562 382.51727 170.821312 
Q 383.265395 171.770062 383.265395 173.316937 
Q 383.265395 174.863812 382.51727 175.814437 
Q 381.77102 176.763187 380.57477 176.763187 
Q 379.85477 176.763187 379.335395 176.478187 
Q 378.817895 176.193187 378.476645 175.608187 
z
M 382.14602 173.316937 
Q 382.14602 172.128187 381.656645 171.451312 
Q 381.16727 170.774437 380.31227 170.774437 
Q 379.455395 170.774437 378.96602 171.451312 
Q 378.476645 172.128187 378.476645 173.316937 
Q 378.476645 174.505687 378.96602 175.182562 
Q 379.455395 175.859437 380.31227 175.859437 
Q 381.16727 175.859437 381.656645 175.182562 
Q 382.14602 174.505687 382.14602 173.316937 
z
M 386.118208 168.166312 
L 386.118208 170.030062 
L 388.338208 170.030062 
L 388.338208 170.868187 
L 386.118208 170.868187 
L 386.118208 174.430687 
Q 386.118208 175.233187 386.337583 175.461937 
Q 386.556958 175.690687 387.231958 175.690687 
L 388.338208 175.690687 
L 388.338208 176.592562 
L 387.231958 176.592562 
Q 385.983208 176.592562 385.508833 176.127562 
Q 385.034458 175.660687 385.034458 174.430687 
L 385.034458 170.868187 
L 384.243208 170.868187 
L 384.243208 170.030062 
L 385.034458 170.030062 
L 385.034458 168.166312 
L 386.118208 168.166312 
z
M 392.298911 170.785687 
Q 391.432661 170.785687 390.928286 171.462562 
Q 390.423911 172.139437 390.423911 173.316937 
Q 390.423911 174.494437 390.924536 175.171312 
Q 391.427036 175.848187 392.298911 175.848187 
Q 393.161411 175.848187 393.663911 175.169437 
Q 394.168286 174.488812 394.168286 173.316937 
Q 394.168286 172.150687 393.663911 171.468187 
Q 393.161411 170.785687 392.298911 170.785687 
z
M 392.298911 169.872562 
Q 393.705161 169.872562 394.507661 170.787562 
Q 395.312036 171.700687 395.312036 173.316937 
Q 395.312036 174.927562 394.507661 175.846312 
Q 393.705161 176.763187 392.298911 176.763187 
Q 390.887036 176.763187 390.086411 175.846312 
Q 389.287661 174.927562 389.287661 173.316937 
Q 389.287661 171.700687 390.086411 170.787562 
Q 390.887036 169.872562 392.298911 169.872562 
z
M 400.900708 171.036937 
Q 400.718833 170.931937 400.505083 170.883187 
Q 400.291333 170.832562 400.034458 170.832562 
Q 399.119458 170.832562 398.630083 171.426937 
Q 398.140708 172.021312 398.140708 173.135062 
L 398.140708 176.592562 
L 397.056958 176.592562 
L 397.056958 170.030062 
L 398.140708 170.030062 
L 398.140708 171.050062 
Q 398.481958 170.451937 399.025708 170.163187 
Q 399.571333 169.872562 400.351333 169.872562 
Q 400.461958 169.872562 400.596958 169.887562 
Q 400.731958 169.900687 400.895083 169.930687 
L 400.900708 171.036937 
z
" clip-path="url(#p2d01857bff)" style="fill: #ffffff"/>
    <path d="M 330.177583 181.281187 
L 331.368208 181.281187 
L 331.368208 186.596812 
Q 331.368208 188.003062 331.876333 188.621812 
Q 332.386333 189.238687 333.530083 189.238687 
Q 334.666333 189.238687 335.176333 188.621812 
Q 335.686333 188.003062 335.686333 186.596812 
L 335.686333 181.281187 
L 336.875083 181.281187 
L 336.875083 186.743062 
Q 336.875083 188.453062 336.027583 189.326812 
Q 335.181958 190.200562 333.530083 190.200562 
Q 331.870708 190.200562 331.023208 189.326812 
Q 330.177583 188.453062 330.177583 186.743062 
L 330.177583 181.281187 
z
M 344.505161 186.068062 
L 344.505161 190.029937 
L 343.427036 190.029937 
L 343.427036 186.103687 
Q 343.427036 185.171812 343.063286 184.710562 
Q 342.699536 184.247437 341.973911 184.247437 
Q 341.100161 184.247437 340.595786 184.804312 
Q 340.091411 185.359312 340.091411 186.321187 
L 340.091411 190.029937 
L 339.007661 190.029937 
L 339.007661 183.467437 
L 340.091411 183.467437 
L 340.091411 184.487437 
Q 340.479536 183.894937 341.002661 183.602437 
Q 341.527661 183.309937 342.213911 183.309937 
Q 343.344536 183.309937 343.923911 184.009312 
Q 344.505161 184.708687 344.505161 186.068062 
z
M 346.65438 183.467437 
L 347.732505 183.467437 
L 347.732505 190.029937 
L 346.65438 190.029937 
L 346.65438 183.467437 
z
M 346.65438 180.911812 
L 347.732505 180.911812 
L 347.732505 182.278687 
L 346.65438 182.278687 
L 346.65438 180.911812 
z
M 351.218364 182.254312 
L 351.218364 185.541187 
L 352.707114 185.541187 
Q 353.533989 185.541187 353.983989 185.113687 
Q 354.435864 184.686187 354.435864 183.894937 
Q 354.435864 183.109312 353.983989 182.681812 
Q 353.533989 182.254312 352.707114 182.254312 
L 351.218364 182.254312 
z
M 350.035239 181.281187 
L 352.707114 181.281187 
Q 354.178989 181.281187 354.930864 181.946812 
Q 355.684614 182.612437 355.684614 183.894937 
Q 355.684614 185.190562 354.930864 185.852437 
Q 354.178989 186.514312 352.707114 186.514312 
L 351.218364 186.514312 
L 351.218364 190.029937 
L 350.035239 190.029937 
L 350.035239 181.281187 
z
M 360.817192 184.474312 
Q 360.635317 184.369312 360.421567 184.320562 
Q 360.207817 184.269937 359.950942 184.269937 
Q 359.035942 184.269937 358.546567 184.864312 
Q 358.057192 185.458687 358.057192 186.572437 
L 358.057192 190.029937 
L 356.973442 190.029937 
L 356.973442 183.467437 
L 358.057192 183.467437 
L 358.057192 184.487437 
Q 358.398442 183.889312 358.942192 183.600562 
Q 359.487817 183.309937 360.267817 183.309937 
Q 360.378442 183.309937 360.513442 183.324937 
Q 360.648442 183.338062 360.811567 183.368062 
L 360.817192 184.474312 
z
M 364.220786 184.223062 
Q 363.354536 184.223062 362.850161 184.899937 
Q 362.345786 185.576812 362.345786 186.754312 
Q 362.345786 187.931812 362.846411 188.608687 
Q 363.348911 189.285562 364.220786 189.285562 
Q 365.083286 189.285562 365.585786 188.606812 
Q 366.090161 187.926187 366.090161 186.754312 
Q 366.090161 185.588062 365.585786 184.905562 
Q 365.083286 184.223062 364.220786 184.223062 
z
M 364.220786 183.309937 
Q 365.627036 183.309937 366.429536 184.224937 
Q 367.233911 185.138062 367.233911 186.754312 
Q 367.233911 188.364937 366.429536 189.283687 
Q 365.627036 190.200562 364.220786 190.200562 
Q 362.808911 190.200562 362.008286 189.283687 
Q 361.209536 188.364937 361.209536 186.754312 
Q 361.209536 185.138062 362.008286 184.224937 
Q 362.808911 183.309937 364.220786 183.309937 
z
M 370.086958 181.603687 
L 370.086958 183.467437 
L 372.306958 183.467437 
L 372.306958 184.305562 
L 370.086958 184.305562 
L 370.086958 187.868062 
Q 370.086958 188.670562 370.306333 188.899312 
Q 370.525708 189.128062 371.200708 189.128062 
L 372.306958 189.128062 
L 372.306958 190.029937 
L 371.200708 190.029937 
Q 369.951958 190.029937 369.477583 189.564937 
Q 369.003208 189.098062 369.003208 187.868062 
L 369.003208 184.305562 
L 368.211958 184.305562 
L 368.211958 183.467437 
L 369.003208 183.467437 
L 369.003208 181.603687 
L 370.086958 181.603687 
z
M 374.000786 188.541187 
L 375.236411 188.541187 
L 375.236411 190.029937 
L 374.000786 190.029937 
L 374.000786 188.541187 
z
M 374.000786 183.825562 
L 375.236411 183.825562 
L 375.236411 185.312437 
L 374.000786 185.312437 
L 374.000786 183.825562 
z
M 378.99813 182.254312 
L 378.99813 185.541187 
L 380.48688 185.541187 
Q 381.313755 185.541187 381.763755 185.113687 
Q 382.21563 184.686187 382.21563 183.894937 
Q 382.21563 183.109312 381.763755 182.681812 
Q 381.313755 182.254312 380.48688 182.254312 
L 378.99813 182.254312 
z
M 377.815005 181.281187 
L 380.48688 181.281187 
Q 381.958755 181.281187 382.71063 181.946812 
Q 383.46438 182.612437 383.46438 183.894937 
Q 383.46438 185.190562 382.71063 185.852437 
Q 381.958755 186.514312 380.48688 186.514312 
L 378.99813 186.514312 
L 378.99813 190.029937 
L 377.815005 190.029937 
L 377.815005 181.281187 
z
M 385.362583 189.034312 
L 387.295708 189.034312 
L 387.295708 182.359312 
L 385.191958 182.781187 
L 385.191958 181.703062 
L 387.284458 181.281187 
L 388.467583 181.281187 
L 388.467583 189.034312 
L 390.400708 189.034312 
L 390.400708 190.029937 
L 385.362583 190.029937 
L 385.362583 189.034312 
z
M 395.470473 185.184937 
Q 394.673598 185.184937 394.206723 185.730562 
Q 393.741723 186.274312 393.741723 187.223062 
Q 393.741723 188.166187 394.206723 188.715562 
Q 394.673598 189.263062 395.470473 189.263062 
Q 396.267348 189.263062 396.732348 188.715562 
Q 397.197348 188.166187 397.197348 187.223062 
Q 397.197348 186.274312 396.732348 185.730562 
Q 396.267348 185.184937 395.470473 185.184937 
z
M 397.819848 181.474312 
L 397.819848 182.552437 
Q 397.373598 182.342437 396.919848 182.231812 
Q 396.466098 182.119312 396.019848 182.119312 
Q 394.847973 182.119312 394.229223 182.910562 
Q 393.612348 183.701812 393.524223 185.301187 
Q 393.869223 184.791187 394.390473 184.519312 
Q 394.913598 184.247437 395.539848 184.247437 
Q 396.857973 184.247437 397.622973 185.048062 
Q 398.387973 185.846812 398.387973 187.223062 
Q 398.387973 188.571187 397.591098 189.386812 
Q 396.794223 190.200562 395.470473 190.200562 
Q 393.951723 190.200562 393.149223 189.038062 
Q 392.346723 187.873687 392.346723 185.664937 
Q 392.346723 183.591187 393.331098 182.357437 
Q 394.315473 181.123687 395.972973 181.123687 
Q 396.419223 181.123687 396.872973 181.211812 
Q 397.326723 181.299937 397.819848 181.474312 
z
M 403.678989 182.312437 
L 400.690239 186.983062 
L 403.678989 186.983062 
L 403.678989 182.312437 
z
M 403.367739 181.281187 
L 404.856489 181.281187 
L 404.856489 186.983062 
L 406.105239 186.983062 
L 406.105239 187.967437 
L 404.856489 187.967437 
L 404.856489 190.029937 
L 403.678989 190.029937 
L 403.678989 187.967437 
L 399.730239 187.967437 
L 399.730239 186.825562 
L 403.367739 181.281187 
z
M 407.762505 181.281187 
L 413.387505 181.281187 
L 413.387505 181.785562 
L 410.211255 190.029937 
L 408.97563 190.029937 
L 411.96438 182.278687 
L 407.762505 182.278687 
L 407.762505 181.281187 
z
M 419.28227 185.312437 
Q 420.131645 185.494312 420.607895 186.069937 
Q 421.08602 186.643687 421.08602 187.487437 
Q 421.08602 188.781187 420.195395 189.491812 
Q 419.30477 190.200562 417.664145 190.200562 
Q 417.11477 190.200562 416.531645 190.091812 
Q 415.94852 189.983062 415.327895 189.765562 
L 415.327895 188.623687 
Q 415.819145 188.910562 416.404145 189.056812 
Q 416.99102 189.203062 417.630395 189.203062 
Q 418.74227 189.203062 419.325395 188.764312 
Q 419.90852 188.325562 419.90852 187.487437 
Q 419.90852 186.713062 419.366645 186.278062 
Q 418.82477 185.841187 417.859145 185.841187 
L 416.839145 185.841187 
L 416.839145 184.868062 
L 417.90602 184.868062 
Q 418.777895 184.868062 419.24102 184.519312 
Q 419.704145 184.170562 419.704145 183.514312 
Q 419.704145 182.841187 419.22602 182.481187 
Q 418.74977 182.119312 417.859145 182.119312 
Q 417.371645 182.119312 416.81477 182.226187 
Q 416.257895 182.331187 415.590395 182.552437 
L 415.590395 181.498687 
Q 416.265395 181.311187 416.854145 181.217437 
Q 417.442895 181.123687 417.964145 181.123687 
Q 419.31227 181.123687 420.09602 181.736812 
Q 420.881645 182.348062 420.881645 183.390562 
Q 420.881645 184.118062 420.465395 184.618687 
Q 420.049145 185.119312 419.28227 185.312437 
z
" clip-path="url(#p2d01857bff)" style="fill: #ffffff; stroke: #000000; stroke-width: 2"/>
    <path d="M 330.177583 181.281187 
L 331.368208 181.281187 
L 331.368208 186.596812 
Q 331.368208 188.003062 331.876333 188.621812 
Q 332.386333 189.238687 333.530083 189.238687 
Q 334.666333 189.238687 335.176333 188.621812 
Q 335.686333 188.003062 335.686333 186.596812 
L 335.686333 181.281187 
L 336.875083 181.281187 
L 336.875083 186.743062 
Q 336.875083 188.453062 336.027583 189.326812 
Q 335.181958 190.200562 333.530083 190.200562 
Q 331.870708 190.200562 331.023208 189.326812 
Q 330.177583 188.453062 330.177583 186.743062 
L 330.177583 181.281187 
z
M 344.505161 186.068062 
L 344.505161 190.029937 
L 343.427036 190.029937 
L 343.427036 186.103687 
Q 343.427036 185.171812 343.063286 184.710562 
Q 342.699536 184.247437 341.973911 184.247437 
Q 341.100161 184.247437 340.595786 184.804312 
Q 340.091411 185.359312 340.091411 186.321187 
L 340.091411 190.029937 
L 339.007661 190.029937 
L 339.007661 183.467437 
L 340.091411 183.467437 
L 340.091411 184.487437 
Q 340.479536 183.894937 341.002661 183.602437 
Q 341.527661 183.309937 342.213911 183.309937 
Q 343.344536 183.309937 343.923911 184.009312 
Q 344.505161 184.708687 344.505161 186.068062 
z
M 346.65438 183.467437 
L 347.732505 183.467437 
L 347.732505 190.029937 
L 346.65438 190.029937 
L 346.65438 183.467437 
z
M 346.65438 180.911812 
L 347.732505 180.911812 
L 347.732505 182.278687 
L 346.65438 182.278687 
L 346.65438 180.911812 
z
M 351.218364 182.254312 
L 351.218364 185.541187 
L 352.707114 185.541187 
Q 353.533989 185.541187 353.983989 185.113687 
Q 354.435864 184.686187 354.435864 183.894937 
Q 354.435864 183.109312 353.983989 182.681812 
Q 353.533989 182.254312 352.707114 182.254312 
L 351.218364 182.254312 
z
M 350.035239 181.281187 
L 352.707114 181.281187 
Q 354.178989 181.281187 354.930864 181.946812 
Q 355.684614 182.612437 355.684614 183.894937 
Q 355.684614 185.190562 354.930864 185.852437 
Q 354.178989 186.514312 352.707114 186.514312 
L 351.218364 186.514312 
L 351.218364 190.029937 
L 350.035239 190.029937 
L 350.035239 181.281187 
z
M 360.817192 184.474312 
Q 360.635317 184.369312 360.421567 184.320562 
Q 360.207817 184.269937 359.950942 184.269937 
Q 359.035942 184.269937 358.546567 184.864312 
Q 358.057192 185.458687 358.057192 186.572437 
L 358.057192 190.029937 
L 356.973442 190.029937 
L 356.973442 183.467437 
L 358.057192 183.467437 
L 358.057192 184.487437 
Q 358.398442 183.889312 358.942192 183.600562 
Q 359.487817 183.309937 360.267817 183.309937 
Q 360.378442 183.309937 360.513442 183.324937 
Q 360.648442 183.338062 360.811567 183.368062 
L 360.817192 184.474312 
z
M 364.220786 184.223062 
Q 363.354536 184.223062 362.850161 184.899937 
Q 362.345786 185.576812 362.345786 186.754312 
Q 362.345786 187.931812 362.846411 188.608687 
Q 363.348911 189.285562 364.220786 189.285562 
Q 365.083286 189.285562 365.585786 188.606812 
Q 366.090161 187.926187 366.090161 186.754312 
Q 366.090161 185.588062 365.585786 184.905562 
Q 365.083286 184.223062 364.220786 184.223062 
z
M 364.220786 183.309937 
Q 365.627036 183.309937 366.429536 184.224937 
Q 367.233911 185.138062 367.233911 186.754312 
Q 367.233911 188.364937 366.429536 189.283687 
Q 365.627036 190.200562 364.220786 190.200562 
Q 362.808911 190.200562 362.008286 189.283687 
Q 361.209536 188.364937 361.209536 186.754312 
Q 361.209536 185.138062 362.008286 184.224937 
Q 362.808911 183.309937 364.220786 183.309937 
z
M 370.086958 181.603687 
L 370.086958 183.467437 
L 372.306958 183.467437 
L 372.306958 184.305562 
L 370.086958 184.305562 
L 370.086958 187.868062 
Q 370.086958 188.670562 370.306333 188.899312 
Q 370.525708 189.128062 371.200708 189.128062 
L 372.306958 189.128062 
L 372.306958 190.029937 
L 371.200708 190.029937 
Q 369.951958 190.029937 369.477583 189.564937 
Q 369.003208 189.098062 369.003208 187.868062 
L 369.003208 184.305562 
L 368.211958 184.305562 
L 368.211958 183.467437 
L 369.003208 183.467437 
L 369.003208 181.603687 
L 370.086958 181.603687 
z
M 374.000786 188.541187 
L 375.236411 188.541187 
L 375.236411 190.029937 
L 374.000786 190.029937 
L 374.000786 188.541187 
z
M 374.000786 183.825562 
L 375.236411 183.825562 
L 375.236411 185.312437 
L 374.000786 185.312437 
L 374.000786 183.825562 
z
M 378.99813 182.254312 
L 378.99813 185.541187 
L 380.48688 185.541187 
Q 381.313755 185.541187 381.763755 185.113687 
Q 382.21563 184.686187 382.21563 183.894937 
Q 382.21563 183.109312 381.763755 182.681812 
Q 381.313755 182.254312 380.48688 182.254312 
L 378.99813 182.254312 
z
M 377.815005 181.281187 
L 380.48688 181.281187 
Q 381.958755 181.281187 382.71063 181.946812 
Q 383.46438 182.612437 383.46438 183.894937 
Q 383.46438 185.190562 382.71063 185.852437 
Q 381.958755 186.514312 380.48688 186.514312 
L 378.99813 186.514312 
L 378.99813 190.029937 
L 377.815005 190.029937 
L 377.815005 181.281187 
z
M 385.362583 189.034312 
L 387.295708 189.034312 
L 387.295708 182.359312 
L 385.191958 182.781187 
L 385.191958 181.703062 
L 387.284458 181.281187 
L 388.467583 181.281187 
L 388.467583 189.034312 
L 390.400708 189.034312 
L 390.400708 190.029937 
L 385.362583 190.029937 
L 385.362583 189.034312 
z
M 395.470473 185.184937 
Q 394.673598 185.184937 394.206723 185.730562 
Q 393.741723 186.274312 393.741723 187.223062 
Q 393.741723 188.166187 394.206723 188.715562 
Q 394.673598 189.263062 395.470473 189.263062 
Q 396.267348 189.263062 396.732348 188.715562 
Q 397.197348 188.166187 397.197348 187.223062 
Q 397.197348 186.274312 396.732348 185.730562 
Q 396.267348 185.184937 395.470473 185.184937 
z
M 397.819848 181.474312 
L 397.819848 182.552437 
Q 397.373598 182.342437 396.919848 182.231812 
Q 396.466098 182.119312 396.019848 182.119312 
Q 394.847973 182.119312 394.229223 182.910562 
Q 393.612348 183.701812 393.524223 185.301187 
Q 393.869223 184.791187 394.390473 184.519312 
Q 394.913598 184.247437 395.539848 184.247437 
Q 396.857973 184.247437 397.622973 185.048062 
Q 398.387973 185.846812 398.387973 187.223062 
Q 398.387973 188.571187 397.591098 189.386812 
Q 396.794223 190.200562 395.470473 190.200562 
Q 393.951723 190.200562 393.149223 189.038062 
Q 392.346723 187.873687 392.346723 185.664937 
Q 392.346723 183.591187 393.331098 182.357437 
Q 394.315473 181.123687 395.972973 181.123687 
Q 396.419223 181.123687 396.872973 181.211812 
Q 397.326723 181.299937 397.819848 181.474312 
z
M 403.678989 182.312437 
L 400.690239 186.983062 
L 403.678989 186.983062 
L 403.678989 182.312437 
z
M 403.367739 181.281187 
L 404.856489 181.281187 
L 404.856489 186.983062 
L 406.105239 186.983062 
L 406.105239 187.967437 
L 404.856489 187.967437 
L 404.856489 190.029937 
L 403.678989 190.029937 
L 403.678989 187.967437 
L 399.730239 187.967437 
L 399.730239 186.825562 
L 403.367739 181.281187 
z
M 407.762505 181.281187 
L 413.387505 181.281187 
L 413.387505 181.785562 
L 410.211255 190.029937 
L 408.97563 190.029937 
L 411.96438 182.278687 
L 407.762505 182.278687 
L 407.762505 181.281187 
z
M 419.28227 185.312437 
Q 420.131645 185.494312 420.607895 186.069937 
Q 421.08602 186.643687 421.08602 187.487437 
Q 421.08602 188.781187 420.195395 189.491812 
Q 419.30477 190.200562 417.664145 190.200562 
Q 417.11477 190.200562 416.531645 190.091812 
Q 415.94852 189.983062 415.327895 189.765562 
L 415.327895 188.623687 
Q 415.819145 188.910562 416.404145 189.056812 
Q 416.99102 189.203062 417.630395 189.203062 
Q 418.74227 189.203062 419.325395 188.764312 
Q 419.90852 188.325562 419.90852 187.487437 
Q 419.90852 186.713062 419.366645 186.278062 
Q 418.82477 185.841187 417.859145 185.841187 
L 416.839145 185.841187 
L 416.839145 184.868062 
L 417.90602 184.868062 
Q 418.777895 184.868062 419.24102 184.519312 
Q 419.704145 184.170562 419.704145 183.514312 
Q 419.704145 182.841187 419.22602 182.481187 
Q 418.74977 182.119312 417.859145 182.119312 
Q 417.371645 182.119312 416.81477 182.226187 
Q 416.257895 182.331187 415.590395 182.552437 
L 415.590395 181.498687 
Q 416.265395 181.311187 416.854145 181.217437 
Q 417.442895 181.123687 417.964145 181.123687 
Q 419.31227 181.123687 420.09602 181.736812 
Q 420.881645 182.348062 420.881645 183.390562 
Q 420.881645 184.118062 420.465395 184.618687 
Q 420.049145 185.119312 419.28227 185.312437 
z
" clip-path="url(#p2d01857bff)" style="fill: #ffffff"/>
    <path d="M 356.921645 195.691687 
L 356.921645 198.978562 
L 358.410395 198.978562 
Q 359.23727 198.978562 359.68727 198.551062 
Q 360.139145 198.123562 360.139145 197.332312 
Q 360.139145 196.546687 359.68727 196.119187 
Q 359.23727 195.691687 358.410395 195.691687 
L 356.921645 195.691687 
z
M 355.73852 194.718562 
L 358.410395 194.718562 
Q 359.88227 194.718562 360.634145 195.384187 
Q 361.387895 196.049812 361.387895 197.332312 
Q 361.387895 198.627937 360.634145 199.289812 
Q 359.88227 199.951687 358.410395 199.951687 
L 356.921645 199.951687 
L 356.921645 203.467312 
L 355.73852 203.467312 
L 355.73852 194.718562 
z
M 366.520473 197.911687 
Q 366.338598 197.806687 366.124848 197.757937 
Q 365.911098 197.707312 365.654223 197.707312 
Q 364.739223 197.707312 364.249848 198.301687 
Q 363.760473 198.896062 363.760473 200.009812 
L 363.760473 203.467312 
L 362.676723 203.467312 
L 362.676723 196.904812 
L 363.760473 196.904812 
L 363.760473 197.924812 
Q 364.101723 197.326687 364.645473 197.037937 
Q 365.191098 196.747312 365.971098 196.747312 
Q 366.081723 196.747312 366.216723 196.762312 
Q 366.351723 196.775437 366.514848 196.805437 
L 366.520473 197.911687 
z
M 369.924067 197.660437 
Q 369.057817 197.660437 368.553442 198.337312 
Q 368.049067 199.014187 368.049067 200.191687 
Q 368.049067 201.369187 368.549692 202.046062 
Q 369.052192 202.722937 369.924067 202.722937 
Q 370.786567 202.722937 371.289067 202.044187 
Q 371.793442 201.363562 371.793442 200.191687 
Q 371.793442 199.025437 371.289067 198.342937 
Q 370.786567 197.660437 369.924067 197.660437 
z
M 369.924067 196.747312 
Q 371.330317 196.747312 372.132817 197.662312 
Q 372.937192 198.575437 372.937192 200.191687 
Q 372.937192 201.802312 372.132817 202.721062 
Q 371.330317 203.637937 369.924067 203.637937 
Q 368.512192 203.637937 367.711567 202.721062 
Q 366.912817 201.802312 366.912817 200.191687 
Q 366.912817 198.575437 367.711567 197.662312 
Q 368.512192 196.747312 369.924067 196.747312 
z
M 375.790239 195.041062 
L 375.790239 196.904812 
L 378.010239 196.904812 
L 378.010239 197.742937 
L 375.790239 197.742937 
L 375.790239 201.305437 
Q 375.790239 202.107937 376.009614 202.336687 
Q 376.228989 202.565437 376.903989 202.565437 
L 378.010239 202.565437 
L 378.010239 203.467312 
L 376.903989 203.467312 
Q 375.655239 203.467312 375.180864 203.002312 
Q 374.706489 202.535437 374.706489 201.305437 
L 374.706489 197.742937 
L 373.915239 197.742937 
L 373.915239 196.904812 
L 374.706489 196.904812 
L 374.706489 195.041062 
L 375.790239 195.041062 
z
M 385.042192 199.916062 
L 385.042192 200.442937 
L 380.084692 200.442937 
Q 380.155942 201.556687 380.755942 202.139812 
Q 381.355942 202.722937 382.428442 202.722937 
Q 383.049067 202.722937 383.632192 202.571062 
Q 384.215317 202.419187 384.790942 202.113562 
L 384.790942 203.133562 
Q 384.209692 203.379187 383.600317 203.508562 
Q 382.990942 203.637937 382.364692 203.637937 
Q 380.793442 203.637937 379.876567 202.724812 
Q 378.959692 201.809812 378.959692 200.249812 
Q 378.959692 198.639187 379.829692 197.694187 
Q 380.699692 196.747312 382.177192 196.747312 
Q 383.500942 196.747312 384.271567 197.600437 
Q 385.042192 198.451687 385.042192 199.916062 
z
M 383.964067 199.599187 
Q 383.952817 198.716062 383.469067 198.189187 
Q 382.985317 197.660437 382.188442 197.660437 
Q 381.286567 197.660437 380.744692 198.170437 
Q 380.202817 198.680437 380.120317 199.606687 
L 383.964067 199.599187 
z
M 386.811255 196.904812 
L 387.88938 196.904812 
L 387.88938 203.467312 
L 386.811255 203.467312 
L 386.811255 196.904812 
z
M 386.811255 194.349187 
L 387.88938 194.349187 
L 387.88938 195.716062 
L 386.811255 195.716062 
L 386.811255 194.349187 
z
M 395.601489 199.505437 
L 395.601489 203.467312 
L 394.523364 203.467312 
L 394.523364 199.541062 
Q 394.523364 198.609187 394.159614 198.147937 
Q 393.795864 197.684812 393.070239 197.684812 
Q 392.196489 197.684812 391.692114 198.241687 
Q 391.187739 198.796687 391.187739 199.758562 
L 391.187739 203.467312 
L 390.103989 203.467312 
L 390.103989 196.904812 
L 391.187739 196.904812 
L 391.187739 197.924812 
Q 391.575864 197.332312 392.098989 197.039812 
Q 392.623989 196.747312 393.310239 196.747312 
Q 394.440864 196.747312 395.020239 197.446687 
Q 395.601489 198.146062 395.601489 199.505437 
z
" clip-path="url(#p2d01857bff)" style="fill: #ffffff; stroke: #000000; stroke-width: 2"/>
    <path d="M 356.921645 195.691687 
L 356.921645 198.978562 
L 358.410395 198.978562 
Q 359.23727 198.978562 359.68727 198.551062 
Q 360.139145 198.123562 360.139145 197.332312 
Q 360.139145 196.546687 359.68727 196.119187 
Q 359.23727 195.691687 358.410395 195.691687 
L 356.921645 195.691687 
z
M 355.73852 194.718562 
L 358.410395 194.718562 
Q 359.88227 194.718562 360.634145 195.384187 
Q 361.387895 196.049812 361.387895 197.332312 
Q 361.387895 198.627937 360.634145 199.289812 
Q 359.88227 199.951687 358.410395 199.951687 
L 356.921645 199.951687 
L 356.921645 203.467312 
L 355.73852 203.467312 
L 355.73852 194.718562 
z
M 366.520473 197.911687 
Q 366.338598 197.806687 366.124848 197.757937 
Q 365.911098 197.707312 365.654223 197.707312 
Q 364.739223 197.707312 364.249848 198.301687 
Q 363.760473 198.896062 363.760473 200.009812 
L 363.760473 203.467312 
L 362.676723 203.467312 
L 362.676723 196.904812 
L 363.760473 196.904812 
L 363.760473 197.924812 
Q 364.101723 197.326687 364.645473 197.037937 
Q 365.191098 196.747312 365.971098 196.747312 
Q 366.081723 196.747312 366.216723 196.762312 
Q 366.351723 196.775437 366.514848 196.805437 
L 366.520473 197.911687 
z
M 369.924067 197.660437 
Q 369.057817 197.660437 368.553442 198.337312 
Q 368.049067 199.014187 368.049067 200.191687 
Q 368.049067 201.369187 368.549692 202.046062 
Q 369.052192 202.722937 369.924067 202.722937 
Q 370.786567 202.722937 371.289067 202.044187 
Q 371.793442 201.363562 371.793442 200.191687 
Q 371.793442 199.025437 371.289067 198.342937 
Q 370.786567 197.660437 369.924067 197.660437 
z
M 369.924067 196.747312 
Q 371.330317 196.747312 372.132817 197.662312 
Q 372.937192 198.575437 372.937192 200.191687 
Q 372.937192 201.802312 372.132817 202.721062 
Q 371.330317 203.637937 369.924067 203.637937 
Q 368.512192 203.637937 367.711567 202.721062 
Q 366.912817 201.802312 366.912817 200.191687 
Q 366.912817 198.575437 367.711567 197.662312 
Q 368.512192 196.747312 369.924067 196.747312 
z
M 375.790239 195.041062 
L 375.790239 196.904812 
L 378.010239 196.904812 
L 378.010239 197.742937 
L 375.790239 197.742937 
L 375.790239 201.305437 
Q 375.790239 202.107937 376.009614 202.336687 
Q 376.228989 202.565437 376.903989 202.565437 
L 378.010239 202.565437 
L 378.010239 203.467312 
L 376.903989 203.467312 
Q 375.655239 203.467312 375.180864 203.002312 
Q 374.706489 202.535437 374.706489 201.305437 
L 374.706489 197.742937 
L 373.915239 197.742937 
L 373.915239 196.904812 
L 374.706489 196.904812 
L 374.706489 195.041062 
L 375.790239 195.041062 
z
M 385.042192 199.916062 
L 385.042192 200.442937 
L 380.084692 200.442937 
Q 380.155942 201.556687 380.755942 202.139812 
Q 381.355942 202.722937 382.428442 202.722937 
Q 383.049067 202.722937 383.632192 202.571062 
Q 384.215317 202.419187 384.790942 202.113562 
L 384.790942 203.133562 
Q 384.209692 203.379187 383.600317 203.508562 
Q 382.990942 203.637937 382.364692 203.637937 
Q 380.793442 203.637937 379.876567 202.724812 
Q 378.959692 201.809812 378.959692 200.249812 
Q 378.959692 198.639187 379.829692 197.694187 
Q 380.699692 196.747312 382.177192 196.747312 
Q 383.500942 196.747312 384.271567 197.600437 
Q 385.042192 198.451687 385.042192 199.916062 
z
M 383.964067 199.599187 
Q 383.952817 198.716062 383.469067 198.189187 
Q 382.985317 197.660437 382.188442 197.660437 
Q 381.286567 197.660437 380.744692 198.170437 
Q 380.202817 198.680437 380.120317 199.606687 
L 383.964067 199.599187 
z
M 386.811255 196.904812 
L 387.88938 196.904812 
L 387.88938 203.467312 
L 386.811255 203.467312 
L 386.811255 196.904812 
z
M 386.811255 194.349187 
L 387.88938 194.349187 
L 387.88938 195.716062 
L 386.811255 195.716062 
L 386.811255 194.349187 
z
M 395.601489 199.505437 
L 395.601489 203.467312 
L 394.523364 203.467312 
L 394.523364 199.541062 
Q 394.523364 198.609187 394.159614 198.147937 
Q 393.795864 197.684812 393.070239 197.684812 
Q 392.196489 197.684812 391.692114 198.241687 
Q 391.187739 198.796687 391.187739 199.758562 
L 391.187739 203.467312 
L 390.103989 203.467312 
L 390.103989 196.904812 
L 391.187739 196.904812 
L 391.187739 197.924812 
Q 391.575864 197.332312 392.098989 197.039812 
Q 392.623989 196.747312 393.310239 196.747312 
Q 394.440864 196.747312 395.020239 197.446687 
Q 395.601489 198.146062 395.601489 199.505437 
z
" clip-path="url(#p2d01857bff)" style="fill: #ffffff"/>
   </g>
   <g id="text_5">
    <g clip-path="url(#p2d01857bff)">
     <!-- thyrotropin -->
     <g transform="translate(56.62806 163.155187)scale(0.12 -0.12)">
      <defs>
       <path id="DejaVuSans-68" d="M 3513 2113 
L 3513 0 
L 2938 0 
L 2938 2094 
Q 2938 2591 2744 2837 
Q 2550 3084 2163 3084 
Q 1697 3084 1428 2787 
Q 1159 2491 1159 1978 
L 1159 0 
L 581 0 
L 581 4863 
L 1159 4863 
L 1159 2956 
Q 1366 3272 1645 3428 
Q 1925 3584 2291 3584 
Q 2894 3584 3203 3211 
Q 3513 2838 3513 2113 
z
" transform="scale(0.015625)"/>
      </defs>
      <use xlink:href="#DejaVuSans-74"/>
      <use xlink:href="#DejaVuSans-68" x="39.208984"/>
      <use xlink:href="#DejaVuSans-79" x="102.587891"/>
      <use xlink:href="#DejaVuSans-72" x="161.767578"/>
      <use xlink:href="#DejaVuSans-6f" x="200.630859"/>
      <use xlink:href="#DejaVuSans-74" x="261.8125"/>
      <use xlink:href="#DejaVuSans-72" x="301.021484"/>
      <use xlink:href="#DejaVuSans-6f" x="339.884766"/>
      <use xlink:href="#DejaVuSans-70" x="401.066406"/>
      <use xlink:href="#DejaVuSans-69" x="464.542969"/>
      <use xlink:href="#DejaVuSans-6e" x="492.326172"/>
     </g>
    </g>
    <g clip-path="url(#p2d01857bff)">
     <!-- alfa -->
     <g transform="translate(78.837435 176.592562)scale(0.12 -0.12)">
      <use xlink:href="#DejaVuSans-61"/>
      <use xlink:href="#DejaVuSans-6c" x="61.279297"/>
      <use xlink:href="#DejaVuSans-66" x="89.0625"/>
      <use xlink:href="#DejaVuSans-61" x="124.267578"/>
     </g>
    </g>
    <g clip-path="url(#p2d01857bff)">
     <!-- MESH:D057073 -->
     <g transform="translate(43.134623 190.029937)scale(0.12 -0.12)">
      <defs>
       <path id="DejaVuSans-4d" d="M 628 4666 
L 1569 4666 
L 2759 1491 
L 3956 4666 
L 4897 4666 
L 4897 0 
L 4281 0 
L 4281 4097 
L 3078 897 
L 2444 897 
L 1241 4097 
L 1241 0 
L 628 0 
L 628 4666 
z
" transform="scale(0.015625)"/>
       <path id="DejaVuSans-45" d="M 628 4666 
L 3578 4666 
L 3578 4134 
L 1259 4134 
L 1259 2753 
L 3481 2753 
L 3481 2222 
L 1259 2222 
L 1259 531 
L 3634 531 
L 3634 0 
L 628 0 
L 628 4666 
z
" transform="scale(0.015625)"/>
       <path id="DejaVuSans-53" d="M 3425 4513 
L 3425 3897 
Q 3066 4069 2747 4153 
Q 2428 4238 2131 4238 
Q 1616 4238 1336 4038 
Q 1056 3838 1056 3469 
Q 1056 3159 1242 3001 
Q 1428 2844 1947 2747 
L 2328 2669 
Q 3034 2534 3370 2195 
Q 3706 1856 3706 1288 
Q 3706 609 3251 259 
Q 2797 -91 1919 -91 
Q 1588 -91 1214 -16 
Q 841 59 441 206 
L 441 856 
Q 825 641 1194 531 
Q 1563 422 1919 422 
Q 2459 422 2753 634 
Q 3047 847 3047 1241 
Q 3047 1584 2836 1778 
Q 2625 1972 2144 2069 
L 1759 2144 
Q 1053 2284 737 2584 
Q 422 2884 422 3419 
Q 422 4038 858 4394 
Q 1294 4750 2059 4750 
Q 2388 4750 2728 4690 
Q 3069 4631 3425 4513 
z
" transform="scale(0.015625)"/>
       <path id="DejaVuSans-48" d="M 628 4666 
L 1259 4666 
L 1259 2753 
L 3553 2753 
L 3553 4666 
L 4184 4666 
L 4184 0 
L 3553 0 
L 3553 2222 
L 1259 2222 
L 1259 0 
L 628 0 
L 628 4666 
z
" transform="scale(0.015625)"/>
       <path id="DejaVuSans-3a" d="M 750 794 
L 1409 794 
L 1409 0 
L 750 0 
L 750 794 
z
M 750 3309 
L 1409 3309 
L 1409 2516 
L 750 2516 
L 750 3309 
z
" transform="scale(0.015625)"/>
       <path id="DejaVuSans-44" d="M 1259 4147 
L 1259 519 
L 2022 519 
Q 2988 519 3436 956 
Q 3884 1394 3884 2338 
Q 3884 3275 3436 3711 
Q 2988 4147 2022 4147 
L 1259 4147 
z
M 628 4666 
L 1925 4666 
Q 3281 4666 3915 4102 
Q 4550 3538 4550 2338 
Q 4550 1131 3912 565 
Q 3275 0 1925 0 
L 628 0 
L 628 4666 
z
" transform="scale(0.015625)"/>
       <path id="DejaVuSans-30" d="M 2034 4250 
Q 1547 4250 1301 3770 
Q 1056 3291 1056 2328 
Q 1056 1369 1301 889 
Q 1547 409 2034 409 
Q 2525 409 2770 889 
Q 3016 1369 3016 2328 
Q 3016 3291 2770 3770 
Q 2525 4250 2034 4250 
z
M 2034 4750 
Q 2819 4750 3233 4129 
Q 3647 3509 3647 2328 
Q 3647 1150 3233 529 
Q 2819 -91 2034 -91 
Q 1250 -91 836 529 
Q 422 1150 422 2328 
Q 422 3509 836 4129 
Q 1250 4750 2034 4750 
z
" transform="scale(0.015625)"/>
       <path id="DejaVuSans-35" d="M 691 4666 
L 3169 4666 
L 3169 4134 
L 1269 4134 
L 1269 2991 
Q 1406 3038 1543 3061 
Q 1681 3084 1819 3084 
Q 2600 3084 3056 2656 
Q 3513 2228 3513 1497 
Q 3513 744 3044 326 
Q 2575 -91 1722 -91 
Q 1428 -91 1123 -41 
Q 819 9 494 109 
L 494 744 
Q 775 591 1075 516 
Q 1375 441 1709 441 
Q 2250 441 2565 725 
Q 2881 1009 2881 1497 
Q 2881 1984 2565 2268 
Q 2250 2553 1709 2553 
Q 1456 2553 1204 2497 
Q 953 2441 691 2322 
L 691 4666 
z
" transform="scale(0.015625)"/>
       <path id="DejaVuSans-37" d="M 525 4666 
L 3525 4666 
L 3525 4397 
L 1831 0 
L 1172 0 
L 2766 4134 
L 525 4134 
L 525 4666 
z
" transform="scale(0.015625)"/>
       <path id="DejaVuSans-33" d="M 2597 2516 
Q 3050 2419 3304 2112 
Q 3559 1806 3559 1356 
Q 3559 666 3084 287 
Q 2609 -91 1734 -91 
Q 1441 -91 1130 -33 
Q 819 25 488 141 
L 488 750 
Q 750 597 1062 519 
Q 1375 441 1716 441 
Q 2309 441 2620 675 
Q 2931 909 2931 1356 
Q 2931 1769 2642 2001 
Q 2353 2234 1838 2234 
L 1294 2234 
L 1294 2753 
L 1863 2753 
Q 2328 2753 2575 2939 
Q 2822 3125 2822 3475 
Q 2822 3834 2567 4026 
Q 2313 4219 1838 4219 
Q 1578 4219 1281 4162 
Q 984 4106 628 3988 
L 628 4550 
Q 988 4650 1302 4700 
Q 1616 4750 1894 4750 
Q 2613 4750 3031 4423 
Q 3450 4097 3450 3541 
Q 3450 3153 3228 2886 
Q 3006 2619 2597 2516 
z
" transform="scale(0.015625)"/>
      </defs>
      <use xlink:href="#DejaVuSans-4d"/>
      <use xlink:href="#DejaVuSans-45" x="86.279297"/>
      <use xlink:href="#DejaVuSans-53" x="149.462891"/>
      <use xlink:href="#DejaVuSans-48" x="212.939453"/>
      <use xlink:href="#DejaVuSans-3a" x="288.134766"/>
      <use xlink:href="#DejaVuSans-44" x="321.826172"/>
      <use xlink:href="#DejaVuSans-30" x="398.828125"/>
      <use xlink:href="#DejaVuSans-35" x="462.451172"/>
      <use xlink:href="#DejaVuSans-37" x="526.074219"/>
      <use xlink:href="#DejaVuSans-30" x="589.697266"/>
      <use xlink:href="#DejaVuSans-37" x="653.320312"/>
      <use xlink:href="#DejaVuSans-33" x="716.943359"/>
     </g>
    </g>
    <g clip-path="url(#p2d01857bff)">
     <!-- Drug -->
     <g transform="translate(75.272123 203.467312)scale(0.12 -0.12)">
      <defs>
       <path id="DejaVuSans-75" d="M 544 1381 
L 544 3500 
L 1119 3500 
L 1119 1403 
Q 1119 906 1312 657 
Q 1506 409 1894 409 
Q 2359 409 2629 706 
Q 2900 1003 2900 1516 
L 2900 3500 
L 3475 3500 
L 3475 0 
L 2900 0 
L 2900 538 
Q 2691 219 2414 64 
Q 2138 -91 1772 -91 
Q 1169 -91 856 284 
Q 544 659 544 1381 
z
M 1991 3584 
L 1991 3584 
z
" transform="scale(0.015625)"/>
       <path id="DejaVuSans-67" d="M 2906 1791 
Q 2906 2416 2648 2759 
Q 2391 3103 1925 3103 
Q 1463 3103 1205 2759 
Q 947 2416 947 1791 
Q 947 1169 1205 825 
Q 1463 481 1925 481 
Q 2391 481 2648 825 
Q 2906 1169 2906 1791 
z
M 3481 434 
Q 3481 -459 3084 -895 
Q 2688 -1331 1869 -1331 
Q 1566 -1331 1297 -1286 
Q 1028 -1241 775 -1147 
L 775 -588 
Q 1028 -725 1275 -790 
Q 1522 -856 1778 -856 
Q 2344 -856 2625 -561 
Q 2906 -266 2906 331 
L 2906 616 
Q 2728 306 2450 153 
Q 2172 0 1784 0 
Q 1141 0 747 490 
Q 353 981 353 1791 
Q 353 2603 747 3093 
Q 1141 3584 1784 3584 
Q 2172 3584 2450 3431 
Q 2728 3278 2906 2969 
L 2906 3500 
L 3481 3500 
L 3481 434 
z
" transform="scale(0.015625)"/>
      </defs>
      <use xlink:href="#DejaVuSans-44"/>
      <use xlink:href="#DejaVuSans-72" x="77.001953"/>
      <use xlink:href="#DejaVuSans-75" x="118.115234"/>
      <use xlink:href="#DejaVuSans-67" x="181.494141"/>
     </g>
    </g>
   </g>
   <g id="text_6">
    <g clip-path="url(#p2d01857bff)">
     <!-- Thyroid -->
     <g transform="translate(638.71273 169.873875)scale(0.12 -0.12)">
      <defs>
       <path id="DejaVuSans-54" d="M -19 4666 
L 3928 4666 
L 3928 4134 
L 2272 4134 
L 2272 0 
L 1638 0 
L 1638 4134 
L -19 4134 
L -19 4666 
z
" transform="scale(0.015625)"/>
      </defs>
      <use xlink:href="#DejaVuSans-54"/>
      <use xlink:href="#DejaVuSans-68" x="61.083984"/>
      <use xlink:href="#DejaVuSans-79" x="124.462891"/>
      <use xlink:href="#DejaVuSans-72" x="183.642578"/>
      <use xlink:href="#DejaVuSans-6f" x="222.505859"/>
      <use xlink:href="#DejaVuSans-69" x="283.6875"/>
      <use xlink:href="#DejaVuSans-64" x="311.470703"/>
     </g>
    </g>
    <g clip-path="url(#p2d01857bff)">
     <!-- UBERON:0002046 -->
     <g transform="translate(606.786167 183.31125)scale(0.12 -0.12)">
      <defs>
       <path id="DejaVuSans-55" d="M 556 4666 
L 1191 4666 
L 1191 1831 
Q 1191 1081 1462 751 
Q 1734 422 2344 422 
Q 2950 422 3222 751 
Q 3494 1081 3494 1831 
L 3494 4666 
L 4128 4666 
L 4128 1753 
Q 4128 841 3676 375 
Q 3225 -91 2344 -91 
Q 1459 -91 1007 375 
Q 556 841 556 1753 
L 556 4666 
z
" transform="scale(0.015625)"/>
       <path id="DejaVuSans-42" d="M 1259 2228 
L 1259 519 
L 2272 519 
Q 2781 519 3026 730 
Q 3272 941 3272 1375 
Q 3272 1813 3026 2020 
Q 2781 2228 2272 2228 
L 1259 2228 
z
M 1259 4147 
L 1259 2741 
L 2194 2741 
Q 2656 2741 2882 2914 
Q 3109 3088 3109 3444 
Q 3109 3797 2882 3972 
Q 2656 4147 2194 4147 
L 1259 4147 
z
M 628 4666 
L 2241 4666 
Q 2963 4666 3353 4366 
Q 3744 4066 3744 3513 
Q 3744 3084 3544 2831 
Q 3344 2578 2956 2516 
Q 3422 2416 3680 2098 
Q 3938 1781 3938 1306 
Q 3938 681 3513 340 
Q 3088 0 2303 0 
L 628 0 
L 628 4666 
z
" transform="scale(0.015625)"/>
       <path id="DejaVuSans-52" d="M 2841 2188 
Q 3044 2119 3236 1894 
Q 3428 1669 3622 1275 
L 4263 0 
L 3584 0 
L 2988 1197 
Q 2756 1666 2539 1819 
Q 2322 1972 1947 1972 
L 1259 1972 
L 1259 0 
L 628 0 
L 628 4666 
L 2053 4666 
Q 2853 4666 3247 4331 
Q 3641 3997 3641 3322 
Q 3641 2881 3436 2590 
Q 3231 2300 2841 2188 
z
M 1259 4147 
L 1259 2491 
L 2053 2491 
Q 2509 2491 2742 2702 
Q 2975 2913 2975 3322 
Q 2975 3731 2742 3939 
Q 2509 4147 2053 4147 
L 1259 4147 
z
" transform="scale(0.015625)"/>
       <path id="DejaVuSans-4f" d="M 2522 4238 
Q 1834 4238 1429 3725 
Q 1025 3213 1025 2328 
Q 1025 1447 1429 934 
Q 1834 422 2522 422 
Q 3209 422 3611 934 
Q 4013 1447 4013 2328 
Q 4013 3213 3611 3725 
Q 3209 4238 2522 4238 
z
M 2522 4750 
Q 3503 4750 4090 4092 
Q 4678 3434 4678 2328 
Q 4678 1225 4090 567 
Q 3503 -91 2522 -91 
Q 1538 -91 948 565 
Q 359 1222 359 2328 
Q 359 3434 948 4092 
Q 1538 4750 2522 4750 
z
" transform="scale(0.015625)"/>
       <path id="DejaVuSans-4e" d="M 628 4666 
L 1478 4666 
L 3547 763 
L 3547 4666 
L 4159 4666 
L 4159 0 
L 3309 0 
L 1241 3903 
L 1241 0 
L 628 0 
L 628 4666 
z
" transform="scale(0.015625)"/>
       <path id="DejaVuSans-32" d="M 1228 531 
L 3431 531 
L 3431 0 
L 469 0 
L 469 531 
Q 828 903 1448 1529 
Q 2069 2156 2228 2338 
Q 2531 2678 2651 2914 
Q 2772 3150 2772 3378 
Q 2772 3750 2511 3984 
Q 2250 4219 1831 4219 
Q 1534 4219 1204 4116 
Q 875 4013 500 3803 
L 500 4441 
Q 881 4594 1212 4672 
Q 1544 4750 1819 4750 
Q 2544 4750 2975 4387 
Q 3406 4025 3406 3419 
Q 3406 3131 3298 2873 
Q 3191 2616 2906 2266 
Q 2828 2175 2409 1742 
Q 1991 1309 1228 531 
z
" transform="scale(0.015625)"/>
       <path id="DejaVuSans-34" d="M 2419 4116 
L 825 1625 
L 2419 1625 
L 2419 4116 
z
M 2253 4666 
L 3047 4666 
L 3047 1625 
L 3713 1625 
L 3713 1100 
L 3047 1100 
L 3047 0 
L 2419 0 
L 2419 1100 
L 313 1100 
L 313 1709 
L 2253 4666 
z
" transform="scale(0.015625)"/>
       <path id="DejaVuSans-36" d="M 2113 2584 
Q 1688 2584 1439 2293 
Q 1191 2003 1191 1497 
Q 1191 994 1439 701 
Q 1688 409 2113 409 
Q 2538 409 2786 701 
Q 3034 994 3034 1497 
Q 3034 2003 2786 2293 
Q 2538 2584 2113 2584 
z
M 3366 4563 
L 3366 3988 
Q 3128 4100 2886 4159 
Q 2644 4219 2406 4219 
Q 1781 4219 1451 3797 
Q 1122 3375 1075 2522 
Q 1259 2794 1537 2939 
Q 1816 3084 2150 3084 
Q 2853 3084 3261 2657 
Q 3669 2231 3669 1497 
Q 3669 778 3244 343 
Q 2819 -91 2113 -91 
Q 1303 -91 875 529 
Q 447 1150 447 2328 
Q 447 3434 972 4092 
Q 1497 4750 2381 4750 
Q 2619 4750 2861 4703 
Q 3103 4656 3366 4563 
z
" transform="scale(0.015625)"/>
      </defs>
      <use xlink:href="#DejaVuSans-55"/>
      <use xlink:href="#DejaVuSans-42" x="73.193359"/>
      <use xlink:href="#DejaVuSans-45" x="141.796875"/>
      <use xlink:href="#DejaVuSans-52" x="204.980469"/>
      <use xlink:href="#DejaVuSans-4f" x="274.462891"/>
      <use xlink:href="#DejaVuSans-4e" x="353.173828"/>
      <use xlink:href="#DejaVuSans-3a" x="427.978516"/>
      <use xlink:href="#DejaVuSans-30" x="461.669922"/>
      <use xlink:href="#DejaVuSans-30" x="525.292969"/>
      <use xlink:href="#DejaVuSans-30" x="588.916016"/>
      <use xlink:href="#DejaVuSans-32" x="652.539062"/>
      <use xlink:href="#DejaVuSans-30" x="716.162109"/>
      <use xlink:href="#DejaVuSans-34" x="779.785156"/>
      <use xlink:href="#DejaVuSans-36" x="843.408203"/>
     </g>
    </g>
    <g clip-path="url(#p2d01857bff)">
     <!-- GrossAnatomicalStructure -->
     <g transform="translate(582.638042 196.748625)scale(0.12 -0.12)">
      <defs>
       <path id="DejaVuSans-47" d="M 3809 666 
L 3809 1919 
L 2778 1919 
L 2778 2438 
L 4434 2438 
L 4434 434 
Q 4069 175 3628 42 
Q 3188 -91 2688 -91 
Q 1594 -91 976 548 
Q 359 1188 359 2328 
Q 359 3472 976 4111 
Q 1594 4750 2688 4750 
Q 3144 4750 3555 4637 
Q 3966 4525 4313 4306 
L 4313 3634 
Q 3963 3931 3569 4081 
Q 3175 4231 2741 4231 
Q 1884 4231 1454 3753 
Q 1025 3275 1025 2328 
Q 1025 1384 1454 906 
Q 1884 428 2741 428 
Q 3075 428 3337 486 
Q 3600 544 3809 666 
z
" transform="scale(0.015625)"/>
       <path id="DejaVuSans-41" d="M 2188 4044 
L 1331 1722 
L 3047 1722 
L 2188 4044 
z
M 1831 4666 
L 2547 4666 
L 4325 0 
L 3669 0 
L 3244 1197 
L 1141 1197 
L 716 0 
L 50 0 
L 1831 4666 
z
" transform="scale(0.015625)"/>
       <path id="DejaVuSans-6d" d="M 3328 2828 
Q 3544 3216 3844 3400 
Q 4144 3584 4550 3584 
Q 5097 3584 5394 3201 
Q 5691 2819 5691 2113 
L 5691 0 
L 5113 0 
L 5113 2094 
Q 5113 2597 4934 2840 
Q 4756 3084 4391 3084 
Q 3944 3084 3684 2787 
Q 3425 2491 3425 1978 
L 3425 0 
L 2847 0 
L 2847 2094 
Q 2847 2600 2669 2842 
Q 2491 3084 2119 3084 
Q 1678 3084 1418 2786 
Q 1159 2488 1159 1978 
L 1159 0 
L 581 0 
L 581 3500 
L 1159 3500 
L 1159 2956 
Q 1356 3278 1631 3431 
Q 1906 3584 2284 3584 
Q 2666 3584 2933 3390 
Q 3200 3197 3328 2828 
z
" transform="scale(0.015625)"/>
      </defs>
      <use xlink:href="#DejaVuSans-47"/>
      <use xlink:href="#DejaVuSans-72" x="77.490234"/>
      <use xlink:href="#DejaVuSans-6f" x="116.353516"/>
      <use xlink:href="#DejaVuSans-73" x="177.535156"/>
      <use xlink:href="#DejaVuSans-73" x="229.634766"/>
      <use xlink:href="#DejaVuSans-41" x="281.734375"/>
      <use xlink:href="#DejaVuSans-6e" x="350.142578"/>
      <use xlink:href="#DejaVuSans-61" x="413.521484"/>
      <use xlink:href="#DejaVuSans-74" x="474.800781"/>
      <use xlink:href="#DejaVuSans-6f" x="514.009766"/>
      <use xlink:href="#DejaVuSans-6d" x="575.191406"/>
      <use xlink:href="#DejaVuSans-69" x="672.603516"/>
      <use xlink:href="#DejaVuSans-63" x="700.386719"/>
      <use xlink:href="#DejaVuSans-61" x="755.367188"/>
      <use xlink:href="#DejaVuSans-6c" x="816.646484"/>
      <use xlink:href="#DejaVuSans-53" x="844.429688"/>
      <use xlink:href="#DejaVuSans-74" x="907.90625"/>
      <use xlink:href="#DejaVuSans-72" x="947.115234"/>
      <use xlink:href="#DejaVuSans-75" x="988.228516"/>
      <use xlink:href="#DejaVuSans-63" x="1051.607422"/>
      <use xlink:href="#DejaVuSans-74" x="1106.587891"/>
      <use xlink:href="#DejaVuSans-75" x="1145.796875"/>
      <use xlink:href="#DejaVuSans-72" x="1209.175781"/>
      <use xlink:href="#DejaVuSans-65" x="1248.039062"/>
     </g>
    </g>
   </g>
   <g id="text_7">
    <g clip-path="url(#p2d01857bff)">
     <!-- Thyroid cancer -->
     <g transform="translate(902.189752 163.155187)scale(0.12 -0.12)">
      <use xlink:href="#DejaVuSans-54"/>
      <use xlink:href="#DejaVuSans-68" x="61.083984"/>
      <use xlink:href="#DejaVuSans-79" x="124.462891"/>
      <use xlink:href="#DejaVuSans-72" x="183.642578"/>
      <use xlink:href="#DejaVuSans-6f" x="222.505859"/>
      <use xlink:href="#DejaVuSans-69" x="283.6875"/>
      <use xlink:href="#DejaVuSans-64" x="311.470703"/>
      <use xlink:href="#DejaVuSans-20" x="374.947266"/>
      <use xlink:href="#DejaVuSans-63" x="406.734375"/>
      <use xlink:href="#DejaVuSans-61" x="461.714844"/>
      <use xlink:href="#DejaVuSans-6e" x="522.994141"/>
      <use xlink:href="#DejaVuSans-63" x="586.373047"/>
      <use xlink:href="#DejaVuSans-65" x="641.353516"/>
      <use xlink:href="#DejaVuSans-72" x="702.876953"/>
     </g>
    </g>
    <g clip-path="url(#p2d01857bff)">
     <!-- (Diagnostic) -->
     <g transform="translate(910.457565 176.592562)scale(0.12 -0.12)">
      <defs>
       <path id="DejaVuSans-28" d="M 1984 4856 
Q 1566 4138 1362 3434 
Q 1159 2731 1159 2009 
Q 1159 1288 1364 580 
Q 1569 -128 1984 -844 
L 1484 -844 
Q 1016 -109 783 600 
Q 550 1309 550 2009 
Q 550 2706 781 3412 
Q 1013 4119 1484 4856 
L 1984 4856 
z
" transform="scale(0.015625)"/>
       <path id="DejaVuSans-29" d="M 513 4856 
L 1013 4856 
Q 1481 4119 1714 3412 
Q 1947 2706 1947 2009 
Q 1947 1309 1714 600 
Q 1481 -109 1013 -844 
L 513 -844 
Q 928 -128 1133 580 
Q 1338 1288 1338 2009 
Q 1338 2731 1133 3434 
Q 928 4138 513 4856 
z
" transform="scale(0.015625)"/>
      </defs>
      <use xlink:href="#DejaVuSans-28"/>
      <use xlink:href="#DejaVuSans-44" x="39.013672"/>
      <use xlink:href="#DejaVuSans-69" x="116.015625"/>
      <use xlink:href="#DejaVuSans-61" x="143.798828"/>
      <use xlink:href="#DejaVuSans-67" x="205.078125"/>
      <use xlink:href="#DejaVuSans-6e" x="268.554688"/>
      <use xlink:href="#DejaVuSans-6f" x="331.933594"/>
      <use xlink:href="#DejaVuSans-73" x="393.115234"/>
      <use xlink:href="#DejaVuSans-74" x="445.214844"/>
      <use xlink:href="#DejaVuSans-69" x="484.423828"/>
      <use xlink:href="#DejaVuSans-63" x="512.207031"/>
      <use xlink:href="#DejaVuSans-29" x="567.1875"/>
     </g>
    </g>
    <g clip-path="url(#p2d01857bff)">
     <!-- MESH:D013964 -->
     <g transform="translate(899.994127 190.029937)scale(0.12 -0.12)">
      <defs>
       <path id="DejaVuSans-31" d="M 794 531 
L 1825 531 
L 1825 4091 
L 703 3866 
L 703 4441 
L 1819 4666 
L 2450 4666 
L 2450 531 
L 3481 531 
L 3481 0 
L 794 0 
L 794 531 
z
" transform="scale(0.015625)"/>
       <path id="DejaVuSans-39" d="M 703 97 
L 703 672 
Q 941 559 1184 500 
Q 1428 441 1663 441 
Q 2288 441 2617 861 
Q 2947 1281 2994 2138 
Q 2813 1869 2534 1725 
Q 2256 1581 1919 1581 
Q 1219 1581 811 2004 
Q 403 2428 403 3163 
Q 403 3881 828 4315 
Q 1253 4750 1959 4750 
Q 2769 4750 3195 4129 
Q 3622 3509 3622 2328 
Q 3622 1225 3098 567 
Q 2575 -91 1691 -91 
Q 1453 -91 1209 -44 
Q 966 3 703 97 
z
M 1959 2075 
Q 2384 2075 2632 2365 
Q 2881 2656 2881 3163 
Q 2881 3666 2632 3958 
Q 2384 4250 1959 4250 
Q 1534 4250 1286 3958 
Q 1038 3666 1038 3163 
Q 1038 2656 1286 2365 
Q 1534 2075 1959 2075 
z
" transform="scale(0.015625)"/>
      </defs>
      <use xlink:href="#DejaVuSans-4d"/>
      <use xlink:href="#DejaVuSans-45" x="86.279297"/>
      <use xlink:href="#DejaVuSans-53" x="149.462891"/>
      <use xlink:href="#DejaVuSans-48" x="212.939453"/>
      <use xlink:href="#DejaVuSans-3a" x="288.134766"/>
      <use xlink:href="#DejaVuSans-44" x="321.826172"/>
      <use xlink:href="#DejaVuSans-30" x="398.828125"/>
      <use xlink:href="#DejaVuSans-31" x="462.451172"/>
      <use xlink:href="#DejaVuSans-33" x="526.074219"/>
      <use xlink:href="#DejaVuSans-39" x="589.697266"/>
      <use xlink:href="#DejaVuSans-36" x="653.320312"/>
      <use xlink:href="#DejaVuSans-34" x="716.943359"/>
     </g>
    </g>
    <g clip-path="url(#p2d01857bff)">
     <!-- Disease -->
     <g transform="translate(923.231002 203.467312)scale(0.12 -0.12)">
      <use xlink:href="#DejaVuSans-44"/>
      <use xlink:href="#DejaVuSans-69" x="77.001953"/>
      <use xlink:href="#DejaVuSans-73" x="104.785156"/>
      <use xlink:href="#DejaVuSans-65" x="156.884766"/>
      <use xlink:href="#DejaVuSans-61" x="218.408203"/>
      <use xlink:href="#DejaVuSans-73" x="279.6875"/>
      <use xlink:href="#DejaVuSans-65" x="331.787109"/>
     </g>
    </g>
   </g>
  </g>
 </g>
 <defs>
  <clipPath id="p2d01857bff">
   <rect x="0" y="0" width="1036.8" height="360"/>
  </clipPath>
 </defs>
</svg>
