<?xml version="1.0" encoding="utf-8" standalone="no"?>
<!DOCTYPE svg PUBLIC "-//W3C//DTD SVG 1.1//EN"
  "http://www.w3.org/Graphics/SVG/1.1/DTD/svg11.dtd">
<svg xmlns:xlink="http://www.w3.org/1999/xlink" width="1209.6pt" height="360pt" viewBox="0 0 1209.6 360" xmlns="http://www.w3.org/2000/svg" version="1.1">
 <metadata>
  <rdf:RDF xmlns:dc="http://purl.org/dc/elements/1.1/" xmlns:cc="http://creativecommons.org/ns#" xmlns:rdf="http://www.w3.org/1999/02/22-rdf-syntax-ns#">
   <cc:Work>
    <dc:type rdf:resource="http://purl.org/dc/dcmitype/StillImage"/>
    <dc:date>2023-02-08T08:51:24.220646</dc:date>
    <dc:format>image/svg+xml</dc:format>
    <dc:creator>
     <cc:Agent>
      <dc:title>Matplotlib v3.5.1, https://matplotlib.org/</dc:title>
     </cc:Agent>
    </dc:creator>
   </cc:Work>
  </rdf:RDF>
 </metadata>
 <defs>
  <style type="text/css">*{stroke-linejoin: round; stroke-linecap: butt}</style>
 </defs>
 <g id="figure_1">
  <g id="patch_1">
   <path d="M 0 360 
L 1209.6 360 
L 1209.6 0 
L 0 0 
z
" style="fill: #ffffff"/>
  </g>
  <g id="axes_1">
   <g id="patch_2">
    <path d="M 157.403851 180 
Q 229.923128 180 299.088304 180 
" clip-path="url(#pdec42ed7a8)" style="fill: none; stroke: #2ca02c; stroke-width: 3; stroke-linecap: round"/>
    <path d="M 295.088304 178 
L 299.088304 180 
L 295.088304 182 
L 295.088304 178 
z
" clip-path="url(#pdec42ed7a8)" style="fill: #2ca02c; stroke: #2ca02c; stroke-width: 3; stroke-linecap: round"/>
   </g>
   <g id="patch_3">
    <path d="M 407.321206 180 
Q 479.840484 180 549.00566 180 
" clip-path="url(#pdec42ed7a8)" style="fill: none; stroke: #2ca02c; stroke-width: 3; stroke-linecap: round"/>
    <path d="M 545.00566 178 
L 549.00566 180 
L 545.00566 182 
L 545.00566 178 
z
" clip-path="url(#pdec42ed7a8)" style="fill: #2ca02c; stroke: #2ca02c; stroke-width: 3; stroke-linecap: round"/>
   </g>
   <g id="patch_4">
    <path d="M 657.238561 180 
Q 729.757839 180 798.923015 180 
" clip-path="url(#pdec42ed7a8)" style="fill: none; stroke: #2ca02c; stroke-width: 3; stroke-linecap: round"/>
    <path d="M 794.923015 178 
L 798.923015 180 
L 794.923015 182 
L 794.923015 178 
z
" clip-path="url(#pdec42ed7a8)" style="fill: #2ca02c; stroke: #2ca02c; stroke-width: 3; stroke-linecap: round"/>
   </g>
   <g id="patch_5">
    <path d="M 907.155917 180 
Q 979.675195 180 1048.840371 180 
" clip-path="url(#pdec42ed7a8)" style="fill: none; stroke: #2ca02c; stroke-width: 3; stroke-linecap: round"/>
    <path d="M 1044.840371 178 
L 1048.840371 180 
L 1044.840371 182 
L 1044.840371 178 
z
" clip-path="url(#pdec42ed7a8)" style="fill: #2ca02c; stroke: #2ca02c; stroke-width: 3; stroke-linecap: round"/>
   </g>
   <g id="text_1">
    <g id="patch_6">
     <path d="M 204.554436 193.437969 
L 255.293498 193.437969 
Q 258.293498 193.437969 258.293498 190.437969 
L 258.293498 169.562031 
Q 258.293498 166.562031 255.293498 166.562031 
L 204.554436 166.562031 
Q 201.554436 166.562031 201.554436 169.562031 
L 201.554436 190.437969 
Q 201.554436 193.437969 204.554436 193.437969 
z
" clip-path="url(#pdec42ed7a8)" style="fill: #ffffff; stroke: #ffffff; stroke-linejoin: miter"/>
    </g>
    <g clip-path="url(#pdec42ed7a8)">
     <!-- decreases -->
     <g transform="translate(204.554436 177.160469)scale(0.1 -0.1)">
      <defs>
       <path id="DejaVuSans-64" d="M 2906 2969 
L 2906 4863 
L 3481 4863 
L 3481 0 
L 2906 0 
L 2906 525 
Q 2725 213 2448 61 
Q 2172 -91 1784 -91 
Q 1150 -91 751 415 
Q 353 922 353 1747 
Q 353 2572 751 3078 
Q 1150 3584 1784 3584 
Q 2172 3584 2448 3432 
Q 2725 3281 2906 2969 
z
M 947 1747 
Q 947 1113 1208 752 
Q 1469 391 1925 391 
Q 2381 391 2643 752 
Q 2906 1113 2906 1747 
Q 2906 2381 2643 2742 
Q 2381 3103 1925 3103 
Q 1469 3103 1208 2742 
Q 947 2381 947 1747 
z
" transform="scale(0.015625)"/>
       <path id="DejaVuSans-65" d="M 3597 1894 
L 3597 1613 
L 953 1613 
Q 991 1019 1311 708 
Q 1631 397 2203 397 
Q 2534 397 2845 478 
Q 3156 559 3463 722 
L 3463 178 
Q 3153 47 2828 -22 
Q 2503 -91 2169 -91 
Q 1331 -91 842 396 
Q 353 884 353 1716 
Q 353 2575 817 3079 
Q 1281 3584 2069 3584 
Q 2775 3584 3186 3129 
Q 3597 2675 3597 1894 
z
M 3022 2063 
Q 3016 2534 2758 2815 
Q 2500 3097 2075 3097 
Q 1594 3097 1305 2825 
Q 1016 2553 972 2059 
L 3022 2063 
z
" transform="scale(0.015625)"/>
       <path id="DejaVuSans-63" d="M 3122 3366 
L 3122 2828 
Q 2878 2963 2633 3030 
Q 2388 3097 2138 3097 
Q 1578 3097 1268 2742 
Q 959 2388 959 1747 
Q 959 1106 1268 751 
Q 1578 397 2138 397 
Q 2388 397 2633 464 
Q 2878 531 3122 666 
L 3122 134 
Q 2881 22 2623 -34 
Q 2366 -91 2075 -91 
Q 1284 -91 818 406 
Q 353 903 353 1747 
Q 353 2603 823 3093 
Q 1294 3584 2113 3584 
Q 2378 3584 2631 3529 
Q 2884 3475 3122 3366 
z
" transform="scale(0.015625)"/>
       <path id="DejaVuSans-72" d="M 2631 2963 
Q 2534 3019 2420 3045 
Q 2306 3072 2169 3072 
Q 1681 3072 1420 2755 
Q 1159 2438 1159 1844 
L 1159 0 
L 581 0 
L 581 3500 
L 1159 3500 
L 1159 2956 
Q 1341 3275 1631 3429 
Q 1922 3584 2338 3584 
Q 2397 3584 2469 3576 
Q 2541 3569 2628 3553 
L 2631 2963 
z
" transform="scale(0.015625)"/>
       <path id="DejaVuSans-61" d="M 2194 1759 
Q 1497 1759 1228 1600 
Q 959 1441 959 1056 
Q 959 750 1161 570 
Q 1363 391 1709 391 
Q 2188 391 2477 730 
Q 2766 1069 2766 1631 
L 2766 1759 
L 2194 1759 
z
M 3341 1997 
L 3341 0 
L 2766 0 
L 2766 531 
Q 2569 213 2275 61 
Q 1981 -91 1556 -91 
Q 1019 -91 701 211 
Q 384 513 384 1019 
Q 384 1609 779 1909 
Q 1175 2209 1959 2209 
L 2766 2209 
L 2766 2266 
Q 2766 2663 2505 2880 
Q 2244 3097 1772 3097 
Q 1472 3097 1187 3025 
Q 903 2953 641 2809 
L 641 3341 
Q 956 3463 1253 3523 
Q 1550 3584 1831 3584 
Q 2591 3584 2966 3190 
Q 3341 2797 3341 1997 
z
" transform="scale(0.015625)"/>
       <path id="DejaVuSans-73" d="M 2834 3397 
L 2834 2853 
Q 2591 2978 2328 3040 
Q 2066 3103 1784 3103 
Q 1356 3103 1142 2972 
Q 928 2841 928 2578 
Q 928 2378 1081 2264 
Q 1234 2150 1697 2047 
L 1894 2003 
Q 2506 1872 2764 1633 
Q 3022 1394 3022 966 
Q 3022 478 2636 193 
Q 2250 -91 1575 -91 
Q 1294 -91 989 -36 
Q 684 19 347 128 
L 347 722 
Q 666 556 975 473 
Q 1284 391 1588 391 
Q 1994 391 2212 530 
Q 2431 669 2431 922 
Q 2431 1156 2273 1281 
Q 2116 1406 1581 1522 
L 1381 1569 
Q 847 1681 609 1914 
Q 372 2147 372 2553 
Q 372 3047 722 3315 
Q 1072 3584 1716 3584 
Q 2034 3584 2315 3537 
Q 2597 3491 2834 3397 
z
" transform="scale(0.015625)"/>
      </defs>
      <use xlink:href="#DejaVuSans-64"/>
      <use xlink:href="#DejaVuSans-65" x="63.476562"/>
      <use xlink:href="#DejaVuSans-63" x="125"/>
      <use xlink:href="#DejaVuSans-72" x="179.980469"/>
      <use xlink:href="#DejaVuSans-65" x="218.84375"/>
      <use xlink:href="#DejaVuSans-61" x="280.367188"/>
      <use xlink:href="#DejaVuSans-73" x="341.646484"/>
      <use xlink:href="#DejaVuSans-65" x="393.746094"/>
      <use xlink:href="#DejaVuSans-73" x="455.269531"/>
     </g>
    </g>
    <g clip-path="url(#pdec42ed7a8)">
     <!-- activity of -->
     <g transform="translate(205.084904 188.358281)scale(0.1 -0.1)">
      <defs>
       <path id="DejaVuSans-74" d="M 1172 4494 
L 1172 3500 
L 2356 3500 
L 2356 3053 
L 1172 3053 
L 1172 1153 
Q 1172 725 1289 603 
Q 1406 481 1766 481 
L 2356 481 
L 2356 0 
L 1766 0 
Q 1100 0 847 248 
Q 594 497 594 1153 
L 594 3053 
L 172 3053 
L 172 3500 
L 594 3500 
L 594 4494 
L 1172 4494 
z
" transform="scale(0.015625)"/>
       <path id="DejaVuSans-69" d="M 603 3500 
L 1178 3500 
L 1178 0 
L 603 0 
L 603 3500 
z
M 603 4863 
L 1178 4863 
L 1178 4134 
L 603 4134 
L 603 4863 
z
" transform="scale(0.015625)"/>
       <path id="DejaVuSans-76" d="M 191 3500 
L 800 3500 
L 1894 563 
L 2988 3500 
L 3597 3500 
L 2284 0 
L 1503 0 
L 191 3500 
z
" transform="scale(0.015625)"/>
       <path id="DejaVuSans-79" d="M 2059 -325 
Q 1816 -950 1584 -1140 
Q 1353 -1331 966 -1331 
L 506 -1331 
L 506 -850 
L 844 -850 
Q 1081 -850 1212 -737 
Q 1344 -625 1503 -206 
L 1606 56 
L 191 3500 
L 800 3500 
L 1894 763 
L 2988 3500 
L 3597 3500 
L 2059 -325 
z
" transform="scale(0.015625)"/>
       <path id="DejaVuSans-20" transform="scale(0.015625)"/>
       <path id="DejaVuSans-6f" d="M 1959 3097 
Q 1497 3097 1228 2736 
Q 959 2375 959 1747 
Q 959 1119 1226 758 
Q 1494 397 1959 397 
Q 2419 397 2687 759 
Q 2956 1122 2956 1747 
Q 2956 2369 2687 2733 
Q 2419 3097 1959 3097 
z
M 1959 3584 
Q 2709 3584 3137 3096 
Q 3566 2609 3566 1747 
Q 3566 888 3137 398 
Q 2709 -91 1959 -91 
Q 1206 -91 779 398 
Q 353 888 353 1747 
Q 353 2609 779 3096 
Q 1206 3584 1959 3584 
z
" transform="scale(0.015625)"/>
       <path id="DejaVuSans-66" d="M 2375 4863 
L 2375 4384 
L 1825 4384 
Q 1516 4384 1395 4259 
Q 1275 4134 1275 3809 
L 1275 3500 
L 2222 3500 
L 2222 3053 
L 1275 3053 
L 1275 0 
L 697 0 
L 697 3053 
L 147 3053 
L 147 3500 
L 697 3500 
L 697 3744 
Q 697 4328 969 4595 
Q 1241 4863 1831 4863 
L 2375 4863 
z
" transform="scale(0.015625)"/>
      </defs>
      <use xlink:href="#DejaVuSans-61"/>
      <use xlink:href="#DejaVuSans-63" x="61.279297"/>
      <use xlink:href="#DejaVuSans-74" x="116.259766"/>
      <use xlink:href="#DejaVuSans-69" x="155.46875"/>
      <use xlink:href="#DejaVuSans-76" x="183.251953"/>
      <use xlink:href="#DejaVuSans-69" x="242.431641"/>
      <use xlink:href="#DejaVuSans-74" x="270.214844"/>
      <use xlink:href="#DejaVuSans-79" x="309.423828"/>
      <use xlink:href="#DejaVuSans-20" x="368.603516"/>
      <use xlink:href="#DejaVuSans-6f" x="400.390625"/>
      <use xlink:href="#DejaVuSans-66" x="461.572266"/>
     </g>
    </g>
   </g>
   <g id="text_2">
    <g id="patch_7">
     <path d="M 444.03351 187.839062 
L 515.649135 187.839062 
Q 518.649135 187.839062 518.649135 184.839062 
L 518.649135 175.160937 
Q 518.649135 172.160937 515.649135 172.160937 
L 444.03351 172.160937 
Q 441.03351 172.160937 441.03351 175.160937 
L 441.03351 184.839062 
Q 441.03351 187.839062 444.03351 187.839062 
z
" clip-path="url(#pdec42ed7a8)" style="fill: #ffffff; stroke: #ffffff; stroke-linejoin: miter"/>
    </g>
    <g clip-path="url(#pdec42ed7a8)">
     <!-- participates in -->
     <g transform="translate(444.03351 182.759375)scale(0.1 -0.1)">
      <defs>
       <path id="DejaVuSans-70" d="M 1159 525 
L 1159 -1331 
L 581 -1331 
L 581 3500 
L 1159 3500 
L 1159 2969 
Q 1341 3281 1617 3432 
Q 1894 3584 2278 3584 
Q 2916 3584 3314 3078 
Q 3713 2572 3713 1747 
Q 3713 922 3314 415 
Q 2916 -91 2278 -91 
Q 1894 -91 1617 61 
Q 1341 213 1159 525 
z
M 3116 1747 
Q 3116 2381 2855 2742 
Q 2594 3103 2138 3103 
Q 1681 3103 1420 2742 
Q 1159 2381 1159 1747 
Q 1159 1113 1420 752 
Q 1681 391 2138 391 
Q 2594 391 2855 752 
Q 3116 1113 3116 1747 
z
" transform="scale(0.015625)"/>
       <path id="DejaVuSans-6e" d="M 3513 2113 
L 3513 0 
L 2938 0 
L 2938 2094 
Q 2938 2591 2744 2837 
Q 2550 3084 2163 3084 
Q 1697 3084 1428 2787 
Q 1159 2491 1159 1978 
L 1159 0 
L 581 0 
L 581 3500 
L 1159 3500 
L 1159 2956 
Q 1366 3272 1645 3428 
Q 1925 3584 2291 3584 
Q 2894 3584 3203 3211 
Q 3513 2838 3513 2113 
z
" transform="scale(0.015625)"/>
      </defs>
      <use xlink:href="#DejaVuSans-70"/>
      <use xlink:href="#DejaVuSans-61" x="63.476562"/>
      <use xlink:href="#DejaVuSans-72" x="124.755859"/>
      <use xlink:href="#DejaVuSans-74" x="165.869141"/>
      <use xlink:href="#DejaVuSans-69" x="205.078125"/>
      <use xlink:href="#DejaVuSans-63" x="232.861328"/>
      <use xlink:href="#DejaVuSans-69" x="287.841797"/>
      <use xlink:href="#DejaVuSans-70" x="315.625"/>
      <use xlink:href="#DejaVuSans-61" x="379.101562"/>
      <use xlink:href="#DejaVuSans-74" x="440.380859"/>
      <use xlink:href="#DejaVuSans-65" x="479.589844"/>
      <use xlink:href="#DejaVuSans-73" x="541.113281"/>
      <use xlink:href="#DejaVuSans-20" x="593.212891"/>
      <use xlink:href="#DejaVuSans-69" x="625"/>
      <use xlink:href="#DejaVuSans-6e" x="652.783203"/>
     </g>
    </g>
   </g>
   <g id="text_3">
    <g id="patch_8">
     <path d="M 709.556334 187.839062 
L 749.961021 187.839062 
Q 752.961021 187.839062 752.961021 184.839062 
L 752.961021 175.160937 
Q 752.961021 172.160937 749.961021 172.160937 
L 709.556334 172.160937 
Q 706.556334 172.160937 706.556334 175.160937 
L 706.556334 184.839062 
Q 706.556334 187.839062 709.556334 187.839062 
z
" clip-path="url(#pdec42ed7a8)" style="fill: #ffffff; stroke: #ffffff; stroke-linejoin: miter"/>
    </g>
    <g clip-path="url(#pdec42ed7a8)">
     <!-- in taxon -->
     <g transform="translate(709.556334 182.759375)scale(0.1 -0.1)">
      <defs>
       <path id="DejaVuSans-78" d="M 3513 3500 
L 2247 1797 
L 3578 0 
L 2900 0 
L 1881 1375 
L 863 0 
L 184 0 
L 1544 1831 
L 300 3500 
L 978 3500 
L 1906 2253 
L 2834 3500 
L 3513 3500 
z
" transform="scale(0.015625)"/>
      </defs>
      <use xlink:href="#DejaVuSans-69"/>
      <use xlink:href="#DejaVuSans-6e" x="27.783203"/>
      <use xlink:href="#DejaVuSans-20" x="91.162109"/>
      <use xlink:href="#DejaVuSans-74" x="122.949219"/>
      <use xlink:href="#DejaVuSans-61" x="162.158203"/>
      <use xlink:href="#DejaVuSans-78" x="223.4375"/>
      <use xlink:href="#DejaVuSans-6f" x="279.492188"/>
      <use xlink:href="#DejaVuSans-6e" x="340.673828"/>
     </g>
    </g>
   </g>
   <g id="text_4">
    <g id="patch_9">
     <path d="M 962.408064 187.839062 
L 996.944002 187.839062 
Q 999.944002 187.839062 999.944002 184.839062 
L 999.944002 175.160937 
Q 999.944002 172.160937 996.944002 172.160937 
L 962.408064 172.160937 
Q 959.408064 172.160937 959.408064 175.160937 
L 959.408064 184.839062 
Q 959.408064 187.839062 962.408064 187.839062 
z
" clip-path="url(#pdec42ed7a8)" style="fill: #ffffff; stroke: #ffffff; stroke-linejoin: miter"/>
    </g>
    <g clip-path="url(#pdec42ed7a8)">
     <!-- causes -->
     <g transform="translate(962.408064 182.759375)scale(0.1 -0.1)">
      <defs>
       <path id="DejaVuSans-75" d="M 544 1381 
L 544 3500 
L 1119 3500 
L 1119 1403 
Q 1119 906 1312 657 
Q 1506 409 1894 409 
Q 2359 409 2629 706 
Q 2900 1003 2900 1516 
L 2900 3500 
L 3475 3500 
L 3475 0 
L 2900 0 
L 2900 538 
Q 2691 219 2414 64 
Q 2138 -91 1772 -91 
Q 1169 -91 856 284 
Q 544 659 544 1381 
z
M 1991 3584 
L 1991 3584 
z
" transform="scale(0.015625)"/>
      </defs>
      <use xlink:href="#DejaVuSans-63"/>
      <use xlink:href="#DejaVuSans-61" x="54.980469"/>
      <use xlink:href="#DejaVuSans-75" x="116.259766"/>
      <use xlink:href="#DejaVuSans-73" x="179.638672"/>
      <use xlink:href="#DejaVuSans-65" x="231.738281"/>
      <use xlink:href="#DejaVuSans-73" x="293.261719"/>
     </g>
    </g>
   </g>
   <g id="PathCollection_1">
    <defs>
     <path id="C0_0_6f5bda2c5b" d="M 0 52.440442 
C 13.907368 52.440442 27.246998 46.914987 37.080992 37.080992 
C 46.914987 27.246998 52.440442 13.907368 52.440442 -0 
C 52.440442 -13.907368 46.914987 -27.246998 37.080992 -37.080992 
C 27.246998 -46.914987 13.907368 -52.440442 0 -52.440442 
C -13.907368 -52.440442 -27.246998 -46.914987 -37.080992 -37.080992 
C -46.914987 -27.246998 -52.440442 -13.907368 -52.440442 0 
C -52.440442 13.907368 -46.914987 27.246998 -37.080992 37.080992 
C -27.246998 46.914987 -13.907368 52.440442 0 52.440442 
z
"/>
    </defs>
    <g clip-path="url(#pdec42ed7a8)">
     <use xlink:href="#C0_0_6f5bda2c5b" x="104.965289" y="180" style="fill: #01c472; stroke: #01c472"/>
    </g>
    <g clip-path="url(#pdec42ed7a8)">
     <use xlink:href="#C0_0_6f5bda2c5b" x="354.882645" y="180" style="fill: #01c472; stroke: #01c472"/>
    </g>
    <g clip-path="url(#pdec42ed7a8)">
     <use xlink:href="#C0_0_6f5bda2c5b" x="604.8" y="180" style="fill: #b75970; stroke: #b75970"/>
    </g>
    <g clip-path="url(#pdec42ed7a8)">
     <use xlink:href="#C0_0_6f5bda2c5b" x="854.717355" y="180" style="fill: #e9bf98; stroke: #e9bf98"/>
    </g>
    <g clip-path="url(#pdec42ed7a8)">
     <use xlink:href="#C0_0_6f5bda2c5b" x="1104.634711" y="180" style="fill: #70c6ca; stroke: #70c6ca"/>
    </g>
   </g>
   <g id="text_5">
    <path d="M 572.076563 161.125125 
L 579.477188 161.125125 
L 579.477188 162.122625 
L 576.372187 162.122625 
L 576.372187 169.873875 
L 575.183437 169.873875 
L 575.183437 162.122625 
L 572.076563 162.122625 
L 572.076563 161.125125 
z
M 582.605391 164.31825 
Q 582.423516 164.21325 582.209766 164.1645 
Q 581.996016 164.113875 581.739141 164.113875 
Q 580.824141 164.113875 580.334766 164.70825 
Q 579.845391 165.302625 579.845391 166.416375 
L 579.845391 169.873875 
L 578.761641 169.873875 
L 578.761641 163.311375 
L 579.845391 163.311375 
L 579.845391 164.331375 
Q 580.186641 163.73325 580.730391 163.4445 
Q 581.276016 163.153875 582.056016 163.153875 
Q 582.166641 163.153875 582.301641 163.168875 
Q 582.436641 163.182 582.599766 163.212 
L 582.605391 164.31825 
z
M 586.719609 166.57575 
Q 585.412734 166.57575 584.908359 166.873875 
Q 584.403984 167.172 584.403984 167.893875 
Q 584.403984 168.467625 584.782734 168.805125 
Q 585.161484 169.14075 585.810234 169.14075 
Q 586.708359 169.14075 587.250234 168.505125 
Q 587.792109 167.8695 587.792109 166.81575 
L 587.792109 166.57575 
L 586.719609 166.57575 
z
M 588.870234 166.1295 
L 588.870234 169.873875 
L 587.792109 169.873875 
L 587.792109 168.87825 
Q 587.422734 169.4745 586.871484 169.7595 
Q 586.320234 170.0445 585.523359 170.0445 
Q 584.516484 170.0445 583.920234 169.47825 
Q 583.325859 168.912 583.325859 167.96325 
Q 583.325859 166.857 584.066484 166.2945 
Q 584.808984 165.732 586.278984 165.732 
L 587.792109 165.732 
L 587.792109 165.625125 
Q 587.792109 164.88075 587.302734 164.473875 
Q 586.813359 164.067 585.928359 164.067 
Q 585.365859 164.067 584.831484 164.202 
Q 584.298984 164.337 583.807734 164.607 
L 583.807734 163.6095 
Q 584.398359 163.38075 584.955234 163.26825 
Q 585.512109 163.153875 586.038984 163.153875 
Q 587.463984 163.153875 588.167109 163.892625 
Q 588.870234 164.6295 588.870234 166.1295 
z
M 596.54625 165.912 
L 596.54625 169.873875 
L 595.468125 169.873875 
L 595.468125 165.947625 
Q 595.468125 165.01575 595.104375 164.5545 
Q 594.740625 164.091375 594.015 164.091375 
Q 593.14125 164.091375 592.636875 164.64825 
Q 592.1325 165.20325 592.1325 166.165125 
L 592.1325 169.873875 
L 591.04875 169.873875 
L 591.04875 163.311375 
L 592.1325 163.311375 
L 592.1325 164.331375 
Q 592.520625 163.738875 593.04375 163.446375 
Q 593.56875 163.153875 594.255 163.153875 
Q 595.385625 163.153875 595.965 163.85325 
Q 596.54625 164.552625 596.54625 165.912 
z
M 602.878594 163.5045 
L 602.878594 164.5245 
Q 602.422969 164.290125 601.929844 164.173875 
Q 601.438594 164.05575 600.909844 164.05575 
Q 600.107344 164.05575 599.706094 164.301375 
Q 599.304844 164.547 599.304844 165.040125 
Q 599.304844 165.415125 599.591719 165.628875 
Q 599.878594 165.842625 600.746719 166.03575 
L 601.116094 166.11825 
Q 602.263594 166.363875 602.747344 166.812 
Q 603.231094 167.260125 603.231094 168.062625 
Q 603.231094 168.977625 602.507344 169.512 
Q 601.783594 170.0445 600.517969 170.0445 
Q 599.991094 170.0445 599.419219 169.941375 
Q 598.847344 169.83825 598.215469 169.633875 
L 598.215469 168.520125 
Q 598.813594 168.831375 599.392969 168.987 
Q 599.972344 169.14075 600.542344 169.14075 
Q 601.303594 169.14075 601.712344 168.880125 
Q 602.122969 168.6195 602.122969 168.145125 
Q 602.122969 167.706375 601.826719 167.472 
Q 601.532344 167.237625 600.529219 167.020125 
L 600.154219 166.932 
Q 599.152969 166.722 598.706719 166.285125 
Q 598.262344 165.84825 598.262344 165.087 
Q 598.262344 164.16075 598.918594 163.65825 
Q 599.574844 163.153875 600.782344 163.153875 
Q 601.378594 163.153875 601.905469 163.242 
Q 602.434219 163.32825 602.878594 163.5045 
z
M 604.947422 160.75575 
L 606.025547 160.75575 
L 606.025547 169.873875 
L 604.947422 169.873875 
L 604.947422 160.75575 
z
M 611.264531 166.57575 
Q 609.957656 166.57575 609.453281 166.873875 
Q 608.948906 167.172 608.948906 167.893875 
Q 608.948906 168.467625 609.327656 168.805125 
Q 609.706406 169.14075 610.355156 169.14075 
Q 611.253281 169.14075 611.795156 168.505125 
Q 612.337031 167.8695 612.337031 166.81575 
L 612.337031 166.57575 
L 611.264531 166.57575 
z
M 613.415156 166.1295 
L 613.415156 169.873875 
L 612.337031 169.873875 
L 612.337031 168.87825 
Q 611.967656 169.4745 611.416406 169.7595 
Q 610.865156 170.0445 610.068281 170.0445 
Q 609.061406 170.0445 608.465156 169.47825 
Q 607.870781 168.912 607.870781 167.96325 
Q 607.870781 166.857 608.611406 166.2945 
Q 609.353906 165.732 610.823906 165.732 
L 612.337031 165.732 
L 612.337031 165.625125 
Q 612.337031 164.88075 611.847656 164.473875 
Q 611.358281 164.067 610.473281 164.067 
Q 609.910781 164.067 609.376406 164.202 
Q 608.843906 164.337 608.352656 164.607 
L 608.352656 163.6095 
Q 608.943281 163.38075 609.500156 163.26825 
Q 610.057031 163.153875 610.583906 163.153875 
Q 612.008906 163.153875 612.712031 163.892625 
Q 613.415156 164.6295 613.415156 166.1295 
z
M 616.701797 161.447625 
L 616.701797 163.311375 
L 618.921797 163.311375 
L 618.921797 164.1495 
L 616.701797 164.1495 
L 616.701797 167.712 
Q 616.701797 168.5145 616.921172 168.74325 
Q 617.140547 168.972 617.815547 168.972 
L 618.921797 168.972 
L 618.921797 169.873875 
L 617.815547 169.873875 
Q 616.566797 169.873875 616.092422 169.408875 
Q 615.618047 168.942 615.618047 167.712 
L 615.618047 164.1495 
L 614.826797 164.1495 
L 614.826797 163.311375 
L 615.618047 163.311375 
L 615.618047 161.447625 
L 616.701797 161.447625 
z
M 620.34 163.311375 
L 621.418125 163.311375 
L 621.418125 169.873875 
L 620.34 169.873875 
L 620.34 163.311375 
z
M 620.34 160.75575 
L 621.418125 160.75575 
L 621.418125 162.122625 
L 620.34 162.122625 
L 620.34 160.75575 
z
M 626.216484 164.067 
Q 625.350234 164.067 624.845859 164.743875 
Q 624.341484 165.42075 624.341484 166.59825 
Q 624.341484 167.77575 624.842109 168.452625 
Q 625.344609 169.1295 626.216484 169.1295 
Q 627.078984 169.1295 627.581484 168.45075 
Q 628.085859 167.770125 628.085859 166.59825 
Q 628.085859 165.432 627.581484 164.7495 
Q 627.078984 164.067 626.216484 164.067 
z
M 626.216484 163.153875 
Q 627.622734 163.153875 628.425234 164.068875 
Q 629.229609 164.982 629.229609 166.59825 
Q 629.229609 168.208875 628.425234 169.127625 
Q 627.622734 170.0445 626.216484 170.0445 
Q 624.804609 170.0445 624.003984 169.127625 
Q 623.205234 168.208875 623.205234 166.59825 
Q 623.205234 164.982 624.003984 164.068875 
Q 624.804609 163.153875 626.216484 163.153875 
z
M 636.472031 165.912 
L 636.472031 169.873875 
L 635.393906 169.873875 
L 635.393906 165.947625 
Q 635.393906 165.01575 635.030156 164.5545 
Q 634.666406 164.091375 633.940781 164.091375 
Q 633.067031 164.091375 632.562656 164.64825 
Q 632.058281 165.20325 632.058281 166.165125 
L 632.058281 169.873875 
L 630.974531 169.873875 
L 630.974531 163.311375 
L 632.058281 163.311375 
L 632.058281 164.331375 
Q 632.446406 163.738875 632.969531 163.446375 
Q 633.494531 163.153875 634.180781 163.153875 
Q 635.311406 163.153875 635.890781 163.85325 
Q 636.472031 164.552625 636.472031 165.912 
z
" clip-path="url(#pdec42ed7a8)" style="fill: #ffffff; stroke: #000000; stroke-width: 2"/>
    <path d="M 572.076563 161.125125 
L 579.477188 161.125125 
L 579.477188 162.122625 
L 576.372187 162.122625 
L 576.372187 169.873875 
L 575.183437 169.873875 
L 575.183437 162.122625 
L 572.076563 162.122625 
L 572.076563 161.125125 
z
M 582.605391 164.31825 
Q 582.423516 164.21325 582.209766 164.1645 
Q 581.996016 164.113875 581.739141 164.113875 
Q 580.824141 164.113875 580.334766 164.70825 
Q 579.845391 165.302625 579.845391 166.416375 
L 579.845391 169.873875 
L 578.761641 169.873875 
L 578.761641 163.311375 
L 579.845391 163.311375 
L 579.845391 164.331375 
Q 580.186641 163.73325 580.730391 163.4445 
Q 581.276016 163.153875 582.056016 163.153875 
Q 582.166641 163.153875 582.301641 163.168875 
Q 582.436641 163.182 582.599766 163.212 
L 582.605391 164.31825 
z
M 586.719609 166.57575 
Q 585.412734 166.57575 584.908359 166.873875 
Q 584.403984 167.172 584.403984 167.893875 
Q 584.403984 168.467625 584.782734 168.805125 
Q 585.161484 169.14075 585.810234 169.14075 
Q 586.708359 169.14075 587.250234 168.505125 
Q 587.792109 167.8695 587.792109 166.81575 
L 587.792109 166.57575 
L 586.719609 166.57575 
z
M 588.870234 166.1295 
L 588.870234 169.873875 
L 587.792109 169.873875 
L 587.792109 168.87825 
Q 587.422734 169.4745 586.871484 169.7595 
Q 586.320234 170.0445 585.523359 170.0445 
Q 584.516484 170.0445 583.920234 169.47825 
Q 583.325859 168.912 583.325859 167.96325 
Q 583.325859 166.857 584.066484 166.2945 
Q 584.808984 165.732 586.278984 165.732 
L 587.792109 165.732 
L 587.792109 165.625125 
Q 587.792109 164.88075 587.302734 164.473875 
Q 586.813359 164.067 585.928359 164.067 
Q 585.365859 164.067 584.831484 164.202 
Q 584.298984 164.337 583.807734 164.607 
L 583.807734 163.6095 
Q 584.398359 163.38075 584.955234 163.26825 
Q 585.512109 163.153875 586.038984 163.153875 
Q 587.463984 163.153875 588.167109 163.892625 
Q 588.870234 164.6295 588.870234 166.1295 
z
M 596.54625 165.912 
L 596.54625 169.873875 
L 595.468125 169.873875 
L 595.468125 165.947625 
Q 595.468125 165.01575 595.104375 164.5545 
Q 594.740625 164.091375 594.015 164.091375 
Q 593.14125 164.091375 592.636875 164.64825 
Q 592.1325 165.20325 592.1325 166.165125 
L 592.1325 169.873875 
L 591.04875 169.873875 
L 591.04875 163.311375 
L 592.1325 163.311375 
L 592.1325 164.331375 
Q 592.520625 163.738875 593.04375 163.446375 
Q 593.56875 163.153875 594.255 163.153875 
Q 595.385625 163.153875 595.965 163.85325 
Q 596.54625 164.552625 596.54625 165.912 
z
M 602.878594 163.5045 
L 602.878594 164.5245 
Q 602.422969 164.290125 601.929844 164.173875 
Q 601.438594 164.05575 600.909844 164.05575 
Q 600.107344 164.05575 599.706094 164.301375 
Q 599.304844 164.547 599.304844 165.040125 
Q 599.304844 165.415125 599.591719 165.628875 
Q 599.878594 165.842625 600.746719 166.03575 
L 601.116094 166.11825 
Q 602.263594 166.363875 602.747344 166.812 
Q 603.231094 167.260125 603.231094 168.062625 
Q 603.231094 168.977625 602.507344 169.512 
Q 601.783594 170.0445 600.517969 170.0445 
Q 599.991094 170.0445 599.419219 169.941375 
Q 598.847344 169.83825 598.215469 169.633875 
L 598.215469 168.520125 
Q 598.813594 168.831375 599.392969 168.987 
Q 599.972344 169.14075 600.542344 169.14075 
Q 601.303594 169.14075 601.712344 168.880125 
Q 602.122969 168.6195 602.122969 168.145125 
Q 602.122969 167.706375 601.826719 167.472 
Q 601.532344 167.237625 600.529219 167.020125 
L 600.154219 166.932 
Q 599.152969 166.722 598.706719 166.285125 
Q 598.262344 165.84825 598.262344 165.087 
Q 598.262344 164.16075 598.918594 163.65825 
Q 599.574844 163.153875 600.782344 163.153875 
Q 601.378594 163.153875 601.905469 163.242 
Q 602.434219 163.32825 602.878594 163.5045 
z
M 604.947422 160.75575 
L 606.025547 160.75575 
L 606.025547 169.873875 
L 604.947422 169.873875 
L 604.947422 160.75575 
z
M 611.264531 166.57575 
Q 609.957656 166.57575 609.453281 166.873875 
Q 608.948906 167.172 608.948906 167.893875 
Q 608.948906 168.467625 609.327656 168.805125 
Q 609.706406 169.14075 610.355156 169.14075 
Q 611.253281 169.14075 611.795156 168.505125 
Q 612.337031 167.8695 612.337031 166.81575 
L 612.337031 166.57575 
L 611.264531 166.57575 
z
M 613.415156 166.1295 
L 613.415156 169.873875 
L 612.337031 169.873875 
L 612.337031 168.87825 
Q 611.967656 169.4745 611.416406 169.7595 
Q 610.865156 170.0445 610.068281 170.0445 
Q 609.061406 170.0445 608.465156 169.47825 
Q 607.870781 168.912 607.870781 167.96325 
Q 607.870781 166.857 608.611406 166.2945 
Q 609.353906 165.732 610.823906 165.732 
L 612.337031 165.732 
L 612.337031 165.625125 
Q 612.337031 164.88075 611.847656 164.473875 
Q 611.358281 164.067 610.473281 164.067 
Q 609.910781 164.067 609.376406 164.202 
Q 608.843906 164.337 608.352656 164.607 
L 608.352656 163.6095 
Q 608.943281 163.38075 609.500156 163.26825 
Q 610.057031 163.153875 610.583906 163.153875 
Q 612.008906 163.153875 612.712031 163.892625 
Q 613.415156 164.6295 613.415156 166.1295 
z
M 616.701797 161.447625 
L 616.701797 163.311375 
L 618.921797 163.311375 
L 618.921797 164.1495 
L 616.701797 164.1495 
L 616.701797 167.712 
Q 616.701797 168.5145 616.921172 168.74325 
Q 617.140547 168.972 617.815547 168.972 
L 618.921797 168.972 
L 618.921797 169.873875 
L 617.815547 169.873875 
Q 616.566797 169.873875 616.092422 169.408875 
Q 615.618047 168.942 615.618047 167.712 
L 615.618047 164.1495 
L 614.826797 164.1495 
L 614.826797 163.311375 
L 615.618047 163.311375 
L 615.618047 161.447625 
L 616.701797 161.447625 
z
M 620.34 163.311375 
L 621.418125 163.311375 
L 621.418125 169.873875 
L 620.34 169.873875 
L 620.34 163.311375 
z
M 620.34 160.75575 
L 621.418125 160.75575 
L 621.418125 162.122625 
L 620.34 162.122625 
L 620.34 160.75575 
z
M 626.216484 164.067 
Q 625.350234 164.067 624.845859 164.743875 
Q 624.341484 165.42075 624.341484 166.59825 
Q 624.341484 167.77575 624.842109 168.452625 
Q 625.344609 169.1295 626.216484 169.1295 
Q 627.078984 169.1295 627.581484 168.45075 
Q 628.085859 167.770125 628.085859 166.59825 
Q 628.085859 165.432 627.581484 164.7495 
Q 627.078984 164.067 626.216484 164.067 
z
M 626.216484 163.153875 
Q 627.622734 163.153875 628.425234 164.068875 
Q 629.229609 164.982 629.229609 166.59825 
Q 629.229609 168.208875 628.425234 169.127625 
Q 627.622734 170.0445 626.216484 170.0445 
Q 624.804609 170.0445 624.003984 169.127625 
Q 623.205234 168.208875 623.205234 166.59825 
Q 623.205234 164.982 624.003984 164.068875 
Q 624.804609 163.153875 626.216484 163.153875 
z
M 636.472031 165.912 
L 636.472031 169.873875 
L 635.393906 169.873875 
L 635.393906 165.947625 
Q 635.393906 165.01575 635.030156 164.5545 
Q 634.666406 164.091375 633.940781 164.091375 
Q 633.067031 164.091375 632.562656 164.64825 
Q 632.058281 165.20325 632.058281 166.165125 
L 632.058281 169.873875 
L 630.974531 169.873875 
L 630.974531 163.311375 
L 632.058281 163.311375 
L 632.058281 164.331375 
Q 632.446406 163.738875 632.969531 163.446375 
Q 633.494531 163.153875 634.180781 163.153875 
Q 635.311406 163.153875 635.890781 163.85325 
Q 636.472031 164.552625 636.472031 165.912 
z
" clip-path="url(#pdec42ed7a8)" style="fill: #ffffff"/>
    <path d="M 573.930938 182.0625 
L 573.930938 179.713125 
L 571.997813 179.713125 
L 571.997813 178.74 
L 575.102813 178.74 
L 575.102813 182.4975 
Q 574.418437 182.983125 573.591563 183.2325 
Q 572.766562 183.481875 571.829062 183.481875 
Q 569.777812 183.481875 568.619063 182.28375 
Q 567.462188 181.08375 567.462188 178.94625 
Q 567.462188 176.80125 568.619063 175.603125 
Q 569.777812 174.405 571.829062 174.405 
Q 572.684062 174.405 573.454687 174.616875 
Q 574.225312 174.826875 574.875937 175.2375 
L 574.875937 176.4975 
Q 574.219687 175.940625 573.480937 175.659375 
Q 572.742188 175.378125 571.928437 175.378125 
Q 570.321563 175.378125 569.515313 176.274375 
Q 568.710938 177.170625 568.710938 178.94625 
Q 568.710938 180.71625 569.515313 181.6125 
Q 570.321563 182.50875 571.928437 182.50875 
Q 572.554688 182.50875 573.045938 182.4 
Q 573.539062 182.29125 573.930938 182.0625 
z
M 580.816641 175.365 
Q 579.526641 175.365 578.767266 176.326875 
Q 578.009766 177.286875 578.009766 178.94625 
Q 578.009766 180.598125 578.767266 181.56 
Q 579.526641 182.52 580.816641 182.52 
Q 582.104766 182.52 582.858516 181.56 
Q 583.612266 180.598125 583.612266 178.94625 
Q 583.612266 177.286875 582.858516 176.326875 
Q 582.104766 175.365 580.816641 175.365 
z
M 580.816641 174.405 
Q 582.656016 174.405 583.756641 175.63875 
Q 584.859141 176.8725 584.859141 178.94625 
Q 584.859141 181.014375 583.756641 182.248125 
Q 582.656016 183.481875 580.816641 183.481875 
Q 578.971641 183.481875 577.865391 182.251875 
Q 576.761016 181.02 576.761016 178.94625 
Q 576.761016 176.8725 577.865391 175.63875 
Q 578.971641 174.405 580.816641 174.405 
z
M 586.729453 181.8225 
L 587.965078 181.8225 
L 587.965078 183.31125 
L 586.729453 183.31125 
L 586.729453 181.8225 
z
M 586.729453 177.106875 
L 587.965078 177.106875 
L 587.965078 178.59375 
L 586.729453 178.59375 
L 586.729453 177.106875 
z
M 593.179922 175.3425 
Q 592.266797 175.3425 591.805547 176.2425 
Q 591.346172 177.140625 591.346172 178.94625 
Q 591.346172 180.744375 591.805547 181.644375 
Q 592.266797 182.544375 593.179922 182.544375 
Q 594.100547 182.544375 594.559922 181.644375 
Q 595.021172 180.744375 595.021172 178.94625 
Q 595.021172 177.140625 594.559922 176.2425 
Q 594.100547 175.3425 593.179922 175.3425 
z
M 593.179922 174.405 
Q 594.651797 174.405 595.428047 175.569375 
Q 596.204297 176.731875 596.204297 178.94625 
Q 596.204297 181.155 595.428047 182.319375 
Q 594.651797 183.481875 593.179922 183.481875 
Q 591.709922 183.481875 590.933672 182.319375 
Q 590.157422 181.155 590.157422 178.94625 
Q 590.157422 176.731875 590.933672 175.569375 
Q 591.709922 174.405 593.179922 174.405 
z
M 600.814687 175.3425 
Q 599.901562 175.3425 599.440313 176.2425 
Q 598.980937 177.140625 598.980937 178.94625 
Q 598.980937 180.744375 599.440313 181.644375 
Q 599.901562 182.544375 600.814687 182.544375 
Q 601.735312 182.544375 602.194687 181.644375 
Q 602.655938 180.744375 602.655938 178.94625 
Q 602.655938 177.140625 602.194687 176.2425 
Q 601.735312 175.3425 600.814687 175.3425 
z
M 600.814687 174.405 
Q 602.286562 174.405 603.062812 175.569375 
Q 603.839062 176.731875 603.839062 178.94625 
Q 603.839062 181.155 603.062812 182.319375 
Q 602.286562 183.481875 600.814687 183.481875 
Q 599.344687 183.481875 598.568437 182.319375 
Q 597.792187 181.155 597.792187 178.94625 
Q 597.792187 176.731875 598.568437 175.569375 
Q 599.344687 174.405 600.814687 174.405 
z
M 608.449453 175.3425 
Q 607.536328 175.3425 607.075078 176.2425 
Q 606.615703 177.140625 606.615703 178.94625 
Q 606.615703 180.744375 607.075078 181.644375 
Q 607.536328 182.544375 608.449453 182.544375 
Q 609.370078 182.544375 609.829453 181.644375 
Q 610.290703 180.744375 610.290703 178.94625 
Q 610.290703 177.140625 609.829453 176.2425 
Q 609.370078 175.3425 608.449453 175.3425 
z
M 608.449453 174.405 
Q 609.921328 174.405 610.697578 175.569375 
Q 611.473828 176.731875 611.473828 178.94625 
Q 611.473828 181.155 610.697578 182.319375 
Q 609.921328 183.481875 608.449453 183.481875 
Q 606.979453 183.481875 606.203203 182.319375 
Q 605.426953 181.155 605.426953 178.94625 
Q 605.426953 176.731875 606.203203 175.569375 
Q 606.979453 174.405 608.449453 174.405 
z
M 616.232344 178.46625 
Q 615.435469 178.46625 614.968594 179.011875 
Q 614.503594 179.555625 614.503594 180.504375 
Q 614.503594 181.4475 614.968594 181.996875 
Q 615.435469 182.544375 616.232344 182.544375 
Q 617.029219 182.544375 617.494219 181.996875 
Q 617.959219 181.4475 617.959219 180.504375 
Q 617.959219 179.555625 617.494219 179.011875 
Q 617.029219 178.46625 616.232344 178.46625 
z
M 618.581719 174.755625 
L 618.581719 175.83375 
Q 618.135469 175.62375 617.681719 175.513125 
Q 617.227969 175.400625 616.781719 175.400625 
Q 615.609844 175.400625 614.991094 176.191875 
Q 614.374219 176.983125 614.286094 178.5825 
Q 614.631094 178.0725 615.152344 177.800625 
Q 615.675469 177.52875 616.301719 177.52875 
Q 617.619844 177.52875 618.384844 178.329375 
Q 619.149844 179.128125 619.149844 180.504375 
Q 619.149844 181.8525 618.352969 182.668125 
Q 617.556094 183.481875 616.232344 183.481875 
Q 614.713594 183.481875 613.911094 182.319375 
Q 613.108594 181.155 613.108594 178.94625 
Q 613.108594 176.8725 614.092969 175.63875 
Q 615.077344 174.405 616.734844 174.405 
Q 617.181094 174.405 617.634844 174.493125 
Q 618.088594 174.58125 618.581719 174.755625 
z
M 624.440859 175.59375 
L 621.452109 180.264375 
L 624.440859 180.264375 
L 624.440859 175.59375 
z
M 624.129609 174.5625 
L 625.618359 174.5625 
L 625.618359 180.264375 
L 626.867109 180.264375 
L 626.867109 181.24875 
L 625.618359 181.24875 
L 625.618359 183.31125 
L 624.440859 183.31125 
L 624.440859 181.24875 
L 620.492109 181.24875 
L 620.492109 180.106875 
L 624.129609 174.5625 
z
M 629.02875 182.315625 
L 630.961875 182.315625 
L 630.961875 175.640625 
L 628.858125 176.0625 
L 628.858125 174.984375 
L 630.950625 174.5625 
L 632.13375 174.5625 
L 632.13375 182.315625 
L 634.066875 182.315625 
L 634.066875 183.31125 
L 629.02875 183.31125 
L 629.02875 182.315625 
z
M 637.477266 182.315625 
L 641.607891 182.315625 
L 641.607891 183.31125 
L 636.054141 183.31125 
L 636.054141 182.315625 
Q 636.727266 181.618125 637.889766 180.444375 
Q 639.054141 179.26875 639.352266 178.9275 
Q 639.920391 178.29 640.145391 177.8475 
Q 640.372266 177.405 640.372266 176.9775 
Q 640.372266 176.28 639.882891 175.84125 
Q 639.393516 175.400625 638.607891 175.400625 
Q 638.051016 175.400625 637.432266 175.59375 
Q 636.815391 175.786875 636.112266 176.180625 
L 636.112266 174.984375 
Q 636.826641 174.6975 637.447266 174.55125 
Q 638.069766 174.405 638.585391 174.405 
Q 639.944766 174.405 640.752891 175.085625 
Q 641.561016 175.764375 641.561016 176.900625 
Q 641.561016 177.440625 641.358516 177.924375 
Q 641.157891 178.40625 640.623516 179.0625 
Q 640.477266 179.233125 639.691641 180.045 
Q 638.907891 180.856875 637.477266 182.315625 
z
" clip-path="url(#pdec42ed7a8)" style="fill: #ffffff; stroke: #000000; stroke-width: 2"/>
    <path d="M 573.930938 182.0625 
L 573.930938 179.713125 
L 571.997813 179.713125 
L 571.997813 178.74 
L 575.102813 178.74 
L 575.102813 182.4975 
Q 574.418437 182.983125 573.591563 183.2325 
Q 572.766562 183.481875 571.829062 183.481875 
Q 569.777812 183.481875 568.619063 182.28375 
Q 567.462188 181.08375 567.462188 178.94625 
Q 567.462188 176.80125 568.619063 175.603125 
Q 569.777812 174.405 571.829062 174.405 
Q 572.684062 174.405 573.454687 174.616875 
Q 574.225312 174.826875 574.875937 175.2375 
L 574.875937 176.4975 
Q 574.219687 175.940625 573.480937 175.659375 
Q 572.742188 175.378125 571.928437 175.378125 
Q 570.321563 175.378125 569.515313 176.274375 
Q 568.710938 177.170625 568.710938 178.94625 
Q 568.710938 180.71625 569.515313 181.6125 
Q 570.321563 182.50875 571.928437 182.50875 
Q 572.554688 182.50875 573.045938 182.4 
Q 573.539062 182.29125 573.930938 182.0625 
z
M 580.816641 175.365 
Q 579.526641 175.365 578.767266 176.326875 
Q 578.009766 177.286875 578.009766 178.94625 
Q 578.009766 180.598125 578.767266 181.56 
Q 579.526641 182.52 580.816641 182.52 
Q 582.104766 182.52 582.858516 181.56 
Q 583.612266 180.598125 583.612266 178.94625 
Q 583.612266 177.286875 582.858516 176.326875 
Q 582.104766 175.365 580.816641 175.365 
z
M 580.816641 174.405 
Q 582.656016 174.405 583.756641 175.63875 
Q 584.859141 176.8725 584.859141 178.94625 
Q 584.859141 181.014375 583.756641 182.248125 
Q 582.656016 183.481875 580.816641 183.481875 
Q 578.971641 183.481875 577.865391 182.251875 
Q 576.761016 181.02 576.761016 178.94625 
Q 576.761016 176.8725 577.865391 175.63875 
Q 578.971641 174.405 580.816641 174.405 
z
M 586.729453 181.8225 
L 587.965078 181.8225 
L 587.965078 183.31125 
L 586.729453 183.31125 
L 586.729453 181.8225 
z
M 586.729453 177.106875 
L 587.965078 177.106875 
L 587.965078 178.59375 
L 586.729453 178.59375 
L 586.729453 177.106875 
z
M 593.179922 175.3425 
Q 592.266797 175.3425 591.805547 176.2425 
Q 591.346172 177.140625 591.346172 178.94625 
Q 591.346172 180.744375 591.805547 181.644375 
Q 592.266797 182.544375 593.179922 182.544375 
Q 594.100547 182.544375 594.559922 181.644375 
Q 595.021172 180.744375 595.021172 178.94625 
Q 595.021172 177.140625 594.559922 176.2425 
Q 594.100547 175.3425 593.179922 175.3425 
z
M 593.179922 174.405 
Q 594.651797 174.405 595.428047 175.569375 
Q 596.204297 176.731875 596.204297 178.94625 
Q 596.204297 181.155 595.428047 182.319375 
Q 594.651797 183.481875 593.179922 183.481875 
Q 591.709922 183.481875 590.933672 182.319375 
Q 590.157422 181.155 590.157422 178.94625 
Q 590.157422 176.731875 590.933672 175.569375 
Q 591.709922 174.405 593.179922 174.405 
z
M 600.814687 175.3425 
Q 599.901562 175.3425 599.440313 176.2425 
Q 598.980937 177.140625 598.980937 178.94625 
Q 598.980937 180.744375 599.440313 181.644375 
Q 599.901562 182.544375 600.814687 182.544375 
Q 601.735312 182.544375 602.194687 181.644375 
Q 602.655938 180.744375 602.655938 178.94625 
Q 602.655938 177.140625 602.194687 176.2425 
Q 601.735312 175.3425 600.814687 175.3425 
z
M 600.814687 174.405 
Q 602.286562 174.405 603.062812 175.569375 
Q 603.839062 176.731875 603.839062 178.94625 
Q 603.839062 181.155 603.062812 182.319375 
Q 602.286562 183.481875 600.814687 183.481875 
Q 599.344687 183.481875 598.568437 182.319375 
Q 597.792187 181.155 597.792187 178.94625 
Q 597.792187 176.731875 598.568437 175.569375 
Q 599.344687 174.405 600.814687 174.405 
z
M 608.449453 175.3425 
Q 607.536328 175.3425 607.075078 176.2425 
Q 606.615703 177.140625 606.615703 178.94625 
Q 606.615703 180.744375 607.075078 181.644375 
Q 607.536328 182.544375 608.449453 182.544375 
Q 609.370078 182.544375 609.829453 181.644375 
Q 610.290703 180.744375 610.290703 178.94625 
Q 610.290703 177.140625 609.829453 176.2425 
Q 609.370078 175.3425 608.449453 175.3425 
z
M 608.449453 174.405 
Q 609.921328 174.405 610.697578 175.569375 
Q 611.473828 176.731875 611.473828 178.94625 
Q 611.473828 181.155 610.697578 182.319375 
Q 609.921328 183.481875 608.449453 183.481875 
Q 606.979453 183.481875 606.203203 182.319375 
Q 605.426953 181.155 605.426953 178.94625 
Q 605.426953 176.731875 606.203203 175.569375 
Q 606.979453 174.405 608.449453 174.405 
z
M 616.232344 178.46625 
Q 615.435469 178.46625 614.968594 179.011875 
Q 614.503594 179.555625 614.503594 180.504375 
Q 614.503594 181.4475 614.968594 181.996875 
Q 615.435469 182.544375 616.232344 182.544375 
Q 617.029219 182.544375 617.494219 181.996875 
Q 617.959219 181.4475 617.959219 180.504375 
Q 617.959219 179.555625 617.494219 179.011875 
Q 617.029219 178.46625 616.232344 178.46625 
z
M 618.581719 174.755625 
L 618.581719 175.83375 
Q 618.135469 175.62375 617.681719 175.513125 
Q 617.227969 175.400625 616.781719 175.400625 
Q 615.609844 175.400625 614.991094 176.191875 
Q 614.374219 176.983125 614.286094 178.5825 
Q 614.631094 178.0725 615.152344 177.800625 
Q 615.675469 177.52875 616.301719 177.52875 
Q 617.619844 177.52875 618.384844 178.329375 
Q 619.149844 179.128125 619.149844 180.504375 
Q 619.149844 181.8525 618.352969 182.668125 
Q 617.556094 183.481875 616.232344 183.481875 
Q 614.713594 183.481875 613.911094 182.319375 
Q 613.108594 181.155 613.108594 178.94625 
Q 613.108594 176.8725 614.092969 175.63875 
Q 615.077344 174.405 616.734844 174.405 
Q 617.181094 174.405 617.634844 174.493125 
Q 618.088594 174.58125 618.581719 174.755625 
z
M 624.440859 175.59375 
L 621.452109 180.264375 
L 624.440859 180.264375 
L 624.440859 175.59375 
z
M 624.129609 174.5625 
L 625.618359 174.5625 
L 625.618359 180.264375 
L 626.867109 180.264375 
L 626.867109 181.24875 
L 625.618359 181.24875 
L 625.618359 183.31125 
L 624.440859 183.31125 
L 624.440859 181.24875 
L 620.492109 181.24875 
L 620.492109 180.106875 
L 624.129609 174.5625 
z
M 629.02875 182.315625 
L 630.961875 182.315625 
L 630.961875 175.640625 
L 628.858125 176.0625 
L 628.858125 174.984375 
L 630.950625 174.5625 
L 632.13375 174.5625 
L 632.13375 182.315625 
L 634.066875 182.315625 
L 634.066875 183.31125 
L 629.02875 183.31125 
L 629.02875 182.315625 
z
M 637.477266 182.315625 
L 641.607891 182.315625 
L 641.607891 183.31125 
L 636.054141 183.31125 
L 636.054141 182.315625 
Q 636.727266 181.618125 637.889766 180.444375 
Q 639.054141 179.26875 639.352266 178.9275 
Q 639.920391 178.29 640.145391 177.8475 
Q 640.372266 177.405 640.372266 176.9775 
Q 640.372266 176.28 639.882891 175.84125 
Q 639.393516 175.400625 638.607891 175.400625 
Q 638.051016 175.400625 637.432266 175.59375 
Q 636.815391 175.786875 636.112266 176.180625 
L 636.112266 174.984375 
Q 636.826641 174.6975 637.447266 174.55125 
Q 638.069766 174.405 638.585391 174.405 
Q 639.944766 174.405 640.752891 175.085625 
Q 641.561016 175.764375 641.561016 176.900625 
Q 641.561016 177.440625 641.358516 177.924375 
Q 641.157891 178.40625 640.623516 179.0625 
Q 640.477266 179.233125 639.691641 180.045 
Q 638.907891 180.856875 637.477266 182.315625 
z
" clip-path="url(#pdec42ed7a8)" style="fill: #ffffff"/>
    <path d="M 555.49125 192.571125 
L 555.49125 195.7755 
L 557.390625 195.7755 
Q 558.345 195.7755 558.804375 195.379875 
Q 559.265625 194.98425 559.265625 194.1705 
Q 559.265625 193.34925 558.804375 192.961125 
Q 558.345 192.571125 557.390625 192.571125 
L 555.49125 192.571125 
z
M 555.49125 188.973 
L 555.49125 191.60925 
L 557.244375 191.60925 
Q 558.110625 191.60925 558.534375 191.284875 
Q 558.96 190.958625 558.96 190.291125 
Q 558.96 189.62925 558.534375 189.301125 
Q 558.110625 188.973 557.244375 188.973 
L 555.49125 188.973 
z
M 554.308125 187.999875 
L 557.3325 187.999875 
Q 558.68625 187.999875 559.4175 188.562375 
Q 560.150625 189.124875 560.150625 190.16175 
Q 560.150625 190.966125 559.775625 191.4405 
Q 559.400625 191.914875 558.673125 192.031125 
Q 559.546875 192.218625 560.030625 192.814875 
Q 560.514375 193.40925 560.514375 194.299875 
Q 560.514375 195.47175 559.7175 196.111125 
Q 558.920625 196.748625 557.44875 196.748625 
L 554.308125 196.748625 
L 554.308125 187.999875 
z
M 562.493672 190.186125 
L 563.571797 190.186125 
L 563.571797 196.748625 
L 562.493672 196.748625 
L 562.493672 190.186125 
z
M 562.493672 187.6305 
L 563.571797 187.6305 
L 563.571797 188.997375 
L 562.493672 188.997375 
L 562.493672 187.6305 
z
M 568.370156 190.94175 
Q 567.503906 190.94175 566.999531 191.618625 
Q 566.495156 192.2955 566.495156 193.473 
Q 566.495156 194.6505 566.995781 195.327375 
Q 567.498281 196.00425 568.370156 196.00425 
Q 569.232656 196.00425 569.735156 195.3255 
Q 570.239531 194.644875 570.239531 193.473 
Q 570.239531 192.30675 569.735156 191.62425 
Q 569.232656 190.94175 568.370156 190.94175 
z
M 568.370156 190.028625 
Q 569.776406 190.028625 570.578906 190.943625 
Q 571.383281 191.85675 571.383281 193.473 
Q 571.383281 195.083625 570.578906 196.002375 
Q 569.776406 196.91925 568.370156 196.91925 
Q 566.958281 196.91925 566.157656 196.002375 
Q 565.358906 195.083625 565.358906 193.473 
Q 565.358906 191.85675 566.157656 190.943625 
Q 566.958281 190.028625 568.370156 190.028625 
z
M 573.169453 187.6305 
L 574.247578 187.6305 
L 574.247578 196.748625 
L 573.169453 196.748625 
L 573.169453 187.6305 
z
M 579.045938 190.94175 
Q 578.179688 190.94175 577.675313 191.618625 
Q 577.170938 192.2955 577.170938 193.473 
Q 577.170938 194.6505 577.671563 195.327375 
Q 578.174062 196.00425 579.045938 196.00425 
Q 579.908437 196.00425 580.410938 195.3255 
Q 580.915313 194.644875 580.915313 193.473 
Q 580.915313 192.30675 580.410938 191.62425 
Q 579.908437 190.94175 579.045938 190.94175 
z
M 579.045938 190.028625 
Q 580.452188 190.028625 581.254688 190.943625 
Q 582.059062 191.85675 582.059062 193.473 
Q 582.059062 195.083625 581.254688 196.002375 
Q 580.452188 196.91925 579.045938 196.91925 
Q 577.634063 196.91925 576.833438 196.002375 
Q 576.034688 195.083625 576.034688 193.473 
Q 576.034688 191.85675 576.833438 190.943625 
Q 577.634063 190.028625 579.045938 190.028625 
z
M 588.163359 193.3905 
Q 588.163359 192.218625 587.679609 191.5755 
Q 587.197734 190.9305 586.323984 190.9305 
Q 585.457734 190.9305 584.973984 191.5755 
Q 584.490234 192.218625 584.490234 193.3905 
Q 584.490234 194.55675 584.973984 195.20175 
Q 585.457734 195.84675 586.323984 195.84675 
Q 587.197734 195.84675 587.679609 195.20175 
Q 588.163359 194.55675 588.163359 193.3905 
z
M 589.241484 195.934875 
Q 589.241484 197.60925 588.497109 198.42675 
Q 587.754609 199.24425 586.218984 199.24425 
Q 585.650859 199.24425 585.146484 199.159875 
Q 584.642109 199.0755 584.167734 198.89925 
L 584.167734 197.851125 
Q 584.642109 198.108 585.105234 198.229875 
Q 585.568359 198.353625 586.048359 198.353625 
Q 587.109609 198.353625 587.636484 197.8005 
Q 588.163359 197.247375 588.163359 196.128 
L 588.163359 195.593625 
Q 587.829609 196.174875 587.308359 196.46175 
Q 586.787109 196.748625 586.059609 196.748625 
Q 584.853984 196.748625 584.115234 195.829875 
Q 583.376484 194.90925 583.376484 193.3905 
Q 583.376484 191.868 584.115234 190.94925 
Q 584.853984 190.028625 586.059609 190.028625 
Q 586.787109 190.028625 587.308359 190.3155 
Q 587.829609 190.602375 588.163359 191.18175 
L 588.163359 190.186125 
L 589.241484 190.186125 
L 589.241484 195.934875 
z
M 591.462422 190.186125 
L 592.540547 190.186125 
L 592.540547 196.748625 
L 591.462422 196.748625 
L 591.462422 190.186125 
z
M 591.462422 187.6305 
L 592.540547 187.6305 
L 592.540547 188.997375 
L 591.462422 188.997375 
L 591.462422 187.6305 
z
M 599.519531 190.437375 
L 599.519531 191.446125 
Q 599.062031 191.193 598.602656 191.067375 
Q 598.143281 190.94175 597.674531 190.94175 
Q 596.624531 190.94175 596.043281 191.607375 
Q 595.463906 192.271125 595.463906 193.473 
Q 595.463906 194.674875 596.043281 195.3405 
Q 596.624531 196.00425 597.674531 196.00425 
Q 598.143281 196.00425 598.602656 195.878625 
Q 599.062031 195.753 599.519531 195.499875 
L 599.519531 196.497375 
Q 599.067656 196.707375 598.583906 196.812375 
Q 598.102031 196.91925 597.556406 196.91925 
Q 596.073281 196.91925 595.199531 195.987375 
Q 594.327656 195.0555 594.327656 193.473 
Q 594.327656 191.868 595.208906 190.94925 
Q 596.092031 190.028625 597.627656 190.028625 
Q 598.124531 190.028625 598.598906 190.13175 
Q 599.073281 190.233 599.519531 190.437375 
z
M 604.377187 193.4505 
Q 603.070312 193.4505 602.565938 193.748625 
Q 602.061563 194.04675 602.061563 194.768625 
Q 602.061563 195.342375 602.440313 195.679875 
Q 602.819062 196.0155 603.467813 196.0155 
Q 604.365937 196.0155 604.907812 195.379875 
Q 605.449687 194.74425 605.449687 193.6905 
L 605.449687 193.4505 
L 604.377187 193.4505 
z
M 606.527812 193.00425 
L 606.527812 196.748625 
L 605.449687 196.748625 
L 605.449687 195.753 
Q 605.080312 196.34925 604.529063 196.63425 
Q 603.977813 196.91925 603.180938 196.91925 
Q 602.174062 196.91925 601.577813 196.353 
Q 600.983438 195.78675 600.983438 194.838 
Q 600.983438 193.73175 601.724063 193.16925 
Q 602.466563 192.60675 603.936563 192.60675 
L 605.449687 192.60675 
L 605.449687 192.499875 
Q 605.449687 191.7555 604.960312 191.348625 
Q 604.470937 190.94175 603.585938 190.94175 
Q 603.023438 190.94175 602.489063 191.07675 
Q 601.956563 191.21175 601.465312 191.48175 
L 601.465312 190.48425 
Q 602.055938 190.2555 602.612813 190.143 
Q 603.169688 190.028625 603.696563 190.028625 
Q 605.121562 190.028625 605.824687 190.767375 
Q 606.527812 191.50425 606.527812 193.00425 
z
M 608.747578 187.6305 
L 609.825703 187.6305 
L 609.825703 196.748625 
L 608.747578 196.748625 
L 608.747578 187.6305 
z
M 613.311563 188.973 
L 613.311563 192.259875 
L 614.800313 192.259875 
Q 615.627187 192.259875 616.077188 191.832375 
Q 616.529063 191.404875 616.529063 190.613625 
Q 616.529063 189.828 616.077188 189.4005 
Q 615.627187 188.973 614.800313 188.973 
L 613.311563 188.973 
z
M 612.128438 187.999875 
L 614.800313 187.999875 
Q 616.272187 187.999875 617.024063 188.6655 
Q 617.777812 189.331125 617.777812 190.613625 
Q 617.777812 191.90925 617.024063 192.571125 
Q 616.272187 193.233 614.800313 193.233 
L 613.311563 193.233 
L 613.311563 196.748625 
L 612.128438 196.748625 
L 612.128438 187.999875 
z
M 622.910391 191.193 
Q 622.728516 191.088 622.514766 191.03925 
Q 622.301016 190.988625 622.044141 190.988625 
Q 621.129141 190.988625 620.639766 191.583 
Q 620.150391 192.177375 620.150391 193.291125 
L 620.150391 196.748625 
L 619.066641 196.748625 
L 619.066641 190.186125 
L 620.150391 190.186125 
L 620.150391 191.206125 
Q 620.491641 190.608 621.035391 190.31925 
Q 621.581016 190.028625 622.361016 190.028625 
Q 622.471641 190.028625 622.606641 190.043625 
Q 622.741641 190.05675 622.904766 190.08675 
L 622.910391 191.193 
z
M 626.313984 190.94175 
Q 625.447734 190.94175 624.943359 191.618625 
Q 624.438984 192.2955 624.438984 193.473 
Q 624.438984 194.6505 624.939609 195.327375 
Q 625.442109 196.00425 626.313984 196.00425 
Q 627.176484 196.00425 627.678984 195.3255 
Q 628.183359 194.644875 628.183359 193.473 
Q 628.183359 192.30675 627.678984 191.62425 
Q 627.176484 190.94175 626.313984 190.94175 
z
M 626.313984 190.028625 
Q 627.720234 190.028625 628.522734 190.943625 
Q 629.327109 191.85675 629.327109 193.473 
Q 629.327109 195.083625 628.522734 196.002375 
Q 627.720234 196.91925 626.313984 196.91925 
Q 624.902109 196.91925 624.101484 196.002375 
Q 623.302734 195.083625 623.302734 193.473 
Q 623.302734 191.85675 624.101484 190.943625 
Q 624.902109 190.028625 626.313984 190.028625 
z
M 635.836406 190.437375 
L 635.836406 191.446125 
Q 635.378906 191.193 634.919531 191.067375 
Q 634.460156 190.94175 633.991406 190.94175 
Q 632.941406 190.94175 632.360156 191.607375 
Q 631.780781 192.271125 631.780781 193.473 
Q 631.780781 194.674875 632.360156 195.3405 
Q 632.941406 196.00425 633.991406 196.00425 
Q 634.460156 196.00425 634.919531 195.878625 
Q 635.378906 195.753 635.836406 195.499875 
L 635.836406 196.497375 
Q 635.384531 196.707375 634.900781 196.812375 
Q 634.418906 196.91925 633.873281 196.91925 
Q 632.390156 196.91925 631.516406 195.987375 
Q 630.644531 195.0555 630.644531 193.473 
Q 630.644531 191.868 631.525781 190.94925 
Q 632.408906 190.028625 633.944531 190.028625 
Q 634.441406 190.028625 634.915781 190.13175 
Q 635.390156 190.233 635.836406 190.437375 
z
M 643.324687 193.197375 
L 643.324687 193.72425 
L 638.367188 193.72425 
Q 638.438437 194.838 639.038437 195.421125 
Q 639.638438 196.00425 640.710938 196.00425 
Q 641.331563 196.00425 641.914688 195.852375 
Q 642.497813 195.7005 643.073437 195.394875 
L 643.073437 196.414875 
Q 642.492188 196.6605 641.882812 196.789875 
Q 641.273438 196.91925 640.647187 196.91925 
Q 639.075938 196.91925 638.159063 196.006125 
Q 637.242188 195.091125 637.242188 193.531125 
Q 637.242188 191.9205 638.112188 190.9755 
Q 638.982188 190.028625 640.459687 190.028625 
Q 641.783437 190.028625 642.554062 190.88175 
Q 643.324687 191.733 643.324687 193.197375 
z
M 642.246562 192.8805 
Q 642.235312 191.997375 641.751562 191.4705 
Q 641.267812 190.94175 640.470937 190.94175 
Q 639.569062 190.94175 639.027187 191.45175 
Q 638.485312 191.96175 638.402812 192.888 
L 642.246562 192.8805 
z
M 649.276875 190.37925 
L 649.276875 191.39925 
Q 648.82125 191.164875 648.328125 191.048625 
Q 647.836875 190.9305 647.308125 190.9305 
Q 646.505625 190.9305 646.104375 191.176125 
Q 645.703125 191.42175 645.703125 191.914875 
Q 645.703125 192.289875 645.99 192.503625 
Q 646.276875 192.717375 647.145 192.9105 
L 647.514375 192.993 
Q 648.661875 193.238625 649.145625 193.68675 
Q 649.629375 194.134875 649.629375 194.937375 
Q 649.629375 195.852375 648.905625 196.38675 
Q 648.181875 196.91925 646.91625 196.91925 
Q 646.389375 196.91925 645.8175 196.816125 
Q 645.245625 196.713 644.61375 196.508625 
L 644.61375 195.394875 
Q 645.211875 195.706125 645.79125 195.86175 
Q 646.370625 196.0155 646.940625 196.0155 
Q 647.701875 196.0155 648.110625 195.754875 
Q 648.52125 195.49425 648.52125 195.019875 
Q 648.52125 194.581125 648.225 194.34675 
Q 647.930625 194.112375 646.9275 193.894875 
L 646.5525 193.80675 
Q 645.55125 193.59675 645.105 193.159875 
Q 644.660625 192.723 644.660625 191.96175 
Q 644.660625 191.0355 645.316875 190.533 
Q 645.973125 190.028625 647.180625 190.028625 
Q 647.776875 190.028625 648.30375 190.11675 
Q 648.8325 190.203 649.276875 190.37925 
z
M 655.528828 190.37925 
L 655.528828 191.39925 
Q 655.073203 191.164875 654.580078 191.048625 
Q 654.088828 190.9305 653.560078 190.9305 
Q 652.757578 190.9305 652.356328 191.176125 
Q 651.955078 191.42175 651.955078 191.914875 
Q 651.955078 192.289875 652.241953 192.503625 
Q 652.528828 192.717375 653.396953 192.9105 
L 653.766328 192.993 
Q 654.913828 193.238625 655.397578 193.68675 
Q 655.881328 194.134875 655.881328 194.937375 
Q 655.881328 195.852375 655.157578 196.38675 
Q 654.433828 196.91925 653.168203 196.91925 
Q 652.641328 196.91925 652.069453 196.816125 
Q 651.497578 196.713 650.865703 196.508625 
L 650.865703 195.394875 
Q 651.463828 195.706125 652.043203 195.86175 
Q 652.622578 196.0155 653.192578 196.0155 
Q 653.953828 196.0155 654.362578 195.754875 
Q 654.773203 195.49425 654.773203 195.019875 
Q 654.773203 194.581125 654.476953 194.34675 
Q 654.182578 194.112375 653.179453 193.894875 
L 652.804453 193.80675 
Q 651.803203 193.59675 651.356953 193.159875 
Q 650.912578 192.723 650.912578 191.96175 
Q 650.912578 191.0355 651.568828 190.533 
Q 652.225078 190.028625 653.432578 190.028625 
Q 654.028828 190.028625 654.555703 190.11675 
Q 655.084453 190.203 655.528828 190.37925 
z
" clip-path="url(#pdec42ed7a8)" style="fill: #ffffff; stroke: #000000; stroke-width: 2"/>
    <path d="M 555.49125 192.571125 
L 555.49125 195.7755 
L 557.390625 195.7755 
Q 558.345 195.7755 558.804375 195.379875 
Q 559.265625 194.98425 559.265625 194.1705 
Q 559.265625 193.34925 558.804375 192.961125 
Q 558.345 192.571125 557.390625 192.571125 
L 555.49125 192.571125 
z
M 555.49125 188.973 
L 555.49125 191.60925 
L 557.244375 191.60925 
Q 558.110625 191.60925 558.534375 191.284875 
Q 558.96 190.958625 558.96 190.291125 
Q 558.96 189.62925 558.534375 189.301125 
Q 558.110625 188.973 557.244375 188.973 
L 555.49125 188.973 
z
M 554.308125 187.999875 
L 557.3325 187.999875 
Q 558.68625 187.999875 559.4175 188.562375 
Q 560.150625 189.124875 560.150625 190.16175 
Q 560.150625 190.966125 559.775625 191.4405 
Q 559.400625 191.914875 558.673125 192.031125 
Q 559.546875 192.218625 560.030625 192.814875 
Q 560.514375 193.40925 560.514375 194.299875 
Q 560.514375 195.47175 559.7175 196.111125 
Q 558.920625 196.748625 557.44875 196.748625 
L 554.308125 196.748625 
L 554.308125 187.999875 
z
M 562.493672 190.186125 
L 563.571797 190.186125 
L 563.571797 196.748625 
L 562.493672 196.748625 
L 562.493672 190.186125 
z
M 562.493672 187.6305 
L 563.571797 187.6305 
L 563.571797 188.997375 
L 562.493672 188.997375 
L 562.493672 187.6305 
z
M 568.370156 190.94175 
Q 567.503906 190.94175 566.999531 191.618625 
Q 566.495156 192.2955 566.495156 193.473 
Q 566.495156 194.6505 566.995781 195.327375 
Q 567.498281 196.00425 568.370156 196.00425 
Q 569.232656 196.00425 569.735156 195.3255 
Q 570.239531 194.644875 570.239531 193.473 
Q 570.239531 192.30675 569.735156 191.62425 
Q 569.232656 190.94175 568.370156 190.94175 
z
M 568.370156 190.028625 
Q 569.776406 190.028625 570.578906 190.943625 
Q 571.383281 191.85675 571.383281 193.473 
Q 571.383281 195.083625 570.578906 196.002375 
Q 569.776406 196.91925 568.370156 196.91925 
Q 566.958281 196.91925 566.157656 196.002375 
Q 565.358906 195.083625 565.358906 193.473 
Q 565.358906 191.85675 566.157656 190.943625 
Q 566.958281 190.028625 568.370156 190.028625 
z
M 573.169453 187.6305 
L 574.247578 187.6305 
L 574.247578 196.748625 
L 573.169453 196.748625 
L 573.169453 187.6305 
z
M 579.045938 190.94175 
Q 578.179688 190.94175 577.675313 191.618625 
Q 577.170938 192.2955 577.170938 193.473 
Q 577.170938 194.6505 577.671563 195.327375 
Q 578.174062 196.00425 579.045938 196.00425 
Q 579.908437 196.00425 580.410938 195.3255 
Q 580.915313 194.644875 580.915313 193.473 
Q 580.915313 192.30675 580.410938 191.62425 
Q 579.908437 190.94175 579.045938 190.94175 
z
M 579.045938 190.028625 
Q 580.452188 190.028625 581.254688 190.943625 
Q 582.059062 191.85675 582.059062 193.473 
Q 582.059062 195.083625 581.254688 196.002375 
Q 580.452188 196.91925 579.045938 196.91925 
Q 577.634063 196.91925 576.833438 196.002375 
Q 576.034688 195.083625 576.034688 193.473 
Q 576.034688 191.85675 576.833438 190.943625 
Q 577.634063 190.028625 579.045938 190.028625 
z
M 588.163359 193.3905 
Q 588.163359 192.218625 587.679609 191.5755 
Q 587.197734 190.9305 586.323984 190.9305 
Q 585.457734 190.9305 584.973984 191.5755 
Q 584.490234 192.218625 584.490234 193.3905 
Q 584.490234 194.55675 584.973984 195.20175 
Q 585.457734 195.84675 586.323984 195.84675 
Q 587.197734 195.84675 587.679609 195.20175 
Q 588.163359 194.55675 588.163359 193.3905 
z
M 589.241484 195.934875 
Q 589.241484 197.60925 588.497109 198.42675 
Q 587.754609 199.24425 586.218984 199.24425 
Q 585.650859 199.24425 585.146484 199.159875 
Q 584.642109 199.0755 584.167734 198.89925 
L 584.167734 197.851125 
Q 584.642109 198.108 585.105234 198.229875 
Q 585.568359 198.353625 586.048359 198.353625 
Q 587.109609 198.353625 587.636484 197.8005 
Q 588.163359 197.247375 588.163359 196.128 
L 588.163359 195.593625 
Q 587.829609 196.174875 587.308359 196.46175 
Q 586.787109 196.748625 586.059609 196.748625 
Q 584.853984 196.748625 584.115234 195.829875 
Q 583.376484 194.90925 583.376484 193.3905 
Q 583.376484 191.868 584.115234 190.94925 
Q 584.853984 190.028625 586.059609 190.028625 
Q 586.787109 190.028625 587.308359 190.3155 
Q 587.829609 190.602375 588.163359 191.18175 
L 588.163359 190.186125 
L 589.241484 190.186125 
L 589.241484 195.934875 
z
M 591.462422 190.186125 
L 592.540547 190.186125 
L 592.540547 196.748625 
L 591.462422 196.748625 
L 591.462422 190.186125 
z
M 591.462422 187.6305 
L 592.540547 187.6305 
L 592.540547 188.997375 
L 591.462422 188.997375 
L 591.462422 187.6305 
z
M 599.519531 190.437375 
L 599.519531 191.446125 
Q 599.062031 191.193 598.602656 191.067375 
Q 598.143281 190.94175 597.674531 190.94175 
Q 596.624531 190.94175 596.043281 191.607375 
Q 595.463906 192.271125 595.463906 193.473 
Q 595.463906 194.674875 596.043281 195.3405 
Q 596.624531 196.00425 597.674531 196.00425 
Q 598.143281 196.00425 598.602656 195.878625 
Q 599.062031 195.753 599.519531 195.499875 
L 599.519531 196.497375 
Q 599.067656 196.707375 598.583906 196.812375 
Q 598.102031 196.91925 597.556406 196.91925 
Q 596.073281 196.91925 595.199531 195.987375 
Q 594.327656 195.0555 594.327656 193.473 
Q 594.327656 191.868 595.208906 190.94925 
Q 596.092031 190.028625 597.627656 190.028625 
Q 598.124531 190.028625 598.598906 190.13175 
Q 599.073281 190.233 599.519531 190.437375 
z
M 604.377187 193.4505 
Q 603.070312 193.4505 602.565938 193.748625 
Q 602.061563 194.04675 602.061563 194.768625 
Q 602.061563 195.342375 602.440313 195.679875 
Q 602.819062 196.0155 603.467813 196.0155 
Q 604.365937 196.0155 604.907812 195.379875 
Q 605.449687 194.74425 605.449687 193.6905 
L 605.449687 193.4505 
L 604.377187 193.4505 
z
M 606.527812 193.00425 
L 606.527812 196.748625 
L 605.449687 196.748625 
L 605.449687 195.753 
Q 605.080312 196.34925 604.529063 196.63425 
Q 603.977813 196.91925 603.180938 196.91925 
Q 602.174062 196.91925 601.577813 196.353 
Q 600.983438 195.78675 600.983438 194.838 
Q 600.983438 193.73175 601.724063 193.16925 
Q 602.466563 192.60675 603.936563 192.60675 
L 605.449687 192.60675 
L 605.449687 192.499875 
Q 605.449687 191.7555 604.960312 191.348625 
Q 604.470937 190.94175 603.585938 190.94175 
Q 603.023438 190.94175 602.489063 191.07675 
Q 601.956563 191.21175 601.465312 191.48175 
L 601.465312 190.48425 
Q 602.055938 190.2555 602.612813 190.143 
Q 603.169688 190.028625 603.696563 190.028625 
Q 605.121562 190.028625 605.824687 190.767375 
Q 606.527812 191.50425 606.527812 193.00425 
z
M 608.747578 187.6305 
L 609.825703 187.6305 
L 609.825703 196.748625 
L 608.747578 196.748625 
L 608.747578 187.6305 
z
M 613.311563 188.973 
L 613.311563 192.259875 
L 614.800313 192.259875 
Q 615.627187 192.259875 616.077188 191.832375 
Q 616.529063 191.404875 616.529063 190.613625 
Q 616.529063 189.828 616.077188 189.4005 
Q 615.627187 188.973 614.800313 188.973 
L 613.311563 188.973 
z
M 612.128438 187.999875 
L 614.800313 187.999875 
Q 616.272187 187.999875 617.024063 188.6655 
Q 617.777812 189.331125 617.777812 190.613625 
Q 617.777812 191.90925 617.024063 192.571125 
Q 616.272187 193.233 614.800313 193.233 
L 613.311563 193.233 
L 613.311563 196.748625 
L 612.128438 196.748625 
L 612.128438 187.999875 
z
M 622.910391 191.193 
Q 622.728516 191.088 622.514766 191.03925 
Q 622.301016 190.988625 622.044141 190.988625 
Q 621.129141 190.988625 620.639766 191.583 
Q 620.150391 192.177375 620.150391 193.291125 
L 620.150391 196.748625 
L 619.066641 196.748625 
L 619.066641 190.186125 
L 620.150391 190.186125 
L 620.150391 191.206125 
Q 620.491641 190.608 621.035391 190.31925 
Q 621.581016 190.028625 622.361016 190.028625 
Q 622.471641 190.028625 622.606641 190.043625 
Q 622.741641 190.05675 622.904766 190.08675 
L 622.910391 191.193 
z
M 626.313984 190.94175 
Q 625.447734 190.94175 624.943359 191.618625 
Q 624.438984 192.2955 624.438984 193.473 
Q 624.438984 194.6505 624.939609 195.327375 
Q 625.442109 196.00425 626.313984 196.00425 
Q 627.176484 196.00425 627.678984 195.3255 
Q 628.183359 194.644875 628.183359 193.473 
Q 628.183359 192.30675 627.678984 191.62425 
Q 627.176484 190.94175 626.313984 190.94175 
z
M 626.313984 190.028625 
Q 627.720234 190.028625 628.522734 190.943625 
Q 629.327109 191.85675 629.327109 193.473 
Q 629.327109 195.083625 628.522734 196.002375 
Q 627.720234 196.91925 626.313984 196.91925 
Q 624.902109 196.91925 624.101484 196.002375 
Q 623.302734 195.083625 623.302734 193.473 
Q 623.302734 191.85675 624.101484 190.943625 
Q 624.902109 190.028625 626.313984 190.028625 
z
M 635.836406 190.437375 
L 635.836406 191.446125 
Q 635.378906 191.193 634.919531 191.067375 
Q 634.460156 190.94175 633.991406 190.94175 
Q 632.941406 190.94175 632.360156 191.607375 
Q 631.780781 192.271125 631.780781 193.473 
Q 631.780781 194.674875 632.360156 195.3405 
Q 632.941406 196.00425 633.991406 196.00425 
Q 634.460156 196.00425 634.919531 195.878625 
Q 635.378906 195.753 635.836406 195.499875 
L 635.836406 196.497375 
Q 635.384531 196.707375 634.900781 196.812375 
Q 634.418906 196.91925 633.873281 196.91925 
Q 632.390156 196.91925 631.516406 195.987375 
Q 630.644531 195.0555 630.644531 193.473 
Q 630.644531 191.868 631.525781 190.94925 
Q 632.408906 190.028625 633.944531 190.028625 
Q 634.441406 190.028625 634.915781 190.13175 
Q 635.390156 190.233 635.836406 190.437375 
z
M 643.324687 193.197375 
L 643.324687 193.72425 
L 638.367188 193.72425 
Q 638.438437 194.838 639.038437 195.421125 
Q 639.638438 196.00425 640.710938 196.00425 
Q 641.331563 196.00425 641.914688 195.852375 
Q 642.497813 195.7005 643.073437 195.394875 
L 643.073437 196.414875 
Q 642.492188 196.6605 641.882812 196.789875 
Q 641.273438 196.91925 640.647187 196.91925 
Q 639.075938 196.91925 638.159063 196.006125 
Q 637.242188 195.091125 637.242188 193.531125 
Q 637.242188 191.9205 638.112188 190.9755 
Q 638.982188 190.028625 640.459687 190.028625 
Q 641.783437 190.028625 642.554062 190.88175 
Q 643.324687 191.733 643.324687 193.197375 
z
M 642.246562 192.8805 
Q 642.235312 191.997375 641.751562 191.4705 
Q 641.267812 190.94175 640.470937 190.94175 
Q 639.569062 190.94175 639.027187 191.45175 
Q 638.485312 191.96175 638.402812 192.888 
L 642.246562 192.8805 
z
M 649.276875 190.37925 
L 649.276875 191.39925 
Q 648.82125 191.164875 648.328125 191.048625 
Q 647.836875 190.9305 647.308125 190.9305 
Q 646.505625 190.9305 646.104375 191.176125 
Q 645.703125 191.42175 645.703125 191.914875 
Q 645.703125 192.289875 645.99 192.503625 
Q 646.276875 192.717375 647.145 192.9105 
L 647.514375 192.993 
Q 648.661875 193.238625 649.145625 193.68675 
Q 649.629375 194.134875 649.629375 194.937375 
Q 649.629375 195.852375 648.905625 196.38675 
Q 648.181875 196.91925 646.91625 196.91925 
Q 646.389375 196.91925 645.8175 196.816125 
Q 645.245625 196.713 644.61375 196.508625 
L 644.61375 195.394875 
Q 645.211875 195.706125 645.79125 195.86175 
Q 646.370625 196.0155 646.940625 196.0155 
Q 647.701875 196.0155 648.110625 195.754875 
Q 648.52125 195.49425 648.52125 195.019875 
Q 648.52125 194.581125 648.225 194.34675 
Q 647.930625 194.112375 646.9275 193.894875 
L 646.5525 193.80675 
Q 645.55125 193.59675 645.105 193.159875 
Q 644.660625 192.723 644.660625 191.96175 
Q 644.660625 191.0355 645.316875 190.533 
Q 645.973125 190.028625 647.180625 190.028625 
Q 647.776875 190.028625 648.30375 190.11675 
Q 648.8325 190.203 649.276875 190.37925 
z
M 655.528828 190.37925 
L 655.528828 191.39925 
Q 655.073203 191.164875 654.580078 191.048625 
Q 654.088828 190.9305 653.560078 190.9305 
Q 652.757578 190.9305 652.356328 191.176125 
Q 651.955078 191.42175 651.955078 191.914875 
Q 651.955078 192.289875 652.241953 192.503625 
Q 652.528828 192.717375 653.396953 192.9105 
L 653.766328 192.993 
Q 654.913828 193.238625 655.397578 193.68675 
Q 655.881328 194.134875 655.881328 194.937375 
Q 655.881328 195.852375 655.157578 196.38675 
Q 654.433828 196.91925 653.168203 196.91925 
Q 652.641328 196.91925 652.069453 196.816125 
Q 651.497578 196.713 650.865703 196.508625 
L 650.865703 195.394875 
Q 651.463828 195.706125 652.043203 195.86175 
Q 652.622578 196.0155 653.192578 196.0155 
Q 653.953828 196.0155 654.362578 195.754875 
Q 654.773203 195.49425 654.773203 195.019875 
Q 654.773203 194.581125 654.476953 194.34675 
Q 654.182578 194.112375 653.179453 193.894875 
L 652.804453 193.80675 
Q 651.803203 193.59675 651.356953 193.159875 
Q 650.912578 192.723 650.912578 191.96175 
Q 650.912578 191.0355 651.568828 190.533 
Q 652.225078 190.028625 653.432578 190.028625 
Q 654.028828 190.028625 654.555703 190.11675 
Q 655.084453 190.203 655.528828 190.37925 
z
" clip-path="url(#pdec42ed7a8)" style="fill: #ffffff"/>
   </g>
   <g id="text_6">
    <g clip-path="url(#pdec42ed7a8)">
     <!-- neomycin -->
     <g transform="translate(75.635602 169.873875)scale(0.12 -0.12)">
      <defs>
       <path id="DejaVuSans-6d" d="M 3328 2828 
Q 3544 3216 3844 3400 
Q 4144 3584 4550 3584 
Q 5097 3584 5394 3201 
Q 5691 2819 5691 2113 
L 5691 0 
L 5113 0 
L 5113 2094 
Q 5113 2597 4934 2840 
Q 4756 3084 4391 3084 
Q 3944 3084 3684 2787 
Q 3425 2491 3425 1978 
L 3425 0 
L 2847 0 
L 2847 2094 
Q 2847 2600 2669 2842 
Q 2491 3084 2119 3084 
Q 1678 3084 1418 2786 
Q 1159 2488 1159 1978 
L 1159 0 
L 581 0 
L 581 3500 
L 1159 3500 
L 1159 2956 
Q 1356 3278 1631 3431 
Q 1906 3584 2284 3584 
Q 2666 3584 2933 3390 
Q 3200 3197 3328 2828 
z
" transform="scale(0.015625)"/>
      </defs>
      <use xlink:href="#DejaVuSans-6e"/>
      <use xlink:href="#DejaVuSans-65" x="63.378906"/>
      <use xlink:href="#DejaVuSans-6f" x="124.902344"/>
      <use xlink:href="#DejaVuSans-6d" x="186.083984"/>
      <use xlink:href="#DejaVuSans-79" x="283.496094"/>
      <use xlink:href="#DejaVuSans-63" x="342.675781"/>
      <use xlink:href="#DejaVuSans-69" x="397.65625"/>
      <use xlink:href="#DejaVuSans-6e" x="425.439453"/>
     </g>
    </g>
    <g clip-path="url(#pdec42ed7a8)">
     <!-- MESH:D009355 -->
     <g transform="translate(58.129664 183.31125)scale(0.12 -0.12)">
      <defs>
       <path id="DejaVuSans-4d" d="M 628 4666 
L 1569 4666 
L 2759 1491 
L 3956 4666 
L 4897 4666 
L 4897 0 
L 4281 0 
L 4281 4097 
L 3078 897 
L 2444 897 
L 1241 4097 
L 1241 0 
L 628 0 
L 628 4666 
z
" transform="scale(0.015625)"/>
       <path id="DejaVuSans-45" d="M 628 4666 
L 3578 4666 
L 3578 4134 
L 1259 4134 
L 1259 2753 
L 3481 2753 
L 3481 2222 
L 1259 2222 
L 1259 531 
L 3634 531 
L 3634 0 
L 628 0 
L 628 4666 
z
" transform="scale(0.015625)"/>
       <path id="DejaVuSans-53" d="M 3425 4513 
L 3425 3897 
Q 3066 4069 2747 4153 
Q 2428 4238 2131 4238 
Q 1616 4238 1336 4038 
Q 1056 3838 1056 3469 
Q 1056 3159 1242 3001 
Q 1428 2844 1947 2747 
L 2328 2669 
Q 3034 2534 3370 2195 
Q 3706 1856 3706 1288 
Q 3706 609 3251 259 
Q 2797 -91 1919 -91 
Q 1588 -91 1214 -16 
Q 841 59 441 206 
L 441 856 
Q 825 641 1194 531 
Q 1563 422 1919 422 
Q 2459 422 2753 634 
Q 3047 847 3047 1241 
Q 3047 1584 2836 1778 
Q 2625 1972 2144 2069 
L 1759 2144 
Q 1053 2284 737 2584 
Q 422 2884 422 3419 
Q 422 4038 858 4394 
Q 1294 4750 2059 4750 
Q 2388 4750 2728 4690 
Q 3069 4631 3425 4513 
z
" transform="scale(0.015625)"/>
       <path id="DejaVuSans-48" d="M 628 4666 
L 1259 4666 
L 1259 2753 
L 3553 2753 
L 3553 4666 
L 4184 4666 
L 4184 0 
L 3553 0 
L 3553 2222 
L 1259 2222 
L 1259 0 
L 628 0 
L 628 4666 
z
" transform="scale(0.015625)"/>
       <path id="DejaVuSans-3a" d="M 750 794 
L 1409 794 
L 1409 0 
L 750 0 
L 750 794 
z
M 750 3309 
L 1409 3309 
L 1409 2516 
L 750 2516 
L 750 3309 
z
" transform="scale(0.015625)"/>
       <path id="DejaVuSans-44" d="M 1259 4147 
L 1259 519 
L 2022 519 
Q 2988 519 3436 956 
Q 3884 1394 3884 2338 
Q 3884 3275 3436 3711 
Q 2988 4147 2022 4147 
L 1259 4147 
z
M 628 4666 
L 1925 4666 
Q 3281 4666 3915 4102 
Q 4550 3538 4550 2338 
Q 4550 1131 3912 565 
Q 3275 0 1925 0 
L 628 0 
L 628 4666 
z
" transform="scale(0.015625)"/>
       <path id="DejaVuSans-30" d="M 2034 4250 
Q 1547 4250 1301 3770 
Q 1056 3291 1056 2328 
Q 1056 1369 1301 889 
Q 1547 409 2034 409 
Q 2525 409 2770 889 
Q 3016 1369 3016 2328 
Q 3016 3291 2770 3770 
Q 2525 4250 2034 4250 
z
M 2034 4750 
Q 2819 4750 3233 4129 
Q 3647 3509 3647 2328 
Q 3647 1150 3233 529 
Q 2819 -91 2034 -91 
Q 1250 -91 836 529 
Q 422 1150 422 2328 
Q 422 3509 836 4129 
Q 1250 4750 2034 4750 
z
" transform="scale(0.015625)"/>
       <path id="DejaVuSans-39" d="M 703 97 
L 703 672 
Q 941 559 1184 500 
Q 1428 441 1663 441 
Q 2288 441 2617 861 
Q 2947 1281 2994 2138 
Q 2813 1869 2534 1725 
Q 2256 1581 1919 1581 
Q 1219 1581 811 2004 
Q 403 2428 403 3163 
Q 403 3881 828 4315 
Q 1253 4750 1959 4750 
Q 2769 4750 3195 4129 
Q 3622 3509 3622 2328 
Q 3622 1225 3098 567 
Q 2575 -91 1691 -91 
Q 1453 -91 1209 -44 
Q 966 3 703 97 
z
M 1959 2075 
Q 2384 2075 2632 2365 
Q 2881 2656 2881 3163 
Q 2881 3666 2632 3958 
Q 2384 4250 1959 4250 
Q 1534 4250 1286 3958 
Q 1038 3666 1038 3163 
Q 1038 2656 1286 2365 
Q 1534 2075 1959 2075 
z
" transform="scale(0.015625)"/>
       <path id="DejaVuSans-33" d="M 2597 2516 
Q 3050 2419 3304 2112 
Q 3559 1806 3559 1356 
Q 3559 666 3084 287 
Q 2609 -91 1734 -91 
Q 1441 -91 1130 -33 
Q 819 25 488 141 
L 488 750 
Q 750 597 1062 519 
Q 1375 441 1716 441 
Q 2309 441 2620 675 
Q 2931 909 2931 1356 
Q 2931 1769 2642 2001 
Q 2353 2234 1838 2234 
L 1294 2234 
L 1294 2753 
L 1863 2753 
Q 2328 2753 2575 2939 
Q 2822 3125 2822 3475 
Q 2822 3834 2567 4026 
Q 2313 4219 1838 4219 
Q 1578 4219 1281 4162 
Q 984 4106 628 3988 
L 628 4550 
Q 988 4650 1302 4700 
Q 1616 4750 1894 4750 
Q 2613 4750 3031 4423 
Q 3450 4097 3450 3541 
Q 3450 3153 3228 2886 
Q 3006 2619 2597 2516 
z
" transform="scale(0.015625)"/>
       <path id="DejaVuSans-35" d="M 691 4666 
L 3169 4666 
L 3169 4134 
L 1269 4134 
L 1269 2991 
Q 1406 3038 1543 3061 
Q 1681 3084 1819 3084 
Q 2600 3084 3056 2656 
Q 3513 2228 3513 1497 
Q 3513 744 3044 326 
Q 2575 -91 1722 -91 
Q 1428 -91 1123 -41 
Q 819 9 494 109 
L 494 744 
Q 775 591 1075 516 
Q 1375 441 1709 441 
Q 2250 441 2565 725 
Q 2881 1009 2881 1497 
Q 2881 1984 2565 2268 
Q 2250 2553 1709 2553 
Q 1456 2553 1204 2497 
Q 953 2441 691 2322 
L 691 4666 
z
" transform="scale(0.015625)"/>
      </defs>
      <use xlink:href="#DejaVuSans-4d"/>
      <use xlink:href="#DejaVuSans-45" x="86.279297"/>
      <use xlink:href="#DejaVuSans-53" x="149.462891"/>
      <use xlink:href="#DejaVuSans-48" x="212.939453"/>
      <use xlink:href="#DejaVuSans-3a" x="288.134766"/>
      <use xlink:href="#DejaVuSans-44" x="321.826172"/>
      <use xlink:href="#DejaVuSans-30" x="398.828125"/>
      <use xlink:href="#DejaVuSans-30" x="462.451172"/>
      <use xlink:href="#DejaVuSans-39" x="526.074219"/>
      <use xlink:href="#DejaVuSans-33" x="589.697266"/>
      <use xlink:href="#DejaVuSans-35" x="653.320312"/>
      <use xlink:href="#DejaVuSans-35" x="716.943359"/>
     </g>
    </g>
    <g clip-path="url(#pdec42ed7a8)">
     <!-- Drug -->
     <g transform="translate(90.267164 196.748625)scale(0.12 -0.12)">
      <defs>
       <path id="DejaVuSans-67" d="M 2906 1791 
Q 2906 2416 2648 2759 
Q 2391 3103 1925 3103 
Q 1463 3103 1205 2759 
Q 947 2416 947 1791 
Q 947 1169 1205 825 
Q 1463 481 1925 481 
Q 2391 481 2648 825 
Q 2906 1169 2906 1791 
z
M 3481 434 
Q 3481 -459 3084 -895 
Q 2688 -1331 1869 -1331 
Q 1566 -1331 1297 -1286 
Q 1028 -1241 775 -1147 
L 775 -588 
Q 1028 -725 1275 -790 
Q 1522 -856 1778 -856 
Q 2344 -856 2625 -561 
Q 2906 -266 2906 331 
L 2906 616 
Q 2728 306 2450 153 
Q 2172 0 1784 0 
Q 1141 0 747 490 
Q 353 981 353 1791 
Q 353 2603 747 3093 
Q 1141 3584 1784 3584 
Q 2172 3584 2450 3431 
Q 2728 3278 2906 2969 
L 2906 3500 
L 3481 3500 
L 3481 434 
z
" transform="scale(0.015625)"/>
      </defs>
      <use xlink:href="#DejaVuSans-44"/>
      <use xlink:href="#DejaVuSans-72" x="77.001953"/>
      <use xlink:href="#DejaVuSans-75" x="118.115234"/>
      <use xlink:href="#DejaVuSans-67" x="181.494141"/>
     </g>
    </g>
   </g>
   <g id="text_7">
    <g clip-path="url(#pdec42ed7a8)">
     <!-- ribosomal RNA -->
     <g transform="translate(310.614832 169.873875)scale(0.12 -0.12)">
      <defs>
       <path id="DejaVuSans-62" d="M 3116 1747 
Q 3116 2381 2855 2742 
Q 2594 3103 2138 3103 
Q 1681 3103 1420 2742 
Q 1159 2381 1159 1747 
Q 1159 1113 1420 752 
Q 1681 391 2138 391 
Q 2594 391 2855 752 
Q 3116 1113 3116 1747 
z
M 1159 2969 
Q 1341 3281 1617 3432 
Q 1894 3584 2278 3584 
Q 2916 3584 3314 3078 
Q 3713 2572 3713 1747 
Q 3713 922 3314 415 
Q 2916 -91 2278 -91 
Q 1894 -91 1617 61 
Q 1341 213 1159 525 
L 1159 0 
L 581 0 
L 581 4863 
L 1159 4863 
L 1159 2969 
z
" transform="scale(0.015625)"/>
       <path id="DejaVuSans-6c" d="M 603 4863 
L 1178 4863 
L 1178 0 
L 603 0 
L 603 4863 
z
" transform="scale(0.015625)"/>
       <path id="DejaVuSans-52" d="M 2841 2188 
Q 3044 2119 3236 1894 
Q 3428 1669 3622 1275 
L 4263 0 
L 3584 0 
L 2988 1197 
Q 2756 1666 2539 1819 
Q 2322 1972 1947 1972 
L 1259 1972 
L 1259 0 
L 628 0 
L 628 4666 
L 2053 4666 
Q 2853 4666 3247 4331 
Q 3641 3997 3641 3322 
Q 3641 2881 3436 2590 
Q 3231 2300 2841 2188 
z
M 1259 4147 
L 1259 2491 
L 2053 2491 
Q 2509 2491 2742 2702 
Q 2975 2913 2975 3322 
Q 2975 3731 2742 3939 
Q 2509 4147 2053 4147 
L 1259 4147 
z
" transform="scale(0.015625)"/>
       <path id="DejaVuSans-4e" d="M 628 4666 
L 1478 4666 
L 3547 763 
L 3547 4666 
L 4159 4666 
L 4159 0 
L 3309 0 
L 1241 3903 
L 1241 0 
L 628 0 
L 628 4666 
z
" transform="scale(0.015625)"/>
       <path id="DejaVuSans-41" d="M 2188 4044 
L 1331 1722 
L 3047 1722 
L 2188 4044 
z
M 1831 4666 
L 2547 4666 
L 4325 0 
L 3669 0 
L 3244 1197 
L 1141 1197 
L 716 0 
L 50 0 
L 1831 4666 
z
" transform="scale(0.015625)"/>
      </defs>
      <use xlink:href="#DejaVuSans-72"/>
      <use xlink:href="#DejaVuSans-69" x="41.113281"/>
      <use xlink:href="#DejaVuSans-62" x="68.896484"/>
      <use xlink:href="#DejaVuSans-6f" x="132.373047"/>
      <use xlink:href="#DejaVuSans-73" x="193.554688"/>
      <use xlink:href="#DejaVuSans-6f" x="245.654297"/>
      <use xlink:href="#DejaVuSans-6d" x="306.835938"/>
      <use xlink:href="#DejaVuSans-61" x="404.248047"/>
      <use xlink:href="#DejaVuSans-6c" x="465.527344"/>
      <use xlink:href="#DejaVuSans-20" x="493.310547"/>
      <use xlink:href="#DejaVuSans-52" x="525.097656"/>
      <use xlink:href="#DejaVuSans-4e" x="594.580078"/>
      <use xlink:href="#DejaVuSans-41" x="669.384766"/>
     </g>
    </g>
    <g clip-path="url(#pdec42ed7a8)">
     <!-- CHEBI:18111 -->
     <g transform="translate(315.394207 183.31125)scale(0.12 -0.12)">
      <defs>
       <path id="DejaVuSans-43" d="M 4122 4306 
L 4122 3641 
Q 3803 3938 3442 4084 
Q 3081 4231 2675 4231 
Q 1875 4231 1450 3742 
Q 1025 3253 1025 2328 
Q 1025 1406 1450 917 
Q 1875 428 2675 428 
Q 3081 428 3442 575 
Q 3803 722 4122 1019 
L 4122 359 
Q 3791 134 3420 21 
Q 3050 -91 2638 -91 
Q 1578 -91 968 557 
Q 359 1206 359 2328 
Q 359 3453 968 4101 
Q 1578 4750 2638 4750 
Q 3056 4750 3426 4639 
Q 3797 4528 4122 4306 
z
" transform="scale(0.015625)"/>
       <path id="DejaVuSans-42" d="M 1259 2228 
L 1259 519 
L 2272 519 
Q 2781 519 3026 730 
Q 3272 941 3272 1375 
Q 3272 1813 3026 2020 
Q 2781 2228 2272 2228 
L 1259 2228 
z
M 1259 4147 
L 1259 2741 
L 2194 2741 
Q 2656 2741 2882 2914 
Q 3109 3088 3109 3444 
Q 3109 3797 2882 3972 
Q 2656 4147 2194 4147 
L 1259 4147 
z
M 628 4666 
L 2241 4666 
Q 2963 4666 3353 4366 
Q 3744 4066 3744 3513 
Q 3744 3084 3544 2831 
Q 3344 2578 2956 2516 
Q 3422 2416 3680 2098 
Q 3938 1781 3938 1306 
Q 3938 681 3513 340 
Q 3088 0 2303 0 
L 628 0 
L 628 4666 
z
" transform="scale(0.015625)"/>
       <path id="DejaVuSans-49" d="M 628 4666 
L 1259 4666 
L 1259 0 
L 628 0 
L 628 4666 
z
" transform="scale(0.015625)"/>
       <path id="DejaVuSans-31" d="M 794 531 
L 1825 531 
L 1825 4091 
L 703 3866 
L 703 4441 
L 1819 4666 
L 2450 4666 
L 2450 531 
L 3481 531 
L 3481 0 
L 794 0 
L 794 531 
z
" transform="scale(0.015625)"/>
       <path id="DejaVuSans-38" d="M 2034 2216 
Q 1584 2216 1326 1975 
Q 1069 1734 1069 1313 
Q 1069 891 1326 650 
Q 1584 409 2034 409 
Q 2484 409 2743 651 
Q 3003 894 3003 1313 
Q 3003 1734 2745 1975 
Q 2488 2216 2034 2216 
z
M 1403 2484 
Q 997 2584 770 2862 
Q 544 3141 544 3541 
Q 544 4100 942 4425 
Q 1341 4750 2034 4750 
Q 2731 4750 3128 4425 
Q 3525 4100 3525 3541 
Q 3525 3141 3298 2862 
Q 3072 2584 2669 2484 
Q 3125 2378 3379 2068 
Q 3634 1759 3634 1313 
Q 3634 634 3220 271 
Q 2806 -91 2034 -91 
Q 1263 -91 848 271 
Q 434 634 434 1313 
Q 434 1759 690 2068 
Q 947 2378 1403 2484 
z
M 1172 3481 
Q 1172 3119 1398 2916 
Q 1625 2713 2034 2713 
Q 2441 2713 2670 2916 
Q 2900 3119 2900 3481 
Q 2900 3844 2670 4047 
Q 2441 4250 2034 4250 
Q 1625 4250 1398 4047 
Q 1172 3844 1172 3481 
z
" transform="scale(0.015625)"/>
      </defs>
      <use xlink:href="#DejaVuSans-43"/>
      <use xlink:href="#DejaVuSans-48" x="69.824219"/>
      <use xlink:href="#DejaVuSans-45" x="145.019531"/>
      <use xlink:href="#DejaVuSans-42" x="208.203125"/>
      <use xlink:href="#DejaVuSans-49" x="276.806641"/>
      <use xlink:href="#DejaVuSans-3a" x="306.298828"/>
      <use xlink:href="#DejaVuSans-31" x="339.990234"/>
      <use xlink:href="#DejaVuSans-38" x="403.613281"/>
      <use xlink:href="#DejaVuSans-31" x="467.236328"/>
      <use xlink:href="#DejaVuSans-31" x="530.859375"/>
      <use xlink:href="#DejaVuSans-31" x="594.482422"/>
     </g>
    </g>
    <g clip-path="url(#pdec42ed7a8)">
     <!-- ChemicalSubstance -->
     <g transform="translate(295.67577 196.748625)scale(0.12 -0.12)">
      <defs>
       <path id="DejaVuSans-68" d="M 3513 2113 
L 3513 0 
L 2938 0 
L 2938 2094 
Q 2938 2591 2744 2837 
Q 2550 3084 2163 3084 
Q 1697 3084 1428 2787 
Q 1159 2491 1159 1978 
L 1159 0 
L 581 0 
L 581 4863 
L 1159 4863 
L 1159 2956 
Q 1366 3272 1645 3428 
Q 1925 3584 2291 3584 
Q 2894 3584 3203 3211 
Q 3513 2838 3513 2113 
z
" transform="scale(0.015625)"/>
      </defs>
      <use xlink:href="#DejaVuSans-43"/>
      <use xlink:href="#DejaVuSans-68" x="69.824219"/>
      <use xlink:href="#DejaVuSans-65" x="133.203125"/>
      <use xlink:href="#DejaVuSans-6d" x="194.726562"/>
      <use xlink:href="#DejaVuSans-69" x="292.138672"/>
      <use xlink:href="#DejaVuSans-63" x="319.921875"/>
      <use xlink:href="#DejaVuSans-61" x="374.902344"/>
      <use xlink:href="#DejaVuSans-6c" x="436.181641"/>
      <use xlink:href="#DejaVuSans-53" x="463.964844"/>
      <use xlink:href="#DejaVuSans-75" x="527.441406"/>
      <use xlink:href="#DejaVuSans-62" x="590.820312"/>
      <use xlink:href="#DejaVuSans-73" x="654.296875"/>
      <use xlink:href="#DejaVuSans-74" x="706.396484"/>
      <use xlink:href="#DejaVuSans-61" x="745.605469"/>
      <use xlink:href="#DejaVuSans-6e" x="806.884766"/>
      <use xlink:href="#DejaVuSans-63" x="870.263672"/>
      <use xlink:href="#DejaVuSans-65" x="925.244141"/>
     </g>
    </g>
   </g>
   <g id="text_8">
    <g clip-path="url(#pdec42ed7a8)">
     <!-- Escherichia -->
     <g transform="translate(820.428293 163.155187)scale(0.12 -0.12)">
      <use xlink:href="#DejaVuSans-45"/>
      <use xlink:href="#DejaVuSans-73" x="63.183594"/>
      <use xlink:href="#DejaVuSans-63" x="115.283203"/>
      <use xlink:href="#DejaVuSans-68" x="170.263672"/>
      <use xlink:href="#DejaVuSans-65" x="233.642578"/>
      <use xlink:href="#DejaVuSans-72" x="295.166016"/>
      <use xlink:href="#DejaVuSans-69" x="336.279297"/>
      <use xlink:href="#DejaVuSans-63" x="364.0625"/>
      <use xlink:href="#DejaVuSans-68" x="419.042969"/>
      <use xlink:href="#DejaVuSans-69" x="482.421875"/>
      <use xlink:href="#DejaVuSans-61" x="510.205078"/>
     </g>
    </g>
    <g clip-path="url(#pdec42ed7a8)">
     <!-- coli -->
     <g transform="translate(844.413293 176.592562)scale(0.12 -0.12)">
      <use xlink:href="#DejaVuSans-63"/>
      <use xlink:href="#DejaVuSans-6f" x="54.980469"/>
      <use xlink:href="#DejaVuSans-6c" x="116.162109"/>
      <use xlink:href="#DejaVuSans-69" x="143.945312"/>
     </g>
    </g>
    <g clip-path="url(#pdec42ed7a8)">
     <!-- NCBITaxon:562 -->
     <g transform="translate(809.489543 190.029937)scale(0.12 -0.12)">
      <defs>
       <path id="DejaVuSans-54" d="M -19 4666 
L 3928 4666 
L 3928 4134 
L 2272 4134 
L 2272 0 
L 1638 0 
L 1638 4134 
L -19 4134 
L -19 4666 
z
" transform="scale(0.015625)"/>
       <path id="DejaVuSans-36" d="M 2113 2584 
Q 1688 2584 1439 2293 
Q 1191 2003 1191 1497 
Q 1191 994 1439 701 
Q 1688 409 2113 409 
Q 2538 409 2786 701 
Q 3034 994 3034 1497 
Q 3034 2003 2786 2293 
Q 2538 2584 2113 2584 
z
M 3366 4563 
L 3366 3988 
Q 3128 4100 2886 4159 
Q 2644 4219 2406 4219 
Q 1781 4219 1451 3797 
Q 1122 3375 1075 2522 
Q 1259 2794 1537 2939 
Q 1816 3084 2150 3084 
Q 2853 3084 3261 2657 
Q 3669 2231 3669 1497 
Q 3669 778 3244 343 
Q 2819 -91 2113 -91 
Q 1303 -91 875 529 
Q 447 1150 447 2328 
Q 447 3434 972 4092 
Q 1497 4750 2381 4750 
Q 2619 4750 2861 4703 
Q 3103 4656 3366 4563 
z
" transform="scale(0.015625)"/>
       <path id="DejaVuSans-32" d="M 1228 531 
L 3431 531 
L 3431 0 
L 469 0 
L 469 531 
Q 828 903 1448 1529 
Q 2069 2156 2228 2338 
Q 2531 2678 2651 2914 
Q 2772 3150 2772 3378 
Q 2772 3750 2511 3984 
Q 2250 4219 1831 4219 
Q 1534 4219 1204 4116 
Q 875 4013 500 3803 
L 500 4441 
Q 881 4594 1212 4672 
Q 1544 4750 1819 4750 
Q 2544 4750 2975 4387 
Q 3406 4025 3406 3419 
Q 3406 3131 3298 2873 
Q 3191 2616 2906 2266 
Q 2828 2175 2409 1742 
Q 1991 1309 1228 531 
z
" transform="scale(0.015625)"/>
      </defs>
      <use xlink:href="#DejaVuSans-4e"/>
      <use xlink:href="#DejaVuSans-43" x="74.804688"/>
      <use xlink:href="#DejaVuSans-42" x="144.628906"/>
      <use xlink:href="#DejaVuSans-49" x="213.232422"/>
      <use xlink:href="#DejaVuSans-54" x="242.724609"/>
      <use xlink:href="#DejaVuSans-61" x="287.308594"/>
      <use xlink:href="#DejaVuSans-78" x="348.587891"/>
      <use xlink:href="#DejaVuSans-6f" x="404.642578"/>
      <use xlink:href="#DejaVuSans-6e" x="465.824219"/>
      <use xlink:href="#DejaVuSans-3a" x="529.203125"/>
      <use xlink:href="#DejaVuSans-35" x="562.894531"/>
      <use xlink:href="#DejaVuSans-36" x="626.517578"/>
      <use xlink:href="#DejaVuSans-32" x="690.140625"/>
     </g>
    </g>
    <g clip-path="url(#pdec42ed7a8)">
     <!-- OrganismTaxon -->
     <g transform="translate(808.518293 203.467312)scale(0.12 -0.12)">
      <defs>
       <path id="DejaVuSans-4f" d="M 2522 4238 
Q 1834 4238 1429 3725 
Q 1025 3213 1025 2328 
Q 1025 1447 1429 934 
Q 1834 422 2522 422 
Q 3209 422 3611 934 
Q 4013 1447 4013 2328 
Q 4013 3213 3611 3725 
Q 3209 4238 2522 4238 
z
M 2522 4750 
Q 3503 4750 4090 4092 
Q 4678 3434 4678 2328 
Q 4678 1225 4090 567 
Q 3503 -91 2522 -91 
Q 1538 -91 948 565 
Q 359 1222 359 2328 
Q 359 3434 948 4092 
Q 1538 4750 2522 4750 
z
" transform="scale(0.015625)"/>
      </defs>
      <use xlink:href="#DejaVuSans-4f"/>
      <use xlink:href="#DejaVuSans-72" x="78.710938"/>
      <use xlink:href="#DejaVuSans-67" x="118.074219"/>
      <use xlink:href="#DejaVuSans-61" x="181.550781"/>
      <use xlink:href="#DejaVuSans-6e" x="242.830078"/>
      <use xlink:href="#DejaVuSans-69" x="306.208984"/>
      <use xlink:href="#DejaVuSans-73" x="333.992188"/>
      <use xlink:href="#DejaVuSans-6d" x="386.091797"/>
      <use xlink:href="#DejaVuSans-54" x="483.503906"/>
      <use xlink:href="#DejaVuSans-61" x="528.087891"/>
      <use xlink:href="#DejaVuSans-78" x="589.367188"/>
      <use xlink:href="#DejaVuSans-6f" x="645.421875"/>
      <use xlink:href="#DejaVuSans-6e" x="706.603516"/>
     </g>
    </g>
   </g>
   <g id="text_9">
    <g clip-path="url(#pdec42ed7a8)">
     <!-- Urinary tract -->
     <g transform="translate(1066.559086 156.4365)scale(0.12 -0.12)">
      <defs>
       <path id="DejaVuSans-55" d="M 556 4666 
L 1191 4666 
L 1191 1831 
Q 1191 1081 1462 751 
Q 1734 422 2344 422 
Q 2950 422 3222 751 
Q 3494 1081 3494 1831 
L 3494 4666 
L 4128 4666 
L 4128 1753 
Q 4128 841 3676 375 
Q 3225 -91 2344 -91 
Q 1459 -91 1007 375 
Q 556 841 556 1753 
L 556 4666 
z
" transform="scale(0.015625)"/>
      </defs>
      <use xlink:href="#DejaVuSans-55"/>
      <use xlink:href="#DejaVuSans-72" x="73.193359"/>
      <use xlink:href="#DejaVuSans-69" x="114.306641"/>
      <use xlink:href="#DejaVuSans-6e" x="142.089844"/>
      <use xlink:href="#DejaVuSans-61" x="205.46875"/>
      <use xlink:href="#DejaVuSans-72" x="266.748047"/>
      <use xlink:href="#DejaVuSans-79" x="307.861328"/>
      <use xlink:href="#DejaVuSans-20" x="367.041016"/>
      <use xlink:href="#DejaVuSans-74" x="398.828125"/>
      <use xlink:href="#DejaVuSans-72" x="438.037109"/>
      <use xlink:href="#DejaVuSans-61" x="479.150391"/>
      <use xlink:href="#DejaVuSans-63" x="540.429688"/>
      <use xlink:href="#DejaVuSans-74" x="595.410156"/>
     </g>
    </g>
    <g clip-path="url(#pdec42ed7a8)">
     <!-- infectious -->
     <g transform="translate(1075.443773 169.873875)scale(0.12 -0.12)">
      <use xlink:href="#DejaVuSans-69"/>
      <use xlink:href="#DejaVuSans-6e" x="27.783203"/>
      <use xlink:href="#DejaVuSans-66" x="91.162109"/>
      <use xlink:href="#DejaVuSans-65" x="126.367188"/>
      <use xlink:href="#DejaVuSans-63" x="187.890625"/>
      <use xlink:href="#DejaVuSans-74" x="242.871094"/>
      <use xlink:href="#DejaVuSans-69" x="282.080078"/>
      <use xlink:href="#DejaVuSans-6f" x="309.863281"/>
      <use xlink:href="#DejaVuSans-75" x="371.044922"/>
      <use xlink:href="#DejaVuSans-73" x="434.423828"/>
     </g>
    </g>
    <g clip-path="url(#pdec42ed7a8)">
     <!-- disease -->
     <g transform="translate(1081.846898 183.31125)scale(0.12 -0.12)">
      <use xlink:href="#DejaVuSans-64"/>
      <use xlink:href="#DejaVuSans-69" x="63.476562"/>
      <use xlink:href="#DejaVuSans-73" x="91.259766"/>
      <use xlink:href="#DejaVuSans-65" x="143.359375"/>
      <use xlink:href="#DejaVuSans-61" x="204.882812"/>
      <use xlink:href="#DejaVuSans-73" x="266.162109"/>
      <use xlink:href="#DejaVuSans-65" x="318.261719"/>
     </g>
    </g>
    <g clip-path="url(#pdec42ed7a8)">
     <!-- MESH:D014552 -->
     <g transform="translate(1057.799086 196.748625)scale(0.12 -0.12)">
      <defs>
       <path id="DejaVuSans-34" d="M 2419 4116 
L 825 1625 
L 2419 1625 
L 2419 4116 
z
M 2253 4666 
L 3047 4666 
L 3047 1625 
L 3713 1625 
L 3713 1100 
L 3047 1100 
L 3047 0 
L 2419 0 
L 2419 1100 
L 313 1100 
L 313 1709 
L 2253 4666 
z
" transform="scale(0.015625)"/>
      </defs>
      <use xlink:href="#DejaVuSans-4d"/>
      <use xlink:href="#DejaVuSans-45" x="86.279297"/>
      <use xlink:href="#DejaVuSans-53" x="149.462891"/>
      <use xlink:href="#DejaVuSans-48" x="212.939453"/>
      <use xlink:href="#DejaVuSans-3a" x="288.134766"/>
      <use xlink:href="#DejaVuSans-44" x="321.826172"/>
      <use xlink:href="#DejaVuSans-30" x="398.828125"/>
      <use xlink:href="#DejaVuSans-31" x="462.451172"/>
      <use xlink:href="#DejaVuSans-34" x="526.074219"/>
      <use xlink:href="#DejaVuSans-35" x="589.697266"/>
      <use xlink:href="#DejaVuSans-35" x="653.320312"/>
      <use xlink:href="#DejaVuSans-32" x="716.943359"/>
     </g>
    </g>
    <g clip-path="url(#pdec42ed7a8)">
     <!-- Disease -->
     <g transform="translate(1081.035961 210.186)scale(0.12 -0.12)">
      <use xlink:href="#DejaVuSans-44"/>
      <use xlink:href="#DejaVuSans-69" x="77.001953"/>
      <use xlink:href="#DejaVuSans-73" x="104.785156"/>
      <use xlink:href="#DejaVuSans-65" x="156.884766"/>
      <use xlink:href="#DejaVuSans-61" x="218.408203"/>
      <use xlink:href="#DejaVuSans-73" x="279.6875"/>
      <use xlink:href="#DejaVuSans-65" x="331.787109"/>
     </g>
    </g>
   </g>
  </g>
 </g>
 <defs>
  <clipPath id="pdec42ed7a8">
   <rect x="0" y="0" width="1209.6" height="360"/>
  </clipPath>
 </defs>
</svg>
