<?xml version="1.0" encoding="utf-8" standalone="no"?>
<!DOCTYPE svg PUBLIC "-//W3C//DTD SVG 1.1//EN"
  "http://www.w3.org/Graphics/SVG/1.1/DTD/svg11.dtd">
<svg xmlns:xlink="http://www.w3.org/1999/xlink" width="864pt" height="360pt" viewBox="0 0 864 360" xmlns="http://www.w3.org/2000/svg" version="1.1">
 <metadata>
  <rdf:RDF xmlns:dc="http://purl.org/dc/elements/1.1/" xmlns:cc="http://creativecommons.org/ns#" xmlns:rdf="http://www.w3.org/1999/02/22-rdf-syntax-ns#">
   <cc:Work>
    <dc:type rdf:resource="http://purl.org/dc/dcmitype/StillImage"/>
    <dc:date>2023-02-08T08:50:50.449940</dc:date>
    <dc:format>image/svg+xml</dc:format>
    <dc:creator>
     <cc:Agent>
      <dc:title>Matplotlib v3.5.1, https://matplotlib.org/</dc:title>
     </cc:Agent>
    </dc:creator>
   </cc:Work>
  </rdf:RDF>
 </metadata>
 <defs>
  <style type="text/css">*{stroke-linejoin: round; stroke-linecap: butt}</style>
 </defs>
 <g id="figure_1">
  <g id="patch_1">
   <path d="M 0 360 
L 864 360 
L 864 0 
L 0 0 
z
" style="fill: #ffffff"/>
  </g>
  <g id="axes_1">
   <g id="patch_2">
    <path d="M 127.418126 180 
Q 253.489907 180 376.207585 180 
" clip-path="url(#p1d82b010e2)" style="fill: none; stroke: #2ca02c; stroke-width: 3; stroke-linecap: round"/>
    <path d="M 372.207585 178 
L 376.207585 180 
L 372.207585 182 
L 372.207585 178 
z
" clip-path="url(#p1d82b010e2)" style="fill: #2ca02c; stroke: #2ca02c; stroke-width: 3; stroke-linecap: round"/>
   </g>
   <g id="patch_3">
    <path d="M 484.44292 180 
Q 610.5147 180 733.232378 180 
" clip-path="url(#p1d82b010e2)" style="fill: none; stroke: #2ca02c; stroke-width: 3; stroke-linecap: round"/>
    <path d="M 729.232378 178 
L 733.232378 180 
L 729.232378 182 
L 729.232378 178 
z
" clip-path="url(#p1d82b010e2)" style="fill: #2ca02c; stroke: #2ca02c; stroke-width: 3; stroke-linecap: round"/>
   </g>
   <g id="text_1">
    <g id="patch_4">
     <path d="M 228.118072 193.437969 
L 278.857135 193.437969 
Q 281.857135 193.437969 281.857135 190.437969 
L 281.857135 169.562031 
Q 281.857135 166.562031 278.857135 166.562031 
L 228.118072 166.562031 
Q 225.118072 166.562031 225.118072 169.562031 
L 225.118072 190.437969 
Q 225.118072 193.437969 228.118072 193.437969 
z
" clip-path="url(#p1d82b010e2)" style="fill: #ffffff; stroke: #ffffff; stroke-linejoin: miter"/>
    </g>
    <g clip-path="url(#p1d82b010e2)">
     <!-- decreases -->
     <g transform="translate(228.118072 177.160469)scale(0.1 -0.1)">
      <defs>
       <path id="DejaVuSans-64" d="M 2906 2969 
L 2906 4863 
L 3481 4863 
L 3481 0 
L 2906 0 
L 2906 525 
Q 2725 213 2448 61 
Q 2172 -91 1784 -91 
Q 1150 -91 751 415 
Q 353 922 353 1747 
Q 353 2572 751 3078 
Q 1150 3584 1784 3584 
Q 2172 3584 2448 3432 
Q 2725 3281 2906 2969 
z
M 947 1747 
Q 947 1113 1208 752 
Q 1469 391 1925 391 
Q 2381 391 2643 752 
Q 2906 1113 2906 1747 
Q 2906 2381 2643 2742 
Q 2381 3103 1925 3103 
Q 1469 3103 1208 2742 
Q 947 2381 947 1747 
z
" transform="scale(0.015625)"/>
       <path id="DejaVuSans-65" d="M 3597 1894 
L 3597 1613 
L 953 1613 
Q 991 1019 1311 708 
Q 1631 397 2203 397 
Q 2534 397 2845 478 
Q 3156 559 3463 722 
L 3463 178 
Q 3153 47 2828 -22 
Q 2503 -91 2169 -91 
Q 1331 -91 842 396 
Q 353 884 353 1716 
Q 353 2575 817 3079 
Q 1281 3584 2069 3584 
Q 2775 3584 3186 3129 
Q 3597 2675 3597 1894 
z
M 3022 2063 
Q 3016 2534 2758 2815 
Q 2500 3097 2075 3097 
Q 1594 3097 1305 2825 
Q 1016 2553 972 2059 
L 3022 2063 
z
" transform="scale(0.015625)"/>
       <path id="DejaVuSans-63" d="M 3122 3366 
L 3122 2828 
Q 2878 2963 2633 3030 
Q 2388 3097 2138 3097 
Q 1578 3097 1268 2742 
Q 959 2388 959 1747 
Q 959 1106 1268 751 
Q 1578 397 2138 397 
Q 2388 397 2633 464 
Q 2878 531 3122 666 
L 3122 134 
Q 2881 22 2623 -34 
Q 2366 -91 2075 -91 
Q 1284 -91 818 406 
Q 353 903 353 1747 
Q 353 2603 823 3093 
Q 1294 3584 2113 3584 
Q 2378 3584 2631 3529 
Q 2884 3475 3122 3366 
z
" transform="scale(0.015625)"/>
       <path id="DejaVuSans-72" d="M 2631 2963 
Q 2534 3019 2420 3045 
Q 2306 3072 2169 3072 
Q 1681 3072 1420 2755 
Q 1159 2438 1159 1844 
L 1159 0 
L 581 0 
L 581 3500 
L 1159 3500 
L 1159 2956 
Q 1341 3275 1631 3429 
Q 1922 3584 2338 3584 
Q 2397 3584 2469 3576 
Q 2541 3569 2628 3553 
L 2631 2963 
z
" transform="scale(0.015625)"/>
       <path id="DejaVuSans-61" d="M 2194 1759 
Q 1497 1759 1228 1600 
Q 959 1441 959 1056 
Q 959 750 1161 570 
Q 1363 391 1709 391 
Q 2188 391 2477 730 
Q 2766 1069 2766 1631 
L 2766 1759 
L 2194 1759 
z
M 3341 1997 
L 3341 0 
L 2766 0 
L 2766 531 
Q 2569 213 2275 61 
Q 1981 -91 1556 -91 
Q 1019 -91 701 211 
Q 384 513 384 1019 
Q 384 1609 779 1909 
Q 1175 2209 1959 2209 
L 2766 2209 
L 2766 2266 
Q 2766 2663 2505 2880 
Q 2244 3097 1772 3097 
Q 1472 3097 1187 3025 
Q 903 2953 641 2809 
L 641 3341 
Q 956 3463 1253 3523 
Q 1550 3584 1831 3584 
Q 2591 3584 2966 3190 
Q 3341 2797 3341 1997 
z
" transform="scale(0.015625)"/>
       <path id="DejaVuSans-73" d="M 2834 3397 
L 2834 2853 
Q 2591 2978 2328 3040 
Q 2066 3103 1784 3103 
Q 1356 3103 1142 2972 
Q 928 2841 928 2578 
Q 928 2378 1081 2264 
Q 1234 2150 1697 2047 
L 1894 2003 
Q 2506 1872 2764 1633 
Q 3022 1394 3022 966 
Q 3022 478 2636 193 
Q 2250 -91 1575 -91 
Q 1294 -91 989 -36 
Q 684 19 347 128 
L 347 722 
Q 666 556 975 473 
Q 1284 391 1588 391 
Q 1994 391 2212 530 
Q 2431 669 2431 922 
Q 2431 1156 2273 1281 
Q 2116 1406 1581 1522 
L 1381 1569 
Q 847 1681 609 1914 
Q 372 2147 372 2553 
Q 372 3047 722 3315 
Q 1072 3584 1716 3584 
Q 2034 3584 2315 3537 
Q 2597 3491 2834 3397 
z
" transform="scale(0.015625)"/>
      </defs>
      <use xlink:href="#DejaVuSans-64"/>
      <use xlink:href="#DejaVuSans-65" x="63.476562"/>
      <use xlink:href="#DejaVuSans-63" x="125"/>
      <use xlink:href="#DejaVuSans-72" x="179.980469"/>
      <use xlink:href="#DejaVuSans-65" x="218.84375"/>
      <use xlink:href="#DejaVuSans-61" x="280.367188"/>
      <use xlink:href="#DejaVuSans-73" x="341.646484"/>
      <use xlink:href="#DejaVuSans-65" x="393.746094"/>
      <use xlink:href="#DejaVuSans-73" x="455.269531"/>
     </g>
    </g>
    <g clip-path="url(#p1d82b010e2)">
     <!-- activity of -->
     <g transform="translate(228.648541 188.358281)scale(0.1 -0.1)">
      <defs>
       <path id="DejaVuSans-74" d="M 1172 4494 
L 1172 3500 
L 2356 3500 
L 2356 3053 
L 1172 3053 
L 1172 1153 
Q 1172 725 1289 603 
Q 1406 481 1766 481 
L 2356 481 
L 2356 0 
L 1766 0 
Q 1100 0 847 248 
Q 594 497 594 1153 
L 594 3053 
L 172 3053 
L 172 3500 
L 594 3500 
L 594 4494 
L 1172 4494 
z
" transform="scale(0.015625)"/>
       <path id="DejaVuSans-69" d="M 603 3500 
L 1178 3500 
L 1178 0 
L 603 0 
L 603 3500 
z
M 603 4863 
L 1178 4863 
L 1178 4134 
L 603 4134 
L 603 4863 
z
" transform="scale(0.015625)"/>
       <path id="DejaVuSans-76" d="M 191 3500 
L 800 3500 
L 1894 563 
L 2988 3500 
L 3597 3500 
L 2284 0 
L 1503 0 
L 191 3500 
z
" transform="scale(0.015625)"/>
       <path id="DejaVuSans-79" d="M 2059 -325 
Q 1816 -950 1584 -1140 
Q 1353 -1331 966 -1331 
L 506 -1331 
L 506 -850 
L 844 -850 
Q 1081 -850 1212 -737 
Q 1344 -625 1503 -206 
L 1606 56 
L 191 3500 
L 800 3500 
L 1894 763 
L 2988 3500 
L 3597 3500 
L 2059 -325 
z
" transform="scale(0.015625)"/>
       <path id="DejaVuSans-20" transform="scale(0.015625)"/>
       <path id="DejaVuSans-6f" d="M 1959 3097 
Q 1497 3097 1228 2736 
Q 959 2375 959 1747 
Q 959 1119 1226 758 
Q 1494 397 1959 397 
Q 2419 397 2687 759 
Q 2956 1122 2956 1747 
Q 2956 2369 2687 2733 
Q 2419 3097 1959 3097 
z
M 1959 3584 
Q 2709 3584 3137 3096 
Q 3566 2609 3566 1747 
Q 3566 888 3137 398 
Q 2709 -91 1959 -91 
Q 1206 -91 779 398 
Q 353 888 353 1747 
Q 353 2609 779 3096 
Q 1206 3584 1959 3584 
z
" transform="scale(0.015625)"/>
       <path id="DejaVuSans-66" d="M 2375 4863 
L 2375 4384 
L 1825 4384 
Q 1516 4384 1395 4259 
Q 1275 4134 1275 3809 
L 1275 3500 
L 2222 3500 
L 2222 3053 
L 1275 3053 
L 1275 0 
L 697 0 
L 697 3053 
L 147 3053 
L 147 3500 
L 697 3500 
L 697 3744 
Q 697 4328 969 4595 
Q 1241 4863 1831 4863 
L 2375 4863 
z
" transform="scale(0.015625)"/>
      </defs>
      <use xlink:href="#DejaVuSans-61"/>
      <use xlink:href="#DejaVuSans-63" x="61.279297"/>
      <use xlink:href="#DejaVuSans-74" x="116.259766"/>
      <use xlink:href="#DejaVuSans-69" x="155.46875"/>
      <use xlink:href="#DejaVuSans-76" x="183.251953"/>
      <use xlink:href="#DejaVuSans-69" x="242.431641"/>
      <use xlink:href="#DejaVuSans-74" x="270.214844"/>
      <use xlink:href="#DejaVuSans-79" x="309.423828"/>
      <use xlink:href="#DejaVuSans-20" x="368.603516"/>
      <use xlink:href="#DejaVuSans-6f" x="400.390625"/>
      <use xlink:href="#DejaVuSans-66" x="461.572266"/>
     </g>
    </g>
   </g>
   <g id="text_2">
    <g id="patch_5">
     <path d="M 593.244428 187.839062 
L 627.780365 187.839062 
Q 630.780365 187.839062 630.780365 184.839062 
L 630.780365 175.160937 
Q 630.780365 172.160937 627.780365 172.160937 
L 593.244428 172.160937 
Q 590.244428 172.160937 590.244428 175.160937 
L 590.244428 184.839062 
Q 590.244428 187.839062 593.244428 187.839062 
z
" clip-path="url(#p1d82b010e2)" style="fill: #ffffff; stroke: #ffffff; stroke-linejoin: miter"/>
    </g>
    <g clip-path="url(#p1d82b010e2)">
     <!-- causes -->
     <g transform="translate(593.244428 182.759375)scale(0.1 -0.1)">
      <defs>
       <path id="DejaVuSans-75" d="M 544 1381 
L 544 3500 
L 1119 3500 
L 1119 1403 
Q 1119 906 1312 657 
Q 1506 409 1894 409 
Q 2359 409 2629 706 
Q 2900 1003 2900 1516 
L 2900 3500 
L 3475 3500 
L 3475 0 
L 2900 0 
L 2900 538 
Q 2691 219 2414 64 
Q 2138 -91 1772 -91 
Q 1169 -91 856 284 
Q 544 659 544 1381 
z
M 1991 3584 
L 1991 3584 
z
" transform="scale(0.015625)"/>
      </defs>
      <use xlink:href="#DejaVuSans-63"/>
      <use xlink:href="#DejaVuSans-61" x="54.980469"/>
      <use xlink:href="#DejaVuSans-75" x="116.259766"/>
      <use xlink:href="#DejaVuSans-73" x="179.638672"/>
      <use xlink:href="#DejaVuSans-65" x="231.738281"/>
      <use xlink:href="#DejaVuSans-73" x="293.261719"/>
     </g>
    </g>
   </g>
   <g id="PathCollection_1">
    <defs>
     <path id="C0_0_0d2f6afee1" d="M 0 52.440442 
C 13.907368 52.440442 27.246998 46.914987 37.080992 37.080992 
C 46.914987 27.246998 52.440442 13.907368 52.440442 -0 
C 52.440442 -13.907368 46.914987 -27.246998 37.080992 -37.080992 
C 27.246998 -46.914987 13.907368 -52.440442 0 -52.440442 
C -13.907368 -52.440442 -27.246998 -46.914987 -37.080992 -37.080992 
C -46.914987 -27.246998 -52.440442 -13.907368 -52.440442 0 
C -52.440442 13.907368 -46.914987 27.246998 -37.080992 37.080992 
C -27.246998 46.914987 -13.907368 52.440442 0 52.440442 
z
"/>
    </defs>
    <g clip-path="url(#p1d82b010e2)">
     <use xlink:href="#C0_0_0d2f6afee1" x="74.975207" y="180" style="fill: #01c472; stroke: #01c472"/>
    </g>
    <g clip-path="url(#p1d82b010e2)">
     <use xlink:href="#C0_0_0d2f6afee1" x="432" y="180" style="fill: #e71761; stroke: #e71761"/>
    </g>
    <g clip-path="url(#p1d82b010e2)">
     <use xlink:href="#C0_0_0d2f6afee1" x="789.024793" y="180" style="fill: #70c6ca; stroke: #70c6ca"/>
    </g>
   </g>
   <g id="text_3">
    <path d="M 408.405 165.696375 
L 408.405 168.90075 
L 410.304375 168.90075 
Q 411.25875 168.90075 411.718125 168.505125 
Q 412.179375 168.1095 412.179375 167.29575 
Q 412.179375 166.4745 411.718125 166.086375 
Q 411.25875 165.696375 410.304375 165.696375 
L 408.405 165.696375 
z
M 408.405 162.09825 
L 408.405 164.7345 
L 410.158125 164.7345 
Q 411.024375 164.7345 411.448125 164.410125 
Q 411.87375 164.083875 411.87375 163.416375 
Q 411.87375 162.7545 411.448125 162.426375 
Q 411.024375 162.09825 410.158125 162.09825 
L 408.405 162.09825 
z
M 407.221875 161.125125 
L 410.24625 161.125125 
Q 411.6 161.125125 412.33125 161.687625 
Q 413.064375 162.250125 413.064375 163.287 
Q 413.064375 164.091375 412.689375 164.56575 
Q 412.314375 165.040125 411.586875 165.156375 
Q 412.460625 165.343875 412.944375 165.940125 
Q 413.428125 166.5345 413.428125 167.425125 
Q 413.428125 168.597 412.63125 169.236375 
Q 411.834375 169.873875 410.3625 169.873875 
L 407.221875 169.873875 
L 407.221875 161.125125 
z
M 421.795547 161.800125 
L 421.795547 163.047 
Q 421.197422 162.490125 420.520547 162.216375 
Q 419.843672 161.94075 419.082422 161.94075 
Q 417.582422 161.94075 416.785547 162.857625 
Q 415.988672 163.7745 415.988672 165.508875 
Q 415.988672 167.237625 416.785547 168.1545 
Q 417.582422 169.071375 419.082422 169.071375 
Q 419.843672 169.071375 420.520547 168.79575 
Q 421.197422 168.520125 421.795547 167.96325 
L 421.795547 169.20075 
Q 421.174922 169.622625 420.479297 169.8345 
Q 419.785547 170.0445 419.013047 170.0445 
Q 417.025547 170.0445 415.881797 168.8295 
Q 414.739922 167.612625 414.739922 165.508875 
Q 414.739922 163.3995 415.881797 162.1845 
Q 417.025547 160.967625 419.013047 160.967625 
Q 419.796797 160.967625 420.490547 161.17575 
Q 421.186172 161.383875 421.795547 161.800125 
z
M 427.772578 165.771375 
Q 428.153203 165.90075 428.513203 166.322625 
Q 428.873203 166.7445 429.236953 167.48325 
L 430.438828 169.873875 
L 429.165703 169.873875 
L 428.048203 167.6295 
Q 427.613203 166.750125 427.206328 166.46325 
Q 426.799453 166.176375 426.096328 166.176375 
L 424.806328 166.176375 
L 424.806328 169.873875 
L 423.623203 169.873875 
L 423.623203 161.125125 
L 426.295078 161.125125 
Q 427.795078 161.125125 428.533828 161.75325 
Q 429.272578 162.3795 429.272578 163.645125 
Q 429.272578 164.472 428.888203 165.017625 
Q 428.503828 165.561375 427.772578 165.771375 
z
M 424.806328 162.09825 
L 424.806328 165.20325 
L 426.295078 165.20325 
Q 427.150078 165.20325 427.586953 164.807625 
Q 428.023828 164.412 428.023828 163.645125 
Q 428.023828 162.87825 427.586953 162.48825 
Q 427.150078 162.09825 426.295078 162.09825 
L 424.806328 162.09825 
z
M 433.830469 161.125125 
L 434.826094 161.125125 
L 431.779219 170.987625 
L 430.783594 170.987625 
L 433.830469 161.125125 
z
M 438.929062 162.291375 
L 437.322187 166.645125 
L 440.539687 166.645125 
L 438.929062 162.291375 
z
M 438.259687 161.125125 
L 439.602187 161.125125 
L 442.935937 169.873875 
L 441.705937 169.873875 
L 440.909062 167.6295 
L 436.965937 167.6295 
L 436.169062 169.873875 
L 434.920312 169.873875 
L 438.259687 161.125125 
z
M 445.396172 165.696375 
L 445.396172 168.90075 
L 447.295547 168.90075 
Q 448.249922 168.90075 448.709297 168.505125 
Q 449.170547 168.1095 449.170547 167.29575 
Q 449.170547 166.4745 448.709297 166.086375 
Q 448.249922 165.696375 447.295547 165.696375 
L 445.396172 165.696375 
z
M 445.396172 162.09825 
L 445.396172 164.7345 
L 447.149297 164.7345 
Q 448.015547 164.7345 448.439297 164.410125 
Q 448.864922 164.083875 448.864922 163.416375 
Q 448.864922 162.7545 448.439297 162.426375 
Q 448.015547 162.09825 447.149297 162.09825 
L 445.396172 162.09825 
z
M 444.213047 161.125125 
L 447.237422 161.125125 
Q 448.591172 161.125125 449.322422 161.687625 
Q 450.055547 162.250125 450.055547 163.287 
Q 450.055547 164.091375 449.680547 164.56575 
Q 449.305547 165.040125 448.578047 165.156375 
Q 449.451797 165.343875 449.935547 165.940125 
Q 450.419297 166.5345 450.419297 167.425125 
Q 450.419297 168.597 449.622422 169.236375 
Q 448.825547 169.873875 447.353672 169.873875 
L 444.213047 169.873875 
L 444.213047 161.125125 
z
M 452.445469 161.125125 
L 453.628594 161.125125 
L 453.628594 168.87825 
L 457.888594 168.87825 
L 457.888594 169.873875 
L 452.445469 169.873875 
L 452.445469 161.125125 
z
" clip-path="url(#p1d82b010e2)" style="fill: #ffffff; stroke: #000000; stroke-width: 2"/>
    <path d="M 408.405 165.696375 
L 408.405 168.90075 
L 410.304375 168.90075 
Q 411.25875 168.90075 411.718125 168.505125 
Q 412.179375 168.1095 412.179375 167.29575 
Q 412.179375 166.4745 411.718125 166.086375 
Q 411.25875 165.696375 410.304375 165.696375 
L 408.405 165.696375 
z
M 408.405 162.09825 
L 408.405 164.7345 
L 410.158125 164.7345 
Q 411.024375 164.7345 411.448125 164.410125 
Q 411.87375 164.083875 411.87375 163.416375 
Q 411.87375 162.7545 411.448125 162.426375 
Q 411.024375 162.09825 410.158125 162.09825 
L 408.405 162.09825 
z
M 407.221875 161.125125 
L 410.24625 161.125125 
Q 411.6 161.125125 412.33125 161.687625 
Q 413.064375 162.250125 413.064375 163.287 
Q 413.064375 164.091375 412.689375 164.56575 
Q 412.314375 165.040125 411.586875 165.156375 
Q 412.460625 165.343875 412.944375 165.940125 
Q 413.428125 166.5345 413.428125 167.425125 
Q 413.428125 168.597 412.63125 169.236375 
Q 411.834375 169.873875 410.3625 169.873875 
L 407.221875 169.873875 
L 407.221875 161.125125 
z
M 421.795547 161.800125 
L 421.795547 163.047 
Q 421.197422 162.490125 420.520547 162.216375 
Q 419.843672 161.94075 419.082422 161.94075 
Q 417.582422 161.94075 416.785547 162.857625 
Q 415.988672 163.7745 415.988672 165.508875 
Q 415.988672 167.237625 416.785547 168.1545 
Q 417.582422 169.071375 419.082422 169.071375 
Q 419.843672 169.071375 420.520547 168.79575 
Q 421.197422 168.520125 421.795547 167.96325 
L 421.795547 169.20075 
Q 421.174922 169.622625 420.479297 169.8345 
Q 419.785547 170.0445 419.013047 170.0445 
Q 417.025547 170.0445 415.881797 168.8295 
Q 414.739922 167.612625 414.739922 165.508875 
Q 414.739922 163.3995 415.881797 162.1845 
Q 417.025547 160.967625 419.013047 160.967625 
Q 419.796797 160.967625 420.490547 161.17575 
Q 421.186172 161.383875 421.795547 161.800125 
z
M 427.772578 165.771375 
Q 428.153203 165.90075 428.513203 166.322625 
Q 428.873203 166.7445 429.236953 167.48325 
L 430.438828 169.873875 
L 429.165703 169.873875 
L 428.048203 167.6295 
Q 427.613203 166.750125 427.206328 166.46325 
Q 426.799453 166.176375 426.096328 166.176375 
L 424.806328 166.176375 
L 424.806328 169.873875 
L 423.623203 169.873875 
L 423.623203 161.125125 
L 426.295078 161.125125 
Q 427.795078 161.125125 428.533828 161.75325 
Q 429.272578 162.3795 429.272578 163.645125 
Q 429.272578 164.472 428.888203 165.017625 
Q 428.503828 165.561375 427.772578 165.771375 
z
M 424.806328 162.09825 
L 424.806328 165.20325 
L 426.295078 165.20325 
Q 427.150078 165.20325 427.586953 164.807625 
Q 428.023828 164.412 428.023828 163.645125 
Q 428.023828 162.87825 427.586953 162.48825 
Q 427.150078 162.09825 426.295078 162.09825 
L 424.806328 162.09825 
z
M 433.830469 161.125125 
L 434.826094 161.125125 
L 431.779219 170.987625 
L 430.783594 170.987625 
L 433.830469 161.125125 
z
M 438.929062 162.291375 
L 437.322187 166.645125 
L 440.539687 166.645125 
L 438.929062 162.291375 
z
M 438.259687 161.125125 
L 439.602187 161.125125 
L 442.935937 169.873875 
L 441.705937 169.873875 
L 440.909062 167.6295 
L 436.965937 167.6295 
L 436.169062 169.873875 
L 434.920312 169.873875 
L 438.259687 161.125125 
z
M 445.396172 165.696375 
L 445.396172 168.90075 
L 447.295547 168.90075 
Q 448.249922 168.90075 448.709297 168.505125 
Q 449.170547 168.1095 449.170547 167.29575 
Q 449.170547 166.4745 448.709297 166.086375 
Q 448.249922 165.696375 447.295547 165.696375 
L 445.396172 165.696375 
z
M 445.396172 162.09825 
L 445.396172 164.7345 
L 447.149297 164.7345 
Q 448.015547 164.7345 448.439297 164.410125 
Q 448.864922 164.083875 448.864922 163.416375 
Q 448.864922 162.7545 448.439297 162.426375 
Q 448.015547 162.09825 447.149297 162.09825 
L 445.396172 162.09825 
z
M 444.213047 161.125125 
L 447.237422 161.125125 
Q 448.591172 161.125125 449.322422 161.687625 
Q 450.055547 162.250125 450.055547 163.287 
Q 450.055547 164.091375 449.680547 164.56575 
Q 449.305547 165.040125 448.578047 165.156375 
Q 449.451797 165.343875 449.935547 165.940125 
Q 450.419297 166.5345 450.419297 167.425125 
Q 450.419297 168.597 449.622422 169.236375 
Q 448.825547 169.873875 447.353672 169.873875 
L 444.213047 169.873875 
L 444.213047 161.125125 
z
M 452.445469 161.125125 
L 453.628594 161.125125 
L 453.628594 168.87825 
L 457.888594 168.87825 
L 457.888594 169.873875 
L 452.445469 169.873875 
L 452.445469 161.125125 
z
" clip-path="url(#p1d82b010e2)" style="fill: #ffffff"/>
    <path d="M 386.5875 174.5625 
L 387.778125 174.5625 
L 387.778125 179.878125 
Q 387.778125 181.284375 388.28625 181.903125 
Q 388.79625 182.52 389.94 182.52 
Q 391.07625 182.52 391.58625 181.903125 
Q 392.09625 181.284375 392.09625 179.878125 
L 392.09625 174.5625 
L 393.285 174.5625 
L 393.285 180.024375 
Q 393.285 181.734375 392.4375 182.608125 
Q 391.591875 183.481875 389.94 183.481875 
Q 388.280625 183.481875 387.433125 182.608125 
Q 386.5875 181.734375 386.5875 180.024375 
L 386.5875 174.5625 
z
M 400.915078 179.349375 
L 400.915078 183.31125 
L 399.836953 183.31125 
L 399.836953 179.385 
Q 399.836953 178.453125 399.473203 177.991875 
Q 399.109453 177.52875 398.383828 177.52875 
Q 397.510078 177.52875 397.005703 178.085625 
Q 396.501328 178.640625 396.501328 179.6025 
L 396.501328 183.31125 
L 395.417578 183.31125 
L 395.417578 176.74875 
L 396.501328 176.74875 
L 396.501328 177.76875 
Q 396.889453 177.17625 397.412578 176.88375 
Q 397.937578 176.59125 398.623828 176.59125 
Q 399.754453 176.59125 400.333828 177.290625 
Q 400.915078 177.99 400.915078 179.349375 
z
M 403.064297 176.74875 
L 404.142422 176.74875 
L 404.142422 183.31125 
L 403.064297 183.31125 
L 403.064297 176.74875 
z
M 403.064297 174.193125 
L 404.142422 174.193125 
L 404.142422 175.56 
L 403.064297 175.56 
L 403.064297 174.193125 
z
M 407.628281 175.535625 
L 407.628281 178.8225 
L 409.117031 178.8225 
Q 409.943906 178.8225 410.393906 178.395 
Q 410.845781 177.9675 410.845781 177.17625 
Q 410.845781 176.390625 410.393906 175.963125 
Q 409.943906 175.535625 409.117031 175.535625 
L 407.628281 175.535625 
z
M 406.445156 174.5625 
L 409.117031 174.5625 
Q 410.588906 174.5625 411.340781 175.228125 
Q 412.094531 175.89375 412.094531 177.17625 
Q 412.094531 178.471875 411.340781 179.13375 
Q 410.588906 179.795625 409.117031 179.795625 
L 407.628281 179.795625 
L 407.628281 183.31125 
L 406.445156 183.31125 
L 406.445156 174.5625 
z
M 417.227109 177.755625 
Q 417.045234 177.650625 416.831484 177.601875 
Q 416.617734 177.55125 416.360859 177.55125 
Q 415.445859 177.55125 414.956484 178.145625 
Q 414.467109 178.74 414.467109 179.85375 
L 414.467109 183.31125 
L 413.383359 183.31125 
L 413.383359 176.74875 
L 414.467109 176.74875 
L 414.467109 177.76875 
Q 414.808359 177.170625 415.352109 176.881875 
Q 415.897734 176.59125 416.677734 176.59125 
Q 416.788359 176.59125 416.923359 176.60625 
Q 417.058359 176.619375 417.221484 176.649375 
L 417.227109 177.755625 
z
M 420.630703 177.504375 
Q 419.764453 177.504375 419.260078 178.18125 
Q 418.755703 178.858125 418.755703 180.035625 
Q 418.755703 181.213125 419.256328 181.89 
Q 419.758828 182.566875 420.630703 182.566875 
Q 421.493203 182.566875 421.995703 181.888125 
Q 422.500078 181.2075 422.500078 180.035625 
Q 422.500078 178.869375 421.995703 178.186875 
Q 421.493203 177.504375 420.630703 177.504375 
z
M 420.630703 176.59125 
Q 422.036953 176.59125 422.839453 177.50625 
Q 423.643828 178.419375 423.643828 180.035625 
Q 423.643828 181.64625 422.839453 182.565 
Q 422.036953 183.481875 420.630703 183.481875 
Q 419.218828 183.481875 418.418203 182.565 
Q 417.619453 181.64625 417.619453 180.035625 
Q 417.619453 178.419375 418.418203 177.50625 
Q 419.218828 176.59125 420.630703 176.59125 
z
M 426.496875 174.885 
L 426.496875 176.74875 
L 428.716875 176.74875 
L 428.716875 177.586875 
L 426.496875 177.586875 
L 426.496875 181.149375 
Q 426.496875 181.951875 426.71625 182.180625 
Q 426.935625 182.409375 427.610625 182.409375 
L 428.716875 182.409375 
L 428.716875 183.31125 
L 427.610625 183.31125 
Q 426.361875 183.31125 425.8875 182.84625 
Q 425.413125 182.379375 425.413125 181.149375 
L 425.413125 177.586875 
L 424.621875 177.586875 
L 424.621875 176.74875 
L 425.413125 176.74875 
L 425.413125 174.885 
L 426.496875 174.885 
z
M 430.410703 181.8225 
L 431.646328 181.8225 
L 431.646328 183.31125 
L 430.410703 183.31125 
L 430.410703 181.8225 
z
M 430.410703 177.106875 
L 431.646328 177.106875 
L 431.646328 178.59375 
L 430.410703 178.59375 
L 430.410703 177.106875 
z
M 435.408047 175.535625 
L 435.408047 178.8225 
L 436.896797 178.8225 
Q 437.723672 178.8225 438.173672 178.395 
Q 438.625547 177.9675 438.625547 177.17625 
Q 438.625547 176.390625 438.173672 175.963125 
Q 437.723672 175.535625 436.896797 175.535625 
L 435.408047 175.535625 
z
M 434.224922 174.5625 
L 436.896797 174.5625 
Q 438.368672 174.5625 439.120547 175.228125 
Q 439.874297 175.89375 439.874297 177.17625 
Q 439.874297 178.471875 439.120547 179.13375 
Q 438.368672 179.795625 436.896797 179.795625 
L 435.408047 179.795625 
L 435.408047 183.31125 
L 434.224922 183.31125 
L 434.224922 174.5625 
z
M 444.0975 175.3425 
Q 443.184375 175.3425 442.723125 176.2425 
Q 442.26375 177.140625 442.26375 178.94625 
Q 442.26375 180.744375 442.723125 181.644375 
Q 443.184375 182.544375 444.0975 182.544375 
Q 445.018125 182.544375 445.4775 181.644375 
Q 445.93875 180.744375 445.93875 178.94625 
Q 445.93875 177.140625 445.4775 176.2425 
Q 445.018125 175.3425 444.0975 175.3425 
z
M 444.0975 174.405 
Q 445.569375 174.405 446.345625 175.569375 
Q 447.121875 176.731875 447.121875 178.94625 
Q 447.121875 181.155 446.345625 182.319375 
Q 445.569375 183.481875 444.0975 183.481875 
Q 442.6275 183.481875 441.85125 182.319375 
Q 441.075 181.155 441.075 178.94625 
Q 441.075 176.731875 441.85125 175.569375 
Q 442.6275 174.405 444.0975 174.405 
z
M 451.732266 175.3425 
Q 450.819141 175.3425 450.357891 176.2425 
Q 449.898516 177.140625 449.898516 178.94625 
Q 449.898516 180.744375 450.357891 181.644375 
Q 450.819141 182.544375 451.732266 182.544375 
Q 452.652891 182.544375 453.112266 181.644375 
Q 453.573516 180.744375 453.573516 178.94625 
Q 453.573516 177.140625 453.112266 176.2425 
Q 452.652891 175.3425 451.732266 175.3425 
z
M 451.732266 174.405 
Q 453.204141 174.405 453.980391 175.569375 
Q 454.756641 176.731875 454.756641 178.94625 
Q 454.756641 181.155 453.980391 182.319375 
Q 453.204141 183.481875 451.732266 183.481875 
Q 450.262266 183.481875 449.486016 182.319375 
Q 448.709766 181.155 448.709766 178.94625 
Q 448.709766 176.731875 449.486016 175.569375 
Q 450.262266 174.405 451.732266 174.405 
z
M 456.848906 174.5625 
L 461.495156 174.5625 
L 461.495156 175.56 
L 457.932656 175.56 
L 457.932656 177.703125 
Q 458.189531 177.615 458.446406 177.571875 
Q 458.705156 177.52875 458.963906 177.52875 
Q 460.428281 177.52875 461.283281 178.33125 
Q 462.140156 179.13375 462.140156 180.504375 
Q 462.140156 181.91625 461.260781 182.7 
Q 460.381406 183.481875 458.782031 183.481875 
Q 458.230781 183.481875 457.658906 183.388125 
Q 457.088906 183.294375 456.479531 183.106875 
L 456.479531 181.91625 
Q 457.006406 182.203125 457.568906 182.34375 
Q 458.131406 182.484375 458.757656 182.484375 
Q 459.772031 182.484375 460.362656 181.951875 
Q 460.955156 181.419375 460.955156 180.504375 
Q 460.955156 179.59125 460.362656 179.05875 
Q 459.772031 178.524375 458.757656 178.524375 
Q 458.283281 178.524375 457.810781 178.629375 
Q 457.340156 178.734375 456.848906 178.9575 
L 456.848906 174.5625 
z
M 464.676797 182.315625 
L 466.609922 182.315625 
L 466.609922 175.640625 
L 464.506172 176.0625 
L 464.506172 174.984375 
L 466.598672 174.5625 
L 467.781797 174.5625 
L 467.781797 182.315625 
L 469.714922 182.315625 
L 469.714922 183.31125 
L 464.676797 183.31125 
L 464.676797 182.315625 
z
M 472.140937 183.129375 
L 472.140937 182.05125 
Q 472.587187 182.263125 473.042812 182.37375 
Q 473.500312 182.484375 473.940937 182.484375 
Q 475.112812 182.484375 475.729687 181.696875 
Q 476.348437 180.909375 476.436562 179.3025 
Q 476.097187 179.806875 475.574062 180.076875 
Q 475.052812 180.346875 474.420937 180.346875 
Q 473.108437 180.346875 472.343437 179.55375 
Q 471.578437 178.75875 471.578437 177.380625 
Q 471.578437 176.034375 472.375312 175.220625 
Q 473.172187 174.405 474.495937 174.405 
Q 476.014687 174.405 476.813437 175.569375 
Q 477.614062 176.731875 477.614062 178.94625 
Q 477.614062 181.014375 476.631562 182.248125 
Q 475.650937 183.481875 473.993437 183.481875 
Q 473.547187 183.481875 473.089687 183.39375 
Q 472.634062 183.305625 472.140937 183.129375 
z
M 474.495937 179.420625 
Q 475.292812 179.420625 475.757812 178.876875 
Q 476.224687 178.33125 476.224687 177.380625 
Q 476.224687 176.4375 475.757812 175.89 
Q 475.292812 175.3425 474.495937 175.3425 
Q 473.699062 175.3425 473.234062 175.89 
Q 472.769062 176.4375 472.769062 177.380625 
Q 472.769062 178.33125 473.234062 178.876875 
Q 473.699062 179.420625 474.495937 179.420625 
z
" clip-path="url(#p1d82b010e2)" style="fill: #ffffff; stroke: #000000; stroke-width: 2"/>
    <path d="M 386.5875 174.5625 
L 387.778125 174.5625 
L 387.778125 179.878125 
Q 387.778125 181.284375 388.28625 181.903125 
Q 388.79625 182.52 389.94 182.52 
Q 391.07625 182.52 391.58625 181.903125 
Q 392.09625 181.284375 392.09625 179.878125 
L 392.09625 174.5625 
L 393.285 174.5625 
L 393.285 180.024375 
Q 393.285 181.734375 392.4375 182.608125 
Q 391.591875 183.481875 389.94 183.481875 
Q 388.280625 183.481875 387.433125 182.608125 
Q 386.5875 181.734375 386.5875 180.024375 
L 386.5875 174.5625 
z
M 400.915078 179.349375 
L 400.915078 183.31125 
L 399.836953 183.31125 
L 399.836953 179.385 
Q 399.836953 178.453125 399.473203 177.991875 
Q 399.109453 177.52875 398.383828 177.52875 
Q 397.510078 177.52875 397.005703 178.085625 
Q 396.501328 178.640625 396.501328 179.6025 
L 396.501328 183.31125 
L 395.417578 183.31125 
L 395.417578 176.74875 
L 396.501328 176.74875 
L 396.501328 177.76875 
Q 396.889453 177.17625 397.412578 176.88375 
Q 397.937578 176.59125 398.623828 176.59125 
Q 399.754453 176.59125 400.333828 177.290625 
Q 400.915078 177.99 400.915078 179.349375 
z
M 403.064297 176.74875 
L 404.142422 176.74875 
L 404.142422 183.31125 
L 403.064297 183.31125 
L 403.064297 176.74875 
z
M 403.064297 174.193125 
L 404.142422 174.193125 
L 404.142422 175.56 
L 403.064297 175.56 
L 403.064297 174.193125 
z
M 407.628281 175.535625 
L 407.628281 178.8225 
L 409.117031 178.8225 
Q 409.943906 178.8225 410.393906 178.395 
Q 410.845781 177.9675 410.845781 177.17625 
Q 410.845781 176.390625 410.393906 175.963125 
Q 409.943906 175.535625 409.117031 175.535625 
L 407.628281 175.535625 
z
M 406.445156 174.5625 
L 409.117031 174.5625 
Q 410.588906 174.5625 411.340781 175.228125 
Q 412.094531 175.89375 412.094531 177.17625 
Q 412.094531 178.471875 411.340781 179.13375 
Q 410.588906 179.795625 409.117031 179.795625 
L 407.628281 179.795625 
L 407.628281 183.31125 
L 406.445156 183.31125 
L 406.445156 174.5625 
z
M 417.227109 177.755625 
Q 417.045234 177.650625 416.831484 177.601875 
Q 416.617734 177.55125 416.360859 177.55125 
Q 415.445859 177.55125 414.956484 178.145625 
Q 414.467109 178.74 414.467109 179.85375 
L 414.467109 183.31125 
L 413.383359 183.31125 
L 413.383359 176.74875 
L 414.467109 176.74875 
L 414.467109 177.76875 
Q 414.808359 177.170625 415.352109 176.881875 
Q 415.897734 176.59125 416.677734 176.59125 
Q 416.788359 176.59125 416.923359 176.60625 
Q 417.058359 176.619375 417.221484 176.649375 
L 417.227109 177.755625 
z
M 420.630703 177.504375 
Q 419.764453 177.504375 419.260078 178.18125 
Q 418.755703 178.858125 418.755703 180.035625 
Q 418.755703 181.213125 419.256328 181.89 
Q 419.758828 182.566875 420.630703 182.566875 
Q 421.493203 182.566875 421.995703 181.888125 
Q 422.500078 181.2075 422.500078 180.035625 
Q 422.500078 178.869375 421.995703 178.186875 
Q 421.493203 177.504375 420.630703 177.504375 
z
M 420.630703 176.59125 
Q 422.036953 176.59125 422.839453 177.50625 
Q 423.643828 178.419375 423.643828 180.035625 
Q 423.643828 181.64625 422.839453 182.565 
Q 422.036953 183.481875 420.630703 183.481875 
Q 419.218828 183.481875 418.418203 182.565 
Q 417.619453 181.64625 417.619453 180.035625 
Q 417.619453 178.419375 418.418203 177.50625 
Q 419.218828 176.59125 420.630703 176.59125 
z
M 426.496875 174.885 
L 426.496875 176.74875 
L 428.716875 176.74875 
L 428.716875 177.586875 
L 426.496875 177.586875 
L 426.496875 181.149375 
Q 426.496875 181.951875 426.71625 182.180625 
Q 426.935625 182.409375 427.610625 182.409375 
L 428.716875 182.409375 
L 428.716875 183.31125 
L 427.610625 183.31125 
Q 426.361875 183.31125 425.8875 182.84625 
Q 425.413125 182.379375 425.413125 181.149375 
L 425.413125 177.586875 
L 424.621875 177.586875 
L 424.621875 176.74875 
L 425.413125 176.74875 
L 425.413125 174.885 
L 426.496875 174.885 
z
M 430.410703 181.8225 
L 431.646328 181.8225 
L 431.646328 183.31125 
L 430.410703 183.31125 
L 430.410703 181.8225 
z
M 430.410703 177.106875 
L 431.646328 177.106875 
L 431.646328 178.59375 
L 430.410703 178.59375 
L 430.410703 177.106875 
z
M 435.408047 175.535625 
L 435.408047 178.8225 
L 436.896797 178.8225 
Q 437.723672 178.8225 438.173672 178.395 
Q 438.625547 177.9675 438.625547 177.17625 
Q 438.625547 176.390625 438.173672 175.963125 
Q 437.723672 175.535625 436.896797 175.535625 
L 435.408047 175.535625 
z
M 434.224922 174.5625 
L 436.896797 174.5625 
Q 438.368672 174.5625 439.120547 175.228125 
Q 439.874297 175.89375 439.874297 177.17625 
Q 439.874297 178.471875 439.120547 179.13375 
Q 438.368672 179.795625 436.896797 179.795625 
L 435.408047 179.795625 
L 435.408047 183.31125 
L 434.224922 183.31125 
L 434.224922 174.5625 
z
M 444.0975 175.3425 
Q 443.184375 175.3425 442.723125 176.2425 
Q 442.26375 177.140625 442.26375 178.94625 
Q 442.26375 180.744375 442.723125 181.644375 
Q 443.184375 182.544375 444.0975 182.544375 
Q 445.018125 182.544375 445.4775 181.644375 
Q 445.93875 180.744375 445.93875 178.94625 
Q 445.93875 177.140625 445.4775 176.2425 
Q 445.018125 175.3425 444.0975 175.3425 
z
M 444.0975 174.405 
Q 445.569375 174.405 446.345625 175.569375 
Q 447.121875 176.731875 447.121875 178.94625 
Q 447.121875 181.155 446.345625 182.319375 
Q 445.569375 183.481875 444.0975 183.481875 
Q 442.6275 183.481875 441.85125 182.319375 
Q 441.075 181.155 441.075 178.94625 
Q 441.075 176.731875 441.85125 175.569375 
Q 442.6275 174.405 444.0975 174.405 
z
M 451.732266 175.3425 
Q 450.819141 175.3425 450.357891 176.2425 
Q 449.898516 177.140625 449.898516 178.94625 
Q 449.898516 180.744375 450.357891 181.644375 
Q 450.819141 182.544375 451.732266 182.544375 
Q 452.652891 182.544375 453.112266 181.644375 
Q 453.573516 180.744375 453.573516 178.94625 
Q 453.573516 177.140625 453.112266 176.2425 
Q 452.652891 175.3425 451.732266 175.3425 
z
M 451.732266 174.405 
Q 453.204141 174.405 453.980391 175.569375 
Q 454.756641 176.731875 454.756641 178.94625 
Q 454.756641 181.155 453.980391 182.319375 
Q 453.204141 183.481875 451.732266 183.481875 
Q 450.262266 183.481875 449.486016 182.319375 
Q 448.709766 181.155 448.709766 178.94625 
Q 448.709766 176.731875 449.486016 175.569375 
Q 450.262266 174.405 451.732266 174.405 
z
M 456.848906 174.5625 
L 461.495156 174.5625 
L 461.495156 175.56 
L 457.932656 175.56 
L 457.932656 177.703125 
Q 458.189531 177.615 458.446406 177.571875 
Q 458.705156 177.52875 458.963906 177.52875 
Q 460.428281 177.52875 461.283281 178.33125 
Q 462.140156 179.13375 462.140156 180.504375 
Q 462.140156 181.91625 461.260781 182.7 
Q 460.381406 183.481875 458.782031 183.481875 
Q 458.230781 183.481875 457.658906 183.388125 
Q 457.088906 183.294375 456.479531 183.106875 
L 456.479531 181.91625 
Q 457.006406 182.203125 457.568906 182.34375 
Q 458.131406 182.484375 458.757656 182.484375 
Q 459.772031 182.484375 460.362656 181.951875 
Q 460.955156 181.419375 460.955156 180.504375 
Q 460.955156 179.59125 460.362656 179.05875 
Q 459.772031 178.524375 458.757656 178.524375 
Q 458.283281 178.524375 457.810781 178.629375 
Q 457.340156 178.734375 456.848906 178.9575 
L 456.848906 174.5625 
z
M 464.676797 182.315625 
L 466.609922 182.315625 
L 466.609922 175.640625 
L 464.506172 176.0625 
L 464.506172 174.984375 
L 466.598672 174.5625 
L 467.781797 174.5625 
L 467.781797 182.315625 
L 469.714922 182.315625 
L 469.714922 183.31125 
L 464.676797 183.31125 
L 464.676797 182.315625 
z
M 472.140937 183.129375 
L 472.140937 182.05125 
Q 472.587187 182.263125 473.042812 182.37375 
Q 473.500312 182.484375 473.940937 182.484375 
Q 475.112812 182.484375 475.729687 181.696875 
Q 476.348437 180.909375 476.436562 179.3025 
Q 476.097187 179.806875 475.574062 180.076875 
Q 475.052812 180.346875 474.420937 180.346875 
Q 473.108437 180.346875 472.343437 179.55375 
Q 471.578437 178.75875 471.578437 177.380625 
Q 471.578437 176.034375 472.375312 175.220625 
Q 473.172187 174.405 474.495937 174.405 
Q 476.014687 174.405 476.813437 175.569375 
Q 477.614062 176.731875 477.614062 178.94625 
Q 477.614062 181.014375 476.631562 182.248125 
Q 475.650937 183.481875 473.993437 183.481875 
Q 473.547187 183.481875 473.089687 183.39375 
Q 472.634062 183.305625 472.140937 183.129375 
z
M 474.495937 179.420625 
Q 475.292812 179.420625 475.757812 178.876875 
Q 476.224687 178.33125 476.224687 177.380625 
Q 476.224687 176.4375 475.757812 175.89 
Q 475.292812 175.3425 474.495937 175.3425 
Q 473.699062 175.3425 473.234062 175.89 
Q 472.769062 176.4375 472.769062 177.380625 
Q 472.769062 178.33125 473.234062 178.876875 
Q 473.699062 179.420625 474.495937 179.420625 
z
" clip-path="url(#p1d82b010e2)" style="fill: #ffffff"/>
    <path d="M 413.331562 188.973 
L 413.331562 192.259875 
L 414.820312 192.259875 
Q 415.647187 192.259875 416.097187 191.832375 
Q 416.549062 191.404875 416.549062 190.613625 
Q 416.549062 189.828 416.097187 189.4005 
Q 415.647187 188.973 414.820312 188.973 
L 413.331562 188.973 
z
M 412.148437 187.999875 
L 414.820312 187.999875 
Q 416.292187 187.999875 417.044062 188.6655 
Q 417.797812 189.331125 417.797812 190.613625 
Q 417.797812 191.90925 417.044062 192.571125 
Q 416.292187 193.233 414.820312 193.233 
L 413.331562 193.233 
L 413.331562 196.748625 
L 412.148437 196.748625 
L 412.148437 187.999875 
z
M 422.930391 191.193 
Q 422.748516 191.088 422.534766 191.03925 
Q 422.321016 190.988625 422.064141 190.988625 
Q 421.149141 190.988625 420.659766 191.583 
Q 420.170391 192.177375 420.170391 193.291125 
L 420.170391 196.748625 
L 419.086641 196.748625 
L 419.086641 190.186125 
L 420.170391 190.186125 
L 420.170391 191.206125 
Q 420.511641 190.608 421.055391 190.31925 
Q 421.601016 190.028625 422.381016 190.028625 
Q 422.491641 190.028625 422.626641 190.043625 
Q 422.761641 190.05675 422.924766 190.08675 
L 422.930391 191.193 
z
M 426.333984 190.94175 
Q 425.467734 190.94175 424.963359 191.618625 
Q 424.458984 192.2955 424.458984 193.473 
Q 424.458984 194.6505 424.959609 195.327375 
Q 425.462109 196.00425 426.333984 196.00425 
Q 427.196484 196.00425 427.698984 195.3255 
Q 428.203359 194.644875 428.203359 193.473 
Q 428.203359 192.30675 427.698984 191.62425 
Q 427.196484 190.94175 426.333984 190.94175 
z
M 426.333984 190.028625 
Q 427.740234 190.028625 428.542734 190.943625 
Q 429.347109 191.85675 429.347109 193.473 
Q 429.347109 195.083625 428.542734 196.002375 
Q 427.740234 196.91925 426.333984 196.91925 
Q 424.922109 196.91925 424.121484 196.002375 
Q 423.322734 195.083625 423.322734 193.473 
Q 423.322734 191.85675 424.121484 190.943625 
Q 424.922109 190.028625 426.333984 190.028625 
z
M 432.200156 188.322375 
L 432.200156 190.186125 
L 434.420156 190.186125 
L 434.420156 191.02425 
L 432.200156 191.02425 
L 432.200156 194.58675 
Q 432.200156 195.38925 432.419531 195.618 
Q 432.638906 195.84675 433.313906 195.84675 
L 434.420156 195.84675 
L 434.420156 196.748625 
L 433.313906 196.748625 
Q 432.065156 196.748625 431.590781 196.283625 
Q 431.116406 195.81675 431.116406 194.58675 
L 431.116406 191.02425 
L 430.325156 191.02425 
L 430.325156 190.186125 
L 431.116406 190.186125 
L 431.116406 188.322375 
L 432.200156 188.322375 
z
M 441.452109 193.197375 
L 441.452109 193.72425 
L 436.494609 193.72425 
Q 436.565859 194.838 437.165859 195.421125 
Q 437.765859 196.00425 438.838359 196.00425 
Q 439.458984 196.00425 440.042109 195.852375 
Q 440.625234 195.7005 441.200859 195.394875 
L 441.200859 196.414875 
Q 440.619609 196.6605 440.010234 196.789875 
Q 439.400859 196.91925 438.774609 196.91925 
Q 437.203359 196.91925 436.286484 196.006125 
Q 435.369609 195.091125 435.369609 193.531125 
Q 435.369609 191.9205 436.239609 190.9755 
Q 437.109609 190.028625 438.587109 190.028625 
Q 439.910859 190.028625 440.681484 190.88175 
Q 441.452109 191.733 441.452109 193.197375 
z
M 440.373984 192.8805 
Q 440.362734 191.997375 439.878984 191.4705 
Q 439.395234 190.94175 438.598359 190.94175 
Q 437.696484 190.94175 437.154609 191.45175 
Q 436.612734 191.96175 436.530234 192.888 
L 440.373984 192.8805 
z
M 443.221172 190.186125 
L 444.299297 190.186125 
L 444.299297 196.748625 
L 443.221172 196.748625 
L 443.221172 190.186125 
z
M 443.221172 187.6305 
L 444.299297 187.6305 
L 444.299297 188.997375 
L 443.221172 188.997375 
L 443.221172 187.6305 
z
M 452.011406 192.78675 
L 452.011406 196.748625 
L 450.933281 196.748625 
L 450.933281 192.822375 
Q 450.933281 191.8905 450.569531 191.42925 
Q 450.205781 190.966125 449.480156 190.966125 
Q 448.606406 190.966125 448.102031 191.523 
Q 447.597656 192.078 447.597656 193.039875 
L 447.597656 196.748625 
L 446.513906 196.748625 
L 446.513906 190.186125 
L 447.597656 190.186125 
L 447.597656 191.206125 
Q 447.985781 190.613625 448.508906 190.321125 
Q 449.033906 190.028625 449.720156 190.028625 
Q 450.850781 190.028625 451.430156 190.728 
Q 452.011406 191.427375 452.011406 192.78675 
z
" clip-path="url(#p1d82b010e2)" style="fill: #ffffff; stroke: #000000; stroke-width: 2"/>
    <path d="M 413.331562 188.973 
L 413.331562 192.259875 
L 414.820312 192.259875 
Q 415.647187 192.259875 416.097187 191.832375 
Q 416.549062 191.404875 416.549062 190.613625 
Q 416.549062 189.828 416.097187 189.4005 
Q 415.647187 188.973 414.820312 188.973 
L 413.331562 188.973 
z
M 412.148437 187.999875 
L 414.820312 187.999875 
Q 416.292187 187.999875 417.044062 188.6655 
Q 417.797812 189.331125 417.797812 190.613625 
Q 417.797812 191.90925 417.044062 192.571125 
Q 416.292187 193.233 414.820312 193.233 
L 413.331562 193.233 
L 413.331562 196.748625 
L 412.148437 196.748625 
L 412.148437 187.999875 
z
M 422.930391 191.193 
Q 422.748516 191.088 422.534766 191.03925 
Q 422.321016 190.988625 422.064141 190.988625 
Q 421.149141 190.988625 420.659766 191.583 
Q 420.170391 192.177375 420.170391 193.291125 
L 420.170391 196.748625 
L 419.086641 196.748625 
L 419.086641 190.186125 
L 420.170391 190.186125 
L 420.170391 191.206125 
Q 420.511641 190.608 421.055391 190.31925 
Q 421.601016 190.028625 422.381016 190.028625 
Q 422.491641 190.028625 422.626641 190.043625 
Q 422.761641 190.05675 422.924766 190.08675 
L 422.930391 191.193 
z
M 426.333984 190.94175 
Q 425.467734 190.94175 424.963359 191.618625 
Q 424.458984 192.2955 424.458984 193.473 
Q 424.458984 194.6505 424.959609 195.327375 
Q 425.462109 196.00425 426.333984 196.00425 
Q 427.196484 196.00425 427.698984 195.3255 
Q 428.203359 194.644875 428.203359 193.473 
Q 428.203359 192.30675 427.698984 191.62425 
Q 427.196484 190.94175 426.333984 190.94175 
z
M 426.333984 190.028625 
Q 427.740234 190.028625 428.542734 190.943625 
Q 429.347109 191.85675 429.347109 193.473 
Q 429.347109 195.083625 428.542734 196.002375 
Q 427.740234 196.91925 426.333984 196.91925 
Q 424.922109 196.91925 424.121484 196.002375 
Q 423.322734 195.083625 423.322734 193.473 
Q 423.322734 191.85675 424.121484 190.943625 
Q 424.922109 190.028625 426.333984 190.028625 
z
M 432.200156 188.322375 
L 432.200156 190.186125 
L 434.420156 190.186125 
L 434.420156 191.02425 
L 432.200156 191.02425 
L 432.200156 194.58675 
Q 432.200156 195.38925 432.419531 195.618 
Q 432.638906 195.84675 433.313906 195.84675 
L 434.420156 195.84675 
L 434.420156 196.748625 
L 433.313906 196.748625 
Q 432.065156 196.748625 431.590781 196.283625 
Q 431.116406 195.81675 431.116406 194.58675 
L 431.116406 191.02425 
L 430.325156 191.02425 
L 430.325156 190.186125 
L 431.116406 190.186125 
L 431.116406 188.322375 
L 432.200156 188.322375 
z
M 441.452109 193.197375 
L 441.452109 193.72425 
L 436.494609 193.72425 
Q 436.565859 194.838 437.165859 195.421125 
Q 437.765859 196.00425 438.838359 196.00425 
Q 439.458984 196.00425 440.042109 195.852375 
Q 440.625234 195.7005 441.200859 195.394875 
L 441.200859 196.414875 
Q 440.619609 196.6605 440.010234 196.789875 
Q 439.400859 196.91925 438.774609 196.91925 
Q 437.203359 196.91925 436.286484 196.006125 
Q 435.369609 195.091125 435.369609 193.531125 
Q 435.369609 191.9205 436.239609 190.9755 
Q 437.109609 190.028625 438.587109 190.028625 
Q 439.910859 190.028625 440.681484 190.88175 
Q 441.452109 191.733 441.452109 193.197375 
z
M 440.373984 192.8805 
Q 440.362734 191.997375 439.878984 191.4705 
Q 439.395234 190.94175 438.598359 190.94175 
Q 437.696484 190.94175 437.154609 191.45175 
Q 436.612734 191.96175 436.530234 192.888 
L 440.373984 192.8805 
z
M 443.221172 190.186125 
L 444.299297 190.186125 
L 444.299297 196.748625 
L 443.221172 196.748625 
L 443.221172 190.186125 
z
M 443.221172 187.6305 
L 444.299297 187.6305 
L 444.299297 188.997375 
L 443.221172 188.997375 
L 443.221172 187.6305 
z
M 452.011406 192.78675 
L 452.011406 196.748625 
L 450.933281 196.748625 
L 450.933281 192.822375 
Q 450.933281 191.8905 450.569531 191.42925 
Q 450.205781 190.966125 449.480156 190.966125 
Q 448.606406 190.966125 448.102031 191.523 
Q 447.597656 192.078 447.597656 193.039875 
L 447.597656 196.748625 
L 446.513906 196.748625 
L 446.513906 190.186125 
L 447.597656 190.186125 
L 447.597656 191.206125 
Q 447.985781 190.613625 448.508906 190.321125 
Q 449.033906 190.028625 449.720156 190.028625 
Q 450.850781 190.028625 451.430156 190.728 
Q 452.011406 191.427375 452.011406 192.78675 
z
" clip-path="url(#p1d82b010e2)" style="fill: #ffffff"/>
   </g>
   <g id="text_4">
    <g clip-path="url(#p1d82b010e2)">
     <!-- imatinib -->
     <g transform="translate(50.489582 169.873875)scale(0.12 -0.12)">
      <defs>
       <path id="DejaVuSans-6d" d="M 3328 2828 
Q 3544 3216 3844 3400 
Q 4144 3584 4550 3584 
Q 5097 3584 5394 3201 
Q 5691 2819 5691 2113 
L 5691 0 
L 5113 0 
L 5113 2094 
Q 5113 2597 4934 2840 
Q 4756 3084 4391 3084 
Q 3944 3084 3684 2787 
Q 3425 2491 3425 1978 
L 3425 0 
L 2847 0 
L 2847 2094 
Q 2847 2600 2669 2842 
Q 2491 3084 2119 3084 
Q 1678 3084 1418 2786 
Q 1159 2488 1159 1978 
L 1159 0 
L 581 0 
L 581 3500 
L 1159 3500 
L 1159 2956 
Q 1356 3278 1631 3431 
Q 1906 3584 2284 3584 
Q 2666 3584 2933 3390 
Q 3200 3197 3328 2828 
z
" transform="scale(0.015625)"/>
       <path id="DejaVuSans-6e" d="M 3513 2113 
L 3513 0 
L 2938 0 
L 2938 2094 
Q 2938 2591 2744 2837 
Q 2550 3084 2163 3084 
Q 1697 3084 1428 2787 
Q 1159 2491 1159 1978 
L 1159 0 
L 581 0 
L 581 3500 
L 1159 3500 
L 1159 2956 
Q 1366 3272 1645 3428 
Q 1925 3584 2291 3584 
Q 2894 3584 3203 3211 
Q 3513 2838 3513 2113 
z
" transform="scale(0.015625)"/>
       <path id="DejaVuSans-62" d="M 3116 1747 
Q 3116 2381 2855 2742 
Q 2594 3103 2138 3103 
Q 1681 3103 1420 2742 
Q 1159 2381 1159 1747 
Q 1159 1113 1420 752 
Q 1681 391 2138 391 
Q 2594 391 2855 752 
Q 3116 1113 3116 1747 
z
M 1159 2969 
Q 1341 3281 1617 3432 
Q 1894 3584 2278 3584 
Q 2916 3584 3314 3078 
Q 3713 2572 3713 1747 
Q 3713 922 3314 415 
Q 2916 -91 2278 -91 
Q 1894 -91 1617 61 
Q 1341 213 1159 525 
L 1159 0 
L 581 0 
L 581 4863 
L 1159 4863 
L 1159 2969 
z
" transform="scale(0.015625)"/>
      </defs>
      <use xlink:href="#DejaVuSans-69"/>
      <use xlink:href="#DejaVuSans-6d" x="27.783203"/>
      <use xlink:href="#DejaVuSans-61" x="125.195312"/>
      <use xlink:href="#DejaVuSans-74" x="186.474609"/>
      <use xlink:href="#DejaVuSans-69" x="225.683594"/>
      <use xlink:href="#DejaVuSans-6e" x="253.466797"/>
      <use xlink:href="#DejaVuSans-69" x="316.845703"/>
      <use xlink:href="#DejaVuSans-62" x="344.628906"/>
     </g>
    </g>
    <g clip-path="url(#p1d82b010e2)">
     <!-- MESH:D000068877 -->
     <g transform="translate(16.687082 183.31125)scale(0.12 -0.12)">
      <defs>
       <path id="DejaVuSans-4d" d="M 628 4666 
L 1569 4666 
L 2759 1491 
L 3956 4666 
L 4897 4666 
L 4897 0 
L 4281 0 
L 4281 4097 
L 3078 897 
L 2444 897 
L 1241 4097 
L 1241 0 
L 628 0 
L 628 4666 
z
" transform="scale(0.015625)"/>
       <path id="DejaVuSans-45" d="M 628 4666 
L 3578 4666 
L 3578 4134 
L 1259 4134 
L 1259 2753 
L 3481 2753 
L 3481 2222 
L 1259 2222 
L 1259 531 
L 3634 531 
L 3634 0 
L 628 0 
L 628 4666 
z
" transform="scale(0.015625)"/>
       <path id="DejaVuSans-53" d="M 3425 4513 
L 3425 3897 
Q 3066 4069 2747 4153 
Q 2428 4238 2131 4238 
Q 1616 4238 1336 4038 
Q 1056 3838 1056 3469 
Q 1056 3159 1242 3001 
Q 1428 2844 1947 2747 
L 2328 2669 
Q 3034 2534 3370 2195 
Q 3706 1856 3706 1288 
Q 3706 609 3251 259 
Q 2797 -91 1919 -91 
Q 1588 -91 1214 -16 
Q 841 59 441 206 
L 441 856 
Q 825 641 1194 531 
Q 1563 422 1919 422 
Q 2459 422 2753 634 
Q 3047 847 3047 1241 
Q 3047 1584 2836 1778 
Q 2625 1972 2144 2069 
L 1759 2144 
Q 1053 2284 737 2584 
Q 422 2884 422 3419 
Q 422 4038 858 4394 
Q 1294 4750 2059 4750 
Q 2388 4750 2728 4690 
Q 3069 4631 3425 4513 
z
" transform="scale(0.015625)"/>
       <path id="DejaVuSans-48" d="M 628 4666 
L 1259 4666 
L 1259 2753 
L 3553 2753 
L 3553 4666 
L 4184 4666 
L 4184 0 
L 3553 0 
L 3553 2222 
L 1259 2222 
L 1259 0 
L 628 0 
L 628 4666 
z
" transform="scale(0.015625)"/>
       <path id="DejaVuSans-3a" d="M 750 794 
L 1409 794 
L 1409 0 
L 750 0 
L 750 794 
z
M 750 3309 
L 1409 3309 
L 1409 2516 
L 750 2516 
L 750 3309 
z
" transform="scale(0.015625)"/>
       <path id="DejaVuSans-44" d="M 1259 4147 
L 1259 519 
L 2022 519 
Q 2988 519 3436 956 
Q 3884 1394 3884 2338 
Q 3884 3275 3436 3711 
Q 2988 4147 2022 4147 
L 1259 4147 
z
M 628 4666 
L 1925 4666 
Q 3281 4666 3915 4102 
Q 4550 3538 4550 2338 
Q 4550 1131 3912 565 
Q 3275 0 1925 0 
L 628 0 
L 628 4666 
z
" transform="scale(0.015625)"/>
       <path id="DejaVuSans-30" d="M 2034 4250 
Q 1547 4250 1301 3770 
Q 1056 3291 1056 2328 
Q 1056 1369 1301 889 
Q 1547 409 2034 409 
Q 2525 409 2770 889 
Q 3016 1369 3016 2328 
Q 3016 3291 2770 3770 
Q 2525 4250 2034 4250 
z
M 2034 4750 
Q 2819 4750 3233 4129 
Q 3647 3509 3647 2328 
Q 3647 1150 3233 529 
Q 2819 -91 2034 -91 
Q 1250 -91 836 529 
Q 422 1150 422 2328 
Q 422 3509 836 4129 
Q 1250 4750 2034 4750 
z
" transform="scale(0.015625)"/>
       <path id="DejaVuSans-36" d="M 2113 2584 
Q 1688 2584 1439 2293 
Q 1191 2003 1191 1497 
Q 1191 994 1439 701 
Q 1688 409 2113 409 
Q 2538 409 2786 701 
Q 3034 994 3034 1497 
Q 3034 2003 2786 2293 
Q 2538 2584 2113 2584 
z
M 3366 4563 
L 3366 3988 
Q 3128 4100 2886 4159 
Q 2644 4219 2406 4219 
Q 1781 4219 1451 3797 
Q 1122 3375 1075 2522 
Q 1259 2794 1537 2939 
Q 1816 3084 2150 3084 
Q 2853 3084 3261 2657 
Q 3669 2231 3669 1497 
Q 3669 778 3244 343 
Q 2819 -91 2113 -91 
Q 1303 -91 875 529 
Q 447 1150 447 2328 
Q 447 3434 972 4092 
Q 1497 4750 2381 4750 
Q 2619 4750 2861 4703 
Q 3103 4656 3366 4563 
z
" transform="scale(0.015625)"/>
       <path id="DejaVuSans-38" d="M 2034 2216 
Q 1584 2216 1326 1975 
Q 1069 1734 1069 1313 
Q 1069 891 1326 650 
Q 1584 409 2034 409 
Q 2484 409 2743 651 
Q 3003 894 3003 1313 
Q 3003 1734 2745 1975 
Q 2488 2216 2034 2216 
z
M 1403 2484 
Q 997 2584 770 2862 
Q 544 3141 544 3541 
Q 544 4100 942 4425 
Q 1341 4750 2034 4750 
Q 2731 4750 3128 4425 
Q 3525 4100 3525 3541 
Q 3525 3141 3298 2862 
Q 3072 2584 2669 2484 
Q 3125 2378 3379 2068 
Q 3634 1759 3634 1313 
Q 3634 634 3220 271 
Q 2806 -91 2034 -91 
Q 1263 -91 848 271 
Q 434 634 434 1313 
Q 434 1759 690 2068 
Q 947 2378 1403 2484 
z
M 1172 3481 
Q 1172 3119 1398 2916 
Q 1625 2713 2034 2713 
Q 2441 2713 2670 2916 
Q 2900 3119 2900 3481 
Q 2900 3844 2670 4047 
Q 2441 4250 2034 4250 
Q 1625 4250 1398 4047 
Q 1172 3844 1172 3481 
z
" transform="scale(0.015625)"/>
       <path id="DejaVuSans-37" d="M 525 4666 
L 3525 4666 
L 3525 4397 
L 1831 0 
L 1172 0 
L 2766 4134 
L 525 4134 
L 525 4666 
z
" transform="scale(0.015625)"/>
      </defs>
      <use xlink:href="#DejaVuSans-4d"/>
      <use xlink:href="#DejaVuSans-45" x="86.279297"/>
      <use xlink:href="#DejaVuSans-53" x="149.462891"/>
      <use xlink:href="#DejaVuSans-48" x="212.939453"/>
      <use xlink:href="#DejaVuSans-3a" x="288.134766"/>
      <use xlink:href="#DejaVuSans-44" x="321.826172"/>
      <use xlink:href="#DejaVuSans-30" x="398.828125"/>
      <use xlink:href="#DejaVuSans-30" x="462.451172"/>
      <use xlink:href="#DejaVuSans-30" x="526.074219"/>
      <use xlink:href="#DejaVuSans-30" x="589.697266"/>
      <use xlink:href="#DejaVuSans-36" x="653.320312"/>
      <use xlink:href="#DejaVuSans-38" x="716.943359"/>
      <use xlink:href="#DejaVuSans-38" x="780.566406"/>
      <use xlink:href="#DejaVuSans-37" x="844.189453"/>
      <use xlink:href="#DejaVuSans-37" x="907.8125"/>
     </g>
    </g>
    <g clip-path="url(#p1d82b010e2)">
     <!-- Drug -->
     <g transform="translate(60.277082 196.748625)scale(0.12 -0.12)">
      <defs>
       <path id="DejaVuSans-67" d="M 2906 1791 
Q 2906 2416 2648 2759 
Q 2391 3103 1925 3103 
Q 1463 3103 1205 2759 
Q 947 2416 947 1791 
Q 947 1169 1205 825 
Q 1463 481 1925 481 
Q 2391 481 2648 825 
Q 2906 1169 2906 1791 
z
M 3481 434 
Q 3481 -459 3084 -895 
Q 2688 -1331 1869 -1331 
Q 1566 -1331 1297 -1286 
Q 1028 -1241 775 -1147 
L 775 -588 
Q 1028 -725 1275 -790 
Q 1522 -856 1778 -856 
Q 2344 -856 2625 -561 
Q 2906 -266 2906 331 
L 2906 616 
Q 2728 306 2450 153 
Q 2172 0 1784 0 
Q 1141 0 747 490 
Q 353 981 353 1791 
Q 353 2603 747 3093 
Q 1141 3584 1784 3584 
Q 2172 3584 2450 3431 
Q 2728 3278 2906 2969 
L 2906 3500 
L 3481 3500 
L 3481 434 
z
" transform="scale(0.015625)"/>
      </defs>
      <use xlink:href="#DejaVuSans-44"/>
      <use xlink:href="#DejaVuSans-72" x="77.001953"/>
      <use xlink:href="#DejaVuSans-75" x="118.115234"/>
      <use xlink:href="#DejaVuSans-67" x="181.494141"/>
     </g>
    </g>
   </g>
   <g id="text_5">
    <g clip-path="url(#p1d82b010e2)">
     <!-- CML (ph+) -->
     <g transform="translate(757.086981 169.873875)scale(0.12 -0.12)">
      <defs>
       <path id="DejaVuSans-43" d="M 4122 4306 
L 4122 3641 
Q 3803 3938 3442 4084 
Q 3081 4231 2675 4231 
Q 1875 4231 1450 3742 
Q 1025 3253 1025 2328 
Q 1025 1406 1450 917 
Q 1875 428 2675 428 
Q 3081 428 3442 575 
Q 3803 722 4122 1019 
L 4122 359 
Q 3791 134 3420 21 
Q 3050 -91 2638 -91 
Q 1578 -91 968 557 
Q 359 1206 359 2328 
Q 359 3453 968 4101 
Q 1578 4750 2638 4750 
Q 3056 4750 3426 4639 
Q 3797 4528 4122 4306 
z
" transform="scale(0.015625)"/>
       <path id="DejaVuSans-4c" d="M 628 4666 
L 1259 4666 
L 1259 531 
L 3531 531 
L 3531 0 
L 628 0 
L 628 4666 
z
" transform="scale(0.015625)"/>
       <path id="DejaVuSans-28" d="M 1984 4856 
Q 1566 4138 1362 3434 
Q 1159 2731 1159 2009 
Q 1159 1288 1364 580 
Q 1569 -128 1984 -844 
L 1484 -844 
Q 1016 -109 783 600 
Q 550 1309 550 2009 
Q 550 2706 781 3412 
Q 1013 4119 1484 4856 
L 1984 4856 
z
" transform="scale(0.015625)"/>
       <path id="DejaVuSans-70" d="M 1159 525 
L 1159 -1331 
L 581 -1331 
L 581 3500 
L 1159 3500 
L 1159 2969 
Q 1341 3281 1617 3432 
Q 1894 3584 2278 3584 
Q 2916 3584 3314 3078 
Q 3713 2572 3713 1747 
Q 3713 922 3314 415 
Q 2916 -91 2278 -91 
Q 1894 -91 1617 61 
Q 1341 213 1159 525 
z
M 3116 1747 
Q 3116 2381 2855 2742 
Q 2594 3103 2138 3103 
Q 1681 3103 1420 2742 
Q 1159 2381 1159 1747 
Q 1159 1113 1420 752 
Q 1681 391 2138 391 
Q 2594 391 2855 752 
Q 3116 1113 3116 1747 
z
" transform="scale(0.015625)"/>
       <path id="DejaVuSans-68" d="M 3513 2113 
L 3513 0 
L 2938 0 
L 2938 2094 
Q 2938 2591 2744 2837 
Q 2550 3084 2163 3084 
Q 1697 3084 1428 2787 
Q 1159 2491 1159 1978 
L 1159 0 
L 581 0 
L 581 4863 
L 1159 4863 
L 1159 2956 
Q 1366 3272 1645 3428 
Q 1925 3584 2291 3584 
Q 2894 3584 3203 3211 
Q 3513 2838 3513 2113 
z
" transform="scale(0.015625)"/>
       <path id="DejaVuSans-2b" d="M 2944 4013 
L 2944 2272 
L 4684 2272 
L 4684 1741 
L 2944 1741 
L 2944 0 
L 2419 0 
L 2419 1741 
L 678 1741 
L 678 2272 
L 2419 2272 
L 2419 4013 
L 2944 4013 
z
" transform="scale(0.015625)"/>
       <path id="DejaVuSans-29" d="M 513 4856 
L 1013 4856 
Q 1481 4119 1714 3412 
Q 1947 2706 1947 2009 
Q 1947 1309 1714 600 
Q 1481 -109 1013 -844 
L 513 -844 
Q 928 -128 1133 580 
Q 1338 1288 1338 2009 
Q 1338 2731 1133 3434 
Q 928 4138 513 4856 
z
" transform="scale(0.015625)"/>
      </defs>
      <use xlink:href="#DejaVuSans-43"/>
      <use xlink:href="#DejaVuSans-4d" x="69.824219"/>
      <use xlink:href="#DejaVuSans-4c" x="156.103516"/>
      <use xlink:href="#DejaVuSans-20" x="211.816406"/>
      <use xlink:href="#DejaVuSans-28" x="243.603516"/>
      <use xlink:href="#DejaVuSans-70" x="282.617188"/>
      <use xlink:href="#DejaVuSans-68" x="346.09375"/>
      <use xlink:href="#DejaVuSans-2b" x="409.472656"/>
      <use xlink:href="#DejaVuSans-29" x="493.261719"/>
     </g>
    </g>
    <g clip-path="url(#p1d82b010e2)">
     <!-- MESH:D015464 -->
     <g transform="translate(742.189168 183.31125)scale(0.12 -0.12)">
      <defs>
       <path id="DejaVuSans-31" d="M 794 531 
L 1825 531 
L 1825 4091 
L 703 3866 
L 703 4441 
L 1819 4666 
L 2450 4666 
L 2450 531 
L 3481 531 
L 3481 0 
L 794 0 
L 794 531 
z
" transform="scale(0.015625)"/>
       <path id="DejaVuSans-35" d="M 691 4666 
L 3169 4666 
L 3169 4134 
L 1269 4134 
L 1269 2991 
Q 1406 3038 1543 3061 
Q 1681 3084 1819 3084 
Q 2600 3084 3056 2656 
Q 3513 2228 3513 1497 
Q 3513 744 3044 326 
Q 2575 -91 1722 -91 
Q 1428 -91 1123 -41 
Q 819 9 494 109 
L 494 744 
Q 775 591 1075 516 
Q 1375 441 1709 441 
Q 2250 441 2565 725 
Q 2881 1009 2881 1497 
Q 2881 1984 2565 2268 
Q 2250 2553 1709 2553 
Q 1456 2553 1204 2497 
Q 953 2441 691 2322 
L 691 4666 
z
" transform="scale(0.015625)"/>
       <path id="DejaVuSans-34" d="M 2419 4116 
L 825 1625 
L 2419 1625 
L 2419 4116 
z
M 2253 4666 
L 3047 4666 
L 3047 1625 
L 3713 1625 
L 3713 1100 
L 3047 1100 
L 3047 0 
L 2419 0 
L 2419 1100 
L 313 1100 
L 313 1709 
L 2253 4666 
z
" transform="scale(0.015625)"/>
      </defs>
      <use xlink:href="#DejaVuSans-4d"/>
      <use xlink:href="#DejaVuSans-45" x="86.279297"/>
      <use xlink:href="#DejaVuSans-53" x="149.462891"/>
      <use xlink:href="#DejaVuSans-48" x="212.939453"/>
      <use xlink:href="#DejaVuSans-3a" x="288.134766"/>
      <use xlink:href="#DejaVuSans-44" x="321.826172"/>
      <use xlink:href="#DejaVuSans-30" x="398.828125"/>
      <use xlink:href="#DejaVuSans-31" x="462.451172"/>
      <use xlink:href="#DejaVuSans-35" x="526.074219"/>
      <use xlink:href="#DejaVuSans-34" x="589.697266"/>
      <use xlink:href="#DejaVuSans-36" x="653.320312"/>
      <use xlink:href="#DejaVuSans-34" x="716.943359"/>
     </g>
    </g>
    <g clip-path="url(#p1d82b010e2)">
     <!-- Disease -->
     <g transform="translate(765.426043 196.748625)scale(0.12 -0.12)">
      <use xlink:href="#DejaVuSans-44"/>
      <use xlink:href="#DejaVuSans-69" x="77.001953"/>
      <use xlink:href="#DejaVuSans-73" x="104.785156"/>
      <use xlink:href="#DejaVuSans-65" x="156.884766"/>
      <use xlink:href="#DejaVuSans-61" x="218.408203"/>
      <use xlink:href="#DejaVuSans-73" x="279.6875"/>
      <use xlink:href="#DejaVuSans-65" x="331.787109"/>
     </g>
    </g>
   </g>
  </g>
 </g>
 <defs>
  <clipPath id="p1d82b010e2">
   <rect x="0" y="0" width="864" height="360"/>
  </clipPath>
 </defs>
</svg>
