<?xml version="1.0" encoding="utf-8" standalone="no"?>
<!DOCTYPE svg PUBLIC "-//W3C//DTD SVG 1.1//EN"
  "http://www.w3.org/Graphics/SVG/1.1/DTD/svg11.dtd">
<svg xmlns:xlink="http://www.w3.org/1999/xlink" width="1036.8pt" height="360pt" viewBox="0 0 1036.8 360" xmlns="http://www.w3.org/2000/svg" version="1.1">
 <metadata>
  <rdf:RDF xmlns:dc="http://purl.org/dc/elements/1.1/" xmlns:cc="http://creativecommons.org/ns#" xmlns:rdf="http://www.w3.org/1999/02/22-rdf-syntax-ns#">
   <cc:Work>
    <dc:type rdf:resource="http://purl.org/dc/dcmitype/StillImage"/>
    <dc:date>2023-02-08T08:51:09.530956</dc:date>
    <dc:format>image/svg+xml</dc:format>
    <dc:creator>
     <cc:Agent>
      <dc:title>Matplotlib v3.5.1, https://matplotlib.org/</dc:title>
     </cc:Agent>
    </dc:creator>
   </cc:Work>
  </rdf:RDF>
 </metadata>
 <defs>
  <style type="text/css">*{stroke-linejoin: round; stroke-linecap: butt}</style>
 </defs>
 <g id="figure_1">
  <g id="patch_1">
   <path d="M 0 360 
L 1036.8 360 
L 1036.8 0 
L 0 0 
z
" style="fill: #ffffff"/>
  </g>
  <g id="axes_1">
   <g id="patch_2">
    <path d="M 142.412623 180 
Q 232.78063 180 319.794535 180 
" clip-path="url(#p921a126501)" style="fill: none; stroke: #2ca02c; stroke-width: 3; stroke-linecap: round"/>
    <path d="M 315.794535 178 
L 319.794535 180 
L 315.794535 182 
L 315.794535 178 
z
" clip-path="url(#p921a126501)" style="fill: #2ca02c; stroke: #2ca02c; stroke-width: 3; stroke-linecap: round"/>
   </g>
   <g id="patch_3">
    <path d="M 428.032457 180 
Q 518.400465 180 605.41437 180 
" clip-path="url(#p921a126501)" style="fill: none; stroke: #2ca02c; stroke-width: 3; stroke-linecap: round"/>
    <path d="M 601.41437 178 
L 605.41437 180 
L 601.41437 182 
L 601.41437 178 
z
" clip-path="url(#p921a126501)" style="fill: #2ca02c; stroke: #2ca02c; stroke-width: 3; stroke-linecap: round"/>
   </g>
   <g id="patch_4">
    <path d="M 713.652292 180 
Q 804.020299 180 891.034204 180 
" clip-path="url(#p921a126501)" style="fill: none; stroke: #2ca02c; stroke-width: 3; stroke-linecap: round"/>
    <path d="M 887.034204 178 
L 891.034204 180 
L 887.034204 182 
L 887.034204 178 
z
" clip-path="url(#p921a126501)" style="fill: #2ca02c; stroke: #2ca02c; stroke-width: 3; stroke-linecap: round"/>
   </g>
   <g id="text_1">
    <g id="patch_5">
     <path d="M 206.562978 193.437969 
L 258.997353 193.437969 
Q 261.997353 193.437969 261.997353 190.437969 
L 261.997353 169.562031 
Q 261.997353 166.562031 258.997353 166.562031 
L 206.562978 166.562031 
Q 203.562978 166.562031 203.562978 169.562031 
L 203.562978 190.437969 
Q 203.562978 193.437969 206.562978 193.437969 
z
" clip-path="url(#p921a126501)" style="fill: #ffffff; stroke: #ffffff; stroke-linejoin: miter"/>
    </g>
    <g clip-path="url(#p921a126501)">
     <!-- negatively -->
     <g transform="translate(206.562978 177.160469)scale(0.1 -0.1)">
      <defs>
       <path id="DejaVuSans-6e" d="M 3513 2113 
L 3513 0 
L 2938 0 
L 2938 2094 
Q 2938 2591 2744 2837 
Q 2550 3084 2163 3084 
Q 1697 3084 1428 2787 
Q 1159 2491 1159 1978 
L 1159 0 
L 581 0 
L 581 3500 
L 1159 3500 
L 1159 2956 
Q 1366 3272 1645 3428 
Q 1925 3584 2291 3584 
Q 2894 3584 3203 3211 
Q 3513 2838 3513 2113 
z
" transform="scale(0.015625)"/>
       <path id="DejaVuSans-65" d="M 3597 1894 
L 3597 1613 
L 953 1613 
Q 991 1019 1311 708 
Q 1631 397 2203 397 
Q 2534 397 2845 478 
Q 3156 559 3463 722 
L 3463 178 
Q 3153 47 2828 -22 
Q 2503 -91 2169 -91 
Q 1331 -91 842 396 
Q 353 884 353 1716 
Q 353 2575 817 3079 
Q 1281 3584 2069 3584 
Q 2775 3584 3186 3129 
Q 3597 2675 3597 1894 
z
M 3022 2063 
Q 3016 2534 2758 2815 
Q 2500 3097 2075 3097 
Q 1594 3097 1305 2825 
Q 1016 2553 972 2059 
L 3022 2063 
z
" transform="scale(0.015625)"/>
       <path id="DejaVuSans-67" d="M 2906 1791 
Q 2906 2416 2648 2759 
Q 2391 3103 1925 3103 
Q 1463 3103 1205 2759 
Q 947 2416 947 1791 
Q 947 1169 1205 825 
Q 1463 481 1925 481 
Q 2391 481 2648 825 
Q 2906 1169 2906 1791 
z
M 3481 434 
Q 3481 -459 3084 -895 
Q 2688 -1331 1869 -1331 
Q 1566 -1331 1297 -1286 
Q 1028 -1241 775 -1147 
L 775 -588 
Q 1028 -725 1275 -790 
Q 1522 -856 1778 -856 
Q 2344 -856 2625 -561 
Q 2906 -266 2906 331 
L 2906 616 
Q 2728 306 2450 153 
Q 2172 0 1784 0 
Q 1141 0 747 490 
Q 353 981 353 1791 
Q 353 2603 747 3093 
Q 1141 3584 1784 3584 
Q 2172 3584 2450 3431 
Q 2728 3278 2906 2969 
L 2906 3500 
L 3481 3500 
L 3481 434 
z
" transform="scale(0.015625)"/>
       <path id="DejaVuSans-61" d="M 2194 1759 
Q 1497 1759 1228 1600 
Q 959 1441 959 1056 
Q 959 750 1161 570 
Q 1363 391 1709 391 
Q 2188 391 2477 730 
Q 2766 1069 2766 1631 
L 2766 1759 
L 2194 1759 
z
M 3341 1997 
L 3341 0 
L 2766 0 
L 2766 531 
Q 2569 213 2275 61 
Q 1981 -91 1556 -91 
Q 1019 -91 701 211 
Q 384 513 384 1019 
Q 384 1609 779 1909 
Q 1175 2209 1959 2209 
L 2766 2209 
L 2766 2266 
Q 2766 2663 2505 2880 
Q 2244 3097 1772 3097 
Q 1472 3097 1187 3025 
Q 903 2953 641 2809 
L 641 3341 
Q 956 3463 1253 3523 
Q 1550 3584 1831 3584 
Q 2591 3584 2966 3190 
Q 3341 2797 3341 1997 
z
" transform="scale(0.015625)"/>
       <path id="DejaVuSans-74" d="M 1172 4494 
L 1172 3500 
L 2356 3500 
L 2356 3053 
L 1172 3053 
L 1172 1153 
Q 1172 725 1289 603 
Q 1406 481 1766 481 
L 2356 481 
L 2356 0 
L 1766 0 
Q 1100 0 847 248 
Q 594 497 594 1153 
L 594 3053 
L 172 3053 
L 172 3500 
L 594 3500 
L 594 4494 
L 1172 4494 
z
" transform="scale(0.015625)"/>
       <path id="DejaVuSans-69" d="M 603 3500 
L 1178 3500 
L 1178 0 
L 603 0 
L 603 3500 
z
M 603 4863 
L 1178 4863 
L 1178 4134 
L 603 4134 
L 603 4863 
z
" transform="scale(0.015625)"/>
       <path id="DejaVuSans-76" d="M 191 3500 
L 800 3500 
L 1894 563 
L 2988 3500 
L 3597 3500 
L 2284 0 
L 1503 0 
L 191 3500 
z
" transform="scale(0.015625)"/>
       <path id="DejaVuSans-6c" d="M 603 4863 
L 1178 4863 
L 1178 0 
L 603 0 
L 603 4863 
z
" transform="scale(0.015625)"/>
       <path id="DejaVuSans-79" d="M 2059 -325 
Q 1816 -950 1584 -1140 
Q 1353 -1331 966 -1331 
L 506 -1331 
L 506 -850 
L 844 -850 
Q 1081 -850 1212 -737 
Q 1344 -625 1503 -206 
L 1606 56 
L 191 3500 
L 800 3500 
L 1894 763 
L 2988 3500 
L 3597 3500 
L 2059 -325 
z
" transform="scale(0.015625)"/>
      </defs>
      <use xlink:href="#DejaVuSans-6e"/>
      <use xlink:href="#DejaVuSans-65" x="63.378906"/>
      <use xlink:href="#DejaVuSans-67" x="124.902344"/>
      <use xlink:href="#DejaVuSans-61" x="188.378906"/>
      <use xlink:href="#DejaVuSans-74" x="249.658203"/>
      <use xlink:href="#DejaVuSans-69" x="288.867188"/>
      <use xlink:href="#DejaVuSans-76" x="316.650391"/>
      <use xlink:href="#DejaVuSans-65" x="375.830078"/>
      <use xlink:href="#DejaVuSans-6c" x="437.353516"/>
      <use xlink:href="#DejaVuSans-79" x="465.136719"/>
     </g>
    </g>
    <g clip-path="url(#p921a126501)">
     <!-- regulates -->
     <g transform="translate(209.323134 188.358281)scale(0.1 -0.1)">
      <defs>
       <path id="DejaVuSans-72" d="M 2631 2963 
Q 2534 3019 2420 3045 
Q 2306 3072 2169 3072 
Q 1681 3072 1420 2755 
Q 1159 2438 1159 1844 
L 1159 0 
L 581 0 
L 581 3500 
L 1159 3500 
L 1159 2956 
Q 1341 3275 1631 3429 
Q 1922 3584 2338 3584 
Q 2397 3584 2469 3576 
Q 2541 3569 2628 3553 
L 2631 2963 
z
" transform="scale(0.015625)"/>
       <path id="DejaVuSans-75" d="M 544 1381 
L 544 3500 
L 1119 3500 
L 1119 1403 
Q 1119 906 1312 657 
Q 1506 409 1894 409 
Q 2359 409 2629 706 
Q 2900 1003 2900 1516 
L 2900 3500 
L 3475 3500 
L 3475 0 
L 2900 0 
L 2900 538 
Q 2691 219 2414 64 
Q 2138 -91 1772 -91 
Q 1169 -91 856 284 
Q 544 659 544 1381 
z
M 1991 3584 
L 1991 3584 
z
" transform="scale(0.015625)"/>
       <path id="DejaVuSans-73" d="M 2834 3397 
L 2834 2853 
Q 2591 2978 2328 3040 
Q 2066 3103 1784 3103 
Q 1356 3103 1142 2972 
Q 928 2841 928 2578 
Q 928 2378 1081 2264 
Q 1234 2150 1697 2047 
L 1894 2003 
Q 2506 1872 2764 1633 
Q 3022 1394 3022 966 
Q 3022 478 2636 193 
Q 2250 -91 1575 -91 
Q 1294 -91 989 -36 
Q 684 19 347 128 
L 347 722 
Q 666 556 975 473 
Q 1284 391 1588 391 
Q 1994 391 2212 530 
Q 2431 669 2431 922 
Q 2431 1156 2273 1281 
Q 2116 1406 1581 1522 
L 1381 1569 
Q 847 1681 609 1914 
Q 372 2147 372 2553 
Q 372 3047 722 3315 
Q 1072 3584 1716 3584 
Q 2034 3584 2315 3537 
Q 2597 3491 2834 3397 
z
" transform="scale(0.015625)"/>
      </defs>
      <use xlink:href="#DejaVuSans-72"/>
      <use xlink:href="#DejaVuSans-65" x="38.863281"/>
      <use xlink:href="#DejaVuSans-67" x="100.386719"/>
      <use xlink:href="#DejaVuSans-75" x="163.863281"/>
      <use xlink:href="#DejaVuSans-6c" x="227.242188"/>
      <use xlink:href="#DejaVuSans-61" x="255.025391"/>
      <use xlink:href="#DejaVuSans-74" x="316.304688"/>
      <use xlink:href="#DejaVuSans-65" x="355.513672"/>
      <use xlink:href="#DejaVuSans-73" x="417.037109"/>
     </g>
    </g>
   </g>
   <g id="text_2">
    <g id="patch_6">
     <path d="M 480.74375 193.437969 
L 556.05625 193.437969 
Q 559.05625 193.437969 559.05625 190.437969 
L 559.05625 169.562031 
Q 559.05625 166.562031 556.05625 166.562031 
L 480.74375 166.562031 
Q 477.74375 166.562031 477.74375 169.562031 
L 477.74375 190.437969 
Q 477.74375 193.437969 480.74375 193.437969 
z
" clip-path="url(#p921a126501)" style="fill: #ffffff; stroke: #ffffff; stroke-linejoin: miter"/>
    </g>
    <g clip-path="url(#p921a126501)">
     <!-- positively -->
     <g transform="translate(494.439062 177.160469)scale(0.1 -0.1)">
      <defs>
       <path id="DejaVuSans-70" d="M 1159 525 
L 1159 -1331 
L 581 -1331 
L 581 3500 
L 1159 3500 
L 1159 2969 
Q 1341 3281 1617 3432 
Q 1894 3584 2278 3584 
Q 2916 3584 3314 3078 
Q 3713 2572 3713 1747 
Q 3713 922 3314 415 
Q 2916 -91 2278 -91 
Q 1894 -91 1617 61 
Q 1341 213 1159 525 
z
M 3116 1747 
Q 3116 2381 2855 2742 
Q 2594 3103 2138 3103 
Q 1681 3103 1420 2742 
Q 1159 2381 1159 1747 
Q 1159 1113 1420 752 
Q 1681 391 2138 391 
Q 2594 391 2855 752 
Q 3116 1113 3116 1747 
z
" transform="scale(0.015625)"/>
       <path id="DejaVuSans-6f" d="M 1959 3097 
Q 1497 3097 1228 2736 
Q 959 2375 959 1747 
Q 959 1119 1226 758 
Q 1494 397 1959 397 
Q 2419 397 2687 759 
Q 2956 1122 2956 1747 
Q 2956 2369 2687 2733 
Q 2419 3097 1959 3097 
z
M 1959 3584 
Q 2709 3584 3137 3096 
Q 3566 2609 3566 1747 
Q 3566 888 3137 398 
Q 2709 -91 1959 -91 
Q 1206 -91 779 398 
Q 353 888 353 1747 
Q 353 2609 779 3096 
Q 1206 3584 1959 3584 
z
" transform="scale(0.015625)"/>
      </defs>
      <use xlink:href="#DejaVuSans-70"/>
      <use xlink:href="#DejaVuSans-6f" x="63.476562"/>
      <use xlink:href="#DejaVuSans-73" x="124.658203"/>
      <use xlink:href="#DejaVuSans-69" x="176.757812"/>
      <use xlink:href="#DejaVuSans-74" x="204.541016"/>
      <use xlink:href="#DejaVuSans-69" x="243.75"/>
      <use xlink:href="#DejaVuSans-76" x="271.533203"/>
      <use xlink:href="#DejaVuSans-65" x="330.712891"/>
      <use xlink:href="#DejaVuSans-6c" x="392.236328"/>
      <use xlink:href="#DejaVuSans-79" x="420.019531"/>
     </g>
    </g>
    <g clip-path="url(#p921a126501)">
     <!-- correlated with -->
     <g transform="translate(480.74375 188.358281)scale(0.1 -0.1)">
      <defs>
       <path id="DejaVuSans-63" d="M 3122 3366 
L 3122 2828 
Q 2878 2963 2633 3030 
Q 2388 3097 2138 3097 
Q 1578 3097 1268 2742 
Q 959 2388 959 1747 
Q 959 1106 1268 751 
Q 1578 397 2138 397 
Q 2388 397 2633 464 
Q 2878 531 3122 666 
L 3122 134 
Q 2881 22 2623 -34 
Q 2366 -91 2075 -91 
Q 1284 -91 818 406 
Q 353 903 353 1747 
Q 353 2603 823 3093 
Q 1294 3584 2113 3584 
Q 2378 3584 2631 3529 
Q 2884 3475 3122 3366 
z
" transform="scale(0.015625)"/>
       <path id="DejaVuSans-64" d="M 2906 2969 
L 2906 4863 
L 3481 4863 
L 3481 0 
L 2906 0 
L 2906 525 
Q 2725 213 2448 61 
Q 2172 -91 1784 -91 
Q 1150 -91 751 415 
Q 353 922 353 1747 
Q 353 2572 751 3078 
Q 1150 3584 1784 3584 
Q 2172 3584 2448 3432 
Q 2725 3281 2906 2969 
z
M 947 1747 
Q 947 1113 1208 752 
Q 1469 391 1925 391 
Q 2381 391 2643 752 
Q 2906 1113 2906 1747 
Q 2906 2381 2643 2742 
Q 2381 3103 1925 3103 
Q 1469 3103 1208 2742 
Q 947 2381 947 1747 
z
" transform="scale(0.015625)"/>
       <path id="DejaVuSans-20" transform="scale(0.015625)"/>
       <path id="DejaVuSans-77" d="M 269 3500 
L 844 3500 
L 1563 769 
L 2278 3500 
L 2956 3500 
L 3675 769 
L 4391 3500 
L 4966 3500 
L 4050 0 
L 3372 0 
L 2619 2869 
L 1863 0 
L 1184 0 
L 269 3500 
z
" transform="scale(0.015625)"/>
       <path id="DejaVuSans-68" d="M 3513 2113 
L 3513 0 
L 2938 0 
L 2938 2094 
Q 2938 2591 2744 2837 
Q 2550 3084 2163 3084 
Q 1697 3084 1428 2787 
Q 1159 2491 1159 1978 
L 1159 0 
L 581 0 
L 581 4863 
L 1159 4863 
L 1159 2956 
Q 1366 3272 1645 3428 
Q 1925 3584 2291 3584 
Q 2894 3584 3203 3211 
Q 3513 2838 3513 2113 
z
" transform="scale(0.015625)"/>
      </defs>
      <use xlink:href="#DejaVuSans-63"/>
      <use xlink:href="#DejaVuSans-6f" x="54.980469"/>
      <use xlink:href="#DejaVuSans-72" x="116.162109"/>
      <use xlink:href="#DejaVuSans-72" x="155.525391"/>
      <use xlink:href="#DejaVuSans-65" x="194.388672"/>
      <use xlink:href="#DejaVuSans-6c" x="255.912109"/>
      <use xlink:href="#DejaVuSans-61" x="283.695312"/>
      <use xlink:href="#DejaVuSans-74" x="344.974609"/>
      <use xlink:href="#DejaVuSans-65" x="384.183594"/>
      <use xlink:href="#DejaVuSans-64" x="445.707031"/>
      <use xlink:href="#DejaVuSans-20" x="509.183594"/>
      <use xlink:href="#DejaVuSans-77" x="540.970703"/>
      <use xlink:href="#DejaVuSans-69" x="622.757812"/>
      <use xlink:href="#DejaVuSans-74" x="650.541016"/>
      <use xlink:href="#DejaVuSans-68" x="689.75"/>
     </g>
    </g>
   </g>
   <g id="text_3">
    <g id="patch_7">
     <path d="M 769.044835 187.839062 
L 838.994835 187.839062 
Q 841.994835 187.839062 841.994835 184.839062 
L 841.994835 175.160937 
Q 841.994835 172.160937 838.994835 172.160937 
L 769.044835 172.160937 
Q 766.044835 172.160937 766.044835 175.160937 
L 766.044835 184.839062 
Q 766.044835 187.839062 769.044835 187.839062 
z
" clip-path="url(#p921a126501)" style="fill: #ffffff; stroke: #ffffff; stroke-linejoin: miter"/>
    </g>
    <g clip-path="url(#p921a126501)">
     <!-- contributes to -->
     <g transform="translate(769.044835 182.759375)scale(0.1 -0.1)">
      <defs>
       <path id="DejaVuSans-62" d="M 3116 1747 
Q 3116 2381 2855 2742 
Q 2594 3103 2138 3103 
Q 1681 3103 1420 2742 
Q 1159 2381 1159 1747 
Q 1159 1113 1420 752 
Q 1681 391 2138 391 
Q 2594 391 2855 752 
Q 3116 1113 3116 1747 
z
M 1159 2969 
Q 1341 3281 1617 3432 
Q 1894 3584 2278 3584 
Q 2916 3584 3314 3078 
Q 3713 2572 3713 1747 
Q 3713 922 3314 415 
Q 2916 -91 2278 -91 
Q 1894 -91 1617 61 
Q 1341 213 1159 525 
L 1159 0 
L 581 0 
L 581 4863 
L 1159 4863 
L 1159 2969 
z
" transform="scale(0.015625)"/>
      </defs>
      <use xlink:href="#DejaVuSans-63"/>
      <use xlink:href="#DejaVuSans-6f" x="54.980469"/>
      <use xlink:href="#DejaVuSans-6e" x="116.162109"/>
      <use xlink:href="#DejaVuSans-74" x="179.541016"/>
      <use xlink:href="#DejaVuSans-72" x="218.75"/>
      <use xlink:href="#DejaVuSans-69" x="259.863281"/>
      <use xlink:href="#DejaVuSans-62" x="287.646484"/>
      <use xlink:href="#DejaVuSans-75" x="351.123047"/>
      <use xlink:href="#DejaVuSans-74" x="414.501953"/>
      <use xlink:href="#DejaVuSans-65" x="453.710938"/>
      <use xlink:href="#DejaVuSans-73" x="515.234375"/>
      <use xlink:href="#DejaVuSans-20" x="567.333984"/>
      <use xlink:href="#DejaVuSans-74" x="599.121094"/>
      <use xlink:href="#DejaVuSans-6f" x="638.330078"/>
     </g>
    </g>
   </g>
   <g id="PathCollection_1">
    <defs>
     <path id="C0_0_69176e6bd4" d="M 0 52.440442 
C 13.907368 52.440442 27.246998 46.914987 37.080992 37.080992 
C 46.914987 27.246998 52.440442 13.907368 52.440442 -0 
C 52.440442 -13.907368 46.914987 -27.246998 37.080992 -37.080992 
C 27.246998 -46.914987 13.907368 -52.440442 0 -52.440442 
C -13.907368 -52.440442 -27.246998 -46.914987 -37.080992 -37.080992 
C -46.914987 -27.246998 -52.440442 -13.907368 -52.440442 0 
C -52.440442 13.907368 -46.914987 27.246998 -37.080992 37.080992 
C -27.246998 46.914987 -13.907368 52.440442 0 52.440442 
z
"/>
    </defs>
    <g clip-path="url(#p921a126501)">
     <use xlink:href="#C0_0_69176e6bd4" x="89.970248" y="180" style="fill: #01c472; stroke: #01c472"/>
    </g>
    <g clip-path="url(#p921a126501)">
     <use xlink:href="#C0_0_69176e6bd4" x="375.590083" y="180" style="fill: #e71761; stroke: #e71761"/>
    </g>
    <g clip-path="url(#p921a126501)">
     <use xlink:href="#C0_0_69176e6bd4" x="661.209917" y="180" style="fill: #01c472; stroke: #01c472"/>
    </g>
    <g clip-path="url(#p921a126501)">
     <use xlink:href="#C0_0_69176e6bd4" x="946.829752" y="180" style="fill: #70c6ca; stroke: #70c6ca"/>
    </g>
   </g>
   <g id="text_4">
    <path d="M 325.045708 154.406437 
L 326.810083 154.406437 
L 329.041333 160.359562 
L 331.285708 154.406437 
L 333.050083 154.406437 
L 333.050083 163.155187 
L 331.895083 163.155187 
L 331.895083 155.473312 
L 329.639458 161.473312 
L 328.450708 161.473312 
L 326.195083 155.473312 
L 326.195083 163.155187 
L 325.045708 163.155187 
L 325.045708 154.406437 
z
M 335.352348 156.592687 
L 336.430473 156.592687 
L 336.430473 163.155187 
L 335.352348 163.155187 
L 335.352348 156.592687 
z
M 335.352348 154.037062 
L 336.430473 154.037062 
L 336.430473 155.403937 
L 335.352348 155.403937 
L 335.352348 154.037062 
z
M 344.142583 159.193312 
L 344.142583 163.155187 
L 343.064458 163.155187 
L 343.064458 159.228937 
Q 343.064458 158.297062 342.700708 157.835812 
Q 342.336958 157.372687 341.611333 157.372687 
Q 340.737583 157.372687 340.233208 157.929562 
Q 339.728833 158.484562 339.728833 159.446437 
L 339.728833 163.155187 
L 338.645083 163.155187 
L 338.645083 156.592687 
L 339.728833 156.592687 
L 339.728833 157.612687 
Q 340.116958 157.020187 340.640083 156.727687 
Q 341.165083 156.435187 341.851333 156.435187 
Q 342.981958 156.435187 343.561333 157.134562 
Q 344.142583 157.833937 344.142583 159.193312 
z
M 351.905551 159.603937 
L 351.905551 160.130812 
L 346.948051 160.130812 
Q 347.019301 161.244562 347.619301 161.827687 
Q 348.219301 162.410812 349.291801 162.410812 
Q 349.912426 162.410812 350.495551 162.258937 
Q 351.078676 162.107062 351.654301 161.801437 
L 351.654301 162.821437 
Q 351.073051 163.067062 350.463676 163.196437 
Q 349.854301 163.325812 349.228051 163.325812 
Q 347.656801 163.325812 346.739926 162.412687 
Q 345.823051 161.497687 345.823051 159.937687 
Q 345.823051 158.327062 346.693051 157.382062 
Q 347.563051 156.435187 349.040551 156.435187 
Q 350.364301 156.435187 351.134926 157.288312 
Q 351.905551 158.139562 351.905551 159.603937 
z
M 350.827426 159.287062 
Q 350.816176 158.403937 350.332426 157.877062 
Q 349.848676 157.348312 349.051801 157.348312 
Q 348.149926 157.348312 347.608051 157.858312 
Q 347.066176 158.368312 346.983676 159.294562 
L 350.827426 159.287062 
z
M 357.477114 157.599562 
Q 357.295239 157.494562 357.081489 157.445812 
Q 356.867739 157.395187 356.610864 157.395187 
Q 355.695864 157.395187 355.206489 157.989562 
Q 354.717114 158.583937 354.717114 159.697687 
L 354.717114 163.155187 
L 353.633364 163.155187 
L 353.633364 156.592687 
L 354.717114 156.592687 
L 354.717114 157.612687 
Q 355.058364 157.014562 355.602114 156.725812 
Q 356.147739 156.435187 356.927739 156.435187 
Q 357.038364 156.435187 357.173364 156.450187 
Q 357.308364 156.463312 357.471489 156.493312 
L 357.477114 157.599562 
z
M 361.591333 159.857062 
Q 360.284458 159.857062 359.780083 160.155187 
Q 359.275708 160.453312 359.275708 161.175187 
Q 359.275708 161.748937 359.654458 162.086437 
Q 360.033208 162.422062 360.681958 162.422062 
Q 361.580083 162.422062 362.121958 161.786437 
Q 362.663833 161.150812 362.663833 160.097062 
L 362.663833 159.857062 
L 361.591333 159.857062 
z
M 363.741958 159.410812 
L 363.741958 163.155187 
L 362.663833 163.155187 
L 362.663833 162.159562 
Q 362.294458 162.755812 361.743208 163.040812 
Q 361.191958 163.325812 360.395083 163.325812 
Q 359.388208 163.325812 358.791958 162.759562 
Q 358.197583 162.193312 358.197583 161.244562 
Q 358.197583 160.138312 358.938208 159.575812 
Q 359.680708 159.013312 361.150708 159.013312 
L 362.663833 159.013312 
L 362.663833 158.906437 
Q 362.663833 158.162062 362.174458 157.755187 
Q 361.685083 157.348312 360.800083 157.348312 
Q 360.237583 157.348312 359.703208 157.483312 
Q 359.170708 157.618312 358.679458 157.888312 
L 358.679458 156.890812 
Q 359.270083 156.662062 359.826958 156.549562 
Q 360.383833 156.435187 360.910708 156.435187 
Q 362.335708 156.435187 363.038833 157.173937 
Q 363.741958 157.910812 363.741958 159.410812 
z
M 365.961723 154.037062 
L 367.039848 154.037062 
L 367.039848 163.155187 
L 365.961723 163.155187 
L 365.961723 154.037062 
z
M 371.838208 157.348312 
Q 370.971958 157.348312 370.467583 158.025187 
Q 369.963208 158.702062 369.963208 159.879562 
Q 369.963208 161.057062 370.463833 161.733937 
Q 370.966333 162.410812 371.838208 162.410812 
Q 372.700708 162.410812 373.203208 161.732062 
Q 373.707583 161.051437 373.707583 159.879562 
Q 373.707583 158.713312 373.203208 158.030812 
Q 372.700708 157.348312 371.838208 157.348312 
z
M 371.838208 156.435187 
Q 373.244458 156.435187 374.046958 157.350187 
Q 374.851333 158.263312 374.851333 159.879562 
Q 374.851333 161.490187 374.046958 162.408937 
Q 373.244458 163.325812 371.838208 163.325812 
Q 370.426333 163.325812 369.625708 162.408937 
Q 368.826958 161.490187 368.826958 159.879562 
Q 368.826958 158.263312 369.625708 157.350187 
Q 370.426333 156.435187 371.838208 156.435187 
z
M 381.36063 156.843937 
L 381.36063 157.852687 
Q 380.90313 157.599562 380.443755 157.473937 
Q 379.98438 157.348312 379.51563 157.348312 
Q 378.46563 157.348312 377.88438 158.013937 
Q 377.305005 158.677687 377.305005 159.879562 
Q 377.305005 161.081437 377.88438 161.747062 
Q 378.46563 162.410812 379.51563 162.410812 
Q 379.98438 162.410812 380.443755 162.285187 
Q 380.90313 162.159562 381.36063 161.906437 
L 381.36063 162.903937 
Q 380.908755 163.113937 380.425005 163.218937 
Q 379.94313 163.325812 379.397505 163.325812 
Q 377.91438 163.325812 377.04063 162.393937 
Q 376.168755 161.462062 376.168755 159.879562 
Q 376.168755 158.274562 377.050005 157.355812 
Q 377.93313 156.435187 379.468755 156.435187 
Q 379.96563 156.435187 380.440005 156.538312 
Q 380.91438 156.639562 381.36063 156.843937 
z
M 385.777661 157.348312 
Q 384.911411 157.348312 384.407036 158.025187 
Q 383.902661 158.702062 383.902661 159.879562 
Q 383.902661 161.057062 384.403286 161.733937 
Q 384.905786 162.410812 385.777661 162.410812 
Q 386.640161 162.410812 387.142661 161.732062 
Q 387.647036 161.051437 387.647036 159.879562 
Q 387.647036 158.713312 387.142661 158.030812 
Q 386.640161 157.348312 385.777661 157.348312 
z
M 385.777661 156.435187 
Q 387.183911 156.435187 387.986411 157.350187 
Q 388.790786 158.263312 388.790786 159.879562 
Q 388.790786 161.490187 387.986411 162.408937 
Q 387.183911 163.325812 385.777661 163.325812 
Q 384.365786 163.325812 383.565161 162.408937 
Q 382.766411 161.490187 382.766411 159.879562 
Q 382.766411 158.263312 383.565161 157.350187 
Q 384.365786 156.435187 385.777661 156.435187 
z
M 394.379458 157.599562 
Q 394.197583 157.494562 393.983833 157.445812 
Q 393.770083 157.395187 393.513208 157.395187 
Q 392.598208 157.395187 392.108833 157.989562 
Q 391.619458 158.583937 391.619458 159.697687 
L 391.619458 163.155187 
L 390.535708 163.155187 
L 390.535708 156.592687 
L 391.619458 156.592687 
L 391.619458 157.612687 
Q 391.960708 157.014562 392.504458 156.725812 
Q 393.050083 156.435187 393.830083 156.435187 
Q 393.940708 156.435187 394.075708 156.450187 
Q 394.210708 156.463312 394.373833 156.493312 
L 394.379458 157.599562 
z
M 396.577426 154.728937 
L 396.577426 156.592687 
L 398.797426 156.592687 
L 398.797426 157.430812 
L 396.577426 157.430812 
L 396.577426 160.993312 
Q 396.577426 161.795812 396.796801 162.024562 
Q 397.016176 162.253312 397.691176 162.253312 
L 398.797426 162.253312 
L 398.797426 163.155187 
L 397.691176 163.155187 
Q 396.442426 163.155187 395.968051 162.690187 
Q 395.493676 162.223312 395.493676 160.993312 
L 395.493676 157.430812 
L 394.702426 157.430812 
L 394.702426 156.592687 
L 395.493676 156.592687 
L 395.493676 154.728937 
L 396.577426 154.728937 
z
M 400.21563 156.592687 
L 401.293755 156.592687 
L 401.293755 163.155187 
L 400.21563 163.155187 
L 400.21563 156.592687 
z
M 400.21563 154.037062 
L 401.293755 154.037062 
L 401.293755 155.403937 
L 400.21563 155.403937 
L 400.21563 154.037062 
z
M 408.272739 156.843937 
L 408.272739 157.852687 
Q 407.815239 157.599562 407.355864 157.473937 
Q 406.896489 157.348312 406.427739 157.348312 
Q 405.377739 157.348312 404.796489 158.013937 
Q 404.217114 158.677687 404.217114 159.879562 
Q 404.217114 161.081437 404.796489 161.747062 
Q 405.377739 162.410812 406.427739 162.410812 
Q 406.896489 162.410812 407.355864 162.285187 
Q 407.815239 162.159562 408.272739 161.906437 
L 408.272739 162.903937 
Q 407.820864 163.113937 407.337114 163.218937 
Q 406.855239 163.325812 406.309614 163.325812 
Q 404.826489 163.325812 403.952739 162.393937 
Q 403.080864 161.462062 403.080864 159.879562 
Q 403.080864 158.274562 403.962114 157.355812 
Q 404.845239 156.435187 406.380864 156.435187 
Q 406.877739 156.435187 407.352114 156.538312 
Q 407.826489 156.639562 408.272739 156.843937 
z
M 412.68977 157.348312 
Q 411.82352 157.348312 411.319145 158.025187 
Q 410.81477 158.702062 410.81477 159.879562 
Q 410.81477 161.057062 411.315395 161.733937 
Q 411.817895 162.410812 412.68977 162.410812 
Q 413.55227 162.410812 414.05477 161.732062 
Q 414.559145 161.051437 414.559145 159.879562 
Q 414.559145 158.713312 414.05477 158.030812 
Q 413.55227 157.348312 412.68977 157.348312 
z
M 412.68977 156.435187 
Q 414.09602 156.435187 414.89852 157.350187 
Q 415.702895 158.263312 415.702895 159.879562 
Q 415.702895 161.490187 414.89852 162.408937 
Q 414.09602 163.325812 412.68977 163.325812 
Q 411.277895 163.325812 410.47727 162.408937 
Q 409.67852 161.490187 409.67852 159.879562 
Q 409.67852 158.263312 410.47727 157.350187 
Q 411.277895 156.435187 412.68977 156.435187 
z
M 417.489067 156.592687 
L 418.567192 156.592687 
L 418.567192 163.155187 
L 417.489067 163.155187 
L 417.489067 156.592687 
z
M 417.489067 154.037062 
L 418.567192 154.037062 
L 418.567192 155.403937 
L 417.489067 155.403937 
L 417.489067 154.037062 
z
M 425.141176 157.588312 
L 425.141176 154.037062 
L 426.219301 154.037062 
L 426.219301 163.155187 
L 425.141176 163.155187 
L 425.141176 162.170812 
Q 424.801801 162.755812 424.282426 163.040812 
Q 423.764926 163.325812 423.037426 163.325812 
Q 421.848676 163.325812 421.100551 162.377062 
Q 420.354301 161.426437 420.354301 159.879562 
Q 420.354301 158.332687 421.100551 157.383937 
Q 421.848676 156.435187 423.037426 156.435187 
Q 423.764926 156.435187 424.282426 156.720187 
Q 424.801801 157.003312 425.141176 157.588312 
z
M 421.468051 159.879562 
Q 421.468051 161.068312 421.957426 161.745187 
Q 422.446801 162.422062 423.301801 162.422062 
Q 424.156801 162.422062 424.648051 161.745187 
Q 425.141176 161.068312 425.141176 159.879562 
Q 425.141176 158.690812 424.648051 158.013937 
Q 424.156801 157.337062 423.301801 157.337062 
Q 422.446801 157.337062 421.957426 158.013937 
Q 421.468051 158.690812 421.468051 159.879562 
z
" clip-path="url(#p921a126501)" style="fill: #ffffff; stroke: #000000; stroke-width: 2"/>
    <path d="M 325.045708 154.406437 
L 326.810083 154.406437 
L 329.041333 160.359562 
L 331.285708 154.406437 
L 333.050083 154.406437 
L 333.050083 163.155187 
L 331.895083 163.155187 
L 331.895083 155.473312 
L 329.639458 161.473312 
L 328.450708 161.473312 
L 326.195083 155.473312 
L 326.195083 163.155187 
L 325.045708 163.155187 
L 325.045708 154.406437 
z
M 335.352348 156.592687 
L 336.430473 156.592687 
L 336.430473 163.155187 
L 335.352348 163.155187 
L 335.352348 156.592687 
z
M 335.352348 154.037062 
L 336.430473 154.037062 
L 336.430473 155.403937 
L 335.352348 155.403937 
L 335.352348 154.037062 
z
M 344.142583 159.193312 
L 344.142583 163.155187 
L 343.064458 163.155187 
L 343.064458 159.228937 
Q 343.064458 158.297062 342.700708 157.835812 
Q 342.336958 157.372687 341.611333 157.372687 
Q 340.737583 157.372687 340.233208 157.929562 
Q 339.728833 158.484562 339.728833 159.446437 
L 339.728833 163.155187 
L 338.645083 163.155187 
L 338.645083 156.592687 
L 339.728833 156.592687 
L 339.728833 157.612687 
Q 340.116958 157.020187 340.640083 156.727687 
Q 341.165083 156.435187 341.851333 156.435187 
Q 342.981958 156.435187 343.561333 157.134562 
Q 344.142583 157.833937 344.142583 159.193312 
z
M 351.905551 159.603937 
L 351.905551 160.130812 
L 346.948051 160.130812 
Q 347.019301 161.244562 347.619301 161.827687 
Q 348.219301 162.410812 349.291801 162.410812 
Q 349.912426 162.410812 350.495551 162.258937 
Q 351.078676 162.107062 351.654301 161.801437 
L 351.654301 162.821437 
Q 351.073051 163.067062 350.463676 163.196437 
Q 349.854301 163.325812 349.228051 163.325812 
Q 347.656801 163.325812 346.739926 162.412687 
Q 345.823051 161.497687 345.823051 159.937687 
Q 345.823051 158.327062 346.693051 157.382062 
Q 347.563051 156.435187 349.040551 156.435187 
Q 350.364301 156.435187 351.134926 157.288312 
Q 351.905551 158.139562 351.905551 159.603937 
z
M 350.827426 159.287062 
Q 350.816176 158.403937 350.332426 157.877062 
Q 349.848676 157.348312 349.051801 157.348312 
Q 348.149926 157.348312 347.608051 157.858312 
Q 347.066176 158.368312 346.983676 159.294562 
L 350.827426 159.287062 
z
M 357.477114 157.599562 
Q 357.295239 157.494562 357.081489 157.445812 
Q 356.867739 157.395187 356.610864 157.395187 
Q 355.695864 157.395187 355.206489 157.989562 
Q 354.717114 158.583937 354.717114 159.697687 
L 354.717114 163.155187 
L 353.633364 163.155187 
L 353.633364 156.592687 
L 354.717114 156.592687 
L 354.717114 157.612687 
Q 355.058364 157.014562 355.602114 156.725812 
Q 356.147739 156.435187 356.927739 156.435187 
Q 357.038364 156.435187 357.173364 156.450187 
Q 357.308364 156.463312 357.471489 156.493312 
L 357.477114 157.599562 
z
M 361.591333 159.857062 
Q 360.284458 159.857062 359.780083 160.155187 
Q 359.275708 160.453312 359.275708 161.175187 
Q 359.275708 161.748937 359.654458 162.086437 
Q 360.033208 162.422062 360.681958 162.422062 
Q 361.580083 162.422062 362.121958 161.786437 
Q 362.663833 161.150812 362.663833 160.097062 
L 362.663833 159.857062 
L 361.591333 159.857062 
z
M 363.741958 159.410812 
L 363.741958 163.155187 
L 362.663833 163.155187 
L 362.663833 162.159562 
Q 362.294458 162.755812 361.743208 163.040812 
Q 361.191958 163.325812 360.395083 163.325812 
Q 359.388208 163.325812 358.791958 162.759562 
Q 358.197583 162.193312 358.197583 161.244562 
Q 358.197583 160.138312 358.938208 159.575812 
Q 359.680708 159.013312 361.150708 159.013312 
L 362.663833 159.013312 
L 362.663833 158.906437 
Q 362.663833 158.162062 362.174458 157.755187 
Q 361.685083 157.348312 360.800083 157.348312 
Q 360.237583 157.348312 359.703208 157.483312 
Q 359.170708 157.618312 358.679458 157.888312 
L 358.679458 156.890812 
Q 359.270083 156.662062 359.826958 156.549562 
Q 360.383833 156.435187 360.910708 156.435187 
Q 362.335708 156.435187 363.038833 157.173937 
Q 363.741958 157.910812 363.741958 159.410812 
z
M 365.961723 154.037062 
L 367.039848 154.037062 
L 367.039848 163.155187 
L 365.961723 163.155187 
L 365.961723 154.037062 
z
M 371.838208 157.348312 
Q 370.971958 157.348312 370.467583 158.025187 
Q 369.963208 158.702062 369.963208 159.879562 
Q 369.963208 161.057062 370.463833 161.733937 
Q 370.966333 162.410812 371.838208 162.410812 
Q 372.700708 162.410812 373.203208 161.732062 
Q 373.707583 161.051437 373.707583 159.879562 
Q 373.707583 158.713312 373.203208 158.030812 
Q 372.700708 157.348312 371.838208 157.348312 
z
M 371.838208 156.435187 
Q 373.244458 156.435187 374.046958 157.350187 
Q 374.851333 158.263312 374.851333 159.879562 
Q 374.851333 161.490187 374.046958 162.408937 
Q 373.244458 163.325812 371.838208 163.325812 
Q 370.426333 163.325812 369.625708 162.408937 
Q 368.826958 161.490187 368.826958 159.879562 
Q 368.826958 158.263312 369.625708 157.350187 
Q 370.426333 156.435187 371.838208 156.435187 
z
M 381.36063 156.843937 
L 381.36063 157.852687 
Q 380.90313 157.599562 380.443755 157.473937 
Q 379.98438 157.348312 379.51563 157.348312 
Q 378.46563 157.348312 377.88438 158.013937 
Q 377.305005 158.677687 377.305005 159.879562 
Q 377.305005 161.081437 377.88438 161.747062 
Q 378.46563 162.410812 379.51563 162.410812 
Q 379.98438 162.410812 380.443755 162.285187 
Q 380.90313 162.159562 381.36063 161.906437 
L 381.36063 162.903937 
Q 380.908755 163.113937 380.425005 163.218937 
Q 379.94313 163.325812 379.397505 163.325812 
Q 377.91438 163.325812 377.04063 162.393937 
Q 376.168755 161.462062 376.168755 159.879562 
Q 376.168755 158.274562 377.050005 157.355812 
Q 377.93313 156.435187 379.468755 156.435187 
Q 379.96563 156.435187 380.440005 156.538312 
Q 380.91438 156.639562 381.36063 156.843937 
z
M 385.777661 157.348312 
Q 384.911411 157.348312 384.407036 158.025187 
Q 383.902661 158.702062 383.902661 159.879562 
Q 383.902661 161.057062 384.403286 161.733937 
Q 384.905786 162.410812 385.777661 162.410812 
Q 386.640161 162.410812 387.142661 161.732062 
Q 387.647036 161.051437 387.647036 159.879562 
Q 387.647036 158.713312 387.142661 158.030812 
Q 386.640161 157.348312 385.777661 157.348312 
z
M 385.777661 156.435187 
Q 387.183911 156.435187 387.986411 157.350187 
Q 388.790786 158.263312 388.790786 159.879562 
Q 388.790786 161.490187 387.986411 162.408937 
Q 387.183911 163.325812 385.777661 163.325812 
Q 384.365786 163.325812 383.565161 162.408937 
Q 382.766411 161.490187 382.766411 159.879562 
Q 382.766411 158.263312 383.565161 157.350187 
Q 384.365786 156.435187 385.777661 156.435187 
z
M 394.379458 157.599562 
Q 394.197583 157.494562 393.983833 157.445812 
Q 393.770083 157.395187 393.513208 157.395187 
Q 392.598208 157.395187 392.108833 157.989562 
Q 391.619458 158.583937 391.619458 159.697687 
L 391.619458 163.155187 
L 390.535708 163.155187 
L 390.535708 156.592687 
L 391.619458 156.592687 
L 391.619458 157.612687 
Q 391.960708 157.014562 392.504458 156.725812 
Q 393.050083 156.435187 393.830083 156.435187 
Q 393.940708 156.435187 394.075708 156.450187 
Q 394.210708 156.463312 394.373833 156.493312 
L 394.379458 157.599562 
z
M 396.577426 154.728937 
L 396.577426 156.592687 
L 398.797426 156.592687 
L 398.797426 157.430812 
L 396.577426 157.430812 
L 396.577426 160.993312 
Q 396.577426 161.795812 396.796801 162.024562 
Q 397.016176 162.253312 397.691176 162.253312 
L 398.797426 162.253312 
L 398.797426 163.155187 
L 397.691176 163.155187 
Q 396.442426 163.155187 395.968051 162.690187 
Q 395.493676 162.223312 395.493676 160.993312 
L 395.493676 157.430812 
L 394.702426 157.430812 
L 394.702426 156.592687 
L 395.493676 156.592687 
L 395.493676 154.728937 
L 396.577426 154.728937 
z
M 400.21563 156.592687 
L 401.293755 156.592687 
L 401.293755 163.155187 
L 400.21563 163.155187 
L 400.21563 156.592687 
z
M 400.21563 154.037062 
L 401.293755 154.037062 
L 401.293755 155.403937 
L 400.21563 155.403937 
L 400.21563 154.037062 
z
M 408.272739 156.843937 
L 408.272739 157.852687 
Q 407.815239 157.599562 407.355864 157.473937 
Q 406.896489 157.348312 406.427739 157.348312 
Q 405.377739 157.348312 404.796489 158.013937 
Q 404.217114 158.677687 404.217114 159.879562 
Q 404.217114 161.081437 404.796489 161.747062 
Q 405.377739 162.410812 406.427739 162.410812 
Q 406.896489 162.410812 407.355864 162.285187 
Q 407.815239 162.159562 408.272739 161.906437 
L 408.272739 162.903937 
Q 407.820864 163.113937 407.337114 163.218937 
Q 406.855239 163.325812 406.309614 163.325812 
Q 404.826489 163.325812 403.952739 162.393937 
Q 403.080864 161.462062 403.080864 159.879562 
Q 403.080864 158.274562 403.962114 157.355812 
Q 404.845239 156.435187 406.380864 156.435187 
Q 406.877739 156.435187 407.352114 156.538312 
Q 407.826489 156.639562 408.272739 156.843937 
z
M 412.68977 157.348312 
Q 411.82352 157.348312 411.319145 158.025187 
Q 410.81477 158.702062 410.81477 159.879562 
Q 410.81477 161.057062 411.315395 161.733937 
Q 411.817895 162.410812 412.68977 162.410812 
Q 413.55227 162.410812 414.05477 161.732062 
Q 414.559145 161.051437 414.559145 159.879562 
Q 414.559145 158.713312 414.05477 158.030812 
Q 413.55227 157.348312 412.68977 157.348312 
z
M 412.68977 156.435187 
Q 414.09602 156.435187 414.89852 157.350187 
Q 415.702895 158.263312 415.702895 159.879562 
Q 415.702895 161.490187 414.89852 162.408937 
Q 414.09602 163.325812 412.68977 163.325812 
Q 411.277895 163.325812 410.47727 162.408937 
Q 409.67852 161.490187 409.67852 159.879562 
Q 409.67852 158.263312 410.47727 157.350187 
Q 411.277895 156.435187 412.68977 156.435187 
z
M 417.489067 156.592687 
L 418.567192 156.592687 
L 418.567192 163.155187 
L 417.489067 163.155187 
L 417.489067 156.592687 
z
M 417.489067 154.037062 
L 418.567192 154.037062 
L 418.567192 155.403937 
L 417.489067 155.403937 
L 417.489067 154.037062 
z
M 425.141176 157.588312 
L 425.141176 154.037062 
L 426.219301 154.037062 
L 426.219301 163.155187 
L 425.141176 163.155187 
L 425.141176 162.170812 
Q 424.801801 162.755812 424.282426 163.040812 
Q 423.764926 163.325812 423.037426 163.325812 
Q 421.848676 163.325812 421.100551 162.377062 
Q 420.354301 161.426437 420.354301 159.879562 
Q 420.354301 158.332687 421.100551 157.383937 
Q 421.848676 156.435187 423.037426 156.435187 
Q 423.764926 156.435187 424.282426 156.720187 
Q 424.801801 157.003312 425.141176 157.588312 
z
M 421.468051 159.879562 
Q 421.468051 161.068312 421.957426 161.745187 
Q 422.446801 162.422062 423.301801 162.422062 
Q 424.156801 162.422062 424.648051 161.745187 
Q 425.141176 161.068312 425.141176 159.879562 
Q 425.141176 158.690812 424.648051 158.013937 
Q 424.156801 157.337062 423.301801 157.337062 
Q 422.446801 157.337062 421.957426 158.013937 
Q 421.468051 158.690812 421.468051 159.879562 
z
" clip-path="url(#p921a126501)" style="fill: #ffffff"/>
    <path d="M 355.20977 171.036937 
Q 355.027895 170.931937 354.814145 170.883187 
Q 354.600395 170.832562 354.34352 170.832562 
Q 353.42852 170.832562 352.939145 171.426937 
Q 352.44977 172.021312 352.44977 173.135062 
L 352.44977 176.592562 
L 351.36602 176.592562 
L 351.36602 170.030062 
L 352.44977 170.030062 
L 352.44977 171.050062 
Q 352.79102 170.451937 353.33477 170.163187 
Q 353.880395 169.872562 354.660395 169.872562 
Q 354.77102 169.872562 354.90602 169.887562 
Q 355.04102 169.900687 355.204145 169.930687 
L 355.20977 171.036937 
z
M 361.684614 173.041312 
L 361.684614 173.568187 
L 356.727114 173.568187 
Q 356.798364 174.681937 357.398364 175.265062 
Q 357.998364 175.848187 359.070864 175.848187 
Q 359.691489 175.848187 360.274614 175.696312 
Q 360.857739 175.544437 361.433364 175.238812 
L 361.433364 176.258812 
Q 360.852114 176.504437 360.242739 176.633812 
Q 359.633364 176.763187 359.007114 176.763187 
Q 357.435864 176.763187 356.518989 175.850062 
Q 355.602114 174.935062 355.602114 173.375062 
Q 355.602114 171.764437 356.472114 170.819437 
Q 357.342114 169.872562 358.819614 169.872562 
Q 360.143364 169.872562 360.913989 170.725687 
Q 361.684614 171.576937 361.684614 173.041312 
z
M 360.606489 172.724437 
Q 360.595239 171.841312 360.111489 171.314437 
Q 359.627739 170.785687 358.830864 170.785687 
Q 357.928989 170.785687 357.387114 171.295687 
Q 356.845239 171.805687 356.762739 172.731937 
L 360.606489 172.724437 
z
M 368.176801 170.281312 
L 368.176801 171.290062 
Q 367.719301 171.036937 367.259926 170.911312 
Q 366.800551 170.785687 366.331801 170.785687 
Q 365.281801 170.785687 364.700551 171.451312 
Q 364.121176 172.115062 364.121176 173.316937 
Q 364.121176 174.518812 364.700551 175.184437 
Q 365.281801 175.848187 366.331801 175.848187 
Q 366.800551 175.848187 367.259926 175.722562 
Q 367.719301 175.596937 368.176801 175.343812 
L 368.176801 176.341312 
Q 367.724926 176.551312 367.241176 176.656312 
Q 366.759301 176.763187 366.213676 176.763187 
Q 364.730551 176.763187 363.856801 175.831312 
Q 362.984926 174.899437 362.984926 173.316937 
Q 362.984926 171.711937 363.866176 170.793187 
Q 364.749301 169.872562 366.284926 169.872562 
Q 366.781801 169.872562 367.256176 169.975687 
Q 367.730551 170.076937 368.176801 170.281312 
z
M 375.665083 173.041312 
L 375.665083 173.568187 
L 370.707583 173.568187 
Q 370.778833 174.681937 371.378833 175.265062 
Q 371.978833 175.848187 373.051333 175.848187 
Q 373.671958 175.848187 374.255083 175.696312 
Q 374.838208 175.544437 375.413833 175.238812 
L 375.413833 176.258812 
Q 374.832583 176.504437 374.223208 176.633812 
Q 373.613833 176.763187 372.987583 176.763187 
Q 371.416333 176.763187 370.499458 175.850062 
Q 369.582583 174.935062 369.582583 173.375062 
Q 369.582583 171.764437 370.452583 170.819437 
Q 371.322583 169.872562 372.800083 169.872562 
Q 374.123833 169.872562 374.894458 170.725687 
Q 375.665083 171.576937 375.665083 173.041312 
z
M 374.586958 172.724437 
Q 374.575708 171.841312 374.091958 171.314437 
Q 373.608208 170.785687 372.811333 170.785687 
Q 371.909458 170.785687 371.367583 171.295687 
Q 370.825708 171.805687 370.743208 172.731937 
L 374.586958 172.724437 
z
M 378.476645 175.608187 
L 378.476645 179.088187 
L 377.392895 179.088187 
L 377.392895 170.030062 
L 378.476645 170.030062 
L 378.476645 171.025687 
Q 378.817895 170.440687 379.335395 170.157562 
Q 379.85477 169.872562 380.57477 169.872562 
Q 381.77102 169.872562 382.51727 170.821312 
Q 383.265395 171.770062 383.265395 173.316937 
Q 383.265395 174.863812 382.51727 175.814437 
Q 381.77102 176.763187 380.57477 176.763187 
Q 379.85477 176.763187 379.335395 176.478187 
Q 378.817895 176.193187 378.476645 175.608187 
z
M 382.14602 173.316937 
Q 382.14602 172.128187 381.656645 171.451312 
Q 381.16727 170.774437 380.31227 170.774437 
Q 379.455395 170.774437 378.96602 171.451312 
Q 378.476645 172.128187 378.476645 173.316937 
Q 378.476645 174.505687 378.96602 175.182562 
Q 379.455395 175.859437 380.31227 175.859437 
Q 381.16727 175.859437 381.656645 175.182562 
Q 382.14602 174.505687 382.14602 173.316937 
z
M 386.118208 168.166312 
L 386.118208 170.030062 
L 388.338208 170.030062 
L 388.338208 170.868187 
L 386.118208 170.868187 
L 386.118208 174.430687 
Q 386.118208 175.233187 386.337583 175.461937 
Q 386.556958 175.690687 387.231958 175.690687 
L 388.338208 175.690687 
L 388.338208 176.592562 
L 387.231958 176.592562 
Q 385.983208 176.592562 385.508833 176.127562 
Q 385.034458 175.660687 385.034458 174.430687 
L 385.034458 170.868187 
L 384.243208 170.868187 
L 384.243208 170.030062 
L 385.034458 170.030062 
L 385.034458 168.166312 
L 386.118208 168.166312 
z
M 392.298911 170.785687 
Q 391.432661 170.785687 390.928286 171.462562 
Q 390.423911 172.139437 390.423911 173.316937 
Q 390.423911 174.494437 390.924536 175.171312 
Q 391.427036 175.848187 392.298911 175.848187 
Q 393.161411 175.848187 393.663911 175.169437 
Q 394.168286 174.488812 394.168286 173.316937 
Q 394.168286 172.150687 393.663911 171.468187 
Q 393.161411 170.785687 392.298911 170.785687 
z
M 392.298911 169.872562 
Q 393.705161 169.872562 394.507661 170.787562 
Q 395.312036 171.700687 395.312036 173.316937 
Q 395.312036 174.927562 394.507661 175.846312 
Q 393.705161 176.763187 392.298911 176.763187 
Q 390.887036 176.763187 390.086411 175.846312 
Q 389.287661 174.927562 389.287661 173.316937 
Q 389.287661 171.700687 390.086411 170.787562 
Q 390.887036 169.872562 392.298911 169.872562 
z
M 400.900708 171.036937 
Q 400.718833 170.931937 400.505083 170.883187 
Q 400.291333 170.832562 400.034458 170.832562 
Q 399.119458 170.832562 398.630083 171.426937 
Q 398.140708 172.021312 398.140708 173.135062 
L 398.140708 176.592562 
L 397.056958 176.592562 
L 397.056958 170.030062 
L 398.140708 170.030062 
L 398.140708 171.050062 
Q 398.481958 170.451937 399.025708 170.163187 
Q 399.571333 169.872562 400.351333 169.872562 
Q 400.461958 169.872562 400.596958 169.887562 
Q 400.731958 169.900687 400.895083 169.930687 
L 400.900708 171.036937 
z
" clip-path="url(#p921a126501)" style="fill: #ffffff; stroke: #000000; stroke-width: 2"/>
    <path d="M 355.20977 171.036937 
Q 355.027895 170.931937 354.814145 170.883187 
Q 354.600395 170.832562 354.34352 170.832562 
Q 353.42852 170.832562 352.939145 171.426937 
Q 352.44977 172.021312 352.44977 173.135062 
L 352.44977 176.592562 
L 351.36602 176.592562 
L 351.36602 170.030062 
L 352.44977 170.030062 
L 352.44977 171.050062 
Q 352.79102 170.451937 353.33477 170.163187 
Q 353.880395 169.872562 354.660395 169.872562 
Q 354.77102 169.872562 354.90602 169.887562 
Q 355.04102 169.900687 355.204145 169.930687 
L 355.20977 171.036937 
z
M 361.684614 173.041312 
L 361.684614 173.568187 
L 356.727114 173.568187 
Q 356.798364 174.681937 357.398364 175.265062 
Q 357.998364 175.848187 359.070864 175.848187 
Q 359.691489 175.848187 360.274614 175.696312 
Q 360.857739 175.544437 361.433364 175.238812 
L 361.433364 176.258812 
Q 360.852114 176.504437 360.242739 176.633812 
Q 359.633364 176.763187 359.007114 176.763187 
Q 357.435864 176.763187 356.518989 175.850062 
Q 355.602114 174.935062 355.602114 173.375062 
Q 355.602114 171.764437 356.472114 170.819437 
Q 357.342114 169.872562 358.819614 169.872562 
Q 360.143364 169.872562 360.913989 170.725687 
Q 361.684614 171.576937 361.684614 173.041312 
z
M 360.606489 172.724437 
Q 360.595239 171.841312 360.111489 171.314437 
Q 359.627739 170.785687 358.830864 170.785687 
Q 357.928989 170.785687 357.387114 171.295687 
Q 356.845239 171.805687 356.762739 172.731937 
L 360.606489 172.724437 
z
M 368.176801 170.281312 
L 368.176801 171.290062 
Q 367.719301 171.036937 367.259926 170.911312 
Q 366.800551 170.785687 366.331801 170.785687 
Q 365.281801 170.785687 364.700551 171.451312 
Q 364.121176 172.115062 364.121176 173.316937 
Q 364.121176 174.518812 364.700551 175.184437 
Q 365.281801 175.848187 366.331801 175.848187 
Q 366.800551 175.848187 367.259926 175.722562 
Q 367.719301 175.596937 368.176801 175.343812 
L 368.176801 176.341312 
Q 367.724926 176.551312 367.241176 176.656312 
Q 366.759301 176.763187 366.213676 176.763187 
Q 364.730551 176.763187 363.856801 175.831312 
Q 362.984926 174.899437 362.984926 173.316937 
Q 362.984926 171.711937 363.866176 170.793187 
Q 364.749301 169.872562 366.284926 169.872562 
Q 366.781801 169.872562 367.256176 169.975687 
Q 367.730551 170.076937 368.176801 170.281312 
z
M 375.665083 173.041312 
L 375.665083 173.568187 
L 370.707583 173.568187 
Q 370.778833 174.681937 371.378833 175.265062 
Q 371.978833 175.848187 373.051333 175.848187 
Q 373.671958 175.848187 374.255083 175.696312 
Q 374.838208 175.544437 375.413833 175.238812 
L 375.413833 176.258812 
Q 374.832583 176.504437 374.223208 176.633812 
Q 373.613833 176.763187 372.987583 176.763187 
Q 371.416333 176.763187 370.499458 175.850062 
Q 369.582583 174.935062 369.582583 173.375062 
Q 369.582583 171.764437 370.452583 170.819437 
Q 371.322583 169.872562 372.800083 169.872562 
Q 374.123833 169.872562 374.894458 170.725687 
Q 375.665083 171.576937 375.665083 173.041312 
z
M 374.586958 172.724437 
Q 374.575708 171.841312 374.091958 171.314437 
Q 373.608208 170.785687 372.811333 170.785687 
Q 371.909458 170.785687 371.367583 171.295687 
Q 370.825708 171.805687 370.743208 172.731937 
L 374.586958 172.724437 
z
M 378.476645 175.608187 
L 378.476645 179.088187 
L 377.392895 179.088187 
L 377.392895 170.030062 
L 378.476645 170.030062 
L 378.476645 171.025687 
Q 378.817895 170.440687 379.335395 170.157562 
Q 379.85477 169.872562 380.57477 169.872562 
Q 381.77102 169.872562 382.51727 170.821312 
Q 383.265395 171.770062 383.265395 173.316937 
Q 383.265395 174.863812 382.51727 175.814437 
Q 381.77102 176.763187 380.57477 176.763187 
Q 379.85477 176.763187 379.335395 176.478187 
Q 378.817895 176.193187 378.476645 175.608187 
z
M 382.14602 173.316937 
Q 382.14602 172.128187 381.656645 171.451312 
Q 381.16727 170.774437 380.31227 170.774437 
Q 379.455395 170.774437 378.96602 171.451312 
Q 378.476645 172.128187 378.476645 173.316937 
Q 378.476645 174.505687 378.96602 175.182562 
Q 379.455395 175.859437 380.31227 175.859437 
Q 381.16727 175.859437 381.656645 175.182562 
Q 382.14602 174.505687 382.14602 173.316937 
z
M 386.118208 168.166312 
L 386.118208 170.030062 
L 388.338208 170.030062 
L 388.338208 170.868187 
L 386.118208 170.868187 
L 386.118208 174.430687 
Q 386.118208 175.233187 386.337583 175.461937 
Q 386.556958 175.690687 387.231958 175.690687 
L 388.338208 175.690687 
L 388.338208 176.592562 
L 387.231958 176.592562 
Q 385.983208 176.592562 385.508833 176.127562 
Q 385.034458 175.660687 385.034458 174.430687 
L 385.034458 170.868187 
L 384.243208 170.868187 
L 384.243208 170.030062 
L 385.034458 170.030062 
L 385.034458 168.166312 
L 386.118208 168.166312 
z
M 392.298911 170.785687 
Q 391.432661 170.785687 390.928286 171.462562 
Q 390.423911 172.139437 390.423911 173.316937 
Q 390.423911 174.494437 390.924536 175.171312 
Q 391.427036 175.848187 392.298911 175.848187 
Q 393.161411 175.848187 393.663911 175.169437 
Q 394.168286 174.488812 394.168286 173.316937 
Q 394.168286 172.150687 393.663911 171.468187 
Q 393.161411 170.785687 392.298911 170.785687 
z
M 392.298911 169.872562 
Q 393.705161 169.872562 394.507661 170.787562 
Q 395.312036 171.700687 395.312036 173.316937 
Q 395.312036 174.927562 394.507661 175.846312 
Q 393.705161 176.763187 392.298911 176.763187 
Q 390.887036 176.763187 390.086411 175.846312 
Q 389.287661 174.927562 389.287661 173.316937 
Q 389.287661 171.700687 390.086411 170.787562 
Q 390.887036 169.872562 392.298911 169.872562 
z
M 400.900708 171.036937 
Q 400.718833 170.931937 400.505083 170.883187 
Q 400.291333 170.832562 400.034458 170.832562 
Q 399.119458 170.832562 398.630083 171.426937 
Q 398.140708 172.021312 398.140708 173.135062 
L 398.140708 176.592562 
L 397.056958 176.592562 
L 397.056958 170.030062 
L 398.140708 170.030062 
L 398.140708 171.050062 
Q 398.481958 170.451937 399.025708 170.163187 
Q 399.571333 169.872562 400.351333 169.872562 
Q 400.461958 169.872562 400.596958 169.887562 
Q 400.731958 169.900687 400.895083 169.930687 
L 400.900708 171.036937 
z
" clip-path="url(#p921a126501)" style="fill: #ffffff"/>
    <path d="M 330.177583 181.281187 
L 331.368208 181.281187 
L 331.368208 186.596812 
Q 331.368208 188.003062 331.876333 188.621812 
Q 332.386333 189.238687 333.530083 189.238687 
Q 334.666333 189.238687 335.176333 188.621812 
Q 335.686333 188.003062 335.686333 186.596812 
L 335.686333 181.281187 
L 336.875083 181.281187 
L 336.875083 186.743062 
Q 336.875083 188.453062 336.027583 189.326812 
Q 335.181958 190.200562 333.530083 190.200562 
Q 331.870708 190.200562 331.023208 189.326812 
Q 330.177583 188.453062 330.177583 186.743062 
L 330.177583 181.281187 
z
M 344.505161 186.068062 
L 344.505161 190.029937 
L 343.427036 190.029937 
L 343.427036 186.103687 
Q 343.427036 185.171812 343.063286 184.710562 
Q 342.699536 184.247437 341.973911 184.247437 
Q 341.100161 184.247437 340.595786 184.804312 
Q 340.091411 185.359312 340.091411 186.321187 
L 340.091411 190.029937 
L 339.007661 190.029937 
L 339.007661 183.467437 
L 340.091411 183.467437 
L 340.091411 184.487437 
Q 340.479536 183.894937 341.002661 183.602437 
Q 341.527661 183.309937 342.213911 183.309937 
Q 343.344536 183.309937 343.923911 184.009312 
Q 344.505161 184.708687 344.505161 186.068062 
z
M 346.65438 183.467437 
L 347.732505 183.467437 
L 347.732505 190.029937 
L 346.65438 190.029937 
L 346.65438 183.467437 
z
M 346.65438 180.911812 
L 347.732505 180.911812 
L 347.732505 182.278687 
L 346.65438 182.278687 
L 346.65438 180.911812 
z
M 351.218364 182.254312 
L 351.218364 185.541187 
L 352.707114 185.541187 
Q 353.533989 185.541187 353.983989 185.113687 
Q 354.435864 184.686187 354.435864 183.894937 
Q 354.435864 183.109312 353.983989 182.681812 
Q 353.533989 182.254312 352.707114 182.254312 
L 351.218364 182.254312 
z
M 350.035239 181.281187 
L 352.707114 181.281187 
Q 354.178989 181.281187 354.930864 181.946812 
Q 355.684614 182.612437 355.684614 183.894937 
Q 355.684614 185.190562 354.930864 185.852437 
Q 354.178989 186.514312 352.707114 186.514312 
L 351.218364 186.514312 
L 351.218364 190.029937 
L 350.035239 190.029937 
L 350.035239 181.281187 
z
M 360.817192 184.474312 
Q 360.635317 184.369312 360.421567 184.320562 
Q 360.207817 184.269937 359.950942 184.269937 
Q 359.035942 184.269937 358.546567 184.864312 
Q 358.057192 185.458687 358.057192 186.572437 
L 358.057192 190.029937 
L 356.973442 190.029937 
L 356.973442 183.467437 
L 358.057192 183.467437 
L 358.057192 184.487437 
Q 358.398442 183.889312 358.942192 183.600562 
Q 359.487817 183.309937 360.267817 183.309937 
Q 360.378442 183.309937 360.513442 183.324937 
Q 360.648442 183.338062 360.811567 183.368062 
L 360.817192 184.474312 
z
M 364.220786 184.223062 
Q 363.354536 184.223062 362.850161 184.899937 
Q 362.345786 185.576812 362.345786 186.754312 
Q 362.345786 187.931812 362.846411 188.608687 
Q 363.348911 189.285562 364.220786 189.285562 
Q 365.083286 189.285562 365.585786 188.606812 
Q 366.090161 187.926187 366.090161 186.754312 
Q 366.090161 185.588062 365.585786 184.905562 
Q 365.083286 184.223062 364.220786 184.223062 
z
M 364.220786 183.309937 
Q 365.627036 183.309937 366.429536 184.224937 
Q 367.233911 185.138062 367.233911 186.754312 
Q 367.233911 188.364937 366.429536 189.283687 
Q 365.627036 190.200562 364.220786 190.200562 
Q 362.808911 190.200562 362.008286 189.283687 
Q 361.209536 188.364937 361.209536 186.754312 
Q 361.209536 185.138062 362.008286 184.224937 
Q 362.808911 183.309937 364.220786 183.309937 
z
M 370.086958 181.603687 
L 370.086958 183.467437 
L 372.306958 183.467437 
L 372.306958 184.305562 
L 370.086958 184.305562 
L 370.086958 187.868062 
Q 370.086958 188.670562 370.306333 188.899312 
Q 370.525708 189.128062 371.200708 189.128062 
L 372.306958 189.128062 
L 372.306958 190.029937 
L 371.200708 190.029937 
Q 369.951958 190.029937 369.477583 189.564937 
Q 369.003208 189.098062 369.003208 187.868062 
L 369.003208 184.305562 
L 368.211958 184.305562 
L 368.211958 183.467437 
L 369.003208 183.467437 
L 369.003208 181.603687 
L 370.086958 181.603687 
z
M 374.000786 188.541187 
L 375.236411 188.541187 
L 375.236411 190.029937 
L 374.000786 190.029937 
L 374.000786 188.541187 
z
M 374.000786 183.825562 
L 375.236411 183.825562 
L 375.236411 185.312437 
L 374.000786 185.312437 
L 374.000786 183.825562 
z
M 378.99813 182.254312 
L 378.99813 185.541187 
L 380.48688 185.541187 
Q 381.313755 185.541187 381.763755 185.113687 
Q 382.21563 184.686187 382.21563 183.894937 
Q 382.21563 183.109312 381.763755 182.681812 
Q 381.313755 182.254312 380.48688 182.254312 
L 378.99813 182.254312 
z
M 377.815005 181.281187 
L 380.48688 181.281187 
Q 381.958755 181.281187 382.71063 181.946812 
Q 383.46438 182.612437 383.46438 183.894937 
Q 383.46438 185.190562 382.71063 185.852437 
Q 381.958755 186.514312 380.48688 186.514312 
L 378.99813 186.514312 
L 378.99813 190.029937 
L 377.815005 190.029937 
L 377.815005 181.281187 
z
M 387.687583 182.061187 
Q 386.774458 182.061187 386.313208 182.961187 
Q 385.853833 183.859312 385.853833 185.664937 
Q 385.853833 187.463062 386.313208 188.363062 
Q 386.774458 189.263062 387.687583 189.263062 
Q 388.608208 189.263062 389.067583 188.363062 
Q 389.528833 187.463062 389.528833 185.664937 
Q 389.528833 183.859312 389.067583 182.961187 
Q 388.608208 182.061187 387.687583 182.061187 
z
M 387.687583 181.123687 
Q 389.159458 181.123687 389.935708 182.288062 
Q 390.711958 183.450562 390.711958 185.664937 
Q 390.711958 187.873687 389.935708 189.038062 
Q 389.159458 190.200562 387.687583 190.200562 
Q 386.217583 190.200562 385.441333 189.038062 
Q 384.665083 187.873687 384.665083 185.664937 
Q 384.665083 183.450562 385.441333 182.288062 
Q 386.217583 181.123687 387.687583 181.123687 
z
M 395.322348 185.874937 
Q 394.478598 185.874937 393.994848 186.326812 
Q 393.512973 186.778687 393.512973 187.568062 
Q 393.512973 188.359312 393.994848 188.811187 
Q 394.478598 189.263062 395.322348 189.263062 
Q 396.166098 189.263062 396.651723 188.809312 
Q 397.139223 188.353687 397.139223 187.568062 
Q 397.139223 186.778687 396.655473 186.326812 
Q 396.173598 185.874937 395.322348 185.874937 
z
M 394.139223 185.372437 
Q 393.377973 185.184937 392.952348 184.663687 
Q 392.528598 184.140562 392.528598 183.390562 
Q 392.528598 182.342437 393.274848 181.733062 
Q 394.022973 181.123687 395.322348 181.123687 
Q 396.629223 181.123687 397.373598 181.733062 
Q 398.117973 182.342437 398.117973 183.390562 
Q 398.117973 184.140562 397.692348 184.663687 
Q 397.268598 185.184937 396.512973 185.372437 
Q 397.367973 185.571187 397.844223 186.152437 
Q 398.322348 186.731812 398.322348 187.568062 
Q 398.322348 188.841187 397.546098 189.521812 
Q 396.769848 190.200562 395.322348 190.200562 
Q 393.876723 190.200562 393.098598 189.521812 
Q 392.322348 188.841187 392.322348 187.568062 
Q 392.322348 186.731812 392.802348 186.152437 
Q 393.284223 185.571187 394.139223 185.372437 
z
M 393.706098 183.503062 
Q 393.706098 184.181812 394.129848 184.562437 
Q 394.555473 184.943062 395.322348 184.943062 
Q 396.085473 184.943062 396.514848 184.562437 
Q 396.946098 184.181812 396.946098 183.503062 
Q 396.946098 182.822437 396.514848 182.441812 
Q 396.085473 182.061187 395.322348 182.061187 
Q 394.555473 182.061187 394.129848 182.441812 
Q 393.706098 182.822437 393.706098 183.503062 
z
M 401.445864 189.034312 
L 405.576489 189.034312 
L 405.576489 190.029937 
L 400.022739 190.029937 
L 400.022739 189.034312 
Q 400.695864 188.336812 401.858364 187.163062 
Q 403.022739 185.987437 403.320864 185.646187 
Q 403.888989 185.008687 404.113989 184.566187 
Q 404.340864 184.123687 404.340864 183.696187 
Q 404.340864 182.998687 403.851489 182.559937 
Q 403.362114 182.119312 402.576489 182.119312 
Q 402.019614 182.119312 401.400864 182.312437 
Q 400.783989 182.505562 400.080864 182.899312 
L 400.080864 181.703062 
Q 400.795239 181.416187 401.415864 181.269937 
Q 402.038364 181.123687 402.553989 181.123687 
Q 403.913364 181.123687 404.721489 181.804312 
Q 405.529614 182.483062 405.529614 183.619312 
Q 405.529614 184.159312 405.327114 184.643062 
Q 405.126489 185.124937 404.592114 185.781187 
Q 404.445864 185.951812 403.660239 186.763687 
Q 402.876489 187.575562 401.445864 189.034312 
z
M 411.647505 185.312437 
Q 412.49688 185.494312 412.97313 186.069937 
Q 413.451255 186.643687 413.451255 187.487437 
Q 413.451255 188.781187 412.56063 189.491812 
Q 411.670005 190.200562 410.02938 190.200562 
Q 409.480005 190.200562 408.89688 190.091812 
Q 408.313755 189.983062 407.69313 189.765562 
L 407.69313 188.623687 
Q 408.18438 188.910562 408.76938 189.056812 
Q 409.356255 189.203062 409.99563 189.203062 
Q 411.107505 189.203062 411.69063 188.764312 
Q 412.273755 188.325562 412.273755 187.487437 
Q 412.273755 186.713062 411.73188 186.278062 
Q 411.190005 185.841187 410.22438 185.841187 
L 409.20438 185.841187 
L 409.20438 184.868062 
L 410.271255 184.868062 
Q 411.14313 184.868062 411.606255 184.519312 
Q 412.06938 184.170562 412.06938 183.514312 
Q 412.06938 182.841187 411.591255 182.481187 
Q 411.115005 182.119312 410.22438 182.119312 
Q 409.73688 182.119312 409.180005 182.226187 
Q 408.62313 182.331187 407.95563 182.552437 
L 407.95563 181.498687 
Q 408.63063 181.311187 409.21938 181.217437 
Q 409.80813 181.123687 410.32938 181.123687 
Q 411.677505 181.123687 412.461255 181.736812 
Q 413.24688 182.348062 413.24688 183.390562 
Q 413.24688 184.118062 412.83063 184.618687 
Q 412.41438 185.119312 411.647505 185.312437 
z
M 415.70852 181.281187 
L 420.35477 181.281187 
L 420.35477 182.278687 
L 416.79227 182.278687 
L 416.79227 184.421812 
Q 417.049145 184.333687 417.30602 184.290562 
Q 417.56477 184.247437 417.82352 184.247437 
Q 419.287895 184.247437 420.142895 185.049937 
Q 420.99977 185.852437 420.99977 187.223062 
Q 420.99977 188.634937 420.120395 189.418687 
Q 419.24102 190.200562 417.641645 190.200562 
Q 417.090395 190.200562 416.51852 190.106812 
Q 415.94852 190.013062 415.339145 189.825562 
L 415.339145 188.634937 
Q 415.86602 188.921812 416.42852 189.062437 
Q 416.99102 189.203062 417.61727 189.203062 
Q 418.631645 189.203062 419.22227 188.670562 
Q 419.81477 188.138062 419.81477 187.223062 
Q 419.81477 186.309937 419.22227 185.777437 
Q 418.631645 185.243062 417.61727 185.243062 
Q 417.142895 185.243062 416.670395 185.348062 
Q 416.19977 185.453062 415.70852 185.676187 
L 415.70852 181.281187 
z
" clip-path="url(#p921a126501)" style="fill: #ffffff; stroke: #000000; stroke-width: 2"/>
    <path d="M 330.177583 181.281187 
L 331.368208 181.281187 
L 331.368208 186.596812 
Q 331.368208 188.003062 331.876333 188.621812 
Q 332.386333 189.238687 333.530083 189.238687 
Q 334.666333 189.238687 335.176333 188.621812 
Q 335.686333 188.003062 335.686333 186.596812 
L 335.686333 181.281187 
L 336.875083 181.281187 
L 336.875083 186.743062 
Q 336.875083 188.453062 336.027583 189.326812 
Q 335.181958 190.200562 333.530083 190.200562 
Q 331.870708 190.200562 331.023208 189.326812 
Q 330.177583 188.453062 330.177583 186.743062 
L 330.177583 181.281187 
z
M 344.505161 186.068062 
L 344.505161 190.029937 
L 343.427036 190.029937 
L 343.427036 186.103687 
Q 343.427036 185.171812 343.063286 184.710562 
Q 342.699536 184.247437 341.973911 184.247437 
Q 341.100161 184.247437 340.595786 184.804312 
Q 340.091411 185.359312 340.091411 186.321187 
L 340.091411 190.029937 
L 339.007661 190.029937 
L 339.007661 183.467437 
L 340.091411 183.467437 
L 340.091411 184.487437 
Q 340.479536 183.894937 341.002661 183.602437 
Q 341.527661 183.309937 342.213911 183.309937 
Q 343.344536 183.309937 343.923911 184.009312 
Q 344.505161 184.708687 344.505161 186.068062 
z
M 346.65438 183.467437 
L 347.732505 183.467437 
L 347.732505 190.029937 
L 346.65438 190.029937 
L 346.65438 183.467437 
z
M 346.65438 180.911812 
L 347.732505 180.911812 
L 347.732505 182.278687 
L 346.65438 182.278687 
L 346.65438 180.911812 
z
M 351.218364 182.254312 
L 351.218364 185.541187 
L 352.707114 185.541187 
Q 353.533989 185.541187 353.983989 185.113687 
Q 354.435864 184.686187 354.435864 183.894937 
Q 354.435864 183.109312 353.983989 182.681812 
Q 353.533989 182.254312 352.707114 182.254312 
L 351.218364 182.254312 
z
M 350.035239 181.281187 
L 352.707114 181.281187 
Q 354.178989 181.281187 354.930864 181.946812 
Q 355.684614 182.612437 355.684614 183.894937 
Q 355.684614 185.190562 354.930864 185.852437 
Q 354.178989 186.514312 352.707114 186.514312 
L 351.218364 186.514312 
L 351.218364 190.029937 
L 350.035239 190.029937 
L 350.035239 181.281187 
z
M 360.817192 184.474312 
Q 360.635317 184.369312 360.421567 184.320562 
Q 360.207817 184.269937 359.950942 184.269937 
Q 359.035942 184.269937 358.546567 184.864312 
Q 358.057192 185.458687 358.057192 186.572437 
L 358.057192 190.029937 
L 356.973442 190.029937 
L 356.973442 183.467437 
L 358.057192 183.467437 
L 358.057192 184.487437 
Q 358.398442 183.889312 358.942192 183.600562 
Q 359.487817 183.309937 360.267817 183.309937 
Q 360.378442 183.309937 360.513442 183.324937 
Q 360.648442 183.338062 360.811567 183.368062 
L 360.817192 184.474312 
z
M 364.220786 184.223062 
Q 363.354536 184.223062 362.850161 184.899937 
Q 362.345786 185.576812 362.345786 186.754312 
Q 362.345786 187.931812 362.846411 188.608687 
Q 363.348911 189.285562 364.220786 189.285562 
Q 365.083286 189.285562 365.585786 188.606812 
Q 366.090161 187.926187 366.090161 186.754312 
Q 366.090161 185.588062 365.585786 184.905562 
Q 365.083286 184.223062 364.220786 184.223062 
z
M 364.220786 183.309937 
Q 365.627036 183.309937 366.429536 184.224937 
Q 367.233911 185.138062 367.233911 186.754312 
Q 367.233911 188.364937 366.429536 189.283687 
Q 365.627036 190.200562 364.220786 190.200562 
Q 362.808911 190.200562 362.008286 189.283687 
Q 361.209536 188.364937 361.209536 186.754312 
Q 361.209536 185.138062 362.008286 184.224937 
Q 362.808911 183.309937 364.220786 183.309937 
z
M 370.086958 181.603687 
L 370.086958 183.467437 
L 372.306958 183.467437 
L 372.306958 184.305562 
L 370.086958 184.305562 
L 370.086958 187.868062 
Q 370.086958 188.670562 370.306333 188.899312 
Q 370.525708 189.128062 371.200708 189.128062 
L 372.306958 189.128062 
L 372.306958 190.029937 
L 371.200708 190.029937 
Q 369.951958 190.029937 369.477583 189.564937 
Q 369.003208 189.098062 369.003208 187.868062 
L 369.003208 184.305562 
L 368.211958 184.305562 
L 368.211958 183.467437 
L 369.003208 183.467437 
L 369.003208 181.603687 
L 370.086958 181.603687 
z
M 374.000786 188.541187 
L 375.236411 188.541187 
L 375.236411 190.029937 
L 374.000786 190.029937 
L 374.000786 188.541187 
z
M 374.000786 183.825562 
L 375.236411 183.825562 
L 375.236411 185.312437 
L 374.000786 185.312437 
L 374.000786 183.825562 
z
M 378.99813 182.254312 
L 378.99813 185.541187 
L 380.48688 185.541187 
Q 381.313755 185.541187 381.763755 185.113687 
Q 382.21563 184.686187 382.21563 183.894937 
Q 382.21563 183.109312 381.763755 182.681812 
Q 381.313755 182.254312 380.48688 182.254312 
L 378.99813 182.254312 
z
M 377.815005 181.281187 
L 380.48688 181.281187 
Q 381.958755 181.281187 382.71063 181.946812 
Q 383.46438 182.612437 383.46438 183.894937 
Q 383.46438 185.190562 382.71063 185.852437 
Q 381.958755 186.514312 380.48688 186.514312 
L 378.99813 186.514312 
L 378.99813 190.029937 
L 377.815005 190.029937 
L 377.815005 181.281187 
z
M 387.687583 182.061187 
Q 386.774458 182.061187 386.313208 182.961187 
Q 385.853833 183.859312 385.853833 185.664937 
Q 385.853833 187.463062 386.313208 188.363062 
Q 386.774458 189.263062 387.687583 189.263062 
Q 388.608208 189.263062 389.067583 188.363062 
Q 389.528833 187.463062 389.528833 185.664937 
Q 389.528833 183.859312 389.067583 182.961187 
Q 388.608208 182.061187 387.687583 182.061187 
z
M 387.687583 181.123687 
Q 389.159458 181.123687 389.935708 182.288062 
Q 390.711958 183.450562 390.711958 185.664937 
Q 390.711958 187.873687 389.935708 189.038062 
Q 389.159458 190.200562 387.687583 190.200562 
Q 386.217583 190.200562 385.441333 189.038062 
Q 384.665083 187.873687 384.665083 185.664937 
Q 384.665083 183.450562 385.441333 182.288062 
Q 386.217583 181.123687 387.687583 181.123687 
z
M 395.322348 185.874937 
Q 394.478598 185.874937 393.994848 186.326812 
Q 393.512973 186.778687 393.512973 187.568062 
Q 393.512973 188.359312 393.994848 188.811187 
Q 394.478598 189.263062 395.322348 189.263062 
Q 396.166098 189.263062 396.651723 188.809312 
Q 397.139223 188.353687 397.139223 187.568062 
Q 397.139223 186.778687 396.655473 186.326812 
Q 396.173598 185.874937 395.322348 185.874937 
z
M 394.139223 185.372437 
Q 393.377973 185.184937 392.952348 184.663687 
Q 392.528598 184.140562 392.528598 183.390562 
Q 392.528598 182.342437 393.274848 181.733062 
Q 394.022973 181.123687 395.322348 181.123687 
Q 396.629223 181.123687 397.373598 181.733062 
Q 398.117973 182.342437 398.117973 183.390562 
Q 398.117973 184.140562 397.692348 184.663687 
Q 397.268598 185.184937 396.512973 185.372437 
Q 397.367973 185.571187 397.844223 186.152437 
Q 398.322348 186.731812 398.322348 187.568062 
Q 398.322348 188.841187 397.546098 189.521812 
Q 396.769848 190.200562 395.322348 190.200562 
Q 393.876723 190.200562 393.098598 189.521812 
Q 392.322348 188.841187 392.322348 187.568062 
Q 392.322348 186.731812 392.802348 186.152437 
Q 393.284223 185.571187 394.139223 185.372437 
z
M 393.706098 183.503062 
Q 393.706098 184.181812 394.129848 184.562437 
Q 394.555473 184.943062 395.322348 184.943062 
Q 396.085473 184.943062 396.514848 184.562437 
Q 396.946098 184.181812 396.946098 183.503062 
Q 396.946098 182.822437 396.514848 182.441812 
Q 396.085473 182.061187 395.322348 182.061187 
Q 394.555473 182.061187 394.129848 182.441812 
Q 393.706098 182.822437 393.706098 183.503062 
z
M 401.445864 189.034312 
L 405.576489 189.034312 
L 405.576489 190.029937 
L 400.022739 190.029937 
L 400.022739 189.034312 
Q 400.695864 188.336812 401.858364 187.163062 
Q 403.022739 185.987437 403.320864 185.646187 
Q 403.888989 185.008687 404.113989 184.566187 
Q 404.340864 184.123687 404.340864 183.696187 
Q 404.340864 182.998687 403.851489 182.559937 
Q 403.362114 182.119312 402.576489 182.119312 
Q 402.019614 182.119312 401.400864 182.312437 
Q 400.783989 182.505562 400.080864 182.899312 
L 400.080864 181.703062 
Q 400.795239 181.416187 401.415864 181.269937 
Q 402.038364 181.123687 402.553989 181.123687 
Q 403.913364 181.123687 404.721489 181.804312 
Q 405.529614 182.483062 405.529614 183.619312 
Q 405.529614 184.159312 405.327114 184.643062 
Q 405.126489 185.124937 404.592114 185.781187 
Q 404.445864 185.951812 403.660239 186.763687 
Q 402.876489 187.575562 401.445864 189.034312 
z
M 411.647505 185.312437 
Q 412.49688 185.494312 412.97313 186.069937 
Q 413.451255 186.643687 413.451255 187.487437 
Q 413.451255 188.781187 412.56063 189.491812 
Q 411.670005 190.200562 410.02938 190.200562 
Q 409.480005 190.200562 408.89688 190.091812 
Q 408.313755 189.983062 407.69313 189.765562 
L 407.69313 188.623687 
Q 408.18438 188.910562 408.76938 189.056812 
Q 409.356255 189.203062 409.99563 189.203062 
Q 411.107505 189.203062 411.69063 188.764312 
Q 412.273755 188.325562 412.273755 187.487437 
Q 412.273755 186.713062 411.73188 186.278062 
Q 411.190005 185.841187 410.22438 185.841187 
L 409.20438 185.841187 
L 409.20438 184.868062 
L 410.271255 184.868062 
Q 411.14313 184.868062 411.606255 184.519312 
Q 412.06938 184.170562 412.06938 183.514312 
Q 412.06938 182.841187 411.591255 182.481187 
Q 411.115005 182.119312 410.22438 182.119312 
Q 409.73688 182.119312 409.180005 182.226187 
Q 408.62313 182.331187 407.95563 182.552437 
L 407.95563 181.498687 
Q 408.63063 181.311187 409.21938 181.217437 
Q 409.80813 181.123687 410.32938 181.123687 
Q 411.677505 181.123687 412.461255 181.736812 
Q 413.24688 182.348062 413.24688 183.390562 
Q 413.24688 184.118062 412.83063 184.618687 
Q 412.41438 185.119312 411.647505 185.312437 
z
M 415.70852 181.281187 
L 420.35477 181.281187 
L 420.35477 182.278687 
L 416.79227 182.278687 
L 416.79227 184.421812 
Q 417.049145 184.333687 417.30602 184.290562 
Q 417.56477 184.247437 417.82352 184.247437 
Q 419.287895 184.247437 420.142895 185.049937 
Q 420.99977 185.852437 420.99977 187.223062 
Q 420.99977 188.634937 420.120395 189.418687 
Q 419.24102 190.200562 417.641645 190.200562 
Q 417.090395 190.200562 416.51852 190.106812 
Q 415.94852 190.013062 415.339145 189.825562 
L 415.339145 188.634937 
Q 415.86602 188.921812 416.42852 189.062437 
Q 416.99102 189.203062 417.61727 189.203062 
Q 418.631645 189.203062 419.22227 188.670562 
Q 419.81477 188.138062 419.81477 187.223062 
Q 419.81477 186.309937 419.22227 185.777437 
Q 418.631645 185.243062 417.61727 185.243062 
Q 417.142895 185.243062 416.670395 185.348062 
Q 416.19977 185.453062 415.70852 185.676187 
L 415.70852 181.281187 
z
" clip-path="url(#p921a126501)" style="fill: #ffffff"/>
    <path d="M 356.921645 195.691687 
L 356.921645 198.978562 
L 358.410395 198.978562 
Q 359.23727 198.978562 359.68727 198.551062 
Q 360.139145 198.123562 360.139145 197.332312 
Q 360.139145 196.546687 359.68727 196.119187 
Q 359.23727 195.691687 358.410395 195.691687 
L 356.921645 195.691687 
z
M 355.73852 194.718562 
L 358.410395 194.718562 
Q 359.88227 194.718562 360.634145 195.384187 
Q 361.387895 196.049812 361.387895 197.332312 
Q 361.387895 198.627937 360.634145 199.289812 
Q 359.88227 199.951687 358.410395 199.951687 
L 356.921645 199.951687 
L 356.921645 203.467312 
L 355.73852 203.467312 
L 355.73852 194.718562 
z
M 366.520473 197.911687 
Q 366.338598 197.806687 366.124848 197.757937 
Q 365.911098 197.707312 365.654223 197.707312 
Q 364.739223 197.707312 364.249848 198.301687 
Q 363.760473 198.896062 363.760473 200.009812 
L 363.760473 203.467312 
L 362.676723 203.467312 
L 362.676723 196.904812 
L 363.760473 196.904812 
L 363.760473 197.924812 
Q 364.101723 197.326687 364.645473 197.037937 
Q 365.191098 196.747312 365.971098 196.747312 
Q 366.081723 196.747312 366.216723 196.762312 
Q 366.351723 196.775437 366.514848 196.805437 
L 366.520473 197.911687 
z
M 369.924067 197.660437 
Q 369.057817 197.660437 368.553442 198.337312 
Q 368.049067 199.014187 368.049067 200.191687 
Q 368.049067 201.369187 368.549692 202.046062 
Q 369.052192 202.722937 369.924067 202.722937 
Q 370.786567 202.722937 371.289067 202.044187 
Q 371.793442 201.363562 371.793442 200.191687 
Q 371.793442 199.025437 371.289067 198.342937 
Q 370.786567 197.660437 369.924067 197.660437 
z
M 369.924067 196.747312 
Q 371.330317 196.747312 372.132817 197.662312 
Q 372.937192 198.575437 372.937192 200.191687 
Q 372.937192 201.802312 372.132817 202.721062 
Q 371.330317 203.637937 369.924067 203.637937 
Q 368.512192 203.637937 367.711567 202.721062 
Q 366.912817 201.802312 366.912817 200.191687 
Q 366.912817 198.575437 367.711567 197.662312 
Q 368.512192 196.747312 369.924067 196.747312 
z
M 375.790239 195.041062 
L 375.790239 196.904812 
L 378.010239 196.904812 
L 378.010239 197.742937 
L 375.790239 197.742937 
L 375.790239 201.305437 
Q 375.790239 202.107937 376.009614 202.336687 
Q 376.228989 202.565437 376.903989 202.565437 
L 378.010239 202.565437 
L 378.010239 203.467312 
L 376.903989 203.467312 
Q 375.655239 203.467312 375.180864 203.002312 
Q 374.706489 202.535437 374.706489 201.305437 
L 374.706489 197.742937 
L 373.915239 197.742937 
L 373.915239 196.904812 
L 374.706489 196.904812 
L 374.706489 195.041062 
L 375.790239 195.041062 
z
M 385.042192 199.916062 
L 385.042192 200.442937 
L 380.084692 200.442937 
Q 380.155942 201.556687 380.755942 202.139812 
Q 381.355942 202.722937 382.428442 202.722937 
Q 383.049067 202.722937 383.632192 202.571062 
Q 384.215317 202.419187 384.790942 202.113562 
L 384.790942 203.133562 
Q 384.209692 203.379187 383.600317 203.508562 
Q 382.990942 203.637937 382.364692 203.637937 
Q 380.793442 203.637937 379.876567 202.724812 
Q 378.959692 201.809812 378.959692 200.249812 
Q 378.959692 198.639187 379.829692 197.694187 
Q 380.699692 196.747312 382.177192 196.747312 
Q 383.500942 196.747312 384.271567 197.600437 
Q 385.042192 198.451687 385.042192 199.916062 
z
M 383.964067 199.599187 
Q 383.952817 198.716062 383.469067 198.189187 
Q 382.985317 197.660437 382.188442 197.660437 
Q 381.286567 197.660437 380.744692 198.170437 
Q 380.202817 198.680437 380.120317 199.606687 
L 383.964067 199.599187 
z
M 386.811255 196.904812 
L 387.88938 196.904812 
L 387.88938 203.467312 
L 386.811255 203.467312 
L 386.811255 196.904812 
z
M 386.811255 194.349187 
L 387.88938 194.349187 
L 387.88938 195.716062 
L 386.811255 195.716062 
L 386.811255 194.349187 
z
M 395.601489 199.505437 
L 395.601489 203.467312 
L 394.523364 203.467312 
L 394.523364 199.541062 
Q 394.523364 198.609187 394.159614 198.147937 
Q 393.795864 197.684812 393.070239 197.684812 
Q 392.196489 197.684812 391.692114 198.241687 
Q 391.187739 198.796687 391.187739 199.758562 
L 391.187739 203.467312 
L 390.103989 203.467312 
L 390.103989 196.904812 
L 391.187739 196.904812 
L 391.187739 197.924812 
Q 391.575864 197.332312 392.098989 197.039812 
Q 392.623989 196.747312 393.310239 196.747312 
Q 394.440864 196.747312 395.020239 197.446687 
Q 395.601489 198.146062 395.601489 199.505437 
z
" clip-path="url(#p921a126501)" style="fill: #ffffff; stroke: #000000; stroke-width: 2"/>
    <path d="M 356.921645 195.691687 
L 356.921645 198.978562 
L 358.410395 198.978562 
Q 359.23727 198.978562 359.68727 198.551062 
Q 360.139145 198.123562 360.139145 197.332312 
Q 360.139145 196.546687 359.68727 196.119187 
Q 359.23727 195.691687 358.410395 195.691687 
L 356.921645 195.691687 
z
M 355.73852 194.718562 
L 358.410395 194.718562 
Q 359.88227 194.718562 360.634145 195.384187 
Q 361.387895 196.049812 361.387895 197.332312 
Q 361.387895 198.627937 360.634145 199.289812 
Q 359.88227 199.951687 358.410395 199.951687 
L 356.921645 199.951687 
L 356.921645 203.467312 
L 355.73852 203.467312 
L 355.73852 194.718562 
z
M 366.520473 197.911687 
Q 366.338598 197.806687 366.124848 197.757937 
Q 365.911098 197.707312 365.654223 197.707312 
Q 364.739223 197.707312 364.249848 198.301687 
Q 363.760473 198.896062 363.760473 200.009812 
L 363.760473 203.467312 
L 362.676723 203.467312 
L 362.676723 196.904812 
L 363.760473 196.904812 
L 363.760473 197.924812 
Q 364.101723 197.326687 364.645473 197.037937 
Q 365.191098 196.747312 365.971098 196.747312 
Q 366.081723 196.747312 366.216723 196.762312 
Q 366.351723 196.775437 366.514848 196.805437 
L 366.520473 197.911687 
z
M 369.924067 197.660437 
Q 369.057817 197.660437 368.553442 198.337312 
Q 368.049067 199.014187 368.049067 200.191687 
Q 368.049067 201.369187 368.549692 202.046062 
Q 369.052192 202.722937 369.924067 202.722937 
Q 370.786567 202.722937 371.289067 202.044187 
Q 371.793442 201.363562 371.793442 200.191687 
Q 371.793442 199.025437 371.289067 198.342937 
Q 370.786567 197.660437 369.924067 197.660437 
z
M 369.924067 196.747312 
Q 371.330317 196.747312 372.132817 197.662312 
Q 372.937192 198.575437 372.937192 200.191687 
Q 372.937192 201.802312 372.132817 202.721062 
Q 371.330317 203.637937 369.924067 203.637937 
Q 368.512192 203.637937 367.711567 202.721062 
Q 366.912817 201.802312 366.912817 200.191687 
Q 366.912817 198.575437 367.711567 197.662312 
Q 368.512192 196.747312 369.924067 196.747312 
z
M 375.790239 195.041062 
L 375.790239 196.904812 
L 378.010239 196.904812 
L 378.010239 197.742937 
L 375.790239 197.742937 
L 375.790239 201.305437 
Q 375.790239 202.107937 376.009614 202.336687 
Q 376.228989 202.565437 376.903989 202.565437 
L 378.010239 202.565437 
L 378.010239 203.467312 
L 376.903989 203.467312 
Q 375.655239 203.467312 375.180864 203.002312 
Q 374.706489 202.535437 374.706489 201.305437 
L 374.706489 197.742937 
L 373.915239 197.742937 
L 373.915239 196.904812 
L 374.706489 196.904812 
L 374.706489 195.041062 
L 375.790239 195.041062 
z
M 385.042192 199.916062 
L 385.042192 200.442937 
L 380.084692 200.442937 
Q 380.155942 201.556687 380.755942 202.139812 
Q 381.355942 202.722937 382.428442 202.722937 
Q 383.049067 202.722937 383.632192 202.571062 
Q 384.215317 202.419187 384.790942 202.113562 
L 384.790942 203.133562 
Q 384.209692 203.379187 383.600317 203.508562 
Q 382.990942 203.637937 382.364692 203.637937 
Q 380.793442 203.637937 379.876567 202.724812 
Q 378.959692 201.809812 378.959692 200.249812 
Q 378.959692 198.639187 379.829692 197.694187 
Q 380.699692 196.747312 382.177192 196.747312 
Q 383.500942 196.747312 384.271567 197.600437 
Q 385.042192 198.451687 385.042192 199.916062 
z
M 383.964067 199.599187 
Q 383.952817 198.716062 383.469067 198.189187 
Q 382.985317 197.660437 382.188442 197.660437 
Q 381.286567 197.660437 380.744692 198.170437 
Q 380.202817 198.680437 380.120317 199.606687 
L 383.964067 199.599187 
z
M 386.811255 196.904812 
L 387.88938 196.904812 
L 387.88938 203.467312 
L 386.811255 203.467312 
L 386.811255 196.904812 
z
M 386.811255 194.349187 
L 387.88938 194.349187 
L 387.88938 195.716062 
L 386.811255 195.716062 
L 386.811255 194.349187 
z
M 395.601489 199.505437 
L 395.601489 203.467312 
L 394.523364 203.467312 
L 394.523364 199.541062 
Q 394.523364 198.609187 394.159614 198.147937 
Q 393.795864 197.684812 393.070239 197.684812 
Q 392.196489 197.684812 391.692114 198.241687 
Q 391.187739 198.796687 391.187739 199.758562 
L 391.187739 203.467312 
L 390.103989 203.467312 
L 390.103989 196.904812 
L 391.187739 196.904812 
L 391.187739 197.924812 
Q 391.575864 197.332312 392.098989 197.039812 
Q 392.623989 196.747312 393.310239 196.747312 
Q 394.440864 196.747312 395.020239 197.446687 
Q 395.601489 198.146062 395.601489 199.505437 
z
" clip-path="url(#p921a126501)" style="fill: #ffffff"/>
   </g>
   <g id="text_5">
    <g clip-path="url(#p921a126501)">
     <!-- spironolactone -->
     <g transform="translate(45.731498 169.873875)scale(0.12 -0.12)">
      <use xlink:href="#DejaVuSans-73"/>
      <use xlink:href="#DejaVuSans-70" x="52.099609"/>
      <use xlink:href="#DejaVuSans-69" x="115.576172"/>
      <use xlink:href="#DejaVuSans-72" x="143.359375"/>
      <use xlink:href="#DejaVuSans-6f" x="182.222656"/>
      <use xlink:href="#DejaVuSans-6e" x="243.404297"/>
      <use xlink:href="#DejaVuSans-6f" x="306.783203"/>
      <use xlink:href="#DejaVuSans-6c" x="367.964844"/>
      <use xlink:href="#DejaVuSans-61" x="395.748047"/>
      <use xlink:href="#DejaVuSans-63" x="457.027344"/>
      <use xlink:href="#DejaVuSans-74" x="512.007812"/>
      <use xlink:href="#DejaVuSans-6f" x="551.216797"/>
      <use xlink:href="#DejaVuSans-6e" x="612.398438"/>
      <use xlink:href="#DejaVuSans-65" x="675.777344"/>
     </g>
    </g>
    <g clip-path="url(#p921a126501)">
     <!-- MESH:D013148 -->
     <g transform="translate(43.134623 183.31125)scale(0.12 -0.12)">
      <defs>
       <path id="DejaVuSans-4d" d="M 628 4666 
L 1569 4666 
L 2759 1491 
L 3956 4666 
L 4897 4666 
L 4897 0 
L 4281 0 
L 4281 4097 
L 3078 897 
L 2444 897 
L 1241 4097 
L 1241 0 
L 628 0 
L 628 4666 
z
" transform="scale(0.015625)"/>
       <path id="DejaVuSans-45" d="M 628 4666 
L 3578 4666 
L 3578 4134 
L 1259 4134 
L 1259 2753 
L 3481 2753 
L 3481 2222 
L 1259 2222 
L 1259 531 
L 3634 531 
L 3634 0 
L 628 0 
L 628 4666 
z
" transform="scale(0.015625)"/>
       <path id="DejaVuSans-53" d="M 3425 4513 
L 3425 3897 
Q 3066 4069 2747 4153 
Q 2428 4238 2131 4238 
Q 1616 4238 1336 4038 
Q 1056 3838 1056 3469 
Q 1056 3159 1242 3001 
Q 1428 2844 1947 2747 
L 2328 2669 
Q 3034 2534 3370 2195 
Q 3706 1856 3706 1288 
Q 3706 609 3251 259 
Q 2797 -91 1919 -91 
Q 1588 -91 1214 -16 
Q 841 59 441 206 
L 441 856 
Q 825 641 1194 531 
Q 1563 422 1919 422 
Q 2459 422 2753 634 
Q 3047 847 3047 1241 
Q 3047 1584 2836 1778 
Q 2625 1972 2144 2069 
L 1759 2144 
Q 1053 2284 737 2584 
Q 422 2884 422 3419 
Q 422 4038 858 4394 
Q 1294 4750 2059 4750 
Q 2388 4750 2728 4690 
Q 3069 4631 3425 4513 
z
" transform="scale(0.015625)"/>
       <path id="DejaVuSans-48" d="M 628 4666 
L 1259 4666 
L 1259 2753 
L 3553 2753 
L 3553 4666 
L 4184 4666 
L 4184 0 
L 3553 0 
L 3553 2222 
L 1259 2222 
L 1259 0 
L 628 0 
L 628 4666 
z
" transform="scale(0.015625)"/>
       <path id="DejaVuSans-3a" d="M 750 794 
L 1409 794 
L 1409 0 
L 750 0 
L 750 794 
z
M 750 3309 
L 1409 3309 
L 1409 2516 
L 750 2516 
L 750 3309 
z
" transform="scale(0.015625)"/>
       <path id="DejaVuSans-44" d="M 1259 4147 
L 1259 519 
L 2022 519 
Q 2988 519 3436 956 
Q 3884 1394 3884 2338 
Q 3884 3275 3436 3711 
Q 2988 4147 2022 4147 
L 1259 4147 
z
M 628 4666 
L 1925 4666 
Q 3281 4666 3915 4102 
Q 4550 3538 4550 2338 
Q 4550 1131 3912 565 
Q 3275 0 1925 0 
L 628 0 
L 628 4666 
z
" transform="scale(0.015625)"/>
       <path id="DejaVuSans-30" d="M 2034 4250 
Q 1547 4250 1301 3770 
Q 1056 3291 1056 2328 
Q 1056 1369 1301 889 
Q 1547 409 2034 409 
Q 2525 409 2770 889 
Q 3016 1369 3016 2328 
Q 3016 3291 2770 3770 
Q 2525 4250 2034 4250 
z
M 2034 4750 
Q 2819 4750 3233 4129 
Q 3647 3509 3647 2328 
Q 3647 1150 3233 529 
Q 2819 -91 2034 -91 
Q 1250 -91 836 529 
Q 422 1150 422 2328 
Q 422 3509 836 4129 
Q 1250 4750 2034 4750 
z
" transform="scale(0.015625)"/>
       <path id="DejaVuSans-31" d="M 794 531 
L 1825 531 
L 1825 4091 
L 703 3866 
L 703 4441 
L 1819 4666 
L 2450 4666 
L 2450 531 
L 3481 531 
L 3481 0 
L 794 0 
L 794 531 
z
" transform="scale(0.015625)"/>
       <path id="DejaVuSans-33" d="M 2597 2516 
Q 3050 2419 3304 2112 
Q 3559 1806 3559 1356 
Q 3559 666 3084 287 
Q 2609 -91 1734 -91 
Q 1441 -91 1130 -33 
Q 819 25 488 141 
L 488 750 
Q 750 597 1062 519 
Q 1375 441 1716 441 
Q 2309 441 2620 675 
Q 2931 909 2931 1356 
Q 2931 1769 2642 2001 
Q 2353 2234 1838 2234 
L 1294 2234 
L 1294 2753 
L 1863 2753 
Q 2328 2753 2575 2939 
Q 2822 3125 2822 3475 
Q 2822 3834 2567 4026 
Q 2313 4219 1838 4219 
Q 1578 4219 1281 4162 
Q 984 4106 628 3988 
L 628 4550 
Q 988 4650 1302 4700 
Q 1616 4750 1894 4750 
Q 2613 4750 3031 4423 
Q 3450 4097 3450 3541 
Q 3450 3153 3228 2886 
Q 3006 2619 2597 2516 
z
" transform="scale(0.015625)"/>
       <path id="DejaVuSans-34" d="M 2419 4116 
L 825 1625 
L 2419 1625 
L 2419 4116 
z
M 2253 4666 
L 3047 4666 
L 3047 1625 
L 3713 1625 
L 3713 1100 
L 3047 1100 
L 3047 0 
L 2419 0 
L 2419 1100 
L 313 1100 
L 313 1709 
L 2253 4666 
z
" transform="scale(0.015625)"/>
       <path id="DejaVuSans-38" d="M 2034 2216 
Q 1584 2216 1326 1975 
Q 1069 1734 1069 1313 
Q 1069 891 1326 650 
Q 1584 409 2034 409 
Q 2484 409 2743 651 
Q 3003 894 3003 1313 
Q 3003 1734 2745 1975 
Q 2488 2216 2034 2216 
z
M 1403 2484 
Q 997 2584 770 2862 
Q 544 3141 544 3541 
Q 544 4100 942 4425 
Q 1341 4750 2034 4750 
Q 2731 4750 3128 4425 
Q 3525 4100 3525 3541 
Q 3525 3141 3298 2862 
Q 3072 2584 2669 2484 
Q 3125 2378 3379 2068 
Q 3634 1759 3634 1313 
Q 3634 634 3220 271 
Q 2806 -91 2034 -91 
Q 1263 -91 848 271 
Q 434 634 434 1313 
Q 434 1759 690 2068 
Q 947 2378 1403 2484 
z
M 1172 3481 
Q 1172 3119 1398 2916 
Q 1625 2713 2034 2713 
Q 2441 2713 2670 2916 
Q 2900 3119 2900 3481 
Q 2900 3844 2670 4047 
Q 2441 4250 2034 4250 
Q 1625 4250 1398 4047 
Q 1172 3844 1172 3481 
z
" transform="scale(0.015625)"/>
      </defs>
      <use xlink:href="#DejaVuSans-4d"/>
      <use xlink:href="#DejaVuSans-45" x="86.279297"/>
      <use xlink:href="#DejaVuSans-53" x="149.462891"/>
      <use xlink:href="#DejaVuSans-48" x="212.939453"/>
      <use xlink:href="#DejaVuSans-3a" x="288.134766"/>
      <use xlink:href="#DejaVuSans-44" x="321.826172"/>
      <use xlink:href="#DejaVuSans-30" x="398.828125"/>
      <use xlink:href="#DejaVuSans-31" x="462.451172"/>
      <use xlink:href="#DejaVuSans-33" x="526.074219"/>
      <use xlink:href="#DejaVuSans-31" x="589.697266"/>
      <use xlink:href="#DejaVuSans-34" x="653.320312"/>
      <use xlink:href="#DejaVuSans-38" x="716.943359"/>
     </g>
    </g>
    <g clip-path="url(#p921a126501)">
     <!-- Drug -->
     <g transform="translate(75.272123 196.748625)scale(0.12 -0.12)">
      <use xlink:href="#DejaVuSans-44"/>
      <use xlink:href="#DejaVuSans-72" x="77.001953"/>
      <use xlink:href="#DejaVuSans-75" x="118.115234"/>
      <use xlink:href="#DejaVuSans-67" x="181.494141"/>
     </g>
    </g>
   </g>
   <g id="text_6">
    <g clip-path="url(#p921a126501)">
     <!-- aldosterone -->
     <g transform="translate(625.71898 169.873875)scale(0.12 -0.12)">
      <use xlink:href="#DejaVuSans-61"/>
      <use xlink:href="#DejaVuSans-6c" x="61.279297"/>
      <use xlink:href="#DejaVuSans-64" x="89.0625"/>
      <use xlink:href="#DejaVuSans-6f" x="152.539062"/>
      <use xlink:href="#DejaVuSans-73" x="213.720703"/>
      <use xlink:href="#DejaVuSans-74" x="265.820312"/>
      <use xlink:href="#DejaVuSans-65" x="305.029297"/>
      <use xlink:href="#DejaVuSans-72" x="366.552734"/>
      <use xlink:href="#DejaVuSans-6f" x="405.416016"/>
      <use xlink:href="#DejaVuSans-6e" x="466.597656"/>
      <use xlink:href="#DejaVuSans-65" x="529.976562"/>
     </g>
    </g>
    <g clip-path="url(#p921a126501)">
     <!-- MESH:D000450 -->
     <g transform="translate(614.374292 183.31125)scale(0.12 -0.12)">
      <defs>
       <path id="DejaVuSans-35" d="M 691 4666 
L 3169 4666 
L 3169 4134 
L 1269 4134 
L 1269 2991 
Q 1406 3038 1543 3061 
Q 1681 3084 1819 3084 
Q 2600 3084 3056 2656 
Q 3513 2228 3513 1497 
Q 3513 744 3044 326 
Q 2575 -91 1722 -91 
Q 1428 -91 1123 -41 
Q 819 9 494 109 
L 494 744 
Q 775 591 1075 516 
Q 1375 441 1709 441 
Q 2250 441 2565 725 
Q 2881 1009 2881 1497 
Q 2881 1984 2565 2268 
Q 2250 2553 1709 2553 
Q 1456 2553 1204 2497 
Q 953 2441 691 2322 
L 691 4666 
z
" transform="scale(0.015625)"/>
      </defs>
      <use xlink:href="#DejaVuSans-4d"/>
      <use xlink:href="#DejaVuSans-45" x="86.279297"/>
      <use xlink:href="#DejaVuSans-53" x="149.462891"/>
      <use xlink:href="#DejaVuSans-48" x="212.939453"/>
      <use xlink:href="#DejaVuSans-3a" x="288.134766"/>
      <use xlink:href="#DejaVuSans-44" x="321.826172"/>
      <use xlink:href="#DejaVuSans-30" x="398.828125"/>
      <use xlink:href="#DejaVuSans-30" x="462.451172"/>
      <use xlink:href="#DejaVuSans-30" x="526.074219"/>
      <use xlink:href="#DejaVuSans-34" x="589.697266"/>
      <use xlink:href="#DejaVuSans-35" x="653.320312"/>
      <use xlink:href="#DejaVuSans-30" x="716.943359"/>
     </g>
    </g>
    <g clip-path="url(#p921a126501)">
     <!-- ChemicalSubstance -->
     <g transform="translate(602.003042 196.748625)scale(0.12 -0.12)">
      <defs>
       <path id="DejaVuSans-43" d="M 4122 4306 
L 4122 3641 
Q 3803 3938 3442 4084 
Q 3081 4231 2675 4231 
Q 1875 4231 1450 3742 
Q 1025 3253 1025 2328 
Q 1025 1406 1450 917 
Q 1875 428 2675 428 
Q 3081 428 3442 575 
Q 3803 722 4122 1019 
L 4122 359 
Q 3791 134 3420 21 
Q 3050 -91 2638 -91 
Q 1578 -91 968 557 
Q 359 1206 359 2328 
Q 359 3453 968 4101 
Q 1578 4750 2638 4750 
Q 3056 4750 3426 4639 
Q 3797 4528 4122 4306 
z
" transform="scale(0.015625)"/>
       <path id="DejaVuSans-6d" d="M 3328 2828 
Q 3544 3216 3844 3400 
Q 4144 3584 4550 3584 
Q 5097 3584 5394 3201 
Q 5691 2819 5691 2113 
L 5691 0 
L 5113 0 
L 5113 2094 
Q 5113 2597 4934 2840 
Q 4756 3084 4391 3084 
Q 3944 3084 3684 2787 
Q 3425 2491 3425 1978 
L 3425 0 
L 2847 0 
L 2847 2094 
Q 2847 2600 2669 2842 
Q 2491 3084 2119 3084 
Q 1678 3084 1418 2786 
Q 1159 2488 1159 1978 
L 1159 0 
L 581 0 
L 581 3500 
L 1159 3500 
L 1159 2956 
Q 1356 3278 1631 3431 
Q 1906 3584 2284 3584 
Q 2666 3584 2933 3390 
Q 3200 3197 3328 2828 
z
" transform="scale(0.015625)"/>
      </defs>
      <use xlink:href="#DejaVuSans-43"/>
      <use xlink:href="#DejaVuSans-68" x="69.824219"/>
      <use xlink:href="#DejaVuSans-65" x="133.203125"/>
      <use xlink:href="#DejaVuSans-6d" x="194.726562"/>
      <use xlink:href="#DejaVuSans-69" x="292.138672"/>
      <use xlink:href="#DejaVuSans-63" x="319.921875"/>
      <use xlink:href="#DejaVuSans-61" x="374.902344"/>
      <use xlink:href="#DejaVuSans-6c" x="436.181641"/>
      <use xlink:href="#DejaVuSans-53" x="463.964844"/>
      <use xlink:href="#DejaVuSans-75" x="527.441406"/>
      <use xlink:href="#DejaVuSans-62" x="590.820312"/>
      <use xlink:href="#DejaVuSans-73" x="654.296875"/>
      <use xlink:href="#DejaVuSans-74" x="706.396484"/>
      <use xlink:href="#DejaVuSans-61" x="745.605469"/>
      <use xlink:href="#DejaVuSans-6e" x="806.884766"/>
      <use xlink:href="#DejaVuSans-63" x="870.263672"/>
      <use xlink:href="#DejaVuSans-65" x="925.244141"/>
     </g>
    </g>
   </g>
   <g id="text_7">
    <g clip-path="url(#p921a126501)">
     <!-- Aldosteronism -->
     <g transform="translate(903.966315 169.873875)scale(0.12 -0.12)">
      <defs>
       <path id="DejaVuSans-41" d="M 2188 4044 
L 1331 1722 
L 3047 1722 
L 2188 4044 
z
M 1831 4666 
L 2547 4666 
L 4325 0 
L 3669 0 
L 3244 1197 
L 1141 1197 
L 716 0 
L 50 0 
L 1831 4666 
z
" transform="scale(0.015625)"/>
      </defs>
      <use xlink:href="#DejaVuSans-41"/>
      <use xlink:href="#DejaVuSans-6c" x="68.408203"/>
      <use xlink:href="#DejaVuSans-64" x="96.191406"/>
      <use xlink:href="#DejaVuSans-6f" x="159.667969"/>
      <use xlink:href="#DejaVuSans-73" x="220.849609"/>
      <use xlink:href="#DejaVuSans-74" x="272.949219"/>
      <use xlink:href="#DejaVuSans-65" x="312.158203"/>
      <use xlink:href="#DejaVuSans-72" x="373.681641"/>
      <use xlink:href="#DejaVuSans-6f" x="412.544922"/>
      <use xlink:href="#DejaVuSans-6e" x="473.726562"/>
      <use xlink:href="#DejaVuSans-69" x="537.105469"/>
      <use xlink:href="#DejaVuSans-73" x="564.888672"/>
      <use xlink:href="#DejaVuSans-6d" x="616.988281"/>
     </g>
    </g>
    <g clip-path="url(#p921a126501)">
     <!-- MESH:D006929 -->
     <g transform="translate(899.994127 183.31125)scale(0.12 -0.12)">
      <defs>
       <path id="DejaVuSans-36" d="M 2113 2584 
Q 1688 2584 1439 2293 
Q 1191 2003 1191 1497 
Q 1191 994 1439 701 
Q 1688 409 2113 409 
Q 2538 409 2786 701 
Q 3034 994 3034 1497 
Q 3034 2003 2786 2293 
Q 2538 2584 2113 2584 
z
M 3366 4563 
L 3366 3988 
Q 3128 4100 2886 4159 
Q 2644 4219 2406 4219 
Q 1781 4219 1451 3797 
Q 1122 3375 1075 2522 
Q 1259 2794 1537 2939 
Q 1816 3084 2150 3084 
Q 2853 3084 3261 2657 
Q 3669 2231 3669 1497 
Q 3669 778 3244 343 
Q 2819 -91 2113 -91 
Q 1303 -91 875 529 
Q 447 1150 447 2328 
Q 447 3434 972 4092 
Q 1497 4750 2381 4750 
Q 2619 4750 2861 4703 
Q 3103 4656 3366 4563 
z
" transform="scale(0.015625)"/>
       <path id="DejaVuSans-39" d="M 703 97 
L 703 672 
Q 941 559 1184 500 
Q 1428 441 1663 441 
Q 2288 441 2617 861 
Q 2947 1281 2994 2138 
Q 2813 1869 2534 1725 
Q 2256 1581 1919 1581 
Q 1219 1581 811 2004 
Q 403 2428 403 3163 
Q 403 3881 828 4315 
Q 1253 4750 1959 4750 
Q 2769 4750 3195 4129 
Q 3622 3509 3622 2328 
Q 3622 1225 3098 567 
Q 2575 -91 1691 -91 
Q 1453 -91 1209 -44 
Q 966 3 703 97 
z
M 1959 2075 
Q 2384 2075 2632 2365 
Q 2881 2656 2881 3163 
Q 2881 3666 2632 3958 
Q 2384 4250 1959 4250 
Q 1534 4250 1286 3958 
Q 1038 3666 1038 3163 
Q 1038 2656 1286 2365 
Q 1534 2075 1959 2075 
z
" transform="scale(0.015625)"/>
       <path id="DejaVuSans-32" d="M 1228 531 
L 3431 531 
L 3431 0 
L 469 0 
L 469 531 
Q 828 903 1448 1529 
Q 2069 2156 2228 2338 
Q 2531 2678 2651 2914 
Q 2772 3150 2772 3378 
Q 2772 3750 2511 3984 
Q 2250 4219 1831 4219 
Q 1534 4219 1204 4116 
Q 875 4013 500 3803 
L 500 4441 
Q 881 4594 1212 4672 
Q 1544 4750 1819 4750 
Q 2544 4750 2975 4387 
Q 3406 4025 3406 3419 
Q 3406 3131 3298 2873 
Q 3191 2616 2906 2266 
Q 2828 2175 2409 1742 
Q 1991 1309 1228 531 
z
" transform="scale(0.015625)"/>
      </defs>
      <use xlink:href="#DejaVuSans-4d"/>
      <use xlink:href="#DejaVuSans-45" x="86.279297"/>
      <use xlink:href="#DejaVuSans-53" x="149.462891"/>
      <use xlink:href="#DejaVuSans-48" x="212.939453"/>
      <use xlink:href="#DejaVuSans-3a" x="288.134766"/>
      <use xlink:href="#DejaVuSans-44" x="321.826172"/>
      <use xlink:href="#DejaVuSans-30" x="398.828125"/>
      <use xlink:href="#DejaVuSans-30" x="462.451172"/>
      <use xlink:href="#DejaVuSans-36" x="526.074219"/>
      <use xlink:href="#DejaVuSans-39" x="589.697266"/>
      <use xlink:href="#DejaVuSans-32" x="653.320312"/>
      <use xlink:href="#DejaVuSans-39" x="716.943359"/>
     </g>
    </g>
    <g clip-path="url(#p921a126501)">
     <!-- Disease -->
     <g transform="translate(923.231002 196.748625)scale(0.12 -0.12)">
      <use xlink:href="#DejaVuSans-44"/>
      <use xlink:href="#DejaVuSans-69" x="77.001953"/>
      <use xlink:href="#DejaVuSans-73" x="104.785156"/>
      <use xlink:href="#DejaVuSans-65" x="156.884766"/>
      <use xlink:href="#DejaVuSans-61" x="218.408203"/>
      <use xlink:href="#DejaVuSans-73" x="279.6875"/>
      <use xlink:href="#DejaVuSans-65" x="331.787109"/>
     </g>
    </g>
   </g>
  </g>
 </g>
 <defs>
  <clipPath id="p921a126501">
   <rect x="0" y="0" width="1036.8" height="360"/>
  </clipPath>
 </defs>
</svg>
