<?xml version="1.0" encoding="utf-8" standalone="no"?>
<!DOCTYPE svg PUBLIC "-//W3C//DTD SVG 1.1//EN"
  "http://www.w3.org/Graphics/SVG/1.1/DTD/svg11.dtd">
<svg xmlns:xlink="http://www.w3.org/1999/xlink" width="1209.6pt" height="360pt" viewBox="0 0 1209.6 360" xmlns="http://www.w3.org/2000/svg" version="1.1">
 <metadata>
  <rdf:RDF xmlns:dc="http://purl.org/dc/elements/1.1/" xmlns:cc="http://creativecommons.org/ns#" xmlns:rdf="http://www.w3.org/1999/02/22-rdf-syntax-ns#">
   <cc:Work>
    <dc:type rdf:resource="http://purl.org/dc/dcmitype/StillImage"/>
    <dc:date>2023-02-08T08:51:53.330366</dc:date>
    <dc:format>image/svg+xml</dc:format>
    <dc:creator>
     <cc:Agent>
      <dc:title>Matplotlib v3.5.1, https://matplotlib.org/</dc:title>
     </cc:Agent>
    </dc:creator>
   </cc:Work>
  </rdf:RDF>
 </metadata>
 <defs>
  <style type="text/css">*{stroke-linejoin: round; stroke-linecap: butt}</style>
 </defs>
 <g id="figure_1">
  <g id="patch_1">
   <path d="M 0 360 
L 1209.6 360 
L 1209.6 0 
L 0 0 
z
" style="fill: #ffffff"/>
  </g>
  <g id="axes_1">
   <g id="patch_2">
    <path d="M 157.403851 180 
Q 229.923128 180 299.088304 180 
" clip-path="url(#p5360c2339a)" style="fill: none; stroke: #2ca02c; stroke-width: 3; stroke-linecap: round"/>
    <path d="M 295.088304 178 
L 299.088304 180 
L 295.088304 182 
L 295.088304 178 
z
" clip-path="url(#p5360c2339a)" style="fill: #2ca02c; stroke: #2ca02c; stroke-width: 3; stroke-linecap: round"/>
   </g>
   <g id="patch_3">
    <path d="M 407.321206 180 
Q 479.840484 180 549.00566 180 
" clip-path="url(#p5360c2339a)" style="fill: none; stroke: #2ca02c; stroke-width: 3; stroke-linecap: round"/>
    <path d="M 545.00566 178 
L 549.00566 180 
L 545.00566 182 
L 545.00566 178 
z
" clip-path="url(#p5360c2339a)" style="fill: #2ca02c; stroke: #2ca02c; stroke-width: 3; stroke-linecap: round"/>
   </g>
   <g id="patch_4">
    <path d="M 657.238561 180 
Q 729.757839 180 798.923015 180 
" clip-path="url(#p5360c2339a)" style="fill: none; stroke: #2ca02c; stroke-width: 3; stroke-linecap: round"/>
    <path d="M 794.923015 178 
L 798.923015 180 
L 794.923015 182 
L 794.923015 178 
z
" clip-path="url(#p5360c2339a)" style="fill: #2ca02c; stroke: #2ca02c; stroke-width: 3; stroke-linecap: round"/>
   </g>
   <g id="patch_5">
    <path d="M 907.155917 180 
Q 979.675195 180 1048.840371 180 
" clip-path="url(#p5360c2339a)" style="fill: none; stroke: #2ca02c; stroke-width: 3; stroke-linecap: round"/>
    <path d="M 1044.840371 178 
L 1048.840371 180 
L 1044.840371 182 
L 1044.840371 178 
z
" clip-path="url(#p5360c2339a)" style="fill: #2ca02c; stroke: #2ca02c; stroke-width: 3; stroke-linecap: round"/>
   </g>
   <g id="text_1">
    <g id="patch_6">
     <path d="M 204.554436 193.437969 
L 255.293498 193.437969 
Q 258.293498 193.437969 258.293498 190.437969 
L 258.293498 169.562031 
Q 258.293498 166.562031 255.293498 166.562031 
L 204.554436 166.562031 
Q 201.554436 166.562031 201.554436 169.562031 
L 201.554436 190.437969 
Q 201.554436 193.437969 204.554436 193.437969 
z
" clip-path="url(#p5360c2339a)" style="fill: #ffffff; stroke: #ffffff; stroke-linejoin: miter"/>
    </g>
    <g clip-path="url(#p5360c2339a)">
     <!-- decreases -->
     <g transform="translate(204.554436 177.160469)scale(0.1 -0.1)">
      <defs>
       <path id="DejaVuSans-64" d="M 2906 2969 
L 2906 4863 
L 3481 4863 
L 3481 0 
L 2906 0 
L 2906 525 
Q 2725 213 2448 61 
Q 2172 -91 1784 -91 
Q 1150 -91 751 415 
Q 353 922 353 1747 
Q 353 2572 751 3078 
Q 1150 3584 1784 3584 
Q 2172 3584 2448 3432 
Q 2725 3281 2906 2969 
z
M 947 1747 
Q 947 1113 1208 752 
Q 1469 391 1925 391 
Q 2381 391 2643 752 
Q 2906 1113 2906 1747 
Q 2906 2381 2643 2742 
Q 2381 3103 1925 3103 
Q 1469 3103 1208 2742 
Q 947 2381 947 1747 
z
" transform="scale(0.015625)"/>
       <path id="DejaVuSans-65" d="M 3597 1894 
L 3597 1613 
L 953 1613 
Q 991 1019 1311 708 
Q 1631 397 2203 397 
Q 2534 397 2845 478 
Q 3156 559 3463 722 
L 3463 178 
Q 3153 47 2828 -22 
Q 2503 -91 2169 -91 
Q 1331 -91 842 396 
Q 353 884 353 1716 
Q 353 2575 817 3079 
Q 1281 3584 2069 3584 
Q 2775 3584 3186 3129 
Q 3597 2675 3597 1894 
z
M 3022 2063 
Q 3016 2534 2758 2815 
Q 2500 3097 2075 3097 
Q 1594 3097 1305 2825 
Q 1016 2553 972 2059 
L 3022 2063 
z
" transform="scale(0.015625)"/>
       <path id="DejaVuSans-63" d="M 3122 3366 
L 3122 2828 
Q 2878 2963 2633 3030 
Q 2388 3097 2138 3097 
Q 1578 3097 1268 2742 
Q 959 2388 959 1747 
Q 959 1106 1268 751 
Q 1578 397 2138 397 
Q 2388 397 2633 464 
Q 2878 531 3122 666 
L 3122 134 
Q 2881 22 2623 -34 
Q 2366 -91 2075 -91 
Q 1284 -91 818 406 
Q 353 903 353 1747 
Q 353 2603 823 3093 
Q 1294 3584 2113 3584 
Q 2378 3584 2631 3529 
Q 2884 3475 3122 3366 
z
" transform="scale(0.015625)"/>
       <path id="DejaVuSans-72" d="M 2631 2963 
Q 2534 3019 2420 3045 
Q 2306 3072 2169 3072 
Q 1681 3072 1420 2755 
Q 1159 2438 1159 1844 
L 1159 0 
L 581 0 
L 581 3500 
L 1159 3500 
L 1159 2956 
Q 1341 3275 1631 3429 
Q 1922 3584 2338 3584 
Q 2397 3584 2469 3576 
Q 2541 3569 2628 3553 
L 2631 2963 
z
" transform="scale(0.015625)"/>
       <path id="DejaVuSans-61" d="M 2194 1759 
Q 1497 1759 1228 1600 
Q 959 1441 959 1056 
Q 959 750 1161 570 
Q 1363 391 1709 391 
Q 2188 391 2477 730 
Q 2766 1069 2766 1631 
L 2766 1759 
L 2194 1759 
z
M 3341 1997 
L 3341 0 
L 2766 0 
L 2766 531 
Q 2569 213 2275 61 
Q 1981 -91 1556 -91 
Q 1019 -91 701 211 
Q 384 513 384 1019 
Q 384 1609 779 1909 
Q 1175 2209 1959 2209 
L 2766 2209 
L 2766 2266 
Q 2766 2663 2505 2880 
Q 2244 3097 1772 3097 
Q 1472 3097 1187 3025 
Q 903 2953 641 2809 
L 641 3341 
Q 956 3463 1253 3523 
Q 1550 3584 1831 3584 
Q 2591 3584 2966 3190 
Q 3341 2797 3341 1997 
z
" transform="scale(0.015625)"/>
       <path id="DejaVuSans-73" d="M 2834 3397 
L 2834 2853 
Q 2591 2978 2328 3040 
Q 2066 3103 1784 3103 
Q 1356 3103 1142 2972 
Q 928 2841 928 2578 
Q 928 2378 1081 2264 
Q 1234 2150 1697 2047 
L 1894 2003 
Q 2506 1872 2764 1633 
Q 3022 1394 3022 966 
Q 3022 478 2636 193 
Q 2250 -91 1575 -91 
Q 1294 -91 989 -36 
Q 684 19 347 128 
L 347 722 
Q 666 556 975 473 
Q 1284 391 1588 391 
Q 1994 391 2212 530 
Q 2431 669 2431 922 
Q 2431 1156 2273 1281 
Q 2116 1406 1581 1522 
L 1381 1569 
Q 847 1681 609 1914 
Q 372 2147 372 2553 
Q 372 3047 722 3315 
Q 1072 3584 1716 3584 
Q 2034 3584 2315 3537 
Q 2597 3491 2834 3397 
z
" transform="scale(0.015625)"/>
      </defs>
      <use xlink:href="#DejaVuSans-64"/>
      <use xlink:href="#DejaVuSans-65" x="63.476562"/>
      <use xlink:href="#DejaVuSans-63" x="125"/>
      <use xlink:href="#DejaVuSans-72" x="179.980469"/>
      <use xlink:href="#DejaVuSans-65" x="218.84375"/>
      <use xlink:href="#DejaVuSans-61" x="280.367188"/>
      <use xlink:href="#DejaVuSans-73" x="341.646484"/>
      <use xlink:href="#DejaVuSans-65" x="393.746094"/>
      <use xlink:href="#DejaVuSans-73" x="455.269531"/>
     </g>
    </g>
    <g clip-path="url(#p5360c2339a)">
     <!-- activity of -->
     <g transform="translate(205.084904 188.358281)scale(0.1 -0.1)">
      <defs>
       <path id="DejaVuSans-74" d="M 1172 4494 
L 1172 3500 
L 2356 3500 
L 2356 3053 
L 1172 3053 
L 1172 1153 
Q 1172 725 1289 603 
Q 1406 481 1766 481 
L 2356 481 
L 2356 0 
L 1766 0 
Q 1100 0 847 248 
Q 594 497 594 1153 
L 594 3053 
L 172 3053 
L 172 3500 
L 594 3500 
L 594 4494 
L 1172 4494 
z
" transform="scale(0.015625)"/>
       <path id="DejaVuSans-69" d="M 603 3500 
L 1178 3500 
L 1178 0 
L 603 0 
L 603 3500 
z
M 603 4863 
L 1178 4863 
L 1178 4134 
L 603 4134 
L 603 4863 
z
" transform="scale(0.015625)"/>
       <path id="DejaVuSans-76" d="M 191 3500 
L 800 3500 
L 1894 563 
L 2988 3500 
L 3597 3500 
L 2284 0 
L 1503 0 
L 191 3500 
z
" transform="scale(0.015625)"/>
       <path id="DejaVuSans-79" d="M 2059 -325 
Q 1816 -950 1584 -1140 
Q 1353 -1331 966 -1331 
L 506 -1331 
L 506 -850 
L 844 -850 
Q 1081 -850 1212 -737 
Q 1344 -625 1503 -206 
L 1606 56 
L 191 3500 
L 800 3500 
L 1894 763 
L 2988 3500 
L 3597 3500 
L 2059 -325 
z
" transform="scale(0.015625)"/>
       <path id="DejaVuSans-20" transform="scale(0.015625)"/>
       <path id="DejaVuSans-6f" d="M 1959 3097 
Q 1497 3097 1228 2736 
Q 959 2375 959 1747 
Q 959 1119 1226 758 
Q 1494 397 1959 397 
Q 2419 397 2687 759 
Q 2956 1122 2956 1747 
Q 2956 2369 2687 2733 
Q 2419 3097 1959 3097 
z
M 1959 3584 
Q 2709 3584 3137 3096 
Q 3566 2609 3566 1747 
Q 3566 888 3137 398 
Q 2709 -91 1959 -91 
Q 1206 -91 779 398 
Q 353 888 353 1747 
Q 353 2609 779 3096 
Q 1206 3584 1959 3584 
z
" transform="scale(0.015625)"/>
       <path id="DejaVuSans-66" d="M 2375 4863 
L 2375 4384 
L 1825 4384 
Q 1516 4384 1395 4259 
Q 1275 4134 1275 3809 
L 1275 3500 
L 2222 3500 
L 2222 3053 
L 1275 3053 
L 1275 0 
L 697 0 
L 697 3053 
L 147 3053 
L 147 3500 
L 697 3500 
L 697 3744 
Q 697 4328 969 4595 
Q 1241 4863 1831 4863 
L 2375 4863 
z
" transform="scale(0.015625)"/>
      </defs>
      <use xlink:href="#DejaVuSans-61"/>
      <use xlink:href="#DejaVuSans-63" x="61.279297"/>
      <use xlink:href="#DejaVuSans-74" x="116.259766"/>
      <use xlink:href="#DejaVuSans-69" x="155.46875"/>
      <use xlink:href="#DejaVuSans-76" x="183.251953"/>
      <use xlink:href="#DejaVuSans-69" x="242.431641"/>
      <use xlink:href="#DejaVuSans-74" x="270.214844"/>
      <use xlink:href="#DejaVuSans-79" x="309.423828"/>
      <use xlink:href="#DejaVuSans-20" x="368.603516"/>
      <use xlink:href="#DejaVuSans-6f" x="400.390625"/>
      <use xlink:href="#DejaVuSans-66" x="461.572266"/>
     </g>
    </g>
   </g>
   <g id="text_2">
    <g id="patch_7">
     <path d="M 445.624135 193.437969 
L 514.05851 193.437969 
Q 517.05851 193.437969 517.05851 190.437969 
L 517.05851 169.562031 
Q 517.05851 166.562031 514.05851 166.562031 
L 445.624135 166.562031 
Q 442.624135 166.562031 442.624135 169.562031 
L 442.624135 190.437969 
Q 442.624135 193.437969 445.624135 193.437969 
z
" clip-path="url(#p5360c2339a)" style="fill: #ffffff; stroke: #ffffff; stroke-linejoin: miter"/>
    </g>
    <g clip-path="url(#p5360c2339a)">
     <!-- increases -->
     <g transform="translate(456.16476 177.160469)scale(0.1 -0.1)">
      <defs>
       <path id="DejaVuSans-6e" d="M 3513 2113 
L 3513 0 
L 2938 0 
L 2938 2094 
Q 2938 2591 2744 2837 
Q 2550 3084 2163 3084 
Q 1697 3084 1428 2787 
Q 1159 2491 1159 1978 
L 1159 0 
L 581 0 
L 581 3500 
L 1159 3500 
L 1159 2956 
Q 1366 3272 1645 3428 
Q 1925 3584 2291 3584 
Q 2894 3584 3203 3211 
Q 3513 2838 3513 2113 
z
" transform="scale(0.015625)"/>
      </defs>
      <use xlink:href="#DejaVuSans-69"/>
      <use xlink:href="#DejaVuSans-6e" x="27.783203"/>
      <use xlink:href="#DejaVuSans-63" x="91.162109"/>
      <use xlink:href="#DejaVuSans-72" x="146.142578"/>
      <use xlink:href="#DejaVuSans-65" x="185.005859"/>
      <use xlink:href="#DejaVuSans-61" x="246.529297"/>
      <use xlink:href="#DejaVuSans-73" x="307.808594"/>
      <use xlink:href="#DejaVuSans-65" x="359.908203"/>
      <use xlink:href="#DejaVuSans-73" x="421.431641"/>
     </g>
    </g>
    <g clip-path="url(#p5360c2339a)">
     <!-- abundance of -->
     <g transform="translate(445.624135 188.358281)scale(0.1 -0.1)">
      <defs>
       <path id="DejaVuSans-62" d="M 3116 1747 
Q 3116 2381 2855 2742 
Q 2594 3103 2138 3103 
Q 1681 3103 1420 2742 
Q 1159 2381 1159 1747 
Q 1159 1113 1420 752 
Q 1681 391 2138 391 
Q 2594 391 2855 752 
Q 3116 1113 3116 1747 
z
M 1159 2969 
Q 1341 3281 1617 3432 
Q 1894 3584 2278 3584 
Q 2916 3584 3314 3078 
Q 3713 2572 3713 1747 
Q 3713 922 3314 415 
Q 2916 -91 2278 -91 
Q 1894 -91 1617 61 
Q 1341 213 1159 525 
L 1159 0 
L 581 0 
L 581 4863 
L 1159 4863 
L 1159 2969 
z
" transform="scale(0.015625)"/>
       <path id="DejaVuSans-75" d="M 544 1381 
L 544 3500 
L 1119 3500 
L 1119 1403 
Q 1119 906 1312 657 
Q 1506 409 1894 409 
Q 2359 409 2629 706 
Q 2900 1003 2900 1516 
L 2900 3500 
L 3475 3500 
L 3475 0 
L 2900 0 
L 2900 538 
Q 2691 219 2414 64 
Q 2138 -91 1772 -91 
Q 1169 -91 856 284 
Q 544 659 544 1381 
z
M 1991 3584 
L 1991 3584 
z
" transform="scale(0.015625)"/>
      </defs>
      <use xlink:href="#DejaVuSans-61"/>
      <use xlink:href="#DejaVuSans-62" x="61.279297"/>
      <use xlink:href="#DejaVuSans-75" x="124.755859"/>
      <use xlink:href="#DejaVuSans-6e" x="188.134766"/>
      <use xlink:href="#DejaVuSans-64" x="251.513672"/>
      <use xlink:href="#DejaVuSans-61" x="314.990234"/>
      <use xlink:href="#DejaVuSans-6e" x="376.269531"/>
      <use xlink:href="#DejaVuSans-63" x="439.648438"/>
      <use xlink:href="#DejaVuSans-65" x="494.628906"/>
      <use xlink:href="#DejaVuSans-20" x="556.152344"/>
      <use xlink:href="#DejaVuSans-6f" x="587.939453"/>
      <use xlink:href="#DejaVuSans-66" x="649.121094"/>
     </g>
    </g>
   </g>
   <g id="text_3">
    <g id="patch_8">
     <path d="M 712.490709 187.839062 
L 747.026646 187.839062 
Q 750.026646 187.839062 750.026646 184.839062 
L 750.026646 175.160937 
Q 750.026646 172.160937 747.026646 172.160937 
L 712.490709 172.160937 
Q 709.490709 172.160937 709.490709 175.160937 
L 709.490709 184.839062 
Q 709.490709 187.839062 712.490709 187.839062 
z
" clip-path="url(#p5360c2339a)" style="fill: #ffffff; stroke: #ffffff; stroke-linejoin: miter"/>
    </g>
    <g clip-path="url(#p5360c2339a)">
     <!-- causes -->
     <g transform="translate(712.490709 182.759375)scale(0.1 -0.1)">
      <use xlink:href="#DejaVuSans-63"/>
      <use xlink:href="#DejaVuSans-61" x="54.980469"/>
      <use xlink:href="#DejaVuSans-75" x="116.259766"/>
      <use xlink:href="#DejaVuSans-73" x="179.638672"/>
      <use xlink:href="#DejaVuSans-65" x="231.738281"/>
      <use xlink:href="#DejaVuSans-73" x="293.261719"/>
     </g>
    </g>
   </g>
   <g id="text_4">
    <g id="patch_9">
     <path d="M 944.701033 187.839062 
L 1014.651033 187.839062 
Q 1017.651033 187.839062 1017.651033 184.839062 
L 1017.651033 175.160937 
Q 1017.651033 172.160937 1014.651033 172.160937 
L 944.701033 172.160937 
Q 941.701033 172.160937 941.701033 175.160937 
L 941.701033 184.839062 
Q 941.701033 187.839062 944.701033 187.839062 
z
" clip-path="url(#p5360c2339a)" style="fill: #ffffff; stroke: #ffffff; stroke-linejoin: miter"/>
    </g>
    <g clip-path="url(#p5360c2339a)">
     <!-- contributes to -->
     <g transform="translate(944.701033 182.759375)scale(0.1 -0.1)">
      <use xlink:href="#DejaVuSans-63"/>
      <use xlink:href="#DejaVuSans-6f" x="54.980469"/>
      <use xlink:href="#DejaVuSans-6e" x="116.162109"/>
      <use xlink:href="#DejaVuSans-74" x="179.541016"/>
      <use xlink:href="#DejaVuSans-72" x="218.75"/>
      <use xlink:href="#DejaVuSans-69" x="259.863281"/>
      <use xlink:href="#DejaVuSans-62" x="287.646484"/>
      <use xlink:href="#DejaVuSans-75" x="351.123047"/>
      <use xlink:href="#DejaVuSans-74" x="414.501953"/>
      <use xlink:href="#DejaVuSans-65" x="453.710938"/>
      <use xlink:href="#DejaVuSans-73" x="515.234375"/>
      <use xlink:href="#DejaVuSans-20" x="567.333984"/>
      <use xlink:href="#DejaVuSans-74" x="599.121094"/>
      <use xlink:href="#DejaVuSans-6f" x="638.330078"/>
     </g>
    </g>
   </g>
   <g id="PathCollection_1">
    <defs>
     <path id="C0_0_a695df6c83" d="M 0 52.440442 
C 13.907368 52.440442 27.246998 46.914987 37.080992 37.080992 
C 46.914987 27.246998 52.440442 13.907368 52.440442 -0 
C 52.440442 -13.907368 46.914987 -27.246998 37.080992 -37.080992 
C 27.246998 -46.914987 13.907368 -52.440442 0 -52.440442 
C -13.907368 -52.440442 -27.246998 -46.914987 -37.080992 -37.080992 
C -46.914987 -27.246998 -52.440442 -13.907368 -52.440442 0 
C -52.440442 13.907368 -46.914987 27.246998 -37.080992 37.080992 
C -27.246998 46.914987 -13.907368 52.440442 0 52.440442 
z
"/>
    </defs>
    <g clip-path="url(#p5360c2339a)">
     <use xlink:href="#C0_0_a695df6c83" x="104.965289" y="180" style="fill: #01c472; stroke: #01c472"/>
    </g>
    <g clip-path="url(#p5360c2339a)">
     <use xlink:href="#C0_0_a695df6c83" x="354.882645" y="180" style="fill: #e71761; stroke: #e71761"/>
    </g>
    <g clip-path="url(#p5360c2339a)">
     <use xlink:href="#C0_0_a695df6c83" x="604.8" y="180" style="fill: #01c472; stroke: #01c472"/>
    </g>
    <g clip-path="url(#p5360c2339a)">
     <use xlink:href="#C0_0_a695df6c83" x="854.717355" y="180" style="fill: #70c6ca; stroke: #70c6ca"/>
    </g>
    <g clip-path="url(#p5360c2339a)">
     <use xlink:href="#C0_0_a695df6c83" x="1104.634711" y="180" style="fill: #70c6ca; stroke: #70c6ca"/>
    </g>
   </g>
   <g id="text_5">
    <path d="M 321.324832 148.854 
L 319.717957 153.20775 
L 322.935457 153.20775 
L 321.324832 148.854 
z
M 320.655457 147.68775 
L 321.997957 147.68775 
L 325.331707 156.4365 
L 324.101707 156.4365 
L 323.304832 154.192125 
L 319.361707 154.192125 
L 318.564832 156.4365 
L 317.316082 156.4365 
L 320.655457 147.68775 
z
M 332.018192 152.474625 
L 332.018192 156.4365 
L 330.940067 156.4365 
L 330.940067 152.51025 
Q 330.940067 151.578375 330.576317 151.117125 
Q 330.212567 150.654 329.486942 150.654 
Q 328.613192 150.654 328.108817 151.210875 
Q 327.604442 151.765875 327.604442 152.72775 
L 327.604442 156.4365 
L 326.520692 156.4365 
L 326.520692 149.874 
L 327.604442 149.874 
L 327.604442 150.894 
Q 327.992567 150.3015 328.515692 150.009 
Q 329.040692 149.7165 329.726942 149.7165 
Q 330.857567 149.7165 331.436942 150.415875 
Q 332.018192 151.11525 332.018192 152.474625 
z
M 338.485535 153.078375 
Q 338.485535 151.9065 338.001785 151.263375 
Q 337.51991 150.618375 336.64616 150.618375 
Q 335.77991 150.618375 335.29616 151.263375 
Q 334.81241 151.9065 334.81241 153.078375 
Q 334.81241 154.244625 335.29616 154.889625 
Q 335.77991 155.534625 336.64616 155.534625 
Q 337.51991 155.534625 338.001785 154.889625 
Q 338.485535 154.244625 338.485535 153.078375 
z
M 339.56366 155.62275 
Q 339.56366 157.297125 338.819285 158.114625 
Q 338.076785 158.932125 336.54116 158.932125 
Q 335.973035 158.932125 335.46866 158.84775 
Q 334.964285 158.763375 334.48991 158.587125 
L 334.48991 157.539 
Q 334.964285 157.795875 335.42741 157.91775 
Q 335.890535 158.0415 336.370535 158.0415 
Q 337.431785 158.0415 337.95866 157.488375 
Q 338.485535 156.93525 338.485535 155.815875 
L 338.485535 155.2815 
Q 338.151785 155.86275 337.630535 156.149625 
Q 337.109285 156.4365 336.381785 156.4365 
Q 335.17616 156.4365 334.43741 155.51775 
Q 333.69866 154.597125 333.69866 153.078375 
Q 333.69866 151.555875 334.43741 150.637125 
Q 335.17616 149.7165 336.381785 149.7165 
Q 337.109285 149.7165 337.630535 150.003375 
Q 338.151785 150.29025 338.485535 150.869625 
L 338.485535 149.874 
L 339.56366 149.874 
L 339.56366 155.62275 
z
M 341.784598 149.874 
L 342.862723 149.874 
L 342.862723 156.4365 
L 341.784598 156.4365 
L 341.784598 149.874 
z
M 341.784598 147.318375 
L 342.862723 147.318375 
L 342.862723 148.68525 
L 341.784598 148.68525 
L 341.784598 147.318375 
z
M 347.661082 150.629625 
Q 346.794832 150.629625 346.290457 151.3065 
Q 345.786082 151.983375 345.786082 153.160875 
Q 345.786082 154.338375 346.286707 155.01525 
Q 346.789207 155.692125 347.661082 155.692125 
Q 348.523582 155.692125 349.026082 155.013375 
Q 349.530457 154.33275 349.530457 153.160875 
Q 349.530457 151.994625 349.026082 151.312125 
Q 348.523582 150.629625 347.661082 150.629625 
z
M 347.661082 149.7165 
Q 349.067332 149.7165 349.869832 150.6315 
Q 350.674207 151.544625 350.674207 153.160875 
Q 350.674207 154.7715 349.869832 155.69025 
Q 349.067332 156.607125 347.661082 156.607125 
Q 346.249207 156.607125 345.448582 155.69025 
Q 344.649832 154.7715 344.649832 153.160875 
Q 344.649832 151.544625 345.448582 150.6315 
Q 346.249207 149.7165 347.661082 149.7165 
z
M 353.527254 148.01025 
L 353.527254 149.874 
L 355.747254 149.874 
L 355.747254 150.712125 
L 353.527254 150.712125 
L 353.527254 154.274625 
Q 353.527254 155.077125 353.746629 155.305875 
Q 353.966004 155.534625 354.641004 155.534625 
L 355.747254 155.534625 
L 355.747254 156.4365 
L 354.641004 156.4365 
Q 353.392254 156.4365 352.917879 155.9715 
Q 352.443504 155.504625 352.443504 154.274625 
L 352.443504 150.712125 
L 351.652254 150.712125 
L 351.652254 149.874 
L 352.443504 149.874 
L 352.443504 148.01025 
L 353.527254 148.01025 
z
M 362.779207 152.88525 
L 362.779207 153.412125 
L 357.821707 153.412125 
Q 357.892957 154.525875 358.492957 155.109 
Q 359.092957 155.692125 360.165457 155.692125 
Q 360.786082 155.692125 361.369207 155.54025 
Q 361.952332 155.388375 362.527957 155.08275 
L 362.527957 156.10275 
Q 361.946707 156.348375 361.337332 156.47775 
Q 360.727957 156.607125 360.101707 156.607125 
Q 358.530457 156.607125 357.613582 155.694 
Q 356.696707 154.779 356.696707 153.219 
Q 356.696707 151.608375 357.566707 150.663375 
Q 358.436707 149.7165 359.914207 149.7165 
Q 361.237957 149.7165 362.008582 150.569625 
Q 362.779207 151.420875 362.779207 152.88525 
z
M 361.701082 152.568375 
Q 361.689832 151.68525 361.206082 151.158375 
Q 360.722332 150.629625 359.925457 150.629625 
Q 359.023582 150.629625 358.481707 151.139625 
Q 357.939832 151.649625 357.857332 152.575875 
L 361.701082 152.568375 
z
M 370.00452 152.474625 
L 370.00452 156.4365 
L 368.926395 156.4365 
L 368.926395 152.51025 
Q 368.926395 151.578375 368.562645 151.117125 
Q 368.198895 150.654 367.47327 150.654 
Q 366.59952 150.654 366.095145 151.210875 
Q 365.59077 151.765875 365.59077 152.72775 
L 365.59077 156.4365 
L 364.50702 156.4365 
L 364.50702 149.874 
L 365.59077 149.874 
L 365.59077 150.894 
Q 365.978895 150.3015 366.50202 150.009 
Q 367.02702 149.7165 367.71327 149.7165 
Q 368.843895 149.7165 369.42327 150.415875 
Q 370.00452 151.11525 370.00452 152.474625 
z
M 376.336863 150.067125 
L 376.336863 151.087125 
Q 375.881238 150.85275 375.388113 150.7365 
Q 374.896863 150.618375 374.368113 150.618375 
Q 373.565613 150.618375 373.164363 150.864 
Q 372.763113 151.109625 372.763113 151.60275 
Q 372.763113 151.97775 373.049988 152.1915 
Q 373.336863 152.40525 374.204988 152.598375 
L 374.574363 152.680875 
Q 375.721863 152.9265 376.205613 153.374625 
Q 376.689363 153.82275 376.689363 154.62525 
Q 376.689363 155.54025 375.965613 156.074625 
Q 375.241863 156.607125 373.976238 156.607125 
Q 373.449363 156.607125 372.877488 156.504 
Q 372.305613 156.400875 371.673738 156.1965 
L 371.673738 155.08275 
Q 372.271863 155.394 372.851238 155.549625 
Q 373.430613 155.703375 374.000613 155.703375 
Q 374.761863 155.703375 375.170613 155.44275 
Q 375.581238 155.182125 375.581238 154.70775 
Q 375.581238 154.269 375.284988 154.034625 
Q 374.990613 153.80025 373.987488 153.58275 
L 373.612488 153.494625 
Q 372.611238 153.284625 372.164988 152.84775 
Q 371.720613 152.410875 371.720613 151.649625 
Q 371.720613 150.723375 372.376863 150.220875 
Q 373.033113 149.7165 374.240613 149.7165 
Q 374.836863 149.7165 375.363738 149.804625 
Q 375.892488 149.890875 376.336863 150.067125 
z
M 378.405692 149.874 
L 379.483817 149.874 
L 379.483817 156.4365 
L 378.405692 156.4365 
L 378.405692 149.874 
z
M 378.405692 147.318375 
L 379.483817 147.318375 
L 379.483817 148.68525 
L 378.405692 148.68525 
L 378.405692 147.318375 
z
M 387.195926 152.474625 
L 387.195926 156.4365 
L 386.117801 156.4365 
L 386.117801 152.51025 
Q 386.117801 151.578375 385.754051 151.117125 
Q 385.390301 150.654 384.664676 150.654 
Q 383.790926 150.654 383.286551 151.210875 
Q 382.782176 151.765875 382.782176 152.72775 
L 382.782176 156.4365 
L 381.698426 156.4365 
L 381.698426 149.874 
L 382.782176 149.874 
L 382.782176 150.894 
Q 383.170301 150.3015 383.693426 150.009 
Q 384.218426 149.7165 384.904676 149.7165 
Q 386.035301 149.7165 386.614676 150.415875 
Q 387.195926 151.11525 387.195926 152.474625 
z
M 388.801395 152.669625 
L 391.958895 152.669625 
L 391.958895 153.629625 
L 388.801395 153.629625 
L 388.801395 152.669625 
z
" clip-path="url(#p5360c2339a)" style="fill: #ffffff; stroke: #000000; stroke-width: 2"/>
    <path d="M 321.324832 148.854 
L 319.717957 153.20775 
L 322.935457 153.20775 
L 321.324832 148.854 
z
M 320.655457 147.68775 
L 321.997957 147.68775 
L 325.331707 156.4365 
L 324.101707 156.4365 
L 323.304832 154.192125 
L 319.361707 154.192125 
L 318.564832 156.4365 
L 317.316082 156.4365 
L 320.655457 147.68775 
z
M 332.018192 152.474625 
L 332.018192 156.4365 
L 330.940067 156.4365 
L 330.940067 152.51025 
Q 330.940067 151.578375 330.576317 151.117125 
Q 330.212567 150.654 329.486942 150.654 
Q 328.613192 150.654 328.108817 151.210875 
Q 327.604442 151.765875 327.604442 152.72775 
L 327.604442 156.4365 
L 326.520692 156.4365 
L 326.520692 149.874 
L 327.604442 149.874 
L 327.604442 150.894 
Q 327.992567 150.3015 328.515692 150.009 
Q 329.040692 149.7165 329.726942 149.7165 
Q 330.857567 149.7165 331.436942 150.415875 
Q 332.018192 151.11525 332.018192 152.474625 
z
M 338.485535 153.078375 
Q 338.485535 151.9065 338.001785 151.263375 
Q 337.51991 150.618375 336.64616 150.618375 
Q 335.77991 150.618375 335.29616 151.263375 
Q 334.81241 151.9065 334.81241 153.078375 
Q 334.81241 154.244625 335.29616 154.889625 
Q 335.77991 155.534625 336.64616 155.534625 
Q 337.51991 155.534625 338.001785 154.889625 
Q 338.485535 154.244625 338.485535 153.078375 
z
M 339.56366 155.62275 
Q 339.56366 157.297125 338.819285 158.114625 
Q 338.076785 158.932125 336.54116 158.932125 
Q 335.973035 158.932125 335.46866 158.84775 
Q 334.964285 158.763375 334.48991 158.587125 
L 334.48991 157.539 
Q 334.964285 157.795875 335.42741 157.91775 
Q 335.890535 158.0415 336.370535 158.0415 
Q 337.431785 158.0415 337.95866 157.488375 
Q 338.485535 156.93525 338.485535 155.815875 
L 338.485535 155.2815 
Q 338.151785 155.86275 337.630535 156.149625 
Q 337.109285 156.4365 336.381785 156.4365 
Q 335.17616 156.4365 334.43741 155.51775 
Q 333.69866 154.597125 333.69866 153.078375 
Q 333.69866 151.555875 334.43741 150.637125 
Q 335.17616 149.7165 336.381785 149.7165 
Q 337.109285 149.7165 337.630535 150.003375 
Q 338.151785 150.29025 338.485535 150.869625 
L 338.485535 149.874 
L 339.56366 149.874 
L 339.56366 155.62275 
z
M 341.784598 149.874 
L 342.862723 149.874 
L 342.862723 156.4365 
L 341.784598 156.4365 
L 341.784598 149.874 
z
M 341.784598 147.318375 
L 342.862723 147.318375 
L 342.862723 148.68525 
L 341.784598 148.68525 
L 341.784598 147.318375 
z
M 347.661082 150.629625 
Q 346.794832 150.629625 346.290457 151.3065 
Q 345.786082 151.983375 345.786082 153.160875 
Q 345.786082 154.338375 346.286707 155.01525 
Q 346.789207 155.692125 347.661082 155.692125 
Q 348.523582 155.692125 349.026082 155.013375 
Q 349.530457 154.33275 349.530457 153.160875 
Q 349.530457 151.994625 349.026082 151.312125 
Q 348.523582 150.629625 347.661082 150.629625 
z
M 347.661082 149.7165 
Q 349.067332 149.7165 349.869832 150.6315 
Q 350.674207 151.544625 350.674207 153.160875 
Q 350.674207 154.7715 349.869832 155.69025 
Q 349.067332 156.607125 347.661082 156.607125 
Q 346.249207 156.607125 345.448582 155.69025 
Q 344.649832 154.7715 344.649832 153.160875 
Q 344.649832 151.544625 345.448582 150.6315 
Q 346.249207 149.7165 347.661082 149.7165 
z
M 353.527254 148.01025 
L 353.527254 149.874 
L 355.747254 149.874 
L 355.747254 150.712125 
L 353.527254 150.712125 
L 353.527254 154.274625 
Q 353.527254 155.077125 353.746629 155.305875 
Q 353.966004 155.534625 354.641004 155.534625 
L 355.747254 155.534625 
L 355.747254 156.4365 
L 354.641004 156.4365 
Q 353.392254 156.4365 352.917879 155.9715 
Q 352.443504 155.504625 352.443504 154.274625 
L 352.443504 150.712125 
L 351.652254 150.712125 
L 351.652254 149.874 
L 352.443504 149.874 
L 352.443504 148.01025 
L 353.527254 148.01025 
z
M 362.779207 152.88525 
L 362.779207 153.412125 
L 357.821707 153.412125 
Q 357.892957 154.525875 358.492957 155.109 
Q 359.092957 155.692125 360.165457 155.692125 
Q 360.786082 155.692125 361.369207 155.54025 
Q 361.952332 155.388375 362.527957 155.08275 
L 362.527957 156.10275 
Q 361.946707 156.348375 361.337332 156.47775 
Q 360.727957 156.607125 360.101707 156.607125 
Q 358.530457 156.607125 357.613582 155.694 
Q 356.696707 154.779 356.696707 153.219 
Q 356.696707 151.608375 357.566707 150.663375 
Q 358.436707 149.7165 359.914207 149.7165 
Q 361.237957 149.7165 362.008582 150.569625 
Q 362.779207 151.420875 362.779207 152.88525 
z
M 361.701082 152.568375 
Q 361.689832 151.68525 361.206082 151.158375 
Q 360.722332 150.629625 359.925457 150.629625 
Q 359.023582 150.629625 358.481707 151.139625 
Q 357.939832 151.649625 357.857332 152.575875 
L 361.701082 152.568375 
z
M 370.00452 152.474625 
L 370.00452 156.4365 
L 368.926395 156.4365 
L 368.926395 152.51025 
Q 368.926395 151.578375 368.562645 151.117125 
Q 368.198895 150.654 367.47327 150.654 
Q 366.59952 150.654 366.095145 151.210875 
Q 365.59077 151.765875 365.59077 152.72775 
L 365.59077 156.4365 
L 364.50702 156.4365 
L 364.50702 149.874 
L 365.59077 149.874 
L 365.59077 150.894 
Q 365.978895 150.3015 366.50202 150.009 
Q 367.02702 149.7165 367.71327 149.7165 
Q 368.843895 149.7165 369.42327 150.415875 
Q 370.00452 151.11525 370.00452 152.474625 
z
M 376.336863 150.067125 
L 376.336863 151.087125 
Q 375.881238 150.85275 375.388113 150.7365 
Q 374.896863 150.618375 374.368113 150.618375 
Q 373.565613 150.618375 373.164363 150.864 
Q 372.763113 151.109625 372.763113 151.60275 
Q 372.763113 151.97775 373.049988 152.1915 
Q 373.336863 152.40525 374.204988 152.598375 
L 374.574363 152.680875 
Q 375.721863 152.9265 376.205613 153.374625 
Q 376.689363 153.82275 376.689363 154.62525 
Q 376.689363 155.54025 375.965613 156.074625 
Q 375.241863 156.607125 373.976238 156.607125 
Q 373.449363 156.607125 372.877488 156.504 
Q 372.305613 156.400875 371.673738 156.1965 
L 371.673738 155.08275 
Q 372.271863 155.394 372.851238 155.549625 
Q 373.430613 155.703375 374.000613 155.703375 
Q 374.761863 155.703375 375.170613 155.44275 
Q 375.581238 155.182125 375.581238 154.70775 
Q 375.581238 154.269 375.284988 154.034625 
Q 374.990613 153.80025 373.987488 153.58275 
L 373.612488 153.494625 
Q 372.611238 153.284625 372.164988 152.84775 
Q 371.720613 152.410875 371.720613 151.649625 
Q 371.720613 150.723375 372.376863 150.220875 
Q 373.033113 149.7165 374.240613 149.7165 
Q 374.836863 149.7165 375.363738 149.804625 
Q 375.892488 149.890875 376.336863 150.067125 
z
M 378.405692 149.874 
L 379.483817 149.874 
L 379.483817 156.4365 
L 378.405692 156.4365 
L 378.405692 149.874 
z
M 378.405692 147.318375 
L 379.483817 147.318375 
L 379.483817 148.68525 
L 378.405692 148.68525 
L 378.405692 147.318375 
z
M 387.195926 152.474625 
L 387.195926 156.4365 
L 386.117801 156.4365 
L 386.117801 152.51025 
Q 386.117801 151.578375 385.754051 151.117125 
Q 385.390301 150.654 384.664676 150.654 
Q 383.790926 150.654 383.286551 151.210875 
Q 382.782176 151.765875 382.782176 152.72775 
L 382.782176 156.4365 
L 381.698426 156.4365 
L 381.698426 149.874 
L 382.782176 149.874 
L 382.782176 150.894 
Q 383.170301 150.3015 383.693426 150.009 
Q 384.218426 149.7165 384.904676 149.7165 
Q 386.035301 149.7165 386.614676 150.415875 
Q 387.195926 151.11525 387.195926 152.474625 
z
M 388.801395 152.669625 
L 391.958895 152.669625 
L 391.958895 153.629625 
L 388.801395 153.629625 
L 388.801395 152.669625 
z
" clip-path="url(#p5360c2339a)" style="fill: #ffffff"/>
    <path d="M 328.62327 163.562625 
L 328.62327 164.571375 
Q 328.16577 164.31825 327.706395 164.192625 
Q 327.24702 164.067 326.77827 164.067 
Q 325.72827 164.067 325.14702 164.732625 
Q 324.567645 165.396375 324.567645 166.59825 
Q 324.567645 167.800125 325.14702 168.46575 
Q 325.72827 169.1295 326.77827 169.1295 
Q 327.24702 169.1295 327.706395 169.003875 
Q 328.16577 168.87825 328.62327 168.625125 
L 328.62327 169.622625 
Q 328.171395 169.832625 327.687645 169.937625 
Q 327.20577 170.0445 326.660145 170.0445 
Q 325.17702 170.0445 324.30327 169.112625 
Q 323.431395 168.18075 323.431395 166.59825 
Q 323.431395 164.99325 324.312645 164.0745 
Q 325.19577 163.153875 326.731395 163.153875 
Q 327.22827 163.153875 327.702645 163.257 
Q 328.17702 163.35825 328.62327 163.562625 
z
M 333.040301 164.067 
Q 332.174051 164.067 331.669676 164.743875 
Q 331.165301 165.42075 331.165301 166.59825 
Q 331.165301 167.77575 331.665926 168.452625 
Q 332.168426 169.1295 333.040301 169.1295 
Q 333.902801 169.1295 334.405301 168.45075 
Q 334.909676 167.770125 334.909676 166.59825 
Q 334.909676 165.432 334.405301 164.7495 
Q 333.902801 164.067 333.040301 164.067 
z
M 333.040301 163.153875 
Q 334.446551 163.153875 335.249051 164.068875 
Q 336.053426 164.982 336.053426 166.59825 
Q 336.053426 168.208875 335.249051 169.127625 
Q 334.446551 170.0445 333.040301 170.0445 
Q 331.628426 170.0445 330.827801 169.127625 
Q 330.029051 168.208875 330.029051 166.59825 
Q 330.029051 164.982 330.827801 164.068875 
Q 331.628426 163.153875 333.040301 163.153875 
z
M 343.295848 165.912 
L 343.295848 169.873875 
L 342.217723 169.873875 
L 342.217723 165.947625 
Q 342.217723 165.01575 341.853973 164.5545 
Q 341.490223 164.091375 340.764598 164.091375 
Q 339.890848 164.091375 339.386473 164.64825 
Q 338.882098 165.20325 338.882098 166.165125 
L 338.882098 169.873875 
L 337.798348 169.873875 
L 337.798348 163.311375 
L 338.882098 163.311375 
L 338.882098 164.331375 
Q 339.270223 163.738875 339.793348 163.446375 
Q 340.318348 163.153875 341.004598 163.153875 
Q 342.135223 163.153875 342.714598 163.85325 
Q 343.295848 164.552625 343.295848 165.912 
z
M 344.672567 163.311375 
L 345.814442 163.311375 
L 347.865692 168.81825 
L 349.916942 163.311375 
L 351.058817 163.311375 
L 348.596942 169.873875 
L 347.132567 169.873875 
L 344.672567 163.311375 
z
M 358.160379 166.322625 
L 358.160379 166.8495 
L 353.202879 166.8495 
Q 353.274129 167.96325 353.874129 168.546375 
Q 354.474129 169.1295 355.546629 169.1295 
Q 356.167254 169.1295 356.750379 168.977625 
Q 357.333504 168.82575 357.909129 168.520125 
L 357.909129 169.540125 
Q 357.327879 169.78575 356.718504 169.915125 
Q 356.109129 170.0445 355.482879 170.0445 
Q 353.911629 170.0445 352.994754 169.131375 
Q 352.077879 168.216375 352.077879 166.656375 
Q 352.077879 165.04575 352.947879 164.10075 
Q 353.817879 163.153875 355.295379 163.153875 
Q 356.619129 163.153875 357.389754 164.007 
Q 358.160379 164.85825 358.160379 166.322625 
z
M 357.082254 166.00575 
Q 357.071004 165.122625 356.587254 164.59575 
Q 356.103504 164.067 355.306629 164.067 
Q 354.404754 164.067 353.862879 164.577 
Q 353.321004 165.087 353.238504 166.01325 
L 357.082254 166.00575 
z
M 363.731942 164.31825 
Q 363.550067 164.21325 363.336317 164.1645 
Q 363.122567 164.113875 362.865692 164.113875 
Q 361.950692 164.113875 361.461317 164.70825 
Q 360.971942 165.302625 360.971942 166.416375 
L 360.971942 169.873875 
L 359.888192 169.873875 
L 359.888192 163.311375 
L 360.971942 163.311375 
L 360.971942 164.331375 
Q 361.313192 163.73325 361.856942 163.4445 
Q 362.402567 163.153875 363.182567 163.153875 
Q 363.293192 163.153875 363.428192 163.168875 
Q 363.563192 163.182 363.726317 163.212 
L 363.731942 164.31825 
z
M 365.92991 161.447625 
L 365.92991 163.311375 
L 368.14991 163.311375 
L 368.14991 164.1495 
L 365.92991 164.1495 
L 365.92991 167.712 
Q 365.92991 168.5145 366.149285 168.74325 
Q 366.36866 168.972 367.04366 168.972 
L 368.14991 168.972 
L 368.14991 169.873875 
L 367.04366 169.873875 
Q 365.79491 169.873875 365.320535 169.408875 
Q 364.84616 168.942 364.84616 167.712 
L 364.84616 164.1495 
L 364.05491 164.1495 
L 364.05491 163.311375 
L 364.84616 163.311375 
L 364.84616 161.447625 
L 365.92991 161.447625 
z
M 369.568113 163.311375 
L 370.646238 163.311375 
L 370.646238 169.873875 
L 369.568113 169.873875 
L 369.568113 163.311375 
z
M 369.568113 160.75575 
L 370.646238 160.75575 
L 370.646238 162.122625 
L 369.568113 162.122625 
L 369.568113 160.75575 
z
M 378.358348 165.912 
L 378.358348 169.873875 
L 377.280223 169.873875 
L 377.280223 165.947625 
Q 377.280223 165.01575 376.916473 164.5545 
Q 376.552723 164.091375 375.827098 164.091375 
Q 374.953348 164.091375 374.448973 164.64825 
Q 373.944598 165.20325 373.944598 166.165125 
L 373.944598 169.873875 
L 372.860848 169.873875 
L 372.860848 163.311375 
L 373.944598 163.311375 
L 373.944598 164.331375 
Q 374.332723 163.738875 374.855848 163.446375 
Q 375.380848 163.153875 376.067098 163.153875 
Q 377.197723 163.153875 377.777098 163.85325 
Q 378.358348 164.552625 378.358348 165.912 
z
M 384.825692 166.51575 
Q 384.825692 165.343875 384.341942 164.70075 
Q 383.860067 164.05575 382.986317 164.05575 
Q 382.120067 164.05575 381.636317 164.70075 
Q 381.152567 165.343875 381.152567 166.51575 
Q 381.152567 167.682 381.636317 168.327 
Q 382.120067 168.972 382.986317 168.972 
Q 383.860067 168.972 384.341942 168.327 
Q 384.825692 167.682 384.825692 166.51575 
z
M 385.903817 169.060125 
Q 385.903817 170.7345 385.159442 171.552 
Q 384.416942 172.3695 382.881317 172.3695 
Q 382.313192 172.3695 381.808817 172.285125 
Q 381.304442 172.20075 380.830067 172.0245 
L 380.830067 170.976375 
Q 381.304442 171.23325 381.767567 171.355125 
Q 382.230692 171.478875 382.710692 171.478875 
Q 383.771942 171.478875 384.298817 170.92575 
Q 384.825692 170.372625 384.825692 169.25325 
L 384.825692 168.718875 
Q 384.491942 169.300125 383.970692 169.587 
Q 383.449442 169.873875 382.721942 169.873875 
Q 381.516317 169.873875 380.777567 168.955125 
Q 380.038817 168.0345 380.038817 166.51575 
Q 380.038817 164.99325 380.777567 164.0745 
Q 381.516317 163.153875 382.721942 163.153875 
Q 383.449442 163.153875 383.970692 163.44075 
Q 384.491942 163.727625 384.825692 164.307 
L 384.825692 163.311375 
L 385.903817 163.311375 
L 385.903817 169.060125 
z
" clip-path="url(#p5360c2339a)" style="fill: #ffffff; stroke: #000000; stroke-width: 2"/>
    <path d="M 328.62327 163.562625 
L 328.62327 164.571375 
Q 328.16577 164.31825 327.706395 164.192625 
Q 327.24702 164.067 326.77827 164.067 
Q 325.72827 164.067 325.14702 164.732625 
Q 324.567645 165.396375 324.567645 166.59825 
Q 324.567645 167.800125 325.14702 168.46575 
Q 325.72827 169.1295 326.77827 169.1295 
Q 327.24702 169.1295 327.706395 169.003875 
Q 328.16577 168.87825 328.62327 168.625125 
L 328.62327 169.622625 
Q 328.171395 169.832625 327.687645 169.937625 
Q 327.20577 170.0445 326.660145 170.0445 
Q 325.17702 170.0445 324.30327 169.112625 
Q 323.431395 168.18075 323.431395 166.59825 
Q 323.431395 164.99325 324.312645 164.0745 
Q 325.19577 163.153875 326.731395 163.153875 
Q 327.22827 163.153875 327.702645 163.257 
Q 328.17702 163.35825 328.62327 163.562625 
z
M 333.040301 164.067 
Q 332.174051 164.067 331.669676 164.743875 
Q 331.165301 165.42075 331.165301 166.59825 
Q 331.165301 167.77575 331.665926 168.452625 
Q 332.168426 169.1295 333.040301 169.1295 
Q 333.902801 169.1295 334.405301 168.45075 
Q 334.909676 167.770125 334.909676 166.59825 
Q 334.909676 165.432 334.405301 164.7495 
Q 333.902801 164.067 333.040301 164.067 
z
M 333.040301 163.153875 
Q 334.446551 163.153875 335.249051 164.068875 
Q 336.053426 164.982 336.053426 166.59825 
Q 336.053426 168.208875 335.249051 169.127625 
Q 334.446551 170.0445 333.040301 170.0445 
Q 331.628426 170.0445 330.827801 169.127625 
Q 330.029051 168.208875 330.029051 166.59825 
Q 330.029051 164.982 330.827801 164.068875 
Q 331.628426 163.153875 333.040301 163.153875 
z
M 343.295848 165.912 
L 343.295848 169.873875 
L 342.217723 169.873875 
L 342.217723 165.947625 
Q 342.217723 165.01575 341.853973 164.5545 
Q 341.490223 164.091375 340.764598 164.091375 
Q 339.890848 164.091375 339.386473 164.64825 
Q 338.882098 165.20325 338.882098 166.165125 
L 338.882098 169.873875 
L 337.798348 169.873875 
L 337.798348 163.311375 
L 338.882098 163.311375 
L 338.882098 164.331375 
Q 339.270223 163.738875 339.793348 163.446375 
Q 340.318348 163.153875 341.004598 163.153875 
Q 342.135223 163.153875 342.714598 163.85325 
Q 343.295848 164.552625 343.295848 165.912 
z
M 344.672567 163.311375 
L 345.814442 163.311375 
L 347.865692 168.81825 
L 349.916942 163.311375 
L 351.058817 163.311375 
L 348.596942 169.873875 
L 347.132567 169.873875 
L 344.672567 163.311375 
z
M 358.160379 166.322625 
L 358.160379 166.8495 
L 353.202879 166.8495 
Q 353.274129 167.96325 353.874129 168.546375 
Q 354.474129 169.1295 355.546629 169.1295 
Q 356.167254 169.1295 356.750379 168.977625 
Q 357.333504 168.82575 357.909129 168.520125 
L 357.909129 169.540125 
Q 357.327879 169.78575 356.718504 169.915125 
Q 356.109129 170.0445 355.482879 170.0445 
Q 353.911629 170.0445 352.994754 169.131375 
Q 352.077879 168.216375 352.077879 166.656375 
Q 352.077879 165.04575 352.947879 164.10075 
Q 353.817879 163.153875 355.295379 163.153875 
Q 356.619129 163.153875 357.389754 164.007 
Q 358.160379 164.85825 358.160379 166.322625 
z
M 357.082254 166.00575 
Q 357.071004 165.122625 356.587254 164.59575 
Q 356.103504 164.067 355.306629 164.067 
Q 354.404754 164.067 353.862879 164.577 
Q 353.321004 165.087 353.238504 166.01325 
L 357.082254 166.00575 
z
M 363.731942 164.31825 
Q 363.550067 164.21325 363.336317 164.1645 
Q 363.122567 164.113875 362.865692 164.113875 
Q 361.950692 164.113875 361.461317 164.70825 
Q 360.971942 165.302625 360.971942 166.416375 
L 360.971942 169.873875 
L 359.888192 169.873875 
L 359.888192 163.311375 
L 360.971942 163.311375 
L 360.971942 164.331375 
Q 361.313192 163.73325 361.856942 163.4445 
Q 362.402567 163.153875 363.182567 163.153875 
Q 363.293192 163.153875 363.428192 163.168875 
Q 363.563192 163.182 363.726317 163.212 
L 363.731942 164.31825 
z
M 365.92991 161.447625 
L 365.92991 163.311375 
L 368.14991 163.311375 
L 368.14991 164.1495 
L 365.92991 164.1495 
L 365.92991 167.712 
Q 365.92991 168.5145 366.149285 168.74325 
Q 366.36866 168.972 367.04366 168.972 
L 368.14991 168.972 
L 368.14991 169.873875 
L 367.04366 169.873875 
Q 365.79491 169.873875 365.320535 169.408875 
Q 364.84616 168.942 364.84616 167.712 
L 364.84616 164.1495 
L 364.05491 164.1495 
L 364.05491 163.311375 
L 364.84616 163.311375 
L 364.84616 161.447625 
L 365.92991 161.447625 
z
M 369.568113 163.311375 
L 370.646238 163.311375 
L 370.646238 169.873875 
L 369.568113 169.873875 
L 369.568113 163.311375 
z
M 369.568113 160.75575 
L 370.646238 160.75575 
L 370.646238 162.122625 
L 369.568113 162.122625 
L 369.568113 160.75575 
z
M 378.358348 165.912 
L 378.358348 169.873875 
L 377.280223 169.873875 
L 377.280223 165.947625 
Q 377.280223 165.01575 376.916473 164.5545 
Q 376.552723 164.091375 375.827098 164.091375 
Q 374.953348 164.091375 374.448973 164.64825 
Q 373.944598 165.20325 373.944598 166.165125 
L 373.944598 169.873875 
L 372.860848 169.873875 
L 372.860848 163.311375 
L 373.944598 163.311375 
L 373.944598 164.331375 
Q 374.332723 163.738875 374.855848 163.446375 
Q 375.380848 163.153875 376.067098 163.153875 
Q 377.197723 163.153875 377.777098 163.85325 
Q 378.358348 164.552625 378.358348 165.912 
z
M 384.825692 166.51575 
Q 384.825692 165.343875 384.341942 164.70075 
Q 383.860067 164.05575 382.986317 164.05575 
Q 382.120067 164.05575 381.636317 164.70075 
Q 381.152567 165.343875 381.152567 166.51575 
Q 381.152567 167.682 381.636317 168.327 
Q 382.120067 168.972 382.986317 168.972 
Q 383.860067 168.972 384.341942 168.327 
Q 384.825692 167.682 384.825692 166.51575 
z
M 385.903817 169.060125 
Q 385.903817 170.7345 385.159442 171.552 
Q 384.416942 172.3695 382.881317 172.3695 
Q 382.313192 172.3695 381.808817 172.285125 
Q 381.304442 172.20075 380.830067 172.0245 
L 380.830067 170.976375 
Q 381.304442 171.23325 381.767567 171.355125 
Q 382.230692 171.478875 382.710692 171.478875 
Q 383.771942 171.478875 384.298817 170.92575 
Q 384.825692 170.372625 384.825692 169.25325 
L 384.825692 168.718875 
Q 384.491942 169.300125 383.970692 169.587 
Q 383.449442 169.873875 382.721942 169.873875 
Q 381.516317 169.873875 380.777567 168.955125 
Q 380.038817 168.0345 380.038817 166.51575 
Q 380.038817 164.99325 380.777567 164.0745 
Q 381.516317 163.153875 382.721942 163.153875 
Q 383.449442 163.153875 383.970692 163.44075 
Q 384.491942 163.727625 384.825692 164.307 
L 384.825692 163.311375 
L 385.903817 163.311375 
L 385.903817 169.060125 
z
" clip-path="url(#p5360c2339a)" style="fill: #ffffff"/>
    <path d="M 337.896082 179.76 
L 337.896082 180.286875 
L 332.938582 180.286875 
Q 333.009832 181.400625 333.609832 181.98375 
Q 334.209832 182.566875 335.282332 182.566875 
Q 335.902957 182.566875 336.486082 182.415 
Q 337.069207 182.263125 337.644832 181.9575 
L 337.644832 182.9775 
Q 337.063582 183.223125 336.454207 183.3525 
Q 335.844832 183.481875 335.218582 183.481875 
Q 333.647332 183.481875 332.730457 182.56875 
Q 331.813582 181.65375 331.813582 180.09375 
Q 331.813582 178.483125 332.683582 177.538125 
Q 333.553582 176.59125 335.031082 176.59125 
Q 336.354832 176.59125 337.125457 177.444375 
Q 337.896082 178.295625 337.896082 179.76 
z
M 336.817957 179.443125 
Q 336.806707 178.56 336.322957 178.033125 
Q 335.839207 177.504375 335.042332 177.504375 
Q 334.140457 177.504375 333.598582 178.014375 
Q 333.056707 178.524375 332.974207 179.450625 
L 336.817957 179.443125 
z
M 345.121395 179.349375 
L 345.121395 183.31125 
L 344.04327 183.31125 
L 344.04327 179.385 
Q 344.04327 178.453125 343.67952 177.991875 
Q 343.31577 177.52875 342.590145 177.52875 
Q 341.716395 177.52875 341.21202 178.085625 
Q 340.707645 178.640625 340.707645 179.6025 
L 340.707645 183.31125 
L 339.623895 183.31125 
L 339.623895 176.74875 
L 340.707645 176.74875 
L 340.707645 177.76875 
Q 341.09577 177.17625 341.618895 176.88375 
Q 342.143895 176.59125 342.830145 176.59125 
Q 343.96077 176.59125 344.540145 177.290625 
Q 345.121395 177.99 345.121395 179.349375 
z
M 346.801863 176.74875 
L 351.922488 176.74875 
L 351.922488 177.733125 
L 347.868738 182.450625 
L 351.922488 182.450625 
L 351.922488 183.31125 
L 346.655613 183.31125 
L 346.655613 182.326875 
L 350.711238 177.609375 
L 346.801863 177.609375 
L 346.801863 176.74875 
z
M 356.299442 183.920625 
Q 355.843817 185.0925 355.408817 185.44875 
Q 354.975692 185.806875 354.250067 185.806875 
L 353.387567 185.806875 
L 353.387567 184.905 
L 354.021317 184.905 
Q 354.465692 184.905 354.711317 184.693125 
Q 354.958817 184.483125 355.256942 183.6975 
L 355.450067 183.20625 
L 352.796942 176.74875 
L 353.938817 176.74875 
L 355.990067 181.880625 
L 358.041317 176.74875 
L 359.183192 176.74875 
L 356.299442 183.920625 
z
M 365.780379 178.00875 
Q 366.185379 177.28125 366.747879 176.93625 
Q 367.310379 176.59125 368.071629 176.59125 
Q 369.097254 176.59125 369.654129 177.309375 
Q 370.211004 178.025625 370.211004 179.349375 
L 370.211004 183.31125 
L 369.127254 183.31125 
L 369.127254 179.385 
Q 369.127254 178.441875 368.791629 177.98625 
Q 368.457879 177.52875 367.773504 177.52875 
Q 366.935379 177.52875 366.447879 178.085625 
Q 365.962254 178.640625 365.962254 179.6025 
L 365.962254 183.31125 
L 364.878504 183.31125 
L 364.878504 179.385 
Q 364.878504 178.43625 364.544754 177.9825 
Q 364.211004 177.52875 363.513504 177.52875 
Q 362.686629 177.52875 362.199129 178.0875 
Q 361.713504 178.64625 361.713504 179.6025 
L 361.713504 183.31125 
L 360.629754 183.31125 
L 360.629754 176.74875 
L 361.713504 176.74875 
L 361.713504 177.76875 
Q 362.082879 177.165 362.598504 176.878125 
Q 363.114129 176.59125 363.822879 176.59125 
Q 364.539129 176.59125 365.039754 176.955 
Q 365.540379 177.316875 365.780379 178.00875 
z
M 377.974207 179.76 
L 377.974207 180.286875 
L 373.016707 180.286875 
Q 373.087957 181.400625 373.687957 181.98375 
Q 374.287957 182.566875 375.360457 182.566875 
Q 375.981082 182.566875 376.564207 182.415 
Q 377.147332 182.263125 377.722957 181.9575 
L 377.722957 182.9775 
Q 377.141707 183.223125 376.532332 183.3525 
Q 375.922957 183.481875 375.296707 183.481875 
Q 373.725457 183.481875 372.808582 182.56875 
Q 371.891707 181.65375 371.891707 180.09375 
Q 371.891707 178.483125 372.761707 177.538125 
Q 373.631707 176.59125 375.109207 176.59125 
Q 376.432957 176.59125 377.203582 177.444375 
Q 377.974207 178.295625 377.974207 179.76 
z
M 376.896082 179.443125 
Q 376.884832 178.56 376.401082 178.033125 
Q 375.917332 177.504375 375.120457 177.504375 
Q 374.218582 177.504375 373.676707 178.014375 
Q 373.134832 178.524375 373.052332 179.450625 
L 376.896082 179.443125 
z
" clip-path="url(#p5360c2339a)" style="fill: #ffffff; stroke: #000000; stroke-width: 2"/>
    <path d="M 337.896082 179.76 
L 337.896082 180.286875 
L 332.938582 180.286875 
Q 333.009832 181.400625 333.609832 181.98375 
Q 334.209832 182.566875 335.282332 182.566875 
Q 335.902957 182.566875 336.486082 182.415 
Q 337.069207 182.263125 337.644832 181.9575 
L 337.644832 182.9775 
Q 337.063582 183.223125 336.454207 183.3525 
Q 335.844832 183.481875 335.218582 183.481875 
Q 333.647332 183.481875 332.730457 182.56875 
Q 331.813582 181.65375 331.813582 180.09375 
Q 331.813582 178.483125 332.683582 177.538125 
Q 333.553582 176.59125 335.031082 176.59125 
Q 336.354832 176.59125 337.125457 177.444375 
Q 337.896082 178.295625 337.896082 179.76 
z
M 336.817957 179.443125 
Q 336.806707 178.56 336.322957 178.033125 
Q 335.839207 177.504375 335.042332 177.504375 
Q 334.140457 177.504375 333.598582 178.014375 
Q 333.056707 178.524375 332.974207 179.450625 
L 336.817957 179.443125 
z
M 345.121395 179.349375 
L 345.121395 183.31125 
L 344.04327 183.31125 
L 344.04327 179.385 
Q 344.04327 178.453125 343.67952 177.991875 
Q 343.31577 177.52875 342.590145 177.52875 
Q 341.716395 177.52875 341.21202 178.085625 
Q 340.707645 178.640625 340.707645 179.6025 
L 340.707645 183.31125 
L 339.623895 183.31125 
L 339.623895 176.74875 
L 340.707645 176.74875 
L 340.707645 177.76875 
Q 341.09577 177.17625 341.618895 176.88375 
Q 342.143895 176.59125 342.830145 176.59125 
Q 343.96077 176.59125 344.540145 177.290625 
Q 345.121395 177.99 345.121395 179.349375 
z
M 346.801863 176.74875 
L 351.922488 176.74875 
L 351.922488 177.733125 
L 347.868738 182.450625 
L 351.922488 182.450625 
L 351.922488 183.31125 
L 346.655613 183.31125 
L 346.655613 182.326875 
L 350.711238 177.609375 
L 346.801863 177.609375 
L 346.801863 176.74875 
z
M 356.299442 183.920625 
Q 355.843817 185.0925 355.408817 185.44875 
Q 354.975692 185.806875 354.250067 185.806875 
L 353.387567 185.806875 
L 353.387567 184.905 
L 354.021317 184.905 
Q 354.465692 184.905 354.711317 184.693125 
Q 354.958817 184.483125 355.256942 183.6975 
L 355.450067 183.20625 
L 352.796942 176.74875 
L 353.938817 176.74875 
L 355.990067 181.880625 
L 358.041317 176.74875 
L 359.183192 176.74875 
L 356.299442 183.920625 
z
M 365.780379 178.00875 
Q 366.185379 177.28125 366.747879 176.93625 
Q 367.310379 176.59125 368.071629 176.59125 
Q 369.097254 176.59125 369.654129 177.309375 
Q 370.211004 178.025625 370.211004 179.349375 
L 370.211004 183.31125 
L 369.127254 183.31125 
L 369.127254 179.385 
Q 369.127254 178.441875 368.791629 177.98625 
Q 368.457879 177.52875 367.773504 177.52875 
Q 366.935379 177.52875 366.447879 178.085625 
Q 365.962254 178.640625 365.962254 179.6025 
L 365.962254 183.31125 
L 364.878504 183.31125 
L 364.878504 179.385 
Q 364.878504 178.43625 364.544754 177.9825 
Q 364.211004 177.52875 363.513504 177.52875 
Q 362.686629 177.52875 362.199129 178.0875 
Q 361.713504 178.64625 361.713504 179.6025 
L 361.713504 183.31125 
L 360.629754 183.31125 
L 360.629754 176.74875 
L 361.713504 176.74875 
L 361.713504 177.76875 
Q 362.082879 177.165 362.598504 176.878125 
Q 363.114129 176.59125 363.822879 176.59125 
Q 364.539129 176.59125 365.039754 176.955 
Q 365.540379 177.316875 365.780379 178.00875 
z
M 377.974207 179.76 
L 377.974207 180.286875 
L 373.016707 180.286875 
Q 373.087957 181.400625 373.687957 181.98375 
Q 374.287957 182.566875 375.360457 182.566875 
Q 375.981082 182.566875 376.564207 182.415 
Q 377.147332 182.263125 377.722957 181.9575 
L 377.722957 182.9775 
Q 377.141707 183.223125 376.532332 183.3525 
Q 375.922957 183.481875 375.296707 183.481875 
Q 373.725457 183.481875 372.808582 182.56875 
Q 371.891707 181.65375 371.891707 180.09375 
Q 371.891707 178.483125 372.761707 177.538125 
Q 373.631707 176.59125 375.109207 176.59125 
Q 376.432957 176.59125 377.203582 177.444375 
Q 377.974207 178.295625 377.974207 179.76 
z
M 376.896082 179.443125 
Q 376.884832 178.56 376.401082 178.033125 
Q 375.917332 177.504375 375.120457 177.504375 
Q 374.218582 177.504375 373.676707 178.014375 
Q 373.134832 178.524375 373.052332 179.450625 
L 376.896082 179.443125 
z
" clip-path="url(#p5360c2339a)" style="fill: #ffffff"/>
    <path d="M 309.470145 187.999875 
L 310.66077 187.999875 
L 310.66077 193.3155 
Q 310.66077 194.72175 311.168895 195.3405 
Q 311.678895 195.957375 312.822645 195.957375 
Q 313.958895 195.957375 314.468895 195.3405 
Q 314.978895 194.72175 314.978895 193.3155 
L 314.978895 187.999875 
L 316.167645 187.999875 
L 316.167645 193.46175 
Q 316.167645 195.17175 315.320145 196.0455 
Q 314.47452 196.91925 312.822645 196.91925 
Q 311.16327 196.91925 310.31577 196.0455 
Q 309.470145 195.17175 309.470145 193.46175 
L 309.470145 187.999875 
z
M 323.797723 192.78675 
L 323.797723 196.748625 
L 322.719598 196.748625 
L 322.719598 192.822375 
Q 322.719598 191.8905 322.355848 191.42925 
Q 321.992098 190.966125 321.266473 190.966125 
Q 320.392723 190.966125 319.888348 191.523 
Q 319.383973 192.078 319.383973 193.039875 
L 319.383973 196.748625 
L 318.300223 196.748625 
L 318.300223 190.186125 
L 319.383973 190.186125 
L 319.383973 191.206125 
Q 319.772098 190.613625 320.295223 190.321125 
Q 320.820223 190.028625 321.506473 190.028625 
Q 322.637098 190.028625 323.216473 190.728 
Q 323.797723 191.427375 323.797723 192.78675 
z
M 325.946942 190.186125 
L 327.025067 190.186125 
L 327.025067 196.748625 
L 325.946942 196.748625 
L 325.946942 190.186125 
z
M 325.946942 187.6305 
L 327.025067 187.6305 
L 327.025067 188.997375 
L 325.946942 188.997375 
L 325.946942 187.6305 
z
M 330.510926 188.973 
L 330.510926 192.259875 
L 331.999676 192.259875 
Q 332.826551 192.259875 333.276551 191.832375 
Q 333.728426 191.404875 333.728426 190.613625 
Q 333.728426 189.828 333.276551 189.4005 
Q 332.826551 188.973 331.999676 188.973 
L 330.510926 188.973 
z
M 329.327801 187.999875 
L 331.999676 187.999875 
Q 333.471551 187.999875 334.223426 188.6655 
Q 334.977176 189.331125 334.977176 190.613625 
Q 334.977176 191.90925 334.223426 192.571125 
Q 333.471551 193.233 331.999676 193.233 
L 330.510926 193.233 
L 330.510926 196.748625 
L 329.327801 196.748625 
L 329.327801 187.999875 
z
M 340.109754 191.193 
Q 339.927879 191.088 339.714129 191.03925 
Q 339.500379 190.988625 339.243504 190.988625 
Q 338.328504 190.988625 337.839129 191.583 
Q 337.349754 192.177375 337.349754 193.291125 
L 337.349754 196.748625 
L 336.266004 196.748625 
L 336.266004 190.186125 
L 337.349754 190.186125 
L 337.349754 191.206125 
Q 337.691004 190.608 338.234754 190.31925 
Q 338.780379 190.028625 339.560379 190.028625 
Q 339.671004 190.028625 339.806004 190.043625 
Q 339.941004 190.05675 340.104129 190.08675 
L 340.109754 191.193 
z
M 343.513348 190.94175 
Q 342.647098 190.94175 342.142723 191.618625 
Q 341.638348 192.2955 341.638348 193.473 
Q 341.638348 194.6505 342.138973 195.327375 
Q 342.641473 196.00425 343.513348 196.00425 
Q 344.375848 196.00425 344.878348 195.3255 
Q 345.382723 194.644875 345.382723 193.473 
Q 345.382723 192.30675 344.878348 191.62425 
Q 344.375848 190.94175 343.513348 190.94175 
z
M 343.513348 190.028625 
Q 344.919598 190.028625 345.722098 190.943625 
Q 346.526473 191.85675 346.526473 193.473 
Q 346.526473 195.083625 345.722098 196.002375 
Q 344.919598 196.91925 343.513348 196.91925 
Q 342.101473 196.91925 341.300848 196.002375 
Q 340.502098 195.083625 340.502098 193.473 
Q 340.502098 191.85675 341.300848 190.943625 
Q 342.101473 190.028625 343.513348 190.028625 
z
M 349.37952 188.322375 
L 349.37952 190.186125 
L 351.59952 190.186125 
L 351.59952 191.02425 
L 349.37952 191.02425 
L 349.37952 194.58675 
Q 349.37952 195.38925 349.598895 195.618 
Q 349.81827 195.84675 350.49327 195.84675 
L 351.59952 195.84675 
L 351.59952 196.748625 
L 350.49327 196.748625 
Q 349.24452 196.748625 348.770145 196.283625 
Q 348.29577 195.81675 348.29577 194.58675 
L 348.29577 191.02425 
L 347.50452 191.02425 
L 347.50452 190.186125 
L 348.29577 190.186125 
L 348.29577 188.322375 
L 349.37952 188.322375 
z
M 353.293348 195.259875 
L 354.528973 195.259875 
L 354.528973 196.748625 
L 353.293348 196.748625 
L 353.293348 195.259875 
z
M 353.293348 190.54425 
L 354.528973 190.54425 
L 354.528973 192.031125 
L 353.293348 192.031125 
L 353.293348 190.54425 
z
M 358.290692 188.973 
L 358.290692 192.259875 
L 359.779442 192.259875 
Q 360.606317 192.259875 361.056317 191.832375 
Q 361.508192 191.404875 361.508192 190.613625 
Q 361.508192 189.828 361.056317 189.4005 
Q 360.606317 188.973 359.779442 188.973 
L 358.290692 188.973 
z
M 357.107567 187.999875 
L 359.779442 187.999875 
Q 361.251317 187.999875 362.003192 188.6655 
Q 362.756942 189.331125 362.756942 190.613625 
Q 362.756942 191.90925 362.003192 192.571125 
Q 361.251317 193.233 359.779442 193.233 
L 358.290692 193.233 
L 358.290692 196.748625 
L 357.107567 196.748625 
L 357.107567 187.999875 
z
M 364.655145 195.753 
L 366.58827 195.753 
L 366.58827 189.078 
L 364.48452 189.499875 
L 364.48452 188.42175 
L 366.57702 187.999875 
L 367.760145 187.999875 
L 367.760145 195.753 
L 369.69327 195.753 
L 369.69327 196.748625 
L 364.655145 196.748625 
L 364.655145 195.753 
z
M 373.10366 195.753 
L 377.234285 195.753 
L 377.234285 196.748625 
L 371.680535 196.748625 
L 371.680535 195.753 
Q 372.35366 195.0555 373.51616 193.88175 
Q 374.680535 192.706125 374.97866 192.364875 
Q 375.546785 191.727375 375.771785 191.284875 
Q 375.99866 190.842375 375.99866 190.414875 
Q 375.99866 189.717375 375.509285 189.278625 
Q 375.01991 188.838 374.234285 188.838 
Q 373.67741 188.838 373.05866 189.031125 
Q 372.441785 189.22425 371.73866 189.618 
L 371.73866 188.42175 
Q 372.453035 188.134875 373.07366 187.988625 
Q 373.69616 187.842375 374.211785 187.842375 
Q 375.57116 187.842375 376.379285 188.523 
Q 377.18741 189.20175 377.18741 190.338 
Q 377.18741 190.878 376.98491 191.36175 
Q 376.784285 191.843625 376.24991 192.499875 
Q 376.10366 192.6705 375.318035 193.482375 
Q 374.534285 194.29425 373.10366 195.753 
z
M 382.249676 192.593625 
Q 381.405926 192.593625 380.922176 193.0455 
Q 380.440301 193.497375 380.440301 194.28675 
Q 380.440301 195.078 380.922176 195.529875 
Q 381.405926 195.98175 382.249676 195.98175 
Q 383.093426 195.98175 383.579051 195.528 
Q 384.066551 195.072375 384.066551 194.28675 
Q 384.066551 193.497375 383.582801 193.0455 
Q 383.100926 192.593625 382.249676 192.593625 
z
M 381.066551 192.091125 
Q 380.305301 191.903625 379.879676 191.382375 
Q 379.455926 190.85925 379.455926 190.10925 
Q 379.455926 189.061125 380.202176 188.45175 
Q 380.950301 187.842375 382.249676 187.842375 
Q 383.556551 187.842375 384.300926 188.45175 
Q 385.045301 189.061125 385.045301 190.10925 
Q 385.045301 190.85925 384.619676 191.382375 
Q 384.195926 191.903625 383.440301 192.091125 
Q 384.295301 192.289875 384.771551 192.871125 
Q 385.249676 193.4505 385.249676 194.28675 
Q 385.249676 195.559875 384.473426 196.2405 
Q 383.697176 196.91925 382.249676 196.91925 
Q 380.804051 196.91925 380.025926 196.2405 
Q 379.249676 195.559875 379.249676 194.28675 
Q 379.249676 193.4505 379.729676 192.871125 
Q 380.211551 192.289875 381.066551 192.091125 
z
M 380.633426 190.22175 
Q 380.633426 190.9005 381.057176 191.281125 
Q 381.482801 191.66175 382.249676 191.66175 
Q 383.012801 191.66175 383.442176 191.281125 
Q 383.873426 190.9005 383.873426 190.22175 
Q 383.873426 189.541125 383.442176 189.1605 
Q 383.012801 188.779875 382.249676 188.779875 
Q 381.482801 188.779875 381.057176 189.1605 
Q 380.633426 189.541125 380.633426 190.22175 
z
M 388.373192 195.753 
L 392.503817 195.753 
L 392.503817 196.748625 
L 386.950067 196.748625 
L 386.950067 195.753 
Q 387.623192 195.0555 388.785692 193.88175 
Q 389.950067 192.706125 390.248192 192.364875 
Q 390.816317 191.727375 391.041317 191.284875 
Q 391.268192 190.842375 391.268192 190.414875 
Q 391.268192 189.717375 390.778817 189.278625 
Q 390.289442 188.838 389.503817 188.838 
Q 388.946942 188.838 388.328192 189.031125 
Q 387.711317 189.22425 387.008192 189.618 
L 387.008192 188.42175 
Q 387.722567 188.134875 388.343192 187.988625 
Q 388.965692 187.842375 389.481317 187.842375 
Q 390.840692 187.842375 391.648817 188.523 
Q 392.456942 189.20175 392.456942 190.338 
Q 392.456942 190.878 392.254442 191.36175 
Q 392.053817 191.843625 391.519442 192.499875 
Q 391.373192 192.6705 390.587567 193.482375 
Q 389.803817 194.29425 388.373192 195.753 
z
M 395.194207 195.753 
L 397.127332 195.753 
L 397.127332 189.078 
L 395.023582 189.499875 
L 395.023582 188.42175 
L 397.116082 187.999875 
L 398.299207 187.999875 
L 398.299207 195.753 
L 400.232332 195.753 
L 400.232332 196.748625 
L 395.194207 196.748625 
L 395.194207 195.753 
z
" clip-path="url(#p5360c2339a)" style="fill: #ffffff; stroke: #000000; stroke-width: 2"/>
    <path d="M 309.470145 187.999875 
L 310.66077 187.999875 
L 310.66077 193.3155 
Q 310.66077 194.72175 311.168895 195.3405 
Q 311.678895 195.957375 312.822645 195.957375 
Q 313.958895 195.957375 314.468895 195.3405 
Q 314.978895 194.72175 314.978895 193.3155 
L 314.978895 187.999875 
L 316.167645 187.999875 
L 316.167645 193.46175 
Q 316.167645 195.17175 315.320145 196.0455 
Q 314.47452 196.91925 312.822645 196.91925 
Q 311.16327 196.91925 310.31577 196.0455 
Q 309.470145 195.17175 309.470145 193.46175 
L 309.470145 187.999875 
z
M 323.797723 192.78675 
L 323.797723 196.748625 
L 322.719598 196.748625 
L 322.719598 192.822375 
Q 322.719598 191.8905 322.355848 191.42925 
Q 321.992098 190.966125 321.266473 190.966125 
Q 320.392723 190.966125 319.888348 191.523 
Q 319.383973 192.078 319.383973 193.039875 
L 319.383973 196.748625 
L 318.300223 196.748625 
L 318.300223 190.186125 
L 319.383973 190.186125 
L 319.383973 191.206125 
Q 319.772098 190.613625 320.295223 190.321125 
Q 320.820223 190.028625 321.506473 190.028625 
Q 322.637098 190.028625 323.216473 190.728 
Q 323.797723 191.427375 323.797723 192.78675 
z
M 325.946942 190.186125 
L 327.025067 190.186125 
L 327.025067 196.748625 
L 325.946942 196.748625 
L 325.946942 190.186125 
z
M 325.946942 187.6305 
L 327.025067 187.6305 
L 327.025067 188.997375 
L 325.946942 188.997375 
L 325.946942 187.6305 
z
M 330.510926 188.973 
L 330.510926 192.259875 
L 331.999676 192.259875 
Q 332.826551 192.259875 333.276551 191.832375 
Q 333.728426 191.404875 333.728426 190.613625 
Q 333.728426 189.828 333.276551 189.4005 
Q 332.826551 188.973 331.999676 188.973 
L 330.510926 188.973 
z
M 329.327801 187.999875 
L 331.999676 187.999875 
Q 333.471551 187.999875 334.223426 188.6655 
Q 334.977176 189.331125 334.977176 190.613625 
Q 334.977176 191.90925 334.223426 192.571125 
Q 333.471551 193.233 331.999676 193.233 
L 330.510926 193.233 
L 330.510926 196.748625 
L 329.327801 196.748625 
L 329.327801 187.999875 
z
M 340.109754 191.193 
Q 339.927879 191.088 339.714129 191.03925 
Q 339.500379 190.988625 339.243504 190.988625 
Q 338.328504 190.988625 337.839129 191.583 
Q 337.349754 192.177375 337.349754 193.291125 
L 337.349754 196.748625 
L 336.266004 196.748625 
L 336.266004 190.186125 
L 337.349754 190.186125 
L 337.349754 191.206125 
Q 337.691004 190.608 338.234754 190.31925 
Q 338.780379 190.028625 339.560379 190.028625 
Q 339.671004 190.028625 339.806004 190.043625 
Q 339.941004 190.05675 340.104129 190.08675 
L 340.109754 191.193 
z
M 343.513348 190.94175 
Q 342.647098 190.94175 342.142723 191.618625 
Q 341.638348 192.2955 341.638348 193.473 
Q 341.638348 194.6505 342.138973 195.327375 
Q 342.641473 196.00425 343.513348 196.00425 
Q 344.375848 196.00425 344.878348 195.3255 
Q 345.382723 194.644875 345.382723 193.473 
Q 345.382723 192.30675 344.878348 191.62425 
Q 344.375848 190.94175 343.513348 190.94175 
z
M 343.513348 190.028625 
Q 344.919598 190.028625 345.722098 190.943625 
Q 346.526473 191.85675 346.526473 193.473 
Q 346.526473 195.083625 345.722098 196.002375 
Q 344.919598 196.91925 343.513348 196.91925 
Q 342.101473 196.91925 341.300848 196.002375 
Q 340.502098 195.083625 340.502098 193.473 
Q 340.502098 191.85675 341.300848 190.943625 
Q 342.101473 190.028625 343.513348 190.028625 
z
M 349.37952 188.322375 
L 349.37952 190.186125 
L 351.59952 190.186125 
L 351.59952 191.02425 
L 349.37952 191.02425 
L 349.37952 194.58675 
Q 349.37952 195.38925 349.598895 195.618 
Q 349.81827 195.84675 350.49327 195.84675 
L 351.59952 195.84675 
L 351.59952 196.748625 
L 350.49327 196.748625 
Q 349.24452 196.748625 348.770145 196.283625 
Q 348.29577 195.81675 348.29577 194.58675 
L 348.29577 191.02425 
L 347.50452 191.02425 
L 347.50452 190.186125 
L 348.29577 190.186125 
L 348.29577 188.322375 
L 349.37952 188.322375 
z
M 353.293348 195.259875 
L 354.528973 195.259875 
L 354.528973 196.748625 
L 353.293348 196.748625 
L 353.293348 195.259875 
z
M 353.293348 190.54425 
L 354.528973 190.54425 
L 354.528973 192.031125 
L 353.293348 192.031125 
L 353.293348 190.54425 
z
M 358.290692 188.973 
L 358.290692 192.259875 
L 359.779442 192.259875 
Q 360.606317 192.259875 361.056317 191.832375 
Q 361.508192 191.404875 361.508192 190.613625 
Q 361.508192 189.828 361.056317 189.4005 
Q 360.606317 188.973 359.779442 188.973 
L 358.290692 188.973 
z
M 357.107567 187.999875 
L 359.779442 187.999875 
Q 361.251317 187.999875 362.003192 188.6655 
Q 362.756942 189.331125 362.756942 190.613625 
Q 362.756942 191.90925 362.003192 192.571125 
Q 361.251317 193.233 359.779442 193.233 
L 358.290692 193.233 
L 358.290692 196.748625 
L 357.107567 196.748625 
L 357.107567 187.999875 
z
M 364.655145 195.753 
L 366.58827 195.753 
L 366.58827 189.078 
L 364.48452 189.499875 
L 364.48452 188.42175 
L 366.57702 187.999875 
L 367.760145 187.999875 
L 367.760145 195.753 
L 369.69327 195.753 
L 369.69327 196.748625 
L 364.655145 196.748625 
L 364.655145 195.753 
z
M 373.10366 195.753 
L 377.234285 195.753 
L 377.234285 196.748625 
L 371.680535 196.748625 
L 371.680535 195.753 
Q 372.35366 195.0555 373.51616 193.88175 
Q 374.680535 192.706125 374.97866 192.364875 
Q 375.546785 191.727375 375.771785 191.284875 
Q 375.99866 190.842375 375.99866 190.414875 
Q 375.99866 189.717375 375.509285 189.278625 
Q 375.01991 188.838 374.234285 188.838 
Q 373.67741 188.838 373.05866 189.031125 
Q 372.441785 189.22425 371.73866 189.618 
L 371.73866 188.42175 
Q 372.453035 188.134875 373.07366 187.988625 
Q 373.69616 187.842375 374.211785 187.842375 
Q 375.57116 187.842375 376.379285 188.523 
Q 377.18741 189.20175 377.18741 190.338 
Q 377.18741 190.878 376.98491 191.36175 
Q 376.784285 191.843625 376.24991 192.499875 
Q 376.10366 192.6705 375.318035 193.482375 
Q 374.534285 194.29425 373.10366 195.753 
z
M 382.249676 192.593625 
Q 381.405926 192.593625 380.922176 193.0455 
Q 380.440301 193.497375 380.440301 194.28675 
Q 380.440301 195.078 380.922176 195.529875 
Q 381.405926 195.98175 382.249676 195.98175 
Q 383.093426 195.98175 383.579051 195.528 
Q 384.066551 195.072375 384.066551 194.28675 
Q 384.066551 193.497375 383.582801 193.0455 
Q 383.100926 192.593625 382.249676 192.593625 
z
M 381.066551 192.091125 
Q 380.305301 191.903625 379.879676 191.382375 
Q 379.455926 190.85925 379.455926 190.10925 
Q 379.455926 189.061125 380.202176 188.45175 
Q 380.950301 187.842375 382.249676 187.842375 
Q 383.556551 187.842375 384.300926 188.45175 
Q 385.045301 189.061125 385.045301 190.10925 
Q 385.045301 190.85925 384.619676 191.382375 
Q 384.195926 191.903625 383.440301 192.091125 
Q 384.295301 192.289875 384.771551 192.871125 
Q 385.249676 193.4505 385.249676 194.28675 
Q 385.249676 195.559875 384.473426 196.2405 
Q 383.697176 196.91925 382.249676 196.91925 
Q 380.804051 196.91925 380.025926 196.2405 
Q 379.249676 195.559875 379.249676 194.28675 
Q 379.249676 193.4505 379.729676 192.871125 
Q 380.211551 192.289875 381.066551 192.091125 
z
M 380.633426 190.22175 
Q 380.633426 190.9005 381.057176 191.281125 
Q 381.482801 191.66175 382.249676 191.66175 
Q 383.012801 191.66175 383.442176 191.281125 
Q 383.873426 190.9005 383.873426 190.22175 
Q 383.873426 189.541125 383.442176 189.1605 
Q 383.012801 188.779875 382.249676 188.779875 
Q 381.482801 188.779875 381.057176 189.1605 
Q 380.633426 189.541125 380.633426 190.22175 
z
M 388.373192 195.753 
L 392.503817 195.753 
L 392.503817 196.748625 
L 386.950067 196.748625 
L 386.950067 195.753 
Q 387.623192 195.0555 388.785692 193.88175 
Q 389.950067 192.706125 390.248192 192.364875 
Q 390.816317 191.727375 391.041317 191.284875 
Q 391.268192 190.842375 391.268192 190.414875 
Q 391.268192 189.717375 390.778817 189.278625 
Q 390.289442 188.838 389.503817 188.838 
Q 388.946942 188.838 388.328192 189.031125 
Q 387.711317 189.22425 387.008192 189.618 
L 387.008192 188.42175 
Q 387.722567 188.134875 388.343192 187.988625 
Q 388.965692 187.842375 389.481317 187.842375 
Q 390.840692 187.842375 391.648817 188.523 
Q 392.456942 189.20175 392.456942 190.338 
Q 392.456942 190.878 392.254442 191.36175 
Q 392.053817 191.843625 391.519442 192.499875 
Q 391.373192 192.6705 390.587567 193.482375 
Q 389.803817 194.29425 388.373192 195.753 
z
M 395.194207 195.753 
L 397.127332 195.753 
L 397.127332 189.078 
L 395.023582 189.499875 
L 395.023582 188.42175 
L 397.116082 187.999875 
L 398.299207 187.999875 
L 398.299207 195.753 
L 400.232332 195.753 
L 400.232332 196.748625 
L 395.194207 196.748625 
L 395.194207 195.753 
z
" clip-path="url(#p5360c2339a)" style="fill: #ffffff"/>
    <path d="M 336.214207 202.410375 
L 336.214207 205.69725 
L 337.702957 205.69725 
Q 338.529832 205.69725 338.979832 205.26975 
Q 339.431707 204.84225 339.431707 204.051 
Q 339.431707 203.265375 338.979832 202.837875 
Q 338.529832 202.410375 337.702957 202.410375 
L 336.214207 202.410375 
z
M 335.031082 201.43725 
L 337.702957 201.43725 
Q 339.174832 201.43725 339.926707 202.102875 
Q 340.680457 202.7685 340.680457 204.051 
Q 340.680457 205.346625 339.926707 206.0085 
Q 339.174832 206.670375 337.702957 206.670375 
L 336.214207 206.670375 
L 336.214207 210.186 
L 335.031082 210.186 
L 335.031082 201.43725 
z
M 345.813035 204.630375 
Q 345.63116 204.525375 345.41741 204.476625 
Q 345.20366 204.426 344.946785 204.426 
Q 344.031785 204.426 343.54241 205.020375 
Q 343.053035 205.61475 343.053035 206.7285 
L 343.053035 210.186 
L 341.969285 210.186 
L 341.969285 203.6235 
L 343.053035 203.6235 
L 343.053035 204.6435 
Q 343.394285 204.045375 343.938035 203.756625 
Q 344.48366 203.466 345.26366 203.466 
Q 345.374285 203.466 345.509285 203.481 
Q 345.644285 203.494125 345.80741 203.524125 
L 345.813035 204.630375 
z
M 349.216629 204.379125 
Q 348.350379 204.379125 347.846004 205.056 
Q 347.341629 205.732875 347.341629 206.910375 
Q 347.341629 208.087875 347.842254 208.76475 
Q 348.344754 209.441625 349.216629 209.441625 
Q 350.079129 209.441625 350.581629 208.762875 
Q 351.086004 208.08225 351.086004 206.910375 
Q 351.086004 205.744125 350.581629 205.061625 
Q 350.079129 204.379125 349.216629 204.379125 
z
M 349.216629 203.466 
Q 350.622879 203.466 351.425379 204.381 
Q 352.229754 205.294125 352.229754 206.910375 
Q 352.229754 208.521 351.425379 209.43975 
Q 350.622879 210.356625 349.216629 210.356625 
Q 347.804754 210.356625 347.004129 209.43975 
Q 346.205379 208.521 346.205379 206.910375 
Q 346.205379 205.294125 347.004129 204.381 
Q 347.804754 203.466 349.216629 203.466 
z
M 355.082801 201.75975 
L 355.082801 203.6235 
L 357.302801 203.6235 
L 357.302801 204.461625 
L 355.082801 204.461625 
L 355.082801 208.024125 
Q 355.082801 208.826625 355.302176 209.055375 
Q 355.521551 209.284125 356.196551 209.284125 
L 357.302801 209.284125 
L 357.302801 210.186 
L 356.196551 210.186 
Q 354.947801 210.186 354.473426 209.721 
Q 353.999051 209.254125 353.999051 208.024125 
L 353.999051 204.461625 
L 353.207801 204.461625 
L 353.207801 203.6235 
L 353.999051 203.6235 
L 353.999051 201.75975 
L 355.082801 201.75975 
z
M 364.334754 206.63475 
L 364.334754 207.161625 
L 359.377254 207.161625 
Q 359.448504 208.275375 360.048504 208.8585 
Q 360.648504 209.441625 361.721004 209.441625 
Q 362.341629 209.441625 362.924754 209.28975 
Q 363.507879 209.137875 364.083504 208.83225 
L 364.083504 209.85225 
Q 363.502254 210.097875 362.892879 210.22725 
Q 362.283504 210.356625 361.657254 210.356625 
Q 360.086004 210.356625 359.169129 209.4435 
Q 358.252254 208.5285 358.252254 206.9685 
Q 358.252254 205.357875 359.122254 204.412875 
Q 359.992254 203.466 361.469754 203.466 
Q 362.793504 203.466 363.564129 204.319125 
Q 364.334754 205.170375 364.334754 206.63475 
z
M 363.256629 206.317875 
Q 363.245379 205.43475 362.761629 204.907875 
Q 362.277879 204.379125 361.481004 204.379125 
Q 360.579129 204.379125 360.037254 204.889125 
Q 359.495379 205.399125 359.412879 206.325375 
L 363.256629 206.317875 
z
M 366.103817 203.6235 
L 367.181942 203.6235 
L 367.181942 210.186 
L 366.103817 210.186 
L 366.103817 203.6235 
z
M 366.103817 201.067875 
L 367.181942 201.067875 
L 367.181942 202.43475 
L 366.103817 202.43475 
L 366.103817 201.067875 
z
M 374.894051 206.224125 
L 374.894051 210.186 
L 373.815926 210.186 
L 373.815926 206.25975 
Q 373.815926 205.327875 373.452176 204.866625 
Q 373.088426 204.4035 372.362801 204.4035 
Q 371.489051 204.4035 370.984676 204.960375 
Q 370.480301 205.515375 370.480301 206.47725 
L 370.480301 210.186 
L 369.396551 210.186 
L 369.396551 203.6235 
L 370.480301 203.6235 
L 370.480301 204.6435 
Q 370.868426 204.051 371.391551 203.7585 
Q 371.916551 203.466 372.602801 203.466 
Q 373.733426 203.466 374.312801 204.165375 
Q 374.894051 204.86475 374.894051 206.224125 
z
" clip-path="url(#p5360c2339a)" style="fill: #ffffff; stroke: #000000; stroke-width: 2"/>
    <path d="M 336.214207 202.410375 
L 336.214207 205.69725 
L 337.702957 205.69725 
Q 338.529832 205.69725 338.979832 205.26975 
Q 339.431707 204.84225 339.431707 204.051 
Q 339.431707 203.265375 338.979832 202.837875 
Q 338.529832 202.410375 337.702957 202.410375 
L 336.214207 202.410375 
z
M 335.031082 201.43725 
L 337.702957 201.43725 
Q 339.174832 201.43725 339.926707 202.102875 
Q 340.680457 202.7685 340.680457 204.051 
Q 340.680457 205.346625 339.926707 206.0085 
Q 339.174832 206.670375 337.702957 206.670375 
L 336.214207 206.670375 
L 336.214207 210.186 
L 335.031082 210.186 
L 335.031082 201.43725 
z
M 345.813035 204.630375 
Q 345.63116 204.525375 345.41741 204.476625 
Q 345.20366 204.426 344.946785 204.426 
Q 344.031785 204.426 343.54241 205.020375 
Q 343.053035 205.61475 343.053035 206.7285 
L 343.053035 210.186 
L 341.969285 210.186 
L 341.969285 203.6235 
L 343.053035 203.6235 
L 343.053035 204.6435 
Q 343.394285 204.045375 343.938035 203.756625 
Q 344.48366 203.466 345.26366 203.466 
Q 345.374285 203.466 345.509285 203.481 
Q 345.644285 203.494125 345.80741 203.524125 
L 345.813035 204.630375 
z
M 349.216629 204.379125 
Q 348.350379 204.379125 347.846004 205.056 
Q 347.341629 205.732875 347.341629 206.910375 
Q 347.341629 208.087875 347.842254 208.76475 
Q 348.344754 209.441625 349.216629 209.441625 
Q 350.079129 209.441625 350.581629 208.762875 
Q 351.086004 208.08225 351.086004 206.910375 
Q 351.086004 205.744125 350.581629 205.061625 
Q 350.079129 204.379125 349.216629 204.379125 
z
M 349.216629 203.466 
Q 350.622879 203.466 351.425379 204.381 
Q 352.229754 205.294125 352.229754 206.910375 
Q 352.229754 208.521 351.425379 209.43975 
Q 350.622879 210.356625 349.216629 210.356625 
Q 347.804754 210.356625 347.004129 209.43975 
Q 346.205379 208.521 346.205379 206.910375 
Q 346.205379 205.294125 347.004129 204.381 
Q 347.804754 203.466 349.216629 203.466 
z
M 355.082801 201.75975 
L 355.082801 203.6235 
L 357.302801 203.6235 
L 357.302801 204.461625 
L 355.082801 204.461625 
L 355.082801 208.024125 
Q 355.082801 208.826625 355.302176 209.055375 
Q 355.521551 209.284125 356.196551 209.284125 
L 357.302801 209.284125 
L 357.302801 210.186 
L 356.196551 210.186 
Q 354.947801 210.186 354.473426 209.721 
Q 353.999051 209.254125 353.999051 208.024125 
L 353.999051 204.461625 
L 353.207801 204.461625 
L 353.207801 203.6235 
L 353.999051 203.6235 
L 353.999051 201.75975 
L 355.082801 201.75975 
z
M 364.334754 206.63475 
L 364.334754 207.161625 
L 359.377254 207.161625 
Q 359.448504 208.275375 360.048504 208.8585 
Q 360.648504 209.441625 361.721004 209.441625 
Q 362.341629 209.441625 362.924754 209.28975 
Q 363.507879 209.137875 364.083504 208.83225 
L 364.083504 209.85225 
Q 363.502254 210.097875 362.892879 210.22725 
Q 362.283504 210.356625 361.657254 210.356625 
Q 360.086004 210.356625 359.169129 209.4435 
Q 358.252254 208.5285 358.252254 206.9685 
Q 358.252254 205.357875 359.122254 204.412875 
Q 359.992254 203.466 361.469754 203.466 
Q 362.793504 203.466 363.564129 204.319125 
Q 364.334754 205.170375 364.334754 206.63475 
z
M 363.256629 206.317875 
Q 363.245379 205.43475 362.761629 204.907875 
Q 362.277879 204.379125 361.481004 204.379125 
Q 360.579129 204.379125 360.037254 204.889125 
Q 359.495379 205.399125 359.412879 206.325375 
L 363.256629 206.317875 
z
M 366.103817 203.6235 
L 367.181942 203.6235 
L 367.181942 210.186 
L 366.103817 210.186 
L 366.103817 203.6235 
z
M 366.103817 201.067875 
L 367.181942 201.067875 
L 367.181942 202.43475 
L 366.103817 202.43475 
L 366.103817 201.067875 
z
M 374.894051 206.224125 
L 374.894051 210.186 
L 373.815926 210.186 
L 373.815926 206.25975 
Q 373.815926 205.327875 373.452176 204.866625 
Q 373.088426 204.4035 372.362801 204.4035 
Q 371.489051 204.4035 370.984676 204.960375 
Q 370.480301 205.515375 370.480301 206.47725 
L 370.480301 210.186 
L 369.396551 210.186 
L 369.396551 203.6235 
L 370.480301 203.6235 
L 370.480301 204.6435 
Q 370.868426 204.051 371.391551 203.7585 
Q 371.916551 203.466 372.602801 203.466 
Q 373.733426 203.466 374.312801 204.165375 
Q 374.894051 204.86475 374.894051 206.224125 
z
" clip-path="url(#p5360c2339a)" style="fill: #ffffff"/>
   </g>
   <g id="text_6">
    <g clip-path="url(#p5360c2339a)">
     <!-- cilazapril -->
     <g transform="translate(78.220289 169.873875)scale(0.12 -0.12)">
      <defs>
       <path id="DejaVuSans-6c" d="M 603 4863 
L 1178 4863 
L 1178 0 
L 603 0 
L 603 4863 
z
" transform="scale(0.015625)"/>
       <path id="DejaVuSans-7a" d="M 353 3500 
L 3084 3500 
L 3084 2975 
L 922 459 
L 3084 459 
L 3084 0 
L 275 0 
L 275 525 
L 2438 3041 
L 353 3041 
L 353 3500 
z
" transform="scale(0.015625)"/>
       <path id="DejaVuSans-70" d="M 1159 525 
L 1159 -1331 
L 581 -1331 
L 581 3500 
L 1159 3500 
L 1159 2969 
Q 1341 3281 1617 3432 
Q 1894 3584 2278 3584 
Q 2916 3584 3314 3078 
Q 3713 2572 3713 1747 
Q 3713 922 3314 415 
Q 2916 -91 2278 -91 
Q 1894 -91 1617 61 
Q 1341 213 1159 525 
z
M 3116 1747 
Q 3116 2381 2855 2742 
Q 2594 3103 2138 3103 
Q 1681 3103 1420 2742 
Q 1159 2381 1159 1747 
Q 1159 1113 1420 752 
Q 1681 391 2138 391 
Q 2594 391 2855 752 
Q 3116 1113 3116 1747 
z
" transform="scale(0.015625)"/>
      </defs>
      <use xlink:href="#DejaVuSans-63"/>
      <use xlink:href="#DejaVuSans-69" x="54.980469"/>
      <use xlink:href="#DejaVuSans-6c" x="82.763672"/>
      <use xlink:href="#DejaVuSans-61" x="110.546875"/>
      <use xlink:href="#DejaVuSans-7a" x="171.826172"/>
      <use xlink:href="#DejaVuSans-61" x="224.316406"/>
      <use xlink:href="#DejaVuSans-70" x="285.595703"/>
      <use xlink:href="#DejaVuSans-72" x="349.072266"/>
      <use xlink:href="#DejaVuSans-69" x="390.185547"/>
      <use xlink:href="#DejaVuSans-6c" x="417.96875"/>
     </g>
    </g>
    <g clip-path="url(#p5360c2339a)">
     <!-- DB:DB01340 -->
     <g transform="translate(66.383414 183.31125)scale(0.12 -0.12)">
      <defs>
       <path id="DejaVuSans-44" d="M 1259 4147 
L 1259 519 
L 2022 519 
Q 2988 519 3436 956 
Q 3884 1394 3884 2338 
Q 3884 3275 3436 3711 
Q 2988 4147 2022 4147 
L 1259 4147 
z
M 628 4666 
L 1925 4666 
Q 3281 4666 3915 4102 
Q 4550 3538 4550 2338 
Q 4550 1131 3912 565 
Q 3275 0 1925 0 
L 628 0 
L 628 4666 
z
" transform="scale(0.015625)"/>
       <path id="DejaVuSans-42" d="M 1259 2228 
L 1259 519 
L 2272 519 
Q 2781 519 3026 730 
Q 3272 941 3272 1375 
Q 3272 1813 3026 2020 
Q 2781 2228 2272 2228 
L 1259 2228 
z
M 1259 4147 
L 1259 2741 
L 2194 2741 
Q 2656 2741 2882 2914 
Q 3109 3088 3109 3444 
Q 3109 3797 2882 3972 
Q 2656 4147 2194 4147 
L 1259 4147 
z
M 628 4666 
L 2241 4666 
Q 2963 4666 3353 4366 
Q 3744 4066 3744 3513 
Q 3744 3084 3544 2831 
Q 3344 2578 2956 2516 
Q 3422 2416 3680 2098 
Q 3938 1781 3938 1306 
Q 3938 681 3513 340 
Q 3088 0 2303 0 
L 628 0 
L 628 4666 
z
" transform="scale(0.015625)"/>
       <path id="DejaVuSans-3a" d="M 750 794 
L 1409 794 
L 1409 0 
L 750 0 
L 750 794 
z
M 750 3309 
L 1409 3309 
L 1409 2516 
L 750 2516 
L 750 3309 
z
" transform="scale(0.015625)"/>
       <path id="DejaVuSans-30" d="M 2034 4250 
Q 1547 4250 1301 3770 
Q 1056 3291 1056 2328 
Q 1056 1369 1301 889 
Q 1547 409 2034 409 
Q 2525 409 2770 889 
Q 3016 1369 3016 2328 
Q 3016 3291 2770 3770 
Q 2525 4250 2034 4250 
z
M 2034 4750 
Q 2819 4750 3233 4129 
Q 3647 3509 3647 2328 
Q 3647 1150 3233 529 
Q 2819 -91 2034 -91 
Q 1250 -91 836 529 
Q 422 1150 422 2328 
Q 422 3509 836 4129 
Q 1250 4750 2034 4750 
z
" transform="scale(0.015625)"/>
       <path id="DejaVuSans-31" d="M 794 531 
L 1825 531 
L 1825 4091 
L 703 3866 
L 703 4441 
L 1819 4666 
L 2450 4666 
L 2450 531 
L 3481 531 
L 3481 0 
L 794 0 
L 794 531 
z
" transform="scale(0.015625)"/>
       <path id="DejaVuSans-33" d="M 2597 2516 
Q 3050 2419 3304 2112 
Q 3559 1806 3559 1356 
Q 3559 666 3084 287 
Q 2609 -91 1734 -91 
Q 1441 -91 1130 -33 
Q 819 25 488 141 
L 488 750 
Q 750 597 1062 519 
Q 1375 441 1716 441 
Q 2309 441 2620 675 
Q 2931 909 2931 1356 
Q 2931 1769 2642 2001 
Q 2353 2234 1838 2234 
L 1294 2234 
L 1294 2753 
L 1863 2753 
Q 2328 2753 2575 2939 
Q 2822 3125 2822 3475 
Q 2822 3834 2567 4026 
Q 2313 4219 1838 4219 
Q 1578 4219 1281 4162 
Q 984 4106 628 3988 
L 628 4550 
Q 988 4650 1302 4700 
Q 1616 4750 1894 4750 
Q 2613 4750 3031 4423 
Q 3450 4097 3450 3541 
Q 3450 3153 3228 2886 
Q 3006 2619 2597 2516 
z
" transform="scale(0.015625)"/>
       <path id="DejaVuSans-34" d="M 2419 4116 
L 825 1625 
L 2419 1625 
L 2419 4116 
z
M 2253 4666 
L 3047 4666 
L 3047 1625 
L 3713 1625 
L 3713 1100 
L 3047 1100 
L 3047 0 
L 2419 0 
L 2419 1100 
L 313 1100 
L 313 1709 
L 2253 4666 
z
" transform="scale(0.015625)"/>
      </defs>
      <use xlink:href="#DejaVuSans-44"/>
      <use xlink:href="#DejaVuSans-42" x="77.001953"/>
      <use xlink:href="#DejaVuSans-3a" x="145.605469"/>
      <use xlink:href="#DejaVuSans-44" x="179.296875"/>
      <use xlink:href="#DejaVuSans-42" x="256.298828"/>
      <use xlink:href="#DejaVuSans-30" x="324.902344"/>
      <use xlink:href="#DejaVuSans-31" x="388.525391"/>
      <use xlink:href="#DejaVuSans-33" x="452.148438"/>
      <use xlink:href="#DejaVuSans-34" x="515.771484"/>
      <use xlink:href="#DejaVuSans-30" x="579.394531"/>
     </g>
    </g>
    <g clip-path="url(#p5360c2339a)">
     <!-- Drug -->
     <g transform="translate(90.267164 196.748625)scale(0.12 -0.12)">
      <defs>
       <path id="DejaVuSans-67" d="M 2906 1791 
Q 2906 2416 2648 2759 
Q 2391 3103 1925 3103 
Q 1463 3103 1205 2759 
Q 947 2416 947 1791 
Q 947 1169 1205 825 
Q 1463 481 1925 481 
Q 2391 481 2648 825 
Q 2906 1169 2906 1791 
z
M 3481 434 
Q 3481 -459 3084 -895 
Q 2688 -1331 1869 -1331 
Q 1566 -1331 1297 -1286 
Q 1028 -1241 775 -1147 
L 775 -588 
Q 1028 -725 1275 -790 
Q 1522 -856 1778 -856 
Q 2344 -856 2625 -561 
Q 2906 -266 2906 331 
L 2906 616 
Q 2728 306 2450 153 
Q 2172 0 1784 0 
Q 1141 0 747 490 
Q 353 981 353 1791 
Q 353 2603 747 3093 
Q 1141 3584 1784 3584 
Q 2172 3584 2450 3431 
Q 2728 3278 2906 2969 
L 2906 3500 
L 3481 3500 
L 3481 434 
z
" transform="scale(0.015625)"/>
      </defs>
      <use xlink:href="#DejaVuSans-44"/>
      <use xlink:href="#DejaVuSans-72" x="77.001953"/>
      <use xlink:href="#DejaVuSans-75" x="118.115234"/>
      <use xlink:href="#DejaVuSans-67" x="181.494141"/>
     </g>
    </g>
   </g>
   <g id="text_7">
    <g clip-path="url(#p5360c2339a)">
     <!-- Angiotensin II -->
     <g transform="translate(563.8575 169.873875)scale(0.12 -0.12)">
      <defs>
       <path id="DejaVuSans-41" d="M 2188 4044 
L 1331 1722 
L 3047 1722 
L 2188 4044 
z
M 1831 4666 
L 2547 4666 
L 4325 0 
L 3669 0 
L 3244 1197 
L 1141 1197 
L 716 0 
L 50 0 
L 1831 4666 
z
" transform="scale(0.015625)"/>
       <path id="DejaVuSans-49" d="M 628 4666 
L 1259 4666 
L 1259 0 
L 628 0 
L 628 4666 
z
" transform="scale(0.015625)"/>
      </defs>
      <use xlink:href="#DejaVuSans-41"/>
      <use xlink:href="#DejaVuSans-6e" x="68.408203"/>
      <use xlink:href="#DejaVuSans-67" x="131.787109"/>
      <use xlink:href="#DejaVuSans-69" x="195.263672"/>
      <use xlink:href="#DejaVuSans-6f" x="223.046875"/>
      <use xlink:href="#DejaVuSans-74" x="284.228516"/>
      <use xlink:href="#DejaVuSans-65" x="323.4375"/>
      <use xlink:href="#DejaVuSans-6e" x="384.960938"/>
      <use xlink:href="#DejaVuSans-73" x="448.339844"/>
      <use xlink:href="#DejaVuSans-69" x="500.439453"/>
      <use xlink:href="#DejaVuSans-6e" x="528.222656"/>
      <use xlink:href="#DejaVuSans-20" x="591.601562"/>
      <use xlink:href="#DejaVuSans-49" x="623.388672"/>
      <use xlink:href="#DejaVuSans-49" x="652.880859"/>
     </g>
    </g>
    <g clip-path="url(#p5360c2339a)">
     <!-- MESH:D000804 -->
     <g transform="translate(557.964375 183.31125)scale(0.12 -0.12)">
      <defs>
       <path id="DejaVuSans-4d" d="M 628 4666 
L 1569 4666 
L 2759 1491 
L 3956 4666 
L 4897 4666 
L 4897 0 
L 4281 0 
L 4281 4097 
L 3078 897 
L 2444 897 
L 1241 4097 
L 1241 0 
L 628 0 
L 628 4666 
z
" transform="scale(0.015625)"/>
       <path id="DejaVuSans-45" d="M 628 4666 
L 3578 4666 
L 3578 4134 
L 1259 4134 
L 1259 2753 
L 3481 2753 
L 3481 2222 
L 1259 2222 
L 1259 531 
L 3634 531 
L 3634 0 
L 628 0 
L 628 4666 
z
" transform="scale(0.015625)"/>
       <path id="DejaVuSans-53" d="M 3425 4513 
L 3425 3897 
Q 3066 4069 2747 4153 
Q 2428 4238 2131 4238 
Q 1616 4238 1336 4038 
Q 1056 3838 1056 3469 
Q 1056 3159 1242 3001 
Q 1428 2844 1947 2747 
L 2328 2669 
Q 3034 2534 3370 2195 
Q 3706 1856 3706 1288 
Q 3706 609 3251 259 
Q 2797 -91 1919 -91 
Q 1588 -91 1214 -16 
Q 841 59 441 206 
L 441 856 
Q 825 641 1194 531 
Q 1563 422 1919 422 
Q 2459 422 2753 634 
Q 3047 847 3047 1241 
Q 3047 1584 2836 1778 
Q 2625 1972 2144 2069 
L 1759 2144 
Q 1053 2284 737 2584 
Q 422 2884 422 3419 
Q 422 4038 858 4394 
Q 1294 4750 2059 4750 
Q 2388 4750 2728 4690 
Q 3069 4631 3425 4513 
z
" transform="scale(0.015625)"/>
       <path id="DejaVuSans-48" d="M 628 4666 
L 1259 4666 
L 1259 2753 
L 3553 2753 
L 3553 4666 
L 4184 4666 
L 4184 0 
L 3553 0 
L 3553 2222 
L 1259 2222 
L 1259 0 
L 628 0 
L 628 4666 
z
" transform="scale(0.015625)"/>
       <path id="DejaVuSans-38" d="M 2034 2216 
Q 1584 2216 1326 1975 
Q 1069 1734 1069 1313 
Q 1069 891 1326 650 
Q 1584 409 2034 409 
Q 2484 409 2743 651 
Q 3003 894 3003 1313 
Q 3003 1734 2745 1975 
Q 2488 2216 2034 2216 
z
M 1403 2484 
Q 997 2584 770 2862 
Q 544 3141 544 3541 
Q 544 4100 942 4425 
Q 1341 4750 2034 4750 
Q 2731 4750 3128 4425 
Q 3525 4100 3525 3541 
Q 3525 3141 3298 2862 
Q 3072 2584 2669 2484 
Q 3125 2378 3379 2068 
Q 3634 1759 3634 1313 
Q 3634 634 3220 271 
Q 2806 -91 2034 -91 
Q 1263 -91 848 271 
Q 434 634 434 1313 
Q 434 1759 690 2068 
Q 947 2378 1403 2484 
z
M 1172 3481 
Q 1172 3119 1398 2916 
Q 1625 2713 2034 2713 
Q 2441 2713 2670 2916 
Q 2900 3119 2900 3481 
Q 2900 3844 2670 4047 
Q 2441 4250 2034 4250 
Q 1625 4250 1398 4047 
Q 1172 3844 1172 3481 
z
" transform="scale(0.015625)"/>
      </defs>
      <use xlink:href="#DejaVuSans-4d"/>
      <use xlink:href="#DejaVuSans-45" x="86.279297"/>
      <use xlink:href="#DejaVuSans-53" x="149.462891"/>
      <use xlink:href="#DejaVuSans-48" x="212.939453"/>
      <use xlink:href="#DejaVuSans-3a" x="288.134766"/>
      <use xlink:href="#DejaVuSans-44" x="321.826172"/>
      <use xlink:href="#DejaVuSans-30" x="398.828125"/>
      <use xlink:href="#DejaVuSans-30" x="462.451172"/>
      <use xlink:href="#DejaVuSans-30" x="526.074219"/>
      <use xlink:href="#DejaVuSans-38" x="589.697266"/>
      <use xlink:href="#DejaVuSans-30" x="653.320312"/>
      <use xlink:href="#DejaVuSans-34" x="716.943359"/>
     </g>
    </g>
    <g clip-path="url(#p5360c2339a)">
     <!-- ChemicalSubstance -->
     <g transform="translate(545.593125 196.748625)scale(0.12 -0.12)">
      <defs>
       <path id="DejaVuSans-43" d="M 4122 4306 
L 4122 3641 
Q 3803 3938 3442 4084 
Q 3081 4231 2675 4231 
Q 1875 4231 1450 3742 
Q 1025 3253 1025 2328 
Q 1025 1406 1450 917 
Q 1875 428 2675 428 
Q 3081 428 3442 575 
Q 3803 722 4122 1019 
L 4122 359 
Q 3791 134 3420 21 
Q 3050 -91 2638 -91 
Q 1578 -91 968 557 
Q 359 1206 359 2328 
Q 359 3453 968 4101 
Q 1578 4750 2638 4750 
Q 3056 4750 3426 4639 
Q 3797 4528 4122 4306 
z
" transform="scale(0.015625)"/>
       <path id="DejaVuSans-68" d="M 3513 2113 
L 3513 0 
L 2938 0 
L 2938 2094 
Q 2938 2591 2744 2837 
Q 2550 3084 2163 3084 
Q 1697 3084 1428 2787 
Q 1159 2491 1159 1978 
L 1159 0 
L 581 0 
L 581 4863 
L 1159 4863 
L 1159 2956 
Q 1366 3272 1645 3428 
Q 1925 3584 2291 3584 
Q 2894 3584 3203 3211 
Q 3513 2838 3513 2113 
z
" transform="scale(0.015625)"/>
       <path id="DejaVuSans-6d" d="M 3328 2828 
Q 3544 3216 3844 3400 
Q 4144 3584 4550 3584 
Q 5097 3584 5394 3201 
Q 5691 2819 5691 2113 
L 5691 0 
L 5113 0 
L 5113 2094 
Q 5113 2597 4934 2840 
Q 4756 3084 4391 3084 
Q 3944 3084 3684 2787 
Q 3425 2491 3425 1978 
L 3425 0 
L 2847 0 
L 2847 2094 
Q 2847 2600 2669 2842 
Q 2491 3084 2119 3084 
Q 1678 3084 1418 2786 
Q 1159 2488 1159 1978 
L 1159 0 
L 581 0 
L 581 3500 
L 1159 3500 
L 1159 2956 
Q 1356 3278 1631 3431 
Q 1906 3584 2284 3584 
Q 2666 3584 2933 3390 
Q 3200 3197 3328 2828 
z
" transform="scale(0.015625)"/>
      </defs>
      <use xlink:href="#DejaVuSans-43"/>
      <use xlink:href="#DejaVuSans-68" x="69.824219"/>
      <use xlink:href="#DejaVuSans-65" x="133.203125"/>
      <use xlink:href="#DejaVuSans-6d" x="194.726562"/>
      <use xlink:href="#DejaVuSans-69" x="292.138672"/>
      <use xlink:href="#DejaVuSans-63" x="319.921875"/>
      <use xlink:href="#DejaVuSans-61" x="374.902344"/>
      <use xlink:href="#DejaVuSans-6c" x="436.181641"/>
      <use xlink:href="#DejaVuSans-53" x="463.964844"/>
      <use xlink:href="#DejaVuSans-75" x="527.441406"/>
      <use xlink:href="#DejaVuSans-62" x="590.820312"/>
      <use xlink:href="#DejaVuSans-73" x="654.296875"/>
      <use xlink:href="#DejaVuSans-74" x="706.396484"/>
      <use xlink:href="#DejaVuSans-61" x="745.605469"/>
      <use xlink:href="#DejaVuSans-6e" x="806.884766"/>
      <use xlink:href="#DejaVuSans-63" x="870.263672"/>
      <use xlink:href="#DejaVuSans-65" x="925.244141"/>
     </g>
    </g>
   </g>
   <g id="text_8">
    <g clip-path="url(#p5360c2339a)">
     <!-- vasoconstriction -->
     <g transform="translate(805.516418 169.873875)scale(0.12 -0.12)">
      <use xlink:href="#DejaVuSans-76"/>
      <use xlink:href="#DejaVuSans-61" x="59.179688"/>
      <use xlink:href="#DejaVuSans-73" x="120.458984"/>
      <use xlink:href="#DejaVuSans-6f" x="172.558594"/>
      <use xlink:href="#DejaVuSans-63" x="233.740234"/>
      <use xlink:href="#DejaVuSans-6f" x="288.720703"/>
      <use xlink:href="#DejaVuSans-6e" x="349.902344"/>
      <use xlink:href="#DejaVuSans-73" x="413.28125"/>
      <use xlink:href="#DejaVuSans-74" x="465.380859"/>
      <use xlink:href="#DejaVuSans-72" x="504.589844"/>
      <use xlink:href="#DejaVuSans-69" x="545.703125"/>
      <use xlink:href="#DejaVuSans-63" x="573.486328"/>
      <use xlink:href="#DejaVuSans-74" x="628.466797"/>
      <use xlink:href="#DejaVuSans-69" x="667.675781"/>
      <use xlink:href="#DejaVuSans-6f" x="695.458984"/>
      <use xlink:href="#DejaVuSans-6e" x="756.640625"/>
     </g>
    </g>
    <g clip-path="url(#p5360c2339a)">
     <!-- MESH:D014661 -->
     <g transform="translate(807.88173 183.31125)scale(0.12 -0.12)">
      <defs>
       <path id="DejaVuSans-36" d="M 2113 2584 
Q 1688 2584 1439 2293 
Q 1191 2003 1191 1497 
Q 1191 994 1439 701 
Q 1688 409 2113 409 
Q 2538 409 2786 701 
Q 3034 994 3034 1497 
Q 3034 2003 2786 2293 
Q 2538 2584 2113 2584 
z
M 3366 4563 
L 3366 3988 
Q 3128 4100 2886 4159 
Q 2644 4219 2406 4219 
Q 1781 4219 1451 3797 
Q 1122 3375 1075 2522 
Q 1259 2794 1537 2939 
Q 1816 3084 2150 3084 
Q 2853 3084 3261 2657 
Q 3669 2231 3669 1497 
Q 3669 778 3244 343 
Q 2819 -91 2113 -91 
Q 1303 -91 875 529 
Q 447 1150 447 2328 
Q 447 3434 972 4092 
Q 1497 4750 2381 4750 
Q 2619 4750 2861 4703 
Q 3103 4656 3366 4563 
z
" transform="scale(0.015625)"/>
      </defs>
      <use xlink:href="#DejaVuSans-4d"/>
      <use xlink:href="#DejaVuSans-45" x="86.279297"/>
      <use xlink:href="#DejaVuSans-53" x="149.462891"/>
      <use xlink:href="#DejaVuSans-48" x="212.939453"/>
      <use xlink:href="#DejaVuSans-3a" x="288.134766"/>
      <use xlink:href="#DejaVuSans-44" x="321.826172"/>
      <use xlink:href="#DejaVuSans-30" x="398.828125"/>
      <use xlink:href="#DejaVuSans-31" x="462.451172"/>
      <use xlink:href="#DejaVuSans-34" x="526.074219"/>
      <use xlink:href="#DejaVuSans-36" x="589.697266"/>
      <use xlink:href="#DejaVuSans-36" x="653.320312"/>
      <use xlink:href="#DejaVuSans-31" x="716.943359"/>
     </g>
    </g>
    <g clip-path="url(#p5360c2339a)">
     <!-- Disease -->
     <g transform="translate(831.118605 196.748625)scale(0.12 -0.12)">
      <use xlink:href="#DejaVuSans-44"/>
      <use xlink:href="#DejaVuSans-69" x="77.001953"/>
      <use xlink:href="#DejaVuSans-73" x="104.785156"/>
      <use xlink:href="#DejaVuSans-65" x="156.884766"/>
      <use xlink:href="#DejaVuSans-61" x="218.408203"/>
      <use xlink:href="#DejaVuSans-73" x="279.6875"/>
      <use xlink:href="#DejaVuSans-65" x="331.787109"/>
     </g>
    </g>
   </g>
   <g id="text_9">
    <g clip-path="url(#p5360c2339a)">
     <!-- hypertensive -->
     <g transform="translate(1065.431273 163.155187)scale(0.12 -0.12)">
      <use xlink:href="#DejaVuSans-68"/>
      <use xlink:href="#DejaVuSans-79" x="63.378906"/>
      <use xlink:href="#DejaVuSans-70" x="122.558594"/>
      <use xlink:href="#DejaVuSans-65" x="186.035156"/>
      <use xlink:href="#DejaVuSans-72" x="247.558594"/>
      <use xlink:href="#DejaVuSans-74" x="288.671875"/>
      <use xlink:href="#DejaVuSans-65" x="327.880859"/>
      <use xlink:href="#DejaVuSans-6e" x="389.404297"/>
      <use xlink:href="#DejaVuSans-73" x="452.783203"/>
      <use xlink:href="#DejaVuSans-69" x="504.882812"/>
      <use xlink:href="#DejaVuSans-76" x="532.666016"/>
      <use xlink:href="#DejaVuSans-65" x="591.845703"/>
     </g>
    </g>
    <g clip-path="url(#p5360c2339a)">
     <!-- disorder -->
     <g transform="translate(1080.032836 176.592562)scale(0.12 -0.12)">
      <use xlink:href="#DejaVuSans-64"/>
      <use xlink:href="#DejaVuSans-69" x="63.476562"/>
      <use xlink:href="#DejaVuSans-73" x="91.259766"/>
      <use xlink:href="#DejaVuSans-6f" x="143.359375"/>
      <use xlink:href="#DejaVuSans-72" x="204.541016"/>
      <use xlink:href="#DejaVuSans-64" x="243.904297"/>
      <use xlink:href="#DejaVuSans-65" x="307.380859"/>
      <use xlink:href="#DejaVuSans-72" x="368.904297"/>
     </g>
    </g>
    <g clip-path="url(#p5360c2339a)">
     <!-- MESH:D006973 -->
     <g transform="translate(1057.799086 190.029937)scale(0.12 -0.12)">
      <defs>
       <path id="DejaVuSans-39" d="M 703 97 
L 703 672 
Q 941 559 1184 500 
Q 1428 441 1663 441 
Q 2288 441 2617 861 
Q 2947 1281 2994 2138 
Q 2813 1869 2534 1725 
Q 2256 1581 1919 1581 
Q 1219 1581 811 2004 
Q 403 2428 403 3163 
Q 403 3881 828 4315 
Q 1253 4750 1959 4750 
Q 2769 4750 3195 4129 
Q 3622 3509 3622 2328 
Q 3622 1225 3098 567 
Q 2575 -91 1691 -91 
Q 1453 -91 1209 -44 
Q 966 3 703 97 
z
M 1959 2075 
Q 2384 2075 2632 2365 
Q 2881 2656 2881 3163 
Q 2881 3666 2632 3958 
Q 2384 4250 1959 4250 
Q 1534 4250 1286 3958 
Q 1038 3666 1038 3163 
Q 1038 2656 1286 2365 
Q 1534 2075 1959 2075 
z
" transform="scale(0.015625)"/>
       <path id="DejaVuSans-37" d="M 525 4666 
L 3525 4666 
L 3525 4397 
L 1831 0 
L 1172 0 
L 2766 4134 
L 525 4134 
L 525 4666 
z
" transform="scale(0.015625)"/>
      </defs>
      <use xlink:href="#DejaVuSans-4d"/>
      <use xlink:href="#DejaVuSans-45" x="86.279297"/>
      <use xlink:href="#DejaVuSans-53" x="149.462891"/>
      <use xlink:href="#DejaVuSans-48" x="212.939453"/>
      <use xlink:href="#DejaVuSans-3a" x="288.134766"/>
      <use xlink:href="#DejaVuSans-44" x="321.826172"/>
      <use xlink:href="#DejaVuSans-30" x="398.828125"/>
      <use xlink:href="#DejaVuSans-30" x="462.451172"/>
      <use xlink:href="#DejaVuSans-36" x="526.074219"/>
      <use xlink:href="#DejaVuSans-39" x="589.697266"/>
      <use xlink:href="#DejaVuSans-37" x="653.320312"/>
      <use xlink:href="#DejaVuSans-33" x="716.943359"/>
     </g>
    </g>
    <g clip-path="url(#p5360c2339a)">
     <!-- Disease -->
     <g transform="translate(1081.035961 203.467312)scale(0.12 -0.12)">
      <use xlink:href="#DejaVuSans-44"/>
      <use xlink:href="#DejaVuSans-69" x="77.001953"/>
      <use xlink:href="#DejaVuSans-73" x="104.785156"/>
      <use xlink:href="#DejaVuSans-65" x="156.884766"/>
      <use xlink:href="#DejaVuSans-61" x="218.408203"/>
      <use xlink:href="#DejaVuSans-73" x="279.6875"/>
      <use xlink:href="#DejaVuSans-65" x="331.787109"/>
     </g>
    </g>
   </g>
  </g>
 </g>
 <defs>
  <clipPath id="p5360c2339a">
   <rect x="0" y="0" width="1209.6" height="360"/>
  </clipPath>
 </defs>
</svg>
