<?xml version="1.0" encoding="utf-8" standalone="no"?>
<!DOCTYPE svg PUBLIC "-//W3C//DTD SVG 1.1//EN"
  "http://www.w3.org/Graphics/SVG/1.1/DTD/svg11.dtd">
<svg xmlns:xlink="http://www.w3.org/1999/xlink" width="1209.6pt" height="360pt" viewBox="0 0 1209.6 360" xmlns="http://www.w3.org/2000/svg" version="1.1">
 <metadata>
  <rdf:RDF xmlns:dc="http://purl.org/dc/elements/1.1/" xmlns:cc="http://creativecommons.org/ns#" xmlns:rdf="http://www.w3.org/1999/02/22-rdf-syntax-ns#">
   <cc:Work>
    <dc:type rdf:resource="http://purl.org/dc/dcmitype/StillImage"/>
    <dc:date>2023-02-08T08:51:02.347659</dc:date>
    <dc:format>image/svg+xml</dc:format>
    <dc:creator>
     <cc:Agent>
      <dc:title>Matplotlib v3.5.1, https://matplotlib.org/</dc:title>
     </cc:Agent>
    </dc:creator>
   </cc:Work>
  </rdf:RDF>
 </metadata>
 <defs>
  <style type="text/css">*{stroke-linejoin: round; stroke-linecap: butt}</style>
 </defs>
 <g id="figure_1">
  <g id="patch_1">
   <path d="M 0 360 
L 1209.6 360 
L 1209.6 0 
L 0 0 
z
" style="fill: #ffffff"/>
  </g>
  <g id="axes_1">
   <g id="patch_2">
    <path d="M 157.403851 180 
Q 229.923128 180 299.088304 180 
" clip-path="url(#pb9ce677b16)" style="fill: none; stroke: #2ca02c; stroke-width: 3; stroke-linecap: round"/>
    <path d="M 295.088304 178 
L 299.088304 180 
L 295.088304 182 
L 295.088304 178 
z
" clip-path="url(#pb9ce677b16)" style="fill: #2ca02c; stroke: #2ca02c; stroke-width: 3; stroke-linecap: round"/>
   </g>
   <g id="patch_3">
    <path d="M 407.321206 180 
Q 479.840484 180 549.00566 180 
" clip-path="url(#pb9ce677b16)" style="fill: none; stroke: #2ca02c; stroke-width: 3; stroke-linecap: round"/>
    <path d="M 545.00566 178 
L 549.00566 180 
L 545.00566 182 
L 545.00566 178 
z
" clip-path="url(#pb9ce677b16)" style="fill: #2ca02c; stroke: #2ca02c; stroke-width: 3; stroke-linecap: round"/>
   </g>
   <g id="patch_4">
    <path d="M 657.238561 180 
Q 729.757839 180 798.923015 180 
" clip-path="url(#pb9ce677b16)" style="fill: none; stroke: #2ca02c; stroke-width: 3; stroke-linecap: round"/>
    <path d="M 794.923015 178 
L 798.923015 180 
L 794.923015 182 
L 794.923015 178 
z
" clip-path="url(#pb9ce677b16)" style="fill: #2ca02c; stroke: #2ca02c; stroke-width: 3; stroke-linecap: round"/>
   </g>
   <g id="patch_5">
    <path d="M 907.155917 180 
Q 979.675195 180 1048.840371 180 
" clip-path="url(#pb9ce677b16)" style="fill: none; stroke: #2ca02c; stroke-width: 3; stroke-linecap: round"/>
    <path d="M 1044.840371 178 
L 1048.840371 180 
L 1044.840371 182 
L 1044.840371 178 
z
" clip-path="url(#pb9ce677b16)" style="fill: #2ca02c; stroke: #2ca02c; stroke-width: 3; stroke-linecap: round"/>
   </g>
   <g id="text_1">
    <g id="patch_6">
     <path d="M 204.554436 193.437969 
L 255.293498 193.437969 
Q 258.293498 193.437969 258.293498 190.437969 
L 258.293498 169.562031 
Q 258.293498 166.562031 255.293498 166.562031 
L 204.554436 166.562031 
Q 201.554436 166.562031 201.554436 169.562031 
L 201.554436 190.437969 
Q 201.554436 193.437969 204.554436 193.437969 
z
" clip-path="url(#pb9ce677b16)" style="fill: #ffffff; stroke: #ffffff; stroke-linejoin: miter"/>
    </g>
    <g clip-path="url(#pb9ce677b16)">
     <!-- decreases -->
     <g transform="translate(204.554436 177.160469)scale(0.1 -0.1)">
      <defs>
       <path id="DejaVuSans-64" d="M 2906 2969 
L 2906 4863 
L 3481 4863 
L 3481 0 
L 2906 0 
L 2906 525 
Q 2725 213 2448 61 
Q 2172 -91 1784 -91 
Q 1150 -91 751 415 
Q 353 922 353 1747 
Q 353 2572 751 3078 
Q 1150 3584 1784 3584 
Q 2172 3584 2448 3432 
Q 2725 3281 2906 2969 
z
M 947 1747 
Q 947 1113 1208 752 
Q 1469 391 1925 391 
Q 2381 391 2643 752 
Q 2906 1113 2906 1747 
Q 2906 2381 2643 2742 
Q 2381 3103 1925 3103 
Q 1469 3103 1208 2742 
Q 947 2381 947 1747 
z
" transform="scale(0.015625)"/>
       <path id="DejaVuSans-65" d="M 3597 1894 
L 3597 1613 
L 953 1613 
Q 991 1019 1311 708 
Q 1631 397 2203 397 
Q 2534 397 2845 478 
Q 3156 559 3463 722 
L 3463 178 
Q 3153 47 2828 -22 
Q 2503 -91 2169 -91 
Q 1331 -91 842 396 
Q 353 884 353 1716 
Q 353 2575 817 3079 
Q 1281 3584 2069 3584 
Q 2775 3584 3186 3129 
Q 3597 2675 3597 1894 
z
M 3022 2063 
Q 3016 2534 2758 2815 
Q 2500 3097 2075 3097 
Q 1594 3097 1305 2825 
Q 1016 2553 972 2059 
L 3022 2063 
z
" transform="scale(0.015625)"/>
       <path id="DejaVuSans-63" d="M 3122 3366 
L 3122 2828 
Q 2878 2963 2633 3030 
Q 2388 3097 2138 3097 
Q 1578 3097 1268 2742 
Q 959 2388 959 1747 
Q 959 1106 1268 751 
Q 1578 397 2138 397 
Q 2388 397 2633 464 
Q 2878 531 3122 666 
L 3122 134 
Q 2881 22 2623 -34 
Q 2366 -91 2075 -91 
Q 1284 -91 818 406 
Q 353 903 353 1747 
Q 353 2603 823 3093 
Q 1294 3584 2113 3584 
Q 2378 3584 2631 3529 
Q 2884 3475 3122 3366 
z
" transform="scale(0.015625)"/>
       <path id="DejaVuSans-72" d="M 2631 2963 
Q 2534 3019 2420 3045 
Q 2306 3072 2169 3072 
Q 1681 3072 1420 2755 
Q 1159 2438 1159 1844 
L 1159 0 
L 581 0 
L 581 3500 
L 1159 3500 
L 1159 2956 
Q 1341 3275 1631 3429 
Q 1922 3584 2338 3584 
Q 2397 3584 2469 3576 
Q 2541 3569 2628 3553 
L 2631 2963 
z
" transform="scale(0.015625)"/>
       <path id="DejaVuSans-61" d="M 2194 1759 
Q 1497 1759 1228 1600 
Q 959 1441 959 1056 
Q 959 750 1161 570 
Q 1363 391 1709 391 
Q 2188 391 2477 730 
Q 2766 1069 2766 1631 
L 2766 1759 
L 2194 1759 
z
M 3341 1997 
L 3341 0 
L 2766 0 
L 2766 531 
Q 2569 213 2275 61 
Q 1981 -91 1556 -91 
Q 1019 -91 701 211 
Q 384 513 384 1019 
Q 384 1609 779 1909 
Q 1175 2209 1959 2209 
L 2766 2209 
L 2766 2266 
Q 2766 2663 2505 2880 
Q 2244 3097 1772 3097 
Q 1472 3097 1187 3025 
Q 903 2953 641 2809 
L 641 3341 
Q 956 3463 1253 3523 
Q 1550 3584 1831 3584 
Q 2591 3584 2966 3190 
Q 3341 2797 3341 1997 
z
" transform="scale(0.015625)"/>
       <path id="DejaVuSans-73" d="M 2834 3397 
L 2834 2853 
Q 2591 2978 2328 3040 
Q 2066 3103 1784 3103 
Q 1356 3103 1142 2972 
Q 928 2841 928 2578 
Q 928 2378 1081 2264 
Q 1234 2150 1697 2047 
L 1894 2003 
Q 2506 1872 2764 1633 
Q 3022 1394 3022 966 
Q 3022 478 2636 193 
Q 2250 -91 1575 -91 
Q 1294 -91 989 -36 
Q 684 19 347 128 
L 347 722 
Q 666 556 975 473 
Q 1284 391 1588 391 
Q 1994 391 2212 530 
Q 2431 669 2431 922 
Q 2431 1156 2273 1281 
Q 2116 1406 1581 1522 
L 1381 1569 
Q 847 1681 609 1914 
Q 372 2147 372 2553 
Q 372 3047 722 3315 
Q 1072 3584 1716 3584 
Q 2034 3584 2315 3537 
Q 2597 3491 2834 3397 
z
" transform="scale(0.015625)"/>
      </defs>
      <use xlink:href="#DejaVuSans-64"/>
      <use xlink:href="#DejaVuSans-65" x="63.476562"/>
      <use xlink:href="#DejaVuSans-63" x="125"/>
      <use xlink:href="#DejaVuSans-72" x="179.980469"/>
      <use xlink:href="#DejaVuSans-65" x="218.84375"/>
      <use xlink:href="#DejaVuSans-61" x="280.367188"/>
      <use xlink:href="#DejaVuSans-73" x="341.646484"/>
      <use xlink:href="#DejaVuSans-65" x="393.746094"/>
      <use xlink:href="#DejaVuSans-73" x="455.269531"/>
     </g>
    </g>
    <g clip-path="url(#pb9ce677b16)">
     <!-- activity of -->
     <g transform="translate(205.084904 188.358281)scale(0.1 -0.1)">
      <defs>
       <path id="DejaVuSans-74" d="M 1172 4494 
L 1172 3500 
L 2356 3500 
L 2356 3053 
L 1172 3053 
L 1172 1153 
Q 1172 725 1289 603 
Q 1406 481 1766 481 
L 2356 481 
L 2356 0 
L 1766 0 
Q 1100 0 847 248 
Q 594 497 594 1153 
L 594 3053 
L 172 3053 
L 172 3500 
L 594 3500 
L 594 4494 
L 1172 4494 
z
" transform="scale(0.015625)"/>
       <path id="DejaVuSans-69" d="M 603 3500 
L 1178 3500 
L 1178 0 
L 603 0 
L 603 3500 
z
M 603 4863 
L 1178 4863 
L 1178 4134 
L 603 4134 
L 603 4863 
z
" transform="scale(0.015625)"/>
       <path id="DejaVuSans-76" d="M 191 3500 
L 800 3500 
L 1894 563 
L 2988 3500 
L 3597 3500 
L 2284 0 
L 1503 0 
L 191 3500 
z
" transform="scale(0.015625)"/>
       <path id="DejaVuSans-79" d="M 2059 -325 
Q 1816 -950 1584 -1140 
Q 1353 -1331 966 -1331 
L 506 -1331 
L 506 -850 
L 844 -850 
Q 1081 -850 1212 -737 
Q 1344 -625 1503 -206 
L 1606 56 
L 191 3500 
L 800 3500 
L 1894 763 
L 2988 3500 
L 3597 3500 
L 2059 -325 
z
" transform="scale(0.015625)"/>
       <path id="DejaVuSans-20" transform="scale(0.015625)"/>
       <path id="DejaVuSans-6f" d="M 1959 3097 
Q 1497 3097 1228 2736 
Q 959 2375 959 1747 
Q 959 1119 1226 758 
Q 1494 397 1959 397 
Q 2419 397 2687 759 
Q 2956 1122 2956 1747 
Q 2956 2369 2687 2733 
Q 2419 3097 1959 3097 
z
M 1959 3584 
Q 2709 3584 3137 3096 
Q 3566 2609 3566 1747 
Q 3566 888 3137 398 
Q 2709 -91 1959 -91 
Q 1206 -91 779 398 
Q 353 888 353 1747 
Q 353 2609 779 3096 
Q 1206 3584 1959 3584 
z
" transform="scale(0.015625)"/>
       <path id="DejaVuSans-66" d="M 2375 4863 
L 2375 4384 
L 1825 4384 
Q 1516 4384 1395 4259 
Q 1275 4134 1275 3809 
L 1275 3500 
L 2222 3500 
L 2222 3053 
L 1275 3053 
L 1275 0 
L 697 0 
L 697 3053 
L 147 3053 
L 147 3500 
L 697 3500 
L 697 3744 
Q 697 4328 969 4595 
Q 1241 4863 1831 4863 
L 2375 4863 
z
" transform="scale(0.015625)"/>
      </defs>
      <use xlink:href="#DejaVuSans-61"/>
      <use xlink:href="#DejaVuSans-63" x="61.279297"/>
      <use xlink:href="#DejaVuSans-74" x="116.259766"/>
      <use xlink:href="#DejaVuSans-69" x="155.46875"/>
      <use xlink:href="#DejaVuSans-76" x="183.251953"/>
      <use xlink:href="#DejaVuSans-69" x="242.431641"/>
      <use xlink:href="#DejaVuSans-74" x="270.214844"/>
      <use xlink:href="#DejaVuSans-79" x="309.423828"/>
      <use xlink:href="#DejaVuSans-20" x="368.603516"/>
      <use xlink:href="#DejaVuSans-6f" x="400.390625"/>
      <use xlink:href="#DejaVuSans-66" x="461.572266"/>
     </g>
    </g>
   </g>
   <g id="text_2">
    <g id="patch_7">
     <path d="M 444.03351 187.839062 
L 515.649135 187.839062 
Q 518.649135 187.839062 518.649135 184.839062 
L 518.649135 175.160937 
Q 518.649135 172.160937 515.649135 172.160937 
L 444.03351 172.160937 
Q 441.03351 172.160937 441.03351 175.160937 
L 441.03351 184.839062 
Q 441.03351 187.839062 444.03351 187.839062 
z
" clip-path="url(#pb9ce677b16)" style="fill: #ffffff; stroke: #ffffff; stroke-linejoin: miter"/>
    </g>
    <g clip-path="url(#pb9ce677b16)">
     <!-- participates in -->
     <g transform="translate(444.03351 182.759375)scale(0.1 -0.1)">
      <defs>
       <path id="DejaVuSans-70" d="M 1159 525 
L 1159 -1331 
L 581 -1331 
L 581 3500 
L 1159 3500 
L 1159 2969 
Q 1341 3281 1617 3432 
Q 1894 3584 2278 3584 
Q 2916 3584 3314 3078 
Q 3713 2572 3713 1747 
Q 3713 922 3314 415 
Q 2916 -91 2278 -91 
Q 1894 -91 1617 61 
Q 1341 213 1159 525 
z
M 3116 1747 
Q 3116 2381 2855 2742 
Q 2594 3103 2138 3103 
Q 1681 3103 1420 2742 
Q 1159 2381 1159 1747 
Q 1159 1113 1420 752 
Q 1681 391 2138 391 
Q 2594 391 2855 752 
Q 3116 1113 3116 1747 
z
" transform="scale(0.015625)"/>
       <path id="DejaVuSans-6e" d="M 3513 2113 
L 3513 0 
L 2938 0 
L 2938 2094 
Q 2938 2591 2744 2837 
Q 2550 3084 2163 3084 
Q 1697 3084 1428 2787 
Q 1159 2491 1159 1978 
L 1159 0 
L 581 0 
L 581 3500 
L 1159 3500 
L 1159 2956 
Q 1366 3272 1645 3428 
Q 1925 3584 2291 3584 
Q 2894 3584 3203 3211 
Q 3513 2838 3513 2113 
z
" transform="scale(0.015625)"/>
      </defs>
      <use xlink:href="#DejaVuSans-70"/>
      <use xlink:href="#DejaVuSans-61" x="63.476562"/>
      <use xlink:href="#DejaVuSans-72" x="124.755859"/>
      <use xlink:href="#DejaVuSans-74" x="165.869141"/>
      <use xlink:href="#DejaVuSans-69" x="205.078125"/>
      <use xlink:href="#DejaVuSans-63" x="232.861328"/>
      <use xlink:href="#DejaVuSans-69" x="287.841797"/>
      <use xlink:href="#DejaVuSans-70" x="315.625"/>
      <use xlink:href="#DejaVuSans-61" x="379.101562"/>
      <use xlink:href="#DejaVuSans-74" x="440.380859"/>
      <use xlink:href="#DejaVuSans-65" x="479.589844"/>
      <use xlink:href="#DejaVuSans-73" x="541.113281"/>
      <use xlink:href="#DejaVuSans-20" x="593.212891"/>
      <use xlink:href="#DejaVuSans-69" x="625"/>
      <use xlink:href="#DejaVuSans-6e" x="652.783203"/>
     </g>
    </g>
   </g>
   <g id="text_3">
    <g id="patch_8">
     <path d="M 702.840709 187.839062 
L 756.676646 187.839062 
Q 759.676646 187.839062 759.676646 184.839062 
L 759.676646 175.160937 
Q 759.676646 172.160937 756.676646 172.160937 
L 702.840709 172.160937 
Q 699.840709 172.160937 699.840709 175.160937 
L 699.840709 184.839062 
Q 699.840709 187.839062 702.840709 187.839062 
z
" clip-path="url(#pb9ce677b16)" style="fill: #ffffff; stroke: #ffffff; stroke-linejoin: miter"/>
    </g>
    <g clip-path="url(#pb9ce677b16)">
     <!-- has output -->
     <g transform="translate(702.840709 182.759375)scale(0.1 -0.1)">
      <defs>
       <path id="DejaVuSans-68" d="M 3513 2113 
L 3513 0 
L 2938 0 
L 2938 2094 
Q 2938 2591 2744 2837 
Q 2550 3084 2163 3084 
Q 1697 3084 1428 2787 
Q 1159 2491 1159 1978 
L 1159 0 
L 581 0 
L 581 4863 
L 1159 4863 
L 1159 2956 
Q 1366 3272 1645 3428 
Q 1925 3584 2291 3584 
Q 2894 3584 3203 3211 
Q 3513 2838 3513 2113 
z
" transform="scale(0.015625)"/>
       <path id="DejaVuSans-75" d="M 544 1381 
L 544 3500 
L 1119 3500 
L 1119 1403 
Q 1119 906 1312 657 
Q 1506 409 1894 409 
Q 2359 409 2629 706 
Q 2900 1003 2900 1516 
L 2900 3500 
L 3475 3500 
L 3475 0 
L 2900 0 
L 2900 538 
Q 2691 219 2414 64 
Q 2138 -91 1772 -91 
Q 1169 -91 856 284 
Q 544 659 544 1381 
z
M 1991 3584 
L 1991 3584 
z
" transform="scale(0.015625)"/>
      </defs>
      <use xlink:href="#DejaVuSans-68"/>
      <use xlink:href="#DejaVuSans-61" x="63.378906"/>
      <use xlink:href="#DejaVuSans-73" x="124.658203"/>
      <use xlink:href="#DejaVuSans-20" x="176.757812"/>
      <use xlink:href="#DejaVuSans-6f" x="208.544922"/>
      <use xlink:href="#DejaVuSans-75" x="269.726562"/>
      <use xlink:href="#DejaVuSans-74" x="333.105469"/>
      <use xlink:href="#DejaVuSans-70" x="372.314453"/>
      <use xlink:href="#DejaVuSans-75" x="435.791016"/>
      <use xlink:href="#DejaVuSans-74" x="499.169922"/>
     </g>
    </g>
   </g>
   <g id="text_4">
    <g id="patch_9">
     <path d="M 962.408064 187.839062 
L 996.944002 187.839062 
Q 999.944002 187.839062 999.944002 184.839062 
L 999.944002 175.160937 
Q 999.944002 172.160937 996.944002 172.160937 
L 962.408064 172.160937 
Q 959.408064 172.160937 959.408064 175.160937 
L 959.408064 184.839062 
Q 959.408064 187.839062 962.408064 187.839062 
z
" clip-path="url(#pb9ce677b16)" style="fill: #ffffff; stroke: #ffffff; stroke-linejoin: miter"/>
    </g>
    <g clip-path="url(#pb9ce677b16)">
     <!-- causes -->
     <g transform="translate(962.408064 182.759375)scale(0.1 -0.1)">
      <use xlink:href="#DejaVuSans-63"/>
      <use xlink:href="#DejaVuSans-61" x="54.980469"/>
      <use xlink:href="#DejaVuSans-75" x="116.259766"/>
      <use xlink:href="#DejaVuSans-73" x="179.638672"/>
      <use xlink:href="#DejaVuSans-65" x="231.738281"/>
      <use xlink:href="#DejaVuSans-73" x="293.261719"/>
     </g>
    </g>
   </g>
   <g id="PathCollection_1">
    <defs>
     <path id="C0_0_303e019f06" d="M 0 52.440442 
C 13.907368 52.440442 27.246998 46.914987 37.080992 37.080992 
C 46.914987 27.246998 52.440442 13.907368 52.440442 -0 
C 52.440442 -13.907368 46.914987 -27.246998 37.080992 -37.080992 
C 27.246998 -46.914987 13.907368 -52.440442 0 -52.440442 
C -13.907368 -52.440442 -27.246998 -46.914987 -37.080992 -37.080992 
C -46.914987 -27.246998 -52.440442 -13.907368 -52.440442 0 
C -52.440442 13.907368 -46.914987 27.246998 -37.080992 37.080992 
C -27.246998 46.914987 -13.907368 52.440442 0 52.440442 
z
"/>
    </defs>
    <g clip-path="url(#pb9ce677b16)">
     <use xlink:href="#C0_0_303e019f06" x="104.965289" y="180" style="fill: #01c472; stroke: #01c472"/>
    </g>
    <g clip-path="url(#pb9ce677b16)">
     <use xlink:href="#C0_0_303e019f06" x="354.882645" y="180" style="fill: #e71761; stroke: #e71761"/>
    </g>
    <g clip-path="url(#pb9ce677b16)">
     <use xlink:href="#C0_0_303e019f06" x="604.8" y="180" style="fill: #b1d34f; stroke: #b1d34f"/>
    </g>
    <g clip-path="url(#pb9ce677b16)">
     <use xlink:href="#C0_0_303e019f06" x="854.717355" y="180" style="fill: #01c472; stroke: #01c472"/>
    </g>
    <g clip-path="url(#pb9ce677b16)">
     <use xlink:href="#C0_0_303e019f06" x="1104.634711" y="180" style="fill: #70c6ca; stroke: #70c6ca"/>
    </g>
   </g>
   <g id="text_5">
    <path d="M 337.102957 148.854 
L 335.496082 153.20775 
L 338.713582 153.20775 
L 337.102957 148.854 
z
M 336.433582 147.68775 
L 337.776082 147.68775 
L 341.109832 156.4365 
L 339.879832 156.4365 
L 339.082957 154.192125 
L 335.139832 154.192125 
L 334.342957 156.4365 
L 333.094207 156.4365 
L 336.433582 147.68775 
z
M 342.340067 147.318375 
L 343.418192 147.318375 
L 343.418192 156.4365 
L 342.340067 156.4365 
L 342.340067 147.318375 
z
M 350.397176 150.12525 
L 350.397176 151.134 
Q 349.939676 150.880875 349.480301 150.75525 
Q 349.020926 150.629625 348.552176 150.629625 
Q 347.502176 150.629625 346.920926 151.29525 
Q 346.341551 151.959 346.341551 153.160875 
Q 346.341551 154.36275 346.920926 155.028375 
Q 347.502176 155.692125 348.552176 155.692125 
Q 349.020926 155.692125 349.480301 155.5665 
Q 349.939676 155.440875 350.397176 155.18775 
L 350.397176 156.18525 
Q 349.945301 156.39525 349.461551 156.50025 
Q 348.979676 156.607125 348.434051 156.607125 
Q 346.950926 156.607125 346.077176 155.67525 
Q 345.205301 154.743375 345.205301 153.160875 
Q 345.205301 151.555875 346.086551 150.637125 
Q 346.969676 149.7165 348.505301 149.7165 
Q 349.002176 149.7165 349.476551 149.819625 
Q 349.950926 149.920875 350.397176 150.12525 
z
M 354.814207 150.629625 
Q 353.947957 150.629625 353.443582 151.3065 
Q 352.939207 151.983375 352.939207 153.160875 
Q 352.939207 154.338375 353.439832 155.01525 
Q 353.942332 155.692125 354.814207 155.692125 
Q 355.676707 155.692125 356.179207 155.013375 
Q 356.683582 154.33275 356.683582 153.160875 
Q 356.683582 151.994625 356.179207 151.312125 
Q 355.676707 150.629625 354.814207 150.629625 
z
M 354.814207 149.7165 
Q 356.220457 149.7165 357.022957 150.6315 
Q 357.827332 151.544625 357.827332 153.160875 
Q 357.827332 154.7715 357.022957 155.69025 
Q 356.220457 156.607125 354.814207 156.607125 
Q 353.402332 156.607125 352.601707 155.69025 
Q 351.802957 154.7715 351.802957 153.160875 
Q 351.802957 151.544625 352.601707 150.6315 
Q 353.402332 149.7165 354.814207 149.7165 
z
M 365.069754 152.474625 
L 365.069754 156.4365 
L 363.991629 156.4365 
L 363.991629 152.51025 
Q 363.991629 151.578375 363.627879 151.117125 
Q 363.264129 150.654 362.538504 150.654 
Q 361.664754 150.654 361.160379 151.210875 
Q 360.656004 151.765875 360.656004 152.72775 
L 360.656004 156.4365 
L 359.572254 156.4365 
L 359.572254 147.318375 
L 360.656004 147.318375 
L 360.656004 150.894 
Q 361.044129 150.3015 361.567254 150.009 
Q 362.092254 149.7165 362.778504 149.7165 
Q 363.909129 149.7165 364.488504 150.415875 
Q 365.069754 151.11525 365.069754 152.474625 
z
M 369.761473 150.629625 
Q 368.895223 150.629625 368.390848 151.3065 
Q 367.886473 151.983375 367.886473 153.160875 
Q 367.886473 154.338375 368.387098 155.01525 
Q 368.889598 155.692125 369.761473 155.692125 
Q 370.623973 155.692125 371.126473 155.013375 
Q 371.630848 154.33275 371.630848 153.160875 
Q 371.630848 151.994625 371.126473 151.312125 
Q 370.623973 150.629625 369.761473 150.629625 
z
M 369.761473 149.7165 
Q 371.167723 149.7165 371.970223 150.6315 
Q 372.774598 151.544625 372.774598 153.160875 
Q 372.774598 154.7715 371.970223 155.69025 
Q 371.167723 156.607125 369.761473 156.607125 
Q 368.349598 156.607125 367.548973 155.69025 
Q 366.750223 154.7715 366.750223 153.160875 
Q 366.750223 151.544625 367.548973 150.6315 
Q 368.349598 149.7165 369.761473 149.7165 
z
M 374.56077 147.318375 
L 375.638895 147.318375 
L 375.638895 156.4365 
L 374.56077 156.4365 
L 374.56077 147.318375 
z
" clip-path="url(#pb9ce677b16)" style="fill: #ffffff; stroke: #000000; stroke-width: 2"/>
    <path d="M 337.102957 148.854 
L 335.496082 153.20775 
L 338.713582 153.20775 
L 337.102957 148.854 
z
M 336.433582 147.68775 
L 337.776082 147.68775 
L 341.109832 156.4365 
L 339.879832 156.4365 
L 339.082957 154.192125 
L 335.139832 154.192125 
L 334.342957 156.4365 
L 333.094207 156.4365 
L 336.433582 147.68775 
z
M 342.340067 147.318375 
L 343.418192 147.318375 
L 343.418192 156.4365 
L 342.340067 156.4365 
L 342.340067 147.318375 
z
M 350.397176 150.12525 
L 350.397176 151.134 
Q 349.939676 150.880875 349.480301 150.75525 
Q 349.020926 150.629625 348.552176 150.629625 
Q 347.502176 150.629625 346.920926 151.29525 
Q 346.341551 151.959 346.341551 153.160875 
Q 346.341551 154.36275 346.920926 155.028375 
Q 347.502176 155.692125 348.552176 155.692125 
Q 349.020926 155.692125 349.480301 155.5665 
Q 349.939676 155.440875 350.397176 155.18775 
L 350.397176 156.18525 
Q 349.945301 156.39525 349.461551 156.50025 
Q 348.979676 156.607125 348.434051 156.607125 
Q 346.950926 156.607125 346.077176 155.67525 
Q 345.205301 154.743375 345.205301 153.160875 
Q 345.205301 151.555875 346.086551 150.637125 
Q 346.969676 149.7165 348.505301 149.7165 
Q 349.002176 149.7165 349.476551 149.819625 
Q 349.950926 149.920875 350.397176 150.12525 
z
M 354.814207 150.629625 
Q 353.947957 150.629625 353.443582 151.3065 
Q 352.939207 151.983375 352.939207 153.160875 
Q 352.939207 154.338375 353.439832 155.01525 
Q 353.942332 155.692125 354.814207 155.692125 
Q 355.676707 155.692125 356.179207 155.013375 
Q 356.683582 154.33275 356.683582 153.160875 
Q 356.683582 151.994625 356.179207 151.312125 
Q 355.676707 150.629625 354.814207 150.629625 
z
M 354.814207 149.7165 
Q 356.220457 149.7165 357.022957 150.6315 
Q 357.827332 151.544625 357.827332 153.160875 
Q 357.827332 154.7715 357.022957 155.69025 
Q 356.220457 156.607125 354.814207 156.607125 
Q 353.402332 156.607125 352.601707 155.69025 
Q 351.802957 154.7715 351.802957 153.160875 
Q 351.802957 151.544625 352.601707 150.6315 
Q 353.402332 149.7165 354.814207 149.7165 
z
M 365.069754 152.474625 
L 365.069754 156.4365 
L 363.991629 156.4365 
L 363.991629 152.51025 
Q 363.991629 151.578375 363.627879 151.117125 
Q 363.264129 150.654 362.538504 150.654 
Q 361.664754 150.654 361.160379 151.210875 
Q 360.656004 151.765875 360.656004 152.72775 
L 360.656004 156.4365 
L 359.572254 156.4365 
L 359.572254 147.318375 
L 360.656004 147.318375 
L 360.656004 150.894 
Q 361.044129 150.3015 361.567254 150.009 
Q 362.092254 149.7165 362.778504 149.7165 
Q 363.909129 149.7165 364.488504 150.415875 
Q 365.069754 151.11525 365.069754 152.474625 
z
M 369.761473 150.629625 
Q 368.895223 150.629625 368.390848 151.3065 
Q 367.886473 151.983375 367.886473 153.160875 
Q 367.886473 154.338375 368.387098 155.01525 
Q 368.889598 155.692125 369.761473 155.692125 
Q 370.623973 155.692125 371.126473 155.013375 
Q 371.630848 154.33275 371.630848 153.160875 
Q 371.630848 151.994625 371.126473 151.312125 
Q 370.623973 150.629625 369.761473 150.629625 
z
M 369.761473 149.7165 
Q 371.167723 149.7165 371.970223 150.6315 
Q 372.774598 151.544625 372.774598 153.160875 
Q 372.774598 154.7715 371.970223 155.69025 
Q 371.167723 156.607125 369.761473 156.607125 
Q 368.349598 156.607125 367.548973 155.69025 
Q 366.750223 154.7715 366.750223 153.160875 
Q 366.750223 151.544625 367.548973 150.6315 
Q 368.349598 149.7165 369.761473 149.7165 
z
M 374.56077 147.318375 
L 375.638895 147.318375 
L 375.638895 156.4365 
L 374.56077 156.4365 
L 374.56077 147.318375 
z
" clip-path="url(#pb9ce677b16)" style="fill: #ffffff"/>
    <path d="M 313.86702 164.307 
L 313.86702 160.75575 
L 314.945145 160.75575 
L 314.945145 169.873875 
L 313.86702 169.873875 
L 313.86702 168.8895 
Q 313.527645 169.4745 313.00827 169.7595 
Q 312.49077 170.0445 311.76327 170.0445 
Q 310.57452 170.0445 309.826395 169.09575 
Q 309.080145 168.145125 309.080145 166.59825 
Q 309.080145 165.051375 309.826395 164.102625 
Q 310.57452 163.153875 311.76327 163.153875 
Q 312.49077 163.153875 313.00827 163.438875 
Q 313.527645 163.722 313.86702 164.307 
z
M 310.193895 166.59825 
Q 310.193895 167.787 310.68327 168.463875 
Q 311.172645 169.14075 312.027645 169.14075 
Q 312.882645 169.14075 313.373895 168.463875 
Q 313.86702 167.787 313.86702 166.59825 
Q 313.86702 165.4095 313.373895 164.732625 
Q 312.882645 164.05575 312.027645 164.05575 
Q 311.172645 164.05575 310.68327 164.732625 
Q 310.193895 165.4095 310.193895 166.59825 
z
M 322.779832 166.322625 
L 322.779832 166.8495 
L 317.822332 166.8495 
Q 317.893582 167.96325 318.493582 168.546375 
Q 319.093582 169.1295 320.166082 169.1295 
Q 320.786707 169.1295 321.369832 168.977625 
Q 321.952957 168.82575 322.528582 168.520125 
L 322.528582 169.540125 
Q 321.947332 169.78575 321.337957 169.915125 
Q 320.728582 170.0445 320.102332 170.0445 
Q 318.531082 170.0445 317.614207 169.131375 
Q 316.697332 168.216375 316.697332 166.656375 
Q 316.697332 165.04575 317.567332 164.10075 
Q 318.437332 163.153875 319.914832 163.153875 
Q 321.238582 163.153875 322.009207 164.007 
Q 322.779832 164.85825 322.779832 166.322625 
z
M 321.701707 166.00575 
Q 321.690457 165.122625 321.206707 164.59575 
Q 320.722957 164.067 319.926082 164.067 
Q 319.024207 164.067 318.482332 164.577 
Q 317.940457 165.087 317.857957 166.01325 
L 321.701707 166.00575 
z
M 330.005145 165.912 
L 330.005145 169.873875 
L 328.92702 169.873875 
L 328.92702 165.947625 
Q 328.92702 165.01575 328.56327 164.5545 
Q 328.19952 164.091375 327.473895 164.091375 
Q 326.600145 164.091375 326.09577 164.64825 
Q 325.591395 165.20325 325.591395 166.165125 
L 325.591395 169.873875 
L 324.507645 169.873875 
L 324.507645 160.75575 
L 325.591395 160.75575 
L 325.591395 164.331375 
Q 325.97952 163.738875 326.502645 163.446375 
Q 327.027645 163.153875 327.713895 163.153875 
Q 328.84452 163.153875 329.423895 163.85325 
Q 330.005145 164.552625 330.005145 165.912 
z
M 334.884363 170.48325 
Q 334.428738 171.655125 333.993738 172.011375 
Q 333.560613 172.3695 332.834988 172.3695 
L 331.972488 172.3695 
L 331.972488 171.467625 
L 332.606238 171.467625 
Q 333.050613 171.467625 333.296238 171.25575 
Q 333.543738 171.04575 333.841863 170.260125 
L 334.034988 169.768875 
L 331.381863 163.311375 
L 332.523738 163.311375 
L 334.574988 168.44325 
L 336.626238 163.311375 
L 337.768113 163.311375 
L 334.884363 170.48325 
z
M 343.574051 164.307 
L 343.574051 160.75575 
L 344.652176 160.75575 
L 344.652176 169.873875 
L 343.574051 169.873875 
L 343.574051 168.8895 
Q 343.234676 169.4745 342.715301 169.7595 
Q 342.197801 170.0445 341.470301 170.0445 
Q 340.281551 170.0445 339.533426 169.09575 
Q 338.787176 168.145125 338.787176 166.59825 
Q 338.787176 165.051375 339.533426 164.102625 
Q 340.281551 163.153875 341.470301 163.153875 
Q 342.197801 163.153875 342.715301 163.438875 
Q 343.234676 163.722 343.574051 164.307 
z
M 339.900926 166.59825 
Q 339.900926 167.787 340.390301 168.463875 
Q 340.879676 169.14075 341.734676 169.14075 
Q 342.589676 169.14075 343.080926 168.463875 
Q 343.574051 167.787 343.574051 166.59825 
Q 343.574051 165.4095 343.080926 164.732625 
Q 342.589676 164.05575 341.734676 164.05575 
Q 340.879676 164.05575 340.390301 164.732625 
Q 339.900926 165.4095 339.900926 166.59825 
z
M 350.675613 164.31825 
Q 350.493738 164.21325 350.279988 164.1645 
Q 350.066238 164.113875 349.809363 164.113875 
Q 348.894363 164.113875 348.404988 164.70825 
Q 347.915613 165.302625 347.915613 166.416375 
L 347.915613 169.873875 
L 346.831863 169.873875 
L 346.831863 163.311375 
L 347.915613 163.311375 
L 347.915613 164.331375 
Q 348.256863 163.73325 348.800613 163.4445 
Q 349.346238 163.153875 350.126238 163.153875 
Q 350.236863 163.153875 350.371863 163.168875 
Q 350.506863 163.182 350.669988 163.212 
L 350.675613 164.31825 
z
M 354.079207 164.067 
Q 353.212957 164.067 352.708582 164.743875 
Q 352.204207 165.42075 352.204207 166.59825 
Q 352.204207 167.77575 352.704832 168.452625 
Q 353.207332 169.1295 354.079207 169.1295 
Q 354.941707 169.1295 355.444207 168.45075 
Q 355.948582 167.770125 355.948582 166.59825 
Q 355.948582 165.432 355.444207 164.7495 
Q 354.941707 164.067 354.079207 164.067 
z
M 354.079207 163.153875 
Q 355.485457 163.153875 356.287957 164.068875 
Q 357.092332 164.982 357.092332 166.59825 
Q 357.092332 168.208875 356.287957 169.127625 
Q 355.485457 170.0445 354.079207 170.0445 
Q 352.667332 170.0445 351.866707 169.127625 
Q 351.067957 168.208875 351.067957 166.59825 
Q 351.067957 164.982 351.866707 164.068875 
Q 352.667332 163.153875 354.079207 163.153875 
z
M 363.196629 166.51575 
Q 363.196629 165.343875 362.712879 164.70075 
Q 362.231004 164.05575 361.357254 164.05575 
Q 360.491004 164.05575 360.007254 164.70075 
Q 359.523504 165.343875 359.523504 166.51575 
Q 359.523504 167.682 360.007254 168.327 
Q 360.491004 168.972 361.357254 168.972 
Q 362.231004 168.972 362.712879 168.327 
Q 363.196629 167.682 363.196629 166.51575 
z
M 364.274754 169.060125 
Q 364.274754 170.7345 363.530379 171.552 
Q 362.787879 172.3695 361.252254 172.3695 
Q 360.684129 172.3695 360.179754 172.285125 
Q 359.675379 172.20075 359.201004 172.0245 
L 359.201004 170.976375 
Q 359.675379 171.23325 360.138504 171.355125 
Q 360.601629 171.478875 361.081629 171.478875 
Q 362.142879 171.478875 362.669754 170.92575 
Q 363.196629 170.372625 363.196629 169.25325 
L 363.196629 168.718875 
Q 362.862879 169.300125 362.341629 169.587 
Q 361.820379 169.873875 361.092879 169.873875 
Q 359.887254 169.873875 359.148504 168.955125 
Q 358.409754 168.0345 358.409754 166.51575 
Q 358.409754 164.99325 359.148504 164.0745 
Q 359.887254 163.153875 361.092879 163.153875 
Q 361.820379 163.153875 362.341629 163.44075 
Q 362.862879 163.727625 363.196629 164.307 
L 363.196629 163.311375 
L 364.274754 163.311375 
L 364.274754 169.060125 
z
M 372.109442 166.322625 
L 372.109442 166.8495 
L 367.151942 166.8495 
Q 367.223192 167.96325 367.823192 168.546375 
Q 368.423192 169.1295 369.495692 169.1295 
Q 370.116317 169.1295 370.699442 168.977625 
Q 371.282567 168.82575 371.858192 168.520125 
L 371.858192 169.540125 
Q 371.276942 169.78575 370.667567 169.915125 
Q 370.058192 170.0445 369.431942 170.0445 
Q 367.860692 170.0445 366.943817 169.131375 
Q 366.026942 168.216375 366.026942 166.656375 
Q 366.026942 165.04575 366.896942 164.10075 
Q 367.766942 163.153875 369.244442 163.153875 
Q 370.568192 163.153875 371.338817 164.007 
Q 372.109442 164.85825 372.109442 166.322625 
z
M 371.031317 166.00575 
Q 371.020067 165.122625 370.536317 164.59575 
Q 370.052567 164.067 369.255692 164.067 
Q 368.353817 164.067 367.811942 164.577 
Q 367.270067 165.087 367.187567 166.01325 
L 371.031317 166.00575 
z
M 379.334754 165.912 
L 379.334754 169.873875 
L 378.256629 169.873875 
L 378.256629 165.947625 
Q 378.256629 165.01575 377.892879 164.5545 
Q 377.529129 164.091375 376.803504 164.091375 
Q 375.929754 164.091375 375.425379 164.64825 
Q 374.921004 165.20325 374.921004 166.165125 
L 374.921004 169.873875 
L 373.837254 169.873875 
L 373.837254 163.311375 
L 374.921004 163.311375 
L 374.921004 164.331375 
Q 375.309129 163.738875 375.832254 163.446375 
Q 376.357254 163.153875 377.043504 163.153875 
Q 378.174129 163.153875 378.753504 163.85325 
Q 379.334754 164.552625 379.334754 165.912 
z
M 384.467098 166.57575 
Q 383.160223 166.57575 382.655848 166.873875 
Q 382.151473 167.172 382.151473 167.893875 
Q 382.151473 168.467625 382.530223 168.805125 
Q 382.908973 169.14075 383.557723 169.14075 
Q 384.455848 169.14075 384.997723 168.505125 
Q 385.539598 167.8695 385.539598 166.81575 
L 385.539598 166.57575 
L 384.467098 166.57575 
z
M 386.617723 166.1295 
L 386.617723 169.873875 
L 385.539598 169.873875 
L 385.539598 168.87825 
Q 385.170223 169.4745 384.618973 169.7595 
Q 384.067723 170.0445 383.270848 170.0445 
Q 382.263973 170.0445 381.667723 169.47825 
Q 381.073348 168.912 381.073348 167.96325 
Q 381.073348 166.857 381.813973 166.2945 
Q 382.556473 165.732 384.026473 165.732 
L 385.539598 165.732 
L 385.539598 165.625125 
Q 385.539598 164.88075 385.050223 164.473875 
Q 384.560848 164.067 383.675848 164.067 
Q 383.113348 164.067 382.578973 164.202 
Q 382.046473 164.337 381.555223 164.607 
L 381.555223 163.6095 
Q 382.145848 163.38075 382.702723 163.26825 
Q 383.259598 163.153875 383.786473 163.153875 
Q 385.211473 163.153875 385.914598 163.892625 
Q 386.617723 164.6295 386.617723 166.1295 
z
M 393.020613 163.5045 
L 393.020613 164.5245 
Q 392.564988 164.290125 392.071863 164.173875 
Q 391.580613 164.05575 391.051863 164.05575 
Q 390.249363 164.05575 389.848113 164.301375 
Q 389.446863 164.547 389.446863 165.040125 
Q 389.446863 165.415125 389.733738 165.628875 
Q 390.020613 165.842625 390.888738 166.03575 
L 391.258113 166.11825 
Q 392.405613 166.363875 392.889363 166.812 
Q 393.373113 167.260125 393.373113 168.062625 
Q 393.373113 168.977625 392.649363 169.512 
Q 391.925613 170.0445 390.659988 170.0445 
Q 390.133113 170.0445 389.561238 169.941375 
Q 388.989363 169.83825 388.357488 169.633875 
L 388.357488 168.520125 
Q 388.955613 168.831375 389.534988 168.987 
Q 390.114363 169.14075 390.684363 169.14075 
Q 391.445613 169.14075 391.854363 168.880125 
Q 392.264988 168.6195 392.264988 168.145125 
Q 392.264988 167.706375 391.968738 167.472 
Q 391.674363 167.237625 390.671238 167.020125 
L 390.296238 166.932 
Q 389.294988 166.722 388.848738 166.285125 
Q 388.404363 165.84825 388.404363 165.087 
Q 388.404363 164.16075 389.060613 163.65825 
Q 389.716863 163.153875 390.924363 163.153875 
Q 391.520613 163.153875 392.047488 163.242 
Q 392.576238 163.32825 393.020613 163.5045 
z
M 400.703192 166.322625 
L 400.703192 166.8495 
L 395.745692 166.8495 
Q 395.816942 167.96325 396.416942 168.546375 
Q 397.016942 169.1295 398.089442 169.1295 
Q 398.710067 169.1295 399.293192 168.977625 
Q 399.876317 168.82575 400.451942 168.520125 
L 400.451942 169.540125 
Q 399.870692 169.78575 399.261317 169.915125 
Q 398.651942 170.0445 398.025692 170.0445 
Q 396.454442 170.0445 395.537567 169.131375 
Q 394.620692 168.216375 394.620692 166.656375 
Q 394.620692 165.04575 395.490692 164.10075 
Q 396.360692 163.153875 397.838192 163.153875 
Q 399.161942 163.153875 399.932567 164.007 
Q 400.703192 164.85825 400.703192 166.322625 
z
M 399.625067 166.00575 
Q 399.613817 165.122625 399.130067 164.59575 
Q 398.646317 164.067 397.849442 164.067 
Q 396.947567 164.067 396.405692 164.577 
Q 395.863817 165.087 395.781317 166.01325 
L 399.625067 166.00575 
z
" clip-path="url(#pb9ce677b16)" style="fill: #ffffff; stroke: #000000; stroke-width: 2"/>
    <path d="M 313.86702 164.307 
L 313.86702 160.75575 
L 314.945145 160.75575 
L 314.945145 169.873875 
L 313.86702 169.873875 
L 313.86702 168.8895 
Q 313.527645 169.4745 313.00827 169.7595 
Q 312.49077 170.0445 311.76327 170.0445 
Q 310.57452 170.0445 309.826395 169.09575 
Q 309.080145 168.145125 309.080145 166.59825 
Q 309.080145 165.051375 309.826395 164.102625 
Q 310.57452 163.153875 311.76327 163.153875 
Q 312.49077 163.153875 313.00827 163.438875 
Q 313.527645 163.722 313.86702 164.307 
z
M 310.193895 166.59825 
Q 310.193895 167.787 310.68327 168.463875 
Q 311.172645 169.14075 312.027645 169.14075 
Q 312.882645 169.14075 313.373895 168.463875 
Q 313.86702 167.787 313.86702 166.59825 
Q 313.86702 165.4095 313.373895 164.732625 
Q 312.882645 164.05575 312.027645 164.05575 
Q 311.172645 164.05575 310.68327 164.732625 
Q 310.193895 165.4095 310.193895 166.59825 
z
M 322.779832 166.322625 
L 322.779832 166.8495 
L 317.822332 166.8495 
Q 317.893582 167.96325 318.493582 168.546375 
Q 319.093582 169.1295 320.166082 169.1295 
Q 320.786707 169.1295 321.369832 168.977625 
Q 321.952957 168.82575 322.528582 168.520125 
L 322.528582 169.540125 
Q 321.947332 169.78575 321.337957 169.915125 
Q 320.728582 170.0445 320.102332 170.0445 
Q 318.531082 170.0445 317.614207 169.131375 
Q 316.697332 168.216375 316.697332 166.656375 
Q 316.697332 165.04575 317.567332 164.10075 
Q 318.437332 163.153875 319.914832 163.153875 
Q 321.238582 163.153875 322.009207 164.007 
Q 322.779832 164.85825 322.779832 166.322625 
z
M 321.701707 166.00575 
Q 321.690457 165.122625 321.206707 164.59575 
Q 320.722957 164.067 319.926082 164.067 
Q 319.024207 164.067 318.482332 164.577 
Q 317.940457 165.087 317.857957 166.01325 
L 321.701707 166.00575 
z
M 330.005145 165.912 
L 330.005145 169.873875 
L 328.92702 169.873875 
L 328.92702 165.947625 
Q 328.92702 165.01575 328.56327 164.5545 
Q 328.19952 164.091375 327.473895 164.091375 
Q 326.600145 164.091375 326.09577 164.64825 
Q 325.591395 165.20325 325.591395 166.165125 
L 325.591395 169.873875 
L 324.507645 169.873875 
L 324.507645 160.75575 
L 325.591395 160.75575 
L 325.591395 164.331375 
Q 325.97952 163.738875 326.502645 163.446375 
Q 327.027645 163.153875 327.713895 163.153875 
Q 328.84452 163.153875 329.423895 163.85325 
Q 330.005145 164.552625 330.005145 165.912 
z
M 334.884363 170.48325 
Q 334.428738 171.655125 333.993738 172.011375 
Q 333.560613 172.3695 332.834988 172.3695 
L 331.972488 172.3695 
L 331.972488 171.467625 
L 332.606238 171.467625 
Q 333.050613 171.467625 333.296238 171.25575 
Q 333.543738 171.04575 333.841863 170.260125 
L 334.034988 169.768875 
L 331.381863 163.311375 
L 332.523738 163.311375 
L 334.574988 168.44325 
L 336.626238 163.311375 
L 337.768113 163.311375 
L 334.884363 170.48325 
z
M 343.574051 164.307 
L 343.574051 160.75575 
L 344.652176 160.75575 
L 344.652176 169.873875 
L 343.574051 169.873875 
L 343.574051 168.8895 
Q 343.234676 169.4745 342.715301 169.7595 
Q 342.197801 170.0445 341.470301 170.0445 
Q 340.281551 170.0445 339.533426 169.09575 
Q 338.787176 168.145125 338.787176 166.59825 
Q 338.787176 165.051375 339.533426 164.102625 
Q 340.281551 163.153875 341.470301 163.153875 
Q 342.197801 163.153875 342.715301 163.438875 
Q 343.234676 163.722 343.574051 164.307 
z
M 339.900926 166.59825 
Q 339.900926 167.787 340.390301 168.463875 
Q 340.879676 169.14075 341.734676 169.14075 
Q 342.589676 169.14075 343.080926 168.463875 
Q 343.574051 167.787 343.574051 166.59825 
Q 343.574051 165.4095 343.080926 164.732625 
Q 342.589676 164.05575 341.734676 164.05575 
Q 340.879676 164.05575 340.390301 164.732625 
Q 339.900926 165.4095 339.900926 166.59825 
z
M 350.675613 164.31825 
Q 350.493738 164.21325 350.279988 164.1645 
Q 350.066238 164.113875 349.809363 164.113875 
Q 348.894363 164.113875 348.404988 164.70825 
Q 347.915613 165.302625 347.915613 166.416375 
L 347.915613 169.873875 
L 346.831863 169.873875 
L 346.831863 163.311375 
L 347.915613 163.311375 
L 347.915613 164.331375 
Q 348.256863 163.73325 348.800613 163.4445 
Q 349.346238 163.153875 350.126238 163.153875 
Q 350.236863 163.153875 350.371863 163.168875 
Q 350.506863 163.182 350.669988 163.212 
L 350.675613 164.31825 
z
M 354.079207 164.067 
Q 353.212957 164.067 352.708582 164.743875 
Q 352.204207 165.42075 352.204207 166.59825 
Q 352.204207 167.77575 352.704832 168.452625 
Q 353.207332 169.1295 354.079207 169.1295 
Q 354.941707 169.1295 355.444207 168.45075 
Q 355.948582 167.770125 355.948582 166.59825 
Q 355.948582 165.432 355.444207 164.7495 
Q 354.941707 164.067 354.079207 164.067 
z
M 354.079207 163.153875 
Q 355.485457 163.153875 356.287957 164.068875 
Q 357.092332 164.982 357.092332 166.59825 
Q 357.092332 168.208875 356.287957 169.127625 
Q 355.485457 170.0445 354.079207 170.0445 
Q 352.667332 170.0445 351.866707 169.127625 
Q 351.067957 168.208875 351.067957 166.59825 
Q 351.067957 164.982 351.866707 164.068875 
Q 352.667332 163.153875 354.079207 163.153875 
z
M 363.196629 166.51575 
Q 363.196629 165.343875 362.712879 164.70075 
Q 362.231004 164.05575 361.357254 164.05575 
Q 360.491004 164.05575 360.007254 164.70075 
Q 359.523504 165.343875 359.523504 166.51575 
Q 359.523504 167.682 360.007254 168.327 
Q 360.491004 168.972 361.357254 168.972 
Q 362.231004 168.972 362.712879 168.327 
Q 363.196629 167.682 363.196629 166.51575 
z
M 364.274754 169.060125 
Q 364.274754 170.7345 363.530379 171.552 
Q 362.787879 172.3695 361.252254 172.3695 
Q 360.684129 172.3695 360.179754 172.285125 
Q 359.675379 172.20075 359.201004 172.0245 
L 359.201004 170.976375 
Q 359.675379 171.23325 360.138504 171.355125 
Q 360.601629 171.478875 361.081629 171.478875 
Q 362.142879 171.478875 362.669754 170.92575 
Q 363.196629 170.372625 363.196629 169.25325 
L 363.196629 168.718875 
Q 362.862879 169.300125 362.341629 169.587 
Q 361.820379 169.873875 361.092879 169.873875 
Q 359.887254 169.873875 359.148504 168.955125 
Q 358.409754 168.0345 358.409754 166.51575 
Q 358.409754 164.99325 359.148504 164.0745 
Q 359.887254 163.153875 361.092879 163.153875 
Q 361.820379 163.153875 362.341629 163.44075 
Q 362.862879 163.727625 363.196629 164.307 
L 363.196629 163.311375 
L 364.274754 163.311375 
L 364.274754 169.060125 
z
M 372.109442 166.322625 
L 372.109442 166.8495 
L 367.151942 166.8495 
Q 367.223192 167.96325 367.823192 168.546375 
Q 368.423192 169.1295 369.495692 169.1295 
Q 370.116317 169.1295 370.699442 168.977625 
Q 371.282567 168.82575 371.858192 168.520125 
L 371.858192 169.540125 
Q 371.276942 169.78575 370.667567 169.915125 
Q 370.058192 170.0445 369.431942 170.0445 
Q 367.860692 170.0445 366.943817 169.131375 
Q 366.026942 168.216375 366.026942 166.656375 
Q 366.026942 165.04575 366.896942 164.10075 
Q 367.766942 163.153875 369.244442 163.153875 
Q 370.568192 163.153875 371.338817 164.007 
Q 372.109442 164.85825 372.109442 166.322625 
z
M 371.031317 166.00575 
Q 371.020067 165.122625 370.536317 164.59575 
Q 370.052567 164.067 369.255692 164.067 
Q 368.353817 164.067 367.811942 164.577 
Q 367.270067 165.087 367.187567 166.01325 
L 371.031317 166.00575 
z
M 379.334754 165.912 
L 379.334754 169.873875 
L 378.256629 169.873875 
L 378.256629 165.947625 
Q 378.256629 165.01575 377.892879 164.5545 
Q 377.529129 164.091375 376.803504 164.091375 
Q 375.929754 164.091375 375.425379 164.64825 
Q 374.921004 165.20325 374.921004 166.165125 
L 374.921004 169.873875 
L 373.837254 169.873875 
L 373.837254 163.311375 
L 374.921004 163.311375 
L 374.921004 164.331375 
Q 375.309129 163.738875 375.832254 163.446375 
Q 376.357254 163.153875 377.043504 163.153875 
Q 378.174129 163.153875 378.753504 163.85325 
Q 379.334754 164.552625 379.334754 165.912 
z
M 384.467098 166.57575 
Q 383.160223 166.57575 382.655848 166.873875 
Q 382.151473 167.172 382.151473 167.893875 
Q 382.151473 168.467625 382.530223 168.805125 
Q 382.908973 169.14075 383.557723 169.14075 
Q 384.455848 169.14075 384.997723 168.505125 
Q 385.539598 167.8695 385.539598 166.81575 
L 385.539598 166.57575 
L 384.467098 166.57575 
z
M 386.617723 166.1295 
L 386.617723 169.873875 
L 385.539598 169.873875 
L 385.539598 168.87825 
Q 385.170223 169.4745 384.618973 169.7595 
Q 384.067723 170.0445 383.270848 170.0445 
Q 382.263973 170.0445 381.667723 169.47825 
Q 381.073348 168.912 381.073348 167.96325 
Q 381.073348 166.857 381.813973 166.2945 
Q 382.556473 165.732 384.026473 165.732 
L 385.539598 165.732 
L 385.539598 165.625125 
Q 385.539598 164.88075 385.050223 164.473875 
Q 384.560848 164.067 383.675848 164.067 
Q 383.113348 164.067 382.578973 164.202 
Q 382.046473 164.337 381.555223 164.607 
L 381.555223 163.6095 
Q 382.145848 163.38075 382.702723 163.26825 
Q 383.259598 163.153875 383.786473 163.153875 
Q 385.211473 163.153875 385.914598 163.892625 
Q 386.617723 164.6295 386.617723 166.1295 
z
M 393.020613 163.5045 
L 393.020613 164.5245 
Q 392.564988 164.290125 392.071863 164.173875 
Q 391.580613 164.05575 391.051863 164.05575 
Q 390.249363 164.05575 389.848113 164.301375 
Q 389.446863 164.547 389.446863 165.040125 
Q 389.446863 165.415125 389.733738 165.628875 
Q 390.020613 165.842625 390.888738 166.03575 
L 391.258113 166.11825 
Q 392.405613 166.363875 392.889363 166.812 
Q 393.373113 167.260125 393.373113 168.062625 
Q 393.373113 168.977625 392.649363 169.512 
Q 391.925613 170.0445 390.659988 170.0445 
Q 390.133113 170.0445 389.561238 169.941375 
Q 388.989363 169.83825 388.357488 169.633875 
L 388.357488 168.520125 
Q 388.955613 168.831375 389.534988 168.987 
Q 390.114363 169.14075 390.684363 169.14075 
Q 391.445613 169.14075 391.854363 168.880125 
Q 392.264988 168.6195 392.264988 168.145125 
Q 392.264988 167.706375 391.968738 167.472 
Q 391.674363 167.237625 390.671238 167.020125 
L 390.296238 166.932 
Q 389.294988 166.722 388.848738 166.285125 
Q 388.404363 165.84825 388.404363 165.087 
Q 388.404363 164.16075 389.060613 163.65825 
Q 389.716863 163.153875 390.924363 163.153875 
Q 391.520613 163.153875 392.047488 163.242 
Q 392.576238 163.32825 393.020613 163.5045 
z
M 400.703192 166.322625 
L 400.703192 166.8495 
L 395.745692 166.8495 
Q 395.816942 167.96325 396.416942 168.546375 
Q 397.016942 169.1295 398.089442 169.1295 
Q 398.710067 169.1295 399.293192 168.977625 
Q 399.876317 168.82575 400.451942 168.520125 
L 400.451942 169.540125 
Q 399.870692 169.78575 399.261317 169.915125 
Q 398.651942 170.0445 398.025692 170.0445 
Q 396.454442 170.0445 395.537567 169.131375 
Q 394.620692 168.216375 394.620692 166.656375 
Q 394.620692 165.04575 395.490692 164.10075 
Q 396.360692 163.153875 397.838192 163.153875 
Q 399.161942 163.153875 399.932567 164.007 
Q 400.703192 164.85825 400.703192 166.322625 
z
M 399.625067 166.00575 
Q 399.613817 165.122625 399.130067 164.59575 
Q 398.646317 164.067 397.849442 164.067 
Q 396.947567 164.067 396.405692 164.577 
Q 395.863817 165.087 395.781317 166.01325 
L 399.625067 166.00575 
z
" clip-path="url(#pb9ce677b16)" style="fill: #ffffff"/>
    <path d="M 348.44952 182.315625 
L 350.382645 182.315625 
L 350.382645 175.640625 
L 348.278895 176.0625 
L 348.278895 174.984375 
L 350.371395 174.5625 
L 351.55452 174.5625 
L 351.55452 182.315625 
L 353.487645 182.315625 
L 353.487645 183.31125 
L 348.44952 183.31125 
L 348.44952 182.315625 
z
M 358.698035 175.72875 
L 357.09116 180.0825 
L 360.30866 180.0825 
L 358.698035 175.72875 
z
M 358.02866 174.5625 
L 359.37116 174.5625 
L 362.70491 183.31125 
L 361.47491 183.31125 
L 360.678035 181.066875 
L 356.73491 181.066875 
L 355.938035 183.31125 
L 354.689285 183.31125 
L 358.02866 174.5625 
z
" clip-path="url(#pb9ce677b16)" style="fill: #ffffff; stroke: #000000; stroke-width: 2"/>
    <path d="M 348.44952 182.315625 
L 350.382645 182.315625 
L 350.382645 175.640625 
L 348.278895 176.0625 
L 348.278895 174.984375 
L 350.371395 174.5625 
L 351.55452 174.5625 
L 351.55452 182.315625 
L 353.487645 182.315625 
L 353.487645 183.31125 
L 348.44952 183.31125 
L 348.44952 182.315625 
z
M 358.698035 175.72875 
L 357.09116 180.0825 
L 360.30866 180.0825 
L 358.698035 175.72875 
z
M 358.02866 174.5625 
L 359.37116 174.5625 
L 362.70491 183.31125 
L 361.47491 183.31125 
L 360.678035 181.066875 
L 356.73491 181.066875 
L 355.938035 183.31125 
L 354.689285 183.31125 
L 358.02866 174.5625 
z
" clip-path="url(#pb9ce677b16)" style="fill: #ffffff"/>
    <path d="M 309.470145 187.999875 
L 310.66077 187.999875 
L 310.66077 193.3155 
Q 310.66077 194.72175 311.168895 195.3405 
Q 311.678895 195.957375 312.822645 195.957375 
Q 313.958895 195.957375 314.468895 195.3405 
Q 314.978895 194.72175 314.978895 193.3155 
L 314.978895 187.999875 
L 316.167645 187.999875 
L 316.167645 193.46175 
Q 316.167645 195.17175 315.320145 196.0455 
Q 314.47452 196.91925 312.822645 196.91925 
Q 311.16327 196.91925 310.31577 196.0455 
Q 309.470145 195.17175 309.470145 193.46175 
L 309.470145 187.999875 
z
M 323.797723 192.78675 
L 323.797723 196.748625 
L 322.719598 196.748625 
L 322.719598 192.822375 
Q 322.719598 191.8905 322.355848 191.42925 
Q 321.992098 190.966125 321.266473 190.966125 
Q 320.392723 190.966125 319.888348 191.523 
Q 319.383973 192.078 319.383973 193.039875 
L 319.383973 196.748625 
L 318.300223 196.748625 
L 318.300223 190.186125 
L 319.383973 190.186125 
L 319.383973 191.206125 
Q 319.772098 190.613625 320.295223 190.321125 
Q 320.820223 190.028625 321.506473 190.028625 
Q 322.637098 190.028625 323.216473 190.728 
Q 323.797723 191.427375 323.797723 192.78675 
z
M 325.946942 190.186125 
L 327.025067 190.186125 
L 327.025067 196.748625 
L 325.946942 196.748625 
L 325.946942 190.186125 
z
M 325.946942 187.6305 
L 327.025067 187.6305 
L 327.025067 188.997375 
L 325.946942 188.997375 
L 325.946942 187.6305 
z
M 330.510926 188.973 
L 330.510926 192.259875 
L 331.999676 192.259875 
Q 332.826551 192.259875 333.276551 191.832375 
Q 333.728426 191.404875 333.728426 190.613625 
Q 333.728426 189.828 333.276551 189.4005 
Q 332.826551 188.973 331.999676 188.973 
L 330.510926 188.973 
z
M 329.327801 187.999875 
L 331.999676 187.999875 
Q 333.471551 187.999875 334.223426 188.6655 
Q 334.977176 189.331125 334.977176 190.613625 
Q 334.977176 191.90925 334.223426 192.571125 
Q 333.471551 193.233 331.999676 193.233 
L 330.510926 193.233 
L 330.510926 196.748625 
L 329.327801 196.748625 
L 329.327801 187.999875 
z
M 340.109754 191.193 
Q 339.927879 191.088 339.714129 191.03925 
Q 339.500379 190.988625 339.243504 190.988625 
Q 338.328504 190.988625 337.839129 191.583 
Q 337.349754 192.177375 337.349754 193.291125 
L 337.349754 196.748625 
L 336.266004 196.748625 
L 336.266004 190.186125 
L 337.349754 190.186125 
L 337.349754 191.206125 
Q 337.691004 190.608 338.234754 190.31925 
Q 338.780379 190.028625 339.560379 190.028625 
Q 339.671004 190.028625 339.806004 190.043625 
Q 339.941004 190.05675 340.104129 190.08675 
L 340.109754 191.193 
z
M 343.513348 190.94175 
Q 342.647098 190.94175 342.142723 191.618625 
Q 341.638348 192.2955 341.638348 193.473 
Q 341.638348 194.6505 342.138973 195.327375 
Q 342.641473 196.00425 343.513348 196.00425 
Q 344.375848 196.00425 344.878348 195.3255 
Q 345.382723 194.644875 345.382723 193.473 
Q 345.382723 192.30675 344.878348 191.62425 
Q 344.375848 190.94175 343.513348 190.94175 
z
M 343.513348 190.028625 
Q 344.919598 190.028625 345.722098 190.943625 
Q 346.526473 191.85675 346.526473 193.473 
Q 346.526473 195.083625 345.722098 196.002375 
Q 344.919598 196.91925 343.513348 196.91925 
Q 342.101473 196.91925 341.300848 196.002375 
Q 340.502098 195.083625 340.502098 193.473 
Q 340.502098 191.85675 341.300848 190.943625 
Q 342.101473 190.028625 343.513348 190.028625 
z
M 349.37952 188.322375 
L 349.37952 190.186125 
L 351.59952 190.186125 
L 351.59952 191.02425 
L 349.37952 191.02425 
L 349.37952 194.58675 
Q 349.37952 195.38925 349.598895 195.618 
Q 349.81827 195.84675 350.49327 195.84675 
L 351.59952 195.84675 
L 351.59952 196.748625 
L 350.49327 196.748625 
Q 349.24452 196.748625 348.770145 196.283625 
Q 348.29577 195.81675 348.29577 194.58675 
L 348.29577 191.02425 
L 347.50452 191.02425 
L 347.50452 190.186125 
L 348.29577 190.186125 
L 348.29577 188.322375 
L 349.37952 188.322375 
z
M 353.293348 195.259875 
L 354.528973 195.259875 
L 354.528973 196.748625 
L 353.293348 196.748625 
L 353.293348 195.259875 
z
M 353.293348 190.54425 
L 354.528973 190.54425 
L 354.528973 192.031125 
L 353.293348 192.031125 
L 353.293348 190.54425 
z
M 358.290692 188.973 
L 358.290692 192.259875 
L 359.779442 192.259875 
Q 360.606317 192.259875 361.056317 191.832375 
Q 361.508192 191.404875 361.508192 190.613625 
Q 361.508192 189.828 361.056317 189.4005 
Q 360.606317 188.973 359.779442 188.973 
L 358.290692 188.973 
z
M 357.107567 187.999875 
L 359.779442 187.999875 
Q 361.251317 187.999875 362.003192 188.6655 
Q 362.756942 189.331125 362.756942 190.613625 
Q 362.756942 191.90925 362.003192 192.571125 
Q 361.251317 193.233 359.779442 193.233 
L 358.290692 193.233 
L 358.290692 196.748625 
L 357.107567 196.748625 
L 357.107567 187.999875 
z
M 366.980145 188.779875 
Q 366.06702 188.779875 365.60577 189.679875 
Q 365.146395 190.578 365.146395 192.383625 
Q 365.146395 194.18175 365.60577 195.08175 
Q 366.06702 195.98175 366.980145 195.98175 
Q 367.90077 195.98175 368.360145 195.08175 
Q 368.821395 194.18175 368.821395 192.383625 
Q 368.821395 190.578 368.360145 189.679875 
Q 367.90077 188.779875 366.980145 188.779875 
z
M 366.980145 187.842375 
Q 368.45202 187.842375 369.22827 189.00675 
Q 370.00452 190.16925 370.00452 192.383625 
Q 370.00452 194.592375 369.22827 195.75675 
Q 368.45202 196.91925 366.980145 196.91925 
Q 365.510145 196.91925 364.733895 195.75675 
Q 363.957645 194.592375 363.957645 192.383625 
Q 363.957645 190.16925 364.733895 189.00675 
Q 365.510145 187.842375 366.980145 187.842375 
z
M 371.785535 187.999875 
L 377.410535 187.999875 
L 377.410535 188.50425 
L 374.234285 196.748625 
L 372.99866 196.748625 
L 375.98741 188.997375 
L 371.785535 188.997375 
L 371.785535 187.999875 
z
M 383.305301 192.031125 
Q 384.154676 192.213 384.630926 192.788625 
Q 385.109051 193.362375 385.109051 194.206125 
Q 385.109051 195.499875 384.218426 196.2105 
Q 383.327801 196.91925 381.687176 196.91925 
Q 381.137801 196.91925 380.554676 196.8105 
Q 379.971551 196.70175 379.350926 196.48425 
L 379.350926 195.342375 
Q 379.842176 195.62925 380.427176 195.7755 
Q 381.014051 195.92175 381.653426 195.92175 
Q 382.765301 195.92175 383.348426 195.483 
Q 383.931551 195.04425 383.931551 194.206125 
Q 383.931551 193.43175 383.389676 192.99675 
Q 382.847801 192.559875 381.882176 192.559875 
L 380.862176 192.559875 
L 380.862176 191.58675 
L 381.929051 191.58675 
Q 382.800926 191.58675 383.264051 191.238 
Q 383.727176 190.88925 383.727176 190.233 
Q 383.727176 189.559875 383.249051 189.199875 
Q 382.772801 188.838 381.882176 188.838 
Q 381.394676 188.838 380.837801 188.944875 
Q 380.280926 189.049875 379.613426 189.271125 
L 379.613426 188.217375 
Q 380.288426 188.029875 380.877176 187.936125 
Q 381.465926 187.842375 381.987176 187.842375 
Q 383.335301 187.842375 384.119051 188.4555 
Q 384.904676 189.06675 384.904676 190.10925 
Q 384.904676 190.83675 384.488426 191.337375 
Q 384.072176 191.838 383.305301 192.031125 
z
M 388.373192 195.753 
L 392.503817 195.753 
L 392.503817 196.748625 
L 386.950067 196.748625 
L 386.950067 195.753 
Q 387.623192 195.0555 388.785692 193.88175 
Q 389.950067 192.706125 390.248192 192.364875 
Q 390.816317 191.727375 391.041317 191.284875 
Q 391.268192 190.842375 391.268192 190.414875 
Q 391.268192 189.717375 390.778817 189.278625 
Q 390.289442 188.838 389.503817 188.838 
Q 388.946942 188.838 388.328192 189.031125 
Q 387.711317 189.22425 387.008192 189.618 
L 387.008192 188.42175 
Q 387.722567 188.134875 388.343192 187.988625 
Q 388.965692 187.842375 389.481317 187.842375 
Q 390.840692 187.842375 391.648817 188.523 
Q 392.456942 189.20175 392.456942 190.338 
Q 392.456942 190.878 392.254442 191.36175 
Q 392.053817 191.843625 391.519442 192.499875 
Q 391.373192 192.6705 390.587567 193.482375 
Q 389.803817 194.29425 388.373192 195.753 
z
M 394.689832 187.999875 
L 400.314832 187.999875 
L 400.314832 188.50425 
L 397.138582 196.748625 
L 395.902957 196.748625 
L 398.891707 188.997375 
L 394.689832 188.997375 
L 394.689832 187.999875 
z
" clip-path="url(#pb9ce677b16)" style="fill: #ffffff; stroke: #000000; stroke-width: 2"/>
    <path d="M 309.470145 187.999875 
L 310.66077 187.999875 
L 310.66077 193.3155 
Q 310.66077 194.72175 311.168895 195.3405 
Q 311.678895 195.957375 312.822645 195.957375 
Q 313.958895 195.957375 314.468895 195.3405 
Q 314.978895 194.72175 314.978895 193.3155 
L 314.978895 187.999875 
L 316.167645 187.999875 
L 316.167645 193.46175 
Q 316.167645 195.17175 315.320145 196.0455 
Q 314.47452 196.91925 312.822645 196.91925 
Q 311.16327 196.91925 310.31577 196.0455 
Q 309.470145 195.17175 309.470145 193.46175 
L 309.470145 187.999875 
z
M 323.797723 192.78675 
L 323.797723 196.748625 
L 322.719598 196.748625 
L 322.719598 192.822375 
Q 322.719598 191.8905 322.355848 191.42925 
Q 321.992098 190.966125 321.266473 190.966125 
Q 320.392723 190.966125 319.888348 191.523 
Q 319.383973 192.078 319.383973 193.039875 
L 319.383973 196.748625 
L 318.300223 196.748625 
L 318.300223 190.186125 
L 319.383973 190.186125 
L 319.383973 191.206125 
Q 319.772098 190.613625 320.295223 190.321125 
Q 320.820223 190.028625 321.506473 190.028625 
Q 322.637098 190.028625 323.216473 190.728 
Q 323.797723 191.427375 323.797723 192.78675 
z
M 325.946942 190.186125 
L 327.025067 190.186125 
L 327.025067 196.748625 
L 325.946942 196.748625 
L 325.946942 190.186125 
z
M 325.946942 187.6305 
L 327.025067 187.6305 
L 327.025067 188.997375 
L 325.946942 188.997375 
L 325.946942 187.6305 
z
M 330.510926 188.973 
L 330.510926 192.259875 
L 331.999676 192.259875 
Q 332.826551 192.259875 333.276551 191.832375 
Q 333.728426 191.404875 333.728426 190.613625 
Q 333.728426 189.828 333.276551 189.4005 
Q 332.826551 188.973 331.999676 188.973 
L 330.510926 188.973 
z
M 329.327801 187.999875 
L 331.999676 187.999875 
Q 333.471551 187.999875 334.223426 188.6655 
Q 334.977176 189.331125 334.977176 190.613625 
Q 334.977176 191.90925 334.223426 192.571125 
Q 333.471551 193.233 331.999676 193.233 
L 330.510926 193.233 
L 330.510926 196.748625 
L 329.327801 196.748625 
L 329.327801 187.999875 
z
M 340.109754 191.193 
Q 339.927879 191.088 339.714129 191.03925 
Q 339.500379 190.988625 339.243504 190.988625 
Q 338.328504 190.988625 337.839129 191.583 
Q 337.349754 192.177375 337.349754 193.291125 
L 337.349754 196.748625 
L 336.266004 196.748625 
L 336.266004 190.186125 
L 337.349754 190.186125 
L 337.349754 191.206125 
Q 337.691004 190.608 338.234754 190.31925 
Q 338.780379 190.028625 339.560379 190.028625 
Q 339.671004 190.028625 339.806004 190.043625 
Q 339.941004 190.05675 340.104129 190.08675 
L 340.109754 191.193 
z
M 343.513348 190.94175 
Q 342.647098 190.94175 342.142723 191.618625 
Q 341.638348 192.2955 341.638348 193.473 
Q 341.638348 194.6505 342.138973 195.327375 
Q 342.641473 196.00425 343.513348 196.00425 
Q 344.375848 196.00425 344.878348 195.3255 
Q 345.382723 194.644875 345.382723 193.473 
Q 345.382723 192.30675 344.878348 191.62425 
Q 344.375848 190.94175 343.513348 190.94175 
z
M 343.513348 190.028625 
Q 344.919598 190.028625 345.722098 190.943625 
Q 346.526473 191.85675 346.526473 193.473 
Q 346.526473 195.083625 345.722098 196.002375 
Q 344.919598 196.91925 343.513348 196.91925 
Q 342.101473 196.91925 341.300848 196.002375 
Q 340.502098 195.083625 340.502098 193.473 
Q 340.502098 191.85675 341.300848 190.943625 
Q 342.101473 190.028625 343.513348 190.028625 
z
M 349.37952 188.322375 
L 349.37952 190.186125 
L 351.59952 190.186125 
L 351.59952 191.02425 
L 349.37952 191.02425 
L 349.37952 194.58675 
Q 349.37952 195.38925 349.598895 195.618 
Q 349.81827 195.84675 350.49327 195.84675 
L 351.59952 195.84675 
L 351.59952 196.748625 
L 350.49327 196.748625 
Q 349.24452 196.748625 348.770145 196.283625 
Q 348.29577 195.81675 348.29577 194.58675 
L 348.29577 191.02425 
L 347.50452 191.02425 
L 347.50452 190.186125 
L 348.29577 190.186125 
L 348.29577 188.322375 
L 349.37952 188.322375 
z
M 353.293348 195.259875 
L 354.528973 195.259875 
L 354.528973 196.748625 
L 353.293348 196.748625 
L 353.293348 195.259875 
z
M 353.293348 190.54425 
L 354.528973 190.54425 
L 354.528973 192.031125 
L 353.293348 192.031125 
L 353.293348 190.54425 
z
M 358.290692 188.973 
L 358.290692 192.259875 
L 359.779442 192.259875 
Q 360.606317 192.259875 361.056317 191.832375 
Q 361.508192 191.404875 361.508192 190.613625 
Q 361.508192 189.828 361.056317 189.4005 
Q 360.606317 188.973 359.779442 188.973 
L 358.290692 188.973 
z
M 357.107567 187.999875 
L 359.779442 187.999875 
Q 361.251317 187.999875 362.003192 188.6655 
Q 362.756942 189.331125 362.756942 190.613625 
Q 362.756942 191.90925 362.003192 192.571125 
Q 361.251317 193.233 359.779442 193.233 
L 358.290692 193.233 
L 358.290692 196.748625 
L 357.107567 196.748625 
L 357.107567 187.999875 
z
M 366.980145 188.779875 
Q 366.06702 188.779875 365.60577 189.679875 
Q 365.146395 190.578 365.146395 192.383625 
Q 365.146395 194.18175 365.60577 195.08175 
Q 366.06702 195.98175 366.980145 195.98175 
Q 367.90077 195.98175 368.360145 195.08175 
Q 368.821395 194.18175 368.821395 192.383625 
Q 368.821395 190.578 368.360145 189.679875 
Q 367.90077 188.779875 366.980145 188.779875 
z
M 366.980145 187.842375 
Q 368.45202 187.842375 369.22827 189.00675 
Q 370.00452 190.16925 370.00452 192.383625 
Q 370.00452 194.592375 369.22827 195.75675 
Q 368.45202 196.91925 366.980145 196.91925 
Q 365.510145 196.91925 364.733895 195.75675 
Q 363.957645 194.592375 363.957645 192.383625 
Q 363.957645 190.16925 364.733895 189.00675 
Q 365.510145 187.842375 366.980145 187.842375 
z
M 371.785535 187.999875 
L 377.410535 187.999875 
L 377.410535 188.50425 
L 374.234285 196.748625 
L 372.99866 196.748625 
L 375.98741 188.997375 
L 371.785535 188.997375 
L 371.785535 187.999875 
z
M 383.305301 192.031125 
Q 384.154676 192.213 384.630926 192.788625 
Q 385.109051 193.362375 385.109051 194.206125 
Q 385.109051 195.499875 384.218426 196.2105 
Q 383.327801 196.91925 381.687176 196.91925 
Q 381.137801 196.91925 380.554676 196.8105 
Q 379.971551 196.70175 379.350926 196.48425 
L 379.350926 195.342375 
Q 379.842176 195.62925 380.427176 195.7755 
Q 381.014051 195.92175 381.653426 195.92175 
Q 382.765301 195.92175 383.348426 195.483 
Q 383.931551 195.04425 383.931551 194.206125 
Q 383.931551 193.43175 383.389676 192.99675 
Q 382.847801 192.559875 381.882176 192.559875 
L 380.862176 192.559875 
L 380.862176 191.58675 
L 381.929051 191.58675 
Q 382.800926 191.58675 383.264051 191.238 
Q 383.727176 190.88925 383.727176 190.233 
Q 383.727176 189.559875 383.249051 189.199875 
Q 382.772801 188.838 381.882176 188.838 
Q 381.394676 188.838 380.837801 188.944875 
Q 380.280926 189.049875 379.613426 189.271125 
L 379.613426 188.217375 
Q 380.288426 188.029875 380.877176 187.936125 
Q 381.465926 187.842375 381.987176 187.842375 
Q 383.335301 187.842375 384.119051 188.4555 
Q 384.904676 189.06675 384.904676 190.10925 
Q 384.904676 190.83675 384.488426 191.337375 
Q 384.072176 191.838 383.305301 192.031125 
z
M 388.373192 195.753 
L 392.503817 195.753 
L 392.503817 196.748625 
L 386.950067 196.748625 
L 386.950067 195.753 
Q 387.623192 195.0555 388.785692 193.88175 
Q 389.950067 192.706125 390.248192 192.364875 
Q 390.816317 191.727375 391.041317 191.284875 
Q 391.268192 190.842375 391.268192 190.414875 
Q 391.268192 189.717375 390.778817 189.278625 
Q 390.289442 188.838 389.503817 188.838 
Q 388.946942 188.838 388.328192 189.031125 
Q 387.711317 189.22425 387.008192 189.618 
L 387.008192 188.42175 
Q 387.722567 188.134875 388.343192 187.988625 
Q 388.965692 187.842375 389.481317 187.842375 
Q 390.840692 187.842375 391.648817 188.523 
Q 392.456942 189.20175 392.456942 190.338 
Q 392.456942 190.878 392.254442 191.36175 
Q 392.053817 191.843625 391.519442 192.499875 
Q 391.373192 192.6705 390.587567 193.482375 
Q 389.803817 194.29425 388.373192 195.753 
z
M 394.689832 187.999875 
L 400.314832 187.999875 
L 400.314832 188.50425 
L 397.138582 196.748625 
L 395.902957 196.748625 
L 398.891707 188.997375 
L 394.689832 188.997375 
L 394.689832 187.999875 
z
" clip-path="url(#pb9ce677b16)" style="fill: #ffffff"/>
    <path d="M 336.214207 202.410375 
L 336.214207 205.69725 
L 337.702957 205.69725 
Q 338.529832 205.69725 338.979832 205.26975 
Q 339.431707 204.84225 339.431707 204.051 
Q 339.431707 203.265375 338.979832 202.837875 
Q 338.529832 202.410375 337.702957 202.410375 
L 336.214207 202.410375 
z
M 335.031082 201.43725 
L 337.702957 201.43725 
Q 339.174832 201.43725 339.926707 202.102875 
Q 340.680457 202.7685 340.680457 204.051 
Q 340.680457 205.346625 339.926707 206.0085 
Q 339.174832 206.670375 337.702957 206.670375 
L 336.214207 206.670375 
L 336.214207 210.186 
L 335.031082 210.186 
L 335.031082 201.43725 
z
M 345.813035 204.630375 
Q 345.63116 204.525375 345.41741 204.476625 
Q 345.20366 204.426 344.946785 204.426 
Q 344.031785 204.426 343.54241 205.020375 
Q 343.053035 205.61475 343.053035 206.7285 
L 343.053035 210.186 
L 341.969285 210.186 
L 341.969285 203.6235 
L 343.053035 203.6235 
L 343.053035 204.6435 
Q 343.394285 204.045375 343.938035 203.756625 
Q 344.48366 203.466 345.26366 203.466 
Q 345.374285 203.466 345.509285 203.481 
Q 345.644285 203.494125 345.80741 203.524125 
L 345.813035 204.630375 
z
M 349.216629 204.379125 
Q 348.350379 204.379125 347.846004 205.056 
Q 347.341629 205.732875 347.341629 206.910375 
Q 347.341629 208.087875 347.842254 208.76475 
Q 348.344754 209.441625 349.216629 209.441625 
Q 350.079129 209.441625 350.581629 208.762875 
Q 351.086004 208.08225 351.086004 206.910375 
Q 351.086004 205.744125 350.581629 205.061625 
Q 350.079129 204.379125 349.216629 204.379125 
z
M 349.216629 203.466 
Q 350.622879 203.466 351.425379 204.381 
Q 352.229754 205.294125 352.229754 206.910375 
Q 352.229754 208.521 351.425379 209.43975 
Q 350.622879 210.356625 349.216629 210.356625 
Q 347.804754 210.356625 347.004129 209.43975 
Q 346.205379 208.521 346.205379 206.910375 
Q 346.205379 205.294125 347.004129 204.381 
Q 347.804754 203.466 349.216629 203.466 
z
M 355.082801 201.75975 
L 355.082801 203.6235 
L 357.302801 203.6235 
L 357.302801 204.461625 
L 355.082801 204.461625 
L 355.082801 208.024125 
Q 355.082801 208.826625 355.302176 209.055375 
Q 355.521551 209.284125 356.196551 209.284125 
L 357.302801 209.284125 
L 357.302801 210.186 
L 356.196551 210.186 
Q 354.947801 210.186 354.473426 209.721 
Q 353.999051 209.254125 353.999051 208.024125 
L 353.999051 204.461625 
L 353.207801 204.461625 
L 353.207801 203.6235 
L 353.999051 203.6235 
L 353.999051 201.75975 
L 355.082801 201.75975 
z
M 364.334754 206.63475 
L 364.334754 207.161625 
L 359.377254 207.161625 
Q 359.448504 208.275375 360.048504 208.8585 
Q 360.648504 209.441625 361.721004 209.441625 
Q 362.341629 209.441625 362.924754 209.28975 
Q 363.507879 209.137875 364.083504 208.83225 
L 364.083504 209.85225 
Q 363.502254 210.097875 362.892879 210.22725 
Q 362.283504 210.356625 361.657254 210.356625 
Q 360.086004 210.356625 359.169129 209.4435 
Q 358.252254 208.5285 358.252254 206.9685 
Q 358.252254 205.357875 359.122254 204.412875 
Q 359.992254 203.466 361.469754 203.466 
Q 362.793504 203.466 363.564129 204.319125 
Q 364.334754 205.170375 364.334754 206.63475 
z
M 363.256629 206.317875 
Q 363.245379 205.43475 362.761629 204.907875 
Q 362.277879 204.379125 361.481004 204.379125 
Q 360.579129 204.379125 360.037254 204.889125 
Q 359.495379 205.399125 359.412879 206.325375 
L 363.256629 206.317875 
z
M 366.103817 203.6235 
L 367.181942 203.6235 
L 367.181942 210.186 
L 366.103817 210.186 
L 366.103817 203.6235 
z
M 366.103817 201.067875 
L 367.181942 201.067875 
L 367.181942 202.43475 
L 366.103817 202.43475 
L 366.103817 201.067875 
z
M 374.894051 206.224125 
L 374.894051 210.186 
L 373.815926 210.186 
L 373.815926 206.25975 
Q 373.815926 205.327875 373.452176 204.866625 
Q 373.088426 204.4035 372.362801 204.4035 
Q 371.489051 204.4035 370.984676 204.960375 
Q 370.480301 205.515375 370.480301 206.47725 
L 370.480301 210.186 
L 369.396551 210.186 
L 369.396551 203.6235 
L 370.480301 203.6235 
L 370.480301 204.6435 
Q 370.868426 204.051 371.391551 203.7585 
Q 371.916551 203.466 372.602801 203.466 
Q 373.733426 203.466 374.312801 204.165375 
Q 374.894051 204.86475 374.894051 206.224125 
z
" clip-path="url(#pb9ce677b16)" style="fill: #ffffff; stroke: #000000; stroke-width: 2"/>
    <path d="M 336.214207 202.410375 
L 336.214207 205.69725 
L 337.702957 205.69725 
Q 338.529832 205.69725 338.979832 205.26975 
Q 339.431707 204.84225 339.431707 204.051 
Q 339.431707 203.265375 338.979832 202.837875 
Q 338.529832 202.410375 337.702957 202.410375 
L 336.214207 202.410375 
z
M 335.031082 201.43725 
L 337.702957 201.43725 
Q 339.174832 201.43725 339.926707 202.102875 
Q 340.680457 202.7685 340.680457 204.051 
Q 340.680457 205.346625 339.926707 206.0085 
Q 339.174832 206.670375 337.702957 206.670375 
L 336.214207 206.670375 
L 336.214207 210.186 
L 335.031082 210.186 
L 335.031082 201.43725 
z
M 345.813035 204.630375 
Q 345.63116 204.525375 345.41741 204.476625 
Q 345.20366 204.426 344.946785 204.426 
Q 344.031785 204.426 343.54241 205.020375 
Q 343.053035 205.61475 343.053035 206.7285 
L 343.053035 210.186 
L 341.969285 210.186 
L 341.969285 203.6235 
L 343.053035 203.6235 
L 343.053035 204.6435 
Q 343.394285 204.045375 343.938035 203.756625 
Q 344.48366 203.466 345.26366 203.466 
Q 345.374285 203.466 345.509285 203.481 
Q 345.644285 203.494125 345.80741 203.524125 
L 345.813035 204.630375 
z
M 349.216629 204.379125 
Q 348.350379 204.379125 347.846004 205.056 
Q 347.341629 205.732875 347.341629 206.910375 
Q 347.341629 208.087875 347.842254 208.76475 
Q 348.344754 209.441625 349.216629 209.441625 
Q 350.079129 209.441625 350.581629 208.762875 
Q 351.086004 208.08225 351.086004 206.910375 
Q 351.086004 205.744125 350.581629 205.061625 
Q 350.079129 204.379125 349.216629 204.379125 
z
M 349.216629 203.466 
Q 350.622879 203.466 351.425379 204.381 
Q 352.229754 205.294125 352.229754 206.910375 
Q 352.229754 208.521 351.425379 209.43975 
Q 350.622879 210.356625 349.216629 210.356625 
Q 347.804754 210.356625 347.004129 209.43975 
Q 346.205379 208.521 346.205379 206.910375 
Q 346.205379 205.294125 347.004129 204.381 
Q 347.804754 203.466 349.216629 203.466 
z
M 355.082801 201.75975 
L 355.082801 203.6235 
L 357.302801 203.6235 
L 357.302801 204.461625 
L 355.082801 204.461625 
L 355.082801 208.024125 
Q 355.082801 208.826625 355.302176 209.055375 
Q 355.521551 209.284125 356.196551 209.284125 
L 357.302801 209.284125 
L 357.302801 210.186 
L 356.196551 210.186 
Q 354.947801 210.186 354.473426 209.721 
Q 353.999051 209.254125 353.999051 208.024125 
L 353.999051 204.461625 
L 353.207801 204.461625 
L 353.207801 203.6235 
L 353.999051 203.6235 
L 353.999051 201.75975 
L 355.082801 201.75975 
z
M 364.334754 206.63475 
L 364.334754 207.161625 
L 359.377254 207.161625 
Q 359.448504 208.275375 360.048504 208.8585 
Q 360.648504 209.441625 361.721004 209.441625 
Q 362.341629 209.441625 362.924754 209.28975 
Q 363.507879 209.137875 364.083504 208.83225 
L 364.083504 209.85225 
Q 363.502254 210.097875 362.892879 210.22725 
Q 362.283504 210.356625 361.657254 210.356625 
Q 360.086004 210.356625 359.169129 209.4435 
Q 358.252254 208.5285 358.252254 206.9685 
Q 358.252254 205.357875 359.122254 204.412875 
Q 359.992254 203.466 361.469754 203.466 
Q 362.793504 203.466 363.564129 204.319125 
Q 364.334754 205.170375 364.334754 206.63475 
z
M 363.256629 206.317875 
Q 363.245379 205.43475 362.761629 204.907875 
Q 362.277879 204.379125 361.481004 204.379125 
Q 360.579129 204.379125 360.037254 204.889125 
Q 359.495379 205.399125 359.412879 206.325375 
L 363.256629 206.317875 
z
M 366.103817 203.6235 
L 367.181942 203.6235 
L 367.181942 210.186 
L 366.103817 210.186 
L 366.103817 203.6235 
z
M 366.103817 201.067875 
L 367.181942 201.067875 
L 367.181942 202.43475 
L 366.103817 202.43475 
L 366.103817 201.067875 
z
M 374.894051 206.224125 
L 374.894051 210.186 
L 373.815926 210.186 
L 373.815926 206.25975 
Q 373.815926 205.327875 373.452176 204.866625 
Q 373.088426 204.4035 372.362801 204.4035 
Q 371.489051 204.4035 370.984676 204.960375 
Q 370.480301 205.515375 370.480301 206.47725 
L 370.480301 210.186 
L 369.396551 210.186 
L 369.396551 203.6235 
L 370.480301 203.6235 
L 370.480301 204.6435 
Q 370.868426 204.051 371.391551 203.7585 
Q 371.916551 203.466 372.602801 203.466 
Q 373.733426 203.466 374.312801 204.165375 
Q 374.894051 204.86475 374.894051 206.224125 
z
" clip-path="url(#pb9ce677b16)" style="fill: #ffffff"/>
   </g>
   <g id="text_6">
    <g clip-path="url(#pb9ce677b16)">
     <!-- fomepizole -->
     <g transform="translate(71.990602 169.873875)scale(0.12 -0.12)">
      <defs>
       <path id="DejaVuSans-6d" d="M 3328 2828 
Q 3544 3216 3844 3400 
Q 4144 3584 4550 3584 
Q 5097 3584 5394 3201 
Q 5691 2819 5691 2113 
L 5691 0 
L 5113 0 
L 5113 2094 
Q 5113 2597 4934 2840 
Q 4756 3084 4391 3084 
Q 3944 3084 3684 2787 
Q 3425 2491 3425 1978 
L 3425 0 
L 2847 0 
L 2847 2094 
Q 2847 2600 2669 2842 
Q 2491 3084 2119 3084 
Q 1678 3084 1418 2786 
Q 1159 2488 1159 1978 
L 1159 0 
L 581 0 
L 581 3500 
L 1159 3500 
L 1159 2956 
Q 1356 3278 1631 3431 
Q 1906 3584 2284 3584 
Q 2666 3584 2933 3390 
Q 3200 3197 3328 2828 
z
" transform="scale(0.015625)"/>
       <path id="DejaVuSans-7a" d="M 353 3500 
L 3084 3500 
L 3084 2975 
L 922 459 
L 3084 459 
L 3084 0 
L 275 0 
L 275 525 
L 2438 3041 
L 353 3041 
L 353 3500 
z
" transform="scale(0.015625)"/>
       <path id="DejaVuSans-6c" d="M 603 4863 
L 1178 4863 
L 1178 0 
L 603 0 
L 603 4863 
z
" transform="scale(0.015625)"/>
      </defs>
      <use xlink:href="#DejaVuSans-66"/>
      <use xlink:href="#DejaVuSans-6f" x="35.205078"/>
      <use xlink:href="#DejaVuSans-6d" x="96.386719"/>
      <use xlink:href="#DejaVuSans-65" x="193.798828"/>
      <use xlink:href="#DejaVuSans-70" x="255.322266"/>
      <use xlink:href="#DejaVuSans-69" x="318.798828"/>
      <use xlink:href="#DejaVuSans-7a" x="346.582031"/>
      <use xlink:href="#DejaVuSans-6f" x="399.072266"/>
      <use xlink:href="#DejaVuSans-6c" x="460.253906"/>
      <use xlink:href="#DejaVuSans-65" x="488.037109"/>
     </g>
    </g>
    <g clip-path="url(#pb9ce677b16)">
     <!-- MESH:D000077604 -->
     <g transform="translate(46.677164 183.31125)scale(0.12 -0.12)">
      <defs>
       <path id="DejaVuSans-4d" d="M 628 4666 
L 1569 4666 
L 2759 1491 
L 3956 4666 
L 4897 4666 
L 4897 0 
L 4281 0 
L 4281 4097 
L 3078 897 
L 2444 897 
L 1241 4097 
L 1241 0 
L 628 0 
L 628 4666 
z
" transform="scale(0.015625)"/>
       <path id="DejaVuSans-45" d="M 628 4666 
L 3578 4666 
L 3578 4134 
L 1259 4134 
L 1259 2753 
L 3481 2753 
L 3481 2222 
L 1259 2222 
L 1259 531 
L 3634 531 
L 3634 0 
L 628 0 
L 628 4666 
z
" transform="scale(0.015625)"/>
       <path id="DejaVuSans-53" d="M 3425 4513 
L 3425 3897 
Q 3066 4069 2747 4153 
Q 2428 4238 2131 4238 
Q 1616 4238 1336 4038 
Q 1056 3838 1056 3469 
Q 1056 3159 1242 3001 
Q 1428 2844 1947 2747 
L 2328 2669 
Q 3034 2534 3370 2195 
Q 3706 1856 3706 1288 
Q 3706 609 3251 259 
Q 2797 -91 1919 -91 
Q 1588 -91 1214 -16 
Q 841 59 441 206 
L 441 856 
Q 825 641 1194 531 
Q 1563 422 1919 422 
Q 2459 422 2753 634 
Q 3047 847 3047 1241 
Q 3047 1584 2836 1778 
Q 2625 1972 2144 2069 
L 1759 2144 
Q 1053 2284 737 2584 
Q 422 2884 422 3419 
Q 422 4038 858 4394 
Q 1294 4750 2059 4750 
Q 2388 4750 2728 4690 
Q 3069 4631 3425 4513 
z
" transform="scale(0.015625)"/>
       <path id="DejaVuSans-48" d="M 628 4666 
L 1259 4666 
L 1259 2753 
L 3553 2753 
L 3553 4666 
L 4184 4666 
L 4184 0 
L 3553 0 
L 3553 2222 
L 1259 2222 
L 1259 0 
L 628 0 
L 628 4666 
z
" transform="scale(0.015625)"/>
       <path id="DejaVuSans-3a" d="M 750 794 
L 1409 794 
L 1409 0 
L 750 0 
L 750 794 
z
M 750 3309 
L 1409 3309 
L 1409 2516 
L 750 2516 
L 750 3309 
z
" transform="scale(0.015625)"/>
       <path id="DejaVuSans-44" d="M 1259 4147 
L 1259 519 
L 2022 519 
Q 2988 519 3436 956 
Q 3884 1394 3884 2338 
Q 3884 3275 3436 3711 
Q 2988 4147 2022 4147 
L 1259 4147 
z
M 628 4666 
L 1925 4666 
Q 3281 4666 3915 4102 
Q 4550 3538 4550 2338 
Q 4550 1131 3912 565 
Q 3275 0 1925 0 
L 628 0 
L 628 4666 
z
" transform="scale(0.015625)"/>
       <path id="DejaVuSans-30" d="M 2034 4250 
Q 1547 4250 1301 3770 
Q 1056 3291 1056 2328 
Q 1056 1369 1301 889 
Q 1547 409 2034 409 
Q 2525 409 2770 889 
Q 3016 1369 3016 2328 
Q 3016 3291 2770 3770 
Q 2525 4250 2034 4250 
z
M 2034 4750 
Q 2819 4750 3233 4129 
Q 3647 3509 3647 2328 
Q 3647 1150 3233 529 
Q 2819 -91 2034 -91 
Q 1250 -91 836 529 
Q 422 1150 422 2328 
Q 422 3509 836 4129 
Q 1250 4750 2034 4750 
z
" transform="scale(0.015625)"/>
       <path id="DejaVuSans-37" d="M 525 4666 
L 3525 4666 
L 3525 4397 
L 1831 0 
L 1172 0 
L 2766 4134 
L 525 4134 
L 525 4666 
z
" transform="scale(0.015625)"/>
       <path id="DejaVuSans-36" d="M 2113 2584 
Q 1688 2584 1439 2293 
Q 1191 2003 1191 1497 
Q 1191 994 1439 701 
Q 1688 409 2113 409 
Q 2538 409 2786 701 
Q 3034 994 3034 1497 
Q 3034 2003 2786 2293 
Q 2538 2584 2113 2584 
z
M 3366 4563 
L 3366 3988 
Q 3128 4100 2886 4159 
Q 2644 4219 2406 4219 
Q 1781 4219 1451 3797 
Q 1122 3375 1075 2522 
Q 1259 2794 1537 2939 
Q 1816 3084 2150 3084 
Q 2853 3084 3261 2657 
Q 3669 2231 3669 1497 
Q 3669 778 3244 343 
Q 2819 -91 2113 -91 
Q 1303 -91 875 529 
Q 447 1150 447 2328 
Q 447 3434 972 4092 
Q 1497 4750 2381 4750 
Q 2619 4750 2861 4703 
Q 3103 4656 3366 4563 
z
" transform="scale(0.015625)"/>
       <path id="DejaVuSans-34" d="M 2419 4116 
L 825 1625 
L 2419 1625 
L 2419 4116 
z
M 2253 4666 
L 3047 4666 
L 3047 1625 
L 3713 1625 
L 3713 1100 
L 3047 1100 
L 3047 0 
L 2419 0 
L 2419 1100 
L 313 1100 
L 313 1709 
L 2253 4666 
z
" transform="scale(0.015625)"/>
      </defs>
      <use xlink:href="#DejaVuSans-4d"/>
      <use xlink:href="#DejaVuSans-45" x="86.279297"/>
      <use xlink:href="#DejaVuSans-53" x="149.462891"/>
      <use xlink:href="#DejaVuSans-48" x="212.939453"/>
      <use xlink:href="#DejaVuSans-3a" x="288.134766"/>
      <use xlink:href="#DejaVuSans-44" x="321.826172"/>
      <use xlink:href="#DejaVuSans-30" x="398.828125"/>
      <use xlink:href="#DejaVuSans-30" x="462.451172"/>
      <use xlink:href="#DejaVuSans-30" x="526.074219"/>
      <use xlink:href="#DejaVuSans-30" x="589.697266"/>
      <use xlink:href="#DejaVuSans-37" x="653.320312"/>
      <use xlink:href="#DejaVuSans-37" x="716.943359"/>
      <use xlink:href="#DejaVuSans-36" x="780.566406"/>
      <use xlink:href="#DejaVuSans-30" x="844.189453"/>
      <use xlink:href="#DejaVuSans-34" x="907.8125"/>
     </g>
    </g>
    <g clip-path="url(#pb9ce677b16)">
     <!-- Drug -->
     <g transform="translate(90.267164 196.748625)scale(0.12 -0.12)">
      <defs>
       <path id="DejaVuSans-67" d="M 2906 1791 
Q 2906 2416 2648 2759 
Q 2391 3103 1925 3103 
Q 1463 3103 1205 2759 
Q 947 2416 947 1791 
Q 947 1169 1205 825 
Q 1463 481 1925 481 
Q 2391 481 2648 825 
Q 2906 1169 2906 1791 
z
M 3481 434 
Q 3481 -459 3084 -895 
Q 2688 -1331 1869 -1331 
Q 1566 -1331 1297 -1286 
Q 1028 -1241 775 -1147 
L 775 -588 
Q 1028 -725 1275 -790 
Q 1522 -856 1778 -856 
Q 2344 -856 2625 -561 
Q 2906 -266 2906 331 
L 2906 616 
Q 2728 306 2450 153 
Q 2172 0 1784 0 
Q 1141 0 747 490 
Q 353 981 353 1791 
Q 353 2603 747 3093 
Q 1141 3584 1784 3584 
Q 2172 3584 2450 3431 
Q 2728 3278 2906 2969 
L 2906 3500 
L 3481 3500 
L 3481 434 
z
" transform="scale(0.015625)"/>
      </defs>
      <use xlink:href="#DejaVuSans-44"/>
      <use xlink:href="#DejaVuSans-72" x="77.001953"/>
      <use xlink:href="#DejaVuSans-75" x="118.115234"/>
      <use xlink:href="#DejaVuSans-67" x="181.494141"/>
     </g>
    </g>
   </g>
   <g id="text_7">
    <g clip-path="url(#pb9ce677b16)">
     <!-- Ethanol -->
     <g transform="translate(582.036562 156.4365)scale(0.12 -0.12)">
      <use xlink:href="#DejaVuSans-45"/>
      <use xlink:href="#DejaVuSans-74" x="63.183594"/>
      <use xlink:href="#DejaVuSans-68" x="102.392578"/>
      <use xlink:href="#DejaVuSans-61" x="165.771484"/>
      <use xlink:href="#DejaVuSans-6e" x="227.050781"/>
      <use xlink:href="#DejaVuSans-6f" x="290.429688"/>
      <use xlink:href="#DejaVuSans-6c" x="351.611328"/>
     </g>
    </g>
    <g clip-path="url(#pb9ce677b16)">
     <!-- oxidation -->
     <g transform="translate(577.119375 169.873875)scale(0.12 -0.12)">
      <defs>
       <path id="DejaVuSans-78" d="M 3513 3500 
L 2247 1797 
L 3578 0 
L 2900 0 
L 1881 1375 
L 863 0 
L 184 0 
L 1544 1831 
L 300 3500 
L 978 3500 
L 1906 2253 
L 2834 3500 
L 3513 3500 
z
" transform="scale(0.015625)"/>
      </defs>
      <use xlink:href="#DejaVuSans-6f"/>
      <use xlink:href="#DejaVuSans-78" x="58.056641"/>
      <use xlink:href="#DejaVuSans-69" x="117.236328"/>
      <use xlink:href="#DejaVuSans-64" x="145.019531"/>
      <use xlink:href="#DejaVuSans-61" x="208.496094"/>
      <use xlink:href="#DejaVuSans-74" x="269.775391"/>
      <use xlink:href="#DejaVuSans-69" x="308.984375"/>
      <use xlink:href="#DejaVuSans-6f" x="336.767578"/>
      <use xlink:href="#DejaVuSans-6e" x="397.949219"/>
     </g>
    </g>
    <g clip-path="url(#pb9ce677b16)">
     <!-- REACT:R-HSA- -->
     <g transform="translate(562.963125 183.31125)scale(0.12 -0.12)">
      <defs>
       <path id="DejaVuSans-52" d="M 2841 2188 
Q 3044 2119 3236 1894 
Q 3428 1669 3622 1275 
L 4263 0 
L 3584 0 
L 2988 1197 
Q 2756 1666 2539 1819 
Q 2322 1972 1947 1972 
L 1259 1972 
L 1259 0 
L 628 0 
L 628 4666 
L 2053 4666 
Q 2853 4666 3247 4331 
Q 3641 3997 3641 3322 
Q 3641 2881 3436 2590 
Q 3231 2300 2841 2188 
z
M 1259 4147 
L 1259 2491 
L 2053 2491 
Q 2509 2491 2742 2702 
Q 2975 2913 2975 3322 
Q 2975 3731 2742 3939 
Q 2509 4147 2053 4147 
L 1259 4147 
z
" transform="scale(0.015625)"/>
       <path id="DejaVuSans-41" d="M 2188 4044 
L 1331 1722 
L 3047 1722 
L 2188 4044 
z
M 1831 4666 
L 2547 4666 
L 4325 0 
L 3669 0 
L 3244 1197 
L 1141 1197 
L 716 0 
L 50 0 
L 1831 4666 
z
" transform="scale(0.015625)"/>
       <path id="DejaVuSans-43" d="M 4122 4306 
L 4122 3641 
Q 3803 3938 3442 4084 
Q 3081 4231 2675 4231 
Q 1875 4231 1450 3742 
Q 1025 3253 1025 2328 
Q 1025 1406 1450 917 
Q 1875 428 2675 428 
Q 3081 428 3442 575 
Q 3803 722 4122 1019 
L 4122 359 
Q 3791 134 3420 21 
Q 3050 -91 2638 -91 
Q 1578 -91 968 557 
Q 359 1206 359 2328 
Q 359 3453 968 4101 
Q 1578 4750 2638 4750 
Q 3056 4750 3426 4639 
Q 3797 4528 4122 4306 
z
" transform="scale(0.015625)"/>
       <path id="DejaVuSans-54" d="M -19 4666 
L 3928 4666 
L 3928 4134 
L 2272 4134 
L 2272 0 
L 1638 0 
L 1638 4134 
L -19 4134 
L -19 4666 
z
" transform="scale(0.015625)"/>
       <path id="DejaVuSans-2d" d="M 313 2009 
L 1997 2009 
L 1997 1497 
L 313 1497 
L 313 2009 
z
" transform="scale(0.015625)"/>
      </defs>
      <use xlink:href="#DejaVuSans-52"/>
      <use xlink:href="#DejaVuSans-45" x="69.482422"/>
      <use xlink:href="#DejaVuSans-41" x="132.666016"/>
      <use xlink:href="#DejaVuSans-43" x="199.324219"/>
      <use xlink:href="#DejaVuSans-54" x="269.148438"/>
      <use xlink:href="#DejaVuSans-3a" x="319.232422"/>
      <use xlink:href="#DejaVuSans-52" x="352.923828"/>
      <use xlink:href="#DejaVuSans-2d" x="418.40625"/>
      <use xlink:href="#DejaVuSans-48" x="454.490234"/>
      <use xlink:href="#DejaVuSans-53" x="529.685547"/>
      <use xlink:href="#DejaVuSans-41" x="595.037109"/>
      <use xlink:href="#DejaVuSans-2d" x="661.195312"/>
     </g>
    </g>
    <g clip-path="url(#pb9ce677b16)">
     <!-- 71384 -->
     <g transform="translate(585.7125 196.748625)scale(0.12 -0.12)">
      <defs>
       <path id="DejaVuSans-31" d="M 794 531 
L 1825 531 
L 1825 4091 
L 703 3866 
L 703 4441 
L 1819 4666 
L 2450 4666 
L 2450 531 
L 3481 531 
L 3481 0 
L 794 0 
L 794 531 
z
" transform="scale(0.015625)"/>
       <path id="DejaVuSans-33" d="M 2597 2516 
Q 3050 2419 3304 2112 
Q 3559 1806 3559 1356 
Q 3559 666 3084 287 
Q 2609 -91 1734 -91 
Q 1441 -91 1130 -33 
Q 819 25 488 141 
L 488 750 
Q 750 597 1062 519 
Q 1375 441 1716 441 
Q 2309 441 2620 675 
Q 2931 909 2931 1356 
Q 2931 1769 2642 2001 
Q 2353 2234 1838 2234 
L 1294 2234 
L 1294 2753 
L 1863 2753 
Q 2328 2753 2575 2939 
Q 2822 3125 2822 3475 
Q 2822 3834 2567 4026 
Q 2313 4219 1838 4219 
Q 1578 4219 1281 4162 
Q 984 4106 628 3988 
L 628 4550 
Q 988 4650 1302 4700 
Q 1616 4750 1894 4750 
Q 2613 4750 3031 4423 
Q 3450 4097 3450 3541 
Q 3450 3153 3228 2886 
Q 3006 2619 2597 2516 
z
" transform="scale(0.015625)"/>
       <path id="DejaVuSans-38" d="M 2034 2216 
Q 1584 2216 1326 1975 
Q 1069 1734 1069 1313 
Q 1069 891 1326 650 
Q 1584 409 2034 409 
Q 2484 409 2743 651 
Q 3003 894 3003 1313 
Q 3003 1734 2745 1975 
Q 2488 2216 2034 2216 
z
M 1403 2484 
Q 997 2584 770 2862 
Q 544 3141 544 3541 
Q 544 4100 942 4425 
Q 1341 4750 2034 4750 
Q 2731 4750 3128 4425 
Q 3525 4100 3525 3541 
Q 3525 3141 3298 2862 
Q 3072 2584 2669 2484 
Q 3125 2378 3379 2068 
Q 3634 1759 3634 1313 
Q 3634 634 3220 271 
Q 2806 -91 2034 -91 
Q 1263 -91 848 271 
Q 434 634 434 1313 
Q 434 1759 690 2068 
Q 947 2378 1403 2484 
z
M 1172 3481 
Q 1172 3119 1398 2916 
Q 1625 2713 2034 2713 
Q 2441 2713 2670 2916 
Q 2900 3119 2900 3481 
Q 2900 3844 2670 4047 
Q 2441 4250 2034 4250 
Q 1625 4250 1398 4047 
Q 1172 3844 1172 3481 
z
" transform="scale(0.015625)"/>
      </defs>
      <use xlink:href="#DejaVuSans-37"/>
      <use xlink:href="#DejaVuSans-31" x="63.623047"/>
      <use xlink:href="#DejaVuSans-33" x="127.246094"/>
      <use xlink:href="#DejaVuSans-38" x="190.869141"/>
      <use xlink:href="#DejaVuSans-34" x="254.492188"/>
     </g>
    </g>
    <g clip-path="url(#pb9ce677b16)">
     <!-- Pathway -->
     <g transform="translate(579.485625 210.186)scale(0.12 -0.12)">
      <defs>
       <path id="DejaVuSans-50" d="M 1259 4147 
L 1259 2394 
L 2053 2394 
Q 2494 2394 2734 2622 
Q 2975 2850 2975 3272 
Q 2975 3691 2734 3919 
Q 2494 4147 2053 4147 
L 1259 4147 
z
M 628 4666 
L 2053 4666 
Q 2838 4666 3239 4311 
Q 3641 3956 3641 3272 
Q 3641 2581 3239 2228 
Q 2838 1875 2053 1875 
L 1259 1875 
L 1259 0 
L 628 0 
L 628 4666 
z
" transform="scale(0.015625)"/>
       <path id="DejaVuSans-77" d="M 269 3500 
L 844 3500 
L 1563 769 
L 2278 3500 
L 2956 3500 
L 3675 769 
L 4391 3500 
L 4966 3500 
L 4050 0 
L 3372 0 
L 2619 2869 
L 1863 0 
L 1184 0 
L 269 3500 
z
" transform="scale(0.015625)"/>
      </defs>
      <use xlink:href="#DejaVuSans-50"/>
      <use xlink:href="#DejaVuSans-61" x="55.802734"/>
      <use xlink:href="#DejaVuSans-74" x="117.082031"/>
      <use xlink:href="#DejaVuSans-68" x="156.291016"/>
      <use xlink:href="#DejaVuSans-77" x="219.669922"/>
      <use xlink:href="#DejaVuSans-61" x="301.457031"/>
      <use xlink:href="#DejaVuSans-79" x="362.736328"/>
     </g>
    </g>
   </g>
   <g id="text_8">
    <g clip-path="url(#pb9ce677b16)">
     <!-- formic acid -->
     <g transform="translate(821.403293 169.873875)scale(0.12 -0.12)">
      <use xlink:href="#DejaVuSans-66"/>
      <use xlink:href="#DejaVuSans-6f" x="35.205078"/>
      <use xlink:href="#DejaVuSans-72" x="96.386719"/>
      <use xlink:href="#DejaVuSans-6d" x="135.75"/>
      <use xlink:href="#DejaVuSans-69" x="233.162109"/>
      <use xlink:href="#DejaVuSans-63" x="260.945312"/>
      <use xlink:href="#DejaVuSans-20" x="315.925781"/>
      <use xlink:href="#DejaVuSans-61" x="347.712891"/>
      <use xlink:href="#DejaVuSans-63" x="408.992188"/>
      <use xlink:href="#DejaVuSans-69" x="463.972656"/>
      <use xlink:href="#DejaVuSans-64" x="491.755859"/>
     </g>
    </g>
    <g clip-path="url(#pb9ce677b16)">
     <!-- MESH:C030544 -->
     <g transform="translate(808.312043 183.31125)scale(0.12 -0.12)">
      <defs>
       <path id="DejaVuSans-35" d="M 691 4666 
L 3169 4666 
L 3169 4134 
L 1269 4134 
L 1269 2991 
Q 1406 3038 1543 3061 
Q 1681 3084 1819 3084 
Q 2600 3084 3056 2656 
Q 3513 2228 3513 1497 
Q 3513 744 3044 326 
Q 2575 -91 1722 -91 
Q 1428 -91 1123 -41 
Q 819 9 494 109 
L 494 744 
Q 775 591 1075 516 
Q 1375 441 1709 441 
Q 2250 441 2565 725 
Q 2881 1009 2881 1497 
Q 2881 1984 2565 2268 
Q 2250 2553 1709 2553 
Q 1456 2553 1204 2497 
Q 953 2441 691 2322 
L 691 4666 
z
" transform="scale(0.015625)"/>
      </defs>
      <use xlink:href="#DejaVuSans-4d"/>
      <use xlink:href="#DejaVuSans-45" x="86.279297"/>
      <use xlink:href="#DejaVuSans-53" x="149.462891"/>
      <use xlink:href="#DejaVuSans-48" x="212.939453"/>
      <use xlink:href="#DejaVuSans-3a" x="288.134766"/>
      <use xlink:href="#DejaVuSans-43" x="321.826172"/>
      <use xlink:href="#DejaVuSans-30" x="391.650391"/>
      <use xlink:href="#DejaVuSans-33" x="455.273438"/>
      <use xlink:href="#DejaVuSans-30" x="518.896484"/>
      <use xlink:href="#DejaVuSans-35" x="582.519531"/>
      <use xlink:href="#DejaVuSans-34" x="646.142578"/>
      <use xlink:href="#DejaVuSans-34" x="709.765625"/>
     </g>
    </g>
    <g clip-path="url(#pb9ce677b16)">
     <!-- ChemicalSubstance -->
     <g transform="translate(795.51048 196.748625)scale(0.12 -0.12)">
      <defs>
       <path id="DejaVuSans-62" d="M 3116 1747 
Q 3116 2381 2855 2742 
Q 2594 3103 2138 3103 
Q 1681 3103 1420 2742 
Q 1159 2381 1159 1747 
Q 1159 1113 1420 752 
Q 1681 391 2138 391 
Q 2594 391 2855 752 
Q 3116 1113 3116 1747 
z
M 1159 2969 
Q 1341 3281 1617 3432 
Q 1894 3584 2278 3584 
Q 2916 3584 3314 3078 
Q 3713 2572 3713 1747 
Q 3713 922 3314 415 
Q 2916 -91 2278 -91 
Q 1894 -91 1617 61 
Q 1341 213 1159 525 
L 1159 0 
L 581 0 
L 581 4863 
L 1159 4863 
L 1159 2969 
z
" transform="scale(0.015625)"/>
      </defs>
      <use xlink:href="#DejaVuSans-43"/>
      <use xlink:href="#DejaVuSans-68" x="69.824219"/>
      <use xlink:href="#DejaVuSans-65" x="133.203125"/>
      <use xlink:href="#DejaVuSans-6d" x="194.726562"/>
      <use xlink:href="#DejaVuSans-69" x="292.138672"/>
      <use xlink:href="#DejaVuSans-63" x="319.921875"/>
      <use xlink:href="#DejaVuSans-61" x="374.902344"/>
      <use xlink:href="#DejaVuSans-6c" x="436.181641"/>
      <use xlink:href="#DejaVuSans-53" x="463.964844"/>
      <use xlink:href="#DejaVuSans-75" x="527.441406"/>
      <use xlink:href="#DejaVuSans-62" x="590.820312"/>
      <use xlink:href="#DejaVuSans-73" x="654.296875"/>
      <use xlink:href="#DejaVuSans-74" x="706.396484"/>
      <use xlink:href="#DejaVuSans-61" x="745.605469"/>
      <use xlink:href="#DejaVuSans-6e" x="806.884766"/>
      <use xlink:href="#DejaVuSans-63" x="870.263672"/>
      <use xlink:href="#DejaVuSans-65" x="925.244141"/>
     </g>
    </g>
   </g>
   <g id="text_9">
    <g clip-path="url(#pb9ce677b16)">
     <!-- Methanol -->
     <g transform="translate(1076.793773 163.155187)scale(0.12 -0.12)">
      <use xlink:href="#DejaVuSans-4d"/>
      <use xlink:href="#DejaVuSans-65" x="86.279297"/>
      <use xlink:href="#DejaVuSans-74" x="147.802734"/>
      <use xlink:href="#DejaVuSans-68" x="187.011719"/>
      <use xlink:href="#DejaVuSans-61" x="250.390625"/>
      <use xlink:href="#DejaVuSans-6e" x="311.669922"/>
      <use xlink:href="#DejaVuSans-6f" x="375.048828"/>
      <use xlink:href="#DejaVuSans-6c" x="436.230469"/>
     </g>
    </g>
    <g clip-path="url(#pb9ce677b16)">
     <!-- poisoning -->
     <g transform="translate(1075.609711 176.592562)scale(0.12 -0.12)">
      <use xlink:href="#DejaVuSans-70"/>
      <use xlink:href="#DejaVuSans-6f" x="63.476562"/>
      <use xlink:href="#DejaVuSans-69" x="124.658203"/>
      <use xlink:href="#DejaVuSans-73" x="152.441406"/>
      <use xlink:href="#DejaVuSans-6f" x="204.541016"/>
      <use xlink:href="#DejaVuSans-6e" x="265.722656"/>
      <use xlink:href="#DejaVuSans-69" x="329.101562"/>
      <use xlink:href="#DejaVuSans-6e" x="356.884766"/>
      <use xlink:href="#DejaVuSans-67" x="420.263672"/>
     </g>
    </g>
    <g clip-path="url(#pb9ce677b16)">
     <!-- MESH:D000138 -->
     <g transform="translate(1057.799086 190.029937)scale(0.12 -0.12)">
      <use xlink:href="#DejaVuSans-4d"/>
      <use xlink:href="#DejaVuSans-45" x="86.279297"/>
      <use xlink:href="#DejaVuSans-53" x="149.462891"/>
      <use xlink:href="#DejaVuSans-48" x="212.939453"/>
      <use xlink:href="#DejaVuSans-3a" x="288.134766"/>
      <use xlink:href="#DejaVuSans-44" x="321.826172"/>
      <use xlink:href="#DejaVuSans-30" x="398.828125"/>
      <use xlink:href="#DejaVuSans-30" x="462.451172"/>
      <use xlink:href="#DejaVuSans-30" x="526.074219"/>
      <use xlink:href="#DejaVuSans-31" x="589.697266"/>
      <use xlink:href="#DejaVuSans-33" x="653.320312"/>
      <use xlink:href="#DejaVuSans-38" x="716.943359"/>
     </g>
    </g>
    <g clip-path="url(#pb9ce677b16)">
     <!-- Disease -->
     <g transform="translate(1081.035961 203.467312)scale(0.12 -0.12)">
      <use xlink:href="#DejaVuSans-44"/>
      <use xlink:href="#DejaVuSans-69" x="77.001953"/>
      <use xlink:href="#DejaVuSans-73" x="104.785156"/>
      <use xlink:href="#DejaVuSans-65" x="156.884766"/>
      <use xlink:href="#DejaVuSans-61" x="218.408203"/>
      <use xlink:href="#DejaVuSans-73" x="279.6875"/>
      <use xlink:href="#DejaVuSans-65" x="331.787109"/>
     </g>
    </g>
   </g>
  </g>
 </g>
 <defs>
  <clipPath id="pb9ce677b16">
   <rect x="0" y="0" width="1209.6" height="360"/>
  </clipPath>
 </defs>
</svg>
