<?xml version="1.0" encoding="utf-8" standalone="no"?>
<!DOCTYPE svg PUBLIC "-//W3C//DTD SVG 1.1//EN"
  "http://www.w3.org/Graphics/SVG/1.1/DTD/svg11.dtd">
<svg xmlns:xlink="http://www.w3.org/1999/xlink" width="1209.6pt" height="360pt" viewBox="0 0 1209.6 360" xmlns="http://www.w3.org/2000/svg" version="1.1">
 <metadata>
  <rdf:RDF xmlns:dc="http://purl.org/dc/elements/1.1/" xmlns:cc="http://creativecommons.org/ns#" xmlns:rdf="http://www.w3.org/1999/02/22-rdf-syntax-ns#">
   <cc:Work>
    <dc:type rdf:resource="http://purl.org/dc/dcmitype/StillImage"/>
    <dc:date>2023-02-08T08:50:52.753025</dc:date>
    <dc:format>image/svg+xml</dc:format>
    <dc:creator>
     <cc:Agent>
      <dc:title>Matplotlib v3.5.1, https://matplotlib.org/</dc:title>
     </cc:Agent>
    </dc:creator>
   </cc:Work>
  </rdf:RDF>
 </metadata>
 <defs>
  <style type="text/css">*{stroke-linejoin: round; stroke-linecap: butt}</style>
 </defs>
 <g id="figure_1">
  <g id="patch_1">
   <path d="M 0 360 
L 1209.6 360 
L 1209.6 0 
L 0 0 
z
" style="fill: #ffffff"/>
  </g>
  <g id="axes_1">
   <g id="patch_2">
    <path d="M 157.403851 180 
Q 229.923128 180 299.088304 180 
" clip-path="url(#p8da153366a)" style="fill: none; stroke: #2ca02c; stroke-width: 3; stroke-linecap: round"/>
    <path d="M 295.088304 178 
L 299.088304 180 
L 295.088304 182 
L 295.088304 178 
z
" clip-path="url(#p8da153366a)" style="fill: #2ca02c; stroke: #2ca02c; stroke-width: 3; stroke-linecap: round"/>
   </g>
   <g id="patch_3">
    <path d="M 407.321206 180 
Q 479.840484 180 549.00566 180 
" clip-path="url(#p8da153366a)" style="fill: none; stroke: #2ca02c; stroke-width: 3; stroke-linecap: round"/>
    <path d="M 545.00566 178 
L 549.00566 180 
L 545.00566 182 
L 545.00566 178 
z
" clip-path="url(#p8da153366a)" style="fill: #2ca02c; stroke: #2ca02c; stroke-width: 3; stroke-linecap: round"/>
   </g>
   <g id="patch_4">
    <path d="M 657.238561 180 
Q 729.757839 180 798.923015 180 
" clip-path="url(#p8da153366a)" style="fill: none; stroke: #2ca02c; stroke-width: 3; stroke-linecap: round"/>
    <path d="M 794.923015 178 
L 798.923015 180 
L 794.923015 182 
L 794.923015 178 
z
" clip-path="url(#p8da153366a)" style="fill: #2ca02c; stroke: #2ca02c; stroke-width: 3; stroke-linecap: round"/>
   </g>
   <g id="patch_5">
    <path d="M 907.155917 180 
Q 979.675195 180 1048.840371 180 
" clip-path="url(#p8da153366a)" style="fill: none; stroke: #2ca02c; stroke-width: 3; stroke-linecap: round"/>
    <path d="M 1044.840371 178 
L 1048.840371 180 
L 1044.840371 182 
L 1044.840371 178 
z
" clip-path="url(#p8da153366a)" style="fill: #2ca02c; stroke: #2ca02c; stroke-width: 3; stroke-linecap: round"/>
   </g>
   <g id="text_1">
    <g id="patch_6">
     <path d="M 204.554436 193.437969 
L 255.293498 193.437969 
Q 258.293498 193.437969 258.293498 190.437969 
L 258.293498 169.562031 
Q 258.293498 166.562031 255.293498 166.562031 
L 204.554436 166.562031 
Q 201.554436 166.562031 201.554436 169.562031 
L 201.554436 190.437969 
Q 201.554436 193.437969 204.554436 193.437969 
z
" clip-path="url(#p8da153366a)" style="fill: #ffffff; stroke: #ffffff; stroke-linejoin: miter"/>
    </g>
    <g clip-path="url(#p8da153366a)">
     <!-- decreases -->
     <g transform="translate(204.554436 177.160469)scale(0.1 -0.1)">
      <defs>
       <path id="DejaVuSans-64" d="M 2906 2969 
L 2906 4863 
L 3481 4863 
L 3481 0 
L 2906 0 
L 2906 525 
Q 2725 213 2448 61 
Q 2172 -91 1784 -91 
Q 1150 -91 751 415 
Q 353 922 353 1747 
Q 353 2572 751 3078 
Q 1150 3584 1784 3584 
Q 2172 3584 2448 3432 
Q 2725 3281 2906 2969 
z
M 947 1747 
Q 947 1113 1208 752 
Q 1469 391 1925 391 
Q 2381 391 2643 752 
Q 2906 1113 2906 1747 
Q 2906 2381 2643 2742 
Q 2381 3103 1925 3103 
Q 1469 3103 1208 2742 
Q 947 2381 947 1747 
z
" transform="scale(0.015625)"/>
       <path id="DejaVuSans-65" d="M 3597 1894 
L 3597 1613 
L 953 1613 
Q 991 1019 1311 708 
Q 1631 397 2203 397 
Q 2534 397 2845 478 
Q 3156 559 3463 722 
L 3463 178 
Q 3153 47 2828 -22 
Q 2503 -91 2169 -91 
Q 1331 -91 842 396 
Q 353 884 353 1716 
Q 353 2575 817 3079 
Q 1281 3584 2069 3584 
Q 2775 3584 3186 3129 
Q 3597 2675 3597 1894 
z
M 3022 2063 
Q 3016 2534 2758 2815 
Q 2500 3097 2075 3097 
Q 1594 3097 1305 2825 
Q 1016 2553 972 2059 
L 3022 2063 
z
" transform="scale(0.015625)"/>
       <path id="DejaVuSans-63" d="M 3122 3366 
L 3122 2828 
Q 2878 2963 2633 3030 
Q 2388 3097 2138 3097 
Q 1578 3097 1268 2742 
Q 959 2388 959 1747 
Q 959 1106 1268 751 
Q 1578 397 2138 397 
Q 2388 397 2633 464 
Q 2878 531 3122 666 
L 3122 134 
Q 2881 22 2623 -34 
Q 2366 -91 2075 -91 
Q 1284 -91 818 406 
Q 353 903 353 1747 
Q 353 2603 823 3093 
Q 1294 3584 2113 3584 
Q 2378 3584 2631 3529 
Q 2884 3475 3122 3366 
z
" transform="scale(0.015625)"/>
       <path id="DejaVuSans-72" d="M 2631 2963 
Q 2534 3019 2420 3045 
Q 2306 3072 2169 3072 
Q 1681 3072 1420 2755 
Q 1159 2438 1159 1844 
L 1159 0 
L 581 0 
L 581 3500 
L 1159 3500 
L 1159 2956 
Q 1341 3275 1631 3429 
Q 1922 3584 2338 3584 
Q 2397 3584 2469 3576 
Q 2541 3569 2628 3553 
L 2631 2963 
z
" transform="scale(0.015625)"/>
       <path id="DejaVuSans-61" d="M 2194 1759 
Q 1497 1759 1228 1600 
Q 959 1441 959 1056 
Q 959 750 1161 570 
Q 1363 391 1709 391 
Q 2188 391 2477 730 
Q 2766 1069 2766 1631 
L 2766 1759 
L 2194 1759 
z
M 3341 1997 
L 3341 0 
L 2766 0 
L 2766 531 
Q 2569 213 2275 61 
Q 1981 -91 1556 -91 
Q 1019 -91 701 211 
Q 384 513 384 1019 
Q 384 1609 779 1909 
Q 1175 2209 1959 2209 
L 2766 2209 
L 2766 2266 
Q 2766 2663 2505 2880 
Q 2244 3097 1772 3097 
Q 1472 3097 1187 3025 
Q 903 2953 641 2809 
L 641 3341 
Q 956 3463 1253 3523 
Q 1550 3584 1831 3584 
Q 2591 3584 2966 3190 
Q 3341 2797 3341 1997 
z
" transform="scale(0.015625)"/>
       <path id="DejaVuSans-73" d="M 2834 3397 
L 2834 2853 
Q 2591 2978 2328 3040 
Q 2066 3103 1784 3103 
Q 1356 3103 1142 2972 
Q 928 2841 928 2578 
Q 928 2378 1081 2264 
Q 1234 2150 1697 2047 
L 1894 2003 
Q 2506 1872 2764 1633 
Q 3022 1394 3022 966 
Q 3022 478 2636 193 
Q 2250 -91 1575 -91 
Q 1294 -91 989 -36 
Q 684 19 347 128 
L 347 722 
Q 666 556 975 473 
Q 1284 391 1588 391 
Q 1994 391 2212 530 
Q 2431 669 2431 922 
Q 2431 1156 2273 1281 
Q 2116 1406 1581 1522 
L 1381 1569 
Q 847 1681 609 1914 
Q 372 2147 372 2553 
Q 372 3047 722 3315 
Q 1072 3584 1716 3584 
Q 2034 3584 2315 3537 
Q 2597 3491 2834 3397 
z
" transform="scale(0.015625)"/>
      </defs>
      <use xlink:href="#DejaVuSans-64"/>
      <use xlink:href="#DejaVuSans-65" x="63.476562"/>
      <use xlink:href="#DejaVuSans-63" x="125"/>
      <use xlink:href="#DejaVuSans-72" x="179.980469"/>
      <use xlink:href="#DejaVuSans-65" x="218.84375"/>
      <use xlink:href="#DejaVuSans-61" x="280.367188"/>
      <use xlink:href="#DejaVuSans-73" x="341.646484"/>
      <use xlink:href="#DejaVuSans-65" x="393.746094"/>
      <use xlink:href="#DejaVuSans-73" x="455.269531"/>
     </g>
    </g>
    <g clip-path="url(#p8da153366a)">
     <!-- activity of -->
     <g transform="translate(205.084904 188.358281)scale(0.1 -0.1)">
      <defs>
       <path id="DejaVuSans-74" d="M 1172 4494 
L 1172 3500 
L 2356 3500 
L 2356 3053 
L 1172 3053 
L 1172 1153 
Q 1172 725 1289 603 
Q 1406 481 1766 481 
L 2356 481 
L 2356 0 
L 1766 0 
Q 1100 0 847 248 
Q 594 497 594 1153 
L 594 3053 
L 172 3053 
L 172 3500 
L 594 3500 
L 594 4494 
L 1172 4494 
z
" transform="scale(0.015625)"/>
       <path id="DejaVuSans-69" d="M 603 3500 
L 1178 3500 
L 1178 0 
L 603 0 
L 603 3500 
z
M 603 4863 
L 1178 4863 
L 1178 4134 
L 603 4134 
L 603 4863 
z
" transform="scale(0.015625)"/>
       <path id="DejaVuSans-76" d="M 191 3500 
L 800 3500 
L 1894 563 
L 2988 3500 
L 3597 3500 
L 2284 0 
L 1503 0 
L 191 3500 
z
" transform="scale(0.015625)"/>
       <path id="DejaVuSans-79" d="M 2059 -325 
Q 1816 -950 1584 -1140 
Q 1353 -1331 966 -1331 
L 506 -1331 
L 506 -850 
L 844 -850 
Q 1081 -850 1212 -737 
Q 1344 -625 1503 -206 
L 1606 56 
L 191 3500 
L 800 3500 
L 1894 763 
L 2988 3500 
L 3597 3500 
L 2059 -325 
z
" transform="scale(0.015625)"/>
       <path id="DejaVuSans-20" transform="scale(0.015625)"/>
       <path id="DejaVuSans-6f" d="M 1959 3097 
Q 1497 3097 1228 2736 
Q 959 2375 959 1747 
Q 959 1119 1226 758 
Q 1494 397 1959 397 
Q 2419 397 2687 759 
Q 2956 1122 2956 1747 
Q 2956 2369 2687 2733 
Q 2419 3097 1959 3097 
z
M 1959 3584 
Q 2709 3584 3137 3096 
Q 3566 2609 3566 1747 
Q 3566 888 3137 398 
Q 2709 -91 1959 -91 
Q 1206 -91 779 398 
Q 353 888 353 1747 
Q 353 2609 779 3096 
Q 1206 3584 1959 3584 
z
" transform="scale(0.015625)"/>
       <path id="DejaVuSans-66" d="M 2375 4863 
L 2375 4384 
L 1825 4384 
Q 1516 4384 1395 4259 
Q 1275 4134 1275 3809 
L 1275 3500 
L 2222 3500 
L 2222 3053 
L 1275 3053 
L 1275 0 
L 697 0 
L 697 3053 
L 147 3053 
L 147 3500 
L 697 3500 
L 697 3744 
Q 697 4328 969 4595 
Q 1241 4863 1831 4863 
L 2375 4863 
z
" transform="scale(0.015625)"/>
      </defs>
      <use xlink:href="#DejaVuSans-61"/>
      <use xlink:href="#DejaVuSans-63" x="61.279297"/>
      <use xlink:href="#DejaVuSans-74" x="116.259766"/>
      <use xlink:href="#DejaVuSans-69" x="155.46875"/>
      <use xlink:href="#DejaVuSans-76" x="183.251953"/>
      <use xlink:href="#DejaVuSans-69" x="242.431641"/>
      <use xlink:href="#DejaVuSans-74" x="270.214844"/>
      <use xlink:href="#DejaVuSans-79" x="309.423828"/>
      <use xlink:href="#DejaVuSans-20" x="368.603516"/>
      <use xlink:href="#DejaVuSans-6f" x="400.390625"/>
      <use xlink:href="#DejaVuSans-66" x="461.572266"/>
     </g>
    </g>
   </g>
   <g id="text_2">
    <g id="patch_7">
     <path d="M 456.891322 187.839062 
L 502.791322 187.839062 
Q 505.791322 187.839062 505.791322 184.839062 
L 505.791322 175.160937 
Q 505.791322 172.160937 502.791322 172.160937 
L 456.891322 172.160937 
Q 453.891322 172.160937 453.891322 175.160937 
L 453.891322 184.839062 
Q 453.891322 187.839062 456.891322 187.839062 
z
" clip-path="url(#p8da153366a)" style="fill: #ffffff; stroke: #ffffff; stroke-linejoin: miter"/>
    </g>
    <g clip-path="url(#p8da153366a)">
     <!-- produces -->
     <g transform="translate(456.891322 182.759375)scale(0.1 -0.1)">
      <defs>
       <path id="DejaVuSans-70" d="M 1159 525 
L 1159 -1331 
L 581 -1331 
L 581 3500 
L 1159 3500 
L 1159 2969 
Q 1341 3281 1617 3432 
Q 1894 3584 2278 3584 
Q 2916 3584 3314 3078 
Q 3713 2572 3713 1747 
Q 3713 922 3314 415 
Q 2916 -91 2278 -91 
Q 1894 -91 1617 61 
Q 1341 213 1159 525 
z
M 3116 1747 
Q 3116 2381 2855 2742 
Q 2594 3103 2138 3103 
Q 1681 3103 1420 2742 
Q 1159 2381 1159 1747 
Q 1159 1113 1420 752 
Q 1681 391 2138 391 
Q 2594 391 2855 752 
Q 3116 1113 3116 1747 
z
" transform="scale(0.015625)"/>
       <path id="DejaVuSans-75" d="M 544 1381 
L 544 3500 
L 1119 3500 
L 1119 1403 
Q 1119 906 1312 657 
Q 1506 409 1894 409 
Q 2359 409 2629 706 
Q 2900 1003 2900 1516 
L 2900 3500 
L 3475 3500 
L 3475 0 
L 2900 0 
L 2900 538 
Q 2691 219 2414 64 
Q 2138 -91 1772 -91 
Q 1169 -91 856 284 
Q 544 659 544 1381 
z
M 1991 3584 
L 1991 3584 
z
" transform="scale(0.015625)"/>
      </defs>
      <use xlink:href="#DejaVuSans-70"/>
      <use xlink:href="#DejaVuSans-72" x="63.476562"/>
      <use xlink:href="#DejaVuSans-6f" x="102.339844"/>
      <use xlink:href="#DejaVuSans-64" x="163.521484"/>
      <use xlink:href="#DejaVuSans-75" x="226.998047"/>
      <use xlink:href="#DejaVuSans-63" x="290.376953"/>
      <use xlink:href="#DejaVuSans-65" x="345.357422"/>
      <use xlink:href="#DejaVuSans-73" x="406.880859"/>
     </g>
    </g>
   </g>
   <g id="text_3">
    <g id="patch_8">
     <path d="M 705.139146 187.839062 
L 754.378209 187.839062 
Q 757.378209 187.839062 757.378209 184.839062 
L 757.378209 175.160937 
Q 757.378209 172.160937 754.378209 172.160937 
L 705.139146 172.160937 
Q 702.139146 172.160937 702.139146 175.160937 
L 702.139146 184.839062 
Q 702.139146 187.839062 705.139146 187.839062 
z
" clip-path="url(#p8da153366a)" style="fill: #ffffff; stroke: #ffffff; stroke-linejoin: miter"/>
    </g>
    <g clip-path="url(#p8da153366a)">
     <!-- located in -->
     <g transform="translate(705.139146 182.759375)scale(0.1 -0.1)">
      <defs>
       <path id="DejaVuSans-6c" d="M 603 4863 
L 1178 4863 
L 1178 0 
L 603 0 
L 603 4863 
z
" transform="scale(0.015625)"/>
       <path id="DejaVuSans-6e" d="M 3513 2113 
L 3513 0 
L 2938 0 
L 2938 2094 
Q 2938 2591 2744 2837 
Q 2550 3084 2163 3084 
Q 1697 3084 1428 2787 
Q 1159 2491 1159 1978 
L 1159 0 
L 581 0 
L 581 3500 
L 1159 3500 
L 1159 2956 
Q 1366 3272 1645 3428 
Q 1925 3584 2291 3584 
Q 2894 3584 3203 3211 
Q 3513 2838 3513 2113 
z
" transform="scale(0.015625)"/>
      </defs>
      <use xlink:href="#DejaVuSans-6c"/>
      <use xlink:href="#DejaVuSans-6f" x="27.783203"/>
      <use xlink:href="#DejaVuSans-63" x="88.964844"/>
      <use xlink:href="#DejaVuSans-61" x="143.945312"/>
      <use xlink:href="#DejaVuSans-74" x="205.224609"/>
      <use xlink:href="#DejaVuSans-65" x="244.433594"/>
      <use xlink:href="#DejaVuSans-64" x="305.957031"/>
      <use xlink:href="#DejaVuSans-20" x="369.433594"/>
      <use xlink:href="#DejaVuSans-69" x="401.220703"/>
      <use xlink:href="#DejaVuSans-6e" x="429.003906"/>
     </g>
    </g>
   </g>
   <g id="text_4">
    <g id="patch_9">
     <path d="M 942.019783 187.839062 
L 1017.332283 187.839062 
Q 1020.332283 187.839062 1020.332283 184.839062 
L 1020.332283 175.160937 
Q 1020.332283 172.160937 1017.332283 172.160937 
L 942.019783 172.160937 
Q 939.019783 172.160937 939.019783 175.160937 
L 939.019783 184.839062 
Q 939.019783 187.839062 942.019783 187.839062 
z
" clip-path="url(#p8da153366a)" style="fill: #ffffff; stroke: #ffffff; stroke-linejoin: miter"/>
    </g>
    <g clip-path="url(#p8da153366a)">
     <!-- correlated with -->
     <g transform="translate(942.019783 182.759375)scale(0.1 -0.1)">
      <defs>
       <path id="DejaVuSans-77" d="M 269 3500 
L 844 3500 
L 1563 769 
L 2278 3500 
L 2956 3500 
L 3675 769 
L 4391 3500 
L 4966 3500 
L 4050 0 
L 3372 0 
L 2619 2869 
L 1863 0 
L 1184 0 
L 269 3500 
z
" transform="scale(0.015625)"/>
       <path id="DejaVuSans-68" d="M 3513 2113 
L 3513 0 
L 2938 0 
L 2938 2094 
Q 2938 2591 2744 2837 
Q 2550 3084 2163 3084 
Q 1697 3084 1428 2787 
Q 1159 2491 1159 1978 
L 1159 0 
L 581 0 
L 581 4863 
L 1159 4863 
L 1159 2956 
Q 1366 3272 1645 3428 
Q 1925 3584 2291 3584 
Q 2894 3584 3203 3211 
Q 3513 2838 3513 2113 
z
" transform="scale(0.015625)"/>
      </defs>
      <use xlink:href="#DejaVuSans-63"/>
      <use xlink:href="#DejaVuSans-6f" x="54.980469"/>
      <use xlink:href="#DejaVuSans-72" x="116.162109"/>
      <use xlink:href="#DejaVuSans-72" x="155.525391"/>
      <use xlink:href="#DejaVuSans-65" x="194.388672"/>
      <use xlink:href="#DejaVuSans-6c" x="255.912109"/>
      <use xlink:href="#DejaVuSans-61" x="283.695312"/>
      <use xlink:href="#DejaVuSans-74" x="344.974609"/>
      <use xlink:href="#DejaVuSans-65" x="384.183594"/>
      <use xlink:href="#DejaVuSans-64" x="445.707031"/>
      <use xlink:href="#DejaVuSans-20" x="509.183594"/>
      <use xlink:href="#DejaVuSans-77" x="540.970703"/>
      <use xlink:href="#DejaVuSans-69" x="622.757812"/>
      <use xlink:href="#DejaVuSans-74" x="650.541016"/>
      <use xlink:href="#DejaVuSans-68" x="689.75"/>
     </g>
    </g>
   </g>
   <g id="PathCollection_1">
    <defs>
     <path id="C0_0_bdcb36798b" d="M 0 52.440442 
C 13.907368 52.440442 27.246998 46.914987 37.080992 37.080992 
C 46.914987 27.246998 52.440442 13.907368 52.440442 -0 
C 52.440442 -13.907368 46.914987 -27.246998 37.080992 -37.080992 
C 27.246998 -46.914987 13.907368 -52.440442 0 -52.440442 
C -13.907368 -52.440442 -27.246998 -46.914987 -37.080992 -37.080992 
C -46.914987 -27.246998 -52.440442 -13.907368 -52.440442 0 
C -52.440442 13.907368 -46.914987 27.246998 -37.080992 37.080992 
C -27.246998 46.914987 -13.907368 52.440442 0 52.440442 
z
"/>
    </defs>
    <g clip-path="url(#p8da153366a)">
     <use xlink:href="#C0_0_bdcb36798b" x="104.965289" y="180" style="fill: #01c472; stroke: #01c472"/>
    </g>
    <g clip-path="url(#p8da153366a)">
     <use xlink:href="#C0_0_bdcb36798b" x="354.882645" y="180" style="fill: #e71761; stroke: #e71761"/>
    </g>
    <g clip-path="url(#p8da153366a)">
     <use xlink:href="#C0_0_bdcb36798b" x="604.8" y="180" style="fill: #01c472; stroke: #01c472"/>
    </g>
    <g clip-path="url(#p8da153366a)">
     <use xlink:href="#C0_0_bdcb36798b" x="854.717355" y="180" style="fill: #8c88d7; stroke: #8c88d7"/>
    </g>
    <g clip-path="url(#p8da153366a)">
     <use xlink:href="#C0_0_bdcb36798b" x="1104.634711" y="180" style="fill: #70c6ca; stroke: #70c6ca"/>
    </g>
   </g>
   <g id="text_5">
    <path d="M 327.973582 156.785812 
L 327.973582 157.805812 
Q 327.517957 157.571437 327.024832 157.455187 
Q 326.533582 157.337062 326.004832 157.337062 
Q 325.202332 157.337062 324.801082 157.582687 
Q 324.399832 157.828312 324.399832 158.321437 
Q 324.399832 158.696437 324.686707 158.910187 
Q 324.973582 159.123937 325.841707 159.317062 
L 326.211082 159.399562 
Q 327.358582 159.645187 327.842332 160.093312 
Q 328.326082 160.541437 328.326082 161.343937 
Q 328.326082 162.258937 327.602332 162.793312 
Q 326.878582 163.325812 325.612957 163.325812 
Q 325.086082 163.325812 324.514207 163.222687 
Q 323.942332 163.119562 323.310457 162.915187 
L 323.310457 161.801437 
Q 323.908582 162.112687 324.487957 162.268312 
Q 325.067332 162.422062 325.637332 162.422062 
Q 326.398582 162.422062 326.807332 162.161437 
Q 327.217957 161.900812 327.217957 161.426437 
Q 327.217957 160.987687 326.921707 160.753312 
Q 326.627332 160.518937 325.624207 160.301437 
L 325.249207 160.213312 
Q 324.247957 160.003312 323.801707 159.566437 
Q 323.357332 159.129562 323.357332 158.368312 
Q 323.357332 157.442062 324.013582 156.939562 
Q 324.669832 156.435187 325.877332 156.435187 
Q 326.473582 156.435187 327.000457 156.523312 
Q 327.529207 156.609562 327.973582 156.785812 
z
M 331.109285 154.728937 
L 331.109285 156.592687 
L 333.329285 156.592687 
L 333.329285 157.430812 
L 331.109285 157.430812 
L 331.109285 160.993312 
Q 331.109285 161.795812 331.32866 162.024562 
Q 331.548035 162.253312 332.223035 162.253312 
L 333.329285 162.253312 
L 333.329285 163.155187 
L 332.223035 163.155187 
Q 330.974285 163.155187 330.49991 162.690187 
Q 330.025535 162.223312 330.025535 160.993312 
L 330.025535 157.430812 
L 329.234285 157.430812 
L 329.234285 156.592687 
L 330.025535 156.592687 
L 330.025535 154.728937 
L 331.109285 154.728937 
z
M 340.361238 159.603937 
L 340.361238 160.130812 
L 335.403738 160.130812 
Q 335.474988 161.244562 336.074988 161.827687 
Q 336.674988 162.410812 337.747488 162.410812 
Q 338.368113 162.410812 338.951238 162.258937 
Q 339.534363 162.107062 340.109988 161.801437 
L 340.109988 162.821437 
Q 339.528738 163.067062 338.919363 163.196437 
Q 338.309988 163.325812 337.683738 163.325812 
Q 336.112488 163.325812 335.195613 162.412687 
Q 334.278738 161.497687 334.278738 159.937687 
Q 334.278738 158.327062 335.148738 157.382062 
Q 336.018738 156.435187 337.496238 156.435187 
Q 338.819988 156.435187 339.590613 157.288312 
Q 340.361238 158.139562 340.361238 159.603937 
z
M 339.283113 159.287062 
Q 339.271863 158.403937 338.788113 157.877062 
Q 338.304363 157.348312 337.507488 157.348312 
Q 336.605613 157.348312 336.063738 157.858312 
Q 335.521863 158.368312 335.439363 159.294562 
L 339.283113 159.287062 
z
M 345.932801 157.599562 
Q 345.750926 157.494562 345.537176 157.445812 
Q 345.323426 157.395187 345.066551 157.395187 
Q 344.151551 157.395187 343.662176 157.989562 
Q 343.172801 158.583937 343.172801 159.697687 
L 343.172801 163.155187 
L 342.089051 163.155187 
L 342.089051 156.592687 
L 343.172801 156.592687 
L 343.172801 157.612687 
Q 343.514051 157.014562 344.057801 156.725812 
Q 344.603426 156.435187 345.383426 156.435187 
Q 345.494051 156.435187 345.629051 156.450187 
Q 345.764051 156.463312 345.927176 156.493312 
L 345.932801 157.599562 
z
M 349.336395 157.348312 
Q 348.470145 157.348312 347.96577 158.025187 
Q 347.461395 158.702062 347.461395 159.879562 
Q 347.461395 161.057062 347.96202 161.733937 
Q 348.46452 162.410812 349.336395 162.410812 
Q 350.198895 162.410812 350.701395 161.732062 
Q 351.20577 161.051437 351.20577 159.879562 
Q 351.20577 158.713312 350.701395 158.030812 
Q 350.198895 157.348312 349.336395 157.348312 
z
M 349.336395 156.435187 
Q 350.742645 156.435187 351.545145 157.350187 
Q 352.34952 158.263312 352.34952 159.879562 
Q 352.34952 161.490187 351.545145 162.408937 
Q 350.742645 163.325812 349.336395 163.325812 
Q 347.92452 163.325812 347.123895 162.408937 
Q 346.325145 161.490187 346.325145 159.879562 
Q 346.325145 158.263312 347.123895 157.350187 
Q 347.92452 156.435187 349.336395 156.435187 
z
M 354.135692 154.037062 
L 355.213817 154.037062 
L 355.213817 163.155187 
L 354.135692 163.155187 
L 354.135692 154.037062 
z
M 361.642254 162.159562 
L 363.575379 162.159562 
L 363.575379 155.484562 
L 361.471629 155.906437 
L 361.471629 154.828312 
L 363.564129 154.406437 
L 364.747254 154.406437 
L 364.747254 162.159562 
L 366.680379 162.159562 
L 366.680379 163.155187 
L 361.642254 163.155187 
L 361.642254 162.159562 
z
M 372.323895 155.437687 
L 369.335145 160.108312 
L 372.323895 160.108312 
L 372.323895 155.437687 
z
M 372.012645 154.406437 
L 373.501395 154.406437 
L 373.501395 160.108312 
L 374.750145 160.108312 
L 374.750145 161.092687 
L 373.501395 161.092687 
L 373.501395 163.155187 
L 372.323895 163.155187 
L 372.323895 161.092687 
L 368.375145 161.092687 
L 368.375145 159.950812 
L 372.012645 154.406437 
z
M 379.536785 159.857062 
Q 378.22991 159.857062 377.725535 160.155187 
Q 377.22116 160.453312 377.22116 161.175187 
Q 377.22116 161.748937 377.59991 162.086437 
Q 377.97866 162.422062 378.62741 162.422062 
Q 379.525535 162.422062 380.06741 161.786437 
Q 380.609285 161.150812 380.609285 160.097062 
L 380.609285 159.857062 
L 379.536785 159.857062 
z
M 381.68741 159.410812 
L 381.68741 163.155187 
L 380.609285 163.155187 
L 380.609285 162.159562 
Q 380.23991 162.755812 379.68866 163.040812 
Q 379.13741 163.325812 378.340535 163.325812 
Q 377.33366 163.325812 376.73741 162.759562 
Q 376.143035 162.193312 376.143035 161.244562 
Q 376.143035 160.138312 376.88366 159.575812 
Q 377.62616 159.013312 379.09616 159.013312 
L 380.609285 159.013312 
L 380.609285 158.906437 
Q 380.609285 158.162062 380.11991 157.755187 
Q 379.630535 157.348312 378.745535 157.348312 
Q 378.183035 157.348312 377.64866 157.483312 
Q 377.11616 157.618312 376.62491 157.888312 
L 376.62491 156.890812 
Q 377.215535 156.662062 377.77241 156.549562 
Q 378.329285 156.435187 378.85616 156.435187 
Q 380.28116 156.435187 380.984285 157.173937 
Q 381.68741 157.910812 381.68741 159.410812 
z
M 383.363426 159.388312 
L 386.520926 159.388312 
L 386.520926 160.348312 
L 383.363426 160.348312 
L 383.363426 159.388312 
z
" clip-path="url(#p8da153366a)" style="fill: #ffffff; stroke: #000000; stroke-width: 2"/>
    <path d="M 327.973582 156.785812 
L 327.973582 157.805812 
Q 327.517957 157.571437 327.024832 157.455187 
Q 326.533582 157.337062 326.004832 157.337062 
Q 325.202332 157.337062 324.801082 157.582687 
Q 324.399832 157.828312 324.399832 158.321437 
Q 324.399832 158.696437 324.686707 158.910187 
Q 324.973582 159.123937 325.841707 159.317062 
L 326.211082 159.399562 
Q 327.358582 159.645187 327.842332 160.093312 
Q 328.326082 160.541437 328.326082 161.343937 
Q 328.326082 162.258937 327.602332 162.793312 
Q 326.878582 163.325812 325.612957 163.325812 
Q 325.086082 163.325812 324.514207 163.222687 
Q 323.942332 163.119562 323.310457 162.915187 
L 323.310457 161.801437 
Q 323.908582 162.112687 324.487957 162.268312 
Q 325.067332 162.422062 325.637332 162.422062 
Q 326.398582 162.422062 326.807332 162.161437 
Q 327.217957 161.900812 327.217957 161.426437 
Q 327.217957 160.987687 326.921707 160.753312 
Q 326.627332 160.518937 325.624207 160.301437 
L 325.249207 160.213312 
Q 324.247957 160.003312 323.801707 159.566437 
Q 323.357332 159.129562 323.357332 158.368312 
Q 323.357332 157.442062 324.013582 156.939562 
Q 324.669832 156.435187 325.877332 156.435187 
Q 326.473582 156.435187 327.000457 156.523312 
Q 327.529207 156.609562 327.973582 156.785812 
z
M 331.109285 154.728937 
L 331.109285 156.592687 
L 333.329285 156.592687 
L 333.329285 157.430812 
L 331.109285 157.430812 
L 331.109285 160.993312 
Q 331.109285 161.795812 331.32866 162.024562 
Q 331.548035 162.253312 332.223035 162.253312 
L 333.329285 162.253312 
L 333.329285 163.155187 
L 332.223035 163.155187 
Q 330.974285 163.155187 330.49991 162.690187 
Q 330.025535 162.223312 330.025535 160.993312 
L 330.025535 157.430812 
L 329.234285 157.430812 
L 329.234285 156.592687 
L 330.025535 156.592687 
L 330.025535 154.728937 
L 331.109285 154.728937 
z
M 340.361238 159.603937 
L 340.361238 160.130812 
L 335.403738 160.130812 
Q 335.474988 161.244562 336.074988 161.827687 
Q 336.674988 162.410812 337.747488 162.410812 
Q 338.368113 162.410812 338.951238 162.258937 
Q 339.534363 162.107062 340.109988 161.801437 
L 340.109988 162.821437 
Q 339.528738 163.067062 338.919363 163.196437 
Q 338.309988 163.325812 337.683738 163.325812 
Q 336.112488 163.325812 335.195613 162.412687 
Q 334.278738 161.497687 334.278738 159.937687 
Q 334.278738 158.327062 335.148738 157.382062 
Q 336.018738 156.435187 337.496238 156.435187 
Q 338.819988 156.435187 339.590613 157.288312 
Q 340.361238 158.139562 340.361238 159.603937 
z
M 339.283113 159.287062 
Q 339.271863 158.403937 338.788113 157.877062 
Q 338.304363 157.348312 337.507488 157.348312 
Q 336.605613 157.348312 336.063738 157.858312 
Q 335.521863 158.368312 335.439363 159.294562 
L 339.283113 159.287062 
z
M 345.932801 157.599562 
Q 345.750926 157.494562 345.537176 157.445812 
Q 345.323426 157.395187 345.066551 157.395187 
Q 344.151551 157.395187 343.662176 157.989562 
Q 343.172801 158.583937 343.172801 159.697687 
L 343.172801 163.155187 
L 342.089051 163.155187 
L 342.089051 156.592687 
L 343.172801 156.592687 
L 343.172801 157.612687 
Q 343.514051 157.014562 344.057801 156.725812 
Q 344.603426 156.435187 345.383426 156.435187 
Q 345.494051 156.435187 345.629051 156.450187 
Q 345.764051 156.463312 345.927176 156.493312 
L 345.932801 157.599562 
z
M 349.336395 157.348312 
Q 348.470145 157.348312 347.96577 158.025187 
Q 347.461395 158.702062 347.461395 159.879562 
Q 347.461395 161.057062 347.96202 161.733937 
Q 348.46452 162.410812 349.336395 162.410812 
Q 350.198895 162.410812 350.701395 161.732062 
Q 351.20577 161.051437 351.20577 159.879562 
Q 351.20577 158.713312 350.701395 158.030812 
Q 350.198895 157.348312 349.336395 157.348312 
z
M 349.336395 156.435187 
Q 350.742645 156.435187 351.545145 157.350187 
Q 352.34952 158.263312 352.34952 159.879562 
Q 352.34952 161.490187 351.545145 162.408937 
Q 350.742645 163.325812 349.336395 163.325812 
Q 347.92452 163.325812 347.123895 162.408937 
Q 346.325145 161.490187 346.325145 159.879562 
Q 346.325145 158.263312 347.123895 157.350187 
Q 347.92452 156.435187 349.336395 156.435187 
z
M 354.135692 154.037062 
L 355.213817 154.037062 
L 355.213817 163.155187 
L 354.135692 163.155187 
L 354.135692 154.037062 
z
M 361.642254 162.159562 
L 363.575379 162.159562 
L 363.575379 155.484562 
L 361.471629 155.906437 
L 361.471629 154.828312 
L 363.564129 154.406437 
L 364.747254 154.406437 
L 364.747254 162.159562 
L 366.680379 162.159562 
L 366.680379 163.155187 
L 361.642254 163.155187 
L 361.642254 162.159562 
z
M 372.323895 155.437687 
L 369.335145 160.108312 
L 372.323895 160.108312 
L 372.323895 155.437687 
z
M 372.012645 154.406437 
L 373.501395 154.406437 
L 373.501395 160.108312 
L 374.750145 160.108312 
L 374.750145 161.092687 
L 373.501395 161.092687 
L 373.501395 163.155187 
L 372.323895 163.155187 
L 372.323895 161.092687 
L 368.375145 161.092687 
L 368.375145 159.950812 
L 372.012645 154.406437 
z
M 379.536785 159.857062 
Q 378.22991 159.857062 377.725535 160.155187 
Q 377.22116 160.453312 377.22116 161.175187 
Q 377.22116 161.748937 377.59991 162.086437 
Q 377.97866 162.422062 378.62741 162.422062 
Q 379.525535 162.422062 380.06741 161.786437 
Q 380.609285 161.150812 380.609285 160.097062 
L 380.609285 159.857062 
L 379.536785 159.857062 
z
M 381.68741 159.410812 
L 381.68741 163.155187 
L 380.609285 163.155187 
L 380.609285 162.159562 
Q 380.23991 162.755812 379.68866 163.040812 
Q 379.13741 163.325812 378.340535 163.325812 
Q 377.33366 163.325812 376.73741 162.759562 
Q 376.143035 162.193312 376.143035 161.244562 
Q 376.143035 160.138312 376.88366 159.575812 
Q 377.62616 159.013312 379.09616 159.013312 
L 380.609285 159.013312 
L 380.609285 158.906437 
Q 380.609285 158.162062 380.11991 157.755187 
Q 379.630535 157.348312 378.745535 157.348312 
Q 378.183035 157.348312 377.64866 157.483312 
Q 377.11616 157.618312 376.62491 157.888312 
L 376.62491 156.890812 
Q 377.215535 156.662062 377.77241 156.549562 
Q 378.329285 156.435187 378.85616 156.435187 
Q 380.28116 156.435187 380.984285 157.173937 
Q 381.68741 157.910812 381.68741 159.410812 
z
M 383.363426 159.388312 
L 386.520926 159.388312 
L 386.520926 160.348312 
L 383.363426 160.348312 
L 383.363426 159.388312 
z
" clip-path="url(#p8da153366a)" style="fill: #ffffff"/>
    <path d="M 321.42702 171.025687 
L 321.42702 167.474437 
L 322.505145 167.474437 
L 322.505145 176.592562 
L 321.42702 176.592562 
L 321.42702 175.608187 
Q 321.087645 176.193187 320.56827 176.478187 
Q 320.05077 176.763187 319.32327 176.763187 
Q 318.13452 176.763187 317.386395 175.814437 
Q 316.640145 174.863812 316.640145 173.316937 
Q 316.640145 171.770062 317.386395 170.821312 
Q 318.13452 169.872562 319.32327 169.872562 
Q 320.05077 169.872562 320.56827 170.157562 
Q 321.087645 170.440687 321.42702 171.025687 
z
M 317.753895 173.316937 
Q 317.753895 174.505687 318.24327 175.182562 
Q 318.732645 175.859437 319.587645 175.859437 
Q 320.442645 175.859437 320.933895 175.182562 
Q 321.42702 174.505687 321.42702 173.316937 
Q 321.42702 172.128187 320.933895 171.451312 
Q 320.442645 170.774437 319.587645 170.774437 
Q 318.732645 170.774437 318.24327 171.451312 
Q 317.753895 172.128187 317.753895 173.316937 
z
M 330.339832 173.041312 
L 330.339832 173.568187 
L 325.382332 173.568187 
Q 325.453582 174.681937 326.053582 175.265062 
Q 326.653582 175.848187 327.726082 175.848187 
Q 328.346707 175.848187 328.929832 175.696312 
Q 329.512957 175.544437 330.088582 175.238812 
L 330.088582 176.258812 
Q 329.507332 176.504437 328.897957 176.633812 
Q 328.288582 176.763187 327.662332 176.763187 
Q 326.091082 176.763187 325.174207 175.850062 
Q 324.257332 174.935062 324.257332 173.375062 
Q 324.257332 171.764437 325.127332 170.819437 
Q 325.997332 169.872562 327.474832 169.872562 
Q 328.798582 169.872562 329.569207 170.725687 
Q 330.339832 171.576937 330.339832 173.041312 
z
M 329.261707 172.724437 
Q 329.250457 171.841312 328.766707 171.314437 
Q 328.282957 170.785687 327.486082 170.785687 
Q 326.584207 170.785687 326.042332 171.295687 
Q 325.500457 171.805687 325.417957 172.731937 
L 329.261707 172.724437 
z
M 337.21827 171.290062 
Q 337.62327 170.562562 338.18577 170.217562 
Q 338.74827 169.872562 339.50952 169.872562 
Q 340.535145 169.872562 341.09202 170.590687 
Q 341.648895 171.306937 341.648895 172.630687 
L 341.648895 176.592562 
L 340.565145 176.592562 
L 340.565145 172.666312 
Q 340.565145 171.723187 340.22952 171.267562 
Q 339.89577 170.810062 339.211395 170.810062 
Q 338.37327 170.810062 337.88577 171.366937 
Q 337.400145 171.921937 337.400145 172.883812 
L 337.400145 176.592562 
L 336.316395 176.592562 
L 336.316395 172.666312 
Q 336.316395 171.717562 335.982645 171.263812 
Q 335.648895 170.810062 334.951395 170.810062 
Q 334.12452 170.810062 333.63702 171.368812 
Q 333.151395 171.927562 333.151395 172.883812 
L 333.151395 176.592562 
L 332.067645 176.592562 
L 332.067645 170.030062 
L 333.151395 170.030062 
L 333.151395 171.050062 
Q 333.52077 170.446312 334.036395 170.159437 
Q 334.55202 169.872562 335.26077 169.872562 
Q 335.97702 169.872562 336.477645 170.236312 
Q 336.97827 170.598187 337.21827 171.290062 
z
M 349.412098 173.041312 
L 349.412098 173.568187 
L 344.454598 173.568187 
Q 344.525848 174.681937 345.125848 175.265062 
Q 345.725848 175.848187 346.798348 175.848187 
Q 347.418973 175.848187 348.002098 175.696312 
Q 348.585223 175.544437 349.160848 175.238812 
L 349.160848 176.258812 
Q 348.579598 176.504437 347.970223 176.633812 
Q 347.360848 176.763187 346.734598 176.763187 
Q 345.163348 176.763187 344.246473 175.850062 
Q 343.329598 174.935062 343.329598 173.375062 
Q 343.329598 171.764437 344.199598 170.819437 
Q 345.069598 169.872562 346.547098 169.872562 
Q 347.870848 169.872562 348.641473 170.725687 
Q 349.412098 171.576937 349.412098 173.041312 
z
M 348.333973 172.724437 
Q 348.322723 171.841312 347.838973 171.314437 
Q 347.355223 170.785687 346.558348 170.785687 
Q 345.656473 170.785687 345.114598 171.295687 
Q 344.572723 171.805687 344.490223 172.731937 
L 348.333973 172.724437 
z
M 352.248035 168.166312 
L 352.248035 170.030062 
L 354.468035 170.030062 
L 354.468035 170.868187 
L 352.248035 170.868187 
L 352.248035 174.430687 
Q 352.248035 175.233187 352.46741 175.461937 
Q 352.686785 175.690687 353.361785 175.690687 
L 354.468035 175.690687 
L 354.468035 176.592562 
L 353.361785 176.592562 
Q 352.113035 176.592562 351.63866 176.127562 
Q 351.164285 175.660687 351.164285 174.430687 
L 351.164285 170.868187 
L 350.373035 170.868187 
L 350.373035 170.030062 
L 351.164285 170.030062 
L 351.164285 168.166312 
L 352.248035 168.166312 
z
M 361.342488 172.630687 
L 361.342488 176.592562 
L 360.264363 176.592562 
L 360.264363 172.666312 
Q 360.264363 171.734437 359.900613 171.273187 
Q 359.536863 170.810062 358.811238 170.810062 
Q 357.937488 170.810062 357.433113 171.366937 
Q 356.928738 171.921937 356.928738 172.883812 
L 356.928738 176.592562 
L 355.844988 176.592562 
L 355.844988 167.474437 
L 356.928738 167.474437 
L 356.928738 171.050062 
Q 357.316863 170.457562 357.839988 170.165062 
Q 358.364988 169.872562 359.051238 169.872562 
Q 360.181863 169.872562 360.761238 170.571937 
Q 361.342488 171.271312 361.342488 172.630687 
z
M 366.221707 177.201937 
Q 365.766082 178.373812 365.331082 178.730062 
Q 364.897957 179.088187 364.172332 179.088187 
L 363.309832 179.088187 
L 363.309832 178.186312 
L 363.943582 178.186312 
Q 364.387957 178.186312 364.633582 177.974437 
Q 364.881082 177.764437 365.179207 176.978812 
L 365.372332 176.487562 
L 362.719207 170.030062 
L 363.861082 170.030062 
L 365.912332 175.161937 
L 367.963582 170.030062 
L 369.105457 170.030062 
L 366.221707 177.201937 
z
M 370.59327 167.474437 
L 371.671395 167.474437 
L 371.671395 176.592562 
L 370.59327 176.592562 
L 370.59327 167.474437 
z
M 376.910379 173.294437 
Q 375.603504 173.294437 375.099129 173.592562 
Q 374.594754 173.890687 374.594754 174.612562 
Q 374.594754 175.186312 374.973504 175.523812 
Q 375.352254 175.859437 376.001004 175.859437 
Q 376.899129 175.859437 377.441004 175.223812 
Q 377.982879 174.588187 377.982879 173.534437 
L 377.982879 173.294437 
L 376.910379 173.294437 
z
M 379.061004 172.848187 
L 379.061004 176.592562 
L 377.982879 176.592562 
L 377.982879 175.596937 
Q 377.613504 176.193187 377.062254 176.478187 
Q 376.511004 176.763187 375.714129 176.763187 
Q 374.707254 176.763187 374.111004 176.196937 
Q 373.516629 175.630687 373.516629 174.681937 
Q 373.516629 173.575687 374.257254 173.013187 
Q 374.999754 172.450687 376.469754 172.450687 
L 377.982879 172.450687 
L 377.982879 172.343812 
Q 377.982879 171.599437 377.493504 171.192562 
Q 377.004129 170.785687 376.119129 170.785687 
Q 375.556629 170.785687 375.022254 170.920687 
Q 374.489754 171.055687 373.998504 171.325687 
L 373.998504 170.328187 
Q 374.589129 170.099437 375.146004 169.986937 
Q 375.702879 169.872562 376.229754 169.872562 
Q 377.654754 169.872562 378.357879 170.611312 
Q 379.061004 171.348187 379.061004 172.848187 
z
M 385.463895 170.223187 
L 385.463895 171.243187 
Q 385.00827 171.008812 384.515145 170.892562 
Q 384.023895 170.774437 383.495145 170.774437 
Q 382.692645 170.774437 382.291395 171.020062 
Q 381.890145 171.265687 381.890145 171.758812 
Q 381.890145 172.133812 382.17702 172.347562 
Q 382.463895 172.561312 383.33202 172.754437 
L 383.701395 172.836937 
Q 384.848895 173.082562 385.332645 173.530687 
Q 385.816395 173.978812 385.816395 174.781312 
Q 385.816395 175.696312 385.092645 176.230687 
Q 384.368895 176.763187 383.10327 176.763187 
Q 382.576395 176.763187 382.00452 176.660062 
Q 381.432645 176.556937 380.80077 176.352562 
L 380.80077 175.238812 
Q 381.398895 175.550062 381.97827 175.705687 
Q 382.557645 175.859437 383.127645 175.859437 
Q 383.888895 175.859437 384.297645 175.598812 
Q 384.70827 175.338187 384.70827 174.863812 
Q 384.70827 174.425062 384.41202 174.190687 
Q 384.117645 173.956312 383.11452 173.738812 
L 382.73952 173.650687 
Q 381.73827 173.440687 381.29202 173.003812 
Q 380.847645 172.566937 380.847645 171.805687 
Q 380.847645 170.879437 381.503895 170.376937 
Q 382.160145 169.872562 383.367645 169.872562 
Q 383.963895 169.872562 384.49077 169.960687 
Q 385.01952 170.046937 385.463895 170.223187 
z
M 393.146473 173.041312 
L 393.146473 173.568187 
L 388.188973 173.568187 
Q 388.260223 174.681937 388.860223 175.265062 
Q 389.460223 175.848187 390.532723 175.848187 
Q 391.153348 175.848187 391.736473 175.696312 
Q 392.319598 175.544437 392.895223 175.238812 
L 392.895223 176.258812 
Q 392.313973 176.504437 391.704598 176.633812 
Q 391.095223 176.763187 390.468973 176.763187 
Q 388.897723 176.763187 387.980848 175.850062 
Q 387.063973 174.935062 387.063973 173.375062 
Q 387.063973 171.764437 387.933973 170.819437 
Q 388.803973 169.872562 390.281473 169.872562 
Q 391.605223 169.872562 392.375848 170.725687 
Q 393.146473 171.576937 393.146473 173.041312 
z
M 392.068348 172.724437 
Q 392.057098 171.841312 391.573348 171.314437 
Q 391.089598 170.785687 390.292723 170.785687 
Q 389.390848 170.785687 388.848973 171.295687 
Q 388.307098 171.805687 388.224598 172.731937 
L 392.068348 172.724437 
z
" clip-path="url(#p8da153366a)" style="fill: #ffffff; stroke: #000000; stroke-width: 2"/>
    <path d="M 321.42702 171.025687 
L 321.42702 167.474437 
L 322.505145 167.474437 
L 322.505145 176.592562 
L 321.42702 176.592562 
L 321.42702 175.608187 
Q 321.087645 176.193187 320.56827 176.478187 
Q 320.05077 176.763187 319.32327 176.763187 
Q 318.13452 176.763187 317.386395 175.814437 
Q 316.640145 174.863812 316.640145 173.316937 
Q 316.640145 171.770062 317.386395 170.821312 
Q 318.13452 169.872562 319.32327 169.872562 
Q 320.05077 169.872562 320.56827 170.157562 
Q 321.087645 170.440687 321.42702 171.025687 
z
M 317.753895 173.316937 
Q 317.753895 174.505687 318.24327 175.182562 
Q 318.732645 175.859437 319.587645 175.859437 
Q 320.442645 175.859437 320.933895 175.182562 
Q 321.42702 174.505687 321.42702 173.316937 
Q 321.42702 172.128187 320.933895 171.451312 
Q 320.442645 170.774437 319.587645 170.774437 
Q 318.732645 170.774437 318.24327 171.451312 
Q 317.753895 172.128187 317.753895 173.316937 
z
M 330.339832 173.041312 
L 330.339832 173.568187 
L 325.382332 173.568187 
Q 325.453582 174.681937 326.053582 175.265062 
Q 326.653582 175.848187 327.726082 175.848187 
Q 328.346707 175.848187 328.929832 175.696312 
Q 329.512957 175.544437 330.088582 175.238812 
L 330.088582 176.258812 
Q 329.507332 176.504437 328.897957 176.633812 
Q 328.288582 176.763187 327.662332 176.763187 
Q 326.091082 176.763187 325.174207 175.850062 
Q 324.257332 174.935062 324.257332 173.375062 
Q 324.257332 171.764437 325.127332 170.819437 
Q 325.997332 169.872562 327.474832 169.872562 
Q 328.798582 169.872562 329.569207 170.725687 
Q 330.339832 171.576937 330.339832 173.041312 
z
M 329.261707 172.724437 
Q 329.250457 171.841312 328.766707 171.314437 
Q 328.282957 170.785687 327.486082 170.785687 
Q 326.584207 170.785687 326.042332 171.295687 
Q 325.500457 171.805687 325.417957 172.731937 
L 329.261707 172.724437 
z
M 337.21827 171.290062 
Q 337.62327 170.562562 338.18577 170.217562 
Q 338.74827 169.872562 339.50952 169.872562 
Q 340.535145 169.872562 341.09202 170.590687 
Q 341.648895 171.306937 341.648895 172.630687 
L 341.648895 176.592562 
L 340.565145 176.592562 
L 340.565145 172.666312 
Q 340.565145 171.723187 340.22952 171.267562 
Q 339.89577 170.810062 339.211395 170.810062 
Q 338.37327 170.810062 337.88577 171.366937 
Q 337.400145 171.921937 337.400145 172.883812 
L 337.400145 176.592562 
L 336.316395 176.592562 
L 336.316395 172.666312 
Q 336.316395 171.717562 335.982645 171.263812 
Q 335.648895 170.810062 334.951395 170.810062 
Q 334.12452 170.810062 333.63702 171.368812 
Q 333.151395 171.927562 333.151395 172.883812 
L 333.151395 176.592562 
L 332.067645 176.592562 
L 332.067645 170.030062 
L 333.151395 170.030062 
L 333.151395 171.050062 
Q 333.52077 170.446312 334.036395 170.159437 
Q 334.55202 169.872562 335.26077 169.872562 
Q 335.97702 169.872562 336.477645 170.236312 
Q 336.97827 170.598187 337.21827 171.290062 
z
M 349.412098 173.041312 
L 349.412098 173.568187 
L 344.454598 173.568187 
Q 344.525848 174.681937 345.125848 175.265062 
Q 345.725848 175.848187 346.798348 175.848187 
Q 347.418973 175.848187 348.002098 175.696312 
Q 348.585223 175.544437 349.160848 175.238812 
L 349.160848 176.258812 
Q 348.579598 176.504437 347.970223 176.633812 
Q 347.360848 176.763187 346.734598 176.763187 
Q 345.163348 176.763187 344.246473 175.850062 
Q 343.329598 174.935062 343.329598 173.375062 
Q 343.329598 171.764437 344.199598 170.819437 
Q 345.069598 169.872562 346.547098 169.872562 
Q 347.870848 169.872562 348.641473 170.725687 
Q 349.412098 171.576937 349.412098 173.041312 
z
M 348.333973 172.724437 
Q 348.322723 171.841312 347.838973 171.314437 
Q 347.355223 170.785687 346.558348 170.785687 
Q 345.656473 170.785687 345.114598 171.295687 
Q 344.572723 171.805687 344.490223 172.731937 
L 348.333973 172.724437 
z
M 352.248035 168.166312 
L 352.248035 170.030062 
L 354.468035 170.030062 
L 354.468035 170.868187 
L 352.248035 170.868187 
L 352.248035 174.430687 
Q 352.248035 175.233187 352.46741 175.461937 
Q 352.686785 175.690687 353.361785 175.690687 
L 354.468035 175.690687 
L 354.468035 176.592562 
L 353.361785 176.592562 
Q 352.113035 176.592562 351.63866 176.127562 
Q 351.164285 175.660687 351.164285 174.430687 
L 351.164285 170.868187 
L 350.373035 170.868187 
L 350.373035 170.030062 
L 351.164285 170.030062 
L 351.164285 168.166312 
L 352.248035 168.166312 
z
M 361.342488 172.630687 
L 361.342488 176.592562 
L 360.264363 176.592562 
L 360.264363 172.666312 
Q 360.264363 171.734437 359.900613 171.273187 
Q 359.536863 170.810062 358.811238 170.810062 
Q 357.937488 170.810062 357.433113 171.366937 
Q 356.928738 171.921937 356.928738 172.883812 
L 356.928738 176.592562 
L 355.844988 176.592562 
L 355.844988 167.474437 
L 356.928738 167.474437 
L 356.928738 171.050062 
Q 357.316863 170.457562 357.839988 170.165062 
Q 358.364988 169.872562 359.051238 169.872562 
Q 360.181863 169.872562 360.761238 170.571937 
Q 361.342488 171.271312 361.342488 172.630687 
z
M 366.221707 177.201937 
Q 365.766082 178.373812 365.331082 178.730062 
Q 364.897957 179.088187 364.172332 179.088187 
L 363.309832 179.088187 
L 363.309832 178.186312 
L 363.943582 178.186312 
Q 364.387957 178.186312 364.633582 177.974437 
Q 364.881082 177.764437 365.179207 176.978812 
L 365.372332 176.487562 
L 362.719207 170.030062 
L 363.861082 170.030062 
L 365.912332 175.161937 
L 367.963582 170.030062 
L 369.105457 170.030062 
L 366.221707 177.201937 
z
M 370.59327 167.474437 
L 371.671395 167.474437 
L 371.671395 176.592562 
L 370.59327 176.592562 
L 370.59327 167.474437 
z
M 376.910379 173.294437 
Q 375.603504 173.294437 375.099129 173.592562 
Q 374.594754 173.890687 374.594754 174.612562 
Q 374.594754 175.186312 374.973504 175.523812 
Q 375.352254 175.859437 376.001004 175.859437 
Q 376.899129 175.859437 377.441004 175.223812 
Q 377.982879 174.588187 377.982879 173.534437 
L 377.982879 173.294437 
L 376.910379 173.294437 
z
M 379.061004 172.848187 
L 379.061004 176.592562 
L 377.982879 176.592562 
L 377.982879 175.596937 
Q 377.613504 176.193187 377.062254 176.478187 
Q 376.511004 176.763187 375.714129 176.763187 
Q 374.707254 176.763187 374.111004 176.196937 
Q 373.516629 175.630687 373.516629 174.681937 
Q 373.516629 173.575687 374.257254 173.013187 
Q 374.999754 172.450687 376.469754 172.450687 
L 377.982879 172.450687 
L 377.982879 172.343812 
Q 377.982879 171.599437 377.493504 171.192562 
Q 377.004129 170.785687 376.119129 170.785687 
Q 375.556629 170.785687 375.022254 170.920687 
Q 374.489754 171.055687 373.998504 171.325687 
L 373.998504 170.328187 
Q 374.589129 170.099437 375.146004 169.986937 
Q 375.702879 169.872562 376.229754 169.872562 
Q 377.654754 169.872562 378.357879 170.611312 
Q 379.061004 171.348187 379.061004 172.848187 
z
M 385.463895 170.223187 
L 385.463895 171.243187 
Q 385.00827 171.008812 384.515145 170.892562 
Q 384.023895 170.774437 383.495145 170.774437 
Q 382.692645 170.774437 382.291395 171.020062 
Q 381.890145 171.265687 381.890145 171.758812 
Q 381.890145 172.133812 382.17702 172.347562 
Q 382.463895 172.561312 383.33202 172.754437 
L 383.701395 172.836937 
Q 384.848895 173.082562 385.332645 173.530687 
Q 385.816395 173.978812 385.816395 174.781312 
Q 385.816395 175.696312 385.092645 176.230687 
Q 384.368895 176.763187 383.10327 176.763187 
Q 382.576395 176.763187 382.00452 176.660062 
Q 381.432645 176.556937 380.80077 176.352562 
L 380.80077 175.238812 
Q 381.398895 175.550062 381.97827 175.705687 
Q 382.557645 175.859437 383.127645 175.859437 
Q 383.888895 175.859437 384.297645 175.598812 
Q 384.70827 175.338187 384.70827 174.863812 
Q 384.70827 174.425062 384.41202 174.190687 
Q 384.117645 173.956312 383.11452 173.738812 
L 382.73952 173.650687 
Q 381.73827 173.440687 381.29202 173.003812 
Q 380.847645 172.566937 380.847645 171.805687 
Q 380.847645 170.879437 381.503895 170.376937 
Q 382.160145 169.872562 383.367645 169.872562 
Q 383.963895 169.872562 384.49077 169.960687 
Q 385.01952 170.046937 385.463895 170.223187 
z
M 393.146473 173.041312 
L 393.146473 173.568187 
L 388.188973 173.568187 
Q 388.260223 174.681937 388.860223 175.265062 
Q 389.460223 175.848187 390.532723 175.848187 
Q 391.153348 175.848187 391.736473 175.696312 
Q 392.319598 175.544437 392.895223 175.238812 
L 392.895223 176.258812 
Q 392.313973 176.504437 391.704598 176.633812 
Q 391.095223 176.763187 390.468973 176.763187 
Q 388.897723 176.763187 387.980848 175.850062 
Q 387.063973 174.935062 387.063973 173.375062 
Q 387.063973 171.764437 387.933973 170.819437 
Q 388.803973 169.872562 390.281473 169.872562 
Q 391.605223 169.872562 392.375848 170.725687 
Q 393.146473 171.576937 393.146473 173.041312 
z
M 392.068348 172.724437 
Q 392.057098 171.841312 391.573348 171.314437 
Q 391.089598 170.785687 390.292723 170.785687 
Q 389.390848 170.785687 388.848973 171.295687 
Q 388.307098 171.805687 388.224598 172.731937 
L 392.068348 172.724437 
z
" clip-path="url(#p8da153366a)" style="fill: #ffffff"/>
    <path d="M 309.470145 181.281187 
L 310.66077 181.281187 
L 310.66077 186.596812 
Q 310.66077 188.003062 311.168895 188.621812 
Q 311.678895 189.238687 312.822645 189.238687 
Q 313.958895 189.238687 314.468895 188.621812 
Q 314.978895 188.003062 314.978895 186.596812 
L 314.978895 181.281187 
L 316.167645 181.281187 
L 316.167645 186.743062 
Q 316.167645 188.453062 315.320145 189.326812 
Q 314.47452 190.200562 312.822645 190.200562 
Q 311.16327 190.200562 310.31577 189.326812 
Q 309.470145 188.453062 309.470145 186.743062 
L 309.470145 181.281187 
z
M 323.797723 186.068062 
L 323.797723 190.029937 
L 322.719598 190.029937 
L 322.719598 186.103687 
Q 322.719598 185.171812 322.355848 184.710562 
Q 321.992098 184.247437 321.266473 184.247437 
Q 320.392723 184.247437 319.888348 184.804312 
Q 319.383973 185.359312 319.383973 186.321187 
L 319.383973 190.029937 
L 318.300223 190.029937 
L 318.300223 183.467437 
L 319.383973 183.467437 
L 319.383973 184.487437 
Q 319.772098 183.894937 320.295223 183.602437 
Q 320.820223 183.309937 321.506473 183.309937 
Q 322.637098 183.309937 323.216473 184.009312 
Q 323.797723 184.708687 323.797723 186.068062 
z
M 325.946942 183.467437 
L 327.025067 183.467437 
L 327.025067 190.029937 
L 325.946942 190.029937 
L 325.946942 183.467437 
z
M 325.946942 180.911812 
L 327.025067 180.911812 
L 327.025067 182.278687 
L 325.946942 182.278687 
L 325.946942 180.911812 
z
M 330.510926 182.254312 
L 330.510926 185.541187 
L 331.999676 185.541187 
Q 332.826551 185.541187 333.276551 185.113687 
Q 333.728426 184.686187 333.728426 183.894937 
Q 333.728426 183.109312 333.276551 182.681812 
Q 332.826551 182.254312 331.999676 182.254312 
L 330.510926 182.254312 
z
M 329.327801 181.281187 
L 331.999676 181.281187 
Q 333.471551 181.281187 334.223426 181.946812 
Q 334.977176 182.612437 334.977176 183.894937 
Q 334.977176 185.190562 334.223426 185.852437 
Q 333.471551 186.514312 331.999676 186.514312 
L 330.510926 186.514312 
L 330.510926 190.029937 
L 329.327801 190.029937 
L 329.327801 181.281187 
z
M 340.109754 184.474312 
Q 339.927879 184.369312 339.714129 184.320562 
Q 339.500379 184.269937 339.243504 184.269937 
Q 338.328504 184.269937 337.839129 184.864312 
Q 337.349754 185.458687 337.349754 186.572437 
L 337.349754 190.029937 
L 336.266004 190.029937 
L 336.266004 183.467437 
L 337.349754 183.467437 
L 337.349754 184.487437 
Q 337.691004 183.889312 338.234754 183.600562 
Q 338.780379 183.309937 339.560379 183.309937 
Q 339.671004 183.309937 339.806004 183.324937 
Q 339.941004 183.338062 340.104129 183.368062 
L 340.109754 184.474312 
z
M 343.513348 184.223062 
Q 342.647098 184.223062 342.142723 184.899937 
Q 341.638348 185.576812 341.638348 186.754312 
Q 341.638348 187.931812 342.138973 188.608687 
Q 342.641473 189.285562 343.513348 189.285562 
Q 344.375848 189.285562 344.878348 188.606812 
Q 345.382723 187.926187 345.382723 186.754312 
Q 345.382723 185.588062 344.878348 184.905562 
Q 344.375848 184.223062 343.513348 184.223062 
z
M 343.513348 183.309937 
Q 344.919598 183.309937 345.722098 184.224937 
Q 346.526473 185.138062 346.526473 186.754312 
Q 346.526473 188.364937 345.722098 189.283687 
Q 344.919598 190.200562 343.513348 190.200562 
Q 342.101473 190.200562 341.300848 189.283687 
Q 340.502098 188.364937 340.502098 186.754312 
Q 340.502098 185.138062 341.300848 184.224937 
Q 342.101473 183.309937 343.513348 183.309937 
z
M 349.37952 181.603687 
L 349.37952 183.467437 
L 351.59952 183.467437 
L 351.59952 184.305562 
L 349.37952 184.305562 
L 349.37952 187.868062 
Q 349.37952 188.670562 349.598895 188.899312 
Q 349.81827 189.128062 350.49327 189.128062 
L 351.59952 189.128062 
L 351.59952 190.029937 
L 350.49327 190.029937 
Q 349.24452 190.029937 348.770145 189.564937 
Q 348.29577 189.098062 348.29577 187.868062 
L 348.29577 184.305562 
L 347.50452 184.305562 
L 347.50452 183.467437 
L 348.29577 183.467437 
L 348.29577 181.603687 
L 349.37952 181.603687 
z
M 353.293348 188.541187 
L 354.528973 188.541187 
L 354.528973 190.029937 
L 353.293348 190.029937 
L 353.293348 188.541187 
z
M 353.293348 183.825562 
L 354.528973 183.825562 
L 354.528973 185.312437 
L 353.293348 185.312437 
L 353.293348 183.825562 
z
M 358.290692 182.254312 
L 358.290692 185.541187 
L 359.779442 185.541187 
Q 360.606317 185.541187 361.056317 185.113687 
Q 361.508192 184.686187 361.508192 183.894937 
Q 361.508192 183.109312 361.056317 182.681812 
Q 360.606317 182.254312 359.779442 182.254312 
L 358.290692 182.254312 
z
M 357.107567 181.281187 
L 359.779442 181.281187 
Q 361.251317 181.281187 362.003192 181.946812 
Q 362.756942 182.612437 362.756942 183.894937 
Q 362.756942 185.190562 362.003192 185.852437 
Q 361.251317 186.514312 359.779442 186.514312 
L 358.290692 186.514312 
L 358.290692 190.029937 
L 357.107567 190.029937 
L 357.107567 181.281187 
z
M 364.655145 189.034312 
L 366.58827 189.034312 
L 366.58827 182.359312 
L 364.48452 182.781187 
L 364.48452 181.703062 
L 366.57702 181.281187 
L 367.760145 181.281187 
L 367.760145 189.034312 
L 369.69327 189.034312 
L 369.69327 190.029937 
L 364.655145 190.029937 
L 364.655145 189.034312 
z
M 374.61491 182.061187 
Q 373.701785 182.061187 373.240535 182.961187 
Q 372.78116 183.859312 372.78116 185.664937 
Q 372.78116 187.463062 373.240535 188.363062 
Q 373.701785 189.263062 374.61491 189.263062 
Q 375.535535 189.263062 375.99491 188.363062 
Q 376.45616 187.463062 376.45616 185.664937 
Q 376.45616 183.859312 375.99491 182.961187 
Q 375.535535 182.061187 374.61491 182.061187 
z
M 374.61491 181.123687 
Q 376.086785 181.123687 376.863035 182.288062 
Q 377.639285 183.450562 377.639285 185.664937 
Q 377.639285 187.873687 376.863035 189.038062 
Q 376.086785 190.200562 374.61491 190.200562 
Q 373.14491 190.200562 372.36866 189.038062 
Q 371.59241 187.873687 371.59241 185.664937 
Q 371.59241 183.450562 372.36866 182.288062 
Q 373.14491 181.123687 374.61491 181.123687 
z
M 382.397801 185.184937 
Q 381.600926 185.184937 381.134051 185.730562 
Q 380.669051 186.274312 380.669051 187.223062 
Q 380.669051 188.166187 381.134051 188.715562 
Q 381.600926 189.263062 382.397801 189.263062 
Q 383.194676 189.263062 383.659676 188.715562 
Q 384.124676 188.166187 384.124676 187.223062 
Q 384.124676 186.274312 383.659676 185.730562 
Q 383.194676 185.184937 382.397801 185.184937 
z
M 384.747176 181.474312 
L 384.747176 182.552437 
Q 384.300926 182.342437 383.847176 182.231812 
Q 383.393426 182.119312 382.947176 182.119312 
Q 381.775301 182.119312 381.156551 182.910562 
Q 380.539676 183.701812 380.451551 185.301187 
Q 380.796551 184.791187 381.317801 184.519312 
Q 381.840926 184.247437 382.467176 184.247437 
Q 383.785301 184.247437 384.550301 185.048062 
Q 385.315301 185.846812 385.315301 187.223062 
Q 385.315301 188.571187 384.518426 189.386812 
Q 383.721551 190.200562 382.397801 190.200562 
Q 380.879051 190.200562 380.076551 189.038062 
Q 379.274051 187.873687 379.274051 185.664937 
Q 379.274051 183.591187 380.258426 182.357437 
Q 381.242801 181.123687 382.900301 181.123687 
Q 383.346551 181.123687 383.800301 181.211812 
Q 384.254051 181.299937 384.747176 181.474312 
z
M 387.559442 189.034312 
L 389.492567 189.034312 
L 389.492567 182.359312 
L 387.388817 182.781187 
L 387.388817 181.703062 
L 389.481317 181.281187 
L 390.664442 181.281187 
L 390.664442 189.034312 
L 392.597567 189.034312 
L 392.597567 190.029937 
L 387.559442 190.029937 
L 387.559442 189.034312 
z
M 398.574832 185.312437 
Q 399.424207 185.494312 399.900457 186.069937 
Q 400.378582 186.643687 400.378582 187.487437 
Q 400.378582 188.781187 399.487957 189.491812 
Q 398.597332 190.200562 396.956707 190.200562 
Q 396.407332 190.200562 395.824207 190.091812 
Q 395.241082 189.983062 394.620457 189.765562 
L 394.620457 188.623687 
Q 395.111707 188.910562 395.696707 189.056812 
Q 396.283582 189.203062 396.922957 189.203062 
Q 398.034832 189.203062 398.617957 188.764312 
Q 399.201082 188.325562 399.201082 187.487437 
Q 399.201082 186.713062 398.659207 186.278062 
Q 398.117332 185.841187 397.151707 185.841187 
L 396.131707 185.841187 
L 396.131707 184.868062 
L 397.198582 184.868062 
Q 398.070457 184.868062 398.533582 184.519312 
Q 398.996707 184.170562 398.996707 183.514312 
Q 398.996707 182.841187 398.518582 182.481187 
Q 398.042332 182.119312 397.151707 182.119312 
Q 396.664207 182.119312 396.107332 182.226187 
Q 395.550457 182.331187 394.882957 182.552437 
L 394.882957 181.498687 
Q 395.557957 181.311187 396.146707 181.217437 
Q 396.735457 181.123687 397.256707 181.123687 
Q 398.604832 181.123687 399.388582 181.736812 
Q 400.174207 182.348062 400.174207 183.390562 
Q 400.174207 184.118062 399.757957 184.618687 
Q 399.341707 185.119312 398.574832 185.312437 
z
" clip-path="url(#p8da153366a)" style="fill: #ffffff; stroke: #000000; stroke-width: 2"/>
    <path d="M 309.470145 181.281187 
L 310.66077 181.281187 
L 310.66077 186.596812 
Q 310.66077 188.003062 311.168895 188.621812 
Q 311.678895 189.238687 312.822645 189.238687 
Q 313.958895 189.238687 314.468895 188.621812 
Q 314.978895 188.003062 314.978895 186.596812 
L 314.978895 181.281187 
L 316.167645 181.281187 
L 316.167645 186.743062 
Q 316.167645 188.453062 315.320145 189.326812 
Q 314.47452 190.200562 312.822645 190.200562 
Q 311.16327 190.200562 310.31577 189.326812 
Q 309.470145 188.453062 309.470145 186.743062 
L 309.470145 181.281187 
z
M 323.797723 186.068062 
L 323.797723 190.029937 
L 322.719598 190.029937 
L 322.719598 186.103687 
Q 322.719598 185.171812 322.355848 184.710562 
Q 321.992098 184.247437 321.266473 184.247437 
Q 320.392723 184.247437 319.888348 184.804312 
Q 319.383973 185.359312 319.383973 186.321187 
L 319.383973 190.029937 
L 318.300223 190.029937 
L 318.300223 183.467437 
L 319.383973 183.467437 
L 319.383973 184.487437 
Q 319.772098 183.894937 320.295223 183.602437 
Q 320.820223 183.309937 321.506473 183.309937 
Q 322.637098 183.309937 323.216473 184.009312 
Q 323.797723 184.708687 323.797723 186.068062 
z
M 325.946942 183.467437 
L 327.025067 183.467437 
L 327.025067 190.029937 
L 325.946942 190.029937 
L 325.946942 183.467437 
z
M 325.946942 180.911812 
L 327.025067 180.911812 
L 327.025067 182.278687 
L 325.946942 182.278687 
L 325.946942 180.911812 
z
M 330.510926 182.254312 
L 330.510926 185.541187 
L 331.999676 185.541187 
Q 332.826551 185.541187 333.276551 185.113687 
Q 333.728426 184.686187 333.728426 183.894937 
Q 333.728426 183.109312 333.276551 182.681812 
Q 332.826551 182.254312 331.999676 182.254312 
L 330.510926 182.254312 
z
M 329.327801 181.281187 
L 331.999676 181.281187 
Q 333.471551 181.281187 334.223426 181.946812 
Q 334.977176 182.612437 334.977176 183.894937 
Q 334.977176 185.190562 334.223426 185.852437 
Q 333.471551 186.514312 331.999676 186.514312 
L 330.510926 186.514312 
L 330.510926 190.029937 
L 329.327801 190.029937 
L 329.327801 181.281187 
z
M 340.109754 184.474312 
Q 339.927879 184.369312 339.714129 184.320562 
Q 339.500379 184.269937 339.243504 184.269937 
Q 338.328504 184.269937 337.839129 184.864312 
Q 337.349754 185.458687 337.349754 186.572437 
L 337.349754 190.029937 
L 336.266004 190.029937 
L 336.266004 183.467437 
L 337.349754 183.467437 
L 337.349754 184.487437 
Q 337.691004 183.889312 338.234754 183.600562 
Q 338.780379 183.309937 339.560379 183.309937 
Q 339.671004 183.309937 339.806004 183.324937 
Q 339.941004 183.338062 340.104129 183.368062 
L 340.109754 184.474312 
z
M 343.513348 184.223062 
Q 342.647098 184.223062 342.142723 184.899937 
Q 341.638348 185.576812 341.638348 186.754312 
Q 341.638348 187.931812 342.138973 188.608687 
Q 342.641473 189.285562 343.513348 189.285562 
Q 344.375848 189.285562 344.878348 188.606812 
Q 345.382723 187.926187 345.382723 186.754312 
Q 345.382723 185.588062 344.878348 184.905562 
Q 344.375848 184.223062 343.513348 184.223062 
z
M 343.513348 183.309937 
Q 344.919598 183.309937 345.722098 184.224937 
Q 346.526473 185.138062 346.526473 186.754312 
Q 346.526473 188.364937 345.722098 189.283687 
Q 344.919598 190.200562 343.513348 190.200562 
Q 342.101473 190.200562 341.300848 189.283687 
Q 340.502098 188.364937 340.502098 186.754312 
Q 340.502098 185.138062 341.300848 184.224937 
Q 342.101473 183.309937 343.513348 183.309937 
z
M 349.37952 181.603687 
L 349.37952 183.467437 
L 351.59952 183.467437 
L 351.59952 184.305562 
L 349.37952 184.305562 
L 349.37952 187.868062 
Q 349.37952 188.670562 349.598895 188.899312 
Q 349.81827 189.128062 350.49327 189.128062 
L 351.59952 189.128062 
L 351.59952 190.029937 
L 350.49327 190.029937 
Q 349.24452 190.029937 348.770145 189.564937 
Q 348.29577 189.098062 348.29577 187.868062 
L 348.29577 184.305562 
L 347.50452 184.305562 
L 347.50452 183.467437 
L 348.29577 183.467437 
L 348.29577 181.603687 
L 349.37952 181.603687 
z
M 353.293348 188.541187 
L 354.528973 188.541187 
L 354.528973 190.029937 
L 353.293348 190.029937 
L 353.293348 188.541187 
z
M 353.293348 183.825562 
L 354.528973 183.825562 
L 354.528973 185.312437 
L 353.293348 185.312437 
L 353.293348 183.825562 
z
M 358.290692 182.254312 
L 358.290692 185.541187 
L 359.779442 185.541187 
Q 360.606317 185.541187 361.056317 185.113687 
Q 361.508192 184.686187 361.508192 183.894937 
Q 361.508192 183.109312 361.056317 182.681812 
Q 360.606317 182.254312 359.779442 182.254312 
L 358.290692 182.254312 
z
M 357.107567 181.281187 
L 359.779442 181.281187 
Q 361.251317 181.281187 362.003192 181.946812 
Q 362.756942 182.612437 362.756942 183.894937 
Q 362.756942 185.190562 362.003192 185.852437 
Q 361.251317 186.514312 359.779442 186.514312 
L 358.290692 186.514312 
L 358.290692 190.029937 
L 357.107567 190.029937 
L 357.107567 181.281187 
z
M 364.655145 189.034312 
L 366.58827 189.034312 
L 366.58827 182.359312 
L 364.48452 182.781187 
L 364.48452 181.703062 
L 366.57702 181.281187 
L 367.760145 181.281187 
L 367.760145 189.034312 
L 369.69327 189.034312 
L 369.69327 190.029937 
L 364.655145 190.029937 
L 364.655145 189.034312 
z
M 374.61491 182.061187 
Q 373.701785 182.061187 373.240535 182.961187 
Q 372.78116 183.859312 372.78116 185.664937 
Q 372.78116 187.463062 373.240535 188.363062 
Q 373.701785 189.263062 374.61491 189.263062 
Q 375.535535 189.263062 375.99491 188.363062 
Q 376.45616 187.463062 376.45616 185.664937 
Q 376.45616 183.859312 375.99491 182.961187 
Q 375.535535 182.061187 374.61491 182.061187 
z
M 374.61491 181.123687 
Q 376.086785 181.123687 376.863035 182.288062 
Q 377.639285 183.450562 377.639285 185.664937 
Q 377.639285 187.873687 376.863035 189.038062 
Q 376.086785 190.200562 374.61491 190.200562 
Q 373.14491 190.200562 372.36866 189.038062 
Q 371.59241 187.873687 371.59241 185.664937 
Q 371.59241 183.450562 372.36866 182.288062 
Q 373.14491 181.123687 374.61491 181.123687 
z
M 382.397801 185.184937 
Q 381.600926 185.184937 381.134051 185.730562 
Q 380.669051 186.274312 380.669051 187.223062 
Q 380.669051 188.166187 381.134051 188.715562 
Q 381.600926 189.263062 382.397801 189.263062 
Q 383.194676 189.263062 383.659676 188.715562 
Q 384.124676 188.166187 384.124676 187.223062 
Q 384.124676 186.274312 383.659676 185.730562 
Q 383.194676 185.184937 382.397801 185.184937 
z
M 384.747176 181.474312 
L 384.747176 182.552437 
Q 384.300926 182.342437 383.847176 182.231812 
Q 383.393426 182.119312 382.947176 182.119312 
Q 381.775301 182.119312 381.156551 182.910562 
Q 380.539676 183.701812 380.451551 185.301187 
Q 380.796551 184.791187 381.317801 184.519312 
Q 381.840926 184.247437 382.467176 184.247437 
Q 383.785301 184.247437 384.550301 185.048062 
Q 385.315301 185.846812 385.315301 187.223062 
Q 385.315301 188.571187 384.518426 189.386812 
Q 383.721551 190.200562 382.397801 190.200562 
Q 380.879051 190.200562 380.076551 189.038062 
Q 379.274051 187.873687 379.274051 185.664937 
Q 379.274051 183.591187 380.258426 182.357437 
Q 381.242801 181.123687 382.900301 181.123687 
Q 383.346551 181.123687 383.800301 181.211812 
Q 384.254051 181.299937 384.747176 181.474312 
z
M 387.559442 189.034312 
L 389.492567 189.034312 
L 389.492567 182.359312 
L 387.388817 182.781187 
L 387.388817 181.703062 
L 389.481317 181.281187 
L 390.664442 181.281187 
L 390.664442 189.034312 
L 392.597567 189.034312 
L 392.597567 190.029937 
L 387.559442 190.029937 
L 387.559442 189.034312 
z
M 398.574832 185.312437 
Q 399.424207 185.494312 399.900457 186.069937 
Q 400.378582 186.643687 400.378582 187.487437 
Q 400.378582 188.781187 399.487957 189.491812 
Q 398.597332 190.200562 396.956707 190.200562 
Q 396.407332 190.200562 395.824207 190.091812 
Q 395.241082 189.983062 394.620457 189.765562 
L 394.620457 188.623687 
Q 395.111707 188.910562 395.696707 189.056812 
Q 396.283582 189.203062 396.922957 189.203062 
Q 398.034832 189.203062 398.617957 188.764312 
Q 399.201082 188.325562 399.201082 187.487437 
Q 399.201082 186.713062 398.659207 186.278062 
Q 398.117332 185.841187 397.151707 185.841187 
L 396.131707 185.841187 
L 396.131707 184.868062 
L 397.198582 184.868062 
Q 398.070457 184.868062 398.533582 184.519312 
Q 398.996707 184.170562 398.996707 183.514312 
Q 398.996707 182.841187 398.518582 182.481187 
Q 398.042332 182.119312 397.151707 182.119312 
Q 396.664207 182.119312 396.107332 182.226187 
Q 395.550457 182.331187 394.882957 182.552437 
L 394.882957 181.498687 
Q 395.557957 181.311187 396.146707 181.217437 
Q 396.735457 181.123687 397.256707 181.123687 
Q 398.604832 181.123687 399.388582 181.736812 
Q 400.174207 182.348062 400.174207 183.390562 
Q 400.174207 184.118062 399.757957 184.618687 
Q 399.341707 185.119312 398.574832 185.312437 
z
" clip-path="url(#p8da153366a)" style="fill: #ffffff"/>
    <path d="M 336.214207 195.691687 
L 336.214207 198.978562 
L 337.702957 198.978562 
Q 338.529832 198.978562 338.979832 198.551062 
Q 339.431707 198.123562 339.431707 197.332312 
Q 339.431707 196.546687 338.979832 196.119187 
Q 338.529832 195.691687 337.702957 195.691687 
L 336.214207 195.691687 
z
M 335.031082 194.718562 
L 337.702957 194.718562 
Q 339.174832 194.718562 339.926707 195.384187 
Q 340.680457 196.049812 340.680457 197.332312 
Q 340.680457 198.627937 339.926707 199.289812 
Q 339.174832 199.951687 337.702957 199.951687 
L 336.214207 199.951687 
L 336.214207 203.467312 
L 335.031082 203.467312 
L 335.031082 194.718562 
z
M 345.813035 197.911687 
Q 345.63116 197.806687 345.41741 197.757937 
Q 345.20366 197.707312 344.946785 197.707312 
Q 344.031785 197.707312 343.54241 198.301687 
Q 343.053035 198.896062 343.053035 200.009812 
L 343.053035 203.467312 
L 341.969285 203.467312 
L 341.969285 196.904812 
L 343.053035 196.904812 
L 343.053035 197.924812 
Q 343.394285 197.326687 343.938035 197.037937 
Q 344.48366 196.747312 345.26366 196.747312 
Q 345.374285 196.747312 345.509285 196.762312 
Q 345.644285 196.775437 345.80741 196.805437 
L 345.813035 197.911687 
z
M 349.216629 197.660437 
Q 348.350379 197.660437 347.846004 198.337312 
Q 347.341629 199.014187 347.341629 200.191687 
Q 347.341629 201.369187 347.842254 202.046062 
Q 348.344754 202.722937 349.216629 202.722937 
Q 350.079129 202.722937 350.581629 202.044187 
Q 351.086004 201.363562 351.086004 200.191687 
Q 351.086004 199.025437 350.581629 198.342937 
Q 350.079129 197.660437 349.216629 197.660437 
z
M 349.216629 196.747312 
Q 350.622879 196.747312 351.425379 197.662312 
Q 352.229754 198.575437 352.229754 200.191687 
Q 352.229754 201.802312 351.425379 202.721062 
Q 350.622879 203.637937 349.216629 203.637937 
Q 347.804754 203.637937 347.004129 202.721062 
Q 346.205379 201.802312 346.205379 200.191687 
Q 346.205379 198.575437 347.004129 197.662312 
Q 347.804754 196.747312 349.216629 196.747312 
z
M 355.082801 195.041062 
L 355.082801 196.904812 
L 357.302801 196.904812 
L 357.302801 197.742937 
L 355.082801 197.742937 
L 355.082801 201.305437 
Q 355.082801 202.107937 355.302176 202.336687 
Q 355.521551 202.565437 356.196551 202.565437 
L 357.302801 202.565437 
L 357.302801 203.467312 
L 356.196551 203.467312 
Q 354.947801 203.467312 354.473426 203.002312 
Q 353.999051 202.535437 353.999051 201.305437 
L 353.999051 197.742937 
L 353.207801 197.742937 
L 353.207801 196.904812 
L 353.999051 196.904812 
L 353.999051 195.041062 
L 355.082801 195.041062 
z
M 364.334754 199.916062 
L 364.334754 200.442937 
L 359.377254 200.442937 
Q 359.448504 201.556687 360.048504 202.139812 
Q 360.648504 202.722937 361.721004 202.722937 
Q 362.341629 202.722937 362.924754 202.571062 
Q 363.507879 202.419187 364.083504 202.113562 
L 364.083504 203.133562 
Q 363.502254 203.379187 362.892879 203.508562 
Q 362.283504 203.637937 361.657254 203.637937 
Q 360.086004 203.637937 359.169129 202.724812 
Q 358.252254 201.809812 358.252254 200.249812 
Q 358.252254 198.639187 359.122254 197.694187 
Q 359.992254 196.747312 361.469754 196.747312 
Q 362.793504 196.747312 363.564129 197.600437 
Q 364.334754 198.451687 364.334754 199.916062 
z
M 363.256629 199.599187 
Q 363.245379 198.716062 362.761629 198.189187 
Q 362.277879 197.660437 361.481004 197.660437 
Q 360.579129 197.660437 360.037254 198.170437 
Q 359.495379 198.680437 359.412879 199.606687 
L 363.256629 199.599187 
z
M 366.103817 196.904812 
L 367.181942 196.904812 
L 367.181942 203.467312 
L 366.103817 203.467312 
L 366.103817 196.904812 
z
M 366.103817 194.349187 
L 367.181942 194.349187 
L 367.181942 195.716062 
L 366.103817 195.716062 
L 366.103817 194.349187 
z
M 374.894051 199.505437 
L 374.894051 203.467312 
L 373.815926 203.467312 
L 373.815926 199.541062 
Q 373.815926 198.609187 373.452176 198.147937 
Q 373.088426 197.684812 372.362801 197.684812 
Q 371.489051 197.684812 370.984676 198.241687 
Q 370.480301 198.796687 370.480301 199.758562 
L 370.480301 203.467312 
L 369.396551 203.467312 
L 369.396551 196.904812 
L 370.480301 196.904812 
L 370.480301 197.924812 
Q 370.868426 197.332312 371.391551 197.039812 
Q 371.916551 196.747312 372.602801 196.747312 
Q 373.733426 196.747312 374.312801 197.446687 
Q 374.894051 198.146062 374.894051 199.505437 
z
" clip-path="url(#p8da153366a)" style="fill: #ffffff; stroke: #000000; stroke-width: 2"/>
    <path d="M 336.214207 195.691687 
L 336.214207 198.978562 
L 337.702957 198.978562 
Q 338.529832 198.978562 338.979832 198.551062 
Q 339.431707 198.123562 339.431707 197.332312 
Q 339.431707 196.546687 338.979832 196.119187 
Q 338.529832 195.691687 337.702957 195.691687 
L 336.214207 195.691687 
z
M 335.031082 194.718562 
L 337.702957 194.718562 
Q 339.174832 194.718562 339.926707 195.384187 
Q 340.680457 196.049812 340.680457 197.332312 
Q 340.680457 198.627937 339.926707 199.289812 
Q 339.174832 199.951687 337.702957 199.951687 
L 336.214207 199.951687 
L 336.214207 203.467312 
L 335.031082 203.467312 
L 335.031082 194.718562 
z
M 345.813035 197.911687 
Q 345.63116 197.806687 345.41741 197.757937 
Q 345.20366 197.707312 344.946785 197.707312 
Q 344.031785 197.707312 343.54241 198.301687 
Q 343.053035 198.896062 343.053035 200.009812 
L 343.053035 203.467312 
L 341.969285 203.467312 
L 341.969285 196.904812 
L 343.053035 196.904812 
L 343.053035 197.924812 
Q 343.394285 197.326687 343.938035 197.037937 
Q 344.48366 196.747312 345.26366 196.747312 
Q 345.374285 196.747312 345.509285 196.762312 
Q 345.644285 196.775437 345.80741 196.805437 
L 345.813035 197.911687 
z
M 349.216629 197.660437 
Q 348.350379 197.660437 347.846004 198.337312 
Q 347.341629 199.014187 347.341629 200.191687 
Q 347.341629 201.369187 347.842254 202.046062 
Q 348.344754 202.722937 349.216629 202.722937 
Q 350.079129 202.722937 350.581629 202.044187 
Q 351.086004 201.363562 351.086004 200.191687 
Q 351.086004 199.025437 350.581629 198.342937 
Q 350.079129 197.660437 349.216629 197.660437 
z
M 349.216629 196.747312 
Q 350.622879 196.747312 351.425379 197.662312 
Q 352.229754 198.575437 352.229754 200.191687 
Q 352.229754 201.802312 351.425379 202.721062 
Q 350.622879 203.637937 349.216629 203.637937 
Q 347.804754 203.637937 347.004129 202.721062 
Q 346.205379 201.802312 346.205379 200.191687 
Q 346.205379 198.575437 347.004129 197.662312 
Q 347.804754 196.747312 349.216629 196.747312 
z
M 355.082801 195.041062 
L 355.082801 196.904812 
L 357.302801 196.904812 
L 357.302801 197.742937 
L 355.082801 197.742937 
L 355.082801 201.305437 
Q 355.082801 202.107937 355.302176 202.336687 
Q 355.521551 202.565437 356.196551 202.565437 
L 357.302801 202.565437 
L 357.302801 203.467312 
L 356.196551 203.467312 
Q 354.947801 203.467312 354.473426 203.002312 
Q 353.999051 202.535437 353.999051 201.305437 
L 353.999051 197.742937 
L 353.207801 197.742937 
L 353.207801 196.904812 
L 353.999051 196.904812 
L 353.999051 195.041062 
L 355.082801 195.041062 
z
M 364.334754 199.916062 
L 364.334754 200.442937 
L 359.377254 200.442937 
Q 359.448504 201.556687 360.048504 202.139812 
Q 360.648504 202.722937 361.721004 202.722937 
Q 362.341629 202.722937 362.924754 202.571062 
Q 363.507879 202.419187 364.083504 202.113562 
L 364.083504 203.133562 
Q 363.502254 203.379187 362.892879 203.508562 
Q 362.283504 203.637937 361.657254 203.637937 
Q 360.086004 203.637937 359.169129 202.724812 
Q 358.252254 201.809812 358.252254 200.249812 
Q 358.252254 198.639187 359.122254 197.694187 
Q 359.992254 196.747312 361.469754 196.747312 
Q 362.793504 196.747312 363.564129 197.600437 
Q 364.334754 198.451687 364.334754 199.916062 
z
M 363.256629 199.599187 
Q 363.245379 198.716062 362.761629 198.189187 
Q 362.277879 197.660437 361.481004 197.660437 
Q 360.579129 197.660437 360.037254 198.170437 
Q 359.495379 198.680437 359.412879 199.606687 
L 363.256629 199.599187 
z
M 366.103817 196.904812 
L 367.181942 196.904812 
L 367.181942 203.467312 
L 366.103817 203.467312 
L 366.103817 196.904812 
z
M 366.103817 194.349187 
L 367.181942 194.349187 
L 367.181942 195.716062 
L 366.103817 195.716062 
L 366.103817 194.349187 
z
M 374.894051 199.505437 
L 374.894051 203.467312 
L 373.815926 203.467312 
L 373.815926 199.541062 
Q 373.815926 198.609187 373.452176 198.147937 
Q 373.088426 197.684812 372.362801 197.684812 
Q 371.489051 197.684812 370.984676 198.241687 
Q 370.480301 198.796687 370.480301 199.758562 
L 370.480301 203.467312 
L 369.396551 203.467312 
L 369.396551 196.904812 
L 370.480301 196.904812 
L 370.480301 197.924812 
Q 370.868426 197.332312 371.391551 197.039812 
Q 371.916551 196.747312 372.602801 196.747312 
Q 373.733426 196.747312 374.312801 197.446687 
Q 374.894051 198.146062 374.894051 199.505437 
z
" clip-path="url(#p8da153366a)" style="fill: #ffffff"/>
   </g>
   <g id="text_6">
    <g clip-path="url(#p8da153366a)">
     <!-- posaconazole -->
     <g transform="translate(64.053727 169.873875)scale(0.12 -0.12)">
      <defs>
       <path id="DejaVuSans-7a" d="M 353 3500 
L 3084 3500 
L 3084 2975 
L 922 459 
L 3084 459 
L 3084 0 
L 275 0 
L 275 525 
L 2438 3041 
L 353 3041 
L 353 3500 
z
" transform="scale(0.015625)"/>
      </defs>
      <use xlink:href="#DejaVuSans-70"/>
      <use xlink:href="#DejaVuSans-6f" x="63.476562"/>
      <use xlink:href="#DejaVuSans-73" x="124.658203"/>
      <use xlink:href="#DejaVuSans-61" x="176.757812"/>
      <use xlink:href="#DejaVuSans-63" x="238.037109"/>
      <use xlink:href="#DejaVuSans-6f" x="293.017578"/>
      <use xlink:href="#DejaVuSans-6e" x="354.199219"/>
      <use xlink:href="#DejaVuSans-61" x="417.578125"/>
      <use xlink:href="#DejaVuSans-7a" x="478.857422"/>
      <use xlink:href="#DejaVuSans-6f" x="531.347656"/>
      <use xlink:href="#DejaVuSans-6c" x="592.529297"/>
      <use xlink:href="#DejaVuSans-65" x="620.3125"/>
     </g>
    </g>
    <g clip-path="url(#p8da153366a)">
     <!-- MESH:C101425 -->
     <g transform="translate(58.559977 183.31125)scale(0.12 -0.12)">
      <defs>
       <path id="DejaVuSans-4d" d="M 628 4666 
L 1569 4666 
L 2759 1491 
L 3956 4666 
L 4897 4666 
L 4897 0 
L 4281 0 
L 4281 4097 
L 3078 897 
L 2444 897 
L 1241 4097 
L 1241 0 
L 628 0 
L 628 4666 
z
" transform="scale(0.015625)"/>
       <path id="DejaVuSans-45" d="M 628 4666 
L 3578 4666 
L 3578 4134 
L 1259 4134 
L 1259 2753 
L 3481 2753 
L 3481 2222 
L 1259 2222 
L 1259 531 
L 3634 531 
L 3634 0 
L 628 0 
L 628 4666 
z
" transform="scale(0.015625)"/>
       <path id="DejaVuSans-53" d="M 3425 4513 
L 3425 3897 
Q 3066 4069 2747 4153 
Q 2428 4238 2131 4238 
Q 1616 4238 1336 4038 
Q 1056 3838 1056 3469 
Q 1056 3159 1242 3001 
Q 1428 2844 1947 2747 
L 2328 2669 
Q 3034 2534 3370 2195 
Q 3706 1856 3706 1288 
Q 3706 609 3251 259 
Q 2797 -91 1919 -91 
Q 1588 -91 1214 -16 
Q 841 59 441 206 
L 441 856 
Q 825 641 1194 531 
Q 1563 422 1919 422 
Q 2459 422 2753 634 
Q 3047 847 3047 1241 
Q 3047 1584 2836 1778 
Q 2625 1972 2144 2069 
L 1759 2144 
Q 1053 2284 737 2584 
Q 422 2884 422 3419 
Q 422 4038 858 4394 
Q 1294 4750 2059 4750 
Q 2388 4750 2728 4690 
Q 3069 4631 3425 4513 
z
" transform="scale(0.015625)"/>
       <path id="DejaVuSans-48" d="M 628 4666 
L 1259 4666 
L 1259 2753 
L 3553 2753 
L 3553 4666 
L 4184 4666 
L 4184 0 
L 3553 0 
L 3553 2222 
L 1259 2222 
L 1259 0 
L 628 0 
L 628 4666 
z
" transform="scale(0.015625)"/>
       <path id="DejaVuSans-3a" d="M 750 794 
L 1409 794 
L 1409 0 
L 750 0 
L 750 794 
z
M 750 3309 
L 1409 3309 
L 1409 2516 
L 750 2516 
L 750 3309 
z
" transform="scale(0.015625)"/>
       <path id="DejaVuSans-43" d="M 4122 4306 
L 4122 3641 
Q 3803 3938 3442 4084 
Q 3081 4231 2675 4231 
Q 1875 4231 1450 3742 
Q 1025 3253 1025 2328 
Q 1025 1406 1450 917 
Q 1875 428 2675 428 
Q 3081 428 3442 575 
Q 3803 722 4122 1019 
L 4122 359 
Q 3791 134 3420 21 
Q 3050 -91 2638 -91 
Q 1578 -91 968 557 
Q 359 1206 359 2328 
Q 359 3453 968 4101 
Q 1578 4750 2638 4750 
Q 3056 4750 3426 4639 
Q 3797 4528 4122 4306 
z
" transform="scale(0.015625)"/>
       <path id="DejaVuSans-31" d="M 794 531 
L 1825 531 
L 1825 4091 
L 703 3866 
L 703 4441 
L 1819 4666 
L 2450 4666 
L 2450 531 
L 3481 531 
L 3481 0 
L 794 0 
L 794 531 
z
" transform="scale(0.015625)"/>
       <path id="DejaVuSans-30" d="M 2034 4250 
Q 1547 4250 1301 3770 
Q 1056 3291 1056 2328 
Q 1056 1369 1301 889 
Q 1547 409 2034 409 
Q 2525 409 2770 889 
Q 3016 1369 3016 2328 
Q 3016 3291 2770 3770 
Q 2525 4250 2034 4250 
z
M 2034 4750 
Q 2819 4750 3233 4129 
Q 3647 3509 3647 2328 
Q 3647 1150 3233 529 
Q 2819 -91 2034 -91 
Q 1250 -91 836 529 
Q 422 1150 422 2328 
Q 422 3509 836 4129 
Q 1250 4750 2034 4750 
z
" transform="scale(0.015625)"/>
       <path id="DejaVuSans-34" d="M 2419 4116 
L 825 1625 
L 2419 1625 
L 2419 4116 
z
M 2253 4666 
L 3047 4666 
L 3047 1625 
L 3713 1625 
L 3713 1100 
L 3047 1100 
L 3047 0 
L 2419 0 
L 2419 1100 
L 313 1100 
L 313 1709 
L 2253 4666 
z
" transform="scale(0.015625)"/>
       <path id="DejaVuSans-32" d="M 1228 531 
L 3431 531 
L 3431 0 
L 469 0 
L 469 531 
Q 828 903 1448 1529 
Q 2069 2156 2228 2338 
Q 2531 2678 2651 2914 
Q 2772 3150 2772 3378 
Q 2772 3750 2511 3984 
Q 2250 4219 1831 4219 
Q 1534 4219 1204 4116 
Q 875 4013 500 3803 
L 500 4441 
Q 881 4594 1212 4672 
Q 1544 4750 1819 4750 
Q 2544 4750 2975 4387 
Q 3406 4025 3406 3419 
Q 3406 3131 3298 2873 
Q 3191 2616 2906 2266 
Q 2828 2175 2409 1742 
Q 1991 1309 1228 531 
z
" transform="scale(0.015625)"/>
       <path id="DejaVuSans-35" d="M 691 4666 
L 3169 4666 
L 3169 4134 
L 1269 4134 
L 1269 2991 
Q 1406 3038 1543 3061 
Q 1681 3084 1819 3084 
Q 2600 3084 3056 2656 
Q 3513 2228 3513 1497 
Q 3513 744 3044 326 
Q 2575 -91 1722 -91 
Q 1428 -91 1123 -41 
Q 819 9 494 109 
L 494 744 
Q 775 591 1075 516 
Q 1375 441 1709 441 
Q 2250 441 2565 725 
Q 2881 1009 2881 1497 
Q 2881 1984 2565 2268 
Q 2250 2553 1709 2553 
Q 1456 2553 1204 2497 
Q 953 2441 691 2322 
L 691 4666 
z
" transform="scale(0.015625)"/>
      </defs>
      <use xlink:href="#DejaVuSans-4d"/>
      <use xlink:href="#DejaVuSans-45" x="86.279297"/>
      <use xlink:href="#DejaVuSans-53" x="149.462891"/>
      <use xlink:href="#DejaVuSans-48" x="212.939453"/>
      <use xlink:href="#DejaVuSans-3a" x="288.134766"/>
      <use xlink:href="#DejaVuSans-43" x="321.826172"/>
      <use xlink:href="#DejaVuSans-31" x="391.650391"/>
      <use xlink:href="#DejaVuSans-30" x="455.273438"/>
      <use xlink:href="#DejaVuSans-31" x="518.896484"/>
      <use xlink:href="#DejaVuSans-34" x="582.519531"/>
      <use xlink:href="#DejaVuSans-32" x="646.142578"/>
      <use xlink:href="#DejaVuSans-35" x="709.765625"/>
     </g>
    </g>
    <g clip-path="url(#p8da153366a)">
     <!-- Drug -->
     <g transform="translate(90.267164 196.748625)scale(0.12 -0.12)">
      <defs>
       <path id="DejaVuSans-44" d="M 1259 4147 
L 1259 519 
L 2022 519 
Q 2988 519 3436 956 
Q 3884 1394 3884 2338 
Q 3884 3275 3436 3711 
Q 2988 4147 2022 4147 
L 1259 4147 
z
M 628 4666 
L 1925 4666 
Q 3281 4666 3915 4102 
Q 4550 3538 4550 2338 
Q 4550 1131 3912 565 
Q 3275 0 1925 0 
L 628 0 
L 628 4666 
z
" transform="scale(0.015625)"/>
       <path id="DejaVuSans-67" d="M 2906 1791 
Q 2906 2416 2648 2759 
Q 2391 3103 1925 3103 
Q 1463 3103 1205 2759 
Q 947 2416 947 1791 
Q 947 1169 1205 825 
Q 1463 481 1925 481 
Q 2391 481 2648 825 
Q 2906 1169 2906 1791 
z
M 3481 434 
Q 3481 -459 3084 -895 
Q 2688 -1331 1869 -1331 
Q 1566 -1331 1297 -1286 
Q 1028 -1241 775 -1147 
L 775 -588 
Q 1028 -725 1275 -790 
Q 1522 -856 1778 -856 
Q 2344 -856 2625 -561 
Q 2906 -266 2906 331 
L 2906 616 
Q 2728 306 2450 153 
Q 2172 0 1784 0 
Q 1141 0 747 490 
Q 353 981 353 1791 
Q 353 2603 747 3093 
Q 1141 3584 1784 3584 
Q 2172 3584 2450 3431 
Q 2728 3278 2906 2969 
L 2906 3500 
L 3481 3500 
L 3481 434 
z
" transform="scale(0.015625)"/>
      </defs>
      <use xlink:href="#DejaVuSans-44"/>
      <use xlink:href="#DejaVuSans-72" x="77.001953"/>
      <use xlink:href="#DejaVuSans-75" x="118.115234"/>
      <use xlink:href="#DejaVuSans-67" x="181.494141"/>
     </g>
    </g>
   </g>
   <g id="text_7">
    <g clip-path="url(#p8da153366a)">
     <!-- ergosterol -->
     <g transform="translate(574.426875 169.873875)scale(0.12 -0.12)">
      <use xlink:href="#DejaVuSans-65"/>
      <use xlink:href="#DejaVuSans-72" x="61.523438"/>
      <use xlink:href="#DejaVuSans-67" x="100.886719"/>
      <use xlink:href="#DejaVuSans-6f" x="164.363281"/>
      <use xlink:href="#DejaVuSans-73" x="225.544922"/>
      <use xlink:href="#DejaVuSans-74" x="277.644531"/>
      <use xlink:href="#DejaVuSans-65" x="316.853516"/>
      <use xlink:href="#DejaVuSans-72" x="378.376953"/>
      <use xlink:href="#DejaVuSans-6f" x="417.240234"/>
      <use xlink:href="#DejaVuSans-6c" x="478.421875"/>
     </g>
    </g>
    <g clip-path="url(#p8da153366a)">
     <!-- MESH:D004875 -->
     <g transform="translate(557.964375 183.31125)scale(0.12 -0.12)">
      <defs>
       <path id="DejaVuSans-38" d="M 2034 2216 
Q 1584 2216 1326 1975 
Q 1069 1734 1069 1313 
Q 1069 891 1326 650 
Q 1584 409 2034 409 
Q 2484 409 2743 651 
Q 3003 894 3003 1313 
Q 3003 1734 2745 1975 
Q 2488 2216 2034 2216 
z
M 1403 2484 
Q 997 2584 770 2862 
Q 544 3141 544 3541 
Q 544 4100 942 4425 
Q 1341 4750 2034 4750 
Q 2731 4750 3128 4425 
Q 3525 4100 3525 3541 
Q 3525 3141 3298 2862 
Q 3072 2584 2669 2484 
Q 3125 2378 3379 2068 
Q 3634 1759 3634 1313 
Q 3634 634 3220 271 
Q 2806 -91 2034 -91 
Q 1263 -91 848 271 
Q 434 634 434 1313 
Q 434 1759 690 2068 
Q 947 2378 1403 2484 
z
M 1172 3481 
Q 1172 3119 1398 2916 
Q 1625 2713 2034 2713 
Q 2441 2713 2670 2916 
Q 2900 3119 2900 3481 
Q 2900 3844 2670 4047 
Q 2441 4250 2034 4250 
Q 1625 4250 1398 4047 
Q 1172 3844 1172 3481 
z
" transform="scale(0.015625)"/>
       <path id="DejaVuSans-37" d="M 525 4666 
L 3525 4666 
L 3525 4397 
L 1831 0 
L 1172 0 
L 2766 4134 
L 525 4134 
L 525 4666 
z
" transform="scale(0.015625)"/>
      </defs>
      <use xlink:href="#DejaVuSans-4d"/>
      <use xlink:href="#DejaVuSans-45" x="86.279297"/>
      <use xlink:href="#DejaVuSans-53" x="149.462891"/>
      <use xlink:href="#DejaVuSans-48" x="212.939453"/>
      <use xlink:href="#DejaVuSans-3a" x="288.134766"/>
      <use xlink:href="#DejaVuSans-44" x="321.826172"/>
      <use xlink:href="#DejaVuSans-30" x="398.828125"/>
      <use xlink:href="#DejaVuSans-30" x="462.451172"/>
      <use xlink:href="#DejaVuSans-34" x="526.074219"/>
      <use xlink:href="#DejaVuSans-38" x="589.697266"/>
      <use xlink:href="#DejaVuSans-37" x="653.320312"/>
      <use xlink:href="#DejaVuSans-35" x="716.943359"/>
     </g>
    </g>
    <g clip-path="url(#p8da153366a)">
     <!-- ChemicalSubstance -->
     <g transform="translate(545.593125 196.748625)scale(0.12 -0.12)">
      <defs>
       <path id="DejaVuSans-6d" d="M 3328 2828 
Q 3544 3216 3844 3400 
Q 4144 3584 4550 3584 
Q 5097 3584 5394 3201 
Q 5691 2819 5691 2113 
L 5691 0 
L 5113 0 
L 5113 2094 
Q 5113 2597 4934 2840 
Q 4756 3084 4391 3084 
Q 3944 3084 3684 2787 
Q 3425 2491 3425 1978 
L 3425 0 
L 2847 0 
L 2847 2094 
Q 2847 2600 2669 2842 
Q 2491 3084 2119 3084 
Q 1678 3084 1418 2786 
Q 1159 2488 1159 1978 
L 1159 0 
L 581 0 
L 581 3500 
L 1159 3500 
L 1159 2956 
Q 1356 3278 1631 3431 
Q 1906 3584 2284 3584 
Q 2666 3584 2933 3390 
Q 3200 3197 3328 2828 
z
" transform="scale(0.015625)"/>
       <path id="DejaVuSans-62" d="M 3116 1747 
Q 3116 2381 2855 2742 
Q 2594 3103 2138 3103 
Q 1681 3103 1420 2742 
Q 1159 2381 1159 1747 
Q 1159 1113 1420 752 
Q 1681 391 2138 391 
Q 2594 391 2855 752 
Q 3116 1113 3116 1747 
z
M 1159 2969 
Q 1341 3281 1617 3432 
Q 1894 3584 2278 3584 
Q 2916 3584 3314 3078 
Q 3713 2572 3713 1747 
Q 3713 922 3314 415 
Q 2916 -91 2278 -91 
Q 1894 -91 1617 61 
Q 1341 213 1159 525 
L 1159 0 
L 581 0 
L 581 4863 
L 1159 4863 
L 1159 2969 
z
" transform="scale(0.015625)"/>
      </defs>
      <use xlink:href="#DejaVuSans-43"/>
      <use xlink:href="#DejaVuSans-68" x="69.824219"/>
      <use xlink:href="#DejaVuSans-65" x="133.203125"/>
      <use xlink:href="#DejaVuSans-6d" x="194.726562"/>
      <use xlink:href="#DejaVuSans-69" x="292.138672"/>
      <use xlink:href="#DejaVuSans-63" x="319.921875"/>
      <use xlink:href="#DejaVuSans-61" x="374.902344"/>
      <use xlink:href="#DejaVuSans-6c" x="436.181641"/>
      <use xlink:href="#DejaVuSans-53" x="463.964844"/>
      <use xlink:href="#DejaVuSans-75" x="527.441406"/>
      <use xlink:href="#DejaVuSans-62" x="590.820312"/>
      <use xlink:href="#DejaVuSans-73" x="654.296875"/>
      <use xlink:href="#DejaVuSans-74" x="706.396484"/>
      <use xlink:href="#DejaVuSans-61" x="745.605469"/>
      <use xlink:href="#DejaVuSans-6e" x="806.884766"/>
      <use xlink:href="#DejaVuSans-63" x="870.263672"/>
      <use xlink:href="#DejaVuSans-65" x="925.244141"/>
     </g>
    </g>
   </g>
   <g id="text_8">
    <g clip-path="url(#p8da153366a)">
     <!-- Fungal Cell -->
     <g transform="translate(821.716418 163.155187)scale(0.12 -0.12)">
      <defs>
       <path id="DejaVuSans-46" d="M 628 4666 
L 3309 4666 
L 3309 4134 
L 1259 4134 
L 1259 2759 
L 3109 2759 
L 3109 2228 
L 1259 2228 
L 1259 0 
L 628 0 
L 628 4666 
z
" transform="scale(0.015625)"/>
      </defs>
      <use xlink:href="#DejaVuSans-46"/>
      <use xlink:href="#DejaVuSans-75" x="52.019531"/>
      <use xlink:href="#DejaVuSans-6e" x="115.398438"/>
      <use xlink:href="#DejaVuSans-67" x="178.777344"/>
      <use xlink:href="#DejaVuSans-61" x="242.253906"/>
      <use xlink:href="#DejaVuSans-6c" x="303.533203"/>
      <use xlink:href="#DejaVuSans-20" x="331.316406"/>
      <use xlink:href="#DejaVuSans-43" x="363.103516"/>
      <use xlink:href="#DejaVuSans-65" x="432.927734"/>
      <use xlink:href="#DejaVuSans-6c" x="494.451172"/>
      <use xlink:href="#DejaVuSans-6c" x="522.234375"/>
     </g>
    </g>
    <g clip-path="url(#p8da153366a)">
     <!-- Membrane -->
     <g transform="translate(822.557355 176.592562)scale(0.12 -0.12)">
      <use xlink:href="#DejaVuSans-4d"/>
      <use xlink:href="#DejaVuSans-65" x="86.279297"/>
      <use xlink:href="#DejaVuSans-6d" x="147.802734"/>
      <use xlink:href="#DejaVuSans-62" x="245.214844"/>
      <use xlink:href="#DejaVuSans-72" x="308.691406"/>
      <use xlink:href="#DejaVuSans-61" x="349.804688"/>
      <use xlink:href="#DejaVuSans-6e" x="411.083984"/>
      <use xlink:href="#DejaVuSans-65" x="474.462891"/>
     </g>
    </g>
    <g clip-path="url(#p8da153366a)">
     <!-- GO:0009277 -->
     <g transform="translate(816.706418 190.029937)scale(0.12 -0.12)">
      <defs>
       <path id="DejaVuSans-47" d="M 3809 666 
L 3809 1919 
L 2778 1919 
L 2778 2438 
L 4434 2438 
L 4434 434 
Q 4069 175 3628 42 
Q 3188 -91 2688 -91 
Q 1594 -91 976 548 
Q 359 1188 359 2328 
Q 359 3472 976 4111 
Q 1594 4750 2688 4750 
Q 3144 4750 3555 4637 
Q 3966 4525 4313 4306 
L 4313 3634 
Q 3963 3931 3569 4081 
Q 3175 4231 2741 4231 
Q 1884 4231 1454 3753 
Q 1025 3275 1025 2328 
Q 1025 1384 1454 906 
Q 1884 428 2741 428 
Q 3075 428 3337 486 
Q 3600 544 3809 666 
z
" transform="scale(0.015625)"/>
       <path id="DejaVuSans-4f" d="M 2522 4238 
Q 1834 4238 1429 3725 
Q 1025 3213 1025 2328 
Q 1025 1447 1429 934 
Q 1834 422 2522 422 
Q 3209 422 3611 934 
Q 4013 1447 4013 2328 
Q 4013 3213 3611 3725 
Q 3209 4238 2522 4238 
z
M 2522 4750 
Q 3503 4750 4090 4092 
Q 4678 3434 4678 2328 
Q 4678 1225 4090 567 
Q 3503 -91 2522 -91 
Q 1538 -91 948 565 
Q 359 1222 359 2328 
Q 359 3434 948 4092 
Q 1538 4750 2522 4750 
z
" transform="scale(0.015625)"/>
       <path id="DejaVuSans-39" d="M 703 97 
L 703 672 
Q 941 559 1184 500 
Q 1428 441 1663 441 
Q 2288 441 2617 861 
Q 2947 1281 2994 2138 
Q 2813 1869 2534 1725 
Q 2256 1581 1919 1581 
Q 1219 1581 811 2004 
Q 403 2428 403 3163 
Q 403 3881 828 4315 
Q 1253 4750 1959 4750 
Q 2769 4750 3195 4129 
Q 3622 3509 3622 2328 
Q 3622 1225 3098 567 
Q 2575 -91 1691 -91 
Q 1453 -91 1209 -44 
Q 966 3 703 97 
z
M 1959 2075 
Q 2384 2075 2632 2365 
Q 2881 2656 2881 3163 
Q 2881 3666 2632 3958 
Q 2384 4250 1959 4250 
Q 1534 4250 1286 3958 
Q 1038 3666 1038 3163 
Q 1038 2656 1286 2365 
Q 1534 2075 1959 2075 
z
" transform="scale(0.015625)"/>
      </defs>
      <use xlink:href="#DejaVuSans-47"/>
      <use xlink:href="#DejaVuSans-4f" x="77.490234"/>
      <use xlink:href="#DejaVuSans-3a" x="154.451172"/>
      <use xlink:href="#DejaVuSans-30" x="188.142578"/>
      <use xlink:href="#DejaVuSans-30" x="251.765625"/>
      <use xlink:href="#DejaVuSans-30" x="315.388672"/>
      <use xlink:href="#DejaVuSans-39" x="379.011719"/>
      <use xlink:href="#DejaVuSans-32" x="442.634766"/>
      <use xlink:href="#DejaVuSans-37" x="506.257812"/>
      <use xlink:href="#DejaVuSans-37" x="569.880859"/>
     </g>
    </g>
    <g clip-path="url(#p8da153366a)">
     <!-- CellularComponent -->
     <g transform="translate(797.054543 203.467312)scale(0.12 -0.12)">
      <use xlink:href="#DejaVuSans-43"/>
      <use xlink:href="#DejaVuSans-65" x="69.824219"/>
      <use xlink:href="#DejaVuSans-6c" x="131.347656"/>
      <use xlink:href="#DejaVuSans-6c" x="159.130859"/>
      <use xlink:href="#DejaVuSans-75" x="186.914062"/>
      <use xlink:href="#DejaVuSans-6c" x="250.292969"/>
      <use xlink:href="#DejaVuSans-61" x="278.076172"/>
      <use xlink:href="#DejaVuSans-72" x="339.355469"/>
      <use xlink:href="#DejaVuSans-43" x="380.46875"/>
      <use xlink:href="#DejaVuSans-6f" x="450.292969"/>
      <use xlink:href="#DejaVuSans-6d" x="511.474609"/>
      <use xlink:href="#DejaVuSans-70" x="608.886719"/>
      <use xlink:href="#DejaVuSans-6f" x="672.363281"/>
      <use xlink:href="#DejaVuSans-6e" x="733.544922"/>
      <use xlink:href="#DejaVuSans-65" x="796.923828"/>
      <use xlink:href="#DejaVuSans-6e" x="858.447266"/>
      <use xlink:href="#DejaVuSans-74" x="921.826172"/>
     </g>
    </g>
   </g>
   <g id="text_9">
    <g clip-path="url(#p8da153366a)">
     <!-- Fungal -->
     <g transform="translate(1084.755961 163.155187)scale(0.12 -0.12)">
      <use xlink:href="#DejaVuSans-46"/>
      <use xlink:href="#DejaVuSans-75" x="52.019531"/>
      <use xlink:href="#DejaVuSans-6e" x="115.398438"/>
      <use xlink:href="#DejaVuSans-67" x="178.777344"/>
      <use xlink:href="#DejaVuSans-61" x="242.253906"/>
      <use xlink:href="#DejaVuSans-6c" x="303.533203"/>
     </g>
    </g>
    <g clip-path="url(#p8da153366a)">
     <!-- Infection -->
     <g transform="translate(1078.466273 176.592562)scale(0.12 -0.12)">
      <defs>
       <path id="DejaVuSans-49" d="M 628 4666 
L 1259 4666 
L 1259 0 
L 628 0 
L 628 4666 
z
" transform="scale(0.015625)"/>
      </defs>
      <use xlink:href="#DejaVuSans-49"/>
      <use xlink:href="#DejaVuSans-6e" x="29.492188"/>
      <use xlink:href="#DejaVuSans-66" x="92.871094"/>
      <use xlink:href="#DejaVuSans-65" x="128.076172"/>
      <use xlink:href="#DejaVuSans-63" x="189.599609"/>
      <use xlink:href="#DejaVuSans-74" x="244.580078"/>
      <use xlink:href="#DejaVuSans-69" x="283.789062"/>
      <use xlink:href="#DejaVuSans-6f" x="311.572266"/>
      <use xlink:href="#DejaVuSans-6e" x="372.753906"/>
     </g>
    </g>
    <g clip-path="url(#p8da153366a)">
     <!-- MESH:D009181 -->
     <g transform="translate(1057.799086 190.029937)scale(0.12 -0.12)">
      <use xlink:href="#DejaVuSans-4d"/>
      <use xlink:href="#DejaVuSans-45" x="86.279297"/>
      <use xlink:href="#DejaVuSans-53" x="149.462891"/>
      <use xlink:href="#DejaVuSans-48" x="212.939453"/>
      <use xlink:href="#DejaVuSans-3a" x="288.134766"/>
      <use xlink:href="#DejaVuSans-44" x="321.826172"/>
      <use xlink:href="#DejaVuSans-30" x="398.828125"/>
      <use xlink:href="#DejaVuSans-30" x="462.451172"/>
      <use xlink:href="#DejaVuSans-39" x="526.074219"/>
      <use xlink:href="#DejaVuSans-31" x="589.697266"/>
      <use xlink:href="#DejaVuSans-38" x="653.320312"/>
      <use xlink:href="#DejaVuSans-31" x="716.943359"/>
     </g>
    </g>
    <g clip-path="url(#p8da153366a)">
     <!-- Disease -->
     <g transform="translate(1081.035961 203.467312)scale(0.12 -0.12)">
      <use xlink:href="#DejaVuSans-44"/>
      <use xlink:href="#DejaVuSans-69" x="77.001953"/>
      <use xlink:href="#DejaVuSans-73" x="104.785156"/>
      <use xlink:href="#DejaVuSans-65" x="156.884766"/>
      <use xlink:href="#DejaVuSans-61" x="218.408203"/>
      <use xlink:href="#DejaVuSans-73" x="279.6875"/>
      <use xlink:href="#DejaVuSans-65" x="331.787109"/>
     </g>
    </g>
   </g>
  </g>
 </g>
 <defs>
  <clipPath id="p8da153366a">
   <rect x="0" y="0" width="1209.6" height="360"/>
  </clipPath>
 </defs>
</svg>
