<?xml version="1.0" encoding="utf-8" standalone="no"?>
<!DOCTYPE svg PUBLIC "-//W3C//DTD SVG 1.1//EN"
  "http://www.w3.org/Graphics/SVG/1.1/DTD/svg11.dtd">
<svg xmlns:xlink="http://www.w3.org/1999/xlink" width="864pt" height="360pt" viewBox="0 0 864 360" xmlns="http://www.w3.org/2000/svg" version="1.1">
 <metadata>
  <rdf:RDF xmlns:dc="http://purl.org/dc/elements/1.1/" xmlns:cc="http://creativecommons.org/ns#" xmlns:rdf="http://www.w3.org/1999/02/22-rdf-syntax-ns#">
   <cc:Work>
    <dc:type rdf:resource="http://purl.org/dc/dcmitype/StillImage"/>
    <dc:date>2023-02-08T08:51:34.174614</dc:date>
    <dc:format>image/svg+xml</dc:format>
    <dc:creator>
     <cc:Agent>
      <dc:title>Matplotlib v3.5.1, https://matplotlib.org/</dc:title>
     </cc:Agent>
    </dc:creator>
   </cc:Work>
  </rdf:RDF>
 </metadata>
 <defs>
  <style type="text/css">*{stroke-linejoin: round; stroke-linecap: butt}</style>
 </defs>
 <g id="figure_1">
  <g id="patch_1">
   <path d="M 0 360 
L 864 360 
L 864 0 
L 0 0 
z
" style="fill: #ffffff"/>
  </g>
  <g id="axes_1">
   <g id="patch_2">
    <path d="M 127.418126 180 
Q 253.489907 180 376.207585 180 
" clip-path="url(#p17d4432a04)" style="fill: none; stroke: #2ca02c; stroke-width: 3; stroke-linecap: round"/>
    <path d="M 372.207585 178 
L 376.207585 180 
L 372.207585 182 
L 372.207585 178 
z
" clip-path="url(#p17d4432a04)" style="fill: #2ca02c; stroke: #2ca02c; stroke-width: 3; stroke-linecap: round"/>
   </g>
   <g id="patch_3">
    <path d="M 484.44292 180 
Q 610.5147 180 733.232378 180 
" clip-path="url(#p17d4432a04)" style="fill: none; stroke: #2ca02c; stroke-width: 3; stroke-linecap: round"/>
    <path d="M 729.232378 178 
L 733.232378 180 
L 729.232378 182 
L 729.232378 178 
z
" clip-path="url(#p17d4432a04)" style="fill: #2ca02c; stroke: #2ca02c; stroke-width: 3; stroke-linecap: round"/>
   </g>
   <g id="text_1">
    <g id="patch_4">
     <path d="M 229.526666 193.437969 
L 277.448541 193.437969 
Q 280.448541 193.437969 280.448541 190.437969 
L 280.448541 169.562031 
Q 280.448541 166.562031 277.448541 166.562031 
L 229.526666 166.562031 
Q 226.526666 166.562031 226.526666 169.562031 
L 226.526666 190.437969 
Q 226.526666 193.437969 229.526666 193.437969 
z
" clip-path="url(#p17d4432a04)" style="fill: #ffffff; stroke: #ffffff; stroke-linejoin: miter"/>
    </g>
    <g clip-path="url(#p17d4432a04)">
     <!-- positively -->
     <g transform="translate(229.526666 177.160469)scale(0.1 -0.1)">
      <defs>
       <path id="DejaVuSans-70" d="M 1159 525 
L 1159 -1331 
L 581 -1331 
L 581 3500 
L 1159 3500 
L 1159 2969 
Q 1341 3281 1617 3432 
Q 1894 3584 2278 3584 
Q 2916 3584 3314 3078 
Q 3713 2572 3713 1747 
Q 3713 922 3314 415 
Q 2916 -91 2278 -91 
Q 1894 -91 1617 61 
Q 1341 213 1159 525 
z
M 3116 1747 
Q 3116 2381 2855 2742 
Q 2594 3103 2138 3103 
Q 1681 3103 1420 2742 
Q 1159 2381 1159 1747 
Q 1159 1113 1420 752 
Q 1681 391 2138 391 
Q 2594 391 2855 752 
Q 3116 1113 3116 1747 
z
" transform="scale(0.015625)"/>
       <path id="DejaVuSans-6f" d="M 1959 3097 
Q 1497 3097 1228 2736 
Q 959 2375 959 1747 
Q 959 1119 1226 758 
Q 1494 397 1959 397 
Q 2419 397 2687 759 
Q 2956 1122 2956 1747 
Q 2956 2369 2687 2733 
Q 2419 3097 1959 3097 
z
M 1959 3584 
Q 2709 3584 3137 3096 
Q 3566 2609 3566 1747 
Q 3566 888 3137 398 
Q 2709 -91 1959 -91 
Q 1206 -91 779 398 
Q 353 888 353 1747 
Q 353 2609 779 3096 
Q 1206 3584 1959 3584 
z
" transform="scale(0.015625)"/>
       <path id="DejaVuSans-73" d="M 2834 3397 
L 2834 2853 
Q 2591 2978 2328 3040 
Q 2066 3103 1784 3103 
Q 1356 3103 1142 2972 
Q 928 2841 928 2578 
Q 928 2378 1081 2264 
Q 1234 2150 1697 2047 
L 1894 2003 
Q 2506 1872 2764 1633 
Q 3022 1394 3022 966 
Q 3022 478 2636 193 
Q 2250 -91 1575 -91 
Q 1294 -91 989 -36 
Q 684 19 347 128 
L 347 722 
Q 666 556 975 473 
Q 1284 391 1588 391 
Q 1994 391 2212 530 
Q 2431 669 2431 922 
Q 2431 1156 2273 1281 
Q 2116 1406 1581 1522 
L 1381 1569 
Q 847 1681 609 1914 
Q 372 2147 372 2553 
Q 372 3047 722 3315 
Q 1072 3584 1716 3584 
Q 2034 3584 2315 3537 
Q 2597 3491 2834 3397 
z
" transform="scale(0.015625)"/>
       <path id="DejaVuSans-69" d="M 603 3500 
L 1178 3500 
L 1178 0 
L 603 0 
L 603 3500 
z
M 603 4863 
L 1178 4863 
L 1178 4134 
L 603 4134 
L 603 4863 
z
" transform="scale(0.015625)"/>
       <path id="DejaVuSans-74" d="M 1172 4494 
L 1172 3500 
L 2356 3500 
L 2356 3053 
L 1172 3053 
L 1172 1153 
Q 1172 725 1289 603 
Q 1406 481 1766 481 
L 2356 481 
L 2356 0 
L 1766 0 
Q 1100 0 847 248 
Q 594 497 594 1153 
L 594 3053 
L 172 3053 
L 172 3500 
L 594 3500 
L 594 4494 
L 1172 4494 
z
" transform="scale(0.015625)"/>
       <path id="DejaVuSans-76" d="M 191 3500 
L 800 3500 
L 1894 563 
L 2988 3500 
L 3597 3500 
L 2284 0 
L 1503 0 
L 191 3500 
z
" transform="scale(0.015625)"/>
       <path id="DejaVuSans-65" d="M 3597 1894 
L 3597 1613 
L 953 1613 
Q 991 1019 1311 708 
Q 1631 397 2203 397 
Q 2534 397 2845 478 
Q 3156 559 3463 722 
L 3463 178 
Q 3153 47 2828 -22 
Q 2503 -91 2169 -91 
Q 1331 -91 842 396 
Q 353 884 353 1716 
Q 353 2575 817 3079 
Q 1281 3584 2069 3584 
Q 2775 3584 3186 3129 
Q 3597 2675 3597 1894 
z
M 3022 2063 
Q 3016 2534 2758 2815 
Q 2500 3097 2075 3097 
Q 1594 3097 1305 2825 
Q 1016 2553 972 2059 
L 3022 2063 
z
" transform="scale(0.015625)"/>
       <path id="DejaVuSans-6c" d="M 603 4863 
L 1178 4863 
L 1178 0 
L 603 0 
L 603 4863 
z
" transform="scale(0.015625)"/>
       <path id="DejaVuSans-79" d="M 2059 -325 
Q 1816 -950 1584 -1140 
Q 1353 -1331 966 -1331 
L 506 -1331 
L 506 -850 
L 844 -850 
Q 1081 -850 1212 -737 
Q 1344 -625 1503 -206 
L 1606 56 
L 191 3500 
L 800 3500 
L 1894 763 
L 2988 3500 
L 3597 3500 
L 2059 -325 
z
" transform="scale(0.015625)"/>
      </defs>
      <use xlink:href="#DejaVuSans-70"/>
      <use xlink:href="#DejaVuSans-6f" x="63.476562"/>
      <use xlink:href="#DejaVuSans-73" x="124.658203"/>
      <use xlink:href="#DejaVuSans-69" x="176.757812"/>
      <use xlink:href="#DejaVuSans-74" x="204.541016"/>
      <use xlink:href="#DejaVuSans-69" x="243.75"/>
      <use xlink:href="#DejaVuSans-76" x="271.533203"/>
      <use xlink:href="#DejaVuSans-65" x="330.712891"/>
      <use xlink:href="#DejaVuSans-6c" x="392.236328"/>
      <use xlink:href="#DejaVuSans-79" x="420.019531"/>
     </g>
    </g>
    <g clip-path="url(#p17d4432a04)">
     <!-- regulates -->
     <g transform="translate(230.030572 188.358281)scale(0.1 -0.1)">
      <defs>
       <path id="DejaVuSans-72" d="M 2631 2963 
Q 2534 3019 2420 3045 
Q 2306 3072 2169 3072 
Q 1681 3072 1420 2755 
Q 1159 2438 1159 1844 
L 1159 0 
L 581 0 
L 581 3500 
L 1159 3500 
L 1159 2956 
Q 1341 3275 1631 3429 
Q 1922 3584 2338 3584 
Q 2397 3584 2469 3576 
Q 2541 3569 2628 3553 
L 2631 2963 
z
" transform="scale(0.015625)"/>
       <path id="DejaVuSans-67" d="M 2906 1791 
Q 2906 2416 2648 2759 
Q 2391 3103 1925 3103 
Q 1463 3103 1205 2759 
Q 947 2416 947 1791 
Q 947 1169 1205 825 
Q 1463 481 1925 481 
Q 2391 481 2648 825 
Q 2906 1169 2906 1791 
z
M 3481 434 
Q 3481 -459 3084 -895 
Q 2688 -1331 1869 -1331 
Q 1566 -1331 1297 -1286 
Q 1028 -1241 775 -1147 
L 775 -588 
Q 1028 -725 1275 -790 
Q 1522 -856 1778 -856 
Q 2344 -856 2625 -561 
Q 2906 -266 2906 331 
L 2906 616 
Q 2728 306 2450 153 
Q 2172 0 1784 0 
Q 1141 0 747 490 
Q 353 981 353 1791 
Q 353 2603 747 3093 
Q 1141 3584 1784 3584 
Q 2172 3584 2450 3431 
Q 2728 3278 2906 2969 
L 2906 3500 
L 3481 3500 
L 3481 434 
z
" transform="scale(0.015625)"/>
       <path id="DejaVuSans-75" d="M 544 1381 
L 544 3500 
L 1119 3500 
L 1119 1403 
Q 1119 906 1312 657 
Q 1506 409 1894 409 
Q 2359 409 2629 706 
Q 2900 1003 2900 1516 
L 2900 3500 
L 3475 3500 
L 3475 0 
L 2900 0 
L 2900 538 
Q 2691 219 2414 64 
Q 2138 -91 1772 -91 
Q 1169 -91 856 284 
Q 544 659 544 1381 
z
M 1991 3584 
L 1991 3584 
z
" transform="scale(0.015625)"/>
       <path id="DejaVuSans-61" d="M 2194 1759 
Q 1497 1759 1228 1600 
Q 959 1441 959 1056 
Q 959 750 1161 570 
Q 1363 391 1709 391 
Q 2188 391 2477 730 
Q 2766 1069 2766 1631 
L 2766 1759 
L 2194 1759 
z
M 3341 1997 
L 3341 0 
L 2766 0 
L 2766 531 
Q 2569 213 2275 61 
Q 1981 -91 1556 -91 
Q 1019 -91 701 211 
Q 384 513 384 1019 
Q 384 1609 779 1909 
Q 1175 2209 1959 2209 
L 2766 2209 
L 2766 2266 
Q 2766 2663 2505 2880 
Q 2244 3097 1772 3097 
Q 1472 3097 1187 3025 
Q 903 2953 641 2809 
L 641 3341 
Q 956 3463 1253 3523 
Q 1550 3584 1831 3584 
Q 2591 3584 2966 3190 
Q 3341 2797 3341 1997 
z
" transform="scale(0.015625)"/>
      </defs>
      <use xlink:href="#DejaVuSans-72"/>
      <use xlink:href="#DejaVuSans-65" x="38.863281"/>
      <use xlink:href="#DejaVuSans-67" x="100.386719"/>
      <use xlink:href="#DejaVuSans-75" x="163.863281"/>
      <use xlink:href="#DejaVuSans-6c" x="227.242188"/>
      <use xlink:href="#DejaVuSans-61" x="255.025391"/>
      <use xlink:href="#DejaVuSans-74" x="316.304688"/>
      <use xlink:href="#DejaVuSans-65" x="355.513672"/>
      <use xlink:href="#DejaVuSans-73" x="417.037109"/>
     </g>
    </g>
   </g>
   <g id="text_2">
    <g id="patch_5">
     <path d="M 572.856147 193.437969 
L 648.168647 193.437969 
Q 651.168647 193.437969 651.168647 190.437969 
L 651.168647 169.562031 
Q 651.168647 166.562031 648.168647 166.562031 
L 572.856147 166.562031 
Q 569.856147 166.562031 569.856147 169.562031 
L 569.856147 190.437969 
Q 569.856147 193.437969 572.856147 193.437969 
z
" clip-path="url(#p17d4432a04)" style="fill: #ffffff; stroke: #ffffff; stroke-linejoin: miter"/>
    </g>
    <g clip-path="url(#p17d4432a04)">
     <!-- negatively -->
     <g transform="translate(584.295209 177.160469)scale(0.1 -0.1)">
      <defs>
       <path id="DejaVuSans-6e" d="M 3513 2113 
L 3513 0 
L 2938 0 
L 2938 2094 
Q 2938 2591 2744 2837 
Q 2550 3084 2163 3084 
Q 1697 3084 1428 2787 
Q 1159 2491 1159 1978 
L 1159 0 
L 581 0 
L 581 3500 
L 1159 3500 
L 1159 2956 
Q 1366 3272 1645 3428 
Q 1925 3584 2291 3584 
Q 2894 3584 3203 3211 
Q 3513 2838 3513 2113 
z
" transform="scale(0.015625)"/>
      </defs>
      <use xlink:href="#DejaVuSans-6e"/>
      <use xlink:href="#DejaVuSans-65" x="63.378906"/>
      <use xlink:href="#DejaVuSans-67" x="124.902344"/>
      <use xlink:href="#DejaVuSans-61" x="188.378906"/>
      <use xlink:href="#DejaVuSans-74" x="249.658203"/>
      <use xlink:href="#DejaVuSans-69" x="288.867188"/>
      <use xlink:href="#DejaVuSans-76" x="316.650391"/>
      <use xlink:href="#DejaVuSans-65" x="375.830078"/>
      <use xlink:href="#DejaVuSans-6c" x="437.353516"/>
      <use xlink:href="#DejaVuSans-79" x="465.136719"/>
     </g>
    </g>
    <g clip-path="url(#p17d4432a04)">
     <!-- correlated with -->
     <g transform="translate(572.856147 188.358281)scale(0.1 -0.1)">
      <defs>
       <path id="DejaVuSans-63" d="M 3122 3366 
L 3122 2828 
Q 2878 2963 2633 3030 
Q 2388 3097 2138 3097 
Q 1578 3097 1268 2742 
Q 959 2388 959 1747 
Q 959 1106 1268 751 
Q 1578 397 2138 397 
Q 2388 397 2633 464 
Q 2878 531 3122 666 
L 3122 134 
Q 2881 22 2623 -34 
Q 2366 -91 2075 -91 
Q 1284 -91 818 406 
Q 353 903 353 1747 
Q 353 2603 823 3093 
Q 1294 3584 2113 3584 
Q 2378 3584 2631 3529 
Q 2884 3475 3122 3366 
z
" transform="scale(0.015625)"/>
       <path id="DejaVuSans-64" d="M 2906 2969 
L 2906 4863 
L 3481 4863 
L 3481 0 
L 2906 0 
L 2906 525 
Q 2725 213 2448 61 
Q 2172 -91 1784 -91 
Q 1150 -91 751 415 
Q 353 922 353 1747 
Q 353 2572 751 3078 
Q 1150 3584 1784 3584 
Q 2172 3584 2448 3432 
Q 2725 3281 2906 2969 
z
M 947 1747 
Q 947 1113 1208 752 
Q 1469 391 1925 391 
Q 2381 391 2643 752 
Q 2906 1113 2906 1747 
Q 2906 2381 2643 2742 
Q 2381 3103 1925 3103 
Q 1469 3103 1208 2742 
Q 947 2381 947 1747 
z
" transform="scale(0.015625)"/>
       <path id="DejaVuSans-20" transform="scale(0.015625)"/>
       <path id="DejaVuSans-77" d="M 269 3500 
L 844 3500 
L 1563 769 
L 2278 3500 
L 2956 3500 
L 3675 769 
L 4391 3500 
L 4966 3500 
L 4050 0 
L 3372 0 
L 2619 2869 
L 1863 0 
L 1184 0 
L 269 3500 
z
" transform="scale(0.015625)"/>
       <path id="DejaVuSans-68" d="M 3513 2113 
L 3513 0 
L 2938 0 
L 2938 2094 
Q 2938 2591 2744 2837 
Q 2550 3084 2163 3084 
Q 1697 3084 1428 2787 
Q 1159 2491 1159 1978 
L 1159 0 
L 581 0 
L 581 4863 
L 1159 4863 
L 1159 2956 
Q 1366 3272 1645 3428 
Q 1925 3584 2291 3584 
Q 2894 3584 3203 3211 
Q 3513 2838 3513 2113 
z
" transform="scale(0.015625)"/>
      </defs>
      <use xlink:href="#DejaVuSans-63"/>
      <use xlink:href="#DejaVuSans-6f" x="54.980469"/>
      <use xlink:href="#DejaVuSans-72" x="116.162109"/>
      <use xlink:href="#DejaVuSans-72" x="155.525391"/>
      <use xlink:href="#DejaVuSans-65" x="194.388672"/>
      <use xlink:href="#DejaVuSans-6c" x="255.912109"/>
      <use xlink:href="#DejaVuSans-61" x="283.695312"/>
      <use xlink:href="#DejaVuSans-74" x="344.974609"/>
      <use xlink:href="#DejaVuSans-65" x="384.183594"/>
      <use xlink:href="#DejaVuSans-64" x="445.707031"/>
      <use xlink:href="#DejaVuSans-20" x="509.183594"/>
      <use xlink:href="#DejaVuSans-77" x="540.970703"/>
      <use xlink:href="#DejaVuSans-69" x="622.757812"/>
      <use xlink:href="#DejaVuSans-74" x="650.541016"/>
      <use xlink:href="#DejaVuSans-68" x="689.75"/>
     </g>
    </g>
   </g>
   <g id="PathCollection_1">
    <defs>
     <path id="C0_0_5deac22492" d="M 0 52.440442 
C 13.907368 52.440442 27.246998 46.914987 37.080992 37.080992 
C 46.914987 27.246998 52.440442 13.907368 52.440442 -0 
C 52.440442 -13.907368 46.914987 -27.246998 37.080992 -37.080992 
C 27.246998 -46.914987 13.907368 -52.440442 0 -52.440442 
C -13.907368 -52.440442 -27.246998 -46.914987 -37.080992 -37.080992 
C -46.914987 -27.246998 -52.440442 -13.907368 -52.440442 0 
C -52.440442 13.907368 -46.914987 27.246998 -37.080992 37.080992 
C -27.246998 46.914987 -13.907368 52.440442 0 52.440442 
z
"/>
    </defs>
    <g clip-path="url(#p17d4432a04)">
     <use xlink:href="#C0_0_5deac22492" x="74.975207" y="180" style="fill: #01c472; stroke: #01c472"/>
    </g>
    <g clip-path="url(#p17d4432a04)">
     <use xlink:href="#C0_0_5deac22492" x="432" y="180" style="fill: #b75970; stroke: #b75970"/>
    </g>
    <g clip-path="url(#p17d4432a04)">
     <use xlink:href="#C0_0_5deac22492" x="789.024793" y="180" style="fill: #70c6ca; stroke: #70c6ca"/>
    </g>
   </g>
   <g id="text_3">
    <path d="M 403.799062 168.8895 
L 403.799062 172.3695 
L 402.715312 172.3695 
L 402.715312 163.311375 
L 403.799062 163.311375 
L 403.799062 164.307 
Q 404.140312 163.722 404.657812 163.438875 
Q 405.177187 163.153875 405.897187 163.153875 
Q 407.093437 163.153875 407.839687 164.102625 
Q 408.587812 165.051375 408.587812 166.59825 
Q 408.587812 168.145125 407.839687 169.09575 
Q 407.093437 170.0445 405.897187 170.0445 
Q 405.177187 170.0445 404.657812 169.7595 
Q 404.140312 169.4745 403.799062 168.8895 
z
M 407.468437 166.59825 
Q 407.468437 165.4095 406.979062 164.732625 
Q 406.489687 164.05575 405.634687 164.05575 
Q 404.777812 164.05575 404.288437 164.732625 
Q 403.799062 165.4095 403.799062 166.59825 
Q 403.799062 167.787 404.288437 168.463875 
Q 404.777812 169.14075 405.634687 169.14075 
Q 406.489687 169.14075 406.979062 168.463875 
Q 407.468437 167.787 407.468437 166.59825 
z
M 415.9875 166.322625 
L 415.9875 166.8495 
L 411.03 166.8495 
Q 411.10125 167.96325 411.70125 168.546375 
Q 412.30125 169.1295 413.37375 169.1295 
Q 413.994375 169.1295 414.5775 168.977625 
Q 415.160625 168.82575 415.73625 168.520125 
L 415.73625 169.540125 
Q 415.155 169.78575 414.545625 169.915125 
Q 413.93625 170.0445 413.31 170.0445 
Q 411.73875 170.0445 410.821875 169.131375 
Q 409.905 168.216375 409.905 166.656375 
Q 409.905 165.04575 410.775 164.10075 
Q 411.645 163.153875 413.1225 163.153875 
Q 414.44625 163.153875 415.216875 164.007 
Q 415.9875 164.85825 415.9875 166.322625 
z
M 414.909375 166.00575 
Q 414.898125 165.122625 414.414375 164.59575 
Q 413.930625 164.067 413.13375 164.067 
Q 412.231875 164.067 411.69 164.577 
Q 411.148125 165.087 411.065625 166.01325 
L 414.909375 166.00575 
z
M 421.559062 164.31825 
Q 421.377187 164.21325 421.163437 164.1645 
Q 420.949687 164.113875 420.692812 164.113875 
Q 419.777812 164.113875 419.288437 164.70825 
Q 418.799062 165.302625 418.799062 166.416375 
L 418.799062 169.873875 
L 417.715312 169.873875 
L 417.715312 163.311375 
L 418.799062 163.311375 
L 418.799062 164.331375 
Q 419.140312 163.73325 419.684062 163.4445 
Q 420.229687 163.153875 421.009687 163.153875 
Q 421.120312 163.153875 421.255312 163.168875 
Q 421.390312 163.182 421.553437 163.212 
L 421.559062 164.31825 
z
M 422.690156 163.311375 
L 423.768281 163.311375 
L 423.768281 169.873875 
L 422.690156 169.873875 
L 422.690156 163.311375 
z
M 422.690156 160.75575 
L 423.768281 160.75575 
L 423.768281 162.122625 
L 422.690156 162.122625 
L 422.690156 160.75575 
z
M 430.207266 163.5045 
L 430.207266 164.5245 
Q 429.751641 164.290125 429.258516 164.173875 
Q 428.767266 164.05575 428.238516 164.05575 
Q 427.436016 164.05575 427.034766 164.301375 
Q 426.633516 164.547 426.633516 165.040125 
Q 426.633516 165.415125 426.920391 165.628875 
Q 427.207266 165.842625 428.075391 166.03575 
L 428.444766 166.11825 
Q 429.592266 166.363875 430.076016 166.812 
Q 430.559766 167.260125 430.559766 168.062625 
Q 430.559766 168.977625 429.836016 169.512 
Q 429.112266 170.0445 427.846641 170.0445 
Q 427.319766 170.0445 426.747891 169.941375 
Q 426.176016 169.83825 425.544141 169.633875 
L 425.544141 168.520125 
Q 426.142266 168.831375 426.721641 168.987 
Q 427.301016 169.14075 427.871016 169.14075 
Q 428.632266 169.14075 429.041016 168.880125 
Q 429.451641 168.6195 429.451641 168.145125 
Q 429.451641 167.706375 429.155391 167.472 
Q 428.861016 167.237625 427.857891 167.020125 
L 427.482891 166.932 
Q 426.481641 166.722 426.035391 166.285125 
Q 425.591016 165.84825 425.591016 165.087 
Q 425.591016 164.16075 426.247266 163.65825 
Q 426.903516 163.153875 428.111016 163.153875 
Q 428.707266 163.153875 429.234141 163.242 
Q 429.762891 163.32825 430.207266 163.5045 
z
M 433.342969 161.447625 
L 433.342969 163.311375 
L 435.562969 163.311375 
L 435.562969 164.1495 
L 433.342969 164.1495 
L 433.342969 167.712 
Q 433.342969 168.5145 433.562344 168.74325 
Q 433.781719 168.972 434.456719 168.972 
L 435.562969 168.972 
L 435.562969 169.873875 
L 434.456719 169.873875 
Q 433.207969 169.873875 432.733594 169.408875 
Q 432.259219 168.942 432.259219 167.712 
L 432.259219 164.1495 
L 431.467969 164.1495 
L 431.467969 163.311375 
L 432.259219 163.311375 
L 432.259219 161.447625 
L 433.342969 161.447625 
z
M 439.964297 166.57575 
Q 438.657422 166.57575 438.153047 166.873875 
Q 437.648672 167.172 437.648672 167.893875 
Q 437.648672 168.467625 438.027422 168.805125 
Q 438.406172 169.14075 439.054922 169.14075 
Q 439.953047 169.14075 440.494922 168.505125 
Q 441.036797 167.8695 441.036797 166.81575 
L 441.036797 166.57575 
L 439.964297 166.57575 
z
M 442.114922 166.1295 
L 442.114922 169.873875 
L 441.036797 169.873875 
L 441.036797 168.87825 
Q 440.667422 169.4745 440.116172 169.7595 
Q 439.564922 170.0445 438.768047 170.0445 
Q 437.761172 170.0445 437.164922 169.47825 
Q 436.570547 168.912 436.570547 167.96325 
Q 436.570547 166.857 437.311172 166.2945 
Q 438.053672 165.732 439.523672 165.732 
L 441.036797 165.732 
L 441.036797 165.625125 
Q 441.036797 164.88075 440.547422 164.473875 
Q 440.058047 164.067 439.173047 164.067 
Q 438.610547 164.067 438.076172 164.202 
Q 437.543672 164.337 437.052422 164.607 
L 437.052422 163.6095 
Q 437.643047 163.38075 438.199922 163.26825 
Q 438.756797 163.153875 439.283672 163.153875 
Q 440.708672 163.153875 441.411797 163.892625 
Q 442.114922 164.6295 442.114922 166.1295 
z
M 444.334687 160.75575 
L 445.412812 160.75575 
L 445.412812 169.873875 
L 444.334687 169.873875 
L 444.334687 160.75575 
z
M 451.851797 163.5045 
L 451.851797 164.5245 
Q 451.396172 164.290125 450.903047 164.173875 
Q 450.411797 164.05575 449.883047 164.05575 
Q 449.080547 164.05575 448.679297 164.301375 
Q 448.278047 164.547 448.278047 165.040125 
Q 448.278047 165.415125 448.564922 165.628875 
Q 448.851797 165.842625 449.719922 166.03575 
L 450.089297 166.11825 
Q 451.236797 166.363875 451.720547 166.812 
Q 452.204297 167.260125 452.204297 168.062625 
Q 452.204297 168.977625 451.480547 169.512 
Q 450.756797 170.0445 449.491172 170.0445 
Q 448.964297 170.0445 448.392422 169.941375 
Q 447.820547 169.83825 447.188672 169.633875 
L 447.188672 168.520125 
Q 447.786797 168.831375 448.366172 168.987 
Q 448.945547 169.14075 449.515547 169.14075 
Q 450.276797 169.14075 450.685547 168.880125 
Q 451.096172 168.6195 451.096172 168.145125 
Q 451.096172 167.706375 450.799922 167.472 
Q 450.505547 167.237625 449.502422 167.020125 
L 449.127422 166.932 
Q 448.126172 166.722 447.679922 166.285125 
Q 447.235547 165.84825 447.235547 165.087 
Q 447.235547 164.16075 447.891797 163.65825 
Q 448.548047 163.153875 449.755547 163.153875 
Q 450.351797 163.153875 450.878672 163.242 
Q 451.407422 163.32825 451.851797 163.5045 
z
M 453.920625 163.311375 
L 454.99875 163.311375 
L 454.99875 169.873875 
L 453.920625 169.873875 
L 453.920625 163.311375 
z
M 453.920625 160.75575 
L 454.99875 160.75575 
L 454.99875 162.122625 
L 453.920625 162.122625 
L 453.920625 160.75575 
z
M 461.437734 163.5045 
L 461.437734 164.5245 
Q 460.982109 164.290125 460.488984 164.173875 
Q 459.997734 164.05575 459.468984 164.05575 
Q 458.666484 164.05575 458.265234 164.301375 
Q 457.863984 164.547 457.863984 165.040125 
Q 457.863984 165.415125 458.150859 165.628875 
Q 458.437734 165.842625 459.305859 166.03575 
L 459.675234 166.11825 
Q 460.822734 166.363875 461.306484 166.812 
Q 461.790234 167.260125 461.790234 168.062625 
Q 461.790234 168.977625 461.066484 169.512 
Q 460.342734 170.0445 459.077109 170.0445 
Q 458.550234 170.0445 457.978359 169.941375 
Q 457.406484 169.83825 456.774609 169.633875 
L 456.774609 168.520125 
Q 457.372734 168.831375 457.952109 168.987 
Q 458.531484 169.14075 459.101484 169.14075 
Q 459.862734 169.14075 460.271484 168.880125 
Q 460.682109 168.6195 460.682109 168.145125 
Q 460.682109 167.706375 460.385859 167.472 
Q 460.091484 167.237625 459.088359 167.020125 
L 458.713359 166.932 
Q 457.712109 166.722 457.265859 166.285125 
Q 456.821484 165.84825 456.821484 165.087 
Q 456.821484 164.16075 457.477734 163.65825 
Q 458.133984 163.153875 459.341484 163.153875 
Q 459.937734 163.153875 460.464609 163.242 
Q 460.993359 163.32825 461.437734 163.5045 
z
" clip-path="url(#p17d4432a04)" style="fill: #ffffff; stroke: #000000; stroke-width: 2"/>
    <path d="M 403.799062 168.8895 
L 403.799062 172.3695 
L 402.715312 172.3695 
L 402.715312 163.311375 
L 403.799062 163.311375 
L 403.799062 164.307 
Q 404.140312 163.722 404.657812 163.438875 
Q 405.177187 163.153875 405.897187 163.153875 
Q 407.093437 163.153875 407.839687 164.102625 
Q 408.587812 165.051375 408.587812 166.59825 
Q 408.587812 168.145125 407.839687 169.09575 
Q 407.093437 170.0445 405.897187 170.0445 
Q 405.177187 170.0445 404.657812 169.7595 
Q 404.140312 169.4745 403.799062 168.8895 
z
M 407.468437 166.59825 
Q 407.468437 165.4095 406.979062 164.732625 
Q 406.489687 164.05575 405.634687 164.05575 
Q 404.777812 164.05575 404.288437 164.732625 
Q 403.799062 165.4095 403.799062 166.59825 
Q 403.799062 167.787 404.288437 168.463875 
Q 404.777812 169.14075 405.634687 169.14075 
Q 406.489687 169.14075 406.979062 168.463875 
Q 407.468437 167.787 407.468437 166.59825 
z
M 415.9875 166.322625 
L 415.9875 166.8495 
L 411.03 166.8495 
Q 411.10125 167.96325 411.70125 168.546375 
Q 412.30125 169.1295 413.37375 169.1295 
Q 413.994375 169.1295 414.5775 168.977625 
Q 415.160625 168.82575 415.73625 168.520125 
L 415.73625 169.540125 
Q 415.155 169.78575 414.545625 169.915125 
Q 413.93625 170.0445 413.31 170.0445 
Q 411.73875 170.0445 410.821875 169.131375 
Q 409.905 168.216375 409.905 166.656375 
Q 409.905 165.04575 410.775 164.10075 
Q 411.645 163.153875 413.1225 163.153875 
Q 414.44625 163.153875 415.216875 164.007 
Q 415.9875 164.85825 415.9875 166.322625 
z
M 414.909375 166.00575 
Q 414.898125 165.122625 414.414375 164.59575 
Q 413.930625 164.067 413.13375 164.067 
Q 412.231875 164.067 411.69 164.577 
Q 411.148125 165.087 411.065625 166.01325 
L 414.909375 166.00575 
z
M 421.559062 164.31825 
Q 421.377187 164.21325 421.163437 164.1645 
Q 420.949687 164.113875 420.692812 164.113875 
Q 419.777812 164.113875 419.288437 164.70825 
Q 418.799062 165.302625 418.799062 166.416375 
L 418.799062 169.873875 
L 417.715312 169.873875 
L 417.715312 163.311375 
L 418.799062 163.311375 
L 418.799062 164.331375 
Q 419.140312 163.73325 419.684062 163.4445 
Q 420.229687 163.153875 421.009687 163.153875 
Q 421.120312 163.153875 421.255312 163.168875 
Q 421.390312 163.182 421.553437 163.212 
L 421.559062 164.31825 
z
M 422.690156 163.311375 
L 423.768281 163.311375 
L 423.768281 169.873875 
L 422.690156 169.873875 
L 422.690156 163.311375 
z
M 422.690156 160.75575 
L 423.768281 160.75575 
L 423.768281 162.122625 
L 422.690156 162.122625 
L 422.690156 160.75575 
z
M 430.207266 163.5045 
L 430.207266 164.5245 
Q 429.751641 164.290125 429.258516 164.173875 
Q 428.767266 164.05575 428.238516 164.05575 
Q 427.436016 164.05575 427.034766 164.301375 
Q 426.633516 164.547 426.633516 165.040125 
Q 426.633516 165.415125 426.920391 165.628875 
Q 427.207266 165.842625 428.075391 166.03575 
L 428.444766 166.11825 
Q 429.592266 166.363875 430.076016 166.812 
Q 430.559766 167.260125 430.559766 168.062625 
Q 430.559766 168.977625 429.836016 169.512 
Q 429.112266 170.0445 427.846641 170.0445 
Q 427.319766 170.0445 426.747891 169.941375 
Q 426.176016 169.83825 425.544141 169.633875 
L 425.544141 168.520125 
Q 426.142266 168.831375 426.721641 168.987 
Q 427.301016 169.14075 427.871016 169.14075 
Q 428.632266 169.14075 429.041016 168.880125 
Q 429.451641 168.6195 429.451641 168.145125 
Q 429.451641 167.706375 429.155391 167.472 
Q 428.861016 167.237625 427.857891 167.020125 
L 427.482891 166.932 
Q 426.481641 166.722 426.035391 166.285125 
Q 425.591016 165.84825 425.591016 165.087 
Q 425.591016 164.16075 426.247266 163.65825 
Q 426.903516 163.153875 428.111016 163.153875 
Q 428.707266 163.153875 429.234141 163.242 
Q 429.762891 163.32825 430.207266 163.5045 
z
M 433.342969 161.447625 
L 433.342969 163.311375 
L 435.562969 163.311375 
L 435.562969 164.1495 
L 433.342969 164.1495 
L 433.342969 167.712 
Q 433.342969 168.5145 433.562344 168.74325 
Q 433.781719 168.972 434.456719 168.972 
L 435.562969 168.972 
L 435.562969 169.873875 
L 434.456719 169.873875 
Q 433.207969 169.873875 432.733594 169.408875 
Q 432.259219 168.942 432.259219 167.712 
L 432.259219 164.1495 
L 431.467969 164.1495 
L 431.467969 163.311375 
L 432.259219 163.311375 
L 432.259219 161.447625 
L 433.342969 161.447625 
z
M 439.964297 166.57575 
Q 438.657422 166.57575 438.153047 166.873875 
Q 437.648672 167.172 437.648672 167.893875 
Q 437.648672 168.467625 438.027422 168.805125 
Q 438.406172 169.14075 439.054922 169.14075 
Q 439.953047 169.14075 440.494922 168.505125 
Q 441.036797 167.8695 441.036797 166.81575 
L 441.036797 166.57575 
L 439.964297 166.57575 
z
M 442.114922 166.1295 
L 442.114922 169.873875 
L 441.036797 169.873875 
L 441.036797 168.87825 
Q 440.667422 169.4745 440.116172 169.7595 
Q 439.564922 170.0445 438.768047 170.0445 
Q 437.761172 170.0445 437.164922 169.47825 
Q 436.570547 168.912 436.570547 167.96325 
Q 436.570547 166.857 437.311172 166.2945 
Q 438.053672 165.732 439.523672 165.732 
L 441.036797 165.732 
L 441.036797 165.625125 
Q 441.036797 164.88075 440.547422 164.473875 
Q 440.058047 164.067 439.173047 164.067 
Q 438.610547 164.067 438.076172 164.202 
Q 437.543672 164.337 437.052422 164.607 
L 437.052422 163.6095 
Q 437.643047 163.38075 438.199922 163.26825 
Q 438.756797 163.153875 439.283672 163.153875 
Q 440.708672 163.153875 441.411797 163.892625 
Q 442.114922 164.6295 442.114922 166.1295 
z
M 444.334687 160.75575 
L 445.412812 160.75575 
L 445.412812 169.873875 
L 444.334687 169.873875 
L 444.334687 160.75575 
z
M 451.851797 163.5045 
L 451.851797 164.5245 
Q 451.396172 164.290125 450.903047 164.173875 
Q 450.411797 164.05575 449.883047 164.05575 
Q 449.080547 164.05575 448.679297 164.301375 
Q 448.278047 164.547 448.278047 165.040125 
Q 448.278047 165.415125 448.564922 165.628875 
Q 448.851797 165.842625 449.719922 166.03575 
L 450.089297 166.11825 
Q 451.236797 166.363875 451.720547 166.812 
Q 452.204297 167.260125 452.204297 168.062625 
Q 452.204297 168.977625 451.480547 169.512 
Q 450.756797 170.0445 449.491172 170.0445 
Q 448.964297 170.0445 448.392422 169.941375 
Q 447.820547 169.83825 447.188672 169.633875 
L 447.188672 168.520125 
Q 447.786797 168.831375 448.366172 168.987 
Q 448.945547 169.14075 449.515547 169.14075 
Q 450.276797 169.14075 450.685547 168.880125 
Q 451.096172 168.6195 451.096172 168.145125 
Q 451.096172 167.706375 450.799922 167.472 
Q 450.505547 167.237625 449.502422 167.020125 
L 449.127422 166.932 
Q 448.126172 166.722 447.679922 166.285125 
Q 447.235547 165.84825 447.235547 165.087 
Q 447.235547 164.16075 447.891797 163.65825 
Q 448.548047 163.153875 449.755547 163.153875 
Q 450.351797 163.153875 450.878672 163.242 
Q 451.407422 163.32825 451.851797 163.5045 
z
M 453.920625 163.311375 
L 454.99875 163.311375 
L 454.99875 169.873875 
L 453.920625 169.873875 
L 453.920625 163.311375 
z
M 453.920625 160.75575 
L 454.99875 160.75575 
L 454.99875 162.122625 
L 453.920625 162.122625 
L 453.920625 160.75575 
z
M 461.437734 163.5045 
L 461.437734 164.5245 
Q 460.982109 164.290125 460.488984 164.173875 
Q 459.997734 164.05575 459.468984 164.05575 
Q 458.666484 164.05575 458.265234 164.301375 
Q 457.863984 164.547 457.863984 165.040125 
Q 457.863984 165.415125 458.150859 165.628875 
Q 458.437734 165.842625 459.305859 166.03575 
L 459.675234 166.11825 
Q 460.822734 166.363875 461.306484 166.812 
Q 461.790234 167.260125 461.790234 168.062625 
Q 461.790234 168.977625 461.066484 169.512 
Q 460.342734 170.0445 459.077109 170.0445 
Q 458.550234 170.0445 457.978359 169.941375 
Q 457.406484 169.83825 456.774609 169.633875 
L 456.774609 168.520125 
Q 457.372734 168.831375 457.952109 168.987 
Q 458.531484 169.14075 459.101484 169.14075 
Q 459.862734 169.14075 460.271484 168.880125 
Q 460.682109 168.6195 460.682109 168.145125 
Q 460.682109 167.706375 460.385859 167.472 
Q 460.091484 167.237625 459.088359 167.020125 
L 458.713359 166.932 
Q 457.712109 166.722 457.265859 166.285125 
Q 456.821484 165.84825 456.821484 165.087 
Q 456.821484 164.16075 457.477734 163.65825 
Q 458.133984 163.153875 459.341484 163.153875 
Q 459.937734 163.153875 460.464609 163.242 
Q 460.993359 163.32825 461.437734 163.5045 
z
" clip-path="url(#p17d4432a04)" style="fill: #ffffff"/>
    <path d="M 401.130937 182.0625 
L 401.130937 179.713125 
L 399.197812 179.713125 
L 399.197812 178.74 
L 402.302812 178.74 
L 402.302812 182.4975 
Q 401.618437 182.983125 400.791562 183.2325 
Q 399.966562 183.481875 399.029062 183.481875 
Q 396.977812 183.481875 395.819062 182.28375 
Q 394.662187 181.08375 394.662187 178.94625 
Q 394.662187 176.80125 395.819062 175.603125 
Q 396.977812 174.405 399.029062 174.405 
Q 399.884062 174.405 400.654687 174.616875 
Q 401.425312 174.826875 402.075937 175.2375 
L 402.075937 176.4975 
Q 401.419687 175.940625 400.680937 175.659375 
Q 399.942187 175.378125 399.128437 175.378125 
Q 397.521562 175.378125 396.715312 176.274375 
Q 395.910937 177.170625 395.910937 178.94625 
Q 395.910937 180.71625 396.715312 181.6125 
Q 397.521562 182.50875 399.128437 182.50875 
Q 399.754687 182.50875 400.245937 182.4 
Q 400.739062 182.29125 401.130937 182.0625 
z
M 408.016641 175.365 
Q 406.726641 175.365 405.967266 176.326875 
Q 405.209766 177.286875 405.209766 178.94625 
Q 405.209766 180.598125 405.967266 181.56 
Q 406.726641 182.52 408.016641 182.52 
Q 409.304766 182.52 410.058516 181.56 
Q 410.812266 180.598125 410.812266 178.94625 
Q 410.812266 177.286875 410.058516 176.326875 
Q 409.304766 175.365 408.016641 175.365 
z
M 408.016641 174.405 
Q 409.856016 174.405 410.956641 175.63875 
Q 412.059141 176.8725 412.059141 178.94625 
Q 412.059141 181.014375 410.956641 182.248125 
Q 409.856016 183.481875 408.016641 183.481875 
Q 406.171641 183.481875 405.065391 182.251875 
Q 403.961016 181.02 403.961016 178.94625 
Q 403.961016 176.8725 405.065391 175.63875 
Q 406.171641 174.405 408.016641 174.405 
z
M 413.929453 181.8225 
L 415.165078 181.8225 
L 415.165078 183.31125 
L 413.929453 183.31125 
L 413.929453 181.8225 
z
M 413.929453 177.106875 
L 415.165078 177.106875 
L 415.165078 178.59375 
L 413.929453 178.59375 
L 413.929453 177.106875 
z
M 420.379922 175.3425 
Q 419.466797 175.3425 419.005547 176.2425 
Q 418.546172 177.140625 418.546172 178.94625 
Q 418.546172 180.744375 419.005547 181.644375 
Q 419.466797 182.544375 420.379922 182.544375 
Q 421.300547 182.544375 421.759922 181.644375 
Q 422.221172 180.744375 422.221172 178.94625 
Q 422.221172 177.140625 421.759922 176.2425 
Q 421.300547 175.3425 420.379922 175.3425 
z
M 420.379922 174.405 
Q 421.851797 174.405 422.628047 175.569375 
Q 423.404297 176.731875 423.404297 178.94625 
Q 423.404297 181.155 422.628047 182.319375 
Q 421.851797 183.481875 420.379922 183.481875 
Q 418.909922 183.481875 418.133672 182.319375 
Q 417.357422 181.155 417.357422 178.94625 
Q 417.357422 176.731875 418.133672 175.569375 
Q 418.909922 174.405 420.379922 174.405 
z
M 428.014687 175.3425 
Q 427.101562 175.3425 426.640312 176.2425 
Q 426.180937 177.140625 426.180937 178.94625 
Q 426.180937 180.744375 426.640312 181.644375 
Q 427.101562 182.544375 428.014687 182.544375 
Q 428.935312 182.544375 429.394687 181.644375 
Q 429.855937 180.744375 429.855937 178.94625 
Q 429.855937 177.140625 429.394687 176.2425 
Q 428.935312 175.3425 428.014687 175.3425 
z
M 428.014687 174.405 
Q 429.486562 174.405 430.262812 175.569375 
Q 431.039062 176.731875 431.039062 178.94625 
Q 431.039062 181.155 430.262812 182.319375 
Q 429.486562 183.481875 428.014687 183.481875 
Q 426.544687 183.481875 425.768437 182.319375 
Q 424.992187 181.155 424.992187 178.94625 
Q 424.992187 176.731875 425.768437 175.569375 
Q 426.544687 174.405 428.014687 174.405 
z
M 436.705078 178.59375 
Q 437.554453 178.775625 438.030703 179.35125 
Q 438.508828 179.925 438.508828 180.76875 
Q 438.508828 182.0625 437.618203 182.773125 
Q 436.727578 183.481875 435.086953 183.481875 
Q 434.537578 183.481875 433.954453 183.373125 
Q 433.371328 183.264375 432.750703 183.046875 
L 432.750703 181.905 
Q 433.241953 182.191875 433.826953 182.338125 
Q 434.413828 182.484375 435.053203 182.484375 
Q 436.165078 182.484375 436.748203 182.045625 
Q 437.331328 181.606875 437.331328 180.76875 
Q 437.331328 179.994375 436.789453 179.559375 
Q 436.247578 179.1225 435.281953 179.1225 
L 434.261953 179.1225 
L 434.261953 178.149375 
L 435.328828 178.149375 
Q 436.200703 178.149375 436.663828 177.800625 
Q 437.126953 177.451875 437.126953 176.795625 
Q 437.126953 176.1225 436.648828 175.7625 
Q 436.172578 175.400625 435.281953 175.400625 
Q 434.794453 175.400625 434.237578 175.5075 
Q 433.680703 175.6125 433.013203 175.83375 
L 433.013203 174.78 
Q 433.688203 174.5925 434.276953 174.49875 
Q 434.865703 174.405 435.386953 174.405 
Q 436.735078 174.405 437.518828 175.018125 
Q 438.304453 175.629375 438.304453 176.671875 
Q 438.304453 177.399375 437.888203 177.9 
Q 437.471953 178.400625 436.705078 178.59375 
z
M 443.284219 175.3425 
Q 442.371094 175.3425 441.909844 176.2425 
Q 441.450469 177.140625 441.450469 178.94625 
Q 441.450469 180.744375 441.909844 181.644375 
Q 442.371094 182.544375 443.284219 182.544375 
Q 444.204844 182.544375 444.664219 181.644375 
Q 445.125469 180.744375 445.125469 178.94625 
Q 445.125469 177.140625 444.664219 176.2425 
Q 444.204844 175.3425 443.284219 175.3425 
z
M 443.284219 174.405 
Q 444.756094 174.405 445.532344 175.569375 
Q 446.308594 176.731875 446.308594 178.94625 
Q 446.308594 181.155 445.532344 182.319375 
Q 444.756094 183.481875 443.284219 183.481875 
Q 441.814219 183.481875 441.037969 182.319375 
Q 440.261719 181.155 440.261719 178.94625 
Q 440.261719 176.731875 441.037969 175.569375 
Q 441.814219 174.405 443.284219 174.405 
z
M 451.640859 175.59375 
L 448.652109 180.264375 
L 451.640859 180.264375 
L 451.640859 175.59375 
z
M 451.329609 174.5625 
L 452.818359 174.5625 
L 452.818359 180.264375 
L 454.067109 180.264375 
L 454.067109 181.24875 
L 452.818359 181.24875 
L 452.818359 183.31125 
L 451.640859 183.31125 
L 451.640859 181.24875 
L 447.692109 181.24875 
L 447.692109 180.106875 
L 451.329609 174.5625 
z
M 459.609375 178.59375 
Q 460.45875 178.775625 460.935 179.35125 
Q 461.413125 179.925 461.413125 180.76875 
Q 461.413125 182.0625 460.5225 182.773125 
Q 459.631875 183.481875 457.99125 183.481875 
Q 457.441875 183.481875 456.85875 183.373125 
Q 456.275625 183.264375 455.655 183.046875 
L 455.655 181.905 
Q 456.14625 182.191875 456.73125 182.338125 
Q 457.318125 182.484375 457.9575 182.484375 
Q 459.069375 182.484375 459.6525 182.045625 
Q 460.235625 181.606875 460.235625 180.76875 
Q 460.235625 179.994375 459.69375 179.559375 
Q 459.151875 179.1225 458.18625 179.1225 
L 457.16625 179.1225 
L 457.16625 178.149375 
L 458.233125 178.149375 
Q 459.105 178.149375 459.568125 177.800625 
Q 460.03125 177.451875 460.03125 176.795625 
Q 460.03125 176.1225 459.553125 175.7625 
Q 459.076875 175.400625 458.18625 175.400625 
Q 457.69875 175.400625 457.141875 175.5075 
Q 456.585 175.6125 455.9175 175.83375 
L 455.9175 174.78 
Q 456.5925 174.5925 457.18125 174.49875 
Q 457.77 174.405 458.29125 174.405 
Q 459.639375 174.405 460.423125 175.018125 
Q 461.20875 175.629375 461.20875 176.671875 
Q 461.20875 177.399375 460.7925 177.9 
Q 460.37625 178.400625 459.609375 178.59375 
z
M 464.677266 182.315625 
L 468.807891 182.315625 
L 468.807891 183.31125 
L 463.254141 183.31125 
L 463.254141 182.315625 
Q 463.927266 181.618125 465.089766 180.444375 
Q 466.254141 179.26875 466.552266 178.9275 
Q 467.120391 178.29 467.345391 177.8475 
Q 467.572266 177.405 467.572266 176.9775 
Q 467.572266 176.28 467.082891 175.84125 
Q 466.593516 175.400625 465.807891 175.400625 
Q 465.251016 175.400625 464.632266 175.59375 
Q 464.015391 175.786875 463.312266 176.180625 
L 463.312266 174.984375 
Q 464.026641 174.6975 464.647266 174.55125 
Q 465.269766 174.405 465.785391 174.405 
Q 467.144766 174.405 467.952891 175.085625 
Q 468.761016 175.764375 468.761016 176.900625 
Q 468.761016 177.440625 468.558516 177.924375 
Q 468.357891 178.40625 467.823516 179.0625 
Q 467.677266 179.233125 466.891641 180.045 
Q 466.107891 180.856875 464.677266 182.315625 
z
" clip-path="url(#p17d4432a04)" style="fill: #ffffff; stroke: #000000; stroke-width: 2"/>
    <path d="M 401.130937 182.0625 
L 401.130937 179.713125 
L 399.197812 179.713125 
L 399.197812 178.74 
L 402.302812 178.74 
L 402.302812 182.4975 
Q 401.618437 182.983125 400.791562 183.2325 
Q 399.966562 183.481875 399.029062 183.481875 
Q 396.977812 183.481875 395.819062 182.28375 
Q 394.662187 181.08375 394.662187 178.94625 
Q 394.662187 176.80125 395.819062 175.603125 
Q 396.977812 174.405 399.029062 174.405 
Q 399.884062 174.405 400.654687 174.616875 
Q 401.425312 174.826875 402.075937 175.2375 
L 402.075937 176.4975 
Q 401.419687 175.940625 400.680937 175.659375 
Q 399.942187 175.378125 399.128437 175.378125 
Q 397.521562 175.378125 396.715312 176.274375 
Q 395.910937 177.170625 395.910937 178.94625 
Q 395.910937 180.71625 396.715312 181.6125 
Q 397.521562 182.50875 399.128437 182.50875 
Q 399.754687 182.50875 400.245937 182.4 
Q 400.739062 182.29125 401.130937 182.0625 
z
M 408.016641 175.365 
Q 406.726641 175.365 405.967266 176.326875 
Q 405.209766 177.286875 405.209766 178.94625 
Q 405.209766 180.598125 405.967266 181.56 
Q 406.726641 182.52 408.016641 182.52 
Q 409.304766 182.52 410.058516 181.56 
Q 410.812266 180.598125 410.812266 178.94625 
Q 410.812266 177.286875 410.058516 176.326875 
Q 409.304766 175.365 408.016641 175.365 
z
M 408.016641 174.405 
Q 409.856016 174.405 410.956641 175.63875 
Q 412.059141 176.8725 412.059141 178.94625 
Q 412.059141 181.014375 410.956641 182.248125 
Q 409.856016 183.481875 408.016641 183.481875 
Q 406.171641 183.481875 405.065391 182.251875 
Q 403.961016 181.02 403.961016 178.94625 
Q 403.961016 176.8725 405.065391 175.63875 
Q 406.171641 174.405 408.016641 174.405 
z
M 413.929453 181.8225 
L 415.165078 181.8225 
L 415.165078 183.31125 
L 413.929453 183.31125 
L 413.929453 181.8225 
z
M 413.929453 177.106875 
L 415.165078 177.106875 
L 415.165078 178.59375 
L 413.929453 178.59375 
L 413.929453 177.106875 
z
M 420.379922 175.3425 
Q 419.466797 175.3425 419.005547 176.2425 
Q 418.546172 177.140625 418.546172 178.94625 
Q 418.546172 180.744375 419.005547 181.644375 
Q 419.466797 182.544375 420.379922 182.544375 
Q 421.300547 182.544375 421.759922 181.644375 
Q 422.221172 180.744375 422.221172 178.94625 
Q 422.221172 177.140625 421.759922 176.2425 
Q 421.300547 175.3425 420.379922 175.3425 
z
M 420.379922 174.405 
Q 421.851797 174.405 422.628047 175.569375 
Q 423.404297 176.731875 423.404297 178.94625 
Q 423.404297 181.155 422.628047 182.319375 
Q 421.851797 183.481875 420.379922 183.481875 
Q 418.909922 183.481875 418.133672 182.319375 
Q 417.357422 181.155 417.357422 178.94625 
Q 417.357422 176.731875 418.133672 175.569375 
Q 418.909922 174.405 420.379922 174.405 
z
M 428.014687 175.3425 
Q 427.101562 175.3425 426.640312 176.2425 
Q 426.180937 177.140625 426.180937 178.94625 
Q 426.180937 180.744375 426.640312 181.644375 
Q 427.101562 182.544375 428.014687 182.544375 
Q 428.935312 182.544375 429.394687 181.644375 
Q 429.855937 180.744375 429.855937 178.94625 
Q 429.855937 177.140625 429.394687 176.2425 
Q 428.935312 175.3425 428.014687 175.3425 
z
M 428.014687 174.405 
Q 429.486562 174.405 430.262812 175.569375 
Q 431.039062 176.731875 431.039062 178.94625 
Q 431.039062 181.155 430.262812 182.319375 
Q 429.486562 183.481875 428.014687 183.481875 
Q 426.544687 183.481875 425.768437 182.319375 
Q 424.992187 181.155 424.992187 178.94625 
Q 424.992187 176.731875 425.768437 175.569375 
Q 426.544687 174.405 428.014687 174.405 
z
M 436.705078 178.59375 
Q 437.554453 178.775625 438.030703 179.35125 
Q 438.508828 179.925 438.508828 180.76875 
Q 438.508828 182.0625 437.618203 182.773125 
Q 436.727578 183.481875 435.086953 183.481875 
Q 434.537578 183.481875 433.954453 183.373125 
Q 433.371328 183.264375 432.750703 183.046875 
L 432.750703 181.905 
Q 433.241953 182.191875 433.826953 182.338125 
Q 434.413828 182.484375 435.053203 182.484375 
Q 436.165078 182.484375 436.748203 182.045625 
Q 437.331328 181.606875 437.331328 180.76875 
Q 437.331328 179.994375 436.789453 179.559375 
Q 436.247578 179.1225 435.281953 179.1225 
L 434.261953 179.1225 
L 434.261953 178.149375 
L 435.328828 178.149375 
Q 436.200703 178.149375 436.663828 177.800625 
Q 437.126953 177.451875 437.126953 176.795625 
Q 437.126953 176.1225 436.648828 175.7625 
Q 436.172578 175.400625 435.281953 175.400625 
Q 434.794453 175.400625 434.237578 175.5075 
Q 433.680703 175.6125 433.013203 175.83375 
L 433.013203 174.78 
Q 433.688203 174.5925 434.276953 174.49875 
Q 434.865703 174.405 435.386953 174.405 
Q 436.735078 174.405 437.518828 175.018125 
Q 438.304453 175.629375 438.304453 176.671875 
Q 438.304453 177.399375 437.888203 177.9 
Q 437.471953 178.400625 436.705078 178.59375 
z
M 443.284219 175.3425 
Q 442.371094 175.3425 441.909844 176.2425 
Q 441.450469 177.140625 441.450469 178.94625 
Q 441.450469 180.744375 441.909844 181.644375 
Q 442.371094 182.544375 443.284219 182.544375 
Q 444.204844 182.544375 444.664219 181.644375 
Q 445.125469 180.744375 445.125469 178.94625 
Q 445.125469 177.140625 444.664219 176.2425 
Q 444.204844 175.3425 443.284219 175.3425 
z
M 443.284219 174.405 
Q 444.756094 174.405 445.532344 175.569375 
Q 446.308594 176.731875 446.308594 178.94625 
Q 446.308594 181.155 445.532344 182.319375 
Q 444.756094 183.481875 443.284219 183.481875 
Q 441.814219 183.481875 441.037969 182.319375 
Q 440.261719 181.155 440.261719 178.94625 
Q 440.261719 176.731875 441.037969 175.569375 
Q 441.814219 174.405 443.284219 174.405 
z
M 451.640859 175.59375 
L 448.652109 180.264375 
L 451.640859 180.264375 
L 451.640859 175.59375 
z
M 451.329609 174.5625 
L 452.818359 174.5625 
L 452.818359 180.264375 
L 454.067109 180.264375 
L 454.067109 181.24875 
L 452.818359 181.24875 
L 452.818359 183.31125 
L 451.640859 183.31125 
L 451.640859 181.24875 
L 447.692109 181.24875 
L 447.692109 180.106875 
L 451.329609 174.5625 
z
M 459.609375 178.59375 
Q 460.45875 178.775625 460.935 179.35125 
Q 461.413125 179.925 461.413125 180.76875 
Q 461.413125 182.0625 460.5225 182.773125 
Q 459.631875 183.481875 457.99125 183.481875 
Q 457.441875 183.481875 456.85875 183.373125 
Q 456.275625 183.264375 455.655 183.046875 
L 455.655 181.905 
Q 456.14625 182.191875 456.73125 182.338125 
Q 457.318125 182.484375 457.9575 182.484375 
Q 459.069375 182.484375 459.6525 182.045625 
Q 460.235625 181.606875 460.235625 180.76875 
Q 460.235625 179.994375 459.69375 179.559375 
Q 459.151875 179.1225 458.18625 179.1225 
L 457.16625 179.1225 
L 457.16625 178.149375 
L 458.233125 178.149375 
Q 459.105 178.149375 459.568125 177.800625 
Q 460.03125 177.451875 460.03125 176.795625 
Q 460.03125 176.1225 459.553125 175.7625 
Q 459.076875 175.400625 458.18625 175.400625 
Q 457.69875 175.400625 457.141875 175.5075 
Q 456.585 175.6125 455.9175 175.83375 
L 455.9175 174.78 
Q 456.5925 174.5925 457.18125 174.49875 
Q 457.77 174.405 458.29125 174.405 
Q 459.639375 174.405 460.423125 175.018125 
Q 461.20875 175.629375 461.20875 176.671875 
Q 461.20875 177.399375 460.7925 177.9 
Q 460.37625 178.400625 459.609375 178.59375 
z
M 464.677266 182.315625 
L 468.807891 182.315625 
L 468.807891 183.31125 
L 463.254141 183.31125 
L 463.254141 182.315625 
Q 463.927266 181.618125 465.089766 180.444375 
Q 466.254141 179.26875 466.552266 178.9275 
Q 467.120391 178.29 467.345391 177.8475 
Q 467.572266 177.405 467.572266 176.9775 
Q 467.572266 176.28 467.082891 175.84125 
Q 466.593516 175.400625 465.807891 175.400625 
Q 465.251016 175.400625 464.632266 175.59375 
Q 464.015391 175.786875 463.312266 176.180625 
L 463.312266 174.984375 
Q 464.026641 174.6975 464.647266 174.55125 
Q 465.269766 174.405 465.785391 174.405 
Q 467.144766 174.405 467.952891 175.085625 
Q 468.761016 175.764375 468.761016 176.900625 
Q 468.761016 177.440625 468.558516 177.924375 
Q 468.357891 178.40625 467.823516 179.0625 
Q 467.677266 179.233125 466.891641 180.045 
Q 466.107891 180.856875 464.677266 182.315625 
z
" clip-path="url(#p17d4432a04)" style="fill: #ffffff"/>
    <path d="M 382.69125 192.571125 
L 382.69125 195.7755 
L 384.590625 195.7755 
Q 385.545 195.7755 386.004375 195.379875 
Q 386.465625 194.98425 386.465625 194.1705 
Q 386.465625 193.34925 386.004375 192.961125 
Q 385.545 192.571125 384.590625 192.571125 
L 382.69125 192.571125 
z
M 382.69125 188.973 
L 382.69125 191.60925 
L 384.444375 191.60925 
Q 385.310625 191.60925 385.734375 191.284875 
Q 386.16 190.958625 386.16 190.291125 
Q 386.16 189.62925 385.734375 189.301125 
Q 385.310625 188.973 384.444375 188.973 
L 382.69125 188.973 
z
M 381.508125 187.999875 
L 384.5325 187.999875 
Q 385.88625 187.999875 386.6175 188.562375 
Q 387.350625 189.124875 387.350625 190.16175 
Q 387.350625 190.966125 386.975625 191.4405 
Q 386.600625 191.914875 385.873125 192.031125 
Q 386.746875 192.218625 387.230625 192.814875 
Q 387.714375 193.40925 387.714375 194.299875 
Q 387.714375 195.47175 386.9175 196.111125 
Q 386.120625 196.748625 384.64875 196.748625 
L 381.508125 196.748625 
L 381.508125 187.999875 
z
M 389.693672 190.186125 
L 390.771797 190.186125 
L 390.771797 196.748625 
L 389.693672 196.748625 
L 389.693672 190.186125 
z
M 389.693672 187.6305 
L 390.771797 187.6305 
L 390.771797 188.997375 
L 389.693672 188.997375 
L 389.693672 187.6305 
z
M 395.570156 190.94175 
Q 394.703906 190.94175 394.199531 191.618625 
Q 393.695156 192.2955 393.695156 193.473 
Q 393.695156 194.6505 394.195781 195.327375 
Q 394.698281 196.00425 395.570156 196.00425 
Q 396.432656 196.00425 396.935156 195.3255 
Q 397.439531 194.644875 397.439531 193.473 
Q 397.439531 192.30675 396.935156 191.62425 
Q 396.432656 190.94175 395.570156 190.94175 
z
M 395.570156 190.028625 
Q 396.976406 190.028625 397.778906 190.943625 
Q 398.583281 191.85675 398.583281 193.473 
Q 398.583281 195.083625 397.778906 196.002375 
Q 396.976406 196.91925 395.570156 196.91925 
Q 394.158281 196.91925 393.357656 196.002375 
Q 392.558906 195.083625 392.558906 193.473 
Q 392.558906 191.85675 393.357656 190.943625 
Q 394.158281 190.028625 395.570156 190.028625 
z
M 400.369453 187.6305 
L 401.447578 187.6305 
L 401.447578 196.748625 
L 400.369453 196.748625 
L 400.369453 187.6305 
z
M 406.245937 190.94175 
Q 405.379687 190.94175 404.875312 191.618625 
Q 404.370937 192.2955 404.370937 193.473 
Q 404.370937 194.6505 404.871562 195.327375 
Q 405.374062 196.00425 406.245937 196.00425 
Q 407.108437 196.00425 407.610937 195.3255 
Q 408.115312 194.644875 408.115312 193.473 
Q 408.115312 192.30675 407.610937 191.62425 
Q 407.108437 190.94175 406.245937 190.94175 
z
M 406.245937 190.028625 
Q 407.652187 190.028625 408.454687 190.943625 
Q 409.259062 191.85675 409.259062 193.473 
Q 409.259062 195.083625 408.454687 196.002375 
Q 407.652187 196.91925 406.245937 196.91925 
Q 404.834062 196.91925 404.033437 196.002375 
Q 403.234687 195.083625 403.234687 193.473 
Q 403.234687 191.85675 404.033437 190.943625 
Q 404.834062 190.028625 406.245937 190.028625 
z
M 415.363359 193.3905 
Q 415.363359 192.218625 414.879609 191.5755 
Q 414.397734 190.9305 413.523984 190.9305 
Q 412.657734 190.9305 412.173984 191.5755 
Q 411.690234 192.218625 411.690234 193.3905 
Q 411.690234 194.55675 412.173984 195.20175 
Q 412.657734 195.84675 413.523984 195.84675 
Q 414.397734 195.84675 414.879609 195.20175 
Q 415.363359 194.55675 415.363359 193.3905 
z
M 416.441484 195.934875 
Q 416.441484 197.60925 415.697109 198.42675 
Q 414.954609 199.24425 413.418984 199.24425 
Q 412.850859 199.24425 412.346484 199.159875 
Q 411.842109 199.0755 411.367734 198.89925 
L 411.367734 197.851125 
Q 411.842109 198.108 412.305234 198.229875 
Q 412.768359 198.353625 413.248359 198.353625 
Q 414.309609 198.353625 414.836484 197.8005 
Q 415.363359 197.247375 415.363359 196.128 
L 415.363359 195.593625 
Q 415.029609 196.174875 414.508359 196.46175 
Q 413.987109 196.748625 413.259609 196.748625 
Q 412.053984 196.748625 411.315234 195.829875 
Q 410.576484 194.90925 410.576484 193.3905 
Q 410.576484 191.868 411.315234 190.94925 
Q 412.053984 190.028625 413.259609 190.028625 
Q 413.987109 190.028625 414.508359 190.3155 
Q 415.029609 190.602375 415.363359 191.18175 
L 415.363359 190.186125 
L 416.441484 190.186125 
L 416.441484 195.934875 
z
M 418.662422 190.186125 
L 419.740547 190.186125 
L 419.740547 196.748625 
L 418.662422 196.748625 
L 418.662422 190.186125 
z
M 418.662422 187.6305 
L 419.740547 187.6305 
L 419.740547 188.997375 
L 418.662422 188.997375 
L 418.662422 187.6305 
z
M 426.719531 190.437375 
L 426.719531 191.446125 
Q 426.262031 191.193 425.802656 191.067375 
Q 425.343281 190.94175 424.874531 190.94175 
Q 423.824531 190.94175 423.243281 191.607375 
Q 422.663906 192.271125 422.663906 193.473 
Q 422.663906 194.674875 423.243281 195.3405 
Q 423.824531 196.00425 424.874531 196.00425 
Q 425.343281 196.00425 425.802656 195.878625 
Q 426.262031 195.753 426.719531 195.499875 
L 426.719531 196.497375 
Q 426.267656 196.707375 425.783906 196.812375 
Q 425.302031 196.91925 424.756406 196.91925 
Q 423.273281 196.91925 422.399531 195.987375 
Q 421.527656 195.0555 421.527656 193.473 
Q 421.527656 191.868 422.408906 190.94925 
Q 423.292031 190.028625 424.827656 190.028625 
Q 425.324531 190.028625 425.798906 190.13175 
Q 426.273281 190.233 426.719531 190.437375 
z
M 431.577187 193.4505 
Q 430.270312 193.4505 429.765937 193.748625 
Q 429.261562 194.04675 429.261562 194.768625 
Q 429.261562 195.342375 429.640312 195.679875 
Q 430.019062 196.0155 430.667812 196.0155 
Q 431.565937 196.0155 432.107812 195.379875 
Q 432.649687 194.74425 432.649687 193.6905 
L 432.649687 193.4505 
L 431.577187 193.4505 
z
M 433.727812 193.00425 
L 433.727812 196.748625 
L 432.649687 196.748625 
L 432.649687 195.753 
Q 432.280312 196.34925 431.729062 196.63425 
Q 431.177812 196.91925 430.380937 196.91925 
Q 429.374062 196.91925 428.777812 196.353 
Q 428.183437 195.78675 428.183437 194.838 
Q 428.183437 193.73175 428.924062 193.16925 
Q 429.666562 192.60675 431.136562 192.60675 
L 432.649687 192.60675 
L 432.649687 192.499875 
Q 432.649687 191.7555 432.160312 191.348625 
Q 431.670937 190.94175 430.785937 190.94175 
Q 430.223437 190.94175 429.689062 191.07675 
Q 429.156562 191.21175 428.665312 191.48175 
L 428.665312 190.48425 
Q 429.255937 190.2555 429.812812 190.143 
Q 430.369687 190.028625 430.896562 190.028625 
Q 432.321562 190.028625 433.024687 190.767375 
Q 433.727812 191.50425 433.727812 193.00425 
z
M 435.947578 187.6305 
L 437.025703 187.6305 
L 437.025703 196.748625 
L 435.947578 196.748625 
L 435.947578 187.6305 
z
M 440.511562 188.973 
L 440.511562 192.259875 
L 442.000312 192.259875 
Q 442.827187 192.259875 443.277187 191.832375 
Q 443.729062 191.404875 443.729062 190.613625 
Q 443.729062 189.828 443.277187 189.4005 
Q 442.827187 188.973 442.000312 188.973 
L 440.511562 188.973 
z
M 439.328437 187.999875 
L 442.000312 187.999875 
Q 443.472187 187.999875 444.224062 188.6655 
Q 444.977812 189.331125 444.977812 190.613625 
Q 444.977812 191.90925 444.224062 192.571125 
Q 443.472187 193.233 442.000312 193.233 
L 440.511562 193.233 
L 440.511562 196.748625 
L 439.328437 196.748625 
L 439.328437 187.999875 
z
M 450.110391 191.193 
Q 449.928516 191.088 449.714766 191.03925 
Q 449.501016 190.988625 449.244141 190.988625 
Q 448.329141 190.988625 447.839766 191.583 
Q 447.350391 192.177375 447.350391 193.291125 
L 447.350391 196.748625 
L 446.266641 196.748625 
L 446.266641 190.186125 
L 447.350391 190.186125 
L 447.350391 191.206125 
Q 447.691641 190.608 448.235391 190.31925 
Q 448.781016 190.028625 449.561016 190.028625 
Q 449.671641 190.028625 449.806641 190.043625 
Q 449.941641 190.05675 450.104766 190.08675 
L 450.110391 191.193 
z
M 453.513984 190.94175 
Q 452.647734 190.94175 452.143359 191.618625 
Q 451.638984 192.2955 451.638984 193.473 
Q 451.638984 194.6505 452.139609 195.327375 
Q 452.642109 196.00425 453.513984 196.00425 
Q 454.376484 196.00425 454.878984 195.3255 
Q 455.383359 194.644875 455.383359 193.473 
Q 455.383359 192.30675 454.878984 191.62425 
Q 454.376484 190.94175 453.513984 190.94175 
z
M 453.513984 190.028625 
Q 454.920234 190.028625 455.722734 190.943625 
Q 456.527109 191.85675 456.527109 193.473 
Q 456.527109 195.083625 455.722734 196.002375 
Q 454.920234 196.91925 453.513984 196.91925 
Q 452.102109 196.91925 451.301484 196.002375 
Q 450.502734 195.083625 450.502734 193.473 
Q 450.502734 191.85675 451.301484 190.943625 
Q 452.102109 190.028625 453.513984 190.028625 
z
M 463.036406 190.437375 
L 463.036406 191.446125 
Q 462.578906 191.193 462.119531 191.067375 
Q 461.660156 190.94175 461.191406 190.94175 
Q 460.141406 190.94175 459.560156 191.607375 
Q 458.980781 192.271125 458.980781 193.473 
Q 458.980781 194.674875 459.560156 195.3405 
Q 460.141406 196.00425 461.191406 196.00425 
Q 461.660156 196.00425 462.119531 195.878625 
Q 462.578906 195.753 463.036406 195.499875 
L 463.036406 196.497375 
Q 462.584531 196.707375 462.100781 196.812375 
Q 461.618906 196.91925 461.073281 196.91925 
Q 459.590156 196.91925 458.716406 195.987375 
Q 457.844531 195.0555 457.844531 193.473 
Q 457.844531 191.868 458.725781 190.94925 
Q 459.608906 190.028625 461.144531 190.028625 
Q 461.641406 190.028625 462.115781 190.13175 
Q 462.590156 190.233 463.036406 190.437375 
z
M 470.524687 193.197375 
L 470.524687 193.72425 
L 465.567187 193.72425 
Q 465.638437 194.838 466.238437 195.421125 
Q 466.838437 196.00425 467.910937 196.00425 
Q 468.531562 196.00425 469.114687 195.852375 
Q 469.697812 195.7005 470.273437 195.394875 
L 470.273437 196.414875 
Q 469.692187 196.6605 469.082812 196.789875 
Q 468.473437 196.91925 467.847187 196.91925 
Q 466.275937 196.91925 465.359062 196.006125 
Q 464.442187 195.091125 464.442187 193.531125 
Q 464.442187 191.9205 465.312187 190.9755 
Q 466.182187 190.028625 467.659687 190.028625 
Q 468.983437 190.028625 469.754062 190.88175 
Q 470.524687 191.733 470.524687 193.197375 
z
M 469.446562 192.8805 
Q 469.435312 191.997375 468.951562 191.4705 
Q 468.467812 190.94175 467.670937 190.94175 
Q 466.769062 190.94175 466.227187 191.45175 
Q 465.685312 191.96175 465.602812 192.888 
L 469.446562 192.8805 
z
M 476.476875 190.37925 
L 476.476875 191.39925 
Q 476.02125 191.164875 475.528125 191.048625 
Q 475.036875 190.9305 474.508125 190.9305 
Q 473.705625 190.9305 473.304375 191.176125 
Q 472.903125 191.42175 472.903125 191.914875 
Q 472.903125 192.289875 473.19 192.503625 
Q 473.476875 192.717375 474.345 192.9105 
L 474.714375 192.993 
Q 475.861875 193.238625 476.345625 193.68675 
Q 476.829375 194.134875 476.829375 194.937375 
Q 476.829375 195.852375 476.105625 196.38675 
Q 475.381875 196.91925 474.11625 196.91925 
Q 473.589375 196.91925 473.0175 196.816125 
Q 472.445625 196.713 471.81375 196.508625 
L 471.81375 195.394875 
Q 472.411875 195.706125 472.99125 195.86175 
Q 473.570625 196.0155 474.140625 196.0155 
Q 474.901875 196.0155 475.310625 195.754875 
Q 475.72125 195.49425 475.72125 195.019875 
Q 475.72125 194.581125 475.425 194.34675 
Q 475.130625 194.112375 474.1275 193.894875 
L 473.7525 193.80675 
Q 472.75125 193.59675 472.305 193.159875 
Q 471.860625 192.723 471.860625 191.96175 
Q 471.860625 191.0355 472.516875 190.533 
Q 473.173125 190.028625 474.380625 190.028625 
Q 474.976875 190.028625 475.50375 190.11675 
Q 476.0325 190.203 476.476875 190.37925 
z
M 482.728828 190.37925 
L 482.728828 191.39925 
Q 482.273203 191.164875 481.780078 191.048625 
Q 481.288828 190.9305 480.760078 190.9305 
Q 479.957578 190.9305 479.556328 191.176125 
Q 479.155078 191.42175 479.155078 191.914875 
Q 479.155078 192.289875 479.441953 192.503625 
Q 479.728828 192.717375 480.596953 192.9105 
L 480.966328 192.993 
Q 482.113828 193.238625 482.597578 193.68675 
Q 483.081328 194.134875 483.081328 194.937375 
Q 483.081328 195.852375 482.357578 196.38675 
Q 481.633828 196.91925 480.368203 196.91925 
Q 479.841328 196.91925 479.269453 196.816125 
Q 478.697578 196.713 478.065703 196.508625 
L 478.065703 195.394875 
Q 478.663828 195.706125 479.243203 195.86175 
Q 479.822578 196.0155 480.392578 196.0155 
Q 481.153828 196.0155 481.562578 195.754875 
Q 481.973203 195.49425 481.973203 195.019875 
Q 481.973203 194.581125 481.676953 194.34675 
Q 481.382578 194.112375 480.379453 193.894875 
L 480.004453 193.80675 
Q 479.003203 193.59675 478.556953 193.159875 
Q 478.112578 192.723 478.112578 191.96175 
Q 478.112578 191.0355 478.768828 190.533 
Q 479.425078 190.028625 480.632578 190.028625 
Q 481.228828 190.028625 481.755703 190.11675 
Q 482.284453 190.203 482.728828 190.37925 
z
" clip-path="url(#p17d4432a04)" style="fill: #ffffff; stroke: #000000; stroke-width: 2"/>
    <path d="M 382.69125 192.571125 
L 382.69125 195.7755 
L 384.590625 195.7755 
Q 385.545 195.7755 386.004375 195.379875 
Q 386.465625 194.98425 386.465625 194.1705 
Q 386.465625 193.34925 386.004375 192.961125 
Q 385.545 192.571125 384.590625 192.571125 
L 382.69125 192.571125 
z
M 382.69125 188.973 
L 382.69125 191.60925 
L 384.444375 191.60925 
Q 385.310625 191.60925 385.734375 191.284875 
Q 386.16 190.958625 386.16 190.291125 
Q 386.16 189.62925 385.734375 189.301125 
Q 385.310625 188.973 384.444375 188.973 
L 382.69125 188.973 
z
M 381.508125 187.999875 
L 384.5325 187.999875 
Q 385.88625 187.999875 386.6175 188.562375 
Q 387.350625 189.124875 387.350625 190.16175 
Q 387.350625 190.966125 386.975625 191.4405 
Q 386.600625 191.914875 385.873125 192.031125 
Q 386.746875 192.218625 387.230625 192.814875 
Q 387.714375 193.40925 387.714375 194.299875 
Q 387.714375 195.47175 386.9175 196.111125 
Q 386.120625 196.748625 384.64875 196.748625 
L 381.508125 196.748625 
L 381.508125 187.999875 
z
M 389.693672 190.186125 
L 390.771797 190.186125 
L 390.771797 196.748625 
L 389.693672 196.748625 
L 389.693672 190.186125 
z
M 389.693672 187.6305 
L 390.771797 187.6305 
L 390.771797 188.997375 
L 389.693672 188.997375 
L 389.693672 187.6305 
z
M 395.570156 190.94175 
Q 394.703906 190.94175 394.199531 191.618625 
Q 393.695156 192.2955 393.695156 193.473 
Q 393.695156 194.6505 394.195781 195.327375 
Q 394.698281 196.00425 395.570156 196.00425 
Q 396.432656 196.00425 396.935156 195.3255 
Q 397.439531 194.644875 397.439531 193.473 
Q 397.439531 192.30675 396.935156 191.62425 
Q 396.432656 190.94175 395.570156 190.94175 
z
M 395.570156 190.028625 
Q 396.976406 190.028625 397.778906 190.943625 
Q 398.583281 191.85675 398.583281 193.473 
Q 398.583281 195.083625 397.778906 196.002375 
Q 396.976406 196.91925 395.570156 196.91925 
Q 394.158281 196.91925 393.357656 196.002375 
Q 392.558906 195.083625 392.558906 193.473 
Q 392.558906 191.85675 393.357656 190.943625 
Q 394.158281 190.028625 395.570156 190.028625 
z
M 400.369453 187.6305 
L 401.447578 187.6305 
L 401.447578 196.748625 
L 400.369453 196.748625 
L 400.369453 187.6305 
z
M 406.245937 190.94175 
Q 405.379687 190.94175 404.875312 191.618625 
Q 404.370937 192.2955 404.370937 193.473 
Q 404.370937 194.6505 404.871562 195.327375 
Q 405.374062 196.00425 406.245937 196.00425 
Q 407.108437 196.00425 407.610937 195.3255 
Q 408.115312 194.644875 408.115312 193.473 
Q 408.115312 192.30675 407.610937 191.62425 
Q 407.108437 190.94175 406.245937 190.94175 
z
M 406.245937 190.028625 
Q 407.652187 190.028625 408.454687 190.943625 
Q 409.259062 191.85675 409.259062 193.473 
Q 409.259062 195.083625 408.454687 196.002375 
Q 407.652187 196.91925 406.245937 196.91925 
Q 404.834062 196.91925 404.033437 196.002375 
Q 403.234687 195.083625 403.234687 193.473 
Q 403.234687 191.85675 404.033437 190.943625 
Q 404.834062 190.028625 406.245937 190.028625 
z
M 415.363359 193.3905 
Q 415.363359 192.218625 414.879609 191.5755 
Q 414.397734 190.9305 413.523984 190.9305 
Q 412.657734 190.9305 412.173984 191.5755 
Q 411.690234 192.218625 411.690234 193.3905 
Q 411.690234 194.55675 412.173984 195.20175 
Q 412.657734 195.84675 413.523984 195.84675 
Q 414.397734 195.84675 414.879609 195.20175 
Q 415.363359 194.55675 415.363359 193.3905 
z
M 416.441484 195.934875 
Q 416.441484 197.60925 415.697109 198.42675 
Q 414.954609 199.24425 413.418984 199.24425 
Q 412.850859 199.24425 412.346484 199.159875 
Q 411.842109 199.0755 411.367734 198.89925 
L 411.367734 197.851125 
Q 411.842109 198.108 412.305234 198.229875 
Q 412.768359 198.353625 413.248359 198.353625 
Q 414.309609 198.353625 414.836484 197.8005 
Q 415.363359 197.247375 415.363359 196.128 
L 415.363359 195.593625 
Q 415.029609 196.174875 414.508359 196.46175 
Q 413.987109 196.748625 413.259609 196.748625 
Q 412.053984 196.748625 411.315234 195.829875 
Q 410.576484 194.90925 410.576484 193.3905 
Q 410.576484 191.868 411.315234 190.94925 
Q 412.053984 190.028625 413.259609 190.028625 
Q 413.987109 190.028625 414.508359 190.3155 
Q 415.029609 190.602375 415.363359 191.18175 
L 415.363359 190.186125 
L 416.441484 190.186125 
L 416.441484 195.934875 
z
M 418.662422 190.186125 
L 419.740547 190.186125 
L 419.740547 196.748625 
L 418.662422 196.748625 
L 418.662422 190.186125 
z
M 418.662422 187.6305 
L 419.740547 187.6305 
L 419.740547 188.997375 
L 418.662422 188.997375 
L 418.662422 187.6305 
z
M 426.719531 190.437375 
L 426.719531 191.446125 
Q 426.262031 191.193 425.802656 191.067375 
Q 425.343281 190.94175 424.874531 190.94175 
Q 423.824531 190.94175 423.243281 191.607375 
Q 422.663906 192.271125 422.663906 193.473 
Q 422.663906 194.674875 423.243281 195.3405 
Q 423.824531 196.00425 424.874531 196.00425 
Q 425.343281 196.00425 425.802656 195.878625 
Q 426.262031 195.753 426.719531 195.499875 
L 426.719531 196.497375 
Q 426.267656 196.707375 425.783906 196.812375 
Q 425.302031 196.91925 424.756406 196.91925 
Q 423.273281 196.91925 422.399531 195.987375 
Q 421.527656 195.0555 421.527656 193.473 
Q 421.527656 191.868 422.408906 190.94925 
Q 423.292031 190.028625 424.827656 190.028625 
Q 425.324531 190.028625 425.798906 190.13175 
Q 426.273281 190.233 426.719531 190.437375 
z
M 431.577187 193.4505 
Q 430.270312 193.4505 429.765937 193.748625 
Q 429.261562 194.04675 429.261562 194.768625 
Q 429.261562 195.342375 429.640312 195.679875 
Q 430.019062 196.0155 430.667812 196.0155 
Q 431.565937 196.0155 432.107812 195.379875 
Q 432.649687 194.74425 432.649687 193.6905 
L 432.649687 193.4505 
L 431.577187 193.4505 
z
M 433.727812 193.00425 
L 433.727812 196.748625 
L 432.649687 196.748625 
L 432.649687 195.753 
Q 432.280312 196.34925 431.729062 196.63425 
Q 431.177812 196.91925 430.380937 196.91925 
Q 429.374062 196.91925 428.777812 196.353 
Q 428.183437 195.78675 428.183437 194.838 
Q 428.183437 193.73175 428.924062 193.16925 
Q 429.666562 192.60675 431.136562 192.60675 
L 432.649687 192.60675 
L 432.649687 192.499875 
Q 432.649687 191.7555 432.160312 191.348625 
Q 431.670937 190.94175 430.785937 190.94175 
Q 430.223437 190.94175 429.689062 191.07675 
Q 429.156562 191.21175 428.665312 191.48175 
L 428.665312 190.48425 
Q 429.255937 190.2555 429.812812 190.143 
Q 430.369687 190.028625 430.896562 190.028625 
Q 432.321562 190.028625 433.024687 190.767375 
Q 433.727812 191.50425 433.727812 193.00425 
z
M 435.947578 187.6305 
L 437.025703 187.6305 
L 437.025703 196.748625 
L 435.947578 196.748625 
L 435.947578 187.6305 
z
M 440.511562 188.973 
L 440.511562 192.259875 
L 442.000312 192.259875 
Q 442.827187 192.259875 443.277187 191.832375 
Q 443.729062 191.404875 443.729062 190.613625 
Q 443.729062 189.828 443.277187 189.4005 
Q 442.827187 188.973 442.000312 188.973 
L 440.511562 188.973 
z
M 439.328437 187.999875 
L 442.000312 187.999875 
Q 443.472187 187.999875 444.224062 188.6655 
Q 444.977812 189.331125 444.977812 190.613625 
Q 444.977812 191.90925 444.224062 192.571125 
Q 443.472187 193.233 442.000312 193.233 
L 440.511562 193.233 
L 440.511562 196.748625 
L 439.328437 196.748625 
L 439.328437 187.999875 
z
M 450.110391 191.193 
Q 449.928516 191.088 449.714766 191.03925 
Q 449.501016 190.988625 449.244141 190.988625 
Q 448.329141 190.988625 447.839766 191.583 
Q 447.350391 192.177375 447.350391 193.291125 
L 447.350391 196.748625 
L 446.266641 196.748625 
L 446.266641 190.186125 
L 447.350391 190.186125 
L 447.350391 191.206125 
Q 447.691641 190.608 448.235391 190.31925 
Q 448.781016 190.028625 449.561016 190.028625 
Q 449.671641 190.028625 449.806641 190.043625 
Q 449.941641 190.05675 450.104766 190.08675 
L 450.110391 191.193 
z
M 453.513984 190.94175 
Q 452.647734 190.94175 452.143359 191.618625 
Q 451.638984 192.2955 451.638984 193.473 
Q 451.638984 194.6505 452.139609 195.327375 
Q 452.642109 196.00425 453.513984 196.00425 
Q 454.376484 196.00425 454.878984 195.3255 
Q 455.383359 194.644875 455.383359 193.473 
Q 455.383359 192.30675 454.878984 191.62425 
Q 454.376484 190.94175 453.513984 190.94175 
z
M 453.513984 190.028625 
Q 454.920234 190.028625 455.722734 190.943625 
Q 456.527109 191.85675 456.527109 193.473 
Q 456.527109 195.083625 455.722734 196.002375 
Q 454.920234 196.91925 453.513984 196.91925 
Q 452.102109 196.91925 451.301484 196.002375 
Q 450.502734 195.083625 450.502734 193.473 
Q 450.502734 191.85675 451.301484 190.943625 
Q 452.102109 190.028625 453.513984 190.028625 
z
M 463.036406 190.437375 
L 463.036406 191.446125 
Q 462.578906 191.193 462.119531 191.067375 
Q 461.660156 190.94175 461.191406 190.94175 
Q 460.141406 190.94175 459.560156 191.607375 
Q 458.980781 192.271125 458.980781 193.473 
Q 458.980781 194.674875 459.560156 195.3405 
Q 460.141406 196.00425 461.191406 196.00425 
Q 461.660156 196.00425 462.119531 195.878625 
Q 462.578906 195.753 463.036406 195.499875 
L 463.036406 196.497375 
Q 462.584531 196.707375 462.100781 196.812375 
Q 461.618906 196.91925 461.073281 196.91925 
Q 459.590156 196.91925 458.716406 195.987375 
Q 457.844531 195.0555 457.844531 193.473 
Q 457.844531 191.868 458.725781 190.94925 
Q 459.608906 190.028625 461.144531 190.028625 
Q 461.641406 190.028625 462.115781 190.13175 
Q 462.590156 190.233 463.036406 190.437375 
z
M 470.524687 193.197375 
L 470.524687 193.72425 
L 465.567187 193.72425 
Q 465.638437 194.838 466.238437 195.421125 
Q 466.838437 196.00425 467.910937 196.00425 
Q 468.531562 196.00425 469.114687 195.852375 
Q 469.697812 195.7005 470.273437 195.394875 
L 470.273437 196.414875 
Q 469.692187 196.6605 469.082812 196.789875 
Q 468.473437 196.91925 467.847187 196.91925 
Q 466.275937 196.91925 465.359062 196.006125 
Q 464.442187 195.091125 464.442187 193.531125 
Q 464.442187 191.9205 465.312187 190.9755 
Q 466.182187 190.028625 467.659687 190.028625 
Q 468.983437 190.028625 469.754062 190.88175 
Q 470.524687 191.733 470.524687 193.197375 
z
M 469.446562 192.8805 
Q 469.435312 191.997375 468.951562 191.4705 
Q 468.467812 190.94175 467.670937 190.94175 
Q 466.769062 190.94175 466.227187 191.45175 
Q 465.685312 191.96175 465.602812 192.888 
L 469.446562 192.8805 
z
M 476.476875 190.37925 
L 476.476875 191.39925 
Q 476.02125 191.164875 475.528125 191.048625 
Q 475.036875 190.9305 474.508125 190.9305 
Q 473.705625 190.9305 473.304375 191.176125 
Q 472.903125 191.42175 472.903125 191.914875 
Q 472.903125 192.289875 473.19 192.503625 
Q 473.476875 192.717375 474.345 192.9105 
L 474.714375 192.993 
Q 475.861875 193.238625 476.345625 193.68675 
Q 476.829375 194.134875 476.829375 194.937375 
Q 476.829375 195.852375 476.105625 196.38675 
Q 475.381875 196.91925 474.11625 196.91925 
Q 473.589375 196.91925 473.0175 196.816125 
Q 472.445625 196.713 471.81375 196.508625 
L 471.81375 195.394875 
Q 472.411875 195.706125 472.99125 195.86175 
Q 473.570625 196.0155 474.140625 196.0155 
Q 474.901875 196.0155 475.310625 195.754875 
Q 475.72125 195.49425 475.72125 195.019875 
Q 475.72125 194.581125 475.425 194.34675 
Q 475.130625 194.112375 474.1275 193.894875 
L 473.7525 193.80675 
Q 472.75125 193.59675 472.305 193.159875 
Q 471.860625 192.723 471.860625 191.96175 
Q 471.860625 191.0355 472.516875 190.533 
Q 473.173125 190.028625 474.380625 190.028625 
Q 474.976875 190.028625 475.50375 190.11675 
Q 476.0325 190.203 476.476875 190.37925 
z
M 482.728828 190.37925 
L 482.728828 191.39925 
Q 482.273203 191.164875 481.780078 191.048625 
Q 481.288828 190.9305 480.760078 190.9305 
Q 479.957578 190.9305 479.556328 191.176125 
Q 479.155078 191.42175 479.155078 191.914875 
Q 479.155078 192.289875 479.441953 192.503625 
Q 479.728828 192.717375 480.596953 192.9105 
L 480.966328 192.993 
Q 482.113828 193.238625 482.597578 193.68675 
Q 483.081328 194.134875 483.081328 194.937375 
Q 483.081328 195.852375 482.357578 196.38675 
Q 481.633828 196.91925 480.368203 196.91925 
Q 479.841328 196.91925 479.269453 196.816125 
Q 478.697578 196.713 478.065703 196.508625 
L 478.065703 195.394875 
Q 478.663828 195.706125 479.243203 195.86175 
Q 479.822578 196.0155 480.392578 196.0155 
Q 481.153828 196.0155 481.562578 195.754875 
Q 481.973203 195.49425 481.973203 195.019875 
Q 481.973203 194.581125 481.676953 194.34675 
Q 481.382578 194.112375 480.379453 193.894875 
L 480.004453 193.80675 
Q 479.003203 193.59675 478.556953 193.159875 
Q 478.112578 192.723 478.112578 191.96175 
Q 478.112578 191.0355 478.768828 190.533 
Q 479.425078 190.028625 480.632578 190.028625 
Q 481.228828 190.028625 481.755703 190.11675 
Q 482.284453 190.203 482.728828 190.37925 
z
" clip-path="url(#p17d4432a04)" style="fill: #ffffff"/>
   </g>
   <g id="text_4">
    <g clip-path="url(#p17d4432a04)">
     <!-- cholic acid -->
     <g transform="translate(43.210832 169.873875)scale(0.12 -0.12)">
      <use xlink:href="#DejaVuSans-63"/>
      <use xlink:href="#DejaVuSans-68" x="54.980469"/>
      <use xlink:href="#DejaVuSans-6f" x="118.359375"/>
      <use xlink:href="#DejaVuSans-6c" x="179.541016"/>
      <use xlink:href="#DejaVuSans-69" x="207.324219"/>
      <use xlink:href="#DejaVuSans-63" x="235.107422"/>
      <use xlink:href="#DejaVuSans-20" x="290.087891"/>
      <use xlink:href="#DejaVuSans-61" x="321.875"/>
      <use xlink:href="#DejaVuSans-63" x="383.154297"/>
      <use xlink:href="#DejaVuSans-69" x="438.134766"/>
      <use xlink:href="#DejaVuSans-64" x="465.917969"/>
     </g>
    </g>
    <g clip-path="url(#p17d4432a04)">
     <!-- MESH:D019826 -->
     <g transform="translate(28.139582 183.31125)scale(0.12 -0.12)">
      <defs>
       <path id="DejaVuSans-4d" d="M 628 4666 
L 1569 4666 
L 2759 1491 
L 3956 4666 
L 4897 4666 
L 4897 0 
L 4281 0 
L 4281 4097 
L 3078 897 
L 2444 897 
L 1241 4097 
L 1241 0 
L 628 0 
L 628 4666 
z
" transform="scale(0.015625)"/>
       <path id="DejaVuSans-45" d="M 628 4666 
L 3578 4666 
L 3578 4134 
L 1259 4134 
L 1259 2753 
L 3481 2753 
L 3481 2222 
L 1259 2222 
L 1259 531 
L 3634 531 
L 3634 0 
L 628 0 
L 628 4666 
z
" transform="scale(0.015625)"/>
       <path id="DejaVuSans-53" d="M 3425 4513 
L 3425 3897 
Q 3066 4069 2747 4153 
Q 2428 4238 2131 4238 
Q 1616 4238 1336 4038 
Q 1056 3838 1056 3469 
Q 1056 3159 1242 3001 
Q 1428 2844 1947 2747 
L 2328 2669 
Q 3034 2534 3370 2195 
Q 3706 1856 3706 1288 
Q 3706 609 3251 259 
Q 2797 -91 1919 -91 
Q 1588 -91 1214 -16 
Q 841 59 441 206 
L 441 856 
Q 825 641 1194 531 
Q 1563 422 1919 422 
Q 2459 422 2753 634 
Q 3047 847 3047 1241 
Q 3047 1584 2836 1778 
Q 2625 1972 2144 2069 
L 1759 2144 
Q 1053 2284 737 2584 
Q 422 2884 422 3419 
Q 422 4038 858 4394 
Q 1294 4750 2059 4750 
Q 2388 4750 2728 4690 
Q 3069 4631 3425 4513 
z
" transform="scale(0.015625)"/>
       <path id="DejaVuSans-48" d="M 628 4666 
L 1259 4666 
L 1259 2753 
L 3553 2753 
L 3553 4666 
L 4184 4666 
L 4184 0 
L 3553 0 
L 3553 2222 
L 1259 2222 
L 1259 0 
L 628 0 
L 628 4666 
z
" transform="scale(0.015625)"/>
       <path id="DejaVuSans-3a" d="M 750 794 
L 1409 794 
L 1409 0 
L 750 0 
L 750 794 
z
M 750 3309 
L 1409 3309 
L 1409 2516 
L 750 2516 
L 750 3309 
z
" transform="scale(0.015625)"/>
       <path id="DejaVuSans-44" d="M 1259 4147 
L 1259 519 
L 2022 519 
Q 2988 519 3436 956 
Q 3884 1394 3884 2338 
Q 3884 3275 3436 3711 
Q 2988 4147 2022 4147 
L 1259 4147 
z
M 628 4666 
L 1925 4666 
Q 3281 4666 3915 4102 
Q 4550 3538 4550 2338 
Q 4550 1131 3912 565 
Q 3275 0 1925 0 
L 628 0 
L 628 4666 
z
" transform="scale(0.015625)"/>
       <path id="DejaVuSans-30" d="M 2034 4250 
Q 1547 4250 1301 3770 
Q 1056 3291 1056 2328 
Q 1056 1369 1301 889 
Q 1547 409 2034 409 
Q 2525 409 2770 889 
Q 3016 1369 3016 2328 
Q 3016 3291 2770 3770 
Q 2525 4250 2034 4250 
z
M 2034 4750 
Q 2819 4750 3233 4129 
Q 3647 3509 3647 2328 
Q 3647 1150 3233 529 
Q 2819 -91 2034 -91 
Q 1250 -91 836 529 
Q 422 1150 422 2328 
Q 422 3509 836 4129 
Q 1250 4750 2034 4750 
z
" transform="scale(0.015625)"/>
       <path id="DejaVuSans-31" d="M 794 531 
L 1825 531 
L 1825 4091 
L 703 3866 
L 703 4441 
L 1819 4666 
L 2450 4666 
L 2450 531 
L 3481 531 
L 3481 0 
L 794 0 
L 794 531 
z
" transform="scale(0.015625)"/>
       <path id="DejaVuSans-39" d="M 703 97 
L 703 672 
Q 941 559 1184 500 
Q 1428 441 1663 441 
Q 2288 441 2617 861 
Q 2947 1281 2994 2138 
Q 2813 1869 2534 1725 
Q 2256 1581 1919 1581 
Q 1219 1581 811 2004 
Q 403 2428 403 3163 
Q 403 3881 828 4315 
Q 1253 4750 1959 4750 
Q 2769 4750 3195 4129 
Q 3622 3509 3622 2328 
Q 3622 1225 3098 567 
Q 2575 -91 1691 -91 
Q 1453 -91 1209 -44 
Q 966 3 703 97 
z
M 1959 2075 
Q 2384 2075 2632 2365 
Q 2881 2656 2881 3163 
Q 2881 3666 2632 3958 
Q 2384 4250 1959 4250 
Q 1534 4250 1286 3958 
Q 1038 3666 1038 3163 
Q 1038 2656 1286 2365 
Q 1534 2075 1959 2075 
z
" transform="scale(0.015625)"/>
       <path id="DejaVuSans-38" d="M 2034 2216 
Q 1584 2216 1326 1975 
Q 1069 1734 1069 1313 
Q 1069 891 1326 650 
Q 1584 409 2034 409 
Q 2484 409 2743 651 
Q 3003 894 3003 1313 
Q 3003 1734 2745 1975 
Q 2488 2216 2034 2216 
z
M 1403 2484 
Q 997 2584 770 2862 
Q 544 3141 544 3541 
Q 544 4100 942 4425 
Q 1341 4750 2034 4750 
Q 2731 4750 3128 4425 
Q 3525 4100 3525 3541 
Q 3525 3141 3298 2862 
Q 3072 2584 2669 2484 
Q 3125 2378 3379 2068 
Q 3634 1759 3634 1313 
Q 3634 634 3220 271 
Q 2806 -91 2034 -91 
Q 1263 -91 848 271 
Q 434 634 434 1313 
Q 434 1759 690 2068 
Q 947 2378 1403 2484 
z
M 1172 3481 
Q 1172 3119 1398 2916 
Q 1625 2713 2034 2713 
Q 2441 2713 2670 2916 
Q 2900 3119 2900 3481 
Q 2900 3844 2670 4047 
Q 2441 4250 2034 4250 
Q 1625 4250 1398 4047 
Q 1172 3844 1172 3481 
z
" transform="scale(0.015625)"/>
       <path id="DejaVuSans-32" d="M 1228 531 
L 3431 531 
L 3431 0 
L 469 0 
L 469 531 
Q 828 903 1448 1529 
Q 2069 2156 2228 2338 
Q 2531 2678 2651 2914 
Q 2772 3150 2772 3378 
Q 2772 3750 2511 3984 
Q 2250 4219 1831 4219 
Q 1534 4219 1204 4116 
Q 875 4013 500 3803 
L 500 4441 
Q 881 4594 1212 4672 
Q 1544 4750 1819 4750 
Q 2544 4750 2975 4387 
Q 3406 4025 3406 3419 
Q 3406 3131 3298 2873 
Q 3191 2616 2906 2266 
Q 2828 2175 2409 1742 
Q 1991 1309 1228 531 
z
" transform="scale(0.015625)"/>
       <path id="DejaVuSans-36" d="M 2113 2584 
Q 1688 2584 1439 2293 
Q 1191 2003 1191 1497 
Q 1191 994 1439 701 
Q 1688 409 2113 409 
Q 2538 409 2786 701 
Q 3034 994 3034 1497 
Q 3034 2003 2786 2293 
Q 2538 2584 2113 2584 
z
M 3366 4563 
L 3366 3988 
Q 3128 4100 2886 4159 
Q 2644 4219 2406 4219 
Q 1781 4219 1451 3797 
Q 1122 3375 1075 2522 
Q 1259 2794 1537 2939 
Q 1816 3084 2150 3084 
Q 2853 3084 3261 2657 
Q 3669 2231 3669 1497 
Q 3669 778 3244 343 
Q 2819 -91 2113 -91 
Q 1303 -91 875 529 
Q 447 1150 447 2328 
Q 447 3434 972 4092 
Q 1497 4750 2381 4750 
Q 2619 4750 2861 4703 
Q 3103 4656 3366 4563 
z
" transform="scale(0.015625)"/>
      </defs>
      <use xlink:href="#DejaVuSans-4d"/>
      <use xlink:href="#DejaVuSans-45" x="86.279297"/>
      <use xlink:href="#DejaVuSans-53" x="149.462891"/>
      <use xlink:href="#DejaVuSans-48" x="212.939453"/>
      <use xlink:href="#DejaVuSans-3a" x="288.134766"/>
      <use xlink:href="#DejaVuSans-44" x="321.826172"/>
      <use xlink:href="#DejaVuSans-30" x="398.828125"/>
      <use xlink:href="#DejaVuSans-31" x="462.451172"/>
      <use xlink:href="#DejaVuSans-39" x="526.074219"/>
      <use xlink:href="#DejaVuSans-38" x="589.697266"/>
      <use xlink:href="#DejaVuSans-32" x="653.320312"/>
      <use xlink:href="#DejaVuSans-36" x="716.943359"/>
     </g>
    </g>
    <g clip-path="url(#p17d4432a04)">
     <!-- Drug -->
     <g transform="translate(60.277082 196.748625)scale(0.12 -0.12)">
      <use xlink:href="#DejaVuSans-44"/>
      <use xlink:href="#DejaVuSans-72" x="77.001953"/>
      <use xlink:href="#DejaVuSans-75" x="118.115234"/>
      <use xlink:href="#DejaVuSans-67" x="181.494141"/>
     </g>
    </g>
   </g>
   <g id="text_5">
    <g clip-path="url(#p17d4432a04)">
     <!-- Constipation -->
     <g transform="translate(751.237918 169.873875)scale(0.12 -0.12)">
      <defs>
       <path id="DejaVuSans-43" d="M 4122 4306 
L 4122 3641 
Q 3803 3938 3442 4084 
Q 3081 4231 2675 4231 
Q 1875 4231 1450 3742 
Q 1025 3253 1025 2328 
Q 1025 1406 1450 917 
Q 1875 428 2675 428 
Q 3081 428 3442 575 
Q 3803 722 4122 1019 
L 4122 359 
Q 3791 134 3420 21 
Q 3050 -91 2638 -91 
Q 1578 -91 968 557 
Q 359 1206 359 2328 
Q 359 3453 968 4101 
Q 1578 4750 2638 4750 
Q 3056 4750 3426 4639 
Q 3797 4528 4122 4306 
z
" transform="scale(0.015625)"/>
      </defs>
      <use xlink:href="#DejaVuSans-43"/>
      <use xlink:href="#DejaVuSans-6f" x="69.824219"/>
      <use xlink:href="#DejaVuSans-6e" x="131.005859"/>
      <use xlink:href="#DejaVuSans-73" x="194.384766"/>
      <use xlink:href="#DejaVuSans-74" x="246.484375"/>
      <use xlink:href="#DejaVuSans-69" x="285.693359"/>
      <use xlink:href="#DejaVuSans-70" x="313.476562"/>
      <use xlink:href="#DejaVuSans-61" x="376.953125"/>
      <use xlink:href="#DejaVuSans-74" x="438.232422"/>
      <use xlink:href="#DejaVuSans-69" x="477.441406"/>
      <use xlink:href="#DejaVuSans-6f" x="505.224609"/>
      <use xlink:href="#DejaVuSans-6e" x="566.40625"/>
     </g>
    </g>
    <g clip-path="url(#p17d4432a04)">
     <!-- MESH:D003248 -->
     <g transform="translate(742.189168 183.31125)scale(0.12 -0.12)">
      <defs>
       <path id="DejaVuSans-33" d="M 2597 2516 
Q 3050 2419 3304 2112 
Q 3559 1806 3559 1356 
Q 3559 666 3084 287 
Q 2609 -91 1734 -91 
Q 1441 -91 1130 -33 
Q 819 25 488 141 
L 488 750 
Q 750 597 1062 519 
Q 1375 441 1716 441 
Q 2309 441 2620 675 
Q 2931 909 2931 1356 
Q 2931 1769 2642 2001 
Q 2353 2234 1838 2234 
L 1294 2234 
L 1294 2753 
L 1863 2753 
Q 2328 2753 2575 2939 
Q 2822 3125 2822 3475 
Q 2822 3834 2567 4026 
Q 2313 4219 1838 4219 
Q 1578 4219 1281 4162 
Q 984 4106 628 3988 
L 628 4550 
Q 988 4650 1302 4700 
Q 1616 4750 1894 4750 
Q 2613 4750 3031 4423 
Q 3450 4097 3450 3541 
Q 3450 3153 3228 2886 
Q 3006 2619 2597 2516 
z
" transform="scale(0.015625)"/>
       <path id="DejaVuSans-34" d="M 2419 4116 
L 825 1625 
L 2419 1625 
L 2419 4116 
z
M 2253 4666 
L 3047 4666 
L 3047 1625 
L 3713 1625 
L 3713 1100 
L 3047 1100 
L 3047 0 
L 2419 0 
L 2419 1100 
L 313 1100 
L 313 1709 
L 2253 4666 
z
" transform="scale(0.015625)"/>
      </defs>
      <use xlink:href="#DejaVuSans-4d"/>
      <use xlink:href="#DejaVuSans-45" x="86.279297"/>
      <use xlink:href="#DejaVuSans-53" x="149.462891"/>
      <use xlink:href="#DejaVuSans-48" x="212.939453"/>
      <use xlink:href="#DejaVuSans-3a" x="288.134766"/>
      <use xlink:href="#DejaVuSans-44" x="321.826172"/>
      <use xlink:href="#DejaVuSans-30" x="398.828125"/>
      <use xlink:href="#DejaVuSans-30" x="462.451172"/>
      <use xlink:href="#DejaVuSans-33" x="526.074219"/>
      <use xlink:href="#DejaVuSans-32" x="589.697266"/>
      <use xlink:href="#DejaVuSans-34" x="653.320312"/>
      <use xlink:href="#DejaVuSans-38" x="716.943359"/>
     </g>
    </g>
    <g clip-path="url(#p17d4432a04)">
     <!-- Disease -->
     <g transform="translate(765.426043 196.748625)scale(0.12 -0.12)">
      <use xlink:href="#DejaVuSans-44"/>
      <use xlink:href="#DejaVuSans-69" x="77.001953"/>
      <use xlink:href="#DejaVuSans-73" x="104.785156"/>
      <use xlink:href="#DejaVuSans-65" x="156.884766"/>
      <use xlink:href="#DejaVuSans-61" x="218.408203"/>
      <use xlink:href="#DejaVuSans-73" x="279.6875"/>
      <use xlink:href="#DejaVuSans-65" x="331.787109"/>
     </g>
    </g>
   </g>
  </g>
 </g>
 <defs>
  <clipPath id="p17d4432a04">
   <rect x="0" y="0" width="864" height="360"/>
  </clipPath>
 </defs>
</svg>
