<?xml version="1.0" encoding="utf-8" standalone="no"?>
<!DOCTYPE svg PUBLIC "-//W3C//DTD SVG 1.1//EN"
  "http://www.w3.org/Graphics/SVG/1.1/DTD/svg11.dtd">
<svg xmlns:xlink="http://www.w3.org/1999/xlink" width="1209.6pt" height="360pt" viewBox="0 0 1209.6 360" xmlns="http://www.w3.org/2000/svg" version="1.1">
 <metadata>
  <rdf:RDF xmlns:dc="http://purl.org/dc/elements/1.1/" xmlns:cc="http://creativecommons.org/ns#" xmlns:rdf="http://www.w3.org/1999/02/22-rdf-syntax-ns#">
   <cc:Work>
    <dc:type rdf:resource="http://purl.org/dc/dcmitype/StillImage"/>
    <dc:date>2023-02-08T08:51:00.719585</dc:date>
    <dc:format>image/svg+xml</dc:format>
    <dc:creator>
     <cc:Agent>
      <dc:title>Matplotlib v3.5.1, https://matplotlib.org/</dc:title>
     </cc:Agent>
    </dc:creator>
   </cc:Work>
  </rdf:RDF>
 </metadata>
 <defs>
  <style type="text/css">*{stroke-linejoin: round; stroke-linecap: butt}</style>
 </defs>
 <g id="figure_1">
  <g id="patch_1">
   <path d="M 0 360 
L 1209.6 360 
L 1209.6 0 
L 0 0 
z
" style="fill: #ffffff"/>
  </g>
  <g id="axes_1">
   <g id="patch_2">
    <path d="M 157.403851 180 
Q 229.923128 180 299.088304 180 
" clip-path="url(#p070d24faed)" style="fill: none; stroke: #2ca02c; stroke-width: 3; stroke-linecap: round"/>
    <path d="M 295.088304 178 
L 299.088304 180 
L 295.088304 182 
L 295.088304 178 
z
" clip-path="url(#p070d24faed)" style="fill: #2ca02c; stroke: #2ca02c; stroke-width: 3; stroke-linecap: round"/>
   </g>
   <g id="patch_3">
    <path d="M 407.321206 180 
Q 479.840484 180 549.00566 180 
" clip-path="url(#p070d24faed)" style="fill: none; stroke: #2ca02c; stroke-width: 3; stroke-linecap: round"/>
    <path d="M 545.00566 178 
L 549.00566 180 
L 545.00566 182 
L 545.00566 178 
z
" clip-path="url(#p070d24faed)" style="fill: #2ca02c; stroke: #2ca02c; stroke-width: 3; stroke-linecap: round"/>
   </g>
   <g id="patch_4">
    <path d="M 657.238561 180 
Q 729.757839 180 798.923015 180 
" clip-path="url(#p070d24faed)" style="fill: none; stroke: #2ca02c; stroke-width: 3; stroke-linecap: round"/>
    <path d="M 794.923015 178 
L 798.923015 180 
L 794.923015 182 
L 794.923015 178 
z
" clip-path="url(#p070d24faed)" style="fill: #2ca02c; stroke: #2ca02c; stroke-width: 3; stroke-linecap: round"/>
   </g>
   <g id="patch_5">
    <path d="M 907.155917 180 
Q 979.675195 180 1048.840371 180 
" clip-path="url(#p070d24faed)" style="fill: none; stroke: #2ca02c; stroke-width: 3; stroke-linecap: round"/>
    <path d="M 1044.840371 178 
L 1048.840371 180 
L 1044.840371 182 
L 1044.840371 178 
z
" clip-path="url(#p070d24faed)" style="fill: #2ca02c; stroke: #2ca02c; stroke-width: 3; stroke-linecap: round"/>
   </g>
   <g id="text_1">
    <g id="patch_6">
     <path d="M 204.554436 193.437969 
L 255.293498 193.437969 
Q 258.293498 193.437969 258.293498 190.437969 
L 258.293498 169.562031 
Q 258.293498 166.562031 255.293498 166.562031 
L 204.554436 166.562031 
Q 201.554436 166.562031 201.554436 169.562031 
L 201.554436 190.437969 
Q 201.554436 193.437969 204.554436 193.437969 
z
" clip-path="url(#p070d24faed)" style="fill: #ffffff; stroke: #ffffff; stroke-linejoin: miter"/>
    </g>
    <g clip-path="url(#p070d24faed)">
     <!-- decreases -->
     <g transform="translate(204.554436 177.160469)scale(0.1 -0.1)">
      <defs>
       <path id="DejaVuSans-64" d="M 2906 2969 
L 2906 4863 
L 3481 4863 
L 3481 0 
L 2906 0 
L 2906 525 
Q 2725 213 2448 61 
Q 2172 -91 1784 -91 
Q 1150 -91 751 415 
Q 353 922 353 1747 
Q 353 2572 751 3078 
Q 1150 3584 1784 3584 
Q 2172 3584 2448 3432 
Q 2725 3281 2906 2969 
z
M 947 1747 
Q 947 1113 1208 752 
Q 1469 391 1925 391 
Q 2381 391 2643 752 
Q 2906 1113 2906 1747 
Q 2906 2381 2643 2742 
Q 2381 3103 1925 3103 
Q 1469 3103 1208 2742 
Q 947 2381 947 1747 
z
" transform="scale(0.015625)"/>
       <path id="DejaVuSans-65" d="M 3597 1894 
L 3597 1613 
L 953 1613 
Q 991 1019 1311 708 
Q 1631 397 2203 397 
Q 2534 397 2845 478 
Q 3156 559 3463 722 
L 3463 178 
Q 3153 47 2828 -22 
Q 2503 -91 2169 -91 
Q 1331 -91 842 396 
Q 353 884 353 1716 
Q 353 2575 817 3079 
Q 1281 3584 2069 3584 
Q 2775 3584 3186 3129 
Q 3597 2675 3597 1894 
z
M 3022 2063 
Q 3016 2534 2758 2815 
Q 2500 3097 2075 3097 
Q 1594 3097 1305 2825 
Q 1016 2553 972 2059 
L 3022 2063 
z
" transform="scale(0.015625)"/>
       <path id="DejaVuSans-63" d="M 3122 3366 
L 3122 2828 
Q 2878 2963 2633 3030 
Q 2388 3097 2138 3097 
Q 1578 3097 1268 2742 
Q 959 2388 959 1747 
Q 959 1106 1268 751 
Q 1578 397 2138 397 
Q 2388 397 2633 464 
Q 2878 531 3122 666 
L 3122 134 
Q 2881 22 2623 -34 
Q 2366 -91 2075 -91 
Q 1284 -91 818 406 
Q 353 903 353 1747 
Q 353 2603 823 3093 
Q 1294 3584 2113 3584 
Q 2378 3584 2631 3529 
Q 2884 3475 3122 3366 
z
" transform="scale(0.015625)"/>
       <path id="DejaVuSans-72" d="M 2631 2963 
Q 2534 3019 2420 3045 
Q 2306 3072 2169 3072 
Q 1681 3072 1420 2755 
Q 1159 2438 1159 1844 
L 1159 0 
L 581 0 
L 581 3500 
L 1159 3500 
L 1159 2956 
Q 1341 3275 1631 3429 
Q 1922 3584 2338 3584 
Q 2397 3584 2469 3576 
Q 2541 3569 2628 3553 
L 2631 2963 
z
" transform="scale(0.015625)"/>
       <path id="DejaVuSans-61" d="M 2194 1759 
Q 1497 1759 1228 1600 
Q 959 1441 959 1056 
Q 959 750 1161 570 
Q 1363 391 1709 391 
Q 2188 391 2477 730 
Q 2766 1069 2766 1631 
L 2766 1759 
L 2194 1759 
z
M 3341 1997 
L 3341 0 
L 2766 0 
L 2766 531 
Q 2569 213 2275 61 
Q 1981 -91 1556 -91 
Q 1019 -91 701 211 
Q 384 513 384 1019 
Q 384 1609 779 1909 
Q 1175 2209 1959 2209 
L 2766 2209 
L 2766 2266 
Q 2766 2663 2505 2880 
Q 2244 3097 1772 3097 
Q 1472 3097 1187 3025 
Q 903 2953 641 2809 
L 641 3341 
Q 956 3463 1253 3523 
Q 1550 3584 1831 3584 
Q 2591 3584 2966 3190 
Q 3341 2797 3341 1997 
z
" transform="scale(0.015625)"/>
       <path id="DejaVuSans-73" d="M 2834 3397 
L 2834 2853 
Q 2591 2978 2328 3040 
Q 2066 3103 1784 3103 
Q 1356 3103 1142 2972 
Q 928 2841 928 2578 
Q 928 2378 1081 2264 
Q 1234 2150 1697 2047 
L 1894 2003 
Q 2506 1872 2764 1633 
Q 3022 1394 3022 966 
Q 3022 478 2636 193 
Q 2250 -91 1575 -91 
Q 1294 -91 989 -36 
Q 684 19 347 128 
L 347 722 
Q 666 556 975 473 
Q 1284 391 1588 391 
Q 1994 391 2212 530 
Q 2431 669 2431 922 
Q 2431 1156 2273 1281 
Q 2116 1406 1581 1522 
L 1381 1569 
Q 847 1681 609 1914 
Q 372 2147 372 2553 
Q 372 3047 722 3315 
Q 1072 3584 1716 3584 
Q 2034 3584 2315 3537 
Q 2597 3491 2834 3397 
z
" transform="scale(0.015625)"/>
      </defs>
      <use xlink:href="#DejaVuSans-64"/>
      <use xlink:href="#DejaVuSans-65" x="63.476562"/>
      <use xlink:href="#DejaVuSans-63" x="125"/>
      <use xlink:href="#DejaVuSans-72" x="179.980469"/>
      <use xlink:href="#DejaVuSans-65" x="218.84375"/>
      <use xlink:href="#DejaVuSans-61" x="280.367188"/>
      <use xlink:href="#DejaVuSans-73" x="341.646484"/>
      <use xlink:href="#DejaVuSans-65" x="393.746094"/>
      <use xlink:href="#DejaVuSans-73" x="455.269531"/>
     </g>
    </g>
    <g clip-path="url(#p070d24faed)">
     <!-- activity of -->
     <g transform="translate(205.084904 188.358281)scale(0.1 -0.1)">
      <defs>
       <path id="DejaVuSans-74" d="M 1172 4494 
L 1172 3500 
L 2356 3500 
L 2356 3053 
L 1172 3053 
L 1172 1153 
Q 1172 725 1289 603 
Q 1406 481 1766 481 
L 2356 481 
L 2356 0 
L 1766 0 
Q 1100 0 847 248 
Q 594 497 594 1153 
L 594 3053 
L 172 3053 
L 172 3500 
L 594 3500 
L 594 4494 
L 1172 4494 
z
" transform="scale(0.015625)"/>
       <path id="DejaVuSans-69" d="M 603 3500 
L 1178 3500 
L 1178 0 
L 603 0 
L 603 3500 
z
M 603 4863 
L 1178 4863 
L 1178 4134 
L 603 4134 
L 603 4863 
z
" transform="scale(0.015625)"/>
       <path id="DejaVuSans-76" d="M 191 3500 
L 800 3500 
L 1894 563 
L 2988 3500 
L 3597 3500 
L 2284 0 
L 1503 0 
L 191 3500 
z
" transform="scale(0.015625)"/>
       <path id="DejaVuSans-79" d="M 2059 -325 
Q 1816 -950 1584 -1140 
Q 1353 -1331 966 -1331 
L 506 -1331 
L 506 -850 
L 844 -850 
Q 1081 -850 1212 -737 
Q 1344 -625 1503 -206 
L 1606 56 
L 191 3500 
L 800 3500 
L 1894 763 
L 2988 3500 
L 3597 3500 
L 2059 -325 
z
" transform="scale(0.015625)"/>
       <path id="DejaVuSans-20" transform="scale(0.015625)"/>
       <path id="DejaVuSans-6f" d="M 1959 3097 
Q 1497 3097 1228 2736 
Q 959 2375 959 1747 
Q 959 1119 1226 758 
Q 1494 397 1959 397 
Q 2419 397 2687 759 
Q 2956 1122 2956 1747 
Q 2956 2369 2687 2733 
Q 2419 3097 1959 3097 
z
M 1959 3584 
Q 2709 3584 3137 3096 
Q 3566 2609 3566 1747 
Q 3566 888 3137 398 
Q 2709 -91 1959 -91 
Q 1206 -91 779 398 
Q 353 888 353 1747 
Q 353 2609 779 3096 
Q 1206 3584 1959 3584 
z
" transform="scale(0.015625)"/>
       <path id="DejaVuSans-66" d="M 2375 4863 
L 2375 4384 
L 1825 4384 
Q 1516 4384 1395 4259 
Q 1275 4134 1275 3809 
L 1275 3500 
L 2222 3500 
L 2222 3053 
L 1275 3053 
L 1275 0 
L 697 0 
L 697 3053 
L 147 3053 
L 147 3500 
L 697 3500 
L 697 3744 
Q 697 4328 969 4595 
Q 1241 4863 1831 4863 
L 2375 4863 
z
" transform="scale(0.015625)"/>
      </defs>
      <use xlink:href="#DejaVuSans-61"/>
      <use xlink:href="#DejaVuSans-63" x="61.279297"/>
      <use xlink:href="#DejaVuSans-74" x="116.259766"/>
      <use xlink:href="#DejaVuSans-69" x="155.46875"/>
      <use xlink:href="#DejaVuSans-76" x="183.251953"/>
      <use xlink:href="#DejaVuSans-69" x="242.431641"/>
      <use xlink:href="#DejaVuSans-74" x="270.214844"/>
      <use xlink:href="#DejaVuSans-79" x="309.423828"/>
      <use xlink:href="#DejaVuSans-20" x="368.603516"/>
      <use xlink:href="#DejaVuSans-6f" x="400.390625"/>
      <use xlink:href="#DejaVuSans-66" x="461.572266"/>
     </g>
    </g>
   </g>
   <g id="text_2">
    <g id="patch_7">
     <path d="M 444.03351 187.839062 
L 515.649135 187.839062 
Q 518.649135 187.839062 518.649135 184.839062 
L 518.649135 175.160937 
Q 518.649135 172.160937 515.649135 172.160937 
L 444.03351 172.160937 
Q 441.03351 172.160937 441.03351 175.160937 
L 441.03351 184.839062 
Q 441.03351 187.839062 444.03351 187.839062 
z
" clip-path="url(#p070d24faed)" style="fill: #ffffff; stroke: #ffffff; stroke-linejoin: miter"/>
    </g>
    <g clip-path="url(#p070d24faed)">
     <!-- participates in -->
     <g transform="translate(444.03351 182.759375)scale(0.1 -0.1)">
      <defs>
       <path id="DejaVuSans-70" d="M 1159 525 
L 1159 -1331 
L 581 -1331 
L 581 3500 
L 1159 3500 
L 1159 2969 
Q 1341 3281 1617 3432 
Q 1894 3584 2278 3584 
Q 2916 3584 3314 3078 
Q 3713 2572 3713 1747 
Q 3713 922 3314 415 
Q 2916 -91 2278 -91 
Q 1894 -91 1617 61 
Q 1341 213 1159 525 
z
M 3116 1747 
Q 3116 2381 2855 2742 
Q 2594 3103 2138 3103 
Q 1681 3103 1420 2742 
Q 1159 2381 1159 1747 
Q 1159 1113 1420 752 
Q 1681 391 2138 391 
Q 2594 391 2855 752 
Q 3116 1113 3116 1747 
z
" transform="scale(0.015625)"/>
       <path id="DejaVuSans-6e" d="M 3513 2113 
L 3513 0 
L 2938 0 
L 2938 2094 
Q 2938 2591 2744 2837 
Q 2550 3084 2163 3084 
Q 1697 3084 1428 2787 
Q 1159 2491 1159 1978 
L 1159 0 
L 581 0 
L 581 3500 
L 1159 3500 
L 1159 2956 
Q 1366 3272 1645 3428 
Q 1925 3584 2291 3584 
Q 2894 3584 3203 3211 
Q 3513 2838 3513 2113 
z
" transform="scale(0.015625)"/>
      </defs>
      <use xlink:href="#DejaVuSans-70"/>
      <use xlink:href="#DejaVuSans-61" x="63.476562"/>
      <use xlink:href="#DejaVuSans-72" x="124.755859"/>
      <use xlink:href="#DejaVuSans-74" x="165.869141"/>
      <use xlink:href="#DejaVuSans-69" x="205.078125"/>
      <use xlink:href="#DejaVuSans-63" x="232.861328"/>
      <use xlink:href="#DejaVuSans-69" x="287.841797"/>
      <use xlink:href="#DejaVuSans-70" x="315.625"/>
      <use xlink:href="#DejaVuSans-61" x="379.101562"/>
      <use xlink:href="#DejaVuSans-74" x="440.380859"/>
      <use xlink:href="#DejaVuSans-65" x="479.589844"/>
      <use xlink:href="#DejaVuSans-73" x="541.113281"/>
      <use xlink:href="#DejaVuSans-20" x="593.212891"/>
      <use xlink:href="#DejaVuSans-69" x="625"/>
      <use xlink:href="#DejaVuSans-6e" x="652.783203"/>
     </g>
    </g>
   </g>
   <g id="text_3">
    <g id="patch_8">
     <path d="M 692.183678 187.839062 
L 767.333678 187.839062 
Q 770.333678 187.839062 770.333678 184.839062 
L 770.333678 175.160937 
Q 770.333678 172.160937 767.333678 172.160937 
L 692.183678 172.160937 
Q 689.183678 172.160937 689.183678 175.160937 
L 689.183678 184.839062 
Q 689.183678 187.839062 692.183678 187.839062 
z
" clip-path="url(#p070d24faed)" style="fill: #ffffff; stroke: #ffffff; stroke-linejoin: miter"/>
    </g>
    <g clip-path="url(#p070d24faed)">
     <!-- has participant -->
     <g transform="translate(692.183678 182.759375)scale(0.1 -0.1)">
      <defs>
       <path id="DejaVuSans-68" d="M 3513 2113 
L 3513 0 
L 2938 0 
L 2938 2094 
Q 2938 2591 2744 2837 
Q 2550 3084 2163 3084 
Q 1697 3084 1428 2787 
Q 1159 2491 1159 1978 
L 1159 0 
L 581 0 
L 581 4863 
L 1159 4863 
L 1159 2956 
Q 1366 3272 1645 3428 
Q 1925 3584 2291 3584 
Q 2894 3584 3203 3211 
Q 3513 2838 3513 2113 
z
" transform="scale(0.015625)"/>
      </defs>
      <use xlink:href="#DejaVuSans-68"/>
      <use xlink:href="#DejaVuSans-61" x="63.378906"/>
      <use xlink:href="#DejaVuSans-73" x="124.658203"/>
      <use xlink:href="#DejaVuSans-20" x="176.757812"/>
      <use xlink:href="#DejaVuSans-70" x="208.544922"/>
      <use xlink:href="#DejaVuSans-61" x="272.021484"/>
      <use xlink:href="#DejaVuSans-72" x="333.300781"/>
      <use xlink:href="#DejaVuSans-74" x="374.414062"/>
      <use xlink:href="#DejaVuSans-69" x="413.623047"/>
      <use xlink:href="#DejaVuSans-63" x="441.40625"/>
      <use xlink:href="#DejaVuSans-69" x="496.386719"/>
      <use xlink:href="#DejaVuSans-70" x="524.169922"/>
      <use xlink:href="#DejaVuSans-61" x="587.646484"/>
      <use xlink:href="#DejaVuSans-6e" x="648.925781"/>
      <use xlink:href="#DejaVuSans-74" x="712.304688"/>
     </g>
    </g>
   </g>
   <g id="text_4">
    <g id="patch_9">
     <path d="M 945.140877 193.437969 
L 1014.211189 193.437969 
Q 1017.211189 193.437969 1017.211189 190.437969 
L 1017.211189 169.562031 
Q 1017.211189 166.562031 1014.211189 166.562031 
L 945.140877 166.562031 
Q 942.140877 166.562031 942.140877 169.562031 
L 942.140877 190.437969 
Q 942.140877 193.437969 945.140877 193.437969 
z
" clip-path="url(#p070d24faed)" style="fill: #ffffff; stroke: #ffffff; stroke-linejoin: miter"/>
    </g>
    <g clip-path="url(#p070d24faed)">
     <!-- manifestation -->
     <g transform="translate(945.140877 177.160469)scale(0.1 -0.1)">
      <defs>
       <path id="DejaVuSans-6d" d="M 3328 2828 
Q 3544 3216 3844 3400 
Q 4144 3584 4550 3584 
Q 5097 3584 5394 3201 
Q 5691 2819 5691 2113 
L 5691 0 
L 5113 0 
L 5113 2094 
Q 5113 2597 4934 2840 
Q 4756 3084 4391 3084 
Q 3944 3084 3684 2787 
Q 3425 2491 3425 1978 
L 3425 0 
L 2847 0 
L 2847 2094 
Q 2847 2600 2669 2842 
Q 2491 3084 2119 3084 
Q 1678 3084 1418 2786 
Q 1159 2488 1159 1978 
L 1159 0 
L 581 0 
L 581 3500 
L 1159 3500 
L 1159 2956 
Q 1356 3278 1631 3431 
Q 1906 3584 2284 3584 
Q 2666 3584 2933 3390 
Q 3200 3197 3328 2828 
z
" transform="scale(0.015625)"/>
      </defs>
      <use xlink:href="#DejaVuSans-6d"/>
      <use xlink:href="#DejaVuSans-61" x="97.412109"/>
      <use xlink:href="#DejaVuSans-6e" x="158.691406"/>
      <use xlink:href="#DejaVuSans-69" x="222.070312"/>
      <use xlink:href="#DejaVuSans-66" x="249.853516"/>
      <use xlink:href="#DejaVuSans-65" x="285.058594"/>
      <use xlink:href="#DejaVuSans-73" x="346.582031"/>
      <use xlink:href="#DejaVuSans-74" x="398.681641"/>
      <use xlink:href="#DejaVuSans-61" x="437.890625"/>
      <use xlink:href="#DejaVuSans-74" x="499.169922"/>
      <use xlink:href="#DejaVuSans-69" x="538.378906"/>
      <use xlink:href="#DejaVuSans-6f" x="566.162109"/>
      <use xlink:href="#DejaVuSans-6e" x="627.34375"/>
     </g>
    </g>
    <g clip-path="url(#p070d24faed)">
     <!-- of -->
     <g transform="translate(974.856502 188.358281)scale(0.1 -0.1)">
      <use xlink:href="#DejaVuSans-6f"/>
      <use xlink:href="#DejaVuSans-66" x="61.181641"/>
     </g>
    </g>
   </g>
   <g id="PathCollection_1">
    <defs>
     <path id="C0_0_fd1545b348" d="M 0 52.440442 
C 13.907368 52.440442 27.246998 46.914987 37.080992 37.080992 
C 46.914987 27.246998 52.440442 13.907368 52.440442 -0 
C 52.440442 -13.907368 46.914987 -27.246998 37.080992 -37.080992 
C 27.246998 -46.914987 13.907368 -52.440442 0 -52.440442 
C -13.907368 -52.440442 -27.246998 -46.914987 -37.080992 -37.080992 
C -46.914987 -27.246998 -52.440442 -13.907368 -52.440442 0 
C -52.440442 13.907368 -46.914987 27.246998 -37.080992 37.080992 
C -27.246998 46.914987 -13.907368 52.440442 0 52.440442 
z
"/>
    </defs>
    <g clip-path="url(#p070d24faed)">
     <use xlink:href="#C0_0_fd1545b348" x="104.965289" y="180" style="fill: #01c472; stroke: #01c472"/>
    </g>
    <g clip-path="url(#p070d24faed)">
     <use xlink:href="#C0_0_fd1545b348" x="354.882645" y="180" style="fill: #e71761; stroke: #e71761"/>
    </g>
    <g clip-path="url(#p070d24faed)">
     <use xlink:href="#C0_0_fd1545b348" x="604.8" y="180" style="fill: #b1d34f; stroke: #b1d34f"/>
    </g>
    <g clip-path="url(#p070d24faed)">
     <use xlink:href="#C0_0_fd1545b348" x="854.717355" y="180" style="fill: #01c472; stroke: #01c472"/>
    </g>
    <g clip-path="url(#p070d24faed)">
     <use xlink:href="#C0_0_fd1545b348" x="1104.634711" y="180" style="fill: #70c6ca; stroke: #70c6ca"/>
    </g>
   </g>
   <g id="text_5">
    <path d="M 315.081082 155.572687 
L 313.474207 159.926437 
L 316.691707 159.926437 
L 315.081082 155.572687 
z
M 314.411707 154.406437 
L 315.754207 154.406437 
L 319.087957 163.155187 
L 317.857957 163.155187 
L 317.061082 160.910812 
L 313.117957 160.910812 
L 312.321082 163.155187 
L 311.072332 163.155187 
L 314.411707 154.406437 
z
M 325.427567 157.852687 
Q 325.832567 157.125187 326.395067 156.780187 
Q 326.957567 156.435187 327.718817 156.435187 
Q 328.744442 156.435187 329.301317 157.153312 
Q 329.858192 157.869562 329.858192 159.193312 
L 329.858192 163.155187 
L 328.774442 163.155187 
L 328.774442 159.228937 
Q 328.774442 158.285812 328.438817 157.830187 
Q 328.105067 157.372687 327.420692 157.372687 
Q 326.582567 157.372687 326.095067 157.929562 
Q 325.609442 158.484562 325.609442 159.446437 
L 325.609442 163.155187 
L 324.525692 163.155187 
L 324.525692 159.228937 
Q 324.525692 158.280187 324.191942 157.826437 
Q 323.858192 157.372687 323.160692 157.372687 
Q 322.333817 157.372687 321.846317 157.931437 
Q 321.360692 158.490187 321.360692 159.446437 
L 321.360692 163.155187 
L 320.276942 163.155187 
L 320.276942 156.592687 
L 321.360692 156.592687 
L 321.360692 157.612687 
Q 321.730067 157.008937 322.245692 156.722062 
Q 322.761317 156.435187 323.470067 156.435187 
Q 324.186317 156.435187 324.686942 156.798937 
Q 325.187567 157.160812 325.427567 157.852687 
z
M 332.007645 156.592687 
L 333.08577 156.592687 
L 333.08577 163.155187 
L 332.007645 163.155187 
L 332.007645 156.592687 
z
M 332.007645 154.037062 
L 333.08577 154.037062 
L 333.08577 155.403937 
L 332.007645 155.403937 
L 332.007645 154.037062 
z
M 340.797879 159.193312 
L 340.797879 163.155187 
L 339.719754 163.155187 
L 339.719754 159.228937 
Q 339.719754 158.297062 339.356004 157.835812 
Q 338.992254 157.372687 338.266629 157.372687 
Q 337.392879 157.372687 336.888504 157.929562 
Q 336.384129 158.484562 336.384129 159.446437 
L 336.384129 163.155187 
L 335.300379 163.155187 
L 335.300379 156.592687 
L 336.384129 156.592687 
L 336.384129 157.612687 
Q 336.772254 157.020187 337.295379 156.727687 
Q 337.820379 156.435187 338.506629 156.435187 
Q 339.637254 156.435187 340.216629 157.134562 
Q 340.797879 157.833937 340.797879 159.193312 
z
M 345.489598 157.348312 
Q 344.623348 157.348312 344.118973 158.025187 
Q 343.614598 158.702062 343.614598 159.879562 
Q 343.614598 161.057062 344.115223 161.733937 
Q 344.617723 162.410812 345.489598 162.410812 
Q 346.352098 162.410812 346.854598 161.732062 
Q 347.358973 161.051437 347.358973 159.879562 
Q 347.358973 158.713312 346.854598 158.030812 
Q 346.352098 157.348312 345.489598 157.348312 
z
M 345.489598 156.435187 
Q 346.895848 156.435187 347.698348 157.350187 
Q 348.502723 158.263312 348.502723 159.879562 
Q 348.502723 161.490187 347.698348 162.408937 
Q 346.895848 163.325812 345.489598 163.325812 
Q 344.077723 163.325812 343.277098 162.408937 
Q 342.478348 161.490187 342.478348 159.879562 
Q 342.478348 158.263312 343.277098 157.350187 
Q 344.077723 156.435187 345.489598 156.435187 
z
M 350.288895 154.037062 
L 351.36702 154.037062 
L 351.36702 163.155187 
L 350.288895 163.155187 
L 350.288895 154.037062 
z
M 359.236629 159.603937 
L 359.236629 160.130812 
L 354.279129 160.130812 
Q 354.350379 161.244562 354.950379 161.827687 
Q 355.550379 162.410812 356.622879 162.410812 
Q 357.243504 162.410812 357.826629 162.258937 
Q 358.409754 162.107062 358.985379 161.801437 
L 358.985379 162.821437 
Q 358.404129 163.067062 357.794754 163.196437 
Q 357.185379 163.325812 356.559129 163.325812 
Q 354.987879 163.325812 354.071004 162.412687 
Q 353.154129 161.497687 353.154129 159.937687 
Q 353.154129 158.327062 354.024129 157.382062 
Q 354.894129 156.435187 356.371629 156.435187 
Q 357.695379 156.435187 358.466004 157.288312 
Q 359.236629 158.139562 359.236629 159.603937 
z
M 358.158504 159.287062 
Q 358.147254 158.403937 357.663504 157.877062 
Q 357.179754 157.348312 356.382879 157.348312 
Q 355.481004 157.348312 354.939129 157.858312 
Q 354.397254 158.368312 354.314754 159.294562 
L 358.158504 159.287062 
z
M 360.233192 156.592687 
L 361.375067 156.592687 
L 363.426317 162.099562 
L 365.477567 156.592687 
L 366.619442 156.592687 
L 364.157567 163.155187 
L 362.693192 163.155187 
L 360.233192 156.592687 
z
M 367.996629 160.565812 
L 367.996629 156.592687 
L 369.074754 156.592687 
L 369.074754 160.524562 
Q 369.074754 161.456437 369.436629 161.923312 
Q 369.800379 162.388312 370.527879 162.388312 
Q 371.399754 162.388312 371.906004 161.831437 
Q 372.414129 161.274562 372.414129 160.312687 
L 372.414129 156.592687 
L 373.492254 156.592687 
L 373.492254 163.155187 
L 372.414129 163.155187 
L 372.414129 162.146437 
Q 372.022254 162.744562 371.502879 163.035187 
Q 370.985379 163.325812 370.299129 163.325812 
Q 369.168504 163.325812 368.581629 162.622687 
Q 367.996629 161.919562 367.996629 160.565812 
z
M 370.709754 156.435187 
L 370.709754 156.435187 
z
M 375.712723 154.037062 
L 376.790848 154.037062 
L 376.790848 163.155187 
L 375.712723 163.155187 
L 375.712723 154.037062 
z
M 379.046707 156.592687 
L 380.124832 156.592687 
L 380.124832 163.155187 
L 379.046707 163.155187 
L 379.046707 156.592687 
z
M 379.046707 154.037062 
L 380.124832 154.037062 
L 380.124832 155.403937 
L 379.046707 155.403937 
L 379.046707 154.037062 
z
M 387.836942 159.193312 
L 387.836942 163.155187 
L 386.758817 163.155187 
L 386.758817 159.228937 
Q 386.758817 158.297062 386.395067 157.835812 
Q 386.031317 157.372687 385.305692 157.372687 
Q 384.431942 157.372687 383.927567 157.929562 
Q 383.423192 158.484562 383.423192 159.446437 
L 383.423192 163.155187 
L 382.339442 163.155187 
L 382.339442 156.592687 
L 383.423192 156.592687 
L 383.423192 157.612687 
Q 383.811317 157.020187 384.334442 156.727687 
Q 384.859442 156.435187 385.545692 156.435187 
Q 386.676317 156.435187 387.255692 157.134562 
Q 387.836942 157.833937 387.836942 159.193312 
z
M 389.98616 156.592687 
L 391.064285 156.592687 
L 391.064285 163.155187 
L 389.98616 163.155187 
L 389.98616 156.592687 
z
M 389.98616 154.037062 
L 391.064285 154.037062 
L 391.064285 155.403937 
L 389.98616 155.403937 
L 389.98616 154.037062 
z
M 398.04327 156.843937 
L 398.04327 157.852687 
Q 397.58577 157.599562 397.126395 157.473937 
Q 396.66702 157.348312 396.19827 157.348312 
Q 395.14827 157.348312 394.56702 158.013937 
Q 393.987645 158.677687 393.987645 159.879562 
Q 393.987645 161.081437 394.56702 161.747062 
Q 395.14827 162.410812 396.19827 162.410812 
Q 396.66702 162.410812 397.126395 162.285187 
Q 397.58577 162.159562 398.04327 161.906437 
L 398.04327 162.903937 
Q 397.591395 163.113937 397.107645 163.218937 
Q 396.62577 163.325812 396.080145 163.325812 
Q 394.59702 163.325812 393.72327 162.393937 
Q 392.851395 161.462062 392.851395 159.879562 
Q 392.851395 158.274562 393.732645 157.355812 
Q 394.61577 156.435187 396.151395 156.435187 
Q 396.64827 156.435187 397.122645 156.538312 
Q 397.59702 156.639562 398.04327 156.843937 
z
" clip-path="url(#p070d24faed)" style="fill: #ffffff; stroke: #000000; stroke-width: 2"/>
    <path d="M 315.081082 155.572687 
L 313.474207 159.926437 
L 316.691707 159.926437 
L 315.081082 155.572687 
z
M 314.411707 154.406437 
L 315.754207 154.406437 
L 319.087957 163.155187 
L 317.857957 163.155187 
L 317.061082 160.910812 
L 313.117957 160.910812 
L 312.321082 163.155187 
L 311.072332 163.155187 
L 314.411707 154.406437 
z
M 325.427567 157.852687 
Q 325.832567 157.125187 326.395067 156.780187 
Q 326.957567 156.435187 327.718817 156.435187 
Q 328.744442 156.435187 329.301317 157.153312 
Q 329.858192 157.869562 329.858192 159.193312 
L 329.858192 163.155187 
L 328.774442 163.155187 
L 328.774442 159.228937 
Q 328.774442 158.285812 328.438817 157.830187 
Q 328.105067 157.372687 327.420692 157.372687 
Q 326.582567 157.372687 326.095067 157.929562 
Q 325.609442 158.484562 325.609442 159.446437 
L 325.609442 163.155187 
L 324.525692 163.155187 
L 324.525692 159.228937 
Q 324.525692 158.280187 324.191942 157.826437 
Q 323.858192 157.372687 323.160692 157.372687 
Q 322.333817 157.372687 321.846317 157.931437 
Q 321.360692 158.490187 321.360692 159.446437 
L 321.360692 163.155187 
L 320.276942 163.155187 
L 320.276942 156.592687 
L 321.360692 156.592687 
L 321.360692 157.612687 
Q 321.730067 157.008937 322.245692 156.722062 
Q 322.761317 156.435187 323.470067 156.435187 
Q 324.186317 156.435187 324.686942 156.798937 
Q 325.187567 157.160812 325.427567 157.852687 
z
M 332.007645 156.592687 
L 333.08577 156.592687 
L 333.08577 163.155187 
L 332.007645 163.155187 
L 332.007645 156.592687 
z
M 332.007645 154.037062 
L 333.08577 154.037062 
L 333.08577 155.403937 
L 332.007645 155.403937 
L 332.007645 154.037062 
z
M 340.797879 159.193312 
L 340.797879 163.155187 
L 339.719754 163.155187 
L 339.719754 159.228937 
Q 339.719754 158.297062 339.356004 157.835812 
Q 338.992254 157.372687 338.266629 157.372687 
Q 337.392879 157.372687 336.888504 157.929562 
Q 336.384129 158.484562 336.384129 159.446437 
L 336.384129 163.155187 
L 335.300379 163.155187 
L 335.300379 156.592687 
L 336.384129 156.592687 
L 336.384129 157.612687 
Q 336.772254 157.020187 337.295379 156.727687 
Q 337.820379 156.435187 338.506629 156.435187 
Q 339.637254 156.435187 340.216629 157.134562 
Q 340.797879 157.833937 340.797879 159.193312 
z
M 345.489598 157.348312 
Q 344.623348 157.348312 344.118973 158.025187 
Q 343.614598 158.702062 343.614598 159.879562 
Q 343.614598 161.057062 344.115223 161.733937 
Q 344.617723 162.410812 345.489598 162.410812 
Q 346.352098 162.410812 346.854598 161.732062 
Q 347.358973 161.051437 347.358973 159.879562 
Q 347.358973 158.713312 346.854598 158.030812 
Q 346.352098 157.348312 345.489598 157.348312 
z
M 345.489598 156.435187 
Q 346.895848 156.435187 347.698348 157.350187 
Q 348.502723 158.263312 348.502723 159.879562 
Q 348.502723 161.490187 347.698348 162.408937 
Q 346.895848 163.325812 345.489598 163.325812 
Q 344.077723 163.325812 343.277098 162.408937 
Q 342.478348 161.490187 342.478348 159.879562 
Q 342.478348 158.263312 343.277098 157.350187 
Q 344.077723 156.435187 345.489598 156.435187 
z
M 350.288895 154.037062 
L 351.36702 154.037062 
L 351.36702 163.155187 
L 350.288895 163.155187 
L 350.288895 154.037062 
z
M 359.236629 159.603937 
L 359.236629 160.130812 
L 354.279129 160.130812 
Q 354.350379 161.244562 354.950379 161.827687 
Q 355.550379 162.410812 356.622879 162.410812 
Q 357.243504 162.410812 357.826629 162.258937 
Q 358.409754 162.107062 358.985379 161.801437 
L 358.985379 162.821437 
Q 358.404129 163.067062 357.794754 163.196437 
Q 357.185379 163.325812 356.559129 163.325812 
Q 354.987879 163.325812 354.071004 162.412687 
Q 353.154129 161.497687 353.154129 159.937687 
Q 353.154129 158.327062 354.024129 157.382062 
Q 354.894129 156.435187 356.371629 156.435187 
Q 357.695379 156.435187 358.466004 157.288312 
Q 359.236629 158.139562 359.236629 159.603937 
z
M 358.158504 159.287062 
Q 358.147254 158.403937 357.663504 157.877062 
Q 357.179754 157.348312 356.382879 157.348312 
Q 355.481004 157.348312 354.939129 157.858312 
Q 354.397254 158.368312 354.314754 159.294562 
L 358.158504 159.287062 
z
M 360.233192 156.592687 
L 361.375067 156.592687 
L 363.426317 162.099562 
L 365.477567 156.592687 
L 366.619442 156.592687 
L 364.157567 163.155187 
L 362.693192 163.155187 
L 360.233192 156.592687 
z
M 367.996629 160.565812 
L 367.996629 156.592687 
L 369.074754 156.592687 
L 369.074754 160.524562 
Q 369.074754 161.456437 369.436629 161.923312 
Q 369.800379 162.388312 370.527879 162.388312 
Q 371.399754 162.388312 371.906004 161.831437 
Q 372.414129 161.274562 372.414129 160.312687 
L 372.414129 156.592687 
L 373.492254 156.592687 
L 373.492254 163.155187 
L 372.414129 163.155187 
L 372.414129 162.146437 
Q 372.022254 162.744562 371.502879 163.035187 
Q 370.985379 163.325812 370.299129 163.325812 
Q 369.168504 163.325812 368.581629 162.622687 
Q 367.996629 161.919562 367.996629 160.565812 
z
M 370.709754 156.435187 
L 370.709754 156.435187 
z
M 375.712723 154.037062 
L 376.790848 154.037062 
L 376.790848 163.155187 
L 375.712723 163.155187 
L 375.712723 154.037062 
z
M 379.046707 156.592687 
L 380.124832 156.592687 
L 380.124832 163.155187 
L 379.046707 163.155187 
L 379.046707 156.592687 
z
M 379.046707 154.037062 
L 380.124832 154.037062 
L 380.124832 155.403937 
L 379.046707 155.403937 
L 379.046707 154.037062 
z
M 387.836942 159.193312 
L 387.836942 163.155187 
L 386.758817 163.155187 
L 386.758817 159.228937 
Q 386.758817 158.297062 386.395067 157.835812 
Q 386.031317 157.372687 385.305692 157.372687 
Q 384.431942 157.372687 383.927567 157.929562 
Q 383.423192 158.484562 383.423192 159.446437 
L 383.423192 163.155187 
L 382.339442 163.155187 
L 382.339442 156.592687 
L 383.423192 156.592687 
L 383.423192 157.612687 
Q 383.811317 157.020187 384.334442 156.727687 
Q 384.859442 156.435187 385.545692 156.435187 
Q 386.676317 156.435187 387.255692 157.134562 
Q 387.836942 157.833937 387.836942 159.193312 
z
M 389.98616 156.592687 
L 391.064285 156.592687 
L 391.064285 163.155187 
L 389.98616 163.155187 
L 389.98616 156.592687 
z
M 389.98616 154.037062 
L 391.064285 154.037062 
L 391.064285 155.403937 
L 389.98616 155.403937 
L 389.98616 154.037062 
z
M 398.04327 156.843937 
L 398.04327 157.852687 
Q 397.58577 157.599562 397.126395 157.473937 
Q 396.66702 157.348312 396.19827 157.348312 
Q 395.14827 157.348312 394.56702 158.013937 
Q 393.987645 158.677687 393.987645 159.879562 
Q 393.987645 161.081437 394.56702 161.747062 
Q 395.14827 162.410812 396.19827 162.410812 
Q 396.66702 162.410812 397.126395 162.285187 
Q 397.58577 162.159562 398.04327 161.906437 
L 398.04327 162.903937 
Q 397.591395 163.113937 397.107645 163.218937 
Q 396.62577 163.325812 396.080145 163.325812 
Q 394.59702 163.325812 393.72327 162.393937 
Q 392.851395 161.462062 392.851395 159.879562 
Q 392.851395 158.274562 393.732645 157.355812 
Q 394.61577 156.435187 396.151395 156.435187 
Q 396.64827 156.435187 397.122645 156.538312 
Q 397.59702 156.639562 398.04327 156.843937 
z
" clip-path="url(#p070d24faed)" style="fill: #ffffff"/>
    <path d="M 317.509207 173.294437 
Q 316.202332 173.294437 315.697957 173.592562 
Q 315.193582 173.890687 315.193582 174.612562 
Q 315.193582 175.186312 315.572332 175.523812 
Q 315.951082 175.859437 316.599832 175.859437 
Q 317.497957 175.859437 318.039832 175.223812 
Q 318.581707 174.588187 318.581707 173.534437 
L 318.581707 173.294437 
L 317.509207 173.294437 
z
M 319.659832 172.848187 
L 319.659832 176.592562 
L 318.581707 176.592562 
L 318.581707 175.596937 
Q 318.212332 176.193187 317.661082 176.478187 
Q 317.109832 176.763187 316.312957 176.763187 
Q 315.306082 176.763187 314.709832 176.196937 
Q 314.115457 175.630687 314.115457 174.681937 
Q 314.115457 173.575687 314.856082 173.013187 
Q 315.598582 172.450687 317.068582 172.450687 
L 318.581707 172.450687 
L 318.581707 172.343812 
Q 318.581707 171.599437 318.092332 171.192562 
Q 317.602957 170.785687 316.717957 170.785687 
Q 316.155457 170.785687 315.621082 170.920687 
Q 315.088582 171.055687 314.597332 171.325687 
L 314.597332 170.328187 
Q 315.187957 170.099437 315.744832 169.986937 
Q 316.301707 169.872562 316.828582 169.872562 
Q 318.253582 169.872562 318.956707 170.611312 
Q 319.659832 171.348187 319.659832 172.848187 
z
M 326.602723 170.281312 
L 326.602723 171.290062 
Q 326.145223 171.036937 325.685848 170.911312 
Q 325.226473 170.785687 324.757723 170.785687 
Q 323.707723 170.785687 323.126473 171.451312 
Q 322.547098 172.115062 322.547098 173.316937 
Q 322.547098 174.518812 323.126473 175.184437 
Q 323.707723 175.848187 324.757723 175.848187 
Q 325.226473 175.848187 325.685848 175.722562 
Q 326.145223 175.596937 326.602723 175.343812 
L 326.602723 176.341312 
Q 326.150848 176.551312 325.667098 176.656312 
Q 325.185223 176.763187 324.639598 176.763187 
Q 323.156473 176.763187 322.282723 175.831312 
Q 321.410848 174.899437 321.410848 173.316937 
Q 321.410848 171.711937 322.292098 170.793187 
Q 323.175223 169.872562 324.710848 169.872562 
Q 325.207723 169.872562 325.682098 169.975687 
Q 326.156473 170.076937 326.602723 170.281312 
z
M 328.477254 170.030062 
L 329.555379 170.030062 
L 329.555379 176.592562 
L 328.477254 176.592562 
L 328.477254 170.030062 
z
M 328.477254 167.474437 
L 329.555379 167.474437 
L 329.555379 168.841312 
L 328.477254 168.841312 
L 328.477254 167.474437 
z
M 336.129363 171.025687 
L 336.129363 167.474437 
L 337.207488 167.474437 
L 337.207488 176.592562 
L 336.129363 176.592562 
L 336.129363 175.608187 
Q 335.789988 176.193187 335.270613 176.478187 
Q 334.753113 176.763187 334.025613 176.763187 
Q 332.836863 176.763187 332.088738 175.814437 
Q 331.342488 174.863812 331.342488 173.316937 
Q 331.342488 171.770062 332.088738 170.821312 
Q 332.836863 169.872562 334.025613 169.872562 
Q 334.753113 169.872562 335.270613 170.157562 
Q 335.789988 170.440687 336.129363 171.025687 
z
M 332.456238 173.316937 
Q 332.456238 174.505687 332.945613 175.182562 
Q 333.434988 175.859437 334.289988 175.859437 
Q 335.144988 175.859437 335.636238 175.182562 
Q 336.129363 174.505687 336.129363 173.316937 
Q 336.129363 172.128187 335.636238 171.451312 
Q 335.144988 170.774437 334.289988 170.774437 
Q 333.434988 170.774437 332.945613 171.451312 
Q 332.456238 172.128187 332.456238 173.316937 
z
M 347.426004 170.223187 
L 347.426004 171.243187 
Q 346.970379 171.008812 346.477254 170.892562 
Q 345.986004 170.774437 345.457254 170.774437 
Q 344.654754 170.774437 344.253504 171.020062 
Q 343.852254 171.265687 343.852254 171.758812 
Q 343.852254 172.133812 344.139129 172.347562 
Q 344.426004 172.561312 345.294129 172.754437 
L 345.663504 172.836937 
Q 346.811004 173.082562 347.294754 173.530687 
Q 347.778504 173.978812 347.778504 174.781312 
Q 347.778504 175.696312 347.054754 176.230687 
Q 346.331004 176.763187 345.065379 176.763187 
Q 344.538504 176.763187 343.966629 176.660062 
Q 343.394754 176.556937 342.762879 176.352562 
L 342.762879 175.238812 
Q 343.361004 175.550062 343.940379 175.705687 
Q 344.519754 175.859437 345.089754 175.859437 
Q 345.851004 175.859437 346.259754 175.598812 
Q 346.670379 175.338187 346.670379 174.863812 
Q 346.670379 174.425062 346.374129 174.190687 
Q 346.079754 173.956312 345.076629 173.738812 
L 344.701629 173.650687 
Q 343.700379 173.440687 343.254129 173.003812 
Q 342.809754 172.566937 342.809754 171.805687 
Q 342.809754 170.879437 343.466004 170.376937 
Q 344.122254 169.872562 345.329754 169.872562 
Q 345.926004 169.872562 346.452879 169.960687 
Q 346.981629 170.046937 347.426004 170.223187 
z
M 352.224832 177.201937 
Q 351.769207 178.373812 351.334207 178.730062 
Q 350.901082 179.088187 350.175457 179.088187 
L 349.312957 179.088187 
L 349.312957 178.186312 
L 349.946707 178.186312 
Q 350.391082 178.186312 350.636707 177.974437 
Q 350.884207 177.764437 351.182332 176.978812 
L 351.375457 176.487562 
L 348.722332 170.030062 
L 349.864207 170.030062 
L 351.915457 175.161937 
L 353.966707 170.030062 
L 355.108582 170.030062 
L 352.224832 177.201937 
z
M 362.052645 172.630687 
L 362.052645 176.592562 
L 360.97452 176.592562 
L 360.97452 172.666312 
Q 360.97452 171.734437 360.61077 171.273187 
Q 360.24702 170.810062 359.521395 170.810062 
Q 358.647645 170.810062 358.14327 171.366937 
Q 357.638895 171.921937 357.638895 172.883812 
L 357.638895 176.592562 
L 356.555145 176.592562 
L 356.555145 170.030062 
L 357.638895 170.030062 
L 357.638895 171.050062 
Q 358.02702 170.457562 358.550145 170.165062 
Q 359.075145 169.872562 359.761395 169.872562 
Q 360.89202 169.872562 361.471395 170.571937 
Q 362.052645 171.271312 362.052645 172.630687 
z
M 365.268738 168.166312 
L 365.268738 170.030062 
L 367.488738 170.030062 
L 367.488738 170.868187 
L 365.268738 170.868187 
L 365.268738 174.430687 
Q 365.268738 175.233187 365.488113 175.461937 
Q 365.707488 175.690687 366.382488 175.690687 
L 367.488738 175.690687 
L 367.488738 176.592562 
L 366.382488 176.592562 
Q 365.133738 176.592562 364.659363 176.127562 
Q 364.184988 175.660687 364.184988 174.430687 
L 364.184988 170.868187 
L 363.393738 170.868187 
L 363.393738 170.030062 
L 364.184988 170.030062 
L 364.184988 168.166312 
L 365.268738 168.166312 
z
M 374.363192 172.630687 
L 374.363192 176.592562 
L 373.285067 176.592562 
L 373.285067 172.666312 
Q 373.285067 171.734437 372.921317 171.273187 
Q 372.557567 170.810062 371.831942 170.810062 
Q 370.958192 170.810062 370.453817 171.366937 
Q 369.949442 171.921937 369.949442 172.883812 
L 369.949442 176.592562 
L 368.865692 176.592562 
L 368.865692 167.474437 
L 369.949442 167.474437 
L 369.949442 171.050062 
Q 370.337567 170.457562 370.860692 170.165062 
Q 371.385692 169.872562 372.071942 169.872562 
Q 373.202567 169.872562 373.781942 170.571937 
Q 374.363192 171.271312 374.363192 172.630687 
z
M 379.495535 173.294437 
Q 378.18866 173.294437 377.684285 173.592562 
Q 377.17991 173.890687 377.17991 174.612562 
Q 377.17991 175.186312 377.55866 175.523812 
Q 377.93741 175.859437 378.58616 175.859437 
Q 379.484285 175.859437 380.02616 175.223812 
Q 380.568035 174.588187 380.568035 173.534437 
L 380.568035 173.294437 
L 379.495535 173.294437 
z
M 381.64616 172.848187 
L 381.64616 176.592562 
L 380.568035 176.592562 
L 380.568035 175.596937 
Q 380.19866 176.193187 379.64741 176.478187 
Q 379.09616 176.763187 378.299285 176.763187 
Q 377.29241 176.763187 376.69616 176.196937 
Q 376.101785 175.630687 376.101785 174.681937 
Q 376.101785 173.575687 376.84241 173.013187 
Q 377.58491 172.450687 379.05491 172.450687 
L 380.568035 172.450687 
L 380.568035 172.343812 
Q 380.568035 171.599437 380.07866 171.192562 
Q 379.589285 170.785687 378.704285 170.785687 
Q 378.141785 170.785687 377.60741 170.920687 
Q 377.07491 171.055687 376.58366 171.325687 
L 376.58366 170.328187 
Q 377.174285 170.099437 377.73116 169.986937 
Q 378.288035 169.872562 378.81491 169.872562 
Q 380.23991 169.872562 380.943035 170.611312 
Q 381.64616 171.348187 381.64616 172.848187 
z
M 388.049051 170.223187 
L 388.049051 171.243187 
Q 387.593426 171.008812 387.100301 170.892562 
Q 386.609051 170.774437 386.080301 170.774437 
Q 385.277801 170.774437 384.876551 171.020062 
Q 384.475301 171.265687 384.475301 171.758812 
Q 384.475301 172.133812 384.762176 172.347562 
Q 385.049051 172.561312 385.917176 172.754437 
L 386.286551 172.836937 
Q 387.434051 173.082562 387.917801 173.530687 
Q 388.401551 173.978812 388.401551 174.781312 
Q 388.401551 175.696312 387.677801 176.230687 
Q 386.954051 176.763187 385.688426 176.763187 
Q 385.161551 176.763187 384.589676 176.660062 
Q 384.017801 176.556937 383.385926 176.352562 
L 383.385926 175.238812 
Q 383.984051 175.550062 384.563426 175.705687 
Q 385.142801 175.859437 385.712801 175.859437 
Q 386.474051 175.859437 386.882801 175.598812 
Q 387.293426 175.338187 387.293426 174.863812 
Q 387.293426 174.425062 386.997176 174.190687 
Q 386.702801 173.956312 385.699676 173.738812 
L 385.324676 173.650687 
Q 384.323426 173.440687 383.877176 173.003812 
Q 383.432801 172.566937 383.432801 171.805687 
Q 383.432801 170.879437 384.089051 170.376937 
Q 384.745301 169.872562 385.952801 169.872562 
Q 386.549051 169.872562 387.075926 169.960687 
Q 387.604676 170.046937 388.049051 170.223187 
z
M 395.731629 173.041312 
L 395.731629 173.568187 
L 390.774129 173.568187 
Q 390.845379 174.681937 391.445379 175.265062 
Q 392.045379 175.848187 393.117879 175.848187 
Q 393.738504 175.848187 394.321629 175.696312 
Q 394.904754 175.544437 395.480379 175.238812 
L 395.480379 176.258812 
Q 394.899129 176.504437 394.289754 176.633812 
Q 393.680379 176.763187 393.054129 176.763187 
Q 391.482879 176.763187 390.566004 175.850062 
Q 389.649129 174.935062 389.649129 173.375062 
Q 389.649129 171.764437 390.519129 170.819437 
Q 391.389129 169.872562 392.866629 169.872562 
Q 394.190379 169.872562 394.961004 170.725687 
Q 395.731629 171.576937 395.731629 173.041312 
z
M 394.653504 172.724437 
Q 394.642254 171.841312 394.158504 171.314437 
Q 393.674754 170.785687 392.877879 170.785687 
Q 391.976004 170.785687 391.434129 171.295687 
Q 390.892254 171.805687 390.809754 172.731937 
L 394.653504 172.724437 
z
" clip-path="url(#p070d24faed)" style="fill: #ffffff; stroke: #000000; stroke-width: 2"/>
    <path d="M 317.509207 173.294437 
Q 316.202332 173.294437 315.697957 173.592562 
Q 315.193582 173.890687 315.193582 174.612562 
Q 315.193582 175.186312 315.572332 175.523812 
Q 315.951082 175.859437 316.599832 175.859437 
Q 317.497957 175.859437 318.039832 175.223812 
Q 318.581707 174.588187 318.581707 173.534437 
L 318.581707 173.294437 
L 317.509207 173.294437 
z
M 319.659832 172.848187 
L 319.659832 176.592562 
L 318.581707 176.592562 
L 318.581707 175.596937 
Q 318.212332 176.193187 317.661082 176.478187 
Q 317.109832 176.763187 316.312957 176.763187 
Q 315.306082 176.763187 314.709832 176.196937 
Q 314.115457 175.630687 314.115457 174.681937 
Q 314.115457 173.575687 314.856082 173.013187 
Q 315.598582 172.450687 317.068582 172.450687 
L 318.581707 172.450687 
L 318.581707 172.343812 
Q 318.581707 171.599437 318.092332 171.192562 
Q 317.602957 170.785687 316.717957 170.785687 
Q 316.155457 170.785687 315.621082 170.920687 
Q 315.088582 171.055687 314.597332 171.325687 
L 314.597332 170.328187 
Q 315.187957 170.099437 315.744832 169.986937 
Q 316.301707 169.872562 316.828582 169.872562 
Q 318.253582 169.872562 318.956707 170.611312 
Q 319.659832 171.348187 319.659832 172.848187 
z
M 326.602723 170.281312 
L 326.602723 171.290062 
Q 326.145223 171.036937 325.685848 170.911312 
Q 325.226473 170.785687 324.757723 170.785687 
Q 323.707723 170.785687 323.126473 171.451312 
Q 322.547098 172.115062 322.547098 173.316937 
Q 322.547098 174.518812 323.126473 175.184437 
Q 323.707723 175.848187 324.757723 175.848187 
Q 325.226473 175.848187 325.685848 175.722562 
Q 326.145223 175.596937 326.602723 175.343812 
L 326.602723 176.341312 
Q 326.150848 176.551312 325.667098 176.656312 
Q 325.185223 176.763187 324.639598 176.763187 
Q 323.156473 176.763187 322.282723 175.831312 
Q 321.410848 174.899437 321.410848 173.316937 
Q 321.410848 171.711937 322.292098 170.793187 
Q 323.175223 169.872562 324.710848 169.872562 
Q 325.207723 169.872562 325.682098 169.975687 
Q 326.156473 170.076937 326.602723 170.281312 
z
M 328.477254 170.030062 
L 329.555379 170.030062 
L 329.555379 176.592562 
L 328.477254 176.592562 
L 328.477254 170.030062 
z
M 328.477254 167.474437 
L 329.555379 167.474437 
L 329.555379 168.841312 
L 328.477254 168.841312 
L 328.477254 167.474437 
z
M 336.129363 171.025687 
L 336.129363 167.474437 
L 337.207488 167.474437 
L 337.207488 176.592562 
L 336.129363 176.592562 
L 336.129363 175.608187 
Q 335.789988 176.193187 335.270613 176.478187 
Q 334.753113 176.763187 334.025613 176.763187 
Q 332.836863 176.763187 332.088738 175.814437 
Q 331.342488 174.863812 331.342488 173.316937 
Q 331.342488 171.770062 332.088738 170.821312 
Q 332.836863 169.872562 334.025613 169.872562 
Q 334.753113 169.872562 335.270613 170.157562 
Q 335.789988 170.440687 336.129363 171.025687 
z
M 332.456238 173.316937 
Q 332.456238 174.505687 332.945613 175.182562 
Q 333.434988 175.859437 334.289988 175.859437 
Q 335.144988 175.859437 335.636238 175.182562 
Q 336.129363 174.505687 336.129363 173.316937 
Q 336.129363 172.128187 335.636238 171.451312 
Q 335.144988 170.774437 334.289988 170.774437 
Q 333.434988 170.774437 332.945613 171.451312 
Q 332.456238 172.128187 332.456238 173.316937 
z
M 347.426004 170.223187 
L 347.426004 171.243187 
Q 346.970379 171.008812 346.477254 170.892562 
Q 345.986004 170.774437 345.457254 170.774437 
Q 344.654754 170.774437 344.253504 171.020062 
Q 343.852254 171.265687 343.852254 171.758812 
Q 343.852254 172.133812 344.139129 172.347562 
Q 344.426004 172.561312 345.294129 172.754437 
L 345.663504 172.836937 
Q 346.811004 173.082562 347.294754 173.530687 
Q 347.778504 173.978812 347.778504 174.781312 
Q 347.778504 175.696312 347.054754 176.230687 
Q 346.331004 176.763187 345.065379 176.763187 
Q 344.538504 176.763187 343.966629 176.660062 
Q 343.394754 176.556937 342.762879 176.352562 
L 342.762879 175.238812 
Q 343.361004 175.550062 343.940379 175.705687 
Q 344.519754 175.859437 345.089754 175.859437 
Q 345.851004 175.859437 346.259754 175.598812 
Q 346.670379 175.338187 346.670379 174.863812 
Q 346.670379 174.425062 346.374129 174.190687 
Q 346.079754 173.956312 345.076629 173.738812 
L 344.701629 173.650687 
Q 343.700379 173.440687 343.254129 173.003812 
Q 342.809754 172.566937 342.809754 171.805687 
Q 342.809754 170.879437 343.466004 170.376937 
Q 344.122254 169.872562 345.329754 169.872562 
Q 345.926004 169.872562 346.452879 169.960687 
Q 346.981629 170.046937 347.426004 170.223187 
z
M 352.224832 177.201937 
Q 351.769207 178.373812 351.334207 178.730062 
Q 350.901082 179.088187 350.175457 179.088187 
L 349.312957 179.088187 
L 349.312957 178.186312 
L 349.946707 178.186312 
Q 350.391082 178.186312 350.636707 177.974437 
Q 350.884207 177.764437 351.182332 176.978812 
L 351.375457 176.487562 
L 348.722332 170.030062 
L 349.864207 170.030062 
L 351.915457 175.161937 
L 353.966707 170.030062 
L 355.108582 170.030062 
L 352.224832 177.201937 
z
M 362.052645 172.630687 
L 362.052645 176.592562 
L 360.97452 176.592562 
L 360.97452 172.666312 
Q 360.97452 171.734437 360.61077 171.273187 
Q 360.24702 170.810062 359.521395 170.810062 
Q 358.647645 170.810062 358.14327 171.366937 
Q 357.638895 171.921937 357.638895 172.883812 
L 357.638895 176.592562 
L 356.555145 176.592562 
L 356.555145 170.030062 
L 357.638895 170.030062 
L 357.638895 171.050062 
Q 358.02702 170.457562 358.550145 170.165062 
Q 359.075145 169.872562 359.761395 169.872562 
Q 360.89202 169.872562 361.471395 170.571937 
Q 362.052645 171.271312 362.052645 172.630687 
z
M 365.268738 168.166312 
L 365.268738 170.030062 
L 367.488738 170.030062 
L 367.488738 170.868187 
L 365.268738 170.868187 
L 365.268738 174.430687 
Q 365.268738 175.233187 365.488113 175.461937 
Q 365.707488 175.690687 366.382488 175.690687 
L 367.488738 175.690687 
L 367.488738 176.592562 
L 366.382488 176.592562 
Q 365.133738 176.592562 364.659363 176.127562 
Q 364.184988 175.660687 364.184988 174.430687 
L 364.184988 170.868187 
L 363.393738 170.868187 
L 363.393738 170.030062 
L 364.184988 170.030062 
L 364.184988 168.166312 
L 365.268738 168.166312 
z
M 374.363192 172.630687 
L 374.363192 176.592562 
L 373.285067 176.592562 
L 373.285067 172.666312 
Q 373.285067 171.734437 372.921317 171.273187 
Q 372.557567 170.810062 371.831942 170.810062 
Q 370.958192 170.810062 370.453817 171.366937 
Q 369.949442 171.921937 369.949442 172.883812 
L 369.949442 176.592562 
L 368.865692 176.592562 
L 368.865692 167.474437 
L 369.949442 167.474437 
L 369.949442 171.050062 
Q 370.337567 170.457562 370.860692 170.165062 
Q 371.385692 169.872562 372.071942 169.872562 
Q 373.202567 169.872562 373.781942 170.571937 
Q 374.363192 171.271312 374.363192 172.630687 
z
M 379.495535 173.294437 
Q 378.18866 173.294437 377.684285 173.592562 
Q 377.17991 173.890687 377.17991 174.612562 
Q 377.17991 175.186312 377.55866 175.523812 
Q 377.93741 175.859437 378.58616 175.859437 
Q 379.484285 175.859437 380.02616 175.223812 
Q 380.568035 174.588187 380.568035 173.534437 
L 380.568035 173.294437 
L 379.495535 173.294437 
z
M 381.64616 172.848187 
L 381.64616 176.592562 
L 380.568035 176.592562 
L 380.568035 175.596937 
Q 380.19866 176.193187 379.64741 176.478187 
Q 379.09616 176.763187 378.299285 176.763187 
Q 377.29241 176.763187 376.69616 176.196937 
Q 376.101785 175.630687 376.101785 174.681937 
Q 376.101785 173.575687 376.84241 173.013187 
Q 377.58491 172.450687 379.05491 172.450687 
L 380.568035 172.450687 
L 380.568035 172.343812 
Q 380.568035 171.599437 380.07866 171.192562 
Q 379.589285 170.785687 378.704285 170.785687 
Q 378.141785 170.785687 377.60741 170.920687 
Q 377.07491 171.055687 376.58366 171.325687 
L 376.58366 170.328187 
Q 377.174285 170.099437 377.73116 169.986937 
Q 378.288035 169.872562 378.81491 169.872562 
Q 380.23991 169.872562 380.943035 170.611312 
Q 381.64616 171.348187 381.64616 172.848187 
z
M 388.049051 170.223187 
L 388.049051 171.243187 
Q 387.593426 171.008812 387.100301 170.892562 
Q 386.609051 170.774437 386.080301 170.774437 
Q 385.277801 170.774437 384.876551 171.020062 
Q 384.475301 171.265687 384.475301 171.758812 
Q 384.475301 172.133812 384.762176 172.347562 
Q 385.049051 172.561312 385.917176 172.754437 
L 386.286551 172.836937 
Q 387.434051 173.082562 387.917801 173.530687 
Q 388.401551 173.978812 388.401551 174.781312 
Q 388.401551 175.696312 387.677801 176.230687 
Q 386.954051 176.763187 385.688426 176.763187 
Q 385.161551 176.763187 384.589676 176.660062 
Q 384.017801 176.556937 383.385926 176.352562 
L 383.385926 175.238812 
Q 383.984051 175.550062 384.563426 175.705687 
Q 385.142801 175.859437 385.712801 175.859437 
Q 386.474051 175.859437 386.882801 175.598812 
Q 387.293426 175.338187 387.293426 174.863812 
Q 387.293426 174.425062 386.997176 174.190687 
Q 386.702801 173.956312 385.699676 173.738812 
L 385.324676 173.650687 
Q 384.323426 173.440687 383.877176 173.003812 
Q 383.432801 172.566937 383.432801 171.805687 
Q 383.432801 170.879437 384.089051 170.376937 
Q 384.745301 169.872562 385.952801 169.872562 
Q 386.549051 169.872562 387.075926 169.960687 
Q 387.604676 170.046937 388.049051 170.223187 
z
M 395.731629 173.041312 
L 395.731629 173.568187 
L 390.774129 173.568187 
Q 390.845379 174.681937 391.445379 175.265062 
Q 392.045379 175.848187 393.117879 175.848187 
Q 393.738504 175.848187 394.321629 175.696312 
Q 394.904754 175.544437 395.480379 175.238812 
L 395.480379 176.258812 
Q 394.899129 176.504437 394.289754 176.633812 
Q 393.680379 176.763187 393.054129 176.763187 
Q 391.482879 176.763187 390.566004 175.850062 
Q 389.649129 174.935062 389.649129 173.375062 
Q 389.649129 171.764437 390.519129 170.819437 
Q 391.389129 169.872562 392.866629 169.872562 
Q 394.190379 169.872562 394.961004 170.725687 
Q 395.731629 171.576937 395.731629 173.041312 
z
M 394.653504 172.724437 
Q 394.642254 171.841312 394.158504 171.314437 
Q 393.674754 170.785687 392.877879 170.785687 
Q 391.976004 170.785687 391.434129 171.295687 
Q 390.892254 171.805687 390.809754 172.731937 
L 394.653504 172.724437 
z
" clip-path="url(#p070d24faed)" style="fill: #ffffff"/>
    <path d="M 309.470145 181.281187 
L 310.66077 181.281187 
L 310.66077 186.596812 
Q 310.66077 188.003062 311.168895 188.621812 
Q 311.678895 189.238687 312.822645 189.238687 
Q 313.958895 189.238687 314.468895 188.621812 
Q 314.978895 188.003062 314.978895 186.596812 
L 314.978895 181.281187 
L 316.167645 181.281187 
L 316.167645 186.743062 
Q 316.167645 188.453062 315.320145 189.326812 
Q 314.47452 190.200562 312.822645 190.200562 
Q 311.16327 190.200562 310.31577 189.326812 
Q 309.470145 188.453062 309.470145 186.743062 
L 309.470145 181.281187 
z
M 323.797723 186.068062 
L 323.797723 190.029937 
L 322.719598 190.029937 
L 322.719598 186.103687 
Q 322.719598 185.171812 322.355848 184.710562 
Q 321.992098 184.247437 321.266473 184.247437 
Q 320.392723 184.247437 319.888348 184.804312 
Q 319.383973 185.359312 319.383973 186.321187 
L 319.383973 190.029937 
L 318.300223 190.029937 
L 318.300223 183.467437 
L 319.383973 183.467437 
L 319.383973 184.487437 
Q 319.772098 183.894937 320.295223 183.602437 
Q 320.820223 183.309937 321.506473 183.309937 
Q 322.637098 183.309937 323.216473 184.009312 
Q 323.797723 184.708687 323.797723 186.068062 
z
M 325.946942 183.467437 
L 327.025067 183.467437 
L 327.025067 190.029937 
L 325.946942 190.029937 
L 325.946942 183.467437 
z
M 325.946942 180.911812 
L 327.025067 180.911812 
L 327.025067 182.278687 
L 325.946942 182.278687 
L 325.946942 180.911812 
z
M 330.510926 182.254312 
L 330.510926 185.541187 
L 331.999676 185.541187 
Q 332.826551 185.541187 333.276551 185.113687 
Q 333.728426 184.686187 333.728426 183.894937 
Q 333.728426 183.109312 333.276551 182.681812 
Q 332.826551 182.254312 331.999676 182.254312 
L 330.510926 182.254312 
z
M 329.327801 181.281187 
L 331.999676 181.281187 
Q 333.471551 181.281187 334.223426 181.946812 
Q 334.977176 182.612437 334.977176 183.894937 
Q 334.977176 185.190562 334.223426 185.852437 
Q 333.471551 186.514312 331.999676 186.514312 
L 330.510926 186.514312 
L 330.510926 190.029937 
L 329.327801 190.029937 
L 329.327801 181.281187 
z
M 340.109754 184.474312 
Q 339.927879 184.369312 339.714129 184.320562 
Q 339.500379 184.269937 339.243504 184.269937 
Q 338.328504 184.269937 337.839129 184.864312 
Q 337.349754 185.458687 337.349754 186.572437 
L 337.349754 190.029937 
L 336.266004 190.029937 
L 336.266004 183.467437 
L 337.349754 183.467437 
L 337.349754 184.487437 
Q 337.691004 183.889312 338.234754 183.600562 
Q 338.780379 183.309937 339.560379 183.309937 
Q 339.671004 183.309937 339.806004 183.324937 
Q 339.941004 183.338062 340.104129 183.368062 
L 340.109754 184.474312 
z
M 343.513348 184.223062 
Q 342.647098 184.223062 342.142723 184.899937 
Q 341.638348 185.576812 341.638348 186.754312 
Q 341.638348 187.931812 342.138973 188.608687 
Q 342.641473 189.285562 343.513348 189.285562 
Q 344.375848 189.285562 344.878348 188.606812 
Q 345.382723 187.926187 345.382723 186.754312 
Q 345.382723 185.588062 344.878348 184.905562 
Q 344.375848 184.223062 343.513348 184.223062 
z
M 343.513348 183.309937 
Q 344.919598 183.309937 345.722098 184.224937 
Q 346.526473 185.138062 346.526473 186.754312 
Q 346.526473 188.364937 345.722098 189.283687 
Q 344.919598 190.200562 343.513348 190.200562 
Q 342.101473 190.200562 341.300848 189.283687 
Q 340.502098 188.364937 340.502098 186.754312 
Q 340.502098 185.138062 341.300848 184.224937 
Q 342.101473 183.309937 343.513348 183.309937 
z
M 349.37952 181.603687 
L 349.37952 183.467437 
L 351.59952 183.467437 
L 351.59952 184.305562 
L 349.37952 184.305562 
L 349.37952 187.868062 
Q 349.37952 188.670562 349.598895 188.899312 
Q 349.81827 189.128062 350.49327 189.128062 
L 351.59952 189.128062 
L 351.59952 190.029937 
L 350.49327 190.029937 
Q 349.24452 190.029937 348.770145 189.564937 
Q 348.29577 189.098062 348.29577 187.868062 
L 348.29577 184.305562 
L 347.50452 184.305562 
L 347.50452 183.467437 
L 348.29577 183.467437 
L 348.29577 181.603687 
L 349.37952 181.603687 
z
M 353.293348 188.541187 
L 354.528973 188.541187 
L 354.528973 190.029937 
L 353.293348 190.029937 
L 353.293348 188.541187 
z
M 353.293348 183.825562 
L 354.528973 183.825562 
L 354.528973 185.312437 
L 353.293348 185.312437 
L 353.293348 183.825562 
z
M 358.290692 182.254312 
L 358.290692 185.541187 
L 359.779442 185.541187 
Q 360.606317 185.541187 361.056317 185.113687 
Q 361.508192 184.686187 361.508192 183.894937 
Q 361.508192 183.109312 361.056317 182.681812 
Q 360.606317 182.254312 359.779442 182.254312 
L 358.290692 182.254312 
z
M 357.107567 181.281187 
L 359.779442 181.281187 
Q 361.251317 181.281187 362.003192 181.946812 
Q 362.756942 182.612437 362.756942 183.894937 
Q 362.756942 185.190562 362.003192 185.852437 
Q 361.251317 186.514312 359.779442 186.514312 
L 358.290692 186.514312 
L 358.290692 190.029937 
L 357.107567 190.029937 
L 357.107567 181.281187 
z
M 364.655145 189.034312 
L 366.58827 189.034312 
L 366.58827 182.359312 
L 364.48452 182.781187 
L 364.48452 181.703062 
L 366.57702 181.281187 
L 367.760145 181.281187 
L 367.760145 189.034312 
L 369.69327 189.034312 
L 369.69327 190.029937 
L 364.655145 190.029937 
L 364.655145 189.034312 
z
M 375.670535 185.312437 
Q 376.51991 185.494312 376.99616 186.069937 
Q 377.474285 186.643687 377.474285 187.487437 
Q 377.474285 188.781187 376.58366 189.491812 
Q 375.693035 190.200562 374.05241 190.200562 
Q 373.503035 190.200562 372.91991 190.091812 
Q 372.336785 189.983062 371.71616 189.765562 
L 371.71616 188.623687 
Q 372.20741 188.910562 372.79241 189.056812 
Q 373.379285 189.203062 374.01866 189.203062 
Q 375.130535 189.203062 375.71366 188.764312 
Q 376.296785 188.325562 376.296785 187.487437 
Q 376.296785 186.713062 375.75491 186.278062 
Q 375.213035 185.841187 374.24741 185.841187 
L 373.22741 185.841187 
L 373.22741 184.868062 
L 374.294285 184.868062 
Q 375.16616 184.868062 375.629285 184.519312 
Q 376.09241 184.170562 376.09241 183.514312 
Q 376.09241 182.841187 375.614285 182.481187 
Q 375.138035 182.119312 374.24741 182.119312 
Q 373.75991 182.119312 373.203035 182.226187 
Q 372.64616 182.331187 371.97866 182.552437 
L 371.97866 181.498687 
Q 372.65366 181.311187 373.24241 181.217437 
Q 373.83116 181.123687 374.35241 181.123687 
Q 375.700535 181.123687 376.484285 181.736812 
Q 377.26991 182.348062 377.26991 183.390562 
Q 377.26991 184.118062 376.85366 184.618687 
Q 376.43741 185.119312 375.670535 185.312437 
z
M 379.924676 189.034312 
L 381.857801 189.034312 
L 381.857801 182.359312 
L 379.754051 182.781187 
L 379.754051 181.703062 
L 381.846551 181.281187 
L 383.029676 181.281187 
L 383.029676 189.034312 
L 384.962801 189.034312 
L 384.962801 190.029937 
L 379.924676 190.029937 
L 379.924676 189.034312 
z
M 387.388817 189.848062 
L 387.388817 188.769937 
Q 387.835067 188.981812 388.290692 189.092437 
Q 388.748192 189.203062 389.188817 189.203062 
Q 390.360692 189.203062 390.977567 188.415562 
Q 391.596317 187.628062 391.684442 186.021187 
Q 391.345067 186.525562 390.821942 186.795562 
Q 390.300692 187.065562 389.668817 187.065562 
Q 388.356317 187.065562 387.591317 186.272437 
Q 386.826317 185.477437 386.826317 184.099312 
Q 386.826317 182.753062 387.623192 181.939312 
Q 388.420067 181.123687 389.743817 181.123687 
Q 391.262567 181.123687 392.061317 182.288062 
Q 392.861942 183.450562 392.861942 185.664937 
Q 392.861942 187.733062 391.879442 188.966812 
Q 390.898817 190.200562 389.241317 190.200562 
Q 388.795067 190.200562 388.337567 190.112437 
Q 387.881942 190.024312 387.388817 189.848062 
z
M 389.743817 186.139312 
Q 390.540692 186.139312 391.005692 185.595562 
Q 391.472567 185.049937 391.472567 184.099312 
Q 391.472567 183.156187 391.005692 182.608687 
Q 390.540692 182.061187 389.743817 182.061187 
Q 388.946942 182.061187 388.481942 182.608687 
Q 388.016942 183.156187 388.016942 184.099312 
Q 388.016942 185.049937 388.481942 185.595562 
Q 388.946942 186.139312 389.743817 186.139312 
z
M 397.667332 185.184937 
Q 396.870457 185.184937 396.403582 185.730562 
Q 395.938582 186.274312 395.938582 187.223062 
Q 395.938582 188.166187 396.403582 188.715562 
Q 396.870457 189.263062 397.667332 189.263062 
Q 398.464207 189.263062 398.929207 188.715562 
Q 399.394207 188.166187 399.394207 187.223062 
Q 399.394207 186.274312 398.929207 185.730562 
Q 398.464207 185.184937 397.667332 185.184937 
z
M 400.016707 181.474312 
L 400.016707 182.552437 
Q 399.570457 182.342437 399.116707 182.231812 
Q 398.662957 182.119312 398.216707 182.119312 
Q 397.044832 182.119312 396.426082 182.910562 
Q 395.809207 183.701812 395.721082 185.301187 
Q 396.066082 184.791187 396.587332 184.519312 
Q 397.110457 184.247437 397.736707 184.247437 
Q 399.054832 184.247437 399.819832 185.048062 
Q 400.584832 185.846812 400.584832 187.223062 
Q 400.584832 188.571187 399.787957 189.386812 
Q 398.991082 190.200562 397.667332 190.200562 
Q 396.148582 190.200562 395.346082 189.038062 
Q 394.543582 187.873687 394.543582 185.664937 
Q 394.543582 183.591187 395.527957 182.357437 
Q 396.512332 181.123687 398.169832 181.123687 
Q 398.616082 181.123687 399.069832 181.211812 
Q 399.523582 181.299937 400.016707 181.474312 
z
" clip-path="url(#p070d24faed)" style="fill: #ffffff; stroke: #000000; stroke-width: 2"/>
    <path d="M 309.470145 181.281187 
L 310.66077 181.281187 
L 310.66077 186.596812 
Q 310.66077 188.003062 311.168895 188.621812 
Q 311.678895 189.238687 312.822645 189.238687 
Q 313.958895 189.238687 314.468895 188.621812 
Q 314.978895 188.003062 314.978895 186.596812 
L 314.978895 181.281187 
L 316.167645 181.281187 
L 316.167645 186.743062 
Q 316.167645 188.453062 315.320145 189.326812 
Q 314.47452 190.200562 312.822645 190.200562 
Q 311.16327 190.200562 310.31577 189.326812 
Q 309.470145 188.453062 309.470145 186.743062 
L 309.470145 181.281187 
z
M 323.797723 186.068062 
L 323.797723 190.029937 
L 322.719598 190.029937 
L 322.719598 186.103687 
Q 322.719598 185.171812 322.355848 184.710562 
Q 321.992098 184.247437 321.266473 184.247437 
Q 320.392723 184.247437 319.888348 184.804312 
Q 319.383973 185.359312 319.383973 186.321187 
L 319.383973 190.029937 
L 318.300223 190.029937 
L 318.300223 183.467437 
L 319.383973 183.467437 
L 319.383973 184.487437 
Q 319.772098 183.894937 320.295223 183.602437 
Q 320.820223 183.309937 321.506473 183.309937 
Q 322.637098 183.309937 323.216473 184.009312 
Q 323.797723 184.708687 323.797723 186.068062 
z
M 325.946942 183.467437 
L 327.025067 183.467437 
L 327.025067 190.029937 
L 325.946942 190.029937 
L 325.946942 183.467437 
z
M 325.946942 180.911812 
L 327.025067 180.911812 
L 327.025067 182.278687 
L 325.946942 182.278687 
L 325.946942 180.911812 
z
M 330.510926 182.254312 
L 330.510926 185.541187 
L 331.999676 185.541187 
Q 332.826551 185.541187 333.276551 185.113687 
Q 333.728426 184.686187 333.728426 183.894937 
Q 333.728426 183.109312 333.276551 182.681812 
Q 332.826551 182.254312 331.999676 182.254312 
L 330.510926 182.254312 
z
M 329.327801 181.281187 
L 331.999676 181.281187 
Q 333.471551 181.281187 334.223426 181.946812 
Q 334.977176 182.612437 334.977176 183.894937 
Q 334.977176 185.190562 334.223426 185.852437 
Q 333.471551 186.514312 331.999676 186.514312 
L 330.510926 186.514312 
L 330.510926 190.029937 
L 329.327801 190.029937 
L 329.327801 181.281187 
z
M 340.109754 184.474312 
Q 339.927879 184.369312 339.714129 184.320562 
Q 339.500379 184.269937 339.243504 184.269937 
Q 338.328504 184.269937 337.839129 184.864312 
Q 337.349754 185.458687 337.349754 186.572437 
L 337.349754 190.029937 
L 336.266004 190.029937 
L 336.266004 183.467437 
L 337.349754 183.467437 
L 337.349754 184.487437 
Q 337.691004 183.889312 338.234754 183.600562 
Q 338.780379 183.309937 339.560379 183.309937 
Q 339.671004 183.309937 339.806004 183.324937 
Q 339.941004 183.338062 340.104129 183.368062 
L 340.109754 184.474312 
z
M 343.513348 184.223062 
Q 342.647098 184.223062 342.142723 184.899937 
Q 341.638348 185.576812 341.638348 186.754312 
Q 341.638348 187.931812 342.138973 188.608687 
Q 342.641473 189.285562 343.513348 189.285562 
Q 344.375848 189.285562 344.878348 188.606812 
Q 345.382723 187.926187 345.382723 186.754312 
Q 345.382723 185.588062 344.878348 184.905562 
Q 344.375848 184.223062 343.513348 184.223062 
z
M 343.513348 183.309937 
Q 344.919598 183.309937 345.722098 184.224937 
Q 346.526473 185.138062 346.526473 186.754312 
Q 346.526473 188.364937 345.722098 189.283687 
Q 344.919598 190.200562 343.513348 190.200562 
Q 342.101473 190.200562 341.300848 189.283687 
Q 340.502098 188.364937 340.502098 186.754312 
Q 340.502098 185.138062 341.300848 184.224937 
Q 342.101473 183.309937 343.513348 183.309937 
z
M 349.37952 181.603687 
L 349.37952 183.467437 
L 351.59952 183.467437 
L 351.59952 184.305562 
L 349.37952 184.305562 
L 349.37952 187.868062 
Q 349.37952 188.670562 349.598895 188.899312 
Q 349.81827 189.128062 350.49327 189.128062 
L 351.59952 189.128062 
L 351.59952 190.029937 
L 350.49327 190.029937 
Q 349.24452 190.029937 348.770145 189.564937 
Q 348.29577 189.098062 348.29577 187.868062 
L 348.29577 184.305562 
L 347.50452 184.305562 
L 347.50452 183.467437 
L 348.29577 183.467437 
L 348.29577 181.603687 
L 349.37952 181.603687 
z
M 353.293348 188.541187 
L 354.528973 188.541187 
L 354.528973 190.029937 
L 353.293348 190.029937 
L 353.293348 188.541187 
z
M 353.293348 183.825562 
L 354.528973 183.825562 
L 354.528973 185.312437 
L 353.293348 185.312437 
L 353.293348 183.825562 
z
M 358.290692 182.254312 
L 358.290692 185.541187 
L 359.779442 185.541187 
Q 360.606317 185.541187 361.056317 185.113687 
Q 361.508192 184.686187 361.508192 183.894937 
Q 361.508192 183.109312 361.056317 182.681812 
Q 360.606317 182.254312 359.779442 182.254312 
L 358.290692 182.254312 
z
M 357.107567 181.281187 
L 359.779442 181.281187 
Q 361.251317 181.281187 362.003192 181.946812 
Q 362.756942 182.612437 362.756942 183.894937 
Q 362.756942 185.190562 362.003192 185.852437 
Q 361.251317 186.514312 359.779442 186.514312 
L 358.290692 186.514312 
L 358.290692 190.029937 
L 357.107567 190.029937 
L 357.107567 181.281187 
z
M 364.655145 189.034312 
L 366.58827 189.034312 
L 366.58827 182.359312 
L 364.48452 182.781187 
L 364.48452 181.703062 
L 366.57702 181.281187 
L 367.760145 181.281187 
L 367.760145 189.034312 
L 369.69327 189.034312 
L 369.69327 190.029937 
L 364.655145 190.029937 
L 364.655145 189.034312 
z
M 375.670535 185.312437 
Q 376.51991 185.494312 376.99616 186.069937 
Q 377.474285 186.643687 377.474285 187.487437 
Q 377.474285 188.781187 376.58366 189.491812 
Q 375.693035 190.200562 374.05241 190.200562 
Q 373.503035 190.200562 372.91991 190.091812 
Q 372.336785 189.983062 371.71616 189.765562 
L 371.71616 188.623687 
Q 372.20741 188.910562 372.79241 189.056812 
Q 373.379285 189.203062 374.01866 189.203062 
Q 375.130535 189.203062 375.71366 188.764312 
Q 376.296785 188.325562 376.296785 187.487437 
Q 376.296785 186.713062 375.75491 186.278062 
Q 375.213035 185.841187 374.24741 185.841187 
L 373.22741 185.841187 
L 373.22741 184.868062 
L 374.294285 184.868062 
Q 375.16616 184.868062 375.629285 184.519312 
Q 376.09241 184.170562 376.09241 183.514312 
Q 376.09241 182.841187 375.614285 182.481187 
Q 375.138035 182.119312 374.24741 182.119312 
Q 373.75991 182.119312 373.203035 182.226187 
Q 372.64616 182.331187 371.97866 182.552437 
L 371.97866 181.498687 
Q 372.65366 181.311187 373.24241 181.217437 
Q 373.83116 181.123687 374.35241 181.123687 
Q 375.700535 181.123687 376.484285 181.736812 
Q 377.26991 182.348062 377.26991 183.390562 
Q 377.26991 184.118062 376.85366 184.618687 
Q 376.43741 185.119312 375.670535 185.312437 
z
M 379.924676 189.034312 
L 381.857801 189.034312 
L 381.857801 182.359312 
L 379.754051 182.781187 
L 379.754051 181.703062 
L 381.846551 181.281187 
L 383.029676 181.281187 
L 383.029676 189.034312 
L 384.962801 189.034312 
L 384.962801 190.029937 
L 379.924676 190.029937 
L 379.924676 189.034312 
z
M 387.388817 189.848062 
L 387.388817 188.769937 
Q 387.835067 188.981812 388.290692 189.092437 
Q 388.748192 189.203062 389.188817 189.203062 
Q 390.360692 189.203062 390.977567 188.415562 
Q 391.596317 187.628062 391.684442 186.021187 
Q 391.345067 186.525562 390.821942 186.795562 
Q 390.300692 187.065562 389.668817 187.065562 
Q 388.356317 187.065562 387.591317 186.272437 
Q 386.826317 185.477437 386.826317 184.099312 
Q 386.826317 182.753062 387.623192 181.939312 
Q 388.420067 181.123687 389.743817 181.123687 
Q 391.262567 181.123687 392.061317 182.288062 
Q 392.861942 183.450562 392.861942 185.664937 
Q 392.861942 187.733062 391.879442 188.966812 
Q 390.898817 190.200562 389.241317 190.200562 
Q 388.795067 190.200562 388.337567 190.112437 
Q 387.881942 190.024312 387.388817 189.848062 
z
M 389.743817 186.139312 
Q 390.540692 186.139312 391.005692 185.595562 
Q 391.472567 185.049937 391.472567 184.099312 
Q 391.472567 183.156187 391.005692 182.608687 
Q 390.540692 182.061187 389.743817 182.061187 
Q 388.946942 182.061187 388.481942 182.608687 
Q 388.016942 183.156187 388.016942 184.099312 
Q 388.016942 185.049937 388.481942 185.595562 
Q 388.946942 186.139312 389.743817 186.139312 
z
M 397.667332 185.184937 
Q 396.870457 185.184937 396.403582 185.730562 
Q 395.938582 186.274312 395.938582 187.223062 
Q 395.938582 188.166187 396.403582 188.715562 
Q 396.870457 189.263062 397.667332 189.263062 
Q 398.464207 189.263062 398.929207 188.715562 
Q 399.394207 188.166187 399.394207 187.223062 
Q 399.394207 186.274312 398.929207 185.730562 
Q 398.464207 185.184937 397.667332 185.184937 
z
M 400.016707 181.474312 
L 400.016707 182.552437 
Q 399.570457 182.342437 399.116707 182.231812 
Q 398.662957 182.119312 398.216707 182.119312 
Q 397.044832 182.119312 396.426082 182.910562 
Q 395.809207 183.701812 395.721082 185.301187 
Q 396.066082 184.791187 396.587332 184.519312 
Q 397.110457 184.247437 397.736707 184.247437 
Q 399.054832 184.247437 399.819832 185.048062 
Q 400.584832 185.846812 400.584832 187.223062 
Q 400.584832 188.571187 399.787957 189.386812 
Q 398.991082 190.200562 397.667332 190.200562 
Q 396.148582 190.200562 395.346082 189.038062 
Q 394.543582 187.873687 394.543582 185.664937 
Q 394.543582 183.591187 395.527957 182.357437 
Q 396.512332 181.123687 398.169832 181.123687 
Q 398.616082 181.123687 399.069832 181.211812 
Q 399.523582 181.299937 400.016707 181.474312 
z
" clip-path="url(#p070d24faed)" style="fill: #ffffff"/>
    <path d="M 336.214207 195.691687 
L 336.214207 198.978562 
L 337.702957 198.978562 
Q 338.529832 198.978562 338.979832 198.551062 
Q 339.431707 198.123562 339.431707 197.332312 
Q 339.431707 196.546687 338.979832 196.119187 
Q 338.529832 195.691687 337.702957 195.691687 
L 336.214207 195.691687 
z
M 335.031082 194.718562 
L 337.702957 194.718562 
Q 339.174832 194.718562 339.926707 195.384187 
Q 340.680457 196.049812 340.680457 197.332312 
Q 340.680457 198.627937 339.926707 199.289812 
Q 339.174832 199.951687 337.702957 199.951687 
L 336.214207 199.951687 
L 336.214207 203.467312 
L 335.031082 203.467312 
L 335.031082 194.718562 
z
M 345.813035 197.911687 
Q 345.63116 197.806687 345.41741 197.757937 
Q 345.20366 197.707312 344.946785 197.707312 
Q 344.031785 197.707312 343.54241 198.301687 
Q 343.053035 198.896062 343.053035 200.009812 
L 343.053035 203.467312 
L 341.969285 203.467312 
L 341.969285 196.904812 
L 343.053035 196.904812 
L 343.053035 197.924812 
Q 343.394285 197.326687 343.938035 197.037937 
Q 344.48366 196.747312 345.26366 196.747312 
Q 345.374285 196.747312 345.509285 196.762312 
Q 345.644285 196.775437 345.80741 196.805437 
L 345.813035 197.911687 
z
M 349.216629 197.660437 
Q 348.350379 197.660437 347.846004 198.337312 
Q 347.341629 199.014187 347.341629 200.191687 
Q 347.341629 201.369187 347.842254 202.046062 
Q 348.344754 202.722937 349.216629 202.722937 
Q 350.079129 202.722937 350.581629 202.044187 
Q 351.086004 201.363562 351.086004 200.191687 
Q 351.086004 199.025437 350.581629 198.342937 
Q 350.079129 197.660437 349.216629 197.660437 
z
M 349.216629 196.747312 
Q 350.622879 196.747312 351.425379 197.662312 
Q 352.229754 198.575437 352.229754 200.191687 
Q 352.229754 201.802312 351.425379 202.721062 
Q 350.622879 203.637937 349.216629 203.637937 
Q 347.804754 203.637937 347.004129 202.721062 
Q 346.205379 201.802312 346.205379 200.191687 
Q 346.205379 198.575437 347.004129 197.662312 
Q 347.804754 196.747312 349.216629 196.747312 
z
M 355.082801 195.041062 
L 355.082801 196.904812 
L 357.302801 196.904812 
L 357.302801 197.742937 
L 355.082801 197.742937 
L 355.082801 201.305437 
Q 355.082801 202.107937 355.302176 202.336687 
Q 355.521551 202.565437 356.196551 202.565437 
L 357.302801 202.565437 
L 357.302801 203.467312 
L 356.196551 203.467312 
Q 354.947801 203.467312 354.473426 203.002312 
Q 353.999051 202.535437 353.999051 201.305437 
L 353.999051 197.742937 
L 353.207801 197.742937 
L 353.207801 196.904812 
L 353.999051 196.904812 
L 353.999051 195.041062 
L 355.082801 195.041062 
z
M 364.334754 199.916062 
L 364.334754 200.442937 
L 359.377254 200.442937 
Q 359.448504 201.556687 360.048504 202.139812 
Q 360.648504 202.722937 361.721004 202.722937 
Q 362.341629 202.722937 362.924754 202.571062 
Q 363.507879 202.419187 364.083504 202.113562 
L 364.083504 203.133562 
Q 363.502254 203.379187 362.892879 203.508562 
Q 362.283504 203.637937 361.657254 203.637937 
Q 360.086004 203.637937 359.169129 202.724812 
Q 358.252254 201.809812 358.252254 200.249812 
Q 358.252254 198.639187 359.122254 197.694187 
Q 359.992254 196.747312 361.469754 196.747312 
Q 362.793504 196.747312 363.564129 197.600437 
Q 364.334754 198.451687 364.334754 199.916062 
z
M 363.256629 199.599187 
Q 363.245379 198.716062 362.761629 198.189187 
Q 362.277879 197.660437 361.481004 197.660437 
Q 360.579129 197.660437 360.037254 198.170437 
Q 359.495379 198.680437 359.412879 199.606687 
L 363.256629 199.599187 
z
M 366.103817 196.904812 
L 367.181942 196.904812 
L 367.181942 203.467312 
L 366.103817 203.467312 
L 366.103817 196.904812 
z
M 366.103817 194.349187 
L 367.181942 194.349187 
L 367.181942 195.716062 
L 366.103817 195.716062 
L 366.103817 194.349187 
z
M 374.894051 199.505437 
L 374.894051 203.467312 
L 373.815926 203.467312 
L 373.815926 199.541062 
Q 373.815926 198.609187 373.452176 198.147937 
Q 373.088426 197.684812 372.362801 197.684812 
Q 371.489051 197.684812 370.984676 198.241687 
Q 370.480301 198.796687 370.480301 199.758562 
L 370.480301 203.467312 
L 369.396551 203.467312 
L 369.396551 196.904812 
L 370.480301 196.904812 
L 370.480301 197.924812 
Q 370.868426 197.332312 371.391551 197.039812 
Q 371.916551 196.747312 372.602801 196.747312 
Q 373.733426 196.747312 374.312801 197.446687 
Q 374.894051 198.146062 374.894051 199.505437 
z
" clip-path="url(#p070d24faed)" style="fill: #ffffff; stroke: #000000; stroke-width: 2"/>
    <path d="M 336.214207 195.691687 
L 336.214207 198.978562 
L 337.702957 198.978562 
Q 338.529832 198.978562 338.979832 198.551062 
Q 339.431707 198.123562 339.431707 197.332312 
Q 339.431707 196.546687 338.979832 196.119187 
Q 338.529832 195.691687 337.702957 195.691687 
L 336.214207 195.691687 
z
M 335.031082 194.718562 
L 337.702957 194.718562 
Q 339.174832 194.718562 339.926707 195.384187 
Q 340.680457 196.049812 340.680457 197.332312 
Q 340.680457 198.627937 339.926707 199.289812 
Q 339.174832 199.951687 337.702957 199.951687 
L 336.214207 199.951687 
L 336.214207 203.467312 
L 335.031082 203.467312 
L 335.031082 194.718562 
z
M 345.813035 197.911687 
Q 345.63116 197.806687 345.41741 197.757937 
Q 345.20366 197.707312 344.946785 197.707312 
Q 344.031785 197.707312 343.54241 198.301687 
Q 343.053035 198.896062 343.053035 200.009812 
L 343.053035 203.467312 
L 341.969285 203.467312 
L 341.969285 196.904812 
L 343.053035 196.904812 
L 343.053035 197.924812 
Q 343.394285 197.326687 343.938035 197.037937 
Q 344.48366 196.747312 345.26366 196.747312 
Q 345.374285 196.747312 345.509285 196.762312 
Q 345.644285 196.775437 345.80741 196.805437 
L 345.813035 197.911687 
z
M 349.216629 197.660437 
Q 348.350379 197.660437 347.846004 198.337312 
Q 347.341629 199.014187 347.341629 200.191687 
Q 347.341629 201.369187 347.842254 202.046062 
Q 348.344754 202.722937 349.216629 202.722937 
Q 350.079129 202.722937 350.581629 202.044187 
Q 351.086004 201.363562 351.086004 200.191687 
Q 351.086004 199.025437 350.581629 198.342937 
Q 350.079129 197.660437 349.216629 197.660437 
z
M 349.216629 196.747312 
Q 350.622879 196.747312 351.425379 197.662312 
Q 352.229754 198.575437 352.229754 200.191687 
Q 352.229754 201.802312 351.425379 202.721062 
Q 350.622879 203.637937 349.216629 203.637937 
Q 347.804754 203.637937 347.004129 202.721062 
Q 346.205379 201.802312 346.205379 200.191687 
Q 346.205379 198.575437 347.004129 197.662312 
Q 347.804754 196.747312 349.216629 196.747312 
z
M 355.082801 195.041062 
L 355.082801 196.904812 
L 357.302801 196.904812 
L 357.302801 197.742937 
L 355.082801 197.742937 
L 355.082801 201.305437 
Q 355.082801 202.107937 355.302176 202.336687 
Q 355.521551 202.565437 356.196551 202.565437 
L 357.302801 202.565437 
L 357.302801 203.467312 
L 356.196551 203.467312 
Q 354.947801 203.467312 354.473426 203.002312 
Q 353.999051 202.535437 353.999051 201.305437 
L 353.999051 197.742937 
L 353.207801 197.742937 
L 353.207801 196.904812 
L 353.999051 196.904812 
L 353.999051 195.041062 
L 355.082801 195.041062 
z
M 364.334754 199.916062 
L 364.334754 200.442937 
L 359.377254 200.442937 
Q 359.448504 201.556687 360.048504 202.139812 
Q 360.648504 202.722937 361.721004 202.722937 
Q 362.341629 202.722937 362.924754 202.571062 
Q 363.507879 202.419187 364.083504 202.113562 
L 364.083504 203.133562 
Q 363.502254 203.379187 362.892879 203.508562 
Q 362.283504 203.637937 361.657254 203.637937 
Q 360.086004 203.637937 359.169129 202.724812 
Q 358.252254 201.809812 358.252254 200.249812 
Q 358.252254 198.639187 359.122254 197.694187 
Q 359.992254 196.747312 361.469754 196.747312 
Q 362.793504 196.747312 363.564129 197.600437 
Q 364.334754 198.451687 364.334754 199.916062 
z
M 363.256629 199.599187 
Q 363.245379 198.716062 362.761629 198.189187 
Q 362.277879 197.660437 361.481004 197.660437 
Q 360.579129 197.660437 360.037254 198.170437 
Q 359.495379 198.680437 359.412879 199.606687 
L 363.256629 199.599187 
z
M 366.103817 196.904812 
L 367.181942 196.904812 
L 367.181942 203.467312 
L 366.103817 203.467312 
L 366.103817 196.904812 
z
M 366.103817 194.349187 
L 367.181942 194.349187 
L 367.181942 195.716062 
L 366.103817 195.716062 
L 366.103817 194.349187 
z
M 374.894051 199.505437 
L 374.894051 203.467312 
L 373.815926 203.467312 
L 373.815926 199.541062 
Q 373.815926 198.609187 373.452176 198.147937 
Q 373.088426 197.684812 372.362801 197.684812 
Q 371.489051 197.684812 370.984676 198.241687 
Q 370.480301 198.796687 370.480301 199.758562 
L 370.480301 203.467312 
L 369.396551 203.467312 
L 369.396551 196.904812 
L 370.480301 196.904812 
L 370.480301 197.924812 
Q 370.868426 197.332312 371.391551 197.039812 
Q 371.916551 196.747312 372.602801 196.747312 
Q 373.733426 196.747312 374.312801 197.446687 
Q 374.894051 198.146062 374.894051 199.505437 
z
" clip-path="url(#p070d24faed)" style="fill: #ffffff"/>
   </g>
   <g id="text_6">
    <g clip-path="url(#p070d24faed)">
     <!-- hemin -->
     <g transform="translate(86.157164 169.873875)scale(0.12 -0.12)">
      <use xlink:href="#DejaVuSans-68"/>
      <use xlink:href="#DejaVuSans-65" x="63.378906"/>
      <use xlink:href="#DejaVuSans-6d" x="124.902344"/>
      <use xlink:href="#DejaVuSans-69" x="222.314453"/>
      <use xlink:href="#DejaVuSans-6e" x="250.097656"/>
     </g>
    </g>
    <g clip-path="url(#p070d24faed)">
     <!-- MESH:D006427 -->
     <g transform="translate(58.129664 183.31125)scale(0.12 -0.12)">
      <defs>
       <path id="DejaVuSans-4d" d="M 628 4666 
L 1569 4666 
L 2759 1491 
L 3956 4666 
L 4897 4666 
L 4897 0 
L 4281 0 
L 4281 4097 
L 3078 897 
L 2444 897 
L 1241 4097 
L 1241 0 
L 628 0 
L 628 4666 
z
" transform="scale(0.015625)"/>
       <path id="DejaVuSans-45" d="M 628 4666 
L 3578 4666 
L 3578 4134 
L 1259 4134 
L 1259 2753 
L 3481 2753 
L 3481 2222 
L 1259 2222 
L 1259 531 
L 3634 531 
L 3634 0 
L 628 0 
L 628 4666 
z
" transform="scale(0.015625)"/>
       <path id="DejaVuSans-53" d="M 3425 4513 
L 3425 3897 
Q 3066 4069 2747 4153 
Q 2428 4238 2131 4238 
Q 1616 4238 1336 4038 
Q 1056 3838 1056 3469 
Q 1056 3159 1242 3001 
Q 1428 2844 1947 2747 
L 2328 2669 
Q 3034 2534 3370 2195 
Q 3706 1856 3706 1288 
Q 3706 609 3251 259 
Q 2797 -91 1919 -91 
Q 1588 -91 1214 -16 
Q 841 59 441 206 
L 441 856 
Q 825 641 1194 531 
Q 1563 422 1919 422 
Q 2459 422 2753 634 
Q 3047 847 3047 1241 
Q 3047 1584 2836 1778 
Q 2625 1972 2144 2069 
L 1759 2144 
Q 1053 2284 737 2584 
Q 422 2884 422 3419 
Q 422 4038 858 4394 
Q 1294 4750 2059 4750 
Q 2388 4750 2728 4690 
Q 3069 4631 3425 4513 
z
" transform="scale(0.015625)"/>
       <path id="DejaVuSans-48" d="M 628 4666 
L 1259 4666 
L 1259 2753 
L 3553 2753 
L 3553 4666 
L 4184 4666 
L 4184 0 
L 3553 0 
L 3553 2222 
L 1259 2222 
L 1259 0 
L 628 0 
L 628 4666 
z
" transform="scale(0.015625)"/>
       <path id="DejaVuSans-3a" d="M 750 794 
L 1409 794 
L 1409 0 
L 750 0 
L 750 794 
z
M 750 3309 
L 1409 3309 
L 1409 2516 
L 750 2516 
L 750 3309 
z
" transform="scale(0.015625)"/>
       <path id="DejaVuSans-44" d="M 1259 4147 
L 1259 519 
L 2022 519 
Q 2988 519 3436 956 
Q 3884 1394 3884 2338 
Q 3884 3275 3436 3711 
Q 2988 4147 2022 4147 
L 1259 4147 
z
M 628 4666 
L 1925 4666 
Q 3281 4666 3915 4102 
Q 4550 3538 4550 2338 
Q 4550 1131 3912 565 
Q 3275 0 1925 0 
L 628 0 
L 628 4666 
z
" transform="scale(0.015625)"/>
       <path id="DejaVuSans-30" d="M 2034 4250 
Q 1547 4250 1301 3770 
Q 1056 3291 1056 2328 
Q 1056 1369 1301 889 
Q 1547 409 2034 409 
Q 2525 409 2770 889 
Q 3016 1369 3016 2328 
Q 3016 3291 2770 3770 
Q 2525 4250 2034 4250 
z
M 2034 4750 
Q 2819 4750 3233 4129 
Q 3647 3509 3647 2328 
Q 3647 1150 3233 529 
Q 2819 -91 2034 -91 
Q 1250 -91 836 529 
Q 422 1150 422 2328 
Q 422 3509 836 4129 
Q 1250 4750 2034 4750 
z
" transform="scale(0.015625)"/>
       <path id="DejaVuSans-36" d="M 2113 2584 
Q 1688 2584 1439 2293 
Q 1191 2003 1191 1497 
Q 1191 994 1439 701 
Q 1688 409 2113 409 
Q 2538 409 2786 701 
Q 3034 994 3034 1497 
Q 3034 2003 2786 2293 
Q 2538 2584 2113 2584 
z
M 3366 4563 
L 3366 3988 
Q 3128 4100 2886 4159 
Q 2644 4219 2406 4219 
Q 1781 4219 1451 3797 
Q 1122 3375 1075 2522 
Q 1259 2794 1537 2939 
Q 1816 3084 2150 3084 
Q 2853 3084 3261 2657 
Q 3669 2231 3669 1497 
Q 3669 778 3244 343 
Q 2819 -91 2113 -91 
Q 1303 -91 875 529 
Q 447 1150 447 2328 
Q 447 3434 972 4092 
Q 1497 4750 2381 4750 
Q 2619 4750 2861 4703 
Q 3103 4656 3366 4563 
z
" transform="scale(0.015625)"/>
       <path id="DejaVuSans-34" d="M 2419 4116 
L 825 1625 
L 2419 1625 
L 2419 4116 
z
M 2253 4666 
L 3047 4666 
L 3047 1625 
L 3713 1625 
L 3713 1100 
L 3047 1100 
L 3047 0 
L 2419 0 
L 2419 1100 
L 313 1100 
L 313 1709 
L 2253 4666 
z
" transform="scale(0.015625)"/>
       <path id="DejaVuSans-32" d="M 1228 531 
L 3431 531 
L 3431 0 
L 469 0 
L 469 531 
Q 828 903 1448 1529 
Q 2069 2156 2228 2338 
Q 2531 2678 2651 2914 
Q 2772 3150 2772 3378 
Q 2772 3750 2511 3984 
Q 2250 4219 1831 4219 
Q 1534 4219 1204 4116 
Q 875 4013 500 3803 
L 500 4441 
Q 881 4594 1212 4672 
Q 1544 4750 1819 4750 
Q 2544 4750 2975 4387 
Q 3406 4025 3406 3419 
Q 3406 3131 3298 2873 
Q 3191 2616 2906 2266 
Q 2828 2175 2409 1742 
Q 1991 1309 1228 531 
z
" transform="scale(0.015625)"/>
       <path id="DejaVuSans-37" d="M 525 4666 
L 3525 4666 
L 3525 4397 
L 1831 0 
L 1172 0 
L 2766 4134 
L 525 4134 
L 525 4666 
z
" transform="scale(0.015625)"/>
      </defs>
      <use xlink:href="#DejaVuSans-4d"/>
      <use xlink:href="#DejaVuSans-45" x="86.279297"/>
      <use xlink:href="#DejaVuSans-53" x="149.462891"/>
      <use xlink:href="#DejaVuSans-48" x="212.939453"/>
      <use xlink:href="#DejaVuSans-3a" x="288.134766"/>
      <use xlink:href="#DejaVuSans-44" x="321.826172"/>
      <use xlink:href="#DejaVuSans-30" x="398.828125"/>
      <use xlink:href="#DejaVuSans-30" x="462.451172"/>
      <use xlink:href="#DejaVuSans-36" x="526.074219"/>
      <use xlink:href="#DejaVuSans-34" x="589.697266"/>
      <use xlink:href="#DejaVuSans-32" x="653.320312"/>
      <use xlink:href="#DejaVuSans-37" x="716.943359"/>
     </g>
    </g>
    <g clip-path="url(#p070d24faed)">
     <!-- Drug -->
     <g transform="translate(90.267164 196.748625)scale(0.12 -0.12)">
      <defs>
       <path id="DejaVuSans-75" d="M 544 1381 
L 544 3500 
L 1119 3500 
L 1119 1403 
Q 1119 906 1312 657 
Q 1506 409 1894 409 
Q 2359 409 2629 706 
Q 2900 1003 2900 1516 
L 2900 3500 
L 3475 3500 
L 3475 0 
L 2900 0 
L 2900 538 
Q 2691 219 2414 64 
Q 2138 -91 1772 -91 
Q 1169 -91 856 284 
Q 544 659 544 1381 
z
M 1991 3584 
L 1991 3584 
z
" transform="scale(0.015625)"/>
       <path id="DejaVuSans-67" d="M 2906 1791 
Q 2906 2416 2648 2759 
Q 2391 3103 1925 3103 
Q 1463 3103 1205 2759 
Q 947 2416 947 1791 
Q 947 1169 1205 825 
Q 1463 481 1925 481 
Q 2391 481 2648 825 
Q 2906 1169 2906 1791 
z
M 3481 434 
Q 3481 -459 3084 -895 
Q 2688 -1331 1869 -1331 
Q 1566 -1331 1297 -1286 
Q 1028 -1241 775 -1147 
L 775 -588 
Q 1028 -725 1275 -790 
Q 1522 -856 1778 -856 
Q 2344 -856 2625 -561 
Q 2906 -266 2906 331 
L 2906 616 
Q 2728 306 2450 153 
Q 2172 0 1784 0 
Q 1141 0 747 490 
Q 353 981 353 1791 
Q 353 2603 747 3093 
Q 1141 3584 1784 3584 
Q 2172 3584 2450 3431 
Q 2728 3278 2906 2969 
L 2906 3500 
L 3481 3500 
L 3481 434 
z
" transform="scale(0.015625)"/>
      </defs>
      <use xlink:href="#DejaVuSans-44"/>
      <use xlink:href="#DejaVuSans-72" x="77.001953"/>
      <use xlink:href="#DejaVuSans-75" x="118.115234"/>
      <use xlink:href="#DejaVuSans-67" x="181.494141"/>
     </g>
    </g>
   </g>
   <g id="text_7">
    <g clip-path="url(#p070d24faed)">
     <!-- Heme -->
     <g transform="translate(587.059687 156.4365)scale(0.12 -0.12)">
      <use xlink:href="#DejaVuSans-48"/>
      <use xlink:href="#DejaVuSans-65" x="75.195312"/>
      <use xlink:href="#DejaVuSans-6d" x="136.71875"/>
      <use xlink:href="#DejaVuSans-65" x="234.130859"/>
     </g>
    </g>
    <g clip-path="url(#p070d24faed)">
     <!-- biosynthesis -->
     <g transform="translate(567.40875 169.873875)scale(0.12 -0.12)">
      <defs>
       <path id="DejaVuSans-62" d="M 3116 1747 
Q 3116 2381 2855 2742 
Q 2594 3103 2138 3103 
Q 1681 3103 1420 2742 
Q 1159 2381 1159 1747 
Q 1159 1113 1420 752 
Q 1681 391 2138 391 
Q 2594 391 2855 752 
Q 3116 1113 3116 1747 
z
M 1159 2969 
Q 1341 3281 1617 3432 
Q 1894 3584 2278 3584 
Q 2916 3584 3314 3078 
Q 3713 2572 3713 1747 
Q 3713 922 3314 415 
Q 2916 -91 2278 -91 
Q 1894 -91 1617 61 
Q 1341 213 1159 525 
L 1159 0 
L 581 0 
L 581 4863 
L 1159 4863 
L 1159 2969 
z
" transform="scale(0.015625)"/>
      </defs>
      <use xlink:href="#DejaVuSans-62"/>
      <use xlink:href="#DejaVuSans-69" x="63.476562"/>
      <use xlink:href="#DejaVuSans-6f" x="91.259766"/>
      <use xlink:href="#DejaVuSans-73" x="152.441406"/>
      <use xlink:href="#DejaVuSans-79" x="204.541016"/>
      <use xlink:href="#DejaVuSans-6e" x="263.720703"/>
      <use xlink:href="#DejaVuSans-74" x="327.099609"/>
      <use xlink:href="#DejaVuSans-68" x="366.308594"/>
      <use xlink:href="#DejaVuSans-65" x="429.6875"/>
      <use xlink:href="#DejaVuSans-73" x="491.210938"/>
      <use xlink:href="#DejaVuSans-69" x="543.310547"/>
      <use xlink:href="#DejaVuSans-73" x="571.09375"/>
     </g>
    </g>
    <g clip-path="url(#p070d24faed)">
     <!-- REACT:R-HSA- -->
     <g transform="translate(562.963125 183.31125)scale(0.12 -0.12)">
      <defs>
       <path id="DejaVuSans-52" d="M 2841 2188 
Q 3044 2119 3236 1894 
Q 3428 1669 3622 1275 
L 4263 0 
L 3584 0 
L 2988 1197 
Q 2756 1666 2539 1819 
Q 2322 1972 1947 1972 
L 1259 1972 
L 1259 0 
L 628 0 
L 628 4666 
L 2053 4666 
Q 2853 4666 3247 4331 
Q 3641 3997 3641 3322 
Q 3641 2881 3436 2590 
Q 3231 2300 2841 2188 
z
M 1259 4147 
L 1259 2491 
L 2053 2491 
Q 2509 2491 2742 2702 
Q 2975 2913 2975 3322 
Q 2975 3731 2742 3939 
Q 2509 4147 2053 4147 
L 1259 4147 
z
" transform="scale(0.015625)"/>
       <path id="DejaVuSans-41" d="M 2188 4044 
L 1331 1722 
L 3047 1722 
L 2188 4044 
z
M 1831 4666 
L 2547 4666 
L 4325 0 
L 3669 0 
L 3244 1197 
L 1141 1197 
L 716 0 
L 50 0 
L 1831 4666 
z
" transform="scale(0.015625)"/>
       <path id="DejaVuSans-43" d="M 4122 4306 
L 4122 3641 
Q 3803 3938 3442 4084 
Q 3081 4231 2675 4231 
Q 1875 4231 1450 3742 
Q 1025 3253 1025 2328 
Q 1025 1406 1450 917 
Q 1875 428 2675 428 
Q 3081 428 3442 575 
Q 3803 722 4122 1019 
L 4122 359 
Q 3791 134 3420 21 
Q 3050 -91 2638 -91 
Q 1578 -91 968 557 
Q 359 1206 359 2328 
Q 359 3453 968 4101 
Q 1578 4750 2638 4750 
Q 3056 4750 3426 4639 
Q 3797 4528 4122 4306 
z
" transform="scale(0.015625)"/>
       <path id="DejaVuSans-54" d="M -19 4666 
L 3928 4666 
L 3928 4134 
L 2272 4134 
L 2272 0 
L 1638 0 
L 1638 4134 
L -19 4134 
L -19 4666 
z
" transform="scale(0.015625)"/>
       <path id="DejaVuSans-2d" d="M 313 2009 
L 1997 2009 
L 1997 1497 
L 313 1497 
L 313 2009 
z
" transform="scale(0.015625)"/>
      </defs>
      <use xlink:href="#DejaVuSans-52"/>
      <use xlink:href="#DejaVuSans-45" x="69.482422"/>
      <use xlink:href="#DejaVuSans-41" x="132.666016"/>
      <use xlink:href="#DejaVuSans-43" x="199.324219"/>
      <use xlink:href="#DejaVuSans-54" x="269.148438"/>
      <use xlink:href="#DejaVuSans-3a" x="319.232422"/>
      <use xlink:href="#DejaVuSans-52" x="352.923828"/>
      <use xlink:href="#DejaVuSans-2d" x="418.40625"/>
      <use xlink:href="#DejaVuSans-48" x="454.490234"/>
      <use xlink:href="#DejaVuSans-53" x="529.685547"/>
      <use xlink:href="#DejaVuSans-41" x="595.037109"/>
      <use xlink:href="#DejaVuSans-2d" x="661.195312"/>
     </g>
    </g>
    <g clip-path="url(#p070d24faed)">
     <!-- 189451 -->
     <g transform="translate(581.895 196.748625)scale(0.12 -0.12)">
      <defs>
       <path id="DejaVuSans-31" d="M 794 531 
L 1825 531 
L 1825 4091 
L 703 3866 
L 703 4441 
L 1819 4666 
L 2450 4666 
L 2450 531 
L 3481 531 
L 3481 0 
L 794 0 
L 794 531 
z
" transform="scale(0.015625)"/>
       <path id="DejaVuSans-38" d="M 2034 2216 
Q 1584 2216 1326 1975 
Q 1069 1734 1069 1313 
Q 1069 891 1326 650 
Q 1584 409 2034 409 
Q 2484 409 2743 651 
Q 3003 894 3003 1313 
Q 3003 1734 2745 1975 
Q 2488 2216 2034 2216 
z
M 1403 2484 
Q 997 2584 770 2862 
Q 544 3141 544 3541 
Q 544 4100 942 4425 
Q 1341 4750 2034 4750 
Q 2731 4750 3128 4425 
Q 3525 4100 3525 3541 
Q 3525 3141 3298 2862 
Q 3072 2584 2669 2484 
Q 3125 2378 3379 2068 
Q 3634 1759 3634 1313 
Q 3634 634 3220 271 
Q 2806 -91 2034 -91 
Q 1263 -91 848 271 
Q 434 634 434 1313 
Q 434 1759 690 2068 
Q 947 2378 1403 2484 
z
M 1172 3481 
Q 1172 3119 1398 2916 
Q 1625 2713 2034 2713 
Q 2441 2713 2670 2916 
Q 2900 3119 2900 3481 
Q 2900 3844 2670 4047 
Q 2441 4250 2034 4250 
Q 1625 4250 1398 4047 
Q 1172 3844 1172 3481 
z
" transform="scale(0.015625)"/>
       <path id="DejaVuSans-39" d="M 703 97 
L 703 672 
Q 941 559 1184 500 
Q 1428 441 1663 441 
Q 2288 441 2617 861 
Q 2947 1281 2994 2138 
Q 2813 1869 2534 1725 
Q 2256 1581 1919 1581 
Q 1219 1581 811 2004 
Q 403 2428 403 3163 
Q 403 3881 828 4315 
Q 1253 4750 1959 4750 
Q 2769 4750 3195 4129 
Q 3622 3509 3622 2328 
Q 3622 1225 3098 567 
Q 2575 -91 1691 -91 
Q 1453 -91 1209 -44 
Q 966 3 703 97 
z
M 1959 2075 
Q 2384 2075 2632 2365 
Q 2881 2656 2881 3163 
Q 2881 3666 2632 3958 
Q 2384 4250 1959 4250 
Q 1534 4250 1286 3958 
Q 1038 3666 1038 3163 
Q 1038 2656 1286 2365 
Q 1534 2075 1959 2075 
z
" transform="scale(0.015625)"/>
       <path id="DejaVuSans-35" d="M 691 4666 
L 3169 4666 
L 3169 4134 
L 1269 4134 
L 1269 2991 
Q 1406 3038 1543 3061 
Q 1681 3084 1819 3084 
Q 2600 3084 3056 2656 
Q 3513 2228 3513 1497 
Q 3513 744 3044 326 
Q 2575 -91 1722 -91 
Q 1428 -91 1123 -41 
Q 819 9 494 109 
L 494 744 
Q 775 591 1075 516 
Q 1375 441 1709 441 
Q 2250 441 2565 725 
Q 2881 1009 2881 1497 
Q 2881 1984 2565 2268 
Q 2250 2553 1709 2553 
Q 1456 2553 1204 2497 
Q 953 2441 691 2322 
L 691 4666 
z
" transform="scale(0.015625)"/>
      </defs>
      <use xlink:href="#DejaVuSans-31"/>
      <use xlink:href="#DejaVuSans-38" x="63.623047"/>
      <use xlink:href="#DejaVuSans-39" x="127.246094"/>
      <use xlink:href="#DejaVuSans-34" x="190.869141"/>
      <use xlink:href="#DejaVuSans-35" x="254.492188"/>
      <use xlink:href="#DejaVuSans-31" x="318.115234"/>
     </g>
    </g>
    <g clip-path="url(#p070d24faed)">
     <!-- Pathway -->
     <g transform="translate(579.485625 210.186)scale(0.12 -0.12)">
      <defs>
       <path id="DejaVuSans-50" d="M 1259 4147 
L 1259 2394 
L 2053 2394 
Q 2494 2394 2734 2622 
Q 2975 2850 2975 3272 
Q 2975 3691 2734 3919 
Q 2494 4147 2053 4147 
L 1259 4147 
z
M 628 4666 
L 2053 4666 
Q 2838 4666 3239 4311 
Q 3641 3956 3641 3272 
Q 3641 2581 3239 2228 
Q 2838 1875 2053 1875 
L 1259 1875 
L 1259 0 
L 628 0 
L 628 4666 
z
" transform="scale(0.015625)"/>
       <path id="DejaVuSans-77" d="M 269 3500 
L 844 3500 
L 1563 769 
L 2278 3500 
L 2956 3500 
L 3675 769 
L 4391 3500 
L 4966 3500 
L 4050 0 
L 3372 0 
L 2619 2869 
L 1863 0 
L 1184 0 
L 269 3500 
z
" transform="scale(0.015625)"/>
      </defs>
      <use xlink:href="#DejaVuSans-50"/>
      <use xlink:href="#DejaVuSans-61" x="55.802734"/>
      <use xlink:href="#DejaVuSans-74" x="117.082031"/>
      <use xlink:href="#DejaVuSans-68" x="156.291016"/>
      <use xlink:href="#DejaVuSans-77" x="219.669922"/>
      <use xlink:href="#DejaVuSans-61" x="301.457031"/>
      <use xlink:href="#DejaVuSans-79" x="362.736328"/>
     </g>
    </g>
   </g>
   <g id="text_8">
    <g clip-path="url(#p070d24faed)">
     <!-- porpholobilinogen -->
     <g transform="translate(800.562668 169.873875)scale(0.12 -0.12)">
      <defs>
       <path id="DejaVuSans-6c" d="M 603 4863 
L 1178 4863 
L 1178 0 
L 603 0 
L 603 4863 
z
" transform="scale(0.015625)"/>
      </defs>
      <use xlink:href="#DejaVuSans-70"/>
      <use xlink:href="#DejaVuSans-6f" x="63.476562"/>
      <use xlink:href="#DejaVuSans-72" x="124.658203"/>
      <use xlink:href="#DejaVuSans-70" x="165.771484"/>
      <use xlink:href="#DejaVuSans-68" x="229.248047"/>
      <use xlink:href="#DejaVuSans-6f" x="292.626953"/>
      <use xlink:href="#DejaVuSans-6c" x="353.808594"/>
      <use xlink:href="#DejaVuSans-6f" x="381.591797"/>
      <use xlink:href="#DejaVuSans-62" x="442.773438"/>
      <use xlink:href="#DejaVuSans-69" x="506.25"/>
      <use xlink:href="#DejaVuSans-6c" x="534.033203"/>
      <use xlink:href="#DejaVuSans-69" x="561.816406"/>
      <use xlink:href="#DejaVuSans-6e" x="589.599609"/>
      <use xlink:href="#DejaVuSans-6f" x="652.978516"/>
      <use xlink:href="#DejaVuSans-67" x="714.160156"/>
      <use xlink:href="#DejaVuSans-65" x="777.636719"/>
      <use xlink:href="#DejaVuSans-6e" x="839.160156"/>
     </g>
    </g>
    <g clip-path="url(#p070d24faed)">
     <!-- MESH:D011162 -->
     <g transform="translate(807.88173 183.31125)scale(0.12 -0.12)">
      <use xlink:href="#DejaVuSans-4d"/>
      <use xlink:href="#DejaVuSans-45" x="86.279297"/>
      <use xlink:href="#DejaVuSans-53" x="149.462891"/>
      <use xlink:href="#DejaVuSans-48" x="212.939453"/>
      <use xlink:href="#DejaVuSans-3a" x="288.134766"/>
      <use xlink:href="#DejaVuSans-44" x="321.826172"/>
      <use xlink:href="#DejaVuSans-30" x="398.828125"/>
      <use xlink:href="#DejaVuSans-31" x="462.451172"/>
      <use xlink:href="#DejaVuSans-31" x="526.074219"/>
      <use xlink:href="#DejaVuSans-31" x="589.697266"/>
      <use xlink:href="#DejaVuSans-36" x="653.320312"/>
      <use xlink:href="#DejaVuSans-32" x="716.943359"/>
     </g>
    </g>
    <g clip-path="url(#p070d24faed)">
     <!-- ChemicalSubstance -->
     <g transform="translate(795.51048 196.748625)scale(0.12 -0.12)">
      <use xlink:href="#DejaVuSans-43"/>
      <use xlink:href="#DejaVuSans-68" x="69.824219"/>
      <use xlink:href="#DejaVuSans-65" x="133.203125"/>
      <use xlink:href="#DejaVuSans-6d" x="194.726562"/>
      <use xlink:href="#DejaVuSans-69" x="292.138672"/>
      <use xlink:href="#DejaVuSans-63" x="319.921875"/>
      <use xlink:href="#DejaVuSans-61" x="374.902344"/>
      <use xlink:href="#DejaVuSans-6c" x="436.181641"/>
      <use xlink:href="#DejaVuSans-53" x="463.964844"/>
      <use xlink:href="#DejaVuSans-75" x="527.441406"/>
      <use xlink:href="#DejaVuSans-62" x="590.820312"/>
      <use xlink:href="#DejaVuSans-73" x="654.296875"/>
      <use xlink:href="#DejaVuSans-74" x="706.396484"/>
      <use xlink:href="#DejaVuSans-61" x="745.605469"/>
      <use xlink:href="#DejaVuSans-6e" x="806.884766"/>
      <use xlink:href="#DejaVuSans-63" x="870.263672"/>
      <use xlink:href="#DejaVuSans-65" x="925.244141"/>
     </g>
    </g>
   </g>
   <g id="text_9">
    <g clip-path="url(#p070d24faed)">
     <!-- Acute -->
     <g transform="translate(1087.489711 156.4365)scale(0.12 -0.12)">
      <use xlink:href="#DejaVuSans-41"/>
      <use xlink:href="#DejaVuSans-63" x="66.658203"/>
      <use xlink:href="#DejaVuSans-75" x="121.638672"/>
      <use xlink:href="#DejaVuSans-74" x="185.017578"/>
      <use xlink:href="#DejaVuSans-65" x="224.226562"/>
     </g>
    </g>
    <g clip-path="url(#p070d24faed)">
     <!-- intermittent -->
     <g transform="translate(1068.697523 169.873875)scale(0.12 -0.12)">
      <use xlink:href="#DejaVuSans-69"/>
      <use xlink:href="#DejaVuSans-6e" x="27.783203"/>
      <use xlink:href="#DejaVuSans-74" x="91.162109"/>
      <use xlink:href="#DejaVuSans-65" x="130.371094"/>
      <use xlink:href="#DejaVuSans-72" x="191.894531"/>
      <use xlink:href="#DejaVuSans-6d" x="231.257812"/>
      <use xlink:href="#DejaVuSans-69" x="328.669922"/>
      <use xlink:href="#DejaVuSans-74" x="356.453125"/>
      <use xlink:href="#DejaVuSans-74" x="395.662109"/>
      <use xlink:href="#DejaVuSans-65" x="434.871094"/>
      <use xlink:href="#DejaVuSans-6e" x="496.394531"/>
      <use xlink:href="#DejaVuSans-74" x="559.773438"/>
     </g>
    </g>
    <g clip-path="url(#p070d24faed)">
     <!-- porphyria -->
     <g transform="translate(1075.714711 183.31125)scale(0.12 -0.12)">
      <use xlink:href="#DejaVuSans-70"/>
      <use xlink:href="#DejaVuSans-6f" x="63.476562"/>
      <use xlink:href="#DejaVuSans-72" x="124.658203"/>
      <use xlink:href="#DejaVuSans-70" x="165.771484"/>
      <use xlink:href="#DejaVuSans-68" x="229.248047"/>
      <use xlink:href="#DejaVuSans-79" x="292.626953"/>
      <use xlink:href="#DejaVuSans-72" x="351.806641"/>
      <use xlink:href="#DejaVuSans-69" x="392.919922"/>
      <use xlink:href="#DejaVuSans-61" x="420.703125"/>
     </g>
    </g>
    <g clip-path="url(#p070d24faed)">
     <!-- MESH:D017118 -->
     <g transform="translate(1057.799086 196.748625)scale(0.12 -0.12)">
      <use xlink:href="#DejaVuSans-4d"/>
      <use xlink:href="#DejaVuSans-45" x="86.279297"/>
      <use xlink:href="#DejaVuSans-53" x="149.462891"/>
      <use xlink:href="#DejaVuSans-48" x="212.939453"/>
      <use xlink:href="#DejaVuSans-3a" x="288.134766"/>
      <use xlink:href="#DejaVuSans-44" x="321.826172"/>
      <use xlink:href="#DejaVuSans-30" x="398.828125"/>
      <use xlink:href="#DejaVuSans-31" x="462.451172"/>
      <use xlink:href="#DejaVuSans-37" x="526.074219"/>
      <use xlink:href="#DejaVuSans-31" x="589.697266"/>
      <use xlink:href="#DejaVuSans-31" x="653.320312"/>
      <use xlink:href="#DejaVuSans-38" x="716.943359"/>
     </g>
    </g>
    <g clip-path="url(#p070d24faed)">
     <!-- Disease -->
     <g transform="translate(1081.035961 210.186)scale(0.12 -0.12)">
      <use xlink:href="#DejaVuSans-44"/>
      <use xlink:href="#DejaVuSans-69" x="77.001953"/>
      <use xlink:href="#DejaVuSans-73" x="104.785156"/>
      <use xlink:href="#DejaVuSans-65" x="156.884766"/>
      <use xlink:href="#DejaVuSans-61" x="218.408203"/>
      <use xlink:href="#DejaVuSans-73" x="279.6875"/>
      <use xlink:href="#DejaVuSans-65" x="331.787109"/>
     </g>
    </g>
   </g>
  </g>
 </g>
 <defs>
  <clipPath id="p070d24faed">
   <rect x="0" y="0" width="1209.6" height="360"/>
  </clipPath>
 </defs>
</svg>
