<?xml version="1.0" encoding="utf-8" standalone="no"?>
<!DOCTYPE svg PUBLIC "-//W3C//DTD SVG 1.1//EN"
  "http://www.w3.org/Graphics/SVG/1.1/DTD/svg11.dtd">
<svg xmlns:xlink="http://www.w3.org/1999/xlink" width="1209.6pt" height="360pt" viewBox="0 0 1209.6 360" xmlns="http://www.w3.org/2000/svg" version="1.1">
 <metadata>
  <rdf:RDF xmlns:dc="http://purl.org/dc/elements/1.1/" xmlns:cc="http://creativecommons.org/ns#" xmlns:rdf="http://www.w3.org/1999/02/22-rdf-syntax-ns#">
   <cc:Work>
    <dc:type rdf:resource="http://purl.org/dc/dcmitype/StillImage"/>
    <dc:date>2023-02-08T08:50:58.529630</dc:date>
    <dc:format>image/svg+xml</dc:format>
    <dc:creator>
     <cc:Agent>
      <dc:title>Matplotlib v3.5.1, https://matplotlib.org/</dc:title>
     </cc:Agent>
    </dc:creator>
   </cc:Work>
  </rdf:RDF>
 </metadata>
 <defs>
  <style type="text/css">*{stroke-linejoin: round; stroke-linecap: butt}</style>
 </defs>
 <g id="figure_1">
  <g id="patch_1">
   <path d="M 0 360 
L 1209.6 360 
L 1209.6 0 
L 0 0 
z
" style="fill: #ffffff"/>
  </g>
  <g id="axes_1">
   <g id="patch_2">
    <path d="M 157.403851 180 
Q 229.923128 180 299.088304 180 
" clip-path="url(#pbe997696e8)" style="fill: none; stroke: #2ca02c; stroke-width: 3; stroke-linecap: round"/>
    <path d="M 295.088304 178 
L 299.088304 180 
L 295.088304 182 
L 295.088304 178 
z
" clip-path="url(#pbe997696e8)" style="fill: #2ca02c; stroke: #2ca02c; stroke-width: 3; stroke-linecap: round"/>
   </g>
   <g id="patch_3">
    <path d="M 407.321206 180 
Q 479.840484 180 549.00566 180 
" clip-path="url(#pbe997696e8)" style="fill: none; stroke: #2ca02c; stroke-width: 3; stroke-linecap: round"/>
    <path d="M 545.00566 178 
L 549.00566 180 
L 545.00566 182 
L 545.00566 178 
z
" clip-path="url(#pbe997696e8)" style="fill: #2ca02c; stroke: #2ca02c; stroke-width: 3; stroke-linecap: round"/>
   </g>
   <g id="patch_4">
    <path d="M 657.238561 180 
Q 729.757839 180 798.923015 180 
" clip-path="url(#pbe997696e8)" style="fill: none; stroke: #2ca02c; stroke-width: 3; stroke-linecap: round"/>
    <path d="M 794.923015 178 
L 798.923015 180 
L 794.923015 182 
L 794.923015 178 
z
" clip-path="url(#pbe997696e8)" style="fill: #2ca02c; stroke: #2ca02c; stroke-width: 3; stroke-linecap: round"/>
   </g>
   <g id="patch_5">
    <path d="M 907.155917 180 
Q 979.675195 180 1048.840371 180 
" clip-path="url(#pbe997696e8)" style="fill: none; stroke: #2ca02c; stroke-width: 3; stroke-linecap: round"/>
    <path d="M 1044.840371 178 
L 1048.840371 180 
L 1044.840371 182 
L 1044.840371 178 
z
" clip-path="url(#pbe997696e8)" style="fill: #2ca02c; stroke: #2ca02c; stroke-width: 3; stroke-linecap: round"/>
   </g>
   <g id="text_1">
    <g id="patch_6">
     <path d="M 205.084904 193.437969 
L 254.763029 193.437969 
Q 257.763029 193.437969 257.763029 190.437969 
L 257.763029 169.562031 
Q 257.763029 166.562031 254.763029 166.562031 
L 205.084904 166.562031 
Q 202.084904 166.562031 202.084904 169.562031 
L 202.084904 190.437969 
Q 202.084904 193.437969 205.084904 193.437969 
z
" clip-path="url(#pbe997696e8)" style="fill: #ffffff; stroke: #ffffff; stroke-linejoin: miter"/>
    </g>
    <g clip-path="url(#pbe997696e8)">
     <!-- increases -->
     <g transform="translate(206.247404 177.160469)scale(0.1 -0.1)">
      <defs>
       <path id="DejaVuSans-69" d="M 603 3500 
L 1178 3500 
L 1178 0 
L 603 0 
L 603 3500 
z
M 603 4863 
L 1178 4863 
L 1178 4134 
L 603 4134 
L 603 4863 
z
" transform="scale(0.015625)"/>
       <path id="DejaVuSans-6e" d="M 3513 2113 
L 3513 0 
L 2938 0 
L 2938 2094 
Q 2938 2591 2744 2837 
Q 2550 3084 2163 3084 
Q 1697 3084 1428 2787 
Q 1159 2491 1159 1978 
L 1159 0 
L 581 0 
L 581 3500 
L 1159 3500 
L 1159 2956 
Q 1366 3272 1645 3428 
Q 1925 3584 2291 3584 
Q 2894 3584 3203 3211 
Q 3513 2838 3513 2113 
z
" transform="scale(0.015625)"/>
       <path id="DejaVuSans-63" d="M 3122 3366 
L 3122 2828 
Q 2878 2963 2633 3030 
Q 2388 3097 2138 3097 
Q 1578 3097 1268 2742 
Q 959 2388 959 1747 
Q 959 1106 1268 751 
Q 1578 397 2138 397 
Q 2388 397 2633 464 
Q 2878 531 3122 666 
L 3122 134 
Q 2881 22 2623 -34 
Q 2366 -91 2075 -91 
Q 1284 -91 818 406 
Q 353 903 353 1747 
Q 353 2603 823 3093 
Q 1294 3584 2113 3584 
Q 2378 3584 2631 3529 
Q 2884 3475 3122 3366 
z
" transform="scale(0.015625)"/>
       <path id="DejaVuSans-72" d="M 2631 2963 
Q 2534 3019 2420 3045 
Q 2306 3072 2169 3072 
Q 1681 3072 1420 2755 
Q 1159 2438 1159 1844 
L 1159 0 
L 581 0 
L 581 3500 
L 1159 3500 
L 1159 2956 
Q 1341 3275 1631 3429 
Q 1922 3584 2338 3584 
Q 2397 3584 2469 3576 
Q 2541 3569 2628 3553 
L 2631 2963 
z
" transform="scale(0.015625)"/>
       <path id="DejaVuSans-65" d="M 3597 1894 
L 3597 1613 
L 953 1613 
Q 991 1019 1311 708 
Q 1631 397 2203 397 
Q 2534 397 2845 478 
Q 3156 559 3463 722 
L 3463 178 
Q 3153 47 2828 -22 
Q 2503 -91 2169 -91 
Q 1331 -91 842 396 
Q 353 884 353 1716 
Q 353 2575 817 3079 
Q 1281 3584 2069 3584 
Q 2775 3584 3186 3129 
Q 3597 2675 3597 1894 
z
M 3022 2063 
Q 3016 2534 2758 2815 
Q 2500 3097 2075 3097 
Q 1594 3097 1305 2825 
Q 1016 2553 972 2059 
L 3022 2063 
z
" transform="scale(0.015625)"/>
       <path id="DejaVuSans-61" d="M 2194 1759 
Q 1497 1759 1228 1600 
Q 959 1441 959 1056 
Q 959 750 1161 570 
Q 1363 391 1709 391 
Q 2188 391 2477 730 
Q 2766 1069 2766 1631 
L 2766 1759 
L 2194 1759 
z
M 3341 1997 
L 3341 0 
L 2766 0 
L 2766 531 
Q 2569 213 2275 61 
Q 1981 -91 1556 -91 
Q 1019 -91 701 211 
Q 384 513 384 1019 
Q 384 1609 779 1909 
Q 1175 2209 1959 2209 
L 2766 2209 
L 2766 2266 
Q 2766 2663 2505 2880 
Q 2244 3097 1772 3097 
Q 1472 3097 1187 3025 
Q 903 2953 641 2809 
L 641 3341 
Q 956 3463 1253 3523 
Q 1550 3584 1831 3584 
Q 2591 3584 2966 3190 
Q 3341 2797 3341 1997 
z
" transform="scale(0.015625)"/>
       <path id="DejaVuSans-73" d="M 2834 3397 
L 2834 2853 
Q 2591 2978 2328 3040 
Q 2066 3103 1784 3103 
Q 1356 3103 1142 2972 
Q 928 2841 928 2578 
Q 928 2378 1081 2264 
Q 1234 2150 1697 2047 
L 1894 2003 
Q 2506 1872 2764 1633 
Q 3022 1394 3022 966 
Q 3022 478 2636 193 
Q 2250 -91 1575 -91 
Q 1294 -91 989 -36 
Q 684 19 347 128 
L 347 722 
Q 666 556 975 473 
Q 1284 391 1588 391 
Q 1994 391 2212 530 
Q 2431 669 2431 922 
Q 2431 1156 2273 1281 
Q 2116 1406 1581 1522 
L 1381 1569 
Q 847 1681 609 1914 
Q 372 2147 372 2553 
Q 372 3047 722 3315 
Q 1072 3584 1716 3584 
Q 2034 3584 2315 3537 
Q 2597 3491 2834 3397 
z
" transform="scale(0.015625)"/>
      </defs>
      <use xlink:href="#DejaVuSans-69"/>
      <use xlink:href="#DejaVuSans-6e" x="27.783203"/>
      <use xlink:href="#DejaVuSans-63" x="91.162109"/>
      <use xlink:href="#DejaVuSans-72" x="146.142578"/>
      <use xlink:href="#DejaVuSans-65" x="185.005859"/>
      <use xlink:href="#DejaVuSans-61" x="246.529297"/>
      <use xlink:href="#DejaVuSans-73" x="307.808594"/>
      <use xlink:href="#DejaVuSans-65" x="359.908203"/>
      <use xlink:href="#DejaVuSans-73" x="421.431641"/>
     </g>
    </g>
    <g clip-path="url(#pbe997696e8)">
     <!-- activity of -->
     <g transform="translate(205.084904 188.358281)scale(0.1 -0.1)">
      <defs>
       <path id="DejaVuSans-74" d="M 1172 4494 
L 1172 3500 
L 2356 3500 
L 2356 3053 
L 1172 3053 
L 1172 1153 
Q 1172 725 1289 603 
Q 1406 481 1766 481 
L 2356 481 
L 2356 0 
L 1766 0 
Q 1100 0 847 248 
Q 594 497 594 1153 
L 594 3053 
L 172 3053 
L 172 3500 
L 594 3500 
L 594 4494 
L 1172 4494 
z
" transform="scale(0.015625)"/>
       <path id="DejaVuSans-76" d="M 191 3500 
L 800 3500 
L 1894 563 
L 2988 3500 
L 3597 3500 
L 2284 0 
L 1503 0 
L 191 3500 
z
" transform="scale(0.015625)"/>
       <path id="DejaVuSans-79" d="M 2059 -325 
Q 1816 -950 1584 -1140 
Q 1353 -1331 966 -1331 
L 506 -1331 
L 506 -850 
L 844 -850 
Q 1081 -850 1212 -737 
Q 1344 -625 1503 -206 
L 1606 56 
L 191 3500 
L 800 3500 
L 1894 763 
L 2988 3500 
L 3597 3500 
L 2059 -325 
z
" transform="scale(0.015625)"/>
       <path id="DejaVuSans-20" transform="scale(0.015625)"/>
       <path id="DejaVuSans-6f" d="M 1959 3097 
Q 1497 3097 1228 2736 
Q 959 2375 959 1747 
Q 959 1119 1226 758 
Q 1494 397 1959 397 
Q 2419 397 2687 759 
Q 2956 1122 2956 1747 
Q 2956 2369 2687 2733 
Q 2419 3097 1959 3097 
z
M 1959 3584 
Q 2709 3584 3137 3096 
Q 3566 2609 3566 1747 
Q 3566 888 3137 398 
Q 2709 -91 1959 -91 
Q 1206 -91 779 398 
Q 353 888 353 1747 
Q 353 2609 779 3096 
Q 1206 3584 1959 3584 
z
" transform="scale(0.015625)"/>
       <path id="DejaVuSans-66" d="M 2375 4863 
L 2375 4384 
L 1825 4384 
Q 1516 4384 1395 4259 
Q 1275 4134 1275 3809 
L 1275 3500 
L 2222 3500 
L 2222 3053 
L 1275 3053 
L 1275 0 
L 697 0 
L 697 3053 
L 147 3053 
L 147 3500 
L 697 3500 
L 697 3744 
Q 697 4328 969 4595 
Q 1241 4863 1831 4863 
L 2375 4863 
z
" transform="scale(0.015625)"/>
      </defs>
      <use xlink:href="#DejaVuSans-61"/>
      <use xlink:href="#DejaVuSans-63" x="61.279297"/>
      <use xlink:href="#DejaVuSans-74" x="116.259766"/>
      <use xlink:href="#DejaVuSans-69" x="155.46875"/>
      <use xlink:href="#DejaVuSans-76" x="183.251953"/>
      <use xlink:href="#DejaVuSans-69" x="242.431641"/>
      <use xlink:href="#DejaVuSans-74" x="270.214844"/>
      <use xlink:href="#DejaVuSans-79" x="309.423828"/>
      <use xlink:href="#DejaVuSans-20" x="368.603516"/>
      <use xlink:href="#DejaVuSans-6f" x="400.390625"/>
      <use xlink:href="#DejaVuSans-66" x="461.572266"/>
     </g>
    </g>
   </g>
   <g id="text_2">
    <g id="patch_7">
     <path d="M 445.617104 193.437969 
L 514.065541 193.437969 
Q 517.065541 193.437969 517.065541 190.437969 
L 517.065541 169.562031 
Q 517.065541 166.562031 514.065541 166.562031 
L 445.617104 166.562031 
Q 442.617104 166.562031 442.617104 169.562031 
L 442.617104 190.437969 
Q 442.617104 193.437969 445.617104 193.437969 
z
" clip-path="url(#pbe997696e8)" style="fill: #ffffff; stroke: #ffffff; stroke-linejoin: miter"/>
    </g>
    <g clip-path="url(#pbe997696e8)">
     <!-- molecularly -->
     <g transform="translate(450.67101 177.160469)scale(0.1 -0.1)">
      <defs>
       <path id="DejaVuSans-6d" d="M 3328 2828 
Q 3544 3216 3844 3400 
Q 4144 3584 4550 3584 
Q 5097 3584 5394 3201 
Q 5691 2819 5691 2113 
L 5691 0 
L 5113 0 
L 5113 2094 
Q 5113 2597 4934 2840 
Q 4756 3084 4391 3084 
Q 3944 3084 3684 2787 
Q 3425 2491 3425 1978 
L 3425 0 
L 2847 0 
L 2847 2094 
Q 2847 2600 2669 2842 
Q 2491 3084 2119 3084 
Q 1678 3084 1418 2786 
Q 1159 2488 1159 1978 
L 1159 0 
L 581 0 
L 581 3500 
L 1159 3500 
L 1159 2956 
Q 1356 3278 1631 3431 
Q 1906 3584 2284 3584 
Q 2666 3584 2933 3390 
Q 3200 3197 3328 2828 
z
" transform="scale(0.015625)"/>
       <path id="DejaVuSans-6c" d="M 603 4863 
L 1178 4863 
L 1178 0 
L 603 0 
L 603 4863 
z
" transform="scale(0.015625)"/>
       <path id="DejaVuSans-75" d="M 544 1381 
L 544 3500 
L 1119 3500 
L 1119 1403 
Q 1119 906 1312 657 
Q 1506 409 1894 409 
Q 2359 409 2629 706 
Q 2900 1003 2900 1516 
L 2900 3500 
L 3475 3500 
L 3475 0 
L 2900 0 
L 2900 538 
Q 2691 219 2414 64 
Q 2138 -91 1772 -91 
Q 1169 -91 856 284 
Q 544 659 544 1381 
z
M 1991 3584 
L 1991 3584 
z
" transform="scale(0.015625)"/>
      </defs>
      <use xlink:href="#DejaVuSans-6d"/>
      <use xlink:href="#DejaVuSans-6f" x="97.412109"/>
      <use xlink:href="#DejaVuSans-6c" x="158.59375"/>
      <use xlink:href="#DejaVuSans-65" x="186.376953"/>
      <use xlink:href="#DejaVuSans-63" x="247.900391"/>
      <use xlink:href="#DejaVuSans-75" x="302.880859"/>
      <use xlink:href="#DejaVuSans-6c" x="366.259766"/>
      <use xlink:href="#DejaVuSans-61" x="394.042969"/>
      <use xlink:href="#DejaVuSans-72" x="455.322266"/>
      <use xlink:href="#DejaVuSans-6c" x="496.435547"/>
      <use xlink:href="#DejaVuSans-79" x="524.21875"/>
     </g>
    </g>
    <g clip-path="url(#pbe997696e8)">
     <!-- interacts with -->
     <g transform="translate(445.617104 188.358281)scale(0.1 -0.1)">
      <defs>
       <path id="DejaVuSans-77" d="M 269 3500 
L 844 3500 
L 1563 769 
L 2278 3500 
L 2956 3500 
L 3675 769 
L 4391 3500 
L 4966 3500 
L 4050 0 
L 3372 0 
L 2619 2869 
L 1863 0 
L 1184 0 
L 269 3500 
z
" transform="scale(0.015625)"/>
       <path id="DejaVuSans-68" d="M 3513 2113 
L 3513 0 
L 2938 0 
L 2938 2094 
Q 2938 2591 2744 2837 
Q 2550 3084 2163 3084 
Q 1697 3084 1428 2787 
Q 1159 2491 1159 1978 
L 1159 0 
L 581 0 
L 581 4863 
L 1159 4863 
L 1159 2956 
Q 1366 3272 1645 3428 
Q 1925 3584 2291 3584 
Q 2894 3584 3203 3211 
Q 3513 2838 3513 2113 
z
" transform="scale(0.015625)"/>
      </defs>
      <use xlink:href="#DejaVuSans-69"/>
      <use xlink:href="#DejaVuSans-6e" x="27.783203"/>
      <use xlink:href="#DejaVuSans-74" x="91.162109"/>
      <use xlink:href="#DejaVuSans-65" x="130.371094"/>
      <use xlink:href="#DejaVuSans-72" x="191.894531"/>
      <use xlink:href="#DejaVuSans-61" x="233.007812"/>
      <use xlink:href="#DejaVuSans-63" x="294.287109"/>
      <use xlink:href="#DejaVuSans-74" x="349.267578"/>
      <use xlink:href="#DejaVuSans-73" x="388.476562"/>
      <use xlink:href="#DejaVuSans-20" x="440.576172"/>
      <use xlink:href="#DejaVuSans-77" x="472.363281"/>
      <use xlink:href="#DejaVuSans-69" x="554.150391"/>
      <use xlink:href="#DejaVuSans-74" x="581.933594"/>
      <use xlink:href="#DejaVuSans-68" x="621.142578"/>
     </g>
    </g>
   </g>
   <g id="text_3">
    <g id="patch_8">
     <path d="M 707.795396 187.839062 
L 751.721959 187.839062 
Q 754.721959 187.839062 754.721959 184.839062 
L 754.721959 175.160937 
Q 754.721959 172.160937 751.721959 172.160937 
L 707.795396 172.160937 
Q 704.795396 172.160937 704.795396 175.160937 
L 704.795396 184.839062 
Q 704.795396 187.839062 707.795396 187.839062 
z
" clip-path="url(#pbe997696e8)" style="fill: #ffffff; stroke: #ffffff; stroke-linejoin: miter"/>
    </g>
    <g clip-path="url(#pbe997696e8)">
     <!-- prevents -->
     <g transform="translate(707.795396 182.759375)scale(0.1 -0.1)">
      <defs>
       <path id="DejaVuSans-70" d="M 1159 525 
L 1159 -1331 
L 581 -1331 
L 581 3500 
L 1159 3500 
L 1159 2969 
Q 1341 3281 1617 3432 
Q 1894 3584 2278 3584 
Q 2916 3584 3314 3078 
Q 3713 2572 3713 1747 
Q 3713 922 3314 415 
Q 2916 -91 2278 -91 
Q 1894 -91 1617 61 
Q 1341 213 1159 525 
z
M 3116 1747 
Q 3116 2381 2855 2742 
Q 2594 3103 2138 3103 
Q 1681 3103 1420 2742 
Q 1159 2381 1159 1747 
Q 1159 1113 1420 752 
Q 1681 391 2138 391 
Q 2594 391 2855 752 
Q 3116 1113 3116 1747 
z
" transform="scale(0.015625)"/>
      </defs>
      <use xlink:href="#DejaVuSans-70"/>
      <use xlink:href="#DejaVuSans-72" x="63.476562"/>
      <use xlink:href="#DejaVuSans-65" x="102.339844"/>
      <use xlink:href="#DejaVuSans-76" x="163.863281"/>
      <use xlink:href="#DejaVuSans-65" x="223.042969"/>
      <use xlink:href="#DejaVuSans-6e" x="284.566406"/>
      <use xlink:href="#DejaVuSans-74" x="347.945312"/>
      <use xlink:href="#DejaVuSans-73" x="387.154297"/>
     </g>
    </g>
   </g>
   <g id="text_4">
    <g id="patch_9">
     <path d="M 944.701033 187.839062 
L 1014.651033 187.839062 
Q 1017.651033 187.839062 1017.651033 184.839062 
L 1017.651033 175.160937 
Q 1017.651033 172.160937 1014.651033 172.160937 
L 944.701033 172.160937 
Q 941.701033 172.160937 941.701033 175.160937 
L 941.701033 184.839062 
Q 941.701033 187.839062 944.701033 187.839062 
z
" clip-path="url(#pbe997696e8)" style="fill: #ffffff; stroke: #ffffff; stroke-linejoin: miter"/>
    </g>
    <g clip-path="url(#pbe997696e8)">
     <!-- contributes to -->
     <g transform="translate(944.701033 182.759375)scale(0.1 -0.1)">
      <defs>
       <path id="DejaVuSans-62" d="M 3116 1747 
Q 3116 2381 2855 2742 
Q 2594 3103 2138 3103 
Q 1681 3103 1420 2742 
Q 1159 2381 1159 1747 
Q 1159 1113 1420 752 
Q 1681 391 2138 391 
Q 2594 391 2855 752 
Q 3116 1113 3116 1747 
z
M 1159 2969 
Q 1341 3281 1617 3432 
Q 1894 3584 2278 3584 
Q 2916 3584 3314 3078 
Q 3713 2572 3713 1747 
Q 3713 922 3314 415 
Q 2916 -91 2278 -91 
Q 1894 -91 1617 61 
Q 1341 213 1159 525 
L 1159 0 
L 581 0 
L 581 4863 
L 1159 4863 
L 1159 2969 
z
" transform="scale(0.015625)"/>
      </defs>
      <use xlink:href="#DejaVuSans-63"/>
      <use xlink:href="#DejaVuSans-6f" x="54.980469"/>
      <use xlink:href="#DejaVuSans-6e" x="116.162109"/>
      <use xlink:href="#DejaVuSans-74" x="179.541016"/>
      <use xlink:href="#DejaVuSans-72" x="218.75"/>
      <use xlink:href="#DejaVuSans-69" x="259.863281"/>
      <use xlink:href="#DejaVuSans-62" x="287.646484"/>
      <use xlink:href="#DejaVuSans-75" x="351.123047"/>
      <use xlink:href="#DejaVuSans-74" x="414.501953"/>
      <use xlink:href="#DejaVuSans-65" x="453.710938"/>
      <use xlink:href="#DejaVuSans-73" x="515.234375"/>
      <use xlink:href="#DejaVuSans-20" x="567.333984"/>
      <use xlink:href="#DejaVuSans-74" x="599.121094"/>
      <use xlink:href="#DejaVuSans-6f" x="638.330078"/>
     </g>
    </g>
   </g>
   <g id="PathCollection_1">
    <defs>
     <path id="C0_0_1f7c318efb" d="M 0 52.440442 
C 13.907368 52.440442 27.246998 46.914987 37.080992 37.080992 
C 46.914987 27.246998 52.440442 13.907368 52.440442 -0 
C 52.440442 -13.907368 46.914987 -27.246998 37.080992 -37.080992 
C 27.246998 -46.914987 13.907368 -52.440442 0 -52.440442 
C -13.907368 -52.440442 -27.246998 -46.914987 -37.080992 -37.080992 
C -46.914987 -27.246998 -52.440442 -13.907368 -52.440442 0 
C -52.440442 13.907368 -46.914987 27.246998 -37.080992 37.080992 
C -27.246998 46.914987 -13.907368 52.440442 0 52.440442 
z
"/>
    </defs>
    <g clip-path="url(#pbe997696e8)">
     <use xlink:href="#C0_0_1f7c318efb" x="104.965289" y="180" style="fill: #01c472; stroke: #01c472"/>
    </g>
    <g clip-path="url(#pbe997696e8)">
     <use xlink:href="#C0_0_1f7c318efb" x="354.882645" y="180" style="fill: #e71761; stroke: #e71761"/>
    </g>
    <g clip-path="url(#pbe997696e8)">
     <use xlink:href="#C0_0_1f7c318efb" x="604.8" y="180" style="fill: #01c472; stroke: #01c472"/>
    </g>
    <g clip-path="url(#pbe997696e8)">
     <use xlink:href="#C0_0_1f7c318efb" x="854.717355" y="180" style="fill: #70c6ca; stroke: #70c6ca"/>
    </g>
    <g clip-path="url(#pbe997696e8)">
     <use xlink:href="#C0_0_1f7c318efb" x="1104.634711" y="180" style="fill: #70c6ca; stroke: #70c6ca"/>
    </g>
   </g>
   <g id="text_5">
    <path d="M 335.151082 159.603937 
L 335.151082 160.130812 
L 330.193582 160.130812 
Q 330.264832 161.244562 330.864832 161.827687 
Q 331.464832 162.410812 332.537332 162.410812 
Q 333.157957 162.410812 333.741082 162.258937 
Q 334.324207 162.107062 334.899832 161.801437 
L 334.899832 162.821437 
Q 334.318582 163.067062 333.709207 163.196437 
Q 333.099832 163.325812 332.473582 163.325812 
Q 330.902332 163.325812 329.985457 162.412687 
Q 329.068582 161.497687 329.068582 159.937687 
Q 329.068582 158.327062 329.938582 157.382062 
Q 330.808582 156.435187 332.286082 156.435187 
Q 333.609832 156.435187 334.380457 157.288312 
Q 335.151082 158.139562 335.151082 159.603937 
z
M 334.072957 159.287062 
Q 334.061707 158.403937 333.577957 157.877062 
Q 333.094207 157.348312 332.297332 157.348312 
Q 331.395457 157.348312 330.853582 157.858312 
Q 330.311707 158.368312 330.229207 159.294562 
L 334.072957 159.287062 
z
M 341.10327 156.785812 
L 341.10327 157.805812 
Q 340.647645 157.571437 340.15452 157.455187 
Q 339.66327 157.337062 339.13452 157.337062 
Q 338.33202 157.337062 337.93077 157.582687 
Q 337.52952 157.828312 337.52952 158.321437 
Q 337.52952 158.696437 337.816395 158.910187 
Q 338.10327 159.123937 338.971395 159.317062 
L 339.34077 159.399562 
Q 340.48827 159.645187 340.97202 160.093312 
Q 341.45577 160.541437 341.45577 161.343937 
Q 341.45577 162.258937 340.73202 162.793312 
Q 340.00827 163.325812 338.742645 163.325812 
Q 338.21577 163.325812 337.643895 163.222687 
Q 337.07202 163.119562 336.440145 162.915187 
L 336.440145 161.801437 
Q 337.03827 162.112687 337.617645 162.268312 
Q 338.19702 162.422062 338.76702 162.422062 
Q 339.52827 162.422062 339.93702 162.161437 
Q 340.347645 161.900812 340.347645 161.426437 
Q 340.347645 160.987687 340.051395 160.753312 
Q 339.75702 160.518937 338.753895 160.301437 
L 338.378895 160.213312 
Q 337.377645 160.003312 336.931395 159.566437 
Q 336.48702 159.129562 336.48702 158.368312 
Q 336.48702 157.442062 337.14327 156.939562 
Q 337.79952 156.435187 339.00702 156.435187 
Q 339.60327 156.435187 340.130145 156.523312 
Q 340.658895 156.609562 341.10327 156.785812 
z
M 344.238973 154.728937 
L 344.238973 156.592687 
L 346.458973 156.592687 
L 346.458973 157.430812 
L 344.238973 157.430812 
L 344.238973 160.993312 
Q 344.238973 161.795812 344.458348 162.024562 
Q 344.677723 162.253312 345.352723 162.253312 
L 346.458973 162.253312 
L 346.458973 163.155187 
L 345.352723 163.155187 
Q 344.103973 163.155187 343.629598 162.690187 
Q 343.155223 162.223312 343.155223 160.993312 
L 343.155223 157.430812 
L 342.363973 157.430812 
L 342.363973 156.592687 
L 343.155223 156.592687 
L 343.155223 154.728937 
L 344.238973 154.728937 
z
M 351.679676 157.599562 
Q 351.497801 157.494562 351.284051 157.445812 
Q 351.070301 157.395187 350.813426 157.395187 
Q 349.898426 157.395187 349.409051 157.989562 
Q 348.919676 158.583937 348.919676 159.697687 
L 348.919676 163.155187 
L 347.835926 163.155187 
L 347.835926 156.592687 
L 348.919676 156.592687 
L 348.919676 157.612687 
Q 349.260926 157.014562 349.804676 156.725812 
Q 350.350301 156.435187 351.130301 156.435187 
Q 351.240926 156.435187 351.375926 156.450187 
Q 351.510926 156.463312 351.674051 156.493312 
L 351.679676 157.599562 
z
M 355.08327 157.348312 
Q 354.21702 157.348312 353.712645 158.025187 
Q 353.20827 158.702062 353.20827 159.879562 
Q 353.20827 161.057062 353.708895 161.733937 
Q 354.211395 162.410812 355.08327 162.410812 
Q 355.94577 162.410812 356.44827 161.732062 
Q 356.952645 161.051437 356.952645 159.879562 
Q 356.952645 158.713312 356.44827 158.030812 
Q 355.94577 157.348312 355.08327 157.348312 
z
M 355.08327 156.435187 
Q 356.48952 156.435187 357.29202 157.350187 
Q 358.096395 158.263312 358.096395 159.879562 
Q 358.096395 161.490187 357.29202 162.408937 
Q 356.48952 163.325812 355.08327 163.325812 
Q 353.671395 163.325812 352.87077 162.408937 
Q 352.07202 161.490187 352.07202 159.879562 
Q 352.07202 158.263312 352.87077 157.350187 
Q 353.671395 156.435187 355.08327 156.435187 
z
M 364.200692 159.797062 
Q 364.200692 158.625187 363.716942 157.982062 
Q 363.235067 157.337062 362.361317 157.337062 
Q 361.495067 157.337062 361.011317 157.982062 
Q 360.527567 158.625187 360.527567 159.797062 
Q 360.527567 160.963312 361.011317 161.608312 
Q 361.495067 162.253312 362.361317 162.253312 
Q 363.235067 162.253312 363.716942 161.608312 
Q 364.200692 160.963312 364.200692 159.797062 
z
M 365.278817 162.341437 
Q 365.278817 164.015812 364.534442 164.833312 
Q 363.791942 165.650812 362.256317 165.650812 
Q 361.688192 165.650812 361.183817 165.566437 
Q 360.679442 165.482062 360.205067 165.305812 
L 360.205067 164.257687 
Q 360.679442 164.514562 361.142567 164.636437 
Q 361.605692 164.760187 362.085692 164.760187 
Q 363.146942 164.760187 363.673817 164.207062 
Q 364.200692 163.653937 364.200692 162.534562 
L 364.200692 162.000187 
Q 363.866942 162.581437 363.345692 162.868312 
Q 362.824442 163.155187 362.096942 163.155187 
Q 360.891317 163.155187 360.152567 162.236437 
Q 359.413817 161.315812 359.413817 159.797062 
Q 359.413817 158.274562 360.152567 157.355812 
Q 360.891317 156.435187 362.096942 156.435187 
Q 362.824442 156.435187 363.345692 156.722062 
Q 363.866942 157.008937 364.200692 157.588312 
L 364.200692 156.592687 
L 365.278817 156.592687 
L 365.278817 162.341437 
z
M 373.113504 159.603937 
L 373.113504 160.130812 
L 368.156004 160.130812 
Q 368.227254 161.244562 368.827254 161.827687 
Q 369.427254 162.410812 370.499754 162.410812 
Q 371.120379 162.410812 371.703504 162.258937 
Q 372.286629 162.107062 372.862254 161.801437 
L 372.862254 162.821437 
Q 372.281004 163.067062 371.671629 163.196437 
Q 371.062254 163.325812 370.436004 163.325812 
Q 368.864754 163.325812 367.947879 162.412687 
Q 367.031004 161.497687 367.031004 159.937687 
Q 367.031004 158.327062 367.901004 157.382062 
Q 368.771004 156.435187 370.248504 156.435187 
Q 371.572254 156.435187 372.342879 157.288312 
Q 373.113504 158.139562 373.113504 159.603937 
z
M 372.035379 159.287062 
Q 372.024129 158.403937 371.540379 157.877062 
Q 371.056629 157.348312 370.259754 157.348312 
Q 369.357879 157.348312 368.816004 157.858312 
Q 368.274129 158.368312 368.191629 159.294562 
L 372.035379 159.287062 
z
M 380.338817 159.193312 
L 380.338817 163.155187 
L 379.260692 163.155187 
L 379.260692 159.228937 
Q 379.260692 158.297062 378.896942 157.835812 
Q 378.533192 157.372687 377.807567 157.372687 
Q 376.933817 157.372687 376.429442 157.929562 
Q 375.925067 158.484562 375.925067 159.446437 
L 375.925067 163.155187 
L 374.841317 163.155187 
L 374.841317 156.592687 
L 375.925067 156.592687 
L 375.925067 157.612687 
Q 376.313192 157.020187 376.836317 156.727687 
Q 377.361317 156.435187 378.047567 156.435187 
Q 379.178192 156.435187 379.757567 157.134562 
Q 380.338817 157.833937 380.338817 159.193312 
z
" clip-path="url(#pbe997696e8)" style="fill: #ffffff; stroke: #000000; stroke-width: 2"/>
    <path d="M 335.151082 159.603937 
L 335.151082 160.130812 
L 330.193582 160.130812 
Q 330.264832 161.244562 330.864832 161.827687 
Q 331.464832 162.410812 332.537332 162.410812 
Q 333.157957 162.410812 333.741082 162.258937 
Q 334.324207 162.107062 334.899832 161.801437 
L 334.899832 162.821437 
Q 334.318582 163.067062 333.709207 163.196437 
Q 333.099832 163.325812 332.473582 163.325812 
Q 330.902332 163.325812 329.985457 162.412687 
Q 329.068582 161.497687 329.068582 159.937687 
Q 329.068582 158.327062 329.938582 157.382062 
Q 330.808582 156.435187 332.286082 156.435187 
Q 333.609832 156.435187 334.380457 157.288312 
Q 335.151082 158.139562 335.151082 159.603937 
z
M 334.072957 159.287062 
Q 334.061707 158.403937 333.577957 157.877062 
Q 333.094207 157.348312 332.297332 157.348312 
Q 331.395457 157.348312 330.853582 157.858312 
Q 330.311707 158.368312 330.229207 159.294562 
L 334.072957 159.287062 
z
M 341.10327 156.785812 
L 341.10327 157.805812 
Q 340.647645 157.571437 340.15452 157.455187 
Q 339.66327 157.337062 339.13452 157.337062 
Q 338.33202 157.337062 337.93077 157.582687 
Q 337.52952 157.828312 337.52952 158.321437 
Q 337.52952 158.696437 337.816395 158.910187 
Q 338.10327 159.123937 338.971395 159.317062 
L 339.34077 159.399562 
Q 340.48827 159.645187 340.97202 160.093312 
Q 341.45577 160.541437 341.45577 161.343937 
Q 341.45577 162.258937 340.73202 162.793312 
Q 340.00827 163.325812 338.742645 163.325812 
Q 338.21577 163.325812 337.643895 163.222687 
Q 337.07202 163.119562 336.440145 162.915187 
L 336.440145 161.801437 
Q 337.03827 162.112687 337.617645 162.268312 
Q 338.19702 162.422062 338.76702 162.422062 
Q 339.52827 162.422062 339.93702 162.161437 
Q 340.347645 161.900812 340.347645 161.426437 
Q 340.347645 160.987687 340.051395 160.753312 
Q 339.75702 160.518937 338.753895 160.301437 
L 338.378895 160.213312 
Q 337.377645 160.003312 336.931395 159.566437 
Q 336.48702 159.129562 336.48702 158.368312 
Q 336.48702 157.442062 337.14327 156.939562 
Q 337.79952 156.435187 339.00702 156.435187 
Q 339.60327 156.435187 340.130145 156.523312 
Q 340.658895 156.609562 341.10327 156.785812 
z
M 344.238973 154.728937 
L 344.238973 156.592687 
L 346.458973 156.592687 
L 346.458973 157.430812 
L 344.238973 157.430812 
L 344.238973 160.993312 
Q 344.238973 161.795812 344.458348 162.024562 
Q 344.677723 162.253312 345.352723 162.253312 
L 346.458973 162.253312 
L 346.458973 163.155187 
L 345.352723 163.155187 
Q 344.103973 163.155187 343.629598 162.690187 
Q 343.155223 162.223312 343.155223 160.993312 
L 343.155223 157.430812 
L 342.363973 157.430812 
L 342.363973 156.592687 
L 343.155223 156.592687 
L 343.155223 154.728937 
L 344.238973 154.728937 
z
M 351.679676 157.599562 
Q 351.497801 157.494562 351.284051 157.445812 
Q 351.070301 157.395187 350.813426 157.395187 
Q 349.898426 157.395187 349.409051 157.989562 
Q 348.919676 158.583937 348.919676 159.697687 
L 348.919676 163.155187 
L 347.835926 163.155187 
L 347.835926 156.592687 
L 348.919676 156.592687 
L 348.919676 157.612687 
Q 349.260926 157.014562 349.804676 156.725812 
Q 350.350301 156.435187 351.130301 156.435187 
Q 351.240926 156.435187 351.375926 156.450187 
Q 351.510926 156.463312 351.674051 156.493312 
L 351.679676 157.599562 
z
M 355.08327 157.348312 
Q 354.21702 157.348312 353.712645 158.025187 
Q 353.20827 158.702062 353.20827 159.879562 
Q 353.20827 161.057062 353.708895 161.733937 
Q 354.211395 162.410812 355.08327 162.410812 
Q 355.94577 162.410812 356.44827 161.732062 
Q 356.952645 161.051437 356.952645 159.879562 
Q 356.952645 158.713312 356.44827 158.030812 
Q 355.94577 157.348312 355.08327 157.348312 
z
M 355.08327 156.435187 
Q 356.48952 156.435187 357.29202 157.350187 
Q 358.096395 158.263312 358.096395 159.879562 
Q 358.096395 161.490187 357.29202 162.408937 
Q 356.48952 163.325812 355.08327 163.325812 
Q 353.671395 163.325812 352.87077 162.408937 
Q 352.07202 161.490187 352.07202 159.879562 
Q 352.07202 158.263312 352.87077 157.350187 
Q 353.671395 156.435187 355.08327 156.435187 
z
M 364.200692 159.797062 
Q 364.200692 158.625187 363.716942 157.982062 
Q 363.235067 157.337062 362.361317 157.337062 
Q 361.495067 157.337062 361.011317 157.982062 
Q 360.527567 158.625187 360.527567 159.797062 
Q 360.527567 160.963312 361.011317 161.608312 
Q 361.495067 162.253312 362.361317 162.253312 
Q 363.235067 162.253312 363.716942 161.608312 
Q 364.200692 160.963312 364.200692 159.797062 
z
M 365.278817 162.341437 
Q 365.278817 164.015812 364.534442 164.833312 
Q 363.791942 165.650812 362.256317 165.650812 
Q 361.688192 165.650812 361.183817 165.566437 
Q 360.679442 165.482062 360.205067 165.305812 
L 360.205067 164.257687 
Q 360.679442 164.514562 361.142567 164.636437 
Q 361.605692 164.760187 362.085692 164.760187 
Q 363.146942 164.760187 363.673817 164.207062 
Q 364.200692 163.653937 364.200692 162.534562 
L 364.200692 162.000187 
Q 363.866942 162.581437 363.345692 162.868312 
Q 362.824442 163.155187 362.096942 163.155187 
Q 360.891317 163.155187 360.152567 162.236437 
Q 359.413817 161.315812 359.413817 159.797062 
Q 359.413817 158.274562 360.152567 157.355812 
Q 360.891317 156.435187 362.096942 156.435187 
Q 362.824442 156.435187 363.345692 156.722062 
Q 363.866942 157.008937 364.200692 157.588312 
L 364.200692 156.592687 
L 365.278817 156.592687 
L 365.278817 162.341437 
z
M 373.113504 159.603937 
L 373.113504 160.130812 
L 368.156004 160.130812 
Q 368.227254 161.244562 368.827254 161.827687 
Q 369.427254 162.410812 370.499754 162.410812 
Q 371.120379 162.410812 371.703504 162.258937 
Q 372.286629 162.107062 372.862254 161.801437 
L 372.862254 162.821437 
Q 372.281004 163.067062 371.671629 163.196437 
Q 371.062254 163.325812 370.436004 163.325812 
Q 368.864754 163.325812 367.947879 162.412687 
Q 367.031004 161.497687 367.031004 159.937687 
Q 367.031004 158.327062 367.901004 157.382062 
Q 368.771004 156.435187 370.248504 156.435187 
Q 371.572254 156.435187 372.342879 157.288312 
Q 373.113504 158.139562 373.113504 159.603937 
z
M 372.035379 159.287062 
Q 372.024129 158.403937 371.540379 157.877062 
Q 371.056629 157.348312 370.259754 157.348312 
Q 369.357879 157.348312 368.816004 157.858312 
Q 368.274129 158.368312 368.191629 159.294562 
L 372.035379 159.287062 
z
M 380.338817 159.193312 
L 380.338817 163.155187 
L 379.260692 163.155187 
L 379.260692 159.228937 
Q 379.260692 158.297062 378.896942 157.835812 
Q 378.533192 157.372687 377.807567 157.372687 
Q 376.933817 157.372687 376.429442 157.929562 
Q 375.925067 158.484562 375.925067 159.446437 
L 375.925067 163.155187 
L 374.841317 163.155187 
L 374.841317 156.592687 
L 375.925067 156.592687 
L 375.925067 157.612687 
Q 376.313192 157.020187 376.836317 156.727687 
Q 377.361317 156.435187 378.047567 156.435187 
Q 379.178192 156.435187 379.757567 157.134562 
Q 380.338817 157.833937 380.338817 159.193312 
z
" clip-path="url(#pbe997696e8)" style="fill: #ffffff"/>
    <path d="M 334.502332 171.036937 
Q 334.320457 170.931937 334.106707 170.883187 
Q 333.892957 170.832562 333.636082 170.832562 
Q 332.721082 170.832562 332.231707 171.426937 
Q 331.742332 172.021312 331.742332 173.135062 
L 331.742332 176.592562 
L 330.658582 176.592562 
L 330.658582 170.030062 
L 331.742332 170.030062 
L 331.742332 171.050062 
Q 332.083582 170.451937 332.627332 170.163187 
Q 333.172957 169.872562 333.952957 169.872562 
Q 334.063582 169.872562 334.198582 169.887562 
Q 334.333582 169.900687 334.496707 169.930687 
L 334.502332 171.036937 
z
M 340.977176 173.041312 
L 340.977176 173.568187 
L 336.019676 173.568187 
Q 336.090926 174.681937 336.690926 175.265062 
Q 337.290926 175.848187 338.363426 175.848187 
Q 338.984051 175.848187 339.567176 175.696312 
Q 340.150301 175.544437 340.725926 175.238812 
L 340.725926 176.258812 
Q 340.144676 176.504437 339.535301 176.633812 
Q 338.925926 176.763187 338.299676 176.763187 
Q 336.728426 176.763187 335.811551 175.850062 
Q 334.894676 174.935062 334.894676 173.375062 
Q 334.894676 171.764437 335.764676 170.819437 
Q 336.634676 169.872562 338.112176 169.872562 
Q 339.435926 169.872562 340.206551 170.725687 
Q 340.977176 171.576937 340.977176 173.041312 
z
M 339.899051 172.724437 
Q 339.887801 171.841312 339.404051 171.314437 
Q 338.920301 170.785687 338.123426 170.785687 
Q 337.221551 170.785687 336.679676 171.295687 
Q 336.137801 171.805687 336.055301 172.731937 
L 339.899051 172.724437 
z
M 347.469363 170.281312 
L 347.469363 171.290062 
Q 347.011863 171.036937 346.552488 170.911312 
Q 346.093113 170.785687 345.624363 170.785687 
Q 344.574363 170.785687 343.993113 171.451312 
Q 343.413738 172.115062 343.413738 173.316937 
Q 343.413738 174.518812 343.993113 175.184437 
Q 344.574363 175.848187 345.624363 175.848187 
Q 346.093113 175.848187 346.552488 175.722562 
Q 347.011863 175.596937 347.469363 175.343812 
L 347.469363 176.341312 
Q 347.017488 176.551312 346.533738 176.656312 
Q 346.051863 176.763187 345.506238 176.763187 
Q 344.023113 176.763187 343.149363 175.831312 
Q 342.277488 174.899437 342.277488 173.316937 
Q 342.277488 171.711937 343.158738 170.793187 
Q 344.041863 169.872562 345.577488 169.872562 
Q 346.074363 169.872562 346.548738 169.975687 
Q 347.023113 170.076937 347.469363 170.281312 
z
M 354.957645 173.041312 
L 354.957645 173.568187 
L 350.000145 173.568187 
Q 350.071395 174.681937 350.671395 175.265062 
Q 351.271395 175.848187 352.343895 175.848187 
Q 352.96452 175.848187 353.547645 175.696312 
Q 354.13077 175.544437 354.706395 175.238812 
L 354.706395 176.258812 
Q 354.125145 176.504437 353.51577 176.633812 
Q 352.906395 176.763187 352.280145 176.763187 
Q 350.708895 176.763187 349.79202 175.850062 
Q 348.875145 174.935062 348.875145 173.375062 
Q 348.875145 171.764437 349.745145 170.819437 
Q 350.615145 169.872562 352.092645 169.872562 
Q 353.416395 169.872562 354.18702 170.725687 
Q 354.957645 171.576937 354.957645 173.041312 
z
M 353.87952 172.724437 
Q 353.86827 171.841312 353.38452 171.314437 
Q 352.90077 170.785687 352.103895 170.785687 
Q 351.20202 170.785687 350.660145 171.295687 
Q 350.11827 171.805687 350.03577 172.731937 
L 353.87952 172.724437 
z
M 357.769207 175.608187 
L 357.769207 179.088187 
L 356.685457 179.088187 
L 356.685457 170.030062 
L 357.769207 170.030062 
L 357.769207 171.025687 
Q 358.110457 170.440687 358.627957 170.157562 
Q 359.147332 169.872562 359.867332 169.872562 
Q 361.063582 169.872562 361.809832 170.821312 
Q 362.557957 171.770062 362.557957 173.316937 
Q 362.557957 174.863812 361.809832 175.814437 
Q 361.063582 176.763187 359.867332 176.763187 
Q 359.147332 176.763187 358.627957 176.478187 
Q 358.110457 176.193187 357.769207 175.608187 
z
M 361.438582 173.316937 
Q 361.438582 172.128187 360.949207 171.451312 
Q 360.459832 170.774437 359.604832 170.774437 
Q 358.747957 170.774437 358.258582 171.451312 
Q 357.769207 172.128187 357.769207 173.316937 
Q 357.769207 174.505687 358.258582 175.182562 
Q 358.747957 175.859437 359.604832 175.859437 
Q 360.459832 175.859437 360.949207 175.182562 
Q 361.438582 174.505687 361.438582 173.316937 
z
M 365.41077 168.166312 
L 365.41077 170.030062 
L 367.63077 170.030062 
L 367.63077 170.868187 
L 365.41077 170.868187 
L 365.41077 174.430687 
Q 365.41077 175.233187 365.630145 175.461937 
Q 365.84952 175.690687 366.52452 175.690687 
L 367.63077 175.690687 
L 367.63077 176.592562 
L 366.52452 176.592562 
Q 365.27577 176.592562 364.801395 176.127562 
Q 364.32702 175.660687 364.32702 174.430687 
L 364.32702 170.868187 
L 363.53577 170.868187 
L 363.53577 170.030062 
L 364.32702 170.030062 
L 364.32702 168.166312 
L 365.41077 168.166312 
z
M 371.591473 170.785687 
Q 370.725223 170.785687 370.220848 171.462562 
Q 369.716473 172.139437 369.716473 173.316937 
Q 369.716473 174.494437 370.217098 175.171312 
Q 370.719598 175.848187 371.591473 175.848187 
Q 372.453973 175.848187 372.956473 175.169437 
Q 373.460848 174.488812 373.460848 173.316937 
Q 373.460848 172.150687 372.956473 171.468187 
Q 372.453973 170.785687 371.591473 170.785687 
z
M 371.591473 169.872562 
Q 372.997723 169.872562 373.800223 170.787562 
Q 374.604598 171.700687 374.604598 173.316937 
Q 374.604598 174.927562 373.800223 175.846312 
Q 372.997723 176.763187 371.591473 176.763187 
Q 370.179598 176.763187 369.378973 175.846312 
Q 368.580223 174.927562 368.580223 173.316937 
Q 368.580223 171.700687 369.378973 170.787562 
Q 370.179598 169.872562 371.591473 169.872562 
z
M 380.19327 171.036937 
Q 380.011395 170.931937 379.797645 170.883187 
Q 379.583895 170.832562 379.32702 170.832562 
Q 378.41202 170.832562 377.922645 171.426937 
Q 377.43327 172.021312 377.43327 173.135062 
L 377.43327 176.592562 
L 376.34952 176.592562 
L 376.34952 170.030062 
L 377.43327 170.030062 
L 377.43327 171.050062 
Q 377.77452 170.451937 378.31827 170.163187 
Q 378.863895 169.872562 379.643895 169.872562 
Q 379.75452 169.872562 379.88952 169.887562 
Q 380.02452 169.900687 380.187645 169.930687 
L 380.19327 171.036937 
z
" clip-path="url(#pbe997696e8)" style="fill: #ffffff; stroke: #000000; stroke-width: 2"/>
    <path d="M 334.502332 171.036937 
Q 334.320457 170.931937 334.106707 170.883187 
Q 333.892957 170.832562 333.636082 170.832562 
Q 332.721082 170.832562 332.231707 171.426937 
Q 331.742332 172.021312 331.742332 173.135062 
L 331.742332 176.592562 
L 330.658582 176.592562 
L 330.658582 170.030062 
L 331.742332 170.030062 
L 331.742332 171.050062 
Q 332.083582 170.451937 332.627332 170.163187 
Q 333.172957 169.872562 333.952957 169.872562 
Q 334.063582 169.872562 334.198582 169.887562 
Q 334.333582 169.900687 334.496707 169.930687 
L 334.502332 171.036937 
z
M 340.977176 173.041312 
L 340.977176 173.568187 
L 336.019676 173.568187 
Q 336.090926 174.681937 336.690926 175.265062 
Q 337.290926 175.848187 338.363426 175.848187 
Q 338.984051 175.848187 339.567176 175.696312 
Q 340.150301 175.544437 340.725926 175.238812 
L 340.725926 176.258812 
Q 340.144676 176.504437 339.535301 176.633812 
Q 338.925926 176.763187 338.299676 176.763187 
Q 336.728426 176.763187 335.811551 175.850062 
Q 334.894676 174.935062 334.894676 173.375062 
Q 334.894676 171.764437 335.764676 170.819437 
Q 336.634676 169.872562 338.112176 169.872562 
Q 339.435926 169.872562 340.206551 170.725687 
Q 340.977176 171.576937 340.977176 173.041312 
z
M 339.899051 172.724437 
Q 339.887801 171.841312 339.404051 171.314437 
Q 338.920301 170.785687 338.123426 170.785687 
Q 337.221551 170.785687 336.679676 171.295687 
Q 336.137801 171.805687 336.055301 172.731937 
L 339.899051 172.724437 
z
M 347.469363 170.281312 
L 347.469363 171.290062 
Q 347.011863 171.036937 346.552488 170.911312 
Q 346.093113 170.785687 345.624363 170.785687 
Q 344.574363 170.785687 343.993113 171.451312 
Q 343.413738 172.115062 343.413738 173.316937 
Q 343.413738 174.518812 343.993113 175.184437 
Q 344.574363 175.848187 345.624363 175.848187 
Q 346.093113 175.848187 346.552488 175.722562 
Q 347.011863 175.596937 347.469363 175.343812 
L 347.469363 176.341312 
Q 347.017488 176.551312 346.533738 176.656312 
Q 346.051863 176.763187 345.506238 176.763187 
Q 344.023113 176.763187 343.149363 175.831312 
Q 342.277488 174.899437 342.277488 173.316937 
Q 342.277488 171.711937 343.158738 170.793187 
Q 344.041863 169.872562 345.577488 169.872562 
Q 346.074363 169.872562 346.548738 169.975687 
Q 347.023113 170.076937 347.469363 170.281312 
z
M 354.957645 173.041312 
L 354.957645 173.568187 
L 350.000145 173.568187 
Q 350.071395 174.681937 350.671395 175.265062 
Q 351.271395 175.848187 352.343895 175.848187 
Q 352.96452 175.848187 353.547645 175.696312 
Q 354.13077 175.544437 354.706395 175.238812 
L 354.706395 176.258812 
Q 354.125145 176.504437 353.51577 176.633812 
Q 352.906395 176.763187 352.280145 176.763187 
Q 350.708895 176.763187 349.79202 175.850062 
Q 348.875145 174.935062 348.875145 173.375062 
Q 348.875145 171.764437 349.745145 170.819437 
Q 350.615145 169.872562 352.092645 169.872562 
Q 353.416395 169.872562 354.18702 170.725687 
Q 354.957645 171.576937 354.957645 173.041312 
z
M 353.87952 172.724437 
Q 353.86827 171.841312 353.38452 171.314437 
Q 352.90077 170.785687 352.103895 170.785687 
Q 351.20202 170.785687 350.660145 171.295687 
Q 350.11827 171.805687 350.03577 172.731937 
L 353.87952 172.724437 
z
M 357.769207 175.608187 
L 357.769207 179.088187 
L 356.685457 179.088187 
L 356.685457 170.030062 
L 357.769207 170.030062 
L 357.769207 171.025687 
Q 358.110457 170.440687 358.627957 170.157562 
Q 359.147332 169.872562 359.867332 169.872562 
Q 361.063582 169.872562 361.809832 170.821312 
Q 362.557957 171.770062 362.557957 173.316937 
Q 362.557957 174.863812 361.809832 175.814437 
Q 361.063582 176.763187 359.867332 176.763187 
Q 359.147332 176.763187 358.627957 176.478187 
Q 358.110457 176.193187 357.769207 175.608187 
z
M 361.438582 173.316937 
Q 361.438582 172.128187 360.949207 171.451312 
Q 360.459832 170.774437 359.604832 170.774437 
Q 358.747957 170.774437 358.258582 171.451312 
Q 357.769207 172.128187 357.769207 173.316937 
Q 357.769207 174.505687 358.258582 175.182562 
Q 358.747957 175.859437 359.604832 175.859437 
Q 360.459832 175.859437 360.949207 175.182562 
Q 361.438582 174.505687 361.438582 173.316937 
z
M 365.41077 168.166312 
L 365.41077 170.030062 
L 367.63077 170.030062 
L 367.63077 170.868187 
L 365.41077 170.868187 
L 365.41077 174.430687 
Q 365.41077 175.233187 365.630145 175.461937 
Q 365.84952 175.690687 366.52452 175.690687 
L 367.63077 175.690687 
L 367.63077 176.592562 
L 366.52452 176.592562 
Q 365.27577 176.592562 364.801395 176.127562 
Q 364.32702 175.660687 364.32702 174.430687 
L 364.32702 170.868187 
L 363.53577 170.868187 
L 363.53577 170.030062 
L 364.32702 170.030062 
L 364.32702 168.166312 
L 365.41077 168.166312 
z
M 371.591473 170.785687 
Q 370.725223 170.785687 370.220848 171.462562 
Q 369.716473 172.139437 369.716473 173.316937 
Q 369.716473 174.494437 370.217098 175.171312 
Q 370.719598 175.848187 371.591473 175.848187 
Q 372.453973 175.848187 372.956473 175.169437 
Q 373.460848 174.488812 373.460848 173.316937 
Q 373.460848 172.150687 372.956473 171.468187 
Q 372.453973 170.785687 371.591473 170.785687 
z
M 371.591473 169.872562 
Q 372.997723 169.872562 373.800223 170.787562 
Q 374.604598 171.700687 374.604598 173.316937 
Q 374.604598 174.927562 373.800223 175.846312 
Q 372.997723 176.763187 371.591473 176.763187 
Q 370.179598 176.763187 369.378973 175.846312 
Q 368.580223 174.927562 368.580223 173.316937 
Q 368.580223 171.700687 369.378973 170.787562 
Q 370.179598 169.872562 371.591473 169.872562 
z
M 380.19327 171.036937 
Q 380.011395 170.931937 379.797645 170.883187 
Q 379.583895 170.832562 379.32702 170.832562 
Q 378.41202 170.832562 377.922645 171.426937 
Q 377.43327 172.021312 377.43327 173.135062 
L 377.43327 176.592562 
L 376.34952 176.592562 
L 376.34952 170.030062 
L 377.43327 170.030062 
L 377.43327 171.050062 
Q 377.77452 170.451937 378.31827 170.163187 
Q 378.863895 169.872562 379.643895 169.872562 
Q 379.75452 169.872562 379.88952 169.887562 
Q 380.02452 169.900687 380.187645 169.930687 
L 380.19327 171.036937 
z
" clip-path="url(#pbe997696e8)" style="fill: #ffffff"/>
    <path d="M 309.470145 181.281187 
L 310.66077 181.281187 
L 310.66077 186.596812 
Q 310.66077 188.003062 311.168895 188.621812 
Q 311.678895 189.238687 312.822645 189.238687 
Q 313.958895 189.238687 314.468895 188.621812 
Q 314.978895 188.003062 314.978895 186.596812 
L 314.978895 181.281187 
L 316.167645 181.281187 
L 316.167645 186.743062 
Q 316.167645 188.453062 315.320145 189.326812 
Q 314.47452 190.200562 312.822645 190.200562 
Q 311.16327 190.200562 310.31577 189.326812 
Q 309.470145 188.453062 309.470145 186.743062 
L 309.470145 181.281187 
z
M 323.797723 186.068062 
L 323.797723 190.029937 
L 322.719598 190.029937 
L 322.719598 186.103687 
Q 322.719598 185.171812 322.355848 184.710562 
Q 321.992098 184.247437 321.266473 184.247437 
Q 320.392723 184.247437 319.888348 184.804312 
Q 319.383973 185.359312 319.383973 186.321187 
L 319.383973 190.029937 
L 318.300223 190.029937 
L 318.300223 183.467437 
L 319.383973 183.467437 
L 319.383973 184.487437 
Q 319.772098 183.894937 320.295223 183.602437 
Q 320.820223 183.309937 321.506473 183.309937 
Q 322.637098 183.309937 323.216473 184.009312 
Q 323.797723 184.708687 323.797723 186.068062 
z
M 325.946942 183.467437 
L 327.025067 183.467437 
L 327.025067 190.029937 
L 325.946942 190.029937 
L 325.946942 183.467437 
z
M 325.946942 180.911812 
L 327.025067 180.911812 
L 327.025067 182.278687 
L 325.946942 182.278687 
L 325.946942 180.911812 
z
M 330.510926 182.254312 
L 330.510926 185.541187 
L 331.999676 185.541187 
Q 332.826551 185.541187 333.276551 185.113687 
Q 333.728426 184.686187 333.728426 183.894937 
Q 333.728426 183.109312 333.276551 182.681812 
Q 332.826551 182.254312 331.999676 182.254312 
L 330.510926 182.254312 
z
M 329.327801 181.281187 
L 331.999676 181.281187 
Q 333.471551 181.281187 334.223426 181.946812 
Q 334.977176 182.612437 334.977176 183.894937 
Q 334.977176 185.190562 334.223426 185.852437 
Q 333.471551 186.514312 331.999676 186.514312 
L 330.510926 186.514312 
L 330.510926 190.029937 
L 329.327801 190.029937 
L 329.327801 181.281187 
z
M 340.109754 184.474312 
Q 339.927879 184.369312 339.714129 184.320562 
Q 339.500379 184.269937 339.243504 184.269937 
Q 338.328504 184.269937 337.839129 184.864312 
Q 337.349754 185.458687 337.349754 186.572437 
L 337.349754 190.029937 
L 336.266004 190.029937 
L 336.266004 183.467437 
L 337.349754 183.467437 
L 337.349754 184.487437 
Q 337.691004 183.889312 338.234754 183.600562 
Q 338.780379 183.309937 339.560379 183.309937 
Q 339.671004 183.309937 339.806004 183.324937 
Q 339.941004 183.338062 340.104129 183.368062 
L 340.109754 184.474312 
z
M 343.513348 184.223062 
Q 342.647098 184.223062 342.142723 184.899937 
Q 341.638348 185.576812 341.638348 186.754312 
Q 341.638348 187.931812 342.138973 188.608687 
Q 342.641473 189.285562 343.513348 189.285562 
Q 344.375848 189.285562 344.878348 188.606812 
Q 345.382723 187.926187 345.382723 186.754312 
Q 345.382723 185.588062 344.878348 184.905562 
Q 344.375848 184.223062 343.513348 184.223062 
z
M 343.513348 183.309937 
Q 344.919598 183.309937 345.722098 184.224937 
Q 346.526473 185.138062 346.526473 186.754312 
Q 346.526473 188.364937 345.722098 189.283687 
Q 344.919598 190.200562 343.513348 190.200562 
Q 342.101473 190.200562 341.300848 189.283687 
Q 340.502098 188.364937 340.502098 186.754312 
Q 340.502098 185.138062 341.300848 184.224937 
Q 342.101473 183.309937 343.513348 183.309937 
z
M 349.37952 181.603687 
L 349.37952 183.467437 
L 351.59952 183.467437 
L 351.59952 184.305562 
L 349.37952 184.305562 
L 349.37952 187.868062 
Q 349.37952 188.670562 349.598895 188.899312 
Q 349.81827 189.128062 350.49327 189.128062 
L 351.59952 189.128062 
L 351.59952 190.029937 
L 350.49327 190.029937 
Q 349.24452 190.029937 348.770145 189.564937 
Q 348.29577 189.098062 348.29577 187.868062 
L 348.29577 184.305562 
L 347.50452 184.305562 
L 347.50452 183.467437 
L 348.29577 183.467437 
L 348.29577 181.603687 
L 349.37952 181.603687 
z
M 353.293348 188.541187 
L 354.528973 188.541187 
L 354.528973 190.029937 
L 353.293348 190.029937 
L 353.293348 188.541187 
z
M 353.293348 183.825562 
L 354.528973 183.825562 
L 354.528973 185.312437 
L 353.293348 185.312437 
L 353.293348 183.825562 
z
M 358.290692 182.254312 
L 358.290692 185.541187 
L 359.779442 185.541187 
Q 360.606317 185.541187 361.056317 185.113687 
Q 361.508192 184.686187 361.508192 183.894937 
Q 361.508192 183.109312 361.056317 182.681812 
Q 360.606317 182.254312 359.779442 182.254312 
L 358.290692 182.254312 
z
M 357.107567 181.281187 
L 359.779442 181.281187 
Q 361.251317 181.281187 362.003192 181.946812 
Q 362.756942 182.612437 362.756942 183.894937 
Q 362.756942 185.190562 362.003192 185.852437 
Q 361.251317 186.514312 359.779442 186.514312 
L 358.290692 186.514312 
L 358.290692 190.029937 
L 357.107567 190.029937 
L 357.107567 181.281187 
z
M 366.980145 182.061187 
Q 366.06702 182.061187 365.60577 182.961187 
Q 365.146395 183.859312 365.146395 185.664937 
Q 365.146395 187.463062 365.60577 188.363062 
Q 366.06702 189.263062 366.980145 189.263062 
Q 367.90077 189.263062 368.360145 188.363062 
Q 368.821395 187.463062 368.821395 185.664937 
Q 368.821395 183.859312 368.360145 182.961187 
Q 367.90077 182.061187 366.980145 182.061187 
z
M 366.980145 181.123687 
Q 368.45202 181.123687 369.22827 182.288062 
Q 370.00452 183.450562 370.00452 185.664937 
Q 370.00452 187.873687 369.22827 189.038062 
Q 368.45202 190.200562 366.980145 190.200562 
Q 365.510145 190.200562 364.733895 189.038062 
Q 363.957645 187.873687 363.957645 185.664937 
Q 363.957645 183.450562 364.733895 182.288062 
Q 365.510145 181.123687 366.980145 181.123687 
z
M 375.670535 185.312437 
Q 376.51991 185.494312 376.99616 186.069937 
Q 377.474285 186.643687 377.474285 187.487437 
Q 377.474285 188.781187 376.58366 189.491812 
Q 375.693035 190.200562 374.05241 190.200562 
Q 373.503035 190.200562 372.91991 190.091812 
Q 372.336785 189.983062 371.71616 189.765562 
L 371.71616 188.623687 
Q 372.20741 188.910562 372.79241 189.056812 
Q 373.379285 189.203062 374.01866 189.203062 
Q 375.130535 189.203062 375.71366 188.764312 
Q 376.296785 188.325562 376.296785 187.487437 
Q 376.296785 186.713062 375.75491 186.278062 
Q 375.213035 185.841187 374.24741 185.841187 
L 373.22741 185.841187 
L 373.22741 184.868062 
L 374.294285 184.868062 
Q 375.16616 184.868062 375.629285 184.519312 
Q 376.09241 184.170562 376.09241 183.514312 
Q 376.09241 182.841187 375.614285 182.481187 
Q 375.138035 182.119312 374.24741 182.119312 
Q 373.75991 182.119312 373.203035 182.226187 
Q 372.64616 182.331187 371.97866 182.552437 
L 371.97866 181.498687 
Q 372.65366 181.311187 373.24241 181.217437 
Q 373.83116 181.123687 374.35241 181.123687 
Q 375.700535 181.123687 376.484285 181.736812 
Q 377.26991 182.348062 377.26991 183.390562 
Q 377.26991 184.118062 376.85366 184.618687 
Q 376.43741 185.119312 375.670535 185.312437 
z
M 383.305301 185.312437 
Q 384.154676 185.494312 384.630926 186.069937 
Q 385.109051 186.643687 385.109051 187.487437 
Q 385.109051 188.781187 384.218426 189.491812 
Q 383.327801 190.200562 381.687176 190.200562 
Q 381.137801 190.200562 380.554676 190.091812 
Q 379.971551 189.983062 379.350926 189.765562 
L 379.350926 188.623687 
Q 379.842176 188.910562 380.427176 189.056812 
Q 381.014051 189.203062 381.653426 189.203062 
Q 382.765301 189.203062 383.348426 188.764312 
Q 383.931551 188.325562 383.931551 187.487437 
Q 383.931551 186.713062 383.389676 186.278062 
Q 382.847801 185.841187 381.882176 185.841187 
L 380.862176 185.841187 
L 380.862176 184.868062 
L 381.929051 184.868062 
Q 382.800926 184.868062 383.264051 184.519312 
Q 383.727176 184.170562 383.727176 183.514312 
Q 383.727176 182.841187 383.249051 182.481187 
Q 382.772801 182.119312 381.882176 182.119312 
Q 381.394676 182.119312 380.837801 182.226187 
Q 380.280926 182.331187 379.613426 182.552437 
L 379.613426 181.498687 
Q 380.288426 181.311187 380.877176 181.217437 
Q 381.465926 181.123687 381.987176 181.123687 
Q 383.335301 181.123687 384.119051 181.736812 
Q 384.904676 182.348062 384.904676 183.390562 
Q 384.904676 184.118062 384.488426 184.618687 
Q 384.072176 185.119312 383.305301 185.312437 
z
M 387.055067 181.281187 
L 392.680067 181.281187 
L 392.680067 181.785562 
L 389.503817 190.029937 
L 388.268192 190.029937 
L 391.256942 182.278687 
L 387.055067 182.278687 
L 387.055067 181.281187 
z
M 396.007957 189.034312 
L 400.138582 189.034312 
L 400.138582 190.029937 
L 394.584832 190.029937 
L 394.584832 189.034312 
Q 395.257957 188.336812 396.420457 187.163062 
Q 397.584832 185.987437 397.882957 185.646187 
Q 398.451082 185.008687 398.676082 184.566187 
Q 398.902957 184.123687 398.902957 183.696187 
Q 398.902957 182.998687 398.413582 182.559937 
Q 397.924207 182.119312 397.138582 182.119312 
Q 396.581707 182.119312 395.962957 182.312437 
Q 395.346082 182.505562 394.642957 182.899312 
L 394.642957 181.703062 
Q 395.357332 181.416187 395.977957 181.269937 
Q 396.600457 181.123687 397.116082 181.123687 
Q 398.475457 181.123687 399.283582 181.804312 
Q 400.091707 182.483062 400.091707 183.619312 
Q 400.091707 184.159312 399.889207 184.643062 
Q 399.688582 185.124937 399.154207 185.781187 
Q 399.007957 185.951812 398.222332 186.763687 
Q 397.438582 187.575562 396.007957 189.034312 
z
" clip-path="url(#pbe997696e8)" style="fill: #ffffff; stroke: #000000; stroke-width: 2"/>
    <path d="M 309.470145 181.281187 
L 310.66077 181.281187 
L 310.66077 186.596812 
Q 310.66077 188.003062 311.168895 188.621812 
Q 311.678895 189.238687 312.822645 189.238687 
Q 313.958895 189.238687 314.468895 188.621812 
Q 314.978895 188.003062 314.978895 186.596812 
L 314.978895 181.281187 
L 316.167645 181.281187 
L 316.167645 186.743062 
Q 316.167645 188.453062 315.320145 189.326812 
Q 314.47452 190.200562 312.822645 190.200562 
Q 311.16327 190.200562 310.31577 189.326812 
Q 309.470145 188.453062 309.470145 186.743062 
L 309.470145 181.281187 
z
M 323.797723 186.068062 
L 323.797723 190.029937 
L 322.719598 190.029937 
L 322.719598 186.103687 
Q 322.719598 185.171812 322.355848 184.710562 
Q 321.992098 184.247437 321.266473 184.247437 
Q 320.392723 184.247437 319.888348 184.804312 
Q 319.383973 185.359312 319.383973 186.321187 
L 319.383973 190.029937 
L 318.300223 190.029937 
L 318.300223 183.467437 
L 319.383973 183.467437 
L 319.383973 184.487437 
Q 319.772098 183.894937 320.295223 183.602437 
Q 320.820223 183.309937 321.506473 183.309937 
Q 322.637098 183.309937 323.216473 184.009312 
Q 323.797723 184.708687 323.797723 186.068062 
z
M 325.946942 183.467437 
L 327.025067 183.467437 
L 327.025067 190.029937 
L 325.946942 190.029937 
L 325.946942 183.467437 
z
M 325.946942 180.911812 
L 327.025067 180.911812 
L 327.025067 182.278687 
L 325.946942 182.278687 
L 325.946942 180.911812 
z
M 330.510926 182.254312 
L 330.510926 185.541187 
L 331.999676 185.541187 
Q 332.826551 185.541187 333.276551 185.113687 
Q 333.728426 184.686187 333.728426 183.894937 
Q 333.728426 183.109312 333.276551 182.681812 
Q 332.826551 182.254312 331.999676 182.254312 
L 330.510926 182.254312 
z
M 329.327801 181.281187 
L 331.999676 181.281187 
Q 333.471551 181.281187 334.223426 181.946812 
Q 334.977176 182.612437 334.977176 183.894937 
Q 334.977176 185.190562 334.223426 185.852437 
Q 333.471551 186.514312 331.999676 186.514312 
L 330.510926 186.514312 
L 330.510926 190.029937 
L 329.327801 190.029937 
L 329.327801 181.281187 
z
M 340.109754 184.474312 
Q 339.927879 184.369312 339.714129 184.320562 
Q 339.500379 184.269937 339.243504 184.269937 
Q 338.328504 184.269937 337.839129 184.864312 
Q 337.349754 185.458687 337.349754 186.572437 
L 337.349754 190.029937 
L 336.266004 190.029937 
L 336.266004 183.467437 
L 337.349754 183.467437 
L 337.349754 184.487437 
Q 337.691004 183.889312 338.234754 183.600562 
Q 338.780379 183.309937 339.560379 183.309937 
Q 339.671004 183.309937 339.806004 183.324937 
Q 339.941004 183.338062 340.104129 183.368062 
L 340.109754 184.474312 
z
M 343.513348 184.223062 
Q 342.647098 184.223062 342.142723 184.899937 
Q 341.638348 185.576812 341.638348 186.754312 
Q 341.638348 187.931812 342.138973 188.608687 
Q 342.641473 189.285562 343.513348 189.285562 
Q 344.375848 189.285562 344.878348 188.606812 
Q 345.382723 187.926187 345.382723 186.754312 
Q 345.382723 185.588062 344.878348 184.905562 
Q 344.375848 184.223062 343.513348 184.223062 
z
M 343.513348 183.309937 
Q 344.919598 183.309937 345.722098 184.224937 
Q 346.526473 185.138062 346.526473 186.754312 
Q 346.526473 188.364937 345.722098 189.283687 
Q 344.919598 190.200562 343.513348 190.200562 
Q 342.101473 190.200562 341.300848 189.283687 
Q 340.502098 188.364937 340.502098 186.754312 
Q 340.502098 185.138062 341.300848 184.224937 
Q 342.101473 183.309937 343.513348 183.309937 
z
M 349.37952 181.603687 
L 349.37952 183.467437 
L 351.59952 183.467437 
L 351.59952 184.305562 
L 349.37952 184.305562 
L 349.37952 187.868062 
Q 349.37952 188.670562 349.598895 188.899312 
Q 349.81827 189.128062 350.49327 189.128062 
L 351.59952 189.128062 
L 351.59952 190.029937 
L 350.49327 190.029937 
Q 349.24452 190.029937 348.770145 189.564937 
Q 348.29577 189.098062 348.29577 187.868062 
L 348.29577 184.305562 
L 347.50452 184.305562 
L 347.50452 183.467437 
L 348.29577 183.467437 
L 348.29577 181.603687 
L 349.37952 181.603687 
z
M 353.293348 188.541187 
L 354.528973 188.541187 
L 354.528973 190.029937 
L 353.293348 190.029937 
L 353.293348 188.541187 
z
M 353.293348 183.825562 
L 354.528973 183.825562 
L 354.528973 185.312437 
L 353.293348 185.312437 
L 353.293348 183.825562 
z
M 358.290692 182.254312 
L 358.290692 185.541187 
L 359.779442 185.541187 
Q 360.606317 185.541187 361.056317 185.113687 
Q 361.508192 184.686187 361.508192 183.894937 
Q 361.508192 183.109312 361.056317 182.681812 
Q 360.606317 182.254312 359.779442 182.254312 
L 358.290692 182.254312 
z
M 357.107567 181.281187 
L 359.779442 181.281187 
Q 361.251317 181.281187 362.003192 181.946812 
Q 362.756942 182.612437 362.756942 183.894937 
Q 362.756942 185.190562 362.003192 185.852437 
Q 361.251317 186.514312 359.779442 186.514312 
L 358.290692 186.514312 
L 358.290692 190.029937 
L 357.107567 190.029937 
L 357.107567 181.281187 
z
M 366.980145 182.061187 
Q 366.06702 182.061187 365.60577 182.961187 
Q 365.146395 183.859312 365.146395 185.664937 
Q 365.146395 187.463062 365.60577 188.363062 
Q 366.06702 189.263062 366.980145 189.263062 
Q 367.90077 189.263062 368.360145 188.363062 
Q 368.821395 187.463062 368.821395 185.664937 
Q 368.821395 183.859312 368.360145 182.961187 
Q 367.90077 182.061187 366.980145 182.061187 
z
M 366.980145 181.123687 
Q 368.45202 181.123687 369.22827 182.288062 
Q 370.00452 183.450562 370.00452 185.664937 
Q 370.00452 187.873687 369.22827 189.038062 
Q 368.45202 190.200562 366.980145 190.200562 
Q 365.510145 190.200562 364.733895 189.038062 
Q 363.957645 187.873687 363.957645 185.664937 
Q 363.957645 183.450562 364.733895 182.288062 
Q 365.510145 181.123687 366.980145 181.123687 
z
M 375.670535 185.312437 
Q 376.51991 185.494312 376.99616 186.069937 
Q 377.474285 186.643687 377.474285 187.487437 
Q 377.474285 188.781187 376.58366 189.491812 
Q 375.693035 190.200562 374.05241 190.200562 
Q 373.503035 190.200562 372.91991 190.091812 
Q 372.336785 189.983062 371.71616 189.765562 
L 371.71616 188.623687 
Q 372.20741 188.910562 372.79241 189.056812 
Q 373.379285 189.203062 374.01866 189.203062 
Q 375.130535 189.203062 375.71366 188.764312 
Q 376.296785 188.325562 376.296785 187.487437 
Q 376.296785 186.713062 375.75491 186.278062 
Q 375.213035 185.841187 374.24741 185.841187 
L 373.22741 185.841187 
L 373.22741 184.868062 
L 374.294285 184.868062 
Q 375.16616 184.868062 375.629285 184.519312 
Q 376.09241 184.170562 376.09241 183.514312 
Q 376.09241 182.841187 375.614285 182.481187 
Q 375.138035 182.119312 374.24741 182.119312 
Q 373.75991 182.119312 373.203035 182.226187 
Q 372.64616 182.331187 371.97866 182.552437 
L 371.97866 181.498687 
Q 372.65366 181.311187 373.24241 181.217437 
Q 373.83116 181.123687 374.35241 181.123687 
Q 375.700535 181.123687 376.484285 181.736812 
Q 377.26991 182.348062 377.26991 183.390562 
Q 377.26991 184.118062 376.85366 184.618687 
Q 376.43741 185.119312 375.670535 185.312437 
z
M 383.305301 185.312437 
Q 384.154676 185.494312 384.630926 186.069937 
Q 385.109051 186.643687 385.109051 187.487437 
Q 385.109051 188.781187 384.218426 189.491812 
Q 383.327801 190.200562 381.687176 190.200562 
Q 381.137801 190.200562 380.554676 190.091812 
Q 379.971551 189.983062 379.350926 189.765562 
L 379.350926 188.623687 
Q 379.842176 188.910562 380.427176 189.056812 
Q 381.014051 189.203062 381.653426 189.203062 
Q 382.765301 189.203062 383.348426 188.764312 
Q 383.931551 188.325562 383.931551 187.487437 
Q 383.931551 186.713062 383.389676 186.278062 
Q 382.847801 185.841187 381.882176 185.841187 
L 380.862176 185.841187 
L 380.862176 184.868062 
L 381.929051 184.868062 
Q 382.800926 184.868062 383.264051 184.519312 
Q 383.727176 184.170562 383.727176 183.514312 
Q 383.727176 182.841187 383.249051 182.481187 
Q 382.772801 182.119312 381.882176 182.119312 
Q 381.394676 182.119312 380.837801 182.226187 
Q 380.280926 182.331187 379.613426 182.552437 
L 379.613426 181.498687 
Q 380.288426 181.311187 380.877176 181.217437 
Q 381.465926 181.123687 381.987176 181.123687 
Q 383.335301 181.123687 384.119051 181.736812 
Q 384.904676 182.348062 384.904676 183.390562 
Q 384.904676 184.118062 384.488426 184.618687 
Q 384.072176 185.119312 383.305301 185.312437 
z
M 387.055067 181.281187 
L 392.680067 181.281187 
L 392.680067 181.785562 
L 389.503817 190.029937 
L 388.268192 190.029937 
L 391.256942 182.278687 
L 387.055067 182.278687 
L 387.055067 181.281187 
z
M 396.007957 189.034312 
L 400.138582 189.034312 
L 400.138582 190.029937 
L 394.584832 190.029937 
L 394.584832 189.034312 
Q 395.257957 188.336812 396.420457 187.163062 
Q 397.584832 185.987437 397.882957 185.646187 
Q 398.451082 185.008687 398.676082 184.566187 
Q 398.902957 184.123687 398.902957 183.696187 
Q 398.902957 182.998687 398.413582 182.559937 
Q 397.924207 182.119312 397.138582 182.119312 
Q 396.581707 182.119312 395.962957 182.312437 
Q 395.346082 182.505562 394.642957 182.899312 
L 394.642957 181.703062 
Q 395.357332 181.416187 395.977957 181.269937 
Q 396.600457 181.123687 397.116082 181.123687 
Q 398.475457 181.123687 399.283582 181.804312 
Q 400.091707 182.483062 400.091707 183.619312 
Q 400.091707 184.159312 399.889207 184.643062 
Q 399.688582 185.124937 399.154207 185.781187 
Q 399.007957 185.951812 398.222332 186.763687 
Q 397.438582 187.575562 396.007957 189.034312 
z
" clip-path="url(#pbe997696e8)" style="fill: #ffffff"/>
    <path d="M 336.214207 195.691687 
L 336.214207 198.978562 
L 337.702957 198.978562 
Q 338.529832 198.978562 338.979832 198.551062 
Q 339.431707 198.123562 339.431707 197.332312 
Q 339.431707 196.546687 338.979832 196.119187 
Q 338.529832 195.691687 337.702957 195.691687 
L 336.214207 195.691687 
z
M 335.031082 194.718562 
L 337.702957 194.718562 
Q 339.174832 194.718562 339.926707 195.384187 
Q 340.680457 196.049812 340.680457 197.332312 
Q 340.680457 198.627937 339.926707 199.289812 
Q 339.174832 199.951687 337.702957 199.951687 
L 336.214207 199.951687 
L 336.214207 203.467312 
L 335.031082 203.467312 
L 335.031082 194.718562 
z
M 345.813035 197.911687 
Q 345.63116 197.806687 345.41741 197.757937 
Q 345.20366 197.707312 344.946785 197.707312 
Q 344.031785 197.707312 343.54241 198.301687 
Q 343.053035 198.896062 343.053035 200.009812 
L 343.053035 203.467312 
L 341.969285 203.467312 
L 341.969285 196.904812 
L 343.053035 196.904812 
L 343.053035 197.924812 
Q 343.394285 197.326687 343.938035 197.037937 
Q 344.48366 196.747312 345.26366 196.747312 
Q 345.374285 196.747312 345.509285 196.762312 
Q 345.644285 196.775437 345.80741 196.805437 
L 345.813035 197.911687 
z
M 349.216629 197.660437 
Q 348.350379 197.660437 347.846004 198.337312 
Q 347.341629 199.014187 347.341629 200.191687 
Q 347.341629 201.369187 347.842254 202.046062 
Q 348.344754 202.722937 349.216629 202.722937 
Q 350.079129 202.722937 350.581629 202.044187 
Q 351.086004 201.363562 351.086004 200.191687 
Q 351.086004 199.025437 350.581629 198.342937 
Q 350.079129 197.660437 349.216629 197.660437 
z
M 349.216629 196.747312 
Q 350.622879 196.747312 351.425379 197.662312 
Q 352.229754 198.575437 352.229754 200.191687 
Q 352.229754 201.802312 351.425379 202.721062 
Q 350.622879 203.637937 349.216629 203.637937 
Q 347.804754 203.637937 347.004129 202.721062 
Q 346.205379 201.802312 346.205379 200.191687 
Q 346.205379 198.575437 347.004129 197.662312 
Q 347.804754 196.747312 349.216629 196.747312 
z
M 355.082801 195.041062 
L 355.082801 196.904812 
L 357.302801 196.904812 
L 357.302801 197.742937 
L 355.082801 197.742937 
L 355.082801 201.305437 
Q 355.082801 202.107937 355.302176 202.336687 
Q 355.521551 202.565437 356.196551 202.565437 
L 357.302801 202.565437 
L 357.302801 203.467312 
L 356.196551 203.467312 
Q 354.947801 203.467312 354.473426 203.002312 
Q 353.999051 202.535437 353.999051 201.305437 
L 353.999051 197.742937 
L 353.207801 197.742937 
L 353.207801 196.904812 
L 353.999051 196.904812 
L 353.999051 195.041062 
L 355.082801 195.041062 
z
M 364.334754 199.916062 
L 364.334754 200.442937 
L 359.377254 200.442937 
Q 359.448504 201.556687 360.048504 202.139812 
Q 360.648504 202.722937 361.721004 202.722937 
Q 362.341629 202.722937 362.924754 202.571062 
Q 363.507879 202.419187 364.083504 202.113562 
L 364.083504 203.133562 
Q 363.502254 203.379187 362.892879 203.508562 
Q 362.283504 203.637937 361.657254 203.637937 
Q 360.086004 203.637937 359.169129 202.724812 
Q 358.252254 201.809812 358.252254 200.249812 
Q 358.252254 198.639187 359.122254 197.694187 
Q 359.992254 196.747312 361.469754 196.747312 
Q 362.793504 196.747312 363.564129 197.600437 
Q 364.334754 198.451687 364.334754 199.916062 
z
M 363.256629 199.599187 
Q 363.245379 198.716062 362.761629 198.189187 
Q 362.277879 197.660437 361.481004 197.660437 
Q 360.579129 197.660437 360.037254 198.170437 
Q 359.495379 198.680437 359.412879 199.606687 
L 363.256629 199.599187 
z
M 366.103817 196.904812 
L 367.181942 196.904812 
L 367.181942 203.467312 
L 366.103817 203.467312 
L 366.103817 196.904812 
z
M 366.103817 194.349187 
L 367.181942 194.349187 
L 367.181942 195.716062 
L 366.103817 195.716062 
L 366.103817 194.349187 
z
M 374.894051 199.505437 
L 374.894051 203.467312 
L 373.815926 203.467312 
L 373.815926 199.541062 
Q 373.815926 198.609187 373.452176 198.147937 
Q 373.088426 197.684812 372.362801 197.684812 
Q 371.489051 197.684812 370.984676 198.241687 
Q 370.480301 198.796687 370.480301 199.758562 
L 370.480301 203.467312 
L 369.396551 203.467312 
L 369.396551 196.904812 
L 370.480301 196.904812 
L 370.480301 197.924812 
Q 370.868426 197.332312 371.391551 197.039812 
Q 371.916551 196.747312 372.602801 196.747312 
Q 373.733426 196.747312 374.312801 197.446687 
Q 374.894051 198.146062 374.894051 199.505437 
z
" clip-path="url(#pbe997696e8)" style="fill: #ffffff; stroke: #000000; stroke-width: 2"/>
    <path d="M 336.214207 195.691687 
L 336.214207 198.978562 
L 337.702957 198.978562 
Q 338.529832 198.978562 338.979832 198.551062 
Q 339.431707 198.123562 339.431707 197.332312 
Q 339.431707 196.546687 338.979832 196.119187 
Q 338.529832 195.691687 337.702957 195.691687 
L 336.214207 195.691687 
z
M 335.031082 194.718562 
L 337.702957 194.718562 
Q 339.174832 194.718562 339.926707 195.384187 
Q 340.680457 196.049812 340.680457 197.332312 
Q 340.680457 198.627937 339.926707 199.289812 
Q 339.174832 199.951687 337.702957 199.951687 
L 336.214207 199.951687 
L 336.214207 203.467312 
L 335.031082 203.467312 
L 335.031082 194.718562 
z
M 345.813035 197.911687 
Q 345.63116 197.806687 345.41741 197.757937 
Q 345.20366 197.707312 344.946785 197.707312 
Q 344.031785 197.707312 343.54241 198.301687 
Q 343.053035 198.896062 343.053035 200.009812 
L 343.053035 203.467312 
L 341.969285 203.467312 
L 341.969285 196.904812 
L 343.053035 196.904812 
L 343.053035 197.924812 
Q 343.394285 197.326687 343.938035 197.037937 
Q 344.48366 196.747312 345.26366 196.747312 
Q 345.374285 196.747312 345.509285 196.762312 
Q 345.644285 196.775437 345.80741 196.805437 
L 345.813035 197.911687 
z
M 349.216629 197.660437 
Q 348.350379 197.660437 347.846004 198.337312 
Q 347.341629 199.014187 347.341629 200.191687 
Q 347.341629 201.369187 347.842254 202.046062 
Q 348.344754 202.722937 349.216629 202.722937 
Q 350.079129 202.722937 350.581629 202.044187 
Q 351.086004 201.363562 351.086004 200.191687 
Q 351.086004 199.025437 350.581629 198.342937 
Q 350.079129 197.660437 349.216629 197.660437 
z
M 349.216629 196.747312 
Q 350.622879 196.747312 351.425379 197.662312 
Q 352.229754 198.575437 352.229754 200.191687 
Q 352.229754 201.802312 351.425379 202.721062 
Q 350.622879 203.637937 349.216629 203.637937 
Q 347.804754 203.637937 347.004129 202.721062 
Q 346.205379 201.802312 346.205379 200.191687 
Q 346.205379 198.575437 347.004129 197.662312 
Q 347.804754 196.747312 349.216629 196.747312 
z
M 355.082801 195.041062 
L 355.082801 196.904812 
L 357.302801 196.904812 
L 357.302801 197.742937 
L 355.082801 197.742937 
L 355.082801 201.305437 
Q 355.082801 202.107937 355.302176 202.336687 
Q 355.521551 202.565437 356.196551 202.565437 
L 357.302801 202.565437 
L 357.302801 203.467312 
L 356.196551 203.467312 
Q 354.947801 203.467312 354.473426 203.002312 
Q 353.999051 202.535437 353.999051 201.305437 
L 353.999051 197.742937 
L 353.207801 197.742937 
L 353.207801 196.904812 
L 353.999051 196.904812 
L 353.999051 195.041062 
L 355.082801 195.041062 
z
M 364.334754 199.916062 
L 364.334754 200.442937 
L 359.377254 200.442937 
Q 359.448504 201.556687 360.048504 202.139812 
Q 360.648504 202.722937 361.721004 202.722937 
Q 362.341629 202.722937 362.924754 202.571062 
Q 363.507879 202.419187 364.083504 202.113562 
L 364.083504 203.133562 
Q 363.502254 203.379187 362.892879 203.508562 
Q 362.283504 203.637937 361.657254 203.637937 
Q 360.086004 203.637937 359.169129 202.724812 
Q 358.252254 201.809812 358.252254 200.249812 
Q 358.252254 198.639187 359.122254 197.694187 
Q 359.992254 196.747312 361.469754 196.747312 
Q 362.793504 196.747312 363.564129 197.600437 
Q 364.334754 198.451687 364.334754 199.916062 
z
M 363.256629 199.599187 
Q 363.245379 198.716062 362.761629 198.189187 
Q 362.277879 197.660437 361.481004 197.660437 
Q 360.579129 197.660437 360.037254 198.170437 
Q 359.495379 198.680437 359.412879 199.606687 
L 363.256629 199.599187 
z
M 366.103817 196.904812 
L 367.181942 196.904812 
L 367.181942 203.467312 
L 366.103817 203.467312 
L 366.103817 196.904812 
z
M 366.103817 194.349187 
L 367.181942 194.349187 
L 367.181942 195.716062 
L 366.103817 195.716062 
L 366.103817 194.349187 
z
M 374.894051 199.505437 
L 374.894051 203.467312 
L 373.815926 203.467312 
L 373.815926 199.541062 
Q 373.815926 198.609187 373.452176 198.147937 
Q 373.088426 197.684812 372.362801 197.684812 
Q 371.489051 197.684812 370.984676 198.241687 
Q 370.480301 198.796687 370.480301 199.758562 
L 370.480301 203.467312 
L 369.396551 203.467312 
L 369.396551 196.904812 
L 370.480301 196.904812 
L 370.480301 197.924812 
Q 370.868426 197.332312 371.391551 197.039812 
Q 371.916551 196.747312 372.602801 196.747312 
Q 373.733426 196.747312 374.312801 197.446687 
Q 374.894051 198.146062 374.894051 199.505437 
z
" clip-path="url(#pbe997696e8)" style="fill: #ffffff"/>
   </g>
   <g id="text_6">
    <g clip-path="url(#pbe997696e8)">
     <!-- ospemifene -->
     <g transform="translate(69.857789 169.873875)scale(0.12 -0.12)">
      <use xlink:href="#DejaVuSans-6f"/>
      <use xlink:href="#DejaVuSans-73" x="61.181641"/>
      <use xlink:href="#DejaVuSans-70" x="113.28125"/>
      <use xlink:href="#DejaVuSans-65" x="176.757812"/>
      <use xlink:href="#DejaVuSans-6d" x="238.28125"/>
      <use xlink:href="#DejaVuSans-69" x="335.693359"/>
      <use xlink:href="#DejaVuSans-66" x="363.476562"/>
      <use xlink:href="#DejaVuSans-65" x="398.681641"/>
      <use xlink:href="#DejaVuSans-6e" x="460.205078"/>
      <use xlink:href="#DejaVuSans-65" x="523.583984"/>
     </g>
    </g>
    <g clip-path="url(#pbe997696e8)">
     <!-- MESH:C119141 -->
     <g transform="translate(58.559977 183.31125)scale(0.12 -0.12)">
      <defs>
       <path id="DejaVuSans-4d" d="M 628 4666 
L 1569 4666 
L 2759 1491 
L 3956 4666 
L 4897 4666 
L 4897 0 
L 4281 0 
L 4281 4097 
L 3078 897 
L 2444 897 
L 1241 4097 
L 1241 0 
L 628 0 
L 628 4666 
z
" transform="scale(0.015625)"/>
       <path id="DejaVuSans-45" d="M 628 4666 
L 3578 4666 
L 3578 4134 
L 1259 4134 
L 1259 2753 
L 3481 2753 
L 3481 2222 
L 1259 2222 
L 1259 531 
L 3634 531 
L 3634 0 
L 628 0 
L 628 4666 
z
" transform="scale(0.015625)"/>
       <path id="DejaVuSans-53" d="M 3425 4513 
L 3425 3897 
Q 3066 4069 2747 4153 
Q 2428 4238 2131 4238 
Q 1616 4238 1336 4038 
Q 1056 3838 1056 3469 
Q 1056 3159 1242 3001 
Q 1428 2844 1947 2747 
L 2328 2669 
Q 3034 2534 3370 2195 
Q 3706 1856 3706 1288 
Q 3706 609 3251 259 
Q 2797 -91 1919 -91 
Q 1588 -91 1214 -16 
Q 841 59 441 206 
L 441 856 
Q 825 641 1194 531 
Q 1563 422 1919 422 
Q 2459 422 2753 634 
Q 3047 847 3047 1241 
Q 3047 1584 2836 1778 
Q 2625 1972 2144 2069 
L 1759 2144 
Q 1053 2284 737 2584 
Q 422 2884 422 3419 
Q 422 4038 858 4394 
Q 1294 4750 2059 4750 
Q 2388 4750 2728 4690 
Q 3069 4631 3425 4513 
z
" transform="scale(0.015625)"/>
       <path id="DejaVuSans-48" d="M 628 4666 
L 1259 4666 
L 1259 2753 
L 3553 2753 
L 3553 4666 
L 4184 4666 
L 4184 0 
L 3553 0 
L 3553 2222 
L 1259 2222 
L 1259 0 
L 628 0 
L 628 4666 
z
" transform="scale(0.015625)"/>
       <path id="DejaVuSans-3a" d="M 750 794 
L 1409 794 
L 1409 0 
L 750 0 
L 750 794 
z
M 750 3309 
L 1409 3309 
L 1409 2516 
L 750 2516 
L 750 3309 
z
" transform="scale(0.015625)"/>
       <path id="DejaVuSans-43" d="M 4122 4306 
L 4122 3641 
Q 3803 3938 3442 4084 
Q 3081 4231 2675 4231 
Q 1875 4231 1450 3742 
Q 1025 3253 1025 2328 
Q 1025 1406 1450 917 
Q 1875 428 2675 428 
Q 3081 428 3442 575 
Q 3803 722 4122 1019 
L 4122 359 
Q 3791 134 3420 21 
Q 3050 -91 2638 -91 
Q 1578 -91 968 557 
Q 359 1206 359 2328 
Q 359 3453 968 4101 
Q 1578 4750 2638 4750 
Q 3056 4750 3426 4639 
Q 3797 4528 4122 4306 
z
" transform="scale(0.015625)"/>
       <path id="DejaVuSans-31" d="M 794 531 
L 1825 531 
L 1825 4091 
L 703 3866 
L 703 4441 
L 1819 4666 
L 2450 4666 
L 2450 531 
L 3481 531 
L 3481 0 
L 794 0 
L 794 531 
z
" transform="scale(0.015625)"/>
       <path id="DejaVuSans-39" d="M 703 97 
L 703 672 
Q 941 559 1184 500 
Q 1428 441 1663 441 
Q 2288 441 2617 861 
Q 2947 1281 2994 2138 
Q 2813 1869 2534 1725 
Q 2256 1581 1919 1581 
Q 1219 1581 811 2004 
Q 403 2428 403 3163 
Q 403 3881 828 4315 
Q 1253 4750 1959 4750 
Q 2769 4750 3195 4129 
Q 3622 3509 3622 2328 
Q 3622 1225 3098 567 
Q 2575 -91 1691 -91 
Q 1453 -91 1209 -44 
Q 966 3 703 97 
z
M 1959 2075 
Q 2384 2075 2632 2365 
Q 2881 2656 2881 3163 
Q 2881 3666 2632 3958 
Q 2384 4250 1959 4250 
Q 1534 4250 1286 3958 
Q 1038 3666 1038 3163 
Q 1038 2656 1286 2365 
Q 1534 2075 1959 2075 
z
" transform="scale(0.015625)"/>
       <path id="DejaVuSans-34" d="M 2419 4116 
L 825 1625 
L 2419 1625 
L 2419 4116 
z
M 2253 4666 
L 3047 4666 
L 3047 1625 
L 3713 1625 
L 3713 1100 
L 3047 1100 
L 3047 0 
L 2419 0 
L 2419 1100 
L 313 1100 
L 313 1709 
L 2253 4666 
z
" transform="scale(0.015625)"/>
      </defs>
      <use xlink:href="#DejaVuSans-4d"/>
      <use xlink:href="#DejaVuSans-45" x="86.279297"/>
      <use xlink:href="#DejaVuSans-53" x="149.462891"/>
      <use xlink:href="#DejaVuSans-48" x="212.939453"/>
      <use xlink:href="#DejaVuSans-3a" x="288.134766"/>
      <use xlink:href="#DejaVuSans-43" x="321.826172"/>
      <use xlink:href="#DejaVuSans-31" x="391.650391"/>
      <use xlink:href="#DejaVuSans-31" x="455.273438"/>
      <use xlink:href="#DejaVuSans-39" x="518.896484"/>
      <use xlink:href="#DejaVuSans-31" x="582.519531"/>
      <use xlink:href="#DejaVuSans-34" x="646.142578"/>
      <use xlink:href="#DejaVuSans-31" x="709.765625"/>
     </g>
    </g>
    <g clip-path="url(#pbe997696e8)">
     <!-- Drug -->
     <g transform="translate(90.267164 196.748625)scale(0.12 -0.12)">
      <defs>
       <path id="DejaVuSans-44" d="M 1259 4147 
L 1259 519 
L 2022 519 
Q 2988 519 3436 956 
Q 3884 1394 3884 2338 
Q 3884 3275 3436 3711 
Q 2988 4147 2022 4147 
L 1259 4147 
z
M 628 4666 
L 1925 4666 
Q 3281 4666 3915 4102 
Q 4550 3538 4550 2338 
Q 4550 1131 3912 565 
Q 3275 0 1925 0 
L 628 0 
L 628 4666 
z
" transform="scale(0.015625)"/>
       <path id="DejaVuSans-67" d="M 2906 1791 
Q 2906 2416 2648 2759 
Q 2391 3103 1925 3103 
Q 1463 3103 1205 2759 
Q 947 2416 947 1791 
Q 947 1169 1205 825 
Q 1463 481 1925 481 
Q 2391 481 2648 825 
Q 2906 1169 2906 1791 
z
M 3481 434 
Q 3481 -459 3084 -895 
Q 2688 -1331 1869 -1331 
Q 1566 -1331 1297 -1286 
Q 1028 -1241 775 -1147 
L 775 -588 
Q 1028 -725 1275 -790 
Q 1522 -856 1778 -856 
Q 2344 -856 2625 -561 
Q 2906 -266 2906 331 
L 2906 616 
Q 2728 306 2450 153 
Q 2172 0 1784 0 
Q 1141 0 747 490 
Q 353 981 353 1791 
Q 353 2603 747 3093 
Q 1141 3584 1784 3584 
Q 2172 3584 2450 3431 
Q 2728 3278 2906 2969 
L 2906 3500 
L 3481 3500 
L 3481 434 
z
" transform="scale(0.015625)"/>
      </defs>
      <use xlink:href="#DejaVuSans-44"/>
      <use xlink:href="#DejaVuSans-72" x="77.001953"/>
      <use xlink:href="#DejaVuSans-75" x="118.115234"/>
      <use xlink:href="#DejaVuSans-67" x="181.494141"/>
     </g>
    </g>
   </g>
   <g id="text_7">
    <g clip-path="url(#pbe997696e8)">
     <!-- estrogen -->
     <g transform="translate(578.324062 169.873875)scale(0.12 -0.12)">
      <use xlink:href="#DejaVuSans-65"/>
      <use xlink:href="#DejaVuSans-73" x="61.523438"/>
      <use xlink:href="#DejaVuSans-74" x="113.623047"/>
      <use xlink:href="#DejaVuSans-72" x="152.832031"/>
      <use xlink:href="#DejaVuSans-6f" x="191.695312"/>
      <use xlink:href="#DejaVuSans-67" x="252.876953"/>
      <use xlink:href="#DejaVuSans-65" x="316.353516"/>
      <use xlink:href="#DejaVuSans-6e" x="377.876953"/>
     </g>
    </g>
    <g clip-path="url(#pbe997696e8)">
     <!-- MESH:D004967 -->
     <g transform="translate(557.964375 183.31125)scale(0.12 -0.12)">
      <defs>
       <path id="DejaVuSans-30" d="M 2034 4250 
Q 1547 4250 1301 3770 
Q 1056 3291 1056 2328 
Q 1056 1369 1301 889 
Q 1547 409 2034 409 
Q 2525 409 2770 889 
Q 3016 1369 3016 2328 
Q 3016 3291 2770 3770 
Q 2525 4250 2034 4250 
z
M 2034 4750 
Q 2819 4750 3233 4129 
Q 3647 3509 3647 2328 
Q 3647 1150 3233 529 
Q 2819 -91 2034 -91 
Q 1250 -91 836 529 
Q 422 1150 422 2328 
Q 422 3509 836 4129 
Q 1250 4750 2034 4750 
z
" transform="scale(0.015625)"/>
       <path id="DejaVuSans-36" d="M 2113 2584 
Q 1688 2584 1439 2293 
Q 1191 2003 1191 1497 
Q 1191 994 1439 701 
Q 1688 409 2113 409 
Q 2538 409 2786 701 
Q 3034 994 3034 1497 
Q 3034 2003 2786 2293 
Q 2538 2584 2113 2584 
z
M 3366 4563 
L 3366 3988 
Q 3128 4100 2886 4159 
Q 2644 4219 2406 4219 
Q 1781 4219 1451 3797 
Q 1122 3375 1075 2522 
Q 1259 2794 1537 2939 
Q 1816 3084 2150 3084 
Q 2853 3084 3261 2657 
Q 3669 2231 3669 1497 
Q 3669 778 3244 343 
Q 2819 -91 2113 -91 
Q 1303 -91 875 529 
Q 447 1150 447 2328 
Q 447 3434 972 4092 
Q 1497 4750 2381 4750 
Q 2619 4750 2861 4703 
Q 3103 4656 3366 4563 
z
" transform="scale(0.015625)"/>
       <path id="DejaVuSans-37" d="M 525 4666 
L 3525 4666 
L 3525 4397 
L 1831 0 
L 1172 0 
L 2766 4134 
L 525 4134 
L 525 4666 
z
" transform="scale(0.015625)"/>
      </defs>
      <use xlink:href="#DejaVuSans-4d"/>
      <use xlink:href="#DejaVuSans-45" x="86.279297"/>
      <use xlink:href="#DejaVuSans-53" x="149.462891"/>
      <use xlink:href="#DejaVuSans-48" x="212.939453"/>
      <use xlink:href="#DejaVuSans-3a" x="288.134766"/>
      <use xlink:href="#DejaVuSans-44" x="321.826172"/>
      <use xlink:href="#DejaVuSans-30" x="398.828125"/>
      <use xlink:href="#DejaVuSans-30" x="462.451172"/>
      <use xlink:href="#DejaVuSans-34" x="526.074219"/>
      <use xlink:href="#DejaVuSans-39" x="589.697266"/>
      <use xlink:href="#DejaVuSans-36" x="653.320312"/>
      <use xlink:href="#DejaVuSans-37" x="716.943359"/>
     </g>
    </g>
    <g clip-path="url(#pbe997696e8)">
     <!-- ChemicalSubstance -->
     <g transform="translate(545.593125 196.748625)scale(0.12 -0.12)">
      <use xlink:href="#DejaVuSans-43"/>
      <use xlink:href="#DejaVuSans-68" x="69.824219"/>
      <use xlink:href="#DejaVuSans-65" x="133.203125"/>
      <use xlink:href="#DejaVuSans-6d" x="194.726562"/>
      <use xlink:href="#DejaVuSans-69" x="292.138672"/>
      <use xlink:href="#DejaVuSans-63" x="319.921875"/>
      <use xlink:href="#DejaVuSans-61" x="374.902344"/>
      <use xlink:href="#DejaVuSans-6c" x="436.181641"/>
      <use xlink:href="#DejaVuSans-53" x="463.964844"/>
      <use xlink:href="#DejaVuSans-75" x="527.441406"/>
      <use xlink:href="#DejaVuSans-62" x="590.820312"/>
      <use xlink:href="#DejaVuSans-73" x="654.296875"/>
      <use xlink:href="#DejaVuSans-74" x="706.396484"/>
      <use xlink:href="#DejaVuSans-61" x="745.605469"/>
      <use xlink:href="#DejaVuSans-6e" x="806.884766"/>
      <use xlink:href="#DejaVuSans-63" x="870.263672"/>
      <use xlink:href="#DejaVuSans-65" x="925.244141"/>
     </g>
    </g>
   </g>
   <g id="text_8">
    <g clip-path="url(#pbe997696e8)">
     <!-- postmenopausal -->
     <g transform="translate(804.991418 156.4365)scale(0.12 -0.12)">
      <use xlink:href="#DejaVuSans-70"/>
      <use xlink:href="#DejaVuSans-6f" x="63.476562"/>
      <use xlink:href="#DejaVuSans-73" x="124.658203"/>
      <use xlink:href="#DejaVuSans-74" x="176.757812"/>
      <use xlink:href="#DejaVuSans-6d" x="215.966797"/>
      <use xlink:href="#DejaVuSans-65" x="313.378906"/>
      <use xlink:href="#DejaVuSans-6e" x="374.902344"/>
      <use xlink:href="#DejaVuSans-6f" x="438.28125"/>
      <use xlink:href="#DejaVuSans-70" x="499.462891"/>
      <use xlink:href="#DejaVuSans-61" x="562.939453"/>
      <use xlink:href="#DejaVuSans-75" x="624.21875"/>
      <use xlink:href="#DejaVuSans-73" x="687.597656"/>
      <use xlink:href="#DejaVuSans-61" x="739.697266"/>
      <use xlink:href="#DejaVuSans-6c" x="800.976562"/>
     </g>
    </g>
    <g clip-path="url(#pbe997696e8)">
     <!-- atrophic -->
     <g transform="translate(830.10798 169.873875)scale(0.12 -0.12)">
      <use xlink:href="#DejaVuSans-61"/>
      <use xlink:href="#DejaVuSans-74" x="61.279297"/>
      <use xlink:href="#DejaVuSans-72" x="100.488281"/>
      <use xlink:href="#DejaVuSans-6f" x="139.351562"/>
      <use xlink:href="#DejaVuSans-70" x="200.533203"/>
      <use xlink:href="#DejaVuSans-68" x="264.009766"/>
      <use xlink:href="#DejaVuSans-69" x="327.388672"/>
      <use xlink:href="#DejaVuSans-63" x="355.171875"/>
     </g>
    </g>
    <g clip-path="url(#pbe997696e8)">
     <!-- vaginitis -->
     <g transform="translate(829.39923 183.31125)scale(0.12 -0.12)">
      <use xlink:href="#DejaVuSans-76"/>
      <use xlink:href="#DejaVuSans-61" x="59.179688"/>
      <use xlink:href="#DejaVuSans-67" x="120.458984"/>
      <use xlink:href="#DejaVuSans-69" x="183.935547"/>
      <use xlink:href="#DejaVuSans-6e" x="211.71875"/>
      <use xlink:href="#DejaVuSans-69" x="275.097656"/>
      <use xlink:href="#DejaVuSans-74" x="302.880859"/>
      <use xlink:href="#DejaVuSans-69" x="342.089844"/>
      <use xlink:href="#DejaVuSans-73" x="369.873047"/>
     </g>
    </g>
    <g clip-path="url(#pbe997696e8)">
     <!-- MESH:D059268 -->
     <g transform="translate(807.88173 196.748625)scale(0.12 -0.12)">
      <defs>
       <path id="DejaVuSans-35" d="M 691 4666 
L 3169 4666 
L 3169 4134 
L 1269 4134 
L 1269 2991 
Q 1406 3038 1543 3061 
Q 1681 3084 1819 3084 
Q 2600 3084 3056 2656 
Q 3513 2228 3513 1497 
Q 3513 744 3044 326 
Q 2575 -91 1722 -91 
Q 1428 -91 1123 -41 
Q 819 9 494 109 
L 494 744 
Q 775 591 1075 516 
Q 1375 441 1709 441 
Q 2250 441 2565 725 
Q 2881 1009 2881 1497 
Q 2881 1984 2565 2268 
Q 2250 2553 1709 2553 
Q 1456 2553 1204 2497 
Q 953 2441 691 2322 
L 691 4666 
z
" transform="scale(0.015625)"/>
       <path id="DejaVuSans-32" d="M 1228 531 
L 3431 531 
L 3431 0 
L 469 0 
L 469 531 
Q 828 903 1448 1529 
Q 2069 2156 2228 2338 
Q 2531 2678 2651 2914 
Q 2772 3150 2772 3378 
Q 2772 3750 2511 3984 
Q 2250 4219 1831 4219 
Q 1534 4219 1204 4116 
Q 875 4013 500 3803 
L 500 4441 
Q 881 4594 1212 4672 
Q 1544 4750 1819 4750 
Q 2544 4750 2975 4387 
Q 3406 4025 3406 3419 
Q 3406 3131 3298 2873 
Q 3191 2616 2906 2266 
Q 2828 2175 2409 1742 
Q 1991 1309 1228 531 
z
" transform="scale(0.015625)"/>
       <path id="DejaVuSans-38" d="M 2034 2216 
Q 1584 2216 1326 1975 
Q 1069 1734 1069 1313 
Q 1069 891 1326 650 
Q 1584 409 2034 409 
Q 2484 409 2743 651 
Q 3003 894 3003 1313 
Q 3003 1734 2745 1975 
Q 2488 2216 2034 2216 
z
M 1403 2484 
Q 997 2584 770 2862 
Q 544 3141 544 3541 
Q 544 4100 942 4425 
Q 1341 4750 2034 4750 
Q 2731 4750 3128 4425 
Q 3525 4100 3525 3541 
Q 3525 3141 3298 2862 
Q 3072 2584 2669 2484 
Q 3125 2378 3379 2068 
Q 3634 1759 3634 1313 
Q 3634 634 3220 271 
Q 2806 -91 2034 -91 
Q 1263 -91 848 271 
Q 434 634 434 1313 
Q 434 1759 690 2068 
Q 947 2378 1403 2484 
z
M 1172 3481 
Q 1172 3119 1398 2916 
Q 1625 2713 2034 2713 
Q 2441 2713 2670 2916 
Q 2900 3119 2900 3481 
Q 2900 3844 2670 4047 
Q 2441 4250 2034 4250 
Q 1625 4250 1398 4047 
Q 1172 3844 1172 3481 
z
" transform="scale(0.015625)"/>
      </defs>
      <use xlink:href="#DejaVuSans-4d"/>
      <use xlink:href="#DejaVuSans-45" x="86.279297"/>
      <use xlink:href="#DejaVuSans-53" x="149.462891"/>
      <use xlink:href="#DejaVuSans-48" x="212.939453"/>
      <use xlink:href="#DejaVuSans-3a" x="288.134766"/>
      <use xlink:href="#DejaVuSans-44" x="321.826172"/>
      <use xlink:href="#DejaVuSans-30" x="398.828125"/>
      <use xlink:href="#DejaVuSans-35" x="462.451172"/>
      <use xlink:href="#DejaVuSans-39" x="526.074219"/>
      <use xlink:href="#DejaVuSans-32" x="589.697266"/>
      <use xlink:href="#DejaVuSans-36" x="653.320312"/>
      <use xlink:href="#DejaVuSans-38" x="716.943359"/>
     </g>
    </g>
    <g clip-path="url(#pbe997696e8)">
     <!-- Disease -->
     <g transform="translate(831.118605 210.186)scale(0.12 -0.12)">
      <use xlink:href="#DejaVuSans-44"/>
      <use xlink:href="#DejaVuSans-69" x="77.001953"/>
      <use xlink:href="#DejaVuSans-73" x="104.785156"/>
      <use xlink:href="#DejaVuSans-65" x="156.884766"/>
      <use xlink:href="#DejaVuSans-61" x="218.408203"/>
      <use xlink:href="#DejaVuSans-73" x="279.6875"/>
      <use xlink:href="#DejaVuSans-65" x="331.787109"/>
     </g>
    </g>
   </g>
   <g id="text_9">
    <g clip-path="url(#pbe997696e8)">
     <!-- Dyspareunia -->
     <g transform="translate(1066.879711 169.873875)scale(0.12 -0.12)">
      <use xlink:href="#DejaVuSans-44"/>
      <use xlink:href="#DejaVuSans-79" x="77.001953"/>
      <use xlink:href="#DejaVuSans-73" x="136.181641"/>
      <use xlink:href="#DejaVuSans-70" x="188.28125"/>
      <use xlink:href="#DejaVuSans-61" x="251.757812"/>
      <use xlink:href="#DejaVuSans-72" x="313.037109"/>
      <use xlink:href="#DejaVuSans-65" x="351.900391"/>
      <use xlink:href="#DejaVuSans-75" x="413.423828"/>
      <use xlink:href="#DejaVuSans-6e" x="476.802734"/>
      <use xlink:href="#DejaVuSans-69" x="540.181641"/>
      <use xlink:href="#DejaVuSans-61" x="567.964844"/>
     </g>
    </g>
    <g clip-path="url(#pbe997696e8)">
     <!-- MESH:D004414 -->
     <g transform="translate(1057.799086 183.31125)scale(0.12 -0.12)">
      <use xlink:href="#DejaVuSans-4d"/>
      <use xlink:href="#DejaVuSans-45" x="86.279297"/>
      <use xlink:href="#DejaVuSans-53" x="149.462891"/>
      <use xlink:href="#DejaVuSans-48" x="212.939453"/>
      <use xlink:href="#DejaVuSans-3a" x="288.134766"/>
      <use xlink:href="#DejaVuSans-44" x="321.826172"/>
      <use xlink:href="#DejaVuSans-30" x="398.828125"/>
      <use xlink:href="#DejaVuSans-30" x="462.451172"/>
      <use xlink:href="#DejaVuSans-34" x="526.074219"/>
      <use xlink:href="#DejaVuSans-34" x="589.697266"/>
      <use xlink:href="#DejaVuSans-31" x="653.320312"/>
      <use xlink:href="#DejaVuSans-34" x="716.943359"/>
     </g>
    </g>
    <g clip-path="url(#pbe997696e8)">
     <!-- Disease -->
     <g transform="translate(1081.035961 196.748625)scale(0.12 -0.12)">
      <use xlink:href="#DejaVuSans-44"/>
      <use xlink:href="#DejaVuSans-69" x="77.001953"/>
      <use xlink:href="#DejaVuSans-73" x="104.785156"/>
      <use xlink:href="#DejaVuSans-65" x="156.884766"/>
      <use xlink:href="#DejaVuSans-61" x="218.408203"/>
      <use xlink:href="#DejaVuSans-73" x="279.6875"/>
      <use xlink:href="#DejaVuSans-65" x="331.787109"/>
     </g>
    </g>
   </g>
  </g>
 </g>
 <defs>
  <clipPath id="pbe997696e8">
   <rect x="0" y="0" width="1209.6" height="360"/>
  </clipPath>
 </defs>
</svg>
