<?xml version="1.0" encoding="utf-8" standalone="no"?>
<!DOCTYPE svg PUBLIC "-//W3C//DTD SVG 1.1//EN"
  "http://www.w3.org/Graphics/SVG/1.1/DTD/svg11.dtd">
<svg xmlns:xlink="http://www.w3.org/1999/xlink" width="1036.8pt" height="360pt" viewBox="0 0 1036.8 360" xmlns="http://www.w3.org/2000/svg" version="1.1">
 <metadata>
  <rdf:RDF xmlns:dc="http://purl.org/dc/elements/1.1/" xmlns:cc="http://creativecommons.org/ns#" xmlns:rdf="http://www.w3.org/1999/02/22-rdf-syntax-ns#">
   <cc:Work>
    <dc:type rdf:resource="http://purl.org/dc/dcmitype/StillImage"/>
    <dc:date>2023-02-08T08:51:55.427221</dc:date>
    <dc:format>image/svg+xml</dc:format>
    <dc:creator>
     <cc:Agent>
      <dc:title>Matplotlib v3.5.1, https://matplotlib.org/</dc:title>
     </cc:Agent>
    </dc:creator>
   </cc:Work>
  </rdf:RDF>
 </metadata>
 <defs>
  <style type="text/css">*{stroke-linejoin: round; stroke-linecap: butt}</style>
 </defs>
 <g id="figure_1">
  <g id="patch_1">
   <path d="M 0 360 
L 1036.8 360 
L 1036.8 0 
L 0 0 
z
" style="fill: #ffffff"/>
  </g>
  <g id="axes_1">
   <g id="patch_2">
    <path d="M 142.412623 180 
Q 232.78063 180 319.794535 180 
" clip-path="url(#pba4026efce)" style="fill: none; stroke: #2ca02c; stroke-width: 3; stroke-linecap: round"/>
    <path d="M 315.794535 178 
L 319.794535 180 
L 315.794535 182 
L 315.794535 178 
z
" clip-path="url(#pba4026efce)" style="fill: #2ca02c; stroke: #2ca02c; stroke-width: 3; stroke-linecap: round"/>
   </g>
   <g id="patch_3">
    <path d="M 428.032457 180 
Q 518.400465 180 605.41437 180 
" clip-path="url(#pba4026efce)" style="fill: none; stroke: #2ca02c; stroke-width: 3; stroke-linecap: round"/>
    <path d="M 601.41437 178 
L 605.41437 180 
L 601.41437 182 
L 601.41437 178 
z
" clip-path="url(#pba4026efce)" style="fill: #2ca02c; stroke: #2ca02c; stroke-width: 3; stroke-linecap: round"/>
   </g>
   <g id="patch_4">
    <path d="M 713.652292 180 
Q 804.020299 180 891.034204 180 
" clip-path="url(#pba4026efce)" style="fill: none; stroke: #2ca02c; stroke-width: 3; stroke-linecap: round"/>
    <path d="M 887.034204 178 
L 891.034204 180 
L 887.034204 182 
L 887.034204 178 
z
" clip-path="url(#pba4026efce)" style="fill: #2ca02c; stroke: #2ca02c; stroke-width: 3; stroke-linecap: round"/>
   </g>
   <g id="text_1">
    <g id="patch_5">
     <path d="M 207.941103 193.437969 
L 257.619228 193.437969 
Q 260.619228 193.437969 260.619228 190.437969 
L 260.619228 169.562031 
Q 260.619228 166.562031 257.619228 166.562031 
L 207.941103 166.562031 
Q 204.941103 166.562031 204.941103 169.562031 
L 204.941103 190.437969 
Q 204.941103 193.437969 207.941103 193.437969 
z
" clip-path="url(#pba4026efce)" style="fill: #ffffff; stroke: #ffffff; stroke-linejoin: miter"/>
    </g>
    <g clip-path="url(#pba4026efce)">
     <!-- increases -->
     <g transform="translate(209.103603 177.160469)scale(0.1 -0.1)">
      <defs>
       <path id="DejaVuSans-69" d="M 603 3500 
L 1178 3500 
L 1178 0 
L 603 0 
L 603 3500 
z
M 603 4863 
L 1178 4863 
L 1178 4134 
L 603 4134 
L 603 4863 
z
" transform="scale(0.015625)"/>
       <path id="DejaVuSans-6e" d="M 3513 2113 
L 3513 0 
L 2938 0 
L 2938 2094 
Q 2938 2591 2744 2837 
Q 2550 3084 2163 3084 
Q 1697 3084 1428 2787 
Q 1159 2491 1159 1978 
L 1159 0 
L 581 0 
L 581 3500 
L 1159 3500 
L 1159 2956 
Q 1366 3272 1645 3428 
Q 1925 3584 2291 3584 
Q 2894 3584 3203 3211 
Q 3513 2838 3513 2113 
z
" transform="scale(0.015625)"/>
       <path id="DejaVuSans-63" d="M 3122 3366 
L 3122 2828 
Q 2878 2963 2633 3030 
Q 2388 3097 2138 3097 
Q 1578 3097 1268 2742 
Q 959 2388 959 1747 
Q 959 1106 1268 751 
Q 1578 397 2138 397 
Q 2388 397 2633 464 
Q 2878 531 3122 666 
L 3122 134 
Q 2881 22 2623 -34 
Q 2366 -91 2075 -91 
Q 1284 -91 818 406 
Q 353 903 353 1747 
Q 353 2603 823 3093 
Q 1294 3584 2113 3584 
Q 2378 3584 2631 3529 
Q 2884 3475 3122 3366 
z
" transform="scale(0.015625)"/>
       <path id="DejaVuSans-72" d="M 2631 2963 
Q 2534 3019 2420 3045 
Q 2306 3072 2169 3072 
Q 1681 3072 1420 2755 
Q 1159 2438 1159 1844 
L 1159 0 
L 581 0 
L 581 3500 
L 1159 3500 
L 1159 2956 
Q 1341 3275 1631 3429 
Q 1922 3584 2338 3584 
Q 2397 3584 2469 3576 
Q 2541 3569 2628 3553 
L 2631 2963 
z
" transform="scale(0.015625)"/>
       <path id="DejaVuSans-65" d="M 3597 1894 
L 3597 1613 
L 953 1613 
Q 991 1019 1311 708 
Q 1631 397 2203 397 
Q 2534 397 2845 478 
Q 3156 559 3463 722 
L 3463 178 
Q 3153 47 2828 -22 
Q 2503 -91 2169 -91 
Q 1331 -91 842 396 
Q 353 884 353 1716 
Q 353 2575 817 3079 
Q 1281 3584 2069 3584 
Q 2775 3584 3186 3129 
Q 3597 2675 3597 1894 
z
M 3022 2063 
Q 3016 2534 2758 2815 
Q 2500 3097 2075 3097 
Q 1594 3097 1305 2825 
Q 1016 2553 972 2059 
L 3022 2063 
z
" transform="scale(0.015625)"/>
       <path id="DejaVuSans-61" d="M 2194 1759 
Q 1497 1759 1228 1600 
Q 959 1441 959 1056 
Q 959 750 1161 570 
Q 1363 391 1709 391 
Q 2188 391 2477 730 
Q 2766 1069 2766 1631 
L 2766 1759 
L 2194 1759 
z
M 3341 1997 
L 3341 0 
L 2766 0 
L 2766 531 
Q 2569 213 2275 61 
Q 1981 -91 1556 -91 
Q 1019 -91 701 211 
Q 384 513 384 1019 
Q 384 1609 779 1909 
Q 1175 2209 1959 2209 
L 2766 2209 
L 2766 2266 
Q 2766 2663 2505 2880 
Q 2244 3097 1772 3097 
Q 1472 3097 1187 3025 
Q 903 2953 641 2809 
L 641 3341 
Q 956 3463 1253 3523 
Q 1550 3584 1831 3584 
Q 2591 3584 2966 3190 
Q 3341 2797 3341 1997 
z
" transform="scale(0.015625)"/>
       <path id="DejaVuSans-73" d="M 2834 3397 
L 2834 2853 
Q 2591 2978 2328 3040 
Q 2066 3103 1784 3103 
Q 1356 3103 1142 2972 
Q 928 2841 928 2578 
Q 928 2378 1081 2264 
Q 1234 2150 1697 2047 
L 1894 2003 
Q 2506 1872 2764 1633 
Q 3022 1394 3022 966 
Q 3022 478 2636 193 
Q 2250 -91 1575 -91 
Q 1294 -91 989 -36 
Q 684 19 347 128 
L 347 722 
Q 666 556 975 473 
Q 1284 391 1588 391 
Q 1994 391 2212 530 
Q 2431 669 2431 922 
Q 2431 1156 2273 1281 
Q 2116 1406 1581 1522 
L 1381 1569 
Q 847 1681 609 1914 
Q 372 2147 372 2553 
Q 372 3047 722 3315 
Q 1072 3584 1716 3584 
Q 2034 3584 2315 3537 
Q 2597 3491 2834 3397 
z
" transform="scale(0.015625)"/>
      </defs>
      <use xlink:href="#DejaVuSans-69"/>
      <use xlink:href="#DejaVuSans-6e" x="27.783203"/>
      <use xlink:href="#DejaVuSans-63" x="91.162109"/>
      <use xlink:href="#DejaVuSans-72" x="146.142578"/>
      <use xlink:href="#DejaVuSans-65" x="185.005859"/>
      <use xlink:href="#DejaVuSans-61" x="246.529297"/>
      <use xlink:href="#DejaVuSans-73" x="307.808594"/>
      <use xlink:href="#DejaVuSans-65" x="359.908203"/>
      <use xlink:href="#DejaVuSans-73" x="421.431641"/>
     </g>
    </g>
    <g clip-path="url(#pba4026efce)">
     <!-- activity of -->
     <g transform="translate(207.941103 188.358281)scale(0.1 -0.1)">
      <defs>
       <path id="DejaVuSans-74" d="M 1172 4494 
L 1172 3500 
L 2356 3500 
L 2356 3053 
L 1172 3053 
L 1172 1153 
Q 1172 725 1289 603 
Q 1406 481 1766 481 
L 2356 481 
L 2356 0 
L 1766 0 
Q 1100 0 847 248 
Q 594 497 594 1153 
L 594 3053 
L 172 3053 
L 172 3500 
L 594 3500 
L 594 4494 
L 1172 4494 
z
" transform="scale(0.015625)"/>
       <path id="DejaVuSans-76" d="M 191 3500 
L 800 3500 
L 1894 563 
L 2988 3500 
L 3597 3500 
L 2284 0 
L 1503 0 
L 191 3500 
z
" transform="scale(0.015625)"/>
       <path id="DejaVuSans-79" d="M 2059 -325 
Q 1816 -950 1584 -1140 
Q 1353 -1331 966 -1331 
L 506 -1331 
L 506 -850 
L 844 -850 
Q 1081 -850 1212 -737 
Q 1344 -625 1503 -206 
L 1606 56 
L 191 3500 
L 800 3500 
L 1894 763 
L 2988 3500 
L 3597 3500 
L 2059 -325 
z
" transform="scale(0.015625)"/>
       <path id="DejaVuSans-20" transform="scale(0.015625)"/>
       <path id="DejaVuSans-6f" d="M 1959 3097 
Q 1497 3097 1228 2736 
Q 959 2375 959 1747 
Q 959 1119 1226 758 
Q 1494 397 1959 397 
Q 2419 397 2687 759 
Q 2956 1122 2956 1747 
Q 2956 2369 2687 2733 
Q 2419 3097 1959 3097 
z
M 1959 3584 
Q 2709 3584 3137 3096 
Q 3566 2609 3566 1747 
Q 3566 888 3137 398 
Q 2709 -91 1959 -91 
Q 1206 -91 779 398 
Q 353 888 353 1747 
Q 353 2609 779 3096 
Q 1206 3584 1959 3584 
z
" transform="scale(0.015625)"/>
       <path id="DejaVuSans-66" d="M 2375 4863 
L 2375 4384 
L 1825 4384 
Q 1516 4384 1395 4259 
Q 1275 4134 1275 3809 
L 1275 3500 
L 2222 3500 
L 2222 3053 
L 1275 3053 
L 1275 0 
L 697 0 
L 697 3053 
L 147 3053 
L 147 3500 
L 697 3500 
L 697 3744 
Q 697 4328 969 4595 
Q 1241 4863 1831 4863 
L 2375 4863 
z
" transform="scale(0.015625)"/>
      </defs>
      <use xlink:href="#DejaVuSans-61"/>
      <use xlink:href="#DejaVuSans-63" x="61.279297"/>
      <use xlink:href="#DejaVuSans-74" x="116.259766"/>
      <use xlink:href="#DejaVuSans-69" x="155.46875"/>
      <use xlink:href="#DejaVuSans-76" x="183.251953"/>
      <use xlink:href="#DejaVuSans-69" x="242.431641"/>
      <use xlink:href="#DejaVuSans-74" x="270.214844"/>
      <use xlink:href="#DejaVuSans-79" x="309.423828"/>
      <use xlink:href="#DejaVuSans-20" x="368.603516"/>
      <use xlink:href="#DejaVuSans-6f" x="400.390625"/>
      <use xlink:href="#DejaVuSans-66" x="461.572266"/>
     </g>
    </g>
   </g>
   <g id="text_2">
    <g id="patch_6">
     <path d="M 480.74375 193.437969 
L 556.05625 193.437969 
Q 559.05625 193.437969 559.05625 190.437969 
L 559.05625 169.562031 
Q 559.05625 166.562031 556.05625 166.562031 
L 480.74375 166.562031 
Q 477.74375 166.562031 477.74375 169.562031 
L 477.74375 190.437969 
Q 477.74375 193.437969 480.74375 193.437969 
z
" clip-path="url(#pba4026efce)" style="fill: #ffffff; stroke: #ffffff; stroke-linejoin: miter"/>
    </g>
    <g clip-path="url(#pba4026efce)">
     <!-- positively -->
     <g transform="translate(494.439062 177.160469)scale(0.1 -0.1)">
      <defs>
       <path id="DejaVuSans-70" d="M 1159 525 
L 1159 -1331 
L 581 -1331 
L 581 3500 
L 1159 3500 
L 1159 2969 
Q 1341 3281 1617 3432 
Q 1894 3584 2278 3584 
Q 2916 3584 3314 3078 
Q 3713 2572 3713 1747 
Q 3713 922 3314 415 
Q 2916 -91 2278 -91 
Q 1894 -91 1617 61 
Q 1341 213 1159 525 
z
M 3116 1747 
Q 3116 2381 2855 2742 
Q 2594 3103 2138 3103 
Q 1681 3103 1420 2742 
Q 1159 2381 1159 1747 
Q 1159 1113 1420 752 
Q 1681 391 2138 391 
Q 2594 391 2855 752 
Q 3116 1113 3116 1747 
z
" transform="scale(0.015625)"/>
       <path id="DejaVuSans-6c" d="M 603 4863 
L 1178 4863 
L 1178 0 
L 603 0 
L 603 4863 
z
" transform="scale(0.015625)"/>
      </defs>
      <use xlink:href="#DejaVuSans-70"/>
      <use xlink:href="#DejaVuSans-6f" x="63.476562"/>
      <use xlink:href="#DejaVuSans-73" x="124.658203"/>
      <use xlink:href="#DejaVuSans-69" x="176.757812"/>
      <use xlink:href="#DejaVuSans-74" x="204.541016"/>
      <use xlink:href="#DejaVuSans-69" x="243.75"/>
      <use xlink:href="#DejaVuSans-76" x="271.533203"/>
      <use xlink:href="#DejaVuSans-65" x="330.712891"/>
      <use xlink:href="#DejaVuSans-6c" x="392.236328"/>
      <use xlink:href="#DejaVuSans-79" x="420.019531"/>
     </g>
    </g>
    <g clip-path="url(#pba4026efce)">
     <!-- correlated with -->
     <g transform="translate(480.74375 188.358281)scale(0.1 -0.1)">
      <defs>
       <path id="DejaVuSans-64" d="M 2906 2969 
L 2906 4863 
L 3481 4863 
L 3481 0 
L 2906 0 
L 2906 525 
Q 2725 213 2448 61 
Q 2172 -91 1784 -91 
Q 1150 -91 751 415 
Q 353 922 353 1747 
Q 353 2572 751 3078 
Q 1150 3584 1784 3584 
Q 2172 3584 2448 3432 
Q 2725 3281 2906 2969 
z
M 947 1747 
Q 947 1113 1208 752 
Q 1469 391 1925 391 
Q 2381 391 2643 752 
Q 2906 1113 2906 1747 
Q 2906 2381 2643 2742 
Q 2381 3103 1925 3103 
Q 1469 3103 1208 2742 
Q 947 2381 947 1747 
z
" transform="scale(0.015625)"/>
       <path id="DejaVuSans-77" d="M 269 3500 
L 844 3500 
L 1563 769 
L 2278 3500 
L 2956 3500 
L 3675 769 
L 4391 3500 
L 4966 3500 
L 4050 0 
L 3372 0 
L 2619 2869 
L 1863 0 
L 1184 0 
L 269 3500 
z
" transform="scale(0.015625)"/>
       <path id="DejaVuSans-68" d="M 3513 2113 
L 3513 0 
L 2938 0 
L 2938 2094 
Q 2938 2591 2744 2837 
Q 2550 3084 2163 3084 
Q 1697 3084 1428 2787 
Q 1159 2491 1159 1978 
L 1159 0 
L 581 0 
L 581 4863 
L 1159 4863 
L 1159 2956 
Q 1366 3272 1645 3428 
Q 1925 3584 2291 3584 
Q 2894 3584 3203 3211 
Q 3513 2838 3513 2113 
z
" transform="scale(0.015625)"/>
      </defs>
      <use xlink:href="#DejaVuSans-63"/>
      <use xlink:href="#DejaVuSans-6f" x="54.980469"/>
      <use xlink:href="#DejaVuSans-72" x="116.162109"/>
      <use xlink:href="#DejaVuSans-72" x="155.525391"/>
      <use xlink:href="#DejaVuSans-65" x="194.388672"/>
      <use xlink:href="#DejaVuSans-6c" x="255.912109"/>
      <use xlink:href="#DejaVuSans-61" x="283.695312"/>
      <use xlink:href="#DejaVuSans-74" x="344.974609"/>
      <use xlink:href="#DejaVuSans-65" x="384.183594"/>
      <use xlink:href="#DejaVuSans-64" x="445.707031"/>
      <use xlink:href="#DejaVuSans-20" x="509.183594"/>
      <use xlink:href="#DejaVuSans-77" x="540.970703"/>
      <use xlink:href="#DejaVuSans-69" x="622.757812"/>
      <use xlink:href="#DejaVuSans-74" x="650.541016"/>
      <use xlink:href="#DejaVuSans-68" x="689.75"/>
     </g>
    </g>
   </g>
   <g id="text_3">
    <g id="patch_7">
     <path d="M 766.363585 193.437969 
L 841.676085 193.437969 
Q 844.676085 193.437969 844.676085 190.437969 
L 844.676085 169.562031 
Q 844.676085 166.562031 841.676085 166.562031 
L 766.363585 166.562031 
Q 763.363585 166.562031 763.363585 169.562031 
L 763.363585 190.437969 
Q 763.363585 193.437969 766.363585 193.437969 
z
" clip-path="url(#pba4026efce)" style="fill: #ffffff; stroke: #ffffff; stroke-linejoin: miter"/>
    </g>
    <g clip-path="url(#pba4026efce)">
     <!-- negatively -->
     <g transform="translate(777.802647 177.160469)scale(0.1 -0.1)">
      <defs>
       <path id="DejaVuSans-67" d="M 2906 1791 
Q 2906 2416 2648 2759 
Q 2391 3103 1925 3103 
Q 1463 3103 1205 2759 
Q 947 2416 947 1791 
Q 947 1169 1205 825 
Q 1463 481 1925 481 
Q 2391 481 2648 825 
Q 2906 1169 2906 1791 
z
M 3481 434 
Q 3481 -459 3084 -895 
Q 2688 -1331 1869 -1331 
Q 1566 -1331 1297 -1286 
Q 1028 -1241 775 -1147 
L 775 -588 
Q 1028 -725 1275 -790 
Q 1522 -856 1778 -856 
Q 2344 -856 2625 -561 
Q 2906 -266 2906 331 
L 2906 616 
Q 2728 306 2450 153 
Q 2172 0 1784 0 
Q 1141 0 747 490 
Q 353 981 353 1791 
Q 353 2603 747 3093 
Q 1141 3584 1784 3584 
Q 2172 3584 2450 3431 
Q 2728 3278 2906 2969 
L 2906 3500 
L 3481 3500 
L 3481 434 
z
" transform="scale(0.015625)"/>
      </defs>
      <use xlink:href="#DejaVuSans-6e"/>
      <use xlink:href="#DejaVuSans-65" x="63.378906"/>
      <use xlink:href="#DejaVuSans-67" x="124.902344"/>
      <use xlink:href="#DejaVuSans-61" x="188.378906"/>
      <use xlink:href="#DejaVuSans-74" x="249.658203"/>
      <use xlink:href="#DejaVuSans-69" x="288.867188"/>
      <use xlink:href="#DejaVuSans-76" x="316.650391"/>
      <use xlink:href="#DejaVuSans-65" x="375.830078"/>
      <use xlink:href="#DejaVuSans-6c" x="437.353516"/>
      <use xlink:href="#DejaVuSans-79" x="465.136719"/>
     </g>
    </g>
    <g clip-path="url(#pba4026efce)">
     <!-- correlated with -->
     <g transform="translate(766.363585 188.358281)scale(0.1 -0.1)">
      <use xlink:href="#DejaVuSans-63"/>
      <use xlink:href="#DejaVuSans-6f" x="54.980469"/>
      <use xlink:href="#DejaVuSans-72" x="116.162109"/>
      <use xlink:href="#DejaVuSans-72" x="155.525391"/>
      <use xlink:href="#DejaVuSans-65" x="194.388672"/>
      <use xlink:href="#DejaVuSans-6c" x="255.912109"/>
      <use xlink:href="#DejaVuSans-61" x="283.695312"/>
      <use xlink:href="#DejaVuSans-74" x="344.974609"/>
      <use xlink:href="#DejaVuSans-65" x="384.183594"/>
      <use xlink:href="#DejaVuSans-64" x="445.707031"/>
      <use xlink:href="#DejaVuSans-20" x="509.183594"/>
      <use xlink:href="#DejaVuSans-77" x="540.970703"/>
      <use xlink:href="#DejaVuSans-69" x="622.757812"/>
      <use xlink:href="#DejaVuSans-74" x="650.541016"/>
      <use xlink:href="#DejaVuSans-68" x="689.75"/>
     </g>
    </g>
   </g>
   <g id="PathCollection_1">
    <defs>
     <path id="C0_0_235602be10" d="M 0 52.440442 
C 13.907368 52.440442 27.246998 46.914987 37.080992 37.080992 
C 46.914987 27.246998 52.440442 13.907368 52.440442 -0 
C 52.440442 -13.907368 46.914987 -27.246998 37.080992 -37.080992 
C 27.246998 -46.914987 13.907368 -52.440442 0 -52.440442 
C -13.907368 -52.440442 -27.246998 -46.914987 -37.080992 -37.080992 
C -46.914987 -27.246998 -52.440442 -13.907368 -52.440442 0 
C -52.440442 13.907368 -46.914987 27.246998 -37.080992 37.080992 
C -27.246998 46.914987 -13.907368 52.440442 0 52.440442 
z
"/>
    </defs>
    <g clip-path="url(#pba4026efce)">
     <use xlink:href="#C0_0_235602be10" x="89.970248" y="180" style="fill: #01c472; stroke: #01c472"/>
    </g>
    <g clip-path="url(#pba4026efce)">
     <use xlink:href="#C0_0_235602be10" x="375.590083" y="180" style="fill: #e71761; stroke: #e71761"/>
    </g>
    <g clip-path="url(#pba4026efce)">
     <use xlink:href="#C0_0_235602be10" x="661.209917" y="180" style="fill: #01c472; stroke: #01c472"/>
    </g>
    <g clip-path="url(#pba4026efce)">
     <use xlink:href="#C0_0_235602be10" x="946.829752" y="180" style="fill: #70c6ca; stroke: #70c6ca"/>
    </g>
   </g>
   <g id="text_4">
    <path d="M 350.19227 154.406437 
L 355.72352 154.406437 
L 355.72352 155.403937 
L 351.375395 155.403937 
L 351.375395 157.993312 
L 355.541645 157.993312 
L 355.541645 158.988937 
L 351.375395 158.988937 
L 351.375395 162.159562 
L 355.82852 162.159562 
L 355.82852 163.155187 
L 350.19227 163.155187 
L 350.19227 154.406437 
z
M 361.910551 156.785812 
L 361.910551 157.805812 
Q 361.454926 157.571437 360.961801 157.455187 
Q 360.470551 157.337062 359.941801 157.337062 
Q 359.139301 157.337062 358.738051 157.582687 
Q 358.336801 157.828312 358.336801 158.321437 
Q 358.336801 158.696437 358.623676 158.910187 
Q 358.910551 159.123937 359.778676 159.317062 
L 360.148051 159.399562 
Q 361.295551 159.645187 361.779301 160.093312 
Q 362.263051 160.541437 362.263051 161.343937 
Q 362.263051 162.258937 361.539301 162.793312 
Q 360.815551 163.325812 359.549926 163.325812 
Q 359.023051 163.325812 358.451176 163.222687 
Q 357.879301 163.119562 357.247426 162.915187 
L 357.247426 161.801437 
Q 357.845551 162.112687 358.424926 162.268312 
Q 359.004301 162.422062 359.574301 162.422062 
Q 360.335551 162.422062 360.744301 162.161437 
Q 361.154926 161.900812 361.154926 161.426437 
Q 361.154926 160.987687 360.858676 160.753312 
Q 360.564301 160.518937 359.561176 160.301437 
L 359.186176 160.213312 
Q 358.184926 160.003312 357.738676 159.566437 
Q 357.294301 159.129562 357.294301 158.368312 
Q 357.294301 157.442062 357.950551 156.939562 
Q 358.606801 156.435187 359.814301 156.435187 
Q 360.410551 156.435187 360.937426 156.523312 
Q 361.466176 156.609562 361.910551 156.785812 
z
M 365.046255 154.728937 
L 365.046255 156.592687 
L 367.266255 156.592687 
L 367.266255 157.430812 
L 365.046255 157.430812 
L 365.046255 160.993312 
Q 365.046255 161.795812 365.26563 162.024562 
Q 365.485005 162.253312 366.160005 162.253312 
L 367.266255 162.253312 
L 367.266255 163.155187 
L 366.160005 163.155187 
Q 364.911255 163.155187 364.43688 162.690187 
Q 363.962505 162.223312 363.962505 160.993312 
L 363.962505 157.430812 
L 363.171255 157.430812 
L 363.171255 156.592687 
L 363.962505 156.592687 
L 363.962505 154.728937 
L 365.046255 154.728937 
z
M 372.486958 157.599562 
Q 372.305083 157.494562 372.091333 157.445812 
Q 371.877583 157.395187 371.620708 157.395187 
Q 370.705708 157.395187 370.216333 157.989562 
Q 369.726958 158.583937 369.726958 159.697687 
L 369.726958 163.155187 
L 368.643208 163.155187 
L 368.643208 156.592687 
L 369.726958 156.592687 
L 369.726958 157.612687 
Q 370.068208 157.014562 370.611958 156.725812 
Q 371.157583 156.435187 371.937583 156.435187 
Q 372.048208 156.435187 372.183208 156.450187 
Q 372.318208 156.463312 372.481333 156.493312 
L 372.486958 157.599562 
z
M 375.890551 157.348312 
Q 375.024301 157.348312 374.519926 158.025187 
Q 374.015551 158.702062 374.015551 159.879562 
Q 374.015551 161.057062 374.516176 161.733937 
Q 375.018676 162.410812 375.890551 162.410812 
Q 376.753051 162.410812 377.255551 161.732062 
Q 377.759926 161.051437 377.759926 159.879562 
Q 377.759926 158.713312 377.255551 158.030812 
Q 376.753051 157.348312 375.890551 157.348312 
z
M 375.890551 156.435187 
Q 377.296801 156.435187 378.099301 157.350187 
Q 378.903676 158.263312 378.903676 159.879562 
Q 378.903676 161.490187 378.099301 162.408937 
Q 377.296801 163.325812 375.890551 163.325812 
Q 374.478676 163.325812 373.678051 162.408937 
Q 372.879301 161.490187 372.879301 159.879562 
Q 372.879301 158.263312 373.678051 157.350187 
Q 374.478676 156.435187 375.890551 156.435187 
z
M 385.007973 159.797062 
Q 385.007973 158.625187 384.524223 157.982062 
Q 384.042348 157.337062 383.168598 157.337062 
Q 382.302348 157.337062 381.818598 157.982062 
Q 381.334848 158.625187 381.334848 159.797062 
Q 381.334848 160.963312 381.818598 161.608312 
Q 382.302348 162.253312 383.168598 162.253312 
Q 384.042348 162.253312 384.524223 161.608312 
Q 385.007973 160.963312 385.007973 159.797062 
z
M 386.086098 162.341437 
Q 386.086098 164.015812 385.341723 164.833312 
Q 384.599223 165.650812 383.063598 165.650812 
Q 382.495473 165.650812 381.991098 165.566437 
Q 381.486723 165.482062 381.012348 165.305812 
L 381.012348 164.257687 
Q 381.486723 164.514562 381.949848 164.636437 
Q 382.412973 164.760187 382.892973 164.760187 
Q 383.954223 164.760187 384.481098 164.207062 
Q 385.007973 163.653937 385.007973 162.534562 
L 385.007973 162.000187 
Q 384.674223 162.581437 384.152973 162.868312 
Q 383.631723 163.155187 382.904223 163.155187 
Q 381.698598 163.155187 380.959848 162.236437 
Q 380.221098 161.315812 380.221098 159.797062 
Q 380.221098 158.274562 380.959848 157.355812 
Q 381.698598 156.435187 382.904223 156.435187 
Q 383.631723 156.435187 384.152973 156.722062 
Q 384.674223 157.008937 385.007973 157.588312 
L 385.007973 156.592687 
L 386.086098 156.592687 
L 386.086098 162.341437 
z
M 393.920786 159.603937 
L 393.920786 160.130812 
L 388.963286 160.130812 
Q 389.034536 161.244562 389.634536 161.827687 
Q 390.234536 162.410812 391.307036 162.410812 
Q 391.927661 162.410812 392.510786 162.258937 
Q 393.093911 162.107062 393.669536 161.801437 
L 393.669536 162.821437 
Q 393.088286 163.067062 392.478911 163.196437 
Q 391.869536 163.325812 391.243286 163.325812 
Q 389.672036 163.325812 388.755161 162.412687 
Q 387.838286 161.497687 387.838286 159.937687 
Q 387.838286 158.327062 388.708286 157.382062 
Q 389.578286 156.435187 391.055786 156.435187 
Q 392.379536 156.435187 393.150161 157.288312 
Q 393.920786 158.139562 393.920786 159.603937 
z
M 392.842661 159.287062 
Q 392.831411 158.403937 392.347661 157.877062 
Q 391.863911 157.348312 391.067036 157.348312 
Q 390.165161 157.348312 389.623286 157.858312 
Q 389.081411 158.368312 388.998911 159.294562 
L 392.842661 159.287062 
z
M 401.146098 159.193312 
L 401.146098 163.155187 
L 400.067973 163.155187 
L 400.067973 159.228937 
Q 400.067973 158.297062 399.704223 157.835812 
Q 399.340473 157.372687 398.614848 157.372687 
Q 397.741098 157.372687 397.236723 157.929562 
Q 396.732348 158.484562 396.732348 159.446437 
L 396.732348 163.155187 
L 395.648598 163.155187 
L 395.648598 156.592687 
L 396.732348 156.592687 
L 396.732348 157.612687 
Q 397.120473 157.020187 397.643598 156.727687 
Q 398.168598 156.435187 398.854848 156.435187 
Q 399.985473 156.435187 400.564848 157.134562 
Q 401.146098 157.833937 401.146098 159.193312 
z
" clip-path="url(#pba4026efce)" style="fill: #ffffff; stroke: #000000; stroke-width: 2"/>
    <path d="M 350.19227 154.406437 
L 355.72352 154.406437 
L 355.72352 155.403937 
L 351.375395 155.403937 
L 351.375395 157.993312 
L 355.541645 157.993312 
L 355.541645 158.988937 
L 351.375395 158.988937 
L 351.375395 162.159562 
L 355.82852 162.159562 
L 355.82852 163.155187 
L 350.19227 163.155187 
L 350.19227 154.406437 
z
M 361.910551 156.785812 
L 361.910551 157.805812 
Q 361.454926 157.571437 360.961801 157.455187 
Q 360.470551 157.337062 359.941801 157.337062 
Q 359.139301 157.337062 358.738051 157.582687 
Q 358.336801 157.828312 358.336801 158.321437 
Q 358.336801 158.696437 358.623676 158.910187 
Q 358.910551 159.123937 359.778676 159.317062 
L 360.148051 159.399562 
Q 361.295551 159.645187 361.779301 160.093312 
Q 362.263051 160.541437 362.263051 161.343937 
Q 362.263051 162.258937 361.539301 162.793312 
Q 360.815551 163.325812 359.549926 163.325812 
Q 359.023051 163.325812 358.451176 163.222687 
Q 357.879301 163.119562 357.247426 162.915187 
L 357.247426 161.801437 
Q 357.845551 162.112687 358.424926 162.268312 
Q 359.004301 162.422062 359.574301 162.422062 
Q 360.335551 162.422062 360.744301 162.161437 
Q 361.154926 161.900812 361.154926 161.426437 
Q 361.154926 160.987687 360.858676 160.753312 
Q 360.564301 160.518937 359.561176 160.301437 
L 359.186176 160.213312 
Q 358.184926 160.003312 357.738676 159.566437 
Q 357.294301 159.129562 357.294301 158.368312 
Q 357.294301 157.442062 357.950551 156.939562 
Q 358.606801 156.435187 359.814301 156.435187 
Q 360.410551 156.435187 360.937426 156.523312 
Q 361.466176 156.609562 361.910551 156.785812 
z
M 365.046255 154.728937 
L 365.046255 156.592687 
L 367.266255 156.592687 
L 367.266255 157.430812 
L 365.046255 157.430812 
L 365.046255 160.993312 
Q 365.046255 161.795812 365.26563 162.024562 
Q 365.485005 162.253312 366.160005 162.253312 
L 367.266255 162.253312 
L 367.266255 163.155187 
L 366.160005 163.155187 
Q 364.911255 163.155187 364.43688 162.690187 
Q 363.962505 162.223312 363.962505 160.993312 
L 363.962505 157.430812 
L 363.171255 157.430812 
L 363.171255 156.592687 
L 363.962505 156.592687 
L 363.962505 154.728937 
L 365.046255 154.728937 
z
M 372.486958 157.599562 
Q 372.305083 157.494562 372.091333 157.445812 
Q 371.877583 157.395187 371.620708 157.395187 
Q 370.705708 157.395187 370.216333 157.989562 
Q 369.726958 158.583937 369.726958 159.697687 
L 369.726958 163.155187 
L 368.643208 163.155187 
L 368.643208 156.592687 
L 369.726958 156.592687 
L 369.726958 157.612687 
Q 370.068208 157.014562 370.611958 156.725812 
Q 371.157583 156.435187 371.937583 156.435187 
Q 372.048208 156.435187 372.183208 156.450187 
Q 372.318208 156.463312 372.481333 156.493312 
L 372.486958 157.599562 
z
M 375.890551 157.348312 
Q 375.024301 157.348312 374.519926 158.025187 
Q 374.015551 158.702062 374.015551 159.879562 
Q 374.015551 161.057062 374.516176 161.733937 
Q 375.018676 162.410812 375.890551 162.410812 
Q 376.753051 162.410812 377.255551 161.732062 
Q 377.759926 161.051437 377.759926 159.879562 
Q 377.759926 158.713312 377.255551 158.030812 
Q 376.753051 157.348312 375.890551 157.348312 
z
M 375.890551 156.435187 
Q 377.296801 156.435187 378.099301 157.350187 
Q 378.903676 158.263312 378.903676 159.879562 
Q 378.903676 161.490187 378.099301 162.408937 
Q 377.296801 163.325812 375.890551 163.325812 
Q 374.478676 163.325812 373.678051 162.408937 
Q 372.879301 161.490187 372.879301 159.879562 
Q 372.879301 158.263312 373.678051 157.350187 
Q 374.478676 156.435187 375.890551 156.435187 
z
M 385.007973 159.797062 
Q 385.007973 158.625187 384.524223 157.982062 
Q 384.042348 157.337062 383.168598 157.337062 
Q 382.302348 157.337062 381.818598 157.982062 
Q 381.334848 158.625187 381.334848 159.797062 
Q 381.334848 160.963312 381.818598 161.608312 
Q 382.302348 162.253312 383.168598 162.253312 
Q 384.042348 162.253312 384.524223 161.608312 
Q 385.007973 160.963312 385.007973 159.797062 
z
M 386.086098 162.341437 
Q 386.086098 164.015812 385.341723 164.833312 
Q 384.599223 165.650812 383.063598 165.650812 
Q 382.495473 165.650812 381.991098 165.566437 
Q 381.486723 165.482062 381.012348 165.305812 
L 381.012348 164.257687 
Q 381.486723 164.514562 381.949848 164.636437 
Q 382.412973 164.760187 382.892973 164.760187 
Q 383.954223 164.760187 384.481098 164.207062 
Q 385.007973 163.653937 385.007973 162.534562 
L 385.007973 162.000187 
Q 384.674223 162.581437 384.152973 162.868312 
Q 383.631723 163.155187 382.904223 163.155187 
Q 381.698598 163.155187 380.959848 162.236437 
Q 380.221098 161.315812 380.221098 159.797062 
Q 380.221098 158.274562 380.959848 157.355812 
Q 381.698598 156.435187 382.904223 156.435187 
Q 383.631723 156.435187 384.152973 156.722062 
Q 384.674223 157.008937 385.007973 157.588312 
L 385.007973 156.592687 
L 386.086098 156.592687 
L 386.086098 162.341437 
z
M 393.920786 159.603937 
L 393.920786 160.130812 
L 388.963286 160.130812 
Q 389.034536 161.244562 389.634536 161.827687 
Q 390.234536 162.410812 391.307036 162.410812 
Q 391.927661 162.410812 392.510786 162.258937 
Q 393.093911 162.107062 393.669536 161.801437 
L 393.669536 162.821437 
Q 393.088286 163.067062 392.478911 163.196437 
Q 391.869536 163.325812 391.243286 163.325812 
Q 389.672036 163.325812 388.755161 162.412687 
Q 387.838286 161.497687 387.838286 159.937687 
Q 387.838286 158.327062 388.708286 157.382062 
Q 389.578286 156.435187 391.055786 156.435187 
Q 392.379536 156.435187 393.150161 157.288312 
Q 393.920786 158.139562 393.920786 159.603937 
z
M 392.842661 159.287062 
Q 392.831411 158.403937 392.347661 157.877062 
Q 391.863911 157.348312 391.067036 157.348312 
Q 390.165161 157.348312 389.623286 157.858312 
Q 389.081411 158.368312 388.998911 159.294562 
L 392.842661 159.287062 
z
M 401.146098 159.193312 
L 401.146098 163.155187 
L 400.067973 163.155187 
L 400.067973 159.228937 
Q 400.067973 158.297062 399.704223 157.835812 
Q 399.340473 157.372687 398.614848 157.372687 
Q 397.741098 157.372687 397.236723 157.929562 
Q 396.732348 158.484562 396.732348 159.446437 
L 396.732348 163.155187 
L 395.648598 163.155187 
L 395.648598 156.592687 
L 396.732348 156.592687 
L 396.732348 157.612687 
Q 397.120473 157.020187 397.643598 156.727687 
Q 398.168598 156.435187 398.854848 156.435187 
Q 399.985473 156.435187 400.564848 157.134562 
Q 401.146098 157.833937 401.146098 159.193312 
z
" clip-path="url(#pba4026efce)" style="fill: #ffffff"/>
    <path d="M 336.670708 171.036937 
Q 336.488833 170.931937 336.275083 170.883187 
Q 336.061333 170.832562 335.804458 170.832562 
Q 334.889458 170.832562 334.400083 171.426937 
Q 333.910708 172.021312 333.910708 173.135062 
L 333.910708 176.592562 
L 332.826958 176.592562 
L 332.826958 170.030062 
L 333.910708 170.030062 
L 333.910708 171.050062 
Q 334.251958 170.451937 334.795708 170.163187 
Q 335.341333 169.872562 336.121333 169.872562 
Q 336.231958 169.872562 336.366958 169.887562 
Q 336.501958 169.900687 336.665083 169.930687 
L 336.670708 171.036937 
z
M 343.145551 173.041312 
L 343.145551 173.568187 
L 338.188051 173.568187 
Q 338.259301 174.681937 338.859301 175.265062 
Q 339.459301 175.848187 340.531801 175.848187 
Q 341.152426 175.848187 341.735551 175.696312 
Q 342.318676 175.544437 342.894301 175.238812 
L 342.894301 176.258812 
Q 342.313051 176.504437 341.703676 176.633812 
Q 341.094301 176.763187 340.468051 176.763187 
Q 338.896801 176.763187 337.979926 175.850062 
Q 337.063051 174.935062 337.063051 173.375062 
Q 337.063051 171.764437 337.933051 170.819437 
Q 338.803051 169.872562 340.280551 169.872562 
Q 341.604301 169.872562 342.374926 170.725687 
Q 343.145551 171.576937 343.145551 173.041312 
z
M 342.067426 172.724437 
Q 342.056176 171.841312 341.572426 171.314437 
Q 341.088676 170.785687 340.291801 170.785687 
Q 339.389926 170.785687 338.848051 171.295687 
Q 338.306176 171.805687 338.223676 172.731937 
L 342.067426 172.724437 
z
M 349.637739 170.281312 
L 349.637739 171.290062 
Q 349.180239 171.036937 348.720864 170.911312 
Q 348.261489 170.785687 347.792739 170.785687 
Q 346.742739 170.785687 346.161489 171.451312 
Q 345.582114 172.115062 345.582114 173.316937 
Q 345.582114 174.518812 346.161489 175.184437 
Q 346.742739 175.848187 347.792739 175.848187 
Q 348.261489 175.848187 348.720864 175.722562 
Q 349.180239 175.596937 349.637739 175.343812 
L 349.637739 176.341312 
Q 349.185864 176.551312 348.702114 176.656312 
Q 348.220239 176.763187 347.674614 176.763187 
Q 346.191489 176.763187 345.317739 175.831312 
Q 344.445864 174.899437 344.445864 173.316937 
Q 344.445864 171.711937 345.327114 170.793187 
Q 346.210239 169.872562 347.745864 169.872562 
Q 348.242739 169.872562 348.717114 169.975687 
Q 349.191489 170.076937 349.637739 170.281312 
z
M 357.12602 173.041312 
L 357.12602 173.568187 
L 352.16852 173.568187 
Q 352.23977 174.681937 352.83977 175.265062 
Q 353.43977 175.848187 354.51227 175.848187 
Q 355.132895 175.848187 355.71602 175.696312 
Q 356.299145 175.544437 356.87477 175.238812 
L 356.87477 176.258812 
Q 356.29352 176.504437 355.684145 176.633812 
Q 355.07477 176.763187 354.44852 176.763187 
Q 352.87727 176.763187 351.960395 175.850062 
Q 351.04352 174.935062 351.04352 173.375062 
Q 351.04352 171.764437 351.91352 170.819437 
Q 352.78352 169.872562 354.26102 169.872562 
Q 355.58477 169.872562 356.355395 170.725687 
Q 357.12602 171.576937 357.12602 173.041312 
z
M 356.047895 172.724437 
Q 356.036645 171.841312 355.552895 171.314437 
Q 355.069145 170.785687 354.27227 170.785687 
Q 353.370395 170.785687 352.82852 171.295687 
Q 352.286645 171.805687 352.204145 172.731937 
L 356.047895 172.724437 
z
M 359.937583 175.608187 
L 359.937583 179.088187 
L 358.853833 179.088187 
L 358.853833 170.030062 
L 359.937583 170.030062 
L 359.937583 171.025687 
Q 360.278833 170.440687 360.796333 170.157562 
Q 361.315708 169.872562 362.035708 169.872562 
Q 363.231958 169.872562 363.978208 170.821312 
Q 364.726333 171.770062 364.726333 173.316937 
Q 364.726333 174.863812 363.978208 175.814437 
Q 363.231958 176.763187 362.035708 176.763187 
Q 361.315708 176.763187 360.796333 176.478187 
Q 360.278833 176.193187 359.937583 175.608187 
z
M 363.606958 173.316937 
Q 363.606958 172.128187 363.117583 171.451312 
Q 362.628208 170.774437 361.773208 170.774437 
Q 360.916333 170.774437 360.426958 171.451312 
Q 359.937583 172.128187 359.937583 173.316937 
Q 359.937583 174.505687 360.426958 175.182562 
Q 360.916333 175.859437 361.773208 175.859437 
Q 362.628208 175.859437 363.117583 175.182562 
Q 363.606958 174.505687 363.606958 173.316937 
z
M 367.579145 168.166312 
L 367.579145 170.030062 
L 369.799145 170.030062 
L 369.799145 170.868187 
L 367.579145 170.868187 
L 367.579145 174.430687 
Q 367.579145 175.233187 367.79852 175.461937 
Q 368.017895 175.690687 368.692895 175.690687 
L 369.799145 175.690687 
L 369.799145 176.592562 
L 368.692895 176.592562 
Q 367.444145 176.592562 366.96977 176.127562 
Q 366.495395 175.660687 366.495395 174.430687 
L 366.495395 170.868187 
L 365.704145 170.868187 
L 365.704145 170.030062 
L 366.495395 170.030062 
L 366.495395 168.166312 
L 367.579145 168.166312 
z
M 373.759848 170.785687 
Q 372.893598 170.785687 372.389223 171.462562 
Q 371.884848 172.139437 371.884848 173.316937 
Q 371.884848 174.494437 372.385473 175.171312 
Q 372.887973 175.848187 373.759848 175.848187 
Q 374.622348 175.848187 375.124848 175.169437 
Q 375.629223 174.488812 375.629223 173.316937 
Q 375.629223 172.150687 375.124848 171.468187 
Q 374.622348 170.785687 373.759848 170.785687 
z
M 373.759848 169.872562 
Q 375.166098 169.872562 375.968598 170.787562 
Q 376.772973 171.700687 376.772973 173.316937 
Q 376.772973 174.927562 375.968598 175.846312 
Q 375.166098 176.763187 373.759848 176.763187 
Q 372.347973 176.763187 371.547348 175.846312 
Q 370.748598 174.927562 370.748598 173.316937 
Q 370.748598 171.700687 371.547348 170.787562 
Q 372.347973 169.872562 373.759848 169.872562 
z
M 382.361645 171.036937 
Q 382.17977 170.931937 381.96602 170.883187 
Q 381.75227 170.832562 381.495395 170.832562 
Q 380.580395 170.832562 380.09102 171.426937 
Q 379.601645 172.021312 379.601645 173.135062 
L 379.601645 176.592562 
L 378.517895 176.592562 
L 378.517895 170.030062 
L 379.601645 170.030062 
L 379.601645 171.050062 
Q 379.942895 170.451937 380.486645 170.163187 
Q 381.03227 169.872562 381.81227 169.872562 
Q 381.922895 169.872562 382.057895 169.887562 
Q 382.192895 169.900687 382.35602 169.930687 
L 382.361645 171.036937 
z
M 390.290317 173.294437 
Q 388.983442 173.294437 388.479067 173.592562 
Q 387.974692 173.890687 387.974692 174.612562 
Q 387.974692 175.186312 388.353442 175.523812 
Q 388.732192 175.859437 389.380942 175.859437 
Q 390.279067 175.859437 390.820942 175.223812 
Q 391.362817 174.588187 391.362817 173.534437 
L 391.362817 173.294437 
L 390.290317 173.294437 
z
M 392.440942 172.848187 
L 392.440942 176.592562 
L 391.362817 176.592562 
L 391.362817 175.596937 
Q 390.993442 176.193187 390.442192 176.478187 
Q 389.890942 176.763187 389.094067 176.763187 
Q 388.087192 176.763187 387.490942 176.196937 
Q 386.896567 175.630687 386.896567 174.681937 
Q 386.896567 173.575687 387.637192 173.013187 
Q 388.379692 172.450687 389.849692 172.450687 
L 391.362817 172.450687 
L 391.362817 172.343812 
Q 391.362817 171.599437 390.873442 171.192562 
Q 390.384067 170.785687 389.499067 170.785687 
Q 388.936567 170.785687 388.402192 170.920687 
Q 387.869692 171.055687 387.378442 171.325687 
L 387.378442 170.328187 
Q 387.969067 170.099437 388.525942 169.986937 
Q 389.082817 169.872562 389.609692 169.872562 
Q 391.034692 169.872562 391.737817 170.611312 
Q 392.440942 171.348187 392.440942 172.848187 
z
M 394.660708 167.474437 
L 395.738833 167.474437 
L 395.738833 176.592562 
L 394.660708 176.592562 
L 394.660708 167.474437 
z
M 399.037192 175.608187 
L 399.037192 179.088187 
L 397.953442 179.088187 
L 397.953442 170.030062 
L 399.037192 170.030062 
L 399.037192 171.025687 
Q 399.378442 170.440687 399.895942 170.157562 
Q 400.415317 169.872562 401.135317 169.872562 
Q 402.331567 169.872562 403.077817 170.821312 
Q 403.825942 171.770062 403.825942 173.316937 
Q 403.825942 174.863812 403.077817 175.814437 
Q 402.331567 176.763187 401.135317 176.763187 
Q 400.415317 176.763187 399.895942 176.478187 
Q 399.378442 176.193187 399.037192 175.608187 
z
M 402.706567 173.316937 
Q 402.706567 172.128187 402.217192 171.451312 
Q 401.727817 170.774437 400.872817 170.774437 
Q 400.015942 170.774437 399.526567 171.451312 
Q 399.037192 172.128187 399.037192 173.316937 
Q 399.037192 174.505687 399.526567 175.182562 
Q 400.015942 175.859437 400.872817 175.859437 
Q 401.727817 175.859437 402.217192 175.182562 
Q 402.706567 174.505687 402.706567 173.316937 
z
M 411.06813 172.630687 
L 411.06813 176.592562 
L 409.990005 176.592562 
L 409.990005 172.666312 
Q 409.990005 171.734437 409.626255 171.273187 
Q 409.262505 170.810062 408.53688 170.810062 
Q 407.66313 170.810062 407.158755 171.366937 
Q 406.65438 171.921937 406.65438 172.883812 
L 406.65438 176.592562 
L 405.57063 176.592562 
L 405.57063 167.474437 
L 406.65438 167.474437 
L 406.65438 171.050062 
Q 407.042505 170.457562 407.56563 170.165062 
Q 408.09063 169.872562 408.77688 169.872562 
Q 409.907505 169.872562 410.48688 170.571937 
Q 411.06813 171.271312 411.06813 172.630687 
z
M 416.200473 173.294437 
Q 414.893598 173.294437 414.389223 173.592562 
Q 413.884848 173.890687 413.884848 174.612562 
Q 413.884848 175.186312 414.263598 175.523812 
Q 414.642348 175.859437 415.291098 175.859437 
Q 416.189223 175.859437 416.731098 175.223812 
Q 417.272973 174.588187 417.272973 173.534437 
L 417.272973 173.294437 
L 416.200473 173.294437 
z
M 418.351098 172.848187 
L 418.351098 176.592562 
L 417.272973 176.592562 
L 417.272973 175.596937 
Q 416.903598 176.193187 416.352348 176.478187 
Q 415.801098 176.763187 415.004223 176.763187 
Q 413.997348 176.763187 413.401098 176.196937 
Q 412.806723 175.630687 412.806723 174.681937 
Q 412.806723 173.575687 413.547348 173.013187 
Q 414.289848 172.450687 415.759848 172.450687 
L 417.272973 172.450687 
L 417.272973 172.343812 
Q 417.272973 171.599437 416.783598 171.192562 
Q 416.294223 170.785687 415.409223 170.785687 
Q 414.846723 170.785687 414.312348 170.920687 
Q 413.779848 171.055687 413.288598 171.325687 
L 413.288598 170.328187 
Q 413.879223 170.099437 414.436098 169.986937 
Q 414.992973 169.872562 415.519848 169.872562 
Q 416.944848 169.872562 417.647973 170.611312 
Q 418.351098 171.348187 418.351098 172.848187 
z
" clip-path="url(#pba4026efce)" style="fill: #ffffff; stroke: #000000; stroke-width: 2"/>
    <path d="M 336.670708 171.036937 
Q 336.488833 170.931937 336.275083 170.883187 
Q 336.061333 170.832562 335.804458 170.832562 
Q 334.889458 170.832562 334.400083 171.426937 
Q 333.910708 172.021312 333.910708 173.135062 
L 333.910708 176.592562 
L 332.826958 176.592562 
L 332.826958 170.030062 
L 333.910708 170.030062 
L 333.910708 171.050062 
Q 334.251958 170.451937 334.795708 170.163187 
Q 335.341333 169.872562 336.121333 169.872562 
Q 336.231958 169.872562 336.366958 169.887562 
Q 336.501958 169.900687 336.665083 169.930687 
L 336.670708 171.036937 
z
M 343.145551 173.041312 
L 343.145551 173.568187 
L 338.188051 173.568187 
Q 338.259301 174.681937 338.859301 175.265062 
Q 339.459301 175.848187 340.531801 175.848187 
Q 341.152426 175.848187 341.735551 175.696312 
Q 342.318676 175.544437 342.894301 175.238812 
L 342.894301 176.258812 
Q 342.313051 176.504437 341.703676 176.633812 
Q 341.094301 176.763187 340.468051 176.763187 
Q 338.896801 176.763187 337.979926 175.850062 
Q 337.063051 174.935062 337.063051 173.375062 
Q 337.063051 171.764437 337.933051 170.819437 
Q 338.803051 169.872562 340.280551 169.872562 
Q 341.604301 169.872562 342.374926 170.725687 
Q 343.145551 171.576937 343.145551 173.041312 
z
M 342.067426 172.724437 
Q 342.056176 171.841312 341.572426 171.314437 
Q 341.088676 170.785687 340.291801 170.785687 
Q 339.389926 170.785687 338.848051 171.295687 
Q 338.306176 171.805687 338.223676 172.731937 
L 342.067426 172.724437 
z
M 349.637739 170.281312 
L 349.637739 171.290062 
Q 349.180239 171.036937 348.720864 170.911312 
Q 348.261489 170.785687 347.792739 170.785687 
Q 346.742739 170.785687 346.161489 171.451312 
Q 345.582114 172.115062 345.582114 173.316937 
Q 345.582114 174.518812 346.161489 175.184437 
Q 346.742739 175.848187 347.792739 175.848187 
Q 348.261489 175.848187 348.720864 175.722562 
Q 349.180239 175.596937 349.637739 175.343812 
L 349.637739 176.341312 
Q 349.185864 176.551312 348.702114 176.656312 
Q 348.220239 176.763187 347.674614 176.763187 
Q 346.191489 176.763187 345.317739 175.831312 
Q 344.445864 174.899437 344.445864 173.316937 
Q 344.445864 171.711937 345.327114 170.793187 
Q 346.210239 169.872562 347.745864 169.872562 
Q 348.242739 169.872562 348.717114 169.975687 
Q 349.191489 170.076937 349.637739 170.281312 
z
M 357.12602 173.041312 
L 357.12602 173.568187 
L 352.16852 173.568187 
Q 352.23977 174.681937 352.83977 175.265062 
Q 353.43977 175.848187 354.51227 175.848187 
Q 355.132895 175.848187 355.71602 175.696312 
Q 356.299145 175.544437 356.87477 175.238812 
L 356.87477 176.258812 
Q 356.29352 176.504437 355.684145 176.633812 
Q 355.07477 176.763187 354.44852 176.763187 
Q 352.87727 176.763187 351.960395 175.850062 
Q 351.04352 174.935062 351.04352 173.375062 
Q 351.04352 171.764437 351.91352 170.819437 
Q 352.78352 169.872562 354.26102 169.872562 
Q 355.58477 169.872562 356.355395 170.725687 
Q 357.12602 171.576937 357.12602 173.041312 
z
M 356.047895 172.724437 
Q 356.036645 171.841312 355.552895 171.314437 
Q 355.069145 170.785687 354.27227 170.785687 
Q 353.370395 170.785687 352.82852 171.295687 
Q 352.286645 171.805687 352.204145 172.731937 
L 356.047895 172.724437 
z
M 359.937583 175.608187 
L 359.937583 179.088187 
L 358.853833 179.088187 
L 358.853833 170.030062 
L 359.937583 170.030062 
L 359.937583 171.025687 
Q 360.278833 170.440687 360.796333 170.157562 
Q 361.315708 169.872562 362.035708 169.872562 
Q 363.231958 169.872562 363.978208 170.821312 
Q 364.726333 171.770062 364.726333 173.316937 
Q 364.726333 174.863812 363.978208 175.814437 
Q 363.231958 176.763187 362.035708 176.763187 
Q 361.315708 176.763187 360.796333 176.478187 
Q 360.278833 176.193187 359.937583 175.608187 
z
M 363.606958 173.316937 
Q 363.606958 172.128187 363.117583 171.451312 
Q 362.628208 170.774437 361.773208 170.774437 
Q 360.916333 170.774437 360.426958 171.451312 
Q 359.937583 172.128187 359.937583 173.316937 
Q 359.937583 174.505687 360.426958 175.182562 
Q 360.916333 175.859437 361.773208 175.859437 
Q 362.628208 175.859437 363.117583 175.182562 
Q 363.606958 174.505687 363.606958 173.316937 
z
M 367.579145 168.166312 
L 367.579145 170.030062 
L 369.799145 170.030062 
L 369.799145 170.868187 
L 367.579145 170.868187 
L 367.579145 174.430687 
Q 367.579145 175.233187 367.79852 175.461937 
Q 368.017895 175.690687 368.692895 175.690687 
L 369.799145 175.690687 
L 369.799145 176.592562 
L 368.692895 176.592562 
Q 367.444145 176.592562 366.96977 176.127562 
Q 366.495395 175.660687 366.495395 174.430687 
L 366.495395 170.868187 
L 365.704145 170.868187 
L 365.704145 170.030062 
L 366.495395 170.030062 
L 366.495395 168.166312 
L 367.579145 168.166312 
z
M 373.759848 170.785687 
Q 372.893598 170.785687 372.389223 171.462562 
Q 371.884848 172.139437 371.884848 173.316937 
Q 371.884848 174.494437 372.385473 175.171312 
Q 372.887973 175.848187 373.759848 175.848187 
Q 374.622348 175.848187 375.124848 175.169437 
Q 375.629223 174.488812 375.629223 173.316937 
Q 375.629223 172.150687 375.124848 171.468187 
Q 374.622348 170.785687 373.759848 170.785687 
z
M 373.759848 169.872562 
Q 375.166098 169.872562 375.968598 170.787562 
Q 376.772973 171.700687 376.772973 173.316937 
Q 376.772973 174.927562 375.968598 175.846312 
Q 375.166098 176.763187 373.759848 176.763187 
Q 372.347973 176.763187 371.547348 175.846312 
Q 370.748598 174.927562 370.748598 173.316937 
Q 370.748598 171.700687 371.547348 170.787562 
Q 372.347973 169.872562 373.759848 169.872562 
z
M 382.361645 171.036937 
Q 382.17977 170.931937 381.96602 170.883187 
Q 381.75227 170.832562 381.495395 170.832562 
Q 380.580395 170.832562 380.09102 171.426937 
Q 379.601645 172.021312 379.601645 173.135062 
L 379.601645 176.592562 
L 378.517895 176.592562 
L 378.517895 170.030062 
L 379.601645 170.030062 
L 379.601645 171.050062 
Q 379.942895 170.451937 380.486645 170.163187 
Q 381.03227 169.872562 381.81227 169.872562 
Q 381.922895 169.872562 382.057895 169.887562 
Q 382.192895 169.900687 382.35602 169.930687 
L 382.361645 171.036937 
z
M 390.290317 173.294437 
Q 388.983442 173.294437 388.479067 173.592562 
Q 387.974692 173.890687 387.974692 174.612562 
Q 387.974692 175.186312 388.353442 175.523812 
Q 388.732192 175.859437 389.380942 175.859437 
Q 390.279067 175.859437 390.820942 175.223812 
Q 391.362817 174.588187 391.362817 173.534437 
L 391.362817 173.294437 
L 390.290317 173.294437 
z
M 392.440942 172.848187 
L 392.440942 176.592562 
L 391.362817 176.592562 
L 391.362817 175.596937 
Q 390.993442 176.193187 390.442192 176.478187 
Q 389.890942 176.763187 389.094067 176.763187 
Q 388.087192 176.763187 387.490942 176.196937 
Q 386.896567 175.630687 386.896567 174.681937 
Q 386.896567 173.575687 387.637192 173.013187 
Q 388.379692 172.450687 389.849692 172.450687 
L 391.362817 172.450687 
L 391.362817 172.343812 
Q 391.362817 171.599437 390.873442 171.192562 
Q 390.384067 170.785687 389.499067 170.785687 
Q 388.936567 170.785687 388.402192 170.920687 
Q 387.869692 171.055687 387.378442 171.325687 
L 387.378442 170.328187 
Q 387.969067 170.099437 388.525942 169.986937 
Q 389.082817 169.872562 389.609692 169.872562 
Q 391.034692 169.872562 391.737817 170.611312 
Q 392.440942 171.348187 392.440942 172.848187 
z
M 394.660708 167.474437 
L 395.738833 167.474437 
L 395.738833 176.592562 
L 394.660708 176.592562 
L 394.660708 167.474437 
z
M 399.037192 175.608187 
L 399.037192 179.088187 
L 397.953442 179.088187 
L 397.953442 170.030062 
L 399.037192 170.030062 
L 399.037192 171.025687 
Q 399.378442 170.440687 399.895942 170.157562 
Q 400.415317 169.872562 401.135317 169.872562 
Q 402.331567 169.872562 403.077817 170.821312 
Q 403.825942 171.770062 403.825942 173.316937 
Q 403.825942 174.863812 403.077817 175.814437 
Q 402.331567 176.763187 401.135317 176.763187 
Q 400.415317 176.763187 399.895942 176.478187 
Q 399.378442 176.193187 399.037192 175.608187 
z
M 402.706567 173.316937 
Q 402.706567 172.128187 402.217192 171.451312 
Q 401.727817 170.774437 400.872817 170.774437 
Q 400.015942 170.774437 399.526567 171.451312 
Q 399.037192 172.128187 399.037192 173.316937 
Q 399.037192 174.505687 399.526567 175.182562 
Q 400.015942 175.859437 400.872817 175.859437 
Q 401.727817 175.859437 402.217192 175.182562 
Q 402.706567 174.505687 402.706567 173.316937 
z
M 411.06813 172.630687 
L 411.06813 176.592562 
L 409.990005 176.592562 
L 409.990005 172.666312 
Q 409.990005 171.734437 409.626255 171.273187 
Q 409.262505 170.810062 408.53688 170.810062 
Q 407.66313 170.810062 407.158755 171.366937 
Q 406.65438 171.921937 406.65438 172.883812 
L 406.65438 176.592562 
L 405.57063 176.592562 
L 405.57063 167.474437 
L 406.65438 167.474437 
L 406.65438 171.050062 
Q 407.042505 170.457562 407.56563 170.165062 
Q 408.09063 169.872562 408.77688 169.872562 
Q 409.907505 169.872562 410.48688 170.571937 
Q 411.06813 171.271312 411.06813 172.630687 
z
M 416.200473 173.294437 
Q 414.893598 173.294437 414.389223 173.592562 
Q 413.884848 173.890687 413.884848 174.612562 
Q 413.884848 175.186312 414.263598 175.523812 
Q 414.642348 175.859437 415.291098 175.859437 
Q 416.189223 175.859437 416.731098 175.223812 
Q 417.272973 174.588187 417.272973 173.534437 
L 417.272973 173.294437 
L 416.200473 173.294437 
z
M 418.351098 172.848187 
L 418.351098 176.592562 
L 417.272973 176.592562 
L 417.272973 175.596937 
Q 416.903598 176.193187 416.352348 176.478187 
Q 415.801098 176.763187 415.004223 176.763187 
Q 413.997348 176.763187 413.401098 176.196937 
Q 412.806723 175.630687 412.806723 174.681937 
Q 412.806723 173.575687 413.547348 173.013187 
Q 414.289848 172.450687 415.759848 172.450687 
L 417.272973 172.450687 
L 417.272973 172.343812 
Q 417.272973 171.599437 416.783598 171.192562 
Q 416.294223 170.785687 415.409223 170.785687 
Q 414.846723 170.785687 414.312348 170.920687 
Q 413.779848 171.055687 413.288598 171.325687 
L 413.288598 170.328187 
Q 413.879223 170.099437 414.436098 169.986937 
Q 414.992973 169.872562 415.519848 169.872562 
Q 416.944848 169.872562 417.647973 170.611312 
Q 418.351098 171.348187 418.351098 172.848187 
z
" clip-path="url(#pba4026efce)" style="fill: #ffffff"/>
    <path d="M 330.177583 181.281187 
L 331.368208 181.281187 
L 331.368208 186.596812 
Q 331.368208 188.003062 331.876333 188.621812 
Q 332.386333 189.238687 333.530083 189.238687 
Q 334.666333 189.238687 335.176333 188.621812 
Q 335.686333 188.003062 335.686333 186.596812 
L 335.686333 181.281187 
L 336.875083 181.281187 
L 336.875083 186.743062 
Q 336.875083 188.453062 336.027583 189.326812 
Q 335.181958 190.200562 333.530083 190.200562 
Q 331.870708 190.200562 331.023208 189.326812 
Q 330.177583 188.453062 330.177583 186.743062 
L 330.177583 181.281187 
z
M 344.505161 186.068062 
L 344.505161 190.029937 
L 343.427036 190.029937 
L 343.427036 186.103687 
Q 343.427036 185.171812 343.063286 184.710562 
Q 342.699536 184.247437 341.973911 184.247437 
Q 341.100161 184.247437 340.595786 184.804312 
Q 340.091411 185.359312 340.091411 186.321187 
L 340.091411 190.029937 
L 339.007661 190.029937 
L 339.007661 183.467437 
L 340.091411 183.467437 
L 340.091411 184.487437 
Q 340.479536 183.894937 341.002661 183.602437 
Q 341.527661 183.309937 342.213911 183.309937 
Q 343.344536 183.309937 343.923911 184.009312 
Q 344.505161 184.708687 344.505161 186.068062 
z
M 346.65438 183.467437 
L 347.732505 183.467437 
L 347.732505 190.029937 
L 346.65438 190.029937 
L 346.65438 183.467437 
z
M 346.65438 180.911812 
L 347.732505 180.911812 
L 347.732505 182.278687 
L 346.65438 182.278687 
L 346.65438 180.911812 
z
M 351.218364 182.254312 
L 351.218364 185.541187 
L 352.707114 185.541187 
Q 353.533989 185.541187 353.983989 185.113687 
Q 354.435864 184.686187 354.435864 183.894937 
Q 354.435864 183.109312 353.983989 182.681812 
Q 353.533989 182.254312 352.707114 182.254312 
L 351.218364 182.254312 
z
M 350.035239 181.281187 
L 352.707114 181.281187 
Q 354.178989 181.281187 354.930864 181.946812 
Q 355.684614 182.612437 355.684614 183.894937 
Q 355.684614 185.190562 354.930864 185.852437 
Q 354.178989 186.514312 352.707114 186.514312 
L 351.218364 186.514312 
L 351.218364 190.029937 
L 350.035239 190.029937 
L 350.035239 181.281187 
z
M 360.817192 184.474312 
Q 360.635317 184.369312 360.421567 184.320562 
Q 360.207817 184.269937 359.950942 184.269937 
Q 359.035942 184.269937 358.546567 184.864312 
Q 358.057192 185.458687 358.057192 186.572437 
L 358.057192 190.029937 
L 356.973442 190.029937 
L 356.973442 183.467437 
L 358.057192 183.467437 
L 358.057192 184.487437 
Q 358.398442 183.889312 358.942192 183.600562 
Q 359.487817 183.309937 360.267817 183.309937 
Q 360.378442 183.309937 360.513442 183.324937 
Q 360.648442 183.338062 360.811567 183.368062 
L 360.817192 184.474312 
z
M 364.220786 184.223062 
Q 363.354536 184.223062 362.850161 184.899937 
Q 362.345786 185.576812 362.345786 186.754312 
Q 362.345786 187.931812 362.846411 188.608687 
Q 363.348911 189.285562 364.220786 189.285562 
Q 365.083286 189.285562 365.585786 188.606812 
Q 366.090161 187.926187 366.090161 186.754312 
Q 366.090161 185.588062 365.585786 184.905562 
Q 365.083286 184.223062 364.220786 184.223062 
z
M 364.220786 183.309937 
Q 365.627036 183.309937 366.429536 184.224937 
Q 367.233911 185.138062 367.233911 186.754312 
Q 367.233911 188.364937 366.429536 189.283687 
Q 365.627036 190.200562 364.220786 190.200562 
Q 362.808911 190.200562 362.008286 189.283687 
Q 361.209536 188.364937 361.209536 186.754312 
Q 361.209536 185.138062 362.008286 184.224937 
Q 362.808911 183.309937 364.220786 183.309937 
z
M 370.086958 181.603687 
L 370.086958 183.467437 
L 372.306958 183.467437 
L 372.306958 184.305562 
L 370.086958 184.305562 
L 370.086958 187.868062 
Q 370.086958 188.670562 370.306333 188.899312 
Q 370.525708 189.128062 371.200708 189.128062 
L 372.306958 189.128062 
L 372.306958 190.029937 
L 371.200708 190.029937 
Q 369.951958 190.029937 369.477583 189.564937 
Q 369.003208 189.098062 369.003208 187.868062 
L 369.003208 184.305562 
L 368.211958 184.305562 
L 368.211958 183.467437 
L 369.003208 183.467437 
L 369.003208 181.603687 
L 370.086958 181.603687 
z
M 374.000786 188.541187 
L 375.236411 188.541187 
L 375.236411 190.029937 
L 374.000786 190.029937 
L 374.000786 188.541187 
z
M 374.000786 183.825562 
L 375.236411 183.825562 
L 375.236411 185.312437 
L 374.000786 185.312437 
L 374.000786 183.825562 
z
M 378.99813 182.254312 
L 378.99813 185.541187 
L 380.48688 185.541187 
Q 381.313755 185.541187 381.763755 185.113687 
Q 382.21563 184.686187 382.21563 183.894937 
Q 382.21563 183.109312 381.763755 182.681812 
Q 381.313755 182.254312 380.48688 182.254312 
L 378.99813 182.254312 
z
M 377.815005 181.281187 
L 380.48688 181.281187 
Q 381.958755 181.281187 382.71063 181.946812 
Q 383.46438 182.612437 383.46438 183.894937 
Q 383.46438 185.190562 382.71063 185.852437 
Q 381.958755 186.514312 380.48688 186.514312 
L 378.99813 186.514312 
L 378.99813 190.029937 
L 377.815005 190.029937 
L 377.815005 181.281187 
z
M 387.687583 182.061187 
Q 386.774458 182.061187 386.313208 182.961187 
Q 385.853833 183.859312 385.853833 185.664937 
Q 385.853833 187.463062 386.313208 188.363062 
Q 386.774458 189.263062 387.687583 189.263062 
Q 388.608208 189.263062 389.067583 188.363062 
Q 389.528833 187.463062 389.528833 185.664937 
Q 389.528833 183.859312 389.067583 182.961187 
Q 388.608208 182.061187 387.687583 182.061187 
z
M 387.687583 181.123687 
Q 389.159458 181.123687 389.935708 182.288062 
Q 390.711958 183.450562 390.711958 185.664937 
Q 390.711958 187.873687 389.935708 189.038062 
Q 389.159458 190.200562 387.687583 190.200562 
Q 386.217583 190.200562 385.441333 189.038062 
Q 384.665083 187.873687 384.665083 185.664937 
Q 384.665083 183.450562 385.441333 182.288062 
Q 386.217583 181.123687 387.687583 181.123687 
z
M 396.377973 185.312437 
Q 397.227348 185.494312 397.703598 186.069937 
Q 398.181723 186.643687 398.181723 187.487437 
Q 398.181723 188.781187 397.291098 189.491812 
Q 396.400473 190.200562 394.759848 190.200562 
Q 394.210473 190.200562 393.627348 190.091812 
Q 393.044223 189.983062 392.423598 189.765562 
L 392.423598 188.623687 
Q 392.914848 188.910562 393.499848 189.056812 
Q 394.086723 189.203062 394.726098 189.203062 
Q 395.837973 189.203062 396.421098 188.764312 
Q 397.004223 188.325562 397.004223 187.487437 
Q 397.004223 186.713062 396.462348 186.278062 
Q 395.920473 185.841187 394.954848 185.841187 
L 393.934848 185.841187 
L 393.934848 184.868062 
L 395.001723 184.868062 
Q 395.873598 184.868062 396.336723 184.519312 
Q 396.799848 184.170562 396.799848 183.514312 
Q 396.799848 182.841187 396.321723 182.481187 
Q 395.845473 182.119312 394.954848 182.119312 
Q 394.467348 182.119312 393.910473 182.226187 
Q 393.353598 182.331187 392.686098 182.552437 
L 392.686098 181.498687 
Q 393.361098 181.311187 393.949848 181.217437 
Q 394.538598 181.123687 395.059848 181.123687 
Q 396.407973 181.123687 397.191723 181.736812 
Q 397.977348 182.348062 397.977348 183.390562 
Q 397.977348 184.118062 397.561098 184.618687 
Q 397.144848 185.119312 396.377973 185.312437 
z
M 404.012739 185.312437 
Q 404.862114 185.494312 405.338364 186.069937 
Q 405.816489 186.643687 405.816489 187.487437 
Q 405.816489 188.781187 404.925864 189.491812 
Q 404.035239 190.200562 402.394614 190.200562 
Q 401.845239 190.200562 401.262114 190.091812 
Q 400.678989 189.983062 400.058364 189.765562 
L 400.058364 188.623687 
Q 400.549614 188.910562 401.134614 189.056812 
Q 401.721489 189.203062 402.360864 189.203062 
Q 403.472739 189.203062 404.055864 188.764312 
Q 404.638989 188.325562 404.638989 187.487437 
Q 404.638989 186.713062 404.097114 186.278062 
Q 403.555239 185.841187 402.589614 185.841187 
L 401.569614 185.841187 
L 401.569614 184.868062 
L 402.636489 184.868062 
Q 403.508364 184.868062 403.971489 184.519312 
Q 404.434614 184.170562 404.434614 183.514312 
Q 404.434614 182.841187 403.956489 182.481187 
Q 403.480239 182.119312 402.589614 182.119312 
Q 402.102114 182.119312 401.545239 182.226187 
Q 400.988364 182.331187 400.320864 182.552437 
L 400.320864 181.498687 
Q 400.995864 181.311187 401.584614 181.217437 
Q 402.173364 181.123687 402.694614 181.123687 
Q 404.042739 181.123687 404.826489 181.736812 
Q 405.612114 182.348062 405.612114 183.390562 
Q 405.612114 184.118062 405.195864 184.618687 
Q 404.779614 185.119312 404.012739 185.312437 
z
M 407.762505 181.281187 
L 413.387505 181.281187 
L 413.387505 181.785562 
L 410.211255 190.029937 
L 408.97563 190.029937 
L 411.96438 182.278687 
L 407.762505 182.278687 
L 407.762505 181.281187 
z
M 416.715395 189.034312 
L 420.84602 189.034312 
L 420.84602 190.029937 
L 415.29227 190.029937 
L 415.29227 189.034312 
Q 415.965395 188.336812 417.127895 187.163062 
Q 418.29227 185.987437 418.590395 185.646187 
Q 419.15852 185.008687 419.38352 184.566187 
Q 419.610395 184.123687 419.610395 183.696187 
Q 419.610395 182.998687 419.12102 182.559937 
Q 418.631645 182.119312 417.84602 182.119312 
Q 417.289145 182.119312 416.670395 182.312437 
Q 416.05352 182.505562 415.350395 182.899312 
L 415.350395 181.703062 
Q 416.06477 181.416187 416.685395 181.269937 
Q 417.307895 181.123687 417.82352 181.123687 
Q 419.182895 181.123687 419.99102 181.804312 
Q 420.799145 182.483062 420.799145 183.619312 
Q 420.799145 184.159312 420.596645 184.643062 
Q 420.39602 185.124937 419.861645 185.781187 
Q 419.715395 185.951812 418.92977 186.763687 
Q 418.14602 187.575562 416.715395 189.034312 
z
" clip-path="url(#pba4026efce)" style="fill: #ffffff; stroke: #000000; stroke-width: 2"/>
    <path d="M 330.177583 181.281187 
L 331.368208 181.281187 
L 331.368208 186.596812 
Q 331.368208 188.003062 331.876333 188.621812 
Q 332.386333 189.238687 333.530083 189.238687 
Q 334.666333 189.238687 335.176333 188.621812 
Q 335.686333 188.003062 335.686333 186.596812 
L 335.686333 181.281187 
L 336.875083 181.281187 
L 336.875083 186.743062 
Q 336.875083 188.453062 336.027583 189.326812 
Q 335.181958 190.200562 333.530083 190.200562 
Q 331.870708 190.200562 331.023208 189.326812 
Q 330.177583 188.453062 330.177583 186.743062 
L 330.177583 181.281187 
z
M 344.505161 186.068062 
L 344.505161 190.029937 
L 343.427036 190.029937 
L 343.427036 186.103687 
Q 343.427036 185.171812 343.063286 184.710562 
Q 342.699536 184.247437 341.973911 184.247437 
Q 341.100161 184.247437 340.595786 184.804312 
Q 340.091411 185.359312 340.091411 186.321187 
L 340.091411 190.029937 
L 339.007661 190.029937 
L 339.007661 183.467437 
L 340.091411 183.467437 
L 340.091411 184.487437 
Q 340.479536 183.894937 341.002661 183.602437 
Q 341.527661 183.309937 342.213911 183.309937 
Q 343.344536 183.309937 343.923911 184.009312 
Q 344.505161 184.708687 344.505161 186.068062 
z
M 346.65438 183.467437 
L 347.732505 183.467437 
L 347.732505 190.029937 
L 346.65438 190.029937 
L 346.65438 183.467437 
z
M 346.65438 180.911812 
L 347.732505 180.911812 
L 347.732505 182.278687 
L 346.65438 182.278687 
L 346.65438 180.911812 
z
M 351.218364 182.254312 
L 351.218364 185.541187 
L 352.707114 185.541187 
Q 353.533989 185.541187 353.983989 185.113687 
Q 354.435864 184.686187 354.435864 183.894937 
Q 354.435864 183.109312 353.983989 182.681812 
Q 353.533989 182.254312 352.707114 182.254312 
L 351.218364 182.254312 
z
M 350.035239 181.281187 
L 352.707114 181.281187 
Q 354.178989 181.281187 354.930864 181.946812 
Q 355.684614 182.612437 355.684614 183.894937 
Q 355.684614 185.190562 354.930864 185.852437 
Q 354.178989 186.514312 352.707114 186.514312 
L 351.218364 186.514312 
L 351.218364 190.029937 
L 350.035239 190.029937 
L 350.035239 181.281187 
z
M 360.817192 184.474312 
Q 360.635317 184.369312 360.421567 184.320562 
Q 360.207817 184.269937 359.950942 184.269937 
Q 359.035942 184.269937 358.546567 184.864312 
Q 358.057192 185.458687 358.057192 186.572437 
L 358.057192 190.029937 
L 356.973442 190.029937 
L 356.973442 183.467437 
L 358.057192 183.467437 
L 358.057192 184.487437 
Q 358.398442 183.889312 358.942192 183.600562 
Q 359.487817 183.309937 360.267817 183.309937 
Q 360.378442 183.309937 360.513442 183.324937 
Q 360.648442 183.338062 360.811567 183.368062 
L 360.817192 184.474312 
z
M 364.220786 184.223062 
Q 363.354536 184.223062 362.850161 184.899937 
Q 362.345786 185.576812 362.345786 186.754312 
Q 362.345786 187.931812 362.846411 188.608687 
Q 363.348911 189.285562 364.220786 189.285562 
Q 365.083286 189.285562 365.585786 188.606812 
Q 366.090161 187.926187 366.090161 186.754312 
Q 366.090161 185.588062 365.585786 184.905562 
Q 365.083286 184.223062 364.220786 184.223062 
z
M 364.220786 183.309937 
Q 365.627036 183.309937 366.429536 184.224937 
Q 367.233911 185.138062 367.233911 186.754312 
Q 367.233911 188.364937 366.429536 189.283687 
Q 365.627036 190.200562 364.220786 190.200562 
Q 362.808911 190.200562 362.008286 189.283687 
Q 361.209536 188.364937 361.209536 186.754312 
Q 361.209536 185.138062 362.008286 184.224937 
Q 362.808911 183.309937 364.220786 183.309937 
z
M 370.086958 181.603687 
L 370.086958 183.467437 
L 372.306958 183.467437 
L 372.306958 184.305562 
L 370.086958 184.305562 
L 370.086958 187.868062 
Q 370.086958 188.670562 370.306333 188.899312 
Q 370.525708 189.128062 371.200708 189.128062 
L 372.306958 189.128062 
L 372.306958 190.029937 
L 371.200708 190.029937 
Q 369.951958 190.029937 369.477583 189.564937 
Q 369.003208 189.098062 369.003208 187.868062 
L 369.003208 184.305562 
L 368.211958 184.305562 
L 368.211958 183.467437 
L 369.003208 183.467437 
L 369.003208 181.603687 
L 370.086958 181.603687 
z
M 374.000786 188.541187 
L 375.236411 188.541187 
L 375.236411 190.029937 
L 374.000786 190.029937 
L 374.000786 188.541187 
z
M 374.000786 183.825562 
L 375.236411 183.825562 
L 375.236411 185.312437 
L 374.000786 185.312437 
L 374.000786 183.825562 
z
M 378.99813 182.254312 
L 378.99813 185.541187 
L 380.48688 185.541187 
Q 381.313755 185.541187 381.763755 185.113687 
Q 382.21563 184.686187 382.21563 183.894937 
Q 382.21563 183.109312 381.763755 182.681812 
Q 381.313755 182.254312 380.48688 182.254312 
L 378.99813 182.254312 
z
M 377.815005 181.281187 
L 380.48688 181.281187 
Q 381.958755 181.281187 382.71063 181.946812 
Q 383.46438 182.612437 383.46438 183.894937 
Q 383.46438 185.190562 382.71063 185.852437 
Q 381.958755 186.514312 380.48688 186.514312 
L 378.99813 186.514312 
L 378.99813 190.029937 
L 377.815005 190.029937 
L 377.815005 181.281187 
z
M 387.687583 182.061187 
Q 386.774458 182.061187 386.313208 182.961187 
Q 385.853833 183.859312 385.853833 185.664937 
Q 385.853833 187.463062 386.313208 188.363062 
Q 386.774458 189.263062 387.687583 189.263062 
Q 388.608208 189.263062 389.067583 188.363062 
Q 389.528833 187.463062 389.528833 185.664937 
Q 389.528833 183.859312 389.067583 182.961187 
Q 388.608208 182.061187 387.687583 182.061187 
z
M 387.687583 181.123687 
Q 389.159458 181.123687 389.935708 182.288062 
Q 390.711958 183.450562 390.711958 185.664937 
Q 390.711958 187.873687 389.935708 189.038062 
Q 389.159458 190.200562 387.687583 190.200562 
Q 386.217583 190.200562 385.441333 189.038062 
Q 384.665083 187.873687 384.665083 185.664937 
Q 384.665083 183.450562 385.441333 182.288062 
Q 386.217583 181.123687 387.687583 181.123687 
z
M 396.377973 185.312437 
Q 397.227348 185.494312 397.703598 186.069937 
Q 398.181723 186.643687 398.181723 187.487437 
Q 398.181723 188.781187 397.291098 189.491812 
Q 396.400473 190.200562 394.759848 190.200562 
Q 394.210473 190.200562 393.627348 190.091812 
Q 393.044223 189.983062 392.423598 189.765562 
L 392.423598 188.623687 
Q 392.914848 188.910562 393.499848 189.056812 
Q 394.086723 189.203062 394.726098 189.203062 
Q 395.837973 189.203062 396.421098 188.764312 
Q 397.004223 188.325562 397.004223 187.487437 
Q 397.004223 186.713062 396.462348 186.278062 
Q 395.920473 185.841187 394.954848 185.841187 
L 393.934848 185.841187 
L 393.934848 184.868062 
L 395.001723 184.868062 
Q 395.873598 184.868062 396.336723 184.519312 
Q 396.799848 184.170562 396.799848 183.514312 
Q 396.799848 182.841187 396.321723 182.481187 
Q 395.845473 182.119312 394.954848 182.119312 
Q 394.467348 182.119312 393.910473 182.226187 
Q 393.353598 182.331187 392.686098 182.552437 
L 392.686098 181.498687 
Q 393.361098 181.311187 393.949848 181.217437 
Q 394.538598 181.123687 395.059848 181.123687 
Q 396.407973 181.123687 397.191723 181.736812 
Q 397.977348 182.348062 397.977348 183.390562 
Q 397.977348 184.118062 397.561098 184.618687 
Q 397.144848 185.119312 396.377973 185.312437 
z
M 404.012739 185.312437 
Q 404.862114 185.494312 405.338364 186.069937 
Q 405.816489 186.643687 405.816489 187.487437 
Q 405.816489 188.781187 404.925864 189.491812 
Q 404.035239 190.200562 402.394614 190.200562 
Q 401.845239 190.200562 401.262114 190.091812 
Q 400.678989 189.983062 400.058364 189.765562 
L 400.058364 188.623687 
Q 400.549614 188.910562 401.134614 189.056812 
Q 401.721489 189.203062 402.360864 189.203062 
Q 403.472739 189.203062 404.055864 188.764312 
Q 404.638989 188.325562 404.638989 187.487437 
Q 404.638989 186.713062 404.097114 186.278062 
Q 403.555239 185.841187 402.589614 185.841187 
L 401.569614 185.841187 
L 401.569614 184.868062 
L 402.636489 184.868062 
Q 403.508364 184.868062 403.971489 184.519312 
Q 404.434614 184.170562 404.434614 183.514312 
Q 404.434614 182.841187 403.956489 182.481187 
Q 403.480239 182.119312 402.589614 182.119312 
Q 402.102114 182.119312 401.545239 182.226187 
Q 400.988364 182.331187 400.320864 182.552437 
L 400.320864 181.498687 
Q 400.995864 181.311187 401.584614 181.217437 
Q 402.173364 181.123687 402.694614 181.123687 
Q 404.042739 181.123687 404.826489 181.736812 
Q 405.612114 182.348062 405.612114 183.390562 
Q 405.612114 184.118062 405.195864 184.618687 
Q 404.779614 185.119312 404.012739 185.312437 
z
M 407.762505 181.281187 
L 413.387505 181.281187 
L 413.387505 181.785562 
L 410.211255 190.029937 
L 408.97563 190.029937 
L 411.96438 182.278687 
L 407.762505 182.278687 
L 407.762505 181.281187 
z
M 416.715395 189.034312 
L 420.84602 189.034312 
L 420.84602 190.029937 
L 415.29227 190.029937 
L 415.29227 189.034312 
Q 415.965395 188.336812 417.127895 187.163062 
Q 418.29227 185.987437 418.590395 185.646187 
Q 419.15852 185.008687 419.38352 184.566187 
Q 419.610395 184.123687 419.610395 183.696187 
Q 419.610395 182.998687 419.12102 182.559937 
Q 418.631645 182.119312 417.84602 182.119312 
Q 417.289145 182.119312 416.670395 182.312437 
Q 416.05352 182.505562 415.350395 182.899312 
L 415.350395 181.703062 
Q 416.06477 181.416187 416.685395 181.269937 
Q 417.307895 181.123687 417.82352 181.123687 
Q 419.182895 181.123687 419.99102 181.804312 
Q 420.799145 182.483062 420.799145 183.619312 
Q 420.799145 184.159312 420.596645 184.643062 
Q 420.39602 185.124937 419.861645 185.781187 
Q 419.715395 185.951812 418.92977 186.763687 
Q 418.14602 187.575562 416.715395 189.034312 
z
" clip-path="url(#pba4026efce)" style="fill: #ffffff"/>
    <path d="M 356.921645 195.691687 
L 356.921645 198.978562 
L 358.410395 198.978562 
Q 359.23727 198.978562 359.68727 198.551062 
Q 360.139145 198.123562 360.139145 197.332312 
Q 360.139145 196.546687 359.68727 196.119187 
Q 359.23727 195.691687 358.410395 195.691687 
L 356.921645 195.691687 
z
M 355.73852 194.718562 
L 358.410395 194.718562 
Q 359.88227 194.718562 360.634145 195.384187 
Q 361.387895 196.049812 361.387895 197.332312 
Q 361.387895 198.627937 360.634145 199.289812 
Q 359.88227 199.951687 358.410395 199.951687 
L 356.921645 199.951687 
L 356.921645 203.467312 
L 355.73852 203.467312 
L 355.73852 194.718562 
z
M 366.520473 197.911687 
Q 366.338598 197.806687 366.124848 197.757937 
Q 365.911098 197.707312 365.654223 197.707312 
Q 364.739223 197.707312 364.249848 198.301687 
Q 363.760473 198.896062 363.760473 200.009812 
L 363.760473 203.467312 
L 362.676723 203.467312 
L 362.676723 196.904812 
L 363.760473 196.904812 
L 363.760473 197.924812 
Q 364.101723 197.326687 364.645473 197.037937 
Q 365.191098 196.747312 365.971098 196.747312 
Q 366.081723 196.747312 366.216723 196.762312 
Q 366.351723 196.775437 366.514848 196.805437 
L 366.520473 197.911687 
z
M 369.924067 197.660437 
Q 369.057817 197.660437 368.553442 198.337312 
Q 368.049067 199.014187 368.049067 200.191687 
Q 368.049067 201.369187 368.549692 202.046062 
Q 369.052192 202.722937 369.924067 202.722937 
Q 370.786567 202.722937 371.289067 202.044187 
Q 371.793442 201.363562 371.793442 200.191687 
Q 371.793442 199.025437 371.289067 198.342937 
Q 370.786567 197.660437 369.924067 197.660437 
z
M 369.924067 196.747312 
Q 371.330317 196.747312 372.132817 197.662312 
Q 372.937192 198.575437 372.937192 200.191687 
Q 372.937192 201.802312 372.132817 202.721062 
Q 371.330317 203.637937 369.924067 203.637937 
Q 368.512192 203.637937 367.711567 202.721062 
Q 366.912817 201.802312 366.912817 200.191687 
Q 366.912817 198.575437 367.711567 197.662312 
Q 368.512192 196.747312 369.924067 196.747312 
z
M 375.790239 195.041062 
L 375.790239 196.904812 
L 378.010239 196.904812 
L 378.010239 197.742937 
L 375.790239 197.742937 
L 375.790239 201.305437 
Q 375.790239 202.107937 376.009614 202.336687 
Q 376.228989 202.565437 376.903989 202.565437 
L 378.010239 202.565437 
L 378.010239 203.467312 
L 376.903989 203.467312 
Q 375.655239 203.467312 375.180864 203.002312 
Q 374.706489 202.535437 374.706489 201.305437 
L 374.706489 197.742937 
L 373.915239 197.742937 
L 373.915239 196.904812 
L 374.706489 196.904812 
L 374.706489 195.041062 
L 375.790239 195.041062 
z
M 385.042192 199.916062 
L 385.042192 200.442937 
L 380.084692 200.442937 
Q 380.155942 201.556687 380.755942 202.139812 
Q 381.355942 202.722937 382.428442 202.722937 
Q 383.049067 202.722937 383.632192 202.571062 
Q 384.215317 202.419187 384.790942 202.113562 
L 384.790942 203.133562 
Q 384.209692 203.379187 383.600317 203.508562 
Q 382.990942 203.637937 382.364692 203.637937 
Q 380.793442 203.637937 379.876567 202.724812 
Q 378.959692 201.809812 378.959692 200.249812 
Q 378.959692 198.639187 379.829692 197.694187 
Q 380.699692 196.747312 382.177192 196.747312 
Q 383.500942 196.747312 384.271567 197.600437 
Q 385.042192 198.451687 385.042192 199.916062 
z
M 383.964067 199.599187 
Q 383.952817 198.716062 383.469067 198.189187 
Q 382.985317 197.660437 382.188442 197.660437 
Q 381.286567 197.660437 380.744692 198.170437 
Q 380.202817 198.680437 380.120317 199.606687 
L 383.964067 199.599187 
z
M 386.811255 196.904812 
L 387.88938 196.904812 
L 387.88938 203.467312 
L 386.811255 203.467312 
L 386.811255 196.904812 
z
M 386.811255 194.349187 
L 387.88938 194.349187 
L 387.88938 195.716062 
L 386.811255 195.716062 
L 386.811255 194.349187 
z
M 395.601489 199.505437 
L 395.601489 203.467312 
L 394.523364 203.467312 
L 394.523364 199.541062 
Q 394.523364 198.609187 394.159614 198.147937 
Q 393.795864 197.684812 393.070239 197.684812 
Q 392.196489 197.684812 391.692114 198.241687 
Q 391.187739 198.796687 391.187739 199.758562 
L 391.187739 203.467312 
L 390.103989 203.467312 
L 390.103989 196.904812 
L 391.187739 196.904812 
L 391.187739 197.924812 
Q 391.575864 197.332312 392.098989 197.039812 
Q 392.623989 196.747312 393.310239 196.747312 
Q 394.440864 196.747312 395.020239 197.446687 
Q 395.601489 198.146062 395.601489 199.505437 
z
" clip-path="url(#pba4026efce)" style="fill: #ffffff; stroke: #000000; stroke-width: 2"/>
    <path d="M 356.921645 195.691687 
L 356.921645 198.978562 
L 358.410395 198.978562 
Q 359.23727 198.978562 359.68727 198.551062 
Q 360.139145 198.123562 360.139145 197.332312 
Q 360.139145 196.546687 359.68727 196.119187 
Q 359.23727 195.691687 358.410395 195.691687 
L 356.921645 195.691687 
z
M 355.73852 194.718562 
L 358.410395 194.718562 
Q 359.88227 194.718562 360.634145 195.384187 
Q 361.387895 196.049812 361.387895 197.332312 
Q 361.387895 198.627937 360.634145 199.289812 
Q 359.88227 199.951687 358.410395 199.951687 
L 356.921645 199.951687 
L 356.921645 203.467312 
L 355.73852 203.467312 
L 355.73852 194.718562 
z
M 366.520473 197.911687 
Q 366.338598 197.806687 366.124848 197.757937 
Q 365.911098 197.707312 365.654223 197.707312 
Q 364.739223 197.707312 364.249848 198.301687 
Q 363.760473 198.896062 363.760473 200.009812 
L 363.760473 203.467312 
L 362.676723 203.467312 
L 362.676723 196.904812 
L 363.760473 196.904812 
L 363.760473 197.924812 
Q 364.101723 197.326687 364.645473 197.037937 
Q 365.191098 196.747312 365.971098 196.747312 
Q 366.081723 196.747312 366.216723 196.762312 
Q 366.351723 196.775437 366.514848 196.805437 
L 366.520473 197.911687 
z
M 369.924067 197.660437 
Q 369.057817 197.660437 368.553442 198.337312 
Q 368.049067 199.014187 368.049067 200.191687 
Q 368.049067 201.369187 368.549692 202.046062 
Q 369.052192 202.722937 369.924067 202.722937 
Q 370.786567 202.722937 371.289067 202.044187 
Q 371.793442 201.363562 371.793442 200.191687 
Q 371.793442 199.025437 371.289067 198.342937 
Q 370.786567 197.660437 369.924067 197.660437 
z
M 369.924067 196.747312 
Q 371.330317 196.747312 372.132817 197.662312 
Q 372.937192 198.575437 372.937192 200.191687 
Q 372.937192 201.802312 372.132817 202.721062 
Q 371.330317 203.637937 369.924067 203.637937 
Q 368.512192 203.637937 367.711567 202.721062 
Q 366.912817 201.802312 366.912817 200.191687 
Q 366.912817 198.575437 367.711567 197.662312 
Q 368.512192 196.747312 369.924067 196.747312 
z
M 375.790239 195.041062 
L 375.790239 196.904812 
L 378.010239 196.904812 
L 378.010239 197.742937 
L 375.790239 197.742937 
L 375.790239 201.305437 
Q 375.790239 202.107937 376.009614 202.336687 
Q 376.228989 202.565437 376.903989 202.565437 
L 378.010239 202.565437 
L 378.010239 203.467312 
L 376.903989 203.467312 
Q 375.655239 203.467312 375.180864 203.002312 
Q 374.706489 202.535437 374.706489 201.305437 
L 374.706489 197.742937 
L 373.915239 197.742937 
L 373.915239 196.904812 
L 374.706489 196.904812 
L 374.706489 195.041062 
L 375.790239 195.041062 
z
M 385.042192 199.916062 
L 385.042192 200.442937 
L 380.084692 200.442937 
Q 380.155942 201.556687 380.755942 202.139812 
Q 381.355942 202.722937 382.428442 202.722937 
Q 383.049067 202.722937 383.632192 202.571062 
Q 384.215317 202.419187 384.790942 202.113562 
L 384.790942 203.133562 
Q 384.209692 203.379187 383.600317 203.508562 
Q 382.990942 203.637937 382.364692 203.637937 
Q 380.793442 203.637937 379.876567 202.724812 
Q 378.959692 201.809812 378.959692 200.249812 
Q 378.959692 198.639187 379.829692 197.694187 
Q 380.699692 196.747312 382.177192 196.747312 
Q 383.500942 196.747312 384.271567 197.600437 
Q 385.042192 198.451687 385.042192 199.916062 
z
M 383.964067 199.599187 
Q 383.952817 198.716062 383.469067 198.189187 
Q 382.985317 197.660437 382.188442 197.660437 
Q 381.286567 197.660437 380.744692 198.170437 
Q 380.202817 198.680437 380.120317 199.606687 
L 383.964067 199.599187 
z
M 386.811255 196.904812 
L 387.88938 196.904812 
L 387.88938 203.467312 
L 386.811255 203.467312 
L 386.811255 196.904812 
z
M 386.811255 194.349187 
L 387.88938 194.349187 
L 387.88938 195.716062 
L 386.811255 195.716062 
L 386.811255 194.349187 
z
M 395.601489 199.505437 
L 395.601489 203.467312 
L 394.523364 203.467312 
L 394.523364 199.541062 
Q 394.523364 198.609187 394.159614 198.147937 
Q 393.795864 197.684812 393.070239 197.684812 
Q 392.196489 197.684812 391.692114 198.241687 
Q 391.187739 198.796687 391.187739 199.758562 
L 391.187739 203.467312 
L 390.103989 203.467312 
L 390.103989 196.904812 
L 391.187739 196.904812 
L 391.187739 197.924812 
Q 391.575864 197.332312 392.098989 197.039812 
Q 392.623989 196.747312 393.310239 196.747312 
Q 394.440864 196.747312 395.020239 197.446687 
Q 395.601489 198.146062 395.601489 199.505437 
z
" clip-path="url(#pba4026efce)" style="fill: #ffffff"/>
   </g>
   <g id="text_5">
    <g clip-path="url(#pba4026efce)">
     <!-- Estrone -->
     <g transform="translate(67.203998 163.155187)scale(0.12 -0.12)">
      <defs>
       <path id="DejaVuSans-45" d="M 628 4666 
L 3578 4666 
L 3578 4134 
L 1259 4134 
L 1259 2753 
L 3481 2753 
L 3481 2222 
L 1259 2222 
L 1259 531 
L 3634 531 
L 3634 0 
L 628 0 
L 628 4666 
z
" transform="scale(0.015625)"/>
      </defs>
      <use xlink:href="#DejaVuSans-45"/>
      <use xlink:href="#DejaVuSans-73" x="63.183594"/>
      <use xlink:href="#DejaVuSans-74" x="115.283203"/>
      <use xlink:href="#DejaVuSans-72" x="154.492188"/>
      <use xlink:href="#DejaVuSans-6f" x="193.355469"/>
      <use xlink:href="#DejaVuSans-6e" x="254.537109"/>
      <use xlink:href="#DejaVuSans-65" x="317.916016"/>
     </g>
    </g>
    <g clip-path="url(#pba4026efce)">
     <!-- sulphate -->
     <g transform="translate(64.042748 176.592562)scale(0.12 -0.12)">
      <defs>
       <path id="DejaVuSans-75" d="M 544 1381 
L 544 3500 
L 1119 3500 
L 1119 1403 
Q 1119 906 1312 657 
Q 1506 409 1894 409 
Q 2359 409 2629 706 
Q 2900 1003 2900 1516 
L 2900 3500 
L 3475 3500 
L 3475 0 
L 2900 0 
L 2900 538 
Q 2691 219 2414 64 
Q 2138 -91 1772 -91 
Q 1169 -91 856 284 
Q 544 659 544 1381 
z
M 1991 3584 
L 1991 3584 
z
" transform="scale(0.015625)"/>
      </defs>
      <use xlink:href="#DejaVuSans-73"/>
      <use xlink:href="#DejaVuSans-75" x="52.099609"/>
      <use xlink:href="#DejaVuSans-6c" x="115.478516"/>
      <use xlink:href="#DejaVuSans-70" x="143.261719"/>
      <use xlink:href="#DejaVuSans-68" x="206.738281"/>
      <use xlink:href="#DejaVuSans-61" x="270.117188"/>
      <use xlink:href="#DejaVuSans-74" x="331.396484"/>
      <use xlink:href="#DejaVuSans-65" x="370.605469"/>
     </g>
    </g>
    <g clip-path="url(#pba4026efce)">
     <!-- MESH:C009927 -->
     <g transform="translate(43.564935 190.029937)scale(0.12 -0.12)">
      <defs>
       <path id="DejaVuSans-4d" d="M 628 4666 
L 1569 4666 
L 2759 1491 
L 3956 4666 
L 4897 4666 
L 4897 0 
L 4281 0 
L 4281 4097 
L 3078 897 
L 2444 897 
L 1241 4097 
L 1241 0 
L 628 0 
L 628 4666 
z
" transform="scale(0.015625)"/>
       <path id="DejaVuSans-53" d="M 3425 4513 
L 3425 3897 
Q 3066 4069 2747 4153 
Q 2428 4238 2131 4238 
Q 1616 4238 1336 4038 
Q 1056 3838 1056 3469 
Q 1056 3159 1242 3001 
Q 1428 2844 1947 2747 
L 2328 2669 
Q 3034 2534 3370 2195 
Q 3706 1856 3706 1288 
Q 3706 609 3251 259 
Q 2797 -91 1919 -91 
Q 1588 -91 1214 -16 
Q 841 59 441 206 
L 441 856 
Q 825 641 1194 531 
Q 1563 422 1919 422 
Q 2459 422 2753 634 
Q 3047 847 3047 1241 
Q 3047 1584 2836 1778 
Q 2625 1972 2144 2069 
L 1759 2144 
Q 1053 2284 737 2584 
Q 422 2884 422 3419 
Q 422 4038 858 4394 
Q 1294 4750 2059 4750 
Q 2388 4750 2728 4690 
Q 3069 4631 3425 4513 
z
" transform="scale(0.015625)"/>
       <path id="DejaVuSans-48" d="M 628 4666 
L 1259 4666 
L 1259 2753 
L 3553 2753 
L 3553 4666 
L 4184 4666 
L 4184 0 
L 3553 0 
L 3553 2222 
L 1259 2222 
L 1259 0 
L 628 0 
L 628 4666 
z
" transform="scale(0.015625)"/>
       <path id="DejaVuSans-3a" d="M 750 794 
L 1409 794 
L 1409 0 
L 750 0 
L 750 794 
z
M 750 3309 
L 1409 3309 
L 1409 2516 
L 750 2516 
L 750 3309 
z
" transform="scale(0.015625)"/>
       <path id="DejaVuSans-43" d="M 4122 4306 
L 4122 3641 
Q 3803 3938 3442 4084 
Q 3081 4231 2675 4231 
Q 1875 4231 1450 3742 
Q 1025 3253 1025 2328 
Q 1025 1406 1450 917 
Q 1875 428 2675 428 
Q 3081 428 3442 575 
Q 3803 722 4122 1019 
L 4122 359 
Q 3791 134 3420 21 
Q 3050 -91 2638 -91 
Q 1578 -91 968 557 
Q 359 1206 359 2328 
Q 359 3453 968 4101 
Q 1578 4750 2638 4750 
Q 3056 4750 3426 4639 
Q 3797 4528 4122 4306 
z
" transform="scale(0.015625)"/>
       <path id="DejaVuSans-30" d="M 2034 4250 
Q 1547 4250 1301 3770 
Q 1056 3291 1056 2328 
Q 1056 1369 1301 889 
Q 1547 409 2034 409 
Q 2525 409 2770 889 
Q 3016 1369 3016 2328 
Q 3016 3291 2770 3770 
Q 2525 4250 2034 4250 
z
M 2034 4750 
Q 2819 4750 3233 4129 
Q 3647 3509 3647 2328 
Q 3647 1150 3233 529 
Q 2819 -91 2034 -91 
Q 1250 -91 836 529 
Q 422 1150 422 2328 
Q 422 3509 836 4129 
Q 1250 4750 2034 4750 
z
" transform="scale(0.015625)"/>
       <path id="DejaVuSans-39" d="M 703 97 
L 703 672 
Q 941 559 1184 500 
Q 1428 441 1663 441 
Q 2288 441 2617 861 
Q 2947 1281 2994 2138 
Q 2813 1869 2534 1725 
Q 2256 1581 1919 1581 
Q 1219 1581 811 2004 
Q 403 2428 403 3163 
Q 403 3881 828 4315 
Q 1253 4750 1959 4750 
Q 2769 4750 3195 4129 
Q 3622 3509 3622 2328 
Q 3622 1225 3098 567 
Q 2575 -91 1691 -91 
Q 1453 -91 1209 -44 
Q 966 3 703 97 
z
M 1959 2075 
Q 2384 2075 2632 2365 
Q 2881 2656 2881 3163 
Q 2881 3666 2632 3958 
Q 2384 4250 1959 4250 
Q 1534 4250 1286 3958 
Q 1038 3666 1038 3163 
Q 1038 2656 1286 2365 
Q 1534 2075 1959 2075 
z
" transform="scale(0.015625)"/>
       <path id="DejaVuSans-32" d="M 1228 531 
L 3431 531 
L 3431 0 
L 469 0 
L 469 531 
Q 828 903 1448 1529 
Q 2069 2156 2228 2338 
Q 2531 2678 2651 2914 
Q 2772 3150 2772 3378 
Q 2772 3750 2511 3984 
Q 2250 4219 1831 4219 
Q 1534 4219 1204 4116 
Q 875 4013 500 3803 
L 500 4441 
Q 881 4594 1212 4672 
Q 1544 4750 1819 4750 
Q 2544 4750 2975 4387 
Q 3406 4025 3406 3419 
Q 3406 3131 3298 2873 
Q 3191 2616 2906 2266 
Q 2828 2175 2409 1742 
Q 1991 1309 1228 531 
z
" transform="scale(0.015625)"/>
       <path id="DejaVuSans-37" d="M 525 4666 
L 3525 4666 
L 3525 4397 
L 1831 0 
L 1172 0 
L 2766 4134 
L 525 4134 
L 525 4666 
z
" transform="scale(0.015625)"/>
      </defs>
      <use xlink:href="#DejaVuSans-4d"/>
      <use xlink:href="#DejaVuSans-45" x="86.279297"/>
      <use xlink:href="#DejaVuSans-53" x="149.462891"/>
      <use xlink:href="#DejaVuSans-48" x="212.939453"/>
      <use xlink:href="#DejaVuSans-3a" x="288.134766"/>
      <use xlink:href="#DejaVuSans-43" x="321.826172"/>
      <use xlink:href="#DejaVuSans-30" x="391.650391"/>
      <use xlink:href="#DejaVuSans-30" x="455.273438"/>
      <use xlink:href="#DejaVuSans-39" x="518.896484"/>
      <use xlink:href="#DejaVuSans-39" x="582.519531"/>
      <use xlink:href="#DejaVuSans-32" x="646.142578"/>
      <use xlink:href="#DejaVuSans-37" x="709.765625"/>
     </g>
    </g>
    <g clip-path="url(#pba4026efce)">
     <!-- Drug -->
     <g transform="translate(75.272123 203.467312)scale(0.12 -0.12)">
      <defs>
       <path id="DejaVuSans-44" d="M 1259 4147 
L 1259 519 
L 2022 519 
Q 2988 519 3436 956 
Q 3884 1394 3884 2338 
Q 3884 3275 3436 3711 
Q 2988 4147 2022 4147 
L 1259 4147 
z
M 628 4666 
L 1925 4666 
Q 3281 4666 3915 4102 
Q 4550 3538 4550 2338 
Q 4550 1131 3912 565 
Q 3275 0 1925 0 
L 628 0 
L 628 4666 
z
" transform="scale(0.015625)"/>
      </defs>
      <use xlink:href="#DejaVuSans-44"/>
      <use xlink:href="#DejaVuSans-72" x="77.001953"/>
      <use xlink:href="#DejaVuSans-75" x="118.115234"/>
      <use xlink:href="#DejaVuSans-67" x="181.494141"/>
     </g>
    </g>
   </g>
   <g id="text_6">
    <g clip-path="url(#pba4026efce)">
     <!-- Estrogen -->
     <g transform="translate(634.634605 169.873875)scale(0.12 -0.12)">
      <use xlink:href="#DejaVuSans-45"/>
      <use xlink:href="#DejaVuSans-73" x="63.183594"/>
      <use xlink:href="#DejaVuSans-74" x="115.283203"/>
      <use xlink:href="#DejaVuSans-72" x="154.492188"/>
      <use xlink:href="#DejaVuSans-6f" x="193.355469"/>
      <use xlink:href="#DejaVuSans-67" x="254.537109"/>
      <use xlink:href="#DejaVuSans-65" x="318.013672"/>
      <use xlink:href="#DejaVuSans-6e" x="379.537109"/>
     </g>
    </g>
    <g clip-path="url(#pba4026efce)">
     <!-- MESH:D004967 -->
     <g transform="translate(614.374292 183.31125)scale(0.12 -0.12)">
      <defs>
       <path id="DejaVuSans-34" d="M 2419 4116 
L 825 1625 
L 2419 1625 
L 2419 4116 
z
M 2253 4666 
L 3047 4666 
L 3047 1625 
L 3713 1625 
L 3713 1100 
L 3047 1100 
L 3047 0 
L 2419 0 
L 2419 1100 
L 313 1100 
L 313 1709 
L 2253 4666 
z
" transform="scale(0.015625)"/>
       <path id="DejaVuSans-36" d="M 2113 2584 
Q 1688 2584 1439 2293 
Q 1191 2003 1191 1497 
Q 1191 994 1439 701 
Q 1688 409 2113 409 
Q 2538 409 2786 701 
Q 3034 994 3034 1497 
Q 3034 2003 2786 2293 
Q 2538 2584 2113 2584 
z
M 3366 4563 
L 3366 3988 
Q 3128 4100 2886 4159 
Q 2644 4219 2406 4219 
Q 1781 4219 1451 3797 
Q 1122 3375 1075 2522 
Q 1259 2794 1537 2939 
Q 1816 3084 2150 3084 
Q 2853 3084 3261 2657 
Q 3669 2231 3669 1497 
Q 3669 778 3244 343 
Q 2819 -91 2113 -91 
Q 1303 -91 875 529 
Q 447 1150 447 2328 
Q 447 3434 972 4092 
Q 1497 4750 2381 4750 
Q 2619 4750 2861 4703 
Q 3103 4656 3366 4563 
z
" transform="scale(0.015625)"/>
      </defs>
      <use xlink:href="#DejaVuSans-4d"/>
      <use xlink:href="#DejaVuSans-45" x="86.279297"/>
      <use xlink:href="#DejaVuSans-53" x="149.462891"/>
      <use xlink:href="#DejaVuSans-48" x="212.939453"/>
      <use xlink:href="#DejaVuSans-3a" x="288.134766"/>
      <use xlink:href="#DejaVuSans-44" x="321.826172"/>
      <use xlink:href="#DejaVuSans-30" x="398.828125"/>
      <use xlink:href="#DejaVuSans-30" x="462.451172"/>
      <use xlink:href="#DejaVuSans-34" x="526.074219"/>
      <use xlink:href="#DejaVuSans-39" x="589.697266"/>
      <use xlink:href="#DejaVuSans-36" x="653.320312"/>
      <use xlink:href="#DejaVuSans-37" x="716.943359"/>
     </g>
    </g>
    <g clip-path="url(#pba4026efce)">
     <!-- ChemicalSubstance -->
     <g transform="translate(602.003042 196.748625)scale(0.12 -0.12)">
      <defs>
       <path id="DejaVuSans-6d" d="M 3328 2828 
Q 3544 3216 3844 3400 
Q 4144 3584 4550 3584 
Q 5097 3584 5394 3201 
Q 5691 2819 5691 2113 
L 5691 0 
L 5113 0 
L 5113 2094 
Q 5113 2597 4934 2840 
Q 4756 3084 4391 3084 
Q 3944 3084 3684 2787 
Q 3425 2491 3425 1978 
L 3425 0 
L 2847 0 
L 2847 2094 
Q 2847 2600 2669 2842 
Q 2491 3084 2119 3084 
Q 1678 3084 1418 2786 
Q 1159 2488 1159 1978 
L 1159 0 
L 581 0 
L 581 3500 
L 1159 3500 
L 1159 2956 
Q 1356 3278 1631 3431 
Q 1906 3584 2284 3584 
Q 2666 3584 2933 3390 
Q 3200 3197 3328 2828 
z
" transform="scale(0.015625)"/>
       <path id="DejaVuSans-62" d="M 3116 1747 
Q 3116 2381 2855 2742 
Q 2594 3103 2138 3103 
Q 1681 3103 1420 2742 
Q 1159 2381 1159 1747 
Q 1159 1113 1420 752 
Q 1681 391 2138 391 
Q 2594 391 2855 752 
Q 3116 1113 3116 1747 
z
M 1159 2969 
Q 1341 3281 1617 3432 
Q 1894 3584 2278 3584 
Q 2916 3584 3314 3078 
Q 3713 2572 3713 1747 
Q 3713 922 3314 415 
Q 2916 -91 2278 -91 
Q 1894 -91 1617 61 
Q 1341 213 1159 525 
L 1159 0 
L 581 0 
L 581 4863 
L 1159 4863 
L 1159 2969 
z
" transform="scale(0.015625)"/>
      </defs>
      <use xlink:href="#DejaVuSans-43"/>
      <use xlink:href="#DejaVuSans-68" x="69.824219"/>
      <use xlink:href="#DejaVuSans-65" x="133.203125"/>
      <use xlink:href="#DejaVuSans-6d" x="194.726562"/>
      <use xlink:href="#DejaVuSans-69" x="292.138672"/>
      <use xlink:href="#DejaVuSans-63" x="319.921875"/>
      <use xlink:href="#DejaVuSans-61" x="374.902344"/>
      <use xlink:href="#DejaVuSans-6c" x="436.181641"/>
      <use xlink:href="#DejaVuSans-53" x="463.964844"/>
      <use xlink:href="#DejaVuSans-75" x="527.441406"/>
      <use xlink:href="#DejaVuSans-62" x="590.820312"/>
      <use xlink:href="#DejaVuSans-73" x="654.296875"/>
      <use xlink:href="#DejaVuSans-74" x="706.396484"/>
      <use xlink:href="#DejaVuSans-61" x="745.605469"/>
      <use xlink:href="#DejaVuSans-6e" x="806.884766"/>
      <use xlink:href="#DejaVuSans-63" x="870.263672"/>
      <use xlink:href="#DejaVuSans-65" x="925.244141"/>
     </g>
    </g>
   </g>
   <g id="text_7">
    <g clip-path="url(#pba4026efce)">
     <!-- Atrophic -->
     <g transform="translate(921.897877 163.155187)scale(0.12 -0.12)">
      <defs>
       <path id="DejaVuSans-41" d="M 2188 4044 
L 1331 1722 
L 3047 1722 
L 2188 4044 
z
M 1831 4666 
L 2547 4666 
L 4325 0 
L 3669 0 
L 3244 1197 
L 1141 1197 
L 716 0 
L 50 0 
L 1831 4666 
z
" transform="scale(0.015625)"/>
      </defs>
      <use xlink:href="#DejaVuSans-41"/>
      <use xlink:href="#DejaVuSans-74" x="66.658203"/>
      <use xlink:href="#DejaVuSans-72" x="105.867188"/>
      <use xlink:href="#DejaVuSans-6f" x="144.730469"/>
      <use xlink:href="#DejaVuSans-70" x="205.912109"/>
      <use xlink:href="#DejaVuSans-68" x="269.388672"/>
      <use xlink:href="#DejaVuSans-69" x="332.767578"/>
      <use xlink:href="#DejaVuSans-63" x="360.550781"/>
     </g>
    </g>
    <g clip-path="url(#pba4026efce)">
     <!-- vaginitis -->
     <g transform="translate(921.511627 176.592562)scale(0.12 -0.12)">
      <use xlink:href="#DejaVuSans-76"/>
      <use xlink:href="#DejaVuSans-61" x="59.179688"/>
      <use xlink:href="#DejaVuSans-67" x="120.458984"/>
      <use xlink:href="#DejaVuSans-69" x="183.935547"/>
      <use xlink:href="#DejaVuSans-6e" x="211.71875"/>
      <use xlink:href="#DejaVuSans-69" x="275.097656"/>
      <use xlink:href="#DejaVuSans-74" x="302.880859"/>
      <use xlink:href="#DejaVuSans-69" x="342.089844"/>
      <use xlink:href="#DejaVuSans-73" x="369.873047"/>
     </g>
    </g>
    <g clip-path="url(#pba4026efce)">
     <!-- MESH:D059268 -->
     <g transform="translate(899.994127 190.029937)scale(0.12 -0.12)">
      <defs>
       <path id="DejaVuSans-35" d="M 691 4666 
L 3169 4666 
L 3169 4134 
L 1269 4134 
L 1269 2991 
Q 1406 3038 1543 3061 
Q 1681 3084 1819 3084 
Q 2600 3084 3056 2656 
Q 3513 2228 3513 1497 
Q 3513 744 3044 326 
Q 2575 -91 1722 -91 
Q 1428 -91 1123 -41 
Q 819 9 494 109 
L 494 744 
Q 775 591 1075 516 
Q 1375 441 1709 441 
Q 2250 441 2565 725 
Q 2881 1009 2881 1497 
Q 2881 1984 2565 2268 
Q 2250 2553 1709 2553 
Q 1456 2553 1204 2497 
Q 953 2441 691 2322 
L 691 4666 
z
" transform="scale(0.015625)"/>
       <path id="DejaVuSans-38" d="M 2034 2216 
Q 1584 2216 1326 1975 
Q 1069 1734 1069 1313 
Q 1069 891 1326 650 
Q 1584 409 2034 409 
Q 2484 409 2743 651 
Q 3003 894 3003 1313 
Q 3003 1734 2745 1975 
Q 2488 2216 2034 2216 
z
M 1403 2484 
Q 997 2584 770 2862 
Q 544 3141 544 3541 
Q 544 4100 942 4425 
Q 1341 4750 2034 4750 
Q 2731 4750 3128 4425 
Q 3525 4100 3525 3541 
Q 3525 3141 3298 2862 
Q 3072 2584 2669 2484 
Q 3125 2378 3379 2068 
Q 3634 1759 3634 1313 
Q 3634 634 3220 271 
Q 2806 -91 2034 -91 
Q 1263 -91 848 271 
Q 434 634 434 1313 
Q 434 1759 690 2068 
Q 947 2378 1403 2484 
z
M 1172 3481 
Q 1172 3119 1398 2916 
Q 1625 2713 2034 2713 
Q 2441 2713 2670 2916 
Q 2900 3119 2900 3481 
Q 2900 3844 2670 4047 
Q 2441 4250 2034 4250 
Q 1625 4250 1398 4047 
Q 1172 3844 1172 3481 
z
" transform="scale(0.015625)"/>
      </defs>
      <use xlink:href="#DejaVuSans-4d"/>
      <use xlink:href="#DejaVuSans-45" x="86.279297"/>
      <use xlink:href="#DejaVuSans-53" x="149.462891"/>
      <use xlink:href="#DejaVuSans-48" x="212.939453"/>
      <use xlink:href="#DejaVuSans-3a" x="288.134766"/>
      <use xlink:href="#DejaVuSans-44" x="321.826172"/>
      <use xlink:href="#DejaVuSans-30" x="398.828125"/>
      <use xlink:href="#DejaVuSans-35" x="462.451172"/>
      <use xlink:href="#DejaVuSans-39" x="526.074219"/>
      <use xlink:href="#DejaVuSans-32" x="589.697266"/>
      <use xlink:href="#DejaVuSans-36" x="653.320312"/>
      <use xlink:href="#DejaVuSans-38" x="716.943359"/>
     </g>
    </g>
    <g clip-path="url(#pba4026efce)">
     <!-- Disease -->
     <g transform="translate(923.231002 203.467312)scale(0.12 -0.12)">
      <use xlink:href="#DejaVuSans-44"/>
      <use xlink:href="#DejaVuSans-69" x="77.001953"/>
      <use xlink:href="#DejaVuSans-73" x="104.785156"/>
      <use xlink:href="#DejaVuSans-65" x="156.884766"/>
      <use xlink:href="#DejaVuSans-61" x="218.408203"/>
      <use xlink:href="#DejaVuSans-73" x="279.6875"/>
      <use xlink:href="#DejaVuSans-65" x="331.787109"/>
     </g>
    </g>
   </g>
  </g>
 </g>
 <defs>
  <clipPath id="pba4026efce">
   <rect x="0" y="0" width="1036.8" height="360"/>
  </clipPath>
 </defs>
</svg>
