<?xml version="1.0" encoding="utf-8" standalone="no"?>
<!DOCTYPE svg PUBLIC "-//W3C//DTD SVG 1.1//EN"
  "http://www.w3.org/Graphics/SVG/1.1/DTD/svg11.dtd">
<svg xmlns:xlink="http://www.w3.org/1999/xlink" width="864pt" height="360pt" viewBox="0 0 864 360" xmlns="http://www.w3.org/2000/svg" version="1.1">
 <metadata>
  <rdf:RDF xmlns:dc="http://purl.org/dc/elements/1.1/" xmlns:cc="http://creativecommons.org/ns#" xmlns:rdf="http://www.w3.org/1999/02/22-rdf-syntax-ns#">
   <cc:Work>
    <dc:type rdf:resource="http://purl.org/dc/dcmitype/StillImage"/>
    <dc:date>2023-02-08T08:51:55.544131</dc:date>
    <dc:format>image/svg+xml</dc:format>
    <dc:creator>
     <cc:Agent>
      <dc:title>Matplotlib v3.5.1, https://matplotlib.org/</dc:title>
     </cc:Agent>
    </dc:creator>
   </cc:Work>
  </rdf:RDF>
 </metadata>
 <defs>
  <style type="text/css">*{stroke-linejoin: round; stroke-linecap: butt}</style>
 </defs>
 <g id="figure_1">
  <g id="patch_1">
   <path d="M 0 360 
L 864 360 
L 864 0 
L 0 0 
z
" style="fill: #ffffff"/>
  </g>
  <g id="axes_1">
   <g id="patch_2">
    <path d="M 127.418126 180 
Q 253.489907 180 376.207585 180 
" clip-path="url(#p4138cc3f02)" style="fill: none; stroke: #2ca02c; stroke-width: 3; stroke-linecap: round"/>
    <path d="M 372.207585 178 
L 376.207585 180 
L 372.207585 182 
L 372.207585 178 
z
" clip-path="url(#p4138cc3f02)" style="fill: #2ca02c; stroke: #2ca02c; stroke-width: 3; stroke-linecap: round"/>
   </g>
   <g id="patch_3">
    <path d="M 484.44292 180 
Q 610.5147 180 733.232378 180 
" clip-path="url(#p4138cc3f02)" style="fill: none; stroke: #2ca02c; stroke-width: 3; stroke-linecap: round"/>
    <path d="M 729.232378 178 
L 733.232378 180 
L 729.232378 182 
L 729.232378 178 
z
" clip-path="url(#p4138cc3f02)" style="fill: #2ca02c; stroke: #2ca02c; stroke-width: 3; stroke-linecap: round"/>
   </g>
   <g id="text_1">
    <g id="patch_4">
     <path d="M 228.118072 193.437969 
L 278.857135 193.437969 
Q 281.857135 193.437969 281.857135 190.437969 
L 281.857135 169.562031 
Q 281.857135 166.562031 278.857135 166.562031 
L 228.118072 166.562031 
Q 225.118072 166.562031 225.118072 169.562031 
L 225.118072 190.437969 
Q 225.118072 193.437969 228.118072 193.437969 
z
" clip-path="url(#p4138cc3f02)" style="fill: #ffffff; stroke: #ffffff; stroke-linejoin: miter"/>
    </g>
    <g clip-path="url(#p4138cc3f02)">
     <!-- decreases -->
     <g transform="translate(228.118072 177.160469)scale(0.1 -0.1)">
      <defs>
       <path id="DejaVuSans-64" d="M 2906 2969 
L 2906 4863 
L 3481 4863 
L 3481 0 
L 2906 0 
L 2906 525 
Q 2725 213 2448 61 
Q 2172 -91 1784 -91 
Q 1150 -91 751 415 
Q 353 922 353 1747 
Q 353 2572 751 3078 
Q 1150 3584 1784 3584 
Q 2172 3584 2448 3432 
Q 2725 3281 2906 2969 
z
M 947 1747 
Q 947 1113 1208 752 
Q 1469 391 1925 391 
Q 2381 391 2643 752 
Q 2906 1113 2906 1747 
Q 2906 2381 2643 2742 
Q 2381 3103 1925 3103 
Q 1469 3103 1208 2742 
Q 947 2381 947 1747 
z
" transform="scale(0.015625)"/>
       <path id="DejaVuSans-65" d="M 3597 1894 
L 3597 1613 
L 953 1613 
Q 991 1019 1311 708 
Q 1631 397 2203 397 
Q 2534 397 2845 478 
Q 3156 559 3463 722 
L 3463 178 
Q 3153 47 2828 -22 
Q 2503 -91 2169 -91 
Q 1331 -91 842 396 
Q 353 884 353 1716 
Q 353 2575 817 3079 
Q 1281 3584 2069 3584 
Q 2775 3584 3186 3129 
Q 3597 2675 3597 1894 
z
M 3022 2063 
Q 3016 2534 2758 2815 
Q 2500 3097 2075 3097 
Q 1594 3097 1305 2825 
Q 1016 2553 972 2059 
L 3022 2063 
z
" transform="scale(0.015625)"/>
       <path id="DejaVuSans-63" d="M 3122 3366 
L 3122 2828 
Q 2878 2963 2633 3030 
Q 2388 3097 2138 3097 
Q 1578 3097 1268 2742 
Q 959 2388 959 1747 
Q 959 1106 1268 751 
Q 1578 397 2138 397 
Q 2388 397 2633 464 
Q 2878 531 3122 666 
L 3122 134 
Q 2881 22 2623 -34 
Q 2366 -91 2075 -91 
Q 1284 -91 818 406 
Q 353 903 353 1747 
Q 353 2603 823 3093 
Q 1294 3584 2113 3584 
Q 2378 3584 2631 3529 
Q 2884 3475 3122 3366 
z
" transform="scale(0.015625)"/>
       <path id="DejaVuSans-72" d="M 2631 2963 
Q 2534 3019 2420 3045 
Q 2306 3072 2169 3072 
Q 1681 3072 1420 2755 
Q 1159 2438 1159 1844 
L 1159 0 
L 581 0 
L 581 3500 
L 1159 3500 
L 1159 2956 
Q 1341 3275 1631 3429 
Q 1922 3584 2338 3584 
Q 2397 3584 2469 3576 
Q 2541 3569 2628 3553 
L 2631 2963 
z
" transform="scale(0.015625)"/>
       <path id="DejaVuSans-61" d="M 2194 1759 
Q 1497 1759 1228 1600 
Q 959 1441 959 1056 
Q 959 750 1161 570 
Q 1363 391 1709 391 
Q 2188 391 2477 730 
Q 2766 1069 2766 1631 
L 2766 1759 
L 2194 1759 
z
M 3341 1997 
L 3341 0 
L 2766 0 
L 2766 531 
Q 2569 213 2275 61 
Q 1981 -91 1556 -91 
Q 1019 -91 701 211 
Q 384 513 384 1019 
Q 384 1609 779 1909 
Q 1175 2209 1959 2209 
L 2766 2209 
L 2766 2266 
Q 2766 2663 2505 2880 
Q 2244 3097 1772 3097 
Q 1472 3097 1187 3025 
Q 903 2953 641 2809 
L 641 3341 
Q 956 3463 1253 3523 
Q 1550 3584 1831 3584 
Q 2591 3584 2966 3190 
Q 3341 2797 3341 1997 
z
" transform="scale(0.015625)"/>
       <path id="DejaVuSans-73" d="M 2834 3397 
L 2834 2853 
Q 2591 2978 2328 3040 
Q 2066 3103 1784 3103 
Q 1356 3103 1142 2972 
Q 928 2841 928 2578 
Q 928 2378 1081 2264 
Q 1234 2150 1697 2047 
L 1894 2003 
Q 2506 1872 2764 1633 
Q 3022 1394 3022 966 
Q 3022 478 2636 193 
Q 2250 -91 1575 -91 
Q 1294 -91 989 -36 
Q 684 19 347 128 
L 347 722 
Q 666 556 975 473 
Q 1284 391 1588 391 
Q 1994 391 2212 530 
Q 2431 669 2431 922 
Q 2431 1156 2273 1281 
Q 2116 1406 1581 1522 
L 1381 1569 
Q 847 1681 609 1914 
Q 372 2147 372 2553 
Q 372 3047 722 3315 
Q 1072 3584 1716 3584 
Q 2034 3584 2315 3537 
Q 2597 3491 2834 3397 
z
" transform="scale(0.015625)"/>
      </defs>
      <use xlink:href="#DejaVuSans-64"/>
      <use xlink:href="#DejaVuSans-65" x="63.476562"/>
      <use xlink:href="#DejaVuSans-63" x="125"/>
      <use xlink:href="#DejaVuSans-72" x="179.980469"/>
      <use xlink:href="#DejaVuSans-65" x="218.84375"/>
      <use xlink:href="#DejaVuSans-61" x="280.367188"/>
      <use xlink:href="#DejaVuSans-73" x="341.646484"/>
      <use xlink:href="#DejaVuSans-65" x="393.746094"/>
      <use xlink:href="#DejaVuSans-73" x="455.269531"/>
     </g>
    </g>
    <g clip-path="url(#p4138cc3f02)">
     <!-- activity of -->
     <g transform="translate(228.648541 188.358281)scale(0.1 -0.1)">
      <defs>
       <path id="DejaVuSans-74" d="M 1172 4494 
L 1172 3500 
L 2356 3500 
L 2356 3053 
L 1172 3053 
L 1172 1153 
Q 1172 725 1289 603 
Q 1406 481 1766 481 
L 2356 481 
L 2356 0 
L 1766 0 
Q 1100 0 847 248 
Q 594 497 594 1153 
L 594 3053 
L 172 3053 
L 172 3500 
L 594 3500 
L 594 4494 
L 1172 4494 
z
" transform="scale(0.015625)"/>
       <path id="DejaVuSans-69" d="M 603 3500 
L 1178 3500 
L 1178 0 
L 603 0 
L 603 3500 
z
M 603 4863 
L 1178 4863 
L 1178 4134 
L 603 4134 
L 603 4863 
z
" transform="scale(0.015625)"/>
       <path id="DejaVuSans-76" d="M 191 3500 
L 800 3500 
L 1894 563 
L 2988 3500 
L 3597 3500 
L 2284 0 
L 1503 0 
L 191 3500 
z
" transform="scale(0.015625)"/>
       <path id="DejaVuSans-79" d="M 2059 -325 
Q 1816 -950 1584 -1140 
Q 1353 -1331 966 -1331 
L 506 -1331 
L 506 -850 
L 844 -850 
Q 1081 -850 1212 -737 
Q 1344 -625 1503 -206 
L 1606 56 
L 191 3500 
L 800 3500 
L 1894 763 
L 2988 3500 
L 3597 3500 
L 2059 -325 
z
" transform="scale(0.015625)"/>
       <path id="DejaVuSans-20" transform="scale(0.015625)"/>
       <path id="DejaVuSans-6f" d="M 1959 3097 
Q 1497 3097 1228 2736 
Q 959 2375 959 1747 
Q 959 1119 1226 758 
Q 1494 397 1959 397 
Q 2419 397 2687 759 
Q 2956 1122 2956 1747 
Q 2956 2369 2687 2733 
Q 2419 3097 1959 3097 
z
M 1959 3584 
Q 2709 3584 3137 3096 
Q 3566 2609 3566 1747 
Q 3566 888 3137 398 
Q 2709 -91 1959 -91 
Q 1206 -91 779 398 
Q 353 888 353 1747 
Q 353 2609 779 3096 
Q 1206 3584 1959 3584 
z
" transform="scale(0.015625)"/>
       <path id="DejaVuSans-66" d="M 2375 4863 
L 2375 4384 
L 1825 4384 
Q 1516 4384 1395 4259 
Q 1275 4134 1275 3809 
L 1275 3500 
L 2222 3500 
L 2222 3053 
L 1275 3053 
L 1275 0 
L 697 0 
L 697 3053 
L 147 3053 
L 147 3500 
L 697 3500 
L 697 3744 
Q 697 4328 969 4595 
Q 1241 4863 1831 4863 
L 2375 4863 
z
" transform="scale(0.015625)"/>
      </defs>
      <use xlink:href="#DejaVuSans-61"/>
      <use xlink:href="#DejaVuSans-63" x="61.279297"/>
      <use xlink:href="#DejaVuSans-74" x="116.259766"/>
      <use xlink:href="#DejaVuSans-69" x="155.46875"/>
      <use xlink:href="#DejaVuSans-76" x="183.251953"/>
      <use xlink:href="#DejaVuSans-69" x="242.431641"/>
      <use xlink:href="#DejaVuSans-74" x="270.214844"/>
      <use xlink:href="#DejaVuSans-79" x="309.423828"/>
      <use xlink:href="#DejaVuSans-20" x="368.603516"/>
      <use xlink:href="#DejaVuSans-6f" x="400.390625"/>
      <use xlink:href="#DejaVuSans-66" x="461.572266"/>
     </g>
    </g>
   </g>
   <g id="text_2">
    <g id="patch_5">
     <path d="M 593.244428 187.839062 
L 627.780365 187.839062 
Q 630.780365 187.839062 630.780365 184.839062 
L 630.780365 175.160937 
Q 630.780365 172.160937 627.780365 172.160937 
L 593.244428 172.160937 
Q 590.244428 172.160937 590.244428 175.160937 
L 590.244428 184.839062 
Q 590.244428 187.839062 593.244428 187.839062 
z
" clip-path="url(#p4138cc3f02)" style="fill: #ffffff; stroke: #ffffff; stroke-linejoin: miter"/>
    </g>
    <g clip-path="url(#p4138cc3f02)">
     <!-- causes -->
     <g transform="translate(593.244428 182.759375)scale(0.1 -0.1)">
      <defs>
       <path id="DejaVuSans-75" d="M 544 1381 
L 544 3500 
L 1119 3500 
L 1119 1403 
Q 1119 906 1312 657 
Q 1506 409 1894 409 
Q 2359 409 2629 706 
Q 2900 1003 2900 1516 
L 2900 3500 
L 3475 3500 
L 3475 0 
L 2900 0 
L 2900 538 
Q 2691 219 2414 64 
Q 2138 -91 1772 -91 
Q 1169 -91 856 284 
Q 544 659 544 1381 
z
M 1991 3584 
L 1991 3584 
z
" transform="scale(0.015625)"/>
      </defs>
      <use xlink:href="#DejaVuSans-63"/>
      <use xlink:href="#DejaVuSans-61" x="54.980469"/>
      <use xlink:href="#DejaVuSans-75" x="116.259766"/>
      <use xlink:href="#DejaVuSans-73" x="179.638672"/>
      <use xlink:href="#DejaVuSans-65" x="231.738281"/>
      <use xlink:href="#DejaVuSans-73" x="293.261719"/>
     </g>
    </g>
   </g>
   <g id="PathCollection_1">
    <defs>
     <path id="C0_0_5a917b4973" d="M 0 52.440442 
C 13.907368 52.440442 27.246998 46.914987 37.080992 37.080992 
C 46.914987 27.246998 52.440442 13.907368 52.440442 -0 
C 52.440442 -13.907368 46.914987 -27.246998 37.080992 -37.080992 
C 27.246998 -46.914987 13.907368 -52.440442 0 -52.440442 
C -13.907368 -52.440442 -27.246998 -46.914987 -37.080992 -37.080992 
C -46.914987 -27.246998 -52.440442 -13.907368 -52.440442 0 
C -52.440442 13.907368 -46.914987 27.246998 -37.080992 37.080992 
C -27.246998 46.914987 -13.907368 52.440442 0 52.440442 
z
"/>
    </defs>
    <g clip-path="url(#p4138cc3f02)">
     <use xlink:href="#C0_0_5a917b4973" x="74.975207" y="180" style="fill: #01c472; stroke: #01c472"/>
    </g>
    <g clip-path="url(#p4138cc3f02)">
     <use xlink:href="#C0_0_5a917b4973" x="432" y="180" style="fill: #e71761; stroke: #e71761"/>
    </g>
    <g clip-path="url(#p4138cc3f02)">
     <use xlink:href="#C0_0_5a917b4973" x="789.024793" y="180" style="fill: #70c6ca; stroke: #70c6ca"/>
    </g>
   </g>
   <g id="text_3">
    <path d="M 408.405 145.540312 
L 408.405 148.744687 
L 410.304375 148.744687 
Q 411.25875 148.744687 411.718125 148.349062 
Q 412.179375 147.953437 412.179375 147.139687 
Q 412.179375 146.318437 411.718125 145.930312 
Q 411.25875 145.540312 410.304375 145.540312 
L 408.405 145.540312 
z
M 408.405 141.942187 
L 408.405 144.578437 
L 410.158125 144.578437 
Q 411.024375 144.578437 411.448125 144.254062 
Q 411.87375 143.927812 411.87375 143.260312 
Q 411.87375 142.598437 411.448125 142.270312 
Q 411.024375 141.942187 410.158125 141.942187 
L 408.405 141.942187 
z
M 407.221875 140.969062 
L 410.24625 140.969062 
Q 411.6 140.969062 412.33125 141.531562 
Q 413.064375 142.094062 413.064375 143.130937 
Q 413.064375 143.935312 412.689375 144.409687 
Q 412.314375 144.884062 411.586875 145.000312 
Q 412.460625 145.187812 412.944375 145.784062 
Q 413.428125 146.378437 413.428125 147.269062 
Q 413.428125 148.440937 412.63125 149.080312 
Q 411.834375 149.717812 410.3625 149.717812 
L 407.221875 149.717812 
L 407.221875 140.969062 
z
M 421.795547 141.644062 
L 421.795547 142.890937 
Q 421.197422 142.334062 420.520547 142.060312 
Q 419.843672 141.784687 419.082422 141.784687 
Q 417.582422 141.784687 416.785547 142.701562 
Q 415.988672 143.618437 415.988672 145.352812 
Q 415.988672 147.081562 416.785547 147.998437 
Q 417.582422 148.915312 419.082422 148.915312 
Q 419.843672 148.915312 420.520547 148.639687 
Q 421.197422 148.364062 421.795547 147.807187 
L 421.795547 149.044687 
Q 421.174922 149.466562 420.479297 149.678437 
Q 419.785547 149.888437 419.013047 149.888437 
Q 417.025547 149.888437 415.881797 148.673437 
Q 414.739922 147.456562 414.739922 145.352812 
Q 414.739922 143.243437 415.881797 142.028437 
Q 417.025547 140.811562 419.013047 140.811562 
Q 419.796797 140.811562 420.490547 141.019687 
Q 421.186172 141.227812 421.795547 141.644062 
z
M 427.772578 145.615312 
Q 428.153203 145.744687 428.513203 146.166562 
Q 428.873203 146.588437 429.236953 147.327187 
L 430.438828 149.717812 
L 429.165703 149.717812 
L 428.048203 147.473437 
Q 427.613203 146.594062 427.206328 146.307187 
Q 426.799453 146.020312 426.096328 146.020312 
L 424.806328 146.020312 
L 424.806328 149.717812 
L 423.623203 149.717812 
L 423.623203 140.969062 
L 426.295078 140.969062 
Q 427.795078 140.969062 428.533828 141.597187 
Q 429.272578 142.223437 429.272578 143.489062 
Q 429.272578 144.315937 428.888203 144.861562 
Q 428.503828 145.405312 427.772578 145.615312 
z
M 424.806328 141.942187 
L 424.806328 145.047187 
L 426.295078 145.047187 
Q 427.150078 145.047187 427.586953 144.651562 
Q 428.023828 144.255937 428.023828 143.489062 
Q 428.023828 142.722187 427.586953 142.332187 
Q 427.150078 141.942187 426.295078 141.942187 
L 424.806328 141.942187 
z
M 433.830469 140.969062 
L 434.826094 140.969062 
L 431.779219 150.831562 
L 430.783594 150.831562 
L 433.830469 140.969062 
z
M 438.929062 142.135312 
L 437.322187 146.489062 
L 440.539687 146.489062 
L 438.929062 142.135312 
z
M 438.259687 140.969062 
L 439.602187 140.969062 
L 442.935937 149.717812 
L 441.705937 149.717812 
L 440.909062 147.473437 
L 436.965937 147.473437 
L 436.169062 149.717812 
L 434.920312 149.717812 
L 438.259687 140.969062 
z
M 445.396172 145.540312 
L 445.396172 148.744687 
L 447.295547 148.744687 
Q 448.249922 148.744687 448.709297 148.349062 
Q 449.170547 147.953437 449.170547 147.139687 
Q 449.170547 146.318437 448.709297 145.930312 
Q 448.249922 145.540312 447.295547 145.540312 
L 445.396172 145.540312 
z
M 445.396172 141.942187 
L 445.396172 144.578437 
L 447.149297 144.578437 
Q 448.015547 144.578437 448.439297 144.254062 
Q 448.864922 143.927812 448.864922 143.260312 
Q 448.864922 142.598437 448.439297 142.270312 
Q 448.015547 141.942187 447.149297 141.942187 
L 445.396172 141.942187 
z
M 444.213047 140.969062 
L 447.237422 140.969062 
Q 448.591172 140.969062 449.322422 141.531562 
Q 450.055547 142.094062 450.055547 143.130937 
Q 450.055547 143.935312 449.680547 144.409687 
Q 449.305547 144.884062 448.578047 145.000312 
Q 449.451797 145.187812 449.935547 145.784062 
Q 450.419297 146.378437 450.419297 147.269062 
Q 450.419297 148.440937 449.622422 149.080312 
Q 448.825547 149.717812 447.353672 149.717812 
L 444.213047 149.717812 
L 444.213047 140.969062 
z
M 452.445469 140.969062 
L 453.628594 140.969062 
L 453.628594 148.722187 
L 457.888594 148.722187 
L 457.888594 149.717812 
L 452.445469 149.717812 
L 452.445469 140.969062 
z
" clip-path="url(#p4138cc3f02)" style="fill: #ffffff; stroke: #000000; stroke-width: 2"/>
    <path d="M 408.405 145.540312 
L 408.405 148.744687 
L 410.304375 148.744687 
Q 411.25875 148.744687 411.718125 148.349062 
Q 412.179375 147.953437 412.179375 147.139687 
Q 412.179375 146.318437 411.718125 145.930312 
Q 411.25875 145.540312 410.304375 145.540312 
L 408.405 145.540312 
z
M 408.405 141.942187 
L 408.405 144.578437 
L 410.158125 144.578437 
Q 411.024375 144.578437 411.448125 144.254062 
Q 411.87375 143.927812 411.87375 143.260312 
Q 411.87375 142.598437 411.448125 142.270312 
Q 411.024375 141.942187 410.158125 141.942187 
L 408.405 141.942187 
z
M 407.221875 140.969062 
L 410.24625 140.969062 
Q 411.6 140.969062 412.33125 141.531562 
Q 413.064375 142.094062 413.064375 143.130937 
Q 413.064375 143.935312 412.689375 144.409687 
Q 412.314375 144.884062 411.586875 145.000312 
Q 412.460625 145.187812 412.944375 145.784062 
Q 413.428125 146.378437 413.428125 147.269062 
Q 413.428125 148.440937 412.63125 149.080312 
Q 411.834375 149.717812 410.3625 149.717812 
L 407.221875 149.717812 
L 407.221875 140.969062 
z
M 421.795547 141.644062 
L 421.795547 142.890937 
Q 421.197422 142.334062 420.520547 142.060312 
Q 419.843672 141.784687 419.082422 141.784687 
Q 417.582422 141.784687 416.785547 142.701562 
Q 415.988672 143.618437 415.988672 145.352812 
Q 415.988672 147.081562 416.785547 147.998437 
Q 417.582422 148.915312 419.082422 148.915312 
Q 419.843672 148.915312 420.520547 148.639687 
Q 421.197422 148.364062 421.795547 147.807187 
L 421.795547 149.044687 
Q 421.174922 149.466562 420.479297 149.678437 
Q 419.785547 149.888437 419.013047 149.888437 
Q 417.025547 149.888437 415.881797 148.673437 
Q 414.739922 147.456562 414.739922 145.352812 
Q 414.739922 143.243437 415.881797 142.028437 
Q 417.025547 140.811562 419.013047 140.811562 
Q 419.796797 140.811562 420.490547 141.019687 
Q 421.186172 141.227812 421.795547 141.644062 
z
M 427.772578 145.615312 
Q 428.153203 145.744687 428.513203 146.166562 
Q 428.873203 146.588437 429.236953 147.327187 
L 430.438828 149.717812 
L 429.165703 149.717812 
L 428.048203 147.473437 
Q 427.613203 146.594062 427.206328 146.307187 
Q 426.799453 146.020312 426.096328 146.020312 
L 424.806328 146.020312 
L 424.806328 149.717812 
L 423.623203 149.717812 
L 423.623203 140.969062 
L 426.295078 140.969062 
Q 427.795078 140.969062 428.533828 141.597187 
Q 429.272578 142.223437 429.272578 143.489062 
Q 429.272578 144.315937 428.888203 144.861562 
Q 428.503828 145.405312 427.772578 145.615312 
z
M 424.806328 141.942187 
L 424.806328 145.047187 
L 426.295078 145.047187 
Q 427.150078 145.047187 427.586953 144.651562 
Q 428.023828 144.255937 428.023828 143.489062 
Q 428.023828 142.722187 427.586953 142.332187 
Q 427.150078 141.942187 426.295078 141.942187 
L 424.806328 141.942187 
z
M 433.830469 140.969062 
L 434.826094 140.969062 
L 431.779219 150.831562 
L 430.783594 150.831562 
L 433.830469 140.969062 
z
M 438.929062 142.135312 
L 437.322187 146.489062 
L 440.539687 146.489062 
L 438.929062 142.135312 
z
M 438.259687 140.969062 
L 439.602187 140.969062 
L 442.935937 149.717812 
L 441.705937 149.717812 
L 440.909062 147.473437 
L 436.965937 147.473437 
L 436.169062 149.717812 
L 434.920312 149.717812 
L 438.259687 140.969062 
z
M 445.396172 145.540312 
L 445.396172 148.744687 
L 447.295547 148.744687 
Q 448.249922 148.744687 448.709297 148.349062 
Q 449.170547 147.953437 449.170547 147.139687 
Q 449.170547 146.318437 448.709297 145.930312 
Q 448.249922 145.540312 447.295547 145.540312 
L 445.396172 145.540312 
z
M 445.396172 141.942187 
L 445.396172 144.578437 
L 447.149297 144.578437 
Q 448.015547 144.578437 448.439297 144.254062 
Q 448.864922 143.927812 448.864922 143.260312 
Q 448.864922 142.598437 448.439297 142.270312 
Q 448.015547 141.942187 447.149297 141.942187 
L 445.396172 141.942187 
z
M 444.213047 140.969062 
L 447.237422 140.969062 
Q 448.591172 140.969062 449.322422 141.531562 
Q 450.055547 142.094062 450.055547 143.130937 
Q 450.055547 143.935312 449.680547 144.409687 
Q 449.305547 144.884062 448.578047 145.000312 
Q 449.451797 145.187812 449.935547 145.784062 
Q 450.419297 146.378437 450.419297 147.269062 
Q 450.419297 148.440937 449.622422 149.080312 
Q 448.825547 149.717812 447.353672 149.717812 
L 444.213047 149.717812 
L 444.213047 140.969062 
z
M 452.445469 140.969062 
L 453.628594 140.969062 
L 453.628594 148.722187 
L 457.888594 148.722187 
L 457.888594 149.717812 
L 452.445469 149.717812 
L 452.445469 140.969062 
z
" clip-path="url(#p4138cc3f02)" style="fill: #ffffff"/>
    <path d="M 410.683125 162.170812 
L 410.683125 165.650812 
L 409.599375 165.650812 
L 409.599375 156.592687 
L 410.683125 156.592687 
L 410.683125 157.588312 
Q 411.024375 157.003312 411.541875 156.720187 
Q 412.06125 156.435187 412.78125 156.435187 
Q 413.9775 156.435187 414.72375 157.383937 
Q 415.471875 158.332687 415.471875 159.879562 
Q 415.471875 161.426437 414.72375 162.377062 
Q 413.9775 163.325812 412.78125 163.325812 
Q 412.06125 163.325812 411.541875 163.040812 
Q 411.024375 162.755812 410.683125 162.170812 
z
M 414.3525 159.879562 
Q 414.3525 158.690812 413.863125 158.013937 
Q 413.37375 157.337062 412.51875 157.337062 
Q 411.661875 157.337062 411.1725 158.013937 
Q 410.683125 158.690812 410.683125 159.879562 
Q 410.683125 161.068312 411.1725 161.745187 
Q 411.661875 162.422062 412.51875 162.422062 
Q 413.37375 162.422062 413.863125 161.745187 
Q 414.3525 161.068312 414.3525 159.879562 
z
M 421.060312 157.599562 
Q 420.878437 157.494562 420.664687 157.445812 
Q 420.450937 157.395187 420.194062 157.395187 
Q 419.279062 157.395187 418.789687 157.989562 
Q 418.300312 158.583937 418.300312 159.697687 
L 418.300312 163.155187 
L 417.216562 163.155187 
L 417.216562 156.592687 
L 418.300312 156.592687 
L 418.300312 157.612687 
Q 418.641562 157.014562 419.185312 156.725812 
Q 419.730937 156.435187 420.510937 156.435187 
Q 420.621562 156.435187 420.756562 156.450187 
Q 420.891562 156.463312 421.054687 156.493312 
L 421.060312 157.599562 
z
M 424.463906 157.348312 
Q 423.597656 157.348312 423.093281 158.025187 
Q 422.588906 158.702062 422.588906 159.879562 
Q 422.588906 161.057062 423.089531 161.733937 
Q 423.592031 162.410812 424.463906 162.410812 
Q 425.326406 162.410812 425.828906 161.732062 
Q 426.333281 161.051437 426.333281 159.879562 
Q 426.333281 158.713312 425.828906 158.030812 
Q 425.326406 157.348312 424.463906 157.348312 
z
M 424.463906 156.435187 
Q 425.870156 156.435187 426.672656 157.350187 
Q 427.477031 158.263312 427.477031 159.879562 
Q 427.477031 161.490187 426.672656 162.408937 
Q 425.870156 163.325812 424.463906 163.325812 
Q 423.052031 163.325812 422.251406 162.408937 
Q 421.452656 161.490187 421.452656 159.879562 
Q 421.452656 158.263312 422.251406 157.350187 
Q 423.052031 156.435187 424.463906 156.435187 
z
M 430.330078 154.728937 
L 430.330078 156.592687 
L 432.550078 156.592687 
L 432.550078 157.430812 
L 430.330078 157.430812 
L 430.330078 160.993312 
Q 430.330078 161.795812 430.549453 162.024562 
Q 430.768828 162.253312 431.443828 162.253312 
L 432.550078 162.253312 
L 432.550078 163.155187 
L 431.443828 163.155187 
Q 430.195078 163.155187 429.720703 162.690187 
Q 429.246328 162.223312 429.246328 160.993312 
L 429.246328 157.430812 
L 428.455078 157.430812 
L 428.455078 156.592687 
L 429.246328 156.592687 
L 429.246328 154.728937 
L 430.330078 154.728937 
z
M 439.582031 159.603937 
L 439.582031 160.130812 
L 434.624531 160.130812 
Q 434.695781 161.244562 435.295781 161.827687 
Q 435.895781 162.410812 436.968281 162.410812 
Q 437.588906 162.410812 438.172031 162.258937 
Q 438.755156 162.107062 439.330781 161.801437 
L 439.330781 162.821437 
Q 438.749531 163.067062 438.140156 163.196437 
Q 437.530781 163.325812 436.904531 163.325812 
Q 435.333281 163.325812 434.416406 162.412687 
Q 433.499531 161.497687 433.499531 159.937687 
Q 433.499531 158.327062 434.369531 157.382062 
Q 435.239531 156.435187 436.717031 156.435187 
Q 438.040781 156.435187 438.811406 157.288312 
Q 439.582031 158.139562 439.582031 159.603937 
z
M 438.503906 159.287062 
Q 438.492656 158.403937 438.008906 157.877062 
Q 437.525156 157.348312 436.728281 157.348312 
Q 435.826406 157.348312 435.284531 157.858312 
Q 434.742656 158.368312 434.660156 159.294562 
L 438.503906 159.287062 
z
M 441.351094 156.592687 
L 442.429219 156.592687 
L 442.429219 163.155187 
L 441.351094 163.155187 
L 441.351094 156.592687 
z
M 441.351094 154.037062 
L 442.429219 154.037062 
L 442.429219 155.403937 
L 441.351094 155.403937 
L 441.351094 154.037062 
z
M 450.141328 159.193312 
L 450.141328 163.155187 
L 449.063203 163.155187 
L 449.063203 159.228937 
Q 449.063203 158.297062 448.699453 157.835812 
Q 448.335703 157.372687 447.610078 157.372687 
Q 446.736328 157.372687 446.231953 157.929562 
Q 445.727578 158.484562 445.727578 159.446437 
L 445.727578 163.155187 
L 444.643828 163.155187 
L 444.643828 156.592687 
L 445.727578 156.592687 
L 445.727578 157.612687 
Q 446.115703 157.020187 446.638828 156.727687 
Q 447.163828 156.435187 447.850078 156.435187 
Q 448.980703 156.435187 449.560078 157.134562 
Q 450.141328 157.833937 450.141328 159.193312 
z
M 451.746797 159.388312 
L 454.904297 159.388312 
L 454.904297 160.348312 
L 451.746797 160.348312 
L 451.746797 159.388312 
z
" clip-path="url(#p4138cc3f02)" style="fill: #ffffff; stroke: #000000; stroke-width: 2"/>
    <path d="M 410.683125 162.170812 
L 410.683125 165.650812 
L 409.599375 165.650812 
L 409.599375 156.592687 
L 410.683125 156.592687 
L 410.683125 157.588312 
Q 411.024375 157.003312 411.541875 156.720187 
Q 412.06125 156.435187 412.78125 156.435187 
Q 413.9775 156.435187 414.72375 157.383937 
Q 415.471875 158.332687 415.471875 159.879562 
Q 415.471875 161.426437 414.72375 162.377062 
Q 413.9775 163.325812 412.78125 163.325812 
Q 412.06125 163.325812 411.541875 163.040812 
Q 411.024375 162.755812 410.683125 162.170812 
z
M 414.3525 159.879562 
Q 414.3525 158.690812 413.863125 158.013937 
Q 413.37375 157.337062 412.51875 157.337062 
Q 411.661875 157.337062 411.1725 158.013937 
Q 410.683125 158.690812 410.683125 159.879562 
Q 410.683125 161.068312 411.1725 161.745187 
Q 411.661875 162.422062 412.51875 162.422062 
Q 413.37375 162.422062 413.863125 161.745187 
Q 414.3525 161.068312 414.3525 159.879562 
z
M 421.060312 157.599562 
Q 420.878437 157.494562 420.664687 157.445812 
Q 420.450937 157.395187 420.194062 157.395187 
Q 419.279062 157.395187 418.789687 157.989562 
Q 418.300312 158.583937 418.300312 159.697687 
L 418.300312 163.155187 
L 417.216562 163.155187 
L 417.216562 156.592687 
L 418.300312 156.592687 
L 418.300312 157.612687 
Q 418.641562 157.014562 419.185312 156.725812 
Q 419.730937 156.435187 420.510937 156.435187 
Q 420.621562 156.435187 420.756562 156.450187 
Q 420.891562 156.463312 421.054687 156.493312 
L 421.060312 157.599562 
z
M 424.463906 157.348312 
Q 423.597656 157.348312 423.093281 158.025187 
Q 422.588906 158.702062 422.588906 159.879562 
Q 422.588906 161.057062 423.089531 161.733937 
Q 423.592031 162.410812 424.463906 162.410812 
Q 425.326406 162.410812 425.828906 161.732062 
Q 426.333281 161.051437 426.333281 159.879562 
Q 426.333281 158.713312 425.828906 158.030812 
Q 425.326406 157.348312 424.463906 157.348312 
z
M 424.463906 156.435187 
Q 425.870156 156.435187 426.672656 157.350187 
Q 427.477031 158.263312 427.477031 159.879562 
Q 427.477031 161.490187 426.672656 162.408937 
Q 425.870156 163.325812 424.463906 163.325812 
Q 423.052031 163.325812 422.251406 162.408937 
Q 421.452656 161.490187 421.452656 159.879562 
Q 421.452656 158.263312 422.251406 157.350187 
Q 423.052031 156.435187 424.463906 156.435187 
z
M 430.330078 154.728937 
L 430.330078 156.592687 
L 432.550078 156.592687 
L 432.550078 157.430812 
L 430.330078 157.430812 
L 430.330078 160.993312 
Q 430.330078 161.795812 430.549453 162.024562 
Q 430.768828 162.253312 431.443828 162.253312 
L 432.550078 162.253312 
L 432.550078 163.155187 
L 431.443828 163.155187 
Q 430.195078 163.155187 429.720703 162.690187 
Q 429.246328 162.223312 429.246328 160.993312 
L 429.246328 157.430812 
L 428.455078 157.430812 
L 428.455078 156.592687 
L 429.246328 156.592687 
L 429.246328 154.728937 
L 430.330078 154.728937 
z
M 439.582031 159.603937 
L 439.582031 160.130812 
L 434.624531 160.130812 
Q 434.695781 161.244562 435.295781 161.827687 
Q 435.895781 162.410812 436.968281 162.410812 
Q 437.588906 162.410812 438.172031 162.258937 
Q 438.755156 162.107062 439.330781 161.801437 
L 439.330781 162.821437 
Q 438.749531 163.067062 438.140156 163.196437 
Q 437.530781 163.325812 436.904531 163.325812 
Q 435.333281 163.325812 434.416406 162.412687 
Q 433.499531 161.497687 433.499531 159.937687 
Q 433.499531 158.327062 434.369531 157.382062 
Q 435.239531 156.435187 436.717031 156.435187 
Q 438.040781 156.435187 438.811406 157.288312 
Q 439.582031 158.139562 439.582031 159.603937 
z
M 438.503906 159.287062 
Q 438.492656 158.403937 438.008906 157.877062 
Q 437.525156 157.348312 436.728281 157.348312 
Q 435.826406 157.348312 435.284531 157.858312 
Q 434.742656 158.368312 434.660156 159.294562 
L 438.503906 159.287062 
z
M 441.351094 156.592687 
L 442.429219 156.592687 
L 442.429219 163.155187 
L 441.351094 163.155187 
L 441.351094 156.592687 
z
M 441.351094 154.037062 
L 442.429219 154.037062 
L 442.429219 155.403937 
L 441.351094 155.403937 
L 441.351094 154.037062 
z
M 450.141328 159.193312 
L 450.141328 163.155187 
L 449.063203 163.155187 
L 449.063203 159.228937 
Q 449.063203 158.297062 448.699453 157.835812 
Q 448.335703 157.372687 447.610078 157.372687 
Q 446.736328 157.372687 446.231953 157.929562 
Q 445.727578 158.484562 445.727578 159.446437 
L 445.727578 163.155187 
L 444.643828 163.155187 
L 444.643828 156.592687 
L 445.727578 156.592687 
L 445.727578 157.612687 
Q 446.115703 157.020187 446.638828 156.727687 
Q 447.163828 156.435187 447.850078 156.435187 
Q 448.980703 156.435187 449.560078 157.134562 
Q 450.141328 157.833937 450.141328 159.193312 
z
M 451.746797 159.388312 
L 454.904297 159.388312 
L 454.904297 160.348312 
L 451.746797 160.348312 
L 451.746797 159.388312 
z
" clip-path="url(#p4138cc3f02)" style="fill: #ffffff"/>
    <path d="M 410.004375 168.166312 
L 410.004375 170.030062 
L 412.224375 170.030062 
L 412.224375 170.868187 
L 410.004375 170.868187 
L 410.004375 174.430687 
Q 410.004375 175.233187 410.22375 175.461937 
Q 410.443125 175.690687 411.118125 175.690687 
L 412.224375 175.690687 
L 412.224375 176.592562 
L 411.118125 176.592562 
Q 409.869375 176.592562 409.395 176.127562 
Q 408.920625 175.660687 408.920625 174.430687 
L 408.920625 170.868187 
L 408.129375 170.868187 
L 408.129375 170.030062 
L 408.920625 170.030062 
L 408.920625 168.166312 
L 410.004375 168.166312 
z
M 416.372578 177.201937 
Q 415.916953 178.373812 415.481953 178.730062 
Q 415.048828 179.088187 414.323203 179.088187 
L 413.460703 179.088187 
L 413.460703 178.186312 
L 414.094453 178.186312 
Q 414.538828 178.186312 414.784453 177.974437 
Q 415.031953 177.764437 415.330078 176.978812 
L 415.523203 176.487562 
L 412.870078 170.030062 
L 414.011953 170.030062 
L 416.063203 175.161937 
L 418.114453 170.030062 
L 419.256328 170.030062 
L 416.372578 177.201937 
z
M 424.546641 171.036937 
Q 424.364766 170.931937 424.151016 170.883187 
Q 423.937266 170.832562 423.680391 170.832562 
Q 422.765391 170.832562 422.276016 171.426937 
Q 421.786641 172.021312 421.786641 173.135062 
L 421.786641 176.592562 
L 420.702891 176.592562 
L 420.702891 170.030062 
L 421.786641 170.030062 
L 421.786641 171.050062 
Q 422.127891 170.451937 422.671641 170.163187 
Q 423.217266 169.872562 423.997266 169.872562 
Q 424.107891 169.872562 424.242891 169.887562 
Q 424.377891 169.900687 424.541016 169.930687 
L 424.546641 171.036937 
z
M 427.950234 170.785687 
Q 427.083984 170.785687 426.579609 171.462562 
Q 426.075234 172.139437 426.075234 173.316937 
Q 426.075234 174.494437 426.575859 175.171312 
Q 427.078359 175.848187 427.950234 175.848187 
Q 428.812734 175.848187 429.315234 175.169437 
Q 429.819609 174.488812 429.819609 173.316937 
Q 429.819609 172.150687 429.315234 171.468187 
Q 428.812734 170.785687 427.950234 170.785687 
z
M 427.950234 169.872562 
Q 429.356484 169.872562 430.158984 170.787562 
Q 430.963359 171.700687 430.963359 173.316937 
Q 430.963359 174.927562 430.158984 175.846312 
Q 429.356484 176.763187 427.950234 176.763187 
Q 426.538359 176.763187 425.737734 175.846312 
Q 424.938984 174.927562 424.938984 173.316937 
Q 424.938984 171.700687 425.737734 170.787562 
Q 426.538359 169.872562 427.950234 169.872562 
z
M 436.932656 170.223187 
L 436.932656 171.243187 
Q 436.477031 171.008812 435.983906 170.892562 
Q 435.492656 170.774437 434.963906 170.774437 
Q 434.161406 170.774437 433.760156 171.020062 
Q 433.358906 171.265687 433.358906 171.758812 
Q 433.358906 172.133812 433.645781 172.347562 
Q 433.932656 172.561312 434.800781 172.754437 
L 435.170156 172.836937 
Q 436.317656 173.082562 436.801406 173.530687 
Q 437.285156 173.978812 437.285156 174.781312 
Q 437.285156 175.696312 436.561406 176.230687 
Q 435.837656 176.763187 434.572031 176.763187 
Q 434.045156 176.763187 433.473281 176.660062 
Q 432.901406 176.556937 432.269531 176.352562 
L 432.269531 175.238812 
Q 432.867656 175.550062 433.447031 175.705687 
Q 434.026406 175.859437 434.596406 175.859437 
Q 435.357656 175.859437 435.766406 175.598812 
Q 436.177031 175.338187 436.177031 174.863812 
Q 436.177031 174.425062 435.880781 174.190687 
Q 435.586406 173.956312 434.583281 173.738812 
L 434.208281 173.650687 
Q 433.207031 173.440687 432.760781 173.003812 
Q 432.316406 172.566937 432.316406 171.805687 
Q 432.316406 170.879437 432.972656 170.376937 
Q 433.628906 169.872562 434.836406 169.872562 
Q 435.432656 169.872562 435.959531 169.960687 
Q 436.488281 170.046937 436.932656 170.223187 
z
M 439.001484 170.030062 
L 440.079609 170.030062 
L 440.079609 176.592562 
L 439.001484 176.592562 
L 439.001484 170.030062 
z
M 439.001484 167.474437 
L 440.079609 167.474437 
L 440.079609 168.841312 
L 439.001484 168.841312 
L 439.001484 167.474437 
z
M 447.791719 172.630687 
L 447.791719 176.592562 
L 446.713594 176.592562 
L 446.713594 172.666312 
Q 446.713594 171.734437 446.349844 171.273187 
Q 445.986094 170.810062 445.260469 170.810062 
Q 444.386719 170.810062 443.882344 171.366937 
Q 443.377969 171.921937 443.377969 172.883812 
L 443.377969 176.592562 
L 442.294219 176.592562 
L 442.294219 170.030062 
L 443.377969 170.030062 
L 443.377969 171.050062 
Q 443.766094 170.457562 444.289219 170.165062 
Q 444.814219 169.872562 445.500469 169.872562 
Q 446.631094 169.872562 447.210469 170.571937 
Q 447.791719 171.271312 447.791719 172.630687 
z
M 455.554687 173.041312 
L 455.554687 173.568187 
L 450.597187 173.568187 
Q 450.668437 174.681937 451.268437 175.265062 
Q 451.868437 175.848187 452.940937 175.848187 
Q 453.561562 175.848187 454.144687 175.696312 
Q 454.727812 175.544437 455.303437 175.238812 
L 455.303437 176.258812 
Q 454.722187 176.504437 454.112812 176.633812 
Q 453.503437 176.763187 452.877187 176.763187 
Q 451.305937 176.763187 450.389062 175.850062 
Q 449.472187 174.935062 449.472187 173.375062 
Q 449.472187 171.764437 450.342187 170.819437 
Q 451.212187 169.872562 452.689687 169.872562 
Q 454.013437 169.872562 454.784062 170.725687 
Q 455.554687 171.576937 455.554687 173.041312 
z
M 454.476562 172.724437 
Q 454.465312 171.841312 453.981562 171.314437 
Q 453.497812 170.785687 452.700937 170.785687 
Q 451.799062 170.785687 451.257187 171.295687 
Q 450.715312 171.805687 450.632812 172.731937 
L 454.476562 172.724437 
z
" clip-path="url(#p4138cc3f02)" style="fill: #ffffff; stroke: #000000; stroke-width: 2"/>
    <path d="M 410.004375 168.166312 
L 410.004375 170.030062 
L 412.224375 170.030062 
L 412.224375 170.868187 
L 410.004375 170.868187 
L 410.004375 174.430687 
Q 410.004375 175.233187 410.22375 175.461937 
Q 410.443125 175.690687 411.118125 175.690687 
L 412.224375 175.690687 
L 412.224375 176.592562 
L 411.118125 176.592562 
Q 409.869375 176.592562 409.395 176.127562 
Q 408.920625 175.660687 408.920625 174.430687 
L 408.920625 170.868187 
L 408.129375 170.868187 
L 408.129375 170.030062 
L 408.920625 170.030062 
L 408.920625 168.166312 
L 410.004375 168.166312 
z
M 416.372578 177.201937 
Q 415.916953 178.373812 415.481953 178.730062 
Q 415.048828 179.088187 414.323203 179.088187 
L 413.460703 179.088187 
L 413.460703 178.186312 
L 414.094453 178.186312 
Q 414.538828 178.186312 414.784453 177.974437 
Q 415.031953 177.764437 415.330078 176.978812 
L 415.523203 176.487562 
L 412.870078 170.030062 
L 414.011953 170.030062 
L 416.063203 175.161937 
L 418.114453 170.030062 
L 419.256328 170.030062 
L 416.372578 177.201937 
z
M 424.546641 171.036937 
Q 424.364766 170.931937 424.151016 170.883187 
Q 423.937266 170.832562 423.680391 170.832562 
Q 422.765391 170.832562 422.276016 171.426937 
Q 421.786641 172.021312 421.786641 173.135062 
L 421.786641 176.592562 
L 420.702891 176.592562 
L 420.702891 170.030062 
L 421.786641 170.030062 
L 421.786641 171.050062 
Q 422.127891 170.451937 422.671641 170.163187 
Q 423.217266 169.872562 423.997266 169.872562 
Q 424.107891 169.872562 424.242891 169.887562 
Q 424.377891 169.900687 424.541016 169.930687 
L 424.546641 171.036937 
z
M 427.950234 170.785687 
Q 427.083984 170.785687 426.579609 171.462562 
Q 426.075234 172.139437 426.075234 173.316937 
Q 426.075234 174.494437 426.575859 175.171312 
Q 427.078359 175.848187 427.950234 175.848187 
Q 428.812734 175.848187 429.315234 175.169437 
Q 429.819609 174.488812 429.819609 173.316937 
Q 429.819609 172.150687 429.315234 171.468187 
Q 428.812734 170.785687 427.950234 170.785687 
z
M 427.950234 169.872562 
Q 429.356484 169.872562 430.158984 170.787562 
Q 430.963359 171.700687 430.963359 173.316937 
Q 430.963359 174.927562 430.158984 175.846312 
Q 429.356484 176.763187 427.950234 176.763187 
Q 426.538359 176.763187 425.737734 175.846312 
Q 424.938984 174.927562 424.938984 173.316937 
Q 424.938984 171.700687 425.737734 170.787562 
Q 426.538359 169.872562 427.950234 169.872562 
z
M 436.932656 170.223187 
L 436.932656 171.243187 
Q 436.477031 171.008812 435.983906 170.892562 
Q 435.492656 170.774437 434.963906 170.774437 
Q 434.161406 170.774437 433.760156 171.020062 
Q 433.358906 171.265687 433.358906 171.758812 
Q 433.358906 172.133812 433.645781 172.347562 
Q 433.932656 172.561312 434.800781 172.754437 
L 435.170156 172.836937 
Q 436.317656 173.082562 436.801406 173.530687 
Q 437.285156 173.978812 437.285156 174.781312 
Q 437.285156 175.696312 436.561406 176.230687 
Q 435.837656 176.763187 434.572031 176.763187 
Q 434.045156 176.763187 433.473281 176.660062 
Q 432.901406 176.556937 432.269531 176.352562 
L 432.269531 175.238812 
Q 432.867656 175.550062 433.447031 175.705687 
Q 434.026406 175.859437 434.596406 175.859437 
Q 435.357656 175.859437 435.766406 175.598812 
Q 436.177031 175.338187 436.177031 174.863812 
Q 436.177031 174.425062 435.880781 174.190687 
Q 435.586406 173.956312 434.583281 173.738812 
L 434.208281 173.650687 
Q 433.207031 173.440687 432.760781 173.003812 
Q 432.316406 172.566937 432.316406 171.805687 
Q 432.316406 170.879437 432.972656 170.376937 
Q 433.628906 169.872562 434.836406 169.872562 
Q 435.432656 169.872562 435.959531 169.960687 
Q 436.488281 170.046937 436.932656 170.223187 
z
M 439.001484 170.030062 
L 440.079609 170.030062 
L 440.079609 176.592562 
L 439.001484 176.592562 
L 439.001484 170.030062 
z
M 439.001484 167.474437 
L 440.079609 167.474437 
L 440.079609 168.841312 
L 439.001484 168.841312 
L 439.001484 167.474437 
z
M 447.791719 172.630687 
L 447.791719 176.592562 
L 446.713594 176.592562 
L 446.713594 172.666312 
Q 446.713594 171.734437 446.349844 171.273187 
Q 445.986094 170.810062 445.260469 170.810062 
Q 444.386719 170.810062 443.882344 171.366937 
Q 443.377969 171.921937 443.377969 172.883812 
L 443.377969 176.592562 
L 442.294219 176.592562 
L 442.294219 170.030062 
L 443.377969 170.030062 
L 443.377969 171.050062 
Q 443.766094 170.457562 444.289219 170.165062 
Q 444.814219 169.872562 445.500469 169.872562 
Q 446.631094 169.872562 447.210469 170.571937 
Q 447.791719 171.271312 447.791719 172.630687 
z
M 455.554687 173.041312 
L 455.554687 173.568187 
L 450.597187 173.568187 
Q 450.668437 174.681937 451.268437 175.265062 
Q 451.868437 175.848187 452.940937 175.848187 
Q 453.561562 175.848187 454.144687 175.696312 
Q 454.727812 175.544437 455.303437 175.238812 
L 455.303437 176.258812 
Q 454.722187 176.504437 454.112812 176.633812 
Q 453.503437 176.763187 452.877187 176.763187 
Q 451.305937 176.763187 450.389062 175.850062 
Q 449.472187 174.935062 449.472187 173.375062 
Q 449.472187 171.764437 450.342187 170.819437 
Q 451.212187 169.872562 452.689687 169.872562 
Q 454.013437 169.872562 454.784062 170.725687 
Q 455.554687 171.576937 455.554687 173.041312 
z
M 454.476562 172.724437 
Q 454.465312 171.841312 453.981562 171.314437 
Q 453.497812 170.785687 452.700937 170.785687 
Q 451.799062 170.785687 451.257187 171.295687 
Q 450.715312 171.805687 450.632812 172.731937 
L 454.476562 172.724437 
z
" clip-path="url(#p4138cc3f02)" style="fill: #ffffff"/>
    <path d="M 413.65125 180.911812 
L 414.735 180.911812 
L 414.735 186.296812 
L 417.9525 183.467437 
L 419.32875 183.467437 
L 415.84875 186.536812 
L 419.476875 190.029937 
L 418.070625 190.029937 
L 414.735 186.825562 
L 414.735 190.029937 
L 413.65125 190.029937 
L 413.65125 180.911812 
z
M 420.641719 183.467437 
L 421.719844 183.467437 
L 421.719844 190.029937 
L 420.641719 190.029937 
L 420.641719 183.467437 
z
M 420.641719 180.911812 
L 421.719844 180.911812 
L 421.719844 182.278687 
L 420.641719 182.278687 
L 420.641719 180.911812 
z
M 429.431953 186.068062 
L 429.431953 190.029937 
L 428.353828 190.029937 
L 428.353828 186.103687 
Q 428.353828 185.171812 427.990078 184.710562 
Q 427.626328 184.247437 426.900703 184.247437 
Q 426.026953 184.247437 425.522578 184.804312 
Q 425.018203 185.359312 425.018203 186.321187 
L 425.018203 190.029937 
L 423.934453 190.029937 
L 423.934453 183.467437 
L 425.018203 183.467437 
L 425.018203 184.487437 
Q 425.406328 183.894937 425.929453 183.602437 
Q 426.454453 183.309937 427.140703 183.309937 
Q 428.271328 183.309937 428.850703 184.009312 
Q 429.431953 184.708687 429.431953 186.068062 
z
M 434.564297 186.731812 
Q 433.257422 186.731812 432.753047 187.029937 
Q 432.248672 187.328062 432.248672 188.049937 
Q 432.248672 188.623687 432.627422 188.961187 
Q 433.006172 189.296812 433.654922 189.296812 
Q 434.553047 189.296812 435.094922 188.661187 
Q 435.636797 188.025562 435.636797 186.971812 
L 435.636797 186.731812 
L 434.564297 186.731812 
z
M 436.714922 186.285562 
L 436.714922 190.029937 
L 435.636797 190.029937 
L 435.636797 189.034312 
Q 435.267422 189.630562 434.716172 189.915562 
Q 434.164922 190.200562 433.368047 190.200562 
Q 432.361172 190.200562 431.764922 189.634312 
Q 431.170547 189.068062 431.170547 188.119312 
Q 431.170547 187.013062 431.911172 186.450562 
Q 432.653672 185.888062 434.123672 185.888062 
L 435.636797 185.888062 
L 435.636797 185.781187 
Q 435.636797 185.036812 435.147422 184.629937 
Q 434.658047 184.223062 433.773047 184.223062 
Q 433.210547 184.223062 432.676172 184.358062 
Q 432.143672 184.493062 431.652422 184.763062 
L 431.652422 183.765562 
Q 432.243047 183.536812 432.799922 183.424312 
Q 433.356797 183.309937 433.883672 183.309937 
Q 435.308672 183.309937 436.011797 184.048687 
Q 436.714922 184.785562 436.714922 186.285562 
z
M 443.117812 183.660562 
L 443.117812 184.680562 
Q 442.662187 184.446187 442.169062 184.329937 
Q 441.677812 184.211812 441.149062 184.211812 
Q 440.346562 184.211812 439.945312 184.457437 
Q 439.544062 184.703062 439.544062 185.196187 
Q 439.544062 185.571187 439.830937 185.784937 
Q 440.117812 185.998687 440.985937 186.191812 
L 441.355312 186.274312 
Q 442.502812 186.519937 442.986562 186.968062 
Q 443.470312 187.416187 443.470312 188.218687 
Q 443.470312 189.133687 442.746562 189.668062 
Q 442.022812 190.200562 440.757187 190.200562 
Q 440.230312 190.200562 439.658437 190.097437 
Q 439.086562 189.994312 438.454687 189.789937 
L 438.454687 188.676187 
Q 439.052812 188.987437 439.632187 189.143062 
Q 440.211562 189.296812 440.781562 189.296812 
Q 441.542812 189.296812 441.951562 189.036187 
Q 442.362187 188.775562 442.362187 188.301187 
Q 442.362187 187.862437 442.065937 187.628062 
Q 441.771562 187.393687 440.768437 187.176187 
L 440.393437 187.088062 
Q 439.392187 186.878062 438.945937 186.441187 
Q 438.501562 186.004312 438.501562 185.243062 
Q 438.501562 184.316812 439.157812 183.814312 
Q 439.814062 183.309937 441.021562 183.309937 
Q 441.617812 183.309937 442.144687 183.398062 
Q 442.673437 183.484312 443.117812 183.660562 
z
M 450.800391 186.478687 
L 450.800391 187.005562 
L 445.842891 187.005562 
Q 445.914141 188.119312 446.514141 188.702437 
Q 447.114141 189.285562 448.186641 189.285562 
Q 448.807266 189.285562 449.390391 189.133687 
Q 449.973516 188.981812 450.549141 188.676187 
L 450.549141 189.696187 
Q 449.967891 189.941812 449.358516 190.071187 
Q 448.749141 190.200562 448.122891 190.200562 
Q 446.551641 190.200562 445.634766 189.287437 
Q 444.717891 188.372437 444.717891 186.812437 
Q 444.717891 185.201812 445.587891 184.256812 
Q 446.457891 183.309937 447.935391 183.309937 
Q 449.259141 183.309937 450.029766 184.163062 
Q 450.800391 185.014312 450.800391 186.478687 
z
M 449.722266 186.161812 
Q 449.711016 185.278687 449.227266 184.751812 
Q 448.743516 184.223062 447.946641 184.223062 
Q 447.044766 184.223062 446.502891 184.733062 
Q 445.961016 185.243062 445.878516 186.169312 
L 449.722266 186.161812 
z
" clip-path="url(#p4138cc3f02)" style="fill: #ffffff; stroke: #000000; stroke-width: 2"/>
    <path d="M 413.65125 180.911812 
L 414.735 180.911812 
L 414.735 186.296812 
L 417.9525 183.467437 
L 419.32875 183.467437 
L 415.84875 186.536812 
L 419.476875 190.029937 
L 418.070625 190.029937 
L 414.735 186.825562 
L 414.735 190.029937 
L 413.65125 190.029937 
L 413.65125 180.911812 
z
M 420.641719 183.467437 
L 421.719844 183.467437 
L 421.719844 190.029937 
L 420.641719 190.029937 
L 420.641719 183.467437 
z
M 420.641719 180.911812 
L 421.719844 180.911812 
L 421.719844 182.278687 
L 420.641719 182.278687 
L 420.641719 180.911812 
z
M 429.431953 186.068062 
L 429.431953 190.029937 
L 428.353828 190.029937 
L 428.353828 186.103687 
Q 428.353828 185.171812 427.990078 184.710562 
Q 427.626328 184.247437 426.900703 184.247437 
Q 426.026953 184.247437 425.522578 184.804312 
Q 425.018203 185.359312 425.018203 186.321187 
L 425.018203 190.029937 
L 423.934453 190.029937 
L 423.934453 183.467437 
L 425.018203 183.467437 
L 425.018203 184.487437 
Q 425.406328 183.894937 425.929453 183.602437 
Q 426.454453 183.309937 427.140703 183.309937 
Q 428.271328 183.309937 428.850703 184.009312 
Q 429.431953 184.708687 429.431953 186.068062 
z
M 434.564297 186.731812 
Q 433.257422 186.731812 432.753047 187.029937 
Q 432.248672 187.328062 432.248672 188.049937 
Q 432.248672 188.623687 432.627422 188.961187 
Q 433.006172 189.296812 433.654922 189.296812 
Q 434.553047 189.296812 435.094922 188.661187 
Q 435.636797 188.025562 435.636797 186.971812 
L 435.636797 186.731812 
L 434.564297 186.731812 
z
M 436.714922 186.285562 
L 436.714922 190.029937 
L 435.636797 190.029937 
L 435.636797 189.034312 
Q 435.267422 189.630562 434.716172 189.915562 
Q 434.164922 190.200562 433.368047 190.200562 
Q 432.361172 190.200562 431.764922 189.634312 
Q 431.170547 189.068062 431.170547 188.119312 
Q 431.170547 187.013062 431.911172 186.450562 
Q 432.653672 185.888062 434.123672 185.888062 
L 435.636797 185.888062 
L 435.636797 185.781187 
Q 435.636797 185.036812 435.147422 184.629937 
Q 434.658047 184.223062 433.773047 184.223062 
Q 433.210547 184.223062 432.676172 184.358062 
Q 432.143672 184.493062 431.652422 184.763062 
L 431.652422 183.765562 
Q 432.243047 183.536812 432.799922 183.424312 
Q 433.356797 183.309937 433.883672 183.309937 
Q 435.308672 183.309937 436.011797 184.048687 
Q 436.714922 184.785562 436.714922 186.285562 
z
M 443.117812 183.660562 
L 443.117812 184.680562 
Q 442.662187 184.446187 442.169062 184.329937 
Q 441.677812 184.211812 441.149062 184.211812 
Q 440.346562 184.211812 439.945312 184.457437 
Q 439.544062 184.703062 439.544062 185.196187 
Q 439.544062 185.571187 439.830937 185.784937 
Q 440.117812 185.998687 440.985937 186.191812 
L 441.355312 186.274312 
Q 442.502812 186.519937 442.986562 186.968062 
Q 443.470312 187.416187 443.470312 188.218687 
Q 443.470312 189.133687 442.746562 189.668062 
Q 442.022812 190.200562 440.757187 190.200562 
Q 440.230312 190.200562 439.658437 190.097437 
Q 439.086562 189.994312 438.454687 189.789937 
L 438.454687 188.676187 
Q 439.052812 188.987437 439.632187 189.143062 
Q 440.211562 189.296812 440.781562 189.296812 
Q 441.542812 189.296812 441.951562 189.036187 
Q 442.362187 188.775562 442.362187 188.301187 
Q 442.362187 187.862437 442.065937 187.628062 
Q 441.771562 187.393687 440.768437 187.176187 
L 440.393437 187.088062 
Q 439.392187 186.878062 438.945937 186.441187 
Q 438.501562 186.004312 438.501562 185.243062 
Q 438.501562 184.316812 439.157812 183.814312 
Q 439.814062 183.309937 441.021562 183.309937 
Q 441.617812 183.309937 442.144687 183.398062 
Q 442.673437 183.484312 443.117812 183.660562 
z
M 450.800391 186.478687 
L 450.800391 187.005562 
L 445.842891 187.005562 
Q 445.914141 188.119312 446.514141 188.702437 
Q 447.114141 189.285562 448.186641 189.285562 
Q 448.807266 189.285562 449.390391 189.133687 
Q 449.973516 188.981812 450.549141 188.676187 
L 450.549141 189.696187 
Q 449.967891 189.941812 449.358516 190.071187 
Q 448.749141 190.200562 448.122891 190.200562 
Q 446.551641 190.200562 445.634766 189.287437 
Q 444.717891 188.372437 444.717891 186.812437 
Q 444.717891 185.201812 445.587891 184.256812 
Q 446.457891 183.309937 447.935391 183.309937 
Q 449.259141 183.309937 450.029766 184.163062 
Q 450.800391 185.014312 450.800391 186.478687 
z
M 449.722266 186.161812 
Q 449.711016 185.278687 449.227266 184.751812 
Q 448.743516 184.223062 447.946641 184.223062 
Q 447.044766 184.223062 446.502891 184.733062 
Q 445.961016 185.243062 445.878516 186.169312 
L 449.722266 186.161812 
z
" clip-path="url(#p4138cc3f02)" style="fill: #ffffff"/>
    <path d="M 385.89375 194.718562 
L 387.084375 194.718562 
L 387.084375 200.034187 
Q 387.084375 201.440437 387.5925 202.059187 
Q 388.1025 202.676062 389.24625 202.676062 
Q 390.3825 202.676062 390.8925 202.059187 
Q 391.4025 201.440437 391.4025 200.034187 
L 391.4025 194.718562 
L 392.59125 194.718562 
L 392.59125 200.180437 
Q 392.59125 201.890437 391.74375 202.764187 
Q 390.898125 203.637937 389.24625 203.637937 
Q 387.586875 203.637937 386.739375 202.764187 
Q 385.89375 201.890437 385.89375 200.180437 
L 385.89375 194.718562 
z
M 400.221328 199.505437 
L 400.221328 203.467312 
L 399.143203 203.467312 
L 399.143203 199.541062 
Q 399.143203 198.609187 398.779453 198.147937 
Q 398.415703 197.684812 397.690078 197.684812 
Q 396.816328 197.684812 396.311953 198.241687 
Q 395.807578 198.796687 395.807578 199.758562 
L 395.807578 203.467312 
L 394.723828 203.467312 
L 394.723828 196.904812 
L 395.807578 196.904812 
L 395.807578 197.924812 
Q 396.195703 197.332312 396.718828 197.039812 
Q 397.243828 196.747312 397.930078 196.747312 
Q 399.060703 196.747312 399.640078 197.446687 
Q 400.221328 198.146062 400.221328 199.505437 
z
M 402.370547 196.904812 
L 403.448672 196.904812 
L 403.448672 203.467312 
L 402.370547 203.467312 
L 402.370547 196.904812 
z
M 402.370547 194.349187 
L 403.448672 194.349187 
L 403.448672 195.716062 
L 402.370547 195.716062 
L 402.370547 194.349187 
z
M 406.934531 195.691687 
L 406.934531 198.978562 
L 408.423281 198.978562 
Q 409.250156 198.978562 409.700156 198.551062 
Q 410.152031 198.123562 410.152031 197.332312 
Q 410.152031 196.546687 409.700156 196.119187 
Q 409.250156 195.691687 408.423281 195.691687 
L 406.934531 195.691687 
z
M 405.751406 194.718562 
L 408.423281 194.718562 
Q 409.895156 194.718562 410.647031 195.384187 
Q 411.400781 196.049812 411.400781 197.332312 
Q 411.400781 198.627937 410.647031 199.289812 
Q 409.895156 199.951687 408.423281 199.951687 
L 406.934531 199.951687 
L 406.934531 203.467312 
L 405.751406 203.467312 
L 405.751406 194.718562 
z
M 416.533359 197.911687 
Q 416.351484 197.806687 416.137734 197.757937 
Q 415.923984 197.707312 415.667109 197.707312 
Q 414.752109 197.707312 414.262734 198.301687 
Q 413.773359 198.896062 413.773359 200.009812 
L 413.773359 203.467312 
L 412.689609 203.467312 
L 412.689609 196.904812 
L 413.773359 196.904812 
L 413.773359 197.924812 
Q 414.114609 197.326687 414.658359 197.037937 
Q 415.203984 196.747312 415.983984 196.747312 
Q 416.094609 196.747312 416.229609 196.762312 
Q 416.364609 196.775437 416.527734 196.805437 
L 416.533359 197.911687 
z
M 419.936953 197.660437 
Q 419.070703 197.660437 418.566328 198.337312 
Q 418.061953 199.014187 418.061953 200.191687 
Q 418.061953 201.369187 418.562578 202.046062 
Q 419.065078 202.722937 419.936953 202.722937 
Q 420.799453 202.722937 421.301953 202.044187 
Q 421.806328 201.363562 421.806328 200.191687 
Q 421.806328 199.025437 421.301953 198.342937 
Q 420.799453 197.660437 419.936953 197.660437 
z
M 419.936953 196.747312 
Q 421.343203 196.747312 422.145703 197.662312 
Q 422.950078 198.575437 422.950078 200.191687 
Q 422.950078 201.802312 422.145703 202.721062 
Q 421.343203 203.637937 419.936953 203.637937 
Q 418.525078 203.637937 417.724453 202.721062 
Q 416.925703 201.802312 416.925703 200.191687 
Q 416.925703 198.575437 417.724453 197.662312 
Q 418.525078 196.747312 419.936953 196.747312 
z
M 425.803125 195.041062 
L 425.803125 196.904812 
L 428.023125 196.904812 
L 428.023125 197.742937 
L 425.803125 197.742937 
L 425.803125 201.305437 
Q 425.803125 202.107937 426.0225 202.336687 
Q 426.241875 202.565437 426.916875 202.565437 
L 428.023125 202.565437 
L 428.023125 203.467312 
L 426.916875 203.467312 
Q 425.668125 203.467312 425.19375 203.002312 
Q 424.719375 202.535437 424.719375 201.305437 
L 424.719375 197.742937 
L 423.928125 197.742937 
L 423.928125 196.904812 
L 424.719375 196.904812 
L 424.719375 195.041062 
L 425.803125 195.041062 
z
M 429.716953 201.978562 
L 430.952578 201.978562 
L 430.952578 203.467312 
L 429.716953 203.467312 
L 429.716953 201.978562 
z
M 429.716953 197.262937 
L 430.952578 197.262937 
L 430.952578 198.749812 
L 429.716953 198.749812 
L 429.716953 197.262937 
z
M 436.456172 195.884812 
L 434.849297 200.238562 
L 438.066797 200.238562 
L 436.456172 195.884812 
z
M 435.786797 194.718562 
L 437.129297 194.718562 
L 440.463047 203.467312 
L 439.233047 203.467312 
L 438.436172 201.222937 
L 434.493047 201.222937 
L 433.696172 203.467312 
L 432.447422 203.467312 
L 435.786797 194.718562 
z
M 441.880781 203.285437 
L 441.880781 202.207312 
Q 442.327031 202.419187 442.782656 202.529812 
Q 443.240156 202.640437 443.680781 202.640437 
Q 444.852656 202.640437 445.469531 201.852937 
Q 446.088281 201.065437 446.176406 199.458562 
Q 445.837031 199.962937 445.313906 200.232937 
Q 444.792656 200.502937 444.160781 200.502937 
Q 442.848281 200.502937 442.083281 199.709812 
Q 441.318281 198.914812 441.318281 197.536687 
Q 441.318281 196.190437 442.115156 195.376687 
Q 442.912031 194.561062 444.235781 194.561062 
Q 445.754531 194.561062 446.553281 195.725437 
Q 447.353906 196.887937 447.353906 199.102312 
Q 447.353906 201.170437 446.371406 202.404187 
Q 445.390781 203.637937 443.733281 203.637937 
Q 443.287031 203.637937 442.829531 203.549812 
Q 442.373906 203.461687 441.880781 203.285437 
z
M 444.235781 199.576687 
Q 445.032656 199.576687 445.497656 199.032937 
Q 445.964531 198.487312 445.964531 197.536687 
Q 445.964531 196.593562 445.497656 196.046062 
Q 445.032656 195.498562 444.235781 195.498562 
Q 443.438906 195.498562 442.973906 196.046062 
Q 442.508906 196.593562 442.508906 197.536687 
Q 442.508906 198.487312 442.973906 199.032937 
Q 443.438906 199.576687 444.235781 199.576687 
z
M 449.239922 194.718562 
L 450.430547 194.718562 
L 450.430547 200.034187 
Q 450.430547 201.440437 450.938672 202.059187 
Q 451.448672 202.676062 452.592422 202.676062 
Q 453.728672 202.676062 454.238672 202.059187 
Q 454.748672 201.440437 454.748672 200.034187 
L 454.748672 194.718562 
L 455.937422 194.718562 
L 455.937422 200.180437 
Q 455.937422 201.890437 455.089922 202.764187 
Q 454.244297 203.637937 452.592422 203.637937 
Q 450.933047 203.637937 450.085547 202.764187 
Q 449.239922 201.890437 449.239922 200.180437 
L 449.239922 194.718562 
z
M 458.158125 194.718562 
L 463.185 194.718562 
L 463.185 195.716062 
L 459.34125 195.716062 
L 459.34125 198.294187 
L 462.81 198.294187 
L 462.81 199.289812 
L 459.34125 199.289812 
L 459.34125 203.467312 
L 458.158125 203.467312 
L 458.158125 194.718562 
z
M 467.696719 195.498562 
Q 466.783594 195.498562 466.322344 196.398562 
Q 465.862969 197.296687 465.862969 199.102312 
Q 465.862969 200.900437 466.322344 201.800437 
Q 466.783594 202.700437 467.696719 202.700437 
Q 468.617344 202.700437 469.076719 201.800437 
Q 469.537969 200.900437 469.537969 199.102312 
Q 469.537969 197.296687 469.076719 196.398562 
Q 468.617344 195.498562 467.696719 195.498562 
z
M 467.696719 194.561062 
Q 469.168594 194.561062 469.944844 195.725437 
Q 470.721094 196.887937 470.721094 199.102312 
Q 470.721094 201.311062 469.944844 202.475437 
Q 469.168594 203.637937 467.696719 203.637937 
Q 466.226719 203.637937 465.450469 202.475437 
Q 464.674219 201.311062 464.674219 199.102312 
Q 464.674219 196.887937 465.450469 195.725437 
Q 466.226719 194.561062 467.696719 194.561062 
z
M 473.820234 202.471687 
L 477.950859 202.471687 
L 477.950859 203.467312 
L 472.397109 203.467312 
L 472.397109 202.471687 
Q 473.070234 201.774187 474.232734 200.600437 
Q 475.397109 199.424812 475.695234 199.083562 
Q 476.263359 198.446062 476.488359 198.003562 
Q 476.715234 197.561062 476.715234 197.133562 
Q 476.715234 196.436062 476.225859 195.997312 
Q 475.736484 195.556687 474.950859 195.556687 
Q 474.393984 195.556687 473.775234 195.749812 
Q 473.158359 195.942937 472.455234 196.336687 
L 472.455234 195.140437 
Q 473.169609 194.853562 473.790234 194.707312 
Q 474.412734 194.561062 474.928359 194.561062 
Q 476.287734 194.561062 477.095859 195.241687 
Q 477.903984 195.920437 477.903984 197.056687 
Q 477.903984 197.596687 477.701484 198.080437 
Q 477.500859 198.562312 476.966484 199.218562 
Q 476.820234 199.389187 476.034609 200.201062 
Q 475.250859 201.012937 473.820234 202.471687 
z
" clip-path="url(#p4138cc3f02)" style="fill: #ffffff; stroke: #000000; stroke-width: 2"/>
    <path d="M 385.89375 194.718562 
L 387.084375 194.718562 
L 387.084375 200.034187 
Q 387.084375 201.440437 387.5925 202.059187 
Q 388.1025 202.676062 389.24625 202.676062 
Q 390.3825 202.676062 390.8925 202.059187 
Q 391.4025 201.440437 391.4025 200.034187 
L 391.4025 194.718562 
L 392.59125 194.718562 
L 392.59125 200.180437 
Q 392.59125 201.890437 391.74375 202.764187 
Q 390.898125 203.637937 389.24625 203.637937 
Q 387.586875 203.637937 386.739375 202.764187 
Q 385.89375 201.890437 385.89375 200.180437 
L 385.89375 194.718562 
z
M 400.221328 199.505437 
L 400.221328 203.467312 
L 399.143203 203.467312 
L 399.143203 199.541062 
Q 399.143203 198.609187 398.779453 198.147937 
Q 398.415703 197.684812 397.690078 197.684812 
Q 396.816328 197.684812 396.311953 198.241687 
Q 395.807578 198.796687 395.807578 199.758562 
L 395.807578 203.467312 
L 394.723828 203.467312 
L 394.723828 196.904812 
L 395.807578 196.904812 
L 395.807578 197.924812 
Q 396.195703 197.332312 396.718828 197.039812 
Q 397.243828 196.747312 397.930078 196.747312 
Q 399.060703 196.747312 399.640078 197.446687 
Q 400.221328 198.146062 400.221328 199.505437 
z
M 402.370547 196.904812 
L 403.448672 196.904812 
L 403.448672 203.467312 
L 402.370547 203.467312 
L 402.370547 196.904812 
z
M 402.370547 194.349187 
L 403.448672 194.349187 
L 403.448672 195.716062 
L 402.370547 195.716062 
L 402.370547 194.349187 
z
M 406.934531 195.691687 
L 406.934531 198.978562 
L 408.423281 198.978562 
Q 409.250156 198.978562 409.700156 198.551062 
Q 410.152031 198.123562 410.152031 197.332312 
Q 410.152031 196.546687 409.700156 196.119187 
Q 409.250156 195.691687 408.423281 195.691687 
L 406.934531 195.691687 
z
M 405.751406 194.718562 
L 408.423281 194.718562 
Q 409.895156 194.718562 410.647031 195.384187 
Q 411.400781 196.049812 411.400781 197.332312 
Q 411.400781 198.627937 410.647031 199.289812 
Q 409.895156 199.951687 408.423281 199.951687 
L 406.934531 199.951687 
L 406.934531 203.467312 
L 405.751406 203.467312 
L 405.751406 194.718562 
z
M 416.533359 197.911687 
Q 416.351484 197.806687 416.137734 197.757937 
Q 415.923984 197.707312 415.667109 197.707312 
Q 414.752109 197.707312 414.262734 198.301687 
Q 413.773359 198.896062 413.773359 200.009812 
L 413.773359 203.467312 
L 412.689609 203.467312 
L 412.689609 196.904812 
L 413.773359 196.904812 
L 413.773359 197.924812 
Q 414.114609 197.326687 414.658359 197.037937 
Q 415.203984 196.747312 415.983984 196.747312 
Q 416.094609 196.747312 416.229609 196.762312 
Q 416.364609 196.775437 416.527734 196.805437 
L 416.533359 197.911687 
z
M 419.936953 197.660437 
Q 419.070703 197.660437 418.566328 198.337312 
Q 418.061953 199.014187 418.061953 200.191687 
Q 418.061953 201.369187 418.562578 202.046062 
Q 419.065078 202.722937 419.936953 202.722937 
Q 420.799453 202.722937 421.301953 202.044187 
Q 421.806328 201.363562 421.806328 200.191687 
Q 421.806328 199.025437 421.301953 198.342937 
Q 420.799453 197.660437 419.936953 197.660437 
z
M 419.936953 196.747312 
Q 421.343203 196.747312 422.145703 197.662312 
Q 422.950078 198.575437 422.950078 200.191687 
Q 422.950078 201.802312 422.145703 202.721062 
Q 421.343203 203.637937 419.936953 203.637937 
Q 418.525078 203.637937 417.724453 202.721062 
Q 416.925703 201.802312 416.925703 200.191687 
Q 416.925703 198.575437 417.724453 197.662312 
Q 418.525078 196.747312 419.936953 196.747312 
z
M 425.803125 195.041062 
L 425.803125 196.904812 
L 428.023125 196.904812 
L 428.023125 197.742937 
L 425.803125 197.742937 
L 425.803125 201.305437 
Q 425.803125 202.107937 426.0225 202.336687 
Q 426.241875 202.565437 426.916875 202.565437 
L 428.023125 202.565437 
L 428.023125 203.467312 
L 426.916875 203.467312 
Q 425.668125 203.467312 425.19375 203.002312 
Q 424.719375 202.535437 424.719375 201.305437 
L 424.719375 197.742937 
L 423.928125 197.742937 
L 423.928125 196.904812 
L 424.719375 196.904812 
L 424.719375 195.041062 
L 425.803125 195.041062 
z
M 429.716953 201.978562 
L 430.952578 201.978562 
L 430.952578 203.467312 
L 429.716953 203.467312 
L 429.716953 201.978562 
z
M 429.716953 197.262937 
L 430.952578 197.262937 
L 430.952578 198.749812 
L 429.716953 198.749812 
L 429.716953 197.262937 
z
M 436.456172 195.884812 
L 434.849297 200.238562 
L 438.066797 200.238562 
L 436.456172 195.884812 
z
M 435.786797 194.718562 
L 437.129297 194.718562 
L 440.463047 203.467312 
L 439.233047 203.467312 
L 438.436172 201.222937 
L 434.493047 201.222937 
L 433.696172 203.467312 
L 432.447422 203.467312 
L 435.786797 194.718562 
z
M 441.880781 203.285437 
L 441.880781 202.207312 
Q 442.327031 202.419187 442.782656 202.529812 
Q 443.240156 202.640437 443.680781 202.640437 
Q 444.852656 202.640437 445.469531 201.852937 
Q 446.088281 201.065437 446.176406 199.458562 
Q 445.837031 199.962937 445.313906 200.232937 
Q 444.792656 200.502937 444.160781 200.502937 
Q 442.848281 200.502937 442.083281 199.709812 
Q 441.318281 198.914812 441.318281 197.536687 
Q 441.318281 196.190437 442.115156 195.376687 
Q 442.912031 194.561062 444.235781 194.561062 
Q 445.754531 194.561062 446.553281 195.725437 
Q 447.353906 196.887937 447.353906 199.102312 
Q 447.353906 201.170437 446.371406 202.404187 
Q 445.390781 203.637937 443.733281 203.637937 
Q 443.287031 203.637937 442.829531 203.549812 
Q 442.373906 203.461687 441.880781 203.285437 
z
M 444.235781 199.576687 
Q 445.032656 199.576687 445.497656 199.032937 
Q 445.964531 198.487312 445.964531 197.536687 
Q 445.964531 196.593562 445.497656 196.046062 
Q 445.032656 195.498562 444.235781 195.498562 
Q 443.438906 195.498562 442.973906 196.046062 
Q 442.508906 196.593562 442.508906 197.536687 
Q 442.508906 198.487312 442.973906 199.032937 
Q 443.438906 199.576687 444.235781 199.576687 
z
M 449.239922 194.718562 
L 450.430547 194.718562 
L 450.430547 200.034187 
Q 450.430547 201.440437 450.938672 202.059187 
Q 451.448672 202.676062 452.592422 202.676062 
Q 453.728672 202.676062 454.238672 202.059187 
Q 454.748672 201.440437 454.748672 200.034187 
L 454.748672 194.718562 
L 455.937422 194.718562 
L 455.937422 200.180437 
Q 455.937422 201.890437 455.089922 202.764187 
Q 454.244297 203.637937 452.592422 203.637937 
Q 450.933047 203.637937 450.085547 202.764187 
Q 449.239922 201.890437 449.239922 200.180437 
L 449.239922 194.718562 
z
M 458.158125 194.718562 
L 463.185 194.718562 
L 463.185 195.716062 
L 459.34125 195.716062 
L 459.34125 198.294187 
L 462.81 198.294187 
L 462.81 199.289812 
L 459.34125 199.289812 
L 459.34125 203.467312 
L 458.158125 203.467312 
L 458.158125 194.718562 
z
M 467.696719 195.498562 
Q 466.783594 195.498562 466.322344 196.398562 
Q 465.862969 197.296687 465.862969 199.102312 
Q 465.862969 200.900437 466.322344 201.800437 
Q 466.783594 202.700437 467.696719 202.700437 
Q 468.617344 202.700437 469.076719 201.800437 
Q 469.537969 200.900437 469.537969 199.102312 
Q 469.537969 197.296687 469.076719 196.398562 
Q 468.617344 195.498562 467.696719 195.498562 
z
M 467.696719 194.561062 
Q 469.168594 194.561062 469.944844 195.725437 
Q 470.721094 196.887937 470.721094 199.102312 
Q 470.721094 201.311062 469.944844 202.475437 
Q 469.168594 203.637937 467.696719 203.637937 
Q 466.226719 203.637937 465.450469 202.475437 
Q 464.674219 201.311062 464.674219 199.102312 
Q 464.674219 196.887937 465.450469 195.725437 
Q 466.226719 194.561062 467.696719 194.561062 
z
M 473.820234 202.471687 
L 477.950859 202.471687 
L 477.950859 203.467312 
L 472.397109 203.467312 
L 472.397109 202.471687 
Q 473.070234 201.774187 474.232734 200.600437 
Q 475.397109 199.424812 475.695234 199.083562 
Q 476.263359 198.446062 476.488359 198.003562 
Q 476.715234 197.561062 476.715234 197.133562 
Q 476.715234 196.436062 476.225859 195.997312 
Q 475.736484 195.556687 474.950859 195.556687 
Q 474.393984 195.556687 473.775234 195.749812 
Q 473.158359 195.942937 472.455234 196.336687 
L 472.455234 195.140437 
Q 473.169609 194.853562 473.790234 194.707312 
Q 474.412734 194.561062 474.928359 194.561062 
Q 476.287734 194.561062 477.095859 195.241687 
Q 477.903984 195.920437 477.903984 197.056687 
Q 477.903984 197.596687 477.701484 198.080437 
Q 477.500859 198.562312 476.966484 199.218562 
Q 476.820234 199.389187 476.034609 200.201062 
Q 475.250859 201.012937 473.820234 202.471687 
z
" clip-path="url(#p4138cc3f02)" style="fill: #ffffff"/>
    <path d="M 413.331562 209.129062 
L 413.331562 212.415937 
L 414.820312 212.415937 
Q 415.647187 212.415937 416.097187 211.988437 
Q 416.549062 211.560937 416.549062 210.769687 
Q 416.549062 209.984062 416.097187 209.556562 
Q 415.647187 209.129062 414.820312 209.129062 
L 413.331562 209.129062 
z
M 412.148437 208.155937 
L 414.820312 208.155937 
Q 416.292187 208.155937 417.044062 208.821562 
Q 417.797812 209.487187 417.797812 210.769687 
Q 417.797812 212.065312 417.044062 212.727187 
Q 416.292187 213.389062 414.820312 213.389062 
L 413.331562 213.389062 
L 413.331562 216.904687 
L 412.148437 216.904687 
L 412.148437 208.155937 
z
M 422.930391 211.349062 
Q 422.748516 211.244062 422.534766 211.195312 
Q 422.321016 211.144687 422.064141 211.144687 
Q 421.149141 211.144687 420.659766 211.739062 
Q 420.170391 212.333437 420.170391 213.447187 
L 420.170391 216.904687 
L 419.086641 216.904687 
L 419.086641 210.342187 
L 420.170391 210.342187 
L 420.170391 211.362187 
Q 420.511641 210.764062 421.055391 210.475312 
Q 421.601016 210.184687 422.381016 210.184687 
Q 422.491641 210.184687 422.626641 210.199687 
Q 422.761641 210.212812 422.924766 210.242812 
L 422.930391 211.349062 
z
M 426.333984 211.097812 
Q 425.467734 211.097812 424.963359 211.774687 
Q 424.458984 212.451562 424.458984 213.629062 
Q 424.458984 214.806562 424.959609 215.483437 
Q 425.462109 216.160312 426.333984 216.160312 
Q 427.196484 216.160312 427.698984 215.481562 
Q 428.203359 214.800937 428.203359 213.629062 
Q 428.203359 212.462812 427.698984 211.780312 
Q 427.196484 211.097812 426.333984 211.097812 
z
M 426.333984 210.184687 
Q 427.740234 210.184687 428.542734 211.099687 
Q 429.347109 212.012812 429.347109 213.629062 
Q 429.347109 215.239687 428.542734 216.158437 
Q 427.740234 217.075312 426.333984 217.075312 
Q 424.922109 217.075312 424.121484 216.158437 
Q 423.322734 215.239687 423.322734 213.629062 
Q 423.322734 212.012812 424.121484 211.099687 
Q 424.922109 210.184687 426.333984 210.184687 
z
M 432.200156 208.478437 
L 432.200156 210.342187 
L 434.420156 210.342187 
L 434.420156 211.180312 
L 432.200156 211.180312 
L 432.200156 214.742812 
Q 432.200156 215.545312 432.419531 215.774062 
Q 432.638906 216.002812 433.313906 216.002812 
L 434.420156 216.002812 
L 434.420156 216.904687 
L 433.313906 216.904687 
Q 432.065156 216.904687 431.590781 216.439687 
Q 431.116406 215.972812 431.116406 214.742812 
L 431.116406 211.180312 
L 430.325156 211.180312 
L 430.325156 210.342187 
L 431.116406 210.342187 
L 431.116406 208.478437 
L 432.200156 208.478437 
z
M 441.452109 213.353437 
L 441.452109 213.880312 
L 436.494609 213.880312 
Q 436.565859 214.994062 437.165859 215.577187 
Q 437.765859 216.160312 438.838359 216.160312 
Q 439.458984 216.160312 440.042109 216.008437 
Q 440.625234 215.856562 441.200859 215.550937 
L 441.200859 216.570937 
Q 440.619609 216.816562 440.010234 216.945937 
Q 439.400859 217.075312 438.774609 217.075312 
Q 437.203359 217.075312 436.286484 216.162187 
Q 435.369609 215.247187 435.369609 213.687187 
Q 435.369609 212.076562 436.239609 211.131562 
Q 437.109609 210.184687 438.587109 210.184687 
Q 439.910859 210.184687 440.681484 211.037812 
Q 441.452109 211.889062 441.452109 213.353437 
z
M 440.373984 213.036562 
Q 440.362734 212.153437 439.878984 211.626562 
Q 439.395234 211.097812 438.598359 211.097812 
Q 437.696484 211.097812 437.154609 211.607812 
Q 436.612734 212.117812 436.530234 213.044062 
L 440.373984 213.036562 
z
M 443.221172 210.342187 
L 444.299297 210.342187 
L 444.299297 216.904687 
L 443.221172 216.904687 
L 443.221172 210.342187 
z
M 443.221172 207.786562 
L 444.299297 207.786562 
L 444.299297 209.153437 
L 443.221172 209.153437 
L 443.221172 207.786562 
z
M 452.011406 212.942812 
L 452.011406 216.904687 
L 450.933281 216.904687 
L 450.933281 212.978437 
Q 450.933281 212.046562 450.569531 211.585312 
Q 450.205781 211.122187 449.480156 211.122187 
Q 448.606406 211.122187 448.102031 211.679062 
Q 447.597656 212.234062 447.597656 213.195937 
L 447.597656 216.904687 
L 446.513906 216.904687 
L 446.513906 210.342187 
L 447.597656 210.342187 
L 447.597656 211.362187 
Q 447.985781 210.769687 448.508906 210.477187 
Q 449.033906 210.184687 449.720156 210.184687 
Q 450.850781 210.184687 451.430156 210.884062 
Q 452.011406 211.583437 452.011406 212.942812 
z
" clip-path="url(#p4138cc3f02)" style="fill: #ffffff; stroke: #000000; stroke-width: 2"/>
    <path d="M 413.331562 209.129062 
L 413.331562 212.415937 
L 414.820312 212.415937 
Q 415.647187 212.415937 416.097187 211.988437 
Q 416.549062 211.560937 416.549062 210.769687 
Q 416.549062 209.984062 416.097187 209.556562 
Q 415.647187 209.129062 414.820312 209.129062 
L 413.331562 209.129062 
z
M 412.148437 208.155937 
L 414.820312 208.155937 
Q 416.292187 208.155937 417.044062 208.821562 
Q 417.797812 209.487187 417.797812 210.769687 
Q 417.797812 212.065312 417.044062 212.727187 
Q 416.292187 213.389062 414.820312 213.389062 
L 413.331562 213.389062 
L 413.331562 216.904687 
L 412.148437 216.904687 
L 412.148437 208.155937 
z
M 422.930391 211.349062 
Q 422.748516 211.244062 422.534766 211.195312 
Q 422.321016 211.144687 422.064141 211.144687 
Q 421.149141 211.144687 420.659766 211.739062 
Q 420.170391 212.333437 420.170391 213.447187 
L 420.170391 216.904687 
L 419.086641 216.904687 
L 419.086641 210.342187 
L 420.170391 210.342187 
L 420.170391 211.362187 
Q 420.511641 210.764062 421.055391 210.475312 
Q 421.601016 210.184687 422.381016 210.184687 
Q 422.491641 210.184687 422.626641 210.199687 
Q 422.761641 210.212812 422.924766 210.242812 
L 422.930391 211.349062 
z
M 426.333984 211.097812 
Q 425.467734 211.097812 424.963359 211.774687 
Q 424.458984 212.451562 424.458984 213.629062 
Q 424.458984 214.806562 424.959609 215.483437 
Q 425.462109 216.160312 426.333984 216.160312 
Q 427.196484 216.160312 427.698984 215.481562 
Q 428.203359 214.800937 428.203359 213.629062 
Q 428.203359 212.462812 427.698984 211.780312 
Q 427.196484 211.097812 426.333984 211.097812 
z
M 426.333984 210.184687 
Q 427.740234 210.184687 428.542734 211.099687 
Q 429.347109 212.012812 429.347109 213.629062 
Q 429.347109 215.239687 428.542734 216.158437 
Q 427.740234 217.075312 426.333984 217.075312 
Q 424.922109 217.075312 424.121484 216.158437 
Q 423.322734 215.239687 423.322734 213.629062 
Q 423.322734 212.012812 424.121484 211.099687 
Q 424.922109 210.184687 426.333984 210.184687 
z
M 432.200156 208.478437 
L 432.200156 210.342187 
L 434.420156 210.342187 
L 434.420156 211.180312 
L 432.200156 211.180312 
L 432.200156 214.742812 
Q 432.200156 215.545312 432.419531 215.774062 
Q 432.638906 216.002812 433.313906 216.002812 
L 434.420156 216.002812 
L 434.420156 216.904687 
L 433.313906 216.904687 
Q 432.065156 216.904687 431.590781 216.439687 
Q 431.116406 215.972812 431.116406 214.742812 
L 431.116406 211.180312 
L 430.325156 211.180312 
L 430.325156 210.342187 
L 431.116406 210.342187 
L 431.116406 208.478437 
L 432.200156 208.478437 
z
M 441.452109 213.353437 
L 441.452109 213.880312 
L 436.494609 213.880312 
Q 436.565859 214.994062 437.165859 215.577187 
Q 437.765859 216.160312 438.838359 216.160312 
Q 439.458984 216.160312 440.042109 216.008437 
Q 440.625234 215.856562 441.200859 215.550937 
L 441.200859 216.570937 
Q 440.619609 216.816562 440.010234 216.945937 
Q 439.400859 217.075312 438.774609 217.075312 
Q 437.203359 217.075312 436.286484 216.162187 
Q 435.369609 215.247187 435.369609 213.687187 
Q 435.369609 212.076562 436.239609 211.131562 
Q 437.109609 210.184687 438.587109 210.184687 
Q 439.910859 210.184687 440.681484 211.037812 
Q 441.452109 211.889062 441.452109 213.353437 
z
M 440.373984 213.036562 
Q 440.362734 212.153437 439.878984 211.626562 
Q 439.395234 211.097812 438.598359 211.097812 
Q 437.696484 211.097812 437.154609 211.607812 
Q 436.612734 212.117812 436.530234 213.044062 
L 440.373984 213.036562 
z
M 443.221172 210.342187 
L 444.299297 210.342187 
L 444.299297 216.904687 
L 443.221172 216.904687 
L 443.221172 210.342187 
z
M 443.221172 207.786562 
L 444.299297 207.786562 
L 444.299297 209.153437 
L 443.221172 209.153437 
L 443.221172 207.786562 
z
M 452.011406 212.942812 
L 452.011406 216.904687 
L 450.933281 216.904687 
L 450.933281 212.978437 
Q 450.933281 212.046562 450.569531 211.585312 
Q 450.205781 211.122187 449.480156 211.122187 
Q 448.606406 211.122187 448.102031 211.679062 
Q 447.597656 212.234062 447.597656 213.195937 
L 447.597656 216.904687 
L 446.513906 216.904687 
L 446.513906 210.342187 
L 447.597656 210.342187 
L 447.597656 211.362187 
Q 447.985781 210.769687 448.508906 210.477187 
Q 449.033906 210.184687 449.720156 210.184687 
Q 450.850781 210.184687 451.430156 210.884062 
Q 452.011406 211.583437 452.011406 212.942812 
z
" clip-path="url(#p4138cc3f02)" style="fill: #ffffff"/>
   </g>
   <g id="text_4">
    <g clip-path="url(#p4138cc3f02)">
     <!-- Bosutinib -->
     <g transform="translate(46.961769 169.873875)scale(0.12 -0.12)">
      <defs>
       <path id="DejaVuSans-42" d="M 1259 2228 
L 1259 519 
L 2272 519 
Q 2781 519 3026 730 
Q 3272 941 3272 1375 
Q 3272 1813 3026 2020 
Q 2781 2228 2272 2228 
L 1259 2228 
z
M 1259 4147 
L 1259 2741 
L 2194 2741 
Q 2656 2741 2882 2914 
Q 3109 3088 3109 3444 
Q 3109 3797 2882 3972 
Q 2656 4147 2194 4147 
L 1259 4147 
z
M 628 4666 
L 2241 4666 
Q 2963 4666 3353 4366 
Q 3744 4066 3744 3513 
Q 3744 3084 3544 2831 
Q 3344 2578 2956 2516 
Q 3422 2416 3680 2098 
Q 3938 1781 3938 1306 
Q 3938 681 3513 340 
Q 3088 0 2303 0 
L 628 0 
L 628 4666 
z
" transform="scale(0.015625)"/>
       <path id="DejaVuSans-6e" d="M 3513 2113 
L 3513 0 
L 2938 0 
L 2938 2094 
Q 2938 2591 2744 2837 
Q 2550 3084 2163 3084 
Q 1697 3084 1428 2787 
Q 1159 2491 1159 1978 
L 1159 0 
L 581 0 
L 581 3500 
L 1159 3500 
L 1159 2956 
Q 1366 3272 1645 3428 
Q 1925 3584 2291 3584 
Q 2894 3584 3203 3211 
Q 3513 2838 3513 2113 
z
" transform="scale(0.015625)"/>
       <path id="DejaVuSans-62" d="M 3116 1747 
Q 3116 2381 2855 2742 
Q 2594 3103 2138 3103 
Q 1681 3103 1420 2742 
Q 1159 2381 1159 1747 
Q 1159 1113 1420 752 
Q 1681 391 2138 391 
Q 2594 391 2855 752 
Q 3116 1113 3116 1747 
z
M 1159 2969 
Q 1341 3281 1617 3432 
Q 1894 3584 2278 3584 
Q 2916 3584 3314 3078 
Q 3713 2572 3713 1747 
Q 3713 922 3314 415 
Q 2916 -91 2278 -91 
Q 1894 -91 1617 61 
Q 1341 213 1159 525 
L 1159 0 
L 581 0 
L 581 4863 
L 1159 4863 
L 1159 2969 
z
" transform="scale(0.015625)"/>
      </defs>
      <use xlink:href="#DejaVuSans-42"/>
      <use xlink:href="#DejaVuSans-6f" x="68.603516"/>
      <use xlink:href="#DejaVuSans-73" x="129.785156"/>
      <use xlink:href="#DejaVuSans-75" x="181.884766"/>
      <use xlink:href="#DejaVuSans-74" x="245.263672"/>
      <use xlink:href="#DejaVuSans-69" x="284.472656"/>
      <use xlink:href="#DejaVuSans-6e" x="312.255859"/>
      <use xlink:href="#DejaVuSans-69" x="375.634766"/>
      <use xlink:href="#DejaVuSans-62" x="403.417969"/>
     </g>
    </g>
    <g clip-path="url(#p4138cc3f02)">
     <!-- MESH:C471992 -->
     <g transform="translate(28.569894 183.31125)scale(0.12 -0.12)">
      <defs>
       <path id="DejaVuSans-4d" d="M 628 4666 
L 1569 4666 
L 2759 1491 
L 3956 4666 
L 4897 4666 
L 4897 0 
L 4281 0 
L 4281 4097 
L 3078 897 
L 2444 897 
L 1241 4097 
L 1241 0 
L 628 0 
L 628 4666 
z
" transform="scale(0.015625)"/>
       <path id="DejaVuSans-45" d="M 628 4666 
L 3578 4666 
L 3578 4134 
L 1259 4134 
L 1259 2753 
L 3481 2753 
L 3481 2222 
L 1259 2222 
L 1259 531 
L 3634 531 
L 3634 0 
L 628 0 
L 628 4666 
z
" transform="scale(0.015625)"/>
       <path id="DejaVuSans-53" d="M 3425 4513 
L 3425 3897 
Q 3066 4069 2747 4153 
Q 2428 4238 2131 4238 
Q 1616 4238 1336 4038 
Q 1056 3838 1056 3469 
Q 1056 3159 1242 3001 
Q 1428 2844 1947 2747 
L 2328 2669 
Q 3034 2534 3370 2195 
Q 3706 1856 3706 1288 
Q 3706 609 3251 259 
Q 2797 -91 1919 -91 
Q 1588 -91 1214 -16 
Q 841 59 441 206 
L 441 856 
Q 825 641 1194 531 
Q 1563 422 1919 422 
Q 2459 422 2753 634 
Q 3047 847 3047 1241 
Q 3047 1584 2836 1778 
Q 2625 1972 2144 2069 
L 1759 2144 
Q 1053 2284 737 2584 
Q 422 2884 422 3419 
Q 422 4038 858 4394 
Q 1294 4750 2059 4750 
Q 2388 4750 2728 4690 
Q 3069 4631 3425 4513 
z
" transform="scale(0.015625)"/>
       <path id="DejaVuSans-48" d="M 628 4666 
L 1259 4666 
L 1259 2753 
L 3553 2753 
L 3553 4666 
L 4184 4666 
L 4184 0 
L 3553 0 
L 3553 2222 
L 1259 2222 
L 1259 0 
L 628 0 
L 628 4666 
z
" transform="scale(0.015625)"/>
       <path id="DejaVuSans-3a" d="M 750 794 
L 1409 794 
L 1409 0 
L 750 0 
L 750 794 
z
M 750 3309 
L 1409 3309 
L 1409 2516 
L 750 2516 
L 750 3309 
z
" transform="scale(0.015625)"/>
       <path id="DejaVuSans-43" d="M 4122 4306 
L 4122 3641 
Q 3803 3938 3442 4084 
Q 3081 4231 2675 4231 
Q 1875 4231 1450 3742 
Q 1025 3253 1025 2328 
Q 1025 1406 1450 917 
Q 1875 428 2675 428 
Q 3081 428 3442 575 
Q 3803 722 4122 1019 
L 4122 359 
Q 3791 134 3420 21 
Q 3050 -91 2638 -91 
Q 1578 -91 968 557 
Q 359 1206 359 2328 
Q 359 3453 968 4101 
Q 1578 4750 2638 4750 
Q 3056 4750 3426 4639 
Q 3797 4528 4122 4306 
z
" transform="scale(0.015625)"/>
       <path id="DejaVuSans-34" d="M 2419 4116 
L 825 1625 
L 2419 1625 
L 2419 4116 
z
M 2253 4666 
L 3047 4666 
L 3047 1625 
L 3713 1625 
L 3713 1100 
L 3047 1100 
L 3047 0 
L 2419 0 
L 2419 1100 
L 313 1100 
L 313 1709 
L 2253 4666 
z
" transform="scale(0.015625)"/>
       <path id="DejaVuSans-37" d="M 525 4666 
L 3525 4666 
L 3525 4397 
L 1831 0 
L 1172 0 
L 2766 4134 
L 525 4134 
L 525 4666 
z
" transform="scale(0.015625)"/>
       <path id="DejaVuSans-31" d="M 794 531 
L 1825 531 
L 1825 4091 
L 703 3866 
L 703 4441 
L 1819 4666 
L 2450 4666 
L 2450 531 
L 3481 531 
L 3481 0 
L 794 0 
L 794 531 
z
" transform="scale(0.015625)"/>
       <path id="DejaVuSans-39" d="M 703 97 
L 703 672 
Q 941 559 1184 500 
Q 1428 441 1663 441 
Q 2288 441 2617 861 
Q 2947 1281 2994 2138 
Q 2813 1869 2534 1725 
Q 2256 1581 1919 1581 
Q 1219 1581 811 2004 
Q 403 2428 403 3163 
Q 403 3881 828 4315 
Q 1253 4750 1959 4750 
Q 2769 4750 3195 4129 
Q 3622 3509 3622 2328 
Q 3622 1225 3098 567 
Q 2575 -91 1691 -91 
Q 1453 -91 1209 -44 
Q 966 3 703 97 
z
M 1959 2075 
Q 2384 2075 2632 2365 
Q 2881 2656 2881 3163 
Q 2881 3666 2632 3958 
Q 2384 4250 1959 4250 
Q 1534 4250 1286 3958 
Q 1038 3666 1038 3163 
Q 1038 2656 1286 2365 
Q 1534 2075 1959 2075 
z
" transform="scale(0.015625)"/>
       <path id="DejaVuSans-32" d="M 1228 531 
L 3431 531 
L 3431 0 
L 469 0 
L 469 531 
Q 828 903 1448 1529 
Q 2069 2156 2228 2338 
Q 2531 2678 2651 2914 
Q 2772 3150 2772 3378 
Q 2772 3750 2511 3984 
Q 2250 4219 1831 4219 
Q 1534 4219 1204 4116 
Q 875 4013 500 3803 
L 500 4441 
Q 881 4594 1212 4672 
Q 1544 4750 1819 4750 
Q 2544 4750 2975 4387 
Q 3406 4025 3406 3419 
Q 3406 3131 3298 2873 
Q 3191 2616 2906 2266 
Q 2828 2175 2409 1742 
Q 1991 1309 1228 531 
z
" transform="scale(0.015625)"/>
      </defs>
      <use xlink:href="#DejaVuSans-4d"/>
      <use xlink:href="#DejaVuSans-45" x="86.279297"/>
      <use xlink:href="#DejaVuSans-53" x="149.462891"/>
      <use xlink:href="#DejaVuSans-48" x="212.939453"/>
      <use xlink:href="#DejaVuSans-3a" x="288.134766"/>
      <use xlink:href="#DejaVuSans-43" x="321.826172"/>
      <use xlink:href="#DejaVuSans-34" x="391.650391"/>
      <use xlink:href="#DejaVuSans-37" x="455.273438"/>
      <use xlink:href="#DejaVuSans-31" x="518.896484"/>
      <use xlink:href="#DejaVuSans-39" x="582.519531"/>
      <use xlink:href="#DejaVuSans-39" x="646.142578"/>
      <use xlink:href="#DejaVuSans-32" x="709.765625"/>
     </g>
    </g>
    <g clip-path="url(#p4138cc3f02)">
     <!-- Drug -->
     <g transform="translate(60.277082 196.748625)scale(0.12 -0.12)">
      <defs>
       <path id="DejaVuSans-44" d="M 1259 4147 
L 1259 519 
L 2022 519 
Q 2988 519 3436 956 
Q 3884 1394 3884 2338 
Q 3884 3275 3436 3711 
Q 2988 4147 2022 4147 
L 1259 4147 
z
M 628 4666 
L 1925 4666 
Q 3281 4666 3915 4102 
Q 4550 3538 4550 2338 
Q 4550 1131 3912 565 
Q 3275 0 1925 0 
L 628 0 
L 628 4666 
z
" transform="scale(0.015625)"/>
       <path id="DejaVuSans-67" d="M 2906 1791 
Q 2906 2416 2648 2759 
Q 2391 3103 1925 3103 
Q 1463 3103 1205 2759 
Q 947 2416 947 1791 
Q 947 1169 1205 825 
Q 1463 481 1925 481 
Q 2391 481 2648 825 
Q 2906 1169 2906 1791 
z
M 3481 434 
Q 3481 -459 3084 -895 
Q 2688 -1331 1869 -1331 
Q 1566 -1331 1297 -1286 
Q 1028 -1241 775 -1147 
L 775 -588 
Q 1028 -725 1275 -790 
Q 1522 -856 1778 -856 
Q 2344 -856 2625 -561 
Q 2906 -266 2906 331 
L 2906 616 
Q 2728 306 2450 153 
Q 2172 0 1784 0 
Q 1141 0 747 490 
Q 353 981 353 1791 
Q 353 2603 747 3093 
Q 1141 3584 1784 3584 
Q 2172 3584 2450 3431 
Q 2728 3278 2906 2969 
L 2906 3500 
L 3481 3500 
L 3481 434 
z
" transform="scale(0.015625)"/>
      </defs>
      <use xlink:href="#DejaVuSans-44"/>
      <use xlink:href="#DejaVuSans-72" x="77.001953"/>
      <use xlink:href="#DejaVuSans-75" x="118.115234"/>
      <use xlink:href="#DejaVuSans-67" x="181.494141"/>
     </g>
    </g>
   </g>
   <g id="text_5">
    <g clip-path="url(#p4138cc3f02)">
     <!-- Blastic phase -->
     <g transform="translate(749.107918 149.717812)scale(0.12 -0.12)">
      <defs>
       <path id="DejaVuSans-6c" d="M 603 4863 
L 1178 4863 
L 1178 0 
L 603 0 
L 603 4863 
z
" transform="scale(0.015625)"/>
       <path id="DejaVuSans-70" d="M 1159 525 
L 1159 -1331 
L 581 -1331 
L 581 3500 
L 1159 3500 
L 1159 2969 
Q 1341 3281 1617 3432 
Q 1894 3584 2278 3584 
Q 2916 3584 3314 3078 
Q 3713 2572 3713 1747 
Q 3713 922 3314 415 
Q 2916 -91 2278 -91 
Q 1894 -91 1617 61 
Q 1341 213 1159 525 
z
M 3116 1747 
Q 3116 2381 2855 2742 
Q 2594 3103 2138 3103 
Q 1681 3103 1420 2742 
Q 1159 2381 1159 1747 
Q 1159 1113 1420 752 
Q 1681 391 2138 391 
Q 2594 391 2855 752 
Q 3116 1113 3116 1747 
z
" transform="scale(0.015625)"/>
       <path id="DejaVuSans-68" d="M 3513 2113 
L 3513 0 
L 2938 0 
L 2938 2094 
Q 2938 2591 2744 2837 
Q 2550 3084 2163 3084 
Q 1697 3084 1428 2787 
Q 1159 2491 1159 1978 
L 1159 0 
L 581 0 
L 581 4863 
L 1159 4863 
L 1159 2956 
Q 1366 3272 1645 3428 
Q 1925 3584 2291 3584 
Q 2894 3584 3203 3211 
Q 3513 2838 3513 2113 
z
" transform="scale(0.015625)"/>
      </defs>
      <use xlink:href="#DejaVuSans-42"/>
      <use xlink:href="#DejaVuSans-6c" x="68.603516"/>
      <use xlink:href="#DejaVuSans-61" x="96.386719"/>
      <use xlink:href="#DejaVuSans-73" x="157.666016"/>
      <use xlink:href="#DejaVuSans-74" x="209.765625"/>
      <use xlink:href="#DejaVuSans-69" x="248.974609"/>
      <use xlink:href="#DejaVuSans-63" x="276.757812"/>
      <use xlink:href="#DejaVuSans-20" x="331.738281"/>
      <use xlink:href="#DejaVuSans-70" x="363.525391"/>
      <use xlink:href="#DejaVuSans-68" x="427.001953"/>
      <use xlink:href="#DejaVuSans-61" x="490.380859"/>
      <use xlink:href="#DejaVuSans-73" x="551.660156"/>
      <use xlink:href="#DejaVuSans-65" x="603.759766"/>
     </g>
    </g>
    <g clip-path="url(#p4138cc3f02)">
     <!-- of chronic -->
     <g transform="translate(759.461668 163.155187)scale(0.12 -0.12)">
      <use xlink:href="#DejaVuSans-6f"/>
      <use xlink:href="#DejaVuSans-66" x="61.181641"/>
      <use xlink:href="#DejaVuSans-20" x="96.386719"/>
      <use xlink:href="#DejaVuSans-63" x="128.173828"/>
      <use xlink:href="#DejaVuSans-68" x="183.154297"/>
      <use xlink:href="#DejaVuSans-72" x="246.533203"/>
      <use xlink:href="#DejaVuSans-6f" x="285.396484"/>
      <use xlink:href="#DejaVuSans-6e" x="346.578125"/>
      <use xlink:href="#DejaVuSans-69" x="409.957031"/>
      <use xlink:href="#DejaVuSans-63" x="437.740234"/>
     </g>
    </g>
    <g clip-path="url(#p4138cc3f02)">
     <!-- myeloid -->
     <g transform="translate(765.123231 176.592562)scale(0.12 -0.12)">
      <defs>
       <path id="DejaVuSans-6d" d="M 3328 2828 
Q 3544 3216 3844 3400 
Q 4144 3584 4550 3584 
Q 5097 3584 5394 3201 
Q 5691 2819 5691 2113 
L 5691 0 
L 5113 0 
L 5113 2094 
Q 5113 2597 4934 2840 
Q 4756 3084 4391 3084 
Q 3944 3084 3684 2787 
Q 3425 2491 3425 1978 
L 3425 0 
L 2847 0 
L 2847 2094 
Q 2847 2600 2669 2842 
Q 2491 3084 2119 3084 
Q 1678 3084 1418 2786 
Q 1159 2488 1159 1978 
L 1159 0 
L 581 0 
L 581 3500 
L 1159 3500 
L 1159 2956 
Q 1356 3278 1631 3431 
Q 1906 3584 2284 3584 
Q 2666 3584 2933 3390 
Q 3200 3197 3328 2828 
z
" transform="scale(0.015625)"/>
      </defs>
      <use xlink:href="#DejaVuSans-6d"/>
      <use xlink:href="#DejaVuSans-79" x="97.412109"/>
      <use xlink:href="#DejaVuSans-65" x="156.591797"/>
      <use xlink:href="#DejaVuSans-6c" x="218.115234"/>
      <use xlink:href="#DejaVuSans-6f" x="245.898438"/>
      <use xlink:href="#DejaVuSans-69" x="307.080078"/>
      <use xlink:href="#DejaVuSans-64" x="334.863281"/>
     </g>
    </g>
    <g clip-path="url(#p4138cc3f02)">
     <!-- leukemia -->
     <g transform="translate(761.726668 190.029937)scale(0.12 -0.12)">
      <defs>
       <path id="DejaVuSans-6b" d="M 581 4863 
L 1159 4863 
L 1159 1991 
L 2875 3500 
L 3609 3500 
L 1753 1863 
L 3688 0 
L 2938 0 
L 1159 1709 
L 1159 0 
L 581 0 
L 581 4863 
z
" transform="scale(0.015625)"/>
      </defs>
      <use xlink:href="#DejaVuSans-6c"/>
      <use xlink:href="#DejaVuSans-65" x="27.783203"/>
      <use xlink:href="#DejaVuSans-75" x="89.306641"/>
      <use xlink:href="#DejaVuSans-6b" x="152.685547"/>
      <use xlink:href="#DejaVuSans-65" x="206.970703"/>
      <use xlink:href="#DejaVuSans-6d" x="268.494141"/>
      <use xlink:href="#DejaVuSans-69" x="365.90625"/>
      <use xlink:href="#DejaVuSans-61" x="393.689453"/>
     </g>
    </g>
    <g clip-path="url(#p4138cc3f02)">
     <!-- MESH:D001752 -->
     <g transform="translate(742.189168 203.467312)scale(0.12 -0.12)">
      <defs>
       <path id="DejaVuSans-30" d="M 2034 4250 
Q 1547 4250 1301 3770 
Q 1056 3291 1056 2328 
Q 1056 1369 1301 889 
Q 1547 409 2034 409 
Q 2525 409 2770 889 
Q 3016 1369 3016 2328 
Q 3016 3291 2770 3770 
Q 2525 4250 2034 4250 
z
M 2034 4750 
Q 2819 4750 3233 4129 
Q 3647 3509 3647 2328 
Q 3647 1150 3233 529 
Q 2819 -91 2034 -91 
Q 1250 -91 836 529 
Q 422 1150 422 2328 
Q 422 3509 836 4129 
Q 1250 4750 2034 4750 
z
" transform="scale(0.015625)"/>
       <path id="DejaVuSans-35" d="M 691 4666 
L 3169 4666 
L 3169 4134 
L 1269 4134 
L 1269 2991 
Q 1406 3038 1543 3061 
Q 1681 3084 1819 3084 
Q 2600 3084 3056 2656 
Q 3513 2228 3513 1497 
Q 3513 744 3044 326 
Q 2575 -91 1722 -91 
Q 1428 -91 1123 -41 
Q 819 9 494 109 
L 494 744 
Q 775 591 1075 516 
Q 1375 441 1709 441 
Q 2250 441 2565 725 
Q 2881 1009 2881 1497 
Q 2881 1984 2565 2268 
Q 2250 2553 1709 2553 
Q 1456 2553 1204 2497 
Q 953 2441 691 2322 
L 691 4666 
z
" transform="scale(0.015625)"/>
      </defs>
      <use xlink:href="#DejaVuSans-4d"/>
      <use xlink:href="#DejaVuSans-45" x="86.279297"/>
      <use xlink:href="#DejaVuSans-53" x="149.462891"/>
      <use xlink:href="#DejaVuSans-48" x="212.939453"/>
      <use xlink:href="#DejaVuSans-3a" x="288.134766"/>
      <use xlink:href="#DejaVuSans-44" x="321.826172"/>
      <use xlink:href="#DejaVuSans-30" x="398.828125"/>
      <use xlink:href="#DejaVuSans-30" x="462.451172"/>
      <use xlink:href="#DejaVuSans-31" x="526.074219"/>
      <use xlink:href="#DejaVuSans-37" x="589.697266"/>
      <use xlink:href="#DejaVuSans-35" x="653.320312"/>
      <use xlink:href="#DejaVuSans-32" x="716.943359"/>
     </g>
    </g>
    <g clip-path="url(#p4138cc3f02)">
     <!-- Disease -->
     <g transform="translate(765.426043 216.904687)scale(0.12 -0.12)">
      <use xlink:href="#DejaVuSans-44"/>
      <use xlink:href="#DejaVuSans-69" x="77.001953"/>
      <use xlink:href="#DejaVuSans-73" x="104.785156"/>
      <use xlink:href="#DejaVuSans-65" x="156.884766"/>
      <use xlink:href="#DejaVuSans-61" x="218.408203"/>
      <use xlink:href="#DejaVuSans-73" x="279.6875"/>
      <use xlink:href="#DejaVuSans-65" x="331.787109"/>
     </g>
    </g>
   </g>
  </g>
 </g>
 <defs>
  <clipPath id="p4138cc3f02">
   <rect x="0" y="0" width="864" height="360"/>
  </clipPath>
 </defs>
</svg>
