<?xml version="1.0" encoding="utf-8" standalone="no"?>
<!DOCTYPE svg PUBLIC "-//W3C//DTD SVG 1.1//EN"
  "http://www.w3.org/Graphics/SVG/1.1/DTD/svg11.dtd">
<svg xmlns:xlink="http://www.w3.org/1999/xlink" width="1036.8pt" height="360pt" viewBox="0 0 1036.8 360" xmlns="http://www.w3.org/2000/svg" version="1.1">
 <metadata>
  <rdf:RDF xmlns:dc="http://purl.org/dc/elements/1.1/" xmlns:cc="http://creativecommons.org/ns#" xmlns:rdf="http://www.w3.org/1999/02/22-rdf-syntax-ns#">
   <cc:Work>
    <dc:type rdf:resource="http://purl.org/dc/dcmitype/StillImage"/>
    <dc:date>2023-02-08T08:51:53.667616</dc:date>
    <dc:format>image/svg+xml</dc:format>
    <dc:creator>
     <cc:Agent>
      <dc:title>Matplotlib v3.5.1, https://matplotlib.org/</dc:title>
     </cc:Agent>
    </dc:creator>
   </cc:Work>
  </rdf:RDF>
 </metadata>
 <defs>
  <style type="text/css">*{stroke-linejoin: round; stroke-linecap: butt}</style>
 </defs>
 <g id="figure_1">
  <g id="patch_1">
   <path d="M 0 360 
L 1036.8 360 
L 1036.8 0 
L 0 0 
z
" style="fill: #ffffff"/>
  </g>
  <g id="axes_1">
   <g id="patch_2">
    <path d="M 142.412623 180 
Q 232.78063 180 319.794535 180 
" clip-path="url(#p5a338906b0)" style="fill: none; stroke: #2ca02c; stroke-width: 3; stroke-linecap: round"/>
    <path d="M 315.794535 178 
L 319.794535 180 
L 315.794535 182 
L 315.794535 178 
z
" clip-path="url(#p5a338906b0)" style="fill: #2ca02c; stroke: #2ca02c; stroke-width: 3; stroke-linecap: round"/>
   </g>
   <g id="patch_3">
    <path d="M 428.032457 180 
Q 518.400465 180 605.41437 180 
" clip-path="url(#p5a338906b0)" style="fill: none; stroke: #2ca02c; stroke-width: 3; stroke-linecap: round"/>
    <path d="M 601.41437 178 
L 605.41437 180 
L 601.41437 182 
L 601.41437 178 
z
" clip-path="url(#p5a338906b0)" style="fill: #2ca02c; stroke: #2ca02c; stroke-width: 3; stroke-linecap: round"/>
   </g>
   <g id="patch_4">
    <path d="M 713.652292 180 
Q 804.020299 180 891.034204 180 
" clip-path="url(#p5a338906b0)" style="fill: none; stroke: #2ca02c; stroke-width: 3; stroke-linecap: round"/>
    <path d="M 887.034204 178 
L 891.034204 180 
L 887.034204 182 
L 887.034204 178 
z
" clip-path="url(#p5a338906b0)" style="fill: #2ca02c; stroke: #2ca02c; stroke-width: 3; stroke-linecap: round"/>
   </g>
   <g id="text_1">
    <g id="patch_5">
     <path d="M 197.805165 187.839062 
L 267.755165 187.839062 
Q 270.755165 187.839062 270.755165 184.839062 
L 270.755165 175.160937 
Q 270.755165 172.160937 267.755165 172.160937 
L 197.805165 172.160937 
Q 194.805165 172.160937 194.805165 175.160937 
L 194.805165 184.839062 
Q 194.805165 187.839062 197.805165 187.839062 
z
" clip-path="url(#p5a338906b0)" style="fill: #ffffff; stroke: #ffffff; stroke-linejoin: miter"/>
    </g>
    <g clip-path="url(#p5a338906b0)">
     <!-- contributes to -->
     <g transform="translate(197.805165 182.759375)scale(0.1 -0.1)">
      <defs>
       <path id="DejaVuSans-63" d="M 3122 3366 
L 3122 2828 
Q 2878 2963 2633 3030 
Q 2388 3097 2138 3097 
Q 1578 3097 1268 2742 
Q 959 2388 959 1747 
Q 959 1106 1268 751 
Q 1578 397 2138 397 
Q 2388 397 2633 464 
Q 2878 531 3122 666 
L 3122 134 
Q 2881 22 2623 -34 
Q 2366 -91 2075 -91 
Q 1284 -91 818 406 
Q 353 903 353 1747 
Q 353 2603 823 3093 
Q 1294 3584 2113 3584 
Q 2378 3584 2631 3529 
Q 2884 3475 3122 3366 
z
" transform="scale(0.015625)"/>
       <path id="DejaVuSans-6f" d="M 1959 3097 
Q 1497 3097 1228 2736 
Q 959 2375 959 1747 
Q 959 1119 1226 758 
Q 1494 397 1959 397 
Q 2419 397 2687 759 
Q 2956 1122 2956 1747 
Q 2956 2369 2687 2733 
Q 2419 3097 1959 3097 
z
M 1959 3584 
Q 2709 3584 3137 3096 
Q 3566 2609 3566 1747 
Q 3566 888 3137 398 
Q 2709 -91 1959 -91 
Q 1206 -91 779 398 
Q 353 888 353 1747 
Q 353 2609 779 3096 
Q 1206 3584 1959 3584 
z
" transform="scale(0.015625)"/>
       <path id="DejaVuSans-6e" d="M 3513 2113 
L 3513 0 
L 2938 0 
L 2938 2094 
Q 2938 2591 2744 2837 
Q 2550 3084 2163 3084 
Q 1697 3084 1428 2787 
Q 1159 2491 1159 1978 
L 1159 0 
L 581 0 
L 581 3500 
L 1159 3500 
L 1159 2956 
Q 1366 3272 1645 3428 
Q 1925 3584 2291 3584 
Q 2894 3584 3203 3211 
Q 3513 2838 3513 2113 
z
" transform="scale(0.015625)"/>
       <path id="DejaVuSans-74" d="M 1172 4494 
L 1172 3500 
L 2356 3500 
L 2356 3053 
L 1172 3053 
L 1172 1153 
Q 1172 725 1289 603 
Q 1406 481 1766 481 
L 2356 481 
L 2356 0 
L 1766 0 
Q 1100 0 847 248 
Q 594 497 594 1153 
L 594 3053 
L 172 3053 
L 172 3500 
L 594 3500 
L 594 4494 
L 1172 4494 
z
" transform="scale(0.015625)"/>
       <path id="DejaVuSans-72" d="M 2631 2963 
Q 2534 3019 2420 3045 
Q 2306 3072 2169 3072 
Q 1681 3072 1420 2755 
Q 1159 2438 1159 1844 
L 1159 0 
L 581 0 
L 581 3500 
L 1159 3500 
L 1159 2956 
Q 1341 3275 1631 3429 
Q 1922 3584 2338 3584 
Q 2397 3584 2469 3576 
Q 2541 3569 2628 3553 
L 2631 2963 
z
" transform="scale(0.015625)"/>
       <path id="DejaVuSans-69" d="M 603 3500 
L 1178 3500 
L 1178 0 
L 603 0 
L 603 3500 
z
M 603 4863 
L 1178 4863 
L 1178 4134 
L 603 4134 
L 603 4863 
z
" transform="scale(0.015625)"/>
       <path id="DejaVuSans-62" d="M 3116 1747 
Q 3116 2381 2855 2742 
Q 2594 3103 2138 3103 
Q 1681 3103 1420 2742 
Q 1159 2381 1159 1747 
Q 1159 1113 1420 752 
Q 1681 391 2138 391 
Q 2594 391 2855 752 
Q 3116 1113 3116 1747 
z
M 1159 2969 
Q 1341 3281 1617 3432 
Q 1894 3584 2278 3584 
Q 2916 3584 3314 3078 
Q 3713 2572 3713 1747 
Q 3713 922 3314 415 
Q 2916 -91 2278 -91 
Q 1894 -91 1617 61 
Q 1341 213 1159 525 
L 1159 0 
L 581 0 
L 581 4863 
L 1159 4863 
L 1159 2969 
z
" transform="scale(0.015625)"/>
       <path id="DejaVuSans-75" d="M 544 1381 
L 544 3500 
L 1119 3500 
L 1119 1403 
Q 1119 906 1312 657 
Q 1506 409 1894 409 
Q 2359 409 2629 706 
Q 2900 1003 2900 1516 
L 2900 3500 
L 3475 3500 
L 3475 0 
L 2900 0 
L 2900 538 
Q 2691 219 2414 64 
Q 2138 -91 1772 -91 
Q 1169 -91 856 284 
Q 544 659 544 1381 
z
M 1991 3584 
L 1991 3584 
z
" transform="scale(0.015625)"/>
       <path id="DejaVuSans-65" d="M 3597 1894 
L 3597 1613 
L 953 1613 
Q 991 1019 1311 708 
Q 1631 397 2203 397 
Q 2534 397 2845 478 
Q 3156 559 3463 722 
L 3463 178 
Q 3153 47 2828 -22 
Q 2503 -91 2169 -91 
Q 1331 -91 842 396 
Q 353 884 353 1716 
Q 353 2575 817 3079 
Q 1281 3584 2069 3584 
Q 2775 3584 3186 3129 
Q 3597 2675 3597 1894 
z
M 3022 2063 
Q 3016 2534 2758 2815 
Q 2500 3097 2075 3097 
Q 1594 3097 1305 2825 
Q 1016 2553 972 2059 
L 3022 2063 
z
" transform="scale(0.015625)"/>
       <path id="DejaVuSans-73" d="M 2834 3397 
L 2834 2853 
Q 2591 2978 2328 3040 
Q 2066 3103 1784 3103 
Q 1356 3103 1142 2972 
Q 928 2841 928 2578 
Q 928 2378 1081 2264 
Q 1234 2150 1697 2047 
L 1894 2003 
Q 2506 1872 2764 1633 
Q 3022 1394 3022 966 
Q 3022 478 2636 193 
Q 2250 -91 1575 -91 
Q 1294 -91 989 -36 
Q 684 19 347 128 
L 347 722 
Q 666 556 975 473 
Q 1284 391 1588 391 
Q 1994 391 2212 530 
Q 2431 669 2431 922 
Q 2431 1156 2273 1281 
Q 2116 1406 1581 1522 
L 1381 1569 
Q 847 1681 609 1914 
Q 372 2147 372 2553 
Q 372 3047 722 3315 
Q 1072 3584 1716 3584 
Q 2034 3584 2315 3537 
Q 2597 3491 2834 3397 
z
" transform="scale(0.015625)"/>
       <path id="DejaVuSans-20" transform="scale(0.015625)"/>
      </defs>
      <use xlink:href="#DejaVuSans-63"/>
      <use xlink:href="#DejaVuSans-6f" x="54.980469"/>
      <use xlink:href="#DejaVuSans-6e" x="116.162109"/>
      <use xlink:href="#DejaVuSans-74" x="179.541016"/>
      <use xlink:href="#DejaVuSans-72" x="218.75"/>
      <use xlink:href="#DejaVuSans-69" x="259.863281"/>
      <use xlink:href="#DejaVuSans-62" x="287.646484"/>
      <use xlink:href="#DejaVuSans-75" x="351.123047"/>
      <use xlink:href="#DejaVuSans-74" x="414.501953"/>
      <use xlink:href="#DejaVuSans-65" x="453.710938"/>
      <use xlink:href="#DejaVuSans-73" x="515.234375"/>
      <use xlink:href="#DejaVuSans-20" x="567.333984"/>
      <use xlink:href="#DejaVuSans-74" x="599.121094"/>
      <use xlink:href="#DejaVuSans-6f" x="638.330078"/>
     </g>
    </g>
   </g>
   <g id="text_2">
    <g id="patch_6">
     <path d="M 480.74375 193.437969 
L 556.05625 193.437969 
Q 559.05625 193.437969 559.05625 190.437969 
L 559.05625 169.562031 
Q 559.05625 166.562031 556.05625 166.562031 
L 480.74375 166.562031 
Q 477.74375 166.562031 477.74375 169.562031 
L 477.74375 190.437969 
Q 477.74375 193.437969 480.74375 193.437969 
z
" clip-path="url(#p5a338906b0)" style="fill: #ffffff; stroke: #ffffff; stroke-linejoin: miter"/>
    </g>
    <g clip-path="url(#p5a338906b0)">
     <!-- negatively -->
     <g transform="translate(492.182812 177.160469)scale(0.1 -0.1)">
      <defs>
       <path id="DejaVuSans-67" d="M 2906 1791 
Q 2906 2416 2648 2759 
Q 2391 3103 1925 3103 
Q 1463 3103 1205 2759 
Q 947 2416 947 1791 
Q 947 1169 1205 825 
Q 1463 481 1925 481 
Q 2391 481 2648 825 
Q 2906 1169 2906 1791 
z
M 3481 434 
Q 3481 -459 3084 -895 
Q 2688 -1331 1869 -1331 
Q 1566 -1331 1297 -1286 
Q 1028 -1241 775 -1147 
L 775 -588 
Q 1028 -725 1275 -790 
Q 1522 -856 1778 -856 
Q 2344 -856 2625 -561 
Q 2906 -266 2906 331 
L 2906 616 
Q 2728 306 2450 153 
Q 2172 0 1784 0 
Q 1141 0 747 490 
Q 353 981 353 1791 
Q 353 2603 747 3093 
Q 1141 3584 1784 3584 
Q 2172 3584 2450 3431 
Q 2728 3278 2906 2969 
L 2906 3500 
L 3481 3500 
L 3481 434 
z
" transform="scale(0.015625)"/>
       <path id="DejaVuSans-61" d="M 2194 1759 
Q 1497 1759 1228 1600 
Q 959 1441 959 1056 
Q 959 750 1161 570 
Q 1363 391 1709 391 
Q 2188 391 2477 730 
Q 2766 1069 2766 1631 
L 2766 1759 
L 2194 1759 
z
M 3341 1997 
L 3341 0 
L 2766 0 
L 2766 531 
Q 2569 213 2275 61 
Q 1981 -91 1556 -91 
Q 1019 -91 701 211 
Q 384 513 384 1019 
Q 384 1609 779 1909 
Q 1175 2209 1959 2209 
L 2766 2209 
L 2766 2266 
Q 2766 2663 2505 2880 
Q 2244 3097 1772 3097 
Q 1472 3097 1187 3025 
Q 903 2953 641 2809 
L 641 3341 
Q 956 3463 1253 3523 
Q 1550 3584 1831 3584 
Q 2591 3584 2966 3190 
Q 3341 2797 3341 1997 
z
" transform="scale(0.015625)"/>
       <path id="DejaVuSans-76" d="M 191 3500 
L 800 3500 
L 1894 563 
L 2988 3500 
L 3597 3500 
L 2284 0 
L 1503 0 
L 191 3500 
z
" transform="scale(0.015625)"/>
       <path id="DejaVuSans-6c" d="M 603 4863 
L 1178 4863 
L 1178 0 
L 603 0 
L 603 4863 
z
" transform="scale(0.015625)"/>
       <path id="DejaVuSans-79" d="M 2059 -325 
Q 1816 -950 1584 -1140 
Q 1353 -1331 966 -1331 
L 506 -1331 
L 506 -850 
L 844 -850 
Q 1081 -850 1212 -737 
Q 1344 -625 1503 -206 
L 1606 56 
L 191 3500 
L 800 3500 
L 1894 763 
L 2988 3500 
L 3597 3500 
L 2059 -325 
z
" transform="scale(0.015625)"/>
      </defs>
      <use xlink:href="#DejaVuSans-6e"/>
      <use xlink:href="#DejaVuSans-65" x="63.378906"/>
      <use xlink:href="#DejaVuSans-67" x="124.902344"/>
      <use xlink:href="#DejaVuSans-61" x="188.378906"/>
      <use xlink:href="#DejaVuSans-74" x="249.658203"/>
      <use xlink:href="#DejaVuSans-69" x="288.867188"/>
      <use xlink:href="#DejaVuSans-76" x="316.650391"/>
      <use xlink:href="#DejaVuSans-65" x="375.830078"/>
      <use xlink:href="#DejaVuSans-6c" x="437.353516"/>
      <use xlink:href="#DejaVuSans-79" x="465.136719"/>
     </g>
    </g>
    <g clip-path="url(#p5a338906b0)">
     <!-- correlated with -->
     <g transform="translate(480.74375 188.358281)scale(0.1 -0.1)">
      <defs>
       <path id="DejaVuSans-64" d="M 2906 2969 
L 2906 4863 
L 3481 4863 
L 3481 0 
L 2906 0 
L 2906 525 
Q 2725 213 2448 61 
Q 2172 -91 1784 -91 
Q 1150 -91 751 415 
Q 353 922 353 1747 
Q 353 2572 751 3078 
Q 1150 3584 1784 3584 
Q 2172 3584 2448 3432 
Q 2725 3281 2906 2969 
z
M 947 1747 
Q 947 1113 1208 752 
Q 1469 391 1925 391 
Q 2381 391 2643 752 
Q 2906 1113 2906 1747 
Q 2906 2381 2643 2742 
Q 2381 3103 1925 3103 
Q 1469 3103 1208 2742 
Q 947 2381 947 1747 
z
" transform="scale(0.015625)"/>
       <path id="DejaVuSans-77" d="M 269 3500 
L 844 3500 
L 1563 769 
L 2278 3500 
L 2956 3500 
L 3675 769 
L 4391 3500 
L 4966 3500 
L 4050 0 
L 3372 0 
L 2619 2869 
L 1863 0 
L 1184 0 
L 269 3500 
z
" transform="scale(0.015625)"/>
       <path id="DejaVuSans-68" d="M 3513 2113 
L 3513 0 
L 2938 0 
L 2938 2094 
Q 2938 2591 2744 2837 
Q 2550 3084 2163 3084 
Q 1697 3084 1428 2787 
Q 1159 2491 1159 1978 
L 1159 0 
L 581 0 
L 581 4863 
L 1159 4863 
L 1159 2956 
Q 1366 3272 1645 3428 
Q 1925 3584 2291 3584 
Q 2894 3584 3203 3211 
Q 3513 2838 3513 2113 
z
" transform="scale(0.015625)"/>
      </defs>
      <use xlink:href="#DejaVuSans-63"/>
      <use xlink:href="#DejaVuSans-6f" x="54.980469"/>
      <use xlink:href="#DejaVuSans-72" x="116.162109"/>
      <use xlink:href="#DejaVuSans-72" x="155.525391"/>
      <use xlink:href="#DejaVuSans-65" x="194.388672"/>
      <use xlink:href="#DejaVuSans-6c" x="255.912109"/>
      <use xlink:href="#DejaVuSans-61" x="283.695312"/>
      <use xlink:href="#DejaVuSans-74" x="344.974609"/>
      <use xlink:href="#DejaVuSans-65" x="384.183594"/>
      <use xlink:href="#DejaVuSans-64" x="445.707031"/>
      <use xlink:href="#DejaVuSans-20" x="509.183594"/>
      <use xlink:href="#DejaVuSans-77" x="540.970703"/>
      <use xlink:href="#DejaVuSans-69" x="622.757812"/>
      <use xlink:href="#DejaVuSans-74" x="650.541016"/>
      <use xlink:href="#DejaVuSans-68" x="689.75"/>
     </g>
    </g>
   </g>
   <g id="text_3">
    <g id="patch_7">
     <path d="M 766.363585 193.437969 
L 841.676085 193.437969 
Q 844.676085 193.437969 844.676085 190.437969 
L 844.676085 169.562031 
Q 844.676085 166.562031 841.676085 166.562031 
L 766.363585 166.562031 
Q 763.363585 166.562031 763.363585 169.562031 
L 763.363585 190.437969 
Q 763.363585 193.437969 766.363585 193.437969 
z
" clip-path="url(#p5a338906b0)" style="fill: #ffffff; stroke: #ffffff; stroke-linejoin: miter"/>
    </g>
    <g clip-path="url(#p5a338906b0)">
     <!-- positively -->
     <g transform="translate(780.058897 177.160469)scale(0.1 -0.1)">
      <defs>
       <path id="DejaVuSans-70" d="M 1159 525 
L 1159 -1331 
L 581 -1331 
L 581 3500 
L 1159 3500 
L 1159 2969 
Q 1341 3281 1617 3432 
Q 1894 3584 2278 3584 
Q 2916 3584 3314 3078 
Q 3713 2572 3713 1747 
Q 3713 922 3314 415 
Q 2916 -91 2278 -91 
Q 1894 -91 1617 61 
Q 1341 213 1159 525 
z
M 3116 1747 
Q 3116 2381 2855 2742 
Q 2594 3103 2138 3103 
Q 1681 3103 1420 2742 
Q 1159 2381 1159 1747 
Q 1159 1113 1420 752 
Q 1681 391 2138 391 
Q 2594 391 2855 752 
Q 3116 1113 3116 1747 
z
" transform="scale(0.015625)"/>
      </defs>
      <use xlink:href="#DejaVuSans-70"/>
      <use xlink:href="#DejaVuSans-6f" x="63.476562"/>
      <use xlink:href="#DejaVuSans-73" x="124.658203"/>
      <use xlink:href="#DejaVuSans-69" x="176.757812"/>
      <use xlink:href="#DejaVuSans-74" x="204.541016"/>
      <use xlink:href="#DejaVuSans-69" x="243.75"/>
      <use xlink:href="#DejaVuSans-76" x="271.533203"/>
      <use xlink:href="#DejaVuSans-65" x="330.712891"/>
      <use xlink:href="#DejaVuSans-6c" x="392.236328"/>
      <use xlink:href="#DejaVuSans-79" x="420.019531"/>
     </g>
    </g>
    <g clip-path="url(#p5a338906b0)">
     <!-- correlated with -->
     <g transform="translate(766.363585 188.358281)scale(0.1 -0.1)">
      <use xlink:href="#DejaVuSans-63"/>
      <use xlink:href="#DejaVuSans-6f" x="54.980469"/>
      <use xlink:href="#DejaVuSans-72" x="116.162109"/>
      <use xlink:href="#DejaVuSans-72" x="155.525391"/>
      <use xlink:href="#DejaVuSans-65" x="194.388672"/>
      <use xlink:href="#DejaVuSans-6c" x="255.912109"/>
      <use xlink:href="#DejaVuSans-61" x="283.695312"/>
      <use xlink:href="#DejaVuSans-74" x="344.974609"/>
      <use xlink:href="#DejaVuSans-65" x="384.183594"/>
      <use xlink:href="#DejaVuSans-64" x="445.707031"/>
      <use xlink:href="#DejaVuSans-20" x="509.183594"/>
      <use xlink:href="#DejaVuSans-77" x="540.970703"/>
      <use xlink:href="#DejaVuSans-69" x="622.757812"/>
      <use xlink:href="#DejaVuSans-74" x="650.541016"/>
      <use xlink:href="#DejaVuSans-68" x="689.75"/>
     </g>
    </g>
   </g>
   <g id="PathCollection_1">
    <defs>
     <path id="C0_0_e6f4db854e" d="M 0 52.440442 
C 13.907368 52.440442 27.246998 46.914987 37.080992 37.080992 
C 46.914987 27.246998 52.440442 13.907368 52.440442 -0 
C 52.440442 -13.907368 46.914987 -27.246998 37.080992 -37.080992 
C 27.246998 -46.914987 13.907368 -52.440442 0 -52.440442 
C -13.907368 -52.440442 -27.246998 -46.914987 -37.080992 -37.080992 
C -46.914987 -27.246998 -52.440442 -13.907368 -52.440442 0 
C -52.440442 13.907368 -46.914987 27.246998 -37.080992 37.080992 
C -27.246998 46.914987 -13.907368 52.440442 0 52.440442 
z
"/>
    </defs>
    <g clip-path="url(#p5a338906b0)">
     <use xlink:href="#C0_0_e6f4db854e" x="89.970248" y="180" style="fill: #01c472; stroke: #01c472"/>
    </g>
    <g clip-path="url(#p5a338906b0)">
     <use xlink:href="#C0_0_e6f4db854e" x="375.590083" y="180" style="fill: #154e56; stroke: #154e56"/>
    </g>
    <g clip-path="url(#p5a338906b0)">
     <use xlink:href="#C0_0_e6f4db854e" x="661.209917" y="180" style="fill: #70c6ca; stroke: #70c6ca"/>
    </g>
    <g clip-path="url(#p5a338906b0)">
     <use xlink:href="#C0_0_e6f4db854e" x="946.829752" y="180" style="fill: #70c6ca; stroke: #70c6ca"/>
    </g>
   </g>
   <g id="text_4">
    <path d="M 344.615083 162.291375 
L 343.008208 166.645125 
L 346.225708 166.645125 
L 344.615083 162.291375 
z
M 343.945708 161.125125 
L 345.288208 161.125125 
L 348.621958 169.873875 
L 347.391958 169.873875 
L 346.595083 167.6295 
L 342.651958 167.6295 
L 341.855083 169.873875 
L 340.606333 169.873875 
L 343.945708 161.125125 
z
M 354.365317 163.562625 
L 354.365317 164.571375 
Q 353.907817 164.31825 353.448442 164.192625 
Q 352.989067 164.067 352.520317 164.067 
Q 351.470317 164.067 350.889067 164.732625 
Q 350.309692 165.396375 350.309692 166.59825 
Q 350.309692 167.800125 350.889067 168.46575 
Q 351.470317 169.1295 352.520317 169.1295 
Q 352.989067 169.1295 353.448442 169.003875 
Q 353.907817 168.87825 354.365317 168.625125 
L 354.365317 169.622625 
Q 353.913442 169.832625 353.429692 169.937625 
Q 352.947817 170.0445 352.402192 170.0445 
Q 350.919067 170.0445 350.045317 169.112625 
Q 349.173442 168.18075 349.173442 166.59825 
Q 349.173442 164.99325 350.054692 164.0745 
Q 350.937817 163.153875 352.473442 163.153875 
Q 352.970317 163.153875 353.444692 163.257 
Q 353.919067 163.35825 354.365317 163.562625 
z
M 356.239848 163.311375 
L 357.317973 163.311375 
L 357.317973 169.873875 
L 356.239848 169.873875 
L 356.239848 163.311375 
z
M 356.239848 160.75575 
L 357.317973 160.75575 
L 357.317973 162.122625 
L 356.239848 162.122625 
L 356.239848 160.75575 
z
M 363.891958 164.307 
L 363.891958 160.75575 
L 364.970083 160.75575 
L 364.970083 169.873875 
L 363.891958 169.873875 
L 363.891958 168.8895 
Q 363.552583 169.4745 363.033208 169.7595 
Q 362.515708 170.0445 361.788208 170.0445 
Q 360.599458 170.0445 359.851333 169.09575 
Q 359.105083 168.145125 359.105083 166.59825 
Q 359.105083 165.051375 359.851333 164.102625 
Q 360.599458 163.153875 361.788208 163.153875 
Q 362.515708 163.153875 363.033208 163.438875 
Q 363.552583 163.722 363.891958 164.307 
z
M 360.218833 166.59825 
Q 360.218833 167.787 360.708208 168.463875 
Q 361.197583 169.14075 362.052583 169.14075 
Q 362.907583 169.14075 363.398833 168.463875 
Q 363.891958 167.787 363.891958 166.59825 
Q 363.891958 165.4095 363.398833 164.732625 
Q 362.907583 164.05575 362.052583 164.05575 
Q 361.197583 164.05575 360.708208 164.732625 
Q 360.218833 165.4095 360.218833 166.59825 
z
M 367.19102 163.311375 
L 368.269145 163.311375 
L 368.269145 169.873875 
L 367.19102 169.873875 
L 367.19102 163.311375 
z
M 367.19102 160.75575 
L 368.269145 160.75575 
L 368.269145 162.122625 
L 367.19102 162.122625 
L 367.19102 160.75575 
z
M 375.24813 163.562625 
L 375.24813 164.571375 
Q 374.79063 164.31825 374.331255 164.192625 
Q 373.87188 164.067 373.40313 164.067 
Q 372.35313 164.067 371.77188 164.732625 
Q 371.192505 165.396375 371.192505 166.59825 
Q 371.192505 167.800125 371.77188 168.46575 
Q 372.35313 169.1295 373.40313 169.1295 
Q 373.87188 169.1295 374.331255 169.003875 
Q 374.79063 168.87825 375.24813 168.625125 
L 375.24813 169.622625 
Q 374.796255 169.832625 374.312505 169.937625 
Q 373.83063 170.0445 373.285005 170.0445 
Q 371.80188 170.0445 370.92813 169.112625 
Q 370.056255 168.18075 370.056255 166.59825 
Q 370.056255 164.99325 370.937505 164.0745 
Q 371.82063 163.153875 373.356255 163.153875 
Q 373.85313 163.153875 374.327505 163.257 
Q 374.80188 163.35825 375.24813 163.562625 
z
M 380.826489 167.2845 
L 380.826489 163.311375 
L 381.904614 163.311375 
L 381.904614 167.24325 
Q 381.904614 168.175125 382.266489 168.642 
Q 382.630239 169.107 383.357739 169.107 
Q 384.229614 169.107 384.735864 168.550125 
Q 385.243989 167.99325 385.243989 167.031375 
L 385.243989 163.311375 
L 386.322114 163.311375 
L 386.322114 169.873875 
L 385.243989 169.873875 
L 385.243989 168.865125 
Q 384.852114 169.46325 384.332739 169.753875 
Q 383.815239 170.0445 383.128989 170.0445 
Q 381.998364 170.0445 381.411489 169.341375 
Q 380.826489 168.63825 380.826489 167.2845 
z
M 383.539614 163.153875 
L 383.539614 163.153875 
z
M 392.345083 164.31825 
Q 392.163208 164.21325 391.949458 164.1645 
Q 391.735708 164.113875 391.478833 164.113875 
Q 390.563833 164.113875 390.074458 164.70825 
Q 389.585083 165.302625 389.585083 166.416375 
L 389.585083 169.873875 
L 388.501333 169.873875 
L 388.501333 163.311375 
L 389.585083 163.311375 
L 389.585083 164.331375 
Q 389.926333 163.73325 390.470083 163.4445 
Q 391.015708 163.153875 391.795708 163.153875 
Q 391.906333 163.153875 392.041333 163.168875 
Q 392.176333 163.182 392.339458 163.212 
L 392.345083 164.31825 
z
M 393.476176 163.311375 
L 394.554301 163.311375 
L 394.554301 169.873875 
L 393.476176 169.873875 
L 393.476176 163.311375 
z
M 393.476176 160.75575 
L 394.554301 160.75575 
L 394.554301 162.122625 
L 393.476176 162.122625 
L 393.476176 160.75575 
z
M 402.266411 165.912 
L 402.266411 169.873875 
L 401.188286 169.873875 
L 401.188286 165.947625 
Q 401.188286 165.01575 400.824536 164.5545 
Q 400.460786 164.091375 399.735161 164.091375 
Q 398.861411 164.091375 398.357036 164.64825 
Q 397.852661 165.20325 397.852661 166.165125 
L 397.852661 169.873875 
L 396.768911 169.873875 
L 396.768911 163.311375 
L 397.852661 163.311375 
L 397.852661 164.331375 
Q 398.240786 163.738875 398.763911 163.446375 
Q 399.288911 163.153875 399.975161 163.153875 
Q 401.105786 163.153875 401.685161 163.85325 
Q 402.266411 164.552625 402.266411 165.912 
z
M 410.02938 166.322625 
L 410.02938 166.8495 
L 405.07188 166.8495 
Q 405.14313 167.96325 405.74313 168.546375 
Q 406.34313 169.1295 407.41563 169.1295 
Q 408.036255 169.1295 408.61938 168.977625 
Q 409.202505 168.82575 409.77813 168.520125 
L 409.77813 169.540125 
Q 409.19688 169.78575 408.587505 169.915125 
Q 407.97813 170.0445 407.35188 170.0445 
Q 405.78063 170.0445 404.863755 169.131375 
Q 403.94688 168.216375 403.94688 166.656375 
Q 403.94688 165.04575 404.81688 164.10075 
Q 405.68688 163.153875 407.16438 163.153875 
Q 408.48813 163.153875 409.258755 164.007 
Q 410.02938 164.85825 410.02938 166.322625 
z
M 408.951255 166.00575 
Q 408.940005 165.122625 408.456255 164.59575 
Q 407.972505 164.067 407.17563 164.067 
Q 406.273755 164.067 405.73188 164.577 
Q 405.190005 165.087 405.107505 166.01325 
L 408.951255 166.00575 
z
" clip-path="url(#p5a338906b0)" style="fill: #ffffff; stroke: #000000; stroke-width: 2"/>
    <path d="M 344.615083 162.291375 
L 343.008208 166.645125 
L 346.225708 166.645125 
L 344.615083 162.291375 
z
M 343.945708 161.125125 
L 345.288208 161.125125 
L 348.621958 169.873875 
L 347.391958 169.873875 
L 346.595083 167.6295 
L 342.651958 167.6295 
L 341.855083 169.873875 
L 340.606333 169.873875 
L 343.945708 161.125125 
z
M 354.365317 163.562625 
L 354.365317 164.571375 
Q 353.907817 164.31825 353.448442 164.192625 
Q 352.989067 164.067 352.520317 164.067 
Q 351.470317 164.067 350.889067 164.732625 
Q 350.309692 165.396375 350.309692 166.59825 
Q 350.309692 167.800125 350.889067 168.46575 
Q 351.470317 169.1295 352.520317 169.1295 
Q 352.989067 169.1295 353.448442 169.003875 
Q 353.907817 168.87825 354.365317 168.625125 
L 354.365317 169.622625 
Q 353.913442 169.832625 353.429692 169.937625 
Q 352.947817 170.0445 352.402192 170.0445 
Q 350.919067 170.0445 350.045317 169.112625 
Q 349.173442 168.18075 349.173442 166.59825 
Q 349.173442 164.99325 350.054692 164.0745 
Q 350.937817 163.153875 352.473442 163.153875 
Q 352.970317 163.153875 353.444692 163.257 
Q 353.919067 163.35825 354.365317 163.562625 
z
M 356.239848 163.311375 
L 357.317973 163.311375 
L 357.317973 169.873875 
L 356.239848 169.873875 
L 356.239848 163.311375 
z
M 356.239848 160.75575 
L 357.317973 160.75575 
L 357.317973 162.122625 
L 356.239848 162.122625 
L 356.239848 160.75575 
z
M 363.891958 164.307 
L 363.891958 160.75575 
L 364.970083 160.75575 
L 364.970083 169.873875 
L 363.891958 169.873875 
L 363.891958 168.8895 
Q 363.552583 169.4745 363.033208 169.7595 
Q 362.515708 170.0445 361.788208 170.0445 
Q 360.599458 170.0445 359.851333 169.09575 
Q 359.105083 168.145125 359.105083 166.59825 
Q 359.105083 165.051375 359.851333 164.102625 
Q 360.599458 163.153875 361.788208 163.153875 
Q 362.515708 163.153875 363.033208 163.438875 
Q 363.552583 163.722 363.891958 164.307 
z
M 360.218833 166.59825 
Q 360.218833 167.787 360.708208 168.463875 
Q 361.197583 169.14075 362.052583 169.14075 
Q 362.907583 169.14075 363.398833 168.463875 
Q 363.891958 167.787 363.891958 166.59825 
Q 363.891958 165.4095 363.398833 164.732625 
Q 362.907583 164.05575 362.052583 164.05575 
Q 361.197583 164.05575 360.708208 164.732625 
Q 360.218833 165.4095 360.218833 166.59825 
z
M 367.19102 163.311375 
L 368.269145 163.311375 
L 368.269145 169.873875 
L 367.19102 169.873875 
L 367.19102 163.311375 
z
M 367.19102 160.75575 
L 368.269145 160.75575 
L 368.269145 162.122625 
L 367.19102 162.122625 
L 367.19102 160.75575 
z
M 375.24813 163.562625 
L 375.24813 164.571375 
Q 374.79063 164.31825 374.331255 164.192625 
Q 373.87188 164.067 373.40313 164.067 
Q 372.35313 164.067 371.77188 164.732625 
Q 371.192505 165.396375 371.192505 166.59825 
Q 371.192505 167.800125 371.77188 168.46575 
Q 372.35313 169.1295 373.40313 169.1295 
Q 373.87188 169.1295 374.331255 169.003875 
Q 374.79063 168.87825 375.24813 168.625125 
L 375.24813 169.622625 
Q 374.796255 169.832625 374.312505 169.937625 
Q 373.83063 170.0445 373.285005 170.0445 
Q 371.80188 170.0445 370.92813 169.112625 
Q 370.056255 168.18075 370.056255 166.59825 
Q 370.056255 164.99325 370.937505 164.0745 
Q 371.82063 163.153875 373.356255 163.153875 
Q 373.85313 163.153875 374.327505 163.257 
Q 374.80188 163.35825 375.24813 163.562625 
z
M 380.826489 167.2845 
L 380.826489 163.311375 
L 381.904614 163.311375 
L 381.904614 167.24325 
Q 381.904614 168.175125 382.266489 168.642 
Q 382.630239 169.107 383.357739 169.107 
Q 384.229614 169.107 384.735864 168.550125 
Q 385.243989 167.99325 385.243989 167.031375 
L 385.243989 163.311375 
L 386.322114 163.311375 
L 386.322114 169.873875 
L 385.243989 169.873875 
L 385.243989 168.865125 
Q 384.852114 169.46325 384.332739 169.753875 
Q 383.815239 170.0445 383.128989 170.0445 
Q 381.998364 170.0445 381.411489 169.341375 
Q 380.826489 168.63825 380.826489 167.2845 
z
M 383.539614 163.153875 
L 383.539614 163.153875 
z
M 392.345083 164.31825 
Q 392.163208 164.21325 391.949458 164.1645 
Q 391.735708 164.113875 391.478833 164.113875 
Q 390.563833 164.113875 390.074458 164.70825 
Q 389.585083 165.302625 389.585083 166.416375 
L 389.585083 169.873875 
L 388.501333 169.873875 
L 388.501333 163.311375 
L 389.585083 163.311375 
L 389.585083 164.331375 
Q 389.926333 163.73325 390.470083 163.4445 
Q 391.015708 163.153875 391.795708 163.153875 
Q 391.906333 163.153875 392.041333 163.168875 
Q 392.176333 163.182 392.339458 163.212 
L 392.345083 164.31825 
z
M 393.476176 163.311375 
L 394.554301 163.311375 
L 394.554301 169.873875 
L 393.476176 169.873875 
L 393.476176 163.311375 
z
M 393.476176 160.75575 
L 394.554301 160.75575 
L 394.554301 162.122625 
L 393.476176 162.122625 
L 393.476176 160.75575 
z
M 402.266411 165.912 
L 402.266411 169.873875 
L 401.188286 169.873875 
L 401.188286 165.947625 
Q 401.188286 165.01575 400.824536 164.5545 
Q 400.460786 164.091375 399.735161 164.091375 
Q 398.861411 164.091375 398.357036 164.64825 
Q 397.852661 165.20325 397.852661 166.165125 
L 397.852661 169.873875 
L 396.768911 169.873875 
L 396.768911 163.311375 
L 397.852661 163.311375 
L 397.852661 164.331375 
Q 398.240786 163.738875 398.763911 163.446375 
Q 399.288911 163.153875 399.975161 163.153875 
Q 401.105786 163.153875 401.685161 163.85325 
Q 402.266411 164.552625 402.266411 165.912 
z
M 410.02938 166.322625 
L 410.02938 166.8495 
L 405.07188 166.8495 
Q 405.14313 167.96325 405.74313 168.546375 
Q 406.34313 169.1295 407.41563 169.1295 
Q 408.036255 169.1295 408.61938 168.977625 
Q 409.202505 168.82575 409.77813 168.520125 
L 409.77813 169.540125 
Q 409.19688 169.78575 408.587505 169.915125 
Q 407.97813 170.0445 407.35188 170.0445 
Q 405.78063 170.0445 404.863755 169.131375 
Q 403.94688 168.216375 403.94688 166.656375 
Q 403.94688 165.04575 404.81688 164.10075 
Q 405.68688 163.153875 407.16438 163.153875 
Q 408.48813 163.153875 409.258755 164.007 
Q 410.02938 164.85825 410.02938 166.322625 
z
M 408.951255 166.00575 
Q 408.940005 165.122625 408.456255 164.59575 
Q 407.972505 164.067 407.17563 164.067 
Q 406.273755 164.067 405.73188 164.577 
Q 405.190005 165.087 405.107505 166.01325 
L 408.951255 166.00575 
z
" clip-path="url(#p5a338906b0)" style="fill: #ffffff"/>
    <path d="M 339.893833 174.5625 
L 341.076958 174.5625 
L 341.076958 178.149375 
L 345.378208 178.149375 
L 345.378208 174.5625 
L 346.561333 174.5625 
L 346.561333 183.31125 
L 345.378208 183.31125 
L 345.378208 179.145 
L 341.076958 179.145 
L 341.076958 183.31125 
L 339.893833 183.31125 
L 339.893833 174.5625 
z
M 350.100395 175.535625 
L 350.100395 178.8225 
L 351.589145 178.8225 
Q 352.41602 178.8225 352.86602 178.395 
Q 353.317895 177.9675 353.317895 177.17625 
Q 353.317895 176.390625 352.86602 175.963125 
Q 352.41602 175.535625 351.589145 175.535625 
L 350.100395 175.535625 
z
M 348.91727 174.5625 
L 351.589145 174.5625 
Q 353.06102 174.5625 353.812895 175.228125 
Q 354.566645 175.89375 354.566645 177.17625 
Q 354.566645 178.471875 353.812895 179.13375 
Q 353.06102 179.795625 351.589145 179.795625 
L 350.100395 179.795625 
L 350.100395 183.31125 
L 348.91727 183.31125 
L 348.91727 174.5625 
z
M 356.382348 181.8225 
L 357.617973 181.8225 
L 357.617973 183.31125 
L 356.382348 183.31125 
L 356.382348 181.8225 
z
M 356.382348 177.106875 
L 357.617973 177.106875 
L 357.617973 178.59375 
L 356.382348 178.59375 
L 356.382348 177.106875 
z
M 362.832817 175.3425 
Q 361.919692 175.3425 361.458442 176.2425 
Q 360.999067 177.140625 360.999067 178.94625 
Q 360.999067 180.744375 361.458442 181.644375 
Q 361.919692 182.544375 362.832817 182.544375 
Q 363.753442 182.544375 364.212817 181.644375 
Q 364.674067 180.744375 364.674067 178.94625 
Q 364.674067 177.140625 364.212817 176.2425 
Q 363.753442 175.3425 362.832817 175.3425 
z
M 362.832817 174.405 
Q 364.304692 174.405 365.080942 175.569375 
Q 365.857192 176.731875 365.857192 178.94625 
Q 365.857192 181.155 365.080942 182.319375 
Q 364.304692 183.481875 362.832817 183.481875 
Q 361.362817 183.481875 360.586567 182.319375 
Q 359.810317 181.155 359.810317 178.94625 
Q 359.810317 176.731875 360.586567 175.569375 
Q 361.362817 174.405 362.832817 174.405 
z
M 370.467583 175.3425 
Q 369.554458 175.3425 369.093208 176.2425 
Q 368.633833 177.140625 368.633833 178.94625 
Q 368.633833 180.744375 369.093208 181.644375 
Q 369.554458 182.544375 370.467583 182.544375 
Q 371.388208 182.544375 371.847583 181.644375 
Q 372.308833 180.744375 372.308833 178.94625 
Q 372.308833 177.140625 371.847583 176.2425 
Q 371.388208 175.3425 370.467583 175.3425 
z
M 370.467583 174.405 
Q 371.939458 174.405 372.715708 175.569375 
Q 373.491958 176.731875 373.491958 178.94625 
Q 373.491958 181.155 372.715708 182.319375 
Q 371.939458 183.481875 370.467583 183.481875 
Q 368.997583 183.481875 368.221333 182.319375 
Q 367.445083 181.155 367.445083 178.94625 
Q 367.445083 176.731875 368.221333 175.569375 
Q 368.997583 174.405 370.467583 174.405 
z
M 375.777348 182.315625 
L 377.710473 182.315625 
L 377.710473 175.640625 
L 375.606723 176.0625 
L 375.606723 174.984375 
L 377.699223 174.5625 
L 378.882348 174.5625 
L 378.882348 182.315625 
L 380.815473 182.315625 
L 380.815473 183.31125 
L 375.777348 183.31125 
L 375.777348 182.315625 
z
M 384.225864 182.315625 
L 388.356489 182.315625 
L 388.356489 183.31125 
L 382.802739 183.31125 
L 382.802739 182.315625 
Q 383.475864 181.618125 384.638364 180.444375 
Q 385.802739 179.26875 386.100864 178.9275 
Q 386.668989 178.29 386.893989 177.8475 
Q 387.120864 177.405 387.120864 176.9775 
Q 387.120864 176.28 386.631489 175.84125 
Q 386.142114 175.400625 385.356489 175.400625 
Q 384.799614 175.400625 384.180864 175.59375 
Q 383.563989 175.786875 382.860864 176.180625 
L 382.860864 174.984375 
Q 383.575239 174.6975 384.195864 174.55125 
Q 384.818364 174.405 385.333989 174.405 
Q 386.693364 174.405 387.501489 175.085625 
Q 388.309614 175.764375 388.309614 176.900625 
Q 388.309614 177.440625 388.107114 177.924375 
Q 387.906489 178.40625 387.372114 179.0625 
Q 387.225864 179.233125 386.440239 180.045 
Q 385.656489 180.856875 384.225864 182.315625 
z
M 393.37188 175.3425 
Q 392.458755 175.3425 391.997505 176.2425 
Q 391.53813 177.140625 391.53813 178.94625 
Q 391.53813 180.744375 391.997505 181.644375 
Q 392.458755 182.544375 393.37188 182.544375 
Q 394.292505 182.544375 394.75188 181.644375 
Q 395.21313 180.744375 395.21313 178.94625 
Q 395.21313 177.140625 394.75188 176.2425 
Q 394.292505 175.3425 393.37188 175.3425 
z
M 393.37188 174.405 
Q 394.843755 174.405 395.620005 175.569375 
Q 396.396255 176.731875 396.396255 178.94625 
Q 396.396255 181.155 395.620005 182.319375 
Q 394.843755 183.481875 393.37188 183.481875 
Q 391.90188 183.481875 391.12563 182.319375 
Q 390.34938 181.155 390.34938 178.94625 
Q 390.34938 176.731875 391.12563 175.569375 
Q 391.90188 174.405 393.37188 174.405 
z
M 398.17727 174.5625 
L 403.80227 174.5625 
L 403.80227 175.066875 
L 400.62602 183.31125 
L 399.390395 183.31125 
L 402.379145 175.56 
L 398.17727 175.56 
L 398.17727 174.5625 
z
M 407.130161 182.315625 
L 411.260786 182.315625 
L 411.260786 183.31125 
L 405.707036 183.31125 
L 405.707036 182.315625 
Q 406.380161 181.618125 407.542661 180.444375 
Q 408.707036 179.26875 409.005161 178.9275 
Q 409.573286 178.29 409.798286 177.8475 
Q 410.025161 177.405 410.025161 176.9775 
Q 410.025161 176.28 409.535786 175.84125 
Q 409.046411 175.400625 408.260786 175.400625 
Q 407.703911 175.400625 407.085161 175.59375 
Q 406.468286 175.786875 405.765161 176.180625 
L 405.765161 174.984375 
Q 406.479536 174.6975 407.100161 174.55125 
Q 407.722661 174.405 408.238286 174.405 
Q 409.597661 174.405 410.405786 175.085625 
Q 411.213911 175.764375 411.213911 176.900625 
Q 411.213911 177.440625 411.011411 177.924375 
Q 410.810786 178.40625 410.276411 179.0625 
Q 410.130161 179.233125 409.344536 180.045 
Q 408.560786 180.856875 407.130161 182.315625 
z
" clip-path="url(#p5a338906b0)" style="fill: #ffffff; stroke: #000000; stroke-width: 2"/>
    <path d="M 339.893833 174.5625 
L 341.076958 174.5625 
L 341.076958 178.149375 
L 345.378208 178.149375 
L 345.378208 174.5625 
L 346.561333 174.5625 
L 346.561333 183.31125 
L 345.378208 183.31125 
L 345.378208 179.145 
L 341.076958 179.145 
L 341.076958 183.31125 
L 339.893833 183.31125 
L 339.893833 174.5625 
z
M 350.100395 175.535625 
L 350.100395 178.8225 
L 351.589145 178.8225 
Q 352.41602 178.8225 352.86602 178.395 
Q 353.317895 177.9675 353.317895 177.17625 
Q 353.317895 176.390625 352.86602 175.963125 
Q 352.41602 175.535625 351.589145 175.535625 
L 350.100395 175.535625 
z
M 348.91727 174.5625 
L 351.589145 174.5625 
Q 353.06102 174.5625 353.812895 175.228125 
Q 354.566645 175.89375 354.566645 177.17625 
Q 354.566645 178.471875 353.812895 179.13375 
Q 353.06102 179.795625 351.589145 179.795625 
L 350.100395 179.795625 
L 350.100395 183.31125 
L 348.91727 183.31125 
L 348.91727 174.5625 
z
M 356.382348 181.8225 
L 357.617973 181.8225 
L 357.617973 183.31125 
L 356.382348 183.31125 
L 356.382348 181.8225 
z
M 356.382348 177.106875 
L 357.617973 177.106875 
L 357.617973 178.59375 
L 356.382348 178.59375 
L 356.382348 177.106875 
z
M 362.832817 175.3425 
Q 361.919692 175.3425 361.458442 176.2425 
Q 360.999067 177.140625 360.999067 178.94625 
Q 360.999067 180.744375 361.458442 181.644375 
Q 361.919692 182.544375 362.832817 182.544375 
Q 363.753442 182.544375 364.212817 181.644375 
Q 364.674067 180.744375 364.674067 178.94625 
Q 364.674067 177.140625 364.212817 176.2425 
Q 363.753442 175.3425 362.832817 175.3425 
z
M 362.832817 174.405 
Q 364.304692 174.405 365.080942 175.569375 
Q 365.857192 176.731875 365.857192 178.94625 
Q 365.857192 181.155 365.080942 182.319375 
Q 364.304692 183.481875 362.832817 183.481875 
Q 361.362817 183.481875 360.586567 182.319375 
Q 359.810317 181.155 359.810317 178.94625 
Q 359.810317 176.731875 360.586567 175.569375 
Q 361.362817 174.405 362.832817 174.405 
z
M 370.467583 175.3425 
Q 369.554458 175.3425 369.093208 176.2425 
Q 368.633833 177.140625 368.633833 178.94625 
Q 368.633833 180.744375 369.093208 181.644375 
Q 369.554458 182.544375 370.467583 182.544375 
Q 371.388208 182.544375 371.847583 181.644375 
Q 372.308833 180.744375 372.308833 178.94625 
Q 372.308833 177.140625 371.847583 176.2425 
Q 371.388208 175.3425 370.467583 175.3425 
z
M 370.467583 174.405 
Q 371.939458 174.405 372.715708 175.569375 
Q 373.491958 176.731875 373.491958 178.94625 
Q 373.491958 181.155 372.715708 182.319375 
Q 371.939458 183.481875 370.467583 183.481875 
Q 368.997583 183.481875 368.221333 182.319375 
Q 367.445083 181.155 367.445083 178.94625 
Q 367.445083 176.731875 368.221333 175.569375 
Q 368.997583 174.405 370.467583 174.405 
z
M 375.777348 182.315625 
L 377.710473 182.315625 
L 377.710473 175.640625 
L 375.606723 176.0625 
L 375.606723 174.984375 
L 377.699223 174.5625 
L 378.882348 174.5625 
L 378.882348 182.315625 
L 380.815473 182.315625 
L 380.815473 183.31125 
L 375.777348 183.31125 
L 375.777348 182.315625 
z
M 384.225864 182.315625 
L 388.356489 182.315625 
L 388.356489 183.31125 
L 382.802739 183.31125 
L 382.802739 182.315625 
Q 383.475864 181.618125 384.638364 180.444375 
Q 385.802739 179.26875 386.100864 178.9275 
Q 386.668989 178.29 386.893989 177.8475 
Q 387.120864 177.405 387.120864 176.9775 
Q 387.120864 176.28 386.631489 175.84125 
Q 386.142114 175.400625 385.356489 175.400625 
Q 384.799614 175.400625 384.180864 175.59375 
Q 383.563989 175.786875 382.860864 176.180625 
L 382.860864 174.984375 
Q 383.575239 174.6975 384.195864 174.55125 
Q 384.818364 174.405 385.333989 174.405 
Q 386.693364 174.405 387.501489 175.085625 
Q 388.309614 175.764375 388.309614 176.900625 
Q 388.309614 177.440625 388.107114 177.924375 
Q 387.906489 178.40625 387.372114 179.0625 
Q 387.225864 179.233125 386.440239 180.045 
Q 385.656489 180.856875 384.225864 182.315625 
z
M 393.37188 175.3425 
Q 392.458755 175.3425 391.997505 176.2425 
Q 391.53813 177.140625 391.53813 178.94625 
Q 391.53813 180.744375 391.997505 181.644375 
Q 392.458755 182.544375 393.37188 182.544375 
Q 394.292505 182.544375 394.75188 181.644375 
Q 395.21313 180.744375 395.21313 178.94625 
Q 395.21313 177.140625 394.75188 176.2425 
Q 394.292505 175.3425 393.37188 175.3425 
z
M 393.37188 174.405 
Q 394.843755 174.405 395.620005 175.569375 
Q 396.396255 176.731875 396.396255 178.94625 
Q 396.396255 181.155 395.620005 182.319375 
Q 394.843755 183.481875 393.37188 183.481875 
Q 391.90188 183.481875 391.12563 182.319375 
Q 390.34938 181.155 390.34938 178.94625 
Q 390.34938 176.731875 391.12563 175.569375 
Q 391.90188 174.405 393.37188 174.405 
z
M 398.17727 174.5625 
L 403.80227 174.5625 
L 403.80227 175.066875 
L 400.62602 183.31125 
L 399.390395 183.31125 
L 402.379145 175.56 
L 398.17727 175.56 
L 398.17727 174.5625 
z
M 407.130161 182.315625 
L 411.260786 182.315625 
L 411.260786 183.31125 
L 405.707036 183.31125 
L 405.707036 182.315625 
Q 406.380161 181.618125 407.542661 180.444375 
Q 408.707036 179.26875 409.005161 178.9275 
Q 409.573286 178.29 409.798286 177.8475 
Q 410.025161 177.405 410.025161 176.9775 
Q 410.025161 176.28 409.535786 175.84125 
Q 409.046411 175.400625 408.260786 175.400625 
Q 407.703911 175.400625 407.085161 175.59375 
Q 406.468286 175.786875 405.765161 176.180625 
L 405.765161 174.984375 
Q 406.479536 174.6975 407.100161 174.55125 
Q 407.722661 174.405 408.238286 174.405 
Q 409.597661 174.405 410.405786 175.085625 
Q 411.213911 175.764375 411.213911 176.900625 
Q 411.213911 177.440625 411.011411 177.924375 
Q 410.810786 178.40625 410.276411 179.0625 
Q 410.130161 179.233125 409.344536 180.045 
Q 408.560786 180.856875 407.130161 182.315625 
z
" clip-path="url(#p5a338906b0)" style="fill: #ffffff"/>
    <path d="M 322.01852 188.973 
L 322.01852 192.259875 
L 323.50727 192.259875 
Q 324.334145 192.259875 324.784145 191.832375 
Q 325.23602 191.404875 325.23602 190.613625 
Q 325.23602 189.828 324.784145 189.4005 
Q 324.334145 188.973 323.50727 188.973 
L 322.01852 188.973 
z
M 320.835395 187.999875 
L 323.50727 187.999875 
Q 324.979145 187.999875 325.73102 188.6655 
Q 326.48477 189.331125 326.48477 190.613625 
Q 326.48477 191.90925 325.73102 192.571125 
Q 324.979145 193.233 323.50727 193.233 
L 322.01852 193.233 
L 322.01852 196.748625 
L 320.835395 196.748625 
L 320.835395 187.999875 
z
M 333.481098 192.78675 
L 333.481098 196.748625 
L 332.402973 196.748625 
L 332.402973 192.822375 
Q 332.402973 191.8905 332.039223 191.42925 
Q 331.675473 190.966125 330.949848 190.966125 
Q 330.076098 190.966125 329.571723 191.523 
Q 329.067348 192.078 329.067348 193.039875 
L 329.067348 196.748625 
L 327.983598 196.748625 
L 327.983598 187.6305 
L 329.067348 187.6305 
L 329.067348 191.206125 
Q 329.455473 190.613625 329.978598 190.321125 
Q 330.503598 190.028625 331.189848 190.028625 
Q 332.320473 190.028625 332.899848 190.728 
Q 333.481098 191.427375 333.481098 192.78675 
z
M 341.244067 193.197375 
L 341.244067 193.72425 
L 336.286567 193.72425 
Q 336.357817 194.838 336.957817 195.421125 
Q 337.557817 196.00425 338.630317 196.00425 
Q 339.250942 196.00425 339.834067 195.852375 
Q 340.417192 195.7005 340.992817 195.394875 
L 340.992817 196.414875 
Q 340.411567 196.6605 339.802192 196.789875 
Q 339.192817 196.91925 338.566567 196.91925 
Q 336.995317 196.91925 336.078442 196.006125 
Q 335.161567 195.091125 335.161567 193.531125 
Q 335.161567 191.9205 336.031567 190.9755 
Q 336.901567 190.028625 338.379067 190.028625 
Q 339.702817 190.028625 340.473442 190.88175 
Q 341.244067 191.733 341.244067 193.197375 
z
M 340.165942 192.8805 
Q 340.154692 191.997375 339.670942 191.4705 
Q 339.187192 190.94175 338.390317 190.94175 
Q 337.488442 190.94175 336.946567 191.45175 
Q 336.404692 191.96175 336.322192 192.888 
L 340.165942 192.8805 
z
M 348.46938 192.78675 
L 348.46938 196.748625 
L 347.391255 196.748625 
L 347.391255 192.822375 
Q 347.391255 191.8905 347.027505 191.42925 
Q 346.663755 190.966125 345.93813 190.966125 
Q 345.06438 190.966125 344.560005 191.523 
Q 344.05563 192.078 344.05563 193.039875 
L 344.05563 196.748625 
L 342.97188 196.748625 
L 342.97188 190.186125 
L 344.05563 190.186125 
L 344.05563 191.206125 
Q 344.443755 190.613625 344.96688 190.321125 
Q 345.49188 190.028625 346.17813 190.028625 
Q 347.308755 190.028625 347.88813 190.728 
Q 348.46938 191.427375 348.46938 192.78675 
z
M 353.161098 190.94175 
Q 352.294848 190.94175 351.790473 191.618625 
Q 351.286098 192.2955 351.286098 193.473 
Q 351.286098 194.6505 351.786723 195.327375 
Q 352.289223 196.00425 353.161098 196.00425 
Q 354.023598 196.00425 354.526098 195.3255 
Q 355.030473 194.644875 355.030473 193.473 
Q 355.030473 192.30675 354.526098 191.62425 
Q 354.023598 190.94175 353.161098 190.94175 
z
M 353.161098 190.028625 
Q 354.567348 190.028625 355.369848 190.943625 
Q 356.174223 191.85675 356.174223 193.473 
Q 356.174223 195.083625 355.369848 196.002375 
Q 354.567348 196.91925 353.161098 196.91925 
Q 351.749223 196.91925 350.948598 196.002375 
Q 350.149848 195.083625 350.149848 193.473 
Q 350.149848 191.85675 350.948598 190.943625 
Q 351.749223 190.028625 353.161098 190.028625 
z
M 359.02727 188.322375 
L 359.02727 190.186125 
L 361.24727 190.186125 
L 361.24727 191.02425 
L 359.02727 191.02425 
L 359.02727 194.58675 
Q 359.02727 195.38925 359.246645 195.618 
Q 359.46602 195.84675 360.14102 195.84675 
L 361.24727 195.84675 
L 361.24727 196.748625 
L 360.14102 196.748625 
Q 358.89227 196.748625 358.417895 196.283625 
Q 357.94352 195.81675 357.94352 194.58675 
L 357.94352 191.02425 
L 357.15227 191.02425 
L 357.15227 190.186125 
L 357.94352 190.186125 
L 357.94352 188.322375 
L 359.02727 188.322375 
z
M 365.395473 197.358 
Q 364.939848 198.529875 364.504848 198.886125 
Q 364.071723 199.24425 363.346098 199.24425 
L 362.483598 199.24425 
L 362.483598 198.342375 
L 363.117348 198.342375 
Q 363.561723 198.342375 363.807348 198.1305 
Q 364.054848 197.9205 364.352973 197.134875 
L 364.546098 196.643625 
L 361.892973 190.186125 
L 363.034848 190.186125 
L 365.086098 195.318 
L 367.137348 190.186125 
L 368.279223 190.186125 
L 365.395473 197.358 
z
M 370.809536 195.76425 
L 370.809536 199.24425 
L 369.725786 199.24425 
L 369.725786 190.186125 
L 370.809536 190.186125 
L 370.809536 191.18175 
Q 371.150786 190.59675 371.668286 190.313625 
Q 372.187661 190.028625 372.907661 190.028625 
Q 374.103911 190.028625 374.850161 190.977375 
Q 375.598286 191.926125 375.598286 193.473 
Q 375.598286 195.019875 374.850161 195.9705 
Q 374.103911 196.91925 372.907661 196.91925 
Q 372.187661 196.91925 371.668286 196.63425 
Q 371.150786 196.34925 370.809536 195.76425 
z
M 374.478911 193.473 
Q 374.478911 192.28425 373.989536 191.607375 
Q 373.500161 190.9305 372.645161 190.9305 
Q 371.788286 190.9305 371.298911 191.607375 
Q 370.809536 192.28425 370.809536 193.473 
Q 370.809536 194.66175 371.298911 195.338625 
Q 371.788286 196.0155 372.645161 196.0155 
Q 373.500161 196.0155 373.989536 195.338625 
Q 374.478911 194.66175 374.478911 193.473 
z
M 377.384223 190.186125 
L 378.462348 190.186125 
L 378.462348 196.748625 
L 377.384223 196.748625 
L 377.384223 190.186125 
z
M 377.384223 187.6305 
L 378.462348 187.6305 
L 378.462348 188.997375 
L 377.384223 188.997375 
L 377.384223 187.6305 
z
M 385.441333 190.437375 
L 385.441333 191.446125 
Q 384.983833 191.193 384.524458 191.067375 
Q 384.065083 190.94175 383.596333 190.94175 
Q 382.546333 190.94175 381.965083 191.607375 
Q 381.385708 192.271125 381.385708 193.473 
Q 381.385708 194.674875 381.965083 195.3405 
Q 382.546333 196.00425 383.596333 196.00425 
Q 384.065083 196.00425 384.524458 195.878625 
Q 384.983833 195.753 385.441333 195.499875 
L 385.441333 196.497375 
Q 384.989458 196.707375 384.505708 196.812375 
Q 384.023833 196.91925 383.478208 196.91925 
Q 381.995083 196.91925 381.121333 195.987375 
Q 380.249458 195.0555 380.249458 193.473 
Q 380.249458 191.868 381.130708 190.94925 
Q 382.013833 190.028625 383.549458 190.028625 
Q 384.046333 190.028625 384.520708 190.13175 
Q 384.995083 190.233 385.441333 190.437375 
z
M 387.362739 187.999875 
L 392.389614 187.999875 
L 392.389614 188.997375 
L 388.545864 188.997375 
L 388.545864 191.5755 
L 392.014614 191.5755 
L 392.014614 192.571125 
L 388.545864 192.571125 
L 388.545864 196.748625 
L 387.362739 196.748625 
L 387.362739 187.999875 
z
M 399.171958 193.197375 
L 399.171958 193.72425 
L 394.214458 193.72425 
Q 394.285708 194.838 394.885708 195.421125 
Q 395.485708 196.00425 396.558208 196.00425 
Q 397.178833 196.00425 397.761958 195.852375 
Q 398.345083 195.7005 398.920708 195.394875 
L 398.920708 196.414875 
Q 398.339458 196.6605 397.730083 196.789875 
Q 397.120708 196.91925 396.494458 196.91925 
Q 394.923208 196.91925 394.006333 196.006125 
Q 393.089458 195.091125 393.089458 193.531125 
Q 393.089458 191.9205 393.959458 190.9755 
Q 394.829458 190.028625 396.306958 190.028625 
Q 397.630708 190.028625 398.401333 190.88175 
Q 399.171958 191.733 399.171958 193.197375 
z
M 398.093833 192.8805 
Q 398.082583 191.997375 397.598833 191.4705 
Q 397.115083 190.94175 396.318208 190.94175 
Q 395.416333 190.94175 394.874458 191.45175 
Q 394.332583 191.96175 394.250083 192.888 
L 398.093833 192.8805 
z
M 403.924145 193.4505 
Q 402.61727 193.4505 402.112895 193.748625 
Q 401.60852 194.04675 401.60852 194.768625 
Q 401.60852 195.342375 401.98727 195.679875 
Q 402.36602 196.0155 403.01477 196.0155 
Q 403.912895 196.0155 404.45477 195.379875 
Q 404.996645 194.74425 404.996645 193.6905 
L 404.996645 193.4505 
L 403.924145 193.4505 
z
M 406.07477 193.00425 
L 406.07477 196.748625 
L 404.996645 196.748625 
L 404.996645 195.753 
Q 404.62727 196.34925 404.07602 196.63425 
Q 403.52477 196.91925 402.727895 196.91925 
Q 401.72102 196.91925 401.12477 196.353 
Q 400.530395 195.78675 400.530395 194.838 
Q 400.530395 193.73175 401.27102 193.16925 
Q 402.01352 192.60675 403.48352 192.60675 
L 404.996645 192.60675 
L 404.996645 192.499875 
Q 404.996645 191.7555 404.50727 191.348625 
Q 404.017895 190.94175 403.132895 190.94175 
Q 402.570395 190.94175 402.03602 191.07675 
Q 401.50352 191.21175 401.01227 191.48175 
L 401.01227 190.48425 
Q 401.602895 190.2555 402.15977 190.143 
Q 402.716645 190.028625 403.24352 190.028625 
Q 404.66852 190.028625 405.371645 190.767375 
Q 406.07477 191.50425 406.07477 193.00425 
z
M 409.361411 188.322375 
L 409.361411 190.186125 
L 411.581411 190.186125 
L 411.581411 191.02425 
L 409.361411 191.02425 
L 409.361411 194.58675 
Q 409.361411 195.38925 409.580786 195.618 
Q 409.800161 195.84675 410.475161 195.84675 
L 411.581411 195.84675 
L 411.581411 196.748625 
L 410.475161 196.748625 
Q 409.226411 196.748625 408.752036 196.283625 
Q 408.277661 195.81675 408.277661 194.58675 
L 408.277661 191.02425 
L 407.486411 191.02425 
L 407.486411 190.186125 
L 408.277661 190.186125 
L 408.277661 188.322375 
L 409.361411 188.322375 
z
M 412.888989 194.15925 
L 412.888989 190.186125 
L 413.967114 190.186125 
L 413.967114 194.118 
Q 413.967114 195.049875 414.328989 195.51675 
Q 414.692739 195.98175 415.420239 195.98175 
Q 416.292114 195.98175 416.798364 195.424875 
Q 417.306489 194.868 417.306489 193.906125 
L 417.306489 190.186125 
L 418.384614 190.186125 
L 418.384614 196.748625 
L 417.306489 196.748625 
L 417.306489 195.739875 
Q 416.914614 196.338 416.395239 196.628625 
Q 415.877739 196.91925 415.191489 196.91925 
Q 414.060864 196.91925 413.473989 196.216125 
Q 412.888989 195.513 412.888989 194.15925 
z
M 415.602114 190.028625 
L 415.602114 190.028625 
z
M 424.407583 191.193 
Q 424.225708 191.088 424.011958 191.03925 
Q 423.798208 190.988625 423.541333 190.988625 
Q 422.626333 190.988625 422.136958 191.583 
Q 421.647583 192.177375 421.647583 193.291125 
L 421.647583 196.748625 
L 420.563833 196.748625 
L 420.563833 190.186125 
L 421.647583 190.186125 
L 421.647583 191.206125 
Q 421.988833 190.608 422.532583 190.31925 
Q 423.078208 190.028625 423.858208 190.028625 
Q 423.968833 190.028625 424.103833 190.043625 
Q 424.238833 190.05675 424.401958 190.08675 
L 424.407583 191.193 
z
M 430.882426 193.197375 
L 430.882426 193.72425 
L 425.924926 193.72425 
Q 425.996176 194.838 426.596176 195.421125 
Q 427.196176 196.00425 428.268676 196.00425 
Q 428.889301 196.00425 429.472426 195.852375 
Q 430.055551 195.7005 430.631176 195.394875 
L 430.631176 196.414875 
Q 430.049926 196.6605 429.440551 196.789875 
Q 428.831176 196.91925 428.204926 196.91925 
Q 426.633676 196.91925 425.716801 196.006125 
Q 424.799926 195.091125 424.799926 193.531125 
Q 424.799926 191.9205 425.669926 190.9755 
Q 426.539926 190.028625 428.017426 190.028625 
Q 429.341176 190.028625 430.111801 190.88175 
Q 430.882426 191.733 430.882426 193.197375 
z
M 429.804301 192.8805 
Q 429.793051 191.997375 429.309301 191.4705 
Q 428.825551 190.94175 428.028676 190.94175 
Q 427.126801 190.94175 426.584926 191.45175 
Q 426.043051 191.96175 425.960551 192.888 
L 429.804301 192.8805 
z
" clip-path="url(#p5a338906b0)" style="fill: #ffffff; stroke: #000000; stroke-width: 2"/>
    <path d="M 322.01852 188.973 
L 322.01852 192.259875 
L 323.50727 192.259875 
Q 324.334145 192.259875 324.784145 191.832375 
Q 325.23602 191.404875 325.23602 190.613625 
Q 325.23602 189.828 324.784145 189.4005 
Q 324.334145 188.973 323.50727 188.973 
L 322.01852 188.973 
z
M 320.835395 187.999875 
L 323.50727 187.999875 
Q 324.979145 187.999875 325.73102 188.6655 
Q 326.48477 189.331125 326.48477 190.613625 
Q 326.48477 191.90925 325.73102 192.571125 
Q 324.979145 193.233 323.50727 193.233 
L 322.01852 193.233 
L 322.01852 196.748625 
L 320.835395 196.748625 
L 320.835395 187.999875 
z
M 333.481098 192.78675 
L 333.481098 196.748625 
L 332.402973 196.748625 
L 332.402973 192.822375 
Q 332.402973 191.8905 332.039223 191.42925 
Q 331.675473 190.966125 330.949848 190.966125 
Q 330.076098 190.966125 329.571723 191.523 
Q 329.067348 192.078 329.067348 193.039875 
L 329.067348 196.748625 
L 327.983598 196.748625 
L 327.983598 187.6305 
L 329.067348 187.6305 
L 329.067348 191.206125 
Q 329.455473 190.613625 329.978598 190.321125 
Q 330.503598 190.028625 331.189848 190.028625 
Q 332.320473 190.028625 332.899848 190.728 
Q 333.481098 191.427375 333.481098 192.78675 
z
M 341.244067 193.197375 
L 341.244067 193.72425 
L 336.286567 193.72425 
Q 336.357817 194.838 336.957817 195.421125 
Q 337.557817 196.00425 338.630317 196.00425 
Q 339.250942 196.00425 339.834067 195.852375 
Q 340.417192 195.7005 340.992817 195.394875 
L 340.992817 196.414875 
Q 340.411567 196.6605 339.802192 196.789875 
Q 339.192817 196.91925 338.566567 196.91925 
Q 336.995317 196.91925 336.078442 196.006125 
Q 335.161567 195.091125 335.161567 193.531125 
Q 335.161567 191.9205 336.031567 190.9755 
Q 336.901567 190.028625 338.379067 190.028625 
Q 339.702817 190.028625 340.473442 190.88175 
Q 341.244067 191.733 341.244067 193.197375 
z
M 340.165942 192.8805 
Q 340.154692 191.997375 339.670942 191.4705 
Q 339.187192 190.94175 338.390317 190.94175 
Q 337.488442 190.94175 336.946567 191.45175 
Q 336.404692 191.96175 336.322192 192.888 
L 340.165942 192.8805 
z
M 348.46938 192.78675 
L 348.46938 196.748625 
L 347.391255 196.748625 
L 347.391255 192.822375 
Q 347.391255 191.8905 347.027505 191.42925 
Q 346.663755 190.966125 345.93813 190.966125 
Q 345.06438 190.966125 344.560005 191.523 
Q 344.05563 192.078 344.05563 193.039875 
L 344.05563 196.748625 
L 342.97188 196.748625 
L 342.97188 190.186125 
L 344.05563 190.186125 
L 344.05563 191.206125 
Q 344.443755 190.613625 344.96688 190.321125 
Q 345.49188 190.028625 346.17813 190.028625 
Q 347.308755 190.028625 347.88813 190.728 
Q 348.46938 191.427375 348.46938 192.78675 
z
M 353.161098 190.94175 
Q 352.294848 190.94175 351.790473 191.618625 
Q 351.286098 192.2955 351.286098 193.473 
Q 351.286098 194.6505 351.786723 195.327375 
Q 352.289223 196.00425 353.161098 196.00425 
Q 354.023598 196.00425 354.526098 195.3255 
Q 355.030473 194.644875 355.030473 193.473 
Q 355.030473 192.30675 354.526098 191.62425 
Q 354.023598 190.94175 353.161098 190.94175 
z
M 353.161098 190.028625 
Q 354.567348 190.028625 355.369848 190.943625 
Q 356.174223 191.85675 356.174223 193.473 
Q 356.174223 195.083625 355.369848 196.002375 
Q 354.567348 196.91925 353.161098 196.91925 
Q 351.749223 196.91925 350.948598 196.002375 
Q 350.149848 195.083625 350.149848 193.473 
Q 350.149848 191.85675 350.948598 190.943625 
Q 351.749223 190.028625 353.161098 190.028625 
z
M 359.02727 188.322375 
L 359.02727 190.186125 
L 361.24727 190.186125 
L 361.24727 191.02425 
L 359.02727 191.02425 
L 359.02727 194.58675 
Q 359.02727 195.38925 359.246645 195.618 
Q 359.46602 195.84675 360.14102 195.84675 
L 361.24727 195.84675 
L 361.24727 196.748625 
L 360.14102 196.748625 
Q 358.89227 196.748625 358.417895 196.283625 
Q 357.94352 195.81675 357.94352 194.58675 
L 357.94352 191.02425 
L 357.15227 191.02425 
L 357.15227 190.186125 
L 357.94352 190.186125 
L 357.94352 188.322375 
L 359.02727 188.322375 
z
M 365.395473 197.358 
Q 364.939848 198.529875 364.504848 198.886125 
Q 364.071723 199.24425 363.346098 199.24425 
L 362.483598 199.24425 
L 362.483598 198.342375 
L 363.117348 198.342375 
Q 363.561723 198.342375 363.807348 198.1305 
Q 364.054848 197.9205 364.352973 197.134875 
L 364.546098 196.643625 
L 361.892973 190.186125 
L 363.034848 190.186125 
L 365.086098 195.318 
L 367.137348 190.186125 
L 368.279223 190.186125 
L 365.395473 197.358 
z
M 370.809536 195.76425 
L 370.809536 199.24425 
L 369.725786 199.24425 
L 369.725786 190.186125 
L 370.809536 190.186125 
L 370.809536 191.18175 
Q 371.150786 190.59675 371.668286 190.313625 
Q 372.187661 190.028625 372.907661 190.028625 
Q 374.103911 190.028625 374.850161 190.977375 
Q 375.598286 191.926125 375.598286 193.473 
Q 375.598286 195.019875 374.850161 195.9705 
Q 374.103911 196.91925 372.907661 196.91925 
Q 372.187661 196.91925 371.668286 196.63425 
Q 371.150786 196.34925 370.809536 195.76425 
z
M 374.478911 193.473 
Q 374.478911 192.28425 373.989536 191.607375 
Q 373.500161 190.9305 372.645161 190.9305 
Q 371.788286 190.9305 371.298911 191.607375 
Q 370.809536 192.28425 370.809536 193.473 
Q 370.809536 194.66175 371.298911 195.338625 
Q 371.788286 196.0155 372.645161 196.0155 
Q 373.500161 196.0155 373.989536 195.338625 
Q 374.478911 194.66175 374.478911 193.473 
z
M 377.384223 190.186125 
L 378.462348 190.186125 
L 378.462348 196.748625 
L 377.384223 196.748625 
L 377.384223 190.186125 
z
M 377.384223 187.6305 
L 378.462348 187.6305 
L 378.462348 188.997375 
L 377.384223 188.997375 
L 377.384223 187.6305 
z
M 385.441333 190.437375 
L 385.441333 191.446125 
Q 384.983833 191.193 384.524458 191.067375 
Q 384.065083 190.94175 383.596333 190.94175 
Q 382.546333 190.94175 381.965083 191.607375 
Q 381.385708 192.271125 381.385708 193.473 
Q 381.385708 194.674875 381.965083 195.3405 
Q 382.546333 196.00425 383.596333 196.00425 
Q 384.065083 196.00425 384.524458 195.878625 
Q 384.983833 195.753 385.441333 195.499875 
L 385.441333 196.497375 
Q 384.989458 196.707375 384.505708 196.812375 
Q 384.023833 196.91925 383.478208 196.91925 
Q 381.995083 196.91925 381.121333 195.987375 
Q 380.249458 195.0555 380.249458 193.473 
Q 380.249458 191.868 381.130708 190.94925 
Q 382.013833 190.028625 383.549458 190.028625 
Q 384.046333 190.028625 384.520708 190.13175 
Q 384.995083 190.233 385.441333 190.437375 
z
M 387.362739 187.999875 
L 392.389614 187.999875 
L 392.389614 188.997375 
L 388.545864 188.997375 
L 388.545864 191.5755 
L 392.014614 191.5755 
L 392.014614 192.571125 
L 388.545864 192.571125 
L 388.545864 196.748625 
L 387.362739 196.748625 
L 387.362739 187.999875 
z
M 399.171958 193.197375 
L 399.171958 193.72425 
L 394.214458 193.72425 
Q 394.285708 194.838 394.885708 195.421125 
Q 395.485708 196.00425 396.558208 196.00425 
Q 397.178833 196.00425 397.761958 195.852375 
Q 398.345083 195.7005 398.920708 195.394875 
L 398.920708 196.414875 
Q 398.339458 196.6605 397.730083 196.789875 
Q 397.120708 196.91925 396.494458 196.91925 
Q 394.923208 196.91925 394.006333 196.006125 
Q 393.089458 195.091125 393.089458 193.531125 
Q 393.089458 191.9205 393.959458 190.9755 
Q 394.829458 190.028625 396.306958 190.028625 
Q 397.630708 190.028625 398.401333 190.88175 
Q 399.171958 191.733 399.171958 193.197375 
z
M 398.093833 192.8805 
Q 398.082583 191.997375 397.598833 191.4705 
Q 397.115083 190.94175 396.318208 190.94175 
Q 395.416333 190.94175 394.874458 191.45175 
Q 394.332583 191.96175 394.250083 192.888 
L 398.093833 192.8805 
z
M 403.924145 193.4505 
Q 402.61727 193.4505 402.112895 193.748625 
Q 401.60852 194.04675 401.60852 194.768625 
Q 401.60852 195.342375 401.98727 195.679875 
Q 402.36602 196.0155 403.01477 196.0155 
Q 403.912895 196.0155 404.45477 195.379875 
Q 404.996645 194.74425 404.996645 193.6905 
L 404.996645 193.4505 
L 403.924145 193.4505 
z
M 406.07477 193.00425 
L 406.07477 196.748625 
L 404.996645 196.748625 
L 404.996645 195.753 
Q 404.62727 196.34925 404.07602 196.63425 
Q 403.52477 196.91925 402.727895 196.91925 
Q 401.72102 196.91925 401.12477 196.353 
Q 400.530395 195.78675 400.530395 194.838 
Q 400.530395 193.73175 401.27102 193.16925 
Q 402.01352 192.60675 403.48352 192.60675 
L 404.996645 192.60675 
L 404.996645 192.499875 
Q 404.996645 191.7555 404.50727 191.348625 
Q 404.017895 190.94175 403.132895 190.94175 
Q 402.570395 190.94175 402.03602 191.07675 
Q 401.50352 191.21175 401.01227 191.48175 
L 401.01227 190.48425 
Q 401.602895 190.2555 402.15977 190.143 
Q 402.716645 190.028625 403.24352 190.028625 
Q 404.66852 190.028625 405.371645 190.767375 
Q 406.07477 191.50425 406.07477 193.00425 
z
M 409.361411 188.322375 
L 409.361411 190.186125 
L 411.581411 190.186125 
L 411.581411 191.02425 
L 409.361411 191.02425 
L 409.361411 194.58675 
Q 409.361411 195.38925 409.580786 195.618 
Q 409.800161 195.84675 410.475161 195.84675 
L 411.581411 195.84675 
L 411.581411 196.748625 
L 410.475161 196.748625 
Q 409.226411 196.748625 408.752036 196.283625 
Q 408.277661 195.81675 408.277661 194.58675 
L 408.277661 191.02425 
L 407.486411 191.02425 
L 407.486411 190.186125 
L 408.277661 190.186125 
L 408.277661 188.322375 
L 409.361411 188.322375 
z
M 412.888989 194.15925 
L 412.888989 190.186125 
L 413.967114 190.186125 
L 413.967114 194.118 
Q 413.967114 195.049875 414.328989 195.51675 
Q 414.692739 195.98175 415.420239 195.98175 
Q 416.292114 195.98175 416.798364 195.424875 
Q 417.306489 194.868 417.306489 193.906125 
L 417.306489 190.186125 
L 418.384614 190.186125 
L 418.384614 196.748625 
L 417.306489 196.748625 
L 417.306489 195.739875 
Q 416.914614 196.338 416.395239 196.628625 
Q 415.877739 196.91925 415.191489 196.91925 
Q 414.060864 196.91925 413.473989 196.216125 
Q 412.888989 195.513 412.888989 194.15925 
z
M 415.602114 190.028625 
L 415.602114 190.028625 
z
M 424.407583 191.193 
Q 424.225708 191.088 424.011958 191.03925 
Q 423.798208 190.988625 423.541333 190.988625 
Q 422.626333 190.988625 422.136958 191.583 
Q 421.647583 192.177375 421.647583 193.291125 
L 421.647583 196.748625 
L 420.563833 196.748625 
L 420.563833 190.186125 
L 421.647583 190.186125 
L 421.647583 191.206125 
Q 421.988833 190.608 422.532583 190.31925 
Q 423.078208 190.028625 423.858208 190.028625 
Q 423.968833 190.028625 424.103833 190.043625 
Q 424.238833 190.05675 424.401958 190.08675 
L 424.407583 191.193 
z
M 430.882426 193.197375 
L 430.882426 193.72425 
L 425.924926 193.72425 
Q 425.996176 194.838 426.596176 195.421125 
Q 427.196176 196.00425 428.268676 196.00425 
Q 428.889301 196.00425 429.472426 195.852375 
Q 430.055551 195.7005 430.631176 195.394875 
L 430.631176 196.414875 
Q 430.049926 196.6605 429.440551 196.789875 
Q 428.831176 196.91925 428.204926 196.91925 
Q 426.633676 196.91925 425.716801 196.006125 
Q 424.799926 195.091125 424.799926 193.531125 
Q 424.799926 191.9205 425.669926 190.9755 
Q 426.539926 190.028625 428.017426 190.028625 
Q 429.341176 190.028625 430.111801 190.88175 
Q 430.882426 191.733 430.882426 193.197375 
z
M 429.804301 192.8805 
Q 429.793051 191.997375 429.309301 191.4705 
Q 428.825551 190.94175 428.028676 190.94175 
Q 427.126801 190.94175 426.584926 191.45175 
Q 426.043051 191.96175 425.960551 192.888 
L 429.804301 192.8805 
z
" clip-path="url(#p5a338906b0)" style="fill: #ffffff"/>
   </g>
   <g id="text_5">
    <g clip-path="url(#p5a338906b0)">
     <!-- Betaine -->
     <g transform="translate(66.971498 169.873875)scale(0.12 -0.12)">
      <defs>
       <path id="DejaVuSans-42" d="M 1259 2228 
L 1259 519 
L 2272 519 
Q 2781 519 3026 730 
Q 3272 941 3272 1375 
Q 3272 1813 3026 2020 
Q 2781 2228 2272 2228 
L 1259 2228 
z
M 1259 4147 
L 1259 2741 
L 2194 2741 
Q 2656 2741 2882 2914 
Q 3109 3088 3109 3444 
Q 3109 3797 2882 3972 
Q 2656 4147 2194 4147 
L 1259 4147 
z
M 628 4666 
L 2241 4666 
Q 2963 4666 3353 4366 
Q 3744 4066 3744 3513 
Q 3744 3084 3544 2831 
Q 3344 2578 2956 2516 
Q 3422 2416 3680 2098 
Q 3938 1781 3938 1306 
Q 3938 681 3513 340 
Q 3088 0 2303 0 
L 628 0 
L 628 4666 
z
" transform="scale(0.015625)"/>
      </defs>
      <use xlink:href="#DejaVuSans-42"/>
      <use xlink:href="#DejaVuSans-65" x="68.603516"/>
      <use xlink:href="#DejaVuSans-74" x="130.126953"/>
      <use xlink:href="#DejaVuSans-61" x="169.335938"/>
      <use xlink:href="#DejaVuSans-69" x="230.615234"/>
      <use xlink:href="#DejaVuSans-6e" x="258.398438"/>
      <use xlink:href="#DejaVuSans-65" x="321.777344"/>
     </g>
    </g>
    <g clip-path="url(#p5a338906b0)">
     <!-- MESH:D001622 -->
     <g transform="translate(43.134623 183.31125)scale(0.12 -0.12)">
      <defs>
       <path id="DejaVuSans-4d" d="M 628 4666 
L 1569 4666 
L 2759 1491 
L 3956 4666 
L 4897 4666 
L 4897 0 
L 4281 0 
L 4281 4097 
L 3078 897 
L 2444 897 
L 1241 4097 
L 1241 0 
L 628 0 
L 628 4666 
z
" transform="scale(0.015625)"/>
       <path id="DejaVuSans-45" d="M 628 4666 
L 3578 4666 
L 3578 4134 
L 1259 4134 
L 1259 2753 
L 3481 2753 
L 3481 2222 
L 1259 2222 
L 1259 531 
L 3634 531 
L 3634 0 
L 628 0 
L 628 4666 
z
" transform="scale(0.015625)"/>
       <path id="DejaVuSans-53" d="M 3425 4513 
L 3425 3897 
Q 3066 4069 2747 4153 
Q 2428 4238 2131 4238 
Q 1616 4238 1336 4038 
Q 1056 3838 1056 3469 
Q 1056 3159 1242 3001 
Q 1428 2844 1947 2747 
L 2328 2669 
Q 3034 2534 3370 2195 
Q 3706 1856 3706 1288 
Q 3706 609 3251 259 
Q 2797 -91 1919 -91 
Q 1588 -91 1214 -16 
Q 841 59 441 206 
L 441 856 
Q 825 641 1194 531 
Q 1563 422 1919 422 
Q 2459 422 2753 634 
Q 3047 847 3047 1241 
Q 3047 1584 2836 1778 
Q 2625 1972 2144 2069 
L 1759 2144 
Q 1053 2284 737 2584 
Q 422 2884 422 3419 
Q 422 4038 858 4394 
Q 1294 4750 2059 4750 
Q 2388 4750 2728 4690 
Q 3069 4631 3425 4513 
z
" transform="scale(0.015625)"/>
       <path id="DejaVuSans-48" d="M 628 4666 
L 1259 4666 
L 1259 2753 
L 3553 2753 
L 3553 4666 
L 4184 4666 
L 4184 0 
L 3553 0 
L 3553 2222 
L 1259 2222 
L 1259 0 
L 628 0 
L 628 4666 
z
" transform="scale(0.015625)"/>
       <path id="DejaVuSans-3a" d="M 750 794 
L 1409 794 
L 1409 0 
L 750 0 
L 750 794 
z
M 750 3309 
L 1409 3309 
L 1409 2516 
L 750 2516 
L 750 3309 
z
" transform="scale(0.015625)"/>
       <path id="DejaVuSans-44" d="M 1259 4147 
L 1259 519 
L 2022 519 
Q 2988 519 3436 956 
Q 3884 1394 3884 2338 
Q 3884 3275 3436 3711 
Q 2988 4147 2022 4147 
L 1259 4147 
z
M 628 4666 
L 1925 4666 
Q 3281 4666 3915 4102 
Q 4550 3538 4550 2338 
Q 4550 1131 3912 565 
Q 3275 0 1925 0 
L 628 0 
L 628 4666 
z
" transform="scale(0.015625)"/>
       <path id="DejaVuSans-30" d="M 2034 4250 
Q 1547 4250 1301 3770 
Q 1056 3291 1056 2328 
Q 1056 1369 1301 889 
Q 1547 409 2034 409 
Q 2525 409 2770 889 
Q 3016 1369 3016 2328 
Q 3016 3291 2770 3770 
Q 2525 4250 2034 4250 
z
M 2034 4750 
Q 2819 4750 3233 4129 
Q 3647 3509 3647 2328 
Q 3647 1150 3233 529 
Q 2819 -91 2034 -91 
Q 1250 -91 836 529 
Q 422 1150 422 2328 
Q 422 3509 836 4129 
Q 1250 4750 2034 4750 
z
" transform="scale(0.015625)"/>
       <path id="DejaVuSans-31" d="M 794 531 
L 1825 531 
L 1825 4091 
L 703 3866 
L 703 4441 
L 1819 4666 
L 2450 4666 
L 2450 531 
L 3481 531 
L 3481 0 
L 794 0 
L 794 531 
z
" transform="scale(0.015625)"/>
       <path id="DejaVuSans-36" d="M 2113 2584 
Q 1688 2584 1439 2293 
Q 1191 2003 1191 1497 
Q 1191 994 1439 701 
Q 1688 409 2113 409 
Q 2538 409 2786 701 
Q 3034 994 3034 1497 
Q 3034 2003 2786 2293 
Q 2538 2584 2113 2584 
z
M 3366 4563 
L 3366 3988 
Q 3128 4100 2886 4159 
Q 2644 4219 2406 4219 
Q 1781 4219 1451 3797 
Q 1122 3375 1075 2522 
Q 1259 2794 1537 2939 
Q 1816 3084 2150 3084 
Q 2853 3084 3261 2657 
Q 3669 2231 3669 1497 
Q 3669 778 3244 343 
Q 2819 -91 2113 -91 
Q 1303 -91 875 529 
Q 447 1150 447 2328 
Q 447 3434 972 4092 
Q 1497 4750 2381 4750 
Q 2619 4750 2861 4703 
Q 3103 4656 3366 4563 
z
" transform="scale(0.015625)"/>
       <path id="DejaVuSans-32" d="M 1228 531 
L 3431 531 
L 3431 0 
L 469 0 
L 469 531 
Q 828 903 1448 1529 
Q 2069 2156 2228 2338 
Q 2531 2678 2651 2914 
Q 2772 3150 2772 3378 
Q 2772 3750 2511 3984 
Q 2250 4219 1831 4219 
Q 1534 4219 1204 4116 
Q 875 4013 500 3803 
L 500 4441 
Q 881 4594 1212 4672 
Q 1544 4750 1819 4750 
Q 2544 4750 2975 4387 
Q 3406 4025 3406 3419 
Q 3406 3131 3298 2873 
Q 3191 2616 2906 2266 
Q 2828 2175 2409 1742 
Q 1991 1309 1228 531 
z
" transform="scale(0.015625)"/>
      </defs>
      <use xlink:href="#DejaVuSans-4d"/>
      <use xlink:href="#DejaVuSans-45" x="86.279297"/>
      <use xlink:href="#DejaVuSans-53" x="149.462891"/>
      <use xlink:href="#DejaVuSans-48" x="212.939453"/>
      <use xlink:href="#DejaVuSans-3a" x="288.134766"/>
      <use xlink:href="#DejaVuSans-44" x="321.826172"/>
      <use xlink:href="#DejaVuSans-30" x="398.828125"/>
      <use xlink:href="#DejaVuSans-30" x="462.451172"/>
      <use xlink:href="#DejaVuSans-31" x="526.074219"/>
      <use xlink:href="#DejaVuSans-36" x="589.697266"/>
      <use xlink:href="#DejaVuSans-32" x="653.320312"/>
      <use xlink:href="#DejaVuSans-32" x="716.943359"/>
     </g>
    </g>
    <g clip-path="url(#p5a338906b0)">
     <!-- Drug -->
     <g transform="translate(75.272123 196.748625)scale(0.12 -0.12)">
      <use xlink:href="#DejaVuSans-44"/>
      <use xlink:href="#DejaVuSans-72" x="77.001953"/>
      <use xlink:href="#DejaVuSans-75" x="118.115234"/>
      <use xlink:href="#DejaVuSans-67" x="181.494141"/>
     </g>
    </g>
   </g>
   <g id="text_6">
    <g clip-path="url(#p5a338906b0)">
     <!-- Bacteriuria -->
     <g transform="translate(628.327105 169.873875)scale(0.12 -0.12)">
      <use xlink:href="#DejaVuSans-42"/>
      <use xlink:href="#DejaVuSans-61" x="68.603516"/>
      <use xlink:href="#DejaVuSans-63" x="129.882812"/>
      <use xlink:href="#DejaVuSans-74" x="184.863281"/>
      <use xlink:href="#DejaVuSans-65" x="224.072266"/>
      <use xlink:href="#DejaVuSans-72" x="285.595703"/>
      <use xlink:href="#DejaVuSans-69" x="326.708984"/>
      <use xlink:href="#DejaVuSans-75" x="354.492188"/>
      <use xlink:href="#DejaVuSans-72" x="417.871094"/>
      <use xlink:href="#DejaVuSans-69" x="458.984375"/>
      <use xlink:href="#DejaVuSans-61" x="486.767578"/>
     </g>
    </g>
    <g clip-path="url(#p5a338906b0)">
     <!-- MESH:D001437 -->
     <g transform="translate(614.374292 183.31125)scale(0.12 -0.12)">
      <defs>
       <path id="DejaVuSans-34" d="M 2419 4116 
L 825 1625 
L 2419 1625 
L 2419 4116 
z
M 2253 4666 
L 3047 4666 
L 3047 1625 
L 3713 1625 
L 3713 1100 
L 3047 1100 
L 3047 0 
L 2419 0 
L 2419 1100 
L 313 1100 
L 313 1709 
L 2253 4666 
z
" transform="scale(0.015625)"/>
       <path id="DejaVuSans-33" d="M 2597 2516 
Q 3050 2419 3304 2112 
Q 3559 1806 3559 1356 
Q 3559 666 3084 287 
Q 2609 -91 1734 -91 
Q 1441 -91 1130 -33 
Q 819 25 488 141 
L 488 750 
Q 750 597 1062 519 
Q 1375 441 1716 441 
Q 2309 441 2620 675 
Q 2931 909 2931 1356 
Q 2931 1769 2642 2001 
Q 2353 2234 1838 2234 
L 1294 2234 
L 1294 2753 
L 1863 2753 
Q 2328 2753 2575 2939 
Q 2822 3125 2822 3475 
Q 2822 3834 2567 4026 
Q 2313 4219 1838 4219 
Q 1578 4219 1281 4162 
Q 984 4106 628 3988 
L 628 4550 
Q 988 4650 1302 4700 
Q 1616 4750 1894 4750 
Q 2613 4750 3031 4423 
Q 3450 4097 3450 3541 
Q 3450 3153 3228 2886 
Q 3006 2619 2597 2516 
z
" transform="scale(0.015625)"/>
       <path id="DejaVuSans-37" d="M 525 4666 
L 3525 4666 
L 3525 4397 
L 1831 0 
L 1172 0 
L 2766 4134 
L 525 4134 
L 525 4666 
z
" transform="scale(0.015625)"/>
      </defs>
      <use xlink:href="#DejaVuSans-4d"/>
      <use xlink:href="#DejaVuSans-45" x="86.279297"/>
      <use xlink:href="#DejaVuSans-53" x="149.462891"/>
      <use xlink:href="#DejaVuSans-48" x="212.939453"/>
      <use xlink:href="#DejaVuSans-3a" x="288.134766"/>
      <use xlink:href="#DejaVuSans-44" x="321.826172"/>
      <use xlink:href="#DejaVuSans-30" x="398.828125"/>
      <use xlink:href="#DejaVuSans-30" x="462.451172"/>
      <use xlink:href="#DejaVuSans-31" x="526.074219"/>
      <use xlink:href="#DejaVuSans-34" x="589.697266"/>
      <use xlink:href="#DejaVuSans-33" x="653.320312"/>
      <use xlink:href="#DejaVuSans-37" x="716.943359"/>
     </g>
    </g>
    <g clip-path="url(#p5a338906b0)">
     <!-- Disease -->
     <g transform="translate(637.611167 196.748625)scale(0.12 -0.12)">
      <use xlink:href="#DejaVuSans-44"/>
      <use xlink:href="#DejaVuSans-69" x="77.001953"/>
      <use xlink:href="#DejaVuSans-73" x="104.785156"/>
      <use xlink:href="#DejaVuSans-65" x="156.884766"/>
      <use xlink:href="#DejaVuSans-61" x="218.408203"/>
      <use xlink:href="#DejaVuSans-73" x="279.6875"/>
      <use xlink:href="#DejaVuSans-65" x="331.787109"/>
     </g>
    </g>
   </g>
   <g id="text_7">
    <g clip-path="url(#p5a338906b0)">
     <!-- Cystitis -->
     <g transform="translate(924.79944 169.873875)scale(0.12 -0.12)">
      <defs>
       <path id="DejaVuSans-43" d="M 4122 4306 
L 4122 3641 
Q 3803 3938 3442 4084 
Q 3081 4231 2675 4231 
Q 1875 4231 1450 3742 
Q 1025 3253 1025 2328 
Q 1025 1406 1450 917 
Q 1875 428 2675 428 
Q 3081 428 3442 575 
Q 3803 722 4122 1019 
L 4122 359 
Q 3791 134 3420 21 
Q 3050 -91 2638 -91 
Q 1578 -91 968 557 
Q 359 1206 359 2328 
Q 359 3453 968 4101 
Q 1578 4750 2638 4750 
Q 3056 4750 3426 4639 
Q 3797 4528 4122 4306 
z
" transform="scale(0.015625)"/>
      </defs>
      <use xlink:href="#DejaVuSans-43"/>
      <use xlink:href="#DejaVuSans-79" x="69.824219"/>
      <use xlink:href="#DejaVuSans-73" x="129.003906"/>
      <use xlink:href="#DejaVuSans-74" x="181.103516"/>
      <use xlink:href="#DejaVuSans-69" x="220.3125"/>
      <use xlink:href="#DejaVuSans-74" x="248.095703"/>
      <use xlink:href="#DejaVuSans-69" x="287.304688"/>
      <use xlink:href="#DejaVuSans-73" x="315.087891"/>
     </g>
    </g>
    <g clip-path="url(#p5a338906b0)">
     <!-- MESH:D003556 -->
     <g transform="translate(899.994127 183.31125)scale(0.12 -0.12)">
      <defs>
       <path id="DejaVuSans-35" d="M 691 4666 
L 3169 4666 
L 3169 4134 
L 1269 4134 
L 1269 2991 
Q 1406 3038 1543 3061 
Q 1681 3084 1819 3084 
Q 2600 3084 3056 2656 
Q 3513 2228 3513 1497 
Q 3513 744 3044 326 
Q 2575 -91 1722 -91 
Q 1428 -91 1123 -41 
Q 819 9 494 109 
L 494 744 
Q 775 591 1075 516 
Q 1375 441 1709 441 
Q 2250 441 2565 725 
Q 2881 1009 2881 1497 
Q 2881 1984 2565 2268 
Q 2250 2553 1709 2553 
Q 1456 2553 1204 2497 
Q 953 2441 691 2322 
L 691 4666 
z
" transform="scale(0.015625)"/>
      </defs>
      <use xlink:href="#DejaVuSans-4d"/>
      <use xlink:href="#DejaVuSans-45" x="86.279297"/>
      <use xlink:href="#DejaVuSans-53" x="149.462891"/>
      <use xlink:href="#DejaVuSans-48" x="212.939453"/>
      <use xlink:href="#DejaVuSans-3a" x="288.134766"/>
      <use xlink:href="#DejaVuSans-44" x="321.826172"/>
      <use xlink:href="#DejaVuSans-30" x="398.828125"/>
      <use xlink:href="#DejaVuSans-30" x="462.451172"/>
      <use xlink:href="#DejaVuSans-33" x="526.074219"/>
      <use xlink:href="#DejaVuSans-35" x="589.697266"/>
      <use xlink:href="#DejaVuSans-35" x="653.320312"/>
      <use xlink:href="#DejaVuSans-36" x="716.943359"/>
     </g>
    </g>
    <g clip-path="url(#p5a338906b0)">
     <!-- Disease -->
     <g transform="translate(923.231002 196.748625)scale(0.12 -0.12)">
      <use xlink:href="#DejaVuSans-44"/>
      <use xlink:href="#DejaVuSans-69" x="77.001953"/>
      <use xlink:href="#DejaVuSans-73" x="104.785156"/>
      <use xlink:href="#DejaVuSans-65" x="156.884766"/>
      <use xlink:href="#DejaVuSans-61" x="218.408203"/>
      <use xlink:href="#DejaVuSans-73" x="279.6875"/>
      <use xlink:href="#DejaVuSans-65" x="331.787109"/>
     </g>
    </g>
   </g>
  </g>
 </g>
 <defs>
  <clipPath id="p5a338906b0">
   <rect x="0" y="0" width="1036.8" height="360"/>
  </clipPath>
 </defs>
</svg>
