<?xml version="1.0" encoding="utf-8" standalone="no"?>
<!DOCTYPE svg PUBLIC "-//W3C//DTD SVG 1.1//EN"
  "http://www.w3.org/Graphics/SVG/1.1/DTD/svg11.dtd">
<svg xmlns:xlink="http://www.w3.org/1999/xlink" width="864pt" height="360pt" viewBox="0 0 864 360" xmlns="http://www.w3.org/2000/svg" version="1.1">
 <metadata>
  <rdf:RDF xmlns:dc="http://purl.org/dc/elements/1.1/" xmlns:cc="http://creativecommons.org/ns#" xmlns:rdf="http://www.w3.org/1999/02/22-rdf-syntax-ns#">
   <cc:Work>
    <dc:type rdf:resource="http://purl.org/dc/dcmitype/StillImage"/>
    <dc:date>2023-02-08T08:50:57.503295</dc:date>
    <dc:format>image/svg+xml</dc:format>
    <dc:creator>
     <cc:Agent>
      <dc:title>Matplotlib v3.5.1, https://matplotlib.org/</dc:title>
     </cc:Agent>
    </dc:creator>
   </cc:Work>
  </rdf:RDF>
 </metadata>
 <defs>
  <style type="text/css">*{stroke-linejoin: round; stroke-linecap: butt}</style>
 </defs>
 <g id="figure_1">
  <g id="patch_1">
   <path d="M 0 360 
L 864 360 
L 864 0 
L 0 0 
z
" style="fill: #ffffff"/>
  </g>
  <g id="axes_1">
   <g id="patch_2">
    <path d="M 127.418126 180 
Q 253.489907 180 376.207585 180 
" clip-path="url(#pc78e32d2a3)" style="fill: none; stroke: #2ca02c; stroke-width: 3; stroke-linecap: round"/>
    <path d="M 372.207585 178 
L 376.207585 180 
L 372.207585 182 
L 372.207585 178 
z
" clip-path="url(#pc78e32d2a3)" style="fill: #2ca02c; stroke: #2ca02c; stroke-width: 3; stroke-linecap: round"/>
   </g>
   <g id="patch_3">
    <path d="M 484.44292 180 
Q 610.5147 180 733.232378 180 
" clip-path="url(#pc78e32d2a3)" style="fill: none; stroke: #2ca02c; stroke-width: 3; stroke-linecap: round"/>
    <path d="M 729.232378 178 
L 733.232378 180 
L 729.232378 182 
L 729.232378 178 
z
" clip-path="url(#pc78e32d2a3)" style="fill: #2ca02c; stroke: #2ca02c; stroke-width: 3; stroke-linecap: round"/>
   </g>
   <g id="text_1">
    <g id="patch_4">
     <path d="M 227.270416 193.437969 
L 279.704791 193.437969 
Q 282.704791 193.437969 282.704791 190.437969 
L 282.704791 169.562031 
Q 282.704791 166.562031 279.704791 166.562031 
L 227.270416 166.562031 
Q 224.270416 166.562031 224.270416 169.562031 
L 224.270416 190.437969 
Q 224.270416 193.437969 227.270416 193.437969 
z
" clip-path="url(#pc78e32d2a3)" style="fill: #ffffff; stroke: #ffffff; stroke-linejoin: miter"/>
    </g>
    <g clip-path="url(#pc78e32d2a3)">
     <!-- negatively -->
     <g transform="translate(227.270416 177.160469)scale(0.1 -0.1)">
      <defs>
       <path id="DejaVuSans-6e" d="M 3513 2113 
L 3513 0 
L 2938 0 
L 2938 2094 
Q 2938 2591 2744 2837 
Q 2550 3084 2163 3084 
Q 1697 3084 1428 2787 
Q 1159 2491 1159 1978 
L 1159 0 
L 581 0 
L 581 3500 
L 1159 3500 
L 1159 2956 
Q 1366 3272 1645 3428 
Q 1925 3584 2291 3584 
Q 2894 3584 3203 3211 
Q 3513 2838 3513 2113 
z
" transform="scale(0.015625)"/>
       <path id="DejaVuSans-65" d="M 3597 1894 
L 3597 1613 
L 953 1613 
Q 991 1019 1311 708 
Q 1631 397 2203 397 
Q 2534 397 2845 478 
Q 3156 559 3463 722 
L 3463 178 
Q 3153 47 2828 -22 
Q 2503 -91 2169 -91 
Q 1331 -91 842 396 
Q 353 884 353 1716 
Q 353 2575 817 3079 
Q 1281 3584 2069 3584 
Q 2775 3584 3186 3129 
Q 3597 2675 3597 1894 
z
M 3022 2063 
Q 3016 2534 2758 2815 
Q 2500 3097 2075 3097 
Q 1594 3097 1305 2825 
Q 1016 2553 972 2059 
L 3022 2063 
z
" transform="scale(0.015625)"/>
       <path id="DejaVuSans-67" d="M 2906 1791 
Q 2906 2416 2648 2759 
Q 2391 3103 1925 3103 
Q 1463 3103 1205 2759 
Q 947 2416 947 1791 
Q 947 1169 1205 825 
Q 1463 481 1925 481 
Q 2391 481 2648 825 
Q 2906 1169 2906 1791 
z
M 3481 434 
Q 3481 -459 3084 -895 
Q 2688 -1331 1869 -1331 
Q 1566 -1331 1297 -1286 
Q 1028 -1241 775 -1147 
L 775 -588 
Q 1028 -725 1275 -790 
Q 1522 -856 1778 -856 
Q 2344 -856 2625 -561 
Q 2906 -266 2906 331 
L 2906 616 
Q 2728 306 2450 153 
Q 2172 0 1784 0 
Q 1141 0 747 490 
Q 353 981 353 1791 
Q 353 2603 747 3093 
Q 1141 3584 1784 3584 
Q 2172 3584 2450 3431 
Q 2728 3278 2906 2969 
L 2906 3500 
L 3481 3500 
L 3481 434 
z
" transform="scale(0.015625)"/>
       <path id="DejaVuSans-61" d="M 2194 1759 
Q 1497 1759 1228 1600 
Q 959 1441 959 1056 
Q 959 750 1161 570 
Q 1363 391 1709 391 
Q 2188 391 2477 730 
Q 2766 1069 2766 1631 
L 2766 1759 
L 2194 1759 
z
M 3341 1997 
L 3341 0 
L 2766 0 
L 2766 531 
Q 2569 213 2275 61 
Q 1981 -91 1556 -91 
Q 1019 -91 701 211 
Q 384 513 384 1019 
Q 384 1609 779 1909 
Q 1175 2209 1959 2209 
L 2766 2209 
L 2766 2266 
Q 2766 2663 2505 2880 
Q 2244 3097 1772 3097 
Q 1472 3097 1187 3025 
Q 903 2953 641 2809 
L 641 3341 
Q 956 3463 1253 3523 
Q 1550 3584 1831 3584 
Q 2591 3584 2966 3190 
Q 3341 2797 3341 1997 
z
" transform="scale(0.015625)"/>
       <path id="DejaVuSans-74" d="M 1172 4494 
L 1172 3500 
L 2356 3500 
L 2356 3053 
L 1172 3053 
L 1172 1153 
Q 1172 725 1289 603 
Q 1406 481 1766 481 
L 2356 481 
L 2356 0 
L 1766 0 
Q 1100 0 847 248 
Q 594 497 594 1153 
L 594 3053 
L 172 3053 
L 172 3500 
L 594 3500 
L 594 4494 
L 1172 4494 
z
" transform="scale(0.015625)"/>
       <path id="DejaVuSans-69" d="M 603 3500 
L 1178 3500 
L 1178 0 
L 603 0 
L 603 3500 
z
M 603 4863 
L 1178 4863 
L 1178 4134 
L 603 4134 
L 603 4863 
z
" transform="scale(0.015625)"/>
       <path id="DejaVuSans-76" d="M 191 3500 
L 800 3500 
L 1894 563 
L 2988 3500 
L 3597 3500 
L 2284 0 
L 1503 0 
L 191 3500 
z
" transform="scale(0.015625)"/>
       <path id="DejaVuSans-6c" d="M 603 4863 
L 1178 4863 
L 1178 0 
L 603 0 
L 603 4863 
z
" transform="scale(0.015625)"/>
       <path id="DejaVuSans-79" d="M 2059 -325 
Q 1816 -950 1584 -1140 
Q 1353 -1331 966 -1331 
L 506 -1331 
L 506 -850 
L 844 -850 
Q 1081 -850 1212 -737 
Q 1344 -625 1503 -206 
L 1606 56 
L 191 3500 
L 800 3500 
L 1894 763 
L 2988 3500 
L 3597 3500 
L 2059 -325 
z
" transform="scale(0.015625)"/>
      </defs>
      <use xlink:href="#DejaVuSans-6e"/>
      <use xlink:href="#DejaVuSans-65" x="63.378906"/>
      <use xlink:href="#DejaVuSans-67" x="124.902344"/>
      <use xlink:href="#DejaVuSans-61" x="188.378906"/>
      <use xlink:href="#DejaVuSans-74" x="249.658203"/>
      <use xlink:href="#DejaVuSans-69" x="288.867188"/>
      <use xlink:href="#DejaVuSans-76" x="316.650391"/>
      <use xlink:href="#DejaVuSans-65" x="375.830078"/>
      <use xlink:href="#DejaVuSans-6c" x="437.353516"/>
      <use xlink:href="#DejaVuSans-79" x="465.136719"/>
     </g>
    </g>
    <g clip-path="url(#pc78e32d2a3)">
     <!-- regulates -->
     <g transform="translate(230.030572 188.358281)scale(0.1 -0.1)">
      <defs>
       <path id="DejaVuSans-72" d="M 2631 2963 
Q 2534 3019 2420 3045 
Q 2306 3072 2169 3072 
Q 1681 3072 1420 2755 
Q 1159 2438 1159 1844 
L 1159 0 
L 581 0 
L 581 3500 
L 1159 3500 
L 1159 2956 
Q 1341 3275 1631 3429 
Q 1922 3584 2338 3584 
Q 2397 3584 2469 3576 
Q 2541 3569 2628 3553 
L 2631 2963 
z
" transform="scale(0.015625)"/>
       <path id="DejaVuSans-75" d="M 544 1381 
L 544 3500 
L 1119 3500 
L 1119 1403 
Q 1119 906 1312 657 
Q 1506 409 1894 409 
Q 2359 409 2629 706 
Q 2900 1003 2900 1516 
L 2900 3500 
L 3475 3500 
L 3475 0 
L 2900 0 
L 2900 538 
Q 2691 219 2414 64 
Q 2138 -91 1772 -91 
Q 1169 -91 856 284 
Q 544 659 544 1381 
z
M 1991 3584 
L 1991 3584 
z
" transform="scale(0.015625)"/>
       <path id="DejaVuSans-73" d="M 2834 3397 
L 2834 2853 
Q 2591 2978 2328 3040 
Q 2066 3103 1784 3103 
Q 1356 3103 1142 2972 
Q 928 2841 928 2578 
Q 928 2378 1081 2264 
Q 1234 2150 1697 2047 
L 1894 2003 
Q 2506 1872 2764 1633 
Q 3022 1394 3022 966 
Q 3022 478 2636 193 
Q 2250 -91 1575 -91 
Q 1294 -91 989 -36 
Q 684 19 347 128 
L 347 722 
Q 666 556 975 473 
Q 1284 391 1588 391 
Q 1994 391 2212 530 
Q 2431 669 2431 922 
Q 2431 1156 2273 1281 
Q 2116 1406 1581 1522 
L 1381 1569 
Q 847 1681 609 1914 
Q 372 2147 372 2553 
Q 372 3047 722 3315 
Q 1072 3584 1716 3584 
Q 2034 3584 2315 3537 
Q 2597 3491 2834 3397 
z
" transform="scale(0.015625)"/>
      </defs>
      <use xlink:href="#DejaVuSans-72"/>
      <use xlink:href="#DejaVuSans-65" x="38.863281"/>
      <use xlink:href="#DejaVuSans-67" x="100.386719"/>
      <use xlink:href="#DejaVuSans-75" x="163.863281"/>
      <use xlink:href="#DejaVuSans-6c" x="227.242188"/>
      <use xlink:href="#DejaVuSans-61" x="255.025391"/>
      <use xlink:href="#DejaVuSans-74" x="316.304688"/>
      <use xlink:href="#DejaVuSans-65" x="355.513672"/>
      <use xlink:href="#DejaVuSans-73" x="417.037109"/>
     </g>
    </g>
   </g>
   <g id="text_2">
    <g id="patch_5">
     <path d="M 593.244428 187.839062 
L 627.780365 187.839062 
Q 630.780365 187.839062 630.780365 184.839062 
L 630.780365 175.160937 
Q 630.780365 172.160937 627.780365 172.160937 
L 593.244428 172.160937 
Q 590.244428 172.160937 590.244428 175.160937 
L 590.244428 184.839062 
Q 590.244428 187.839062 593.244428 187.839062 
z
" clip-path="url(#pc78e32d2a3)" style="fill: #ffffff; stroke: #ffffff; stroke-linejoin: miter"/>
    </g>
    <g clip-path="url(#pc78e32d2a3)">
     <!-- causes -->
     <g transform="translate(593.244428 182.759375)scale(0.1 -0.1)">
      <defs>
       <path id="DejaVuSans-63" d="M 3122 3366 
L 3122 2828 
Q 2878 2963 2633 3030 
Q 2388 3097 2138 3097 
Q 1578 3097 1268 2742 
Q 959 2388 959 1747 
Q 959 1106 1268 751 
Q 1578 397 2138 397 
Q 2388 397 2633 464 
Q 2878 531 3122 666 
L 3122 134 
Q 2881 22 2623 -34 
Q 2366 -91 2075 -91 
Q 1284 -91 818 406 
Q 353 903 353 1747 
Q 353 2603 823 3093 
Q 1294 3584 2113 3584 
Q 2378 3584 2631 3529 
Q 2884 3475 3122 3366 
z
" transform="scale(0.015625)"/>
      </defs>
      <use xlink:href="#DejaVuSans-63"/>
      <use xlink:href="#DejaVuSans-61" x="54.980469"/>
      <use xlink:href="#DejaVuSans-75" x="116.259766"/>
      <use xlink:href="#DejaVuSans-73" x="179.638672"/>
      <use xlink:href="#DejaVuSans-65" x="231.738281"/>
      <use xlink:href="#DejaVuSans-73" x="293.261719"/>
     </g>
    </g>
   </g>
   <g id="PathCollection_1">
    <defs>
     <path id="C0_0_48ac16b8ca" d="M 0 52.440442 
C 13.907368 52.440442 27.246998 46.914987 37.080992 37.080992 
C 46.914987 27.246998 52.440442 13.907368 52.440442 -0 
C 52.440442 -13.907368 46.914987 -27.246998 37.080992 -37.080992 
C 27.246998 -46.914987 13.907368 -52.440442 0 -52.440442 
C -13.907368 -52.440442 -27.246998 -46.914987 -37.080992 -37.080992 
C -46.914987 -27.246998 -52.440442 -13.907368 -52.440442 0 
C -52.440442 13.907368 -46.914987 27.246998 -37.080992 37.080992 
C -27.246998 46.914987 -13.907368 52.440442 0 52.440442 
z
"/>
    </defs>
    <g clip-path="url(#pc78e32d2a3)">
     <use xlink:href="#C0_0_48ac16b8ca" x="74.975207" y="180" style="fill: #01c472; stroke: #01c472"/>
    </g>
    <g clip-path="url(#pc78e32d2a3)">
     <use xlink:href="#C0_0_48ac16b8ca" x="432" y="180" style="fill: #b75970; stroke: #b75970"/>
    </g>
    <g clip-path="url(#pc78e32d2a3)">
     <use xlink:href="#C0_0_48ac16b8ca" x="789.024793" y="180" style="fill: #70c6ca; stroke: #70c6ca"/>
    </g>
   </g>
   <g id="text_3">
    <path d="M 392.798437 156.592687 
L 393.876562 156.592687 
L 393.876562 163.155187 
L 392.798437 163.155187 
L 392.798437 156.592687 
z
M 392.798437 154.037062 
L 393.876562 154.037062 
L 393.876562 155.403937 
L 392.798437 155.403937 
L 392.798437 154.037062 
z
M 401.588672 159.193312 
L 401.588672 163.155187 
L 400.510547 163.155187 
L 400.510547 159.228937 
Q 400.510547 158.297062 400.146797 157.835812 
Q 399.783047 157.372687 399.057422 157.372687 
Q 398.183672 157.372687 397.679297 157.929562 
Q 397.174922 158.484562 397.174922 159.446437 
L 397.174922 163.155187 
L 396.091172 163.155187 
L 396.091172 156.592687 
L 397.174922 156.592687 
L 397.174922 157.612687 
Q 397.563047 157.020187 398.086172 156.727687 
Q 398.611172 156.435187 399.297422 156.435187 
Q 400.428047 156.435187 401.007422 157.134562 
Q 401.588672 157.833937 401.588672 159.193312 
z
M 407.060391 154.037062 
L 407.060391 154.935187 
L 406.029141 154.935187 
Q 405.449766 154.935187 405.222891 155.169562 
Q 404.997891 155.403937 404.997891 156.013312 
L 404.997891 156.592687 
L 406.773516 156.592687 
L 406.773516 157.430812 
L 404.997891 157.430812 
L 404.997891 163.155187 
L 403.914141 163.155187 
L 403.914141 157.430812 
L 402.882891 157.430812 
L 402.882891 156.592687 
L 403.914141 156.592687 
L 403.914141 156.135187 
Q 403.914141 155.040187 404.424141 154.539562 
Q 404.934141 154.037062 406.040391 154.037062 
L 407.060391 154.037062 
z
M 407.9625 154.037062 
L 409.040625 154.037062 
L 409.040625 163.155187 
L 407.9625 163.155187 
L 407.9625 154.037062 
z
M 414.279609 159.857062 
Q 412.972734 159.857062 412.468359 160.155187 
Q 411.963984 160.453312 411.963984 161.175187 
Q 411.963984 161.748937 412.342734 162.086437 
Q 412.721484 162.422062 413.370234 162.422062 
Q 414.268359 162.422062 414.810234 161.786437 
Q 415.352109 161.150812 415.352109 160.097062 
L 415.352109 159.857062 
L 414.279609 159.857062 
z
M 416.430234 159.410812 
L 416.430234 163.155187 
L 415.352109 163.155187 
L 415.352109 162.159562 
Q 414.982734 162.755812 414.431484 163.040812 
Q 413.880234 163.325812 413.083359 163.325812 
Q 412.076484 163.325812 411.480234 162.759562 
Q 410.885859 162.193312 410.885859 161.244562 
Q 410.885859 160.138312 411.626484 159.575812 
Q 412.368984 159.013312 413.838984 159.013312 
L 415.352109 159.013312 
L 415.352109 158.906437 
Q 415.352109 158.162062 414.862734 157.755187 
Q 414.373359 157.348312 413.488359 157.348312 
Q 412.925859 157.348312 412.391484 157.483312 
Q 411.858984 157.618312 411.367734 157.888312 
L 411.367734 156.890812 
Q 411.958359 156.662062 412.515234 156.549562 
Q 413.072109 156.435187 413.598984 156.435187 
Q 415.023984 156.435187 415.727109 157.173937 
Q 416.430234 157.910812 416.430234 159.410812 
z
M 423.759375 157.852687 
Q 424.164375 157.125187 424.726875 156.780187 
Q 425.289375 156.435187 426.050625 156.435187 
Q 427.07625 156.435187 427.633125 157.153312 
Q 428.19 157.869562 428.19 159.193312 
L 428.19 163.155187 
L 427.10625 163.155187 
L 427.10625 159.228937 
Q 427.10625 158.285812 426.770625 157.830187 
Q 426.436875 157.372687 425.7525 157.372687 
Q 424.914375 157.372687 424.426875 157.929562 
Q 423.94125 158.484562 423.94125 159.446437 
L 423.94125 163.155187 
L 422.8575 163.155187 
L 422.8575 159.228937 
Q 422.8575 158.280187 422.52375 157.826437 
Q 422.19 157.372687 421.4925 157.372687 
Q 420.665625 157.372687 420.178125 157.931437 
Q 419.6925 158.490187 419.6925 159.446437 
L 419.6925 163.155187 
L 418.60875 163.155187 
L 418.60875 156.592687 
L 419.6925 156.592687 
L 419.6925 157.612687 
Q 420.061875 157.008937 420.5775 156.722062 
Q 421.093125 156.435187 421.801875 156.435187 
Q 422.518125 156.435187 423.01875 156.798937 
Q 423.519375 157.160812 423.759375 157.852687 
z
M 435.448828 157.852687 
Q 435.853828 157.125187 436.416328 156.780187 
Q 436.978828 156.435187 437.740078 156.435187 
Q 438.765703 156.435187 439.322578 157.153312 
Q 439.879453 157.869562 439.879453 159.193312 
L 439.879453 163.155187 
L 438.795703 163.155187 
L 438.795703 159.228937 
Q 438.795703 158.285812 438.460078 157.830187 
Q 438.126328 157.372687 437.441953 157.372687 
Q 436.603828 157.372687 436.116328 157.929562 
Q 435.630703 158.484562 435.630703 159.446437 
L 435.630703 163.155187 
L 434.546953 163.155187 
L 434.546953 159.228937 
Q 434.546953 158.280187 434.213203 157.826437 
Q 433.879453 157.372687 433.181953 157.372687 
Q 432.355078 157.372687 431.867578 157.931437 
Q 431.381953 158.490187 431.381953 159.446437 
L 431.381953 163.155187 
L 430.298203 163.155187 
L 430.298203 156.592687 
L 431.381953 156.592687 
L 431.381953 157.612687 
Q 431.751328 157.008937 432.266953 156.722062 
Q 432.782578 156.435187 433.491328 156.435187 
Q 434.207578 156.435187 434.708203 156.798937 
Q 435.208828 157.160812 435.448828 157.852687 
z
M 445.012031 159.857062 
Q 443.705156 159.857062 443.200781 160.155187 
Q 442.696406 160.453312 442.696406 161.175187 
Q 442.696406 161.748937 443.075156 162.086437 
Q 443.453906 162.422062 444.102656 162.422062 
Q 445.000781 162.422062 445.542656 161.786437 
Q 446.084531 161.150812 446.084531 160.097062 
L 446.084531 159.857062 
L 445.012031 159.857062 
z
M 447.162656 159.410812 
L 447.162656 163.155187 
L 446.084531 163.155187 
L 446.084531 162.159562 
Q 445.715156 162.755812 445.163906 163.040812 
Q 444.612656 163.325812 443.815781 163.325812 
Q 442.808906 163.325812 442.212656 162.759562 
Q 441.618281 162.193312 441.618281 161.244562 
Q 441.618281 160.138312 442.358906 159.575812 
Q 443.101406 159.013312 444.571406 159.013312 
L 446.084531 159.013312 
L 446.084531 158.906437 
Q 446.084531 158.162062 445.595156 157.755187 
Q 445.105781 157.348312 444.220781 157.348312 
Q 443.658281 157.348312 443.123906 157.483312 
Q 442.591406 157.618312 442.100156 157.888312 
L 442.100156 156.890812 
Q 442.690781 156.662062 443.247656 156.549562 
Q 443.804531 156.435187 444.331406 156.435187 
Q 445.756406 156.435187 446.459531 157.173937 
Q 447.162656 157.910812 447.162656 159.410812 
z
M 450.449297 154.728937 
L 450.449297 156.592687 
L 452.669297 156.592687 
L 452.669297 157.430812 
L 450.449297 157.430812 
L 450.449297 160.993312 
Q 450.449297 161.795812 450.668672 162.024562 
Q 450.888047 162.253312 451.563047 162.253312 
L 452.669297 162.253312 
L 452.669297 163.155187 
L 451.563047 163.155187 
Q 450.314297 163.155187 449.839922 162.690187 
Q 449.365547 162.223312 449.365547 160.993312 
L 449.365547 157.430812 
L 448.574297 157.430812 
L 448.574297 156.592687 
L 449.365547 156.592687 
L 449.365547 154.728937 
L 450.449297 154.728937 
z
M 456.63 157.348312 
Q 455.76375 157.348312 455.259375 158.025187 
Q 454.755 158.702062 454.755 159.879562 
Q 454.755 161.057062 455.255625 161.733937 
Q 455.758125 162.410812 456.63 162.410812 
Q 457.4925 162.410812 457.995 161.732062 
Q 458.499375 161.051437 458.499375 159.879562 
Q 458.499375 158.713312 457.995 158.030812 
Q 457.4925 157.348312 456.63 157.348312 
z
M 456.63 156.435187 
Q 458.03625 156.435187 458.83875 157.350187 
Q 459.643125 158.263312 459.643125 159.879562 
Q 459.643125 161.490187 458.83875 162.408937 
Q 458.03625 163.325812 456.63 163.325812 
Q 455.218125 163.325812 454.4175 162.408937 
Q 453.61875 161.490187 453.61875 159.879562 
Q 453.61875 158.263312 454.4175 157.350187 
Q 455.218125 156.435187 456.63 156.435187 
z
M 465.231797 157.599562 
Q 465.049922 157.494562 464.836172 157.445812 
Q 464.622422 157.395187 464.365547 157.395187 
Q 463.450547 157.395187 462.961172 157.989562 
Q 462.471797 158.583937 462.471797 159.697687 
L 462.471797 163.155187 
L 461.388047 163.155187 
L 461.388047 156.592687 
L 462.471797 156.592687 
L 462.471797 157.612687 
Q 462.813047 157.014562 463.356797 156.725812 
Q 463.902422 156.435187 464.682422 156.435187 
Q 464.793047 156.435187 464.928047 156.450187 
Q 465.063047 156.463312 465.226172 156.493312 
L 465.231797 157.599562 
z
M 469.092891 163.764562 
Q 468.637266 164.936437 468.202266 165.292687 
Q 467.769141 165.650812 467.043516 165.650812 
L 466.181016 165.650812 
L 466.181016 164.748937 
L 466.814766 164.748937 
Q 467.259141 164.748937 467.504766 164.537062 
Q 467.752266 164.327062 468.050391 163.541437 
L 468.243516 163.050187 
L 465.590391 156.592687 
L 466.732266 156.592687 
L 468.783516 161.724562 
L 470.834766 156.592687 
L 471.976641 156.592687 
L 469.092891 163.764562 
z
" clip-path="url(#pc78e32d2a3)" style="fill: #ffffff; stroke: #000000; stroke-width: 2"/>
    <path d="M 392.798437 156.592687 
L 393.876562 156.592687 
L 393.876562 163.155187 
L 392.798437 163.155187 
L 392.798437 156.592687 
z
M 392.798437 154.037062 
L 393.876562 154.037062 
L 393.876562 155.403937 
L 392.798437 155.403937 
L 392.798437 154.037062 
z
M 401.588672 159.193312 
L 401.588672 163.155187 
L 400.510547 163.155187 
L 400.510547 159.228937 
Q 400.510547 158.297062 400.146797 157.835812 
Q 399.783047 157.372687 399.057422 157.372687 
Q 398.183672 157.372687 397.679297 157.929562 
Q 397.174922 158.484562 397.174922 159.446437 
L 397.174922 163.155187 
L 396.091172 163.155187 
L 396.091172 156.592687 
L 397.174922 156.592687 
L 397.174922 157.612687 
Q 397.563047 157.020187 398.086172 156.727687 
Q 398.611172 156.435187 399.297422 156.435187 
Q 400.428047 156.435187 401.007422 157.134562 
Q 401.588672 157.833937 401.588672 159.193312 
z
M 407.060391 154.037062 
L 407.060391 154.935187 
L 406.029141 154.935187 
Q 405.449766 154.935187 405.222891 155.169562 
Q 404.997891 155.403937 404.997891 156.013312 
L 404.997891 156.592687 
L 406.773516 156.592687 
L 406.773516 157.430812 
L 404.997891 157.430812 
L 404.997891 163.155187 
L 403.914141 163.155187 
L 403.914141 157.430812 
L 402.882891 157.430812 
L 402.882891 156.592687 
L 403.914141 156.592687 
L 403.914141 156.135187 
Q 403.914141 155.040187 404.424141 154.539562 
Q 404.934141 154.037062 406.040391 154.037062 
L 407.060391 154.037062 
z
M 407.9625 154.037062 
L 409.040625 154.037062 
L 409.040625 163.155187 
L 407.9625 163.155187 
L 407.9625 154.037062 
z
M 414.279609 159.857062 
Q 412.972734 159.857062 412.468359 160.155187 
Q 411.963984 160.453312 411.963984 161.175187 
Q 411.963984 161.748937 412.342734 162.086437 
Q 412.721484 162.422062 413.370234 162.422062 
Q 414.268359 162.422062 414.810234 161.786437 
Q 415.352109 161.150812 415.352109 160.097062 
L 415.352109 159.857062 
L 414.279609 159.857062 
z
M 416.430234 159.410812 
L 416.430234 163.155187 
L 415.352109 163.155187 
L 415.352109 162.159562 
Q 414.982734 162.755812 414.431484 163.040812 
Q 413.880234 163.325812 413.083359 163.325812 
Q 412.076484 163.325812 411.480234 162.759562 
Q 410.885859 162.193312 410.885859 161.244562 
Q 410.885859 160.138312 411.626484 159.575812 
Q 412.368984 159.013312 413.838984 159.013312 
L 415.352109 159.013312 
L 415.352109 158.906437 
Q 415.352109 158.162062 414.862734 157.755187 
Q 414.373359 157.348312 413.488359 157.348312 
Q 412.925859 157.348312 412.391484 157.483312 
Q 411.858984 157.618312 411.367734 157.888312 
L 411.367734 156.890812 
Q 411.958359 156.662062 412.515234 156.549562 
Q 413.072109 156.435187 413.598984 156.435187 
Q 415.023984 156.435187 415.727109 157.173937 
Q 416.430234 157.910812 416.430234 159.410812 
z
M 423.759375 157.852687 
Q 424.164375 157.125187 424.726875 156.780187 
Q 425.289375 156.435187 426.050625 156.435187 
Q 427.07625 156.435187 427.633125 157.153312 
Q 428.19 157.869562 428.19 159.193312 
L 428.19 163.155187 
L 427.10625 163.155187 
L 427.10625 159.228937 
Q 427.10625 158.285812 426.770625 157.830187 
Q 426.436875 157.372687 425.7525 157.372687 
Q 424.914375 157.372687 424.426875 157.929562 
Q 423.94125 158.484562 423.94125 159.446437 
L 423.94125 163.155187 
L 422.8575 163.155187 
L 422.8575 159.228937 
Q 422.8575 158.280187 422.52375 157.826437 
Q 422.19 157.372687 421.4925 157.372687 
Q 420.665625 157.372687 420.178125 157.931437 
Q 419.6925 158.490187 419.6925 159.446437 
L 419.6925 163.155187 
L 418.60875 163.155187 
L 418.60875 156.592687 
L 419.6925 156.592687 
L 419.6925 157.612687 
Q 420.061875 157.008937 420.5775 156.722062 
Q 421.093125 156.435187 421.801875 156.435187 
Q 422.518125 156.435187 423.01875 156.798937 
Q 423.519375 157.160812 423.759375 157.852687 
z
M 435.448828 157.852687 
Q 435.853828 157.125187 436.416328 156.780187 
Q 436.978828 156.435187 437.740078 156.435187 
Q 438.765703 156.435187 439.322578 157.153312 
Q 439.879453 157.869562 439.879453 159.193312 
L 439.879453 163.155187 
L 438.795703 163.155187 
L 438.795703 159.228937 
Q 438.795703 158.285812 438.460078 157.830187 
Q 438.126328 157.372687 437.441953 157.372687 
Q 436.603828 157.372687 436.116328 157.929562 
Q 435.630703 158.484562 435.630703 159.446437 
L 435.630703 163.155187 
L 434.546953 163.155187 
L 434.546953 159.228937 
Q 434.546953 158.280187 434.213203 157.826437 
Q 433.879453 157.372687 433.181953 157.372687 
Q 432.355078 157.372687 431.867578 157.931437 
Q 431.381953 158.490187 431.381953 159.446437 
L 431.381953 163.155187 
L 430.298203 163.155187 
L 430.298203 156.592687 
L 431.381953 156.592687 
L 431.381953 157.612687 
Q 431.751328 157.008937 432.266953 156.722062 
Q 432.782578 156.435187 433.491328 156.435187 
Q 434.207578 156.435187 434.708203 156.798937 
Q 435.208828 157.160812 435.448828 157.852687 
z
M 445.012031 159.857062 
Q 443.705156 159.857062 443.200781 160.155187 
Q 442.696406 160.453312 442.696406 161.175187 
Q 442.696406 161.748937 443.075156 162.086437 
Q 443.453906 162.422062 444.102656 162.422062 
Q 445.000781 162.422062 445.542656 161.786437 
Q 446.084531 161.150812 446.084531 160.097062 
L 446.084531 159.857062 
L 445.012031 159.857062 
z
M 447.162656 159.410812 
L 447.162656 163.155187 
L 446.084531 163.155187 
L 446.084531 162.159562 
Q 445.715156 162.755812 445.163906 163.040812 
Q 444.612656 163.325812 443.815781 163.325812 
Q 442.808906 163.325812 442.212656 162.759562 
Q 441.618281 162.193312 441.618281 161.244562 
Q 441.618281 160.138312 442.358906 159.575812 
Q 443.101406 159.013312 444.571406 159.013312 
L 446.084531 159.013312 
L 446.084531 158.906437 
Q 446.084531 158.162062 445.595156 157.755187 
Q 445.105781 157.348312 444.220781 157.348312 
Q 443.658281 157.348312 443.123906 157.483312 
Q 442.591406 157.618312 442.100156 157.888312 
L 442.100156 156.890812 
Q 442.690781 156.662062 443.247656 156.549562 
Q 443.804531 156.435187 444.331406 156.435187 
Q 445.756406 156.435187 446.459531 157.173937 
Q 447.162656 157.910812 447.162656 159.410812 
z
M 450.449297 154.728937 
L 450.449297 156.592687 
L 452.669297 156.592687 
L 452.669297 157.430812 
L 450.449297 157.430812 
L 450.449297 160.993312 
Q 450.449297 161.795812 450.668672 162.024562 
Q 450.888047 162.253312 451.563047 162.253312 
L 452.669297 162.253312 
L 452.669297 163.155187 
L 451.563047 163.155187 
Q 450.314297 163.155187 449.839922 162.690187 
Q 449.365547 162.223312 449.365547 160.993312 
L 449.365547 157.430812 
L 448.574297 157.430812 
L 448.574297 156.592687 
L 449.365547 156.592687 
L 449.365547 154.728937 
L 450.449297 154.728937 
z
M 456.63 157.348312 
Q 455.76375 157.348312 455.259375 158.025187 
Q 454.755 158.702062 454.755 159.879562 
Q 454.755 161.057062 455.255625 161.733937 
Q 455.758125 162.410812 456.63 162.410812 
Q 457.4925 162.410812 457.995 161.732062 
Q 458.499375 161.051437 458.499375 159.879562 
Q 458.499375 158.713312 457.995 158.030812 
Q 457.4925 157.348312 456.63 157.348312 
z
M 456.63 156.435187 
Q 458.03625 156.435187 458.83875 157.350187 
Q 459.643125 158.263312 459.643125 159.879562 
Q 459.643125 161.490187 458.83875 162.408937 
Q 458.03625 163.325812 456.63 163.325812 
Q 455.218125 163.325812 454.4175 162.408937 
Q 453.61875 161.490187 453.61875 159.879562 
Q 453.61875 158.263312 454.4175 157.350187 
Q 455.218125 156.435187 456.63 156.435187 
z
M 465.231797 157.599562 
Q 465.049922 157.494562 464.836172 157.445812 
Q 464.622422 157.395187 464.365547 157.395187 
Q 463.450547 157.395187 462.961172 157.989562 
Q 462.471797 158.583937 462.471797 159.697687 
L 462.471797 163.155187 
L 461.388047 163.155187 
L 461.388047 156.592687 
L 462.471797 156.592687 
L 462.471797 157.612687 
Q 462.813047 157.014562 463.356797 156.725812 
Q 463.902422 156.435187 464.682422 156.435187 
Q 464.793047 156.435187 464.928047 156.450187 
Q 465.063047 156.463312 465.226172 156.493312 
L 465.231797 157.599562 
z
M 469.092891 163.764562 
Q 468.637266 164.936437 468.202266 165.292687 
Q 467.769141 165.650812 467.043516 165.650812 
L 466.181016 165.650812 
L 466.181016 164.748937 
L 466.814766 164.748937 
Q 467.259141 164.748937 467.504766 164.537062 
Q 467.752266 164.327062 468.050391 163.541437 
L 468.243516 163.050187 
L 465.590391 156.592687 
L 466.732266 156.592687 
L 468.783516 161.724562 
L 470.834766 156.592687 
L 471.976641 156.592687 
L 469.092891 163.764562 
z
" clip-path="url(#pc78e32d2a3)" style="fill: #ffffff"/>
    <path d="M 408.620625 170.223187 
L 408.620625 171.243187 
Q 408.165 171.008812 407.671875 170.892562 
Q 407.180625 170.774437 406.651875 170.774437 
Q 405.849375 170.774437 405.448125 171.020062 
Q 405.046875 171.265687 405.046875 171.758812 
Q 405.046875 172.133812 405.33375 172.347562 
Q 405.620625 172.561312 406.48875 172.754437 
L 406.858125 172.836937 
Q 408.005625 173.082562 408.489375 173.530687 
Q 408.973125 173.978812 408.973125 174.781312 
Q 408.973125 175.696312 408.249375 176.230687 
Q 407.525625 176.763187 406.26 176.763187 
Q 405.733125 176.763187 405.16125 176.660062 
Q 404.589375 176.556937 403.9575 176.352562 
L 403.9575 175.238812 
Q 404.555625 175.550062 405.135 175.705687 
Q 405.714375 175.859437 406.284375 175.859437 
Q 407.045625 175.859437 407.454375 175.598812 
Q 407.865 175.338187 407.865 174.863812 
Q 407.865 174.425062 407.56875 174.190687 
Q 407.274375 173.956312 406.27125 173.738812 
L 405.89625 173.650687 
Q 404.895 173.440687 404.44875 173.003812 
Q 404.004375 172.566937 404.004375 171.805687 
Q 404.004375 170.879437 404.660625 170.376937 
Q 405.316875 169.872562 406.524375 169.872562 
Q 407.120625 169.872562 407.6475 169.960687 
Q 408.17625 170.046937 408.620625 170.223187 
z
M 410.689453 170.030062 
L 411.767578 170.030062 
L 411.767578 176.592562 
L 410.689453 176.592562 
L 410.689453 170.030062 
z
M 410.689453 167.474437 
L 411.767578 167.474437 
L 411.767578 168.841312 
L 410.689453 168.841312 
L 410.689453 167.474437 
z
M 418.341562 173.234437 
Q 418.341562 172.062562 417.857812 171.419437 
Q 417.375937 170.774437 416.502187 170.774437 
Q 415.635937 170.774437 415.152187 171.419437 
Q 414.668437 172.062562 414.668437 173.234437 
Q 414.668437 174.400687 415.152187 175.045687 
Q 415.635937 175.690687 416.502187 175.690687 
Q 417.375937 175.690687 417.857812 175.045687 
Q 418.341562 174.400687 418.341562 173.234437 
z
M 419.419687 175.778812 
Q 419.419687 177.453187 418.675312 178.270687 
Q 417.932812 179.088187 416.397187 179.088187 
Q 415.829062 179.088187 415.324687 179.003812 
Q 414.820312 178.919437 414.345937 178.743187 
L 414.345937 177.695062 
Q 414.820312 177.951937 415.283437 178.073812 
Q 415.746562 178.197562 416.226562 178.197562 
Q 417.287812 178.197562 417.814687 177.644437 
Q 418.341562 177.091312 418.341562 175.971937 
L 418.341562 175.437562 
Q 418.007812 176.018812 417.486562 176.305687 
Q 416.965312 176.592562 416.237812 176.592562 
Q 415.032187 176.592562 414.293437 175.673812 
Q 413.554687 174.753187 413.554687 173.234437 
Q 413.554687 171.711937 414.293437 170.793187 
Q 415.032187 169.872562 416.237812 169.872562 
Q 416.965312 169.872562 417.486562 170.159437 
Q 418.007812 170.446312 418.341562 171.025687 
L 418.341562 170.030062 
L 419.419687 170.030062 
L 419.419687 175.778812 
z
M 427.096875 172.630687 
L 427.096875 176.592562 
L 426.01875 176.592562 
L 426.01875 172.666312 
Q 426.01875 171.734437 425.655 171.273187 
Q 425.29125 170.810062 424.565625 170.810062 
Q 423.691875 170.810062 423.1875 171.366937 
Q 422.683125 171.921937 422.683125 172.883812 
L 422.683125 176.592562 
L 421.599375 176.592562 
L 421.599375 170.030062 
L 422.683125 170.030062 
L 422.683125 171.050062 
Q 423.07125 170.457562 423.594375 170.165062 
Q 424.119375 169.872562 424.805625 169.872562 
Q 425.93625 169.872562 426.515625 170.571937 
Q 427.096875 171.271312 427.096875 172.630687 
z
M 432.229219 173.294437 
Q 430.922344 173.294437 430.417969 173.592562 
Q 429.913594 173.890687 429.913594 174.612562 
Q 429.913594 175.186312 430.292344 175.523812 
Q 430.671094 175.859437 431.319844 175.859437 
Q 432.217969 175.859437 432.759844 175.223812 
Q 433.301719 174.588187 433.301719 173.534437 
L 433.301719 173.294437 
L 432.229219 173.294437 
z
M 434.379844 172.848187 
L 434.379844 176.592562 
L 433.301719 176.592562 
L 433.301719 175.596937 
Q 432.932344 176.193187 432.381094 176.478187 
Q 431.829844 176.763187 431.032969 176.763187 
Q 430.026094 176.763187 429.429844 176.196937 
Q 428.835469 175.630687 428.835469 174.681937 
Q 428.835469 173.575687 429.576094 173.013187 
Q 430.318594 172.450687 431.788594 172.450687 
L 433.301719 172.450687 
L 433.301719 172.343812 
Q 433.301719 171.599437 432.812344 171.192562 
Q 432.322969 170.785687 431.437969 170.785687 
Q 430.875469 170.785687 430.341094 170.920687 
Q 429.808594 171.055687 429.317344 171.325687 
L 429.317344 170.328187 
Q 429.907969 170.099437 430.464844 169.986937 
Q 431.021719 169.872562 431.548594 169.872562 
Q 432.973594 169.872562 433.676719 170.611312 
Q 434.379844 171.348187 434.379844 172.848187 
z
M 436.599609 167.474437 
L 437.677734 167.474437 
L 437.677734 176.592562 
L 436.599609 176.592562 
L 436.599609 167.474437 
z
M 439.933594 167.474437 
L 441.011719 167.474437 
L 441.011719 176.592562 
L 439.933594 176.592562 
L 439.933594 167.474437 
z
M 443.267578 170.030062 
L 444.345703 170.030062 
L 444.345703 176.592562 
L 443.267578 176.592562 
L 443.267578 170.030062 
z
M 443.267578 167.474437 
L 444.345703 167.474437 
L 444.345703 168.841312 
L 443.267578 168.841312 
L 443.267578 167.474437 
z
M 452.057812 172.630687 
L 452.057812 176.592562 
L 450.979687 176.592562 
L 450.979687 172.666312 
Q 450.979687 171.734437 450.615937 171.273187 
Q 450.252187 170.810062 449.526562 170.810062 
Q 448.652812 170.810062 448.148437 171.366937 
Q 447.644062 171.921937 447.644062 172.883812 
L 447.644062 176.592562 
L 446.560312 176.592562 
L 446.560312 170.030062 
L 447.644062 170.030062 
L 447.644062 171.050062 
Q 448.032187 170.457562 448.555312 170.165062 
Q 449.080312 169.872562 449.766562 169.872562 
Q 450.897187 169.872562 451.476562 170.571937 
Q 452.057812 171.271312 452.057812 172.630687 
z
M 458.525156 173.234437 
Q 458.525156 172.062562 458.041406 171.419437 
Q 457.559531 170.774437 456.685781 170.774437 
Q 455.819531 170.774437 455.335781 171.419437 
Q 454.852031 172.062562 454.852031 173.234437 
Q 454.852031 174.400687 455.335781 175.045687 
Q 455.819531 175.690687 456.685781 175.690687 
Q 457.559531 175.690687 458.041406 175.045687 
Q 458.525156 174.400687 458.525156 173.234437 
z
M 459.603281 175.778812 
Q 459.603281 177.453187 458.858906 178.270687 
Q 458.116406 179.088187 456.580781 179.088187 
Q 456.012656 179.088187 455.508281 179.003812 
Q 455.003906 178.919437 454.529531 178.743187 
L 454.529531 177.695062 
Q 455.003906 177.951937 455.467031 178.073812 
Q 455.930156 178.197562 456.410156 178.197562 
Q 457.471406 178.197562 457.998281 177.644437 
Q 458.525156 177.091312 458.525156 175.971937 
L 458.525156 175.437562 
Q 458.191406 176.018812 457.670156 176.305687 
Q 457.148906 176.592562 456.421406 176.592562 
Q 455.215781 176.592562 454.477031 175.673812 
Q 453.738281 174.753187 453.738281 173.234437 
Q 453.738281 171.711937 454.477031 170.793187 
Q 455.215781 169.872562 456.421406 169.872562 
Q 457.148906 169.872562 457.670156 170.159437 
Q 458.191406 170.446312 458.525156 171.025687 
L 458.525156 170.030062 
L 459.603281 170.030062 
L 459.603281 175.778812 
z
" clip-path="url(#pc78e32d2a3)" style="fill: #ffffff; stroke: #000000; stroke-width: 2"/>
    <path d="M 408.620625 170.223187 
L 408.620625 171.243187 
Q 408.165 171.008812 407.671875 170.892562 
Q 407.180625 170.774437 406.651875 170.774437 
Q 405.849375 170.774437 405.448125 171.020062 
Q 405.046875 171.265687 405.046875 171.758812 
Q 405.046875 172.133812 405.33375 172.347562 
Q 405.620625 172.561312 406.48875 172.754437 
L 406.858125 172.836937 
Q 408.005625 173.082562 408.489375 173.530687 
Q 408.973125 173.978812 408.973125 174.781312 
Q 408.973125 175.696312 408.249375 176.230687 
Q 407.525625 176.763187 406.26 176.763187 
Q 405.733125 176.763187 405.16125 176.660062 
Q 404.589375 176.556937 403.9575 176.352562 
L 403.9575 175.238812 
Q 404.555625 175.550062 405.135 175.705687 
Q 405.714375 175.859437 406.284375 175.859437 
Q 407.045625 175.859437 407.454375 175.598812 
Q 407.865 175.338187 407.865 174.863812 
Q 407.865 174.425062 407.56875 174.190687 
Q 407.274375 173.956312 406.27125 173.738812 
L 405.89625 173.650687 
Q 404.895 173.440687 404.44875 173.003812 
Q 404.004375 172.566937 404.004375 171.805687 
Q 404.004375 170.879437 404.660625 170.376937 
Q 405.316875 169.872562 406.524375 169.872562 
Q 407.120625 169.872562 407.6475 169.960687 
Q 408.17625 170.046937 408.620625 170.223187 
z
M 410.689453 170.030062 
L 411.767578 170.030062 
L 411.767578 176.592562 
L 410.689453 176.592562 
L 410.689453 170.030062 
z
M 410.689453 167.474437 
L 411.767578 167.474437 
L 411.767578 168.841312 
L 410.689453 168.841312 
L 410.689453 167.474437 
z
M 418.341562 173.234437 
Q 418.341562 172.062562 417.857812 171.419437 
Q 417.375937 170.774437 416.502187 170.774437 
Q 415.635937 170.774437 415.152187 171.419437 
Q 414.668437 172.062562 414.668437 173.234437 
Q 414.668437 174.400687 415.152187 175.045687 
Q 415.635937 175.690687 416.502187 175.690687 
Q 417.375937 175.690687 417.857812 175.045687 
Q 418.341562 174.400687 418.341562 173.234437 
z
M 419.419687 175.778812 
Q 419.419687 177.453187 418.675312 178.270687 
Q 417.932812 179.088187 416.397187 179.088187 
Q 415.829062 179.088187 415.324687 179.003812 
Q 414.820312 178.919437 414.345937 178.743187 
L 414.345937 177.695062 
Q 414.820312 177.951937 415.283437 178.073812 
Q 415.746562 178.197562 416.226562 178.197562 
Q 417.287812 178.197562 417.814687 177.644437 
Q 418.341562 177.091312 418.341562 175.971937 
L 418.341562 175.437562 
Q 418.007812 176.018812 417.486562 176.305687 
Q 416.965312 176.592562 416.237812 176.592562 
Q 415.032187 176.592562 414.293437 175.673812 
Q 413.554687 174.753187 413.554687 173.234437 
Q 413.554687 171.711937 414.293437 170.793187 
Q 415.032187 169.872562 416.237812 169.872562 
Q 416.965312 169.872562 417.486562 170.159437 
Q 418.007812 170.446312 418.341562 171.025687 
L 418.341562 170.030062 
L 419.419687 170.030062 
L 419.419687 175.778812 
z
M 427.096875 172.630687 
L 427.096875 176.592562 
L 426.01875 176.592562 
L 426.01875 172.666312 
Q 426.01875 171.734437 425.655 171.273187 
Q 425.29125 170.810062 424.565625 170.810062 
Q 423.691875 170.810062 423.1875 171.366937 
Q 422.683125 171.921937 422.683125 172.883812 
L 422.683125 176.592562 
L 421.599375 176.592562 
L 421.599375 170.030062 
L 422.683125 170.030062 
L 422.683125 171.050062 
Q 423.07125 170.457562 423.594375 170.165062 
Q 424.119375 169.872562 424.805625 169.872562 
Q 425.93625 169.872562 426.515625 170.571937 
Q 427.096875 171.271312 427.096875 172.630687 
z
M 432.229219 173.294437 
Q 430.922344 173.294437 430.417969 173.592562 
Q 429.913594 173.890687 429.913594 174.612562 
Q 429.913594 175.186312 430.292344 175.523812 
Q 430.671094 175.859437 431.319844 175.859437 
Q 432.217969 175.859437 432.759844 175.223812 
Q 433.301719 174.588187 433.301719 173.534437 
L 433.301719 173.294437 
L 432.229219 173.294437 
z
M 434.379844 172.848187 
L 434.379844 176.592562 
L 433.301719 176.592562 
L 433.301719 175.596937 
Q 432.932344 176.193187 432.381094 176.478187 
Q 431.829844 176.763187 431.032969 176.763187 
Q 430.026094 176.763187 429.429844 176.196937 
Q 428.835469 175.630687 428.835469 174.681937 
Q 428.835469 173.575687 429.576094 173.013187 
Q 430.318594 172.450687 431.788594 172.450687 
L 433.301719 172.450687 
L 433.301719 172.343812 
Q 433.301719 171.599437 432.812344 171.192562 
Q 432.322969 170.785687 431.437969 170.785687 
Q 430.875469 170.785687 430.341094 170.920687 
Q 429.808594 171.055687 429.317344 171.325687 
L 429.317344 170.328187 
Q 429.907969 170.099437 430.464844 169.986937 
Q 431.021719 169.872562 431.548594 169.872562 
Q 432.973594 169.872562 433.676719 170.611312 
Q 434.379844 171.348187 434.379844 172.848187 
z
M 436.599609 167.474437 
L 437.677734 167.474437 
L 437.677734 176.592562 
L 436.599609 176.592562 
L 436.599609 167.474437 
z
M 439.933594 167.474437 
L 441.011719 167.474437 
L 441.011719 176.592562 
L 439.933594 176.592562 
L 439.933594 167.474437 
z
M 443.267578 170.030062 
L 444.345703 170.030062 
L 444.345703 176.592562 
L 443.267578 176.592562 
L 443.267578 170.030062 
z
M 443.267578 167.474437 
L 444.345703 167.474437 
L 444.345703 168.841312 
L 443.267578 168.841312 
L 443.267578 167.474437 
z
M 452.057812 172.630687 
L 452.057812 176.592562 
L 450.979687 176.592562 
L 450.979687 172.666312 
Q 450.979687 171.734437 450.615937 171.273187 
Q 450.252187 170.810062 449.526562 170.810062 
Q 448.652812 170.810062 448.148437 171.366937 
Q 447.644062 171.921937 447.644062 172.883812 
L 447.644062 176.592562 
L 446.560312 176.592562 
L 446.560312 170.030062 
L 447.644062 170.030062 
L 447.644062 171.050062 
Q 448.032187 170.457562 448.555312 170.165062 
Q 449.080312 169.872562 449.766562 169.872562 
Q 450.897187 169.872562 451.476562 170.571937 
Q 452.057812 171.271312 452.057812 172.630687 
z
M 458.525156 173.234437 
Q 458.525156 172.062562 458.041406 171.419437 
Q 457.559531 170.774437 456.685781 170.774437 
Q 455.819531 170.774437 455.335781 171.419437 
Q 454.852031 172.062562 454.852031 173.234437 
Q 454.852031 174.400687 455.335781 175.045687 
Q 455.819531 175.690687 456.685781 175.690687 
Q 457.559531 175.690687 458.041406 175.045687 
Q 458.525156 174.400687 458.525156 173.234437 
z
M 459.603281 175.778812 
Q 459.603281 177.453187 458.858906 178.270687 
Q 458.116406 179.088187 456.580781 179.088187 
Q 456.012656 179.088187 455.508281 179.003812 
Q 455.003906 178.919437 454.529531 178.743187 
L 454.529531 177.695062 
Q 455.003906 177.951937 455.467031 178.073812 
Q 455.930156 178.197562 456.410156 178.197562 
Q 457.471406 178.197562 457.998281 177.644437 
Q 458.525156 177.091312 458.525156 175.971937 
L 458.525156 175.437562 
Q 458.191406 176.018812 457.670156 176.305687 
Q 457.148906 176.592562 456.421406 176.592562 
Q 455.215781 176.592562 454.477031 175.673812 
Q 453.738281 174.753187 453.738281 173.234437 
Q 453.738281 171.711937 454.477031 170.793187 
Q 455.215781 169.872562 456.421406 169.872562 
Q 457.148906 169.872562 457.670156 170.159437 
Q 458.191406 170.446312 458.525156 171.025687 
L 458.525156 170.030062 
L 459.603281 170.030062 
L 459.603281 175.778812 
z
" clip-path="url(#pc78e32d2a3)" style="fill: #ffffff"/>
    <path d="M 401.130937 188.781187 
L 401.130937 186.431812 
L 399.197812 186.431812 
L 399.197812 185.458687 
L 402.302812 185.458687 
L 402.302812 189.216187 
Q 401.618437 189.701812 400.791562 189.951187 
Q 399.966562 190.200562 399.029062 190.200562 
Q 396.977812 190.200562 395.819062 189.002437 
Q 394.662187 187.802437 394.662187 185.664937 
Q 394.662187 183.519937 395.819062 182.321812 
Q 396.977812 181.123687 399.029062 181.123687 
Q 399.884062 181.123687 400.654687 181.335562 
Q 401.425312 181.545562 402.075937 181.956187 
L 402.075937 183.216187 
Q 401.419687 182.659312 400.680937 182.378062 
Q 399.942187 182.096812 399.128437 182.096812 
Q 397.521562 182.096812 396.715312 182.993062 
Q 395.910937 183.889312 395.910937 185.664937 
Q 395.910937 187.434937 396.715312 188.331187 
Q 397.521562 189.227437 399.128437 189.227437 
Q 399.754687 189.227437 400.245937 189.118687 
Q 400.739062 189.009937 401.130937 188.781187 
z
M 408.016641 182.083687 
Q 406.726641 182.083687 405.967266 183.045562 
Q 405.209766 184.005562 405.209766 185.664937 
Q 405.209766 187.316812 405.967266 188.278687 
Q 406.726641 189.238687 408.016641 189.238687 
Q 409.304766 189.238687 410.058516 188.278687 
Q 410.812266 187.316812 410.812266 185.664937 
Q 410.812266 184.005562 410.058516 183.045562 
Q 409.304766 182.083687 408.016641 182.083687 
z
M 408.016641 181.123687 
Q 409.856016 181.123687 410.956641 182.357437 
Q 412.059141 183.591187 412.059141 185.664937 
Q 412.059141 187.733062 410.956641 188.966812 
Q 409.856016 190.200562 408.016641 190.200562 
Q 406.171641 190.200562 405.065391 188.970562 
Q 403.961016 187.738687 403.961016 185.664937 
Q 403.961016 183.591187 405.065391 182.357437 
Q 406.171641 181.123687 408.016641 181.123687 
z
M 413.929453 188.541187 
L 415.165078 188.541187 
L 415.165078 190.029937 
L 413.929453 190.029937 
L 413.929453 188.541187 
z
M 413.929453 183.825562 
L 415.165078 183.825562 
L 415.165078 185.312437 
L 413.929453 185.312437 
L 413.929453 183.825562 
z
M 420.379922 182.061187 
Q 419.466797 182.061187 419.005547 182.961187 
Q 418.546172 183.859312 418.546172 185.664937 
Q 418.546172 187.463062 419.005547 188.363062 
Q 419.466797 189.263062 420.379922 189.263062 
Q 421.300547 189.263062 421.759922 188.363062 
Q 422.221172 187.463062 422.221172 185.664937 
Q 422.221172 183.859312 421.759922 182.961187 
Q 421.300547 182.061187 420.379922 182.061187 
z
M 420.379922 181.123687 
Q 421.851797 181.123687 422.628047 182.288062 
Q 423.404297 183.450562 423.404297 185.664937 
Q 423.404297 187.873687 422.628047 189.038062 
Q 421.851797 190.200562 420.379922 190.200562 
Q 418.909922 190.200562 418.133672 189.038062 
Q 417.357422 187.873687 417.357422 185.664937 
Q 417.357422 183.450562 418.133672 182.288062 
Q 418.909922 181.123687 420.379922 181.123687 
z
M 428.014687 182.061187 
Q 427.101562 182.061187 426.640312 182.961187 
Q 426.180937 183.859312 426.180937 185.664937 
Q 426.180937 187.463062 426.640312 188.363062 
Q 427.101562 189.263062 428.014687 189.263062 
Q 428.935312 189.263062 429.394687 188.363062 
Q 429.855937 187.463062 429.855937 185.664937 
Q 429.855937 183.859312 429.394687 182.961187 
Q 428.935312 182.061187 428.014687 182.061187 
z
M 428.014687 181.123687 
Q 429.486562 181.123687 430.262812 182.288062 
Q 431.039062 183.450562 431.039062 185.664937 
Q 431.039062 187.873687 430.262812 189.038062 
Q 429.486562 190.200562 428.014687 190.200562 
Q 426.544687 190.200562 425.768437 189.038062 
Q 424.992187 187.873687 424.992187 185.664937 
Q 424.992187 183.450562 425.768437 182.288062 
Q 426.544687 181.123687 428.014687 181.123687 
z
M 435.649453 182.061187 
Q 434.736328 182.061187 434.275078 182.961187 
Q 433.815703 183.859312 433.815703 185.664937 
Q 433.815703 187.463062 434.275078 188.363062 
Q 434.736328 189.263062 435.649453 189.263062 
Q 436.570078 189.263062 437.029453 188.363062 
Q 437.490703 187.463062 437.490703 185.664937 
Q 437.490703 183.859312 437.029453 182.961187 
Q 436.570078 182.061187 435.649453 182.061187 
z
M 435.649453 181.123687 
Q 437.121328 181.123687 437.897578 182.288062 
Q 438.673828 183.450562 438.673828 185.664937 
Q 438.673828 187.873687 437.897578 189.038062 
Q 437.121328 190.200562 435.649453 190.200562 
Q 434.179453 190.200562 433.403203 189.038062 
Q 432.626953 187.873687 432.626953 185.664937 
Q 432.626953 183.450562 433.403203 182.288062 
Q 434.179453 181.123687 435.649453 181.123687 
z
M 443.432344 185.184937 
Q 442.635469 185.184937 442.168594 185.730562 
Q 441.703594 186.274312 441.703594 187.223062 
Q 441.703594 188.166187 442.168594 188.715562 
Q 442.635469 189.263062 443.432344 189.263062 
Q 444.229219 189.263062 444.694219 188.715562 
Q 445.159219 188.166187 445.159219 187.223062 
Q 445.159219 186.274312 444.694219 185.730562 
Q 444.229219 185.184937 443.432344 185.184937 
z
M 445.781719 181.474312 
L 445.781719 182.552437 
Q 445.335469 182.342437 444.881719 182.231812 
Q 444.427969 182.119312 443.981719 182.119312 
Q 442.809844 182.119312 442.191094 182.910562 
Q 441.574219 183.701812 441.486094 185.301187 
Q 441.831094 184.791187 442.352344 184.519312 
Q 442.875469 184.247437 443.501719 184.247437 
Q 444.819844 184.247437 445.584844 185.048062 
Q 446.349844 185.846812 446.349844 187.223062 
Q 446.349844 188.571187 445.552969 189.386812 
Q 444.756094 190.200562 443.432344 190.200562 
Q 441.913594 190.200562 441.111094 189.038062 
Q 440.308594 187.873687 440.308594 185.664937 
Q 440.308594 183.591187 441.292969 182.357437 
Q 442.277344 181.123687 443.934844 181.123687 
Q 444.381094 181.123687 444.834844 181.211812 
Q 445.288594 181.299937 445.781719 181.474312 
z
M 448.423359 189.848062 
L 448.423359 188.769937 
Q 448.869609 188.981812 449.325234 189.092437 
Q 449.782734 189.203062 450.223359 189.203062 
Q 451.395234 189.203062 452.012109 188.415562 
Q 452.630859 187.628062 452.718984 186.021187 
Q 452.379609 186.525562 451.856484 186.795562 
Q 451.335234 187.065562 450.703359 187.065562 
Q 449.390859 187.065562 448.625859 186.272437 
Q 447.860859 185.477437 447.860859 184.099312 
Q 447.860859 182.753062 448.657734 181.939312 
Q 449.454609 181.123687 450.778359 181.123687 
Q 452.297109 181.123687 453.095859 182.288062 
Q 453.896484 183.450562 453.896484 185.664937 
Q 453.896484 187.733062 452.913984 188.966812 
Q 451.933359 190.200562 450.275859 190.200562 
Q 449.829609 190.200562 449.372109 190.112437 
Q 448.916484 190.024312 448.423359 189.848062 
z
M 450.778359 186.139312 
Q 451.575234 186.139312 452.040234 185.595562 
Q 452.507109 185.049937 452.507109 184.099312 
Q 452.507109 183.156187 452.040234 182.608687 
Q 451.575234 182.061187 450.778359 182.061187 
Q 449.981484 182.061187 449.516484 182.608687 
Q 449.051484 183.156187 449.051484 184.099312 
Q 449.051484 185.049937 449.516484 185.595562 
Q 449.981484 186.139312 450.778359 186.139312 
z
M 456.035625 181.281187 
L 460.681875 181.281187 
L 460.681875 182.278687 
L 457.119375 182.278687 
L 457.119375 184.421812 
Q 457.37625 184.333687 457.633125 184.290562 
Q 457.891875 184.247437 458.150625 184.247437 
Q 459.615 184.247437 460.47 185.049937 
Q 461.326875 185.852437 461.326875 187.223062 
Q 461.326875 188.634937 460.4475 189.418687 
Q 459.568125 190.200562 457.96875 190.200562 
Q 457.4175 190.200562 456.845625 190.106812 
Q 456.275625 190.013062 455.66625 189.825562 
L 455.66625 188.634937 
Q 456.193125 188.921812 456.755625 189.062437 
Q 457.318125 189.203062 457.944375 189.203062 
Q 458.95875 189.203062 459.549375 188.670562 
Q 460.141875 188.138062 460.141875 187.223062 
Q 460.141875 186.309937 459.549375 185.777437 
Q 458.95875 185.243062 457.944375 185.243062 
Q 457.47 185.243062 456.9975 185.348062 
Q 456.526875 185.453062 456.035625 185.676187 
L 456.035625 181.281187 
z
M 466.910391 182.312437 
L 463.921641 186.983062 
L 466.910391 186.983062 
L 466.910391 182.312437 
z
M 466.599141 181.281187 
L 468.087891 181.281187 
L 468.087891 186.983062 
L 469.336641 186.983062 
L 469.336641 187.967437 
L 468.087891 187.967437 
L 468.087891 190.029937 
L 466.910391 190.029937 
L 466.910391 187.967437 
L 462.961641 187.967437 
L 462.961641 186.825562 
L 466.599141 181.281187 
z
" clip-path="url(#pc78e32d2a3)" style="fill: #ffffff; stroke: #000000; stroke-width: 2"/>
    <path d="M 401.130937 188.781187 
L 401.130937 186.431812 
L 399.197812 186.431812 
L 399.197812 185.458687 
L 402.302812 185.458687 
L 402.302812 189.216187 
Q 401.618437 189.701812 400.791562 189.951187 
Q 399.966562 190.200562 399.029062 190.200562 
Q 396.977812 190.200562 395.819062 189.002437 
Q 394.662187 187.802437 394.662187 185.664937 
Q 394.662187 183.519937 395.819062 182.321812 
Q 396.977812 181.123687 399.029062 181.123687 
Q 399.884062 181.123687 400.654687 181.335562 
Q 401.425312 181.545562 402.075937 181.956187 
L 402.075937 183.216187 
Q 401.419687 182.659312 400.680937 182.378062 
Q 399.942187 182.096812 399.128437 182.096812 
Q 397.521562 182.096812 396.715312 182.993062 
Q 395.910937 183.889312 395.910937 185.664937 
Q 395.910937 187.434937 396.715312 188.331187 
Q 397.521562 189.227437 399.128437 189.227437 
Q 399.754687 189.227437 400.245937 189.118687 
Q 400.739062 189.009937 401.130937 188.781187 
z
M 408.016641 182.083687 
Q 406.726641 182.083687 405.967266 183.045562 
Q 405.209766 184.005562 405.209766 185.664937 
Q 405.209766 187.316812 405.967266 188.278687 
Q 406.726641 189.238687 408.016641 189.238687 
Q 409.304766 189.238687 410.058516 188.278687 
Q 410.812266 187.316812 410.812266 185.664937 
Q 410.812266 184.005562 410.058516 183.045562 
Q 409.304766 182.083687 408.016641 182.083687 
z
M 408.016641 181.123687 
Q 409.856016 181.123687 410.956641 182.357437 
Q 412.059141 183.591187 412.059141 185.664937 
Q 412.059141 187.733062 410.956641 188.966812 
Q 409.856016 190.200562 408.016641 190.200562 
Q 406.171641 190.200562 405.065391 188.970562 
Q 403.961016 187.738687 403.961016 185.664937 
Q 403.961016 183.591187 405.065391 182.357437 
Q 406.171641 181.123687 408.016641 181.123687 
z
M 413.929453 188.541187 
L 415.165078 188.541187 
L 415.165078 190.029937 
L 413.929453 190.029937 
L 413.929453 188.541187 
z
M 413.929453 183.825562 
L 415.165078 183.825562 
L 415.165078 185.312437 
L 413.929453 185.312437 
L 413.929453 183.825562 
z
M 420.379922 182.061187 
Q 419.466797 182.061187 419.005547 182.961187 
Q 418.546172 183.859312 418.546172 185.664937 
Q 418.546172 187.463062 419.005547 188.363062 
Q 419.466797 189.263062 420.379922 189.263062 
Q 421.300547 189.263062 421.759922 188.363062 
Q 422.221172 187.463062 422.221172 185.664937 
Q 422.221172 183.859312 421.759922 182.961187 
Q 421.300547 182.061187 420.379922 182.061187 
z
M 420.379922 181.123687 
Q 421.851797 181.123687 422.628047 182.288062 
Q 423.404297 183.450562 423.404297 185.664937 
Q 423.404297 187.873687 422.628047 189.038062 
Q 421.851797 190.200562 420.379922 190.200562 
Q 418.909922 190.200562 418.133672 189.038062 
Q 417.357422 187.873687 417.357422 185.664937 
Q 417.357422 183.450562 418.133672 182.288062 
Q 418.909922 181.123687 420.379922 181.123687 
z
M 428.014687 182.061187 
Q 427.101562 182.061187 426.640312 182.961187 
Q 426.180937 183.859312 426.180937 185.664937 
Q 426.180937 187.463062 426.640312 188.363062 
Q 427.101562 189.263062 428.014687 189.263062 
Q 428.935312 189.263062 429.394687 188.363062 
Q 429.855937 187.463062 429.855937 185.664937 
Q 429.855937 183.859312 429.394687 182.961187 
Q 428.935312 182.061187 428.014687 182.061187 
z
M 428.014687 181.123687 
Q 429.486562 181.123687 430.262812 182.288062 
Q 431.039062 183.450562 431.039062 185.664937 
Q 431.039062 187.873687 430.262812 189.038062 
Q 429.486562 190.200562 428.014687 190.200562 
Q 426.544687 190.200562 425.768437 189.038062 
Q 424.992187 187.873687 424.992187 185.664937 
Q 424.992187 183.450562 425.768437 182.288062 
Q 426.544687 181.123687 428.014687 181.123687 
z
M 435.649453 182.061187 
Q 434.736328 182.061187 434.275078 182.961187 
Q 433.815703 183.859312 433.815703 185.664937 
Q 433.815703 187.463062 434.275078 188.363062 
Q 434.736328 189.263062 435.649453 189.263062 
Q 436.570078 189.263062 437.029453 188.363062 
Q 437.490703 187.463062 437.490703 185.664937 
Q 437.490703 183.859312 437.029453 182.961187 
Q 436.570078 182.061187 435.649453 182.061187 
z
M 435.649453 181.123687 
Q 437.121328 181.123687 437.897578 182.288062 
Q 438.673828 183.450562 438.673828 185.664937 
Q 438.673828 187.873687 437.897578 189.038062 
Q 437.121328 190.200562 435.649453 190.200562 
Q 434.179453 190.200562 433.403203 189.038062 
Q 432.626953 187.873687 432.626953 185.664937 
Q 432.626953 183.450562 433.403203 182.288062 
Q 434.179453 181.123687 435.649453 181.123687 
z
M 443.432344 185.184937 
Q 442.635469 185.184937 442.168594 185.730562 
Q 441.703594 186.274312 441.703594 187.223062 
Q 441.703594 188.166187 442.168594 188.715562 
Q 442.635469 189.263062 443.432344 189.263062 
Q 444.229219 189.263062 444.694219 188.715562 
Q 445.159219 188.166187 445.159219 187.223062 
Q 445.159219 186.274312 444.694219 185.730562 
Q 444.229219 185.184937 443.432344 185.184937 
z
M 445.781719 181.474312 
L 445.781719 182.552437 
Q 445.335469 182.342437 444.881719 182.231812 
Q 444.427969 182.119312 443.981719 182.119312 
Q 442.809844 182.119312 442.191094 182.910562 
Q 441.574219 183.701812 441.486094 185.301187 
Q 441.831094 184.791187 442.352344 184.519312 
Q 442.875469 184.247437 443.501719 184.247437 
Q 444.819844 184.247437 445.584844 185.048062 
Q 446.349844 185.846812 446.349844 187.223062 
Q 446.349844 188.571187 445.552969 189.386812 
Q 444.756094 190.200562 443.432344 190.200562 
Q 441.913594 190.200562 441.111094 189.038062 
Q 440.308594 187.873687 440.308594 185.664937 
Q 440.308594 183.591187 441.292969 182.357437 
Q 442.277344 181.123687 443.934844 181.123687 
Q 444.381094 181.123687 444.834844 181.211812 
Q 445.288594 181.299937 445.781719 181.474312 
z
M 448.423359 189.848062 
L 448.423359 188.769937 
Q 448.869609 188.981812 449.325234 189.092437 
Q 449.782734 189.203062 450.223359 189.203062 
Q 451.395234 189.203062 452.012109 188.415562 
Q 452.630859 187.628062 452.718984 186.021187 
Q 452.379609 186.525562 451.856484 186.795562 
Q 451.335234 187.065562 450.703359 187.065562 
Q 449.390859 187.065562 448.625859 186.272437 
Q 447.860859 185.477437 447.860859 184.099312 
Q 447.860859 182.753062 448.657734 181.939312 
Q 449.454609 181.123687 450.778359 181.123687 
Q 452.297109 181.123687 453.095859 182.288062 
Q 453.896484 183.450562 453.896484 185.664937 
Q 453.896484 187.733062 452.913984 188.966812 
Q 451.933359 190.200562 450.275859 190.200562 
Q 449.829609 190.200562 449.372109 190.112437 
Q 448.916484 190.024312 448.423359 189.848062 
z
M 450.778359 186.139312 
Q 451.575234 186.139312 452.040234 185.595562 
Q 452.507109 185.049937 452.507109 184.099312 
Q 452.507109 183.156187 452.040234 182.608687 
Q 451.575234 182.061187 450.778359 182.061187 
Q 449.981484 182.061187 449.516484 182.608687 
Q 449.051484 183.156187 449.051484 184.099312 
Q 449.051484 185.049937 449.516484 185.595562 
Q 449.981484 186.139312 450.778359 186.139312 
z
M 456.035625 181.281187 
L 460.681875 181.281187 
L 460.681875 182.278687 
L 457.119375 182.278687 
L 457.119375 184.421812 
Q 457.37625 184.333687 457.633125 184.290562 
Q 457.891875 184.247437 458.150625 184.247437 
Q 459.615 184.247437 460.47 185.049937 
Q 461.326875 185.852437 461.326875 187.223062 
Q 461.326875 188.634937 460.4475 189.418687 
Q 459.568125 190.200562 457.96875 190.200562 
Q 457.4175 190.200562 456.845625 190.106812 
Q 456.275625 190.013062 455.66625 189.825562 
L 455.66625 188.634937 
Q 456.193125 188.921812 456.755625 189.062437 
Q 457.318125 189.203062 457.944375 189.203062 
Q 458.95875 189.203062 459.549375 188.670562 
Q 460.141875 188.138062 460.141875 187.223062 
Q 460.141875 186.309937 459.549375 185.777437 
Q 458.95875 185.243062 457.944375 185.243062 
Q 457.47 185.243062 456.9975 185.348062 
Q 456.526875 185.453062 456.035625 185.676187 
L 456.035625 181.281187 
z
M 466.910391 182.312437 
L 463.921641 186.983062 
L 466.910391 186.983062 
L 466.910391 182.312437 
z
M 466.599141 181.281187 
L 468.087891 181.281187 
L 468.087891 186.983062 
L 469.336641 186.983062 
L 469.336641 187.967437 
L 468.087891 187.967437 
L 468.087891 190.029937 
L 466.910391 190.029937 
L 466.910391 187.967437 
L 462.961641 187.967437 
L 462.961641 186.825562 
L 466.599141 181.281187 
z
" clip-path="url(#pc78e32d2a3)" style="fill: #ffffff"/>
    <path d="M 382.69125 199.289812 
L 382.69125 202.494187 
L 384.590625 202.494187 
Q 385.545 202.494187 386.004375 202.098562 
Q 386.465625 201.702937 386.465625 200.889187 
Q 386.465625 200.067937 386.004375 199.679812 
Q 385.545 199.289812 384.590625 199.289812 
L 382.69125 199.289812 
z
M 382.69125 195.691687 
L 382.69125 198.327937 
L 384.444375 198.327937 
Q 385.310625 198.327937 385.734375 198.003562 
Q 386.16 197.677312 386.16 197.009812 
Q 386.16 196.347937 385.734375 196.019812 
Q 385.310625 195.691687 384.444375 195.691687 
L 382.69125 195.691687 
z
M 381.508125 194.718562 
L 384.5325 194.718562 
Q 385.88625 194.718562 386.6175 195.281062 
Q 387.350625 195.843562 387.350625 196.880437 
Q 387.350625 197.684812 386.975625 198.159187 
Q 386.600625 198.633562 385.873125 198.749812 
Q 386.746875 198.937312 387.230625 199.533562 
Q 387.714375 200.127937 387.714375 201.018562 
Q 387.714375 202.190437 386.9175 202.829812 
Q 386.120625 203.467312 384.64875 203.467312 
L 381.508125 203.467312 
L 381.508125 194.718562 
z
M 389.693672 196.904812 
L 390.771797 196.904812 
L 390.771797 203.467312 
L 389.693672 203.467312 
L 389.693672 196.904812 
z
M 389.693672 194.349187 
L 390.771797 194.349187 
L 390.771797 195.716062 
L 389.693672 195.716062 
L 389.693672 194.349187 
z
M 395.570156 197.660437 
Q 394.703906 197.660437 394.199531 198.337312 
Q 393.695156 199.014187 393.695156 200.191687 
Q 393.695156 201.369187 394.195781 202.046062 
Q 394.698281 202.722937 395.570156 202.722937 
Q 396.432656 202.722937 396.935156 202.044187 
Q 397.439531 201.363562 397.439531 200.191687 
Q 397.439531 199.025437 396.935156 198.342937 
Q 396.432656 197.660437 395.570156 197.660437 
z
M 395.570156 196.747312 
Q 396.976406 196.747312 397.778906 197.662312 
Q 398.583281 198.575437 398.583281 200.191687 
Q 398.583281 201.802312 397.778906 202.721062 
Q 396.976406 203.637937 395.570156 203.637937 
Q 394.158281 203.637937 393.357656 202.721062 
Q 392.558906 201.802312 392.558906 200.191687 
Q 392.558906 198.575437 393.357656 197.662312 
Q 394.158281 196.747312 395.570156 196.747312 
z
M 400.369453 194.349187 
L 401.447578 194.349187 
L 401.447578 203.467312 
L 400.369453 203.467312 
L 400.369453 194.349187 
z
M 406.245937 197.660437 
Q 405.379687 197.660437 404.875312 198.337312 
Q 404.370937 199.014187 404.370937 200.191687 
Q 404.370937 201.369187 404.871562 202.046062 
Q 405.374062 202.722937 406.245937 202.722937 
Q 407.108437 202.722937 407.610937 202.044187 
Q 408.115312 201.363562 408.115312 200.191687 
Q 408.115312 199.025437 407.610937 198.342937 
Q 407.108437 197.660437 406.245937 197.660437 
z
M 406.245937 196.747312 
Q 407.652187 196.747312 408.454687 197.662312 
Q 409.259062 198.575437 409.259062 200.191687 
Q 409.259062 201.802312 408.454687 202.721062 
Q 407.652187 203.637937 406.245937 203.637937 
Q 404.834062 203.637937 404.033437 202.721062 
Q 403.234687 201.802312 403.234687 200.191687 
Q 403.234687 198.575437 404.033437 197.662312 
Q 404.834062 196.747312 406.245937 196.747312 
z
M 415.363359 200.109187 
Q 415.363359 198.937312 414.879609 198.294187 
Q 414.397734 197.649187 413.523984 197.649187 
Q 412.657734 197.649187 412.173984 198.294187 
Q 411.690234 198.937312 411.690234 200.109187 
Q 411.690234 201.275437 412.173984 201.920437 
Q 412.657734 202.565437 413.523984 202.565437 
Q 414.397734 202.565437 414.879609 201.920437 
Q 415.363359 201.275437 415.363359 200.109187 
z
M 416.441484 202.653562 
Q 416.441484 204.327937 415.697109 205.145437 
Q 414.954609 205.962937 413.418984 205.962937 
Q 412.850859 205.962937 412.346484 205.878562 
Q 411.842109 205.794187 411.367734 205.617937 
L 411.367734 204.569812 
Q 411.842109 204.826687 412.305234 204.948562 
Q 412.768359 205.072312 413.248359 205.072312 
Q 414.309609 205.072312 414.836484 204.519187 
Q 415.363359 203.966062 415.363359 202.846687 
L 415.363359 202.312312 
Q 415.029609 202.893562 414.508359 203.180437 
Q 413.987109 203.467312 413.259609 203.467312 
Q 412.053984 203.467312 411.315234 202.548562 
Q 410.576484 201.627937 410.576484 200.109187 
Q 410.576484 198.586687 411.315234 197.667937 
Q 412.053984 196.747312 413.259609 196.747312 
Q 413.987109 196.747312 414.508359 197.034187 
Q 415.029609 197.321062 415.363359 197.900437 
L 415.363359 196.904812 
L 416.441484 196.904812 
L 416.441484 202.653562 
z
M 418.662422 196.904812 
L 419.740547 196.904812 
L 419.740547 203.467312 
L 418.662422 203.467312 
L 418.662422 196.904812 
z
M 418.662422 194.349187 
L 419.740547 194.349187 
L 419.740547 195.716062 
L 418.662422 195.716062 
L 418.662422 194.349187 
z
M 426.719531 197.156062 
L 426.719531 198.164812 
Q 426.262031 197.911687 425.802656 197.786062 
Q 425.343281 197.660437 424.874531 197.660437 
Q 423.824531 197.660437 423.243281 198.326062 
Q 422.663906 198.989812 422.663906 200.191687 
Q 422.663906 201.393562 423.243281 202.059187 
Q 423.824531 202.722937 424.874531 202.722937 
Q 425.343281 202.722937 425.802656 202.597312 
Q 426.262031 202.471687 426.719531 202.218562 
L 426.719531 203.216062 
Q 426.267656 203.426062 425.783906 203.531062 
Q 425.302031 203.637937 424.756406 203.637937 
Q 423.273281 203.637937 422.399531 202.706062 
Q 421.527656 201.774187 421.527656 200.191687 
Q 421.527656 198.586687 422.408906 197.667937 
Q 423.292031 196.747312 424.827656 196.747312 
Q 425.324531 196.747312 425.798906 196.850437 
Q 426.273281 196.951687 426.719531 197.156062 
z
M 431.577187 200.169187 
Q 430.270312 200.169187 429.765937 200.467312 
Q 429.261562 200.765437 429.261562 201.487312 
Q 429.261562 202.061062 429.640312 202.398562 
Q 430.019062 202.734187 430.667812 202.734187 
Q 431.565937 202.734187 432.107812 202.098562 
Q 432.649687 201.462937 432.649687 200.409187 
L 432.649687 200.169187 
L 431.577187 200.169187 
z
M 433.727812 199.722937 
L 433.727812 203.467312 
L 432.649687 203.467312 
L 432.649687 202.471687 
Q 432.280312 203.067937 431.729062 203.352937 
Q 431.177812 203.637937 430.380937 203.637937 
Q 429.374062 203.637937 428.777812 203.071687 
Q 428.183437 202.505437 428.183437 201.556687 
Q 428.183437 200.450437 428.924062 199.887937 
Q 429.666562 199.325437 431.136562 199.325437 
L 432.649687 199.325437 
L 432.649687 199.218562 
Q 432.649687 198.474187 432.160312 198.067312 
Q 431.670937 197.660437 430.785937 197.660437 
Q 430.223437 197.660437 429.689062 197.795437 
Q 429.156562 197.930437 428.665312 198.200437 
L 428.665312 197.202937 
Q 429.255937 196.974187 429.812812 196.861687 
Q 430.369687 196.747312 430.896562 196.747312 
Q 432.321562 196.747312 433.024687 197.486062 
Q 433.727812 198.222937 433.727812 199.722937 
z
M 435.947578 194.349187 
L 437.025703 194.349187 
L 437.025703 203.467312 
L 435.947578 203.467312 
L 435.947578 194.349187 
z
M 440.511562 195.691687 
L 440.511562 198.978562 
L 442.000312 198.978562 
Q 442.827187 198.978562 443.277187 198.551062 
Q 443.729062 198.123562 443.729062 197.332312 
Q 443.729062 196.546687 443.277187 196.119187 
Q 442.827187 195.691687 442.000312 195.691687 
L 440.511562 195.691687 
z
M 439.328437 194.718562 
L 442.000312 194.718562 
Q 443.472187 194.718562 444.224062 195.384187 
Q 444.977812 196.049812 444.977812 197.332312 
Q 444.977812 198.627937 444.224062 199.289812 
Q 443.472187 199.951687 442.000312 199.951687 
L 440.511562 199.951687 
L 440.511562 203.467312 
L 439.328437 203.467312 
L 439.328437 194.718562 
z
M 450.110391 197.911687 
Q 449.928516 197.806687 449.714766 197.757937 
Q 449.501016 197.707312 449.244141 197.707312 
Q 448.329141 197.707312 447.839766 198.301687 
Q 447.350391 198.896062 447.350391 200.009812 
L 447.350391 203.467312 
L 446.266641 203.467312 
L 446.266641 196.904812 
L 447.350391 196.904812 
L 447.350391 197.924812 
Q 447.691641 197.326687 448.235391 197.037937 
Q 448.781016 196.747312 449.561016 196.747312 
Q 449.671641 196.747312 449.806641 196.762312 
Q 449.941641 196.775437 450.104766 196.805437 
L 450.110391 197.911687 
z
M 453.513984 197.660437 
Q 452.647734 197.660437 452.143359 198.337312 
Q 451.638984 199.014187 451.638984 200.191687 
Q 451.638984 201.369187 452.139609 202.046062 
Q 452.642109 202.722937 453.513984 202.722937 
Q 454.376484 202.722937 454.878984 202.044187 
Q 455.383359 201.363562 455.383359 200.191687 
Q 455.383359 199.025437 454.878984 198.342937 
Q 454.376484 197.660437 453.513984 197.660437 
z
M 453.513984 196.747312 
Q 454.920234 196.747312 455.722734 197.662312 
Q 456.527109 198.575437 456.527109 200.191687 
Q 456.527109 201.802312 455.722734 202.721062 
Q 454.920234 203.637937 453.513984 203.637937 
Q 452.102109 203.637937 451.301484 202.721062 
Q 450.502734 201.802312 450.502734 200.191687 
Q 450.502734 198.575437 451.301484 197.662312 
Q 452.102109 196.747312 453.513984 196.747312 
z
M 463.036406 197.156062 
L 463.036406 198.164812 
Q 462.578906 197.911687 462.119531 197.786062 
Q 461.660156 197.660437 461.191406 197.660437 
Q 460.141406 197.660437 459.560156 198.326062 
Q 458.980781 198.989812 458.980781 200.191687 
Q 458.980781 201.393562 459.560156 202.059187 
Q 460.141406 202.722937 461.191406 202.722937 
Q 461.660156 202.722937 462.119531 202.597312 
Q 462.578906 202.471687 463.036406 202.218562 
L 463.036406 203.216062 
Q 462.584531 203.426062 462.100781 203.531062 
Q 461.618906 203.637937 461.073281 203.637937 
Q 459.590156 203.637937 458.716406 202.706062 
Q 457.844531 201.774187 457.844531 200.191687 
Q 457.844531 198.586687 458.725781 197.667937 
Q 459.608906 196.747312 461.144531 196.747312 
Q 461.641406 196.747312 462.115781 196.850437 
Q 462.590156 196.951687 463.036406 197.156062 
z
M 470.524687 199.916062 
L 470.524687 200.442937 
L 465.567187 200.442937 
Q 465.638437 201.556687 466.238437 202.139812 
Q 466.838437 202.722937 467.910937 202.722937 
Q 468.531562 202.722937 469.114687 202.571062 
Q 469.697812 202.419187 470.273437 202.113562 
L 470.273437 203.133562 
Q 469.692187 203.379187 469.082812 203.508562 
Q 468.473437 203.637937 467.847187 203.637937 
Q 466.275937 203.637937 465.359062 202.724812 
Q 464.442187 201.809812 464.442187 200.249812 
Q 464.442187 198.639187 465.312187 197.694187 
Q 466.182187 196.747312 467.659687 196.747312 
Q 468.983437 196.747312 469.754062 197.600437 
Q 470.524687 198.451687 470.524687 199.916062 
z
M 469.446562 199.599187 
Q 469.435312 198.716062 468.951562 198.189187 
Q 468.467812 197.660437 467.670937 197.660437 
Q 466.769062 197.660437 466.227187 198.170437 
Q 465.685312 198.680437 465.602812 199.606687 
L 469.446562 199.599187 
z
M 476.476875 197.097937 
L 476.476875 198.117937 
Q 476.02125 197.883562 475.528125 197.767312 
Q 475.036875 197.649187 474.508125 197.649187 
Q 473.705625 197.649187 473.304375 197.894812 
Q 472.903125 198.140437 472.903125 198.633562 
Q 472.903125 199.008562 473.19 199.222312 
Q 473.476875 199.436062 474.345 199.629187 
L 474.714375 199.711687 
Q 475.861875 199.957312 476.345625 200.405437 
Q 476.829375 200.853562 476.829375 201.656062 
Q 476.829375 202.571062 476.105625 203.105437 
Q 475.381875 203.637937 474.11625 203.637937 
Q 473.589375 203.637937 473.0175 203.534812 
Q 472.445625 203.431687 471.81375 203.227312 
L 471.81375 202.113562 
Q 472.411875 202.424812 472.99125 202.580437 
Q 473.570625 202.734187 474.140625 202.734187 
Q 474.901875 202.734187 475.310625 202.473562 
Q 475.72125 202.212937 475.72125 201.738562 
Q 475.72125 201.299812 475.425 201.065437 
Q 475.130625 200.831062 474.1275 200.613562 
L 473.7525 200.525437 
Q 472.75125 200.315437 472.305 199.878562 
Q 471.860625 199.441687 471.860625 198.680437 
Q 471.860625 197.754187 472.516875 197.251687 
Q 473.173125 196.747312 474.380625 196.747312 
Q 474.976875 196.747312 475.50375 196.835437 
Q 476.0325 196.921687 476.476875 197.097937 
z
M 482.728828 197.097937 
L 482.728828 198.117937 
Q 482.273203 197.883562 481.780078 197.767312 
Q 481.288828 197.649187 480.760078 197.649187 
Q 479.957578 197.649187 479.556328 197.894812 
Q 479.155078 198.140437 479.155078 198.633562 
Q 479.155078 199.008562 479.441953 199.222312 
Q 479.728828 199.436062 480.596953 199.629187 
L 480.966328 199.711687 
Q 482.113828 199.957312 482.597578 200.405437 
Q 483.081328 200.853562 483.081328 201.656062 
Q 483.081328 202.571062 482.357578 203.105437 
Q 481.633828 203.637937 480.368203 203.637937 
Q 479.841328 203.637937 479.269453 203.534812 
Q 478.697578 203.431687 478.065703 203.227312 
L 478.065703 202.113562 
Q 478.663828 202.424812 479.243203 202.580437 
Q 479.822578 202.734187 480.392578 202.734187 
Q 481.153828 202.734187 481.562578 202.473562 
Q 481.973203 202.212937 481.973203 201.738562 
Q 481.973203 201.299812 481.676953 201.065437 
Q 481.382578 200.831062 480.379453 200.613562 
L 480.004453 200.525437 
Q 479.003203 200.315437 478.556953 199.878562 
Q 478.112578 199.441687 478.112578 198.680437 
Q 478.112578 197.754187 478.768828 197.251687 
Q 479.425078 196.747312 480.632578 196.747312 
Q 481.228828 196.747312 481.755703 196.835437 
Q 482.284453 196.921687 482.728828 197.097937 
z
" clip-path="url(#pc78e32d2a3)" style="fill: #ffffff; stroke: #000000; stroke-width: 2"/>
    <path d="M 382.69125 199.289812 
L 382.69125 202.494187 
L 384.590625 202.494187 
Q 385.545 202.494187 386.004375 202.098562 
Q 386.465625 201.702937 386.465625 200.889187 
Q 386.465625 200.067937 386.004375 199.679812 
Q 385.545 199.289812 384.590625 199.289812 
L 382.69125 199.289812 
z
M 382.69125 195.691687 
L 382.69125 198.327937 
L 384.444375 198.327937 
Q 385.310625 198.327937 385.734375 198.003562 
Q 386.16 197.677312 386.16 197.009812 
Q 386.16 196.347937 385.734375 196.019812 
Q 385.310625 195.691687 384.444375 195.691687 
L 382.69125 195.691687 
z
M 381.508125 194.718562 
L 384.5325 194.718562 
Q 385.88625 194.718562 386.6175 195.281062 
Q 387.350625 195.843562 387.350625 196.880437 
Q 387.350625 197.684812 386.975625 198.159187 
Q 386.600625 198.633562 385.873125 198.749812 
Q 386.746875 198.937312 387.230625 199.533562 
Q 387.714375 200.127937 387.714375 201.018562 
Q 387.714375 202.190437 386.9175 202.829812 
Q 386.120625 203.467312 384.64875 203.467312 
L 381.508125 203.467312 
L 381.508125 194.718562 
z
M 389.693672 196.904812 
L 390.771797 196.904812 
L 390.771797 203.467312 
L 389.693672 203.467312 
L 389.693672 196.904812 
z
M 389.693672 194.349187 
L 390.771797 194.349187 
L 390.771797 195.716062 
L 389.693672 195.716062 
L 389.693672 194.349187 
z
M 395.570156 197.660437 
Q 394.703906 197.660437 394.199531 198.337312 
Q 393.695156 199.014187 393.695156 200.191687 
Q 393.695156 201.369187 394.195781 202.046062 
Q 394.698281 202.722937 395.570156 202.722937 
Q 396.432656 202.722937 396.935156 202.044187 
Q 397.439531 201.363562 397.439531 200.191687 
Q 397.439531 199.025437 396.935156 198.342937 
Q 396.432656 197.660437 395.570156 197.660437 
z
M 395.570156 196.747312 
Q 396.976406 196.747312 397.778906 197.662312 
Q 398.583281 198.575437 398.583281 200.191687 
Q 398.583281 201.802312 397.778906 202.721062 
Q 396.976406 203.637937 395.570156 203.637937 
Q 394.158281 203.637937 393.357656 202.721062 
Q 392.558906 201.802312 392.558906 200.191687 
Q 392.558906 198.575437 393.357656 197.662312 
Q 394.158281 196.747312 395.570156 196.747312 
z
M 400.369453 194.349187 
L 401.447578 194.349187 
L 401.447578 203.467312 
L 400.369453 203.467312 
L 400.369453 194.349187 
z
M 406.245937 197.660437 
Q 405.379687 197.660437 404.875312 198.337312 
Q 404.370937 199.014187 404.370937 200.191687 
Q 404.370937 201.369187 404.871562 202.046062 
Q 405.374062 202.722937 406.245937 202.722937 
Q 407.108437 202.722937 407.610937 202.044187 
Q 408.115312 201.363562 408.115312 200.191687 
Q 408.115312 199.025437 407.610937 198.342937 
Q 407.108437 197.660437 406.245937 197.660437 
z
M 406.245937 196.747312 
Q 407.652187 196.747312 408.454687 197.662312 
Q 409.259062 198.575437 409.259062 200.191687 
Q 409.259062 201.802312 408.454687 202.721062 
Q 407.652187 203.637937 406.245937 203.637937 
Q 404.834062 203.637937 404.033437 202.721062 
Q 403.234687 201.802312 403.234687 200.191687 
Q 403.234687 198.575437 404.033437 197.662312 
Q 404.834062 196.747312 406.245937 196.747312 
z
M 415.363359 200.109187 
Q 415.363359 198.937312 414.879609 198.294187 
Q 414.397734 197.649187 413.523984 197.649187 
Q 412.657734 197.649187 412.173984 198.294187 
Q 411.690234 198.937312 411.690234 200.109187 
Q 411.690234 201.275437 412.173984 201.920437 
Q 412.657734 202.565437 413.523984 202.565437 
Q 414.397734 202.565437 414.879609 201.920437 
Q 415.363359 201.275437 415.363359 200.109187 
z
M 416.441484 202.653562 
Q 416.441484 204.327937 415.697109 205.145437 
Q 414.954609 205.962937 413.418984 205.962937 
Q 412.850859 205.962937 412.346484 205.878562 
Q 411.842109 205.794187 411.367734 205.617937 
L 411.367734 204.569812 
Q 411.842109 204.826687 412.305234 204.948562 
Q 412.768359 205.072312 413.248359 205.072312 
Q 414.309609 205.072312 414.836484 204.519187 
Q 415.363359 203.966062 415.363359 202.846687 
L 415.363359 202.312312 
Q 415.029609 202.893562 414.508359 203.180437 
Q 413.987109 203.467312 413.259609 203.467312 
Q 412.053984 203.467312 411.315234 202.548562 
Q 410.576484 201.627937 410.576484 200.109187 
Q 410.576484 198.586687 411.315234 197.667937 
Q 412.053984 196.747312 413.259609 196.747312 
Q 413.987109 196.747312 414.508359 197.034187 
Q 415.029609 197.321062 415.363359 197.900437 
L 415.363359 196.904812 
L 416.441484 196.904812 
L 416.441484 202.653562 
z
M 418.662422 196.904812 
L 419.740547 196.904812 
L 419.740547 203.467312 
L 418.662422 203.467312 
L 418.662422 196.904812 
z
M 418.662422 194.349187 
L 419.740547 194.349187 
L 419.740547 195.716062 
L 418.662422 195.716062 
L 418.662422 194.349187 
z
M 426.719531 197.156062 
L 426.719531 198.164812 
Q 426.262031 197.911687 425.802656 197.786062 
Q 425.343281 197.660437 424.874531 197.660437 
Q 423.824531 197.660437 423.243281 198.326062 
Q 422.663906 198.989812 422.663906 200.191687 
Q 422.663906 201.393562 423.243281 202.059187 
Q 423.824531 202.722937 424.874531 202.722937 
Q 425.343281 202.722937 425.802656 202.597312 
Q 426.262031 202.471687 426.719531 202.218562 
L 426.719531 203.216062 
Q 426.267656 203.426062 425.783906 203.531062 
Q 425.302031 203.637937 424.756406 203.637937 
Q 423.273281 203.637937 422.399531 202.706062 
Q 421.527656 201.774187 421.527656 200.191687 
Q 421.527656 198.586687 422.408906 197.667937 
Q 423.292031 196.747312 424.827656 196.747312 
Q 425.324531 196.747312 425.798906 196.850437 
Q 426.273281 196.951687 426.719531 197.156062 
z
M 431.577187 200.169187 
Q 430.270312 200.169187 429.765937 200.467312 
Q 429.261562 200.765437 429.261562 201.487312 
Q 429.261562 202.061062 429.640312 202.398562 
Q 430.019062 202.734187 430.667812 202.734187 
Q 431.565937 202.734187 432.107812 202.098562 
Q 432.649687 201.462937 432.649687 200.409187 
L 432.649687 200.169187 
L 431.577187 200.169187 
z
M 433.727812 199.722937 
L 433.727812 203.467312 
L 432.649687 203.467312 
L 432.649687 202.471687 
Q 432.280312 203.067937 431.729062 203.352937 
Q 431.177812 203.637937 430.380937 203.637937 
Q 429.374062 203.637937 428.777812 203.071687 
Q 428.183437 202.505437 428.183437 201.556687 
Q 428.183437 200.450437 428.924062 199.887937 
Q 429.666562 199.325437 431.136562 199.325437 
L 432.649687 199.325437 
L 432.649687 199.218562 
Q 432.649687 198.474187 432.160312 198.067312 
Q 431.670937 197.660437 430.785937 197.660437 
Q 430.223437 197.660437 429.689062 197.795437 
Q 429.156562 197.930437 428.665312 198.200437 
L 428.665312 197.202937 
Q 429.255937 196.974187 429.812812 196.861687 
Q 430.369687 196.747312 430.896562 196.747312 
Q 432.321562 196.747312 433.024687 197.486062 
Q 433.727812 198.222937 433.727812 199.722937 
z
M 435.947578 194.349187 
L 437.025703 194.349187 
L 437.025703 203.467312 
L 435.947578 203.467312 
L 435.947578 194.349187 
z
M 440.511562 195.691687 
L 440.511562 198.978562 
L 442.000312 198.978562 
Q 442.827187 198.978562 443.277187 198.551062 
Q 443.729062 198.123562 443.729062 197.332312 
Q 443.729062 196.546687 443.277187 196.119187 
Q 442.827187 195.691687 442.000312 195.691687 
L 440.511562 195.691687 
z
M 439.328437 194.718562 
L 442.000312 194.718562 
Q 443.472187 194.718562 444.224062 195.384187 
Q 444.977812 196.049812 444.977812 197.332312 
Q 444.977812 198.627937 444.224062 199.289812 
Q 443.472187 199.951687 442.000312 199.951687 
L 440.511562 199.951687 
L 440.511562 203.467312 
L 439.328437 203.467312 
L 439.328437 194.718562 
z
M 450.110391 197.911687 
Q 449.928516 197.806687 449.714766 197.757937 
Q 449.501016 197.707312 449.244141 197.707312 
Q 448.329141 197.707312 447.839766 198.301687 
Q 447.350391 198.896062 447.350391 200.009812 
L 447.350391 203.467312 
L 446.266641 203.467312 
L 446.266641 196.904812 
L 447.350391 196.904812 
L 447.350391 197.924812 
Q 447.691641 197.326687 448.235391 197.037937 
Q 448.781016 196.747312 449.561016 196.747312 
Q 449.671641 196.747312 449.806641 196.762312 
Q 449.941641 196.775437 450.104766 196.805437 
L 450.110391 197.911687 
z
M 453.513984 197.660437 
Q 452.647734 197.660437 452.143359 198.337312 
Q 451.638984 199.014187 451.638984 200.191687 
Q 451.638984 201.369187 452.139609 202.046062 
Q 452.642109 202.722937 453.513984 202.722937 
Q 454.376484 202.722937 454.878984 202.044187 
Q 455.383359 201.363562 455.383359 200.191687 
Q 455.383359 199.025437 454.878984 198.342937 
Q 454.376484 197.660437 453.513984 197.660437 
z
M 453.513984 196.747312 
Q 454.920234 196.747312 455.722734 197.662312 
Q 456.527109 198.575437 456.527109 200.191687 
Q 456.527109 201.802312 455.722734 202.721062 
Q 454.920234 203.637937 453.513984 203.637937 
Q 452.102109 203.637937 451.301484 202.721062 
Q 450.502734 201.802312 450.502734 200.191687 
Q 450.502734 198.575437 451.301484 197.662312 
Q 452.102109 196.747312 453.513984 196.747312 
z
M 463.036406 197.156062 
L 463.036406 198.164812 
Q 462.578906 197.911687 462.119531 197.786062 
Q 461.660156 197.660437 461.191406 197.660437 
Q 460.141406 197.660437 459.560156 198.326062 
Q 458.980781 198.989812 458.980781 200.191687 
Q 458.980781 201.393562 459.560156 202.059187 
Q 460.141406 202.722937 461.191406 202.722937 
Q 461.660156 202.722937 462.119531 202.597312 
Q 462.578906 202.471687 463.036406 202.218562 
L 463.036406 203.216062 
Q 462.584531 203.426062 462.100781 203.531062 
Q 461.618906 203.637937 461.073281 203.637937 
Q 459.590156 203.637937 458.716406 202.706062 
Q 457.844531 201.774187 457.844531 200.191687 
Q 457.844531 198.586687 458.725781 197.667937 
Q 459.608906 196.747312 461.144531 196.747312 
Q 461.641406 196.747312 462.115781 196.850437 
Q 462.590156 196.951687 463.036406 197.156062 
z
M 470.524687 199.916062 
L 470.524687 200.442937 
L 465.567187 200.442937 
Q 465.638437 201.556687 466.238437 202.139812 
Q 466.838437 202.722937 467.910937 202.722937 
Q 468.531562 202.722937 469.114687 202.571062 
Q 469.697812 202.419187 470.273437 202.113562 
L 470.273437 203.133562 
Q 469.692187 203.379187 469.082812 203.508562 
Q 468.473437 203.637937 467.847187 203.637937 
Q 466.275937 203.637937 465.359062 202.724812 
Q 464.442187 201.809812 464.442187 200.249812 
Q 464.442187 198.639187 465.312187 197.694187 
Q 466.182187 196.747312 467.659687 196.747312 
Q 468.983437 196.747312 469.754062 197.600437 
Q 470.524687 198.451687 470.524687 199.916062 
z
M 469.446562 199.599187 
Q 469.435312 198.716062 468.951562 198.189187 
Q 468.467812 197.660437 467.670937 197.660437 
Q 466.769062 197.660437 466.227187 198.170437 
Q 465.685312 198.680437 465.602812 199.606687 
L 469.446562 199.599187 
z
M 476.476875 197.097937 
L 476.476875 198.117937 
Q 476.02125 197.883562 475.528125 197.767312 
Q 475.036875 197.649187 474.508125 197.649187 
Q 473.705625 197.649187 473.304375 197.894812 
Q 472.903125 198.140437 472.903125 198.633562 
Q 472.903125 199.008562 473.19 199.222312 
Q 473.476875 199.436062 474.345 199.629187 
L 474.714375 199.711687 
Q 475.861875 199.957312 476.345625 200.405437 
Q 476.829375 200.853562 476.829375 201.656062 
Q 476.829375 202.571062 476.105625 203.105437 
Q 475.381875 203.637937 474.11625 203.637937 
Q 473.589375 203.637937 473.0175 203.534812 
Q 472.445625 203.431687 471.81375 203.227312 
L 471.81375 202.113562 
Q 472.411875 202.424812 472.99125 202.580437 
Q 473.570625 202.734187 474.140625 202.734187 
Q 474.901875 202.734187 475.310625 202.473562 
Q 475.72125 202.212937 475.72125 201.738562 
Q 475.72125 201.299812 475.425 201.065437 
Q 475.130625 200.831062 474.1275 200.613562 
L 473.7525 200.525437 
Q 472.75125 200.315437 472.305 199.878562 
Q 471.860625 199.441687 471.860625 198.680437 
Q 471.860625 197.754187 472.516875 197.251687 
Q 473.173125 196.747312 474.380625 196.747312 
Q 474.976875 196.747312 475.50375 196.835437 
Q 476.0325 196.921687 476.476875 197.097937 
z
M 482.728828 197.097937 
L 482.728828 198.117937 
Q 482.273203 197.883562 481.780078 197.767312 
Q 481.288828 197.649187 480.760078 197.649187 
Q 479.957578 197.649187 479.556328 197.894812 
Q 479.155078 198.140437 479.155078 198.633562 
Q 479.155078 199.008562 479.441953 199.222312 
Q 479.728828 199.436062 480.596953 199.629187 
L 480.966328 199.711687 
Q 482.113828 199.957312 482.597578 200.405437 
Q 483.081328 200.853562 483.081328 201.656062 
Q 483.081328 202.571062 482.357578 203.105437 
Q 481.633828 203.637937 480.368203 203.637937 
Q 479.841328 203.637937 479.269453 203.534812 
Q 478.697578 203.431687 478.065703 203.227312 
L 478.065703 202.113562 
Q 478.663828 202.424812 479.243203 202.580437 
Q 479.822578 202.734187 480.392578 202.734187 
Q 481.153828 202.734187 481.562578 202.473562 
Q 481.973203 202.212937 481.973203 201.738562 
Q 481.973203 201.299812 481.676953 201.065437 
Q 481.382578 200.831062 480.379453 200.613562 
L 480.004453 200.525437 
Q 479.003203 200.315437 478.556953 199.878562 
Q 478.112578 199.441687 478.112578 198.680437 
Q 478.112578 197.754187 478.768828 197.251687 
Q 479.425078 196.747312 480.632578 196.747312 
Q 481.228828 196.747312 481.755703 196.835437 
Q 482.284453 196.921687 482.728828 197.097937 
z
" clip-path="url(#pc78e32d2a3)" style="fill: #ffffff"/>
   </g>
   <g id="text_4">
    <g clip-path="url(#pc78e32d2a3)">
     <!-- halcinonide -->
     <g transform="translate(40.418957 169.873875)scale(0.12 -0.12)">
      <defs>
       <path id="DejaVuSans-68" d="M 3513 2113 
L 3513 0 
L 2938 0 
L 2938 2094 
Q 2938 2591 2744 2837 
Q 2550 3084 2163 3084 
Q 1697 3084 1428 2787 
Q 1159 2491 1159 1978 
L 1159 0 
L 581 0 
L 581 4863 
L 1159 4863 
L 1159 2956 
Q 1366 3272 1645 3428 
Q 1925 3584 2291 3584 
Q 2894 3584 3203 3211 
Q 3513 2838 3513 2113 
z
" transform="scale(0.015625)"/>
       <path id="DejaVuSans-6f" d="M 1959 3097 
Q 1497 3097 1228 2736 
Q 959 2375 959 1747 
Q 959 1119 1226 758 
Q 1494 397 1959 397 
Q 2419 397 2687 759 
Q 2956 1122 2956 1747 
Q 2956 2369 2687 2733 
Q 2419 3097 1959 3097 
z
M 1959 3584 
Q 2709 3584 3137 3096 
Q 3566 2609 3566 1747 
Q 3566 888 3137 398 
Q 2709 -91 1959 -91 
Q 1206 -91 779 398 
Q 353 888 353 1747 
Q 353 2609 779 3096 
Q 1206 3584 1959 3584 
z
" transform="scale(0.015625)"/>
       <path id="DejaVuSans-64" d="M 2906 2969 
L 2906 4863 
L 3481 4863 
L 3481 0 
L 2906 0 
L 2906 525 
Q 2725 213 2448 61 
Q 2172 -91 1784 -91 
Q 1150 -91 751 415 
Q 353 922 353 1747 
Q 353 2572 751 3078 
Q 1150 3584 1784 3584 
Q 2172 3584 2448 3432 
Q 2725 3281 2906 2969 
z
M 947 1747 
Q 947 1113 1208 752 
Q 1469 391 1925 391 
Q 2381 391 2643 752 
Q 2906 1113 2906 1747 
Q 2906 2381 2643 2742 
Q 2381 3103 1925 3103 
Q 1469 3103 1208 2742 
Q 947 2381 947 1747 
z
" transform="scale(0.015625)"/>
      </defs>
      <use xlink:href="#DejaVuSans-68"/>
      <use xlink:href="#DejaVuSans-61" x="63.378906"/>
      <use xlink:href="#DejaVuSans-6c" x="124.658203"/>
      <use xlink:href="#DejaVuSans-63" x="152.441406"/>
      <use xlink:href="#DejaVuSans-69" x="207.421875"/>
      <use xlink:href="#DejaVuSans-6e" x="235.205078"/>
      <use xlink:href="#DejaVuSans-6f" x="298.583984"/>
      <use xlink:href="#DejaVuSans-6e" x="359.765625"/>
      <use xlink:href="#DejaVuSans-69" x="423.144531"/>
      <use xlink:href="#DejaVuSans-64" x="450.927734"/>
      <use xlink:href="#DejaVuSans-65" x="514.404297"/>
     </g>
    </g>
    <g clip-path="url(#pc78e32d2a3)">
     <!-- MESH:D006206 -->
     <g transform="translate(28.139582 183.31125)scale(0.12 -0.12)">
      <defs>
       <path id="DejaVuSans-4d" d="M 628 4666 
L 1569 4666 
L 2759 1491 
L 3956 4666 
L 4897 4666 
L 4897 0 
L 4281 0 
L 4281 4097 
L 3078 897 
L 2444 897 
L 1241 4097 
L 1241 0 
L 628 0 
L 628 4666 
z
" transform="scale(0.015625)"/>
       <path id="DejaVuSans-45" d="M 628 4666 
L 3578 4666 
L 3578 4134 
L 1259 4134 
L 1259 2753 
L 3481 2753 
L 3481 2222 
L 1259 2222 
L 1259 531 
L 3634 531 
L 3634 0 
L 628 0 
L 628 4666 
z
" transform="scale(0.015625)"/>
       <path id="DejaVuSans-53" d="M 3425 4513 
L 3425 3897 
Q 3066 4069 2747 4153 
Q 2428 4238 2131 4238 
Q 1616 4238 1336 4038 
Q 1056 3838 1056 3469 
Q 1056 3159 1242 3001 
Q 1428 2844 1947 2747 
L 2328 2669 
Q 3034 2534 3370 2195 
Q 3706 1856 3706 1288 
Q 3706 609 3251 259 
Q 2797 -91 1919 -91 
Q 1588 -91 1214 -16 
Q 841 59 441 206 
L 441 856 
Q 825 641 1194 531 
Q 1563 422 1919 422 
Q 2459 422 2753 634 
Q 3047 847 3047 1241 
Q 3047 1584 2836 1778 
Q 2625 1972 2144 2069 
L 1759 2144 
Q 1053 2284 737 2584 
Q 422 2884 422 3419 
Q 422 4038 858 4394 
Q 1294 4750 2059 4750 
Q 2388 4750 2728 4690 
Q 3069 4631 3425 4513 
z
" transform="scale(0.015625)"/>
       <path id="DejaVuSans-48" d="M 628 4666 
L 1259 4666 
L 1259 2753 
L 3553 2753 
L 3553 4666 
L 4184 4666 
L 4184 0 
L 3553 0 
L 3553 2222 
L 1259 2222 
L 1259 0 
L 628 0 
L 628 4666 
z
" transform="scale(0.015625)"/>
       <path id="DejaVuSans-3a" d="M 750 794 
L 1409 794 
L 1409 0 
L 750 0 
L 750 794 
z
M 750 3309 
L 1409 3309 
L 1409 2516 
L 750 2516 
L 750 3309 
z
" transform="scale(0.015625)"/>
       <path id="DejaVuSans-44" d="M 1259 4147 
L 1259 519 
L 2022 519 
Q 2988 519 3436 956 
Q 3884 1394 3884 2338 
Q 3884 3275 3436 3711 
Q 2988 4147 2022 4147 
L 1259 4147 
z
M 628 4666 
L 1925 4666 
Q 3281 4666 3915 4102 
Q 4550 3538 4550 2338 
Q 4550 1131 3912 565 
Q 3275 0 1925 0 
L 628 0 
L 628 4666 
z
" transform="scale(0.015625)"/>
       <path id="DejaVuSans-30" d="M 2034 4250 
Q 1547 4250 1301 3770 
Q 1056 3291 1056 2328 
Q 1056 1369 1301 889 
Q 1547 409 2034 409 
Q 2525 409 2770 889 
Q 3016 1369 3016 2328 
Q 3016 3291 2770 3770 
Q 2525 4250 2034 4250 
z
M 2034 4750 
Q 2819 4750 3233 4129 
Q 3647 3509 3647 2328 
Q 3647 1150 3233 529 
Q 2819 -91 2034 -91 
Q 1250 -91 836 529 
Q 422 1150 422 2328 
Q 422 3509 836 4129 
Q 1250 4750 2034 4750 
z
" transform="scale(0.015625)"/>
       <path id="DejaVuSans-36" d="M 2113 2584 
Q 1688 2584 1439 2293 
Q 1191 2003 1191 1497 
Q 1191 994 1439 701 
Q 1688 409 2113 409 
Q 2538 409 2786 701 
Q 3034 994 3034 1497 
Q 3034 2003 2786 2293 
Q 2538 2584 2113 2584 
z
M 3366 4563 
L 3366 3988 
Q 3128 4100 2886 4159 
Q 2644 4219 2406 4219 
Q 1781 4219 1451 3797 
Q 1122 3375 1075 2522 
Q 1259 2794 1537 2939 
Q 1816 3084 2150 3084 
Q 2853 3084 3261 2657 
Q 3669 2231 3669 1497 
Q 3669 778 3244 343 
Q 2819 -91 2113 -91 
Q 1303 -91 875 529 
Q 447 1150 447 2328 
Q 447 3434 972 4092 
Q 1497 4750 2381 4750 
Q 2619 4750 2861 4703 
Q 3103 4656 3366 4563 
z
" transform="scale(0.015625)"/>
       <path id="DejaVuSans-32" d="M 1228 531 
L 3431 531 
L 3431 0 
L 469 0 
L 469 531 
Q 828 903 1448 1529 
Q 2069 2156 2228 2338 
Q 2531 2678 2651 2914 
Q 2772 3150 2772 3378 
Q 2772 3750 2511 3984 
Q 2250 4219 1831 4219 
Q 1534 4219 1204 4116 
Q 875 4013 500 3803 
L 500 4441 
Q 881 4594 1212 4672 
Q 1544 4750 1819 4750 
Q 2544 4750 2975 4387 
Q 3406 4025 3406 3419 
Q 3406 3131 3298 2873 
Q 3191 2616 2906 2266 
Q 2828 2175 2409 1742 
Q 1991 1309 1228 531 
z
" transform="scale(0.015625)"/>
      </defs>
      <use xlink:href="#DejaVuSans-4d"/>
      <use xlink:href="#DejaVuSans-45" x="86.279297"/>
      <use xlink:href="#DejaVuSans-53" x="149.462891"/>
      <use xlink:href="#DejaVuSans-48" x="212.939453"/>
      <use xlink:href="#DejaVuSans-3a" x="288.134766"/>
      <use xlink:href="#DejaVuSans-44" x="321.826172"/>
      <use xlink:href="#DejaVuSans-30" x="398.828125"/>
      <use xlink:href="#DejaVuSans-30" x="462.451172"/>
      <use xlink:href="#DejaVuSans-36" x="526.074219"/>
      <use xlink:href="#DejaVuSans-32" x="589.697266"/>
      <use xlink:href="#DejaVuSans-30" x="653.320312"/>
      <use xlink:href="#DejaVuSans-36" x="716.943359"/>
     </g>
    </g>
    <g clip-path="url(#pc78e32d2a3)">
     <!-- Drug -->
     <g transform="translate(60.277082 196.748625)scale(0.12 -0.12)">
      <use xlink:href="#DejaVuSans-44"/>
      <use xlink:href="#DejaVuSans-72" x="77.001953"/>
      <use xlink:href="#DejaVuSans-75" x="118.115234"/>
      <use xlink:href="#DejaVuSans-67" x="181.494141"/>
     </g>
    </g>
   </g>
   <g id="text_5">
    <g clip-path="url(#pc78e32d2a3)">
     <!-- Dermatosis -->
     <g transform="translate(754.888543 169.873875)scale(0.12 -0.12)">
      <defs>
       <path id="DejaVuSans-6d" d="M 3328 2828 
Q 3544 3216 3844 3400 
Q 4144 3584 4550 3584 
Q 5097 3584 5394 3201 
Q 5691 2819 5691 2113 
L 5691 0 
L 5113 0 
L 5113 2094 
Q 5113 2597 4934 2840 
Q 4756 3084 4391 3084 
Q 3944 3084 3684 2787 
Q 3425 2491 3425 1978 
L 3425 0 
L 2847 0 
L 2847 2094 
Q 2847 2600 2669 2842 
Q 2491 3084 2119 3084 
Q 1678 3084 1418 2786 
Q 1159 2488 1159 1978 
L 1159 0 
L 581 0 
L 581 3500 
L 1159 3500 
L 1159 2956 
Q 1356 3278 1631 3431 
Q 1906 3584 2284 3584 
Q 2666 3584 2933 3390 
Q 3200 3197 3328 2828 
z
" transform="scale(0.015625)"/>
      </defs>
      <use xlink:href="#DejaVuSans-44"/>
      <use xlink:href="#DejaVuSans-65" x="77.001953"/>
      <use xlink:href="#DejaVuSans-72" x="138.525391"/>
      <use xlink:href="#DejaVuSans-6d" x="177.888672"/>
      <use xlink:href="#DejaVuSans-61" x="275.300781"/>
      <use xlink:href="#DejaVuSans-74" x="336.580078"/>
      <use xlink:href="#DejaVuSans-6f" x="375.789062"/>
      <use xlink:href="#DejaVuSans-73" x="436.970703"/>
      <use xlink:href="#DejaVuSans-69" x="489.070312"/>
      <use xlink:href="#DejaVuSans-73" x="516.853516"/>
     </g>
    </g>
    <g clip-path="url(#pc78e32d2a3)">
     <!-- MESH:D012871 -->
     <g transform="translate(742.189168 183.31125)scale(0.12 -0.12)">
      <defs>
       <path id="DejaVuSans-31" d="M 794 531 
L 1825 531 
L 1825 4091 
L 703 3866 
L 703 4441 
L 1819 4666 
L 2450 4666 
L 2450 531 
L 3481 531 
L 3481 0 
L 794 0 
L 794 531 
z
" transform="scale(0.015625)"/>
       <path id="DejaVuSans-38" d="M 2034 2216 
Q 1584 2216 1326 1975 
Q 1069 1734 1069 1313 
Q 1069 891 1326 650 
Q 1584 409 2034 409 
Q 2484 409 2743 651 
Q 3003 894 3003 1313 
Q 3003 1734 2745 1975 
Q 2488 2216 2034 2216 
z
M 1403 2484 
Q 997 2584 770 2862 
Q 544 3141 544 3541 
Q 544 4100 942 4425 
Q 1341 4750 2034 4750 
Q 2731 4750 3128 4425 
Q 3525 4100 3525 3541 
Q 3525 3141 3298 2862 
Q 3072 2584 2669 2484 
Q 3125 2378 3379 2068 
Q 3634 1759 3634 1313 
Q 3634 634 3220 271 
Q 2806 -91 2034 -91 
Q 1263 -91 848 271 
Q 434 634 434 1313 
Q 434 1759 690 2068 
Q 947 2378 1403 2484 
z
M 1172 3481 
Q 1172 3119 1398 2916 
Q 1625 2713 2034 2713 
Q 2441 2713 2670 2916 
Q 2900 3119 2900 3481 
Q 2900 3844 2670 4047 
Q 2441 4250 2034 4250 
Q 1625 4250 1398 4047 
Q 1172 3844 1172 3481 
z
" transform="scale(0.015625)"/>
       <path id="DejaVuSans-37" d="M 525 4666 
L 3525 4666 
L 3525 4397 
L 1831 0 
L 1172 0 
L 2766 4134 
L 525 4134 
L 525 4666 
z
" transform="scale(0.015625)"/>
      </defs>
      <use xlink:href="#DejaVuSans-4d"/>
      <use xlink:href="#DejaVuSans-45" x="86.279297"/>
      <use xlink:href="#DejaVuSans-53" x="149.462891"/>
      <use xlink:href="#DejaVuSans-48" x="212.939453"/>
      <use xlink:href="#DejaVuSans-3a" x="288.134766"/>
      <use xlink:href="#DejaVuSans-44" x="321.826172"/>
      <use xlink:href="#DejaVuSans-30" x="398.828125"/>
      <use xlink:href="#DejaVuSans-31" x="462.451172"/>
      <use xlink:href="#DejaVuSans-32" x="526.074219"/>
      <use xlink:href="#DejaVuSans-38" x="589.697266"/>
      <use xlink:href="#DejaVuSans-37" x="653.320312"/>
      <use xlink:href="#DejaVuSans-31" x="716.943359"/>
     </g>
    </g>
    <g clip-path="url(#pc78e32d2a3)">
     <!-- Disease -->
     <g transform="translate(765.426043 196.748625)scale(0.12 -0.12)">
      <use xlink:href="#DejaVuSans-44"/>
      <use xlink:href="#DejaVuSans-69" x="77.001953"/>
      <use xlink:href="#DejaVuSans-73" x="104.785156"/>
      <use xlink:href="#DejaVuSans-65" x="156.884766"/>
      <use xlink:href="#DejaVuSans-61" x="218.408203"/>
      <use xlink:href="#DejaVuSans-73" x="279.6875"/>
      <use xlink:href="#DejaVuSans-65" x="331.787109"/>
     </g>
    </g>
   </g>
  </g>
 </g>
 <defs>
  <clipPath id="pc78e32d2a3">
   <rect x="0" y="0" width="864" height="360"/>
  </clipPath>
 </defs>
</svg>
