<?xml version="1.0" encoding="utf-8" standalone="no"?>
<!DOCTYPE svg PUBLIC "-//W3C//DTD SVG 1.1//EN"
  "http://www.w3.org/Graphics/SVG/1.1/DTD/svg11.dtd">
<svg xmlns:xlink="http://www.w3.org/1999/xlink" width="1382.4pt" height="360pt" viewBox="0 0 1382.4 360" xmlns="http://www.w3.org/2000/svg" version="1.1">
 <metadata>
  <rdf:RDF xmlns:dc="http://purl.org/dc/elements/1.1/" xmlns:cc="http://creativecommons.org/ns#" xmlns:rdf="http://www.w3.org/1999/02/22-rdf-syntax-ns#">
   <cc:Work>
    <dc:type rdf:resource="http://purl.org/dc/dcmitype/StillImage"/>
    <dc:date>2023-02-08T08:51:05.891593</dc:date>
    <dc:format>image/svg+xml</dc:format>
    <dc:creator>
     <cc:Agent>
      <dc:title>Matplotlib v3.5.1, https://matplotlib.org/</dc:title>
     </cc:Agent>
    </dc:creator>
   </cc:Work>
  </rdf:RDF>
 </metadata>
 <defs>
  <style type="text/css">*{stroke-linejoin: round; stroke-linecap: butt}</style>
 </defs>
 <g id="figure_1">
  <g id="patch_1">
   <path d="M 0 360 
L 1382.4 360 
L 1382.4 0 
L 0 0 
z
" style="fill: #ffffff"/>
  </g>
  <g id="axes_1">
   <g id="patch_2">
    <path d="M 172.401834 180 
Q 234.208639 180 292.661342 180 
" clip-path="url(#pcddfa65a10)" style="fill: none; stroke: #2ca02c; stroke-width: 3; stroke-linecap: round"/>
    <path d="M 288.661342 178 
L 292.661342 180 
L 288.661342 182 
L 288.661342 178 
z
" clip-path="url(#pcddfa65a10)" style="fill: #2ca02c; stroke: #2ca02c; stroke-width: 3; stroke-linecap: round"/>
   </g>
   <g id="patch_3">
    <path d="M 400.897701 180 
Q 462.704507 180 521.15721 180 
" clip-path="url(#pcddfa65a10)" style="fill: none; stroke: #2ca02c; stroke-width: 3; stroke-linecap: round"/>
    <path d="M 517.15721 178 
L 521.15721 180 
L 517.15721 182 
L 517.15721 178 
z
" clip-path="url(#pcddfa65a10)" style="fill: #2ca02c; stroke: #2ca02c; stroke-width: 3; stroke-linecap: round"/>
   </g>
   <g id="patch_4">
    <path d="M 629.393569 180 
Q 691.200375 180 749.653078 180 
" clip-path="url(#pcddfa65a10)" style="fill: none; stroke: #2ca02c; stroke-width: 3; stroke-linecap: round"/>
    <path d="M 745.653078 178 
L 749.653078 180 
L 745.653078 182 
L 745.653078 178 
z
" clip-path="url(#pcddfa65a10)" style="fill: #2ca02c; stroke: #2ca02c; stroke-width: 3; stroke-linecap: round"/>
   </g>
   <g id="patch_5">
    <path d="M 857.889437 180 
Q 919.696242 180 978.148946 180 
" clip-path="url(#pcddfa65a10)" style="fill: none; stroke: #2ca02c; stroke-width: 3; stroke-linecap: round"/>
    <path d="M 974.148946 178 
L 978.148946 180 
L 974.148946 182 
L 974.148946 178 
z
" clip-path="url(#pcddfa65a10)" style="fill: #2ca02c; stroke: #2ca02c; stroke-width: 3; stroke-linecap: round"/>
   </g>
   <g id="patch_6">
    <path d="M 1086.385305 180 
Q 1148.19211 180 1206.644813 180 
" clip-path="url(#pcddfa65a10)" style="fill: none; stroke: #2ca02c; stroke-width: 3; stroke-linecap: round"/>
    <path d="M 1202.644813 178 
L 1206.644813 180 
L 1202.644813 182 
L 1202.644813 178 
z
" clip-path="url(#pcddfa65a10)" style="fill: #2ca02c; stroke: #2ca02c; stroke-width: 3; stroke-linecap: round"/>
   </g>
   <g id="text_1">
    <g id="patch_7">
     <path d="M 207.991077 193.437969 
L 260.425452 193.437969 
Q 263.425452 193.437969 263.425452 190.437969 
L 263.425452 169.562031 
Q 263.425452 166.562031 260.425452 166.562031 
L 207.991077 166.562031 
Q 204.991077 166.562031 204.991077 169.562031 
L 204.991077 190.437969 
Q 204.991077 193.437969 207.991077 193.437969 
z
" clip-path="url(#pcddfa65a10)" style="fill: #ffffff; stroke: #ffffff; stroke-linejoin: miter"/>
    </g>
    <g clip-path="url(#pcddfa65a10)">
     <!-- negatively -->
     <g transform="translate(207.991077 177.160469)scale(0.1 -0.1)">
      <defs>
       <path id="DejaVuSans-6e" d="M 3513 2113 
L 3513 0 
L 2938 0 
L 2938 2094 
Q 2938 2591 2744 2837 
Q 2550 3084 2163 3084 
Q 1697 3084 1428 2787 
Q 1159 2491 1159 1978 
L 1159 0 
L 581 0 
L 581 3500 
L 1159 3500 
L 1159 2956 
Q 1366 3272 1645 3428 
Q 1925 3584 2291 3584 
Q 2894 3584 3203 3211 
Q 3513 2838 3513 2113 
z
" transform="scale(0.015625)"/>
       <path id="DejaVuSans-65" d="M 3597 1894 
L 3597 1613 
L 953 1613 
Q 991 1019 1311 708 
Q 1631 397 2203 397 
Q 2534 397 2845 478 
Q 3156 559 3463 722 
L 3463 178 
Q 3153 47 2828 -22 
Q 2503 -91 2169 -91 
Q 1331 -91 842 396 
Q 353 884 353 1716 
Q 353 2575 817 3079 
Q 1281 3584 2069 3584 
Q 2775 3584 3186 3129 
Q 3597 2675 3597 1894 
z
M 3022 2063 
Q 3016 2534 2758 2815 
Q 2500 3097 2075 3097 
Q 1594 3097 1305 2825 
Q 1016 2553 972 2059 
L 3022 2063 
z
" transform="scale(0.015625)"/>
       <path id="DejaVuSans-67" d="M 2906 1791 
Q 2906 2416 2648 2759 
Q 2391 3103 1925 3103 
Q 1463 3103 1205 2759 
Q 947 2416 947 1791 
Q 947 1169 1205 825 
Q 1463 481 1925 481 
Q 2391 481 2648 825 
Q 2906 1169 2906 1791 
z
M 3481 434 
Q 3481 -459 3084 -895 
Q 2688 -1331 1869 -1331 
Q 1566 -1331 1297 -1286 
Q 1028 -1241 775 -1147 
L 775 -588 
Q 1028 -725 1275 -790 
Q 1522 -856 1778 -856 
Q 2344 -856 2625 -561 
Q 2906 -266 2906 331 
L 2906 616 
Q 2728 306 2450 153 
Q 2172 0 1784 0 
Q 1141 0 747 490 
Q 353 981 353 1791 
Q 353 2603 747 3093 
Q 1141 3584 1784 3584 
Q 2172 3584 2450 3431 
Q 2728 3278 2906 2969 
L 2906 3500 
L 3481 3500 
L 3481 434 
z
" transform="scale(0.015625)"/>
       <path id="DejaVuSans-61" d="M 2194 1759 
Q 1497 1759 1228 1600 
Q 959 1441 959 1056 
Q 959 750 1161 570 
Q 1363 391 1709 391 
Q 2188 391 2477 730 
Q 2766 1069 2766 1631 
L 2766 1759 
L 2194 1759 
z
M 3341 1997 
L 3341 0 
L 2766 0 
L 2766 531 
Q 2569 213 2275 61 
Q 1981 -91 1556 -91 
Q 1019 -91 701 211 
Q 384 513 384 1019 
Q 384 1609 779 1909 
Q 1175 2209 1959 2209 
L 2766 2209 
L 2766 2266 
Q 2766 2663 2505 2880 
Q 2244 3097 1772 3097 
Q 1472 3097 1187 3025 
Q 903 2953 641 2809 
L 641 3341 
Q 956 3463 1253 3523 
Q 1550 3584 1831 3584 
Q 2591 3584 2966 3190 
Q 3341 2797 3341 1997 
z
" transform="scale(0.015625)"/>
       <path id="DejaVuSans-74" d="M 1172 4494 
L 1172 3500 
L 2356 3500 
L 2356 3053 
L 1172 3053 
L 1172 1153 
Q 1172 725 1289 603 
Q 1406 481 1766 481 
L 2356 481 
L 2356 0 
L 1766 0 
Q 1100 0 847 248 
Q 594 497 594 1153 
L 594 3053 
L 172 3053 
L 172 3500 
L 594 3500 
L 594 4494 
L 1172 4494 
z
" transform="scale(0.015625)"/>
       <path id="DejaVuSans-69" d="M 603 3500 
L 1178 3500 
L 1178 0 
L 603 0 
L 603 3500 
z
M 603 4863 
L 1178 4863 
L 1178 4134 
L 603 4134 
L 603 4863 
z
" transform="scale(0.015625)"/>
       <path id="DejaVuSans-76" d="M 191 3500 
L 800 3500 
L 1894 563 
L 2988 3500 
L 3597 3500 
L 2284 0 
L 1503 0 
L 191 3500 
z
" transform="scale(0.015625)"/>
       <path id="DejaVuSans-6c" d="M 603 4863 
L 1178 4863 
L 1178 0 
L 603 0 
L 603 4863 
z
" transform="scale(0.015625)"/>
       <path id="DejaVuSans-79" d="M 2059 -325 
Q 1816 -950 1584 -1140 
Q 1353 -1331 966 -1331 
L 506 -1331 
L 506 -850 
L 844 -850 
Q 1081 -850 1212 -737 
Q 1344 -625 1503 -206 
L 1606 56 
L 191 3500 
L 800 3500 
L 1894 763 
L 2988 3500 
L 3597 3500 
L 2059 -325 
z
" transform="scale(0.015625)"/>
      </defs>
      <use xlink:href="#DejaVuSans-6e"/>
      <use xlink:href="#DejaVuSans-65" x="63.378906"/>
      <use xlink:href="#DejaVuSans-67" x="124.902344"/>
      <use xlink:href="#DejaVuSans-61" x="188.378906"/>
      <use xlink:href="#DejaVuSans-74" x="249.658203"/>
      <use xlink:href="#DejaVuSans-69" x="288.867188"/>
      <use xlink:href="#DejaVuSans-76" x="316.650391"/>
      <use xlink:href="#DejaVuSans-65" x="375.830078"/>
      <use xlink:href="#DejaVuSans-6c" x="437.353516"/>
      <use xlink:href="#DejaVuSans-79" x="465.136719"/>
     </g>
    </g>
    <g clip-path="url(#pcddfa65a10)">
     <!-- regulates -->
     <g transform="translate(210.751233 188.358281)scale(0.1 -0.1)">
      <defs>
       <path id="DejaVuSans-72" d="M 2631 2963 
Q 2534 3019 2420 3045 
Q 2306 3072 2169 3072 
Q 1681 3072 1420 2755 
Q 1159 2438 1159 1844 
L 1159 0 
L 581 0 
L 581 3500 
L 1159 3500 
L 1159 2956 
Q 1341 3275 1631 3429 
Q 1922 3584 2338 3584 
Q 2397 3584 2469 3576 
Q 2541 3569 2628 3553 
L 2631 2963 
z
" transform="scale(0.015625)"/>
       <path id="DejaVuSans-75" d="M 544 1381 
L 544 3500 
L 1119 3500 
L 1119 1403 
Q 1119 906 1312 657 
Q 1506 409 1894 409 
Q 2359 409 2629 706 
Q 2900 1003 2900 1516 
L 2900 3500 
L 3475 3500 
L 3475 0 
L 2900 0 
L 2900 538 
Q 2691 219 2414 64 
Q 2138 -91 1772 -91 
Q 1169 -91 856 284 
Q 544 659 544 1381 
z
M 1991 3584 
L 1991 3584 
z
" transform="scale(0.015625)"/>
       <path id="DejaVuSans-73" d="M 2834 3397 
L 2834 2853 
Q 2591 2978 2328 3040 
Q 2066 3103 1784 3103 
Q 1356 3103 1142 2972 
Q 928 2841 928 2578 
Q 928 2378 1081 2264 
Q 1234 2150 1697 2047 
L 1894 2003 
Q 2506 1872 2764 1633 
Q 3022 1394 3022 966 
Q 3022 478 2636 193 
Q 2250 -91 1575 -91 
Q 1294 -91 989 -36 
Q 684 19 347 128 
L 347 722 
Q 666 556 975 473 
Q 1284 391 1588 391 
Q 1994 391 2212 530 
Q 2431 669 2431 922 
Q 2431 1156 2273 1281 
Q 2116 1406 1581 1522 
L 1381 1569 
Q 847 1681 609 1914 
Q 372 2147 372 2553 
Q 372 3047 722 3315 
Q 1072 3584 1716 3584 
Q 2034 3584 2315 3537 
Q 2597 3491 2834 3397 
z
" transform="scale(0.015625)"/>
      </defs>
      <use xlink:href="#DejaVuSans-72"/>
      <use xlink:href="#DejaVuSans-65" x="38.863281"/>
      <use xlink:href="#DejaVuSans-67" x="100.386719"/>
      <use xlink:href="#DejaVuSans-75" x="163.863281"/>
      <use xlink:href="#DejaVuSans-6c" x="227.242188"/>
      <use xlink:href="#DejaVuSans-61" x="255.025391"/>
      <use xlink:href="#DejaVuSans-74" x="316.304688"/>
      <use xlink:href="#DejaVuSans-65" x="355.513672"/>
      <use xlink:href="#DejaVuSans-73" x="417.037109"/>
     </g>
    </g>
   </g>
   <g id="text_2">
    <g id="patch_8">
     <path d="M 425.047882 193.437969 
L 500.360382 193.437969 
Q 503.360382 193.437969 503.360382 190.437969 
L 503.360382 169.562031 
Q 503.360382 166.562031 500.360382 166.562031 
L 425.047882 166.562031 
Q 422.047882 166.562031 422.047882 169.562031 
L 422.047882 190.437969 
Q 422.047882 193.437969 425.047882 193.437969 
z
" clip-path="url(#pcddfa65a10)" style="fill: #ffffff; stroke: #ffffff; stroke-linejoin: miter"/>
    </g>
    <g clip-path="url(#pcddfa65a10)">
     <!-- positively -->
     <g transform="translate(438.743195 177.160469)scale(0.1 -0.1)">
      <defs>
       <path id="DejaVuSans-70" d="M 1159 525 
L 1159 -1331 
L 581 -1331 
L 581 3500 
L 1159 3500 
L 1159 2969 
Q 1341 3281 1617 3432 
Q 1894 3584 2278 3584 
Q 2916 3584 3314 3078 
Q 3713 2572 3713 1747 
Q 3713 922 3314 415 
Q 2916 -91 2278 -91 
Q 1894 -91 1617 61 
Q 1341 213 1159 525 
z
M 3116 1747 
Q 3116 2381 2855 2742 
Q 2594 3103 2138 3103 
Q 1681 3103 1420 2742 
Q 1159 2381 1159 1747 
Q 1159 1113 1420 752 
Q 1681 391 2138 391 
Q 2594 391 2855 752 
Q 3116 1113 3116 1747 
z
" transform="scale(0.015625)"/>
       <path id="DejaVuSans-6f" d="M 1959 3097 
Q 1497 3097 1228 2736 
Q 959 2375 959 1747 
Q 959 1119 1226 758 
Q 1494 397 1959 397 
Q 2419 397 2687 759 
Q 2956 1122 2956 1747 
Q 2956 2369 2687 2733 
Q 2419 3097 1959 3097 
z
M 1959 3584 
Q 2709 3584 3137 3096 
Q 3566 2609 3566 1747 
Q 3566 888 3137 398 
Q 2709 -91 1959 -91 
Q 1206 -91 779 398 
Q 353 888 353 1747 
Q 353 2609 779 3096 
Q 1206 3584 1959 3584 
z
" transform="scale(0.015625)"/>
      </defs>
      <use xlink:href="#DejaVuSans-70"/>
      <use xlink:href="#DejaVuSans-6f" x="63.476562"/>
      <use xlink:href="#DejaVuSans-73" x="124.658203"/>
      <use xlink:href="#DejaVuSans-69" x="176.757812"/>
      <use xlink:href="#DejaVuSans-74" x="204.541016"/>
      <use xlink:href="#DejaVuSans-69" x="243.75"/>
      <use xlink:href="#DejaVuSans-76" x="271.533203"/>
      <use xlink:href="#DejaVuSans-65" x="330.712891"/>
      <use xlink:href="#DejaVuSans-6c" x="392.236328"/>
      <use xlink:href="#DejaVuSans-79" x="420.019531"/>
     </g>
    </g>
    <g clip-path="url(#pcddfa65a10)">
     <!-- correlated with -->
     <g transform="translate(425.047882 188.358281)scale(0.1 -0.1)">
      <defs>
       <path id="DejaVuSans-63" d="M 3122 3366 
L 3122 2828 
Q 2878 2963 2633 3030 
Q 2388 3097 2138 3097 
Q 1578 3097 1268 2742 
Q 959 2388 959 1747 
Q 959 1106 1268 751 
Q 1578 397 2138 397 
Q 2388 397 2633 464 
Q 2878 531 3122 666 
L 3122 134 
Q 2881 22 2623 -34 
Q 2366 -91 2075 -91 
Q 1284 -91 818 406 
Q 353 903 353 1747 
Q 353 2603 823 3093 
Q 1294 3584 2113 3584 
Q 2378 3584 2631 3529 
Q 2884 3475 3122 3366 
z
" transform="scale(0.015625)"/>
       <path id="DejaVuSans-64" d="M 2906 2969 
L 2906 4863 
L 3481 4863 
L 3481 0 
L 2906 0 
L 2906 525 
Q 2725 213 2448 61 
Q 2172 -91 1784 -91 
Q 1150 -91 751 415 
Q 353 922 353 1747 
Q 353 2572 751 3078 
Q 1150 3584 1784 3584 
Q 2172 3584 2448 3432 
Q 2725 3281 2906 2969 
z
M 947 1747 
Q 947 1113 1208 752 
Q 1469 391 1925 391 
Q 2381 391 2643 752 
Q 2906 1113 2906 1747 
Q 2906 2381 2643 2742 
Q 2381 3103 1925 3103 
Q 1469 3103 1208 2742 
Q 947 2381 947 1747 
z
" transform="scale(0.015625)"/>
       <path id="DejaVuSans-20" transform="scale(0.015625)"/>
       <path id="DejaVuSans-77" d="M 269 3500 
L 844 3500 
L 1563 769 
L 2278 3500 
L 2956 3500 
L 3675 769 
L 4391 3500 
L 4966 3500 
L 4050 0 
L 3372 0 
L 2619 2869 
L 1863 0 
L 1184 0 
L 269 3500 
z
" transform="scale(0.015625)"/>
       <path id="DejaVuSans-68" d="M 3513 2113 
L 3513 0 
L 2938 0 
L 2938 2094 
Q 2938 2591 2744 2837 
Q 2550 3084 2163 3084 
Q 1697 3084 1428 2787 
Q 1159 2491 1159 1978 
L 1159 0 
L 581 0 
L 581 4863 
L 1159 4863 
L 1159 2956 
Q 1366 3272 1645 3428 
Q 1925 3584 2291 3584 
Q 2894 3584 3203 3211 
Q 3513 2838 3513 2113 
z
" transform="scale(0.015625)"/>
      </defs>
      <use xlink:href="#DejaVuSans-63"/>
      <use xlink:href="#DejaVuSans-6f" x="54.980469"/>
      <use xlink:href="#DejaVuSans-72" x="116.162109"/>
      <use xlink:href="#DejaVuSans-72" x="155.525391"/>
      <use xlink:href="#DejaVuSans-65" x="194.388672"/>
      <use xlink:href="#DejaVuSans-6c" x="255.912109"/>
      <use xlink:href="#DejaVuSans-61" x="283.695312"/>
      <use xlink:href="#DejaVuSans-74" x="344.974609"/>
      <use xlink:href="#DejaVuSans-65" x="384.183594"/>
      <use xlink:href="#DejaVuSans-64" x="445.707031"/>
      <use xlink:href="#DejaVuSans-20" x="509.183594"/>
      <use xlink:href="#DejaVuSans-77" x="540.970703"/>
      <use xlink:href="#DejaVuSans-69" x="622.757812"/>
      <use xlink:href="#DejaVuSans-74" x="650.541016"/>
      <use xlink:href="#DejaVuSans-68" x="689.75"/>
     </g>
    </g>
   </g>
   <g id="text_3">
    <g id="patch_9">
     <path d="M 656.982812 193.437969 
L 725.417187 193.437969 
Q 728.417187 193.437969 728.417187 190.437969 
L 728.417187 169.562031 
Q 728.417187 166.562031 725.417187 166.562031 
L 656.982812 166.562031 
Q 653.982812 166.562031 653.982812 169.562031 
L 653.982812 190.437969 
Q 653.982812 193.437969 656.982812 193.437969 
z
" clip-path="url(#pcddfa65a10)" style="fill: #ffffff; stroke: #ffffff; stroke-linejoin: miter"/>
    </g>
    <g clip-path="url(#pcddfa65a10)">
     <!-- increases -->
     <g transform="translate(667.523437 177.160469)scale(0.1 -0.1)">
      <use xlink:href="#DejaVuSans-69"/>
      <use xlink:href="#DejaVuSans-6e" x="27.783203"/>
      <use xlink:href="#DejaVuSans-63" x="91.162109"/>
      <use xlink:href="#DejaVuSans-72" x="146.142578"/>
      <use xlink:href="#DejaVuSans-65" x="185.005859"/>
      <use xlink:href="#DejaVuSans-61" x="246.529297"/>
      <use xlink:href="#DejaVuSans-73" x="307.808594"/>
      <use xlink:href="#DejaVuSans-65" x="359.908203"/>
      <use xlink:href="#DejaVuSans-73" x="421.431641"/>
     </g>
    </g>
    <g clip-path="url(#pcddfa65a10)">
     <!-- abundance of -->
     <g transform="translate(656.982812 188.358281)scale(0.1 -0.1)">
      <defs>
       <path id="DejaVuSans-62" d="M 3116 1747 
Q 3116 2381 2855 2742 
Q 2594 3103 2138 3103 
Q 1681 3103 1420 2742 
Q 1159 2381 1159 1747 
Q 1159 1113 1420 752 
Q 1681 391 2138 391 
Q 2594 391 2855 752 
Q 3116 1113 3116 1747 
z
M 1159 2969 
Q 1341 3281 1617 3432 
Q 1894 3584 2278 3584 
Q 2916 3584 3314 3078 
Q 3713 2572 3713 1747 
Q 3713 922 3314 415 
Q 2916 -91 2278 -91 
Q 1894 -91 1617 61 
Q 1341 213 1159 525 
L 1159 0 
L 581 0 
L 581 4863 
L 1159 4863 
L 1159 2969 
z
" transform="scale(0.015625)"/>
       <path id="DejaVuSans-66" d="M 2375 4863 
L 2375 4384 
L 1825 4384 
Q 1516 4384 1395 4259 
Q 1275 4134 1275 3809 
L 1275 3500 
L 2222 3500 
L 2222 3053 
L 1275 3053 
L 1275 0 
L 697 0 
L 697 3053 
L 147 3053 
L 147 3500 
L 697 3500 
L 697 3744 
Q 697 4328 969 4595 
Q 1241 4863 1831 4863 
L 2375 4863 
z
" transform="scale(0.015625)"/>
      </defs>
      <use xlink:href="#DejaVuSans-61"/>
      <use xlink:href="#DejaVuSans-62" x="61.279297"/>
      <use xlink:href="#DejaVuSans-75" x="124.755859"/>
      <use xlink:href="#DejaVuSans-6e" x="188.134766"/>
      <use xlink:href="#DejaVuSans-64" x="251.513672"/>
      <use xlink:href="#DejaVuSans-61" x="314.990234"/>
      <use xlink:href="#DejaVuSans-6e" x="376.269531"/>
      <use xlink:href="#DejaVuSans-63" x="439.648438"/>
      <use xlink:href="#DejaVuSans-65" x="494.628906"/>
      <use xlink:href="#DejaVuSans-20" x="556.152344"/>
      <use xlink:href="#DejaVuSans-6f" x="587.939453"/>
      <use xlink:href="#DejaVuSans-66" x="649.121094"/>
     </g>
    </g>
   </g>
   <g id="text_4">
    <g id="patch_10">
     <path d="M 883.888055 187.839062 
L 955.50368 187.839062 
Q 958.50368 187.839062 958.50368 184.839062 
L 958.50368 175.160937 
Q 958.50368 172.160937 955.50368 172.160937 
L 883.888055 172.160937 
Q 880.888055 172.160937 880.888055 175.160937 
L 880.888055 184.839062 
Q 880.888055 187.839062 883.888055 187.839062 
z
" clip-path="url(#pcddfa65a10)" style="fill: #ffffff; stroke: #ffffff; stroke-linejoin: miter"/>
    </g>
    <g clip-path="url(#pcddfa65a10)">
     <!-- participates in -->
     <g transform="translate(883.888055 182.759375)scale(0.1 -0.1)">
      <use xlink:href="#DejaVuSans-70"/>
      <use xlink:href="#DejaVuSans-61" x="63.476562"/>
      <use xlink:href="#DejaVuSans-72" x="124.755859"/>
      <use xlink:href="#DejaVuSans-74" x="165.869141"/>
      <use xlink:href="#DejaVuSans-69" x="205.078125"/>
      <use xlink:href="#DejaVuSans-63" x="232.861328"/>
      <use xlink:href="#DejaVuSans-69" x="287.841797"/>
      <use xlink:href="#DejaVuSans-70" x="315.625"/>
      <use xlink:href="#DejaVuSans-61" x="379.101562"/>
      <use xlink:href="#DejaVuSans-74" x="440.380859"/>
      <use xlink:href="#DejaVuSans-65" x="479.589844"/>
      <use xlink:href="#DejaVuSans-73" x="541.113281"/>
      <use xlink:href="#DejaVuSans-20" x="593.212891"/>
      <use xlink:href="#DejaVuSans-69" x="625"/>
      <use xlink:href="#DejaVuSans-6e" x="652.783203"/>
     </g>
    </g>
   </g>
   <g id="text_5">
    <g id="patch_11">
     <path d="M 1113.216736 187.839062 
L 1183.166736 187.839062 
Q 1186.166736 187.839062 1186.166736 184.839062 
L 1186.166736 175.160937 
Q 1186.166736 172.160937 1183.166736 172.160937 
L 1113.216736 172.160937 
Q 1110.216736 172.160937 1110.216736 175.160937 
L 1110.216736 184.839062 
Q 1110.216736 187.839062 1113.216736 187.839062 
z
" clip-path="url(#pcddfa65a10)" style="fill: #ffffff; stroke: #ffffff; stroke-linejoin: miter"/>
    </g>
    <g clip-path="url(#pcddfa65a10)">
     <!-- contributes to -->
     <g transform="translate(1113.216736 182.759375)scale(0.1 -0.1)">
      <use xlink:href="#DejaVuSans-63"/>
      <use xlink:href="#DejaVuSans-6f" x="54.980469"/>
      <use xlink:href="#DejaVuSans-6e" x="116.162109"/>
      <use xlink:href="#DejaVuSans-74" x="179.541016"/>
      <use xlink:href="#DejaVuSans-72" x="218.75"/>
      <use xlink:href="#DejaVuSans-69" x="259.863281"/>
      <use xlink:href="#DejaVuSans-62" x="287.646484"/>
      <use xlink:href="#DejaVuSans-75" x="351.123047"/>
      <use xlink:href="#DejaVuSans-74" x="414.501953"/>
      <use xlink:href="#DejaVuSans-65" x="453.710938"/>
      <use xlink:href="#DejaVuSans-73" x="515.234375"/>
      <use xlink:href="#DejaVuSans-20" x="567.333984"/>
      <use xlink:href="#DejaVuSans-74" x="599.121094"/>
      <use xlink:href="#DejaVuSans-6f" x="638.330078"/>
     </g>
    </g>
   </g>
   <g id="PathCollection_1">
    <defs>
     <path id="C0_0_d7e2ad5aef" d="M 0 52.440442 
C 13.907368 52.440442 27.246998 46.914987 37.080992 37.080992 
C 46.914987 27.246998 52.440442 13.907368 52.440442 -0 
C 52.440442 -13.907368 46.914987 -27.246998 37.080992 -37.080992 
C 27.246998 -46.914987 13.907368 -52.440442 0 -52.440442 
C -13.907368 -52.440442 -27.246998 -46.914987 -37.080992 -37.080992 
C -46.914987 -27.246998 -52.440442 -13.907368 -52.440442 0 
C -52.440442 13.907368 -46.914987 27.246998 -37.080992 37.080992 
C -27.246998 46.914987 -13.907368 52.440442 0 52.440442 
z
"/>
    </defs>
    <g clip-path="url(#pcddfa65a10)">
     <use xlink:href="#C0_0_d7e2ad5aef" x="119.960331" y="180" style="fill: #01c472; stroke: #01c472"/>
    </g>
    <g clip-path="url(#pcddfa65a10)">
     <use xlink:href="#C0_0_d7e2ad5aef" x="348.456198" y="180" style="fill: #e71761; stroke: #e71761"/>
    </g>
    <g clip-path="url(#pcddfa65a10)">
     <use xlink:href="#C0_0_d7e2ad5aef" x="576.952066" y="180" style="fill: #01c472; stroke: #01c472"/>
    </g>
    <g clip-path="url(#pcddfa65a10)">
     <use xlink:href="#C0_0_d7e2ad5aef" x="805.447934" y="180" style="fill: #01c472; stroke: #01c472"/>
    </g>
    <g clip-path="url(#pcddfa65a10)">
     <use xlink:href="#C0_0_d7e2ad5aef" x="1033.943802" y="180" style="fill: #70c6ca; stroke: #70c6ca"/>
    </g>
    <g clip-path="url(#pcddfa65a10)">
     <use xlink:href="#C0_0_d7e2ad5aef" x="1262.439669" y="180" style="fill: #70c6ca; stroke: #70c6ca"/>
    </g>
   </g>
   <g id="text_6">
    <path d="M 309.057761 154.406437 
L 310.240886 154.406437 
L 310.240886 157.993312 
L 314.542136 157.993312 
L 314.542136 154.406437 
L 315.725261 154.406437 
L 315.725261 163.155187 
L 314.542136 163.155187 
L 314.542136 158.988937 
L 310.240886 158.988937 
L 310.240886 163.155187 
L 309.057761 163.155187 
L 309.057761 154.406437 
z
M 318.034323 156.592687 
L 319.112448 156.592687 
L 319.112448 163.155187 
L 318.034323 163.155187 
L 318.034323 156.592687 
z
M 318.034323 154.037062 
L 319.112448 154.037062 
L 319.112448 155.403937 
L 318.034323 155.403937 
L 318.034323 154.037062 
z
M 325.551433 156.785812 
L 325.551433 157.805812 
Q 325.095808 157.571437 324.602683 157.455187 
Q 324.111433 157.337062 323.582683 157.337062 
Q 322.780183 157.337062 322.378933 157.582687 
Q 321.977683 157.828312 321.977683 158.321437 
Q 321.977683 158.696437 322.264558 158.910187 
Q 322.551433 159.123937 323.419558 159.317062 
L 323.788933 159.399562 
Q 324.936433 159.645187 325.420183 160.093312 
Q 325.903933 160.541437 325.903933 161.343937 
Q 325.903933 162.258937 325.180183 162.793312 
Q 324.456433 163.325812 323.190808 163.325812 
Q 322.663933 163.325812 322.092058 163.222687 
Q 321.520183 163.119562 320.888308 162.915187 
L 320.888308 161.801437 
Q 321.486433 162.112687 322.065808 162.268312 
Q 322.645183 162.422062 323.215183 162.422062 
Q 323.976433 162.422062 324.385183 162.161437 
Q 324.795808 161.900812 324.795808 161.426437 
Q 324.795808 160.987687 324.499558 160.753312 
Q 324.205183 160.518937 323.202058 160.301437 
L 322.827058 160.213312 
Q 321.825808 160.003312 321.379558 159.566437 
Q 320.935183 159.129562 320.935183 158.368312 
Q 320.935183 157.442062 321.591433 156.939562 
Q 322.247683 156.435187 323.455183 156.435187 
Q 324.051433 156.435187 324.578308 156.523312 
Q 325.107058 156.609562 325.551433 156.785812 
z
M 328.687136 154.728937 
L 328.687136 156.592687 
L 330.907136 156.592687 
L 330.907136 157.430812 
L 328.687136 157.430812 
L 328.687136 160.993312 
Q 328.687136 161.795812 328.906511 162.024562 
Q 329.125886 162.253312 329.800886 162.253312 
L 330.907136 162.253312 
L 330.907136 163.155187 
L 329.800886 163.155187 
Q 328.552136 163.155187 328.077761 162.690187 
Q 327.603386 162.223312 327.603386 160.993312 
L 327.603386 157.430812 
L 326.812136 157.430812 
L 326.812136 156.592687 
L 327.603386 156.592687 
L 327.603386 154.728937 
L 328.687136 154.728937 
z
M 335.308464 159.857062 
Q 334.001589 159.857062 333.497214 160.155187 
Q 332.992839 160.453312 332.992839 161.175187 
Q 332.992839 161.748937 333.371589 162.086437 
Q 333.750339 162.422062 334.399089 162.422062 
Q 335.297214 162.422062 335.839089 161.786437 
Q 336.380964 161.150812 336.380964 160.097062 
L 336.380964 159.857062 
L 335.308464 159.857062 
z
M 337.459089 159.410812 
L 337.459089 163.155187 
L 336.380964 163.155187 
L 336.380964 162.159562 
Q 336.011589 162.755812 335.460339 163.040812 
Q 334.909089 163.325812 334.112214 163.325812 
Q 333.105339 163.325812 332.509089 162.759562 
Q 331.914714 162.193312 331.914714 161.244562 
Q 331.914714 160.138312 332.655339 159.575812 
Q 333.397839 159.013312 334.867839 159.013312 
L 336.380964 159.013312 
L 336.380964 158.906437 
Q 336.380964 158.162062 335.891589 157.755187 
Q 335.402214 157.348312 334.517214 157.348312 
Q 333.954714 157.348312 333.420339 157.483312 
Q 332.887839 157.618312 332.396589 157.888312 
L 332.396589 156.890812 
Q 332.987214 156.662062 333.544089 156.549562 
Q 334.100964 156.435187 334.627839 156.435187 
Q 336.052839 156.435187 336.755964 157.173937 
Q 337.459089 157.910812 337.459089 159.410812 
z
M 344.78823 157.852687 
Q 345.19323 157.125187 345.75573 156.780187 
Q 346.31823 156.435187 347.07948 156.435187 
Q 348.105105 156.435187 348.66198 157.153312 
Q 349.218855 157.869562 349.218855 159.193312 
L 349.218855 163.155187 
L 348.135105 163.155187 
L 348.135105 159.228937 
Q 348.135105 158.285812 347.79948 157.830187 
Q 347.46573 157.372687 346.781355 157.372687 
Q 345.94323 157.372687 345.45573 157.929562 
Q 344.970105 158.484562 344.970105 159.446437 
L 344.970105 163.155187 
L 343.886355 163.155187 
L 343.886355 159.228937 
Q 343.886355 158.280187 343.552605 157.826437 
Q 343.218855 157.372687 342.521355 157.372687 
Q 341.69448 157.372687 341.20698 157.931437 
Q 340.721355 158.490187 340.721355 159.446437 
L 340.721355 163.155187 
L 339.637605 163.155187 
L 339.637605 156.592687 
L 340.721355 156.592687 
L 340.721355 157.612687 
Q 341.09073 157.008937 341.606355 156.722062 
Q 342.12198 156.435187 342.83073 156.435187 
Q 343.54698 156.435187 344.047605 156.798937 
Q 344.54823 157.160812 344.78823 157.852687 
z
M 351.368308 156.592687 
L 352.446433 156.592687 
L 352.446433 163.155187 
L 351.368308 163.155187 
L 351.368308 156.592687 
z
M 351.368308 154.037062 
L 352.446433 154.037062 
L 352.446433 155.403937 
L 351.368308 155.403937 
L 351.368308 154.037062 
z
M 360.158542 159.193312 
L 360.158542 163.155187 
L 359.080417 163.155187 
L 359.080417 159.228937 
Q 359.080417 158.297062 358.716667 157.835812 
Q 358.352917 157.372687 357.627292 157.372687 
Q 356.753542 157.372687 356.249167 157.929562 
Q 355.744792 158.484562 355.744792 159.446437 
L 355.744792 163.155187 
L 354.661042 163.155187 
L 354.661042 156.592687 
L 355.744792 156.592687 
L 355.744792 157.612687 
Q 356.132917 157.020187 356.656042 156.727687 
Q 357.181042 156.435187 357.867292 156.435187 
Q 358.997917 156.435187 359.577292 157.134562 
Q 360.158542 157.833937 360.158542 159.193312 
z
M 367.921511 159.603937 
L 367.921511 160.130812 
L 362.964011 160.130812 
Q 363.035261 161.244562 363.635261 161.827687 
Q 364.235261 162.410812 365.307761 162.410812 
Q 365.928386 162.410812 366.511511 162.258937 
Q 367.094636 162.107062 367.670261 161.801437 
L 367.670261 162.821437 
Q 367.089011 163.067062 366.479636 163.196437 
Q 365.870261 163.325812 365.244011 163.325812 
Q 363.672761 163.325812 362.755886 162.412687 
Q 361.839011 161.497687 361.839011 159.937687 
Q 361.839011 158.327062 362.709011 157.382062 
Q 363.579011 156.435187 365.056511 156.435187 
Q 366.380261 156.435187 367.150886 157.288312 
Q 367.921511 158.139562 367.921511 159.603937 
z
M 366.843386 159.287062 
Q 366.832136 158.403937 366.348386 157.877062 
Q 365.864636 157.348312 365.067761 157.348312 
Q 364.165886 157.348312 363.624011 157.858312 
Q 363.082136 158.368312 362.999636 159.294562 
L 366.843386 159.287062 
z
M 373.551901 154.406437 
L 374.735026 154.406437 
L 374.735026 157.993312 
L 379.036276 157.993312 
L 379.036276 154.406437 
L 380.219401 154.406437 
L 380.219401 163.155187 
L 379.036276 163.155187 
L 379.036276 158.988937 
L 374.735026 158.988937 
L 374.735026 163.155187 
L 373.551901 163.155187 
L 373.551901 154.406437 
z
M 382.886589 162.159562 
L 384.819714 162.159562 
L 384.819714 155.484562 
L 382.715964 155.906437 
L 382.715964 154.828312 
L 384.808464 154.406437 
L 385.991589 154.406437 
L 385.991589 162.159562 
L 387.924714 162.159562 
L 387.924714 163.155187 
L 382.886589 163.155187 
L 382.886589 162.159562 
z
" clip-path="url(#pcddfa65a10)" style="fill: #ffffff; stroke: #000000; stroke-width: 2"/>
    <path d="M 309.057761 154.406437 
L 310.240886 154.406437 
L 310.240886 157.993312 
L 314.542136 157.993312 
L 314.542136 154.406437 
L 315.725261 154.406437 
L 315.725261 163.155187 
L 314.542136 163.155187 
L 314.542136 158.988937 
L 310.240886 158.988937 
L 310.240886 163.155187 
L 309.057761 163.155187 
L 309.057761 154.406437 
z
M 318.034323 156.592687 
L 319.112448 156.592687 
L 319.112448 163.155187 
L 318.034323 163.155187 
L 318.034323 156.592687 
z
M 318.034323 154.037062 
L 319.112448 154.037062 
L 319.112448 155.403937 
L 318.034323 155.403937 
L 318.034323 154.037062 
z
M 325.551433 156.785812 
L 325.551433 157.805812 
Q 325.095808 157.571437 324.602683 157.455187 
Q 324.111433 157.337062 323.582683 157.337062 
Q 322.780183 157.337062 322.378933 157.582687 
Q 321.977683 157.828312 321.977683 158.321437 
Q 321.977683 158.696437 322.264558 158.910187 
Q 322.551433 159.123937 323.419558 159.317062 
L 323.788933 159.399562 
Q 324.936433 159.645187 325.420183 160.093312 
Q 325.903933 160.541437 325.903933 161.343937 
Q 325.903933 162.258937 325.180183 162.793312 
Q 324.456433 163.325812 323.190808 163.325812 
Q 322.663933 163.325812 322.092058 163.222687 
Q 321.520183 163.119562 320.888308 162.915187 
L 320.888308 161.801437 
Q 321.486433 162.112687 322.065808 162.268312 
Q 322.645183 162.422062 323.215183 162.422062 
Q 323.976433 162.422062 324.385183 162.161437 
Q 324.795808 161.900812 324.795808 161.426437 
Q 324.795808 160.987687 324.499558 160.753312 
Q 324.205183 160.518937 323.202058 160.301437 
L 322.827058 160.213312 
Q 321.825808 160.003312 321.379558 159.566437 
Q 320.935183 159.129562 320.935183 158.368312 
Q 320.935183 157.442062 321.591433 156.939562 
Q 322.247683 156.435187 323.455183 156.435187 
Q 324.051433 156.435187 324.578308 156.523312 
Q 325.107058 156.609562 325.551433 156.785812 
z
M 328.687136 154.728937 
L 328.687136 156.592687 
L 330.907136 156.592687 
L 330.907136 157.430812 
L 328.687136 157.430812 
L 328.687136 160.993312 
Q 328.687136 161.795812 328.906511 162.024562 
Q 329.125886 162.253312 329.800886 162.253312 
L 330.907136 162.253312 
L 330.907136 163.155187 
L 329.800886 163.155187 
Q 328.552136 163.155187 328.077761 162.690187 
Q 327.603386 162.223312 327.603386 160.993312 
L 327.603386 157.430812 
L 326.812136 157.430812 
L 326.812136 156.592687 
L 327.603386 156.592687 
L 327.603386 154.728937 
L 328.687136 154.728937 
z
M 335.308464 159.857062 
Q 334.001589 159.857062 333.497214 160.155187 
Q 332.992839 160.453312 332.992839 161.175187 
Q 332.992839 161.748937 333.371589 162.086437 
Q 333.750339 162.422062 334.399089 162.422062 
Q 335.297214 162.422062 335.839089 161.786437 
Q 336.380964 161.150812 336.380964 160.097062 
L 336.380964 159.857062 
L 335.308464 159.857062 
z
M 337.459089 159.410812 
L 337.459089 163.155187 
L 336.380964 163.155187 
L 336.380964 162.159562 
Q 336.011589 162.755812 335.460339 163.040812 
Q 334.909089 163.325812 334.112214 163.325812 
Q 333.105339 163.325812 332.509089 162.759562 
Q 331.914714 162.193312 331.914714 161.244562 
Q 331.914714 160.138312 332.655339 159.575812 
Q 333.397839 159.013312 334.867839 159.013312 
L 336.380964 159.013312 
L 336.380964 158.906437 
Q 336.380964 158.162062 335.891589 157.755187 
Q 335.402214 157.348312 334.517214 157.348312 
Q 333.954714 157.348312 333.420339 157.483312 
Q 332.887839 157.618312 332.396589 157.888312 
L 332.396589 156.890812 
Q 332.987214 156.662062 333.544089 156.549562 
Q 334.100964 156.435187 334.627839 156.435187 
Q 336.052839 156.435187 336.755964 157.173937 
Q 337.459089 157.910812 337.459089 159.410812 
z
M 344.78823 157.852687 
Q 345.19323 157.125187 345.75573 156.780187 
Q 346.31823 156.435187 347.07948 156.435187 
Q 348.105105 156.435187 348.66198 157.153312 
Q 349.218855 157.869562 349.218855 159.193312 
L 349.218855 163.155187 
L 348.135105 163.155187 
L 348.135105 159.228937 
Q 348.135105 158.285812 347.79948 157.830187 
Q 347.46573 157.372687 346.781355 157.372687 
Q 345.94323 157.372687 345.45573 157.929562 
Q 344.970105 158.484562 344.970105 159.446437 
L 344.970105 163.155187 
L 343.886355 163.155187 
L 343.886355 159.228937 
Q 343.886355 158.280187 343.552605 157.826437 
Q 343.218855 157.372687 342.521355 157.372687 
Q 341.69448 157.372687 341.20698 157.931437 
Q 340.721355 158.490187 340.721355 159.446437 
L 340.721355 163.155187 
L 339.637605 163.155187 
L 339.637605 156.592687 
L 340.721355 156.592687 
L 340.721355 157.612687 
Q 341.09073 157.008937 341.606355 156.722062 
Q 342.12198 156.435187 342.83073 156.435187 
Q 343.54698 156.435187 344.047605 156.798937 
Q 344.54823 157.160812 344.78823 157.852687 
z
M 351.368308 156.592687 
L 352.446433 156.592687 
L 352.446433 163.155187 
L 351.368308 163.155187 
L 351.368308 156.592687 
z
M 351.368308 154.037062 
L 352.446433 154.037062 
L 352.446433 155.403937 
L 351.368308 155.403937 
L 351.368308 154.037062 
z
M 360.158542 159.193312 
L 360.158542 163.155187 
L 359.080417 163.155187 
L 359.080417 159.228937 
Q 359.080417 158.297062 358.716667 157.835812 
Q 358.352917 157.372687 357.627292 157.372687 
Q 356.753542 157.372687 356.249167 157.929562 
Q 355.744792 158.484562 355.744792 159.446437 
L 355.744792 163.155187 
L 354.661042 163.155187 
L 354.661042 156.592687 
L 355.744792 156.592687 
L 355.744792 157.612687 
Q 356.132917 157.020187 356.656042 156.727687 
Q 357.181042 156.435187 357.867292 156.435187 
Q 358.997917 156.435187 359.577292 157.134562 
Q 360.158542 157.833937 360.158542 159.193312 
z
M 367.921511 159.603937 
L 367.921511 160.130812 
L 362.964011 160.130812 
Q 363.035261 161.244562 363.635261 161.827687 
Q 364.235261 162.410812 365.307761 162.410812 
Q 365.928386 162.410812 366.511511 162.258937 
Q 367.094636 162.107062 367.670261 161.801437 
L 367.670261 162.821437 
Q 367.089011 163.067062 366.479636 163.196437 
Q 365.870261 163.325812 365.244011 163.325812 
Q 363.672761 163.325812 362.755886 162.412687 
Q 361.839011 161.497687 361.839011 159.937687 
Q 361.839011 158.327062 362.709011 157.382062 
Q 363.579011 156.435187 365.056511 156.435187 
Q 366.380261 156.435187 367.150886 157.288312 
Q 367.921511 158.139562 367.921511 159.603937 
z
M 366.843386 159.287062 
Q 366.832136 158.403937 366.348386 157.877062 
Q 365.864636 157.348312 365.067761 157.348312 
Q 364.165886 157.348312 363.624011 157.858312 
Q 363.082136 158.368312 362.999636 159.294562 
L 366.843386 159.287062 
z
M 373.551901 154.406437 
L 374.735026 154.406437 
L 374.735026 157.993312 
L 379.036276 157.993312 
L 379.036276 154.406437 
L 380.219401 154.406437 
L 380.219401 163.155187 
L 379.036276 163.155187 
L 379.036276 158.988937 
L 374.735026 158.988937 
L 374.735026 163.155187 
L 373.551901 163.155187 
L 373.551901 154.406437 
z
M 382.886589 162.159562 
L 384.819714 162.159562 
L 384.819714 155.484562 
L 382.715964 155.906437 
L 382.715964 154.828312 
L 384.808464 154.406437 
L 385.991589 154.406437 
L 385.991589 162.159562 
L 387.924714 162.159562 
L 387.924714 163.155187 
L 382.886589 163.155187 
L 382.886589 162.159562 
z
" clip-path="url(#pcddfa65a10)" style="fill: #ffffff"/>
    <path d="M 328.075886 171.036937 
Q 327.894011 170.931937 327.680261 170.883187 
Q 327.466511 170.832562 327.209636 170.832562 
Q 326.294636 170.832562 325.805261 171.426937 
Q 325.315886 172.021312 325.315886 173.135062 
L 325.315886 176.592562 
L 324.232136 176.592562 
L 324.232136 170.030062 
L 325.315886 170.030062 
L 325.315886 171.050062 
Q 325.657136 170.451937 326.200886 170.163187 
Q 326.746511 169.872562 327.526511 169.872562 
Q 327.637136 169.872562 327.772136 169.887562 
Q 327.907136 169.900687 328.070261 169.930687 
L 328.075886 171.036937 
z
M 334.55073 173.041312 
L 334.55073 173.568187 
L 329.59323 173.568187 
Q 329.66448 174.681937 330.26448 175.265062 
Q 330.86448 175.848187 331.93698 175.848187 
Q 332.557605 175.848187 333.14073 175.696312 
Q 333.723855 175.544437 334.29948 175.238812 
L 334.29948 176.258812 
Q 333.71823 176.504437 333.108855 176.633812 
Q 332.49948 176.763187 331.87323 176.763187 
Q 330.30198 176.763187 329.385105 175.850062 
Q 328.46823 174.935062 328.46823 173.375062 
Q 328.46823 171.764437 329.33823 170.819437 
Q 330.20823 169.872562 331.68573 169.872562 
Q 333.00948 169.872562 333.780105 170.725687 
Q 334.55073 171.576937 334.55073 173.041312 
z
M 333.472605 172.724437 
Q 333.461355 171.841312 332.977605 171.314437 
Q 332.493855 170.785687 331.69698 170.785687 
Q 330.795105 170.785687 330.25323 171.295687 
Q 329.711355 171.805687 329.628855 172.731937 
L 333.472605 172.724437 
z
M 341.042917 170.281312 
L 341.042917 171.290062 
Q 340.585417 171.036937 340.126042 170.911312 
Q 339.666667 170.785687 339.197917 170.785687 
Q 338.147917 170.785687 337.566667 171.451312 
Q 336.987292 172.115062 336.987292 173.316937 
Q 336.987292 174.518812 337.566667 175.184437 
Q 338.147917 175.848187 339.197917 175.848187 
Q 339.666667 175.848187 340.126042 175.722562 
Q 340.585417 175.596937 341.042917 175.343812 
L 341.042917 176.341312 
Q 340.591042 176.551312 340.107292 176.656312 
Q 339.625417 176.763187 339.079792 176.763187 
Q 337.596667 176.763187 336.722917 175.831312 
Q 335.851042 174.899437 335.851042 173.316937 
Q 335.851042 171.711937 336.732292 170.793187 
Q 337.615417 169.872562 339.151042 169.872562 
Q 339.647917 169.872562 340.122292 169.975687 
Q 340.596667 170.076937 341.042917 170.281312 
z
M 348.531198 173.041312 
L 348.531198 173.568187 
L 343.573698 173.568187 
Q 343.644948 174.681937 344.244948 175.265062 
Q 344.844948 175.848187 345.917448 175.848187 
Q 346.538073 175.848187 347.121198 175.696312 
Q 347.704323 175.544437 348.279948 175.238812 
L 348.279948 176.258812 
Q 347.698698 176.504437 347.089323 176.633812 
Q 346.479948 176.763187 345.853698 176.763187 
Q 344.282448 176.763187 343.365573 175.850062 
Q 342.448698 174.935062 342.448698 173.375062 
Q 342.448698 171.764437 343.318698 170.819437 
Q 344.188698 169.872562 345.666198 169.872562 
Q 346.989948 169.872562 347.760573 170.725687 
Q 348.531198 171.576937 348.531198 173.041312 
z
M 347.453073 172.724437 
Q 347.441823 171.841312 346.958073 171.314437 
Q 346.474323 170.785687 345.677448 170.785687 
Q 344.775573 170.785687 344.233698 171.295687 
Q 343.691823 171.805687 343.609323 172.731937 
L 347.453073 172.724437 
z
M 351.342761 175.608187 
L 351.342761 179.088187 
L 350.259011 179.088187 
L 350.259011 170.030062 
L 351.342761 170.030062 
L 351.342761 171.025687 
Q 351.684011 170.440687 352.201511 170.157562 
Q 352.720886 169.872562 353.440886 169.872562 
Q 354.637136 169.872562 355.383386 170.821312 
Q 356.131511 171.770062 356.131511 173.316937 
Q 356.131511 174.863812 355.383386 175.814437 
Q 354.637136 176.763187 353.440886 176.763187 
Q 352.720886 176.763187 352.201511 176.478187 
Q 351.684011 176.193187 351.342761 175.608187 
z
M 355.012136 173.316937 
Q 355.012136 172.128187 354.522761 171.451312 
Q 354.033386 170.774437 353.178386 170.774437 
Q 352.321511 170.774437 351.832136 171.451312 
Q 351.342761 172.128187 351.342761 173.316937 
Q 351.342761 174.505687 351.832136 175.182562 
Q 352.321511 175.859437 353.178386 175.859437 
Q 354.033386 175.859437 354.522761 175.182562 
Q 355.012136 174.505687 355.012136 173.316937 
z
M 358.984323 168.166312 
L 358.984323 170.030062 
L 361.204323 170.030062 
L 361.204323 170.868187 
L 358.984323 170.868187 
L 358.984323 174.430687 
Q 358.984323 175.233187 359.203698 175.461937 
Q 359.423073 175.690687 360.098073 175.690687 
L 361.204323 175.690687 
L 361.204323 176.592562 
L 360.098073 176.592562 
Q 358.849323 176.592562 358.374948 176.127562 
Q 357.900573 175.660687 357.900573 174.430687 
L 357.900573 170.868187 
L 357.109323 170.868187 
L 357.109323 170.030062 
L 357.900573 170.030062 
L 357.900573 168.166312 
L 358.984323 168.166312 
z
M 365.165026 170.785687 
Q 364.298776 170.785687 363.794401 171.462562 
Q 363.290026 172.139437 363.290026 173.316937 
Q 363.290026 174.494437 363.790651 175.171312 
Q 364.293151 175.848187 365.165026 175.848187 
Q 366.027526 175.848187 366.530026 175.169437 
Q 367.034401 174.488812 367.034401 173.316937 
Q 367.034401 172.150687 366.530026 171.468187 
Q 366.027526 170.785687 365.165026 170.785687 
z
M 365.165026 169.872562 
Q 366.571276 169.872562 367.373776 170.787562 
Q 368.178151 171.700687 368.178151 173.316937 
Q 368.178151 174.927562 367.373776 175.846312 
Q 366.571276 176.763187 365.165026 176.763187 
Q 363.753151 176.763187 362.952526 175.846312 
Q 362.153776 174.927562 362.153776 173.316937 
Q 362.153776 171.700687 362.952526 170.787562 
Q 363.753151 169.872562 365.165026 169.872562 
z
M 373.766823 171.036937 
Q 373.584948 170.931937 373.371198 170.883187 
Q 373.157448 170.832562 372.900573 170.832562 
Q 371.985573 170.832562 371.496198 171.426937 
Q 371.006823 172.021312 371.006823 173.135062 
L 371.006823 176.592562 
L 369.923073 176.592562 
L 369.923073 170.030062 
L 371.006823 170.030062 
L 371.006823 171.050062 
Q 371.348073 170.451937 371.891823 170.163187 
Q 372.437448 169.872562 373.217448 169.872562 
Q 373.328073 169.872562 373.463073 169.887562 
Q 373.598073 169.900687 373.761198 169.930687 
L 373.766823 171.036937 
z
" clip-path="url(#pcddfa65a10)" style="fill: #ffffff; stroke: #000000; stroke-width: 2"/>
    <path d="M 328.075886 171.036937 
Q 327.894011 170.931937 327.680261 170.883187 
Q 327.466511 170.832562 327.209636 170.832562 
Q 326.294636 170.832562 325.805261 171.426937 
Q 325.315886 172.021312 325.315886 173.135062 
L 325.315886 176.592562 
L 324.232136 176.592562 
L 324.232136 170.030062 
L 325.315886 170.030062 
L 325.315886 171.050062 
Q 325.657136 170.451937 326.200886 170.163187 
Q 326.746511 169.872562 327.526511 169.872562 
Q 327.637136 169.872562 327.772136 169.887562 
Q 327.907136 169.900687 328.070261 169.930687 
L 328.075886 171.036937 
z
M 334.55073 173.041312 
L 334.55073 173.568187 
L 329.59323 173.568187 
Q 329.66448 174.681937 330.26448 175.265062 
Q 330.86448 175.848187 331.93698 175.848187 
Q 332.557605 175.848187 333.14073 175.696312 
Q 333.723855 175.544437 334.29948 175.238812 
L 334.29948 176.258812 
Q 333.71823 176.504437 333.108855 176.633812 
Q 332.49948 176.763187 331.87323 176.763187 
Q 330.30198 176.763187 329.385105 175.850062 
Q 328.46823 174.935062 328.46823 173.375062 
Q 328.46823 171.764437 329.33823 170.819437 
Q 330.20823 169.872562 331.68573 169.872562 
Q 333.00948 169.872562 333.780105 170.725687 
Q 334.55073 171.576937 334.55073 173.041312 
z
M 333.472605 172.724437 
Q 333.461355 171.841312 332.977605 171.314437 
Q 332.493855 170.785687 331.69698 170.785687 
Q 330.795105 170.785687 330.25323 171.295687 
Q 329.711355 171.805687 329.628855 172.731937 
L 333.472605 172.724437 
z
M 341.042917 170.281312 
L 341.042917 171.290062 
Q 340.585417 171.036937 340.126042 170.911312 
Q 339.666667 170.785687 339.197917 170.785687 
Q 338.147917 170.785687 337.566667 171.451312 
Q 336.987292 172.115062 336.987292 173.316937 
Q 336.987292 174.518812 337.566667 175.184437 
Q 338.147917 175.848187 339.197917 175.848187 
Q 339.666667 175.848187 340.126042 175.722562 
Q 340.585417 175.596937 341.042917 175.343812 
L 341.042917 176.341312 
Q 340.591042 176.551312 340.107292 176.656312 
Q 339.625417 176.763187 339.079792 176.763187 
Q 337.596667 176.763187 336.722917 175.831312 
Q 335.851042 174.899437 335.851042 173.316937 
Q 335.851042 171.711937 336.732292 170.793187 
Q 337.615417 169.872562 339.151042 169.872562 
Q 339.647917 169.872562 340.122292 169.975687 
Q 340.596667 170.076937 341.042917 170.281312 
z
M 348.531198 173.041312 
L 348.531198 173.568187 
L 343.573698 173.568187 
Q 343.644948 174.681937 344.244948 175.265062 
Q 344.844948 175.848187 345.917448 175.848187 
Q 346.538073 175.848187 347.121198 175.696312 
Q 347.704323 175.544437 348.279948 175.238812 
L 348.279948 176.258812 
Q 347.698698 176.504437 347.089323 176.633812 
Q 346.479948 176.763187 345.853698 176.763187 
Q 344.282448 176.763187 343.365573 175.850062 
Q 342.448698 174.935062 342.448698 173.375062 
Q 342.448698 171.764437 343.318698 170.819437 
Q 344.188698 169.872562 345.666198 169.872562 
Q 346.989948 169.872562 347.760573 170.725687 
Q 348.531198 171.576937 348.531198 173.041312 
z
M 347.453073 172.724437 
Q 347.441823 171.841312 346.958073 171.314437 
Q 346.474323 170.785687 345.677448 170.785687 
Q 344.775573 170.785687 344.233698 171.295687 
Q 343.691823 171.805687 343.609323 172.731937 
L 347.453073 172.724437 
z
M 351.342761 175.608187 
L 351.342761 179.088187 
L 350.259011 179.088187 
L 350.259011 170.030062 
L 351.342761 170.030062 
L 351.342761 171.025687 
Q 351.684011 170.440687 352.201511 170.157562 
Q 352.720886 169.872562 353.440886 169.872562 
Q 354.637136 169.872562 355.383386 170.821312 
Q 356.131511 171.770062 356.131511 173.316937 
Q 356.131511 174.863812 355.383386 175.814437 
Q 354.637136 176.763187 353.440886 176.763187 
Q 352.720886 176.763187 352.201511 176.478187 
Q 351.684011 176.193187 351.342761 175.608187 
z
M 355.012136 173.316937 
Q 355.012136 172.128187 354.522761 171.451312 
Q 354.033386 170.774437 353.178386 170.774437 
Q 352.321511 170.774437 351.832136 171.451312 
Q 351.342761 172.128187 351.342761 173.316937 
Q 351.342761 174.505687 351.832136 175.182562 
Q 352.321511 175.859437 353.178386 175.859437 
Q 354.033386 175.859437 354.522761 175.182562 
Q 355.012136 174.505687 355.012136 173.316937 
z
M 358.984323 168.166312 
L 358.984323 170.030062 
L 361.204323 170.030062 
L 361.204323 170.868187 
L 358.984323 170.868187 
L 358.984323 174.430687 
Q 358.984323 175.233187 359.203698 175.461937 
Q 359.423073 175.690687 360.098073 175.690687 
L 361.204323 175.690687 
L 361.204323 176.592562 
L 360.098073 176.592562 
Q 358.849323 176.592562 358.374948 176.127562 
Q 357.900573 175.660687 357.900573 174.430687 
L 357.900573 170.868187 
L 357.109323 170.868187 
L 357.109323 170.030062 
L 357.900573 170.030062 
L 357.900573 168.166312 
L 358.984323 168.166312 
z
M 365.165026 170.785687 
Q 364.298776 170.785687 363.794401 171.462562 
Q 363.290026 172.139437 363.290026 173.316937 
Q 363.290026 174.494437 363.790651 175.171312 
Q 364.293151 175.848187 365.165026 175.848187 
Q 366.027526 175.848187 366.530026 175.169437 
Q 367.034401 174.488812 367.034401 173.316937 
Q 367.034401 172.150687 366.530026 171.468187 
Q 366.027526 170.785687 365.165026 170.785687 
z
M 365.165026 169.872562 
Q 366.571276 169.872562 367.373776 170.787562 
Q 368.178151 171.700687 368.178151 173.316937 
Q 368.178151 174.927562 367.373776 175.846312 
Q 366.571276 176.763187 365.165026 176.763187 
Q 363.753151 176.763187 362.952526 175.846312 
Q 362.153776 174.927562 362.153776 173.316937 
Q 362.153776 171.700687 362.952526 170.787562 
Q 363.753151 169.872562 365.165026 169.872562 
z
M 373.766823 171.036937 
Q 373.584948 170.931937 373.371198 170.883187 
Q 373.157448 170.832562 372.900573 170.832562 
Q 371.985573 170.832562 371.496198 171.426937 
Q 371.006823 172.021312 371.006823 173.135062 
L 371.006823 176.592562 
L 369.923073 176.592562 
L 369.923073 170.030062 
L 371.006823 170.030062 
L 371.006823 171.050062 
Q 371.348073 170.451937 371.891823 170.163187 
Q 372.437448 169.872562 373.217448 169.872562 
Q 373.328073 169.872562 373.463073 169.887562 
Q 373.598073 169.900687 373.761198 169.930687 
L 373.766823 171.036937 
z
" clip-path="url(#pcddfa65a10)" style="fill: #ffffff"/>
    <path d="M 303.043698 181.281187 
L 304.234323 181.281187 
L 304.234323 186.596812 
Q 304.234323 188.003062 304.742448 188.621812 
Q 305.252448 189.238687 306.396198 189.238687 
Q 307.532448 189.238687 308.042448 188.621812 
Q 308.552448 188.003062 308.552448 186.596812 
L 308.552448 181.281187 
L 309.741198 181.281187 
L 309.741198 186.743062 
Q 309.741198 188.453062 308.893698 189.326812 
Q 308.048073 190.200562 306.396198 190.200562 
Q 304.736823 190.200562 303.889323 189.326812 
Q 303.043698 188.453062 303.043698 186.743062 
L 303.043698 181.281187 
z
M 317.371276 186.068062 
L 317.371276 190.029937 
L 316.293151 190.029937 
L 316.293151 186.103687 
Q 316.293151 185.171812 315.929401 184.710562 
Q 315.565651 184.247437 314.840026 184.247437 
Q 313.966276 184.247437 313.461901 184.804312 
Q 312.957526 185.359312 312.957526 186.321187 
L 312.957526 190.029937 
L 311.873776 190.029937 
L 311.873776 183.467437 
L 312.957526 183.467437 
L 312.957526 184.487437 
Q 313.345651 183.894937 313.868776 183.602437 
Q 314.393776 183.309937 315.080026 183.309937 
Q 316.210651 183.309937 316.790026 184.009312 
Q 317.371276 184.708687 317.371276 186.068062 
z
M 319.520495 183.467437 
L 320.59862 183.467437 
L 320.59862 190.029937 
L 319.520495 190.029937 
L 319.520495 183.467437 
z
M 319.520495 180.911812 
L 320.59862 180.911812 
L 320.59862 182.278687 
L 319.520495 182.278687 
L 319.520495 180.911812 
z
M 324.08448 182.254312 
L 324.08448 185.541187 
L 325.57323 185.541187 
Q 326.400105 185.541187 326.850105 185.113687 
Q 327.30198 184.686187 327.30198 183.894937 
Q 327.30198 183.109312 326.850105 182.681812 
Q 326.400105 182.254312 325.57323 182.254312 
L 324.08448 182.254312 
z
M 322.901355 181.281187 
L 325.57323 181.281187 
Q 327.045105 181.281187 327.79698 181.946812 
Q 328.55073 182.612437 328.55073 183.894937 
Q 328.55073 185.190562 327.79698 185.852437 
Q 327.045105 186.514312 325.57323 186.514312 
L 324.08448 186.514312 
L 324.08448 190.029937 
L 322.901355 190.029937 
L 322.901355 181.281187 
z
M 333.683308 184.474312 
Q 333.501433 184.369312 333.287683 184.320562 
Q 333.073933 184.269937 332.817058 184.269937 
Q 331.902058 184.269937 331.412683 184.864312 
Q 330.923308 185.458687 330.923308 186.572437 
L 330.923308 190.029937 
L 329.839558 190.029937 
L 329.839558 183.467437 
L 330.923308 183.467437 
L 330.923308 184.487437 
Q 331.264558 183.889312 331.808308 183.600562 
Q 332.353933 183.309937 333.133933 183.309937 
Q 333.244558 183.309937 333.379558 183.324937 
Q 333.514558 183.338062 333.677683 183.368062 
L 333.683308 184.474312 
z
M 337.086901 184.223062 
Q 336.220651 184.223062 335.716276 184.899937 
Q 335.211901 185.576812 335.211901 186.754312 
Q 335.211901 187.931812 335.712526 188.608687 
Q 336.215026 189.285562 337.086901 189.285562 
Q 337.949401 189.285562 338.451901 188.606812 
Q 338.956276 187.926187 338.956276 186.754312 
Q 338.956276 185.588062 338.451901 184.905562 
Q 337.949401 184.223062 337.086901 184.223062 
z
M 337.086901 183.309937 
Q 338.493151 183.309937 339.295651 184.224937 
Q 340.100026 185.138062 340.100026 186.754312 
Q 340.100026 188.364937 339.295651 189.283687 
Q 338.493151 190.200562 337.086901 190.200562 
Q 335.675026 190.200562 334.874401 189.283687 
Q 334.075651 188.364937 334.075651 186.754312 
Q 334.075651 185.138062 334.874401 184.224937 
Q 335.675026 183.309937 337.086901 183.309937 
z
M 342.953073 181.603687 
L 342.953073 183.467437 
L 345.173073 183.467437 
L 345.173073 184.305562 
L 342.953073 184.305562 
L 342.953073 187.868062 
Q 342.953073 188.670562 343.172448 188.899312 
Q 343.391823 189.128062 344.066823 189.128062 
L 345.173073 189.128062 
L 345.173073 190.029937 
L 344.066823 190.029937 
Q 342.818073 190.029937 342.343698 189.564937 
Q 341.869323 189.098062 341.869323 187.868062 
L 341.869323 184.305562 
L 341.078073 184.305562 
L 341.078073 183.467437 
L 341.869323 183.467437 
L 341.869323 181.603687 
L 342.953073 181.603687 
z
M 346.866901 188.541187 
L 348.102526 188.541187 
L 348.102526 190.029937 
L 346.866901 190.029937 
L 346.866901 188.541187 
z
M 346.866901 183.825562 
L 348.102526 183.825562 
L 348.102526 185.312437 
L 346.866901 185.312437 
L 346.866901 183.825562 
z
M 351.864245 182.254312 
L 351.864245 185.541187 
L 353.352995 185.541187 
Q 354.17987 185.541187 354.62987 185.113687 
Q 355.081745 184.686187 355.081745 183.894937 
Q 355.081745 183.109312 354.62987 182.681812 
Q 354.17987 182.254312 353.352995 182.254312 
L 351.864245 182.254312 
z
M 350.68112 181.281187 
L 353.352995 181.281187 
Q 354.82487 181.281187 355.576745 181.946812 
Q 356.330495 182.612437 356.330495 183.894937 
Q 356.330495 185.190562 355.576745 185.852437 
Q 354.82487 186.514312 353.352995 186.514312 
L 351.864245 186.514312 
L 351.864245 190.029937 
L 350.68112 190.029937 
L 350.68112 181.281187 
z
M 361.609323 185.312437 
Q 362.458698 185.494312 362.934948 186.069937 
Q 363.413073 186.643687 363.413073 187.487437 
Q 363.413073 188.781187 362.522448 189.491812 
Q 361.631823 190.200562 359.991198 190.200562 
Q 359.441823 190.200562 358.858698 190.091812 
Q 358.275573 189.983062 357.654948 189.765562 
L 357.654948 188.623687 
Q 358.146198 188.910562 358.731198 189.056812 
Q 359.318073 189.203062 359.957448 189.203062 
Q 361.069323 189.203062 361.652448 188.764312 
Q 362.235573 188.325562 362.235573 187.487437 
Q 362.235573 186.713062 361.693698 186.278062 
Q 361.151823 185.841187 360.186198 185.841187 
L 359.166198 185.841187 
L 359.166198 184.868062 
L 360.233073 184.868062 
Q 361.104948 184.868062 361.568073 184.519312 
Q 362.031198 184.170562 362.031198 183.514312 
Q 362.031198 182.841187 361.553073 182.481187 
Q 361.076823 182.119312 360.186198 182.119312 
Q 359.698698 182.119312 359.141823 182.226187 
Q 358.584948 182.331187 357.917448 182.552437 
L 357.917448 181.498687 
Q 358.592448 181.311187 359.181198 181.217437 
Q 359.769948 181.123687 360.291198 181.123687 
Q 361.639323 181.123687 362.423073 181.736812 
Q 363.208698 182.348062 363.208698 183.390562 
Q 363.208698 184.118062 362.792448 184.618687 
Q 362.376198 185.119312 361.609323 185.312437 
z
M 365.670339 181.281187 
L 370.316589 181.281187 
L 370.316589 182.278687 
L 366.754089 182.278687 
L 366.754089 184.421812 
Q 367.010964 184.333687 367.267839 184.290562 
Q 367.526589 184.247437 367.785339 184.247437 
Q 369.249714 184.247437 370.104714 185.049937 
Q 370.961589 185.852437 370.961589 187.223062 
Q 370.961589 188.634937 370.082214 189.418687 
Q 369.202839 190.200562 367.603464 190.200562 
Q 367.052214 190.200562 366.480339 190.106812 
Q 365.910339 190.013062 365.300964 189.825562 
L 365.300964 188.634937 
Q 365.827839 188.921812 366.390339 189.062437 
Q 366.952839 189.203062 367.579089 189.203062 
Q 368.593464 189.203062 369.184089 188.670562 
Q 369.776589 188.138062 369.776589 187.223062 
Q 369.776589 186.309937 369.184089 185.777437 
Q 368.593464 185.243062 367.579089 185.243062 
Q 367.104714 185.243062 366.632214 185.348062 
Q 366.161589 185.453062 365.670339 185.676187 
L 365.670339 181.281187 
z
M 376.878855 185.312437 
Q 377.72823 185.494312 378.20448 186.069937 
Q 378.682605 186.643687 378.682605 187.487437 
Q 378.682605 188.781187 377.79198 189.491812 
Q 376.901355 190.200562 375.26073 190.200562 
Q 374.711355 190.200562 374.12823 190.091812 
Q 373.545105 189.983062 372.92448 189.765562 
L 372.92448 188.623687 
Q 373.41573 188.910562 374.00073 189.056812 
Q 374.587605 189.203062 375.22698 189.203062 
Q 376.338855 189.203062 376.92198 188.764312 
Q 377.505105 188.325562 377.505105 187.487437 
Q 377.505105 186.713062 376.96323 186.278062 
Q 376.421355 185.841187 375.45573 185.841187 
L 374.43573 185.841187 
L 374.43573 184.868062 
L 375.502605 184.868062 
Q 376.37448 184.868062 376.837605 184.519312 
Q 377.30073 184.170562 377.30073 183.514312 
Q 377.30073 182.841187 376.822605 182.481187 
Q 376.346355 182.119312 375.45573 182.119312 
Q 374.96823 182.119312 374.411355 182.226187 
Q 373.85448 182.331187 373.18698 182.552437 
L 373.18698 181.498687 
Q 373.86198 181.311187 374.45073 181.217437 
Q 375.03948 181.123687 375.56073 181.123687 
Q 376.908855 181.123687 377.692605 181.736812 
Q 378.47823 182.348062 378.47823 183.390562 
Q 378.47823 184.118062 378.06198 184.618687 
Q 377.64573 185.119312 376.878855 185.312437 
z
M 383.60612 185.184937 
Q 382.809245 185.184937 382.34237 185.730562 
Q 381.87737 186.274312 381.87737 187.223062 
Q 381.87737 188.166187 382.34237 188.715562 
Q 382.809245 189.263062 383.60612 189.263062 
Q 384.402995 189.263062 384.867995 188.715562 
Q 385.332995 188.166187 385.332995 187.223062 
Q 385.332995 186.274312 384.867995 185.730562 
Q 384.402995 185.184937 383.60612 185.184937 
z
M 385.955495 181.474312 
L 385.955495 182.552437 
Q 385.509245 182.342437 385.055495 182.231812 
Q 384.601745 182.119312 384.155495 182.119312 
Q 382.98362 182.119312 382.36487 182.910562 
Q 381.747995 183.701812 381.65987 185.301187 
Q 382.00487 184.791187 382.52612 184.519312 
Q 383.049245 184.247437 383.675495 184.247437 
Q 384.99362 184.247437 385.75862 185.048062 
Q 386.52362 185.846812 386.52362 187.223062 
Q 386.52362 188.571187 385.726745 189.386812 
Q 384.92987 190.200562 383.60612 190.200562 
Q 382.08737 190.200562 381.28487 189.038062 
Q 380.48237 187.873687 380.48237 185.664937 
Q 380.48237 183.591187 381.466745 182.357437 
Q 382.45112 181.123687 384.10862 181.123687 
Q 384.55487 181.123687 385.00862 181.211812 
Q 385.46237 181.299937 385.955495 181.474312 
z
M 388.263386 181.281187 
L 393.888386 181.281187 
L 393.888386 181.785562 
L 390.712136 190.029937 
L 389.476511 190.029937 
L 392.465261 182.278687 
L 388.263386 182.278687 
L 388.263386 181.281187 
z
" clip-path="url(#pcddfa65a10)" style="fill: #ffffff; stroke: #000000; stroke-width: 2"/>
    <path d="M 303.043698 181.281187 
L 304.234323 181.281187 
L 304.234323 186.596812 
Q 304.234323 188.003062 304.742448 188.621812 
Q 305.252448 189.238687 306.396198 189.238687 
Q 307.532448 189.238687 308.042448 188.621812 
Q 308.552448 188.003062 308.552448 186.596812 
L 308.552448 181.281187 
L 309.741198 181.281187 
L 309.741198 186.743062 
Q 309.741198 188.453062 308.893698 189.326812 
Q 308.048073 190.200562 306.396198 190.200562 
Q 304.736823 190.200562 303.889323 189.326812 
Q 303.043698 188.453062 303.043698 186.743062 
L 303.043698 181.281187 
z
M 317.371276 186.068062 
L 317.371276 190.029937 
L 316.293151 190.029937 
L 316.293151 186.103687 
Q 316.293151 185.171812 315.929401 184.710562 
Q 315.565651 184.247437 314.840026 184.247437 
Q 313.966276 184.247437 313.461901 184.804312 
Q 312.957526 185.359312 312.957526 186.321187 
L 312.957526 190.029937 
L 311.873776 190.029937 
L 311.873776 183.467437 
L 312.957526 183.467437 
L 312.957526 184.487437 
Q 313.345651 183.894937 313.868776 183.602437 
Q 314.393776 183.309937 315.080026 183.309937 
Q 316.210651 183.309937 316.790026 184.009312 
Q 317.371276 184.708687 317.371276 186.068062 
z
M 319.520495 183.467437 
L 320.59862 183.467437 
L 320.59862 190.029937 
L 319.520495 190.029937 
L 319.520495 183.467437 
z
M 319.520495 180.911812 
L 320.59862 180.911812 
L 320.59862 182.278687 
L 319.520495 182.278687 
L 319.520495 180.911812 
z
M 324.08448 182.254312 
L 324.08448 185.541187 
L 325.57323 185.541187 
Q 326.400105 185.541187 326.850105 185.113687 
Q 327.30198 184.686187 327.30198 183.894937 
Q 327.30198 183.109312 326.850105 182.681812 
Q 326.400105 182.254312 325.57323 182.254312 
L 324.08448 182.254312 
z
M 322.901355 181.281187 
L 325.57323 181.281187 
Q 327.045105 181.281187 327.79698 181.946812 
Q 328.55073 182.612437 328.55073 183.894937 
Q 328.55073 185.190562 327.79698 185.852437 
Q 327.045105 186.514312 325.57323 186.514312 
L 324.08448 186.514312 
L 324.08448 190.029937 
L 322.901355 190.029937 
L 322.901355 181.281187 
z
M 333.683308 184.474312 
Q 333.501433 184.369312 333.287683 184.320562 
Q 333.073933 184.269937 332.817058 184.269937 
Q 331.902058 184.269937 331.412683 184.864312 
Q 330.923308 185.458687 330.923308 186.572437 
L 330.923308 190.029937 
L 329.839558 190.029937 
L 329.839558 183.467437 
L 330.923308 183.467437 
L 330.923308 184.487437 
Q 331.264558 183.889312 331.808308 183.600562 
Q 332.353933 183.309937 333.133933 183.309937 
Q 333.244558 183.309937 333.379558 183.324937 
Q 333.514558 183.338062 333.677683 183.368062 
L 333.683308 184.474312 
z
M 337.086901 184.223062 
Q 336.220651 184.223062 335.716276 184.899937 
Q 335.211901 185.576812 335.211901 186.754312 
Q 335.211901 187.931812 335.712526 188.608687 
Q 336.215026 189.285562 337.086901 189.285562 
Q 337.949401 189.285562 338.451901 188.606812 
Q 338.956276 187.926187 338.956276 186.754312 
Q 338.956276 185.588062 338.451901 184.905562 
Q 337.949401 184.223062 337.086901 184.223062 
z
M 337.086901 183.309937 
Q 338.493151 183.309937 339.295651 184.224937 
Q 340.100026 185.138062 340.100026 186.754312 
Q 340.100026 188.364937 339.295651 189.283687 
Q 338.493151 190.200562 337.086901 190.200562 
Q 335.675026 190.200562 334.874401 189.283687 
Q 334.075651 188.364937 334.075651 186.754312 
Q 334.075651 185.138062 334.874401 184.224937 
Q 335.675026 183.309937 337.086901 183.309937 
z
M 342.953073 181.603687 
L 342.953073 183.467437 
L 345.173073 183.467437 
L 345.173073 184.305562 
L 342.953073 184.305562 
L 342.953073 187.868062 
Q 342.953073 188.670562 343.172448 188.899312 
Q 343.391823 189.128062 344.066823 189.128062 
L 345.173073 189.128062 
L 345.173073 190.029937 
L 344.066823 190.029937 
Q 342.818073 190.029937 342.343698 189.564937 
Q 341.869323 189.098062 341.869323 187.868062 
L 341.869323 184.305562 
L 341.078073 184.305562 
L 341.078073 183.467437 
L 341.869323 183.467437 
L 341.869323 181.603687 
L 342.953073 181.603687 
z
M 346.866901 188.541187 
L 348.102526 188.541187 
L 348.102526 190.029937 
L 346.866901 190.029937 
L 346.866901 188.541187 
z
M 346.866901 183.825562 
L 348.102526 183.825562 
L 348.102526 185.312437 
L 346.866901 185.312437 
L 346.866901 183.825562 
z
M 351.864245 182.254312 
L 351.864245 185.541187 
L 353.352995 185.541187 
Q 354.17987 185.541187 354.62987 185.113687 
Q 355.081745 184.686187 355.081745 183.894937 
Q 355.081745 183.109312 354.62987 182.681812 
Q 354.17987 182.254312 353.352995 182.254312 
L 351.864245 182.254312 
z
M 350.68112 181.281187 
L 353.352995 181.281187 
Q 354.82487 181.281187 355.576745 181.946812 
Q 356.330495 182.612437 356.330495 183.894937 
Q 356.330495 185.190562 355.576745 185.852437 
Q 354.82487 186.514312 353.352995 186.514312 
L 351.864245 186.514312 
L 351.864245 190.029937 
L 350.68112 190.029937 
L 350.68112 181.281187 
z
M 361.609323 185.312437 
Q 362.458698 185.494312 362.934948 186.069937 
Q 363.413073 186.643687 363.413073 187.487437 
Q 363.413073 188.781187 362.522448 189.491812 
Q 361.631823 190.200562 359.991198 190.200562 
Q 359.441823 190.200562 358.858698 190.091812 
Q 358.275573 189.983062 357.654948 189.765562 
L 357.654948 188.623687 
Q 358.146198 188.910562 358.731198 189.056812 
Q 359.318073 189.203062 359.957448 189.203062 
Q 361.069323 189.203062 361.652448 188.764312 
Q 362.235573 188.325562 362.235573 187.487437 
Q 362.235573 186.713062 361.693698 186.278062 
Q 361.151823 185.841187 360.186198 185.841187 
L 359.166198 185.841187 
L 359.166198 184.868062 
L 360.233073 184.868062 
Q 361.104948 184.868062 361.568073 184.519312 
Q 362.031198 184.170562 362.031198 183.514312 
Q 362.031198 182.841187 361.553073 182.481187 
Q 361.076823 182.119312 360.186198 182.119312 
Q 359.698698 182.119312 359.141823 182.226187 
Q 358.584948 182.331187 357.917448 182.552437 
L 357.917448 181.498687 
Q 358.592448 181.311187 359.181198 181.217437 
Q 359.769948 181.123687 360.291198 181.123687 
Q 361.639323 181.123687 362.423073 181.736812 
Q 363.208698 182.348062 363.208698 183.390562 
Q 363.208698 184.118062 362.792448 184.618687 
Q 362.376198 185.119312 361.609323 185.312437 
z
M 365.670339 181.281187 
L 370.316589 181.281187 
L 370.316589 182.278687 
L 366.754089 182.278687 
L 366.754089 184.421812 
Q 367.010964 184.333687 367.267839 184.290562 
Q 367.526589 184.247437 367.785339 184.247437 
Q 369.249714 184.247437 370.104714 185.049937 
Q 370.961589 185.852437 370.961589 187.223062 
Q 370.961589 188.634937 370.082214 189.418687 
Q 369.202839 190.200562 367.603464 190.200562 
Q 367.052214 190.200562 366.480339 190.106812 
Q 365.910339 190.013062 365.300964 189.825562 
L 365.300964 188.634937 
Q 365.827839 188.921812 366.390339 189.062437 
Q 366.952839 189.203062 367.579089 189.203062 
Q 368.593464 189.203062 369.184089 188.670562 
Q 369.776589 188.138062 369.776589 187.223062 
Q 369.776589 186.309937 369.184089 185.777437 
Q 368.593464 185.243062 367.579089 185.243062 
Q 367.104714 185.243062 366.632214 185.348062 
Q 366.161589 185.453062 365.670339 185.676187 
L 365.670339 181.281187 
z
M 376.878855 185.312437 
Q 377.72823 185.494312 378.20448 186.069937 
Q 378.682605 186.643687 378.682605 187.487437 
Q 378.682605 188.781187 377.79198 189.491812 
Q 376.901355 190.200562 375.26073 190.200562 
Q 374.711355 190.200562 374.12823 190.091812 
Q 373.545105 189.983062 372.92448 189.765562 
L 372.92448 188.623687 
Q 373.41573 188.910562 374.00073 189.056812 
Q 374.587605 189.203062 375.22698 189.203062 
Q 376.338855 189.203062 376.92198 188.764312 
Q 377.505105 188.325562 377.505105 187.487437 
Q 377.505105 186.713062 376.96323 186.278062 
Q 376.421355 185.841187 375.45573 185.841187 
L 374.43573 185.841187 
L 374.43573 184.868062 
L 375.502605 184.868062 
Q 376.37448 184.868062 376.837605 184.519312 
Q 377.30073 184.170562 377.30073 183.514312 
Q 377.30073 182.841187 376.822605 182.481187 
Q 376.346355 182.119312 375.45573 182.119312 
Q 374.96823 182.119312 374.411355 182.226187 
Q 373.85448 182.331187 373.18698 182.552437 
L 373.18698 181.498687 
Q 373.86198 181.311187 374.45073 181.217437 
Q 375.03948 181.123687 375.56073 181.123687 
Q 376.908855 181.123687 377.692605 181.736812 
Q 378.47823 182.348062 378.47823 183.390562 
Q 378.47823 184.118062 378.06198 184.618687 
Q 377.64573 185.119312 376.878855 185.312437 
z
M 383.60612 185.184937 
Q 382.809245 185.184937 382.34237 185.730562 
Q 381.87737 186.274312 381.87737 187.223062 
Q 381.87737 188.166187 382.34237 188.715562 
Q 382.809245 189.263062 383.60612 189.263062 
Q 384.402995 189.263062 384.867995 188.715562 
Q 385.332995 188.166187 385.332995 187.223062 
Q 385.332995 186.274312 384.867995 185.730562 
Q 384.402995 185.184937 383.60612 185.184937 
z
M 385.955495 181.474312 
L 385.955495 182.552437 
Q 385.509245 182.342437 385.055495 182.231812 
Q 384.601745 182.119312 384.155495 182.119312 
Q 382.98362 182.119312 382.36487 182.910562 
Q 381.747995 183.701812 381.65987 185.301187 
Q 382.00487 184.791187 382.52612 184.519312 
Q 383.049245 184.247437 383.675495 184.247437 
Q 384.99362 184.247437 385.75862 185.048062 
Q 386.52362 185.846812 386.52362 187.223062 
Q 386.52362 188.571187 385.726745 189.386812 
Q 384.92987 190.200562 383.60612 190.200562 
Q 382.08737 190.200562 381.28487 189.038062 
Q 380.48237 187.873687 380.48237 185.664937 
Q 380.48237 183.591187 381.466745 182.357437 
Q 382.45112 181.123687 384.10862 181.123687 
Q 384.55487 181.123687 385.00862 181.211812 
Q 385.46237 181.299937 385.955495 181.474312 
z
M 388.263386 181.281187 
L 393.888386 181.281187 
L 393.888386 181.785562 
L 390.712136 190.029937 
L 389.476511 190.029937 
L 392.465261 182.278687 
L 388.263386 182.278687 
L 388.263386 181.281187 
z
" clip-path="url(#pcddfa65a10)" style="fill: #ffffff"/>
    <path d="M 329.787761 195.691687 
L 329.787761 198.978562 
L 331.276511 198.978562 
Q 332.103386 198.978562 332.553386 198.551062 
Q 333.005261 198.123562 333.005261 197.332312 
Q 333.005261 196.546687 332.553386 196.119187 
Q 332.103386 195.691687 331.276511 195.691687 
L 329.787761 195.691687 
z
M 328.604636 194.718562 
L 331.276511 194.718562 
Q 332.748386 194.718562 333.500261 195.384187 
Q 334.254011 196.049812 334.254011 197.332312 
Q 334.254011 198.627937 333.500261 199.289812 
Q 332.748386 199.951687 331.276511 199.951687 
L 329.787761 199.951687 
L 329.787761 203.467312 
L 328.604636 203.467312 
L 328.604636 194.718562 
z
M 339.386589 197.911687 
Q 339.204714 197.806687 338.990964 197.757937 
Q 338.777214 197.707312 338.520339 197.707312 
Q 337.605339 197.707312 337.115964 198.301687 
Q 336.626589 198.896062 336.626589 200.009812 
L 336.626589 203.467312 
L 335.542839 203.467312 
L 335.542839 196.904812 
L 336.626589 196.904812 
L 336.626589 197.924812 
Q 336.967839 197.326687 337.511589 197.037937 
Q 338.057214 196.747312 338.837214 196.747312 
Q 338.947839 196.747312 339.082839 196.762312 
Q 339.217839 196.775437 339.380964 196.805437 
L 339.386589 197.911687 
z
M 342.790183 197.660437 
Q 341.923933 197.660437 341.419558 198.337312 
Q 340.915183 199.014187 340.915183 200.191687 
Q 340.915183 201.369187 341.415808 202.046062 
Q 341.918308 202.722937 342.790183 202.722937 
Q 343.652683 202.722937 344.155183 202.044187 
Q 344.659558 201.363562 344.659558 200.191687 
Q 344.659558 199.025437 344.155183 198.342937 
Q 343.652683 197.660437 342.790183 197.660437 
z
M 342.790183 196.747312 
Q 344.196433 196.747312 344.998933 197.662312 
Q 345.803308 198.575437 345.803308 200.191687 
Q 345.803308 201.802312 344.998933 202.721062 
Q 344.196433 203.637937 342.790183 203.637937 
Q 341.378308 203.637937 340.577683 202.721062 
Q 339.778933 201.802312 339.778933 200.191687 
Q 339.778933 198.575437 340.577683 197.662312 
Q 341.378308 196.747312 342.790183 196.747312 
z
M 348.656355 195.041062 
L 348.656355 196.904812 
L 350.876355 196.904812 
L 350.876355 197.742937 
L 348.656355 197.742937 
L 348.656355 201.305437 
Q 348.656355 202.107937 348.87573 202.336687 
Q 349.095105 202.565437 349.770105 202.565437 
L 350.876355 202.565437 
L 350.876355 203.467312 
L 349.770105 203.467312 
Q 348.521355 203.467312 348.04698 203.002312 
Q 347.572605 202.535437 347.572605 201.305437 
L 347.572605 197.742937 
L 346.781355 197.742937 
L 346.781355 196.904812 
L 347.572605 196.904812 
L 347.572605 195.041062 
L 348.656355 195.041062 
z
M 357.908308 199.916062 
L 357.908308 200.442937 
L 352.950808 200.442937 
Q 353.022058 201.556687 353.622058 202.139812 
Q 354.222058 202.722937 355.294558 202.722937 
Q 355.915183 202.722937 356.498308 202.571062 
Q 357.081433 202.419187 357.657058 202.113562 
L 357.657058 203.133562 
Q 357.075808 203.379187 356.466433 203.508562 
Q 355.857058 203.637937 355.230808 203.637937 
Q 353.659558 203.637937 352.742683 202.724812 
Q 351.825808 201.809812 351.825808 200.249812 
Q 351.825808 198.639187 352.695808 197.694187 
Q 353.565808 196.747312 355.043308 196.747312 
Q 356.367058 196.747312 357.137683 197.600437 
Q 357.908308 198.451687 357.908308 199.916062 
z
M 356.830183 199.599187 
Q 356.818933 198.716062 356.335183 198.189187 
Q 355.851433 197.660437 355.054558 197.660437 
Q 354.152683 197.660437 353.610808 198.170437 
Q 353.068933 198.680437 352.986433 199.606687 
L 356.830183 199.599187 
z
M 359.67737 196.904812 
L 360.755495 196.904812 
L 360.755495 203.467312 
L 359.67737 203.467312 
L 359.67737 196.904812 
z
M 359.67737 194.349187 
L 360.755495 194.349187 
L 360.755495 195.716062 
L 359.67737 195.716062 
L 359.67737 194.349187 
z
M 368.467605 199.505437 
L 368.467605 203.467312 
L 367.38948 203.467312 
L 367.38948 199.541062 
Q 367.38948 198.609187 367.02573 198.147937 
Q 366.66198 197.684812 365.936355 197.684812 
Q 365.062605 197.684812 364.55823 198.241687 
Q 364.053855 198.796687 364.053855 199.758562 
L 364.053855 203.467312 
L 362.970105 203.467312 
L 362.970105 196.904812 
L 364.053855 196.904812 
L 364.053855 197.924812 
Q 364.44198 197.332312 364.965105 197.039812 
Q 365.490105 196.747312 366.176355 196.747312 
Q 367.30698 196.747312 367.886355 197.446687 
Q 368.467605 198.146062 368.467605 199.505437 
z
" clip-path="url(#pcddfa65a10)" style="fill: #ffffff; stroke: #000000; stroke-width: 2"/>
    <path d="M 329.787761 195.691687 
L 329.787761 198.978562 
L 331.276511 198.978562 
Q 332.103386 198.978562 332.553386 198.551062 
Q 333.005261 198.123562 333.005261 197.332312 
Q 333.005261 196.546687 332.553386 196.119187 
Q 332.103386 195.691687 331.276511 195.691687 
L 329.787761 195.691687 
z
M 328.604636 194.718562 
L 331.276511 194.718562 
Q 332.748386 194.718562 333.500261 195.384187 
Q 334.254011 196.049812 334.254011 197.332312 
Q 334.254011 198.627937 333.500261 199.289812 
Q 332.748386 199.951687 331.276511 199.951687 
L 329.787761 199.951687 
L 329.787761 203.467312 
L 328.604636 203.467312 
L 328.604636 194.718562 
z
M 339.386589 197.911687 
Q 339.204714 197.806687 338.990964 197.757937 
Q 338.777214 197.707312 338.520339 197.707312 
Q 337.605339 197.707312 337.115964 198.301687 
Q 336.626589 198.896062 336.626589 200.009812 
L 336.626589 203.467312 
L 335.542839 203.467312 
L 335.542839 196.904812 
L 336.626589 196.904812 
L 336.626589 197.924812 
Q 336.967839 197.326687 337.511589 197.037937 
Q 338.057214 196.747312 338.837214 196.747312 
Q 338.947839 196.747312 339.082839 196.762312 
Q 339.217839 196.775437 339.380964 196.805437 
L 339.386589 197.911687 
z
M 342.790183 197.660437 
Q 341.923933 197.660437 341.419558 198.337312 
Q 340.915183 199.014187 340.915183 200.191687 
Q 340.915183 201.369187 341.415808 202.046062 
Q 341.918308 202.722937 342.790183 202.722937 
Q 343.652683 202.722937 344.155183 202.044187 
Q 344.659558 201.363562 344.659558 200.191687 
Q 344.659558 199.025437 344.155183 198.342937 
Q 343.652683 197.660437 342.790183 197.660437 
z
M 342.790183 196.747312 
Q 344.196433 196.747312 344.998933 197.662312 
Q 345.803308 198.575437 345.803308 200.191687 
Q 345.803308 201.802312 344.998933 202.721062 
Q 344.196433 203.637937 342.790183 203.637937 
Q 341.378308 203.637937 340.577683 202.721062 
Q 339.778933 201.802312 339.778933 200.191687 
Q 339.778933 198.575437 340.577683 197.662312 
Q 341.378308 196.747312 342.790183 196.747312 
z
M 348.656355 195.041062 
L 348.656355 196.904812 
L 350.876355 196.904812 
L 350.876355 197.742937 
L 348.656355 197.742937 
L 348.656355 201.305437 
Q 348.656355 202.107937 348.87573 202.336687 
Q 349.095105 202.565437 349.770105 202.565437 
L 350.876355 202.565437 
L 350.876355 203.467312 
L 349.770105 203.467312 
Q 348.521355 203.467312 348.04698 203.002312 
Q 347.572605 202.535437 347.572605 201.305437 
L 347.572605 197.742937 
L 346.781355 197.742937 
L 346.781355 196.904812 
L 347.572605 196.904812 
L 347.572605 195.041062 
L 348.656355 195.041062 
z
M 357.908308 199.916062 
L 357.908308 200.442937 
L 352.950808 200.442937 
Q 353.022058 201.556687 353.622058 202.139812 
Q 354.222058 202.722937 355.294558 202.722937 
Q 355.915183 202.722937 356.498308 202.571062 
Q 357.081433 202.419187 357.657058 202.113562 
L 357.657058 203.133562 
Q 357.075808 203.379187 356.466433 203.508562 
Q 355.857058 203.637937 355.230808 203.637937 
Q 353.659558 203.637937 352.742683 202.724812 
Q 351.825808 201.809812 351.825808 200.249812 
Q 351.825808 198.639187 352.695808 197.694187 
Q 353.565808 196.747312 355.043308 196.747312 
Q 356.367058 196.747312 357.137683 197.600437 
Q 357.908308 198.451687 357.908308 199.916062 
z
M 356.830183 199.599187 
Q 356.818933 198.716062 356.335183 198.189187 
Q 355.851433 197.660437 355.054558 197.660437 
Q 354.152683 197.660437 353.610808 198.170437 
Q 353.068933 198.680437 352.986433 199.606687 
L 356.830183 199.599187 
z
M 359.67737 196.904812 
L 360.755495 196.904812 
L 360.755495 203.467312 
L 359.67737 203.467312 
L 359.67737 196.904812 
z
M 359.67737 194.349187 
L 360.755495 194.349187 
L 360.755495 195.716062 
L 359.67737 195.716062 
L 359.67737 194.349187 
z
M 368.467605 199.505437 
L 368.467605 203.467312 
L 367.38948 203.467312 
L 367.38948 199.541062 
Q 367.38948 198.609187 367.02573 198.147937 
Q 366.66198 197.684812 365.936355 197.684812 
Q 365.062605 197.684812 364.55823 198.241687 
Q 364.053855 198.796687 364.053855 199.758562 
L 364.053855 203.467312 
L 362.970105 203.467312 
L 362.970105 196.904812 
L 364.053855 196.904812 
L 364.053855 197.924812 
Q 364.44198 197.332312 364.965105 197.039812 
Q 365.490105 196.747312 366.176355 196.747312 
Q 367.30698 196.747312 367.886355 197.446687 
Q 368.467605 198.146062 368.467605 199.505437 
z
" clip-path="url(#pcddfa65a10)" style="fill: #ffffff"/>
   </g>
   <g id="text_7">
    <g clip-path="url(#pcddfa65a10)">
     <!-- mepyramine -->
     <g transform="translate(81.914706 169.873875)scale(0.12 -0.12)">
      <defs>
       <path id="DejaVuSans-6d" d="M 3328 2828 
Q 3544 3216 3844 3400 
Q 4144 3584 4550 3584 
Q 5097 3584 5394 3201 
Q 5691 2819 5691 2113 
L 5691 0 
L 5113 0 
L 5113 2094 
Q 5113 2597 4934 2840 
Q 4756 3084 4391 3084 
Q 3944 3084 3684 2787 
Q 3425 2491 3425 1978 
L 3425 0 
L 2847 0 
L 2847 2094 
Q 2847 2600 2669 2842 
Q 2491 3084 2119 3084 
Q 1678 3084 1418 2786 
Q 1159 2488 1159 1978 
L 1159 0 
L 581 0 
L 581 3500 
L 1159 3500 
L 1159 2956 
Q 1356 3278 1631 3431 
Q 1906 3584 2284 3584 
Q 2666 3584 2933 3390 
Q 3200 3197 3328 2828 
z
" transform="scale(0.015625)"/>
      </defs>
      <use xlink:href="#DejaVuSans-6d"/>
      <use xlink:href="#DejaVuSans-65" x="97.412109"/>
      <use xlink:href="#DejaVuSans-70" x="158.935547"/>
      <use xlink:href="#DejaVuSans-79" x="222.412109"/>
      <use xlink:href="#DejaVuSans-72" x="281.591797"/>
      <use xlink:href="#DejaVuSans-61" x="322.705078"/>
      <use xlink:href="#DejaVuSans-6d" x="383.984375"/>
      <use xlink:href="#DejaVuSans-69" x="481.396484"/>
      <use xlink:href="#DejaVuSans-6e" x="509.179688"/>
      <use xlink:href="#DejaVuSans-65" x="572.558594"/>
     </g>
    </g>
    <g clip-path="url(#pcddfa65a10)">
     <!-- MESH:D011738 -->
     <g transform="translate(73.124706 183.31125)scale(0.12 -0.12)">
      <defs>
       <path id="DejaVuSans-4d" d="M 628 4666 
L 1569 4666 
L 2759 1491 
L 3956 4666 
L 4897 4666 
L 4897 0 
L 4281 0 
L 4281 4097 
L 3078 897 
L 2444 897 
L 1241 4097 
L 1241 0 
L 628 0 
L 628 4666 
z
" transform="scale(0.015625)"/>
       <path id="DejaVuSans-45" d="M 628 4666 
L 3578 4666 
L 3578 4134 
L 1259 4134 
L 1259 2753 
L 3481 2753 
L 3481 2222 
L 1259 2222 
L 1259 531 
L 3634 531 
L 3634 0 
L 628 0 
L 628 4666 
z
" transform="scale(0.015625)"/>
       <path id="DejaVuSans-53" d="M 3425 4513 
L 3425 3897 
Q 3066 4069 2747 4153 
Q 2428 4238 2131 4238 
Q 1616 4238 1336 4038 
Q 1056 3838 1056 3469 
Q 1056 3159 1242 3001 
Q 1428 2844 1947 2747 
L 2328 2669 
Q 3034 2534 3370 2195 
Q 3706 1856 3706 1288 
Q 3706 609 3251 259 
Q 2797 -91 1919 -91 
Q 1588 -91 1214 -16 
Q 841 59 441 206 
L 441 856 
Q 825 641 1194 531 
Q 1563 422 1919 422 
Q 2459 422 2753 634 
Q 3047 847 3047 1241 
Q 3047 1584 2836 1778 
Q 2625 1972 2144 2069 
L 1759 2144 
Q 1053 2284 737 2584 
Q 422 2884 422 3419 
Q 422 4038 858 4394 
Q 1294 4750 2059 4750 
Q 2388 4750 2728 4690 
Q 3069 4631 3425 4513 
z
" transform="scale(0.015625)"/>
       <path id="DejaVuSans-48" d="M 628 4666 
L 1259 4666 
L 1259 2753 
L 3553 2753 
L 3553 4666 
L 4184 4666 
L 4184 0 
L 3553 0 
L 3553 2222 
L 1259 2222 
L 1259 0 
L 628 0 
L 628 4666 
z
" transform="scale(0.015625)"/>
       <path id="DejaVuSans-3a" d="M 750 794 
L 1409 794 
L 1409 0 
L 750 0 
L 750 794 
z
M 750 3309 
L 1409 3309 
L 1409 2516 
L 750 2516 
L 750 3309 
z
" transform="scale(0.015625)"/>
       <path id="DejaVuSans-44" d="M 1259 4147 
L 1259 519 
L 2022 519 
Q 2988 519 3436 956 
Q 3884 1394 3884 2338 
Q 3884 3275 3436 3711 
Q 2988 4147 2022 4147 
L 1259 4147 
z
M 628 4666 
L 1925 4666 
Q 3281 4666 3915 4102 
Q 4550 3538 4550 2338 
Q 4550 1131 3912 565 
Q 3275 0 1925 0 
L 628 0 
L 628 4666 
z
" transform="scale(0.015625)"/>
       <path id="DejaVuSans-30" d="M 2034 4250 
Q 1547 4250 1301 3770 
Q 1056 3291 1056 2328 
Q 1056 1369 1301 889 
Q 1547 409 2034 409 
Q 2525 409 2770 889 
Q 3016 1369 3016 2328 
Q 3016 3291 2770 3770 
Q 2525 4250 2034 4250 
z
M 2034 4750 
Q 2819 4750 3233 4129 
Q 3647 3509 3647 2328 
Q 3647 1150 3233 529 
Q 2819 -91 2034 -91 
Q 1250 -91 836 529 
Q 422 1150 422 2328 
Q 422 3509 836 4129 
Q 1250 4750 2034 4750 
z
" transform="scale(0.015625)"/>
       <path id="DejaVuSans-31" d="M 794 531 
L 1825 531 
L 1825 4091 
L 703 3866 
L 703 4441 
L 1819 4666 
L 2450 4666 
L 2450 531 
L 3481 531 
L 3481 0 
L 794 0 
L 794 531 
z
" transform="scale(0.015625)"/>
       <path id="DejaVuSans-37" d="M 525 4666 
L 3525 4666 
L 3525 4397 
L 1831 0 
L 1172 0 
L 2766 4134 
L 525 4134 
L 525 4666 
z
" transform="scale(0.015625)"/>
       <path id="DejaVuSans-33" d="M 2597 2516 
Q 3050 2419 3304 2112 
Q 3559 1806 3559 1356 
Q 3559 666 3084 287 
Q 2609 -91 1734 -91 
Q 1441 -91 1130 -33 
Q 819 25 488 141 
L 488 750 
Q 750 597 1062 519 
Q 1375 441 1716 441 
Q 2309 441 2620 675 
Q 2931 909 2931 1356 
Q 2931 1769 2642 2001 
Q 2353 2234 1838 2234 
L 1294 2234 
L 1294 2753 
L 1863 2753 
Q 2328 2753 2575 2939 
Q 2822 3125 2822 3475 
Q 2822 3834 2567 4026 
Q 2313 4219 1838 4219 
Q 1578 4219 1281 4162 
Q 984 4106 628 3988 
L 628 4550 
Q 988 4650 1302 4700 
Q 1616 4750 1894 4750 
Q 2613 4750 3031 4423 
Q 3450 4097 3450 3541 
Q 3450 3153 3228 2886 
Q 3006 2619 2597 2516 
z
" transform="scale(0.015625)"/>
       <path id="DejaVuSans-38" d="M 2034 2216 
Q 1584 2216 1326 1975 
Q 1069 1734 1069 1313 
Q 1069 891 1326 650 
Q 1584 409 2034 409 
Q 2484 409 2743 651 
Q 3003 894 3003 1313 
Q 3003 1734 2745 1975 
Q 2488 2216 2034 2216 
z
M 1403 2484 
Q 997 2584 770 2862 
Q 544 3141 544 3541 
Q 544 4100 942 4425 
Q 1341 4750 2034 4750 
Q 2731 4750 3128 4425 
Q 3525 4100 3525 3541 
Q 3525 3141 3298 2862 
Q 3072 2584 2669 2484 
Q 3125 2378 3379 2068 
Q 3634 1759 3634 1313 
Q 3634 634 3220 271 
Q 2806 -91 2034 -91 
Q 1263 -91 848 271 
Q 434 634 434 1313 
Q 434 1759 690 2068 
Q 947 2378 1403 2484 
z
M 1172 3481 
Q 1172 3119 1398 2916 
Q 1625 2713 2034 2713 
Q 2441 2713 2670 2916 
Q 2900 3119 2900 3481 
Q 2900 3844 2670 4047 
Q 2441 4250 2034 4250 
Q 1625 4250 1398 4047 
Q 1172 3844 1172 3481 
z
" transform="scale(0.015625)"/>
      </defs>
      <use xlink:href="#DejaVuSans-4d"/>
      <use xlink:href="#DejaVuSans-45" x="86.279297"/>
      <use xlink:href="#DejaVuSans-53" x="149.462891"/>
      <use xlink:href="#DejaVuSans-48" x="212.939453"/>
      <use xlink:href="#DejaVuSans-3a" x="288.134766"/>
      <use xlink:href="#DejaVuSans-44" x="321.826172"/>
      <use xlink:href="#DejaVuSans-30" x="398.828125"/>
      <use xlink:href="#DejaVuSans-31" x="462.451172"/>
      <use xlink:href="#DejaVuSans-31" x="526.074219"/>
      <use xlink:href="#DejaVuSans-37" x="589.697266"/>
      <use xlink:href="#DejaVuSans-33" x="653.320312"/>
      <use xlink:href="#DejaVuSans-38" x="716.943359"/>
     </g>
    </g>
    <g clip-path="url(#pcddfa65a10)">
     <!-- Drug -->
     <g transform="translate(105.262206 196.748625)scale(0.12 -0.12)">
      <use xlink:href="#DejaVuSans-44"/>
      <use xlink:href="#DejaVuSans-72" x="77.001953"/>
      <use xlink:href="#DejaVuSans-75" x="118.115234"/>
      <use xlink:href="#DejaVuSans-67" x="181.494141"/>
     </g>
    </g>
   </g>
   <g id="text_8">
    <g clip-path="url(#pcddfa65a10)">
     <!-- Histamine -->
     <g transform="translate(546.612691 169.873875)scale(0.12 -0.12)">
      <use xlink:href="#DejaVuSans-48"/>
      <use xlink:href="#DejaVuSans-69" x="75.195312"/>
      <use xlink:href="#DejaVuSans-73" x="102.978516"/>
      <use xlink:href="#DejaVuSans-74" x="155.078125"/>
      <use xlink:href="#DejaVuSans-61" x="194.287109"/>
      <use xlink:href="#DejaVuSans-6d" x="255.566406"/>
      <use xlink:href="#DejaVuSans-69" x="352.978516"/>
      <use xlink:href="#DejaVuSans-6e" x="380.761719"/>
      <use xlink:href="#DejaVuSans-65" x="444.140625"/>
     </g>
    </g>
    <g clip-path="url(#pcddfa65a10)">
     <!-- MESH:D006632 -->
     <g transform="translate(530.116441 183.31125)scale(0.12 -0.12)">
      <defs>
       <path id="DejaVuSans-36" d="M 2113 2584 
Q 1688 2584 1439 2293 
Q 1191 2003 1191 1497 
Q 1191 994 1439 701 
Q 1688 409 2113 409 
Q 2538 409 2786 701 
Q 3034 994 3034 1497 
Q 3034 2003 2786 2293 
Q 2538 2584 2113 2584 
z
M 3366 4563 
L 3366 3988 
Q 3128 4100 2886 4159 
Q 2644 4219 2406 4219 
Q 1781 4219 1451 3797 
Q 1122 3375 1075 2522 
Q 1259 2794 1537 2939 
Q 1816 3084 2150 3084 
Q 2853 3084 3261 2657 
Q 3669 2231 3669 1497 
Q 3669 778 3244 343 
Q 2819 -91 2113 -91 
Q 1303 -91 875 529 
Q 447 1150 447 2328 
Q 447 3434 972 4092 
Q 1497 4750 2381 4750 
Q 2619 4750 2861 4703 
Q 3103 4656 3366 4563 
z
" transform="scale(0.015625)"/>
       <path id="DejaVuSans-32" d="M 1228 531 
L 3431 531 
L 3431 0 
L 469 0 
L 469 531 
Q 828 903 1448 1529 
Q 2069 2156 2228 2338 
Q 2531 2678 2651 2914 
Q 2772 3150 2772 3378 
Q 2772 3750 2511 3984 
Q 2250 4219 1831 4219 
Q 1534 4219 1204 4116 
Q 875 4013 500 3803 
L 500 4441 
Q 881 4594 1212 4672 
Q 1544 4750 1819 4750 
Q 2544 4750 2975 4387 
Q 3406 4025 3406 3419 
Q 3406 3131 3298 2873 
Q 3191 2616 2906 2266 
Q 2828 2175 2409 1742 
Q 1991 1309 1228 531 
z
" transform="scale(0.015625)"/>
      </defs>
      <use xlink:href="#DejaVuSans-4d"/>
      <use xlink:href="#DejaVuSans-45" x="86.279297"/>
      <use xlink:href="#DejaVuSans-53" x="149.462891"/>
      <use xlink:href="#DejaVuSans-48" x="212.939453"/>
      <use xlink:href="#DejaVuSans-3a" x="288.134766"/>
      <use xlink:href="#DejaVuSans-44" x="321.826172"/>
      <use xlink:href="#DejaVuSans-30" x="398.828125"/>
      <use xlink:href="#DejaVuSans-30" x="462.451172"/>
      <use xlink:href="#DejaVuSans-36" x="526.074219"/>
      <use xlink:href="#DejaVuSans-36" x="589.697266"/>
      <use xlink:href="#DejaVuSans-33" x="653.320312"/>
      <use xlink:href="#DejaVuSans-32" x="716.943359"/>
     </g>
    </g>
    <g clip-path="url(#pcddfa65a10)">
     <!-- ChemicalSubstance -->
     <g transform="translate(517.745191 196.748625)scale(0.12 -0.12)">
      <defs>
       <path id="DejaVuSans-43" d="M 4122 4306 
L 4122 3641 
Q 3803 3938 3442 4084 
Q 3081 4231 2675 4231 
Q 1875 4231 1450 3742 
Q 1025 3253 1025 2328 
Q 1025 1406 1450 917 
Q 1875 428 2675 428 
Q 3081 428 3442 575 
Q 3803 722 4122 1019 
L 4122 359 
Q 3791 134 3420 21 
Q 3050 -91 2638 -91 
Q 1578 -91 968 557 
Q 359 1206 359 2328 
Q 359 3453 968 4101 
Q 1578 4750 2638 4750 
Q 3056 4750 3426 4639 
Q 3797 4528 4122 4306 
z
" transform="scale(0.015625)"/>
      </defs>
      <use xlink:href="#DejaVuSans-43"/>
      <use xlink:href="#DejaVuSans-68" x="69.824219"/>
      <use xlink:href="#DejaVuSans-65" x="133.203125"/>
      <use xlink:href="#DejaVuSans-6d" x="194.726562"/>
      <use xlink:href="#DejaVuSans-69" x="292.138672"/>
      <use xlink:href="#DejaVuSans-63" x="319.921875"/>
      <use xlink:href="#DejaVuSans-61" x="374.902344"/>
      <use xlink:href="#DejaVuSans-6c" x="436.181641"/>
      <use xlink:href="#DejaVuSans-53" x="463.964844"/>
      <use xlink:href="#DejaVuSans-75" x="527.441406"/>
      <use xlink:href="#DejaVuSans-62" x="590.820312"/>
      <use xlink:href="#DejaVuSans-73" x="654.296875"/>
      <use xlink:href="#DejaVuSans-74" x="706.396484"/>
      <use xlink:href="#DejaVuSans-61" x="745.605469"/>
      <use xlink:href="#DejaVuSans-6e" x="806.884766"/>
      <use xlink:href="#DejaVuSans-63" x="870.263672"/>
      <use xlink:href="#DejaVuSans-65" x="925.244141"/>
     </g>
    </g>
   </g>
   <g id="text_9">
    <g clip-path="url(#pcddfa65a10)">
     <!-- Substance P -->
     <g transform="translate(768.554496 169.873875)scale(0.12 -0.12)">
      <defs>
       <path id="DejaVuSans-50" d="M 1259 4147 
L 1259 2394 
L 2053 2394 
Q 2494 2394 2734 2622 
Q 2975 2850 2975 3272 
Q 2975 3691 2734 3919 
Q 2494 4147 2053 4147 
L 1259 4147 
z
M 628 4666 
L 2053 4666 
Q 2838 4666 3239 4311 
Q 3641 3956 3641 3272 
Q 3641 2581 3239 2228 
Q 2838 1875 2053 1875 
L 1259 1875 
L 1259 0 
L 628 0 
L 628 4666 
z
" transform="scale(0.015625)"/>
      </defs>
      <use xlink:href="#DejaVuSans-53"/>
      <use xlink:href="#DejaVuSans-75" x="63.476562"/>
      <use xlink:href="#DejaVuSans-62" x="126.855469"/>
      <use xlink:href="#DejaVuSans-73" x="190.332031"/>
      <use xlink:href="#DejaVuSans-74" x="242.431641"/>
      <use xlink:href="#DejaVuSans-61" x="281.640625"/>
      <use xlink:href="#DejaVuSans-6e" x="342.919922"/>
      <use xlink:href="#DejaVuSans-63" x="406.298828"/>
      <use xlink:href="#DejaVuSans-65" x="461.279297"/>
      <use xlink:href="#DejaVuSans-20" x="522.802734"/>
      <use xlink:href="#DejaVuSans-50" x="554.589844"/>
     </g>
    </g>
    <g clip-path="url(#pcddfa65a10)">
     <!-- MESH:D013373 -->
     <g transform="translate(758.612309 183.31125)scale(0.12 -0.12)">
      <use xlink:href="#DejaVuSans-4d"/>
      <use xlink:href="#DejaVuSans-45" x="86.279297"/>
      <use xlink:href="#DejaVuSans-53" x="149.462891"/>
      <use xlink:href="#DejaVuSans-48" x="212.939453"/>
      <use xlink:href="#DejaVuSans-3a" x="288.134766"/>
      <use xlink:href="#DejaVuSans-44" x="321.826172"/>
      <use xlink:href="#DejaVuSans-30" x="398.828125"/>
      <use xlink:href="#DejaVuSans-31" x="462.451172"/>
      <use xlink:href="#DejaVuSans-33" x="526.074219"/>
      <use xlink:href="#DejaVuSans-33" x="589.697266"/>
      <use xlink:href="#DejaVuSans-37" x="653.320312"/>
      <use xlink:href="#DejaVuSans-33" x="716.943359"/>
     </g>
    </g>
    <g clip-path="url(#pcddfa65a10)">
     <!-- ChemicalSubstance -->
     <g transform="translate(746.241059 196.748625)scale(0.12 -0.12)">
      <use xlink:href="#DejaVuSans-43"/>
      <use xlink:href="#DejaVuSans-68" x="69.824219"/>
      <use xlink:href="#DejaVuSans-65" x="133.203125"/>
      <use xlink:href="#DejaVuSans-6d" x="194.726562"/>
      <use xlink:href="#DejaVuSans-69" x="292.138672"/>
      <use xlink:href="#DejaVuSans-63" x="319.921875"/>
      <use xlink:href="#DejaVuSans-61" x="374.902344"/>
      <use xlink:href="#DejaVuSans-6c" x="436.181641"/>
      <use xlink:href="#DejaVuSans-53" x="463.964844"/>
      <use xlink:href="#DejaVuSans-75" x="527.441406"/>
      <use xlink:href="#DejaVuSans-62" x="590.820312"/>
      <use xlink:href="#DejaVuSans-73" x="654.296875"/>
      <use xlink:href="#DejaVuSans-74" x="706.396484"/>
      <use xlink:href="#DejaVuSans-61" x="745.605469"/>
      <use xlink:href="#DejaVuSans-6e" x="806.884766"/>
      <use xlink:href="#DejaVuSans-63" x="870.263672"/>
      <use xlink:href="#DejaVuSans-65" x="925.244141"/>
     </g>
    </g>
   </g>
   <g id="text_10">
    <g clip-path="url(#pcddfa65a10)">
     <!-- Neurogenic -->
     <g transform="translate(999.688489 163.155187)scale(0.12 -0.12)">
      <defs>
       <path id="DejaVuSans-4e" d="M 628 4666 
L 1478 4666 
L 3547 763 
L 3547 4666 
L 4159 4666 
L 4159 0 
L 3309 0 
L 1241 3903 
L 1241 0 
L 628 0 
L 628 4666 
z
" transform="scale(0.015625)"/>
      </defs>
      <use xlink:href="#DejaVuSans-4e"/>
      <use xlink:href="#DejaVuSans-65" x="74.804688"/>
      <use xlink:href="#DejaVuSans-75" x="136.328125"/>
      <use xlink:href="#DejaVuSans-72" x="199.707031"/>
      <use xlink:href="#DejaVuSans-6f" x="238.570312"/>
      <use xlink:href="#DejaVuSans-67" x="299.751953"/>
      <use xlink:href="#DejaVuSans-65" x="363.228516"/>
      <use xlink:href="#DejaVuSans-6e" x="424.751953"/>
      <use xlink:href="#DejaVuSans-69" x="488.130859"/>
      <use xlink:href="#DejaVuSans-63" x="515.914062"/>
     </g>
    </g>
    <g clip-path="url(#pcddfa65a10)">
     <!-- Inflammation -->
     <g transform="translate(994.056927 176.592562)scale(0.12 -0.12)">
      <defs>
       <path id="DejaVuSans-49" d="M 628 4666 
L 1259 4666 
L 1259 0 
L 628 0 
L 628 4666 
z
" transform="scale(0.015625)"/>
      </defs>
      <use xlink:href="#DejaVuSans-49"/>
      <use xlink:href="#DejaVuSans-6e" x="29.492188"/>
      <use xlink:href="#DejaVuSans-66" x="92.871094"/>
      <use xlink:href="#DejaVuSans-6c" x="128.076172"/>
      <use xlink:href="#DejaVuSans-61" x="155.859375"/>
      <use xlink:href="#DejaVuSans-6d" x="217.138672"/>
      <use xlink:href="#DejaVuSans-6d" x="314.550781"/>
      <use xlink:href="#DejaVuSans-61" x="411.962891"/>
      <use xlink:href="#DejaVuSans-74" x="473.242188"/>
      <use xlink:href="#DejaVuSans-69" x="512.451172"/>
      <use xlink:href="#DejaVuSans-6f" x="540.234375"/>
      <use xlink:href="#DejaVuSans-6e" x="601.416016"/>
     </g>
    </g>
    <g clip-path="url(#pcddfa65a10)">
     <!-- MESH:D020078 -->
     <g transform="translate(987.108177 190.029937)scale(0.12 -0.12)">
      <use xlink:href="#DejaVuSans-4d"/>
      <use xlink:href="#DejaVuSans-45" x="86.279297"/>
      <use xlink:href="#DejaVuSans-53" x="149.462891"/>
      <use xlink:href="#DejaVuSans-48" x="212.939453"/>
      <use xlink:href="#DejaVuSans-3a" x="288.134766"/>
      <use xlink:href="#DejaVuSans-44" x="321.826172"/>
      <use xlink:href="#DejaVuSans-30" x="398.828125"/>
      <use xlink:href="#DejaVuSans-32" x="462.451172"/>
      <use xlink:href="#DejaVuSans-30" x="526.074219"/>
      <use xlink:href="#DejaVuSans-30" x="589.697266"/>
      <use xlink:href="#DejaVuSans-37" x="653.320312"/>
      <use xlink:href="#DejaVuSans-38" x="716.943359"/>
     </g>
    </g>
    <g clip-path="url(#pcddfa65a10)">
     <!-- Disease -->
     <g transform="translate(1010.345052 203.467312)scale(0.12 -0.12)">
      <use xlink:href="#DejaVuSans-44"/>
      <use xlink:href="#DejaVuSans-69" x="77.001953"/>
      <use xlink:href="#DejaVuSans-73" x="104.785156"/>
      <use xlink:href="#DejaVuSans-65" x="156.884766"/>
      <use xlink:href="#DejaVuSans-61" x="218.408203"/>
      <use xlink:href="#DejaVuSans-73" x="279.6875"/>
      <use xlink:href="#DejaVuSans-65" x="331.787109"/>
     </g>
    </g>
   </g>
   <g id="text_11">
    <g clip-path="url(#pcddfa65a10)">
     <!-- Vasomotor -->
     <g transform="translate(1230.320919 163.155187)scale(0.12 -0.12)">
      <defs>
       <path id="DejaVuSans-56" d="M 1831 0 
L 50 4666 
L 709 4666 
L 2188 738 
L 3669 4666 
L 4325 4666 
L 2547 0 
L 1831 0 
z
" transform="scale(0.015625)"/>
      </defs>
      <use xlink:href="#DejaVuSans-56"/>
      <use xlink:href="#DejaVuSans-61" x="60.658203"/>
      <use xlink:href="#DejaVuSans-73" x="121.9375"/>
      <use xlink:href="#DejaVuSans-6f" x="174.037109"/>
      <use xlink:href="#DejaVuSans-6d" x="235.21875"/>
      <use xlink:href="#DejaVuSans-6f" x="332.630859"/>
      <use xlink:href="#DejaVuSans-74" x="393.8125"/>
      <use xlink:href="#DejaVuSans-6f" x="433.021484"/>
      <use xlink:href="#DejaVuSans-72" x="494.203125"/>
     </g>
    </g>
    <g clip-path="url(#pcddfa65a10)">
     <!-- rhinitis -->
     <g transform="translate(1241.994669 176.592562)scale(0.12 -0.12)">
      <use xlink:href="#DejaVuSans-72"/>
      <use xlink:href="#DejaVuSans-68" x="39.363281"/>
      <use xlink:href="#DejaVuSans-69" x="102.742188"/>
      <use xlink:href="#DejaVuSans-6e" x="130.525391"/>
      <use xlink:href="#DejaVuSans-69" x="193.904297"/>
      <use xlink:href="#DejaVuSans-74" x="221.6875"/>
      <use xlink:href="#DejaVuSans-69" x="260.896484"/>
      <use xlink:href="#DejaVuSans-73" x="288.679688"/>
     </g>
    </g>
    <g clip-path="url(#pcddfa65a10)">
     <!-- MESH:D012223 -->
     <g transform="translate(1215.604044 190.029937)scale(0.12 -0.12)">
      <use xlink:href="#DejaVuSans-4d"/>
      <use xlink:href="#DejaVuSans-45" x="86.279297"/>
      <use xlink:href="#DejaVuSans-53" x="149.462891"/>
      <use xlink:href="#DejaVuSans-48" x="212.939453"/>
      <use xlink:href="#DejaVuSans-3a" x="288.134766"/>
      <use xlink:href="#DejaVuSans-44" x="321.826172"/>
      <use xlink:href="#DejaVuSans-30" x="398.828125"/>
      <use xlink:href="#DejaVuSans-31" x="462.451172"/>
      <use xlink:href="#DejaVuSans-32" x="526.074219"/>
      <use xlink:href="#DejaVuSans-32" x="589.697266"/>
      <use xlink:href="#DejaVuSans-32" x="653.320312"/>
      <use xlink:href="#DejaVuSans-33" x="716.943359"/>
     </g>
    </g>
    <g clip-path="url(#pcddfa65a10)">
     <!-- Disease -->
     <g transform="translate(1238.840919 203.467312)scale(0.12 -0.12)">
      <use xlink:href="#DejaVuSans-44"/>
      <use xlink:href="#DejaVuSans-69" x="77.001953"/>
      <use xlink:href="#DejaVuSans-73" x="104.785156"/>
      <use xlink:href="#DejaVuSans-65" x="156.884766"/>
      <use xlink:href="#DejaVuSans-61" x="218.408203"/>
      <use xlink:href="#DejaVuSans-73" x="279.6875"/>
      <use xlink:href="#DejaVuSans-65" x="331.787109"/>
     </g>
    </g>
   </g>
  </g>
 </g>
 <defs>
  <clipPath id="pcddfa65a10">
   <rect x="0" y="0" width="1382.4" height="360"/>
  </clipPath>
 </defs>
</svg>
