<?xml version="1.0" encoding="utf-8" standalone="no"?>
<!DOCTYPE svg PUBLIC "-//W3C//DTD SVG 1.1//EN"
  "http://www.w3.org/Graphics/SVG/1.1/DTD/svg11.dtd">
<svg xmlns:xlink="http://www.w3.org/1999/xlink" width="1209.6pt" height="360pt" viewBox="0 0 1209.6 360" xmlns="http://www.w3.org/2000/svg" version="1.1">
 <metadata>
  <rdf:RDF xmlns:dc="http://purl.org/dc/elements/1.1/" xmlns:cc="http://creativecommons.org/ns#" xmlns:rdf="http://www.w3.org/1999/02/22-rdf-syntax-ns#">
   <cc:Work>
    <dc:type rdf:resource="http://purl.org/dc/dcmitype/StillImage"/>
    <dc:date>2023-02-08T08:51:06.286599</dc:date>
    <dc:format>image/svg+xml</dc:format>
    <dc:creator>
     <cc:Agent>
      <dc:title>Matplotlib v3.5.1, https://matplotlib.org/</dc:title>
     </cc:Agent>
    </dc:creator>
   </cc:Work>
  </rdf:RDF>
 </metadata>
 <defs>
  <style type="text/css">*{stroke-linejoin: round; stroke-linecap: butt}</style>
 </defs>
 <g id="figure_1">
  <g id="patch_1">
   <path d="M 0 360 
L 1209.6 360 
L 1209.6 0 
L 0 0 
z
" style="fill: #ffffff"/>
  </g>
  <g id="axes_1">
   <g id="patch_2">
    <path d="M 157.403851 180 
Q 229.923128 180 299.088304 180 
" clip-path="url(#p7316541938)" style="fill: none; stroke: #2ca02c; stroke-width: 3; stroke-linecap: round"/>
    <path d="M 295.088304 178 
L 299.088304 180 
L 295.088304 182 
L 295.088304 178 
z
" clip-path="url(#p7316541938)" style="fill: #2ca02c; stroke: #2ca02c; stroke-width: 3; stroke-linecap: round"/>
   </g>
   <g id="patch_3">
    <path d="M 407.321206 180 
Q 479.840484 180 549.00566 180 
" clip-path="url(#p7316541938)" style="fill: none; stroke: #2ca02c; stroke-width: 3; stroke-linecap: round"/>
    <path d="M 545.00566 178 
L 549.00566 180 
L 545.00566 182 
L 545.00566 178 
z
" clip-path="url(#p7316541938)" style="fill: #2ca02c; stroke: #2ca02c; stroke-width: 3; stroke-linecap: round"/>
   </g>
   <g id="patch_4">
    <path d="M 657.238561 180 
Q 729.757839 180 798.923015 180 
" clip-path="url(#p7316541938)" style="fill: none; stroke: #2ca02c; stroke-width: 3; stroke-linecap: round"/>
    <path d="M 794.923015 178 
L 798.923015 180 
L 794.923015 182 
L 794.923015 178 
z
" clip-path="url(#p7316541938)" style="fill: #2ca02c; stroke: #2ca02c; stroke-width: 3; stroke-linecap: round"/>
   </g>
   <g id="patch_5">
    <path d="M 907.155917 180 
Q 979.675195 180 1048.840371 180 
" clip-path="url(#p7316541938)" style="fill: none; stroke: #2ca02c; stroke-width: 3; stroke-linecap: round"/>
    <path d="M 1044.840371 178 
L 1048.840371 180 
L 1044.840371 182 
L 1044.840371 178 
z
" clip-path="url(#p7316541938)" style="fill: #2ca02c; stroke: #2ca02c; stroke-width: 3; stroke-linecap: round"/>
   </g>
   <g id="text_1">
    <g id="patch_6">
     <path d="M 203.706779 193.437969 
L 256.141154 193.437969 
Q 259.141154 193.437969 259.141154 190.437969 
L 259.141154 169.562031 
Q 259.141154 166.562031 256.141154 166.562031 
L 203.706779 166.562031 
Q 200.706779 166.562031 200.706779 169.562031 
L 200.706779 190.437969 
Q 200.706779 193.437969 203.706779 193.437969 
z
" clip-path="url(#p7316541938)" style="fill: #ffffff; stroke: #ffffff; stroke-linejoin: miter"/>
    </g>
    <g clip-path="url(#p7316541938)">
     <!-- negatively -->
     <g transform="translate(203.706779 177.160469)scale(0.1 -0.1)">
      <defs>
       <path id="DejaVuSans-6e" d="M 3513 2113 
L 3513 0 
L 2938 0 
L 2938 2094 
Q 2938 2591 2744 2837 
Q 2550 3084 2163 3084 
Q 1697 3084 1428 2787 
Q 1159 2491 1159 1978 
L 1159 0 
L 581 0 
L 581 3500 
L 1159 3500 
L 1159 2956 
Q 1366 3272 1645 3428 
Q 1925 3584 2291 3584 
Q 2894 3584 3203 3211 
Q 3513 2838 3513 2113 
z
" transform="scale(0.015625)"/>
       <path id="DejaVuSans-65" d="M 3597 1894 
L 3597 1613 
L 953 1613 
Q 991 1019 1311 708 
Q 1631 397 2203 397 
Q 2534 397 2845 478 
Q 3156 559 3463 722 
L 3463 178 
Q 3153 47 2828 -22 
Q 2503 -91 2169 -91 
Q 1331 -91 842 396 
Q 353 884 353 1716 
Q 353 2575 817 3079 
Q 1281 3584 2069 3584 
Q 2775 3584 3186 3129 
Q 3597 2675 3597 1894 
z
M 3022 2063 
Q 3016 2534 2758 2815 
Q 2500 3097 2075 3097 
Q 1594 3097 1305 2825 
Q 1016 2553 972 2059 
L 3022 2063 
z
" transform="scale(0.015625)"/>
       <path id="DejaVuSans-67" d="M 2906 1791 
Q 2906 2416 2648 2759 
Q 2391 3103 1925 3103 
Q 1463 3103 1205 2759 
Q 947 2416 947 1791 
Q 947 1169 1205 825 
Q 1463 481 1925 481 
Q 2391 481 2648 825 
Q 2906 1169 2906 1791 
z
M 3481 434 
Q 3481 -459 3084 -895 
Q 2688 -1331 1869 -1331 
Q 1566 -1331 1297 -1286 
Q 1028 -1241 775 -1147 
L 775 -588 
Q 1028 -725 1275 -790 
Q 1522 -856 1778 -856 
Q 2344 -856 2625 -561 
Q 2906 -266 2906 331 
L 2906 616 
Q 2728 306 2450 153 
Q 2172 0 1784 0 
Q 1141 0 747 490 
Q 353 981 353 1791 
Q 353 2603 747 3093 
Q 1141 3584 1784 3584 
Q 2172 3584 2450 3431 
Q 2728 3278 2906 2969 
L 2906 3500 
L 3481 3500 
L 3481 434 
z
" transform="scale(0.015625)"/>
       <path id="DejaVuSans-61" d="M 2194 1759 
Q 1497 1759 1228 1600 
Q 959 1441 959 1056 
Q 959 750 1161 570 
Q 1363 391 1709 391 
Q 2188 391 2477 730 
Q 2766 1069 2766 1631 
L 2766 1759 
L 2194 1759 
z
M 3341 1997 
L 3341 0 
L 2766 0 
L 2766 531 
Q 2569 213 2275 61 
Q 1981 -91 1556 -91 
Q 1019 -91 701 211 
Q 384 513 384 1019 
Q 384 1609 779 1909 
Q 1175 2209 1959 2209 
L 2766 2209 
L 2766 2266 
Q 2766 2663 2505 2880 
Q 2244 3097 1772 3097 
Q 1472 3097 1187 3025 
Q 903 2953 641 2809 
L 641 3341 
Q 956 3463 1253 3523 
Q 1550 3584 1831 3584 
Q 2591 3584 2966 3190 
Q 3341 2797 3341 1997 
z
" transform="scale(0.015625)"/>
       <path id="DejaVuSans-74" d="M 1172 4494 
L 1172 3500 
L 2356 3500 
L 2356 3053 
L 1172 3053 
L 1172 1153 
Q 1172 725 1289 603 
Q 1406 481 1766 481 
L 2356 481 
L 2356 0 
L 1766 0 
Q 1100 0 847 248 
Q 594 497 594 1153 
L 594 3053 
L 172 3053 
L 172 3500 
L 594 3500 
L 594 4494 
L 1172 4494 
z
" transform="scale(0.015625)"/>
       <path id="DejaVuSans-69" d="M 603 3500 
L 1178 3500 
L 1178 0 
L 603 0 
L 603 3500 
z
M 603 4863 
L 1178 4863 
L 1178 4134 
L 603 4134 
L 603 4863 
z
" transform="scale(0.015625)"/>
       <path id="DejaVuSans-76" d="M 191 3500 
L 800 3500 
L 1894 563 
L 2988 3500 
L 3597 3500 
L 2284 0 
L 1503 0 
L 191 3500 
z
" transform="scale(0.015625)"/>
       <path id="DejaVuSans-6c" d="M 603 4863 
L 1178 4863 
L 1178 0 
L 603 0 
L 603 4863 
z
" transform="scale(0.015625)"/>
       <path id="DejaVuSans-79" d="M 2059 -325 
Q 1816 -950 1584 -1140 
Q 1353 -1331 966 -1331 
L 506 -1331 
L 506 -850 
L 844 -850 
Q 1081 -850 1212 -737 
Q 1344 -625 1503 -206 
L 1606 56 
L 191 3500 
L 800 3500 
L 1894 763 
L 2988 3500 
L 3597 3500 
L 2059 -325 
z
" transform="scale(0.015625)"/>
      </defs>
      <use xlink:href="#DejaVuSans-6e"/>
      <use xlink:href="#DejaVuSans-65" x="63.378906"/>
      <use xlink:href="#DejaVuSans-67" x="124.902344"/>
      <use xlink:href="#DejaVuSans-61" x="188.378906"/>
      <use xlink:href="#DejaVuSans-74" x="249.658203"/>
      <use xlink:href="#DejaVuSans-69" x="288.867188"/>
      <use xlink:href="#DejaVuSans-76" x="316.650391"/>
      <use xlink:href="#DejaVuSans-65" x="375.830078"/>
      <use xlink:href="#DejaVuSans-6c" x="437.353516"/>
      <use xlink:href="#DejaVuSans-79" x="465.136719"/>
     </g>
    </g>
    <g clip-path="url(#p7316541938)">
     <!-- regulates -->
     <g transform="translate(206.466936 188.358281)scale(0.1 -0.1)">
      <defs>
       <path id="DejaVuSans-72" d="M 2631 2963 
Q 2534 3019 2420 3045 
Q 2306 3072 2169 3072 
Q 1681 3072 1420 2755 
Q 1159 2438 1159 1844 
L 1159 0 
L 581 0 
L 581 3500 
L 1159 3500 
L 1159 2956 
Q 1341 3275 1631 3429 
Q 1922 3584 2338 3584 
Q 2397 3584 2469 3576 
Q 2541 3569 2628 3553 
L 2631 2963 
z
" transform="scale(0.015625)"/>
       <path id="DejaVuSans-75" d="M 544 1381 
L 544 3500 
L 1119 3500 
L 1119 1403 
Q 1119 906 1312 657 
Q 1506 409 1894 409 
Q 2359 409 2629 706 
Q 2900 1003 2900 1516 
L 2900 3500 
L 3475 3500 
L 3475 0 
L 2900 0 
L 2900 538 
Q 2691 219 2414 64 
Q 2138 -91 1772 -91 
Q 1169 -91 856 284 
Q 544 659 544 1381 
z
M 1991 3584 
L 1991 3584 
z
" transform="scale(0.015625)"/>
       <path id="DejaVuSans-73" d="M 2834 3397 
L 2834 2853 
Q 2591 2978 2328 3040 
Q 2066 3103 1784 3103 
Q 1356 3103 1142 2972 
Q 928 2841 928 2578 
Q 928 2378 1081 2264 
Q 1234 2150 1697 2047 
L 1894 2003 
Q 2506 1872 2764 1633 
Q 3022 1394 3022 966 
Q 3022 478 2636 193 
Q 2250 -91 1575 -91 
Q 1294 -91 989 -36 
Q 684 19 347 128 
L 347 722 
Q 666 556 975 473 
Q 1284 391 1588 391 
Q 1994 391 2212 530 
Q 2431 669 2431 922 
Q 2431 1156 2273 1281 
Q 2116 1406 1581 1522 
L 1381 1569 
Q 847 1681 609 1914 
Q 372 2147 372 2553 
Q 372 3047 722 3315 
Q 1072 3584 1716 3584 
Q 2034 3584 2315 3537 
Q 2597 3491 2834 3397 
z
" transform="scale(0.015625)"/>
      </defs>
      <use xlink:href="#DejaVuSans-72"/>
      <use xlink:href="#DejaVuSans-65" x="38.863281"/>
      <use xlink:href="#DejaVuSans-67" x="100.386719"/>
      <use xlink:href="#DejaVuSans-75" x="163.863281"/>
      <use xlink:href="#DejaVuSans-6c" x="227.242188"/>
      <use xlink:href="#DejaVuSans-61" x="255.025391"/>
      <use xlink:href="#DejaVuSans-74" x="316.304688"/>
      <use xlink:href="#DejaVuSans-65" x="355.513672"/>
      <use xlink:href="#DejaVuSans-73" x="417.037109"/>
     </g>
    </g>
   </g>
   <g id="text_2">
    <g id="patch_7">
     <path d="M 442.185072 193.437969 
L 517.497572 193.437969 
Q 520.497572 193.437969 520.497572 190.437969 
L 520.497572 169.562031 
Q 520.497572 166.562031 517.497572 166.562031 
L 442.185072 166.562031 
Q 439.185072 166.562031 439.185072 169.562031 
L 439.185072 190.437969 
Q 439.185072 193.437969 442.185072 193.437969 
z
" clip-path="url(#p7316541938)" style="fill: #ffffff; stroke: #ffffff; stroke-linejoin: miter"/>
    </g>
    <g clip-path="url(#p7316541938)">
     <!-- positively -->
     <g transform="translate(455.880385 177.160469)scale(0.1 -0.1)">
      <defs>
       <path id="DejaVuSans-70" d="M 1159 525 
L 1159 -1331 
L 581 -1331 
L 581 3500 
L 1159 3500 
L 1159 2969 
Q 1341 3281 1617 3432 
Q 1894 3584 2278 3584 
Q 2916 3584 3314 3078 
Q 3713 2572 3713 1747 
Q 3713 922 3314 415 
Q 2916 -91 2278 -91 
Q 1894 -91 1617 61 
Q 1341 213 1159 525 
z
M 3116 1747 
Q 3116 2381 2855 2742 
Q 2594 3103 2138 3103 
Q 1681 3103 1420 2742 
Q 1159 2381 1159 1747 
Q 1159 1113 1420 752 
Q 1681 391 2138 391 
Q 2594 391 2855 752 
Q 3116 1113 3116 1747 
z
" transform="scale(0.015625)"/>
       <path id="DejaVuSans-6f" d="M 1959 3097 
Q 1497 3097 1228 2736 
Q 959 2375 959 1747 
Q 959 1119 1226 758 
Q 1494 397 1959 397 
Q 2419 397 2687 759 
Q 2956 1122 2956 1747 
Q 2956 2369 2687 2733 
Q 2419 3097 1959 3097 
z
M 1959 3584 
Q 2709 3584 3137 3096 
Q 3566 2609 3566 1747 
Q 3566 888 3137 398 
Q 2709 -91 1959 -91 
Q 1206 -91 779 398 
Q 353 888 353 1747 
Q 353 2609 779 3096 
Q 1206 3584 1959 3584 
z
" transform="scale(0.015625)"/>
      </defs>
      <use xlink:href="#DejaVuSans-70"/>
      <use xlink:href="#DejaVuSans-6f" x="63.476562"/>
      <use xlink:href="#DejaVuSans-73" x="124.658203"/>
      <use xlink:href="#DejaVuSans-69" x="176.757812"/>
      <use xlink:href="#DejaVuSans-74" x="204.541016"/>
      <use xlink:href="#DejaVuSans-69" x="243.75"/>
      <use xlink:href="#DejaVuSans-76" x="271.533203"/>
      <use xlink:href="#DejaVuSans-65" x="330.712891"/>
      <use xlink:href="#DejaVuSans-6c" x="392.236328"/>
      <use xlink:href="#DejaVuSans-79" x="420.019531"/>
     </g>
    </g>
    <g clip-path="url(#p7316541938)">
     <!-- correlated with -->
     <g transform="translate(442.185072 188.358281)scale(0.1 -0.1)">
      <defs>
       <path id="DejaVuSans-63" d="M 3122 3366 
L 3122 2828 
Q 2878 2963 2633 3030 
Q 2388 3097 2138 3097 
Q 1578 3097 1268 2742 
Q 959 2388 959 1747 
Q 959 1106 1268 751 
Q 1578 397 2138 397 
Q 2388 397 2633 464 
Q 2878 531 3122 666 
L 3122 134 
Q 2881 22 2623 -34 
Q 2366 -91 2075 -91 
Q 1284 -91 818 406 
Q 353 903 353 1747 
Q 353 2603 823 3093 
Q 1294 3584 2113 3584 
Q 2378 3584 2631 3529 
Q 2884 3475 3122 3366 
z
" transform="scale(0.015625)"/>
       <path id="DejaVuSans-64" d="M 2906 2969 
L 2906 4863 
L 3481 4863 
L 3481 0 
L 2906 0 
L 2906 525 
Q 2725 213 2448 61 
Q 2172 -91 1784 -91 
Q 1150 -91 751 415 
Q 353 922 353 1747 
Q 353 2572 751 3078 
Q 1150 3584 1784 3584 
Q 2172 3584 2448 3432 
Q 2725 3281 2906 2969 
z
M 947 1747 
Q 947 1113 1208 752 
Q 1469 391 1925 391 
Q 2381 391 2643 752 
Q 2906 1113 2906 1747 
Q 2906 2381 2643 2742 
Q 2381 3103 1925 3103 
Q 1469 3103 1208 2742 
Q 947 2381 947 1747 
z
" transform="scale(0.015625)"/>
       <path id="DejaVuSans-20" transform="scale(0.015625)"/>
       <path id="DejaVuSans-77" d="M 269 3500 
L 844 3500 
L 1563 769 
L 2278 3500 
L 2956 3500 
L 3675 769 
L 4391 3500 
L 4966 3500 
L 4050 0 
L 3372 0 
L 2619 2869 
L 1863 0 
L 1184 0 
L 269 3500 
z
" transform="scale(0.015625)"/>
       <path id="DejaVuSans-68" d="M 3513 2113 
L 3513 0 
L 2938 0 
L 2938 2094 
Q 2938 2591 2744 2837 
Q 2550 3084 2163 3084 
Q 1697 3084 1428 2787 
Q 1159 2491 1159 1978 
L 1159 0 
L 581 0 
L 581 4863 
L 1159 4863 
L 1159 2956 
Q 1366 3272 1645 3428 
Q 1925 3584 2291 3584 
Q 2894 3584 3203 3211 
Q 3513 2838 3513 2113 
z
" transform="scale(0.015625)"/>
      </defs>
      <use xlink:href="#DejaVuSans-63"/>
      <use xlink:href="#DejaVuSans-6f" x="54.980469"/>
      <use xlink:href="#DejaVuSans-72" x="116.162109"/>
      <use xlink:href="#DejaVuSans-72" x="155.525391"/>
      <use xlink:href="#DejaVuSans-65" x="194.388672"/>
      <use xlink:href="#DejaVuSans-6c" x="255.912109"/>
      <use xlink:href="#DejaVuSans-61" x="283.695312"/>
      <use xlink:href="#DejaVuSans-74" x="344.974609"/>
      <use xlink:href="#DejaVuSans-65" x="384.183594"/>
      <use xlink:href="#DejaVuSans-64" x="445.707031"/>
      <use xlink:href="#DejaVuSans-20" x="509.183594"/>
      <use xlink:href="#DejaVuSans-77" x="540.970703"/>
      <use xlink:href="#DejaVuSans-69" x="622.757812"/>
      <use xlink:href="#DejaVuSans-74" x="650.541016"/>
      <use xlink:href="#DejaVuSans-68" x="689.75"/>
     </g>
    </g>
   </g>
   <g id="text_3">
    <g id="patch_8">
     <path d="M 712.490709 187.839062 
L 747.026646 187.839062 
Q 750.026646 187.839062 750.026646 184.839062 
L 750.026646 175.160937 
Q 750.026646 172.160937 747.026646 172.160937 
L 712.490709 172.160937 
Q 709.490709 172.160937 709.490709 175.160937 
L 709.490709 184.839062 
Q 709.490709 187.839062 712.490709 187.839062 
z
" clip-path="url(#p7316541938)" style="fill: #ffffff; stroke: #ffffff; stroke-linejoin: miter"/>
    </g>
    <g clip-path="url(#p7316541938)">
     <!-- causes -->
     <g transform="translate(712.490709 182.759375)scale(0.1 -0.1)">
      <use xlink:href="#DejaVuSans-63"/>
      <use xlink:href="#DejaVuSans-61" x="54.980469"/>
      <use xlink:href="#DejaVuSans-75" x="116.259766"/>
      <use xlink:href="#DejaVuSans-73" x="179.638672"/>
      <use xlink:href="#DejaVuSans-65" x="231.738281"/>
      <use xlink:href="#DejaVuSans-73" x="293.261719"/>
     </g>
    </g>
   </g>
   <g id="text_4">
    <g id="patch_9">
     <path d="M 962.408064 187.839062 
L 996.944002 187.839062 
Q 999.944002 187.839062 999.944002 184.839062 
L 999.944002 175.160937 
Q 999.944002 172.160937 996.944002 172.160937 
L 962.408064 172.160937 
Q 959.408064 172.160937 959.408064 175.160937 
L 959.408064 184.839062 
Q 959.408064 187.839062 962.408064 187.839062 
z
" clip-path="url(#p7316541938)" style="fill: #ffffff; stroke: #ffffff; stroke-linejoin: miter"/>
    </g>
    <g clip-path="url(#p7316541938)">
     <!-- causes -->
     <g transform="translate(962.408064 182.759375)scale(0.1 -0.1)">
      <use xlink:href="#DejaVuSans-63"/>
      <use xlink:href="#DejaVuSans-61" x="54.980469"/>
      <use xlink:href="#DejaVuSans-75" x="116.259766"/>
      <use xlink:href="#DejaVuSans-73" x="179.638672"/>
      <use xlink:href="#DejaVuSans-65" x="231.738281"/>
      <use xlink:href="#DejaVuSans-73" x="293.261719"/>
     </g>
    </g>
   </g>
   <g id="PathCollection_1">
    <defs>
     <path id="C0_0_2a766b275c" d="M 0 52.440442 
C 13.907368 52.440442 27.246998 46.914987 37.080992 37.080992 
C 46.914987 27.246998 52.440442 13.907368 52.440442 -0 
C 52.440442 -13.907368 46.914987 -27.246998 37.080992 -37.080992 
C 27.246998 -46.914987 13.907368 -52.440442 0 -52.440442 
C -13.907368 -52.440442 -27.246998 -46.914987 -37.080992 -37.080992 
C -46.914987 -27.246998 -52.440442 -13.907368 -52.440442 0 
C -52.440442 13.907368 -46.914987 27.246998 -37.080992 37.080992 
C -27.246998 46.914987 -13.907368 52.440442 0 52.440442 
z
"/>
    </defs>
    <g clip-path="url(#p7316541938)">
     <use xlink:href="#C0_0_2a766b275c" x="104.965289" y="180" style="fill: #01c472; stroke: #01c472"/>
    </g>
    <g clip-path="url(#p7316541938)">
     <use xlink:href="#C0_0_2a766b275c" x="354.882645" y="180" style="fill: #e71761; stroke: #e71761"/>
    </g>
    <g clip-path="url(#p7316541938)">
     <use xlink:href="#C0_0_2a766b275c" x="604.8" y="180" style="fill: #01c472; stroke: #01c472"/>
    </g>
    <g clip-path="url(#p7316541938)">
     <use xlink:href="#C0_0_2a766b275c" x="854.717355" y="180" style="fill: #70c6ca; stroke: #70c6ca"/>
    </g>
    <g clip-path="url(#p7316541938)">
     <use xlink:href="#C0_0_2a766b275c" x="1104.634711" y="180" style="fill: #70c6ca; stroke: #70c6ca"/>
    </g>
   </g>
   <g id="text_5">
    <path d="M 335.085457 147.68775 
L 342.486082 147.68775 
L 342.486082 148.68525 
L 339.381082 148.68525 
L 339.381082 156.4365 
L 338.192332 156.4365 
L 338.192332 148.68525 
L 335.085457 148.68525 
L 335.085457 147.68775 
z
M 344.436785 157.045875 
Q 343.98116 158.21775 343.54616 158.574 
Q 343.113035 158.932125 342.38741 158.932125 
L 341.52491 158.932125 
L 341.52491 158.03025 
L 342.15866 158.03025 
Q 342.603035 158.03025 342.84866 157.818375 
Q 343.09616 157.608375 343.394285 156.82275 
L 343.58741 156.3315 
L 340.934285 149.874 
L 342.07616 149.874 
L 344.12741 155.005875 
L 346.17866 149.874 
L 347.320535 149.874 
L 344.436785 157.045875 
z
M 349.850848 155.452125 
L 349.850848 158.932125 
L 348.767098 158.932125 
L 348.767098 149.874 
L 349.850848 149.874 
L 349.850848 150.869625 
Q 350.192098 150.284625 350.709598 150.0015 
Q 351.228973 149.7165 351.948973 149.7165 
Q 353.145223 149.7165 353.891473 150.66525 
Q 354.639598 151.614 354.639598 153.160875 
Q 354.639598 154.70775 353.891473 155.658375 
Q 353.145223 156.607125 351.948973 156.607125 
Q 351.228973 156.607125 350.709598 156.322125 
Q 350.192098 156.037125 349.850848 155.452125 
z
M 353.520223 153.160875 
Q 353.520223 151.972125 353.030848 151.29525 
Q 352.541473 150.618375 351.686473 150.618375 
Q 350.829598 150.618375 350.340223 151.29525 
Q 349.850848 151.972125 349.850848 153.160875 
Q 349.850848 154.349625 350.340223 155.0265 
Q 350.829598 155.703375 351.686473 155.703375 
Q 352.541473 155.703375 353.030848 155.0265 
Q 353.520223 154.349625 353.520223 153.160875 
z
M 362.039285 152.88525 
L 362.039285 153.412125 
L 357.081785 153.412125 
Q 357.153035 154.525875 357.753035 155.109 
Q 358.353035 155.692125 359.425535 155.692125 
Q 360.04616 155.692125 360.629285 155.54025 
Q 361.21241 155.388375 361.788035 155.08275 
L 361.788035 156.10275 
Q 361.206785 156.348375 360.59741 156.47775 
Q 359.988035 156.607125 359.361785 156.607125 
Q 357.790535 156.607125 356.87366 155.694 
Q 355.956785 154.779 355.956785 153.219 
Q 355.956785 151.608375 356.826785 150.663375 
Q 357.696785 149.7165 359.174285 149.7165 
Q 360.498035 149.7165 361.26866 150.569625 
Q 362.039285 151.420875 362.039285 152.88525 
z
M 360.96116 152.568375 
Q 360.94991 151.68525 360.46616 151.158375 
Q 359.98241 150.629625 359.185535 150.629625 
Q 358.28366 150.629625 357.741785 151.139625 
Q 357.19991 151.649625 357.11741 152.575875 
L 360.96116 152.568375 
z
M 363.264598 152.669625 
L 366.422098 152.669625 
L 366.422098 153.629625 
L 363.264598 153.629625 
L 363.264598 152.669625 
z
M 368.496551 155.440875 
L 370.429676 155.440875 
L 370.429676 148.765875 
L 368.325926 149.18775 
L 368.325926 148.109625 
L 370.418426 147.68775 
L 371.601551 147.68775 
L 371.601551 155.440875 
L 373.534676 155.440875 
L 373.534676 156.4365 
L 368.496551 156.4365 
L 368.496551 155.440875 
z
" clip-path="url(#p7316541938)" style="fill: #ffffff; stroke: #000000; stroke-width: 2"/>
    <path d="M 335.085457 147.68775 
L 342.486082 147.68775 
L 342.486082 148.68525 
L 339.381082 148.68525 
L 339.381082 156.4365 
L 338.192332 156.4365 
L 338.192332 148.68525 
L 335.085457 148.68525 
L 335.085457 147.68775 
z
M 344.436785 157.045875 
Q 343.98116 158.21775 343.54616 158.574 
Q 343.113035 158.932125 342.38741 158.932125 
L 341.52491 158.932125 
L 341.52491 158.03025 
L 342.15866 158.03025 
Q 342.603035 158.03025 342.84866 157.818375 
Q 343.09616 157.608375 343.394285 156.82275 
L 343.58741 156.3315 
L 340.934285 149.874 
L 342.07616 149.874 
L 344.12741 155.005875 
L 346.17866 149.874 
L 347.320535 149.874 
L 344.436785 157.045875 
z
M 349.850848 155.452125 
L 349.850848 158.932125 
L 348.767098 158.932125 
L 348.767098 149.874 
L 349.850848 149.874 
L 349.850848 150.869625 
Q 350.192098 150.284625 350.709598 150.0015 
Q 351.228973 149.7165 351.948973 149.7165 
Q 353.145223 149.7165 353.891473 150.66525 
Q 354.639598 151.614 354.639598 153.160875 
Q 354.639598 154.70775 353.891473 155.658375 
Q 353.145223 156.607125 351.948973 156.607125 
Q 351.228973 156.607125 350.709598 156.322125 
Q 350.192098 156.037125 349.850848 155.452125 
z
M 353.520223 153.160875 
Q 353.520223 151.972125 353.030848 151.29525 
Q 352.541473 150.618375 351.686473 150.618375 
Q 350.829598 150.618375 350.340223 151.29525 
Q 349.850848 151.972125 349.850848 153.160875 
Q 349.850848 154.349625 350.340223 155.0265 
Q 350.829598 155.703375 351.686473 155.703375 
Q 352.541473 155.703375 353.030848 155.0265 
Q 353.520223 154.349625 353.520223 153.160875 
z
M 362.039285 152.88525 
L 362.039285 153.412125 
L 357.081785 153.412125 
Q 357.153035 154.525875 357.753035 155.109 
Q 358.353035 155.692125 359.425535 155.692125 
Q 360.04616 155.692125 360.629285 155.54025 
Q 361.21241 155.388375 361.788035 155.08275 
L 361.788035 156.10275 
Q 361.206785 156.348375 360.59741 156.47775 
Q 359.988035 156.607125 359.361785 156.607125 
Q 357.790535 156.607125 356.87366 155.694 
Q 355.956785 154.779 355.956785 153.219 
Q 355.956785 151.608375 356.826785 150.663375 
Q 357.696785 149.7165 359.174285 149.7165 
Q 360.498035 149.7165 361.26866 150.569625 
Q 362.039285 151.420875 362.039285 152.88525 
z
M 360.96116 152.568375 
Q 360.94991 151.68525 360.46616 151.158375 
Q 359.98241 150.629625 359.185535 150.629625 
Q 358.28366 150.629625 357.741785 151.139625 
Q 357.19991 151.649625 357.11741 152.575875 
L 360.96116 152.568375 
z
M 363.264598 152.669625 
L 366.422098 152.669625 
L 366.422098 153.629625 
L 363.264598 153.629625 
L 363.264598 152.669625 
z
M 368.496551 155.440875 
L 370.429676 155.440875 
L 370.429676 148.765875 
L 368.325926 149.18775 
L 368.325926 148.109625 
L 370.418426 147.68775 
L 371.601551 147.68775 
L 371.601551 155.440875 
L 373.534676 155.440875 
L 373.534676 156.4365 
L 368.496551 156.4365 
L 368.496551 155.440875 
z
" clip-path="url(#p7316541938)" style="fill: #ffffff"/>
    <path d="M 318.481395 166.57575 
Q 317.17452 166.57575 316.670145 166.873875 
Q 316.16577 167.172 316.16577 167.893875 
Q 316.16577 168.467625 316.54452 168.805125 
Q 316.92327 169.14075 317.57202 169.14075 
Q 318.470145 169.14075 319.01202 168.505125 
Q 319.553895 167.8695 319.553895 166.81575 
L 319.553895 166.57575 
L 318.481395 166.57575 
z
M 320.63202 166.1295 
L 320.63202 169.873875 
L 319.553895 169.873875 
L 319.553895 168.87825 
Q 319.18452 169.4745 318.63327 169.7595 
Q 318.08202 170.0445 317.285145 170.0445 
Q 316.27827 170.0445 315.68202 169.47825 
Q 315.087645 168.912 315.087645 167.96325 
Q 315.087645 166.857 315.82827 166.2945 
Q 316.57077 165.732 318.04077 165.732 
L 319.553895 165.732 
L 319.553895 165.625125 
Q 319.553895 164.88075 319.06452 164.473875 
Q 318.575145 164.067 317.690145 164.067 
Q 317.127645 164.067 316.59327 164.202 
Q 316.06077 164.337 315.56952 164.607 
L 315.56952 163.6095 
Q 316.160145 163.38075 316.71702 163.26825 
Q 317.273895 163.153875 317.80077 163.153875 
Q 319.22577 163.153875 319.928895 163.892625 
Q 320.63202 164.6295 320.63202 166.1295 
z
M 328.308035 165.912 
L 328.308035 169.873875 
L 327.22991 169.873875 
L 327.22991 165.947625 
Q 327.22991 165.01575 326.86616 164.5545 
Q 326.50241 164.091375 325.776785 164.091375 
Q 324.903035 164.091375 324.39866 164.64825 
Q 323.894285 165.20325 323.894285 166.165125 
L 323.894285 169.873875 
L 322.810535 169.873875 
L 322.810535 163.311375 
L 323.894285 163.311375 
L 323.894285 164.331375 
Q 324.28241 163.738875 324.805535 163.446375 
Q 325.330535 163.153875 326.016785 163.153875 
Q 327.14741 163.153875 327.726785 163.85325 
Q 328.308035 164.552625 328.308035 165.912 
z
M 334.775379 166.51575 
Q 334.775379 165.343875 334.291629 164.70075 
Q 333.809754 164.05575 332.936004 164.05575 
Q 332.069754 164.05575 331.586004 164.70075 
Q 331.102254 165.343875 331.102254 166.51575 
Q 331.102254 167.682 331.586004 168.327 
Q 332.069754 168.972 332.936004 168.972 
Q 333.809754 168.972 334.291629 168.327 
Q 334.775379 167.682 334.775379 166.51575 
z
M 335.853504 169.060125 
Q 335.853504 170.7345 335.109129 171.552 
Q 334.366629 172.3695 332.831004 172.3695 
Q 332.262879 172.3695 331.758504 172.285125 
Q 331.254129 172.20075 330.779754 172.0245 
L 330.779754 170.976375 
Q 331.254129 171.23325 331.717254 171.355125 
Q 332.180379 171.478875 332.660379 171.478875 
Q 333.721629 171.478875 334.248504 170.92575 
Q 334.775379 170.372625 334.775379 169.25325 
L 334.775379 168.718875 
Q 334.441629 169.300125 333.920379 169.587 
Q 333.399129 169.873875 332.671629 169.873875 
Q 331.466004 169.873875 330.727254 168.955125 
Q 329.988504 168.0345 329.988504 166.51575 
Q 329.988504 164.99325 330.727254 164.0745 
Q 331.466004 163.153875 332.671629 163.153875 
Q 333.399129 163.153875 333.920379 163.44075 
Q 334.441629 163.727625 334.775379 164.307 
L 334.775379 163.311375 
L 335.853504 163.311375 
L 335.853504 169.060125 
z
M 338.074442 163.311375 
L 339.152567 163.311375 
L 339.152567 169.873875 
L 338.074442 169.873875 
L 338.074442 163.311375 
z
M 338.074442 160.75575 
L 339.152567 160.75575 
L 339.152567 162.122625 
L 338.074442 162.122625 
L 338.074442 160.75575 
z
M 343.950926 164.067 
Q 343.084676 164.067 342.580301 164.743875 
Q 342.075926 165.42075 342.075926 166.59825 
Q 342.075926 167.77575 342.576551 168.452625 
Q 343.079051 169.1295 343.950926 169.1295 
Q 344.813426 169.1295 345.315926 168.45075 
Q 345.820301 167.770125 345.820301 166.59825 
Q 345.820301 165.432 345.315926 164.7495 
Q 344.813426 164.067 343.950926 164.067 
z
M 343.950926 163.153875 
Q 345.357176 163.153875 346.159676 164.068875 
Q 346.964051 164.982 346.964051 166.59825 
Q 346.964051 168.208875 346.159676 169.127625 
Q 345.357176 170.0445 343.950926 170.0445 
Q 342.539051 170.0445 341.738426 169.127625 
Q 340.939676 168.208875 340.939676 166.59825 
Q 340.939676 164.982 341.738426 164.068875 
Q 342.539051 163.153875 343.950926 163.153875 
z
M 349.817098 161.447625 
L 349.817098 163.311375 
L 352.037098 163.311375 
L 352.037098 164.1495 
L 349.817098 164.1495 
L 349.817098 167.712 
Q 349.817098 168.5145 350.036473 168.74325 
Q 350.255848 168.972 350.930848 168.972 
L 352.037098 168.972 
L 352.037098 169.873875 
L 350.930848 169.873875 
Q 349.682098 169.873875 349.207723 169.408875 
Q 348.733348 168.942 348.733348 167.712 
L 348.733348 164.1495 
L 347.942098 164.1495 
L 347.942098 163.311375 
L 348.733348 163.311375 
L 348.733348 161.447625 
L 349.817098 161.447625 
z
M 359.069051 166.322625 
L 359.069051 166.8495 
L 354.111551 166.8495 
Q 354.182801 167.96325 354.782801 168.546375 
Q 355.382801 169.1295 356.455301 169.1295 
Q 357.075926 169.1295 357.659051 168.977625 
Q 358.242176 168.82575 358.817801 168.520125 
L 358.817801 169.540125 
Q 358.236551 169.78575 357.627176 169.915125 
Q 357.017801 170.0445 356.391551 170.0445 
Q 354.820301 170.0445 353.903426 169.131375 
Q 352.986551 168.216375 352.986551 166.656375 
Q 352.986551 165.04575 353.856551 164.10075 
Q 354.726551 163.153875 356.204051 163.153875 
Q 357.527801 163.153875 358.298426 164.007 
Q 359.069051 164.85825 359.069051 166.322625 
z
M 357.990926 166.00575 
Q 357.979676 165.122625 357.495926 164.59575 
Q 357.012176 164.067 356.215301 164.067 
Q 355.313426 164.067 354.771551 164.577 
Q 354.229676 165.087 354.147176 166.01325 
L 357.990926 166.00575 
z
M 366.294363 165.912 
L 366.294363 169.873875 
L 365.216238 169.873875 
L 365.216238 165.947625 
Q 365.216238 165.01575 364.852488 164.5545 
Q 364.488738 164.091375 363.763113 164.091375 
Q 362.889363 164.091375 362.384988 164.64825 
Q 361.880613 165.20325 361.880613 166.165125 
L 361.880613 169.873875 
L 360.796863 169.873875 
L 360.796863 163.311375 
L 361.880613 163.311375 
L 361.880613 164.331375 
Q 362.268738 163.738875 362.791863 163.446375 
Q 363.316863 163.153875 364.003113 163.153875 
Q 365.133738 163.153875 365.713113 163.85325 
Q 366.294363 164.552625 366.294363 165.912 
z
M 372.626707 163.5045 
L 372.626707 164.5245 
Q 372.171082 164.290125 371.677957 164.173875 
Q 371.186707 164.05575 370.657957 164.05575 
Q 369.855457 164.05575 369.454207 164.301375 
Q 369.052957 164.547 369.052957 165.040125 
Q 369.052957 165.415125 369.339832 165.628875 
Q 369.626707 165.842625 370.494832 166.03575 
L 370.864207 166.11825 
Q 372.011707 166.363875 372.495457 166.812 
Q 372.979207 167.260125 372.979207 168.062625 
Q 372.979207 168.977625 372.255457 169.512 
Q 371.531707 170.0445 370.266082 170.0445 
Q 369.739207 170.0445 369.167332 169.941375 
Q 368.595457 169.83825 367.963582 169.633875 
L 367.963582 168.520125 
Q 368.561707 168.831375 369.141082 168.987 
Q 369.720457 169.14075 370.290457 169.14075 
Q 371.051707 169.14075 371.460457 168.880125 
Q 371.871082 168.6195 371.871082 168.145125 
Q 371.871082 167.706375 371.574832 167.472 
Q 371.280457 167.237625 370.277332 167.020125 
L 369.902332 166.932 
Q 368.901082 166.722 368.454832 166.285125 
Q 368.010457 165.84825 368.010457 165.087 
Q 368.010457 164.16075 368.666707 163.65825 
Q 369.322957 163.153875 370.530457 163.153875 
Q 371.126707 163.153875 371.653582 163.242 
Q 372.182332 163.32825 372.626707 163.5045 
z
M 374.695535 163.311375 
L 375.77366 163.311375 
L 375.77366 169.873875 
L 374.695535 169.873875 
L 374.695535 163.311375 
z
M 374.695535 160.75575 
L 375.77366 160.75575 
L 375.77366 162.122625 
L 374.695535 162.122625 
L 374.695535 160.75575 
z
M 383.48577 165.912 
L 383.48577 169.873875 
L 382.407645 169.873875 
L 382.407645 165.947625 
Q 382.407645 165.01575 382.043895 164.5545 
Q 381.680145 164.091375 380.95452 164.091375 
Q 380.08077 164.091375 379.576395 164.64825 
Q 379.07202 165.20325 379.07202 166.165125 
L 379.07202 169.873875 
L 377.98827 169.873875 
L 377.98827 163.311375 
L 379.07202 163.311375 
L 379.07202 164.331375 
Q 379.460145 163.738875 379.98327 163.446375 
Q 380.50827 163.153875 381.19452 163.153875 
Q 382.325145 163.153875 382.90452 163.85325 
Q 383.48577 164.552625 383.48577 165.912 
z
M 389.496317 161.125125 
L 390.679442 161.125125 
L 390.679442 169.873875 
L 389.496317 169.873875 
L 389.496317 161.125125 
z
M 393.035379 161.125125 
L 394.218504 161.125125 
L 394.218504 169.873875 
L 393.035379 169.873875 
L 393.035379 161.125125 
z
" clip-path="url(#p7316541938)" style="fill: #ffffff; stroke: #000000; stroke-width: 2"/>
    <path d="M 318.481395 166.57575 
Q 317.17452 166.57575 316.670145 166.873875 
Q 316.16577 167.172 316.16577 167.893875 
Q 316.16577 168.467625 316.54452 168.805125 
Q 316.92327 169.14075 317.57202 169.14075 
Q 318.470145 169.14075 319.01202 168.505125 
Q 319.553895 167.8695 319.553895 166.81575 
L 319.553895 166.57575 
L 318.481395 166.57575 
z
M 320.63202 166.1295 
L 320.63202 169.873875 
L 319.553895 169.873875 
L 319.553895 168.87825 
Q 319.18452 169.4745 318.63327 169.7595 
Q 318.08202 170.0445 317.285145 170.0445 
Q 316.27827 170.0445 315.68202 169.47825 
Q 315.087645 168.912 315.087645 167.96325 
Q 315.087645 166.857 315.82827 166.2945 
Q 316.57077 165.732 318.04077 165.732 
L 319.553895 165.732 
L 319.553895 165.625125 
Q 319.553895 164.88075 319.06452 164.473875 
Q 318.575145 164.067 317.690145 164.067 
Q 317.127645 164.067 316.59327 164.202 
Q 316.06077 164.337 315.56952 164.607 
L 315.56952 163.6095 
Q 316.160145 163.38075 316.71702 163.26825 
Q 317.273895 163.153875 317.80077 163.153875 
Q 319.22577 163.153875 319.928895 163.892625 
Q 320.63202 164.6295 320.63202 166.1295 
z
M 328.308035 165.912 
L 328.308035 169.873875 
L 327.22991 169.873875 
L 327.22991 165.947625 
Q 327.22991 165.01575 326.86616 164.5545 
Q 326.50241 164.091375 325.776785 164.091375 
Q 324.903035 164.091375 324.39866 164.64825 
Q 323.894285 165.20325 323.894285 166.165125 
L 323.894285 169.873875 
L 322.810535 169.873875 
L 322.810535 163.311375 
L 323.894285 163.311375 
L 323.894285 164.331375 
Q 324.28241 163.738875 324.805535 163.446375 
Q 325.330535 163.153875 326.016785 163.153875 
Q 327.14741 163.153875 327.726785 163.85325 
Q 328.308035 164.552625 328.308035 165.912 
z
M 334.775379 166.51575 
Q 334.775379 165.343875 334.291629 164.70075 
Q 333.809754 164.05575 332.936004 164.05575 
Q 332.069754 164.05575 331.586004 164.70075 
Q 331.102254 165.343875 331.102254 166.51575 
Q 331.102254 167.682 331.586004 168.327 
Q 332.069754 168.972 332.936004 168.972 
Q 333.809754 168.972 334.291629 168.327 
Q 334.775379 167.682 334.775379 166.51575 
z
M 335.853504 169.060125 
Q 335.853504 170.7345 335.109129 171.552 
Q 334.366629 172.3695 332.831004 172.3695 
Q 332.262879 172.3695 331.758504 172.285125 
Q 331.254129 172.20075 330.779754 172.0245 
L 330.779754 170.976375 
Q 331.254129 171.23325 331.717254 171.355125 
Q 332.180379 171.478875 332.660379 171.478875 
Q 333.721629 171.478875 334.248504 170.92575 
Q 334.775379 170.372625 334.775379 169.25325 
L 334.775379 168.718875 
Q 334.441629 169.300125 333.920379 169.587 
Q 333.399129 169.873875 332.671629 169.873875 
Q 331.466004 169.873875 330.727254 168.955125 
Q 329.988504 168.0345 329.988504 166.51575 
Q 329.988504 164.99325 330.727254 164.0745 
Q 331.466004 163.153875 332.671629 163.153875 
Q 333.399129 163.153875 333.920379 163.44075 
Q 334.441629 163.727625 334.775379 164.307 
L 334.775379 163.311375 
L 335.853504 163.311375 
L 335.853504 169.060125 
z
M 338.074442 163.311375 
L 339.152567 163.311375 
L 339.152567 169.873875 
L 338.074442 169.873875 
L 338.074442 163.311375 
z
M 338.074442 160.75575 
L 339.152567 160.75575 
L 339.152567 162.122625 
L 338.074442 162.122625 
L 338.074442 160.75575 
z
M 343.950926 164.067 
Q 343.084676 164.067 342.580301 164.743875 
Q 342.075926 165.42075 342.075926 166.59825 
Q 342.075926 167.77575 342.576551 168.452625 
Q 343.079051 169.1295 343.950926 169.1295 
Q 344.813426 169.1295 345.315926 168.45075 
Q 345.820301 167.770125 345.820301 166.59825 
Q 345.820301 165.432 345.315926 164.7495 
Q 344.813426 164.067 343.950926 164.067 
z
M 343.950926 163.153875 
Q 345.357176 163.153875 346.159676 164.068875 
Q 346.964051 164.982 346.964051 166.59825 
Q 346.964051 168.208875 346.159676 169.127625 
Q 345.357176 170.0445 343.950926 170.0445 
Q 342.539051 170.0445 341.738426 169.127625 
Q 340.939676 168.208875 340.939676 166.59825 
Q 340.939676 164.982 341.738426 164.068875 
Q 342.539051 163.153875 343.950926 163.153875 
z
M 349.817098 161.447625 
L 349.817098 163.311375 
L 352.037098 163.311375 
L 352.037098 164.1495 
L 349.817098 164.1495 
L 349.817098 167.712 
Q 349.817098 168.5145 350.036473 168.74325 
Q 350.255848 168.972 350.930848 168.972 
L 352.037098 168.972 
L 352.037098 169.873875 
L 350.930848 169.873875 
Q 349.682098 169.873875 349.207723 169.408875 
Q 348.733348 168.942 348.733348 167.712 
L 348.733348 164.1495 
L 347.942098 164.1495 
L 347.942098 163.311375 
L 348.733348 163.311375 
L 348.733348 161.447625 
L 349.817098 161.447625 
z
M 359.069051 166.322625 
L 359.069051 166.8495 
L 354.111551 166.8495 
Q 354.182801 167.96325 354.782801 168.546375 
Q 355.382801 169.1295 356.455301 169.1295 
Q 357.075926 169.1295 357.659051 168.977625 
Q 358.242176 168.82575 358.817801 168.520125 
L 358.817801 169.540125 
Q 358.236551 169.78575 357.627176 169.915125 
Q 357.017801 170.0445 356.391551 170.0445 
Q 354.820301 170.0445 353.903426 169.131375 
Q 352.986551 168.216375 352.986551 166.656375 
Q 352.986551 165.04575 353.856551 164.10075 
Q 354.726551 163.153875 356.204051 163.153875 
Q 357.527801 163.153875 358.298426 164.007 
Q 359.069051 164.85825 359.069051 166.322625 
z
M 357.990926 166.00575 
Q 357.979676 165.122625 357.495926 164.59575 
Q 357.012176 164.067 356.215301 164.067 
Q 355.313426 164.067 354.771551 164.577 
Q 354.229676 165.087 354.147176 166.01325 
L 357.990926 166.00575 
z
M 366.294363 165.912 
L 366.294363 169.873875 
L 365.216238 169.873875 
L 365.216238 165.947625 
Q 365.216238 165.01575 364.852488 164.5545 
Q 364.488738 164.091375 363.763113 164.091375 
Q 362.889363 164.091375 362.384988 164.64825 
Q 361.880613 165.20325 361.880613 166.165125 
L 361.880613 169.873875 
L 360.796863 169.873875 
L 360.796863 163.311375 
L 361.880613 163.311375 
L 361.880613 164.331375 
Q 362.268738 163.738875 362.791863 163.446375 
Q 363.316863 163.153875 364.003113 163.153875 
Q 365.133738 163.153875 365.713113 163.85325 
Q 366.294363 164.552625 366.294363 165.912 
z
M 372.626707 163.5045 
L 372.626707 164.5245 
Q 372.171082 164.290125 371.677957 164.173875 
Q 371.186707 164.05575 370.657957 164.05575 
Q 369.855457 164.05575 369.454207 164.301375 
Q 369.052957 164.547 369.052957 165.040125 
Q 369.052957 165.415125 369.339832 165.628875 
Q 369.626707 165.842625 370.494832 166.03575 
L 370.864207 166.11825 
Q 372.011707 166.363875 372.495457 166.812 
Q 372.979207 167.260125 372.979207 168.062625 
Q 372.979207 168.977625 372.255457 169.512 
Q 371.531707 170.0445 370.266082 170.0445 
Q 369.739207 170.0445 369.167332 169.941375 
Q 368.595457 169.83825 367.963582 169.633875 
L 367.963582 168.520125 
Q 368.561707 168.831375 369.141082 168.987 
Q 369.720457 169.14075 370.290457 169.14075 
Q 371.051707 169.14075 371.460457 168.880125 
Q 371.871082 168.6195 371.871082 168.145125 
Q 371.871082 167.706375 371.574832 167.472 
Q 371.280457 167.237625 370.277332 167.020125 
L 369.902332 166.932 
Q 368.901082 166.722 368.454832 166.285125 
Q 368.010457 165.84825 368.010457 165.087 
Q 368.010457 164.16075 368.666707 163.65825 
Q 369.322957 163.153875 370.530457 163.153875 
Q 371.126707 163.153875 371.653582 163.242 
Q 372.182332 163.32825 372.626707 163.5045 
z
M 374.695535 163.311375 
L 375.77366 163.311375 
L 375.77366 169.873875 
L 374.695535 169.873875 
L 374.695535 163.311375 
z
M 374.695535 160.75575 
L 375.77366 160.75575 
L 375.77366 162.122625 
L 374.695535 162.122625 
L 374.695535 160.75575 
z
M 383.48577 165.912 
L 383.48577 169.873875 
L 382.407645 169.873875 
L 382.407645 165.947625 
Q 382.407645 165.01575 382.043895 164.5545 
Q 381.680145 164.091375 380.95452 164.091375 
Q 380.08077 164.091375 379.576395 164.64825 
Q 379.07202 165.20325 379.07202 166.165125 
L 379.07202 169.873875 
L 377.98827 169.873875 
L 377.98827 163.311375 
L 379.07202 163.311375 
L 379.07202 164.331375 
Q 379.460145 163.738875 379.98327 163.446375 
Q 380.50827 163.153875 381.19452 163.153875 
Q 382.325145 163.153875 382.90452 163.85325 
Q 383.48577 164.552625 383.48577 165.912 
z
M 389.496317 161.125125 
L 390.679442 161.125125 
L 390.679442 169.873875 
L 389.496317 169.873875 
L 389.496317 161.125125 
z
M 393.035379 161.125125 
L 394.218504 161.125125 
L 394.218504 169.873875 
L 393.035379 169.873875 
L 393.035379 161.125125 
z
" clip-path="url(#p7316541938)" style="fill: #ffffff"/>
    <path d="M 334.502332 177.755625 
Q 334.320457 177.650625 334.106707 177.601875 
Q 333.892957 177.55125 333.636082 177.55125 
Q 332.721082 177.55125 332.231707 178.145625 
Q 331.742332 178.74 331.742332 179.85375 
L 331.742332 183.31125 
L 330.658582 183.31125 
L 330.658582 176.74875 
L 331.742332 176.74875 
L 331.742332 177.76875 
Q 332.083582 177.170625 332.627332 176.881875 
Q 333.172957 176.59125 333.952957 176.59125 
Q 334.063582 176.59125 334.198582 176.60625 
Q 334.333582 176.619375 334.496707 176.649375 
L 334.502332 177.755625 
z
M 340.977176 179.76 
L 340.977176 180.286875 
L 336.019676 180.286875 
Q 336.090926 181.400625 336.690926 181.98375 
Q 337.290926 182.566875 338.363426 182.566875 
Q 338.984051 182.566875 339.567176 182.415 
Q 340.150301 182.263125 340.725926 181.9575 
L 340.725926 182.9775 
Q 340.144676 183.223125 339.535301 183.3525 
Q 338.925926 183.481875 338.299676 183.481875 
Q 336.728426 183.481875 335.811551 182.56875 
Q 334.894676 181.65375 334.894676 180.09375 
Q 334.894676 178.483125 335.764676 177.538125 
Q 336.634676 176.59125 338.112176 176.59125 
Q 339.435926 176.59125 340.206551 177.444375 
Q 340.977176 178.295625 340.977176 179.76 
z
M 339.899051 179.443125 
Q 339.887801 178.56 339.404051 178.033125 
Q 338.920301 177.504375 338.123426 177.504375 
Q 337.221551 177.504375 336.679676 178.014375 
Q 336.137801 178.524375 336.055301 179.450625 
L 339.899051 179.443125 
z
M 347.469363 177 
L 347.469363 178.00875 
Q 347.011863 177.755625 346.552488 177.63 
Q 346.093113 177.504375 345.624363 177.504375 
Q 344.574363 177.504375 343.993113 178.17 
Q 343.413738 178.83375 343.413738 180.035625 
Q 343.413738 181.2375 343.993113 181.903125 
Q 344.574363 182.566875 345.624363 182.566875 
Q 346.093113 182.566875 346.552488 182.44125 
Q 347.011863 182.315625 347.469363 182.0625 
L 347.469363 183.06 
Q 347.017488 183.27 346.533738 183.375 
Q 346.051863 183.481875 345.506238 183.481875 
Q 344.023113 183.481875 343.149363 182.55 
Q 342.277488 181.618125 342.277488 180.035625 
Q 342.277488 178.430625 343.158738 177.511875 
Q 344.041863 176.59125 345.577488 176.59125 
Q 346.074363 176.59125 346.548738 176.694375 
Q 347.023113 176.795625 347.469363 177 
z
M 354.957645 179.76 
L 354.957645 180.286875 
L 350.000145 180.286875 
Q 350.071395 181.400625 350.671395 181.98375 
Q 351.271395 182.566875 352.343895 182.566875 
Q 352.96452 182.566875 353.547645 182.415 
Q 354.13077 182.263125 354.706395 181.9575 
L 354.706395 182.9775 
Q 354.125145 183.223125 353.51577 183.3525 
Q 352.906395 183.481875 352.280145 183.481875 
Q 350.708895 183.481875 349.79202 182.56875 
Q 348.875145 181.65375 348.875145 180.09375 
Q 348.875145 178.483125 349.745145 177.538125 
Q 350.615145 176.59125 352.092645 176.59125 
Q 353.416395 176.59125 354.18702 177.444375 
Q 354.957645 178.295625 354.957645 179.76 
z
M 353.87952 179.443125 
Q 353.86827 178.56 353.38452 178.033125 
Q 352.90077 177.504375 352.103895 177.504375 
Q 351.20202 177.504375 350.660145 178.014375 
Q 350.11827 178.524375 350.03577 179.450625 
L 353.87952 179.443125 
z
M 357.769207 182.326875 
L 357.769207 185.806875 
L 356.685457 185.806875 
L 356.685457 176.74875 
L 357.769207 176.74875 
L 357.769207 177.744375 
Q 358.110457 177.159375 358.627957 176.87625 
Q 359.147332 176.59125 359.867332 176.59125 
Q 361.063582 176.59125 361.809832 177.54 
Q 362.557957 178.48875 362.557957 180.035625 
Q 362.557957 181.5825 361.809832 182.533125 
Q 361.063582 183.481875 359.867332 183.481875 
Q 359.147332 183.481875 358.627957 183.196875 
Q 358.110457 182.911875 357.769207 182.326875 
z
M 361.438582 180.035625 
Q 361.438582 178.846875 360.949207 178.17 
Q 360.459832 177.493125 359.604832 177.493125 
Q 358.747957 177.493125 358.258582 178.17 
Q 357.769207 178.846875 357.769207 180.035625 
Q 357.769207 181.224375 358.258582 181.90125 
Q 358.747957 182.578125 359.604832 182.578125 
Q 360.459832 182.578125 360.949207 181.90125 
Q 361.438582 181.224375 361.438582 180.035625 
z
M 365.41077 174.885 
L 365.41077 176.74875 
L 367.63077 176.74875 
L 367.63077 177.586875 
L 365.41077 177.586875 
L 365.41077 181.149375 
Q 365.41077 181.951875 365.630145 182.180625 
Q 365.84952 182.409375 366.52452 182.409375 
L 367.63077 182.409375 
L 367.63077 183.31125 
L 366.52452 183.31125 
Q 365.27577 183.31125 364.801395 182.84625 
Q 364.32702 182.379375 364.32702 181.149375 
L 364.32702 177.586875 
L 363.53577 177.586875 
L 363.53577 176.74875 
L 364.32702 176.74875 
L 364.32702 174.885 
L 365.41077 174.885 
z
M 371.591473 177.504375 
Q 370.725223 177.504375 370.220848 178.18125 
Q 369.716473 178.858125 369.716473 180.035625 
Q 369.716473 181.213125 370.217098 181.89 
Q 370.719598 182.566875 371.591473 182.566875 
Q 372.453973 182.566875 372.956473 181.888125 
Q 373.460848 181.2075 373.460848 180.035625 
Q 373.460848 178.869375 372.956473 178.186875 
Q 372.453973 177.504375 371.591473 177.504375 
z
M 371.591473 176.59125 
Q 372.997723 176.59125 373.800223 177.50625 
Q 374.604598 178.419375 374.604598 180.035625 
Q 374.604598 181.64625 373.800223 182.565 
Q 372.997723 183.481875 371.591473 183.481875 
Q 370.179598 183.481875 369.378973 182.565 
Q 368.580223 181.64625 368.580223 180.035625 
Q 368.580223 178.419375 369.378973 177.50625 
Q 370.179598 176.59125 371.591473 176.59125 
z
M 380.19327 177.755625 
Q 380.011395 177.650625 379.797645 177.601875 
Q 379.583895 177.55125 379.32702 177.55125 
Q 378.41202 177.55125 377.922645 178.145625 
Q 377.43327 178.74 377.43327 179.85375 
L 377.43327 183.31125 
L 376.34952 183.31125 
L 376.34952 176.74875 
L 377.43327 176.74875 
L 377.43327 177.76875 
Q 377.77452 177.170625 378.31827 176.881875 
Q 378.863895 176.59125 379.643895 176.59125 
Q 379.75452 176.59125 379.88952 176.60625 
Q 380.02452 176.619375 380.187645 176.649375 
L 380.19327 177.755625 
z
" clip-path="url(#p7316541938)" style="fill: #ffffff; stroke: #000000; stroke-width: 2"/>
    <path d="M 334.502332 177.755625 
Q 334.320457 177.650625 334.106707 177.601875 
Q 333.892957 177.55125 333.636082 177.55125 
Q 332.721082 177.55125 332.231707 178.145625 
Q 331.742332 178.74 331.742332 179.85375 
L 331.742332 183.31125 
L 330.658582 183.31125 
L 330.658582 176.74875 
L 331.742332 176.74875 
L 331.742332 177.76875 
Q 332.083582 177.170625 332.627332 176.881875 
Q 333.172957 176.59125 333.952957 176.59125 
Q 334.063582 176.59125 334.198582 176.60625 
Q 334.333582 176.619375 334.496707 176.649375 
L 334.502332 177.755625 
z
M 340.977176 179.76 
L 340.977176 180.286875 
L 336.019676 180.286875 
Q 336.090926 181.400625 336.690926 181.98375 
Q 337.290926 182.566875 338.363426 182.566875 
Q 338.984051 182.566875 339.567176 182.415 
Q 340.150301 182.263125 340.725926 181.9575 
L 340.725926 182.9775 
Q 340.144676 183.223125 339.535301 183.3525 
Q 338.925926 183.481875 338.299676 183.481875 
Q 336.728426 183.481875 335.811551 182.56875 
Q 334.894676 181.65375 334.894676 180.09375 
Q 334.894676 178.483125 335.764676 177.538125 
Q 336.634676 176.59125 338.112176 176.59125 
Q 339.435926 176.59125 340.206551 177.444375 
Q 340.977176 178.295625 340.977176 179.76 
z
M 339.899051 179.443125 
Q 339.887801 178.56 339.404051 178.033125 
Q 338.920301 177.504375 338.123426 177.504375 
Q 337.221551 177.504375 336.679676 178.014375 
Q 336.137801 178.524375 336.055301 179.450625 
L 339.899051 179.443125 
z
M 347.469363 177 
L 347.469363 178.00875 
Q 347.011863 177.755625 346.552488 177.63 
Q 346.093113 177.504375 345.624363 177.504375 
Q 344.574363 177.504375 343.993113 178.17 
Q 343.413738 178.83375 343.413738 180.035625 
Q 343.413738 181.2375 343.993113 181.903125 
Q 344.574363 182.566875 345.624363 182.566875 
Q 346.093113 182.566875 346.552488 182.44125 
Q 347.011863 182.315625 347.469363 182.0625 
L 347.469363 183.06 
Q 347.017488 183.27 346.533738 183.375 
Q 346.051863 183.481875 345.506238 183.481875 
Q 344.023113 183.481875 343.149363 182.55 
Q 342.277488 181.618125 342.277488 180.035625 
Q 342.277488 178.430625 343.158738 177.511875 
Q 344.041863 176.59125 345.577488 176.59125 
Q 346.074363 176.59125 346.548738 176.694375 
Q 347.023113 176.795625 347.469363 177 
z
M 354.957645 179.76 
L 354.957645 180.286875 
L 350.000145 180.286875 
Q 350.071395 181.400625 350.671395 181.98375 
Q 351.271395 182.566875 352.343895 182.566875 
Q 352.96452 182.566875 353.547645 182.415 
Q 354.13077 182.263125 354.706395 181.9575 
L 354.706395 182.9775 
Q 354.125145 183.223125 353.51577 183.3525 
Q 352.906395 183.481875 352.280145 183.481875 
Q 350.708895 183.481875 349.79202 182.56875 
Q 348.875145 181.65375 348.875145 180.09375 
Q 348.875145 178.483125 349.745145 177.538125 
Q 350.615145 176.59125 352.092645 176.59125 
Q 353.416395 176.59125 354.18702 177.444375 
Q 354.957645 178.295625 354.957645 179.76 
z
M 353.87952 179.443125 
Q 353.86827 178.56 353.38452 178.033125 
Q 352.90077 177.504375 352.103895 177.504375 
Q 351.20202 177.504375 350.660145 178.014375 
Q 350.11827 178.524375 350.03577 179.450625 
L 353.87952 179.443125 
z
M 357.769207 182.326875 
L 357.769207 185.806875 
L 356.685457 185.806875 
L 356.685457 176.74875 
L 357.769207 176.74875 
L 357.769207 177.744375 
Q 358.110457 177.159375 358.627957 176.87625 
Q 359.147332 176.59125 359.867332 176.59125 
Q 361.063582 176.59125 361.809832 177.54 
Q 362.557957 178.48875 362.557957 180.035625 
Q 362.557957 181.5825 361.809832 182.533125 
Q 361.063582 183.481875 359.867332 183.481875 
Q 359.147332 183.481875 358.627957 183.196875 
Q 358.110457 182.911875 357.769207 182.326875 
z
M 361.438582 180.035625 
Q 361.438582 178.846875 360.949207 178.17 
Q 360.459832 177.493125 359.604832 177.493125 
Q 358.747957 177.493125 358.258582 178.17 
Q 357.769207 178.846875 357.769207 180.035625 
Q 357.769207 181.224375 358.258582 181.90125 
Q 358.747957 182.578125 359.604832 182.578125 
Q 360.459832 182.578125 360.949207 181.90125 
Q 361.438582 181.224375 361.438582 180.035625 
z
M 365.41077 174.885 
L 365.41077 176.74875 
L 367.63077 176.74875 
L 367.63077 177.586875 
L 365.41077 177.586875 
L 365.41077 181.149375 
Q 365.41077 181.951875 365.630145 182.180625 
Q 365.84952 182.409375 366.52452 182.409375 
L 367.63077 182.409375 
L 367.63077 183.31125 
L 366.52452 183.31125 
Q 365.27577 183.31125 364.801395 182.84625 
Q 364.32702 182.379375 364.32702 181.149375 
L 364.32702 177.586875 
L 363.53577 177.586875 
L 363.53577 176.74875 
L 364.32702 176.74875 
L 364.32702 174.885 
L 365.41077 174.885 
z
M 371.591473 177.504375 
Q 370.725223 177.504375 370.220848 178.18125 
Q 369.716473 178.858125 369.716473 180.035625 
Q 369.716473 181.213125 370.217098 181.89 
Q 370.719598 182.566875 371.591473 182.566875 
Q 372.453973 182.566875 372.956473 181.888125 
Q 373.460848 181.2075 373.460848 180.035625 
Q 373.460848 178.869375 372.956473 178.186875 
Q 372.453973 177.504375 371.591473 177.504375 
z
M 371.591473 176.59125 
Q 372.997723 176.59125 373.800223 177.50625 
Q 374.604598 178.419375 374.604598 180.035625 
Q 374.604598 181.64625 373.800223 182.565 
Q 372.997723 183.481875 371.591473 183.481875 
Q 370.179598 183.481875 369.378973 182.565 
Q 368.580223 181.64625 368.580223 180.035625 
Q 368.580223 178.419375 369.378973 177.50625 
Q 370.179598 176.59125 371.591473 176.59125 
z
M 380.19327 177.755625 
Q 380.011395 177.650625 379.797645 177.601875 
Q 379.583895 177.55125 379.32702 177.55125 
Q 378.41202 177.55125 377.922645 178.145625 
Q 377.43327 178.74 377.43327 179.85375 
L 377.43327 183.31125 
L 376.34952 183.31125 
L 376.34952 176.74875 
L 377.43327 176.74875 
L 377.43327 177.76875 
Q 377.77452 177.170625 378.31827 176.881875 
Q 378.863895 176.59125 379.643895 176.59125 
Q 379.75452 176.59125 379.88952 176.60625 
Q 380.02452 176.619375 380.187645 176.649375 
L 380.19327 177.755625 
z
" clip-path="url(#p7316541938)" style="fill: #ffffff"/>
    <path d="M 309.470145 187.999875 
L 310.66077 187.999875 
L 310.66077 193.3155 
Q 310.66077 194.72175 311.168895 195.3405 
Q 311.678895 195.957375 312.822645 195.957375 
Q 313.958895 195.957375 314.468895 195.3405 
Q 314.978895 194.72175 314.978895 193.3155 
L 314.978895 187.999875 
L 316.167645 187.999875 
L 316.167645 193.46175 
Q 316.167645 195.17175 315.320145 196.0455 
Q 314.47452 196.91925 312.822645 196.91925 
Q 311.16327 196.91925 310.31577 196.0455 
Q 309.470145 195.17175 309.470145 193.46175 
L 309.470145 187.999875 
z
M 323.797723 192.78675 
L 323.797723 196.748625 
L 322.719598 196.748625 
L 322.719598 192.822375 
Q 322.719598 191.8905 322.355848 191.42925 
Q 321.992098 190.966125 321.266473 190.966125 
Q 320.392723 190.966125 319.888348 191.523 
Q 319.383973 192.078 319.383973 193.039875 
L 319.383973 196.748625 
L 318.300223 196.748625 
L 318.300223 190.186125 
L 319.383973 190.186125 
L 319.383973 191.206125 
Q 319.772098 190.613625 320.295223 190.321125 
Q 320.820223 190.028625 321.506473 190.028625 
Q 322.637098 190.028625 323.216473 190.728 
Q 323.797723 191.427375 323.797723 192.78675 
z
M 325.946942 190.186125 
L 327.025067 190.186125 
L 327.025067 196.748625 
L 325.946942 196.748625 
L 325.946942 190.186125 
z
M 325.946942 187.6305 
L 327.025067 187.6305 
L 327.025067 188.997375 
L 325.946942 188.997375 
L 325.946942 187.6305 
z
M 330.510926 188.973 
L 330.510926 192.259875 
L 331.999676 192.259875 
Q 332.826551 192.259875 333.276551 191.832375 
Q 333.728426 191.404875 333.728426 190.613625 
Q 333.728426 189.828 333.276551 189.4005 
Q 332.826551 188.973 331.999676 188.973 
L 330.510926 188.973 
z
M 329.327801 187.999875 
L 331.999676 187.999875 
Q 333.471551 187.999875 334.223426 188.6655 
Q 334.977176 189.331125 334.977176 190.613625 
Q 334.977176 191.90925 334.223426 192.571125 
Q 333.471551 193.233 331.999676 193.233 
L 330.510926 193.233 
L 330.510926 196.748625 
L 329.327801 196.748625 
L 329.327801 187.999875 
z
M 340.109754 191.193 
Q 339.927879 191.088 339.714129 191.03925 
Q 339.500379 190.988625 339.243504 190.988625 
Q 338.328504 190.988625 337.839129 191.583 
Q 337.349754 192.177375 337.349754 193.291125 
L 337.349754 196.748625 
L 336.266004 196.748625 
L 336.266004 190.186125 
L 337.349754 190.186125 
L 337.349754 191.206125 
Q 337.691004 190.608 338.234754 190.31925 
Q 338.780379 190.028625 339.560379 190.028625 
Q 339.671004 190.028625 339.806004 190.043625 
Q 339.941004 190.05675 340.104129 190.08675 
L 340.109754 191.193 
z
M 343.513348 190.94175 
Q 342.647098 190.94175 342.142723 191.618625 
Q 341.638348 192.2955 341.638348 193.473 
Q 341.638348 194.6505 342.138973 195.327375 
Q 342.641473 196.00425 343.513348 196.00425 
Q 344.375848 196.00425 344.878348 195.3255 
Q 345.382723 194.644875 345.382723 193.473 
Q 345.382723 192.30675 344.878348 191.62425 
Q 344.375848 190.94175 343.513348 190.94175 
z
M 343.513348 190.028625 
Q 344.919598 190.028625 345.722098 190.943625 
Q 346.526473 191.85675 346.526473 193.473 
Q 346.526473 195.083625 345.722098 196.002375 
Q 344.919598 196.91925 343.513348 196.91925 
Q 342.101473 196.91925 341.300848 196.002375 
Q 340.502098 195.083625 340.502098 193.473 
Q 340.502098 191.85675 341.300848 190.943625 
Q 342.101473 190.028625 343.513348 190.028625 
z
M 349.37952 188.322375 
L 349.37952 190.186125 
L 351.59952 190.186125 
L 351.59952 191.02425 
L 349.37952 191.02425 
L 349.37952 194.58675 
Q 349.37952 195.38925 349.598895 195.618 
Q 349.81827 195.84675 350.49327 195.84675 
L 351.59952 195.84675 
L 351.59952 196.748625 
L 350.49327 196.748625 
Q 349.24452 196.748625 348.770145 196.283625 
Q 348.29577 195.81675 348.29577 194.58675 
L 348.29577 191.02425 
L 347.50452 191.02425 
L 347.50452 190.186125 
L 348.29577 190.186125 
L 348.29577 188.322375 
L 349.37952 188.322375 
z
M 353.293348 195.259875 
L 354.528973 195.259875 
L 354.528973 196.748625 
L 353.293348 196.748625 
L 353.293348 195.259875 
z
M 353.293348 190.54425 
L 354.528973 190.54425 
L 354.528973 192.031125 
L 353.293348 192.031125 
L 353.293348 190.54425 
z
M 358.290692 188.973 
L 358.290692 192.259875 
L 359.779442 192.259875 
Q 360.606317 192.259875 361.056317 191.832375 
Q 361.508192 191.404875 361.508192 190.613625 
Q 361.508192 189.828 361.056317 189.4005 
Q 360.606317 188.973 359.779442 188.973 
L 358.290692 188.973 
z
M 357.107567 187.999875 
L 359.779442 187.999875 
Q 361.251317 187.999875 362.003192 188.6655 
Q 362.756942 189.331125 362.756942 190.613625 
Q 362.756942 191.90925 362.003192 192.571125 
Q 361.251317 193.233 359.779442 193.233 
L 358.290692 193.233 
L 358.290692 196.748625 
L 357.107567 196.748625 
L 357.107567 187.999875 
z
M 368.03577 192.031125 
Q 368.885145 192.213 369.361395 192.788625 
Q 369.83952 193.362375 369.83952 194.206125 
Q 369.83952 195.499875 368.948895 196.2105 
Q 368.05827 196.91925 366.417645 196.91925 
Q 365.86827 196.91925 365.285145 196.8105 
Q 364.70202 196.70175 364.081395 196.48425 
L 364.081395 195.342375 
Q 364.572645 195.62925 365.157645 195.7755 
Q 365.74452 195.92175 366.383895 195.92175 
Q 367.49577 195.92175 368.078895 195.483 
Q 368.66202 195.04425 368.66202 194.206125 
Q 368.66202 193.43175 368.120145 192.99675 
Q 367.57827 192.559875 366.612645 192.559875 
L 365.592645 192.559875 
L 365.592645 191.58675 
L 366.65952 191.58675 
Q 367.531395 191.58675 367.99452 191.238 
Q 368.457645 190.88925 368.457645 190.233 
Q 368.457645 189.559875 367.97952 189.199875 
Q 367.50327 188.838 366.612645 188.838 
Q 366.125145 188.838 365.56827 188.944875 
Q 365.011395 189.049875 364.343895 189.271125 
L 364.343895 188.217375 
Q 365.018895 188.029875 365.607645 187.936125 
Q 366.196395 187.842375 366.717645 187.842375 
Q 368.06577 187.842375 368.84952 188.4555 
Q 369.635145 189.06675 369.635145 190.10925 
Q 369.635145 190.83675 369.218895 191.337375 
Q 368.802645 191.838 368.03577 192.031125 
z
M 374.61491 188.779875 
Q 373.701785 188.779875 373.240535 189.679875 
Q 372.78116 190.578 372.78116 192.383625 
Q 372.78116 194.18175 373.240535 195.08175 
Q 373.701785 195.98175 374.61491 195.98175 
Q 375.535535 195.98175 375.99491 195.08175 
Q 376.45616 194.18175 376.45616 192.383625 
Q 376.45616 190.578 375.99491 189.679875 
Q 375.535535 188.779875 374.61491 188.779875 
z
M 374.61491 187.842375 
Q 376.086785 187.842375 376.863035 189.00675 
Q 377.639285 190.16925 377.639285 192.383625 
Q 377.639285 194.592375 376.863035 195.75675 
Q 376.086785 196.91925 374.61491 196.91925 
Q 373.14491 196.91925 372.36866 195.75675 
Q 371.59241 194.592375 371.59241 192.383625 
Q 371.59241 190.16925 372.36866 189.00675 
Q 373.14491 187.842375 374.61491 187.842375 
z
M 379.731551 187.999875 
L 384.377801 187.999875 
L 384.377801 188.997375 
L 380.815301 188.997375 
L 380.815301 191.1405 
Q 381.072176 191.052375 381.329051 191.00925 
Q 381.587801 190.966125 381.846551 190.966125 
Q 383.310926 190.966125 384.165926 191.768625 
Q 385.022801 192.571125 385.022801 193.94175 
Q 385.022801 195.353625 384.143426 196.137375 
Q 383.264051 196.91925 381.664676 196.91925 
Q 381.113426 196.91925 380.541551 196.8255 
Q 379.971551 196.73175 379.362176 196.54425 
L 379.362176 195.353625 
Q 379.889051 195.6405 380.451551 195.781125 
Q 381.014051 195.92175 381.640301 195.92175 
Q 382.654676 195.92175 383.245301 195.38925 
Q 383.837801 194.85675 383.837801 193.94175 
Q 383.837801 193.028625 383.245301 192.496125 
Q 382.654676 191.96175 381.640301 191.96175 
Q 381.165926 191.96175 380.693426 192.06675 
Q 380.222801 192.17175 379.731551 192.394875 
L 379.731551 187.999875 
z
M 387.366317 187.999875 
L 392.012567 187.999875 
L 392.012567 188.997375 
L 388.450067 188.997375 
L 388.450067 191.1405 
Q 388.706942 191.052375 388.963817 191.00925 
Q 389.222567 190.966125 389.481317 190.966125 
Q 390.945692 190.966125 391.800692 191.768625 
Q 392.657567 192.571125 392.657567 193.94175 
Q 392.657567 195.353625 391.778192 196.137375 
Q 390.898817 196.91925 389.299442 196.91925 
Q 388.748192 196.91925 388.176317 196.8255 
Q 387.606317 196.73175 386.996942 196.54425 
L 386.996942 195.353625 
Q 387.523817 195.6405 388.086317 195.781125 
Q 388.648817 195.92175 389.275067 195.92175 
Q 390.289442 195.92175 390.880067 195.38925 
Q 391.472567 194.85675 391.472567 193.94175 
Q 391.472567 193.028625 390.880067 192.496125 
Q 390.289442 191.96175 389.275067 191.96175 
Q 388.800692 191.96175 388.328192 192.06675 
Q 387.857567 192.17175 387.366317 192.394875 
L 387.366317 187.999875 
z
M 397.667332 191.903625 
Q 396.870457 191.903625 396.403582 192.44925 
Q 395.938582 192.993 395.938582 193.94175 
Q 395.938582 194.884875 396.403582 195.43425 
Q 396.870457 195.98175 397.667332 195.98175 
Q 398.464207 195.98175 398.929207 195.43425 
Q 399.394207 194.884875 399.394207 193.94175 
Q 399.394207 192.993 398.929207 192.44925 
Q 398.464207 191.903625 397.667332 191.903625 
z
M 400.016707 188.193 
L 400.016707 189.271125 
Q 399.570457 189.061125 399.116707 188.9505 
Q 398.662957 188.838 398.216707 188.838 
Q 397.044832 188.838 396.426082 189.62925 
Q 395.809207 190.4205 395.721082 192.019875 
Q 396.066082 191.509875 396.587332 191.238 
Q 397.110457 190.966125 397.736707 190.966125 
Q 399.054832 190.966125 399.819832 191.76675 
Q 400.584832 192.5655 400.584832 193.94175 
Q 400.584832 195.289875 399.787957 196.1055 
Q 398.991082 196.91925 397.667332 196.91925 
Q 396.148582 196.91925 395.346082 195.75675 
Q 394.543582 194.592375 394.543582 192.383625 
Q 394.543582 190.309875 395.527957 189.076125 
Q 396.512332 187.842375 398.169832 187.842375 
Q 398.616082 187.842375 399.069832 187.9305 
Q 399.523582 188.018625 400.016707 188.193 
z
" clip-path="url(#p7316541938)" style="fill: #ffffff; stroke: #000000; stroke-width: 2"/>
    <path d="M 309.470145 187.999875 
L 310.66077 187.999875 
L 310.66077 193.3155 
Q 310.66077 194.72175 311.168895 195.3405 
Q 311.678895 195.957375 312.822645 195.957375 
Q 313.958895 195.957375 314.468895 195.3405 
Q 314.978895 194.72175 314.978895 193.3155 
L 314.978895 187.999875 
L 316.167645 187.999875 
L 316.167645 193.46175 
Q 316.167645 195.17175 315.320145 196.0455 
Q 314.47452 196.91925 312.822645 196.91925 
Q 311.16327 196.91925 310.31577 196.0455 
Q 309.470145 195.17175 309.470145 193.46175 
L 309.470145 187.999875 
z
M 323.797723 192.78675 
L 323.797723 196.748625 
L 322.719598 196.748625 
L 322.719598 192.822375 
Q 322.719598 191.8905 322.355848 191.42925 
Q 321.992098 190.966125 321.266473 190.966125 
Q 320.392723 190.966125 319.888348 191.523 
Q 319.383973 192.078 319.383973 193.039875 
L 319.383973 196.748625 
L 318.300223 196.748625 
L 318.300223 190.186125 
L 319.383973 190.186125 
L 319.383973 191.206125 
Q 319.772098 190.613625 320.295223 190.321125 
Q 320.820223 190.028625 321.506473 190.028625 
Q 322.637098 190.028625 323.216473 190.728 
Q 323.797723 191.427375 323.797723 192.78675 
z
M 325.946942 190.186125 
L 327.025067 190.186125 
L 327.025067 196.748625 
L 325.946942 196.748625 
L 325.946942 190.186125 
z
M 325.946942 187.6305 
L 327.025067 187.6305 
L 327.025067 188.997375 
L 325.946942 188.997375 
L 325.946942 187.6305 
z
M 330.510926 188.973 
L 330.510926 192.259875 
L 331.999676 192.259875 
Q 332.826551 192.259875 333.276551 191.832375 
Q 333.728426 191.404875 333.728426 190.613625 
Q 333.728426 189.828 333.276551 189.4005 
Q 332.826551 188.973 331.999676 188.973 
L 330.510926 188.973 
z
M 329.327801 187.999875 
L 331.999676 187.999875 
Q 333.471551 187.999875 334.223426 188.6655 
Q 334.977176 189.331125 334.977176 190.613625 
Q 334.977176 191.90925 334.223426 192.571125 
Q 333.471551 193.233 331.999676 193.233 
L 330.510926 193.233 
L 330.510926 196.748625 
L 329.327801 196.748625 
L 329.327801 187.999875 
z
M 340.109754 191.193 
Q 339.927879 191.088 339.714129 191.03925 
Q 339.500379 190.988625 339.243504 190.988625 
Q 338.328504 190.988625 337.839129 191.583 
Q 337.349754 192.177375 337.349754 193.291125 
L 337.349754 196.748625 
L 336.266004 196.748625 
L 336.266004 190.186125 
L 337.349754 190.186125 
L 337.349754 191.206125 
Q 337.691004 190.608 338.234754 190.31925 
Q 338.780379 190.028625 339.560379 190.028625 
Q 339.671004 190.028625 339.806004 190.043625 
Q 339.941004 190.05675 340.104129 190.08675 
L 340.109754 191.193 
z
M 343.513348 190.94175 
Q 342.647098 190.94175 342.142723 191.618625 
Q 341.638348 192.2955 341.638348 193.473 
Q 341.638348 194.6505 342.138973 195.327375 
Q 342.641473 196.00425 343.513348 196.00425 
Q 344.375848 196.00425 344.878348 195.3255 
Q 345.382723 194.644875 345.382723 193.473 
Q 345.382723 192.30675 344.878348 191.62425 
Q 344.375848 190.94175 343.513348 190.94175 
z
M 343.513348 190.028625 
Q 344.919598 190.028625 345.722098 190.943625 
Q 346.526473 191.85675 346.526473 193.473 
Q 346.526473 195.083625 345.722098 196.002375 
Q 344.919598 196.91925 343.513348 196.91925 
Q 342.101473 196.91925 341.300848 196.002375 
Q 340.502098 195.083625 340.502098 193.473 
Q 340.502098 191.85675 341.300848 190.943625 
Q 342.101473 190.028625 343.513348 190.028625 
z
M 349.37952 188.322375 
L 349.37952 190.186125 
L 351.59952 190.186125 
L 351.59952 191.02425 
L 349.37952 191.02425 
L 349.37952 194.58675 
Q 349.37952 195.38925 349.598895 195.618 
Q 349.81827 195.84675 350.49327 195.84675 
L 351.59952 195.84675 
L 351.59952 196.748625 
L 350.49327 196.748625 
Q 349.24452 196.748625 348.770145 196.283625 
Q 348.29577 195.81675 348.29577 194.58675 
L 348.29577 191.02425 
L 347.50452 191.02425 
L 347.50452 190.186125 
L 348.29577 190.186125 
L 348.29577 188.322375 
L 349.37952 188.322375 
z
M 353.293348 195.259875 
L 354.528973 195.259875 
L 354.528973 196.748625 
L 353.293348 196.748625 
L 353.293348 195.259875 
z
M 353.293348 190.54425 
L 354.528973 190.54425 
L 354.528973 192.031125 
L 353.293348 192.031125 
L 353.293348 190.54425 
z
M 358.290692 188.973 
L 358.290692 192.259875 
L 359.779442 192.259875 
Q 360.606317 192.259875 361.056317 191.832375 
Q 361.508192 191.404875 361.508192 190.613625 
Q 361.508192 189.828 361.056317 189.4005 
Q 360.606317 188.973 359.779442 188.973 
L 358.290692 188.973 
z
M 357.107567 187.999875 
L 359.779442 187.999875 
Q 361.251317 187.999875 362.003192 188.6655 
Q 362.756942 189.331125 362.756942 190.613625 
Q 362.756942 191.90925 362.003192 192.571125 
Q 361.251317 193.233 359.779442 193.233 
L 358.290692 193.233 
L 358.290692 196.748625 
L 357.107567 196.748625 
L 357.107567 187.999875 
z
M 368.03577 192.031125 
Q 368.885145 192.213 369.361395 192.788625 
Q 369.83952 193.362375 369.83952 194.206125 
Q 369.83952 195.499875 368.948895 196.2105 
Q 368.05827 196.91925 366.417645 196.91925 
Q 365.86827 196.91925 365.285145 196.8105 
Q 364.70202 196.70175 364.081395 196.48425 
L 364.081395 195.342375 
Q 364.572645 195.62925 365.157645 195.7755 
Q 365.74452 195.92175 366.383895 195.92175 
Q 367.49577 195.92175 368.078895 195.483 
Q 368.66202 195.04425 368.66202 194.206125 
Q 368.66202 193.43175 368.120145 192.99675 
Q 367.57827 192.559875 366.612645 192.559875 
L 365.592645 192.559875 
L 365.592645 191.58675 
L 366.65952 191.58675 
Q 367.531395 191.58675 367.99452 191.238 
Q 368.457645 190.88925 368.457645 190.233 
Q 368.457645 189.559875 367.97952 189.199875 
Q 367.50327 188.838 366.612645 188.838 
Q 366.125145 188.838 365.56827 188.944875 
Q 365.011395 189.049875 364.343895 189.271125 
L 364.343895 188.217375 
Q 365.018895 188.029875 365.607645 187.936125 
Q 366.196395 187.842375 366.717645 187.842375 
Q 368.06577 187.842375 368.84952 188.4555 
Q 369.635145 189.06675 369.635145 190.10925 
Q 369.635145 190.83675 369.218895 191.337375 
Q 368.802645 191.838 368.03577 192.031125 
z
M 374.61491 188.779875 
Q 373.701785 188.779875 373.240535 189.679875 
Q 372.78116 190.578 372.78116 192.383625 
Q 372.78116 194.18175 373.240535 195.08175 
Q 373.701785 195.98175 374.61491 195.98175 
Q 375.535535 195.98175 375.99491 195.08175 
Q 376.45616 194.18175 376.45616 192.383625 
Q 376.45616 190.578 375.99491 189.679875 
Q 375.535535 188.779875 374.61491 188.779875 
z
M 374.61491 187.842375 
Q 376.086785 187.842375 376.863035 189.00675 
Q 377.639285 190.16925 377.639285 192.383625 
Q 377.639285 194.592375 376.863035 195.75675 
Q 376.086785 196.91925 374.61491 196.91925 
Q 373.14491 196.91925 372.36866 195.75675 
Q 371.59241 194.592375 371.59241 192.383625 
Q 371.59241 190.16925 372.36866 189.00675 
Q 373.14491 187.842375 374.61491 187.842375 
z
M 379.731551 187.999875 
L 384.377801 187.999875 
L 384.377801 188.997375 
L 380.815301 188.997375 
L 380.815301 191.1405 
Q 381.072176 191.052375 381.329051 191.00925 
Q 381.587801 190.966125 381.846551 190.966125 
Q 383.310926 190.966125 384.165926 191.768625 
Q 385.022801 192.571125 385.022801 193.94175 
Q 385.022801 195.353625 384.143426 196.137375 
Q 383.264051 196.91925 381.664676 196.91925 
Q 381.113426 196.91925 380.541551 196.8255 
Q 379.971551 196.73175 379.362176 196.54425 
L 379.362176 195.353625 
Q 379.889051 195.6405 380.451551 195.781125 
Q 381.014051 195.92175 381.640301 195.92175 
Q 382.654676 195.92175 383.245301 195.38925 
Q 383.837801 194.85675 383.837801 193.94175 
Q 383.837801 193.028625 383.245301 192.496125 
Q 382.654676 191.96175 381.640301 191.96175 
Q 381.165926 191.96175 380.693426 192.06675 
Q 380.222801 192.17175 379.731551 192.394875 
L 379.731551 187.999875 
z
M 387.366317 187.999875 
L 392.012567 187.999875 
L 392.012567 188.997375 
L 388.450067 188.997375 
L 388.450067 191.1405 
Q 388.706942 191.052375 388.963817 191.00925 
Q 389.222567 190.966125 389.481317 190.966125 
Q 390.945692 190.966125 391.800692 191.768625 
Q 392.657567 192.571125 392.657567 193.94175 
Q 392.657567 195.353625 391.778192 196.137375 
Q 390.898817 196.91925 389.299442 196.91925 
Q 388.748192 196.91925 388.176317 196.8255 
Q 387.606317 196.73175 386.996942 196.54425 
L 386.996942 195.353625 
Q 387.523817 195.6405 388.086317 195.781125 
Q 388.648817 195.92175 389.275067 195.92175 
Q 390.289442 195.92175 390.880067 195.38925 
Q 391.472567 194.85675 391.472567 193.94175 
Q 391.472567 193.028625 390.880067 192.496125 
Q 390.289442 191.96175 389.275067 191.96175 
Q 388.800692 191.96175 388.328192 192.06675 
Q 387.857567 192.17175 387.366317 192.394875 
L 387.366317 187.999875 
z
M 397.667332 191.903625 
Q 396.870457 191.903625 396.403582 192.44925 
Q 395.938582 192.993 395.938582 193.94175 
Q 395.938582 194.884875 396.403582 195.43425 
Q 396.870457 195.98175 397.667332 195.98175 
Q 398.464207 195.98175 398.929207 195.43425 
Q 399.394207 194.884875 399.394207 193.94175 
Q 399.394207 192.993 398.929207 192.44925 
Q 398.464207 191.903625 397.667332 191.903625 
z
M 400.016707 188.193 
L 400.016707 189.271125 
Q 399.570457 189.061125 399.116707 188.9505 
Q 398.662957 188.838 398.216707 188.838 
Q 397.044832 188.838 396.426082 189.62925 
Q 395.809207 190.4205 395.721082 192.019875 
Q 396.066082 191.509875 396.587332 191.238 
Q 397.110457 190.966125 397.736707 190.966125 
Q 399.054832 190.966125 399.819832 191.76675 
Q 400.584832 192.5655 400.584832 193.94175 
Q 400.584832 195.289875 399.787957 196.1055 
Q 398.991082 196.91925 397.667332 196.91925 
Q 396.148582 196.91925 395.346082 195.75675 
Q 394.543582 194.592375 394.543582 192.383625 
Q 394.543582 190.309875 395.527957 189.076125 
Q 396.512332 187.842375 398.169832 187.842375 
Q 398.616082 187.842375 399.069832 187.9305 
Q 399.523582 188.018625 400.016707 188.193 
z
" clip-path="url(#p7316541938)" style="fill: #ffffff"/>
    <path d="M 336.214207 202.410375 
L 336.214207 205.69725 
L 337.702957 205.69725 
Q 338.529832 205.69725 338.979832 205.26975 
Q 339.431707 204.84225 339.431707 204.051 
Q 339.431707 203.265375 338.979832 202.837875 
Q 338.529832 202.410375 337.702957 202.410375 
L 336.214207 202.410375 
z
M 335.031082 201.43725 
L 337.702957 201.43725 
Q 339.174832 201.43725 339.926707 202.102875 
Q 340.680457 202.7685 340.680457 204.051 
Q 340.680457 205.346625 339.926707 206.0085 
Q 339.174832 206.670375 337.702957 206.670375 
L 336.214207 206.670375 
L 336.214207 210.186 
L 335.031082 210.186 
L 335.031082 201.43725 
z
M 345.813035 204.630375 
Q 345.63116 204.525375 345.41741 204.476625 
Q 345.20366 204.426 344.946785 204.426 
Q 344.031785 204.426 343.54241 205.020375 
Q 343.053035 205.61475 343.053035 206.7285 
L 343.053035 210.186 
L 341.969285 210.186 
L 341.969285 203.6235 
L 343.053035 203.6235 
L 343.053035 204.6435 
Q 343.394285 204.045375 343.938035 203.756625 
Q 344.48366 203.466 345.26366 203.466 
Q 345.374285 203.466 345.509285 203.481 
Q 345.644285 203.494125 345.80741 203.524125 
L 345.813035 204.630375 
z
M 349.216629 204.379125 
Q 348.350379 204.379125 347.846004 205.056 
Q 347.341629 205.732875 347.341629 206.910375 
Q 347.341629 208.087875 347.842254 208.76475 
Q 348.344754 209.441625 349.216629 209.441625 
Q 350.079129 209.441625 350.581629 208.762875 
Q 351.086004 208.08225 351.086004 206.910375 
Q 351.086004 205.744125 350.581629 205.061625 
Q 350.079129 204.379125 349.216629 204.379125 
z
M 349.216629 203.466 
Q 350.622879 203.466 351.425379 204.381 
Q 352.229754 205.294125 352.229754 206.910375 
Q 352.229754 208.521 351.425379 209.43975 
Q 350.622879 210.356625 349.216629 210.356625 
Q 347.804754 210.356625 347.004129 209.43975 
Q 346.205379 208.521 346.205379 206.910375 
Q 346.205379 205.294125 347.004129 204.381 
Q 347.804754 203.466 349.216629 203.466 
z
M 355.082801 201.75975 
L 355.082801 203.6235 
L 357.302801 203.6235 
L 357.302801 204.461625 
L 355.082801 204.461625 
L 355.082801 208.024125 
Q 355.082801 208.826625 355.302176 209.055375 
Q 355.521551 209.284125 356.196551 209.284125 
L 357.302801 209.284125 
L 357.302801 210.186 
L 356.196551 210.186 
Q 354.947801 210.186 354.473426 209.721 
Q 353.999051 209.254125 353.999051 208.024125 
L 353.999051 204.461625 
L 353.207801 204.461625 
L 353.207801 203.6235 
L 353.999051 203.6235 
L 353.999051 201.75975 
L 355.082801 201.75975 
z
M 364.334754 206.63475 
L 364.334754 207.161625 
L 359.377254 207.161625 
Q 359.448504 208.275375 360.048504 208.8585 
Q 360.648504 209.441625 361.721004 209.441625 
Q 362.341629 209.441625 362.924754 209.28975 
Q 363.507879 209.137875 364.083504 208.83225 
L 364.083504 209.85225 
Q 363.502254 210.097875 362.892879 210.22725 
Q 362.283504 210.356625 361.657254 210.356625 
Q 360.086004 210.356625 359.169129 209.4435 
Q 358.252254 208.5285 358.252254 206.9685 
Q 358.252254 205.357875 359.122254 204.412875 
Q 359.992254 203.466 361.469754 203.466 
Q 362.793504 203.466 363.564129 204.319125 
Q 364.334754 205.170375 364.334754 206.63475 
z
M 363.256629 206.317875 
Q 363.245379 205.43475 362.761629 204.907875 
Q 362.277879 204.379125 361.481004 204.379125 
Q 360.579129 204.379125 360.037254 204.889125 
Q 359.495379 205.399125 359.412879 206.325375 
L 363.256629 206.317875 
z
M 366.103817 203.6235 
L 367.181942 203.6235 
L 367.181942 210.186 
L 366.103817 210.186 
L 366.103817 203.6235 
z
M 366.103817 201.067875 
L 367.181942 201.067875 
L 367.181942 202.43475 
L 366.103817 202.43475 
L 366.103817 201.067875 
z
M 374.894051 206.224125 
L 374.894051 210.186 
L 373.815926 210.186 
L 373.815926 206.25975 
Q 373.815926 205.327875 373.452176 204.866625 
Q 373.088426 204.4035 372.362801 204.4035 
Q 371.489051 204.4035 370.984676 204.960375 
Q 370.480301 205.515375 370.480301 206.47725 
L 370.480301 210.186 
L 369.396551 210.186 
L 369.396551 203.6235 
L 370.480301 203.6235 
L 370.480301 204.6435 
Q 370.868426 204.051 371.391551 203.7585 
Q 371.916551 203.466 372.602801 203.466 
Q 373.733426 203.466 374.312801 204.165375 
Q 374.894051 204.86475 374.894051 206.224125 
z
" clip-path="url(#p7316541938)" style="fill: #ffffff; stroke: #000000; stroke-width: 2"/>
    <path d="M 336.214207 202.410375 
L 336.214207 205.69725 
L 337.702957 205.69725 
Q 338.529832 205.69725 338.979832 205.26975 
Q 339.431707 204.84225 339.431707 204.051 
Q 339.431707 203.265375 338.979832 202.837875 
Q 338.529832 202.410375 337.702957 202.410375 
L 336.214207 202.410375 
z
M 335.031082 201.43725 
L 337.702957 201.43725 
Q 339.174832 201.43725 339.926707 202.102875 
Q 340.680457 202.7685 340.680457 204.051 
Q 340.680457 205.346625 339.926707 206.0085 
Q 339.174832 206.670375 337.702957 206.670375 
L 336.214207 206.670375 
L 336.214207 210.186 
L 335.031082 210.186 
L 335.031082 201.43725 
z
M 345.813035 204.630375 
Q 345.63116 204.525375 345.41741 204.476625 
Q 345.20366 204.426 344.946785 204.426 
Q 344.031785 204.426 343.54241 205.020375 
Q 343.053035 205.61475 343.053035 206.7285 
L 343.053035 210.186 
L 341.969285 210.186 
L 341.969285 203.6235 
L 343.053035 203.6235 
L 343.053035 204.6435 
Q 343.394285 204.045375 343.938035 203.756625 
Q 344.48366 203.466 345.26366 203.466 
Q 345.374285 203.466 345.509285 203.481 
Q 345.644285 203.494125 345.80741 203.524125 
L 345.813035 204.630375 
z
M 349.216629 204.379125 
Q 348.350379 204.379125 347.846004 205.056 
Q 347.341629 205.732875 347.341629 206.910375 
Q 347.341629 208.087875 347.842254 208.76475 
Q 348.344754 209.441625 349.216629 209.441625 
Q 350.079129 209.441625 350.581629 208.762875 
Q 351.086004 208.08225 351.086004 206.910375 
Q 351.086004 205.744125 350.581629 205.061625 
Q 350.079129 204.379125 349.216629 204.379125 
z
M 349.216629 203.466 
Q 350.622879 203.466 351.425379 204.381 
Q 352.229754 205.294125 352.229754 206.910375 
Q 352.229754 208.521 351.425379 209.43975 
Q 350.622879 210.356625 349.216629 210.356625 
Q 347.804754 210.356625 347.004129 209.43975 
Q 346.205379 208.521 346.205379 206.910375 
Q 346.205379 205.294125 347.004129 204.381 
Q 347.804754 203.466 349.216629 203.466 
z
M 355.082801 201.75975 
L 355.082801 203.6235 
L 357.302801 203.6235 
L 357.302801 204.461625 
L 355.082801 204.461625 
L 355.082801 208.024125 
Q 355.082801 208.826625 355.302176 209.055375 
Q 355.521551 209.284125 356.196551 209.284125 
L 357.302801 209.284125 
L 357.302801 210.186 
L 356.196551 210.186 
Q 354.947801 210.186 354.473426 209.721 
Q 353.999051 209.254125 353.999051 208.024125 
L 353.999051 204.461625 
L 353.207801 204.461625 
L 353.207801 203.6235 
L 353.999051 203.6235 
L 353.999051 201.75975 
L 355.082801 201.75975 
z
M 364.334754 206.63475 
L 364.334754 207.161625 
L 359.377254 207.161625 
Q 359.448504 208.275375 360.048504 208.8585 
Q 360.648504 209.441625 361.721004 209.441625 
Q 362.341629 209.441625 362.924754 209.28975 
Q 363.507879 209.137875 364.083504 208.83225 
L 364.083504 209.85225 
Q 363.502254 210.097875 362.892879 210.22725 
Q 362.283504 210.356625 361.657254 210.356625 
Q 360.086004 210.356625 359.169129 209.4435 
Q 358.252254 208.5285 358.252254 206.9685 
Q 358.252254 205.357875 359.122254 204.412875 
Q 359.992254 203.466 361.469754 203.466 
Q 362.793504 203.466 363.564129 204.319125 
Q 364.334754 205.170375 364.334754 206.63475 
z
M 363.256629 206.317875 
Q 363.245379 205.43475 362.761629 204.907875 
Q 362.277879 204.379125 361.481004 204.379125 
Q 360.579129 204.379125 360.037254 204.889125 
Q 359.495379 205.399125 359.412879 206.325375 
L 363.256629 206.317875 
z
M 366.103817 203.6235 
L 367.181942 203.6235 
L 367.181942 210.186 
L 366.103817 210.186 
L 366.103817 203.6235 
z
M 366.103817 201.067875 
L 367.181942 201.067875 
L 367.181942 202.43475 
L 366.103817 202.43475 
L 366.103817 201.067875 
z
M 374.894051 206.224125 
L 374.894051 210.186 
L 373.815926 210.186 
L 373.815926 206.25975 
Q 373.815926 205.327875 373.452176 204.866625 
Q 373.088426 204.4035 372.362801 204.4035 
Q 371.489051 204.4035 370.984676 204.960375 
Q 370.480301 205.515375 370.480301 206.47725 
L 370.480301 210.186 
L 369.396551 210.186 
L 369.396551 203.6235 
L 370.480301 203.6235 
L 370.480301 204.6435 
Q 370.868426 204.051 371.391551 203.7585 
Q 371.916551 203.466 372.602801 203.466 
Q 373.733426 203.466 374.312801 204.165375 
Q 374.894051 204.86475 374.894051 206.224125 
z
" clip-path="url(#p7316541938)" style="fill: #ffffff"/>
   </g>
   <g id="text_6">
    <g clip-path="url(#p7316541938)">
     <!-- azilsartan -->
     <g transform="translate(75.704977 163.155187)scale(0.12 -0.12)">
      <defs>
       <path id="DejaVuSans-7a" d="M 353 3500 
L 3084 3500 
L 3084 2975 
L 922 459 
L 3084 459 
L 3084 0 
L 275 0 
L 275 525 
L 2438 3041 
L 353 3041 
L 353 3500 
z
" transform="scale(0.015625)"/>
      </defs>
      <use xlink:href="#DejaVuSans-61"/>
      <use xlink:href="#DejaVuSans-7a" x="61.279297"/>
      <use xlink:href="#DejaVuSans-69" x="113.769531"/>
      <use xlink:href="#DejaVuSans-6c" x="141.552734"/>
      <use xlink:href="#DejaVuSans-73" x="169.335938"/>
      <use xlink:href="#DejaVuSans-61" x="221.435547"/>
      <use xlink:href="#DejaVuSans-72" x="282.714844"/>
      <use xlink:href="#DejaVuSans-74" x="323.828125"/>
      <use xlink:href="#DejaVuSans-61" x="363.037109"/>
      <use xlink:href="#DejaVuSans-6e" x="424.316406"/>
     </g>
    </g>
    <g clip-path="url(#p7316541938)">
     <!-- medoxomil -->
     <g transform="translate(71.923102 176.592562)scale(0.12 -0.12)">
      <defs>
       <path id="DejaVuSans-6d" d="M 3328 2828 
Q 3544 3216 3844 3400 
Q 4144 3584 4550 3584 
Q 5097 3584 5394 3201 
Q 5691 2819 5691 2113 
L 5691 0 
L 5113 0 
L 5113 2094 
Q 5113 2597 4934 2840 
Q 4756 3084 4391 3084 
Q 3944 3084 3684 2787 
Q 3425 2491 3425 1978 
L 3425 0 
L 2847 0 
L 2847 2094 
Q 2847 2600 2669 2842 
Q 2491 3084 2119 3084 
Q 1678 3084 1418 2786 
Q 1159 2488 1159 1978 
L 1159 0 
L 581 0 
L 581 3500 
L 1159 3500 
L 1159 2956 
Q 1356 3278 1631 3431 
Q 1906 3584 2284 3584 
Q 2666 3584 2933 3390 
Q 3200 3197 3328 2828 
z
" transform="scale(0.015625)"/>
       <path id="DejaVuSans-78" d="M 3513 3500 
L 2247 1797 
L 3578 0 
L 2900 0 
L 1881 1375 
L 863 0 
L 184 0 
L 1544 1831 
L 300 3500 
L 978 3500 
L 1906 2253 
L 2834 3500 
L 3513 3500 
z
" transform="scale(0.015625)"/>
      </defs>
      <use xlink:href="#DejaVuSans-6d"/>
      <use xlink:href="#DejaVuSans-65" x="97.412109"/>
      <use xlink:href="#DejaVuSans-64" x="158.935547"/>
      <use xlink:href="#DejaVuSans-6f" x="222.412109"/>
      <use xlink:href="#DejaVuSans-78" x="280.46875"/>
      <use xlink:href="#DejaVuSans-6f" x="336.523438"/>
      <use xlink:href="#DejaVuSans-6d" x="397.705078"/>
      <use xlink:href="#DejaVuSans-69" x="495.117188"/>
      <use xlink:href="#DejaVuSans-6c" x="522.900391"/>
     </g>
    </g>
    <g clip-path="url(#p7316541938)">
     <!-- DB:DB08822 -->
     <g transform="translate(66.383414 190.029937)scale(0.12 -0.12)">
      <defs>
       <path id="DejaVuSans-44" d="M 1259 4147 
L 1259 519 
L 2022 519 
Q 2988 519 3436 956 
Q 3884 1394 3884 2338 
Q 3884 3275 3436 3711 
Q 2988 4147 2022 4147 
L 1259 4147 
z
M 628 4666 
L 1925 4666 
Q 3281 4666 3915 4102 
Q 4550 3538 4550 2338 
Q 4550 1131 3912 565 
Q 3275 0 1925 0 
L 628 0 
L 628 4666 
z
" transform="scale(0.015625)"/>
       <path id="DejaVuSans-42" d="M 1259 2228 
L 1259 519 
L 2272 519 
Q 2781 519 3026 730 
Q 3272 941 3272 1375 
Q 3272 1813 3026 2020 
Q 2781 2228 2272 2228 
L 1259 2228 
z
M 1259 4147 
L 1259 2741 
L 2194 2741 
Q 2656 2741 2882 2914 
Q 3109 3088 3109 3444 
Q 3109 3797 2882 3972 
Q 2656 4147 2194 4147 
L 1259 4147 
z
M 628 4666 
L 2241 4666 
Q 2963 4666 3353 4366 
Q 3744 4066 3744 3513 
Q 3744 3084 3544 2831 
Q 3344 2578 2956 2516 
Q 3422 2416 3680 2098 
Q 3938 1781 3938 1306 
Q 3938 681 3513 340 
Q 3088 0 2303 0 
L 628 0 
L 628 4666 
z
" transform="scale(0.015625)"/>
       <path id="DejaVuSans-3a" d="M 750 794 
L 1409 794 
L 1409 0 
L 750 0 
L 750 794 
z
M 750 3309 
L 1409 3309 
L 1409 2516 
L 750 2516 
L 750 3309 
z
" transform="scale(0.015625)"/>
       <path id="DejaVuSans-30" d="M 2034 4250 
Q 1547 4250 1301 3770 
Q 1056 3291 1056 2328 
Q 1056 1369 1301 889 
Q 1547 409 2034 409 
Q 2525 409 2770 889 
Q 3016 1369 3016 2328 
Q 3016 3291 2770 3770 
Q 2525 4250 2034 4250 
z
M 2034 4750 
Q 2819 4750 3233 4129 
Q 3647 3509 3647 2328 
Q 3647 1150 3233 529 
Q 2819 -91 2034 -91 
Q 1250 -91 836 529 
Q 422 1150 422 2328 
Q 422 3509 836 4129 
Q 1250 4750 2034 4750 
z
" transform="scale(0.015625)"/>
       <path id="DejaVuSans-38" d="M 2034 2216 
Q 1584 2216 1326 1975 
Q 1069 1734 1069 1313 
Q 1069 891 1326 650 
Q 1584 409 2034 409 
Q 2484 409 2743 651 
Q 3003 894 3003 1313 
Q 3003 1734 2745 1975 
Q 2488 2216 2034 2216 
z
M 1403 2484 
Q 997 2584 770 2862 
Q 544 3141 544 3541 
Q 544 4100 942 4425 
Q 1341 4750 2034 4750 
Q 2731 4750 3128 4425 
Q 3525 4100 3525 3541 
Q 3525 3141 3298 2862 
Q 3072 2584 2669 2484 
Q 3125 2378 3379 2068 
Q 3634 1759 3634 1313 
Q 3634 634 3220 271 
Q 2806 -91 2034 -91 
Q 1263 -91 848 271 
Q 434 634 434 1313 
Q 434 1759 690 2068 
Q 947 2378 1403 2484 
z
M 1172 3481 
Q 1172 3119 1398 2916 
Q 1625 2713 2034 2713 
Q 2441 2713 2670 2916 
Q 2900 3119 2900 3481 
Q 2900 3844 2670 4047 
Q 2441 4250 2034 4250 
Q 1625 4250 1398 4047 
Q 1172 3844 1172 3481 
z
" transform="scale(0.015625)"/>
       <path id="DejaVuSans-32" d="M 1228 531 
L 3431 531 
L 3431 0 
L 469 0 
L 469 531 
Q 828 903 1448 1529 
Q 2069 2156 2228 2338 
Q 2531 2678 2651 2914 
Q 2772 3150 2772 3378 
Q 2772 3750 2511 3984 
Q 2250 4219 1831 4219 
Q 1534 4219 1204 4116 
Q 875 4013 500 3803 
L 500 4441 
Q 881 4594 1212 4672 
Q 1544 4750 1819 4750 
Q 2544 4750 2975 4387 
Q 3406 4025 3406 3419 
Q 3406 3131 3298 2873 
Q 3191 2616 2906 2266 
Q 2828 2175 2409 1742 
Q 1991 1309 1228 531 
z
" transform="scale(0.015625)"/>
      </defs>
      <use xlink:href="#DejaVuSans-44"/>
      <use xlink:href="#DejaVuSans-42" x="77.001953"/>
      <use xlink:href="#DejaVuSans-3a" x="145.605469"/>
      <use xlink:href="#DejaVuSans-44" x="179.296875"/>
      <use xlink:href="#DejaVuSans-42" x="256.298828"/>
      <use xlink:href="#DejaVuSans-30" x="324.902344"/>
      <use xlink:href="#DejaVuSans-38" x="388.525391"/>
      <use xlink:href="#DejaVuSans-38" x="452.148438"/>
      <use xlink:href="#DejaVuSans-32" x="515.771484"/>
      <use xlink:href="#DejaVuSans-32" x="579.394531"/>
     </g>
    </g>
    <g clip-path="url(#p7316541938)">
     <!-- Drug -->
     <g transform="translate(90.267164 203.467312)scale(0.12 -0.12)">
      <use xlink:href="#DejaVuSans-44"/>
      <use xlink:href="#DejaVuSans-72" x="77.001953"/>
      <use xlink:href="#DejaVuSans-75" x="118.115234"/>
      <use xlink:href="#DejaVuSans-67" x="181.494141"/>
     </g>
    </g>
   </g>
   <g id="text_7">
    <g clip-path="url(#p7316541938)">
     <!-- Angiotensin II -->
     <g transform="translate(563.8575 169.873875)scale(0.12 -0.12)">
      <defs>
       <path id="DejaVuSans-41" d="M 2188 4044 
L 1331 1722 
L 3047 1722 
L 2188 4044 
z
M 1831 4666 
L 2547 4666 
L 4325 0 
L 3669 0 
L 3244 1197 
L 1141 1197 
L 716 0 
L 50 0 
L 1831 4666 
z
" transform="scale(0.015625)"/>
       <path id="DejaVuSans-49" d="M 628 4666 
L 1259 4666 
L 1259 0 
L 628 0 
L 628 4666 
z
" transform="scale(0.015625)"/>
      </defs>
      <use xlink:href="#DejaVuSans-41"/>
      <use xlink:href="#DejaVuSans-6e" x="68.408203"/>
      <use xlink:href="#DejaVuSans-67" x="131.787109"/>
      <use xlink:href="#DejaVuSans-69" x="195.263672"/>
      <use xlink:href="#DejaVuSans-6f" x="223.046875"/>
      <use xlink:href="#DejaVuSans-74" x="284.228516"/>
      <use xlink:href="#DejaVuSans-65" x="323.4375"/>
      <use xlink:href="#DejaVuSans-6e" x="384.960938"/>
      <use xlink:href="#DejaVuSans-73" x="448.339844"/>
      <use xlink:href="#DejaVuSans-69" x="500.439453"/>
      <use xlink:href="#DejaVuSans-6e" x="528.222656"/>
      <use xlink:href="#DejaVuSans-20" x="591.601562"/>
      <use xlink:href="#DejaVuSans-49" x="623.388672"/>
      <use xlink:href="#DejaVuSans-49" x="652.880859"/>
     </g>
    </g>
    <g clip-path="url(#p7316541938)">
     <!-- MESH:D000804 -->
     <g transform="translate(557.964375 183.31125)scale(0.12 -0.12)">
      <defs>
       <path id="DejaVuSans-4d" d="M 628 4666 
L 1569 4666 
L 2759 1491 
L 3956 4666 
L 4897 4666 
L 4897 0 
L 4281 0 
L 4281 4097 
L 3078 897 
L 2444 897 
L 1241 4097 
L 1241 0 
L 628 0 
L 628 4666 
z
" transform="scale(0.015625)"/>
       <path id="DejaVuSans-45" d="M 628 4666 
L 3578 4666 
L 3578 4134 
L 1259 4134 
L 1259 2753 
L 3481 2753 
L 3481 2222 
L 1259 2222 
L 1259 531 
L 3634 531 
L 3634 0 
L 628 0 
L 628 4666 
z
" transform="scale(0.015625)"/>
       <path id="DejaVuSans-53" d="M 3425 4513 
L 3425 3897 
Q 3066 4069 2747 4153 
Q 2428 4238 2131 4238 
Q 1616 4238 1336 4038 
Q 1056 3838 1056 3469 
Q 1056 3159 1242 3001 
Q 1428 2844 1947 2747 
L 2328 2669 
Q 3034 2534 3370 2195 
Q 3706 1856 3706 1288 
Q 3706 609 3251 259 
Q 2797 -91 1919 -91 
Q 1588 -91 1214 -16 
Q 841 59 441 206 
L 441 856 
Q 825 641 1194 531 
Q 1563 422 1919 422 
Q 2459 422 2753 634 
Q 3047 847 3047 1241 
Q 3047 1584 2836 1778 
Q 2625 1972 2144 2069 
L 1759 2144 
Q 1053 2284 737 2584 
Q 422 2884 422 3419 
Q 422 4038 858 4394 
Q 1294 4750 2059 4750 
Q 2388 4750 2728 4690 
Q 3069 4631 3425 4513 
z
" transform="scale(0.015625)"/>
       <path id="DejaVuSans-48" d="M 628 4666 
L 1259 4666 
L 1259 2753 
L 3553 2753 
L 3553 4666 
L 4184 4666 
L 4184 0 
L 3553 0 
L 3553 2222 
L 1259 2222 
L 1259 0 
L 628 0 
L 628 4666 
z
" transform="scale(0.015625)"/>
       <path id="DejaVuSans-34" d="M 2419 4116 
L 825 1625 
L 2419 1625 
L 2419 4116 
z
M 2253 4666 
L 3047 4666 
L 3047 1625 
L 3713 1625 
L 3713 1100 
L 3047 1100 
L 3047 0 
L 2419 0 
L 2419 1100 
L 313 1100 
L 313 1709 
L 2253 4666 
z
" transform="scale(0.015625)"/>
      </defs>
      <use xlink:href="#DejaVuSans-4d"/>
      <use xlink:href="#DejaVuSans-45" x="86.279297"/>
      <use xlink:href="#DejaVuSans-53" x="149.462891"/>
      <use xlink:href="#DejaVuSans-48" x="212.939453"/>
      <use xlink:href="#DejaVuSans-3a" x="288.134766"/>
      <use xlink:href="#DejaVuSans-44" x="321.826172"/>
      <use xlink:href="#DejaVuSans-30" x="398.828125"/>
      <use xlink:href="#DejaVuSans-30" x="462.451172"/>
      <use xlink:href="#DejaVuSans-30" x="526.074219"/>
      <use xlink:href="#DejaVuSans-38" x="589.697266"/>
      <use xlink:href="#DejaVuSans-30" x="653.320312"/>
      <use xlink:href="#DejaVuSans-34" x="716.943359"/>
     </g>
    </g>
    <g clip-path="url(#p7316541938)">
     <!-- ChemicalSubstance -->
     <g transform="translate(545.593125 196.748625)scale(0.12 -0.12)">
      <defs>
       <path id="DejaVuSans-43" d="M 4122 4306 
L 4122 3641 
Q 3803 3938 3442 4084 
Q 3081 4231 2675 4231 
Q 1875 4231 1450 3742 
Q 1025 3253 1025 2328 
Q 1025 1406 1450 917 
Q 1875 428 2675 428 
Q 3081 428 3442 575 
Q 3803 722 4122 1019 
L 4122 359 
Q 3791 134 3420 21 
Q 3050 -91 2638 -91 
Q 1578 -91 968 557 
Q 359 1206 359 2328 
Q 359 3453 968 4101 
Q 1578 4750 2638 4750 
Q 3056 4750 3426 4639 
Q 3797 4528 4122 4306 
z
" transform="scale(0.015625)"/>
       <path id="DejaVuSans-62" d="M 3116 1747 
Q 3116 2381 2855 2742 
Q 2594 3103 2138 3103 
Q 1681 3103 1420 2742 
Q 1159 2381 1159 1747 
Q 1159 1113 1420 752 
Q 1681 391 2138 391 
Q 2594 391 2855 752 
Q 3116 1113 3116 1747 
z
M 1159 2969 
Q 1341 3281 1617 3432 
Q 1894 3584 2278 3584 
Q 2916 3584 3314 3078 
Q 3713 2572 3713 1747 
Q 3713 922 3314 415 
Q 2916 -91 2278 -91 
Q 1894 -91 1617 61 
Q 1341 213 1159 525 
L 1159 0 
L 581 0 
L 581 4863 
L 1159 4863 
L 1159 2969 
z
" transform="scale(0.015625)"/>
      </defs>
      <use xlink:href="#DejaVuSans-43"/>
      <use xlink:href="#DejaVuSans-68" x="69.824219"/>
      <use xlink:href="#DejaVuSans-65" x="133.203125"/>
      <use xlink:href="#DejaVuSans-6d" x="194.726562"/>
      <use xlink:href="#DejaVuSans-69" x="292.138672"/>
      <use xlink:href="#DejaVuSans-63" x="319.921875"/>
      <use xlink:href="#DejaVuSans-61" x="374.902344"/>
      <use xlink:href="#DejaVuSans-6c" x="436.181641"/>
      <use xlink:href="#DejaVuSans-53" x="463.964844"/>
      <use xlink:href="#DejaVuSans-75" x="527.441406"/>
      <use xlink:href="#DejaVuSans-62" x="590.820312"/>
      <use xlink:href="#DejaVuSans-73" x="654.296875"/>
      <use xlink:href="#DejaVuSans-74" x="706.396484"/>
      <use xlink:href="#DejaVuSans-61" x="745.605469"/>
      <use xlink:href="#DejaVuSans-6e" x="806.884766"/>
      <use xlink:href="#DejaVuSans-63" x="870.263672"/>
      <use xlink:href="#DejaVuSans-65" x="925.244141"/>
     </g>
    </g>
   </g>
   <g id="text_8">
    <g clip-path="url(#p7316541938)">
     <!-- Vasoconstriction -->
     <g transform="translate(805.428293 169.873875)scale(0.12 -0.12)">
      <defs>
       <path id="DejaVuSans-56" d="M 1831 0 
L 50 4666 
L 709 4666 
L 2188 738 
L 3669 4666 
L 4325 4666 
L 2547 0 
L 1831 0 
z
" transform="scale(0.015625)"/>
      </defs>
      <use xlink:href="#DejaVuSans-56"/>
      <use xlink:href="#DejaVuSans-61" x="60.658203"/>
      <use xlink:href="#DejaVuSans-73" x="121.9375"/>
      <use xlink:href="#DejaVuSans-6f" x="174.037109"/>
      <use xlink:href="#DejaVuSans-63" x="235.21875"/>
      <use xlink:href="#DejaVuSans-6f" x="290.199219"/>
      <use xlink:href="#DejaVuSans-6e" x="351.380859"/>
      <use xlink:href="#DejaVuSans-73" x="414.759766"/>
      <use xlink:href="#DejaVuSans-74" x="466.859375"/>
      <use xlink:href="#DejaVuSans-72" x="506.068359"/>
      <use xlink:href="#DejaVuSans-69" x="547.181641"/>
      <use xlink:href="#DejaVuSans-63" x="574.964844"/>
      <use xlink:href="#DejaVuSans-74" x="629.945312"/>
      <use xlink:href="#DejaVuSans-69" x="669.154297"/>
      <use xlink:href="#DejaVuSans-6f" x="696.9375"/>
      <use xlink:href="#DejaVuSans-6e" x="758.119141"/>
     </g>
    </g>
    <g clip-path="url(#p7316541938)">
     <!-- MESH:D014661 -->
     <g transform="translate(807.88173 183.31125)scale(0.12 -0.12)">
      <defs>
       <path id="DejaVuSans-31" d="M 794 531 
L 1825 531 
L 1825 4091 
L 703 3866 
L 703 4441 
L 1819 4666 
L 2450 4666 
L 2450 531 
L 3481 531 
L 3481 0 
L 794 0 
L 794 531 
z
" transform="scale(0.015625)"/>
       <path id="DejaVuSans-36" d="M 2113 2584 
Q 1688 2584 1439 2293 
Q 1191 2003 1191 1497 
Q 1191 994 1439 701 
Q 1688 409 2113 409 
Q 2538 409 2786 701 
Q 3034 994 3034 1497 
Q 3034 2003 2786 2293 
Q 2538 2584 2113 2584 
z
M 3366 4563 
L 3366 3988 
Q 3128 4100 2886 4159 
Q 2644 4219 2406 4219 
Q 1781 4219 1451 3797 
Q 1122 3375 1075 2522 
Q 1259 2794 1537 2939 
Q 1816 3084 2150 3084 
Q 2853 3084 3261 2657 
Q 3669 2231 3669 1497 
Q 3669 778 3244 343 
Q 2819 -91 2113 -91 
Q 1303 -91 875 529 
Q 447 1150 447 2328 
Q 447 3434 972 4092 
Q 1497 4750 2381 4750 
Q 2619 4750 2861 4703 
Q 3103 4656 3366 4563 
z
" transform="scale(0.015625)"/>
      </defs>
      <use xlink:href="#DejaVuSans-4d"/>
      <use xlink:href="#DejaVuSans-45" x="86.279297"/>
      <use xlink:href="#DejaVuSans-53" x="149.462891"/>
      <use xlink:href="#DejaVuSans-48" x="212.939453"/>
      <use xlink:href="#DejaVuSans-3a" x="288.134766"/>
      <use xlink:href="#DejaVuSans-44" x="321.826172"/>
      <use xlink:href="#DejaVuSans-30" x="398.828125"/>
      <use xlink:href="#DejaVuSans-31" x="462.451172"/>
      <use xlink:href="#DejaVuSans-34" x="526.074219"/>
      <use xlink:href="#DejaVuSans-36" x="589.697266"/>
      <use xlink:href="#DejaVuSans-36" x="653.320312"/>
      <use xlink:href="#DejaVuSans-31" x="716.943359"/>
     </g>
    </g>
    <g clip-path="url(#p7316541938)">
     <!-- Disease -->
     <g transform="translate(831.118605 196.748625)scale(0.12 -0.12)">
      <use xlink:href="#DejaVuSans-44"/>
      <use xlink:href="#DejaVuSans-69" x="77.001953"/>
      <use xlink:href="#DejaVuSans-73" x="104.785156"/>
      <use xlink:href="#DejaVuSans-65" x="156.884766"/>
      <use xlink:href="#DejaVuSans-61" x="218.408203"/>
      <use xlink:href="#DejaVuSans-73" x="279.6875"/>
      <use xlink:href="#DejaVuSans-65" x="331.787109"/>
     </g>
    </g>
   </g>
   <g id="text_9">
    <g clip-path="url(#p7316541938)">
     <!-- Hypertensive -->
     <g transform="translate(1064.721586 163.155187)scale(0.12 -0.12)">
      <use xlink:href="#DejaVuSans-48"/>
      <use xlink:href="#DejaVuSans-79" x="75.195312"/>
      <use xlink:href="#DejaVuSans-70" x="134.375"/>
      <use xlink:href="#DejaVuSans-65" x="197.851562"/>
      <use xlink:href="#DejaVuSans-72" x="259.375"/>
      <use xlink:href="#DejaVuSans-74" x="300.488281"/>
      <use xlink:href="#DejaVuSans-65" x="339.697266"/>
      <use xlink:href="#DejaVuSans-6e" x="401.220703"/>
      <use xlink:href="#DejaVuSans-73" x="464.599609"/>
      <use xlink:href="#DejaVuSans-69" x="516.699219"/>
      <use xlink:href="#DejaVuSans-76" x="544.482422"/>
      <use xlink:href="#DejaVuSans-65" x="603.662109"/>
     </g>
    </g>
    <g clip-path="url(#p7316541938)">
     <!-- disorder -->
     <g transform="translate(1080.032836 176.592562)scale(0.12 -0.12)">
      <use xlink:href="#DejaVuSans-64"/>
      <use xlink:href="#DejaVuSans-69" x="63.476562"/>
      <use xlink:href="#DejaVuSans-73" x="91.259766"/>
      <use xlink:href="#DejaVuSans-6f" x="143.359375"/>
      <use xlink:href="#DejaVuSans-72" x="204.541016"/>
      <use xlink:href="#DejaVuSans-64" x="243.904297"/>
      <use xlink:href="#DejaVuSans-65" x="307.380859"/>
      <use xlink:href="#DejaVuSans-72" x="368.904297"/>
     </g>
    </g>
    <g clip-path="url(#p7316541938)">
     <!-- MESH:D006973 -->
     <g transform="translate(1057.799086 190.029937)scale(0.12 -0.12)">
      <defs>
       <path id="DejaVuSans-39" d="M 703 97 
L 703 672 
Q 941 559 1184 500 
Q 1428 441 1663 441 
Q 2288 441 2617 861 
Q 2947 1281 2994 2138 
Q 2813 1869 2534 1725 
Q 2256 1581 1919 1581 
Q 1219 1581 811 2004 
Q 403 2428 403 3163 
Q 403 3881 828 4315 
Q 1253 4750 1959 4750 
Q 2769 4750 3195 4129 
Q 3622 3509 3622 2328 
Q 3622 1225 3098 567 
Q 2575 -91 1691 -91 
Q 1453 -91 1209 -44 
Q 966 3 703 97 
z
M 1959 2075 
Q 2384 2075 2632 2365 
Q 2881 2656 2881 3163 
Q 2881 3666 2632 3958 
Q 2384 4250 1959 4250 
Q 1534 4250 1286 3958 
Q 1038 3666 1038 3163 
Q 1038 2656 1286 2365 
Q 1534 2075 1959 2075 
z
" transform="scale(0.015625)"/>
       <path id="DejaVuSans-37" d="M 525 4666 
L 3525 4666 
L 3525 4397 
L 1831 0 
L 1172 0 
L 2766 4134 
L 525 4134 
L 525 4666 
z
" transform="scale(0.015625)"/>
       <path id="DejaVuSans-33" d="M 2597 2516 
Q 3050 2419 3304 2112 
Q 3559 1806 3559 1356 
Q 3559 666 3084 287 
Q 2609 -91 1734 -91 
Q 1441 -91 1130 -33 
Q 819 25 488 141 
L 488 750 
Q 750 597 1062 519 
Q 1375 441 1716 441 
Q 2309 441 2620 675 
Q 2931 909 2931 1356 
Q 2931 1769 2642 2001 
Q 2353 2234 1838 2234 
L 1294 2234 
L 1294 2753 
L 1863 2753 
Q 2328 2753 2575 2939 
Q 2822 3125 2822 3475 
Q 2822 3834 2567 4026 
Q 2313 4219 1838 4219 
Q 1578 4219 1281 4162 
Q 984 4106 628 3988 
L 628 4550 
Q 988 4650 1302 4700 
Q 1616 4750 1894 4750 
Q 2613 4750 3031 4423 
Q 3450 4097 3450 3541 
Q 3450 3153 3228 2886 
Q 3006 2619 2597 2516 
z
" transform="scale(0.015625)"/>
      </defs>
      <use xlink:href="#DejaVuSans-4d"/>
      <use xlink:href="#DejaVuSans-45" x="86.279297"/>
      <use xlink:href="#DejaVuSans-53" x="149.462891"/>
      <use xlink:href="#DejaVuSans-48" x="212.939453"/>
      <use xlink:href="#DejaVuSans-3a" x="288.134766"/>
      <use xlink:href="#DejaVuSans-44" x="321.826172"/>
      <use xlink:href="#DejaVuSans-30" x="398.828125"/>
      <use xlink:href="#DejaVuSans-30" x="462.451172"/>
      <use xlink:href="#DejaVuSans-36" x="526.074219"/>
      <use xlink:href="#DejaVuSans-39" x="589.697266"/>
      <use xlink:href="#DejaVuSans-37" x="653.320312"/>
      <use xlink:href="#DejaVuSans-33" x="716.943359"/>
     </g>
    </g>
    <g clip-path="url(#p7316541938)">
     <!-- Disease -->
     <g transform="translate(1081.035961 203.467312)scale(0.12 -0.12)">
      <use xlink:href="#DejaVuSans-44"/>
      <use xlink:href="#DejaVuSans-69" x="77.001953"/>
      <use xlink:href="#DejaVuSans-73" x="104.785156"/>
      <use xlink:href="#DejaVuSans-65" x="156.884766"/>
      <use xlink:href="#DejaVuSans-61" x="218.408203"/>
      <use xlink:href="#DejaVuSans-73" x="279.6875"/>
      <use xlink:href="#DejaVuSans-65" x="331.787109"/>
     </g>
    </g>
   </g>
  </g>
 </g>
 <defs>
  <clipPath id="p7316541938">
   <rect x="0" y="0" width="1209.6" height="360"/>
  </clipPath>
 </defs>
</svg>
