<?xml version="1.0" encoding="utf-8" standalone="no"?>
<!DOCTYPE svg PUBLIC "-//W3C//DTD SVG 1.1//EN"
  "http://www.w3.org/Graphics/SVG/1.1/DTD/svg11.dtd">
<svg xmlns:xlink="http://www.w3.org/1999/xlink" width="864pt" height="360pt" viewBox="0 0 864 360" xmlns="http://www.w3.org/2000/svg" version="1.1">
 <metadata>
  <rdf:RDF xmlns:dc="http://purl.org/dc/elements/1.1/" xmlns:cc="http://creativecommons.org/ns#" xmlns:rdf="http://www.w3.org/1999/02/22-rdf-syntax-ns#">
   <cc:Work>
    <dc:type rdf:resource="http://purl.org/dc/dcmitype/StillImage"/>
    <dc:date>2023-02-08T08:52:40.812661</dc:date>
    <dc:format>image/svg+xml</dc:format>
    <dc:creator>
     <cc:Agent>
      <dc:title>Matplotlib v3.5.1, https://matplotlib.org/</dc:title>
     </cc:Agent>
    </dc:creator>
   </cc:Work>
  </rdf:RDF>
 </metadata>
 <defs>
  <style type="text/css">*{stroke-linejoin: round; stroke-linecap: butt}</style>
 </defs>
 <g id="figure_1">
  <g id="patch_1">
   <path d="M 0 360 
L 864 360 
L 864 0 
L 0 0 
z
" style="fill: #ffffff"/>
  </g>
  <g id="axes_1">
   <g id="patch_2">
    <path d="M 127.418126 180 
Q 253.489907 180 376.207585 180 
" clip-path="url(#pcf8574df90)" style="fill: none; stroke: #2ca02c; stroke-width: 3; stroke-linecap: round"/>
    <path d="M 372.207585 178 
L 376.207585 180 
L 372.207585 182 
L 372.207585 178 
z
" clip-path="url(#pcf8574df90)" style="fill: #2ca02c; stroke: #2ca02c; stroke-width: 3; stroke-linecap: round"/>
   </g>
   <g id="patch_3">
    <path d="M 484.44292 180 
Q 610.5147 180 733.232378 180 
" clip-path="url(#pcf8574df90)" style="fill: none; stroke: #2ca02c; stroke-width: 3; stroke-linecap: round"/>
    <path d="M 729.232378 178 
L 733.232378 180 
L 729.232378 182 
L 729.232378 178 
z
" clip-path="url(#pcf8574df90)" style="fill: #2ca02c; stroke: #2ca02c; stroke-width: 3; stroke-linecap: round"/>
   </g>
   <g id="text_1">
    <g id="patch_4">
     <path d="M 228.118072 193.437969 
L 278.857135 193.437969 
Q 281.857135 193.437969 281.857135 190.437969 
L 281.857135 169.562031 
Q 281.857135 166.562031 278.857135 166.562031 
L 228.118072 166.562031 
Q 225.118072 166.562031 225.118072 169.562031 
L 225.118072 190.437969 
Q 225.118072 193.437969 228.118072 193.437969 
z
" clip-path="url(#pcf8574df90)" style="fill: #ffffff; stroke: #ffffff; stroke-linejoin: miter"/>
    </g>
    <g clip-path="url(#pcf8574df90)">
     <!-- decreases -->
     <g transform="translate(228.118072 177.160469)scale(0.1 -0.1)">
      <defs>
       <path id="DejaVuSans-64" d="M 2906 2969 
L 2906 4863 
L 3481 4863 
L 3481 0 
L 2906 0 
L 2906 525 
Q 2725 213 2448 61 
Q 2172 -91 1784 -91 
Q 1150 -91 751 415 
Q 353 922 353 1747 
Q 353 2572 751 3078 
Q 1150 3584 1784 3584 
Q 2172 3584 2448 3432 
Q 2725 3281 2906 2969 
z
M 947 1747 
Q 947 1113 1208 752 
Q 1469 391 1925 391 
Q 2381 391 2643 752 
Q 2906 1113 2906 1747 
Q 2906 2381 2643 2742 
Q 2381 3103 1925 3103 
Q 1469 3103 1208 2742 
Q 947 2381 947 1747 
z
" transform="scale(0.015625)"/>
       <path id="DejaVuSans-65" d="M 3597 1894 
L 3597 1613 
L 953 1613 
Q 991 1019 1311 708 
Q 1631 397 2203 397 
Q 2534 397 2845 478 
Q 3156 559 3463 722 
L 3463 178 
Q 3153 47 2828 -22 
Q 2503 -91 2169 -91 
Q 1331 -91 842 396 
Q 353 884 353 1716 
Q 353 2575 817 3079 
Q 1281 3584 2069 3584 
Q 2775 3584 3186 3129 
Q 3597 2675 3597 1894 
z
M 3022 2063 
Q 3016 2534 2758 2815 
Q 2500 3097 2075 3097 
Q 1594 3097 1305 2825 
Q 1016 2553 972 2059 
L 3022 2063 
z
" transform="scale(0.015625)"/>
       <path id="DejaVuSans-63" d="M 3122 3366 
L 3122 2828 
Q 2878 2963 2633 3030 
Q 2388 3097 2138 3097 
Q 1578 3097 1268 2742 
Q 959 2388 959 1747 
Q 959 1106 1268 751 
Q 1578 397 2138 397 
Q 2388 397 2633 464 
Q 2878 531 3122 666 
L 3122 134 
Q 2881 22 2623 -34 
Q 2366 -91 2075 -91 
Q 1284 -91 818 406 
Q 353 903 353 1747 
Q 353 2603 823 3093 
Q 1294 3584 2113 3584 
Q 2378 3584 2631 3529 
Q 2884 3475 3122 3366 
z
" transform="scale(0.015625)"/>
       <path id="DejaVuSans-72" d="M 2631 2963 
Q 2534 3019 2420 3045 
Q 2306 3072 2169 3072 
Q 1681 3072 1420 2755 
Q 1159 2438 1159 1844 
L 1159 0 
L 581 0 
L 581 3500 
L 1159 3500 
L 1159 2956 
Q 1341 3275 1631 3429 
Q 1922 3584 2338 3584 
Q 2397 3584 2469 3576 
Q 2541 3569 2628 3553 
L 2631 2963 
z
" transform="scale(0.015625)"/>
       <path id="DejaVuSans-61" d="M 2194 1759 
Q 1497 1759 1228 1600 
Q 959 1441 959 1056 
Q 959 750 1161 570 
Q 1363 391 1709 391 
Q 2188 391 2477 730 
Q 2766 1069 2766 1631 
L 2766 1759 
L 2194 1759 
z
M 3341 1997 
L 3341 0 
L 2766 0 
L 2766 531 
Q 2569 213 2275 61 
Q 1981 -91 1556 -91 
Q 1019 -91 701 211 
Q 384 513 384 1019 
Q 384 1609 779 1909 
Q 1175 2209 1959 2209 
L 2766 2209 
L 2766 2266 
Q 2766 2663 2505 2880 
Q 2244 3097 1772 3097 
Q 1472 3097 1187 3025 
Q 903 2953 641 2809 
L 641 3341 
Q 956 3463 1253 3523 
Q 1550 3584 1831 3584 
Q 2591 3584 2966 3190 
Q 3341 2797 3341 1997 
z
" transform="scale(0.015625)"/>
       <path id="DejaVuSans-73" d="M 2834 3397 
L 2834 2853 
Q 2591 2978 2328 3040 
Q 2066 3103 1784 3103 
Q 1356 3103 1142 2972 
Q 928 2841 928 2578 
Q 928 2378 1081 2264 
Q 1234 2150 1697 2047 
L 1894 2003 
Q 2506 1872 2764 1633 
Q 3022 1394 3022 966 
Q 3022 478 2636 193 
Q 2250 -91 1575 -91 
Q 1294 -91 989 -36 
Q 684 19 347 128 
L 347 722 
Q 666 556 975 473 
Q 1284 391 1588 391 
Q 1994 391 2212 530 
Q 2431 669 2431 922 
Q 2431 1156 2273 1281 
Q 2116 1406 1581 1522 
L 1381 1569 
Q 847 1681 609 1914 
Q 372 2147 372 2553 
Q 372 3047 722 3315 
Q 1072 3584 1716 3584 
Q 2034 3584 2315 3537 
Q 2597 3491 2834 3397 
z
" transform="scale(0.015625)"/>
      </defs>
      <use xlink:href="#DejaVuSans-64"/>
      <use xlink:href="#DejaVuSans-65" x="63.476562"/>
      <use xlink:href="#DejaVuSans-63" x="125"/>
      <use xlink:href="#DejaVuSans-72" x="179.980469"/>
      <use xlink:href="#DejaVuSans-65" x="218.84375"/>
      <use xlink:href="#DejaVuSans-61" x="280.367188"/>
      <use xlink:href="#DejaVuSans-73" x="341.646484"/>
      <use xlink:href="#DejaVuSans-65" x="393.746094"/>
      <use xlink:href="#DejaVuSans-73" x="455.269531"/>
     </g>
    </g>
    <g clip-path="url(#pcf8574df90)">
     <!-- activity of -->
     <g transform="translate(228.648541 188.358281)scale(0.1 -0.1)">
      <defs>
       <path id="DejaVuSans-74" d="M 1172 4494 
L 1172 3500 
L 2356 3500 
L 2356 3053 
L 1172 3053 
L 1172 1153 
Q 1172 725 1289 603 
Q 1406 481 1766 481 
L 2356 481 
L 2356 0 
L 1766 0 
Q 1100 0 847 248 
Q 594 497 594 1153 
L 594 3053 
L 172 3053 
L 172 3500 
L 594 3500 
L 594 4494 
L 1172 4494 
z
" transform="scale(0.015625)"/>
       <path id="DejaVuSans-69" d="M 603 3500 
L 1178 3500 
L 1178 0 
L 603 0 
L 603 3500 
z
M 603 4863 
L 1178 4863 
L 1178 4134 
L 603 4134 
L 603 4863 
z
" transform="scale(0.015625)"/>
       <path id="DejaVuSans-76" d="M 191 3500 
L 800 3500 
L 1894 563 
L 2988 3500 
L 3597 3500 
L 2284 0 
L 1503 0 
L 191 3500 
z
" transform="scale(0.015625)"/>
       <path id="DejaVuSans-79" d="M 2059 -325 
Q 1816 -950 1584 -1140 
Q 1353 -1331 966 -1331 
L 506 -1331 
L 506 -850 
L 844 -850 
Q 1081 -850 1212 -737 
Q 1344 -625 1503 -206 
L 1606 56 
L 191 3500 
L 800 3500 
L 1894 763 
L 2988 3500 
L 3597 3500 
L 2059 -325 
z
" transform="scale(0.015625)"/>
       <path id="DejaVuSans-20" transform="scale(0.015625)"/>
       <path id="DejaVuSans-6f" d="M 1959 3097 
Q 1497 3097 1228 2736 
Q 959 2375 959 1747 
Q 959 1119 1226 758 
Q 1494 397 1959 397 
Q 2419 397 2687 759 
Q 2956 1122 2956 1747 
Q 2956 2369 2687 2733 
Q 2419 3097 1959 3097 
z
M 1959 3584 
Q 2709 3584 3137 3096 
Q 3566 2609 3566 1747 
Q 3566 888 3137 398 
Q 2709 -91 1959 -91 
Q 1206 -91 779 398 
Q 353 888 353 1747 
Q 353 2609 779 3096 
Q 1206 3584 1959 3584 
z
" transform="scale(0.015625)"/>
       <path id="DejaVuSans-66" d="M 2375 4863 
L 2375 4384 
L 1825 4384 
Q 1516 4384 1395 4259 
Q 1275 4134 1275 3809 
L 1275 3500 
L 2222 3500 
L 2222 3053 
L 1275 3053 
L 1275 0 
L 697 0 
L 697 3053 
L 147 3053 
L 147 3500 
L 697 3500 
L 697 3744 
Q 697 4328 969 4595 
Q 1241 4863 1831 4863 
L 2375 4863 
z
" transform="scale(0.015625)"/>
      </defs>
      <use xlink:href="#DejaVuSans-61"/>
      <use xlink:href="#DejaVuSans-63" x="61.279297"/>
      <use xlink:href="#DejaVuSans-74" x="116.259766"/>
      <use xlink:href="#DejaVuSans-69" x="155.46875"/>
      <use xlink:href="#DejaVuSans-76" x="183.251953"/>
      <use xlink:href="#DejaVuSans-69" x="242.431641"/>
      <use xlink:href="#DejaVuSans-74" x="270.214844"/>
      <use xlink:href="#DejaVuSans-79" x="309.423828"/>
      <use xlink:href="#DejaVuSans-20" x="368.603516"/>
      <use xlink:href="#DejaVuSans-6f" x="400.390625"/>
      <use xlink:href="#DejaVuSans-66" x="461.572266"/>
     </g>
    </g>
   </g>
   <g id="text_2">
    <g id="patch_5">
     <path d="M 572.856147 193.437969 
L 648.168647 193.437969 
Q 651.168647 193.437969 651.168647 190.437969 
L 651.168647 169.562031 
Q 651.168647 166.562031 648.168647 166.562031 
L 572.856147 166.562031 
Q 569.856147 166.562031 569.856147 169.562031 
L 569.856147 190.437969 
Q 569.856147 193.437969 572.856147 193.437969 
z
" clip-path="url(#pcf8574df90)" style="fill: #ffffff; stroke: #ffffff; stroke-linejoin: miter"/>
    </g>
    <g clip-path="url(#pcf8574df90)">
     <!-- positively -->
     <g transform="translate(586.551459 177.160469)scale(0.1 -0.1)">
      <defs>
       <path id="DejaVuSans-70" d="M 1159 525 
L 1159 -1331 
L 581 -1331 
L 581 3500 
L 1159 3500 
L 1159 2969 
Q 1341 3281 1617 3432 
Q 1894 3584 2278 3584 
Q 2916 3584 3314 3078 
Q 3713 2572 3713 1747 
Q 3713 922 3314 415 
Q 2916 -91 2278 -91 
Q 1894 -91 1617 61 
Q 1341 213 1159 525 
z
M 3116 1747 
Q 3116 2381 2855 2742 
Q 2594 3103 2138 3103 
Q 1681 3103 1420 2742 
Q 1159 2381 1159 1747 
Q 1159 1113 1420 752 
Q 1681 391 2138 391 
Q 2594 391 2855 752 
Q 3116 1113 3116 1747 
z
" transform="scale(0.015625)"/>
       <path id="DejaVuSans-6c" d="M 603 4863 
L 1178 4863 
L 1178 0 
L 603 0 
L 603 4863 
z
" transform="scale(0.015625)"/>
      </defs>
      <use xlink:href="#DejaVuSans-70"/>
      <use xlink:href="#DejaVuSans-6f" x="63.476562"/>
      <use xlink:href="#DejaVuSans-73" x="124.658203"/>
      <use xlink:href="#DejaVuSans-69" x="176.757812"/>
      <use xlink:href="#DejaVuSans-74" x="204.541016"/>
      <use xlink:href="#DejaVuSans-69" x="243.75"/>
      <use xlink:href="#DejaVuSans-76" x="271.533203"/>
      <use xlink:href="#DejaVuSans-65" x="330.712891"/>
      <use xlink:href="#DejaVuSans-6c" x="392.236328"/>
      <use xlink:href="#DejaVuSans-79" x="420.019531"/>
     </g>
    </g>
    <g clip-path="url(#pcf8574df90)">
     <!-- correlated with -->
     <g transform="translate(572.856147 188.358281)scale(0.1 -0.1)">
      <defs>
       <path id="DejaVuSans-77" d="M 269 3500 
L 844 3500 
L 1563 769 
L 2278 3500 
L 2956 3500 
L 3675 769 
L 4391 3500 
L 4966 3500 
L 4050 0 
L 3372 0 
L 2619 2869 
L 1863 0 
L 1184 0 
L 269 3500 
z
" transform="scale(0.015625)"/>
       <path id="DejaVuSans-68" d="M 3513 2113 
L 3513 0 
L 2938 0 
L 2938 2094 
Q 2938 2591 2744 2837 
Q 2550 3084 2163 3084 
Q 1697 3084 1428 2787 
Q 1159 2491 1159 1978 
L 1159 0 
L 581 0 
L 581 4863 
L 1159 4863 
L 1159 2956 
Q 1366 3272 1645 3428 
Q 1925 3584 2291 3584 
Q 2894 3584 3203 3211 
Q 3513 2838 3513 2113 
z
" transform="scale(0.015625)"/>
      </defs>
      <use xlink:href="#DejaVuSans-63"/>
      <use xlink:href="#DejaVuSans-6f" x="54.980469"/>
      <use xlink:href="#DejaVuSans-72" x="116.162109"/>
      <use xlink:href="#DejaVuSans-72" x="155.525391"/>
      <use xlink:href="#DejaVuSans-65" x="194.388672"/>
      <use xlink:href="#DejaVuSans-6c" x="255.912109"/>
      <use xlink:href="#DejaVuSans-61" x="283.695312"/>
      <use xlink:href="#DejaVuSans-74" x="344.974609"/>
      <use xlink:href="#DejaVuSans-65" x="384.183594"/>
      <use xlink:href="#DejaVuSans-64" x="445.707031"/>
      <use xlink:href="#DejaVuSans-20" x="509.183594"/>
      <use xlink:href="#DejaVuSans-77" x="540.970703"/>
      <use xlink:href="#DejaVuSans-69" x="622.757812"/>
      <use xlink:href="#DejaVuSans-74" x="650.541016"/>
      <use xlink:href="#DejaVuSans-68" x="689.75"/>
     </g>
    </g>
   </g>
   <g id="PathCollection_1">
    <defs>
     <path id="C0_0_9ee00a3fc8" d="M 0 52.440442 
C 13.907368 52.440442 27.246998 46.914987 37.080992 37.080992 
C 46.914987 27.246998 52.440442 13.907368 52.440442 -0 
C 52.440442 -13.907368 46.914987 -27.246998 37.080992 -37.080992 
C 27.246998 -46.914987 13.907368 -52.440442 0 -52.440442 
C -13.907368 -52.440442 -27.246998 -46.914987 -37.080992 -37.080992 
C -46.914987 -27.246998 -52.440442 -13.907368 -52.440442 0 
C -52.440442 13.907368 -46.914987 27.246998 -37.080992 37.080992 
C -27.246998 46.914987 -13.907368 52.440442 0 52.440442 
z
"/>
    </defs>
    <g clip-path="url(#pcf8574df90)">
     <use xlink:href="#C0_0_9ee00a3fc8" x="74.975207" y="180" style="fill: #01c472; stroke: #01c472"/>
    </g>
    <g clip-path="url(#pcf8574df90)">
     <use xlink:href="#C0_0_9ee00a3fc8" x="432" y="180" style="fill: #e71761; stroke: #e71761"/>
    </g>
    <g clip-path="url(#pcf8574df90)">
     <use xlink:href="#C0_0_9ee00a3fc8" x="789.024793" y="180" style="fill: #70c6ca; stroke: #70c6ca"/>
    </g>
   </g>
   <g id="text_3">
    <path d="M 395.007187 161.125125 
L 396.190312 161.125125 
L 396.190312 169.873875 
L 395.007187 169.873875 
L 395.007187 161.125125 
z
M 403.955625 165.912 
L 403.955625 169.873875 
L 402.8775 169.873875 
L 402.8775 165.947625 
Q 402.8775 165.01575 402.51375 164.5545 
Q 402.15 164.091375 401.424375 164.091375 
Q 400.550625 164.091375 400.04625 164.64825 
Q 399.541875 165.20325 399.541875 166.165125 
L 399.541875 169.873875 
L 398.458125 169.873875 
L 398.458125 163.311375 
L 399.541875 163.311375 
L 399.541875 164.331375 
Q 399.93 163.738875 400.453125 163.446375 
Q 400.978125 163.153875 401.664375 163.153875 
Q 402.795 163.153875 403.374375 163.85325 
Q 403.955625 164.552625 403.955625 165.912 
z
M 407.171719 161.447625 
L 407.171719 163.311375 
L 409.391719 163.311375 
L 409.391719 164.1495 
L 407.171719 164.1495 
L 407.171719 167.712 
Q 407.171719 168.5145 407.391094 168.74325 
Q 407.610469 168.972 408.285469 168.972 
L 409.391719 168.972 
L 409.391719 169.873875 
L 408.285469 169.873875 
Q 407.036719 169.873875 406.562344 169.408875 
Q 406.087969 168.942 406.087969 167.712 
L 406.087969 164.1495 
L 405.296719 164.1495 
L 405.296719 163.311375 
L 406.087969 163.311375 
L 406.087969 161.447625 
L 407.171719 161.447625 
z
M 416.423672 166.322625 
L 416.423672 166.8495 
L 411.466172 166.8495 
Q 411.537422 167.96325 412.137422 168.546375 
Q 412.737422 169.1295 413.809922 169.1295 
Q 414.430547 169.1295 415.013672 168.977625 
Q 415.596797 168.82575 416.172422 168.520125 
L 416.172422 169.540125 
Q 415.591172 169.78575 414.981797 169.915125 
Q 414.372422 170.0445 413.746172 170.0445 
Q 412.174922 170.0445 411.258047 169.131375 
Q 410.341172 168.216375 410.341172 166.656375 
Q 410.341172 165.04575 411.211172 164.10075 
Q 412.081172 163.153875 413.558672 163.153875 
Q 414.882422 163.153875 415.653047 164.007 
Q 416.423672 164.85825 416.423672 166.322625 
z
M 415.345547 166.00575 
Q 415.334297 165.122625 414.850547 164.59575 
Q 414.366797 164.067 413.569922 164.067 
Q 412.668047 164.067 412.126172 164.577 
Q 411.584297 165.087 411.501797 166.01325 
L 415.345547 166.00575 
z
M 421.995234 164.31825 
Q 421.813359 164.21325 421.599609 164.1645 
Q 421.385859 164.113875 421.128984 164.113875 
Q 420.213984 164.113875 419.724609 164.70825 
Q 419.235234 165.302625 419.235234 166.416375 
L 419.235234 169.873875 
L 418.151484 169.873875 
L 418.151484 163.311375 
L 419.235234 163.311375 
L 419.235234 164.331375 
Q 419.576484 163.73325 420.120234 163.4445 
Q 420.665859 163.153875 421.445859 163.153875 
Q 421.556484 163.153875 421.691484 163.168875 
Q 421.826484 163.182 421.989609 163.212 
L 421.995234 164.31825 
z
M 423.126328 160.75575 
L 424.204453 160.75575 
L 424.204453 169.873875 
L 423.126328 169.873875 
L 423.126328 160.75575 
z
M 432.074062 166.322625 
L 432.074062 166.8495 
L 427.116562 166.8495 
Q 427.187812 167.96325 427.787812 168.546375 
Q 428.387812 169.1295 429.460312 169.1295 
Q 430.080937 169.1295 430.664062 168.977625 
Q 431.247187 168.82575 431.822812 168.520125 
L 431.822812 169.540125 
Q 431.241562 169.78575 430.632187 169.915125 
Q 430.022812 170.0445 429.396562 170.0445 
Q 427.825312 170.0445 426.908437 169.131375 
Q 425.991562 168.216375 425.991562 166.656375 
Q 425.991562 165.04575 426.861562 164.10075 
Q 427.731562 163.153875 429.209062 163.153875 
Q 430.532812 163.153875 431.303437 164.007 
Q 432.074062 164.85825 432.074062 166.322625 
z
M 430.995937 166.00575 
Q 430.984687 165.122625 430.500937 164.59575 
Q 430.017187 164.067 429.220312 164.067 
Q 428.318437 164.067 427.776562 164.577 
Q 427.234687 165.087 427.152187 166.01325 
L 430.995937 166.00575 
z
M 433.7325 167.2845 
L 433.7325 163.311375 
L 434.810625 163.311375 
L 434.810625 167.24325 
Q 434.810625 168.175125 435.1725 168.642 
Q 435.53625 169.107 436.26375 169.107 
Q 437.135625 169.107 437.641875 168.550125 
Q 438.15 167.99325 438.15 167.031375 
L 438.15 163.311375 
L 439.228125 163.311375 
L 439.228125 169.873875 
L 438.15 169.873875 
L 438.15 168.865125 
Q 437.758125 169.46325 437.23875 169.753875 
Q 436.72125 170.0445 436.035 170.0445 
Q 434.904375 170.0445 434.3175 169.341375 
Q 433.7325 168.63825 433.7325 167.2845 
z
M 436.445625 163.153875 
L 436.445625 163.153875 
z
M 441.407344 160.75575 
L 442.491094 160.75575 
L 442.491094 166.14075 
L 445.708594 163.311375 
L 447.084844 163.311375 
L 443.604844 166.38075 
L 447.232969 169.873875 
L 445.826719 169.873875 
L 442.491094 166.6695 
L 442.491094 169.873875 
L 441.407344 169.873875 
L 441.407344 160.75575 
z
M 448.397812 163.311375 
L 449.475937 163.311375 
L 449.475937 169.873875 
L 448.397812 169.873875 
L 448.397812 163.311375 
z
M 448.397812 160.75575 
L 449.475937 160.75575 
L 449.475937 162.122625 
L 448.397812 162.122625 
L 448.397812 160.75575 
z
M 457.188047 165.912 
L 457.188047 169.873875 
L 456.109922 169.873875 
L 456.109922 165.947625 
Q 456.109922 165.01575 455.746172 164.5545 
Q 455.382422 164.091375 454.656797 164.091375 
Q 453.783047 164.091375 453.278672 164.64825 
Q 452.774297 165.20325 452.774297 166.165125 
L 452.774297 169.873875 
L 451.690547 169.873875 
L 451.690547 163.311375 
L 452.774297 163.311375 
L 452.774297 164.331375 
Q 453.162422 163.738875 453.685547 163.446375 
Q 454.210547 163.153875 454.896797 163.153875 
Q 456.027422 163.153875 456.606797 163.85325 
Q 457.188047 164.552625 457.188047 165.912 
z
M 458.793516 166.107 
L 461.951016 166.107 
L 461.951016 167.067 
L 458.793516 167.067 
L 458.793516 166.107 
z
M 466.498594 165.028875 
Q 465.701719 165.028875 465.234844 165.5745 
Q 464.769844 166.11825 464.769844 167.067 
Q 464.769844 168.010125 465.234844 168.5595 
Q 465.701719 169.107 466.498594 169.107 
Q 467.295469 169.107 467.760469 168.5595 
Q 468.225469 168.010125 468.225469 167.067 
Q 468.225469 166.11825 467.760469 165.5745 
Q 467.295469 165.028875 466.498594 165.028875 
z
M 468.847969 161.31825 
L 468.847969 162.396375 
Q 468.401719 162.186375 467.947969 162.07575 
Q 467.494219 161.96325 467.047969 161.96325 
Q 465.876094 161.96325 465.257344 162.7545 
Q 464.640469 163.54575 464.552344 165.145125 
Q 464.897344 164.635125 465.418594 164.36325 
Q 465.941719 164.091375 466.567969 164.091375 
Q 467.886094 164.091375 468.651094 164.892 
Q 469.416094 165.69075 469.416094 167.067 
Q 469.416094 168.415125 468.619219 169.23075 
Q 467.822344 170.0445 466.498594 170.0445 
Q 464.979844 170.0445 464.177344 168.882 
Q 463.374844 167.717625 463.374844 165.508875 
Q 463.374844 163.435125 464.359219 162.201375 
Q 465.343594 160.967625 467.001094 160.967625 
Q 467.447344 160.967625 467.901094 161.05575 
Q 468.354844 161.143875 468.847969 161.31825 
z
" clip-path="url(#pcf8574df90)" style="fill: #ffffff; stroke: #000000; stroke-width: 2"/>
    <path d="M 395.007187 161.125125 
L 396.190312 161.125125 
L 396.190312 169.873875 
L 395.007187 169.873875 
L 395.007187 161.125125 
z
M 403.955625 165.912 
L 403.955625 169.873875 
L 402.8775 169.873875 
L 402.8775 165.947625 
Q 402.8775 165.01575 402.51375 164.5545 
Q 402.15 164.091375 401.424375 164.091375 
Q 400.550625 164.091375 400.04625 164.64825 
Q 399.541875 165.20325 399.541875 166.165125 
L 399.541875 169.873875 
L 398.458125 169.873875 
L 398.458125 163.311375 
L 399.541875 163.311375 
L 399.541875 164.331375 
Q 399.93 163.738875 400.453125 163.446375 
Q 400.978125 163.153875 401.664375 163.153875 
Q 402.795 163.153875 403.374375 163.85325 
Q 403.955625 164.552625 403.955625 165.912 
z
M 407.171719 161.447625 
L 407.171719 163.311375 
L 409.391719 163.311375 
L 409.391719 164.1495 
L 407.171719 164.1495 
L 407.171719 167.712 
Q 407.171719 168.5145 407.391094 168.74325 
Q 407.610469 168.972 408.285469 168.972 
L 409.391719 168.972 
L 409.391719 169.873875 
L 408.285469 169.873875 
Q 407.036719 169.873875 406.562344 169.408875 
Q 406.087969 168.942 406.087969 167.712 
L 406.087969 164.1495 
L 405.296719 164.1495 
L 405.296719 163.311375 
L 406.087969 163.311375 
L 406.087969 161.447625 
L 407.171719 161.447625 
z
M 416.423672 166.322625 
L 416.423672 166.8495 
L 411.466172 166.8495 
Q 411.537422 167.96325 412.137422 168.546375 
Q 412.737422 169.1295 413.809922 169.1295 
Q 414.430547 169.1295 415.013672 168.977625 
Q 415.596797 168.82575 416.172422 168.520125 
L 416.172422 169.540125 
Q 415.591172 169.78575 414.981797 169.915125 
Q 414.372422 170.0445 413.746172 170.0445 
Q 412.174922 170.0445 411.258047 169.131375 
Q 410.341172 168.216375 410.341172 166.656375 
Q 410.341172 165.04575 411.211172 164.10075 
Q 412.081172 163.153875 413.558672 163.153875 
Q 414.882422 163.153875 415.653047 164.007 
Q 416.423672 164.85825 416.423672 166.322625 
z
M 415.345547 166.00575 
Q 415.334297 165.122625 414.850547 164.59575 
Q 414.366797 164.067 413.569922 164.067 
Q 412.668047 164.067 412.126172 164.577 
Q 411.584297 165.087 411.501797 166.01325 
L 415.345547 166.00575 
z
M 421.995234 164.31825 
Q 421.813359 164.21325 421.599609 164.1645 
Q 421.385859 164.113875 421.128984 164.113875 
Q 420.213984 164.113875 419.724609 164.70825 
Q 419.235234 165.302625 419.235234 166.416375 
L 419.235234 169.873875 
L 418.151484 169.873875 
L 418.151484 163.311375 
L 419.235234 163.311375 
L 419.235234 164.331375 
Q 419.576484 163.73325 420.120234 163.4445 
Q 420.665859 163.153875 421.445859 163.153875 
Q 421.556484 163.153875 421.691484 163.168875 
Q 421.826484 163.182 421.989609 163.212 
L 421.995234 164.31825 
z
M 423.126328 160.75575 
L 424.204453 160.75575 
L 424.204453 169.873875 
L 423.126328 169.873875 
L 423.126328 160.75575 
z
M 432.074062 166.322625 
L 432.074062 166.8495 
L 427.116562 166.8495 
Q 427.187812 167.96325 427.787812 168.546375 
Q 428.387812 169.1295 429.460312 169.1295 
Q 430.080937 169.1295 430.664062 168.977625 
Q 431.247187 168.82575 431.822812 168.520125 
L 431.822812 169.540125 
Q 431.241562 169.78575 430.632187 169.915125 
Q 430.022812 170.0445 429.396562 170.0445 
Q 427.825312 170.0445 426.908437 169.131375 
Q 425.991562 168.216375 425.991562 166.656375 
Q 425.991562 165.04575 426.861562 164.10075 
Q 427.731562 163.153875 429.209062 163.153875 
Q 430.532812 163.153875 431.303437 164.007 
Q 432.074062 164.85825 432.074062 166.322625 
z
M 430.995937 166.00575 
Q 430.984687 165.122625 430.500937 164.59575 
Q 430.017187 164.067 429.220312 164.067 
Q 428.318437 164.067 427.776562 164.577 
Q 427.234687 165.087 427.152187 166.01325 
L 430.995937 166.00575 
z
M 433.7325 167.2845 
L 433.7325 163.311375 
L 434.810625 163.311375 
L 434.810625 167.24325 
Q 434.810625 168.175125 435.1725 168.642 
Q 435.53625 169.107 436.26375 169.107 
Q 437.135625 169.107 437.641875 168.550125 
Q 438.15 167.99325 438.15 167.031375 
L 438.15 163.311375 
L 439.228125 163.311375 
L 439.228125 169.873875 
L 438.15 169.873875 
L 438.15 168.865125 
Q 437.758125 169.46325 437.23875 169.753875 
Q 436.72125 170.0445 436.035 170.0445 
Q 434.904375 170.0445 434.3175 169.341375 
Q 433.7325 168.63825 433.7325 167.2845 
z
M 436.445625 163.153875 
L 436.445625 163.153875 
z
M 441.407344 160.75575 
L 442.491094 160.75575 
L 442.491094 166.14075 
L 445.708594 163.311375 
L 447.084844 163.311375 
L 443.604844 166.38075 
L 447.232969 169.873875 
L 445.826719 169.873875 
L 442.491094 166.6695 
L 442.491094 169.873875 
L 441.407344 169.873875 
L 441.407344 160.75575 
z
M 448.397812 163.311375 
L 449.475937 163.311375 
L 449.475937 169.873875 
L 448.397812 169.873875 
L 448.397812 163.311375 
z
M 448.397812 160.75575 
L 449.475937 160.75575 
L 449.475937 162.122625 
L 448.397812 162.122625 
L 448.397812 160.75575 
z
M 457.188047 165.912 
L 457.188047 169.873875 
L 456.109922 169.873875 
L 456.109922 165.947625 
Q 456.109922 165.01575 455.746172 164.5545 
Q 455.382422 164.091375 454.656797 164.091375 
Q 453.783047 164.091375 453.278672 164.64825 
Q 452.774297 165.20325 452.774297 166.165125 
L 452.774297 169.873875 
L 451.690547 169.873875 
L 451.690547 163.311375 
L 452.774297 163.311375 
L 452.774297 164.331375 
Q 453.162422 163.738875 453.685547 163.446375 
Q 454.210547 163.153875 454.896797 163.153875 
Q 456.027422 163.153875 456.606797 163.85325 
Q 457.188047 164.552625 457.188047 165.912 
z
M 458.793516 166.107 
L 461.951016 166.107 
L 461.951016 167.067 
L 458.793516 167.067 
L 458.793516 166.107 
z
M 466.498594 165.028875 
Q 465.701719 165.028875 465.234844 165.5745 
Q 464.769844 166.11825 464.769844 167.067 
Q 464.769844 168.010125 465.234844 168.5595 
Q 465.701719 169.107 466.498594 169.107 
Q 467.295469 169.107 467.760469 168.5595 
Q 468.225469 168.010125 468.225469 167.067 
Q 468.225469 166.11825 467.760469 165.5745 
Q 467.295469 165.028875 466.498594 165.028875 
z
M 468.847969 161.31825 
L 468.847969 162.396375 
Q 468.401719 162.186375 467.947969 162.07575 
Q 467.494219 161.96325 467.047969 161.96325 
Q 465.876094 161.96325 465.257344 162.7545 
Q 464.640469 163.54575 464.552344 165.145125 
Q 464.897344 164.635125 465.418594 164.36325 
Q 465.941719 164.091375 466.567969 164.091375 
Q 467.886094 164.091375 468.651094 164.892 
Q 469.416094 165.69075 469.416094 167.067 
Q 469.416094 168.415125 468.619219 169.23075 
Q 467.822344 170.0445 466.498594 170.0445 
Q 464.979844 170.0445 464.177344 168.882 
Q 463.374844 167.717625 463.374844 165.508875 
Q 463.374844 163.435125 464.359219 162.201375 
Q 465.343594 160.967625 467.001094 160.967625 
Q 467.447344 160.967625 467.901094 161.05575 
Q 468.354844 161.143875 468.847969 161.31825 
z
" clip-path="url(#pcf8574df90)" style="fill: #ffffff"/>
    <path d="M 386.5875 174.5625 
L 387.778125 174.5625 
L 387.778125 179.878125 
Q 387.778125 181.284375 388.28625 181.903125 
Q 388.79625 182.52 389.94 182.52 
Q 391.07625 182.52 391.58625 181.903125 
Q 392.09625 181.284375 392.09625 179.878125 
L 392.09625 174.5625 
L 393.285 174.5625 
L 393.285 180.024375 
Q 393.285 181.734375 392.4375 182.608125 
Q 391.591875 183.481875 389.94 183.481875 
Q 388.280625 183.481875 387.433125 182.608125 
Q 386.5875 181.734375 386.5875 180.024375 
L 386.5875 174.5625 
z
M 400.915078 179.349375 
L 400.915078 183.31125 
L 399.836953 183.31125 
L 399.836953 179.385 
Q 399.836953 178.453125 399.473203 177.991875 
Q 399.109453 177.52875 398.383828 177.52875 
Q 397.510078 177.52875 397.005703 178.085625 
Q 396.501328 178.640625 396.501328 179.6025 
L 396.501328 183.31125 
L 395.417578 183.31125 
L 395.417578 176.74875 
L 396.501328 176.74875 
L 396.501328 177.76875 
Q 396.889453 177.17625 397.412578 176.88375 
Q 397.937578 176.59125 398.623828 176.59125 
Q 399.754453 176.59125 400.333828 177.290625 
Q 400.915078 177.99 400.915078 179.349375 
z
M 403.064297 176.74875 
L 404.142422 176.74875 
L 404.142422 183.31125 
L 403.064297 183.31125 
L 403.064297 176.74875 
z
M 403.064297 174.193125 
L 404.142422 174.193125 
L 404.142422 175.56 
L 403.064297 175.56 
L 403.064297 174.193125 
z
M 407.628281 175.535625 
L 407.628281 178.8225 
L 409.117031 178.8225 
Q 409.943906 178.8225 410.393906 178.395 
Q 410.845781 177.9675 410.845781 177.17625 
Q 410.845781 176.390625 410.393906 175.963125 
Q 409.943906 175.535625 409.117031 175.535625 
L 407.628281 175.535625 
z
M 406.445156 174.5625 
L 409.117031 174.5625 
Q 410.588906 174.5625 411.340781 175.228125 
Q 412.094531 175.89375 412.094531 177.17625 
Q 412.094531 178.471875 411.340781 179.13375 
Q 410.588906 179.795625 409.117031 179.795625 
L 407.628281 179.795625 
L 407.628281 183.31125 
L 406.445156 183.31125 
L 406.445156 174.5625 
z
M 417.227109 177.755625 
Q 417.045234 177.650625 416.831484 177.601875 
Q 416.617734 177.55125 416.360859 177.55125 
Q 415.445859 177.55125 414.956484 178.145625 
Q 414.467109 178.74 414.467109 179.85375 
L 414.467109 183.31125 
L 413.383359 183.31125 
L 413.383359 176.74875 
L 414.467109 176.74875 
L 414.467109 177.76875 
Q 414.808359 177.170625 415.352109 176.881875 
Q 415.897734 176.59125 416.677734 176.59125 
Q 416.788359 176.59125 416.923359 176.60625 
Q 417.058359 176.619375 417.221484 176.649375 
L 417.227109 177.755625 
z
M 420.630703 177.504375 
Q 419.764453 177.504375 419.260078 178.18125 
Q 418.755703 178.858125 418.755703 180.035625 
Q 418.755703 181.213125 419.256328 181.89 
Q 419.758828 182.566875 420.630703 182.566875 
Q 421.493203 182.566875 421.995703 181.888125 
Q 422.500078 181.2075 422.500078 180.035625 
Q 422.500078 178.869375 421.995703 178.186875 
Q 421.493203 177.504375 420.630703 177.504375 
z
M 420.630703 176.59125 
Q 422.036953 176.59125 422.839453 177.50625 
Q 423.643828 178.419375 423.643828 180.035625 
Q 423.643828 181.64625 422.839453 182.565 
Q 422.036953 183.481875 420.630703 183.481875 
Q 419.218828 183.481875 418.418203 182.565 
Q 417.619453 181.64625 417.619453 180.035625 
Q 417.619453 178.419375 418.418203 177.50625 
Q 419.218828 176.59125 420.630703 176.59125 
z
M 426.496875 174.885 
L 426.496875 176.74875 
L 428.716875 176.74875 
L 428.716875 177.586875 
L 426.496875 177.586875 
L 426.496875 181.149375 
Q 426.496875 181.951875 426.71625 182.180625 
Q 426.935625 182.409375 427.610625 182.409375 
L 428.716875 182.409375 
L 428.716875 183.31125 
L 427.610625 183.31125 
Q 426.361875 183.31125 425.8875 182.84625 
Q 425.413125 182.379375 425.413125 181.149375 
L 425.413125 177.586875 
L 424.621875 177.586875 
L 424.621875 176.74875 
L 425.413125 176.74875 
L 425.413125 174.885 
L 426.496875 174.885 
z
M 430.410703 181.8225 
L 431.646328 181.8225 
L 431.646328 183.31125 
L 430.410703 183.31125 
L 430.410703 181.8225 
z
M 430.410703 177.106875 
L 431.646328 177.106875 
L 431.646328 178.59375 
L 430.410703 178.59375 
L 430.410703 177.106875 
z
M 435.408047 175.535625 
L 435.408047 178.8225 
L 436.896797 178.8225 
Q 437.723672 178.8225 438.173672 178.395 
Q 438.625547 177.9675 438.625547 177.17625 
Q 438.625547 176.390625 438.173672 175.963125 
Q 437.723672 175.535625 436.896797 175.535625 
L 435.408047 175.535625 
z
M 434.224922 174.5625 
L 436.896797 174.5625 
Q 438.368672 174.5625 439.120547 175.228125 
Q 439.874297 175.89375 439.874297 177.17625 
Q 439.874297 178.471875 439.120547 179.13375 
Q 438.368672 179.795625 436.896797 179.795625 
L 435.408047 179.795625 
L 435.408047 183.31125 
L 434.224922 183.31125 
L 434.224922 174.5625 
z
M 444.0975 175.3425 
Q 443.184375 175.3425 442.723125 176.2425 
Q 442.26375 177.140625 442.26375 178.94625 
Q 442.26375 180.744375 442.723125 181.644375 
Q 443.184375 182.544375 444.0975 182.544375 
Q 445.018125 182.544375 445.4775 181.644375 
Q 445.93875 180.744375 445.93875 178.94625 
Q 445.93875 177.140625 445.4775 176.2425 
Q 445.018125 175.3425 444.0975 175.3425 
z
M 444.0975 174.405 
Q 445.569375 174.405 446.345625 175.569375 
Q 447.121875 176.731875 447.121875 178.94625 
Q 447.121875 181.155 446.345625 182.319375 
Q 445.569375 183.481875 444.0975 183.481875 
Q 442.6275 183.481875 441.85125 182.319375 
Q 441.075 181.155 441.075 178.94625 
Q 441.075 176.731875 441.85125 175.569375 
Q 442.6275 174.405 444.0975 174.405 
z
M 449.214141 174.5625 
L 453.860391 174.5625 
L 453.860391 175.56 
L 450.297891 175.56 
L 450.297891 177.703125 
Q 450.554766 177.615 450.811641 177.571875 
Q 451.070391 177.52875 451.329141 177.52875 
Q 452.793516 177.52875 453.648516 178.33125 
Q 454.505391 179.13375 454.505391 180.504375 
Q 454.505391 181.91625 453.626016 182.7 
Q 452.746641 183.481875 451.147266 183.481875 
Q 450.596016 183.481875 450.024141 183.388125 
Q 449.454141 183.294375 448.844766 183.106875 
L 448.844766 181.91625 
Q 449.371641 182.203125 449.934141 182.34375 
Q 450.496641 182.484375 451.122891 182.484375 
Q 452.137266 182.484375 452.727891 181.951875 
Q 453.320391 181.419375 453.320391 180.504375 
Q 453.320391 179.59125 452.727891 179.05875 
Q 452.137266 178.524375 451.122891 178.524375 
Q 450.648516 178.524375 450.176016 178.629375 
Q 449.705391 178.734375 449.214141 178.9575 
L 449.214141 174.5625 
z
M 457.855781 182.315625 
L 461.986406 182.315625 
L 461.986406 183.31125 
L 456.432656 183.31125 
L 456.432656 182.315625 
Q 457.105781 181.618125 458.268281 180.444375 
Q 459.432656 179.26875 459.730781 178.9275 
Q 460.298906 178.29 460.523906 177.8475 
Q 460.750781 177.405 460.750781 176.9775 
Q 460.750781 176.28 460.261406 175.84125 
Q 459.772031 175.400625 458.986406 175.400625 
Q 458.429531 175.400625 457.810781 175.59375 
Q 457.193906 175.786875 456.490781 176.180625 
L 456.490781 174.984375 
Q 457.205156 174.6975 457.825781 174.55125 
Q 458.448281 174.405 458.963906 174.405 
Q 460.323281 174.405 461.131406 175.085625 
Q 461.939531 175.764375 461.939531 176.900625 
Q 461.939531 177.440625 461.737031 177.924375 
Q 461.536406 178.40625 461.002031 179.0625 
Q 460.855781 179.233125 460.070156 180.045 
Q 459.286406 180.856875 457.855781 182.315625 
z
M 468.057422 178.59375 
Q 468.906797 178.775625 469.383047 179.35125 
Q 469.861172 179.925 469.861172 180.76875 
Q 469.861172 182.0625 468.970547 182.773125 
Q 468.079922 183.481875 466.439297 183.481875 
Q 465.889922 183.481875 465.306797 183.373125 
Q 464.723672 183.264375 464.103047 183.046875 
L 464.103047 181.905 
Q 464.594297 182.191875 465.179297 182.338125 
Q 465.766172 182.484375 466.405547 182.484375 
Q 467.517422 182.484375 468.100547 182.045625 
Q 468.683672 181.606875 468.683672 180.76875 
Q 468.683672 179.994375 468.141797 179.559375 
Q 467.599922 179.1225 466.634297 179.1225 
L 465.614297 179.1225 
L 465.614297 178.149375 
L 466.681172 178.149375 
Q 467.553047 178.149375 468.016172 177.800625 
Q 468.479297 177.451875 468.479297 176.795625 
Q 468.479297 176.1225 468.001172 175.7625 
Q 467.524922 175.400625 466.634297 175.400625 
Q 466.146797 175.400625 465.589922 175.5075 
Q 465.033047 175.6125 464.365547 175.83375 
L 464.365547 174.78 
Q 465.040547 174.5925 465.629297 174.49875 
Q 466.218047 174.405 466.739297 174.405 
Q 468.087422 174.405 468.871172 175.018125 
Q 469.656797 175.629375 469.656797 176.671875 
Q 469.656797 177.399375 469.240547 177.9 
Q 468.824297 178.400625 468.057422 178.59375 
z
M 472.311562 182.315625 
L 474.244687 182.315625 
L 474.244687 175.640625 
L 472.140937 176.0625 
L 472.140937 174.984375 
L 474.233437 174.5625 
L 475.416562 174.5625 
L 475.416562 182.315625 
L 477.349687 182.315625 
L 477.349687 183.31125 
L 472.311562 183.31125 
L 472.311562 182.315625 
z
" clip-path="url(#pcf8574df90)" style="fill: #ffffff; stroke: #000000; stroke-width: 2"/>
    <path d="M 386.5875 174.5625 
L 387.778125 174.5625 
L 387.778125 179.878125 
Q 387.778125 181.284375 388.28625 181.903125 
Q 388.79625 182.52 389.94 182.52 
Q 391.07625 182.52 391.58625 181.903125 
Q 392.09625 181.284375 392.09625 179.878125 
L 392.09625 174.5625 
L 393.285 174.5625 
L 393.285 180.024375 
Q 393.285 181.734375 392.4375 182.608125 
Q 391.591875 183.481875 389.94 183.481875 
Q 388.280625 183.481875 387.433125 182.608125 
Q 386.5875 181.734375 386.5875 180.024375 
L 386.5875 174.5625 
z
M 400.915078 179.349375 
L 400.915078 183.31125 
L 399.836953 183.31125 
L 399.836953 179.385 
Q 399.836953 178.453125 399.473203 177.991875 
Q 399.109453 177.52875 398.383828 177.52875 
Q 397.510078 177.52875 397.005703 178.085625 
Q 396.501328 178.640625 396.501328 179.6025 
L 396.501328 183.31125 
L 395.417578 183.31125 
L 395.417578 176.74875 
L 396.501328 176.74875 
L 396.501328 177.76875 
Q 396.889453 177.17625 397.412578 176.88375 
Q 397.937578 176.59125 398.623828 176.59125 
Q 399.754453 176.59125 400.333828 177.290625 
Q 400.915078 177.99 400.915078 179.349375 
z
M 403.064297 176.74875 
L 404.142422 176.74875 
L 404.142422 183.31125 
L 403.064297 183.31125 
L 403.064297 176.74875 
z
M 403.064297 174.193125 
L 404.142422 174.193125 
L 404.142422 175.56 
L 403.064297 175.56 
L 403.064297 174.193125 
z
M 407.628281 175.535625 
L 407.628281 178.8225 
L 409.117031 178.8225 
Q 409.943906 178.8225 410.393906 178.395 
Q 410.845781 177.9675 410.845781 177.17625 
Q 410.845781 176.390625 410.393906 175.963125 
Q 409.943906 175.535625 409.117031 175.535625 
L 407.628281 175.535625 
z
M 406.445156 174.5625 
L 409.117031 174.5625 
Q 410.588906 174.5625 411.340781 175.228125 
Q 412.094531 175.89375 412.094531 177.17625 
Q 412.094531 178.471875 411.340781 179.13375 
Q 410.588906 179.795625 409.117031 179.795625 
L 407.628281 179.795625 
L 407.628281 183.31125 
L 406.445156 183.31125 
L 406.445156 174.5625 
z
M 417.227109 177.755625 
Q 417.045234 177.650625 416.831484 177.601875 
Q 416.617734 177.55125 416.360859 177.55125 
Q 415.445859 177.55125 414.956484 178.145625 
Q 414.467109 178.74 414.467109 179.85375 
L 414.467109 183.31125 
L 413.383359 183.31125 
L 413.383359 176.74875 
L 414.467109 176.74875 
L 414.467109 177.76875 
Q 414.808359 177.170625 415.352109 176.881875 
Q 415.897734 176.59125 416.677734 176.59125 
Q 416.788359 176.59125 416.923359 176.60625 
Q 417.058359 176.619375 417.221484 176.649375 
L 417.227109 177.755625 
z
M 420.630703 177.504375 
Q 419.764453 177.504375 419.260078 178.18125 
Q 418.755703 178.858125 418.755703 180.035625 
Q 418.755703 181.213125 419.256328 181.89 
Q 419.758828 182.566875 420.630703 182.566875 
Q 421.493203 182.566875 421.995703 181.888125 
Q 422.500078 181.2075 422.500078 180.035625 
Q 422.500078 178.869375 421.995703 178.186875 
Q 421.493203 177.504375 420.630703 177.504375 
z
M 420.630703 176.59125 
Q 422.036953 176.59125 422.839453 177.50625 
Q 423.643828 178.419375 423.643828 180.035625 
Q 423.643828 181.64625 422.839453 182.565 
Q 422.036953 183.481875 420.630703 183.481875 
Q 419.218828 183.481875 418.418203 182.565 
Q 417.619453 181.64625 417.619453 180.035625 
Q 417.619453 178.419375 418.418203 177.50625 
Q 419.218828 176.59125 420.630703 176.59125 
z
M 426.496875 174.885 
L 426.496875 176.74875 
L 428.716875 176.74875 
L 428.716875 177.586875 
L 426.496875 177.586875 
L 426.496875 181.149375 
Q 426.496875 181.951875 426.71625 182.180625 
Q 426.935625 182.409375 427.610625 182.409375 
L 428.716875 182.409375 
L 428.716875 183.31125 
L 427.610625 183.31125 
Q 426.361875 183.31125 425.8875 182.84625 
Q 425.413125 182.379375 425.413125 181.149375 
L 425.413125 177.586875 
L 424.621875 177.586875 
L 424.621875 176.74875 
L 425.413125 176.74875 
L 425.413125 174.885 
L 426.496875 174.885 
z
M 430.410703 181.8225 
L 431.646328 181.8225 
L 431.646328 183.31125 
L 430.410703 183.31125 
L 430.410703 181.8225 
z
M 430.410703 177.106875 
L 431.646328 177.106875 
L 431.646328 178.59375 
L 430.410703 178.59375 
L 430.410703 177.106875 
z
M 435.408047 175.535625 
L 435.408047 178.8225 
L 436.896797 178.8225 
Q 437.723672 178.8225 438.173672 178.395 
Q 438.625547 177.9675 438.625547 177.17625 
Q 438.625547 176.390625 438.173672 175.963125 
Q 437.723672 175.535625 436.896797 175.535625 
L 435.408047 175.535625 
z
M 434.224922 174.5625 
L 436.896797 174.5625 
Q 438.368672 174.5625 439.120547 175.228125 
Q 439.874297 175.89375 439.874297 177.17625 
Q 439.874297 178.471875 439.120547 179.13375 
Q 438.368672 179.795625 436.896797 179.795625 
L 435.408047 179.795625 
L 435.408047 183.31125 
L 434.224922 183.31125 
L 434.224922 174.5625 
z
M 444.0975 175.3425 
Q 443.184375 175.3425 442.723125 176.2425 
Q 442.26375 177.140625 442.26375 178.94625 
Q 442.26375 180.744375 442.723125 181.644375 
Q 443.184375 182.544375 444.0975 182.544375 
Q 445.018125 182.544375 445.4775 181.644375 
Q 445.93875 180.744375 445.93875 178.94625 
Q 445.93875 177.140625 445.4775 176.2425 
Q 445.018125 175.3425 444.0975 175.3425 
z
M 444.0975 174.405 
Q 445.569375 174.405 446.345625 175.569375 
Q 447.121875 176.731875 447.121875 178.94625 
Q 447.121875 181.155 446.345625 182.319375 
Q 445.569375 183.481875 444.0975 183.481875 
Q 442.6275 183.481875 441.85125 182.319375 
Q 441.075 181.155 441.075 178.94625 
Q 441.075 176.731875 441.85125 175.569375 
Q 442.6275 174.405 444.0975 174.405 
z
M 449.214141 174.5625 
L 453.860391 174.5625 
L 453.860391 175.56 
L 450.297891 175.56 
L 450.297891 177.703125 
Q 450.554766 177.615 450.811641 177.571875 
Q 451.070391 177.52875 451.329141 177.52875 
Q 452.793516 177.52875 453.648516 178.33125 
Q 454.505391 179.13375 454.505391 180.504375 
Q 454.505391 181.91625 453.626016 182.7 
Q 452.746641 183.481875 451.147266 183.481875 
Q 450.596016 183.481875 450.024141 183.388125 
Q 449.454141 183.294375 448.844766 183.106875 
L 448.844766 181.91625 
Q 449.371641 182.203125 449.934141 182.34375 
Q 450.496641 182.484375 451.122891 182.484375 
Q 452.137266 182.484375 452.727891 181.951875 
Q 453.320391 181.419375 453.320391 180.504375 
Q 453.320391 179.59125 452.727891 179.05875 
Q 452.137266 178.524375 451.122891 178.524375 
Q 450.648516 178.524375 450.176016 178.629375 
Q 449.705391 178.734375 449.214141 178.9575 
L 449.214141 174.5625 
z
M 457.855781 182.315625 
L 461.986406 182.315625 
L 461.986406 183.31125 
L 456.432656 183.31125 
L 456.432656 182.315625 
Q 457.105781 181.618125 458.268281 180.444375 
Q 459.432656 179.26875 459.730781 178.9275 
Q 460.298906 178.29 460.523906 177.8475 
Q 460.750781 177.405 460.750781 176.9775 
Q 460.750781 176.28 460.261406 175.84125 
Q 459.772031 175.400625 458.986406 175.400625 
Q 458.429531 175.400625 457.810781 175.59375 
Q 457.193906 175.786875 456.490781 176.180625 
L 456.490781 174.984375 
Q 457.205156 174.6975 457.825781 174.55125 
Q 458.448281 174.405 458.963906 174.405 
Q 460.323281 174.405 461.131406 175.085625 
Q 461.939531 175.764375 461.939531 176.900625 
Q 461.939531 177.440625 461.737031 177.924375 
Q 461.536406 178.40625 461.002031 179.0625 
Q 460.855781 179.233125 460.070156 180.045 
Q 459.286406 180.856875 457.855781 182.315625 
z
M 468.057422 178.59375 
Q 468.906797 178.775625 469.383047 179.35125 
Q 469.861172 179.925 469.861172 180.76875 
Q 469.861172 182.0625 468.970547 182.773125 
Q 468.079922 183.481875 466.439297 183.481875 
Q 465.889922 183.481875 465.306797 183.373125 
Q 464.723672 183.264375 464.103047 183.046875 
L 464.103047 181.905 
Q 464.594297 182.191875 465.179297 182.338125 
Q 465.766172 182.484375 466.405547 182.484375 
Q 467.517422 182.484375 468.100547 182.045625 
Q 468.683672 181.606875 468.683672 180.76875 
Q 468.683672 179.994375 468.141797 179.559375 
Q 467.599922 179.1225 466.634297 179.1225 
L 465.614297 179.1225 
L 465.614297 178.149375 
L 466.681172 178.149375 
Q 467.553047 178.149375 468.016172 177.800625 
Q 468.479297 177.451875 468.479297 176.795625 
Q 468.479297 176.1225 468.001172 175.7625 
Q 467.524922 175.400625 466.634297 175.400625 
Q 466.146797 175.400625 465.589922 175.5075 
Q 465.033047 175.6125 464.365547 175.83375 
L 464.365547 174.78 
Q 465.040547 174.5925 465.629297 174.49875 
Q 466.218047 174.405 466.739297 174.405 
Q 468.087422 174.405 468.871172 175.018125 
Q 469.656797 175.629375 469.656797 176.671875 
Q 469.656797 177.399375 469.240547 177.9 
Q 468.824297 178.400625 468.057422 178.59375 
z
M 472.311562 182.315625 
L 474.244687 182.315625 
L 474.244687 175.640625 
L 472.140937 176.0625 
L 472.140937 174.984375 
L 474.233437 174.5625 
L 475.416562 174.5625 
L 475.416562 182.315625 
L 477.349687 182.315625 
L 477.349687 183.31125 
L 472.311562 183.31125 
L 472.311562 182.315625 
z
" clip-path="url(#pcf8574df90)" style="fill: #ffffff"/>
    <path d="M 413.331562 188.973 
L 413.331562 192.259875 
L 414.820312 192.259875 
Q 415.647187 192.259875 416.097187 191.832375 
Q 416.549062 191.404875 416.549062 190.613625 
Q 416.549062 189.828 416.097187 189.4005 
Q 415.647187 188.973 414.820312 188.973 
L 413.331562 188.973 
z
M 412.148437 187.999875 
L 414.820312 187.999875 
Q 416.292187 187.999875 417.044062 188.6655 
Q 417.797812 189.331125 417.797812 190.613625 
Q 417.797812 191.90925 417.044062 192.571125 
Q 416.292187 193.233 414.820312 193.233 
L 413.331562 193.233 
L 413.331562 196.748625 
L 412.148437 196.748625 
L 412.148437 187.999875 
z
M 422.930391 191.193 
Q 422.748516 191.088 422.534766 191.03925 
Q 422.321016 190.988625 422.064141 190.988625 
Q 421.149141 190.988625 420.659766 191.583 
Q 420.170391 192.177375 420.170391 193.291125 
L 420.170391 196.748625 
L 419.086641 196.748625 
L 419.086641 190.186125 
L 420.170391 190.186125 
L 420.170391 191.206125 
Q 420.511641 190.608 421.055391 190.31925 
Q 421.601016 190.028625 422.381016 190.028625 
Q 422.491641 190.028625 422.626641 190.043625 
Q 422.761641 190.05675 422.924766 190.08675 
L 422.930391 191.193 
z
M 426.333984 190.94175 
Q 425.467734 190.94175 424.963359 191.618625 
Q 424.458984 192.2955 424.458984 193.473 
Q 424.458984 194.6505 424.959609 195.327375 
Q 425.462109 196.00425 426.333984 196.00425 
Q 427.196484 196.00425 427.698984 195.3255 
Q 428.203359 194.644875 428.203359 193.473 
Q 428.203359 192.30675 427.698984 191.62425 
Q 427.196484 190.94175 426.333984 190.94175 
z
M 426.333984 190.028625 
Q 427.740234 190.028625 428.542734 190.943625 
Q 429.347109 191.85675 429.347109 193.473 
Q 429.347109 195.083625 428.542734 196.002375 
Q 427.740234 196.91925 426.333984 196.91925 
Q 424.922109 196.91925 424.121484 196.002375 
Q 423.322734 195.083625 423.322734 193.473 
Q 423.322734 191.85675 424.121484 190.943625 
Q 424.922109 190.028625 426.333984 190.028625 
z
M 432.200156 188.322375 
L 432.200156 190.186125 
L 434.420156 190.186125 
L 434.420156 191.02425 
L 432.200156 191.02425 
L 432.200156 194.58675 
Q 432.200156 195.38925 432.419531 195.618 
Q 432.638906 195.84675 433.313906 195.84675 
L 434.420156 195.84675 
L 434.420156 196.748625 
L 433.313906 196.748625 
Q 432.065156 196.748625 431.590781 196.283625 
Q 431.116406 195.81675 431.116406 194.58675 
L 431.116406 191.02425 
L 430.325156 191.02425 
L 430.325156 190.186125 
L 431.116406 190.186125 
L 431.116406 188.322375 
L 432.200156 188.322375 
z
M 441.452109 193.197375 
L 441.452109 193.72425 
L 436.494609 193.72425 
Q 436.565859 194.838 437.165859 195.421125 
Q 437.765859 196.00425 438.838359 196.00425 
Q 439.458984 196.00425 440.042109 195.852375 
Q 440.625234 195.7005 441.200859 195.394875 
L 441.200859 196.414875 
Q 440.619609 196.6605 440.010234 196.789875 
Q 439.400859 196.91925 438.774609 196.91925 
Q 437.203359 196.91925 436.286484 196.006125 
Q 435.369609 195.091125 435.369609 193.531125 
Q 435.369609 191.9205 436.239609 190.9755 
Q 437.109609 190.028625 438.587109 190.028625 
Q 439.910859 190.028625 440.681484 190.88175 
Q 441.452109 191.733 441.452109 193.197375 
z
M 440.373984 192.8805 
Q 440.362734 191.997375 439.878984 191.4705 
Q 439.395234 190.94175 438.598359 190.94175 
Q 437.696484 190.94175 437.154609 191.45175 
Q 436.612734 191.96175 436.530234 192.888 
L 440.373984 192.8805 
z
M 443.221172 190.186125 
L 444.299297 190.186125 
L 444.299297 196.748625 
L 443.221172 196.748625 
L 443.221172 190.186125 
z
M 443.221172 187.6305 
L 444.299297 187.6305 
L 444.299297 188.997375 
L 443.221172 188.997375 
L 443.221172 187.6305 
z
M 452.011406 192.78675 
L 452.011406 196.748625 
L 450.933281 196.748625 
L 450.933281 192.822375 
Q 450.933281 191.8905 450.569531 191.42925 
Q 450.205781 190.966125 449.480156 190.966125 
Q 448.606406 190.966125 448.102031 191.523 
Q 447.597656 192.078 447.597656 193.039875 
L 447.597656 196.748625 
L 446.513906 196.748625 
L 446.513906 190.186125 
L 447.597656 190.186125 
L 447.597656 191.206125 
Q 447.985781 190.613625 448.508906 190.321125 
Q 449.033906 190.028625 449.720156 190.028625 
Q 450.850781 190.028625 451.430156 190.728 
Q 452.011406 191.427375 452.011406 192.78675 
z
" clip-path="url(#pcf8574df90)" style="fill: #ffffff; stroke: #000000; stroke-width: 2"/>
    <path d="M 413.331562 188.973 
L 413.331562 192.259875 
L 414.820312 192.259875 
Q 415.647187 192.259875 416.097187 191.832375 
Q 416.549062 191.404875 416.549062 190.613625 
Q 416.549062 189.828 416.097187 189.4005 
Q 415.647187 188.973 414.820312 188.973 
L 413.331562 188.973 
z
M 412.148437 187.999875 
L 414.820312 187.999875 
Q 416.292187 187.999875 417.044062 188.6655 
Q 417.797812 189.331125 417.797812 190.613625 
Q 417.797812 191.90925 417.044062 192.571125 
Q 416.292187 193.233 414.820312 193.233 
L 413.331562 193.233 
L 413.331562 196.748625 
L 412.148437 196.748625 
L 412.148437 187.999875 
z
M 422.930391 191.193 
Q 422.748516 191.088 422.534766 191.03925 
Q 422.321016 190.988625 422.064141 190.988625 
Q 421.149141 190.988625 420.659766 191.583 
Q 420.170391 192.177375 420.170391 193.291125 
L 420.170391 196.748625 
L 419.086641 196.748625 
L 419.086641 190.186125 
L 420.170391 190.186125 
L 420.170391 191.206125 
Q 420.511641 190.608 421.055391 190.31925 
Q 421.601016 190.028625 422.381016 190.028625 
Q 422.491641 190.028625 422.626641 190.043625 
Q 422.761641 190.05675 422.924766 190.08675 
L 422.930391 191.193 
z
M 426.333984 190.94175 
Q 425.467734 190.94175 424.963359 191.618625 
Q 424.458984 192.2955 424.458984 193.473 
Q 424.458984 194.6505 424.959609 195.327375 
Q 425.462109 196.00425 426.333984 196.00425 
Q 427.196484 196.00425 427.698984 195.3255 
Q 428.203359 194.644875 428.203359 193.473 
Q 428.203359 192.30675 427.698984 191.62425 
Q 427.196484 190.94175 426.333984 190.94175 
z
M 426.333984 190.028625 
Q 427.740234 190.028625 428.542734 190.943625 
Q 429.347109 191.85675 429.347109 193.473 
Q 429.347109 195.083625 428.542734 196.002375 
Q 427.740234 196.91925 426.333984 196.91925 
Q 424.922109 196.91925 424.121484 196.002375 
Q 423.322734 195.083625 423.322734 193.473 
Q 423.322734 191.85675 424.121484 190.943625 
Q 424.922109 190.028625 426.333984 190.028625 
z
M 432.200156 188.322375 
L 432.200156 190.186125 
L 434.420156 190.186125 
L 434.420156 191.02425 
L 432.200156 191.02425 
L 432.200156 194.58675 
Q 432.200156 195.38925 432.419531 195.618 
Q 432.638906 195.84675 433.313906 195.84675 
L 434.420156 195.84675 
L 434.420156 196.748625 
L 433.313906 196.748625 
Q 432.065156 196.748625 431.590781 196.283625 
Q 431.116406 195.81675 431.116406 194.58675 
L 431.116406 191.02425 
L 430.325156 191.02425 
L 430.325156 190.186125 
L 431.116406 190.186125 
L 431.116406 188.322375 
L 432.200156 188.322375 
z
M 441.452109 193.197375 
L 441.452109 193.72425 
L 436.494609 193.72425 
Q 436.565859 194.838 437.165859 195.421125 
Q 437.765859 196.00425 438.838359 196.00425 
Q 439.458984 196.00425 440.042109 195.852375 
Q 440.625234 195.7005 441.200859 195.394875 
L 441.200859 196.414875 
Q 440.619609 196.6605 440.010234 196.789875 
Q 439.400859 196.91925 438.774609 196.91925 
Q 437.203359 196.91925 436.286484 196.006125 
Q 435.369609 195.091125 435.369609 193.531125 
Q 435.369609 191.9205 436.239609 190.9755 
Q 437.109609 190.028625 438.587109 190.028625 
Q 439.910859 190.028625 440.681484 190.88175 
Q 441.452109 191.733 441.452109 193.197375 
z
M 440.373984 192.8805 
Q 440.362734 191.997375 439.878984 191.4705 
Q 439.395234 190.94175 438.598359 190.94175 
Q 437.696484 190.94175 437.154609 191.45175 
Q 436.612734 191.96175 436.530234 192.888 
L 440.373984 192.8805 
z
M 443.221172 190.186125 
L 444.299297 190.186125 
L 444.299297 196.748625 
L 443.221172 196.748625 
L 443.221172 190.186125 
z
M 443.221172 187.6305 
L 444.299297 187.6305 
L 444.299297 188.997375 
L 443.221172 188.997375 
L 443.221172 187.6305 
z
M 452.011406 192.78675 
L 452.011406 196.748625 
L 450.933281 196.748625 
L 450.933281 192.822375 
Q 450.933281 191.8905 450.569531 191.42925 
Q 450.205781 190.966125 449.480156 190.966125 
Q 448.606406 190.966125 448.102031 191.523 
Q 447.597656 192.078 447.597656 193.039875 
L 447.597656 196.748625 
L 446.513906 196.748625 
L 446.513906 190.186125 
L 447.597656 190.186125 
L 447.597656 191.206125 
Q 447.985781 190.613625 448.508906 190.321125 
Q 449.033906 190.028625 449.720156 190.028625 
Q 450.850781 190.028625 451.430156 190.728 
Q 452.011406 191.427375 452.011406 192.78675 
z
" clip-path="url(#pcf8574df90)" style="fill: #ffffff"/>
   </g>
   <g id="text_4">
    <g clip-path="url(#pcf8574df90)">
     <!-- Siltuximab -->
     <g transform="translate(43.129269 169.873875)scale(0.12 -0.12)">
      <defs>
       <path id="DejaVuSans-53" d="M 3425 4513 
L 3425 3897 
Q 3066 4069 2747 4153 
Q 2428 4238 2131 4238 
Q 1616 4238 1336 4038 
Q 1056 3838 1056 3469 
Q 1056 3159 1242 3001 
Q 1428 2844 1947 2747 
L 2328 2669 
Q 3034 2534 3370 2195 
Q 3706 1856 3706 1288 
Q 3706 609 3251 259 
Q 2797 -91 1919 -91 
Q 1588 -91 1214 -16 
Q 841 59 441 206 
L 441 856 
Q 825 641 1194 531 
Q 1563 422 1919 422 
Q 2459 422 2753 634 
Q 3047 847 3047 1241 
Q 3047 1584 2836 1778 
Q 2625 1972 2144 2069 
L 1759 2144 
Q 1053 2284 737 2584 
Q 422 2884 422 3419 
Q 422 4038 858 4394 
Q 1294 4750 2059 4750 
Q 2388 4750 2728 4690 
Q 3069 4631 3425 4513 
z
" transform="scale(0.015625)"/>
       <path id="DejaVuSans-75" d="M 544 1381 
L 544 3500 
L 1119 3500 
L 1119 1403 
Q 1119 906 1312 657 
Q 1506 409 1894 409 
Q 2359 409 2629 706 
Q 2900 1003 2900 1516 
L 2900 3500 
L 3475 3500 
L 3475 0 
L 2900 0 
L 2900 538 
Q 2691 219 2414 64 
Q 2138 -91 1772 -91 
Q 1169 -91 856 284 
Q 544 659 544 1381 
z
M 1991 3584 
L 1991 3584 
z
" transform="scale(0.015625)"/>
       <path id="DejaVuSans-78" d="M 3513 3500 
L 2247 1797 
L 3578 0 
L 2900 0 
L 1881 1375 
L 863 0 
L 184 0 
L 1544 1831 
L 300 3500 
L 978 3500 
L 1906 2253 
L 2834 3500 
L 3513 3500 
z
" transform="scale(0.015625)"/>
       <path id="DejaVuSans-6d" d="M 3328 2828 
Q 3544 3216 3844 3400 
Q 4144 3584 4550 3584 
Q 5097 3584 5394 3201 
Q 5691 2819 5691 2113 
L 5691 0 
L 5113 0 
L 5113 2094 
Q 5113 2597 4934 2840 
Q 4756 3084 4391 3084 
Q 3944 3084 3684 2787 
Q 3425 2491 3425 1978 
L 3425 0 
L 2847 0 
L 2847 2094 
Q 2847 2600 2669 2842 
Q 2491 3084 2119 3084 
Q 1678 3084 1418 2786 
Q 1159 2488 1159 1978 
L 1159 0 
L 581 0 
L 581 3500 
L 1159 3500 
L 1159 2956 
Q 1356 3278 1631 3431 
Q 1906 3584 2284 3584 
Q 2666 3584 2933 3390 
Q 3200 3197 3328 2828 
z
" transform="scale(0.015625)"/>
       <path id="DejaVuSans-62" d="M 3116 1747 
Q 3116 2381 2855 2742 
Q 2594 3103 2138 3103 
Q 1681 3103 1420 2742 
Q 1159 2381 1159 1747 
Q 1159 1113 1420 752 
Q 1681 391 2138 391 
Q 2594 391 2855 752 
Q 3116 1113 3116 1747 
z
M 1159 2969 
Q 1341 3281 1617 3432 
Q 1894 3584 2278 3584 
Q 2916 3584 3314 3078 
Q 3713 2572 3713 1747 
Q 3713 922 3314 415 
Q 2916 -91 2278 -91 
Q 1894 -91 1617 61 
Q 1341 213 1159 525 
L 1159 0 
L 581 0 
L 581 4863 
L 1159 4863 
L 1159 2969 
z
" transform="scale(0.015625)"/>
      </defs>
      <use xlink:href="#DejaVuSans-53"/>
      <use xlink:href="#DejaVuSans-69" x="63.476562"/>
      <use xlink:href="#DejaVuSans-6c" x="91.259766"/>
      <use xlink:href="#DejaVuSans-74" x="119.042969"/>
      <use xlink:href="#DejaVuSans-75" x="158.251953"/>
      <use xlink:href="#DejaVuSans-78" x="221.630859"/>
      <use xlink:href="#DejaVuSans-69" x="280.810547"/>
      <use xlink:href="#DejaVuSans-6d" x="308.59375"/>
      <use xlink:href="#DejaVuSans-61" x="406.005859"/>
      <use xlink:href="#DejaVuSans-62" x="467.285156"/>
     </g>
    </g>
    <g clip-path="url(#pcf8574df90)">
     <!-- MESH:C504234 -->
     <g transform="translate(28.569894 183.31125)scale(0.12 -0.12)">
      <defs>
       <path id="DejaVuSans-4d" d="M 628 4666 
L 1569 4666 
L 2759 1491 
L 3956 4666 
L 4897 4666 
L 4897 0 
L 4281 0 
L 4281 4097 
L 3078 897 
L 2444 897 
L 1241 4097 
L 1241 0 
L 628 0 
L 628 4666 
z
" transform="scale(0.015625)"/>
       <path id="DejaVuSans-45" d="M 628 4666 
L 3578 4666 
L 3578 4134 
L 1259 4134 
L 1259 2753 
L 3481 2753 
L 3481 2222 
L 1259 2222 
L 1259 531 
L 3634 531 
L 3634 0 
L 628 0 
L 628 4666 
z
" transform="scale(0.015625)"/>
       <path id="DejaVuSans-48" d="M 628 4666 
L 1259 4666 
L 1259 2753 
L 3553 2753 
L 3553 4666 
L 4184 4666 
L 4184 0 
L 3553 0 
L 3553 2222 
L 1259 2222 
L 1259 0 
L 628 0 
L 628 4666 
z
" transform="scale(0.015625)"/>
       <path id="DejaVuSans-3a" d="M 750 794 
L 1409 794 
L 1409 0 
L 750 0 
L 750 794 
z
M 750 3309 
L 1409 3309 
L 1409 2516 
L 750 2516 
L 750 3309 
z
" transform="scale(0.015625)"/>
       <path id="DejaVuSans-43" d="M 4122 4306 
L 4122 3641 
Q 3803 3938 3442 4084 
Q 3081 4231 2675 4231 
Q 1875 4231 1450 3742 
Q 1025 3253 1025 2328 
Q 1025 1406 1450 917 
Q 1875 428 2675 428 
Q 3081 428 3442 575 
Q 3803 722 4122 1019 
L 4122 359 
Q 3791 134 3420 21 
Q 3050 -91 2638 -91 
Q 1578 -91 968 557 
Q 359 1206 359 2328 
Q 359 3453 968 4101 
Q 1578 4750 2638 4750 
Q 3056 4750 3426 4639 
Q 3797 4528 4122 4306 
z
" transform="scale(0.015625)"/>
       <path id="DejaVuSans-35" d="M 691 4666 
L 3169 4666 
L 3169 4134 
L 1269 4134 
L 1269 2991 
Q 1406 3038 1543 3061 
Q 1681 3084 1819 3084 
Q 2600 3084 3056 2656 
Q 3513 2228 3513 1497 
Q 3513 744 3044 326 
Q 2575 -91 1722 -91 
Q 1428 -91 1123 -41 
Q 819 9 494 109 
L 494 744 
Q 775 591 1075 516 
Q 1375 441 1709 441 
Q 2250 441 2565 725 
Q 2881 1009 2881 1497 
Q 2881 1984 2565 2268 
Q 2250 2553 1709 2553 
Q 1456 2553 1204 2497 
Q 953 2441 691 2322 
L 691 4666 
z
" transform="scale(0.015625)"/>
       <path id="DejaVuSans-30" d="M 2034 4250 
Q 1547 4250 1301 3770 
Q 1056 3291 1056 2328 
Q 1056 1369 1301 889 
Q 1547 409 2034 409 
Q 2525 409 2770 889 
Q 3016 1369 3016 2328 
Q 3016 3291 2770 3770 
Q 2525 4250 2034 4250 
z
M 2034 4750 
Q 2819 4750 3233 4129 
Q 3647 3509 3647 2328 
Q 3647 1150 3233 529 
Q 2819 -91 2034 -91 
Q 1250 -91 836 529 
Q 422 1150 422 2328 
Q 422 3509 836 4129 
Q 1250 4750 2034 4750 
z
" transform="scale(0.015625)"/>
       <path id="DejaVuSans-34" d="M 2419 4116 
L 825 1625 
L 2419 1625 
L 2419 4116 
z
M 2253 4666 
L 3047 4666 
L 3047 1625 
L 3713 1625 
L 3713 1100 
L 3047 1100 
L 3047 0 
L 2419 0 
L 2419 1100 
L 313 1100 
L 313 1709 
L 2253 4666 
z
" transform="scale(0.015625)"/>
       <path id="DejaVuSans-32" d="M 1228 531 
L 3431 531 
L 3431 0 
L 469 0 
L 469 531 
Q 828 903 1448 1529 
Q 2069 2156 2228 2338 
Q 2531 2678 2651 2914 
Q 2772 3150 2772 3378 
Q 2772 3750 2511 3984 
Q 2250 4219 1831 4219 
Q 1534 4219 1204 4116 
Q 875 4013 500 3803 
L 500 4441 
Q 881 4594 1212 4672 
Q 1544 4750 1819 4750 
Q 2544 4750 2975 4387 
Q 3406 4025 3406 3419 
Q 3406 3131 3298 2873 
Q 3191 2616 2906 2266 
Q 2828 2175 2409 1742 
Q 1991 1309 1228 531 
z
" transform="scale(0.015625)"/>
       <path id="DejaVuSans-33" d="M 2597 2516 
Q 3050 2419 3304 2112 
Q 3559 1806 3559 1356 
Q 3559 666 3084 287 
Q 2609 -91 1734 -91 
Q 1441 -91 1130 -33 
Q 819 25 488 141 
L 488 750 
Q 750 597 1062 519 
Q 1375 441 1716 441 
Q 2309 441 2620 675 
Q 2931 909 2931 1356 
Q 2931 1769 2642 2001 
Q 2353 2234 1838 2234 
L 1294 2234 
L 1294 2753 
L 1863 2753 
Q 2328 2753 2575 2939 
Q 2822 3125 2822 3475 
Q 2822 3834 2567 4026 
Q 2313 4219 1838 4219 
Q 1578 4219 1281 4162 
Q 984 4106 628 3988 
L 628 4550 
Q 988 4650 1302 4700 
Q 1616 4750 1894 4750 
Q 2613 4750 3031 4423 
Q 3450 4097 3450 3541 
Q 3450 3153 3228 2886 
Q 3006 2619 2597 2516 
z
" transform="scale(0.015625)"/>
      </defs>
      <use xlink:href="#DejaVuSans-4d"/>
      <use xlink:href="#DejaVuSans-45" x="86.279297"/>
      <use xlink:href="#DejaVuSans-53" x="149.462891"/>
      <use xlink:href="#DejaVuSans-48" x="212.939453"/>
      <use xlink:href="#DejaVuSans-3a" x="288.134766"/>
      <use xlink:href="#DejaVuSans-43" x="321.826172"/>
      <use xlink:href="#DejaVuSans-35" x="391.650391"/>
      <use xlink:href="#DejaVuSans-30" x="455.273438"/>
      <use xlink:href="#DejaVuSans-34" x="518.896484"/>
      <use xlink:href="#DejaVuSans-32" x="582.519531"/>
      <use xlink:href="#DejaVuSans-33" x="646.142578"/>
      <use xlink:href="#DejaVuSans-34" x="709.765625"/>
     </g>
    </g>
    <g clip-path="url(#pcf8574df90)">
     <!-- Drug -->
     <g transform="translate(60.277082 196.748625)scale(0.12 -0.12)">
      <defs>
       <path id="DejaVuSans-44" d="M 1259 4147 
L 1259 519 
L 2022 519 
Q 2988 519 3436 956 
Q 3884 1394 3884 2338 
Q 3884 3275 3436 3711 
Q 2988 4147 2022 4147 
L 1259 4147 
z
M 628 4666 
L 1925 4666 
Q 3281 4666 3915 4102 
Q 4550 3538 4550 2338 
Q 4550 1131 3912 565 
Q 3275 0 1925 0 
L 628 0 
L 628 4666 
z
" transform="scale(0.015625)"/>
       <path id="DejaVuSans-67" d="M 2906 1791 
Q 2906 2416 2648 2759 
Q 2391 3103 1925 3103 
Q 1463 3103 1205 2759 
Q 947 2416 947 1791 
Q 947 1169 1205 825 
Q 1463 481 1925 481 
Q 2391 481 2648 825 
Q 2906 1169 2906 1791 
z
M 3481 434 
Q 3481 -459 3084 -895 
Q 2688 -1331 1869 -1331 
Q 1566 -1331 1297 -1286 
Q 1028 -1241 775 -1147 
L 775 -588 
Q 1028 -725 1275 -790 
Q 1522 -856 1778 -856 
Q 2344 -856 2625 -561 
Q 2906 -266 2906 331 
L 2906 616 
Q 2728 306 2450 153 
Q 2172 0 1784 0 
Q 1141 0 747 490 
Q 353 981 353 1791 
Q 353 2603 747 3093 
Q 1141 3584 1784 3584 
Q 2172 3584 2450 3431 
Q 2728 3278 2906 2969 
L 2906 3500 
L 3481 3500 
L 3481 434 
z
" transform="scale(0.015625)"/>
      </defs>
      <use xlink:href="#DejaVuSans-44"/>
      <use xlink:href="#DejaVuSans-72" x="77.001953"/>
      <use xlink:href="#DejaVuSans-75" x="118.115234"/>
      <use xlink:href="#DejaVuSans-67" x="181.494141"/>
     </g>
    </g>
   </g>
   <g id="text_5">
    <g clip-path="url(#pcf8574df90)">
     <!-- Angiofollicular -->
     <g transform="translate(746.274793 156.4365)scale(0.12 -0.12)">
      <defs>
       <path id="DejaVuSans-41" d="M 2188 4044 
L 1331 1722 
L 3047 1722 
L 2188 4044 
z
M 1831 4666 
L 2547 4666 
L 4325 0 
L 3669 0 
L 3244 1197 
L 1141 1197 
L 716 0 
L 50 0 
L 1831 4666 
z
" transform="scale(0.015625)"/>
       <path id="DejaVuSans-6e" d="M 3513 2113 
L 3513 0 
L 2938 0 
L 2938 2094 
Q 2938 2591 2744 2837 
Q 2550 3084 2163 3084 
Q 1697 3084 1428 2787 
Q 1159 2491 1159 1978 
L 1159 0 
L 581 0 
L 581 3500 
L 1159 3500 
L 1159 2956 
Q 1366 3272 1645 3428 
Q 1925 3584 2291 3584 
Q 2894 3584 3203 3211 
Q 3513 2838 3513 2113 
z
" transform="scale(0.015625)"/>
      </defs>
      <use xlink:href="#DejaVuSans-41"/>
      <use xlink:href="#DejaVuSans-6e" x="68.408203"/>
      <use xlink:href="#DejaVuSans-67" x="131.787109"/>
      <use xlink:href="#DejaVuSans-69" x="195.263672"/>
      <use xlink:href="#DejaVuSans-6f" x="223.046875"/>
      <use xlink:href="#DejaVuSans-66" x="284.228516"/>
      <use xlink:href="#DejaVuSans-6f" x="319.433594"/>
      <use xlink:href="#DejaVuSans-6c" x="380.615234"/>
      <use xlink:href="#DejaVuSans-6c" x="408.398438"/>
      <use xlink:href="#DejaVuSans-69" x="436.181641"/>
      <use xlink:href="#DejaVuSans-63" x="463.964844"/>
      <use xlink:href="#DejaVuSans-75" x="518.945312"/>
      <use xlink:href="#DejaVuSans-6c" x="582.324219"/>
      <use xlink:href="#DejaVuSans-61" x="610.107422"/>
      <use xlink:href="#DejaVuSans-72" x="671.386719"/>
     </g>
    </g>
    <g clip-path="url(#pcf8574df90)">
     <!-- lymph node -->
     <g transform="translate(753.469168 169.873875)scale(0.12 -0.12)">
      <use xlink:href="#DejaVuSans-6c"/>
      <use xlink:href="#DejaVuSans-79" x="27.783203"/>
      <use xlink:href="#DejaVuSans-6d" x="86.962891"/>
      <use xlink:href="#DejaVuSans-70" x="184.375"/>
      <use xlink:href="#DejaVuSans-68" x="247.851562"/>
      <use xlink:href="#DejaVuSans-20" x="311.230469"/>
      <use xlink:href="#DejaVuSans-6e" x="343.017578"/>
      <use xlink:href="#DejaVuSans-6f" x="406.396484"/>
      <use xlink:href="#DejaVuSans-64" x="467.578125"/>
      <use xlink:href="#DejaVuSans-65" x="531.054688"/>
     </g>
    </g>
    <g clip-path="url(#pcf8574df90)">
     <!-- hyperplasia -->
     <g transform="translate(754.081356 183.31125)scale(0.12 -0.12)">
      <use xlink:href="#DejaVuSans-68"/>
      <use xlink:href="#DejaVuSans-79" x="63.378906"/>
      <use xlink:href="#DejaVuSans-70" x="122.558594"/>
      <use xlink:href="#DejaVuSans-65" x="186.035156"/>
      <use xlink:href="#DejaVuSans-72" x="247.558594"/>
      <use xlink:href="#DejaVuSans-70" x="288.671875"/>
      <use xlink:href="#DejaVuSans-6c" x="352.148438"/>
      <use xlink:href="#DejaVuSans-61" x="379.931641"/>
      <use xlink:href="#DejaVuSans-73" x="441.210938"/>
      <use xlink:href="#DejaVuSans-69" x="493.310547"/>
      <use xlink:href="#DejaVuSans-61" x="521.09375"/>
     </g>
    </g>
    <g clip-path="url(#pcf8574df90)">
     <!-- MESH:D005871 -->
     <g transform="translate(742.189168 196.748625)scale(0.12 -0.12)">
      <defs>
       <path id="DejaVuSans-38" d="M 2034 2216 
Q 1584 2216 1326 1975 
Q 1069 1734 1069 1313 
Q 1069 891 1326 650 
Q 1584 409 2034 409 
Q 2484 409 2743 651 
Q 3003 894 3003 1313 
Q 3003 1734 2745 1975 
Q 2488 2216 2034 2216 
z
M 1403 2484 
Q 997 2584 770 2862 
Q 544 3141 544 3541 
Q 544 4100 942 4425 
Q 1341 4750 2034 4750 
Q 2731 4750 3128 4425 
Q 3525 4100 3525 3541 
Q 3525 3141 3298 2862 
Q 3072 2584 2669 2484 
Q 3125 2378 3379 2068 
Q 3634 1759 3634 1313 
Q 3634 634 3220 271 
Q 2806 -91 2034 -91 
Q 1263 -91 848 271 
Q 434 634 434 1313 
Q 434 1759 690 2068 
Q 947 2378 1403 2484 
z
M 1172 3481 
Q 1172 3119 1398 2916 
Q 1625 2713 2034 2713 
Q 2441 2713 2670 2916 
Q 2900 3119 2900 3481 
Q 2900 3844 2670 4047 
Q 2441 4250 2034 4250 
Q 1625 4250 1398 4047 
Q 1172 3844 1172 3481 
z
" transform="scale(0.015625)"/>
       <path id="DejaVuSans-37" d="M 525 4666 
L 3525 4666 
L 3525 4397 
L 1831 0 
L 1172 0 
L 2766 4134 
L 525 4134 
L 525 4666 
z
" transform="scale(0.015625)"/>
       <path id="DejaVuSans-31" d="M 794 531 
L 1825 531 
L 1825 4091 
L 703 3866 
L 703 4441 
L 1819 4666 
L 2450 4666 
L 2450 531 
L 3481 531 
L 3481 0 
L 794 0 
L 794 531 
z
" transform="scale(0.015625)"/>
      </defs>
      <use xlink:href="#DejaVuSans-4d"/>
      <use xlink:href="#DejaVuSans-45" x="86.279297"/>
      <use xlink:href="#DejaVuSans-53" x="149.462891"/>
      <use xlink:href="#DejaVuSans-48" x="212.939453"/>
      <use xlink:href="#DejaVuSans-3a" x="288.134766"/>
      <use xlink:href="#DejaVuSans-44" x="321.826172"/>
      <use xlink:href="#DejaVuSans-30" x="398.828125"/>
      <use xlink:href="#DejaVuSans-30" x="462.451172"/>
      <use xlink:href="#DejaVuSans-35" x="526.074219"/>
      <use xlink:href="#DejaVuSans-38" x="589.697266"/>
      <use xlink:href="#DejaVuSans-37" x="653.320312"/>
      <use xlink:href="#DejaVuSans-31" x="716.943359"/>
     </g>
    </g>
    <g clip-path="url(#pcf8574df90)">
     <!-- Disease -->
     <g transform="translate(765.426043 210.186)scale(0.12 -0.12)">
      <use xlink:href="#DejaVuSans-44"/>
      <use xlink:href="#DejaVuSans-69" x="77.001953"/>
      <use xlink:href="#DejaVuSans-73" x="104.785156"/>
      <use xlink:href="#DejaVuSans-65" x="156.884766"/>
      <use xlink:href="#DejaVuSans-61" x="218.408203"/>
      <use xlink:href="#DejaVuSans-73" x="279.6875"/>
      <use xlink:href="#DejaVuSans-65" x="331.787109"/>
     </g>
    </g>
   </g>
  </g>
 </g>
 <defs>
  <clipPath id="pcf8574df90">
   <rect x="0" y="0" width="864" height="360"/>
  </clipPath>
 </defs>
</svg>
