<?xml version="1.0" encoding="utf-8" standalone="no"?>
<!DOCTYPE svg PUBLIC "-//W3C//DTD SVG 1.1//EN"
  "http://www.w3.org/Graphics/SVG/1.1/DTD/svg11.dtd">
<svg xmlns:xlink="http://www.w3.org/1999/xlink" width="864pt" height="360pt" viewBox="0 0 864 360" xmlns="http://www.w3.org/2000/svg" version="1.1">
 <metadata>
  <rdf:RDF xmlns:dc="http://purl.org/dc/elements/1.1/" xmlns:cc="http://creativecommons.org/ns#" xmlns:rdf="http://www.w3.org/1999/02/22-rdf-syntax-ns#">
   <cc:Work>
    <dc:type rdf:resource="http://purl.org/dc/dcmitype/StillImage"/>
    <dc:date>2023-02-08T08:50:59.712367</dc:date>
    <dc:format>image/svg+xml</dc:format>
    <dc:creator>
     <cc:Agent>
      <dc:title>Matplotlib v3.5.1, https://matplotlib.org/</dc:title>
     </cc:Agent>
    </dc:creator>
   </cc:Work>
  </rdf:RDF>
 </metadata>
 <defs>
  <style type="text/css">*{stroke-linejoin: round; stroke-linecap: butt}</style>
 </defs>
 <g id="figure_1">
  <g id="patch_1">
   <path d="M 0 360 
L 864 360 
L 864 0 
L 0 0 
z
" style="fill: #ffffff"/>
  </g>
  <g id="axes_1">
   <g id="patch_2">
    <path d="M 127.418126 180 
Q 253.489907 180 376.207585 180 
" clip-path="url(#pe0d6607aa3)" style="fill: none; stroke: #2ca02c; stroke-width: 3; stroke-linecap: round"/>
    <path d="M 372.207585 178 
L 376.207585 180 
L 372.207585 182 
L 372.207585 178 
z
" clip-path="url(#pe0d6607aa3)" style="fill: #2ca02c; stroke: #2ca02c; stroke-width: 3; stroke-linecap: round"/>
   </g>
   <g id="patch_3">
    <path d="M 484.44292 180 
Q 610.5147 180 733.232378 180 
" clip-path="url(#pe0d6607aa3)" style="fill: none; stroke: #2ca02c; stroke-width: 3; stroke-linecap: round"/>
    <path d="M 729.232378 178 
L 733.232378 180 
L 729.232378 182 
L 729.232378 178 
z
" clip-path="url(#pe0d6607aa3)" style="fill: #2ca02c; stroke: #2ca02c; stroke-width: 3; stroke-linecap: round"/>
   </g>
   <g id="text_1">
    <g id="patch_4">
     <path d="M 229.526666 193.437969 
L 277.448541 193.437969 
Q 280.448541 193.437969 280.448541 190.437969 
L 280.448541 169.562031 
Q 280.448541 166.562031 277.448541 166.562031 
L 229.526666 166.562031 
Q 226.526666 166.562031 226.526666 169.562031 
L 226.526666 190.437969 
Q 226.526666 193.437969 229.526666 193.437969 
z
" clip-path="url(#pe0d6607aa3)" style="fill: #ffffff; stroke: #ffffff; stroke-linejoin: miter"/>
    </g>
    <g clip-path="url(#pe0d6607aa3)">
     <!-- positively -->
     <g transform="translate(229.526666 177.160469)scale(0.1 -0.1)">
      <defs>
       <path id="DejaVuSans-70" d="M 1159 525 
L 1159 -1331 
L 581 -1331 
L 581 3500 
L 1159 3500 
L 1159 2969 
Q 1341 3281 1617 3432 
Q 1894 3584 2278 3584 
Q 2916 3584 3314 3078 
Q 3713 2572 3713 1747 
Q 3713 922 3314 415 
Q 2916 -91 2278 -91 
Q 1894 -91 1617 61 
Q 1341 213 1159 525 
z
M 3116 1747 
Q 3116 2381 2855 2742 
Q 2594 3103 2138 3103 
Q 1681 3103 1420 2742 
Q 1159 2381 1159 1747 
Q 1159 1113 1420 752 
Q 1681 391 2138 391 
Q 2594 391 2855 752 
Q 3116 1113 3116 1747 
z
" transform="scale(0.015625)"/>
       <path id="DejaVuSans-6f" d="M 1959 3097 
Q 1497 3097 1228 2736 
Q 959 2375 959 1747 
Q 959 1119 1226 758 
Q 1494 397 1959 397 
Q 2419 397 2687 759 
Q 2956 1122 2956 1747 
Q 2956 2369 2687 2733 
Q 2419 3097 1959 3097 
z
M 1959 3584 
Q 2709 3584 3137 3096 
Q 3566 2609 3566 1747 
Q 3566 888 3137 398 
Q 2709 -91 1959 -91 
Q 1206 -91 779 398 
Q 353 888 353 1747 
Q 353 2609 779 3096 
Q 1206 3584 1959 3584 
z
" transform="scale(0.015625)"/>
       <path id="DejaVuSans-73" d="M 2834 3397 
L 2834 2853 
Q 2591 2978 2328 3040 
Q 2066 3103 1784 3103 
Q 1356 3103 1142 2972 
Q 928 2841 928 2578 
Q 928 2378 1081 2264 
Q 1234 2150 1697 2047 
L 1894 2003 
Q 2506 1872 2764 1633 
Q 3022 1394 3022 966 
Q 3022 478 2636 193 
Q 2250 -91 1575 -91 
Q 1294 -91 989 -36 
Q 684 19 347 128 
L 347 722 
Q 666 556 975 473 
Q 1284 391 1588 391 
Q 1994 391 2212 530 
Q 2431 669 2431 922 
Q 2431 1156 2273 1281 
Q 2116 1406 1581 1522 
L 1381 1569 
Q 847 1681 609 1914 
Q 372 2147 372 2553 
Q 372 3047 722 3315 
Q 1072 3584 1716 3584 
Q 2034 3584 2315 3537 
Q 2597 3491 2834 3397 
z
" transform="scale(0.015625)"/>
       <path id="DejaVuSans-69" d="M 603 3500 
L 1178 3500 
L 1178 0 
L 603 0 
L 603 3500 
z
M 603 4863 
L 1178 4863 
L 1178 4134 
L 603 4134 
L 603 4863 
z
" transform="scale(0.015625)"/>
       <path id="DejaVuSans-74" d="M 1172 4494 
L 1172 3500 
L 2356 3500 
L 2356 3053 
L 1172 3053 
L 1172 1153 
Q 1172 725 1289 603 
Q 1406 481 1766 481 
L 2356 481 
L 2356 0 
L 1766 0 
Q 1100 0 847 248 
Q 594 497 594 1153 
L 594 3053 
L 172 3053 
L 172 3500 
L 594 3500 
L 594 4494 
L 1172 4494 
z
" transform="scale(0.015625)"/>
       <path id="DejaVuSans-76" d="M 191 3500 
L 800 3500 
L 1894 563 
L 2988 3500 
L 3597 3500 
L 2284 0 
L 1503 0 
L 191 3500 
z
" transform="scale(0.015625)"/>
       <path id="DejaVuSans-65" d="M 3597 1894 
L 3597 1613 
L 953 1613 
Q 991 1019 1311 708 
Q 1631 397 2203 397 
Q 2534 397 2845 478 
Q 3156 559 3463 722 
L 3463 178 
Q 3153 47 2828 -22 
Q 2503 -91 2169 -91 
Q 1331 -91 842 396 
Q 353 884 353 1716 
Q 353 2575 817 3079 
Q 1281 3584 2069 3584 
Q 2775 3584 3186 3129 
Q 3597 2675 3597 1894 
z
M 3022 2063 
Q 3016 2534 2758 2815 
Q 2500 3097 2075 3097 
Q 1594 3097 1305 2825 
Q 1016 2553 972 2059 
L 3022 2063 
z
" transform="scale(0.015625)"/>
       <path id="DejaVuSans-6c" d="M 603 4863 
L 1178 4863 
L 1178 0 
L 603 0 
L 603 4863 
z
" transform="scale(0.015625)"/>
       <path id="DejaVuSans-79" d="M 2059 -325 
Q 1816 -950 1584 -1140 
Q 1353 -1331 966 -1331 
L 506 -1331 
L 506 -850 
L 844 -850 
Q 1081 -850 1212 -737 
Q 1344 -625 1503 -206 
L 1606 56 
L 191 3500 
L 800 3500 
L 1894 763 
L 2988 3500 
L 3597 3500 
L 2059 -325 
z
" transform="scale(0.015625)"/>
      </defs>
      <use xlink:href="#DejaVuSans-70"/>
      <use xlink:href="#DejaVuSans-6f" x="63.476562"/>
      <use xlink:href="#DejaVuSans-73" x="124.658203"/>
      <use xlink:href="#DejaVuSans-69" x="176.757812"/>
      <use xlink:href="#DejaVuSans-74" x="204.541016"/>
      <use xlink:href="#DejaVuSans-69" x="243.75"/>
      <use xlink:href="#DejaVuSans-76" x="271.533203"/>
      <use xlink:href="#DejaVuSans-65" x="330.712891"/>
      <use xlink:href="#DejaVuSans-6c" x="392.236328"/>
      <use xlink:href="#DejaVuSans-79" x="420.019531"/>
     </g>
    </g>
    <g clip-path="url(#pe0d6607aa3)">
     <!-- regulates -->
     <g transform="translate(230.030572 188.358281)scale(0.1 -0.1)">
      <defs>
       <path id="DejaVuSans-72" d="M 2631 2963 
Q 2534 3019 2420 3045 
Q 2306 3072 2169 3072 
Q 1681 3072 1420 2755 
Q 1159 2438 1159 1844 
L 1159 0 
L 581 0 
L 581 3500 
L 1159 3500 
L 1159 2956 
Q 1341 3275 1631 3429 
Q 1922 3584 2338 3584 
Q 2397 3584 2469 3576 
Q 2541 3569 2628 3553 
L 2631 2963 
z
" transform="scale(0.015625)"/>
       <path id="DejaVuSans-67" d="M 2906 1791 
Q 2906 2416 2648 2759 
Q 2391 3103 1925 3103 
Q 1463 3103 1205 2759 
Q 947 2416 947 1791 
Q 947 1169 1205 825 
Q 1463 481 1925 481 
Q 2391 481 2648 825 
Q 2906 1169 2906 1791 
z
M 3481 434 
Q 3481 -459 3084 -895 
Q 2688 -1331 1869 -1331 
Q 1566 -1331 1297 -1286 
Q 1028 -1241 775 -1147 
L 775 -588 
Q 1028 -725 1275 -790 
Q 1522 -856 1778 -856 
Q 2344 -856 2625 -561 
Q 2906 -266 2906 331 
L 2906 616 
Q 2728 306 2450 153 
Q 2172 0 1784 0 
Q 1141 0 747 490 
Q 353 981 353 1791 
Q 353 2603 747 3093 
Q 1141 3584 1784 3584 
Q 2172 3584 2450 3431 
Q 2728 3278 2906 2969 
L 2906 3500 
L 3481 3500 
L 3481 434 
z
" transform="scale(0.015625)"/>
       <path id="DejaVuSans-75" d="M 544 1381 
L 544 3500 
L 1119 3500 
L 1119 1403 
Q 1119 906 1312 657 
Q 1506 409 1894 409 
Q 2359 409 2629 706 
Q 2900 1003 2900 1516 
L 2900 3500 
L 3475 3500 
L 3475 0 
L 2900 0 
L 2900 538 
Q 2691 219 2414 64 
Q 2138 -91 1772 -91 
Q 1169 -91 856 284 
Q 544 659 544 1381 
z
M 1991 3584 
L 1991 3584 
z
" transform="scale(0.015625)"/>
       <path id="DejaVuSans-61" d="M 2194 1759 
Q 1497 1759 1228 1600 
Q 959 1441 959 1056 
Q 959 750 1161 570 
Q 1363 391 1709 391 
Q 2188 391 2477 730 
Q 2766 1069 2766 1631 
L 2766 1759 
L 2194 1759 
z
M 3341 1997 
L 3341 0 
L 2766 0 
L 2766 531 
Q 2569 213 2275 61 
Q 1981 -91 1556 -91 
Q 1019 -91 701 211 
Q 384 513 384 1019 
Q 384 1609 779 1909 
Q 1175 2209 1959 2209 
L 2766 2209 
L 2766 2266 
Q 2766 2663 2505 2880 
Q 2244 3097 1772 3097 
Q 1472 3097 1187 3025 
Q 903 2953 641 2809 
L 641 3341 
Q 956 3463 1253 3523 
Q 1550 3584 1831 3584 
Q 2591 3584 2966 3190 
Q 3341 2797 3341 1997 
z
" transform="scale(0.015625)"/>
      </defs>
      <use xlink:href="#DejaVuSans-72"/>
      <use xlink:href="#DejaVuSans-65" x="38.863281"/>
      <use xlink:href="#DejaVuSans-67" x="100.386719"/>
      <use xlink:href="#DejaVuSans-75" x="163.863281"/>
      <use xlink:href="#DejaVuSans-6c" x="227.242188"/>
      <use xlink:href="#DejaVuSans-61" x="255.025391"/>
      <use xlink:href="#DejaVuSans-74" x="316.304688"/>
      <use xlink:href="#DejaVuSans-65" x="355.513672"/>
      <use xlink:href="#DejaVuSans-73" x="417.037109"/>
     </g>
    </g>
   </g>
   <g id="text_2">
    <g id="patch_5">
     <path d="M 572.856147 193.437969 
L 648.168647 193.437969 
Q 651.168647 193.437969 651.168647 190.437969 
L 651.168647 169.562031 
Q 651.168647 166.562031 648.168647 166.562031 
L 572.856147 166.562031 
Q 569.856147 166.562031 569.856147 169.562031 
L 569.856147 190.437969 
Q 569.856147 193.437969 572.856147 193.437969 
z
" clip-path="url(#pe0d6607aa3)" style="fill: #ffffff; stroke: #ffffff; stroke-linejoin: miter"/>
    </g>
    <g clip-path="url(#pe0d6607aa3)">
     <!-- negatively -->
     <g transform="translate(584.295209 177.160469)scale(0.1 -0.1)">
      <defs>
       <path id="DejaVuSans-6e" d="M 3513 2113 
L 3513 0 
L 2938 0 
L 2938 2094 
Q 2938 2591 2744 2837 
Q 2550 3084 2163 3084 
Q 1697 3084 1428 2787 
Q 1159 2491 1159 1978 
L 1159 0 
L 581 0 
L 581 3500 
L 1159 3500 
L 1159 2956 
Q 1366 3272 1645 3428 
Q 1925 3584 2291 3584 
Q 2894 3584 3203 3211 
Q 3513 2838 3513 2113 
z
" transform="scale(0.015625)"/>
      </defs>
      <use xlink:href="#DejaVuSans-6e"/>
      <use xlink:href="#DejaVuSans-65" x="63.378906"/>
      <use xlink:href="#DejaVuSans-67" x="124.902344"/>
      <use xlink:href="#DejaVuSans-61" x="188.378906"/>
      <use xlink:href="#DejaVuSans-74" x="249.658203"/>
      <use xlink:href="#DejaVuSans-69" x="288.867188"/>
      <use xlink:href="#DejaVuSans-76" x="316.650391"/>
      <use xlink:href="#DejaVuSans-65" x="375.830078"/>
      <use xlink:href="#DejaVuSans-6c" x="437.353516"/>
      <use xlink:href="#DejaVuSans-79" x="465.136719"/>
     </g>
    </g>
    <g clip-path="url(#pe0d6607aa3)">
     <!-- correlated with -->
     <g transform="translate(572.856147 188.358281)scale(0.1 -0.1)">
      <defs>
       <path id="DejaVuSans-63" d="M 3122 3366 
L 3122 2828 
Q 2878 2963 2633 3030 
Q 2388 3097 2138 3097 
Q 1578 3097 1268 2742 
Q 959 2388 959 1747 
Q 959 1106 1268 751 
Q 1578 397 2138 397 
Q 2388 397 2633 464 
Q 2878 531 3122 666 
L 3122 134 
Q 2881 22 2623 -34 
Q 2366 -91 2075 -91 
Q 1284 -91 818 406 
Q 353 903 353 1747 
Q 353 2603 823 3093 
Q 1294 3584 2113 3584 
Q 2378 3584 2631 3529 
Q 2884 3475 3122 3366 
z
" transform="scale(0.015625)"/>
       <path id="DejaVuSans-64" d="M 2906 2969 
L 2906 4863 
L 3481 4863 
L 3481 0 
L 2906 0 
L 2906 525 
Q 2725 213 2448 61 
Q 2172 -91 1784 -91 
Q 1150 -91 751 415 
Q 353 922 353 1747 
Q 353 2572 751 3078 
Q 1150 3584 1784 3584 
Q 2172 3584 2448 3432 
Q 2725 3281 2906 2969 
z
M 947 1747 
Q 947 1113 1208 752 
Q 1469 391 1925 391 
Q 2381 391 2643 752 
Q 2906 1113 2906 1747 
Q 2906 2381 2643 2742 
Q 2381 3103 1925 3103 
Q 1469 3103 1208 2742 
Q 947 2381 947 1747 
z
" transform="scale(0.015625)"/>
       <path id="DejaVuSans-20" transform="scale(0.015625)"/>
       <path id="DejaVuSans-77" d="M 269 3500 
L 844 3500 
L 1563 769 
L 2278 3500 
L 2956 3500 
L 3675 769 
L 4391 3500 
L 4966 3500 
L 4050 0 
L 3372 0 
L 2619 2869 
L 1863 0 
L 1184 0 
L 269 3500 
z
" transform="scale(0.015625)"/>
       <path id="DejaVuSans-68" d="M 3513 2113 
L 3513 0 
L 2938 0 
L 2938 2094 
Q 2938 2591 2744 2837 
Q 2550 3084 2163 3084 
Q 1697 3084 1428 2787 
Q 1159 2491 1159 1978 
L 1159 0 
L 581 0 
L 581 4863 
L 1159 4863 
L 1159 2956 
Q 1366 3272 1645 3428 
Q 1925 3584 2291 3584 
Q 2894 3584 3203 3211 
Q 3513 2838 3513 2113 
z
" transform="scale(0.015625)"/>
      </defs>
      <use xlink:href="#DejaVuSans-63"/>
      <use xlink:href="#DejaVuSans-6f" x="54.980469"/>
      <use xlink:href="#DejaVuSans-72" x="116.162109"/>
      <use xlink:href="#DejaVuSans-72" x="155.525391"/>
      <use xlink:href="#DejaVuSans-65" x="194.388672"/>
      <use xlink:href="#DejaVuSans-6c" x="255.912109"/>
      <use xlink:href="#DejaVuSans-61" x="283.695312"/>
      <use xlink:href="#DejaVuSans-74" x="344.974609"/>
      <use xlink:href="#DejaVuSans-65" x="384.183594"/>
      <use xlink:href="#DejaVuSans-64" x="445.707031"/>
      <use xlink:href="#DejaVuSans-20" x="509.183594"/>
      <use xlink:href="#DejaVuSans-77" x="540.970703"/>
      <use xlink:href="#DejaVuSans-69" x="622.757812"/>
      <use xlink:href="#DejaVuSans-74" x="650.541016"/>
      <use xlink:href="#DejaVuSans-68" x="689.75"/>
     </g>
    </g>
   </g>
   <g id="PathCollection_1">
    <defs>
     <path id="C0_0_d8b4aeb29b" d="M 0 52.440442 
C 13.907368 52.440442 27.246998 46.914987 37.080992 37.080992 
C 46.914987 27.246998 52.440442 13.907368 52.440442 -0 
C 52.440442 -13.907368 46.914987 -27.246998 37.080992 -37.080992 
C 27.246998 -46.914987 13.907368 -52.440442 0 -52.440442 
C -13.907368 -52.440442 -27.246998 -46.914987 -37.080992 -37.080992 
C -46.914987 -27.246998 -52.440442 -13.907368 -52.440442 0 
C -52.440442 13.907368 -46.914987 27.246998 -37.080992 37.080992 
C -27.246998 46.914987 -13.907368 52.440442 0 52.440442 
z
"/>
    </defs>
    <g clip-path="url(#pe0d6607aa3)">
     <use xlink:href="#C0_0_d8b4aeb29b" x="74.975207" y="180" style="fill: #01c472; stroke: #01c472"/>
    </g>
    <g clip-path="url(#pe0d6607aa3)">
     <use xlink:href="#C0_0_d8b4aeb29b" x="432" y="180" style="fill: #b75970; stroke: #b75970"/>
    </g>
    <g clip-path="url(#pe0d6607aa3)">
     <use xlink:href="#C0_0_d8b4aeb29b" x="789.024793" y="180" style="fill: #70c6ca; stroke: #70c6ca"/>
    </g>
   </g>
   <g id="text_3">
    <path d="M 408.859687 158.977687 
L 408.859687 162.182062 
L 410.759062 162.182062 
Q 411.713437 162.182062 412.172812 161.786437 
Q 412.634062 161.390812 412.634062 160.577062 
Q 412.634062 159.755812 412.172812 159.367687 
Q 411.713437 158.977687 410.759062 158.977687 
L 408.859687 158.977687 
z
M 408.859687 155.379562 
L 408.859687 158.015812 
L 410.612812 158.015812 
Q 411.479062 158.015812 411.902812 157.691437 
Q 412.328437 157.365187 412.328437 156.697687 
Q 412.328437 156.035812 411.902812 155.707687 
Q 411.479062 155.379562 410.612812 155.379562 
L 408.859687 155.379562 
z
M 407.676562 154.406437 
L 410.700937 154.406437 
Q 412.054687 154.406437 412.785937 154.968937 
Q 413.519062 155.531437 413.519062 156.568312 
Q 413.519062 157.372687 413.144062 157.847062 
Q 412.769062 158.321437 412.041562 158.437687 
Q 412.915312 158.625187 413.399062 159.221437 
Q 413.882812 159.815812 413.882812 160.706437 
Q 413.882812 161.878312 413.085937 162.517687 
Q 412.289062 163.155187 410.817187 163.155187 
L 407.676562 163.155187 
L 407.676562 154.406437 
z
M 415.862109 156.592687 
L 416.940234 156.592687 
L 416.940234 163.155187 
L 415.862109 163.155187 
L 415.862109 156.592687 
z
M 415.862109 154.037062 
L 416.940234 154.037062 
L 416.940234 155.403937 
L 415.862109 155.403937 
L 415.862109 154.037062 
z
M 419.196094 154.037062 
L 420.274219 154.037062 
L 420.274219 163.155187 
L 419.196094 163.155187 
L 419.196094 154.037062 
z
M 428.143828 159.603937 
L 428.143828 160.130812 
L 423.186328 160.130812 
Q 423.257578 161.244562 423.857578 161.827687 
Q 424.457578 162.410812 425.530078 162.410812 
Q 426.150703 162.410812 426.733828 162.258937 
Q 427.316953 162.107062 427.892578 161.801437 
L 427.892578 162.821437 
Q 427.311328 163.067062 426.701953 163.196437 
Q 426.092578 163.325812 425.466328 163.325812 
Q 423.895078 163.325812 422.978203 162.412687 
Q 422.061328 161.497687 422.061328 159.937687 
Q 422.061328 158.327062 422.931328 157.382062 
Q 423.801328 156.435187 425.278828 156.435187 
Q 426.602578 156.435187 427.373203 157.288312 
Q 428.143828 158.139562 428.143828 159.603937 
z
M 427.065703 159.287062 
Q 427.054453 158.403937 426.570703 157.877062 
Q 426.086953 157.348312 425.290078 157.348312 
Q 424.388203 157.348312 423.846328 157.858312 
Q 423.304453 158.368312 423.221953 159.294562 
L 427.065703 159.287062 
z
M 436.710469 159.857062 
Q 435.403594 159.857062 434.899219 160.155187 
Q 434.394844 160.453312 434.394844 161.175187 
Q 434.394844 161.748937 434.773594 162.086437 
Q 435.152344 162.422062 435.801094 162.422062 
Q 436.699219 162.422062 437.241094 161.786437 
Q 437.782969 161.150812 437.782969 160.097062 
L 437.782969 159.857062 
L 436.710469 159.857062 
z
M 438.861094 159.410812 
L 438.861094 163.155187 
L 437.782969 163.155187 
L 437.782969 162.159562 
Q 437.413594 162.755812 436.862344 163.040812 
Q 436.311094 163.325812 435.514219 163.325812 
Q 434.507344 163.325812 433.911094 162.759562 
Q 433.316719 162.193312 433.316719 161.244562 
Q 433.316719 160.138312 434.057344 159.575812 
Q 434.799844 159.013312 436.269844 159.013312 
L 437.782969 159.013312 
L 437.782969 158.906437 
Q 437.782969 158.162062 437.293594 157.755187 
Q 436.804219 157.348312 435.919219 157.348312 
Q 435.356719 157.348312 434.822344 157.483312 
Q 434.289844 157.618312 433.798594 157.888312 
L 433.798594 156.890812 
Q 434.389219 156.662062 434.946094 156.549562 
Q 435.502969 156.435187 436.029844 156.435187 
Q 437.454844 156.435187 438.157969 157.173937 
Q 438.861094 157.910812 438.861094 159.410812 
z
M 445.803984 156.843937 
L 445.803984 157.852687 
Q 445.346484 157.599562 444.887109 157.473937 
Q 444.427734 157.348312 443.958984 157.348312 
Q 442.908984 157.348312 442.327734 158.013937 
Q 441.748359 158.677687 441.748359 159.879562 
Q 441.748359 161.081437 442.327734 161.747062 
Q 442.908984 162.410812 443.958984 162.410812 
Q 444.427734 162.410812 444.887109 162.285187 
Q 445.346484 162.159562 445.803984 161.906437 
L 445.803984 162.903937 
Q 445.352109 163.113937 444.868359 163.218937 
Q 444.386484 163.325812 443.840859 163.325812 
Q 442.357734 163.325812 441.483984 162.393937 
Q 440.612109 161.462062 440.612109 159.879562 
Q 440.612109 158.274562 441.493359 157.355812 
Q 442.376484 156.435187 443.912109 156.435187 
Q 444.408984 156.435187 444.883359 156.538312 
Q 445.357734 156.639562 445.803984 156.843937 
z
M 447.678516 156.592687 
L 448.756641 156.592687 
L 448.756641 163.155187 
L 447.678516 163.155187 
L 447.678516 156.592687 
z
M 447.678516 154.037062 
L 448.756641 154.037062 
L 448.756641 155.403937 
L 447.678516 155.403937 
L 447.678516 154.037062 
z
M 455.330625 157.588312 
L 455.330625 154.037062 
L 456.40875 154.037062 
L 456.40875 163.155187 
L 455.330625 163.155187 
L 455.330625 162.170812 
Q 454.99125 162.755812 454.471875 163.040812 
Q 453.954375 163.325812 453.226875 163.325812 
Q 452.038125 163.325812 451.29 162.377062 
Q 450.54375 161.426437 450.54375 159.879562 
Q 450.54375 158.332687 451.29 157.383937 
Q 452.038125 156.435187 453.226875 156.435187 
Q 453.954375 156.435187 454.471875 156.720187 
Q 454.99125 157.003312 455.330625 157.588312 
z
M 451.6575 159.879562 
Q 451.6575 161.068312 452.146875 161.745187 
Q 452.63625 162.422062 453.49125 162.422062 
Q 454.34625 162.422062 454.8375 161.745187 
Q 455.330625 161.068312 455.330625 159.879562 
Q 455.330625 158.690812 454.8375 158.013937 
Q 454.34625 157.337062 453.49125 157.337062 
Q 452.63625 157.337062 452.146875 158.013937 
Q 451.6575 158.690812 451.6575 159.879562 
z
" clip-path="url(#pe0d6607aa3)" style="fill: #ffffff; stroke: #000000; stroke-width: 2"/>
    <path d="M 408.859687 158.977687 
L 408.859687 162.182062 
L 410.759062 162.182062 
Q 411.713437 162.182062 412.172812 161.786437 
Q 412.634062 161.390812 412.634062 160.577062 
Q 412.634062 159.755812 412.172812 159.367687 
Q 411.713437 158.977687 410.759062 158.977687 
L 408.859687 158.977687 
z
M 408.859687 155.379562 
L 408.859687 158.015812 
L 410.612812 158.015812 
Q 411.479062 158.015812 411.902812 157.691437 
Q 412.328437 157.365187 412.328437 156.697687 
Q 412.328437 156.035812 411.902812 155.707687 
Q 411.479062 155.379562 410.612812 155.379562 
L 408.859687 155.379562 
z
M 407.676562 154.406437 
L 410.700937 154.406437 
Q 412.054687 154.406437 412.785937 154.968937 
Q 413.519062 155.531437 413.519062 156.568312 
Q 413.519062 157.372687 413.144062 157.847062 
Q 412.769062 158.321437 412.041562 158.437687 
Q 412.915312 158.625187 413.399062 159.221437 
Q 413.882812 159.815812 413.882812 160.706437 
Q 413.882812 161.878312 413.085937 162.517687 
Q 412.289062 163.155187 410.817187 163.155187 
L 407.676562 163.155187 
L 407.676562 154.406437 
z
M 415.862109 156.592687 
L 416.940234 156.592687 
L 416.940234 163.155187 
L 415.862109 163.155187 
L 415.862109 156.592687 
z
M 415.862109 154.037062 
L 416.940234 154.037062 
L 416.940234 155.403937 
L 415.862109 155.403937 
L 415.862109 154.037062 
z
M 419.196094 154.037062 
L 420.274219 154.037062 
L 420.274219 163.155187 
L 419.196094 163.155187 
L 419.196094 154.037062 
z
M 428.143828 159.603937 
L 428.143828 160.130812 
L 423.186328 160.130812 
Q 423.257578 161.244562 423.857578 161.827687 
Q 424.457578 162.410812 425.530078 162.410812 
Q 426.150703 162.410812 426.733828 162.258937 
Q 427.316953 162.107062 427.892578 161.801437 
L 427.892578 162.821437 
Q 427.311328 163.067062 426.701953 163.196437 
Q 426.092578 163.325812 425.466328 163.325812 
Q 423.895078 163.325812 422.978203 162.412687 
Q 422.061328 161.497687 422.061328 159.937687 
Q 422.061328 158.327062 422.931328 157.382062 
Q 423.801328 156.435187 425.278828 156.435187 
Q 426.602578 156.435187 427.373203 157.288312 
Q 428.143828 158.139562 428.143828 159.603937 
z
M 427.065703 159.287062 
Q 427.054453 158.403937 426.570703 157.877062 
Q 426.086953 157.348312 425.290078 157.348312 
Q 424.388203 157.348312 423.846328 157.858312 
Q 423.304453 158.368312 423.221953 159.294562 
L 427.065703 159.287062 
z
M 436.710469 159.857062 
Q 435.403594 159.857062 434.899219 160.155187 
Q 434.394844 160.453312 434.394844 161.175187 
Q 434.394844 161.748937 434.773594 162.086437 
Q 435.152344 162.422062 435.801094 162.422062 
Q 436.699219 162.422062 437.241094 161.786437 
Q 437.782969 161.150812 437.782969 160.097062 
L 437.782969 159.857062 
L 436.710469 159.857062 
z
M 438.861094 159.410812 
L 438.861094 163.155187 
L 437.782969 163.155187 
L 437.782969 162.159562 
Q 437.413594 162.755812 436.862344 163.040812 
Q 436.311094 163.325812 435.514219 163.325812 
Q 434.507344 163.325812 433.911094 162.759562 
Q 433.316719 162.193312 433.316719 161.244562 
Q 433.316719 160.138312 434.057344 159.575812 
Q 434.799844 159.013312 436.269844 159.013312 
L 437.782969 159.013312 
L 437.782969 158.906437 
Q 437.782969 158.162062 437.293594 157.755187 
Q 436.804219 157.348312 435.919219 157.348312 
Q 435.356719 157.348312 434.822344 157.483312 
Q 434.289844 157.618312 433.798594 157.888312 
L 433.798594 156.890812 
Q 434.389219 156.662062 434.946094 156.549562 
Q 435.502969 156.435187 436.029844 156.435187 
Q 437.454844 156.435187 438.157969 157.173937 
Q 438.861094 157.910812 438.861094 159.410812 
z
M 445.803984 156.843937 
L 445.803984 157.852687 
Q 445.346484 157.599562 444.887109 157.473937 
Q 444.427734 157.348312 443.958984 157.348312 
Q 442.908984 157.348312 442.327734 158.013937 
Q 441.748359 158.677687 441.748359 159.879562 
Q 441.748359 161.081437 442.327734 161.747062 
Q 442.908984 162.410812 443.958984 162.410812 
Q 444.427734 162.410812 444.887109 162.285187 
Q 445.346484 162.159562 445.803984 161.906437 
L 445.803984 162.903937 
Q 445.352109 163.113937 444.868359 163.218937 
Q 444.386484 163.325812 443.840859 163.325812 
Q 442.357734 163.325812 441.483984 162.393937 
Q 440.612109 161.462062 440.612109 159.879562 
Q 440.612109 158.274562 441.493359 157.355812 
Q 442.376484 156.435187 443.912109 156.435187 
Q 444.408984 156.435187 444.883359 156.538312 
Q 445.357734 156.639562 445.803984 156.843937 
z
M 447.678516 156.592687 
L 448.756641 156.592687 
L 448.756641 163.155187 
L 447.678516 163.155187 
L 447.678516 156.592687 
z
M 447.678516 154.037062 
L 448.756641 154.037062 
L 448.756641 155.403937 
L 447.678516 155.403937 
L 447.678516 154.037062 
z
M 455.330625 157.588312 
L 455.330625 154.037062 
L 456.40875 154.037062 
L 456.40875 163.155187 
L 455.330625 163.155187 
L 455.330625 162.170812 
Q 454.99125 162.755812 454.471875 163.040812 
Q 453.954375 163.325812 453.226875 163.325812 
Q 452.038125 163.325812 451.29 162.377062 
Q 450.54375 161.426437 450.54375 159.879562 
Q 450.54375 158.332687 451.29 157.383937 
Q 452.038125 156.435187 453.226875 156.435187 
Q 453.954375 156.435187 454.471875 156.720187 
Q 454.99125 157.003312 455.330625 157.588312 
z
M 451.6575 159.879562 
Q 451.6575 161.068312 452.146875 161.745187 
Q 452.63625 162.422062 453.49125 162.422062 
Q 454.34625 162.422062 454.8375 161.745187 
Q 455.330625 161.068312 455.330625 159.879562 
Q 455.330625 158.690812 454.8375 158.013937 
Q 454.34625 157.337062 453.49125 157.337062 
Q 452.63625 157.337062 452.146875 158.013937 
Q 451.6575 158.690812 451.6575 159.879562 
z
" clip-path="url(#pe0d6607aa3)" style="fill: #ffffff"/>
    <path d="M 409.680937 170.223187 
L 409.680937 171.243187 
Q 409.225312 171.008812 408.732187 170.892562 
Q 408.240937 170.774437 407.712187 170.774437 
Q 406.909687 170.774437 406.508437 171.020062 
Q 406.107187 171.265687 406.107187 171.758812 
Q 406.107187 172.133812 406.394062 172.347562 
Q 406.680937 172.561312 407.549062 172.754437 
L 407.918437 172.836937 
Q 409.065937 173.082562 409.549687 173.530687 
Q 410.033437 173.978812 410.033437 174.781312 
Q 410.033437 175.696312 409.309687 176.230687 
Q 408.585937 176.763187 407.320312 176.763187 
Q 406.793437 176.763187 406.221562 176.660062 
Q 405.649687 176.556937 405.017812 176.352562 
L 405.017812 175.238812 
Q 405.615937 175.550062 406.195312 175.705687 
Q 406.774687 175.859437 407.344687 175.859437 
Q 408.105937 175.859437 408.514687 175.598812 
Q 408.925312 175.338187 408.925312 174.863812 
Q 408.925312 174.425062 408.629062 174.190687 
Q 408.334687 173.956312 407.331562 173.738812 
L 406.956562 173.650687 
Q 405.955312 173.440687 405.509062 173.003812 
Q 405.064687 172.566937 405.064687 171.805687 
Q 405.064687 170.879437 405.720937 170.376937 
Q 406.377187 169.872562 407.584687 169.872562 
Q 408.180937 169.872562 408.707812 169.960687 
Q 409.236562 170.046937 409.680937 170.223187 
z
M 417.363516 173.041312 
L 417.363516 173.568187 
L 412.406016 173.568187 
Q 412.477266 174.681937 413.077266 175.265062 
Q 413.677266 175.848187 414.749766 175.848187 
Q 415.370391 175.848187 415.953516 175.696312 
Q 416.536641 175.544437 417.112266 175.238812 
L 417.112266 176.258812 
Q 416.531016 176.504437 415.921641 176.633812 
Q 415.312266 176.763187 414.686016 176.763187 
Q 413.114766 176.763187 412.197891 175.850062 
Q 411.281016 174.935062 411.281016 173.375062 
Q 411.281016 171.764437 412.151016 170.819437 
Q 413.021016 169.872562 414.498516 169.872562 
Q 415.822266 169.872562 416.592891 170.725687 
Q 417.363516 171.576937 417.363516 173.041312 
z
M 416.285391 172.724437 
Q 416.274141 171.841312 415.790391 171.314437 
Q 415.306641 170.785687 414.509766 170.785687 
Q 413.607891 170.785687 413.066016 171.295687 
Q 412.524141 171.805687 412.441641 172.731937 
L 416.285391 172.724437 
z
M 423.855703 170.281312 
L 423.855703 171.290062 
Q 423.398203 171.036937 422.938828 170.911312 
Q 422.479453 170.785687 422.010703 170.785687 
Q 420.960703 170.785687 420.379453 171.451312 
Q 419.800078 172.115062 419.800078 173.316937 
Q 419.800078 174.518812 420.379453 175.184437 
Q 420.960703 175.848187 422.010703 175.848187 
Q 422.479453 175.848187 422.938828 175.722562 
Q 423.398203 175.596937 423.855703 175.343812 
L 423.855703 176.341312 
Q 423.403828 176.551312 422.920078 176.656312 
Q 422.438203 176.763187 421.892578 176.763187 
Q 420.409453 176.763187 419.535703 175.831312 
Q 418.663828 174.899437 418.663828 173.316937 
Q 418.663828 171.711937 419.545078 170.793187 
Q 420.428203 169.872562 421.963828 169.872562 
Q 422.460703 169.872562 422.935078 169.975687 
Q 423.409453 170.076937 423.855703 170.281312 
z
M 429.532734 171.036937 
Q 429.350859 170.931937 429.137109 170.883187 
Q 428.923359 170.832562 428.666484 170.832562 
Q 427.751484 170.832562 427.262109 171.426937 
Q 426.772734 172.021312 426.772734 173.135062 
L 426.772734 176.592562 
L 425.688984 176.592562 
L 425.688984 170.030062 
L 426.772734 170.030062 
L 426.772734 171.050062 
Q 427.113984 170.451937 427.657734 170.163187 
Q 428.203359 169.872562 428.983359 169.872562 
Q 429.093984 169.872562 429.228984 169.887562 
Q 429.363984 169.900687 429.527109 169.930687 
L 429.532734 171.036937 
z
M 436.007578 173.041312 
L 436.007578 173.568187 
L 431.050078 173.568187 
Q 431.121328 174.681937 431.721328 175.265062 
Q 432.321328 175.848187 433.393828 175.848187 
Q 434.014453 175.848187 434.597578 175.696312 
Q 435.180703 175.544437 435.756328 175.238812 
L 435.756328 176.258812 
Q 435.175078 176.504437 434.565703 176.633812 
Q 433.956328 176.763187 433.330078 176.763187 
Q 431.758828 176.763187 430.841953 175.850062 
Q 429.925078 174.935062 429.925078 173.375062 
Q 429.925078 171.764437 430.795078 170.819437 
Q 431.665078 169.872562 433.142578 169.872562 
Q 434.466328 169.872562 435.236953 170.725687 
Q 436.007578 171.576937 436.007578 173.041312 
z
M 434.929453 172.724437 
Q 434.918203 171.841312 434.434453 171.314437 
Q 433.950703 170.785687 433.153828 170.785687 
Q 432.251953 170.785687 431.710078 171.295687 
Q 431.168203 171.805687 431.085703 172.731937 
L 434.929453 172.724437 
z
M 438.843516 168.166312 
L 438.843516 170.030062 
L 441.063516 170.030062 
L 441.063516 170.868187 
L 438.843516 170.868187 
L 438.843516 174.430687 
Q 438.843516 175.233187 439.062891 175.461937 
Q 439.282266 175.690687 439.957266 175.690687 
L 441.063516 175.690687 
L 441.063516 176.592562 
L 439.957266 176.592562 
Q 438.708516 176.592562 438.234141 176.127562 
Q 437.759766 175.660687 437.759766 174.430687 
L 437.759766 170.868187 
L 436.968516 170.868187 
L 436.968516 170.030062 
L 437.759766 170.030062 
L 437.759766 168.166312 
L 438.843516 168.166312 
z
M 442.481719 170.030062 
L 443.559844 170.030062 
L 443.559844 176.592562 
L 442.481719 176.592562 
L 442.481719 170.030062 
z
M 442.481719 167.474437 
L 443.559844 167.474437 
L 443.559844 168.841312 
L 442.481719 168.841312 
L 442.481719 167.474437 
z
M 448.358203 170.785687 
Q 447.491953 170.785687 446.987578 171.462562 
Q 446.483203 172.139437 446.483203 173.316937 
Q 446.483203 174.494437 446.983828 175.171312 
Q 447.486328 175.848187 448.358203 175.848187 
Q 449.220703 175.848187 449.723203 175.169437 
Q 450.227578 174.488812 450.227578 173.316937 
Q 450.227578 172.150687 449.723203 171.468187 
Q 449.220703 170.785687 448.358203 170.785687 
z
M 448.358203 169.872562 
Q 449.764453 169.872562 450.566953 170.787562 
Q 451.371328 171.700687 451.371328 173.316937 
Q 451.371328 174.927562 450.566953 175.846312 
Q 449.764453 176.763187 448.358203 176.763187 
Q 446.946328 176.763187 446.145703 175.846312 
Q 445.346953 174.927562 445.346953 173.316937 
Q 445.346953 171.700687 446.145703 170.787562 
Q 446.946328 169.872562 448.358203 169.872562 
z
M 458.61375 172.630687 
L 458.61375 176.592562 
L 457.535625 176.592562 
L 457.535625 172.666312 
Q 457.535625 171.734437 457.171875 171.273187 
Q 456.808125 170.810062 456.0825 170.810062 
Q 455.20875 170.810062 454.704375 171.366937 
Q 454.2 171.921937 454.2 172.883812 
L 454.2 176.592562 
L 453.11625 176.592562 
L 453.11625 170.030062 
L 454.2 170.030062 
L 454.2 171.050062 
Q 454.588125 170.457562 455.11125 170.165062 
Q 455.63625 169.872562 456.3225 169.872562 
Q 457.453125 169.872562 458.0325 170.571937 
Q 458.61375 171.271312 458.61375 172.630687 
z
" clip-path="url(#pe0d6607aa3)" style="fill: #ffffff; stroke: #000000; stroke-width: 2"/>
    <path d="M 409.680937 170.223187 
L 409.680937 171.243187 
Q 409.225312 171.008812 408.732187 170.892562 
Q 408.240937 170.774437 407.712187 170.774437 
Q 406.909687 170.774437 406.508437 171.020062 
Q 406.107187 171.265687 406.107187 171.758812 
Q 406.107187 172.133812 406.394062 172.347562 
Q 406.680937 172.561312 407.549062 172.754437 
L 407.918437 172.836937 
Q 409.065937 173.082562 409.549687 173.530687 
Q 410.033437 173.978812 410.033437 174.781312 
Q 410.033437 175.696312 409.309687 176.230687 
Q 408.585937 176.763187 407.320312 176.763187 
Q 406.793437 176.763187 406.221562 176.660062 
Q 405.649687 176.556937 405.017812 176.352562 
L 405.017812 175.238812 
Q 405.615937 175.550062 406.195312 175.705687 
Q 406.774687 175.859437 407.344687 175.859437 
Q 408.105937 175.859437 408.514687 175.598812 
Q 408.925312 175.338187 408.925312 174.863812 
Q 408.925312 174.425062 408.629062 174.190687 
Q 408.334687 173.956312 407.331562 173.738812 
L 406.956562 173.650687 
Q 405.955312 173.440687 405.509062 173.003812 
Q 405.064687 172.566937 405.064687 171.805687 
Q 405.064687 170.879437 405.720937 170.376937 
Q 406.377187 169.872562 407.584687 169.872562 
Q 408.180937 169.872562 408.707812 169.960687 
Q 409.236562 170.046937 409.680937 170.223187 
z
M 417.363516 173.041312 
L 417.363516 173.568187 
L 412.406016 173.568187 
Q 412.477266 174.681937 413.077266 175.265062 
Q 413.677266 175.848187 414.749766 175.848187 
Q 415.370391 175.848187 415.953516 175.696312 
Q 416.536641 175.544437 417.112266 175.238812 
L 417.112266 176.258812 
Q 416.531016 176.504437 415.921641 176.633812 
Q 415.312266 176.763187 414.686016 176.763187 
Q 413.114766 176.763187 412.197891 175.850062 
Q 411.281016 174.935062 411.281016 173.375062 
Q 411.281016 171.764437 412.151016 170.819437 
Q 413.021016 169.872562 414.498516 169.872562 
Q 415.822266 169.872562 416.592891 170.725687 
Q 417.363516 171.576937 417.363516 173.041312 
z
M 416.285391 172.724437 
Q 416.274141 171.841312 415.790391 171.314437 
Q 415.306641 170.785687 414.509766 170.785687 
Q 413.607891 170.785687 413.066016 171.295687 
Q 412.524141 171.805687 412.441641 172.731937 
L 416.285391 172.724437 
z
M 423.855703 170.281312 
L 423.855703 171.290062 
Q 423.398203 171.036937 422.938828 170.911312 
Q 422.479453 170.785687 422.010703 170.785687 
Q 420.960703 170.785687 420.379453 171.451312 
Q 419.800078 172.115062 419.800078 173.316937 
Q 419.800078 174.518812 420.379453 175.184437 
Q 420.960703 175.848187 422.010703 175.848187 
Q 422.479453 175.848187 422.938828 175.722562 
Q 423.398203 175.596937 423.855703 175.343812 
L 423.855703 176.341312 
Q 423.403828 176.551312 422.920078 176.656312 
Q 422.438203 176.763187 421.892578 176.763187 
Q 420.409453 176.763187 419.535703 175.831312 
Q 418.663828 174.899437 418.663828 173.316937 
Q 418.663828 171.711937 419.545078 170.793187 
Q 420.428203 169.872562 421.963828 169.872562 
Q 422.460703 169.872562 422.935078 169.975687 
Q 423.409453 170.076937 423.855703 170.281312 
z
M 429.532734 171.036937 
Q 429.350859 170.931937 429.137109 170.883187 
Q 428.923359 170.832562 428.666484 170.832562 
Q 427.751484 170.832562 427.262109 171.426937 
Q 426.772734 172.021312 426.772734 173.135062 
L 426.772734 176.592562 
L 425.688984 176.592562 
L 425.688984 170.030062 
L 426.772734 170.030062 
L 426.772734 171.050062 
Q 427.113984 170.451937 427.657734 170.163187 
Q 428.203359 169.872562 428.983359 169.872562 
Q 429.093984 169.872562 429.228984 169.887562 
Q 429.363984 169.900687 429.527109 169.930687 
L 429.532734 171.036937 
z
M 436.007578 173.041312 
L 436.007578 173.568187 
L 431.050078 173.568187 
Q 431.121328 174.681937 431.721328 175.265062 
Q 432.321328 175.848187 433.393828 175.848187 
Q 434.014453 175.848187 434.597578 175.696312 
Q 435.180703 175.544437 435.756328 175.238812 
L 435.756328 176.258812 
Q 435.175078 176.504437 434.565703 176.633812 
Q 433.956328 176.763187 433.330078 176.763187 
Q 431.758828 176.763187 430.841953 175.850062 
Q 429.925078 174.935062 429.925078 173.375062 
Q 429.925078 171.764437 430.795078 170.819437 
Q 431.665078 169.872562 433.142578 169.872562 
Q 434.466328 169.872562 435.236953 170.725687 
Q 436.007578 171.576937 436.007578 173.041312 
z
M 434.929453 172.724437 
Q 434.918203 171.841312 434.434453 171.314437 
Q 433.950703 170.785687 433.153828 170.785687 
Q 432.251953 170.785687 431.710078 171.295687 
Q 431.168203 171.805687 431.085703 172.731937 
L 434.929453 172.724437 
z
M 438.843516 168.166312 
L 438.843516 170.030062 
L 441.063516 170.030062 
L 441.063516 170.868187 
L 438.843516 170.868187 
L 438.843516 174.430687 
Q 438.843516 175.233187 439.062891 175.461937 
Q 439.282266 175.690687 439.957266 175.690687 
L 441.063516 175.690687 
L 441.063516 176.592562 
L 439.957266 176.592562 
Q 438.708516 176.592562 438.234141 176.127562 
Q 437.759766 175.660687 437.759766 174.430687 
L 437.759766 170.868187 
L 436.968516 170.868187 
L 436.968516 170.030062 
L 437.759766 170.030062 
L 437.759766 168.166312 
L 438.843516 168.166312 
z
M 442.481719 170.030062 
L 443.559844 170.030062 
L 443.559844 176.592562 
L 442.481719 176.592562 
L 442.481719 170.030062 
z
M 442.481719 167.474437 
L 443.559844 167.474437 
L 443.559844 168.841312 
L 442.481719 168.841312 
L 442.481719 167.474437 
z
M 448.358203 170.785687 
Q 447.491953 170.785687 446.987578 171.462562 
Q 446.483203 172.139437 446.483203 173.316937 
Q 446.483203 174.494437 446.983828 175.171312 
Q 447.486328 175.848187 448.358203 175.848187 
Q 449.220703 175.848187 449.723203 175.169437 
Q 450.227578 174.488812 450.227578 173.316937 
Q 450.227578 172.150687 449.723203 171.468187 
Q 449.220703 170.785687 448.358203 170.785687 
z
M 448.358203 169.872562 
Q 449.764453 169.872562 450.566953 170.787562 
Q 451.371328 171.700687 451.371328 173.316937 
Q 451.371328 174.927562 450.566953 175.846312 
Q 449.764453 176.763187 448.358203 176.763187 
Q 446.946328 176.763187 446.145703 175.846312 
Q 445.346953 174.927562 445.346953 173.316937 
Q 445.346953 171.700687 446.145703 170.787562 
Q 446.946328 169.872562 448.358203 169.872562 
z
M 458.61375 172.630687 
L 458.61375 176.592562 
L 457.535625 176.592562 
L 457.535625 172.666312 
Q 457.535625 171.734437 457.171875 171.273187 
Q 456.808125 170.810062 456.0825 170.810062 
Q 455.20875 170.810062 454.704375 171.366937 
Q 454.2 171.921937 454.2 172.883812 
L 454.2 176.592562 
L 453.11625 176.592562 
L 453.11625 170.030062 
L 454.2 170.030062 
L 454.2 171.050062 
Q 454.588125 170.457562 455.11125 170.165062 
Q 455.63625 169.872562 456.3225 169.872562 
Q 457.453125 169.872562 458.0325 170.571937 
Q 458.61375 171.271312 458.61375 172.630687 
z
" clip-path="url(#pe0d6607aa3)" style="fill: #ffffff"/>
    <path d="M 401.130937 188.781187 
L 401.130937 186.431812 
L 399.197812 186.431812 
L 399.197812 185.458687 
L 402.302812 185.458687 
L 402.302812 189.216187 
Q 401.618437 189.701812 400.791562 189.951187 
Q 399.966562 190.200562 399.029062 190.200562 
Q 396.977812 190.200562 395.819062 189.002437 
Q 394.662187 187.802437 394.662187 185.664937 
Q 394.662187 183.519937 395.819062 182.321812 
Q 396.977812 181.123687 399.029062 181.123687 
Q 399.884062 181.123687 400.654687 181.335562 
Q 401.425312 181.545562 402.075937 181.956187 
L 402.075937 183.216187 
Q 401.419687 182.659312 400.680937 182.378062 
Q 399.942187 182.096812 399.128437 182.096812 
Q 397.521562 182.096812 396.715312 182.993062 
Q 395.910937 183.889312 395.910937 185.664937 
Q 395.910937 187.434937 396.715312 188.331187 
Q 397.521562 189.227437 399.128437 189.227437 
Q 399.754687 189.227437 400.245937 189.118687 
Q 400.739062 189.009937 401.130937 188.781187 
z
M 408.016641 182.083687 
Q 406.726641 182.083687 405.967266 183.045562 
Q 405.209766 184.005562 405.209766 185.664937 
Q 405.209766 187.316812 405.967266 188.278687 
Q 406.726641 189.238687 408.016641 189.238687 
Q 409.304766 189.238687 410.058516 188.278687 
Q 410.812266 187.316812 410.812266 185.664937 
Q 410.812266 184.005562 410.058516 183.045562 
Q 409.304766 182.083687 408.016641 182.083687 
z
M 408.016641 181.123687 
Q 409.856016 181.123687 410.956641 182.357437 
Q 412.059141 183.591187 412.059141 185.664937 
Q 412.059141 187.733062 410.956641 188.966812 
Q 409.856016 190.200562 408.016641 190.200562 
Q 406.171641 190.200562 405.065391 188.970562 
Q 403.961016 187.738687 403.961016 185.664937 
Q 403.961016 183.591187 405.065391 182.357437 
Q 406.171641 181.123687 408.016641 181.123687 
z
M 413.929453 188.541187 
L 415.165078 188.541187 
L 415.165078 190.029937 
L 413.929453 190.029937 
L 413.929453 188.541187 
z
M 413.929453 183.825562 
L 415.165078 183.825562 
L 415.165078 185.312437 
L 413.929453 185.312437 
L 413.929453 183.825562 
z
M 420.379922 182.061187 
Q 419.466797 182.061187 419.005547 182.961187 
Q 418.546172 183.859312 418.546172 185.664937 
Q 418.546172 187.463062 419.005547 188.363062 
Q 419.466797 189.263062 420.379922 189.263062 
Q 421.300547 189.263062 421.759922 188.363062 
Q 422.221172 187.463062 422.221172 185.664937 
Q 422.221172 183.859312 421.759922 182.961187 
Q 421.300547 182.061187 420.379922 182.061187 
z
M 420.379922 181.123687 
Q 421.851797 181.123687 422.628047 182.288062 
Q 423.404297 183.450562 423.404297 185.664937 
Q 423.404297 187.873687 422.628047 189.038062 
Q 421.851797 190.200562 420.379922 190.200562 
Q 418.909922 190.200562 418.133672 189.038062 
Q 417.357422 187.873687 417.357422 185.664937 
Q 417.357422 183.450562 418.133672 182.288062 
Q 418.909922 181.123687 420.379922 181.123687 
z
M 428.014687 182.061187 
Q 427.101562 182.061187 426.640312 182.961187 
Q 426.180937 183.859312 426.180937 185.664937 
Q 426.180937 187.463062 426.640312 188.363062 
Q 427.101562 189.263062 428.014687 189.263062 
Q 428.935312 189.263062 429.394687 188.363062 
Q 429.855937 187.463062 429.855937 185.664937 
Q 429.855937 183.859312 429.394687 182.961187 
Q 428.935312 182.061187 428.014687 182.061187 
z
M 428.014687 181.123687 
Q 429.486562 181.123687 430.262812 182.288062 
Q 431.039062 183.450562 431.039062 185.664937 
Q 431.039062 187.873687 430.262812 189.038062 
Q 429.486562 190.200562 428.014687 190.200562 
Q 426.544687 190.200562 425.768437 189.038062 
Q 424.992187 187.873687 424.992187 185.664937 
Q 424.992187 183.450562 425.768437 182.288062 
Q 426.544687 181.123687 428.014687 181.123687 
z
M 436.705078 185.312437 
Q 437.554453 185.494312 438.030703 186.069937 
Q 438.508828 186.643687 438.508828 187.487437 
Q 438.508828 188.781187 437.618203 189.491812 
Q 436.727578 190.200562 435.086953 190.200562 
Q 434.537578 190.200562 433.954453 190.091812 
Q 433.371328 189.983062 432.750703 189.765562 
L 432.750703 188.623687 
Q 433.241953 188.910562 433.826953 189.056812 
Q 434.413828 189.203062 435.053203 189.203062 
Q 436.165078 189.203062 436.748203 188.764312 
Q 437.331328 188.325562 437.331328 187.487437 
Q 437.331328 186.713062 436.789453 186.278062 
Q 436.247578 185.841187 435.281953 185.841187 
L 434.261953 185.841187 
L 434.261953 184.868062 
L 435.328828 184.868062 
Q 436.200703 184.868062 436.663828 184.519312 
Q 437.126953 184.170562 437.126953 183.514312 
Q 437.126953 182.841187 436.648828 182.481187 
Q 436.172578 182.119312 435.281953 182.119312 
Q 434.794453 182.119312 434.237578 182.226187 
Q 433.680703 182.331187 433.013203 182.552437 
L 433.013203 181.498687 
Q 433.688203 181.311187 434.276953 181.217437 
Q 434.865703 181.123687 435.386953 181.123687 
Q 436.735078 181.123687 437.518828 181.736812 
Q 438.304453 182.348062 438.304453 183.390562 
Q 438.304453 184.118062 437.888203 184.618687 
Q 437.471953 185.119312 436.705078 185.312437 
z
M 441.772969 189.034312 
L 445.903594 189.034312 
L 445.903594 190.029937 
L 440.349844 190.029937 
L 440.349844 189.034312 
Q 441.022969 188.336812 442.185469 187.163062 
Q 443.349844 185.987437 443.647969 185.646187 
Q 444.216094 185.008687 444.441094 184.566187 
Q 444.667969 184.123687 444.667969 183.696187 
Q 444.667969 182.998687 444.178594 182.559937 
Q 443.689219 182.119312 442.903594 182.119312 
Q 442.346719 182.119312 441.727969 182.312437 
Q 441.111094 182.505562 440.407969 182.899312 
L 440.407969 181.703062 
Q 441.122344 181.416187 441.742969 181.269937 
Q 442.365469 181.123687 442.881094 181.123687 
Q 444.240469 181.123687 445.048594 181.804312 
Q 445.856719 182.483062 445.856719 183.619312 
Q 445.856719 184.159312 445.654219 184.643062 
Q 445.453594 185.124937 444.919219 185.781187 
Q 444.772969 185.951812 443.987344 186.763687 
Q 443.203594 187.575562 441.772969 189.034312 
z
M 448.089609 181.281187 
L 453.714609 181.281187 
L 453.714609 181.785562 
L 450.538359 190.029937 
L 449.302734 190.029937 
L 452.291484 182.278687 
L 448.089609 182.278687 
L 448.089609 181.281187 
z
M 458.55375 185.874937 
Q 457.71 185.874937 457.22625 186.326812 
Q 456.744375 186.778687 456.744375 187.568062 
Q 456.744375 188.359312 457.22625 188.811187 
Q 457.71 189.263062 458.55375 189.263062 
Q 459.3975 189.263062 459.883125 188.809312 
Q 460.370625 188.353687 460.370625 187.568062 
Q 460.370625 186.778687 459.886875 186.326812 
Q 459.405 185.874937 458.55375 185.874937 
z
M 457.370625 185.372437 
Q 456.609375 185.184937 456.18375 184.663687 
Q 455.76 184.140562 455.76 183.390562 
Q 455.76 182.342437 456.50625 181.733062 
Q 457.254375 181.123687 458.55375 181.123687 
Q 459.860625 181.123687 460.605 181.733062 
Q 461.349375 182.342437 461.349375 183.390562 
Q 461.349375 184.140562 460.92375 184.663687 
Q 460.5 185.184937 459.744375 185.372437 
Q 460.599375 185.571187 461.075625 186.152437 
Q 461.55375 186.731812 461.55375 187.568062 
Q 461.55375 188.841187 460.7775 189.521812 
Q 460.00125 190.200562 458.55375 190.200562 
Q 457.108125 190.200562 456.33 189.521812 
Q 455.55375 188.841187 455.55375 187.568062 
Q 455.55375 186.731812 456.03375 186.152437 
Q 456.515625 185.571187 457.370625 185.372437 
z
M 456.9375 183.503062 
Q 456.9375 184.181812 457.36125 184.562437 
Q 457.786875 184.943062 458.55375 184.943062 
Q 459.316875 184.943062 459.74625 184.562437 
Q 460.1775 184.181812 460.1775 183.503062 
Q 460.1775 182.822437 459.74625 182.441812 
Q 459.316875 182.061187 458.55375 182.061187 
Q 457.786875 182.061187 457.36125 182.441812 
Q 456.9375 182.822437 456.9375 183.503062 
z
M 464.677266 189.034312 
L 468.807891 189.034312 
L 468.807891 190.029937 
L 463.254141 190.029937 
L 463.254141 189.034312 
Q 463.927266 188.336812 465.089766 187.163062 
Q 466.254141 185.987437 466.552266 185.646187 
Q 467.120391 185.008687 467.345391 184.566187 
Q 467.572266 184.123687 467.572266 183.696187 
Q 467.572266 182.998687 467.082891 182.559937 
Q 466.593516 182.119312 465.807891 182.119312 
Q 465.251016 182.119312 464.632266 182.312437 
Q 464.015391 182.505562 463.312266 182.899312 
L 463.312266 181.703062 
Q 464.026641 181.416187 464.647266 181.269937 
Q 465.269766 181.123687 465.785391 181.123687 
Q 467.144766 181.123687 467.952891 181.804312 
Q 468.761016 182.483062 468.761016 183.619312 
Q 468.761016 184.159312 468.558516 184.643062 
Q 468.357891 185.124937 467.823516 185.781187 
Q 467.677266 185.951812 466.891641 186.763687 
Q 466.107891 187.575562 464.677266 189.034312 
z
" clip-path="url(#pe0d6607aa3)" style="fill: #ffffff; stroke: #000000; stroke-width: 2"/>
    <path d="M 401.130937 188.781187 
L 401.130937 186.431812 
L 399.197812 186.431812 
L 399.197812 185.458687 
L 402.302812 185.458687 
L 402.302812 189.216187 
Q 401.618437 189.701812 400.791562 189.951187 
Q 399.966562 190.200562 399.029062 190.200562 
Q 396.977812 190.200562 395.819062 189.002437 
Q 394.662187 187.802437 394.662187 185.664937 
Q 394.662187 183.519937 395.819062 182.321812 
Q 396.977812 181.123687 399.029062 181.123687 
Q 399.884062 181.123687 400.654687 181.335562 
Q 401.425312 181.545562 402.075937 181.956187 
L 402.075937 183.216187 
Q 401.419687 182.659312 400.680937 182.378062 
Q 399.942187 182.096812 399.128437 182.096812 
Q 397.521562 182.096812 396.715312 182.993062 
Q 395.910937 183.889312 395.910937 185.664937 
Q 395.910937 187.434937 396.715312 188.331187 
Q 397.521562 189.227437 399.128437 189.227437 
Q 399.754687 189.227437 400.245937 189.118687 
Q 400.739062 189.009937 401.130937 188.781187 
z
M 408.016641 182.083687 
Q 406.726641 182.083687 405.967266 183.045562 
Q 405.209766 184.005562 405.209766 185.664937 
Q 405.209766 187.316812 405.967266 188.278687 
Q 406.726641 189.238687 408.016641 189.238687 
Q 409.304766 189.238687 410.058516 188.278687 
Q 410.812266 187.316812 410.812266 185.664937 
Q 410.812266 184.005562 410.058516 183.045562 
Q 409.304766 182.083687 408.016641 182.083687 
z
M 408.016641 181.123687 
Q 409.856016 181.123687 410.956641 182.357437 
Q 412.059141 183.591187 412.059141 185.664937 
Q 412.059141 187.733062 410.956641 188.966812 
Q 409.856016 190.200562 408.016641 190.200562 
Q 406.171641 190.200562 405.065391 188.970562 
Q 403.961016 187.738687 403.961016 185.664937 
Q 403.961016 183.591187 405.065391 182.357437 
Q 406.171641 181.123687 408.016641 181.123687 
z
M 413.929453 188.541187 
L 415.165078 188.541187 
L 415.165078 190.029937 
L 413.929453 190.029937 
L 413.929453 188.541187 
z
M 413.929453 183.825562 
L 415.165078 183.825562 
L 415.165078 185.312437 
L 413.929453 185.312437 
L 413.929453 183.825562 
z
M 420.379922 182.061187 
Q 419.466797 182.061187 419.005547 182.961187 
Q 418.546172 183.859312 418.546172 185.664937 
Q 418.546172 187.463062 419.005547 188.363062 
Q 419.466797 189.263062 420.379922 189.263062 
Q 421.300547 189.263062 421.759922 188.363062 
Q 422.221172 187.463062 422.221172 185.664937 
Q 422.221172 183.859312 421.759922 182.961187 
Q 421.300547 182.061187 420.379922 182.061187 
z
M 420.379922 181.123687 
Q 421.851797 181.123687 422.628047 182.288062 
Q 423.404297 183.450562 423.404297 185.664937 
Q 423.404297 187.873687 422.628047 189.038062 
Q 421.851797 190.200562 420.379922 190.200562 
Q 418.909922 190.200562 418.133672 189.038062 
Q 417.357422 187.873687 417.357422 185.664937 
Q 417.357422 183.450562 418.133672 182.288062 
Q 418.909922 181.123687 420.379922 181.123687 
z
M 428.014687 182.061187 
Q 427.101562 182.061187 426.640312 182.961187 
Q 426.180937 183.859312 426.180937 185.664937 
Q 426.180937 187.463062 426.640312 188.363062 
Q 427.101562 189.263062 428.014687 189.263062 
Q 428.935312 189.263062 429.394687 188.363062 
Q 429.855937 187.463062 429.855937 185.664937 
Q 429.855937 183.859312 429.394687 182.961187 
Q 428.935312 182.061187 428.014687 182.061187 
z
M 428.014687 181.123687 
Q 429.486562 181.123687 430.262812 182.288062 
Q 431.039062 183.450562 431.039062 185.664937 
Q 431.039062 187.873687 430.262812 189.038062 
Q 429.486562 190.200562 428.014687 190.200562 
Q 426.544687 190.200562 425.768437 189.038062 
Q 424.992187 187.873687 424.992187 185.664937 
Q 424.992187 183.450562 425.768437 182.288062 
Q 426.544687 181.123687 428.014687 181.123687 
z
M 436.705078 185.312437 
Q 437.554453 185.494312 438.030703 186.069937 
Q 438.508828 186.643687 438.508828 187.487437 
Q 438.508828 188.781187 437.618203 189.491812 
Q 436.727578 190.200562 435.086953 190.200562 
Q 434.537578 190.200562 433.954453 190.091812 
Q 433.371328 189.983062 432.750703 189.765562 
L 432.750703 188.623687 
Q 433.241953 188.910562 433.826953 189.056812 
Q 434.413828 189.203062 435.053203 189.203062 
Q 436.165078 189.203062 436.748203 188.764312 
Q 437.331328 188.325562 437.331328 187.487437 
Q 437.331328 186.713062 436.789453 186.278062 
Q 436.247578 185.841187 435.281953 185.841187 
L 434.261953 185.841187 
L 434.261953 184.868062 
L 435.328828 184.868062 
Q 436.200703 184.868062 436.663828 184.519312 
Q 437.126953 184.170562 437.126953 183.514312 
Q 437.126953 182.841187 436.648828 182.481187 
Q 436.172578 182.119312 435.281953 182.119312 
Q 434.794453 182.119312 434.237578 182.226187 
Q 433.680703 182.331187 433.013203 182.552437 
L 433.013203 181.498687 
Q 433.688203 181.311187 434.276953 181.217437 
Q 434.865703 181.123687 435.386953 181.123687 
Q 436.735078 181.123687 437.518828 181.736812 
Q 438.304453 182.348062 438.304453 183.390562 
Q 438.304453 184.118062 437.888203 184.618687 
Q 437.471953 185.119312 436.705078 185.312437 
z
M 441.772969 189.034312 
L 445.903594 189.034312 
L 445.903594 190.029937 
L 440.349844 190.029937 
L 440.349844 189.034312 
Q 441.022969 188.336812 442.185469 187.163062 
Q 443.349844 185.987437 443.647969 185.646187 
Q 444.216094 185.008687 444.441094 184.566187 
Q 444.667969 184.123687 444.667969 183.696187 
Q 444.667969 182.998687 444.178594 182.559937 
Q 443.689219 182.119312 442.903594 182.119312 
Q 442.346719 182.119312 441.727969 182.312437 
Q 441.111094 182.505562 440.407969 182.899312 
L 440.407969 181.703062 
Q 441.122344 181.416187 441.742969 181.269937 
Q 442.365469 181.123687 442.881094 181.123687 
Q 444.240469 181.123687 445.048594 181.804312 
Q 445.856719 182.483062 445.856719 183.619312 
Q 445.856719 184.159312 445.654219 184.643062 
Q 445.453594 185.124937 444.919219 185.781187 
Q 444.772969 185.951812 443.987344 186.763687 
Q 443.203594 187.575562 441.772969 189.034312 
z
M 448.089609 181.281187 
L 453.714609 181.281187 
L 453.714609 181.785562 
L 450.538359 190.029937 
L 449.302734 190.029937 
L 452.291484 182.278687 
L 448.089609 182.278687 
L 448.089609 181.281187 
z
M 458.55375 185.874937 
Q 457.71 185.874937 457.22625 186.326812 
Q 456.744375 186.778687 456.744375 187.568062 
Q 456.744375 188.359312 457.22625 188.811187 
Q 457.71 189.263062 458.55375 189.263062 
Q 459.3975 189.263062 459.883125 188.809312 
Q 460.370625 188.353687 460.370625 187.568062 
Q 460.370625 186.778687 459.886875 186.326812 
Q 459.405 185.874937 458.55375 185.874937 
z
M 457.370625 185.372437 
Q 456.609375 185.184937 456.18375 184.663687 
Q 455.76 184.140562 455.76 183.390562 
Q 455.76 182.342437 456.50625 181.733062 
Q 457.254375 181.123687 458.55375 181.123687 
Q 459.860625 181.123687 460.605 181.733062 
Q 461.349375 182.342437 461.349375 183.390562 
Q 461.349375 184.140562 460.92375 184.663687 
Q 460.5 185.184937 459.744375 185.372437 
Q 460.599375 185.571187 461.075625 186.152437 
Q 461.55375 186.731812 461.55375 187.568062 
Q 461.55375 188.841187 460.7775 189.521812 
Q 460.00125 190.200562 458.55375 190.200562 
Q 457.108125 190.200562 456.33 189.521812 
Q 455.55375 188.841187 455.55375 187.568062 
Q 455.55375 186.731812 456.03375 186.152437 
Q 456.515625 185.571187 457.370625 185.372437 
z
M 456.9375 183.503062 
Q 456.9375 184.181812 457.36125 184.562437 
Q 457.786875 184.943062 458.55375 184.943062 
Q 459.316875 184.943062 459.74625 184.562437 
Q 460.1775 184.181812 460.1775 183.503062 
Q 460.1775 182.822437 459.74625 182.441812 
Q 459.316875 182.061187 458.55375 182.061187 
Q 457.786875 182.061187 457.36125 182.441812 
Q 456.9375 182.822437 456.9375 183.503062 
z
M 464.677266 189.034312 
L 468.807891 189.034312 
L 468.807891 190.029937 
L 463.254141 190.029937 
L 463.254141 189.034312 
Q 463.927266 188.336812 465.089766 187.163062 
Q 466.254141 185.987437 466.552266 185.646187 
Q 467.120391 185.008687 467.345391 184.566187 
Q 467.572266 184.123687 467.572266 183.696187 
Q 467.572266 182.998687 467.082891 182.559937 
Q 466.593516 182.119312 465.807891 182.119312 
Q 465.251016 182.119312 464.632266 182.312437 
Q 464.015391 182.505562 463.312266 182.899312 
L 463.312266 181.703062 
Q 464.026641 181.416187 464.647266 181.269937 
Q 465.269766 181.123687 465.785391 181.123687 
Q 467.144766 181.123687 467.952891 181.804312 
Q 468.761016 182.483062 468.761016 183.619312 
Q 468.761016 184.159312 468.558516 184.643062 
Q 468.357891 185.124937 467.823516 185.781187 
Q 467.677266 185.951812 466.891641 186.763687 
Q 466.107891 187.575562 464.677266 189.034312 
z
" clip-path="url(#pe0d6607aa3)" style="fill: #ffffff"/>
    <path d="M 382.69125 199.289812 
L 382.69125 202.494187 
L 384.590625 202.494187 
Q 385.545 202.494187 386.004375 202.098562 
Q 386.465625 201.702937 386.465625 200.889187 
Q 386.465625 200.067937 386.004375 199.679812 
Q 385.545 199.289812 384.590625 199.289812 
L 382.69125 199.289812 
z
M 382.69125 195.691687 
L 382.69125 198.327937 
L 384.444375 198.327937 
Q 385.310625 198.327937 385.734375 198.003562 
Q 386.16 197.677312 386.16 197.009812 
Q 386.16 196.347937 385.734375 196.019812 
Q 385.310625 195.691687 384.444375 195.691687 
L 382.69125 195.691687 
z
M 381.508125 194.718562 
L 384.5325 194.718562 
Q 385.88625 194.718562 386.6175 195.281062 
Q 387.350625 195.843562 387.350625 196.880437 
Q 387.350625 197.684812 386.975625 198.159187 
Q 386.600625 198.633562 385.873125 198.749812 
Q 386.746875 198.937312 387.230625 199.533562 
Q 387.714375 200.127937 387.714375 201.018562 
Q 387.714375 202.190437 386.9175 202.829812 
Q 386.120625 203.467312 384.64875 203.467312 
L 381.508125 203.467312 
L 381.508125 194.718562 
z
M 389.693672 196.904812 
L 390.771797 196.904812 
L 390.771797 203.467312 
L 389.693672 203.467312 
L 389.693672 196.904812 
z
M 389.693672 194.349187 
L 390.771797 194.349187 
L 390.771797 195.716062 
L 389.693672 195.716062 
L 389.693672 194.349187 
z
M 395.570156 197.660437 
Q 394.703906 197.660437 394.199531 198.337312 
Q 393.695156 199.014187 393.695156 200.191687 
Q 393.695156 201.369187 394.195781 202.046062 
Q 394.698281 202.722937 395.570156 202.722937 
Q 396.432656 202.722937 396.935156 202.044187 
Q 397.439531 201.363562 397.439531 200.191687 
Q 397.439531 199.025437 396.935156 198.342937 
Q 396.432656 197.660437 395.570156 197.660437 
z
M 395.570156 196.747312 
Q 396.976406 196.747312 397.778906 197.662312 
Q 398.583281 198.575437 398.583281 200.191687 
Q 398.583281 201.802312 397.778906 202.721062 
Q 396.976406 203.637937 395.570156 203.637937 
Q 394.158281 203.637937 393.357656 202.721062 
Q 392.558906 201.802312 392.558906 200.191687 
Q 392.558906 198.575437 393.357656 197.662312 
Q 394.158281 196.747312 395.570156 196.747312 
z
M 400.369453 194.349187 
L 401.447578 194.349187 
L 401.447578 203.467312 
L 400.369453 203.467312 
L 400.369453 194.349187 
z
M 406.245937 197.660437 
Q 405.379687 197.660437 404.875312 198.337312 
Q 404.370937 199.014187 404.370937 200.191687 
Q 404.370937 201.369187 404.871562 202.046062 
Q 405.374062 202.722937 406.245937 202.722937 
Q 407.108437 202.722937 407.610937 202.044187 
Q 408.115312 201.363562 408.115312 200.191687 
Q 408.115312 199.025437 407.610937 198.342937 
Q 407.108437 197.660437 406.245937 197.660437 
z
M 406.245937 196.747312 
Q 407.652187 196.747312 408.454687 197.662312 
Q 409.259062 198.575437 409.259062 200.191687 
Q 409.259062 201.802312 408.454687 202.721062 
Q 407.652187 203.637937 406.245937 203.637937 
Q 404.834062 203.637937 404.033437 202.721062 
Q 403.234687 201.802312 403.234687 200.191687 
Q 403.234687 198.575437 404.033437 197.662312 
Q 404.834062 196.747312 406.245937 196.747312 
z
M 415.363359 200.109187 
Q 415.363359 198.937312 414.879609 198.294187 
Q 414.397734 197.649187 413.523984 197.649187 
Q 412.657734 197.649187 412.173984 198.294187 
Q 411.690234 198.937312 411.690234 200.109187 
Q 411.690234 201.275437 412.173984 201.920437 
Q 412.657734 202.565437 413.523984 202.565437 
Q 414.397734 202.565437 414.879609 201.920437 
Q 415.363359 201.275437 415.363359 200.109187 
z
M 416.441484 202.653562 
Q 416.441484 204.327937 415.697109 205.145437 
Q 414.954609 205.962937 413.418984 205.962937 
Q 412.850859 205.962937 412.346484 205.878562 
Q 411.842109 205.794187 411.367734 205.617937 
L 411.367734 204.569812 
Q 411.842109 204.826687 412.305234 204.948562 
Q 412.768359 205.072312 413.248359 205.072312 
Q 414.309609 205.072312 414.836484 204.519187 
Q 415.363359 203.966062 415.363359 202.846687 
L 415.363359 202.312312 
Q 415.029609 202.893562 414.508359 203.180437 
Q 413.987109 203.467312 413.259609 203.467312 
Q 412.053984 203.467312 411.315234 202.548562 
Q 410.576484 201.627937 410.576484 200.109187 
Q 410.576484 198.586687 411.315234 197.667937 
Q 412.053984 196.747312 413.259609 196.747312 
Q 413.987109 196.747312 414.508359 197.034187 
Q 415.029609 197.321062 415.363359 197.900437 
L 415.363359 196.904812 
L 416.441484 196.904812 
L 416.441484 202.653562 
z
M 418.662422 196.904812 
L 419.740547 196.904812 
L 419.740547 203.467312 
L 418.662422 203.467312 
L 418.662422 196.904812 
z
M 418.662422 194.349187 
L 419.740547 194.349187 
L 419.740547 195.716062 
L 418.662422 195.716062 
L 418.662422 194.349187 
z
M 426.719531 197.156062 
L 426.719531 198.164812 
Q 426.262031 197.911687 425.802656 197.786062 
Q 425.343281 197.660437 424.874531 197.660437 
Q 423.824531 197.660437 423.243281 198.326062 
Q 422.663906 198.989812 422.663906 200.191687 
Q 422.663906 201.393562 423.243281 202.059187 
Q 423.824531 202.722937 424.874531 202.722937 
Q 425.343281 202.722937 425.802656 202.597312 
Q 426.262031 202.471687 426.719531 202.218562 
L 426.719531 203.216062 
Q 426.267656 203.426062 425.783906 203.531062 
Q 425.302031 203.637937 424.756406 203.637937 
Q 423.273281 203.637937 422.399531 202.706062 
Q 421.527656 201.774187 421.527656 200.191687 
Q 421.527656 198.586687 422.408906 197.667937 
Q 423.292031 196.747312 424.827656 196.747312 
Q 425.324531 196.747312 425.798906 196.850437 
Q 426.273281 196.951687 426.719531 197.156062 
z
M 431.577187 200.169187 
Q 430.270312 200.169187 429.765937 200.467312 
Q 429.261562 200.765437 429.261562 201.487312 
Q 429.261562 202.061062 429.640312 202.398562 
Q 430.019062 202.734187 430.667812 202.734187 
Q 431.565937 202.734187 432.107812 202.098562 
Q 432.649687 201.462937 432.649687 200.409187 
L 432.649687 200.169187 
L 431.577187 200.169187 
z
M 433.727812 199.722937 
L 433.727812 203.467312 
L 432.649687 203.467312 
L 432.649687 202.471687 
Q 432.280312 203.067937 431.729062 203.352937 
Q 431.177812 203.637937 430.380937 203.637937 
Q 429.374062 203.637937 428.777812 203.071687 
Q 428.183437 202.505437 428.183437 201.556687 
Q 428.183437 200.450437 428.924062 199.887937 
Q 429.666562 199.325437 431.136562 199.325437 
L 432.649687 199.325437 
L 432.649687 199.218562 
Q 432.649687 198.474187 432.160312 198.067312 
Q 431.670937 197.660437 430.785937 197.660437 
Q 430.223437 197.660437 429.689062 197.795437 
Q 429.156562 197.930437 428.665312 198.200437 
L 428.665312 197.202937 
Q 429.255937 196.974187 429.812812 196.861687 
Q 430.369687 196.747312 430.896562 196.747312 
Q 432.321562 196.747312 433.024687 197.486062 
Q 433.727812 198.222937 433.727812 199.722937 
z
M 435.947578 194.349187 
L 437.025703 194.349187 
L 437.025703 203.467312 
L 435.947578 203.467312 
L 435.947578 194.349187 
z
M 440.511562 195.691687 
L 440.511562 198.978562 
L 442.000312 198.978562 
Q 442.827187 198.978562 443.277187 198.551062 
Q 443.729062 198.123562 443.729062 197.332312 
Q 443.729062 196.546687 443.277187 196.119187 
Q 442.827187 195.691687 442.000312 195.691687 
L 440.511562 195.691687 
z
M 439.328437 194.718562 
L 442.000312 194.718562 
Q 443.472187 194.718562 444.224062 195.384187 
Q 444.977812 196.049812 444.977812 197.332312 
Q 444.977812 198.627937 444.224062 199.289812 
Q 443.472187 199.951687 442.000312 199.951687 
L 440.511562 199.951687 
L 440.511562 203.467312 
L 439.328437 203.467312 
L 439.328437 194.718562 
z
M 450.110391 197.911687 
Q 449.928516 197.806687 449.714766 197.757937 
Q 449.501016 197.707312 449.244141 197.707312 
Q 448.329141 197.707312 447.839766 198.301687 
Q 447.350391 198.896062 447.350391 200.009812 
L 447.350391 203.467312 
L 446.266641 203.467312 
L 446.266641 196.904812 
L 447.350391 196.904812 
L 447.350391 197.924812 
Q 447.691641 197.326687 448.235391 197.037937 
Q 448.781016 196.747312 449.561016 196.747312 
Q 449.671641 196.747312 449.806641 196.762312 
Q 449.941641 196.775437 450.104766 196.805437 
L 450.110391 197.911687 
z
M 453.513984 197.660437 
Q 452.647734 197.660437 452.143359 198.337312 
Q 451.638984 199.014187 451.638984 200.191687 
Q 451.638984 201.369187 452.139609 202.046062 
Q 452.642109 202.722937 453.513984 202.722937 
Q 454.376484 202.722937 454.878984 202.044187 
Q 455.383359 201.363562 455.383359 200.191687 
Q 455.383359 199.025437 454.878984 198.342937 
Q 454.376484 197.660437 453.513984 197.660437 
z
M 453.513984 196.747312 
Q 454.920234 196.747312 455.722734 197.662312 
Q 456.527109 198.575437 456.527109 200.191687 
Q 456.527109 201.802312 455.722734 202.721062 
Q 454.920234 203.637937 453.513984 203.637937 
Q 452.102109 203.637937 451.301484 202.721062 
Q 450.502734 201.802312 450.502734 200.191687 
Q 450.502734 198.575437 451.301484 197.662312 
Q 452.102109 196.747312 453.513984 196.747312 
z
M 463.036406 197.156062 
L 463.036406 198.164812 
Q 462.578906 197.911687 462.119531 197.786062 
Q 461.660156 197.660437 461.191406 197.660437 
Q 460.141406 197.660437 459.560156 198.326062 
Q 458.980781 198.989812 458.980781 200.191687 
Q 458.980781 201.393562 459.560156 202.059187 
Q 460.141406 202.722937 461.191406 202.722937 
Q 461.660156 202.722937 462.119531 202.597312 
Q 462.578906 202.471687 463.036406 202.218562 
L 463.036406 203.216062 
Q 462.584531 203.426062 462.100781 203.531062 
Q 461.618906 203.637937 461.073281 203.637937 
Q 459.590156 203.637937 458.716406 202.706062 
Q 457.844531 201.774187 457.844531 200.191687 
Q 457.844531 198.586687 458.725781 197.667937 
Q 459.608906 196.747312 461.144531 196.747312 
Q 461.641406 196.747312 462.115781 196.850437 
Q 462.590156 196.951687 463.036406 197.156062 
z
M 470.524687 199.916062 
L 470.524687 200.442937 
L 465.567187 200.442937 
Q 465.638437 201.556687 466.238437 202.139812 
Q 466.838437 202.722937 467.910937 202.722937 
Q 468.531562 202.722937 469.114687 202.571062 
Q 469.697812 202.419187 470.273437 202.113562 
L 470.273437 203.133562 
Q 469.692187 203.379187 469.082812 203.508562 
Q 468.473437 203.637937 467.847187 203.637937 
Q 466.275937 203.637937 465.359062 202.724812 
Q 464.442187 201.809812 464.442187 200.249812 
Q 464.442187 198.639187 465.312187 197.694187 
Q 466.182187 196.747312 467.659687 196.747312 
Q 468.983437 196.747312 469.754062 197.600437 
Q 470.524687 198.451687 470.524687 199.916062 
z
M 469.446562 199.599187 
Q 469.435312 198.716062 468.951562 198.189187 
Q 468.467812 197.660437 467.670937 197.660437 
Q 466.769062 197.660437 466.227187 198.170437 
Q 465.685312 198.680437 465.602812 199.606687 
L 469.446562 199.599187 
z
M 476.476875 197.097937 
L 476.476875 198.117937 
Q 476.02125 197.883562 475.528125 197.767312 
Q 475.036875 197.649187 474.508125 197.649187 
Q 473.705625 197.649187 473.304375 197.894812 
Q 472.903125 198.140437 472.903125 198.633562 
Q 472.903125 199.008562 473.19 199.222312 
Q 473.476875 199.436062 474.345 199.629187 
L 474.714375 199.711687 
Q 475.861875 199.957312 476.345625 200.405437 
Q 476.829375 200.853562 476.829375 201.656062 
Q 476.829375 202.571062 476.105625 203.105437 
Q 475.381875 203.637937 474.11625 203.637937 
Q 473.589375 203.637937 473.0175 203.534812 
Q 472.445625 203.431687 471.81375 203.227312 
L 471.81375 202.113562 
Q 472.411875 202.424812 472.99125 202.580437 
Q 473.570625 202.734187 474.140625 202.734187 
Q 474.901875 202.734187 475.310625 202.473562 
Q 475.72125 202.212937 475.72125 201.738562 
Q 475.72125 201.299812 475.425 201.065437 
Q 475.130625 200.831062 474.1275 200.613562 
L 473.7525 200.525437 
Q 472.75125 200.315437 472.305 199.878562 
Q 471.860625 199.441687 471.860625 198.680437 
Q 471.860625 197.754187 472.516875 197.251687 
Q 473.173125 196.747312 474.380625 196.747312 
Q 474.976875 196.747312 475.50375 196.835437 
Q 476.0325 196.921687 476.476875 197.097937 
z
M 482.728828 197.097937 
L 482.728828 198.117937 
Q 482.273203 197.883562 481.780078 197.767312 
Q 481.288828 197.649187 480.760078 197.649187 
Q 479.957578 197.649187 479.556328 197.894812 
Q 479.155078 198.140437 479.155078 198.633562 
Q 479.155078 199.008562 479.441953 199.222312 
Q 479.728828 199.436062 480.596953 199.629187 
L 480.966328 199.711687 
Q 482.113828 199.957312 482.597578 200.405437 
Q 483.081328 200.853562 483.081328 201.656062 
Q 483.081328 202.571062 482.357578 203.105437 
Q 481.633828 203.637937 480.368203 203.637937 
Q 479.841328 203.637937 479.269453 203.534812 
Q 478.697578 203.431687 478.065703 203.227312 
L 478.065703 202.113562 
Q 478.663828 202.424812 479.243203 202.580437 
Q 479.822578 202.734187 480.392578 202.734187 
Q 481.153828 202.734187 481.562578 202.473562 
Q 481.973203 202.212937 481.973203 201.738562 
Q 481.973203 201.299812 481.676953 201.065437 
Q 481.382578 200.831062 480.379453 200.613562 
L 480.004453 200.525437 
Q 479.003203 200.315437 478.556953 199.878562 
Q 478.112578 199.441687 478.112578 198.680437 
Q 478.112578 197.754187 478.768828 197.251687 
Q 479.425078 196.747312 480.632578 196.747312 
Q 481.228828 196.747312 481.755703 196.835437 
Q 482.284453 196.921687 482.728828 197.097937 
z
" clip-path="url(#pe0d6607aa3)" style="fill: #ffffff; stroke: #000000; stroke-width: 2"/>
    <path d="M 382.69125 199.289812 
L 382.69125 202.494187 
L 384.590625 202.494187 
Q 385.545 202.494187 386.004375 202.098562 
Q 386.465625 201.702937 386.465625 200.889187 
Q 386.465625 200.067937 386.004375 199.679812 
Q 385.545 199.289812 384.590625 199.289812 
L 382.69125 199.289812 
z
M 382.69125 195.691687 
L 382.69125 198.327937 
L 384.444375 198.327937 
Q 385.310625 198.327937 385.734375 198.003562 
Q 386.16 197.677312 386.16 197.009812 
Q 386.16 196.347937 385.734375 196.019812 
Q 385.310625 195.691687 384.444375 195.691687 
L 382.69125 195.691687 
z
M 381.508125 194.718562 
L 384.5325 194.718562 
Q 385.88625 194.718562 386.6175 195.281062 
Q 387.350625 195.843562 387.350625 196.880437 
Q 387.350625 197.684812 386.975625 198.159187 
Q 386.600625 198.633562 385.873125 198.749812 
Q 386.746875 198.937312 387.230625 199.533562 
Q 387.714375 200.127937 387.714375 201.018562 
Q 387.714375 202.190437 386.9175 202.829812 
Q 386.120625 203.467312 384.64875 203.467312 
L 381.508125 203.467312 
L 381.508125 194.718562 
z
M 389.693672 196.904812 
L 390.771797 196.904812 
L 390.771797 203.467312 
L 389.693672 203.467312 
L 389.693672 196.904812 
z
M 389.693672 194.349187 
L 390.771797 194.349187 
L 390.771797 195.716062 
L 389.693672 195.716062 
L 389.693672 194.349187 
z
M 395.570156 197.660437 
Q 394.703906 197.660437 394.199531 198.337312 
Q 393.695156 199.014187 393.695156 200.191687 
Q 393.695156 201.369187 394.195781 202.046062 
Q 394.698281 202.722937 395.570156 202.722937 
Q 396.432656 202.722937 396.935156 202.044187 
Q 397.439531 201.363562 397.439531 200.191687 
Q 397.439531 199.025437 396.935156 198.342937 
Q 396.432656 197.660437 395.570156 197.660437 
z
M 395.570156 196.747312 
Q 396.976406 196.747312 397.778906 197.662312 
Q 398.583281 198.575437 398.583281 200.191687 
Q 398.583281 201.802312 397.778906 202.721062 
Q 396.976406 203.637937 395.570156 203.637937 
Q 394.158281 203.637937 393.357656 202.721062 
Q 392.558906 201.802312 392.558906 200.191687 
Q 392.558906 198.575437 393.357656 197.662312 
Q 394.158281 196.747312 395.570156 196.747312 
z
M 400.369453 194.349187 
L 401.447578 194.349187 
L 401.447578 203.467312 
L 400.369453 203.467312 
L 400.369453 194.349187 
z
M 406.245937 197.660437 
Q 405.379687 197.660437 404.875312 198.337312 
Q 404.370937 199.014187 404.370937 200.191687 
Q 404.370937 201.369187 404.871562 202.046062 
Q 405.374062 202.722937 406.245937 202.722937 
Q 407.108437 202.722937 407.610937 202.044187 
Q 408.115312 201.363562 408.115312 200.191687 
Q 408.115312 199.025437 407.610937 198.342937 
Q 407.108437 197.660437 406.245937 197.660437 
z
M 406.245937 196.747312 
Q 407.652187 196.747312 408.454687 197.662312 
Q 409.259062 198.575437 409.259062 200.191687 
Q 409.259062 201.802312 408.454687 202.721062 
Q 407.652187 203.637937 406.245937 203.637937 
Q 404.834062 203.637937 404.033437 202.721062 
Q 403.234687 201.802312 403.234687 200.191687 
Q 403.234687 198.575437 404.033437 197.662312 
Q 404.834062 196.747312 406.245937 196.747312 
z
M 415.363359 200.109187 
Q 415.363359 198.937312 414.879609 198.294187 
Q 414.397734 197.649187 413.523984 197.649187 
Q 412.657734 197.649187 412.173984 198.294187 
Q 411.690234 198.937312 411.690234 200.109187 
Q 411.690234 201.275437 412.173984 201.920437 
Q 412.657734 202.565437 413.523984 202.565437 
Q 414.397734 202.565437 414.879609 201.920437 
Q 415.363359 201.275437 415.363359 200.109187 
z
M 416.441484 202.653562 
Q 416.441484 204.327937 415.697109 205.145437 
Q 414.954609 205.962937 413.418984 205.962937 
Q 412.850859 205.962937 412.346484 205.878562 
Q 411.842109 205.794187 411.367734 205.617937 
L 411.367734 204.569812 
Q 411.842109 204.826687 412.305234 204.948562 
Q 412.768359 205.072312 413.248359 205.072312 
Q 414.309609 205.072312 414.836484 204.519187 
Q 415.363359 203.966062 415.363359 202.846687 
L 415.363359 202.312312 
Q 415.029609 202.893562 414.508359 203.180437 
Q 413.987109 203.467312 413.259609 203.467312 
Q 412.053984 203.467312 411.315234 202.548562 
Q 410.576484 201.627937 410.576484 200.109187 
Q 410.576484 198.586687 411.315234 197.667937 
Q 412.053984 196.747312 413.259609 196.747312 
Q 413.987109 196.747312 414.508359 197.034187 
Q 415.029609 197.321062 415.363359 197.900437 
L 415.363359 196.904812 
L 416.441484 196.904812 
L 416.441484 202.653562 
z
M 418.662422 196.904812 
L 419.740547 196.904812 
L 419.740547 203.467312 
L 418.662422 203.467312 
L 418.662422 196.904812 
z
M 418.662422 194.349187 
L 419.740547 194.349187 
L 419.740547 195.716062 
L 418.662422 195.716062 
L 418.662422 194.349187 
z
M 426.719531 197.156062 
L 426.719531 198.164812 
Q 426.262031 197.911687 425.802656 197.786062 
Q 425.343281 197.660437 424.874531 197.660437 
Q 423.824531 197.660437 423.243281 198.326062 
Q 422.663906 198.989812 422.663906 200.191687 
Q 422.663906 201.393562 423.243281 202.059187 
Q 423.824531 202.722937 424.874531 202.722937 
Q 425.343281 202.722937 425.802656 202.597312 
Q 426.262031 202.471687 426.719531 202.218562 
L 426.719531 203.216062 
Q 426.267656 203.426062 425.783906 203.531062 
Q 425.302031 203.637937 424.756406 203.637937 
Q 423.273281 203.637937 422.399531 202.706062 
Q 421.527656 201.774187 421.527656 200.191687 
Q 421.527656 198.586687 422.408906 197.667937 
Q 423.292031 196.747312 424.827656 196.747312 
Q 425.324531 196.747312 425.798906 196.850437 
Q 426.273281 196.951687 426.719531 197.156062 
z
M 431.577187 200.169187 
Q 430.270312 200.169187 429.765937 200.467312 
Q 429.261562 200.765437 429.261562 201.487312 
Q 429.261562 202.061062 429.640312 202.398562 
Q 430.019062 202.734187 430.667812 202.734187 
Q 431.565937 202.734187 432.107812 202.098562 
Q 432.649687 201.462937 432.649687 200.409187 
L 432.649687 200.169187 
L 431.577187 200.169187 
z
M 433.727812 199.722937 
L 433.727812 203.467312 
L 432.649687 203.467312 
L 432.649687 202.471687 
Q 432.280312 203.067937 431.729062 203.352937 
Q 431.177812 203.637937 430.380937 203.637937 
Q 429.374062 203.637937 428.777812 203.071687 
Q 428.183437 202.505437 428.183437 201.556687 
Q 428.183437 200.450437 428.924062 199.887937 
Q 429.666562 199.325437 431.136562 199.325437 
L 432.649687 199.325437 
L 432.649687 199.218562 
Q 432.649687 198.474187 432.160312 198.067312 
Q 431.670937 197.660437 430.785937 197.660437 
Q 430.223437 197.660437 429.689062 197.795437 
Q 429.156562 197.930437 428.665312 198.200437 
L 428.665312 197.202937 
Q 429.255937 196.974187 429.812812 196.861687 
Q 430.369687 196.747312 430.896562 196.747312 
Q 432.321562 196.747312 433.024687 197.486062 
Q 433.727812 198.222937 433.727812 199.722937 
z
M 435.947578 194.349187 
L 437.025703 194.349187 
L 437.025703 203.467312 
L 435.947578 203.467312 
L 435.947578 194.349187 
z
M 440.511562 195.691687 
L 440.511562 198.978562 
L 442.000312 198.978562 
Q 442.827187 198.978562 443.277187 198.551062 
Q 443.729062 198.123562 443.729062 197.332312 
Q 443.729062 196.546687 443.277187 196.119187 
Q 442.827187 195.691687 442.000312 195.691687 
L 440.511562 195.691687 
z
M 439.328437 194.718562 
L 442.000312 194.718562 
Q 443.472187 194.718562 444.224062 195.384187 
Q 444.977812 196.049812 444.977812 197.332312 
Q 444.977812 198.627937 444.224062 199.289812 
Q 443.472187 199.951687 442.000312 199.951687 
L 440.511562 199.951687 
L 440.511562 203.467312 
L 439.328437 203.467312 
L 439.328437 194.718562 
z
M 450.110391 197.911687 
Q 449.928516 197.806687 449.714766 197.757937 
Q 449.501016 197.707312 449.244141 197.707312 
Q 448.329141 197.707312 447.839766 198.301687 
Q 447.350391 198.896062 447.350391 200.009812 
L 447.350391 203.467312 
L 446.266641 203.467312 
L 446.266641 196.904812 
L 447.350391 196.904812 
L 447.350391 197.924812 
Q 447.691641 197.326687 448.235391 197.037937 
Q 448.781016 196.747312 449.561016 196.747312 
Q 449.671641 196.747312 449.806641 196.762312 
Q 449.941641 196.775437 450.104766 196.805437 
L 450.110391 197.911687 
z
M 453.513984 197.660437 
Q 452.647734 197.660437 452.143359 198.337312 
Q 451.638984 199.014187 451.638984 200.191687 
Q 451.638984 201.369187 452.139609 202.046062 
Q 452.642109 202.722937 453.513984 202.722937 
Q 454.376484 202.722937 454.878984 202.044187 
Q 455.383359 201.363562 455.383359 200.191687 
Q 455.383359 199.025437 454.878984 198.342937 
Q 454.376484 197.660437 453.513984 197.660437 
z
M 453.513984 196.747312 
Q 454.920234 196.747312 455.722734 197.662312 
Q 456.527109 198.575437 456.527109 200.191687 
Q 456.527109 201.802312 455.722734 202.721062 
Q 454.920234 203.637937 453.513984 203.637937 
Q 452.102109 203.637937 451.301484 202.721062 
Q 450.502734 201.802312 450.502734 200.191687 
Q 450.502734 198.575437 451.301484 197.662312 
Q 452.102109 196.747312 453.513984 196.747312 
z
M 463.036406 197.156062 
L 463.036406 198.164812 
Q 462.578906 197.911687 462.119531 197.786062 
Q 461.660156 197.660437 461.191406 197.660437 
Q 460.141406 197.660437 459.560156 198.326062 
Q 458.980781 198.989812 458.980781 200.191687 
Q 458.980781 201.393562 459.560156 202.059187 
Q 460.141406 202.722937 461.191406 202.722937 
Q 461.660156 202.722937 462.119531 202.597312 
Q 462.578906 202.471687 463.036406 202.218562 
L 463.036406 203.216062 
Q 462.584531 203.426062 462.100781 203.531062 
Q 461.618906 203.637937 461.073281 203.637937 
Q 459.590156 203.637937 458.716406 202.706062 
Q 457.844531 201.774187 457.844531 200.191687 
Q 457.844531 198.586687 458.725781 197.667937 
Q 459.608906 196.747312 461.144531 196.747312 
Q 461.641406 196.747312 462.115781 196.850437 
Q 462.590156 196.951687 463.036406 197.156062 
z
M 470.524687 199.916062 
L 470.524687 200.442937 
L 465.567187 200.442937 
Q 465.638437 201.556687 466.238437 202.139812 
Q 466.838437 202.722937 467.910937 202.722937 
Q 468.531562 202.722937 469.114687 202.571062 
Q 469.697812 202.419187 470.273437 202.113562 
L 470.273437 203.133562 
Q 469.692187 203.379187 469.082812 203.508562 
Q 468.473437 203.637937 467.847187 203.637937 
Q 466.275937 203.637937 465.359062 202.724812 
Q 464.442187 201.809812 464.442187 200.249812 
Q 464.442187 198.639187 465.312187 197.694187 
Q 466.182187 196.747312 467.659687 196.747312 
Q 468.983437 196.747312 469.754062 197.600437 
Q 470.524687 198.451687 470.524687 199.916062 
z
M 469.446562 199.599187 
Q 469.435312 198.716062 468.951562 198.189187 
Q 468.467812 197.660437 467.670937 197.660437 
Q 466.769062 197.660437 466.227187 198.170437 
Q 465.685312 198.680437 465.602812 199.606687 
L 469.446562 199.599187 
z
M 476.476875 197.097937 
L 476.476875 198.117937 
Q 476.02125 197.883562 475.528125 197.767312 
Q 475.036875 197.649187 474.508125 197.649187 
Q 473.705625 197.649187 473.304375 197.894812 
Q 472.903125 198.140437 472.903125 198.633562 
Q 472.903125 199.008562 473.19 199.222312 
Q 473.476875 199.436062 474.345 199.629187 
L 474.714375 199.711687 
Q 475.861875 199.957312 476.345625 200.405437 
Q 476.829375 200.853562 476.829375 201.656062 
Q 476.829375 202.571062 476.105625 203.105437 
Q 475.381875 203.637937 474.11625 203.637937 
Q 473.589375 203.637937 473.0175 203.534812 
Q 472.445625 203.431687 471.81375 203.227312 
L 471.81375 202.113562 
Q 472.411875 202.424812 472.99125 202.580437 
Q 473.570625 202.734187 474.140625 202.734187 
Q 474.901875 202.734187 475.310625 202.473562 
Q 475.72125 202.212937 475.72125 201.738562 
Q 475.72125 201.299812 475.425 201.065437 
Q 475.130625 200.831062 474.1275 200.613562 
L 473.7525 200.525437 
Q 472.75125 200.315437 472.305 199.878562 
Q 471.860625 199.441687 471.860625 198.680437 
Q 471.860625 197.754187 472.516875 197.251687 
Q 473.173125 196.747312 474.380625 196.747312 
Q 474.976875 196.747312 475.50375 196.835437 
Q 476.0325 196.921687 476.476875 197.097937 
z
M 482.728828 197.097937 
L 482.728828 198.117937 
Q 482.273203 197.883562 481.780078 197.767312 
Q 481.288828 197.649187 480.760078 197.649187 
Q 479.957578 197.649187 479.556328 197.894812 
Q 479.155078 198.140437 479.155078 198.633562 
Q 479.155078 199.008562 479.441953 199.222312 
Q 479.728828 199.436062 480.596953 199.629187 
L 480.966328 199.711687 
Q 482.113828 199.957312 482.597578 200.405437 
Q 483.081328 200.853562 483.081328 201.656062 
Q 483.081328 202.571062 482.357578 203.105437 
Q 481.633828 203.637937 480.368203 203.637937 
Q 479.841328 203.637937 479.269453 203.534812 
Q 478.697578 203.431687 478.065703 203.227312 
L 478.065703 202.113562 
Q 478.663828 202.424812 479.243203 202.580437 
Q 479.822578 202.734187 480.392578 202.734187 
Q 481.153828 202.734187 481.562578 202.473562 
Q 481.973203 202.212937 481.973203 201.738562 
Q 481.973203 201.299812 481.676953 201.065437 
Q 481.382578 200.831062 480.379453 200.613562 
L 480.004453 200.525437 
Q 479.003203 200.315437 478.556953 199.878562 
Q 478.112578 199.441687 478.112578 198.680437 
Q 478.112578 197.754187 478.768828 197.251687 
Q 479.425078 196.747312 480.632578 196.747312 
Q 481.228828 196.747312 481.755703 196.835437 
Q 482.284453 196.921687 482.728828 197.097937 
z
" clip-path="url(#pe0d6607aa3)" style="fill: #ffffff"/>
   </g>
   <g id="text_4">
    <g clip-path="url(#pe0d6607aa3)">
     <!-- sincalide -->
     <g transform="translate(48.569582 169.873875)scale(0.12 -0.12)">
      <use xlink:href="#DejaVuSans-73"/>
      <use xlink:href="#DejaVuSans-69" x="52.099609"/>
      <use xlink:href="#DejaVuSans-6e" x="79.882812"/>
      <use xlink:href="#DejaVuSans-63" x="143.261719"/>
      <use xlink:href="#DejaVuSans-61" x="198.242188"/>
      <use xlink:href="#DejaVuSans-6c" x="259.521484"/>
      <use xlink:href="#DejaVuSans-69" x="287.304688"/>
      <use xlink:href="#DejaVuSans-64" x="315.087891"/>
      <use xlink:href="#DejaVuSans-65" x="378.564453"/>
     </g>
    </g>
    <g clip-path="url(#pe0d6607aa3)">
     <!-- MESH:D012844 -->
     <g transform="translate(28.139582 183.31125)scale(0.12 -0.12)">
      <defs>
       <path id="DejaVuSans-4d" d="M 628 4666 
L 1569 4666 
L 2759 1491 
L 3956 4666 
L 4897 4666 
L 4897 0 
L 4281 0 
L 4281 4097 
L 3078 897 
L 2444 897 
L 1241 4097 
L 1241 0 
L 628 0 
L 628 4666 
z
" transform="scale(0.015625)"/>
       <path id="DejaVuSans-45" d="M 628 4666 
L 3578 4666 
L 3578 4134 
L 1259 4134 
L 1259 2753 
L 3481 2753 
L 3481 2222 
L 1259 2222 
L 1259 531 
L 3634 531 
L 3634 0 
L 628 0 
L 628 4666 
z
" transform="scale(0.015625)"/>
       <path id="DejaVuSans-53" d="M 3425 4513 
L 3425 3897 
Q 3066 4069 2747 4153 
Q 2428 4238 2131 4238 
Q 1616 4238 1336 4038 
Q 1056 3838 1056 3469 
Q 1056 3159 1242 3001 
Q 1428 2844 1947 2747 
L 2328 2669 
Q 3034 2534 3370 2195 
Q 3706 1856 3706 1288 
Q 3706 609 3251 259 
Q 2797 -91 1919 -91 
Q 1588 -91 1214 -16 
Q 841 59 441 206 
L 441 856 
Q 825 641 1194 531 
Q 1563 422 1919 422 
Q 2459 422 2753 634 
Q 3047 847 3047 1241 
Q 3047 1584 2836 1778 
Q 2625 1972 2144 2069 
L 1759 2144 
Q 1053 2284 737 2584 
Q 422 2884 422 3419 
Q 422 4038 858 4394 
Q 1294 4750 2059 4750 
Q 2388 4750 2728 4690 
Q 3069 4631 3425 4513 
z
" transform="scale(0.015625)"/>
       <path id="DejaVuSans-48" d="M 628 4666 
L 1259 4666 
L 1259 2753 
L 3553 2753 
L 3553 4666 
L 4184 4666 
L 4184 0 
L 3553 0 
L 3553 2222 
L 1259 2222 
L 1259 0 
L 628 0 
L 628 4666 
z
" transform="scale(0.015625)"/>
       <path id="DejaVuSans-3a" d="M 750 794 
L 1409 794 
L 1409 0 
L 750 0 
L 750 794 
z
M 750 3309 
L 1409 3309 
L 1409 2516 
L 750 2516 
L 750 3309 
z
" transform="scale(0.015625)"/>
       <path id="DejaVuSans-44" d="M 1259 4147 
L 1259 519 
L 2022 519 
Q 2988 519 3436 956 
Q 3884 1394 3884 2338 
Q 3884 3275 3436 3711 
Q 2988 4147 2022 4147 
L 1259 4147 
z
M 628 4666 
L 1925 4666 
Q 3281 4666 3915 4102 
Q 4550 3538 4550 2338 
Q 4550 1131 3912 565 
Q 3275 0 1925 0 
L 628 0 
L 628 4666 
z
" transform="scale(0.015625)"/>
       <path id="DejaVuSans-30" d="M 2034 4250 
Q 1547 4250 1301 3770 
Q 1056 3291 1056 2328 
Q 1056 1369 1301 889 
Q 1547 409 2034 409 
Q 2525 409 2770 889 
Q 3016 1369 3016 2328 
Q 3016 3291 2770 3770 
Q 2525 4250 2034 4250 
z
M 2034 4750 
Q 2819 4750 3233 4129 
Q 3647 3509 3647 2328 
Q 3647 1150 3233 529 
Q 2819 -91 2034 -91 
Q 1250 -91 836 529 
Q 422 1150 422 2328 
Q 422 3509 836 4129 
Q 1250 4750 2034 4750 
z
" transform="scale(0.015625)"/>
       <path id="DejaVuSans-31" d="M 794 531 
L 1825 531 
L 1825 4091 
L 703 3866 
L 703 4441 
L 1819 4666 
L 2450 4666 
L 2450 531 
L 3481 531 
L 3481 0 
L 794 0 
L 794 531 
z
" transform="scale(0.015625)"/>
       <path id="DejaVuSans-32" d="M 1228 531 
L 3431 531 
L 3431 0 
L 469 0 
L 469 531 
Q 828 903 1448 1529 
Q 2069 2156 2228 2338 
Q 2531 2678 2651 2914 
Q 2772 3150 2772 3378 
Q 2772 3750 2511 3984 
Q 2250 4219 1831 4219 
Q 1534 4219 1204 4116 
Q 875 4013 500 3803 
L 500 4441 
Q 881 4594 1212 4672 
Q 1544 4750 1819 4750 
Q 2544 4750 2975 4387 
Q 3406 4025 3406 3419 
Q 3406 3131 3298 2873 
Q 3191 2616 2906 2266 
Q 2828 2175 2409 1742 
Q 1991 1309 1228 531 
z
" transform="scale(0.015625)"/>
       <path id="DejaVuSans-38" d="M 2034 2216 
Q 1584 2216 1326 1975 
Q 1069 1734 1069 1313 
Q 1069 891 1326 650 
Q 1584 409 2034 409 
Q 2484 409 2743 651 
Q 3003 894 3003 1313 
Q 3003 1734 2745 1975 
Q 2488 2216 2034 2216 
z
M 1403 2484 
Q 997 2584 770 2862 
Q 544 3141 544 3541 
Q 544 4100 942 4425 
Q 1341 4750 2034 4750 
Q 2731 4750 3128 4425 
Q 3525 4100 3525 3541 
Q 3525 3141 3298 2862 
Q 3072 2584 2669 2484 
Q 3125 2378 3379 2068 
Q 3634 1759 3634 1313 
Q 3634 634 3220 271 
Q 2806 -91 2034 -91 
Q 1263 -91 848 271 
Q 434 634 434 1313 
Q 434 1759 690 2068 
Q 947 2378 1403 2484 
z
M 1172 3481 
Q 1172 3119 1398 2916 
Q 1625 2713 2034 2713 
Q 2441 2713 2670 2916 
Q 2900 3119 2900 3481 
Q 2900 3844 2670 4047 
Q 2441 4250 2034 4250 
Q 1625 4250 1398 4047 
Q 1172 3844 1172 3481 
z
" transform="scale(0.015625)"/>
       <path id="DejaVuSans-34" d="M 2419 4116 
L 825 1625 
L 2419 1625 
L 2419 4116 
z
M 2253 4666 
L 3047 4666 
L 3047 1625 
L 3713 1625 
L 3713 1100 
L 3047 1100 
L 3047 0 
L 2419 0 
L 2419 1100 
L 313 1100 
L 313 1709 
L 2253 4666 
z
" transform="scale(0.015625)"/>
      </defs>
      <use xlink:href="#DejaVuSans-4d"/>
      <use xlink:href="#DejaVuSans-45" x="86.279297"/>
      <use xlink:href="#DejaVuSans-53" x="149.462891"/>
      <use xlink:href="#DejaVuSans-48" x="212.939453"/>
      <use xlink:href="#DejaVuSans-3a" x="288.134766"/>
      <use xlink:href="#DejaVuSans-44" x="321.826172"/>
      <use xlink:href="#DejaVuSans-30" x="398.828125"/>
      <use xlink:href="#DejaVuSans-31" x="462.451172"/>
      <use xlink:href="#DejaVuSans-32" x="526.074219"/>
      <use xlink:href="#DejaVuSans-38" x="589.697266"/>
      <use xlink:href="#DejaVuSans-34" x="653.320312"/>
      <use xlink:href="#DejaVuSans-34" x="716.943359"/>
     </g>
    </g>
    <g clip-path="url(#pe0d6607aa3)">
     <!-- Drug -->
     <g transform="translate(60.277082 196.748625)scale(0.12 -0.12)">
      <use xlink:href="#DejaVuSans-44"/>
      <use xlink:href="#DejaVuSans-72" x="77.001953"/>
      <use xlink:href="#DejaVuSans-75" x="118.115234"/>
      <use xlink:href="#DejaVuSans-67" x="181.494141"/>
     </g>
    </g>
   </g>
   <g id="text_5">
    <g clip-path="url(#pe0d6607aa3)">
     <!-- Gallbladder -->
     <g transform="translate(754.435731 156.4365)scale(0.12 -0.12)">
      <defs>
       <path id="DejaVuSans-47" d="M 3809 666 
L 3809 1919 
L 2778 1919 
L 2778 2438 
L 4434 2438 
L 4434 434 
Q 4069 175 3628 42 
Q 3188 -91 2688 -91 
Q 1594 -91 976 548 
Q 359 1188 359 2328 
Q 359 3472 976 4111 
Q 1594 4750 2688 4750 
Q 3144 4750 3555 4637 
Q 3966 4525 4313 4306 
L 4313 3634 
Q 3963 3931 3569 4081 
Q 3175 4231 2741 4231 
Q 1884 4231 1454 3753 
Q 1025 3275 1025 2328 
Q 1025 1384 1454 906 
Q 1884 428 2741 428 
Q 3075 428 3337 486 
Q 3600 544 3809 666 
z
" transform="scale(0.015625)"/>
       <path id="DejaVuSans-62" d="M 3116 1747 
Q 3116 2381 2855 2742 
Q 2594 3103 2138 3103 
Q 1681 3103 1420 2742 
Q 1159 2381 1159 1747 
Q 1159 1113 1420 752 
Q 1681 391 2138 391 
Q 2594 391 2855 752 
Q 3116 1113 3116 1747 
z
M 1159 2969 
Q 1341 3281 1617 3432 
Q 1894 3584 2278 3584 
Q 2916 3584 3314 3078 
Q 3713 2572 3713 1747 
Q 3713 922 3314 415 
Q 2916 -91 2278 -91 
Q 1894 -91 1617 61 
Q 1341 213 1159 525 
L 1159 0 
L 581 0 
L 581 4863 
L 1159 4863 
L 1159 2969 
z
" transform="scale(0.015625)"/>
      </defs>
      <use xlink:href="#DejaVuSans-47"/>
      <use xlink:href="#DejaVuSans-61" x="77.490234"/>
      <use xlink:href="#DejaVuSans-6c" x="138.769531"/>
      <use xlink:href="#DejaVuSans-6c" x="166.552734"/>
      <use xlink:href="#DejaVuSans-62" x="194.335938"/>
      <use xlink:href="#DejaVuSans-6c" x="257.8125"/>
      <use xlink:href="#DejaVuSans-61" x="285.595703"/>
      <use xlink:href="#DejaVuSans-64" x="346.875"/>
      <use xlink:href="#DejaVuSans-64" x="410.351562"/>
      <use xlink:href="#DejaVuSans-65" x="473.828125"/>
      <use xlink:href="#DejaVuSans-72" x="535.351562"/>
     </g>
    </g>
    <g clip-path="url(#pe0d6607aa3)">
     <!-- Diseases -->
     <g transform="translate(762.300418 169.873875)scale(0.12 -0.12)">
      <use xlink:href="#DejaVuSans-44"/>
      <use xlink:href="#DejaVuSans-69" x="77.001953"/>
      <use xlink:href="#DejaVuSans-73" x="104.785156"/>
      <use xlink:href="#DejaVuSans-65" x="156.884766"/>
      <use xlink:href="#DejaVuSans-61" x="218.408203"/>
      <use xlink:href="#DejaVuSans-73" x="279.6875"/>
      <use xlink:href="#DejaVuSans-65" x="331.787109"/>
      <use xlink:href="#DejaVuSans-73" x="393.310547"/>
     </g>
    </g>
    <g clip-path="url(#pe0d6607aa3)">
     <!-- (Diagnostic) -->
     <g transform="translate(752.652606 183.31125)scale(0.12 -0.12)">
      <defs>
       <path id="DejaVuSans-28" d="M 1984 4856 
Q 1566 4138 1362 3434 
Q 1159 2731 1159 2009 
Q 1159 1288 1364 580 
Q 1569 -128 1984 -844 
L 1484 -844 
Q 1016 -109 783 600 
Q 550 1309 550 2009 
Q 550 2706 781 3412 
Q 1013 4119 1484 4856 
L 1984 4856 
z
" transform="scale(0.015625)"/>
       <path id="DejaVuSans-29" d="M 513 4856 
L 1013 4856 
Q 1481 4119 1714 3412 
Q 1947 2706 1947 2009 
Q 1947 1309 1714 600 
Q 1481 -109 1013 -844 
L 513 -844 
Q 928 -128 1133 580 
Q 1338 1288 1338 2009 
Q 1338 2731 1133 3434 
Q 928 4138 513 4856 
z
" transform="scale(0.015625)"/>
      </defs>
      <use xlink:href="#DejaVuSans-28"/>
      <use xlink:href="#DejaVuSans-44" x="39.013672"/>
      <use xlink:href="#DejaVuSans-69" x="116.015625"/>
      <use xlink:href="#DejaVuSans-61" x="143.798828"/>
      <use xlink:href="#DejaVuSans-67" x="205.078125"/>
      <use xlink:href="#DejaVuSans-6e" x="268.554688"/>
      <use xlink:href="#DejaVuSans-6f" x="331.933594"/>
      <use xlink:href="#DejaVuSans-73" x="393.115234"/>
      <use xlink:href="#DejaVuSans-74" x="445.214844"/>
      <use xlink:href="#DejaVuSans-69" x="484.423828"/>
      <use xlink:href="#DejaVuSans-63" x="512.207031"/>
      <use xlink:href="#DejaVuSans-29" x="567.1875"/>
     </g>
    </g>
    <g clip-path="url(#pe0d6607aa3)">
     <!-- MESH:D005705 -->
     <g transform="translate(742.189168 196.748625)scale(0.12 -0.12)">
      <defs>
       <path id="DejaVuSans-35" d="M 691 4666 
L 3169 4666 
L 3169 4134 
L 1269 4134 
L 1269 2991 
Q 1406 3038 1543 3061 
Q 1681 3084 1819 3084 
Q 2600 3084 3056 2656 
Q 3513 2228 3513 1497 
Q 3513 744 3044 326 
Q 2575 -91 1722 -91 
Q 1428 -91 1123 -41 
Q 819 9 494 109 
L 494 744 
Q 775 591 1075 516 
Q 1375 441 1709 441 
Q 2250 441 2565 725 
Q 2881 1009 2881 1497 
Q 2881 1984 2565 2268 
Q 2250 2553 1709 2553 
Q 1456 2553 1204 2497 
Q 953 2441 691 2322 
L 691 4666 
z
" transform="scale(0.015625)"/>
       <path id="DejaVuSans-37" d="M 525 4666 
L 3525 4666 
L 3525 4397 
L 1831 0 
L 1172 0 
L 2766 4134 
L 525 4134 
L 525 4666 
z
" transform="scale(0.015625)"/>
      </defs>
      <use xlink:href="#DejaVuSans-4d"/>
      <use xlink:href="#DejaVuSans-45" x="86.279297"/>
      <use xlink:href="#DejaVuSans-53" x="149.462891"/>
      <use xlink:href="#DejaVuSans-48" x="212.939453"/>
      <use xlink:href="#DejaVuSans-3a" x="288.134766"/>
      <use xlink:href="#DejaVuSans-44" x="321.826172"/>
      <use xlink:href="#DejaVuSans-30" x="398.828125"/>
      <use xlink:href="#DejaVuSans-30" x="462.451172"/>
      <use xlink:href="#DejaVuSans-35" x="526.074219"/>
      <use xlink:href="#DejaVuSans-37" x="589.697266"/>
      <use xlink:href="#DejaVuSans-30" x="653.320312"/>
      <use xlink:href="#DejaVuSans-35" x="716.943359"/>
     </g>
    </g>
    <g clip-path="url(#pe0d6607aa3)">
     <!-- Disease -->
     <g transform="translate(765.426043 210.186)scale(0.12 -0.12)">
      <use xlink:href="#DejaVuSans-44"/>
      <use xlink:href="#DejaVuSans-69" x="77.001953"/>
      <use xlink:href="#DejaVuSans-73" x="104.785156"/>
      <use xlink:href="#DejaVuSans-65" x="156.884766"/>
      <use xlink:href="#DejaVuSans-61" x="218.408203"/>
      <use xlink:href="#DejaVuSans-73" x="279.6875"/>
      <use xlink:href="#DejaVuSans-65" x="331.787109"/>
     </g>
    </g>
   </g>
  </g>
 </g>
 <defs>
  <clipPath id="pe0d6607aa3">
   <rect x="0" y="0" width="864" height="360"/>
  </clipPath>
 </defs>
</svg>
