<?xml version="1.0" encoding="utf-8" standalone="no"?>
<!DOCTYPE svg PUBLIC "-//W3C//DTD SVG 1.1//EN"
  "http://www.w3.org/Graphics/SVG/1.1/DTD/svg11.dtd">
<svg xmlns:xlink="http://www.w3.org/1999/xlink" width="1036.8pt" height="360pt" viewBox="0 0 1036.8 360" xmlns="http://www.w3.org/2000/svg" version="1.1">
 <metadata>
  <rdf:RDF xmlns:dc="http://purl.org/dc/elements/1.1/" xmlns:cc="http://creativecommons.org/ns#" xmlns:rdf="http://www.w3.org/1999/02/22-rdf-syntax-ns#">
   <cc:Work>
    <dc:type rdf:resource="http://purl.org/dc/dcmitype/StillImage"/>
    <dc:date>2023-02-08T08:52:53.781723</dc:date>
    <dc:format>image/svg+xml</dc:format>
    <dc:creator>
     <cc:Agent>
      <dc:title>Matplotlib v3.5.1, https://matplotlib.org/</dc:title>
     </cc:Agent>
    </dc:creator>
   </cc:Work>
  </rdf:RDF>
 </metadata>
 <defs>
  <style type="text/css">*{stroke-linejoin: round; stroke-linecap: butt}</style>
 </defs>
 <g id="figure_1">
  <g id="patch_1">
   <path d="M 0 360 
L 1036.8 360 
L 1036.8 0 
L 0 0 
z
" style="fill: #ffffff"/>
  </g>
  <g id="axes_1">
   <g id="patch_2">
    <path d="M 142.412623 180 
Q 232.78063 180 319.794535 180 
" clip-path="url(#p7518a06d6d)" style="fill: none; stroke: #2ca02c; stroke-width: 3; stroke-linecap: round"/>
    <path d="M 315.794535 178 
L 319.794535 180 
L 315.794535 182 
L 315.794535 178 
z
" clip-path="url(#p7518a06d6d)" style="fill: #2ca02c; stroke: #2ca02c; stroke-width: 3; stroke-linecap: round"/>
   </g>
   <g id="patch_3">
    <path d="M 428.032457 180 
Q 518.400465 180 605.41437 180 
" clip-path="url(#p7518a06d6d)" style="fill: none; stroke: #2ca02c; stroke-width: 3; stroke-linecap: round"/>
    <path d="M 601.41437 178 
L 605.41437 180 
L 601.41437 182 
L 601.41437 178 
z
" clip-path="url(#p7518a06d6d)" style="fill: #2ca02c; stroke: #2ca02c; stroke-width: 3; stroke-linecap: round"/>
   </g>
   <g id="patch_4">
    <path d="M 713.652292 180 
Q 804.020299 180 891.034204 180 
" clip-path="url(#p7518a06d6d)" style="fill: none; stroke: #2ca02c; stroke-width: 3; stroke-linecap: round"/>
    <path d="M 887.034204 178 
L 891.034204 180 
L 887.034204 182 
L 887.034204 178 
z
" clip-path="url(#p7518a06d6d)" style="fill: #2ca02c; stroke: #2ca02c; stroke-width: 3; stroke-linecap: round"/>
   </g>
   <g id="text_1">
    <g id="patch_5">
     <path d="M 206.562978 193.437969 
L 258.997353 193.437969 
Q 261.997353 193.437969 261.997353 190.437969 
L 261.997353 169.562031 
Q 261.997353 166.562031 258.997353 166.562031 
L 206.562978 166.562031 
Q 203.562978 166.562031 203.562978 169.562031 
L 203.562978 190.437969 
Q 203.562978 193.437969 206.562978 193.437969 
z
" clip-path="url(#p7518a06d6d)" style="fill: #ffffff; stroke: #ffffff; stroke-linejoin: miter"/>
    </g>
    <g clip-path="url(#p7518a06d6d)">
     <!-- negatively -->
     <g transform="translate(206.562978 177.160469)scale(0.1 -0.1)">
      <defs>
       <path id="DejaVuSans-6e" d="M 3513 2113 
L 3513 0 
L 2938 0 
L 2938 2094 
Q 2938 2591 2744 2837 
Q 2550 3084 2163 3084 
Q 1697 3084 1428 2787 
Q 1159 2491 1159 1978 
L 1159 0 
L 581 0 
L 581 3500 
L 1159 3500 
L 1159 2956 
Q 1366 3272 1645 3428 
Q 1925 3584 2291 3584 
Q 2894 3584 3203 3211 
Q 3513 2838 3513 2113 
z
" transform="scale(0.015625)"/>
       <path id="DejaVuSans-65" d="M 3597 1894 
L 3597 1613 
L 953 1613 
Q 991 1019 1311 708 
Q 1631 397 2203 397 
Q 2534 397 2845 478 
Q 3156 559 3463 722 
L 3463 178 
Q 3153 47 2828 -22 
Q 2503 -91 2169 -91 
Q 1331 -91 842 396 
Q 353 884 353 1716 
Q 353 2575 817 3079 
Q 1281 3584 2069 3584 
Q 2775 3584 3186 3129 
Q 3597 2675 3597 1894 
z
M 3022 2063 
Q 3016 2534 2758 2815 
Q 2500 3097 2075 3097 
Q 1594 3097 1305 2825 
Q 1016 2553 972 2059 
L 3022 2063 
z
" transform="scale(0.015625)"/>
       <path id="DejaVuSans-67" d="M 2906 1791 
Q 2906 2416 2648 2759 
Q 2391 3103 1925 3103 
Q 1463 3103 1205 2759 
Q 947 2416 947 1791 
Q 947 1169 1205 825 
Q 1463 481 1925 481 
Q 2391 481 2648 825 
Q 2906 1169 2906 1791 
z
M 3481 434 
Q 3481 -459 3084 -895 
Q 2688 -1331 1869 -1331 
Q 1566 -1331 1297 -1286 
Q 1028 -1241 775 -1147 
L 775 -588 
Q 1028 -725 1275 -790 
Q 1522 -856 1778 -856 
Q 2344 -856 2625 -561 
Q 2906 -266 2906 331 
L 2906 616 
Q 2728 306 2450 153 
Q 2172 0 1784 0 
Q 1141 0 747 490 
Q 353 981 353 1791 
Q 353 2603 747 3093 
Q 1141 3584 1784 3584 
Q 2172 3584 2450 3431 
Q 2728 3278 2906 2969 
L 2906 3500 
L 3481 3500 
L 3481 434 
z
" transform="scale(0.015625)"/>
       <path id="DejaVuSans-61" d="M 2194 1759 
Q 1497 1759 1228 1600 
Q 959 1441 959 1056 
Q 959 750 1161 570 
Q 1363 391 1709 391 
Q 2188 391 2477 730 
Q 2766 1069 2766 1631 
L 2766 1759 
L 2194 1759 
z
M 3341 1997 
L 3341 0 
L 2766 0 
L 2766 531 
Q 2569 213 2275 61 
Q 1981 -91 1556 -91 
Q 1019 -91 701 211 
Q 384 513 384 1019 
Q 384 1609 779 1909 
Q 1175 2209 1959 2209 
L 2766 2209 
L 2766 2266 
Q 2766 2663 2505 2880 
Q 2244 3097 1772 3097 
Q 1472 3097 1187 3025 
Q 903 2953 641 2809 
L 641 3341 
Q 956 3463 1253 3523 
Q 1550 3584 1831 3584 
Q 2591 3584 2966 3190 
Q 3341 2797 3341 1997 
z
" transform="scale(0.015625)"/>
       <path id="DejaVuSans-74" d="M 1172 4494 
L 1172 3500 
L 2356 3500 
L 2356 3053 
L 1172 3053 
L 1172 1153 
Q 1172 725 1289 603 
Q 1406 481 1766 481 
L 2356 481 
L 2356 0 
L 1766 0 
Q 1100 0 847 248 
Q 594 497 594 1153 
L 594 3053 
L 172 3053 
L 172 3500 
L 594 3500 
L 594 4494 
L 1172 4494 
z
" transform="scale(0.015625)"/>
       <path id="DejaVuSans-69" d="M 603 3500 
L 1178 3500 
L 1178 0 
L 603 0 
L 603 3500 
z
M 603 4863 
L 1178 4863 
L 1178 4134 
L 603 4134 
L 603 4863 
z
" transform="scale(0.015625)"/>
       <path id="DejaVuSans-76" d="M 191 3500 
L 800 3500 
L 1894 563 
L 2988 3500 
L 3597 3500 
L 2284 0 
L 1503 0 
L 191 3500 
z
" transform="scale(0.015625)"/>
       <path id="DejaVuSans-6c" d="M 603 4863 
L 1178 4863 
L 1178 0 
L 603 0 
L 603 4863 
z
" transform="scale(0.015625)"/>
       <path id="DejaVuSans-79" d="M 2059 -325 
Q 1816 -950 1584 -1140 
Q 1353 -1331 966 -1331 
L 506 -1331 
L 506 -850 
L 844 -850 
Q 1081 -850 1212 -737 
Q 1344 -625 1503 -206 
L 1606 56 
L 191 3500 
L 800 3500 
L 1894 763 
L 2988 3500 
L 3597 3500 
L 2059 -325 
z
" transform="scale(0.015625)"/>
      </defs>
      <use xlink:href="#DejaVuSans-6e"/>
      <use xlink:href="#DejaVuSans-65" x="63.378906"/>
      <use xlink:href="#DejaVuSans-67" x="124.902344"/>
      <use xlink:href="#DejaVuSans-61" x="188.378906"/>
      <use xlink:href="#DejaVuSans-74" x="249.658203"/>
      <use xlink:href="#DejaVuSans-69" x="288.867188"/>
      <use xlink:href="#DejaVuSans-76" x="316.650391"/>
      <use xlink:href="#DejaVuSans-65" x="375.830078"/>
      <use xlink:href="#DejaVuSans-6c" x="437.353516"/>
      <use xlink:href="#DejaVuSans-79" x="465.136719"/>
     </g>
    </g>
    <g clip-path="url(#p7518a06d6d)">
     <!-- regulates -->
     <g transform="translate(209.323134 188.358281)scale(0.1 -0.1)">
      <defs>
       <path id="DejaVuSans-72" d="M 2631 2963 
Q 2534 3019 2420 3045 
Q 2306 3072 2169 3072 
Q 1681 3072 1420 2755 
Q 1159 2438 1159 1844 
L 1159 0 
L 581 0 
L 581 3500 
L 1159 3500 
L 1159 2956 
Q 1341 3275 1631 3429 
Q 1922 3584 2338 3584 
Q 2397 3584 2469 3576 
Q 2541 3569 2628 3553 
L 2631 2963 
z
" transform="scale(0.015625)"/>
       <path id="DejaVuSans-75" d="M 544 1381 
L 544 3500 
L 1119 3500 
L 1119 1403 
Q 1119 906 1312 657 
Q 1506 409 1894 409 
Q 2359 409 2629 706 
Q 2900 1003 2900 1516 
L 2900 3500 
L 3475 3500 
L 3475 0 
L 2900 0 
L 2900 538 
Q 2691 219 2414 64 
Q 2138 -91 1772 -91 
Q 1169 -91 856 284 
Q 544 659 544 1381 
z
M 1991 3584 
L 1991 3584 
z
" transform="scale(0.015625)"/>
       <path id="DejaVuSans-73" d="M 2834 3397 
L 2834 2853 
Q 2591 2978 2328 3040 
Q 2066 3103 1784 3103 
Q 1356 3103 1142 2972 
Q 928 2841 928 2578 
Q 928 2378 1081 2264 
Q 1234 2150 1697 2047 
L 1894 2003 
Q 2506 1872 2764 1633 
Q 3022 1394 3022 966 
Q 3022 478 2636 193 
Q 2250 -91 1575 -91 
Q 1294 -91 989 -36 
Q 684 19 347 128 
L 347 722 
Q 666 556 975 473 
Q 1284 391 1588 391 
Q 1994 391 2212 530 
Q 2431 669 2431 922 
Q 2431 1156 2273 1281 
Q 2116 1406 1581 1522 
L 1381 1569 
Q 847 1681 609 1914 
Q 372 2147 372 2553 
Q 372 3047 722 3315 
Q 1072 3584 1716 3584 
Q 2034 3584 2315 3537 
Q 2597 3491 2834 3397 
z
" transform="scale(0.015625)"/>
      </defs>
      <use xlink:href="#DejaVuSans-72"/>
      <use xlink:href="#DejaVuSans-65" x="38.863281"/>
      <use xlink:href="#DejaVuSans-67" x="100.386719"/>
      <use xlink:href="#DejaVuSans-75" x="163.863281"/>
      <use xlink:href="#DejaVuSans-6c" x="227.242188"/>
      <use xlink:href="#DejaVuSans-61" x="255.025391"/>
      <use xlink:href="#DejaVuSans-74" x="316.304688"/>
      <use xlink:href="#DejaVuSans-65" x="355.513672"/>
      <use xlink:href="#DejaVuSans-73" x="417.037109"/>
     </g>
    </g>
   </g>
   <g id="text_2">
    <g id="patch_6">
     <path d="M 498.197656 187.839062 
L 538.602344 187.839062 
Q 541.602344 187.839062 541.602344 184.839062 
L 541.602344 175.160937 
Q 541.602344 172.160937 538.602344 172.160937 
L 498.197656 172.160937 
Q 495.197656 172.160937 495.197656 175.160937 
L 495.197656 184.839062 
Q 495.197656 187.839062 498.197656 187.839062 
z
" clip-path="url(#p7518a06d6d)" style="fill: #ffffff; stroke: #ffffff; stroke-linejoin: miter"/>
    </g>
    <g clip-path="url(#p7518a06d6d)">
     <!-- in taxon -->
     <g transform="translate(498.197656 182.759375)scale(0.1 -0.1)">
      <defs>
       <path id="DejaVuSans-20" transform="scale(0.015625)"/>
       <path id="DejaVuSans-78" d="M 3513 3500 
L 2247 1797 
L 3578 0 
L 2900 0 
L 1881 1375 
L 863 0 
L 184 0 
L 1544 1831 
L 300 3500 
L 978 3500 
L 1906 2253 
L 2834 3500 
L 3513 3500 
z
" transform="scale(0.015625)"/>
       <path id="DejaVuSans-6f" d="M 1959 3097 
Q 1497 3097 1228 2736 
Q 959 2375 959 1747 
Q 959 1119 1226 758 
Q 1494 397 1959 397 
Q 2419 397 2687 759 
Q 2956 1122 2956 1747 
Q 2956 2369 2687 2733 
Q 2419 3097 1959 3097 
z
M 1959 3584 
Q 2709 3584 3137 3096 
Q 3566 2609 3566 1747 
Q 3566 888 3137 398 
Q 2709 -91 1959 -91 
Q 1206 -91 779 398 
Q 353 888 353 1747 
Q 353 2609 779 3096 
Q 1206 3584 1959 3584 
z
" transform="scale(0.015625)"/>
      </defs>
      <use xlink:href="#DejaVuSans-69"/>
      <use xlink:href="#DejaVuSans-6e" x="27.783203"/>
      <use xlink:href="#DejaVuSans-20" x="91.162109"/>
      <use xlink:href="#DejaVuSans-74" x="122.949219"/>
      <use xlink:href="#DejaVuSans-61" x="162.158203"/>
      <use xlink:href="#DejaVuSans-78" x="223.4375"/>
      <use xlink:href="#DejaVuSans-6f" x="279.492188"/>
      <use xlink:href="#DejaVuSans-6e" x="340.673828"/>
     </g>
    </g>
   </g>
   <g id="text_3">
    <g id="patch_7">
     <path d="M 786.751866 187.839062 
L 821.287803 187.839062 
Q 824.287803 187.839062 824.287803 184.839062 
L 824.287803 175.160937 
Q 824.287803 172.160937 821.287803 172.160937 
L 786.751866 172.160937 
Q 783.751866 172.160937 783.751866 175.160937 
L 783.751866 184.839062 
Q 783.751866 187.839062 786.751866 187.839062 
z
" clip-path="url(#p7518a06d6d)" style="fill: #ffffff; stroke: #ffffff; stroke-linejoin: miter"/>
    </g>
    <g clip-path="url(#p7518a06d6d)">
     <!-- causes -->
     <g transform="translate(786.751866 182.759375)scale(0.1 -0.1)">
      <defs>
       <path id="DejaVuSans-63" d="M 3122 3366 
L 3122 2828 
Q 2878 2963 2633 3030 
Q 2388 3097 2138 3097 
Q 1578 3097 1268 2742 
Q 959 2388 959 1747 
Q 959 1106 1268 751 
Q 1578 397 2138 397 
Q 2388 397 2633 464 
Q 2878 531 3122 666 
L 3122 134 
Q 2881 22 2623 -34 
Q 2366 -91 2075 -91 
Q 1284 -91 818 406 
Q 353 903 353 1747 
Q 353 2603 823 3093 
Q 1294 3584 2113 3584 
Q 2378 3584 2631 3529 
Q 2884 3475 3122 3366 
z
" transform="scale(0.015625)"/>
      </defs>
      <use xlink:href="#DejaVuSans-63"/>
      <use xlink:href="#DejaVuSans-61" x="54.980469"/>
      <use xlink:href="#DejaVuSans-75" x="116.259766"/>
      <use xlink:href="#DejaVuSans-73" x="179.638672"/>
      <use xlink:href="#DejaVuSans-65" x="231.738281"/>
      <use xlink:href="#DejaVuSans-73" x="293.261719"/>
     </g>
    </g>
   </g>
   <g id="PathCollection_1">
    <defs>
     <path id="C0_0_ded50e1ee1" d="M 0 52.440442 
C 13.907368 52.440442 27.246998 46.914987 37.080992 37.080992 
C 46.914987 27.246998 52.440442 13.907368 52.440442 -0 
C 52.440442 -13.907368 46.914987 -27.246998 37.080992 -37.080992 
C 27.246998 -46.914987 13.907368 -52.440442 0 -52.440442 
C -13.907368 -52.440442 -27.246998 -46.914987 -37.080992 -37.080992 
C -46.914987 -27.246998 -52.440442 -13.907368 -52.440442 0 
C -52.440442 13.907368 -46.914987 27.246998 -37.080992 37.080992 
C -27.246998 46.914987 -13.907368 52.440442 0 52.440442 
z
"/>
    </defs>
    <g clip-path="url(#p7518a06d6d)">
     <use xlink:href="#C0_0_ded50e1ee1" x="89.970248" y="180" style="fill: #01c472; stroke: #01c472"/>
    </g>
    <g clip-path="url(#p7518a06d6d)">
     <use xlink:href="#C0_0_ded50e1ee1" x="375.590083" y="180" style="fill: #e71761; stroke: #e71761"/>
    </g>
    <g clip-path="url(#p7518a06d6d)">
     <use xlink:href="#C0_0_ded50e1ee1" x="661.209917" y="180" style="fill: #e9bf98; stroke: #e9bf98"/>
    </g>
    <g clip-path="url(#p7518a06d6d)">
     <use xlink:href="#C0_0_ded50e1ee1" x="946.829752" y="180" style="fill: #70c6ca; stroke: #70c6ca"/>
    </g>
   </g>
   <g id="text_4">
    <path d="M 354.75977 154.406437 
L 356.524145 154.406437 
L 358.755395 160.359562 
L 360.99977 154.406437 
L 362.764145 154.406437 
L 362.764145 163.155187 
L 361.609145 163.155187 
L 361.609145 155.473312 
L 359.35352 161.473312 
L 358.16477 161.473312 
L 355.909145 155.473312 
L 355.909145 163.155187 
L 354.75977 163.155187 
L 354.75977 154.406437 
z
M 368.049536 159.857062 
Q 366.742661 159.857062 366.238286 160.155187 
Q 365.733911 160.453312 365.733911 161.175187 
Q 365.733911 161.748937 366.112661 162.086437 
Q 366.491411 162.422062 367.140161 162.422062 
Q 368.038286 162.422062 368.580161 161.786437 
Q 369.122036 161.150812 369.122036 160.097062 
L 369.122036 159.857062 
L 368.049536 159.857062 
z
M 370.200161 159.410812 
L 370.200161 163.155187 
L 369.122036 163.155187 
L 369.122036 162.159562 
Q 368.752661 162.755812 368.201411 163.040812 
Q 367.650161 163.325812 366.853286 163.325812 
Q 365.846411 163.325812 365.250161 162.759562 
Q 364.655786 162.193312 364.655786 161.244562 
Q 364.655786 160.138312 365.396411 159.575812 
Q 366.138911 159.013312 367.608911 159.013312 
L 369.122036 159.013312 
L 369.122036 158.906437 
Q 369.122036 158.162062 368.632661 157.755187 
Q 368.143286 157.348312 367.258286 157.348312 
Q 366.695786 157.348312 366.161411 157.483312 
Q 365.628911 157.618312 365.137661 157.888312 
L 365.137661 156.890812 
Q 365.728286 156.662062 366.285161 156.549562 
Q 366.842036 156.435187 367.368911 156.435187 
Q 368.793911 156.435187 369.497036 157.173937 
Q 370.200161 157.910812 370.200161 159.410812 
z
M 372.419926 154.037062 
L 373.498051 154.037062 
L 373.498051 163.155187 
L 372.419926 163.155187 
L 372.419926 154.037062 
z
M 378.737036 159.857062 
Q 377.430161 159.857062 376.925786 160.155187 
Q 376.421411 160.453312 376.421411 161.175187 
Q 376.421411 161.748937 376.800161 162.086437 
Q 377.178911 162.422062 377.827661 162.422062 
Q 378.725786 162.422062 379.267661 161.786437 
Q 379.809536 161.150812 379.809536 160.097062 
L 379.809536 159.857062 
L 378.737036 159.857062 
z
M 380.887661 159.410812 
L 380.887661 163.155187 
L 379.809536 163.155187 
L 379.809536 162.159562 
Q 379.440161 162.755812 378.888911 163.040812 
Q 378.337661 163.325812 377.540786 163.325812 
Q 376.533911 163.325812 375.937661 162.759562 
Q 375.343286 162.193312 375.343286 161.244562 
Q 375.343286 160.138312 376.083911 159.575812 
Q 376.826411 159.013312 378.296411 159.013312 
L 379.809536 159.013312 
L 379.809536 158.906437 
Q 379.809536 158.162062 379.320161 157.755187 
Q 378.830786 157.348312 377.945786 157.348312 
Q 377.383286 157.348312 376.848911 157.483312 
Q 376.316411 157.618312 375.825161 157.888312 
L 375.825161 156.890812 
Q 376.415786 156.662062 376.972661 156.549562 
Q 377.529536 156.435187 378.056411 156.435187 
Q 379.481411 156.435187 380.184536 157.173937 
Q 380.887661 157.910812 380.887661 159.410812 
z
M 386.909926 157.599562 
Q 386.728051 157.494562 386.514301 157.445812 
Q 386.300551 157.395187 386.043676 157.395187 
Q 385.128676 157.395187 384.639301 157.989562 
Q 384.149926 158.583937 384.149926 159.697687 
L 384.149926 163.155187 
L 383.066176 163.155187 
L 383.066176 156.592687 
L 384.149926 156.592687 
L 384.149926 157.612687 
Q 384.491176 157.014562 385.034926 156.725812 
Q 385.580551 156.435187 386.360551 156.435187 
Q 386.471176 156.435187 386.606176 156.450187 
Q 386.741176 156.463312 386.904301 156.493312 
L 386.909926 157.599562 
z
M 388.04102 156.592687 
L 389.119145 156.592687 
L 389.119145 163.155187 
L 388.04102 163.155187 
L 388.04102 156.592687 
z
M 388.04102 154.037062 
L 389.119145 154.037062 
L 389.119145 155.403937 
L 388.04102 155.403937 
L 388.04102 154.037062 
z
M 394.35813 159.857062 
Q 393.051255 159.857062 392.54688 160.155187 
Q 392.042505 160.453312 392.042505 161.175187 
Q 392.042505 161.748937 392.421255 162.086437 
Q 392.800005 162.422062 393.448755 162.422062 
Q 394.34688 162.422062 394.888755 161.786437 
Q 395.43063 161.150812 395.43063 160.097062 
L 395.43063 159.857062 
L 394.35813 159.857062 
z
M 396.508755 159.410812 
L 396.508755 163.155187 
L 395.43063 163.155187 
L 395.43063 162.159562 
Q 395.061255 162.755812 394.510005 163.040812 
Q 393.958755 163.325812 393.16188 163.325812 
Q 392.155005 163.325812 391.558755 162.759562 
Q 390.96438 162.193312 390.96438 161.244562 
Q 390.96438 160.138312 391.705005 159.575812 
Q 392.447505 159.013312 393.917505 159.013312 
L 395.43063 159.013312 
L 395.43063 158.906437 
Q 395.43063 158.162062 394.941255 157.755187 
Q 394.45188 157.348312 393.56688 157.348312 
Q 393.00438 157.348312 392.470005 157.483312 
Q 391.937505 157.618312 391.446255 157.888312 
L 391.446255 156.890812 
Q 392.03688 156.662062 392.593755 156.549562 
Q 393.15063 156.435187 393.677505 156.435187 
Q 395.102505 156.435187 395.80563 157.173937 
Q 396.508755 157.910812 396.508755 159.410812 
z
" clip-path="url(#p7518a06d6d)" style="fill: #ffffff; stroke: #000000; stroke-width: 2"/>
    <path d="M 354.75977 154.406437 
L 356.524145 154.406437 
L 358.755395 160.359562 
L 360.99977 154.406437 
L 362.764145 154.406437 
L 362.764145 163.155187 
L 361.609145 163.155187 
L 361.609145 155.473312 
L 359.35352 161.473312 
L 358.16477 161.473312 
L 355.909145 155.473312 
L 355.909145 163.155187 
L 354.75977 163.155187 
L 354.75977 154.406437 
z
M 368.049536 159.857062 
Q 366.742661 159.857062 366.238286 160.155187 
Q 365.733911 160.453312 365.733911 161.175187 
Q 365.733911 161.748937 366.112661 162.086437 
Q 366.491411 162.422062 367.140161 162.422062 
Q 368.038286 162.422062 368.580161 161.786437 
Q 369.122036 161.150812 369.122036 160.097062 
L 369.122036 159.857062 
L 368.049536 159.857062 
z
M 370.200161 159.410812 
L 370.200161 163.155187 
L 369.122036 163.155187 
L 369.122036 162.159562 
Q 368.752661 162.755812 368.201411 163.040812 
Q 367.650161 163.325812 366.853286 163.325812 
Q 365.846411 163.325812 365.250161 162.759562 
Q 364.655786 162.193312 364.655786 161.244562 
Q 364.655786 160.138312 365.396411 159.575812 
Q 366.138911 159.013312 367.608911 159.013312 
L 369.122036 159.013312 
L 369.122036 158.906437 
Q 369.122036 158.162062 368.632661 157.755187 
Q 368.143286 157.348312 367.258286 157.348312 
Q 366.695786 157.348312 366.161411 157.483312 
Q 365.628911 157.618312 365.137661 157.888312 
L 365.137661 156.890812 
Q 365.728286 156.662062 366.285161 156.549562 
Q 366.842036 156.435187 367.368911 156.435187 
Q 368.793911 156.435187 369.497036 157.173937 
Q 370.200161 157.910812 370.200161 159.410812 
z
M 372.419926 154.037062 
L 373.498051 154.037062 
L 373.498051 163.155187 
L 372.419926 163.155187 
L 372.419926 154.037062 
z
M 378.737036 159.857062 
Q 377.430161 159.857062 376.925786 160.155187 
Q 376.421411 160.453312 376.421411 161.175187 
Q 376.421411 161.748937 376.800161 162.086437 
Q 377.178911 162.422062 377.827661 162.422062 
Q 378.725786 162.422062 379.267661 161.786437 
Q 379.809536 161.150812 379.809536 160.097062 
L 379.809536 159.857062 
L 378.737036 159.857062 
z
M 380.887661 159.410812 
L 380.887661 163.155187 
L 379.809536 163.155187 
L 379.809536 162.159562 
Q 379.440161 162.755812 378.888911 163.040812 
Q 378.337661 163.325812 377.540786 163.325812 
Q 376.533911 163.325812 375.937661 162.759562 
Q 375.343286 162.193312 375.343286 161.244562 
Q 375.343286 160.138312 376.083911 159.575812 
Q 376.826411 159.013312 378.296411 159.013312 
L 379.809536 159.013312 
L 379.809536 158.906437 
Q 379.809536 158.162062 379.320161 157.755187 
Q 378.830786 157.348312 377.945786 157.348312 
Q 377.383286 157.348312 376.848911 157.483312 
Q 376.316411 157.618312 375.825161 157.888312 
L 375.825161 156.890812 
Q 376.415786 156.662062 376.972661 156.549562 
Q 377.529536 156.435187 378.056411 156.435187 
Q 379.481411 156.435187 380.184536 157.173937 
Q 380.887661 157.910812 380.887661 159.410812 
z
M 386.909926 157.599562 
Q 386.728051 157.494562 386.514301 157.445812 
Q 386.300551 157.395187 386.043676 157.395187 
Q 385.128676 157.395187 384.639301 157.989562 
Q 384.149926 158.583937 384.149926 159.697687 
L 384.149926 163.155187 
L 383.066176 163.155187 
L 383.066176 156.592687 
L 384.149926 156.592687 
L 384.149926 157.612687 
Q 384.491176 157.014562 385.034926 156.725812 
Q 385.580551 156.435187 386.360551 156.435187 
Q 386.471176 156.435187 386.606176 156.450187 
Q 386.741176 156.463312 386.904301 156.493312 
L 386.909926 157.599562 
z
M 388.04102 156.592687 
L 389.119145 156.592687 
L 389.119145 163.155187 
L 388.04102 163.155187 
L 388.04102 156.592687 
z
M 388.04102 154.037062 
L 389.119145 154.037062 
L 389.119145 155.403937 
L 388.04102 155.403937 
L 388.04102 154.037062 
z
M 394.35813 159.857062 
Q 393.051255 159.857062 392.54688 160.155187 
Q 392.042505 160.453312 392.042505 161.175187 
Q 392.042505 161.748937 392.421255 162.086437 
Q 392.800005 162.422062 393.448755 162.422062 
Q 394.34688 162.422062 394.888755 161.786437 
Q 395.43063 161.150812 395.43063 160.097062 
L 395.43063 159.857062 
L 394.35813 159.857062 
z
M 396.508755 159.410812 
L 396.508755 163.155187 
L 395.43063 163.155187 
L 395.43063 162.159562 
Q 395.061255 162.755812 394.510005 163.040812 
Q 393.958755 163.325812 393.16188 163.325812 
Q 392.155005 163.325812 391.558755 162.759562 
Q 390.96438 162.193312 390.96438 161.244562 
Q 390.96438 160.138312 391.705005 159.575812 
Q 392.447505 159.013312 393.917505 159.013312 
L 395.43063 159.013312 
L 395.43063 158.906437 
Q 395.43063 158.162062 394.941255 157.755187 
Q 394.45188 157.348312 393.56688 157.348312 
Q 393.00438 157.348312 392.470005 157.483312 
Q 391.937505 157.618312 391.446255 157.888312 
L 391.446255 156.890812 
Q 392.03688 156.662062 392.593755 156.549562 
Q 393.15063 156.435187 393.677505 156.435187 
Q 395.102505 156.435187 395.80563 157.173937 
Q 396.508755 157.910812 396.508755 159.410812 
z
" clip-path="url(#p7518a06d6d)" style="fill: #ffffff"/>
    <path d="M 337.16477 175.608187 
L 337.16477 179.088187 
L 336.08102 179.088187 
L 336.08102 170.030062 
L 337.16477 170.030062 
L 337.16477 171.025687 
Q 337.50602 170.440687 338.02352 170.157562 
Q 338.542895 169.872562 339.262895 169.872562 
Q 340.459145 169.872562 341.205395 170.821312 
Q 341.95352 171.770062 341.95352 173.316937 
Q 341.95352 174.863812 341.205395 175.814437 
Q 340.459145 176.763187 339.262895 176.763187 
Q 338.542895 176.763187 338.02352 176.478187 
Q 337.50602 176.193187 337.16477 175.608187 
z
M 340.834145 173.316937 
Q 340.834145 172.128187 340.34477 171.451312 
Q 339.855395 170.774437 339.000395 170.774437 
Q 338.14352 170.774437 337.654145 171.451312 
Q 337.16477 172.128187 337.16477 173.316937 
Q 337.16477 174.505687 337.654145 175.182562 
Q 338.14352 175.859437 339.000395 175.859437 
Q 339.855395 175.859437 340.34477 175.182562 
Q 340.834145 174.505687 340.834145 173.316937 
z
M 347.541958 171.036937 
Q 347.360083 170.931937 347.146333 170.883187 
Q 346.932583 170.832562 346.675708 170.832562 
Q 345.760708 170.832562 345.271333 171.426937 
Q 344.781958 172.021312 344.781958 173.135062 
L 344.781958 176.592562 
L 343.698208 176.592562 
L 343.698208 170.030062 
L 344.781958 170.030062 
L 344.781958 171.050062 
Q 345.123208 170.451937 345.666958 170.163187 
Q 346.212583 169.872562 346.992583 169.872562 
Q 347.103208 169.872562 347.238208 169.887562 
Q 347.373208 169.900687 347.536333 169.930687 
L 347.541958 171.036937 
z
M 350.945551 170.785687 
Q 350.079301 170.785687 349.574926 171.462562 
Q 349.070551 172.139437 349.070551 173.316937 
Q 349.070551 174.494437 349.571176 175.171312 
Q 350.073676 175.848187 350.945551 175.848187 
Q 351.808051 175.848187 352.310551 175.169437 
Q 352.814926 174.488812 352.814926 173.316937 
Q 352.814926 172.150687 352.310551 171.468187 
Q 351.808051 170.785687 350.945551 170.785687 
z
M 350.945551 169.872562 
Q 352.351801 169.872562 353.154301 170.787562 
Q 353.958676 171.700687 353.958676 173.316937 
Q 353.958676 174.927562 353.154301 175.846312 
Q 352.351801 176.763187 350.945551 176.763187 
Q 349.533676 176.763187 348.733051 175.846312 
Q 347.934301 174.927562 347.934301 173.316937 
Q 347.934301 171.700687 348.733051 170.787562 
Q 349.533676 169.872562 350.945551 169.872562 
z
M 356.811723 168.166312 
L 356.811723 170.030062 
L 359.031723 170.030062 
L 359.031723 170.868187 
L 356.811723 170.868187 
L 356.811723 174.430687 
Q 356.811723 175.233187 357.031098 175.461937 
Q 357.250473 175.690687 357.925473 175.690687 
L 359.031723 175.690687 
L 359.031723 176.592562 
L 357.925473 176.592562 
Q 356.676723 176.592562 356.202348 176.127562 
Q 355.727973 175.660687 355.727973 174.430687 
L 355.727973 170.868187 
L 354.936723 170.868187 
L 354.936723 170.030062 
L 355.727973 170.030062 
L 355.727973 168.166312 
L 356.811723 168.166312 
z
M 366.063676 173.041312 
L 366.063676 173.568187 
L 361.106176 173.568187 
Q 361.177426 174.681937 361.777426 175.265062 
Q 362.377426 175.848187 363.449926 175.848187 
Q 364.070551 175.848187 364.653676 175.696312 
Q 365.236801 175.544437 365.812426 175.238812 
L 365.812426 176.258812 
Q 365.231176 176.504437 364.621801 176.633812 
Q 364.012426 176.763187 363.386176 176.763187 
Q 361.814926 176.763187 360.898051 175.850062 
Q 359.981176 174.935062 359.981176 173.375062 
Q 359.981176 171.764437 360.851176 170.819437 
Q 361.721176 169.872562 363.198676 169.872562 
Q 364.522426 169.872562 365.293051 170.725687 
Q 366.063676 171.576937 366.063676 173.041312 
z
M 364.985551 172.724437 
Q 364.974301 171.841312 364.490551 171.314437 
Q 364.006801 170.785687 363.209926 170.785687 
Q 362.308051 170.785687 361.766176 171.295687 
Q 361.224301 171.805687 361.141801 172.731937 
L 364.985551 172.724437 
z
M 367.832739 170.030062 
L 368.910864 170.030062 
L 368.910864 176.592562 
L 367.832739 176.592562 
L 367.832739 170.030062 
z
M 367.832739 167.474437 
L 368.910864 167.474437 
L 368.910864 168.841312 
L 367.832739 168.841312 
L 367.832739 167.474437 
z
M 376.622973 172.630687 
L 376.622973 176.592562 
L 375.544848 176.592562 
L 375.544848 172.666312 
Q 375.544848 171.734437 375.181098 171.273187 
Q 374.817348 170.810062 374.091723 170.810062 
Q 373.217973 170.810062 372.713598 171.366937 
Q 372.209223 171.921937 372.209223 172.883812 
L 372.209223 176.592562 
L 371.125473 176.592562 
L 371.125473 170.030062 
L 372.209223 170.030062 
L 372.209223 171.050062 
Q 372.597348 170.457562 373.120473 170.165062 
Q 373.645473 169.872562 374.331723 169.872562 
Q 375.462348 169.872562 376.041723 170.571937 
Q 376.622973 171.271312 376.622973 172.630687 
z
M 382.63352 167.843812 
L 388.16477 167.843812 
L 388.16477 168.841312 
L 383.816645 168.841312 
L 383.816645 171.430687 
L 387.982895 171.430687 
L 387.982895 172.426312 
L 383.816645 172.426312 
L 383.816645 175.596937 
L 388.26977 175.596937 
L 388.26977 176.592562 
L 382.63352 176.592562 
L 382.63352 167.843812 
z
M 389.793676 167.843812 
L 391.064926 167.843812 
L 393.239926 171.096937 
L 395.424301 167.843812 
L 396.695551 167.843812 
L 393.883051 172.045687 
L 396.883051 176.592562 
L 395.611801 176.592562 
L 393.151801 172.872562 
L 390.673051 176.592562 
L 389.396176 176.592562 
L 392.518051 171.921937 
L 389.793676 167.843812 
z
M 399.61938 168.816937 
L 399.61938 172.103812 
L 401.10813 172.103812 
Q 401.935005 172.103812 402.385005 171.676312 
Q 402.83688 171.248812 402.83688 170.457562 
Q 402.83688 169.671937 402.385005 169.244437 
Q 401.935005 168.816937 401.10813 168.816937 
L 399.61938 168.816937 
z
M 398.436255 167.843812 
L 401.10813 167.843812 
Q 402.580005 167.843812 403.33188 168.509437 
Q 404.08563 169.175062 404.08563 170.457562 
Q 404.08563 171.753187 403.33188 172.415062 
Q 402.580005 173.076937 401.10813 173.076937 
L 399.61938 173.076937 
L 399.61938 176.592562 
L 398.436255 176.592562 
L 398.436255 167.843812 
z
M 404.811958 172.825687 
L 407.969458 172.825687 
L 407.969458 173.785687 
L 404.811958 173.785687 
L 404.811958 172.825687 
z
M 410.043911 175.596937 
L 411.977036 175.596937 
L 411.977036 168.921937 
L 409.873286 169.343812 
L 409.873286 168.265687 
L 411.965786 167.843812 
L 413.148911 167.843812 
L 413.148911 175.596937 
L 415.082036 175.596937 
L 415.082036 176.592562 
L 410.043911 176.592562 
L 410.043911 175.596937 
z
" clip-path="url(#p7518a06d6d)" style="fill: #ffffff; stroke: #000000; stroke-width: 2"/>
    <path d="M 337.16477 175.608187 
L 337.16477 179.088187 
L 336.08102 179.088187 
L 336.08102 170.030062 
L 337.16477 170.030062 
L 337.16477 171.025687 
Q 337.50602 170.440687 338.02352 170.157562 
Q 338.542895 169.872562 339.262895 169.872562 
Q 340.459145 169.872562 341.205395 170.821312 
Q 341.95352 171.770062 341.95352 173.316937 
Q 341.95352 174.863812 341.205395 175.814437 
Q 340.459145 176.763187 339.262895 176.763187 
Q 338.542895 176.763187 338.02352 176.478187 
Q 337.50602 176.193187 337.16477 175.608187 
z
M 340.834145 173.316937 
Q 340.834145 172.128187 340.34477 171.451312 
Q 339.855395 170.774437 339.000395 170.774437 
Q 338.14352 170.774437 337.654145 171.451312 
Q 337.16477 172.128187 337.16477 173.316937 
Q 337.16477 174.505687 337.654145 175.182562 
Q 338.14352 175.859437 339.000395 175.859437 
Q 339.855395 175.859437 340.34477 175.182562 
Q 340.834145 174.505687 340.834145 173.316937 
z
M 347.541958 171.036937 
Q 347.360083 170.931937 347.146333 170.883187 
Q 346.932583 170.832562 346.675708 170.832562 
Q 345.760708 170.832562 345.271333 171.426937 
Q 344.781958 172.021312 344.781958 173.135062 
L 344.781958 176.592562 
L 343.698208 176.592562 
L 343.698208 170.030062 
L 344.781958 170.030062 
L 344.781958 171.050062 
Q 345.123208 170.451937 345.666958 170.163187 
Q 346.212583 169.872562 346.992583 169.872562 
Q 347.103208 169.872562 347.238208 169.887562 
Q 347.373208 169.900687 347.536333 169.930687 
L 347.541958 171.036937 
z
M 350.945551 170.785687 
Q 350.079301 170.785687 349.574926 171.462562 
Q 349.070551 172.139437 349.070551 173.316937 
Q 349.070551 174.494437 349.571176 175.171312 
Q 350.073676 175.848187 350.945551 175.848187 
Q 351.808051 175.848187 352.310551 175.169437 
Q 352.814926 174.488812 352.814926 173.316937 
Q 352.814926 172.150687 352.310551 171.468187 
Q 351.808051 170.785687 350.945551 170.785687 
z
M 350.945551 169.872562 
Q 352.351801 169.872562 353.154301 170.787562 
Q 353.958676 171.700687 353.958676 173.316937 
Q 353.958676 174.927562 353.154301 175.846312 
Q 352.351801 176.763187 350.945551 176.763187 
Q 349.533676 176.763187 348.733051 175.846312 
Q 347.934301 174.927562 347.934301 173.316937 
Q 347.934301 171.700687 348.733051 170.787562 
Q 349.533676 169.872562 350.945551 169.872562 
z
M 356.811723 168.166312 
L 356.811723 170.030062 
L 359.031723 170.030062 
L 359.031723 170.868187 
L 356.811723 170.868187 
L 356.811723 174.430687 
Q 356.811723 175.233187 357.031098 175.461937 
Q 357.250473 175.690687 357.925473 175.690687 
L 359.031723 175.690687 
L 359.031723 176.592562 
L 357.925473 176.592562 
Q 356.676723 176.592562 356.202348 176.127562 
Q 355.727973 175.660687 355.727973 174.430687 
L 355.727973 170.868187 
L 354.936723 170.868187 
L 354.936723 170.030062 
L 355.727973 170.030062 
L 355.727973 168.166312 
L 356.811723 168.166312 
z
M 366.063676 173.041312 
L 366.063676 173.568187 
L 361.106176 173.568187 
Q 361.177426 174.681937 361.777426 175.265062 
Q 362.377426 175.848187 363.449926 175.848187 
Q 364.070551 175.848187 364.653676 175.696312 
Q 365.236801 175.544437 365.812426 175.238812 
L 365.812426 176.258812 
Q 365.231176 176.504437 364.621801 176.633812 
Q 364.012426 176.763187 363.386176 176.763187 
Q 361.814926 176.763187 360.898051 175.850062 
Q 359.981176 174.935062 359.981176 173.375062 
Q 359.981176 171.764437 360.851176 170.819437 
Q 361.721176 169.872562 363.198676 169.872562 
Q 364.522426 169.872562 365.293051 170.725687 
Q 366.063676 171.576937 366.063676 173.041312 
z
M 364.985551 172.724437 
Q 364.974301 171.841312 364.490551 171.314437 
Q 364.006801 170.785687 363.209926 170.785687 
Q 362.308051 170.785687 361.766176 171.295687 
Q 361.224301 171.805687 361.141801 172.731937 
L 364.985551 172.724437 
z
M 367.832739 170.030062 
L 368.910864 170.030062 
L 368.910864 176.592562 
L 367.832739 176.592562 
L 367.832739 170.030062 
z
M 367.832739 167.474437 
L 368.910864 167.474437 
L 368.910864 168.841312 
L 367.832739 168.841312 
L 367.832739 167.474437 
z
M 376.622973 172.630687 
L 376.622973 176.592562 
L 375.544848 176.592562 
L 375.544848 172.666312 
Q 375.544848 171.734437 375.181098 171.273187 
Q 374.817348 170.810062 374.091723 170.810062 
Q 373.217973 170.810062 372.713598 171.366937 
Q 372.209223 171.921937 372.209223 172.883812 
L 372.209223 176.592562 
L 371.125473 176.592562 
L 371.125473 170.030062 
L 372.209223 170.030062 
L 372.209223 171.050062 
Q 372.597348 170.457562 373.120473 170.165062 
Q 373.645473 169.872562 374.331723 169.872562 
Q 375.462348 169.872562 376.041723 170.571937 
Q 376.622973 171.271312 376.622973 172.630687 
z
M 382.63352 167.843812 
L 388.16477 167.843812 
L 388.16477 168.841312 
L 383.816645 168.841312 
L 383.816645 171.430687 
L 387.982895 171.430687 
L 387.982895 172.426312 
L 383.816645 172.426312 
L 383.816645 175.596937 
L 388.26977 175.596937 
L 388.26977 176.592562 
L 382.63352 176.592562 
L 382.63352 167.843812 
z
M 389.793676 167.843812 
L 391.064926 167.843812 
L 393.239926 171.096937 
L 395.424301 167.843812 
L 396.695551 167.843812 
L 393.883051 172.045687 
L 396.883051 176.592562 
L 395.611801 176.592562 
L 393.151801 172.872562 
L 390.673051 176.592562 
L 389.396176 176.592562 
L 392.518051 171.921937 
L 389.793676 167.843812 
z
M 399.61938 168.816937 
L 399.61938 172.103812 
L 401.10813 172.103812 
Q 401.935005 172.103812 402.385005 171.676312 
Q 402.83688 171.248812 402.83688 170.457562 
Q 402.83688 169.671937 402.385005 169.244437 
Q 401.935005 168.816937 401.10813 168.816937 
L 399.61938 168.816937 
z
M 398.436255 167.843812 
L 401.10813 167.843812 
Q 402.580005 167.843812 403.33188 168.509437 
Q 404.08563 169.175062 404.08563 170.457562 
Q 404.08563 171.753187 403.33188 172.415062 
Q 402.580005 173.076937 401.10813 173.076937 
L 399.61938 173.076937 
L 399.61938 176.592562 
L 398.436255 176.592562 
L 398.436255 167.843812 
z
M 404.811958 172.825687 
L 407.969458 172.825687 
L 407.969458 173.785687 
L 404.811958 173.785687 
L 404.811958 172.825687 
z
M 410.043911 175.596937 
L 411.977036 175.596937 
L 411.977036 168.921937 
L 409.873286 169.343812 
L 409.873286 168.265687 
L 411.965786 167.843812 
L 413.148911 167.843812 
L 413.148911 175.596937 
L 415.082036 175.596937 
L 415.082036 176.592562 
L 410.043911 176.592562 
L 410.043911 175.596937 
z
" clip-path="url(#p7518a06d6d)" style="fill: #ffffff"/>
    <path d="M 330.177583 181.281187 
L 331.368208 181.281187 
L 331.368208 186.596812 
Q 331.368208 188.003062 331.876333 188.621812 
Q 332.386333 189.238687 333.530083 189.238687 
Q 334.666333 189.238687 335.176333 188.621812 
Q 335.686333 188.003062 335.686333 186.596812 
L 335.686333 181.281187 
L 336.875083 181.281187 
L 336.875083 186.743062 
Q 336.875083 188.453062 336.027583 189.326812 
Q 335.181958 190.200562 333.530083 190.200562 
Q 331.870708 190.200562 331.023208 189.326812 
Q 330.177583 188.453062 330.177583 186.743062 
L 330.177583 181.281187 
z
M 344.505161 186.068062 
L 344.505161 190.029937 
L 343.427036 190.029937 
L 343.427036 186.103687 
Q 343.427036 185.171812 343.063286 184.710562 
Q 342.699536 184.247437 341.973911 184.247437 
Q 341.100161 184.247437 340.595786 184.804312 
Q 340.091411 185.359312 340.091411 186.321187 
L 340.091411 190.029937 
L 339.007661 190.029937 
L 339.007661 183.467437 
L 340.091411 183.467437 
L 340.091411 184.487437 
Q 340.479536 183.894937 341.002661 183.602437 
Q 341.527661 183.309937 342.213911 183.309937 
Q 343.344536 183.309937 343.923911 184.009312 
Q 344.505161 184.708687 344.505161 186.068062 
z
M 346.65438 183.467437 
L 347.732505 183.467437 
L 347.732505 190.029937 
L 346.65438 190.029937 
L 346.65438 183.467437 
z
M 346.65438 180.911812 
L 347.732505 180.911812 
L 347.732505 182.278687 
L 346.65438 182.278687 
L 346.65438 180.911812 
z
M 351.218364 182.254312 
L 351.218364 185.541187 
L 352.707114 185.541187 
Q 353.533989 185.541187 353.983989 185.113687 
Q 354.435864 184.686187 354.435864 183.894937 
Q 354.435864 183.109312 353.983989 182.681812 
Q 353.533989 182.254312 352.707114 182.254312 
L 351.218364 182.254312 
z
M 350.035239 181.281187 
L 352.707114 181.281187 
Q 354.178989 181.281187 354.930864 181.946812 
Q 355.684614 182.612437 355.684614 183.894937 
Q 355.684614 185.190562 354.930864 185.852437 
Q 354.178989 186.514312 352.707114 186.514312 
L 351.218364 186.514312 
L 351.218364 190.029937 
L 350.035239 190.029937 
L 350.035239 181.281187 
z
M 360.817192 184.474312 
Q 360.635317 184.369312 360.421567 184.320562 
Q 360.207817 184.269937 359.950942 184.269937 
Q 359.035942 184.269937 358.546567 184.864312 
Q 358.057192 185.458687 358.057192 186.572437 
L 358.057192 190.029937 
L 356.973442 190.029937 
L 356.973442 183.467437 
L 358.057192 183.467437 
L 358.057192 184.487437 
Q 358.398442 183.889312 358.942192 183.600562 
Q 359.487817 183.309937 360.267817 183.309937 
Q 360.378442 183.309937 360.513442 183.324937 
Q 360.648442 183.338062 360.811567 183.368062 
L 360.817192 184.474312 
z
M 364.220786 184.223062 
Q 363.354536 184.223062 362.850161 184.899937 
Q 362.345786 185.576812 362.345786 186.754312 
Q 362.345786 187.931812 362.846411 188.608687 
Q 363.348911 189.285562 364.220786 189.285562 
Q 365.083286 189.285562 365.585786 188.606812 
Q 366.090161 187.926187 366.090161 186.754312 
Q 366.090161 185.588062 365.585786 184.905562 
Q 365.083286 184.223062 364.220786 184.223062 
z
M 364.220786 183.309937 
Q 365.627036 183.309937 366.429536 184.224937 
Q 367.233911 185.138062 367.233911 186.754312 
Q 367.233911 188.364937 366.429536 189.283687 
Q 365.627036 190.200562 364.220786 190.200562 
Q 362.808911 190.200562 362.008286 189.283687 
Q 361.209536 188.364937 361.209536 186.754312 
Q 361.209536 185.138062 362.008286 184.224937 
Q 362.808911 183.309937 364.220786 183.309937 
z
M 370.086958 181.603687 
L 370.086958 183.467437 
L 372.306958 183.467437 
L 372.306958 184.305562 
L 370.086958 184.305562 
L 370.086958 187.868062 
Q 370.086958 188.670562 370.306333 188.899312 
Q 370.525708 189.128062 371.200708 189.128062 
L 372.306958 189.128062 
L 372.306958 190.029937 
L 371.200708 190.029937 
Q 369.951958 190.029937 369.477583 189.564937 
Q 369.003208 189.098062 369.003208 187.868062 
L 369.003208 184.305562 
L 368.211958 184.305562 
L 368.211958 183.467437 
L 369.003208 183.467437 
L 369.003208 181.603687 
L 370.086958 181.603687 
z
M 374.000786 188.541187 
L 375.236411 188.541187 
L 375.236411 190.029937 
L 374.000786 190.029937 
L 374.000786 188.541187 
z
M 374.000786 183.825562 
L 375.236411 183.825562 
L 375.236411 185.312437 
L 374.000786 185.312437 
L 374.000786 183.825562 
z
M 378.99813 182.254312 
L 378.99813 185.541187 
L 380.48688 185.541187 
Q 381.313755 185.541187 381.763755 185.113687 
Q 382.21563 184.686187 382.21563 183.894937 
Q 382.21563 183.109312 381.763755 182.681812 
Q 381.313755 182.254312 380.48688 182.254312 
L 378.99813 182.254312 
z
M 377.815005 181.281187 
L 380.48688 181.281187 
Q 381.958755 181.281187 382.71063 181.946812 
Q 383.46438 182.612437 383.46438 183.894937 
Q 383.46438 185.190562 382.71063 185.852437 
Q 381.958755 186.514312 380.48688 186.514312 
L 378.99813 186.514312 
L 378.99813 190.029937 
L 377.815005 190.029937 
L 377.815005 181.281187 
z
M 387.687583 182.061187 
Q 386.774458 182.061187 386.313208 182.961187 
Q 385.853833 183.859312 385.853833 185.664937 
Q 385.853833 187.463062 386.313208 188.363062 
Q 386.774458 189.263062 387.687583 189.263062 
Q 388.608208 189.263062 389.067583 188.363062 
Q 389.528833 187.463062 389.528833 185.664937 
Q 389.528833 183.859312 389.067583 182.961187 
Q 388.608208 182.061187 387.687583 182.061187 
z
M 387.687583 181.123687 
Q 389.159458 181.123687 389.935708 182.288062 
Q 390.711958 183.450562 390.711958 185.664937 
Q 390.711958 187.873687 389.935708 189.038062 
Q 389.159458 190.200562 387.687583 190.200562 
Q 386.217583 190.200562 385.441333 189.038062 
Q 384.665083 187.873687 384.665083 185.664937 
Q 384.665083 183.450562 385.441333 182.288062 
Q 386.217583 181.123687 387.687583 181.123687 
z
M 396.044223 182.312437 
L 393.055473 186.983062 
L 396.044223 186.983062 
L 396.044223 182.312437 
z
M 395.732973 181.281187 
L 397.221723 181.281187 
L 397.221723 186.983062 
L 398.470473 186.983062 
L 398.470473 187.967437 
L 397.221723 187.967437 
L 397.221723 190.029937 
L 396.044223 190.029937 
L 396.044223 187.967437 
L 392.095473 187.967437 
L 392.095473 186.825562 
L 395.732973 181.281187 
z
M 400.461489 189.848062 
L 400.461489 188.769937 
Q 400.907739 188.981812 401.363364 189.092437 
Q 401.820864 189.203062 402.261489 189.203062 
Q 403.433364 189.203062 404.050239 188.415562 
Q 404.668989 187.628062 404.757114 186.021187 
Q 404.417739 186.525562 403.894614 186.795562 
Q 403.373364 187.065562 402.741489 187.065562 
Q 401.428989 187.065562 400.663989 186.272437 
Q 399.898989 185.477437 399.898989 184.099312 
Q 399.898989 182.753062 400.695864 181.939312 
Q 401.492739 181.123687 402.816489 181.123687 
Q 404.335239 181.123687 405.133989 182.288062 
Q 405.934614 183.450562 405.934614 185.664937 
Q 405.934614 187.733062 404.952114 188.966812 
Q 403.971489 190.200562 402.313989 190.200562 
Q 401.867739 190.200562 401.410239 190.112437 
Q 400.954614 190.024312 400.461489 189.848062 
z
M 402.816489 186.139312 
Q 403.613364 186.139312 404.078364 185.595562 
Q 404.545239 185.049937 404.545239 184.099312 
Q 404.545239 183.156187 404.078364 182.608687 
Q 403.613364 182.061187 402.816489 182.061187 
Q 402.019614 182.061187 401.554614 182.608687 
Q 401.089614 183.156187 401.089614 184.099312 
Q 401.089614 185.049937 401.554614 185.595562 
Q 402.019614 186.139312 402.816489 186.139312 
z
M 409.08063 189.034312 
L 413.211255 189.034312 
L 413.211255 190.029937 
L 407.657505 190.029937 
L 407.657505 189.034312 
Q 408.33063 188.336812 409.49313 187.163062 
Q 410.657505 185.987437 410.95563 185.646187 
Q 411.523755 185.008687 411.748755 184.566187 
Q 411.97563 184.123687 411.97563 183.696187 
Q 411.97563 182.998687 411.486255 182.559937 
Q 410.99688 182.119312 410.211255 182.119312 
Q 409.65438 182.119312 409.03563 182.312437 
Q 408.418755 182.505562 407.71563 182.899312 
L 407.71563 181.703062 
Q 408.430005 181.416187 409.05063 181.269937 
Q 409.67313 181.123687 410.188755 181.123687 
Q 411.54813 181.123687 412.356255 181.804312 
Q 413.16438 182.483062 413.16438 183.619312 
Q 413.16438 184.159312 412.96188 184.643062 
Q 412.761255 185.124937 412.22688 185.781187 
Q 412.08063 185.951812 411.295005 186.763687 
Q 410.511255 187.575562 409.08063 189.034312 
z
M 418.37477 185.184937 
Q 417.577895 185.184937 417.11102 185.730562 
Q 416.64602 186.274312 416.64602 187.223062 
Q 416.64602 188.166187 417.11102 188.715562 
Q 417.577895 189.263062 418.37477 189.263062 
Q 419.171645 189.263062 419.636645 188.715562 
Q 420.101645 188.166187 420.101645 187.223062 
Q 420.101645 186.274312 419.636645 185.730562 
Q 419.171645 185.184937 418.37477 185.184937 
z
M 420.724145 181.474312 
L 420.724145 182.552437 
Q 420.277895 182.342437 419.824145 182.231812 
Q 419.370395 182.119312 418.924145 182.119312 
Q 417.75227 182.119312 417.13352 182.910562 
Q 416.516645 183.701812 416.42852 185.301187 
Q 416.77352 184.791187 417.29477 184.519312 
Q 417.817895 184.247437 418.444145 184.247437 
Q 419.76227 184.247437 420.52727 185.048062 
Q 421.29227 185.846812 421.29227 187.223062 
Q 421.29227 188.571187 420.495395 189.386812 
Q 419.69852 190.200562 418.37477 190.200562 
Q 416.85602 190.200562 416.05352 189.038062 
Q 415.25102 187.873687 415.25102 185.664937 
Q 415.25102 183.591187 416.235395 182.357437 
Q 417.21977 181.123687 418.87727 181.123687 
Q 419.32352 181.123687 419.77727 181.211812 
Q 420.23102 181.299937 420.724145 181.474312 
z
" clip-path="url(#p7518a06d6d)" style="fill: #ffffff; stroke: #000000; stroke-width: 2"/>
    <path d="M 330.177583 181.281187 
L 331.368208 181.281187 
L 331.368208 186.596812 
Q 331.368208 188.003062 331.876333 188.621812 
Q 332.386333 189.238687 333.530083 189.238687 
Q 334.666333 189.238687 335.176333 188.621812 
Q 335.686333 188.003062 335.686333 186.596812 
L 335.686333 181.281187 
L 336.875083 181.281187 
L 336.875083 186.743062 
Q 336.875083 188.453062 336.027583 189.326812 
Q 335.181958 190.200562 333.530083 190.200562 
Q 331.870708 190.200562 331.023208 189.326812 
Q 330.177583 188.453062 330.177583 186.743062 
L 330.177583 181.281187 
z
M 344.505161 186.068062 
L 344.505161 190.029937 
L 343.427036 190.029937 
L 343.427036 186.103687 
Q 343.427036 185.171812 343.063286 184.710562 
Q 342.699536 184.247437 341.973911 184.247437 
Q 341.100161 184.247437 340.595786 184.804312 
Q 340.091411 185.359312 340.091411 186.321187 
L 340.091411 190.029937 
L 339.007661 190.029937 
L 339.007661 183.467437 
L 340.091411 183.467437 
L 340.091411 184.487437 
Q 340.479536 183.894937 341.002661 183.602437 
Q 341.527661 183.309937 342.213911 183.309937 
Q 343.344536 183.309937 343.923911 184.009312 
Q 344.505161 184.708687 344.505161 186.068062 
z
M 346.65438 183.467437 
L 347.732505 183.467437 
L 347.732505 190.029937 
L 346.65438 190.029937 
L 346.65438 183.467437 
z
M 346.65438 180.911812 
L 347.732505 180.911812 
L 347.732505 182.278687 
L 346.65438 182.278687 
L 346.65438 180.911812 
z
M 351.218364 182.254312 
L 351.218364 185.541187 
L 352.707114 185.541187 
Q 353.533989 185.541187 353.983989 185.113687 
Q 354.435864 184.686187 354.435864 183.894937 
Q 354.435864 183.109312 353.983989 182.681812 
Q 353.533989 182.254312 352.707114 182.254312 
L 351.218364 182.254312 
z
M 350.035239 181.281187 
L 352.707114 181.281187 
Q 354.178989 181.281187 354.930864 181.946812 
Q 355.684614 182.612437 355.684614 183.894937 
Q 355.684614 185.190562 354.930864 185.852437 
Q 354.178989 186.514312 352.707114 186.514312 
L 351.218364 186.514312 
L 351.218364 190.029937 
L 350.035239 190.029937 
L 350.035239 181.281187 
z
M 360.817192 184.474312 
Q 360.635317 184.369312 360.421567 184.320562 
Q 360.207817 184.269937 359.950942 184.269937 
Q 359.035942 184.269937 358.546567 184.864312 
Q 358.057192 185.458687 358.057192 186.572437 
L 358.057192 190.029937 
L 356.973442 190.029937 
L 356.973442 183.467437 
L 358.057192 183.467437 
L 358.057192 184.487437 
Q 358.398442 183.889312 358.942192 183.600562 
Q 359.487817 183.309937 360.267817 183.309937 
Q 360.378442 183.309937 360.513442 183.324937 
Q 360.648442 183.338062 360.811567 183.368062 
L 360.817192 184.474312 
z
M 364.220786 184.223062 
Q 363.354536 184.223062 362.850161 184.899937 
Q 362.345786 185.576812 362.345786 186.754312 
Q 362.345786 187.931812 362.846411 188.608687 
Q 363.348911 189.285562 364.220786 189.285562 
Q 365.083286 189.285562 365.585786 188.606812 
Q 366.090161 187.926187 366.090161 186.754312 
Q 366.090161 185.588062 365.585786 184.905562 
Q 365.083286 184.223062 364.220786 184.223062 
z
M 364.220786 183.309937 
Q 365.627036 183.309937 366.429536 184.224937 
Q 367.233911 185.138062 367.233911 186.754312 
Q 367.233911 188.364937 366.429536 189.283687 
Q 365.627036 190.200562 364.220786 190.200562 
Q 362.808911 190.200562 362.008286 189.283687 
Q 361.209536 188.364937 361.209536 186.754312 
Q 361.209536 185.138062 362.008286 184.224937 
Q 362.808911 183.309937 364.220786 183.309937 
z
M 370.086958 181.603687 
L 370.086958 183.467437 
L 372.306958 183.467437 
L 372.306958 184.305562 
L 370.086958 184.305562 
L 370.086958 187.868062 
Q 370.086958 188.670562 370.306333 188.899312 
Q 370.525708 189.128062 371.200708 189.128062 
L 372.306958 189.128062 
L 372.306958 190.029937 
L 371.200708 190.029937 
Q 369.951958 190.029937 369.477583 189.564937 
Q 369.003208 189.098062 369.003208 187.868062 
L 369.003208 184.305562 
L 368.211958 184.305562 
L 368.211958 183.467437 
L 369.003208 183.467437 
L 369.003208 181.603687 
L 370.086958 181.603687 
z
M 374.000786 188.541187 
L 375.236411 188.541187 
L 375.236411 190.029937 
L 374.000786 190.029937 
L 374.000786 188.541187 
z
M 374.000786 183.825562 
L 375.236411 183.825562 
L 375.236411 185.312437 
L 374.000786 185.312437 
L 374.000786 183.825562 
z
M 378.99813 182.254312 
L 378.99813 185.541187 
L 380.48688 185.541187 
Q 381.313755 185.541187 381.763755 185.113687 
Q 382.21563 184.686187 382.21563 183.894937 
Q 382.21563 183.109312 381.763755 182.681812 
Q 381.313755 182.254312 380.48688 182.254312 
L 378.99813 182.254312 
z
M 377.815005 181.281187 
L 380.48688 181.281187 
Q 381.958755 181.281187 382.71063 181.946812 
Q 383.46438 182.612437 383.46438 183.894937 
Q 383.46438 185.190562 382.71063 185.852437 
Q 381.958755 186.514312 380.48688 186.514312 
L 378.99813 186.514312 
L 378.99813 190.029937 
L 377.815005 190.029937 
L 377.815005 181.281187 
z
M 387.687583 182.061187 
Q 386.774458 182.061187 386.313208 182.961187 
Q 385.853833 183.859312 385.853833 185.664937 
Q 385.853833 187.463062 386.313208 188.363062 
Q 386.774458 189.263062 387.687583 189.263062 
Q 388.608208 189.263062 389.067583 188.363062 
Q 389.528833 187.463062 389.528833 185.664937 
Q 389.528833 183.859312 389.067583 182.961187 
Q 388.608208 182.061187 387.687583 182.061187 
z
M 387.687583 181.123687 
Q 389.159458 181.123687 389.935708 182.288062 
Q 390.711958 183.450562 390.711958 185.664937 
Q 390.711958 187.873687 389.935708 189.038062 
Q 389.159458 190.200562 387.687583 190.200562 
Q 386.217583 190.200562 385.441333 189.038062 
Q 384.665083 187.873687 384.665083 185.664937 
Q 384.665083 183.450562 385.441333 182.288062 
Q 386.217583 181.123687 387.687583 181.123687 
z
M 396.044223 182.312437 
L 393.055473 186.983062 
L 396.044223 186.983062 
L 396.044223 182.312437 
z
M 395.732973 181.281187 
L 397.221723 181.281187 
L 397.221723 186.983062 
L 398.470473 186.983062 
L 398.470473 187.967437 
L 397.221723 187.967437 
L 397.221723 190.029937 
L 396.044223 190.029937 
L 396.044223 187.967437 
L 392.095473 187.967437 
L 392.095473 186.825562 
L 395.732973 181.281187 
z
M 400.461489 189.848062 
L 400.461489 188.769937 
Q 400.907739 188.981812 401.363364 189.092437 
Q 401.820864 189.203062 402.261489 189.203062 
Q 403.433364 189.203062 404.050239 188.415562 
Q 404.668989 187.628062 404.757114 186.021187 
Q 404.417739 186.525562 403.894614 186.795562 
Q 403.373364 187.065562 402.741489 187.065562 
Q 401.428989 187.065562 400.663989 186.272437 
Q 399.898989 185.477437 399.898989 184.099312 
Q 399.898989 182.753062 400.695864 181.939312 
Q 401.492739 181.123687 402.816489 181.123687 
Q 404.335239 181.123687 405.133989 182.288062 
Q 405.934614 183.450562 405.934614 185.664937 
Q 405.934614 187.733062 404.952114 188.966812 
Q 403.971489 190.200562 402.313989 190.200562 
Q 401.867739 190.200562 401.410239 190.112437 
Q 400.954614 190.024312 400.461489 189.848062 
z
M 402.816489 186.139312 
Q 403.613364 186.139312 404.078364 185.595562 
Q 404.545239 185.049937 404.545239 184.099312 
Q 404.545239 183.156187 404.078364 182.608687 
Q 403.613364 182.061187 402.816489 182.061187 
Q 402.019614 182.061187 401.554614 182.608687 
Q 401.089614 183.156187 401.089614 184.099312 
Q 401.089614 185.049937 401.554614 185.595562 
Q 402.019614 186.139312 402.816489 186.139312 
z
M 409.08063 189.034312 
L 413.211255 189.034312 
L 413.211255 190.029937 
L 407.657505 190.029937 
L 407.657505 189.034312 
Q 408.33063 188.336812 409.49313 187.163062 
Q 410.657505 185.987437 410.95563 185.646187 
Q 411.523755 185.008687 411.748755 184.566187 
Q 411.97563 184.123687 411.97563 183.696187 
Q 411.97563 182.998687 411.486255 182.559937 
Q 410.99688 182.119312 410.211255 182.119312 
Q 409.65438 182.119312 409.03563 182.312437 
Q 408.418755 182.505562 407.71563 182.899312 
L 407.71563 181.703062 
Q 408.430005 181.416187 409.05063 181.269937 
Q 409.67313 181.123687 410.188755 181.123687 
Q 411.54813 181.123687 412.356255 181.804312 
Q 413.16438 182.483062 413.16438 183.619312 
Q 413.16438 184.159312 412.96188 184.643062 
Q 412.761255 185.124937 412.22688 185.781187 
Q 412.08063 185.951812 411.295005 186.763687 
Q 410.511255 187.575562 409.08063 189.034312 
z
M 418.37477 185.184937 
Q 417.577895 185.184937 417.11102 185.730562 
Q 416.64602 186.274312 416.64602 187.223062 
Q 416.64602 188.166187 417.11102 188.715562 
Q 417.577895 189.263062 418.37477 189.263062 
Q 419.171645 189.263062 419.636645 188.715562 
Q 420.101645 188.166187 420.101645 187.223062 
Q 420.101645 186.274312 419.636645 185.730562 
Q 419.171645 185.184937 418.37477 185.184937 
z
M 420.724145 181.474312 
L 420.724145 182.552437 
Q 420.277895 182.342437 419.824145 182.231812 
Q 419.370395 182.119312 418.924145 182.119312 
Q 417.75227 182.119312 417.13352 182.910562 
Q 416.516645 183.701812 416.42852 185.301187 
Q 416.77352 184.791187 417.29477 184.519312 
Q 417.817895 184.247437 418.444145 184.247437 
Q 419.76227 184.247437 420.52727 185.048062 
Q 421.29227 185.846812 421.29227 187.223062 
Q 421.29227 188.571187 420.495395 189.386812 
Q 419.69852 190.200562 418.37477 190.200562 
Q 416.85602 190.200562 416.05352 189.038062 
Q 415.25102 187.873687 415.25102 185.664937 
Q 415.25102 183.591187 416.235395 182.357437 
Q 417.21977 181.123687 418.87727 181.123687 
Q 419.32352 181.123687 419.77727 181.211812 
Q 420.23102 181.299937 420.724145 181.474312 
z
" clip-path="url(#p7518a06d6d)" style="fill: #ffffff"/>
    <path d="M 356.921645 195.691687 
L 356.921645 198.978562 
L 358.410395 198.978562 
Q 359.23727 198.978562 359.68727 198.551062 
Q 360.139145 198.123562 360.139145 197.332312 
Q 360.139145 196.546687 359.68727 196.119187 
Q 359.23727 195.691687 358.410395 195.691687 
L 356.921645 195.691687 
z
M 355.73852 194.718562 
L 358.410395 194.718562 
Q 359.88227 194.718562 360.634145 195.384187 
Q 361.387895 196.049812 361.387895 197.332312 
Q 361.387895 198.627937 360.634145 199.289812 
Q 359.88227 199.951687 358.410395 199.951687 
L 356.921645 199.951687 
L 356.921645 203.467312 
L 355.73852 203.467312 
L 355.73852 194.718562 
z
M 366.520473 197.911687 
Q 366.338598 197.806687 366.124848 197.757937 
Q 365.911098 197.707312 365.654223 197.707312 
Q 364.739223 197.707312 364.249848 198.301687 
Q 363.760473 198.896062 363.760473 200.009812 
L 363.760473 203.467312 
L 362.676723 203.467312 
L 362.676723 196.904812 
L 363.760473 196.904812 
L 363.760473 197.924812 
Q 364.101723 197.326687 364.645473 197.037937 
Q 365.191098 196.747312 365.971098 196.747312 
Q 366.081723 196.747312 366.216723 196.762312 
Q 366.351723 196.775437 366.514848 196.805437 
L 366.520473 197.911687 
z
M 369.924067 197.660437 
Q 369.057817 197.660437 368.553442 198.337312 
Q 368.049067 199.014187 368.049067 200.191687 
Q 368.049067 201.369187 368.549692 202.046062 
Q 369.052192 202.722937 369.924067 202.722937 
Q 370.786567 202.722937 371.289067 202.044187 
Q 371.793442 201.363562 371.793442 200.191687 
Q 371.793442 199.025437 371.289067 198.342937 
Q 370.786567 197.660437 369.924067 197.660437 
z
M 369.924067 196.747312 
Q 371.330317 196.747312 372.132817 197.662312 
Q 372.937192 198.575437 372.937192 200.191687 
Q 372.937192 201.802312 372.132817 202.721062 
Q 371.330317 203.637937 369.924067 203.637937 
Q 368.512192 203.637937 367.711567 202.721062 
Q 366.912817 201.802312 366.912817 200.191687 
Q 366.912817 198.575437 367.711567 197.662312 
Q 368.512192 196.747312 369.924067 196.747312 
z
M 375.790239 195.041062 
L 375.790239 196.904812 
L 378.010239 196.904812 
L 378.010239 197.742937 
L 375.790239 197.742937 
L 375.790239 201.305437 
Q 375.790239 202.107937 376.009614 202.336687 
Q 376.228989 202.565437 376.903989 202.565437 
L 378.010239 202.565437 
L 378.010239 203.467312 
L 376.903989 203.467312 
Q 375.655239 203.467312 375.180864 203.002312 
Q 374.706489 202.535437 374.706489 201.305437 
L 374.706489 197.742937 
L 373.915239 197.742937 
L 373.915239 196.904812 
L 374.706489 196.904812 
L 374.706489 195.041062 
L 375.790239 195.041062 
z
M 385.042192 199.916062 
L 385.042192 200.442937 
L 380.084692 200.442937 
Q 380.155942 201.556687 380.755942 202.139812 
Q 381.355942 202.722937 382.428442 202.722937 
Q 383.049067 202.722937 383.632192 202.571062 
Q 384.215317 202.419187 384.790942 202.113562 
L 384.790942 203.133562 
Q 384.209692 203.379187 383.600317 203.508562 
Q 382.990942 203.637937 382.364692 203.637937 
Q 380.793442 203.637937 379.876567 202.724812 
Q 378.959692 201.809812 378.959692 200.249812 
Q 378.959692 198.639187 379.829692 197.694187 
Q 380.699692 196.747312 382.177192 196.747312 
Q 383.500942 196.747312 384.271567 197.600437 
Q 385.042192 198.451687 385.042192 199.916062 
z
M 383.964067 199.599187 
Q 383.952817 198.716062 383.469067 198.189187 
Q 382.985317 197.660437 382.188442 197.660437 
Q 381.286567 197.660437 380.744692 198.170437 
Q 380.202817 198.680437 380.120317 199.606687 
L 383.964067 199.599187 
z
M 386.811255 196.904812 
L 387.88938 196.904812 
L 387.88938 203.467312 
L 386.811255 203.467312 
L 386.811255 196.904812 
z
M 386.811255 194.349187 
L 387.88938 194.349187 
L 387.88938 195.716062 
L 386.811255 195.716062 
L 386.811255 194.349187 
z
M 395.601489 199.505437 
L 395.601489 203.467312 
L 394.523364 203.467312 
L 394.523364 199.541062 
Q 394.523364 198.609187 394.159614 198.147937 
Q 393.795864 197.684812 393.070239 197.684812 
Q 392.196489 197.684812 391.692114 198.241687 
Q 391.187739 198.796687 391.187739 199.758562 
L 391.187739 203.467312 
L 390.103989 203.467312 
L 390.103989 196.904812 
L 391.187739 196.904812 
L 391.187739 197.924812 
Q 391.575864 197.332312 392.098989 197.039812 
Q 392.623989 196.747312 393.310239 196.747312 
Q 394.440864 196.747312 395.020239 197.446687 
Q 395.601489 198.146062 395.601489 199.505437 
z
" clip-path="url(#p7518a06d6d)" style="fill: #ffffff; stroke: #000000; stroke-width: 2"/>
    <path d="M 356.921645 195.691687 
L 356.921645 198.978562 
L 358.410395 198.978562 
Q 359.23727 198.978562 359.68727 198.551062 
Q 360.139145 198.123562 360.139145 197.332312 
Q 360.139145 196.546687 359.68727 196.119187 
Q 359.23727 195.691687 358.410395 195.691687 
L 356.921645 195.691687 
z
M 355.73852 194.718562 
L 358.410395 194.718562 
Q 359.88227 194.718562 360.634145 195.384187 
Q 361.387895 196.049812 361.387895 197.332312 
Q 361.387895 198.627937 360.634145 199.289812 
Q 359.88227 199.951687 358.410395 199.951687 
L 356.921645 199.951687 
L 356.921645 203.467312 
L 355.73852 203.467312 
L 355.73852 194.718562 
z
M 366.520473 197.911687 
Q 366.338598 197.806687 366.124848 197.757937 
Q 365.911098 197.707312 365.654223 197.707312 
Q 364.739223 197.707312 364.249848 198.301687 
Q 363.760473 198.896062 363.760473 200.009812 
L 363.760473 203.467312 
L 362.676723 203.467312 
L 362.676723 196.904812 
L 363.760473 196.904812 
L 363.760473 197.924812 
Q 364.101723 197.326687 364.645473 197.037937 
Q 365.191098 196.747312 365.971098 196.747312 
Q 366.081723 196.747312 366.216723 196.762312 
Q 366.351723 196.775437 366.514848 196.805437 
L 366.520473 197.911687 
z
M 369.924067 197.660437 
Q 369.057817 197.660437 368.553442 198.337312 
Q 368.049067 199.014187 368.049067 200.191687 
Q 368.049067 201.369187 368.549692 202.046062 
Q 369.052192 202.722937 369.924067 202.722937 
Q 370.786567 202.722937 371.289067 202.044187 
Q 371.793442 201.363562 371.793442 200.191687 
Q 371.793442 199.025437 371.289067 198.342937 
Q 370.786567 197.660437 369.924067 197.660437 
z
M 369.924067 196.747312 
Q 371.330317 196.747312 372.132817 197.662312 
Q 372.937192 198.575437 372.937192 200.191687 
Q 372.937192 201.802312 372.132817 202.721062 
Q 371.330317 203.637937 369.924067 203.637937 
Q 368.512192 203.637937 367.711567 202.721062 
Q 366.912817 201.802312 366.912817 200.191687 
Q 366.912817 198.575437 367.711567 197.662312 
Q 368.512192 196.747312 369.924067 196.747312 
z
M 375.790239 195.041062 
L 375.790239 196.904812 
L 378.010239 196.904812 
L 378.010239 197.742937 
L 375.790239 197.742937 
L 375.790239 201.305437 
Q 375.790239 202.107937 376.009614 202.336687 
Q 376.228989 202.565437 376.903989 202.565437 
L 378.010239 202.565437 
L 378.010239 203.467312 
L 376.903989 203.467312 
Q 375.655239 203.467312 375.180864 203.002312 
Q 374.706489 202.535437 374.706489 201.305437 
L 374.706489 197.742937 
L 373.915239 197.742937 
L 373.915239 196.904812 
L 374.706489 196.904812 
L 374.706489 195.041062 
L 375.790239 195.041062 
z
M 385.042192 199.916062 
L 385.042192 200.442937 
L 380.084692 200.442937 
Q 380.155942 201.556687 380.755942 202.139812 
Q 381.355942 202.722937 382.428442 202.722937 
Q 383.049067 202.722937 383.632192 202.571062 
Q 384.215317 202.419187 384.790942 202.113562 
L 384.790942 203.133562 
Q 384.209692 203.379187 383.600317 203.508562 
Q 382.990942 203.637937 382.364692 203.637937 
Q 380.793442 203.637937 379.876567 202.724812 
Q 378.959692 201.809812 378.959692 200.249812 
Q 378.959692 198.639187 379.829692 197.694187 
Q 380.699692 196.747312 382.177192 196.747312 
Q 383.500942 196.747312 384.271567 197.600437 
Q 385.042192 198.451687 385.042192 199.916062 
z
M 383.964067 199.599187 
Q 383.952817 198.716062 383.469067 198.189187 
Q 382.985317 197.660437 382.188442 197.660437 
Q 381.286567 197.660437 380.744692 198.170437 
Q 380.202817 198.680437 380.120317 199.606687 
L 383.964067 199.599187 
z
M 386.811255 196.904812 
L 387.88938 196.904812 
L 387.88938 203.467312 
L 386.811255 203.467312 
L 386.811255 196.904812 
z
M 386.811255 194.349187 
L 387.88938 194.349187 
L 387.88938 195.716062 
L 386.811255 195.716062 
L 386.811255 194.349187 
z
M 395.601489 199.505437 
L 395.601489 203.467312 
L 394.523364 203.467312 
L 394.523364 199.541062 
Q 394.523364 198.609187 394.159614 198.147937 
Q 393.795864 197.684812 393.070239 197.684812 
Q 392.196489 197.684812 391.692114 198.241687 
Q 391.187739 198.796687 391.187739 199.758562 
L 391.187739 203.467312 
L 390.103989 203.467312 
L 390.103989 196.904812 
L 391.187739 196.904812 
L 391.187739 197.924812 
Q 391.575864 197.332312 392.098989 197.039812 
Q 392.623989 196.747312 393.310239 196.747312 
Q 394.440864 196.747312 395.020239 197.446687 
Q 395.601489 198.146062 395.601489 199.505437 
z
" clip-path="url(#p7518a06d6d)" style="fill: #ffffff"/>
   </g>
   <g id="text_5">
    <g clip-path="url(#p7518a06d6d)">
     <!-- Artesunate -->
     <g transform="translate(56.903685 169.873875)scale(0.12 -0.12)">
      <defs>
       <path id="DejaVuSans-41" d="M 2188 4044 
L 1331 1722 
L 3047 1722 
L 2188 4044 
z
M 1831 4666 
L 2547 4666 
L 4325 0 
L 3669 0 
L 3244 1197 
L 1141 1197 
L 716 0 
L 50 0 
L 1831 4666 
z
" transform="scale(0.015625)"/>
      </defs>
      <use xlink:href="#DejaVuSans-41"/>
      <use xlink:href="#DejaVuSans-72" x="68.408203"/>
      <use xlink:href="#DejaVuSans-74" x="109.521484"/>
      <use xlink:href="#DejaVuSans-65" x="148.730469"/>
      <use xlink:href="#DejaVuSans-73" x="210.253906"/>
      <use xlink:href="#DejaVuSans-75" x="262.353516"/>
      <use xlink:href="#DejaVuSans-6e" x="325.732422"/>
      <use xlink:href="#DejaVuSans-61" x="389.111328"/>
      <use xlink:href="#DejaVuSans-74" x="450.390625"/>
      <use xlink:href="#DejaVuSans-65" x="489.599609"/>
     </g>
    </g>
    <g clip-path="url(#p7518a06d6d)">
     <!-- MESH:D000077332 -->
     <g transform="translate(31.682123 183.31125)scale(0.12 -0.12)">
      <defs>
       <path id="DejaVuSans-4d" d="M 628 4666 
L 1569 4666 
L 2759 1491 
L 3956 4666 
L 4897 4666 
L 4897 0 
L 4281 0 
L 4281 4097 
L 3078 897 
L 2444 897 
L 1241 4097 
L 1241 0 
L 628 0 
L 628 4666 
z
" transform="scale(0.015625)"/>
       <path id="DejaVuSans-45" d="M 628 4666 
L 3578 4666 
L 3578 4134 
L 1259 4134 
L 1259 2753 
L 3481 2753 
L 3481 2222 
L 1259 2222 
L 1259 531 
L 3634 531 
L 3634 0 
L 628 0 
L 628 4666 
z
" transform="scale(0.015625)"/>
       <path id="DejaVuSans-53" d="M 3425 4513 
L 3425 3897 
Q 3066 4069 2747 4153 
Q 2428 4238 2131 4238 
Q 1616 4238 1336 4038 
Q 1056 3838 1056 3469 
Q 1056 3159 1242 3001 
Q 1428 2844 1947 2747 
L 2328 2669 
Q 3034 2534 3370 2195 
Q 3706 1856 3706 1288 
Q 3706 609 3251 259 
Q 2797 -91 1919 -91 
Q 1588 -91 1214 -16 
Q 841 59 441 206 
L 441 856 
Q 825 641 1194 531 
Q 1563 422 1919 422 
Q 2459 422 2753 634 
Q 3047 847 3047 1241 
Q 3047 1584 2836 1778 
Q 2625 1972 2144 2069 
L 1759 2144 
Q 1053 2284 737 2584 
Q 422 2884 422 3419 
Q 422 4038 858 4394 
Q 1294 4750 2059 4750 
Q 2388 4750 2728 4690 
Q 3069 4631 3425 4513 
z
" transform="scale(0.015625)"/>
       <path id="DejaVuSans-48" d="M 628 4666 
L 1259 4666 
L 1259 2753 
L 3553 2753 
L 3553 4666 
L 4184 4666 
L 4184 0 
L 3553 0 
L 3553 2222 
L 1259 2222 
L 1259 0 
L 628 0 
L 628 4666 
z
" transform="scale(0.015625)"/>
       <path id="DejaVuSans-3a" d="M 750 794 
L 1409 794 
L 1409 0 
L 750 0 
L 750 794 
z
M 750 3309 
L 1409 3309 
L 1409 2516 
L 750 2516 
L 750 3309 
z
" transform="scale(0.015625)"/>
       <path id="DejaVuSans-44" d="M 1259 4147 
L 1259 519 
L 2022 519 
Q 2988 519 3436 956 
Q 3884 1394 3884 2338 
Q 3884 3275 3436 3711 
Q 2988 4147 2022 4147 
L 1259 4147 
z
M 628 4666 
L 1925 4666 
Q 3281 4666 3915 4102 
Q 4550 3538 4550 2338 
Q 4550 1131 3912 565 
Q 3275 0 1925 0 
L 628 0 
L 628 4666 
z
" transform="scale(0.015625)"/>
       <path id="DejaVuSans-30" d="M 2034 4250 
Q 1547 4250 1301 3770 
Q 1056 3291 1056 2328 
Q 1056 1369 1301 889 
Q 1547 409 2034 409 
Q 2525 409 2770 889 
Q 3016 1369 3016 2328 
Q 3016 3291 2770 3770 
Q 2525 4250 2034 4250 
z
M 2034 4750 
Q 2819 4750 3233 4129 
Q 3647 3509 3647 2328 
Q 3647 1150 3233 529 
Q 2819 -91 2034 -91 
Q 1250 -91 836 529 
Q 422 1150 422 2328 
Q 422 3509 836 4129 
Q 1250 4750 2034 4750 
z
" transform="scale(0.015625)"/>
       <path id="DejaVuSans-37" d="M 525 4666 
L 3525 4666 
L 3525 4397 
L 1831 0 
L 1172 0 
L 2766 4134 
L 525 4134 
L 525 4666 
z
" transform="scale(0.015625)"/>
       <path id="DejaVuSans-33" d="M 2597 2516 
Q 3050 2419 3304 2112 
Q 3559 1806 3559 1356 
Q 3559 666 3084 287 
Q 2609 -91 1734 -91 
Q 1441 -91 1130 -33 
Q 819 25 488 141 
L 488 750 
Q 750 597 1062 519 
Q 1375 441 1716 441 
Q 2309 441 2620 675 
Q 2931 909 2931 1356 
Q 2931 1769 2642 2001 
Q 2353 2234 1838 2234 
L 1294 2234 
L 1294 2753 
L 1863 2753 
Q 2328 2753 2575 2939 
Q 2822 3125 2822 3475 
Q 2822 3834 2567 4026 
Q 2313 4219 1838 4219 
Q 1578 4219 1281 4162 
Q 984 4106 628 3988 
L 628 4550 
Q 988 4650 1302 4700 
Q 1616 4750 1894 4750 
Q 2613 4750 3031 4423 
Q 3450 4097 3450 3541 
Q 3450 3153 3228 2886 
Q 3006 2619 2597 2516 
z
" transform="scale(0.015625)"/>
       <path id="DejaVuSans-32" d="M 1228 531 
L 3431 531 
L 3431 0 
L 469 0 
L 469 531 
Q 828 903 1448 1529 
Q 2069 2156 2228 2338 
Q 2531 2678 2651 2914 
Q 2772 3150 2772 3378 
Q 2772 3750 2511 3984 
Q 2250 4219 1831 4219 
Q 1534 4219 1204 4116 
Q 875 4013 500 3803 
L 500 4441 
Q 881 4594 1212 4672 
Q 1544 4750 1819 4750 
Q 2544 4750 2975 4387 
Q 3406 4025 3406 3419 
Q 3406 3131 3298 2873 
Q 3191 2616 2906 2266 
Q 2828 2175 2409 1742 
Q 1991 1309 1228 531 
z
" transform="scale(0.015625)"/>
      </defs>
      <use xlink:href="#DejaVuSans-4d"/>
      <use xlink:href="#DejaVuSans-45" x="86.279297"/>
      <use xlink:href="#DejaVuSans-53" x="149.462891"/>
      <use xlink:href="#DejaVuSans-48" x="212.939453"/>
      <use xlink:href="#DejaVuSans-3a" x="288.134766"/>
      <use xlink:href="#DejaVuSans-44" x="321.826172"/>
      <use xlink:href="#DejaVuSans-30" x="398.828125"/>
      <use xlink:href="#DejaVuSans-30" x="462.451172"/>
      <use xlink:href="#DejaVuSans-30" x="526.074219"/>
      <use xlink:href="#DejaVuSans-30" x="589.697266"/>
      <use xlink:href="#DejaVuSans-37" x="653.320312"/>
      <use xlink:href="#DejaVuSans-37" x="716.943359"/>
      <use xlink:href="#DejaVuSans-33" x="780.566406"/>
      <use xlink:href="#DejaVuSans-33" x="844.189453"/>
      <use xlink:href="#DejaVuSans-32" x="907.8125"/>
     </g>
    </g>
    <g clip-path="url(#p7518a06d6d)">
     <!-- Drug -->
     <g transform="translate(75.272123 196.748625)scale(0.12 -0.12)">
      <use xlink:href="#DejaVuSans-44"/>
      <use xlink:href="#DejaVuSans-72" x="77.001953"/>
      <use xlink:href="#DejaVuSans-75" x="118.115234"/>
      <use xlink:href="#DejaVuSans-67" x="181.494141"/>
     </g>
    </g>
   </g>
   <g id="text_6">
    <g clip-path="url(#p7518a06d6d)">
     <!-- Plasmodium -->
     <g transform="translate(624.484292 163.155187)scale(0.12 -0.12)">
      <defs>
       <path id="DejaVuSans-50" d="M 1259 4147 
L 1259 2394 
L 2053 2394 
Q 2494 2394 2734 2622 
Q 2975 2850 2975 3272 
Q 2975 3691 2734 3919 
Q 2494 4147 2053 4147 
L 1259 4147 
z
M 628 4666 
L 2053 4666 
Q 2838 4666 3239 4311 
Q 3641 3956 3641 3272 
Q 3641 2581 3239 2228 
Q 2838 1875 2053 1875 
L 1259 1875 
L 1259 0 
L 628 0 
L 628 4666 
z
" transform="scale(0.015625)"/>
       <path id="DejaVuSans-6d" d="M 3328 2828 
Q 3544 3216 3844 3400 
Q 4144 3584 4550 3584 
Q 5097 3584 5394 3201 
Q 5691 2819 5691 2113 
L 5691 0 
L 5113 0 
L 5113 2094 
Q 5113 2597 4934 2840 
Q 4756 3084 4391 3084 
Q 3944 3084 3684 2787 
Q 3425 2491 3425 1978 
L 3425 0 
L 2847 0 
L 2847 2094 
Q 2847 2600 2669 2842 
Q 2491 3084 2119 3084 
Q 1678 3084 1418 2786 
Q 1159 2488 1159 1978 
L 1159 0 
L 581 0 
L 581 3500 
L 1159 3500 
L 1159 2956 
Q 1356 3278 1631 3431 
Q 1906 3584 2284 3584 
Q 2666 3584 2933 3390 
Q 3200 3197 3328 2828 
z
" transform="scale(0.015625)"/>
       <path id="DejaVuSans-64" d="M 2906 2969 
L 2906 4863 
L 3481 4863 
L 3481 0 
L 2906 0 
L 2906 525 
Q 2725 213 2448 61 
Q 2172 -91 1784 -91 
Q 1150 -91 751 415 
Q 353 922 353 1747 
Q 353 2572 751 3078 
Q 1150 3584 1784 3584 
Q 2172 3584 2448 3432 
Q 2725 3281 2906 2969 
z
M 947 1747 
Q 947 1113 1208 752 
Q 1469 391 1925 391 
Q 2381 391 2643 752 
Q 2906 1113 2906 1747 
Q 2906 2381 2643 2742 
Q 2381 3103 1925 3103 
Q 1469 3103 1208 2742 
Q 947 2381 947 1747 
z
" transform="scale(0.015625)"/>
      </defs>
      <use xlink:href="#DejaVuSans-50"/>
      <use xlink:href="#DejaVuSans-6c" x="60.302734"/>
      <use xlink:href="#DejaVuSans-61" x="88.085938"/>
      <use xlink:href="#DejaVuSans-73" x="149.365234"/>
      <use xlink:href="#DejaVuSans-6d" x="201.464844"/>
      <use xlink:href="#DejaVuSans-6f" x="298.876953"/>
      <use xlink:href="#DejaVuSans-64" x="360.058594"/>
      <use xlink:href="#DejaVuSans-69" x="423.535156"/>
      <use xlink:href="#DejaVuSans-75" x="451.318359"/>
      <use xlink:href="#DejaVuSans-6d" x="514.697266"/>
     </g>
    </g>
    <g clip-path="url(#p7518a06d6d)">
     <!-- falciparum -->
     <g transform="translate(629.188667 176.592562)scale(0.12 -0.12)">
      <defs>
       <path id="DejaVuSans-66" d="M 2375 4863 
L 2375 4384 
L 1825 4384 
Q 1516 4384 1395 4259 
Q 1275 4134 1275 3809 
L 1275 3500 
L 2222 3500 
L 2222 3053 
L 1275 3053 
L 1275 0 
L 697 0 
L 697 3053 
L 147 3053 
L 147 3500 
L 697 3500 
L 697 3744 
Q 697 4328 969 4595 
Q 1241 4863 1831 4863 
L 2375 4863 
z
" transform="scale(0.015625)"/>
       <path id="DejaVuSans-70" d="M 1159 525 
L 1159 -1331 
L 581 -1331 
L 581 3500 
L 1159 3500 
L 1159 2969 
Q 1341 3281 1617 3432 
Q 1894 3584 2278 3584 
Q 2916 3584 3314 3078 
Q 3713 2572 3713 1747 
Q 3713 922 3314 415 
Q 2916 -91 2278 -91 
Q 1894 -91 1617 61 
Q 1341 213 1159 525 
z
M 3116 1747 
Q 3116 2381 2855 2742 
Q 2594 3103 2138 3103 
Q 1681 3103 1420 2742 
Q 1159 2381 1159 1747 
Q 1159 1113 1420 752 
Q 1681 391 2138 391 
Q 2594 391 2855 752 
Q 3116 1113 3116 1747 
z
" transform="scale(0.015625)"/>
      </defs>
      <use xlink:href="#DejaVuSans-66"/>
      <use xlink:href="#DejaVuSans-61" x="35.205078"/>
      <use xlink:href="#DejaVuSans-6c" x="96.484375"/>
      <use xlink:href="#DejaVuSans-63" x="124.267578"/>
      <use xlink:href="#DejaVuSans-69" x="179.248047"/>
      <use xlink:href="#DejaVuSans-70" x="207.03125"/>
      <use xlink:href="#DejaVuSans-61" x="270.507812"/>
      <use xlink:href="#DejaVuSans-72" x="331.787109"/>
      <use xlink:href="#DejaVuSans-75" x="372.900391"/>
      <use xlink:href="#DejaVuSans-6d" x="436.279297"/>
     </g>
    </g>
    <g clip-path="url(#p7518a06d6d)">
     <!-- NCBITaxon:5833 -->
     <g transform="translate(612.164605 190.029937)scale(0.12 -0.12)">
      <defs>
       <path id="DejaVuSans-4e" d="M 628 4666 
L 1478 4666 
L 3547 763 
L 3547 4666 
L 4159 4666 
L 4159 0 
L 3309 0 
L 1241 3903 
L 1241 0 
L 628 0 
L 628 4666 
z
" transform="scale(0.015625)"/>
       <path id="DejaVuSans-43" d="M 4122 4306 
L 4122 3641 
Q 3803 3938 3442 4084 
Q 3081 4231 2675 4231 
Q 1875 4231 1450 3742 
Q 1025 3253 1025 2328 
Q 1025 1406 1450 917 
Q 1875 428 2675 428 
Q 3081 428 3442 575 
Q 3803 722 4122 1019 
L 4122 359 
Q 3791 134 3420 21 
Q 3050 -91 2638 -91 
Q 1578 -91 968 557 
Q 359 1206 359 2328 
Q 359 3453 968 4101 
Q 1578 4750 2638 4750 
Q 3056 4750 3426 4639 
Q 3797 4528 4122 4306 
z
" transform="scale(0.015625)"/>
       <path id="DejaVuSans-42" d="M 1259 2228 
L 1259 519 
L 2272 519 
Q 2781 519 3026 730 
Q 3272 941 3272 1375 
Q 3272 1813 3026 2020 
Q 2781 2228 2272 2228 
L 1259 2228 
z
M 1259 4147 
L 1259 2741 
L 2194 2741 
Q 2656 2741 2882 2914 
Q 3109 3088 3109 3444 
Q 3109 3797 2882 3972 
Q 2656 4147 2194 4147 
L 1259 4147 
z
M 628 4666 
L 2241 4666 
Q 2963 4666 3353 4366 
Q 3744 4066 3744 3513 
Q 3744 3084 3544 2831 
Q 3344 2578 2956 2516 
Q 3422 2416 3680 2098 
Q 3938 1781 3938 1306 
Q 3938 681 3513 340 
Q 3088 0 2303 0 
L 628 0 
L 628 4666 
z
" transform="scale(0.015625)"/>
       <path id="DejaVuSans-49" d="M 628 4666 
L 1259 4666 
L 1259 0 
L 628 0 
L 628 4666 
z
" transform="scale(0.015625)"/>
       <path id="DejaVuSans-54" d="M -19 4666 
L 3928 4666 
L 3928 4134 
L 2272 4134 
L 2272 0 
L 1638 0 
L 1638 4134 
L -19 4134 
L -19 4666 
z
" transform="scale(0.015625)"/>
       <path id="DejaVuSans-35" d="M 691 4666 
L 3169 4666 
L 3169 4134 
L 1269 4134 
L 1269 2991 
Q 1406 3038 1543 3061 
Q 1681 3084 1819 3084 
Q 2600 3084 3056 2656 
Q 3513 2228 3513 1497 
Q 3513 744 3044 326 
Q 2575 -91 1722 -91 
Q 1428 -91 1123 -41 
Q 819 9 494 109 
L 494 744 
Q 775 591 1075 516 
Q 1375 441 1709 441 
Q 2250 441 2565 725 
Q 2881 1009 2881 1497 
Q 2881 1984 2565 2268 
Q 2250 2553 1709 2553 
Q 1456 2553 1204 2497 
Q 953 2441 691 2322 
L 691 4666 
z
" transform="scale(0.015625)"/>
       <path id="DejaVuSans-38" d="M 2034 2216 
Q 1584 2216 1326 1975 
Q 1069 1734 1069 1313 
Q 1069 891 1326 650 
Q 1584 409 2034 409 
Q 2484 409 2743 651 
Q 3003 894 3003 1313 
Q 3003 1734 2745 1975 
Q 2488 2216 2034 2216 
z
M 1403 2484 
Q 997 2584 770 2862 
Q 544 3141 544 3541 
Q 544 4100 942 4425 
Q 1341 4750 2034 4750 
Q 2731 4750 3128 4425 
Q 3525 4100 3525 3541 
Q 3525 3141 3298 2862 
Q 3072 2584 2669 2484 
Q 3125 2378 3379 2068 
Q 3634 1759 3634 1313 
Q 3634 634 3220 271 
Q 2806 -91 2034 -91 
Q 1263 -91 848 271 
Q 434 634 434 1313 
Q 434 1759 690 2068 
Q 947 2378 1403 2484 
z
M 1172 3481 
Q 1172 3119 1398 2916 
Q 1625 2713 2034 2713 
Q 2441 2713 2670 2916 
Q 2900 3119 2900 3481 
Q 2900 3844 2670 4047 
Q 2441 4250 2034 4250 
Q 1625 4250 1398 4047 
Q 1172 3844 1172 3481 
z
" transform="scale(0.015625)"/>
      </defs>
      <use xlink:href="#DejaVuSans-4e"/>
      <use xlink:href="#DejaVuSans-43" x="74.804688"/>
      <use xlink:href="#DejaVuSans-42" x="144.628906"/>
      <use xlink:href="#DejaVuSans-49" x="213.232422"/>
      <use xlink:href="#DejaVuSans-54" x="242.724609"/>
      <use xlink:href="#DejaVuSans-61" x="287.308594"/>
      <use xlink:href="#DejaVuSans-78" x="348.587891"/>
      <use xlink:href="#DejaVuSans-6f" x="404.642578"/>
      <use xlink:href="#DejaVuSans-6e" x="465.824219"/>
      <use xlink:href="#DejaVuSans-3a" x="529.203125"/>
      <use xlink:href="#DejaVuSans-35" x="562.894531"/>
      <use xlink:href="#DejaVuSans-38" x="626.517578"/>
      <use xlink:href="#DejaVuSans-33" x="690.140625"/>
      <use xlink:href="#DejaVuSans-33" x="753.763672"/>
     </g>
    </g>
    <g clip-path="url(#p7518a06d6d)">
     <!-- OrganismTaxon -->
     <g transform="translate(615.010855 203.467312)scale(0.12 -0.12)">
      <defs>
       <path id="DejaVuSans-4f" d="M 2522 4238 
Q 1834 4238 1429 3725 
Q 1025 3213 1025 2328 
Q 1025 1447 1429 934 
Q 1834 422 2522 422 
Q 3209 422 3611 934 
Q 4013 1447 4013 2328 
Q 4013 3213 3611 3725 
Q 3209 4238 2522 4238 
z
M 2522 4750 
Q 3503 4750 4090 4092 
Q 4678 3434 4678 2328 
Q 4678 1225 4090 567 
Q 3503 -91 2522 -91 
Q 1538 -91 948 565 
Q 359 1222 359 2328 
Q 359 3434 948 4092 
Q 1538 4750 2522 4750 
z
" transform="scale(0.015625)"/>
      </defs>
      <use xlink:href="#DejaVuSans-4f"/>
      <use xlink:href="#DejaVuSans-72" x="78.710938"/>
      <use xlink:href="#DejaVuSans-67" x="118.074219"/>
      <use xlink:href="#DejaVuSans-61" x="181.550781"/>
      <use xlink:href="#DejaVuSans-6e" x="242.830078"/>
      <use xlink:href="#DejaVuSans-69" x="306.208984"/>
      <use xlink:href="#DejaVuSans-73" x="333.992188"/>
      <use xlink:href="#DejaVuSans-6d" x="386.091797"/>
      <use xlink:href="#DejaVuSans-54" x="483.503906"/>
      <use xlink:href="#DejaVuSans-61" x="528.087891"/>
      <use xlink:href="#DejaVuSans-78" x="589.367188"/>
      <use xlink:href="#DejaVuSans-6f" x="645.421875"/>
      <use xlink:href="#DejaVuSans-6e" x="706.603516"/>
     </g>
    </g>
   </g>
   <g id="text_7">
    <g clip-path="url(#p7518a06d6d)">
     <!-- Malaria, -->
     <g transform="translate(922.915065 163.155187)scale(0.12 -0.12)">
      <defs>
       <path id="DejaVuSans-2c" d="M 750 794 
L 1409 794 
L 1409 256 
L 897 -744 
L 494 -744 
L 750 256 
L 750 794 
z
" transform="scale(0.015625)"/>
      </defs>
      <use xlink:href="#DejaVuSans-4d"/>
      <use xlink:href="#DejaVuSans-61" x="86.279297"/>
      <use xlink:href="#DejaVuSans-6c" x="147.558594"/>
      <use xlink:href="#DejaVuSans-61" x="175.341797"/>
      <use xlink:href="#DejaVuSans-72" x="236.621094"/>
      <use xlink:href="#DejaVuSans-69" x="277.734375"/>
      <use xlink:href="#DejaVuSans-61" x="305.517578"/>
      <use xlink:href="#DejaVuSans-2c" x="366.796875"/>
     </g>
    </g>
    <g clip-path="url(#p7518a06d6d)">
     <!-- Falciparum -->
     <g transform="translate(914.017252 176.592562)scale(0.12 -0.12)">
      <defs>
       <path id="DejaVuSans-46" d="M 628 4666 
L 3309 4666 
L 3309 4134 
L 1259 4134 
L 1259 2759 
L 3109 2759 
L 3109 2228 
L 1259 2228 
L 1259 0 
L 628 0 
L 628 4666 
z
" transform="scale(0.015625)"/>
      </defs>
      <use xlink:href="#DejaVuSans-46"/>
      <use xlink:href="#DejaVuSans-61" x="48.394531"/>
      <use xlink:href="#DejaVuSans-6c" x="109.673828"/>
      <use xlink:href="#DejaVuSans-63" x="137.457031"/>
      <use xlink:href="#DejaVuSans-69" x="192.4375"/>
      <use xlink:href="#DejaVuSans-70" x="220.220703"/>
      <use xlink:href="#DejaVuSans-61" x="283.697266"/>
      <use xlink:href="#DejaVuSans-72" x="344.976562"/>
      <use xlink:href="#DejaVuSans-75" x="386.089844"/>
      <use xlink:href="#DejaVuSans-6d" x="449.46875"/>
     </g>
    </g>
    <g clip-path="url(#p7518a06d6d)">
     <!-- MESH:D016778 -->
     <g transform="translate(899.994127 190.029937)scale(0.12 -0.12)">
      <defs>
       <path id="DejaVuSans-31" d="M 794 531 
L 1825 531 
L 1825 4091 
L 703 3866 
L 703 4441 
L 1819 4666 
L 2450 4666 
L 2450 531 
L 3481 531 
L 3481 0 
L 794 0 
L 794 531 
z
" transform="scale(0.015625)"/>
       <path id="DejaVuSans-36" d="M 2113 2584 
Q 1688 2584 1439 2293 
Q 1191 2003 1191 1497 
Q 1191 994 1439 701 
Q 1688 409 2113 409 
Q 2538 409 2786 701 
Q 3034 994 3034 1497 
Q 3034 2003 2786 2293 
Q 2538 2584 2113 2584 
z
M 3366 4563 
L 3366 3988 
Q 3128 4100 2886 4159 
Q 2644 4219 2406 4219 
Q 1781 4219 1451 3797 
Q 1122 3375 1075 2522 
Q 1259 2794 1537 2939 
Q 1816 3084 2150 3084 
Q 2853 3084 3261 2657 
Q 3669 2231 3669 1497 
Q 3669 778 3244 343 
Q 2819 -91 2113 -91 
Q 1303 -91 875 529 
Q 447 1150 447 2328 
Q 447 3434 972 4092 
Q 1497 4750 2381 4750 
Q 2619 4750 2861 4703 
Q 3103 4656 3366 4563 
z
" transform="scale(0.015625)"/>
      </defs>
      <use xlink:href="#DejaVuSans-4d"/>
      <use xlink:href="#DejaVuSans-45" x="86.279297"/>
      <use xlink:href="#DejaVuSans-53" x="149.462891"/>
      <use xlink:href="#DejaVuSans-48" x="212.939453"/>
      <use xlink:href="#DejaVuSans-3a" x="288.134766"/>
      <use xlink:href="#DejaVuSans-44" x="321.826172"/>
      <use xlink:href="#DejaVuSans-30" x="398.828125"/>
      <use xlink:href="#DejaVuSans-31" x="462.451172"/>
      <use xlink:href="#DejaVuSans-36" x="526.074219"/>
      <use xlink:href="#DejaVuSans-37" x="589.697266"/>
      <use xlink:href="#DejaVuSans-37" x="653.320312"/>
      <use xlink:href="#DejaVuSans-38" x="716.943359"/>
     </g>
    </g>
    <g clip-path="url(#p7518a06d6d)">
     <!-- Disease -->
     <g transform="translate(923.231002 203.467312)scale(0.12 -0.12)">
      <use xlink:href="#DejaVuSans-44"/>
      <use xlink:href="#DejaVuSans-69" x="77.001953"/>
      <use xlink:href="#DejaVuSans-73" x="104.785156"/>
      <use xlink:href="#DejaVuSans-65" x="156.884766"/>
      <use xlink:href="#DejaVuSans-61" x="218.408203"/>
      <use xlink:href="#DejaVuSans-73" x="279.6875"/>
      <use xlink:href="#DejaVuSans-65" x="331.787109"/>
     </g>
    </g>
   </g>
  </g>
 </g>
 <defs>
  <clipPath id="p7518a06d6d">
   <rect x="0" y="0" width="1036.8" height="360"/>
  </clipPath>
 </defs>
</svg>
