<?xml version="1.0" encoding="utf-8" standalone="no"?>
<!DOCTYPE svg PUBLIC "-//W3C//DTD SVG 1.1//EN"
  "http://www.w3.org/Graphics/SVG/1.1/DTD/svg11.dtd">
<svg xmlns:xlink="http://www.w3.org/1999/xlink" width="1209.6pt" height="576pt" viewBox="0 0 1209.6 576" xmlns="http://www.w3.org/2000/svg" version="1.1">
 <metadata>
  <rdf:RDF xmlns:dc="http://purl.org/dc/elements/1.1/" xmlns:cc="http://creativecommons.org/ns#" xmlns:rdf="http://www.w3.org/1999/02/22-rdf-syntax-ns#">
   <cc:Work>
    <dc:type rdf:resource="http://purl.org/dc/dcmitype/StillImage"/>
    <dc:date>2023-02-08T08:51:57.433027</dc:date>
    <dc:format>image/svg+xml</dc:format>
    <dc:creator>
     <cc:Agent>
      <dc:title>Matplotlib v3.5.1, https://matplotlib.org/</dc:title>
     </cc:Agent>
    </dc:creator>
   </cc:Work>
  </rdf:RDF>
 </metadata>
 <defs>
  <style type="text/css">*{stroke-linejoin: round; stroke-linecap: butt}</style>
 </defs>
 <g id="figure_1">
  <g id="patch_1">
   <path d="M 0 576 
L 1209.6 576 
L 1209.6 0 
L 0 0 
z
" style="fill: #ffffff"/>
  </g>
  <g id="axes_1">
   <g id="patch_2">
    <path d="M 152.3091 310.544672 
Q 354.880872 407.00742 554.424357 502.028128 
" clip-path="url(#pfdedf7dee7)" style="fill: none; stroke: #2ca02c; stroke-width: 3; stroke-linecap: round"/>
    <path d="M 551.672782 498.502672 
L 554.424357 502.028128 
L 549.953048 502.114114 
L 551.672782 498.502672 
z
" clip-path="url(#pfdedf7dee7)" style="fill: #2ca02c; stroke: #2ca02c; stroke-width: 3; stroke-linecap: round"/>
   </g>
   <g id="patch_3">
    <path d="M 152.3091 265.455328 
Q 354.880872 168.99258 554.424357 73.971872 
" clip-path="url(#pfdedf7dee7)" style="fill: none; stroke: #2ca02c; stroke-width: 3; stroke-linecap: round"/>
    <path d="M 549.953048 73.885886 
L 554.424357 73.971872 
L 551.672782 77.497328 
L 549.953048 73.885886 
z
" clip-path="url(#pfdedf7dee7)" style="fill: #2ca02c; stroke: #2ca02c; stroke-width: 3; stroke-linecap: round"/>
   </g>
   <g id="patch_4">
    <path d="M 652.143811 72.528143 
Q 854.715582 168.990891 1054.259068 264.011599 
" clip-path="url(#pfdedf7dee7)" style="fill: none; stroke: #2ca02c; stroke-width: 3; stroke-linecap: round"/>
    <path d="M 1051.507493 260.486143 
L 1054.259068 264.011599 
L 1049.787759 264.097585 
L 1051.507493 260.486143 
z
" clip-path="url(#pfdedf7dee7)" style="fill: #2ca02c; stroke: #2ca02c; stroke-width: 3; stroke-linecap: round"/>
   </g>
   <g id="patch_5">
    <path d="M 652.143811 503.471857 
Q 854.715582 407.009109 1054.259068 311.988401 
" clip-path="url(#pfdedf7dee7)" style="fill: none; stroke: #2ca02c; stroke-width: 3; stroke-linecap: round"/>
    <path d="M 1049.787759 311.902415 
L 1054.259068 311.988401 
L 1051.507493 315.513857 
L 1049.787759 311.902415 
z
" clip-path="url(#pfdedf7dee7)" style="fill: #2ca02c; stroke: #2ca02c; stroke-width: 3; stroke-linecap: round"/>
   </g>
   <g id="text_1">
    <g id="patch_6">
     <path d="M 325.434747 407.869227 
L 372.775674 430.412525 
Q 375.484256 431.702326 376.774056 428.993744 
L 385.749323 410.145685 
Q 387.039124 407.437103 384.330542 406.147302 
L 336.989615 383.604004 
Q 334.281034 382.314203 332.991233 385.022785 
L 324.015966 403.870844 
Q 322.726166 406.579426 325.434747 407.869227 
z
" clip-path="url(#pfdedf7dee7)" style="fill: #ffffff; stroke: #ffffff; stroke-linejoin: miter"/>
    </g>
    <g clip-path="url(#pfdedf7dee7)">
     <!-- negatively -->
     <g transform="translate(332.432991 393.172915)rotate(-334.536655)scale(0.1 -0.1)">
      <defs>
       <path id="DejaVuSans-6e" d="M 3513 2113 
L 3513 0 
L 2938 0 
L 2938 2094 
Q 2938 2591 2744 2837 
Q 2550 3084 2163 3084 
Q 1697 3084 1428 2787 
Q 1159 2491 1159 1978 
L 1159 0 
L 581 0 
L 581 3500 
L 1159 3500 
L 1159 2956 
Q 1366 3272 1645 3428 
Q 1925 3584 2291 3584 
Q 2894 3584 3203 3211 
Q 3513 2838 3513 2113 
z
" transform="scale(0.015625)"/>
       <path id="DejaVuSans-65" d="M 3597 1894 
L 3597 1613 
L 953 1613 
Q 991 1019 1311 708 
Q 1631 397 2203 397 
Q 2534 397 2845 478 
Q 3156 559 3463 722 
L 3463 178 
Q 3153 47 2828 -22 
Q 2503 -91 2169 -91 
Q 1331 -91 842 396 
Q 353 884 353 1716 
Q 353 2575 817 3079 
Q 1281 3584 2069 3584 
Q 2775 3584 3186 3129 
Q 3597 2675 3597 1894 
z
M 3022 2063 
Q 3016 2534 2758 2815 
Q 2500 3097 2075 3097 
Q 1594 3097 1305 2825 
Q 1016 2553 972 2059 
L 3022 2063 
z
" transform="scale(0.015625)"/>
       <path id="DejaVuSans-67" d="M 2906 1791 
Q 2906 2416 2648 2759 
Q 2391 3103 1925 3103 
Q 1463 3103 1205 2759 
Q 947 2416 947 1791 
Q 947 1169 1205 825 
Q 1463 481 1925 481 
Q 2391 481 2648 825 
Q 2906 1169 2906 1791 
z
M 3481 434 
Q 3481 -459 3084 -895 
Q 2688 -1331 1869 -1331 
Q 1566 -1331 1297 -1286 
Q 1028 -1241 775 -1147 
L 775 -588 
Q 1028 -725 1275 -790 
Q 1522 -856 1778 -856 
Q 2344 -856 2625 -561 
Q 2906 -266 2906 331 
L 2906 616 
Q 2728 306 2450 153 
Q 2172 0 1784 0 
Q 1141 0 747 490 
Q 353 981 353 1791 
Q 353 2603 747 3093 
Q 1141 3584 1784 3584 
Q 2172 3584 2450 3431 
Q 2728 3278 2906 2969 
L 2906 3500 
L 3481 3500 
L 3481 434 
z
" transform="scale(0.015625)"/>
       <path id="DejaVuSans-61" d="M 2194 1759 
Q 1497 1759 1228 1600 
Q 959 1441 959 1056 
Q 959 750 1161 570 
Q 1363 391 1709 391 
Q 2188 391 2477 730 
Q 2766 1069 2766 1631 
L 2766 1759 
L 2194 1759 
z
M 3341 1997 
L 3341 0 
L 2766 0 
L 2766 531 
Q 2569 213 2275 61 
Q 1981 -91 1556 -91 
Q 1019 -91 701 211 
Q 384 513 384 1019 
Q 384 1609 779 1909 
Q 1175 2209 1959 2209 
L 2766 2209 
L 2766 2266 
Q 2766 2663 2505 2880 
Q 2244 3097 1772 3097 
Q 1472 3097 1187 3025 
Q 903 2953 641 2809 
L 641 3341 
Q 956 3463 1253 3523 
Q 1550 3584 1831 3584 
Q 2591 3584 2966 3190 
Q 3341 2797 3341 1997 
z
" transform="scale(0.015625)"/>
       <path id="DejaVuSans-74" d="M 1172 4494 
L 1172 3500 
L 2356 3500 
L 2356 3053 
L 1172 3053 
L 1172 1153 
Q 1172 725 1289 603 
Q 1406 481 1766 481 
L 2356 481 
L 2356 0 
L 1766 0 
Q 1100 0 847 248 
Q 594 497 594 1153 
L 594 3053 
L 172 3053 
L 172 3500 
L 594 3500 
L 594 4494 
L 1172 4494 
z
" transform="scale(0.015625)"/>
       <path id="DejaVuSans-69" d="M 603 3500 
L 1178 3500 
L 1178 0 
L 603 0 
L 603 3500 
z
M 603 4863 
L 1178 4863 
L 1178 4134 
L 603 4134 
L 603 4863 
z
" transform="scale(0.015625)"/>
       <path id="DejaVuSans-76" d="M 191 3500 
L 800 3500 
L 1894 563 
L 2988 3500 
L 3597 3500 
L 2284 0 
L 1503 0 
L 191 3500 
z
" transform="scale(0.015625)"/>
       <path id="DejaVuSans-6c" d="M 603 4863 
L 1178 4863 
L 1178 0 
L 603 0 
L 603 4863 
z
" transform="scale(0.015625)"/>
       <path id="DejaVuSans-79" d="M 2059 -325 
Q 1816 -950 1584 -1140 
Q 1353 -1331 966 -1331 
L 506 -1331 
L 506 -850 
L 844 -850 
Q 1081 -850 1212 -737 
Q 1344 -625 1503 -206 
L 1606 56 
L 191 3500 
L 800 3500 
L 1894 763 
L 2988 3500 
L 3597 3500 
L 2059 -325 
z
" transform="scale(0.015625)"/>
      </defs>
      <use xlink:href="#DejaVuSans-6e"/>
      <use xlink:href="#DejaVuSans-65" x="63.378906"/>
      <use xlink:href="#DejaVuSans-67" x="124.902344"/>
      <use xlink:href="#DejaVuSans-61" x="188.378906"/>
      <use xlink:href="#DejaVuSans-74" x="249.658203"/>
      <use xlink:href="#DejaVuSans-69" x="288.867188"/>
      <use xlink:href="#DejaVuSans-76" x="316.650391"/>
      <use xlink:href="#DejaVuSans-65" x="375.830078"/>
      <use xlink:href="#DejaVuSans-6c" x="437.353516"/>
      <use xlink:href="#DejaVuSans-79" x="465.136719"/>
     </g>
    </g>
    <g clip-path="url(#pfdedf7dee7)">
     <!-- regulates -->
     <g transform="translate(330.110711 404.469661)rotate(-334.536655)scale(0.1 -0.1)">
      <defs>
       <path id="DejaVuSans-72" d="M 2631 2963 
Q 2534 3019 2420 3045 
Q 2306 3072 2169 3072 
Q 1681 3072 1420 2755 
Q 1159 2438 1159 1844 
L 1159 0 
L 581 0 
L 581 3500 
L 1159 3500 
L 1159 2956 
Q 1341 3275 1631 3429 
Q 1922 3584 2338 3584 
Q 2397 3584 2469 3576 
Q 2541 3569 2628 3553 
L 2631 2963 
z
" transform="scale(0.015625)"/>
       <path id="DejaVuSans-75" d="M 544 1381 
L 544 3500 
L 1119 3500 
L 1119 1403 
Q 1119 906 1312 657 
Q 1506 409 1894 409 
Q 2359 409 2629 706 
Q 2900 1003 2900 1516 
L 2900 3500 
L 3475 3500 
L 3475 0 
L 2900 0 
L 2900 538 
Q 2691 219 2414 64 
Q 2138 -91 1772 -91 
Q 1169 -91 856 284 
Q 544 659 544 1381 
z
M 1991 3584 
L 1991 3584 
z
" transform="scale(0.015625)"/>
       <path id="DejaVuSans-73" d="M 2834 3397 
L 2834 2853 
Q 2591 2978 2328 3040 
Q 2066 3103 1784 3103 
Q 1356 3103 1142 2972 
Q 928 2841 928 2578 
Q 928 2378 1081 2264 
Q 1234 2150 1697 2047 
L 1894 2003 
Q 2506 1872 2764 1633 
Q 3022 1394 3022 966 
Q 3022 478 2636 193 
Q 2250 -91 1575 -91 
Q 1294 -91 989 -36 
Q 684 19 347 128 
L 347 722 
Q 666 556 975 473 
Q 1284 391 1588 391 
Q 1994 391 2212 530 
Q 2431 669 2431 922 
Q 2431 1156 2273 1281 
Q 2116 1406 1581 1522 
L 1381 1569 
Q 847 1681 609 1914 
Q 372 2147 372 2553 
Q 372 3047 722 3315 
Q 1072 3584 1716 3584 
Q 2034 3584 2315 3537 
Q 2597 3491 2834 3397 
z
" transform="scale(0.015625)"/>
      </defs>
      <use xlink:href="#DejaVuSans-72"/>
      <use xlink:href="#DejaVuSans-65" x="38.863281"/>
      <use xlink:href="#DejaVuSans-67" x="100.386719"/>
      <use xlink:href="#DejaVuSans-75" x="163.863281"/>
      <use xlink:href="#DejaVuSans-6c" x="227.242188"/>
      <use xlink:href="#DejaVuSans-61" x="255.025391"/>
      <use xlink:href="#DejaVuSans-74" x="316.304688"/>
      <use xlink:href="#DejaVuSans-65" x="355.513672"/>
      <use xlink:href="#DejaVuSans-73" x="417.037109"/>
     </g>
    </g>
   </g>
   <g id="text_2">
    <g id="patch_7">
     <path d="M 329.766731 195.835465 
L 391.553426 166.413229 
Q 394.262008 165.123428 392.972207 162.414847 
L 383.996941 143.566787 
Q 382.70714 140.858205 379.998558 142.148006 
L 318.211863 171.570242 
Q 315.503281 172.860043 316.793082 175.568624 
L 325.768349 194.416684 
Q 327.058149 197.125266 329.766731 195.835465 
z
" clip-path="url(#pfdedf7dee7)" style="fill: #ffffff; stroke: #ffffff; stroke-linejoin: miter"/>
    </g>
    <g clip-path="url(#pfdedf7dee7)">
     <!-- decreases -->
     <g transform="translate(330.756687 177.335248)rotate(-25.463345)scale(0.1 -0.1)">
      <defs>
       <path id="DejaVuSans-64" d="M 2906 2969 
L 2906 4863 
L 3481 4863 
L 3481 0 
L 2906 0 
L 2906 525 
Q 2725 213 2448 61 
Q 2172 -91 1784 -91 
Q 1150 -91 751 415 
Q 353 922 353 1747 
Q 353 2572 751 3078 
Q 1150 3584 1784 3584 
Q 2172 3584 2448 3432 
Q 2725 3281 2906 2969 
z
M 947 1747 
Q 947 1113 1208 752 
Q 1469 391 1925 391 
Q 2381 391 2643 752 
Q 2906 1113 2906 1747 
Q 2906 2381 2643 2742 
Q 2381 3103 1925 3103 
Q 1469 3103 1208 2742 
Q 947 2381 947 1747 
z
" transform="scale(0.015625)"/>
       <path id="DejaVuSans-63" d="M 3122 3366 
L 3122 2828 
Q 2878 2963 2633 3030 
Q 2388 3097 2138 3097 
Q 1578 3097 1268 2742 
Q 959 2388 959 1747 
Q 959 1106 1268 751 
Q 1578 397 2138 397 
Q 2388 397 2633 464 
Q 2878 531 3122 666 
L 3122 134 
Q 2881 22 2623 -34 
Q 2366 -91 2075 -91 
Q 1284 -91 818 406 
Q 353 903 353 1747 
Q 353 2603 823 3093 
Q 1294 3584 2113 3584 
Q 2378 3584 2631 3529 
Q 2884 3475 3122 3366 
z
" transform="scale(0.015625)"/>
      </defs>
      <use xlink:href="#DejaVuSans-64"/>
      <use xlink:href="#DejaVuSans-65" x="63.476562"/>
      <use xlink:href="#DejaVuSans-63" x="125"/>
      <use xlink:href="#DejaVuSans-72" x="179.980469"/>
      <use xlink:href="#DejaVuSans-65" x="218.84375"/>
      <use xlink:href="#DejaVuSans-61" x="280.367188"/>
      <use xlink:href="#DejaVuSans-73" x="341.646484"/>
      <use xlink:href="#DejaVuSans-65" x="393.746094"/>
      <use xlink:href="#DejaVuSans-73" x="455.269531"/>
     </g>
    </g>
    <g clip-path="url(#pfdedf7dee7)">
     <!-- abundance of -->
     <g transform="translate(327.582803 191.249216)rotate(-25.463345)scale(0.1 -0.1)">
      <defs>
       <path id="DejaVuSans-62" d="M 3116 1747 
Q 3116 2381 2855 2742 
Q 2594 3103 2138 3103 
Q 1681 3103 1420 2742 
Q 1159 2381 1159 1747 
Q 1159 1113 1420 752 
Q 1681 391 2138 391 
Q 2594 391 2855 752 
Q 3116 1113 3116 1747 
z
M 1159 2969 
Q 1341 3281 1617 3432 
Q 1894 3584 2278 3584 
Q 2916 3584 3314 3078 
Q 3713 2572 3713 1747 
Q 3713 922 3314 415 
Q 2916 -91 2278 -91 
Q 1894 -91 1617 61 
Q 1341 213 1159 525 
L 1159 0 
L 581 0 
L 581 4863 
L 1159 4863 
L 1159 2969 
z
" transform="scale(0.015625)"/>
       <path id="DejaVuSans-20" transform="scale(0.015625)"/>
       <path id="DejaVuSans-6f" d="M 1959 3097 
Q 1497 3097 1228 2736 
Q 959 2375 959 1747 
Q 959 1119 1226 758 
Q 1494 397 1959 397 
Q 2419 397 2687 759 
Q 2956 1122 2956 1747 
Q 2956 2369 2687 2733 
Q 2419 3097 1959 3097 
z
M 1959 3584 
Q 2709 3584 3137 3096 
Q 3566 2609 3566 1747 
Q 3566 888 3137 398 
Q 2709 -91 1959 -91 
Q 1206 -91 779 398 
Q 353 888 353 1747 
Q 353 2609 779 3096 
Q 1206 3584 1959 3584 
z
" transform="scale(0.015625)"/>
       <path id="DejaVuSans-66" d="M 2375 4863 
L 2375 4384 
L 1825 4384 
Q 1516 4384 1395 4259 
Q 1275 4134 1275 3809 
L 1275 3500 
L 2222 3500 
L 2222 3053 
L 1275 3053 
L 1275 0 
L 697 0 
L 697 3053 
L 147 3053 
L 147 3500 
L 697 3500 
L 697 3744 
Q 697 4328 969 4595 
Q 1241 4863 1831 4863 
L 2375 4863 
z
" transform="scale(0.015625)"/>
      </defs>
      <use xlink:href="#DejaVuSans-61"/>
      <use xlink:href="#DejaVuSans-62" x="61.279297"/>
      <use xlink:href="#DejaVuSans-75" x="124.755859"/>
      <use xlink:href="#DejaVuSans-6e" x="188.134766"/>
      <use xlink:href="#DejaVuSans-64" x="251.513672"/>
      <use xlink:href="#DejaVuSans-61" x="314.990234"/>
      <use xlink:href="#DejaVuSans-6e" x="376.269531"/>
      <use xlink:href="#DejaVuSans-63" x="439.648438"/>
      <use xlink:href="#DejaVuSans-65" x="494.628906"/>
      <use xlink:href="#DejaVuSans-20" x="556.152344"/>
      <use xlink:href="#DejaVuSans-6f" x="587.939453"/>
      <use xlink:href="#DejaVuSans-66" x="649.121094"/>
     </g>
    </g>
   </g>
   <g id="text_3">
    <g id="patch_8">
     <path d="M 835.756512 168.645236 
L 866.937646 183.493395 
Q 869.646228 184.783196 870.936029 182.074614 
L 875.09698 173.336617 
Q 876.38678 170.628036 873.678199 169.338235 
L 842.497064 154.490076 
Q 839.788483 153.200275 838.498682 155.908857 
L 834.337731 164.646854 
Q 833.04793 167.355435 835.756512 168.645236 
z
" clip-path="url(#pfdedf7dee7)" style="fill: #ffffff; stroke: #ffffff; stroke-linejoin: miter"/>
    </g>
    <g clip-path="url(#pfdedf7dee7)">
     <!-- causes -->
     <g transform="translate(837.94044 164.058987)rotate(-334.536655)scale(0.1 -0.1)">
      <use xlink:href="#DejaVuSans-63"/>
      <use xlink:href="#DejaVuSans-61" x="54.980469"/>
      <use xlink:href="#DejaVuSans-75" x="116.259766"/>
      <use xlink:href="#DejaVuSans-73" x="179.638672"/>
      <use xlink:href="#DejaVuSans-65" x="231.738281"/>
      <use xlink:href="#DejaVuSans-73" x="293.261719"/>
     </g>
    </g>
   </g>
   <g id="text_4">
    <g id="patch_9">
     <path d="M 837.742939 423.773793 
L 878.432324 404.397896 
Q 881.140905 403.108095 879.851105 400.399514 
L 875.690154 391.661517 
Q 874.400353 388.952935 871.691771 390.242736 
L 831.002387 409.618633 
Q 828.293805 410.908434 829.583606 413.617015 
L 833.744557 422.355012 
Q 835.034358 425.063594 837.742939 423.773793 
z
" clip-path="url(#pfdedf7dee7)" style="fill: #ffffff; stroke: #ffffff; stroke-linejoin: miter"/>
    </g>
    <g clip-path="url(#pfdedf7dee7)">
     <!-- occurs in -->
     <g transform="translate(835.559011 419.187544)rotate(-25.463345)scale(0.1 -0.1)">
      <use xlink:href="#DejaVuSans-6f"/>
      <use xlink:href="#DejaVuSans-63" x="61.181641"/>
      <use xlink:href="#DejaVuSans-63" x="116.162109"/>
      <use xlink:href="#DejaVuSans-75" x="171.142578"/>
      <use xlink:href="#DejaVuSans-72" x="234.521484"/>
      <use xlink:href="#DejaVuSans-73" x="275.634766"/>
      <use xlink:href="#DejaVuSans-20" x="327.734375"/>
      <use xlink:href="#DejaVuSans-69" x="359.521484"/>
      <use xlink:href="#DejaVuSans-6e" x="387.304688"/>
     </g>
    </g>
   </g>
   <g id="PathCollection_1">
    <defs>
     <path id="C0_0_5e72944873" d="M 0 52.440442 
C 13.907368 52.440442 27.246998 46.914987 37.080992 37.080992 
C 46.914987 27.246998 52.440442 13.907368 52.440442 -0 
C 52.440442 -13.907368 46.914987 -27.246998 37.080992 -37.080992 
C 27.246998 -46.914987 13.907368 -52.440442 0 -52.440442 
C -13.907368 -52.440442 -27.246998 -46.914987 -37.080992 -37.080992 
C -46.914987 -27.246998 -52.440442 -13.907368 -52.440442 0 
C -52.440442 13.907368 -46.914987 27.246998 -37.080992 37.080992 
C -27.246998 46.914987 -13.907368 52.440442 0 52.440442 
z
"/>
    </defs>
    <g clip-path="url(#pfdedf7dee7)">
     <use xlink:href="#C0_0_5e72944873" x="104.965289" y="288" style="fill: #01c472; stroke: #01c472"/>
    </g>
    <g clip-path="url(#pfdedf7dee7)">
     <use xlink:href="#C0_0_5e72944873" x="604.8" y="49.983471" style="fill: #e9bf98; stroke: #e9bf98"/>
    </g>
    <g clip-path="url(#pfdedf7dee7)">
     <use xlink:href="#C0_0_5e72944873" x="1104.634711" y="288" style="fill: #70c6ca; stroke: #70c6ca"/>
    </g>
    <g clip-path="url(#pfdedf7dee7)">
     <use xlink:href="#C0_0_5e72944873" x="604.8" y="526.016529" style="fill: #b75970; stroke: #b75970"/>
    </g>
   </g>
   <g id="text_5">
    <path d="M 566.090625 507.141654 
L 567.27375 507.141654 
L 567.27375 515.890404 
L 566.090625 515.890404 
L 566.090625 507.141654 
z
M 575.039062 511.928529 
L 575.039062 515.890404 
L 573.960937 515.890404 
L 573.960937 511.964154 
Q 573.960937 511.032279 573.597187 510.571029 
Q 573.233437 510.107904 572.507812 510.107904 
Q 571.634062 510.107904 571.129687 510.664779 
Q 570.625312 511.219779 570.625312 512.181654 
L 570.625312 515.890404 
L 569.541562 515.890404 
L 569.541562 509.327904 
L 570.625312 509.327904 
L 570.625312 510.347904 
Q 571.013437 509.755404 571.536562 509.462904 
Q 572.061562 509.170404 572.747812 509.170404 
Q 573.878437 509.170404 574.457812 509.869779 
Q 575.039062 510.569154 575.039062 511.928529 
z
M 580.510781 506.772279 
L 580.510781 507.670404 
L 579.479531 507.670404 
Q 578.900156 507.670404 578.673281 507.904779 
Q 578.448281 508.139154 578.448281 508.748529 
L 578.448281 509.327904 
L 580.223906 509.327904 
L 580.223906 510.166029 
L 578.448281 510.166029 
L 578.448281 515.890404 
L 577.364531 515.890404 
L 577.364531 510.166029 
L 576.333281 510.166029 
L 576.333281 509.327904 
L 577.364531 509.327904 
L 577.364531 508.870404 
Q 577.364531 507.775404 577.874531 507.274779 
Q 578.384531 506.772279 579.490781 506.772279 
L 580.510781 506.772279 
z
M 581.412891 506.772279 
L 582.491016 506.772279 
L 582.491016 515.890404 
L 581.412891 515.890404 
L 581.412891 506.772279 
z
M 587.73 512.592279 
Q 586.423125 512.592279 585.91875 512.890404 
Q 585.414375 513.188529 585.414375 513.910404 
Q 585.414375 514.484154 585.793125 514.821654 
Q 586.171875 515.157279 586.820625 515.157279 
Q 587.71875 515.157279 588.260625 514.521654 
Q 588.8025 513.886029 588.8025 512.832279 
L 588.8025 512.592279 
L 587.73 512.592279 
z
M 589.880625 512.146029 
L 589.880625 515.890404 
L 588.8025 515.890404 
L 588.8025 514.894779 
Q 588.433125 515.491029 587.881875 515.776029 
Q 587.330625 516.061029 586.53375 516.061029 
Q 585.526875 516.061029 584.930625 515.494779 
Q 584.33625 514.928529 584.33625 513.979779 
Q 584.33625 512.873529 585.076875 512.311029 
Q 585.819375 511.748529 587.289375 511.748529 
L 588.8025 511.748529 
L 588.8025 511.641654 
Q 588.8025 510.897279 588.313125 510.490404 
Q 587.82375 510.083529 586.93875 510.083529 
Q 586.37625 510.083529 585.841875 510.218529 
Q 585.309375 510.353529 584.818125 510.623529 
L 584.818125 509.626029 
Q 585.40875 509.397279 585.965625 509.284779 
Q 586.5225 509.170404 587.049375 509.170404 
Q 588.474375 509.170404 589.1775 509.909154 
Q 589.880625 510.646029 589.880625 512.146029 
z
M 597.209766 510.587904 
Q 597.614766 509.860404 598.177266 509.515404 
Q 598.739766 509.170404 599.501016 509.170404 
Q 600.526641 509.170404 601.083516 509.888529 
Q 601.640391 510.604779 601.640391 511.928529 
L 601.640391 515.890404 
L 600.556641 515.890404 
L 600.556641 511.964154 
Q 600.556641 511.021029 600.221016 510.565404 
Q 599.887266 510.107904 599.202891 510.107904 
Q 598.364766 510.107904 597.877266 510.664779 
Q 597.391641 511.219779 597.391641 512.181654 
L 597.391641 515.890404 
L 596.307891 515.890404 
L 596.307891 511.964154 
Q 596.307891 511.015404 595.974141 510.561654 
Q 595.640391 510.107904 594.942891 510.107904 
Q 594.116016 510.107904 593.628516 510.666654 
Q 593.142891 511.225404 593.142891 512.181654 
L 593.142891 515.890404 
L 592.059141 515.890404 
L 592.059141 509.327904 
L 593.142891 509.327904 
L 593.142891 510.347904 
Q 593.512266 509.744154 594.027891 509.457279 
Q 594.543516 509.170404 595.252266 509.170404 
Q 595.968516 509.170404 596.469141 509.534154 
Q 596.969766 509.896029 597.209766 510.587904 
z
M 608.899219 510.587904 
Q 609.304219 509.860404 609.866719 509.515404 
Q 610.429219 509.170404 611.190469 509.170404 
Q 612.216094 509.170404 612.772969 509.888529 
Q 613.329844 510.604779 613.329844 511.928529 
L 613.329844 515.890404 
L 612.246094 515.890404 
L 612.246094 511.964154 
Q 612.246094 511.021029 611.910469 510.565404 
Q 611.576719 510.107904 610.892344 510.107904 
Q 610.054219 510.107904 609.566719 510.664779 
Q 609.081094 511.219779 609.081094 512.181654 
L 609.081094 515.890404 
L 607.997344 515.890404 
L 607.997344 511.964154 
Q 607.997344 511.015404 607.663594 510.561654 
Q 607.329844 510.107904 606.632344 510.107904 
Q 605.805469 510.107904 605.317969 510.666654 
Q 604.832344 511.225404 604.832344 512.181654 
L 604.832344 515.890404 
L 603.748594 515.890404 
L 603.748594 509.327904 
L 604.832344 509.327904 
L 604.832344 510.347904 
Q 605.201719 509.744154 605.717344 509.457279 
Q 606.232969 509.170404 606.941719 509.170404 
Q 607.657969 509.170404 608.158594 509.534154 
Q 608.659219 509.896029 608.899219 510.587904 
z
M 618.462422 512.592279 
Q 617.155547 512.592279 616.651172 512.890404 
Q 616.146797 513.188529 616.146797 513.910404 
Q 616.146797 514.484154 616.525547 514.821654 
Q 616.904297 515.157279 617.553047 515.157279 
Q 618.451172 515.157279 618.993047 514.521654 
Q 619.534922 513.886029 619.534922 512.832279 
L 619.534922 512.592279 
L 618.462422 512.592279 
z
M 620.613047 512.146029 
L 620.613047 515.890404 
L 619.534922 515.890404 
L 619.534922 514.894779 
Q 619.165547 515.491029 618.614297 515.776029 
Q 618.063047 516.061029 617.266172 516.061029 
Q 616.259297 516.061029 615.663047 515.494779 
Q 615.068672 514.928529 615.068672 513.979779 
Q 615.068672 512.873529 615.809297 512.311029 
Q 616.551797 511.748529 618.021797 511.748529 
L 619.534922 511.748529 
L 619.534922 511.641654 
Q 619.534922 510.897279 619.045547 510.490404 
Q 618.556172 510.083529 617.671172 510.083529 
Q 617.108672 510.083529 616.574297 510.218529 
Q 616.041797 510.353529 615.550547 510.623529 
L 615.550547 509.626029 
Q 616.141172 509.397279 616.698047 509.284779 
Q 617.254922 509.170404 617.781797 509.170404 
Q 619.206797 509.170404 619.909922 509.909154 
Q 620.613047 510.646029 620.613047 512.146029 
z
M 623.899687 507.464154 
L 623.899687 509.327904 
L 626.119687 509.327904 
L 626.119687 510.166029 
L 623.899687 510.166029 
L 623.899687 513.728529 
Q 623.899687 514.531029 624.119062 514.759779 
Q 624.338437 514.988529 625.013437 514.988529 
L 626.119687 514.988529 
L 626.119687 515.890404 
L 625.013437 515.890404 
Q 623.764687 515.890404 623.290312 515.425404 
Q 622.815937 514.958529 622.815937 513.728529 
L 622.815937 510.166029 
L 622.024687 510.166029 
L 622.024687 509.327904 
L 622.815937 509.327904 
L 622.815937 507.464154 
L 623.899687 507.464154 
z
M 627.537891 509.327904 
L 628.616016 509.327904 
L 628.616016 515.890404 
L 627.537891 515.890404 
L 627.537891 509.327904 
z
M 627.537891 506.772279 
L 628.616016 506.772279 
L 628.616016 508.139154 
L 627.537891 508.139154 
L 627.537891 506.772279 
z
M 633.414375 510.083529 
Q 632.548125 510.083529 632.04375 510.760404 
Q 631.539375 511.437279 631.539375 512.614779 
Q 631.539375 513.792279 632.04 514.469154 
Q 632.5425 515.146029 633.414375 515.146029 
Q 634.276875 515.146029 634.779375 514.467279 
Q 635.28375 513.786654 635.28375 512.614779 
Q 635.28375 511.448529 634.779375 510.766029 
Q 634.276875 510.083529 633.414375 510.083529 
z
M 633.414375 509.170404 
Q 634.820625 509.170404 635.623125 510.085404 
Q 636.4275 510.998529 636.4275 512.614779 
Q 636.4275 514.225404 635.623125 515.144154 
Q 634.820625 516.061029 633.414375 516.061029 
Q 632.0025 516.061029 631.201875 515.144154 
Q 630.403125 514.225404 630.403125 512.614779 
Q 630.403125 510.998529 631.201875 510.085404 
Q 632.0025 509.170404 633.414375 509.170404 
z
M 643.669922 511.928529 
L 643.669922 515.890404 
L 642.591797 515.890404 
L 642.591797 511.964154 
Q 642.591797 511.032279 642.228047 510.571029 
Q 641.864297 510.107904 641.138672 510.107904 
Q 640.264922 510.107904 639.760547 510.664779 
Q 639.256172 511.219779 639.256172 512.181654 
L 639.256172 515.890404 
L 638.172422 515.890404 
L 638.172422 509.327904 
L 639.256172 509.327904 
L 639.256172 510.347904 
Q 639.644297 509.755404 640.167422 509.462904 
Q 640.692422 509.170404 641.378672 509.170404 
Q 642.509297 509.170404 643.088672 509.869779 
Q 643.669922 510.569154 643.669922 511.928529 
z
" clip-path="url(#pfdedf7dee7)" style="fill: #ffffff; stroke: #000000; stroke-width: 2"/>
    <path d="M 566.090625 507.141654 
L 567.27375 507.141654 
L 567.27375 515.890404 
L 566.090625 515.890404 
L 566.090625 507.141654 
z
M 575.039062 511.928529 
L 575.039062 515.890404 
L 573.960937 515.890404 
L 573.960937 511.964154 
Q 573.960937 511.032279 573.597187 510.571029 
Q 573.233437 510.107904 572.507812 510.107904 
Q 571.634062 510.107904 571.129687 510.664779 
Q 570.625312 511.219779 570.625312 512.181654 
L 570.625312 515.890404 
L 569.541562 515.890404 
L 569.541562 509.327904 
L 570.625312 509.327904 
L 570.625312 510.347904 
Q 571.013437 509.755404 571.536562 509.462904 
Q 572.061562 509.170404 572.747812 509.170404 
Q 573.878437 509.170404 574.457812 509.869779 
Q 575.039062 510.569154 575.039062 511.928529 
z
M 580.510781 506.772279 
L 580.510781 507.670404 
L 579.479531 507.670404 
Q 578.900156 507.670404 578.673281 507.904779 
Q 578.448281 508.139154 578.448281 508.748529 
L 578.448281 509.327904 
L 580.223906 509.327904 
L 580.223906 510.166029 
L 578.448281 510.166029 
L 578.448281 515.890404 
L 577.364531 515.890404 
L 577.364531 510.166029 
L 576.333281 510.166029 
L 576.333281 509.327904 
L 577.364531 509.327904 
L 577.364531 508.870404 
Q 577.364531 507.775404 577.874531 507.274779 
Q 578.384531 506.772279 579.490781 506.772279 
L 580.510781 506.772279 
z
M 581.412891 506.772279 
L 582.491016 506.772279 
L 582.491016 515.890404 
L 581.412891 515.890404 
L 581.412891 506.772279 
z
M 587.73 512.592279 
Q 586.423125 512.592279 585.91875 512.890404 
Q 585.414375 513.188529 585.414375 513.910404 
Q 585.414375 514.484154 585.793125 514.821654 
Q 586.171875 515.157279 586.820625 515.157279 
Q 587.71875 515.157279 588.260625 514.521654 
Q 588.8025 513.886029 588.8025 512.832279 
L 588.8025 512.592279 
L 587.73 512.592279 
z
M 589.880625 512.146029 
L 589.880625 515.890404 
L 588.8025 515.890404 
L 588.8025 514.894779 
Q 588.433125 515.491029 587.881875 515.776029 
Q 587.330625 516.061029 586.53375 516.061029 
Q 585.526875 516.061029 584.930625 515.494779 
Q 584.33625 514.928529 584.33625 513.979779 
Q 584.33625 512.873529 585.076875 512.311029 
Q 585.819375 511.748529 587.289375 511.748529 
L 588.8025 511.748529 
L 588.8025 511.641654 
Q 588.8025 510.897279 588.313125 510.490404 
Q 587.82375 510.083529 586.93875 510.083529 
Q 586.37625 510.083529 585.841875 510.218529 
Q 585.309375 510.353529 584.818125 510.623529 
L 584.818125 509.626029 
Q 585.40875 509.397279 585.965625 509.284779 
Q 586.5225 509.170404 587.049375 509.170404 
Q 588.474375 509.170404 589.1775 509.909154 
Q 589.880625 510.646029 589.880625 512.146029 
z
M 597.209766 510.587904 
Q 597.614766 509.860404 598.177266 509.515404 
Q 598.739766 509.170404 599.501016 509.170404 
Q 600.526641 509.170404 601.083516 509.888529 
Q 601.640391 510.604779 601.640391 511.928529 
L 601.640391 515.890404 
L 600.556641 515.890404 
L 600.556641 511.964154 
Q 600.556641 511.021029 600.221016 510.565404 
Q 599.887266 510.107904 599.202891 510.107904 
Q 598.364766 510.107904 597.877266 510.664779 
Q 597.391641 511.219779 597.391641 512.181654 
L 597.391641 515.890404 
L 596.307891 515.890404 
L 596.307891 511.964154 
Q 596.307891 511.015404 595.974141 510.561654 
Q 595.640391 510.107904 594.942891 510.107904 
Q 594.116016 510.107904 593.628516 510.666654 
Q 593.142891 511.225404 593.142891 512.181654 
L 593.142891 515.890404 
L 592.059141 515.890404 
L 592.059141 509.327904 
L 593.142891 509.327904 
L 593.142891 510.347904 
Q 593.512266 509.744154 594.027891 509.457279 
Q 594.543516 509.170404 595.252266 509.170404 
Q 595.968516 509.170404 596.469141 509.534154 
Q 596.969766 509.896029 597.209766 510.587904 
z
M 608.899219 510.587904 
Q 609.304219 509.860404 609.866719 509.515404 
Q 610.429219 509.170404 611.190469 509.170404 
Q 612.216094 509.170404 612.772969 509.888529 
Q 613.329844 510.604779 613.329844 511.928529 
L 613.329844 515.890404 
L 612.246094 515.890404 
L 612.246094 511.964154 
Q 612.246094 511.021029 611.910469 510.565404 
Q 611.576719 510.107904 610.892344 510.107904 
Q 610.054219 510.107904 609.566719 510.664779 
Q 609.081094 511.219779 609.081094 512.181654 
L 609.081094 515.890404 
L 607.997344 515.890404 
L 607.997344 511.964154 
Q 607.997344 511.015404 607.663594 510.561654 
Q 607.329844 510.107904 606.632344 510.107904 
Q 605.805469 510.107904 605.317969 510.666654 
Q 604.832344 511.225404 604.832344 512.181654 
L 604.832344 515.890404 
L 603.748594 515.890404 
L 603.748594 509.327904 
L 604.832344 509.327904 
L 604.832344 510.347904 
Q 605.201719 509.744154 605.717344 509.457279 
Q 606.232969 509.170404 606.941719 509.170404 
Q 607.657969 509.170404 608.158594 509.534154 
Q 608.659219 509.896029 608.899219 510.587904 
z
M 618.462422 512.592279 
Q 617.155547 512.592279 616.651172 512.890404 
Q 616.146797 513.188529 616.146797 513.910404 
Q 616.146797 514.484154 616.525547 514.821654 
Q 616.904297 515.157279 617.553047 515.157279 
Q 618.451172 515.157279 618.993047 514.521654 
Q 619.534922 513.886029 619.534922 512.832279 
L 619.534922 512.592279 
L 618.462422 512.592279 
z
M 620.613047 512.146029 
L 620.613047 515.890404 
L 619.534922 515.890404 
L 619.534922 514.894779 
Q 619.165547 515.491029 618.614297 515.776029 
Q 618.063047 516.061029 617.266172 516.061029 
Q 616.259297 516.061029 615.663047 515.494779 
Q 615.068672 514.928529 615.068672 513.979779 
Q 615.068672 512.873529 615.809297 512.311029 
Q 616.551797 511.748529 618.021797 511.748529 
L 619.534922 511.748529 
L 619.534922 511.641654 
Q 619.534922 510.897279 619.045547 510.490404 
Q 618.556172 510.083529 617.671172 510.083529 
Q 617.108672 510.083529 616.574297 510.218529 
Q 616.041797 510.353529 615.550547 510.623529 
L 615.550547 509.626029 
Q 616.141172 509.397279 616.698047 509.284779 
Q 617.254922 509.170404 617.781797 509.170404 
Q 619.206797 509.170404 619.909922 509.909154 
Q 620.613047 510.646029 620.613047 512.146029 
z
M 623.899687 507.464154 
L 623.899687 509.327904 
L 626.119687 509.327904 
L 626.119687 510.166029 
L 623.899687 510.166029 
L 623.899687 513.728529 
Q 623.899687 514.531029 624.119062 514.759779 
Q 624.338437 514.988529 625.013437 514.988529 
L 626.119687 514.988529 
L 626.119687 515.890404 
L 625.013437 515.890404 
Q 623.764687 515.890404 623.290312 515.425404 
Q 622.815937 514.958529 622.815937 513.728529 
L 622.815937 510.166029 
L 622.024687 510.166029 
L 622.024687 509.327904 
L 622.815937 509.327904 
L 622.815937 507.464154 
L 623.899687 507.464154 
z
M 627.537891 509.327904 
L 628.616016 509.327904 
L 628.616016 515.890404 
L 627.537891 515.890404 
L 627.537891 509.327904 
z
M 627.537891 506.772279 
L 628.616016 506.772279 
L 628.616016 508.139154 
L 627.537891 508.139154 
L 627.537891 506.772279 
z
M 633.414375 510.083529 
Q 632.548125 510.083529 632.04375 510.760404 
Q 631.539375 511.437279 631.539375 512.614779 
Q 631.539375 513.792279 632.04 514.469154 
Q 632.5425 515.146029 633.414375 515.146029 
Q 634.276875 515.146029 634.779375 514.467279 
Q 635.28375 513.786654 635.28375 512.614779 
Q 635.28375 511.448529 634.779375 510.766029 
Q 634.276875 510.083529 633.414375 510.083529 
z
M 633.414375 509.170404 
Q 634.820625 509.170404 635.623125 510.085404 
Q 636.4275 510.998529 636.4275 512.614779 
Q 636.4275 514.225404 635.623125 515.144154 
Q 634.820625 516.061029 633.414375 516.061029 
Q 632.0025 516.061029 631.201875 515.144154 
Q 630.403125 514.225404 630.403125 512.614779 
Q 630.403125 510.998529 631.201875 510.085404 
Q 632.0025 509.170404 633.414375 509.170404 
z
M 643.669922 511.928529 
L 643.669922 515.890404 
L 642.591797 515.890404 
L 642.591797 511.964154 
Q 642.591797 511.032279 642.228047 510.571029 
Q 641.864297 510.107904 641.138672 510.107904 
Q 640.264922 510.107904 639.760547 510.664779 
Q 639.256172 511.219779 639.256172 512.181654 
L 639.256172 515.890404 
L 638.172422 515.890404 
L 638.172422 509.327904 
L 639.256172 509.327904 
L 639.256172 510.347904 
Q 639.644297 509.755404 640.167422 509.462904 
Q 640.692422 509.170404 641.378672 509.170404 
Q 642.509297 509.170404 643.088672 509.869779 
Q 643.669922 510.569154 643.669922 511.928529 
z
" clip-path="url(#pfdedf7dee7)" style="fill: #ffffff"/>
    <path d="M 573.930938 528.079029 
L 573.930938 525.729654 
L 571.997813 525.729654 
L 571.997813 524.756529 
L 575.102813 524.756529 
L 575.102813 528.514029 
Q 574.418437 528.999654 573.591563 529.249029 
Q 572.766562 529.498404 571.829062 529.498404 
Q 569.777812 529.498404 568.619063 528.300279 
Q 567.462188 527.100279 567.462188 524.962779 
Q 567.462188 522.817779 568.619063 521.619654 
Q 569.777812 520.421529 571.829062 520.421529 
Q 572.684062 520.421529 573.454687 520.633404 
Q 574.225312 520.843404 574.875937 521.254029 
L 574.875937 522.514029 
Q 574.219687 521.957154 573.480937 521.675904 
Q 572.742188 521.394654 571.928437 521.394654 
Q 570.321563 521.394654 569.515313 522.290904 
Q 568.710938 523.187154 568.710938 524.962779 
Q 568.710938 526.732779 569.515313 527.629029 
Q 570.321563 528.525279 571.928437 528.525279 
Q 572.554688 528.525279 573.045938 528.416529 
Q 573.539062 528.307779 573.930938 528.079029 
z
M 580.816641 521.381529 
Q 579.526641 521.381529 578.767266 522.343404 
Q 578.009766 523.303404 578.009766 524.962779 
Q 578.009766 526.614654 578.767266 527.576529 
Q 579.526641 528.536529 580.816641 528.536529 
Q 582.104766 528.536529 582.858516 527.576529 
Q 583.612266 526.614654 583.612266 524.962779 
Q 583.612266 523.303404 582.858516 522.343404 
Q 582.104766 521.381529 580.816641 521.381529 
z
M 580.816641 520.421529 
Q 582.656016 520.421529 583.756641 521.655279 
Q 584.859141 522.889029 584.859141 524.962779 
Q 584.859141 527.030904 583.756641 528.264654 
Q 582.656016 529.498404 580.816641 529.498404 
Q 578.971641 529.498404 577.865391 528.268404 
Q 576.761016 527.036529 576.761016 524.962779 
Q 576.761016 522.889029 577.865391 521.655279 
Q 578.971641 520.421529 580.816641 520.421529 
z
M 586.729453 527.839029 
L 587.965078 527.839029 
L 587.965078 529.327779 
L 586.729453 529.327779 
L 586.729453 527.839029 
z
M 586.729453 523.123404 
L 587.965078 523.123404 
L 587.965078 524.610279 
L 586.729453 524.610279 
L 586.729453 523.123404 
z
M 593.179922 521.359029 
Q 592.266797 521.359029 591.805547 522.259029 
Q 591.346172 523.157154 591.346172 524.962779 
Q 591.346172 526.760904 591.805547 527.660904 
Q 592.266797 528.560904 593.179922 528.560904 
Q 594.100547 528.560904 594.559922 527.660904 
Q 595.021172 526.760904 595.021172 524.962779 
Q 595.021172 523.157154 594.559922 522.259029 
Q 594.100547 521.359029 593.179922 521.359029 
z
M 593.179922 520.421529 
Q 594.651797 520.421529 595.428047 521.585904 
Q 596.204297 522.748404 596.204297 524.962779 
Q 596.204297 527.171529 595.428047 528.335904 
Q 594.651797 529.498404 593.179922 529.498404 
Q 591.709922 529.498404 590.933672 528.335904 
Q 590.157422 527.171529 590.157422 524.962779 
Q 590.157422 522.748404 590.933672 521.585904 
Q 591.709922 520.421529 593.179922 520.421529 
z
M 600.814687 521.359029 
Q 599.901562 521.359029 599.440313 522.259029 
Q 598.980937 523.157154 598.980937 524.962779 
Q 598.980937 526.760904 599.440313 527.660904 
Q 599.901562 528.560904 600.814687 528.560904 
Q 601.735312 528.560904 602.194687 527.660904 
Q 602.655938 526.760904 602.655938 524.962779 
Q 602.655938 523.157154 602.194687 522.259029 
Q 601.735312 521.359029 600.814687 521.359029 
z
M 600.814687 520.421529 
Q 602.286562 520.421529 603.062812 521.585904 
Q 603.839062 522.748404 603.839062 524.962779 
Q 603.839062 527.171529 603.062812 528.335904 
Q 602.286562 529.498404 600.814687 529.498404 
Q 599.344687 529.498404 598.568437 528.335904 
Q 597.792187 527.171529 597.792187 524.962779 
Q 597.792187 522.748404 598.568437 521.585904 
Q 599.344687 520.421529 600.814687 520.421529 
z
M 608.449453 521.359029 
Q 607.536328 521.359029 607.075078 522.259029 
Q 606.615703 523.157154 606.615703 524.962779 
Q 606.615703 526.760904 607.075078 527.660904 
Q 607.536328 528.560904 608.449453 528.560904 
Q 609.370078 528.560904 609.829453 527.660904 
Q 610.290703 526.760904 610.290703 524.962779 
Q 610.290703 523.157154 609.829453 522.259029 
Q 609.370078 521.359029 608.449453 521.359029 
z
M 608.449453 520.421529 
Q 609.921328 520.421529 610.697578 521.585904 
Q 611.473828 522.748404 611.473828 524.962779 
Q 611.473828 527.171529 610.697578 528.335904 
Q 609.921328 529.498404 608.449453 529.498404 
Q 606.979453 529.498404 606.203203 528.335904 
Q 605.426953 527.171529 605.426953 524.962779 
Q 605.426953 522.748404 606.203203 521.585904 
Q 606.979453 520.421529 608.449453 520.421529 
z
M 616.232344 524.482779 
Q 615.435469 524.482779 614.968594 525.028404 
Q 614.503594 525.572154 614.503594 526.520904 
Q 614.503594 527.464029 614.968594 528.013404 
Q 615.435469 528.560904 616.232344 528.560904 
Q 617.029219 528.560904 617.494219 528.013404 
Q 617.959219 527.464029 617.959219 526.520904 
Q 617.959219 525.572154 617.494219 525.028404 
Q 617.029219 524.482779 616.232344 524.482779 
z
M 618.581719 520.772154 
L 618.581719 521.850279 
Q 618.135469 521.640279 617.681719 521.529654 
Q 617.227969 521.417154 616.781719 521.417154 
Q 615.609844 521.417154 614.991094 522.208404 
Q 614.374219 522.999654 614.286094 524.599029 
Q 614.631094 524.089029 615.152344 523.817154 
Q 615.675469 523.545279 616.301719 523.545279 
Q 617.619844 523.545279 618.384844 524.345904 
Q 619.149844 525.144654 619.149844 526.520904 
Q 619.149844 527.869029 618.352969 528.684654 
Q 617.556094 529.498404 616.232344 529.498404 
Q 614.713594 529.498404 613.911094 528.335904 
Q 613.108594 527.171529 613.108594 524.962779 
Q 613.108594 522.889029 614.092969 521.655279 
Q 615.077344 520.421529 616.734844 520.421529 
Q 617.181094 520.421529 617.634844 520.509654 
Q 618.088594 520.597779 618.581719 520.772154 
z
M 621.223359 529.145904 
L 621.223359 528.067779 
Q 621.669609 528.279654 622.125234 528.390279 
Q 622.582734 528.500904 623.023359 528.500904 
Q 624.195234 528.500904 624.812109 527.713404 
Q 625.430859 526.925904 625.518984 525.319029 
Q 625.179609 525.823404 624.656484 526.093404 
Q 624.135234 526.363404 623.503359 526.363404 
Q 622.190859 526.363404 621.425859 525.570279 
Q 620.660859 524.775279 620.660859 523.397154 
Q 620.660859 522.050904 621.457734 521.237154 
Q 622.254609 520.421529 623.578359 520.421529 
Q 625.097109 520.421529 625.895859 521.585904 
Q 626.696484 522.748404 626.696484 524.962779 
Q 626.696484 527.030904 625.713984 528.264654 
Q 624.733359 529.498404 623.075859 529.498404 
Q 622.629609 529.498404 622.172109 529.410279 
Q 621.716484 529.322154 621.223359 529.145904 
z
M 623.578359 525.437154 
Q 624.375234 525.437154 624.840234 524.893404 
Q 625.307109 524.347779 625.307109 523.397154 
Q 625.307109 522.454029 624.840234 521.906529 
Q 624.375234 521.359029 623.578359 521.359029 
Q 622.781484 521.359029 622.316484 521.906529 
Q 621.851484 522.454029 621.851484 523.397154 
Q 621.851484 524.347779 622.316484 524.893404 
Q 622.781484 525.437154 623.578359 525.437154 
z
M 628.835625 520.579029 
L 633.481875 520.579029 
L 633.481875 521.576529 
L 629.919375 521.576529 
L 629.919375 523.719654 
Q 630.17625 523.631529 630.433125 523.588404 
Q 630.691875 523.545279 630.950625 523.545279 
Q 632.415 523.545279 633.27 524.347779 
Q 634.126875 525.150279 634.126875 526.520904 
Q 634.126875 527.932779 633.2475 528.716529 
Q 632.368125 529.498404 630.76875 529.498404 
Q 630.2175 529.498404 629.645625 529.404654 
Q 629.075625 529.310904 628.46625 529.123404 
L 628.46625 527.932779 
Q 628.993125 528.219654 629.555625 528.360279 
Q 630.118125 528.500904 630.744375 528.500904 
Q 631.75875 528.500904 632.349375 527.968404 
Q 632.941875 527.435904 632.941875 526.520904 
Q 632.941875 525.607779 632.349375 525.075279 
Q 631.75875 524.540904 630.744375 524.540904 
Q 630.27 524.540904 629.7975 524.645904 
Q 629.326875 524.750904 628.835625 524.974029 
L 628.835625 520.579029 
z
M 639.710391 521.610279 
L 636.721641 526.280904 
L 639.710391 526.280904 
L 639.710391 521.610279 
z
M 639.399141 520.579029 
L 640.887891 520.579029 
L 640.887891 526.280904 
L 642.136641 526.280904 
L 642.136641 527.265279 
L 640.887891 527.265279 
L 640.887891 529.327779 
L 639.710391 529.327779 
L 639.710391 527.265279 
L 635.761641 527.265279 
L 635.761641 526.123404 
L 639.399141 520.579029 
z
" clip-path="url(#pfdedf7dee7)" style="fill: #ffffff; stroke: #000000; stroke-width: 2"/>
    <path d="M 573.930938 528.079029 
L 573.930938 525.729654 
L 571.997813 525.729654 
L 571.997813 524.756529 
L 575.102813 524.756529 
L 575.102813 528.514029 
Q 574.418437 528.999654 573.591563 529.249029 
Q 572.766562 529.498404 571.829062 529.498404 
Q 569.777812 529.498404 568.619063 528.300279 
Q 567.462188 527.100279 567.462188 524.962779 
Q 567.462188 522.817779 568.619063 521.619654 
Q 569.777812 520.421529 571.829062 520.421529 
Q 572.684062 520.421529 573.454687 520.633404 
Q 574.225312 520.843404 574.875937 521.254029 
L 574.875937 522.514029 
Q 574.219687 521.957154 573.480937 521.675904 
Q 572.742188 521.394654 571.928437 521.394654 
Q 570.321563 521.394654 569.515313 522.290904 
Q 568.710938 523.187154 568.710938 524.962779 
Q 568.710938 526.732779 569.515313 527.629029 
Q 570.321563 528.525279 571.928437 528.525279 
Q 572.554688 528.525279 573.045938 528.416529 
Q 573.539062 528.307779 573.930938 528.079029 
z
M 580.816641 521.381529 
Q 579.526641 521.381529 578.767266 522.343404 
Q 578.009766 523.303404 578.009766 524.962779 
Q 578.009766 526.614654 578.767266 527.576529 
Q 579.526641 528.536529 580.816641 528.536529 
Q 582.104766 528.536529 582.858516 527.576529 
Q 583.612266 526.614654 583.612266 524.962779 
Q 583.612266 523.303404 582.858516 522.343404 
Q 582.104766 521.381529 580.816641 521.381529 
z
M 580.816641 520.421529 
Q 582.656016 520.421529 583.756641 521.655279 
Q 584.859141 522.889029 584.859141 524.962779 
Q 584.859141 527.030904 583.756641 528.264654 
Q 582.656016 529.498404 580.816641 529.498404 
Q 578.971641 529.498404 577.865391 528.268404 
Q 576.761016 527.036529 576.761016 524.962779 
Q 576.761016 522.889029 577.865391 521.655279 
Q 578.971641 520.421529 580.816641 520.421529 
z
M 586.729453 527.839029 
L 587.965078 527.839029 
L 587.965078 529.327779 
L 586.729453 529.327779 
L 586.729453 527.839029 
z
M 586.729453 523.123404 
L 587.965078 523.123404 
L 587.965078 524.610279 
L 586.729453 524.610279 
L 586.729453 523.123404 
z
M 593.179922 521.359029 
Q 592.266797 521.359029 591.805547 522.259029 
Q 591.346172 523.157154 591.346172 524.962779 
Q 591.346172 526.760904 591.805547 527.660904 
Q 592.266797 528.560904 593.179922 528.560904 
Q 594.100547 528.560904 594.559922 527.660904 
Q 595.021172 526.760904 595.021172 524.962779 
Q 595.021172 523.157154 594.559922 522.259029 
Q 594.100547 521.359029 593.179922 521.359029 
z
M 593.179922 520.421529 
Q 594.651797 520.421529 595.428047 521.585904 
Q 596.204297 522.748404 596.204297 524.962779 
Q 596.204297 527.171529 595.428047 528.335904 
Q 594.651797 529.498404 593.179922 529.498404 
Q 591.709922 529.498404 590.933672 528.335904 
Q 590.157422 527.171529 590.157422 524.962779 
Q 590.157422 522.748404 590.933672 521.585904 
Q 591.709922 520.421529 593.179922 520.421529 
z
M 600.814687 521.359029 
Q 599.901562 521.359029 599.440313 522.259029 
Q 598.980937 523.157154 598.980937 524.962779 
Q 598.980937 526.760904 599.440313 527.660904 
Q 599.901562 528.560904 600.814687 528.560904 
Q 601.735312 528.560904 602.194687 527.660904 
Q 602.655938 526.760904 602.655938 524.962779 
Q 602.655938 523.157154 602.194687 522.259029 
Q 601.735312 521.359029 600.814687 521.359029 
z
M 600.814687 520.421529 
Q 602.286562 520.421529 603.062812 521.585904 
Q 603.839062 522.748404 603.839062 524.962779 
Q 603.839062 527.171529 603.062812 528.335904 
Q 602.286562 529.498404 600.814687 529.498404 
Q 599.344687 529.498404 598.568437 528.335904 
Q 597.792187 527.171529 597.792187 524.962779 
Q 597.792187 522.748404 598.568437 521.585904 
Q 599.344687 520.421529 600.814687 520.421529 
z
M 608.449453 521.359029 
Q 607.536328 521.359029 607.075078 522.259029 
Q 606.615703 523.157154 606.615703 524.962779 
Q 606.615703 526.760904 607.075078 527.660904 
Q 607.536328 528.560904 608.449453 528.560904 
Q 609.370078 528.560904 609.829453 527.660904 
Q 610.290703 526.760904 610.290703 524.962779 
Q 610.290703 523.157154 609.829453 522.259029 
Q 609.370078 521.359029 608.449453 521.359029 
z
M 608.449453 520.421529 
Q 609.921328 520.421529 610.697578 521.585904 
Q 611.473828 522.748404 611.473828 524.962779 
Q 611.473828 527.171529 610.697578 528.335904 
Q 609.921328 529.498404 608.449453 529.498404 
Q 606.979453 529.498404 606.203203 528.335904 
Q 605.426953 527.171529 605.426953 524.962779 
Q 605.426953 522.748404 606.203203 521.585904 
Q 606.979453 520.421529 608.449453 520.421529 
z
M 616.232344 524.482779 
Q 615.435469 524.482779 614.968594 525.028404 
Q 614.503594 525.572154 614.503594 526.520904 
Q 614.503594 527.464029 614.968594 528.013404 
Q 615.435469 528.560904 616.232344 528.560904 
Q 617.029219 528.560904 617.494219 528.013404 
Q 617.959219 527.464029 617.959219 526.520904 
Q 617.959219 525.572154 617.494219 525.028404 
Q 617.029219 524.482779 616.232344 524.482779 
z
M 618.581719 520.772154 
L 618.581719 521.850279 
Q 618.135469 521.640279 617.681719 521.529654 
Q 617.227969 521.417154 616.781719 521.417154 
Q 615.609844 521.417154 614.991094 522.208404 
Q 614.374219 522.999654 614.286094 524.599029 
Q 614.631094 524.089029 615.152344 523.817154 
Q 615.675469 523.545279 616.301719 523.545279 
Q 617.619844 523.545279 618.384844 524.345904 
Q 619.149844 525.144654 619.149844 526.520904 
Q 619.149844 527.869029 618.352969 528.684654 
Q 617.556094 529.498404 616.232344 529.498404 
Q 614.713594 529.498404 613.911094 528.335904 
Q 613.108594 527.171529 613.108594 524.962779 
Q 613.108594 522.889029 614.092969 521.655279 
Q 615.077344 520.421529 616.734844 520.421529 
Q 617.181094 520.421529 617.634844 520.509654 
Q 618.088594 520.597779 618.581719 520.772154 
z
M 621.223359 529.145904 
L 621.223359 528.067779 
Q 621.669609 528.279654 622.125234 528.390279 
Q 622.582734 528.500904 623.023359 528.500904 
Q 624.195234 528.500904 624.812109 527.713404 
Q 625.430859 526.925904 625.518984 525.319029 
Q 625.179609 525.823404 624.656484 526.093404 
Q 624.135234 526.363404 623.503359 526.363404 
Q 622.190859 526.363404 621.425859 525.570279 
Q 620.660859 524.775279 620.660859 523.397154 
Q 620.660859 522.050904 621.457734 521.237154 
Q 622.254609 520.421529 623.578359 520.421529 
Q 625.097109 520.421529 625.895859 521.585904 
Q 626.696484 522.748404 626.696484 524.962779 
Q 626.696484 527.030904 625.713984 528.264654 
Q 624.733359 529.498404 623.075859 529.498404 
Q 622.629609 529.498404 622.172109 529.410279 
Q 621.716484 529.322154 621.223359 529.145904 
z
M 623.578359 525.437154 
Q 624.375234 525.437154 624.840234 524.893404 
Q 625.307109 524.347779 625.307109 523.397154 
Q 625.307109 522.454029 624.840234 521.906529 
Q 624.375234 521.359029 623.578359 521.359029 
Q 622.781484 521.359029 622.316484 521.906529 
Q 621.851484 522.454029 621.851484 523.397154 
Q 621.851484 524.347779 622.316484 524.893404 
Q 622.781484 525.437154 623.578359 525.437154 
z
M 628.835625 520.579029 
L 633.481875 520.579029 
L 633.481875 521.576529 
L 629.919375 521.576529 
L 629.919375 523.719654 
Q 630.17625 523.631529 630.433125 523.588404 
Q 630.691875 523.545279 630.950625 523.545279 
Q 632.415 523.545279 633.27 524.347779 
Q 634.126875 525.150279 634.126875 526.520904 
Q 634.126875 527.932779 633.2475 528.716529 
Q 632.368125 529.498404 630.76875 529.498404 
Q 630.2175 529.498404 629.645625 529.404654 
Q 629.075625 529.310904 628.46625 529.123404 
L 628.46625 527.932779 
Q 628.993125 528.219654 629.555625 528.360279 
Q 630.118125 528.500904 630.744375 528.500904 
Q 631.75875 528.500904 632.349375 527.968404 
Q 632.941875 527.435904 632.941875 526.520904 
Q 632.941875 525.607779 632.349375 525.075279 
Q 631.75875 524.540904 630.744375 524.540904 
Q 630.27 524.540904 629.7975 524.645904 
Q 629.326875 524.750904 628.835625 524.974029 
L 628.835625 520.579029 
z
M 639.710391 521.610279 
L 636.721641 526.280904 
L 639.710391 526.280904 
L 639.710391 521.610279 
z
M 639.399141 520.579029 
L 640.887891 520.579029 
L 640.887891 526.280904 
L 642.136641 526.280904 
L 642.136641 527.265279 
L 640.887891 527.265279 
L 640.887891 529.327779 
L 639.710391 529.327779 
L 639.710391 527.265279 
L 635.761641 527.265279 
L 635.761641 526.123404 
L 639.399141 520.579029 
z
" clip-path="url(#pfdedf7dee7)" style="fill: #ffffff"/>
    <path d="M 555.49125 538.587654 
L 555.49125 541.792029 
L 557.390625 541.792029 
Q 558.345 541.792029 558.804375 541.396404 
Q 559.265625 541.000779 559.265625 540.187029 
Q 559.265625 539.365779 558.804375 538.977654 
Q 558.345 538.587654 557.390625 538.587654 
L 555.49125 538.587654 
z
M 555.49125 534.989529 
L 555.49125 537.625779 
L 557.244375 537.625779 
Q 558.110625 537.625779 558.534375 537.301404 
Q 558.96 536.975154 558.96 536.307654 
Q 558.96 535.645779 558.534375 535.317654 
Q 558.110625 534.989529 557.244375 534.989529 
L 555.49125 534.989529 
z
M 554.308125 534.016404 
L 557.3325 534.016404 
Q 558.68625 534.016404 559.4175 534.578904 
Q 560.150625 535.141404 560.150625 536.178279 
Q 560.150625 536.982654 559.775625 537.457029 
Q 559.400625 537.931404 558.673125 538.047654 
Q 559.546875 538.235154 560.030625 538.831404 
Q 560.514375 539.425779 560.514375 540.316404 
Q 560.514375 541.488279 559.7175 542.127654 
Q 558.920625 542.765154 557.44875 542.765154 
L 554.308125 542.765154 
L 554.308125 534.016404 
z
M 562.493672 536.202654 
L 563.571797 536.202654 
L 563.571797 542.765154 
L 562.493672 542.765154 
L 562.493672 536.202654 
z
M 562.493672 533.647029 
L 563.571797 533.647029 
L 563.571797 535.013904 
L 562.493672 535.013904 
L 562.493672 533.647029 
z
M 568.370156 536.958279 
Q 567.503906 536.958279 566.999531 537.635154 
Q 566.495156 538.312029 566.495156 539.489529 
Q 566.495156 540.667029 566.995781 541.343904 
Q 567.498281 542.020779 568.370156 542.020779 
Q 569.232656 542.020779 569.735156 541.342029 
Q 570.239531 540.661404 570.239531 539.489529 
Q 570.239531 538.323279 569.735156 537.640779 
Q 569.232656 536.958279 568.370156 536.958279 
z
M 568.370156 536.045154 
Q 569.776406 536.045154 570.578906 536.960154 
Q 571.383281 537.873279 571.383281 539.489529 
Q 571.383281 541.100154 570.578906 542.018904 
Q 569.776406 542.935779 568.370156 542.935779 
Q 566.958281 542.935779 566.157656 542.018904 
Q 565.358906 541.100154 565.358906 539.489529 
Q 565.358906 537.873279 566.157656 536.960154 
Q 566.958281 536.045154 568.370156 536.045154 
z
M 573.169453 533.647029 
L 574.247578 533.647029 
L 574.247578 542.765154 
L 573.169453 542.765154 
L 573.169453 533.647029 
z
M 579.045938 536.958279 
Q 578.179688 536.958279 577.675313 537.635154 
Q 577.170938 538.312029 577.170938 539.489529 
Q 577.170938 540.667029 577.671563 541.343904 
Q 578.174062 542.020779 579.045938 542.020779 
Q 579.908437 542.020779 580.410938 541.342029 
Q 580.915313 540.661404 580.915313 539.489529 
Q 580.915313 538.323279 580.410938 537.640779 
Q 579.908437 536.958279 579.045938 536.958279 
z
M 579.045938 536.045154 
Q 580.452188 536.045154 581.254688 536.960154 
Q 582.059062 537.873279 582.059062 539.489529 
Q 582.059062 541.100154 581.254688 542.018904 
Q 580.452188 542.935779 579.045938 542.935779 
Q 577.634063 542.935779 576.833438 542.018904 
Q 576.034688 541.100154 576.034688 539.489529 
Q 576.034688 537.873279 576.833438 536.960154 
Q 577.634063 536.045154 579.045938 536.045154 
z
M 588.163359 539.407029 
Q 588.163359 538.235154 587.679609 537.592029 
Q 587.197734 536.947029 586.323984 536.947029 
Q 585.457734 536.947029 584.973984 537.592029 
Q 584.490234 538.235154 584.490234 539.407029 
Q 584.490234 540.573279 584.973984 541.218279 
Q 585.457734 541.863279 586.323984 541.863279 
Q 587.197734 541.863279 587.679609 541.218279 
Q 588.163359 540.573279 588.163359 539.407029 
z
M 589.241484 541.951404 
Q 589.241484 543.625779 588.497109 544.443279 
Q 587.754609 545.260779 586.218984 545.260779 
Q 585.650859 545.260779 585.146484 545.176404 
Q 584.642109 545.092029 584.167734 544.915779 
L 584.167734 543.867654 
Q 584.642109 544.124529 585.105234 544.246404 
Q 585.568359 544.370154 586.048359 544.370154 
Q 587.109609 544.370154 587.636484 543.817029 
Q 588.163359 543.263904 588.163359 542.144529 
L 588.163359 541.610154 
Q 587.829609 542.191404 587.308359 542.478279 
Q 586.787109 542.765154 586.059609 542.765154 
Q 584.853984 542.765154 584.115234 541.846404 
Q 583.376484 540.925779 583.376484 539.407029 
Q 583.376484 537.884529 584.115234 536.965779 
Q 584.853984 536.045154 586.059609 536.045154 
Q 586.787109 536.045154 587.308359 536.332029 
Q 587.829609 536.618904 588.163359 537.198279 
L 588.163359 536.202654 
L 589.241484 536.202654 
L 589.241484 541.951404 
z
M 591.462422 536.202654 
L 592.540547 536.202654 
L 592.540547 542.765154 
L 591.462422 542.765154 
L 591.462422 536.202654 
z
M 591.462422 533.647029 
L 592.540547 533.647029 
L 592.540547 535.013904 
L 591.462422 535.013904 
L 591.462422 533.647029 
z
M 599.519531 536.453904 
L 599.519531 537.462654 
Q 599.062031 537.209529 598.602656 537.083904 
Q 598.143281 536.958279 597.674531 536.958279 
Q 596.624531 536.958279 596.043281 537.623904 
Q 595.463906 538.287654 595.463906 539.489529 
Q 595.463906 540.691404 596.043281 541.357029 
Q 596.624531 542.020779 597.674531 542.020779 
Q 598.143281 542.020779 598.602656 541.895154 
Q 599.062031 541.769529 599.519531 541.516404 
L 599.519531 542.513904 
Q 599.067656 542.723904 598.583906 542.828904 
Q 598.102031 542.935779 597.556406 542.935779 
Q 596.073281 542.935779 595.199531 542.003904 
Q 594.327656 541.072029 594.327656 539.489529 
Q 594.327656 537.884529 595.208906 536.965779 
Q 596.092031 536.045154 597.627656 536.045154 
Q 598.124531 536.045154 598.598906 536.148279 
Q 599.073281 536.249529 599.519531 536.453904 
z
M 604.377187 539.467029 
Q 603.070312 539.467029 602.565938 539.765154 
Q 602.061563 540.063279 602.061563 540.785154 
Q 602.061563 541.358904 602.440313 541.696404 
Q 602.819062 542.032029 603.467813 542.032029 
Q 604.365937 542.032029 604.907812 541.396404 
Q 605.449687 540.760779 605.449687 539.707029 
L 605.449687 539.467029 
L 604.377187 539.467029 
z
M 606.527812 539.020779 
L 606.527812 542.765154 
L 605.449687 542.765154 
L 605.449687 541.769529 
Q 605.080312 542.365779 604.529063 542.650779 
Q 603.977813 542.935779 603.180938 542.935779 
Q 602.174062 542.935779 601.577813 542.369529 
Q 600.983438 541.803279 600.983438 540.854529 
Q 600.983438 539.748279 601.724063 539.185779 
Q 602.466563 538.623279 603.936563 538.623279 
L 605.449687 538.623279 
L 605.449687 538.516404 
Q 605.449687 537.772029 604.960312 537.365154 
Q 604.470937 536.958279 603.585938 536.958279 
Q 603.023438 536.958279 602.489063 537.093279 
Q 601.956563 537.228279 601.465312 537.498279 
L 601.465312 536.500779 
Q 602.055938 536.272029 602.612813 536.159529 
Q 603.169688 536.045154 603.696563 536.045154 
Q 605.121562 536.045154 605.824687 536.783904 
Q 606.527812 537.520779 606.527812 539.020779 
z
M 608.747578 533.647029 
L 609.825703 533.647029 
L 609.825703 542.765154 
L 608.747578 542.765154 
L 608.747578 533.647029 
z
M 613.311563 534.989529 
L 613.311563 538.276404 
L 614.800313 538.276404 
Q 615.627187 538.276404 616.077188 537.848904 
Q 616.529063 537.421404 616.529063 536.630154 
Q 616.529063 535.844529 616.077188 535.417029 
Q 615.627187 534.989529 614.800313 534.989529 
L 613.311563 534.989529 
z
M 612.128438 534.016404 
L 614.800313 534.016404 
Q 616.272187 534.016404 617.024063 534.682029 
Q 617.777812 535.347654 617.777812 536.630154 
Q 617.777812 537.925779 617.024063 538.587654 
Q 616.272187 539.249529 614.800313 539.249529 
L 613.311563 539.249529 
L 613.311563 542.765154 
L 612.128438 542.765154 
L 612.128438 534.016404 
z
M 622.910391 537.209529 
Q 622.728516 537.104529 622.514766 537.055779 
Q 622.301016 537.005154 622.044141 537.005154 
Q 621.129141 537.005154 620.639766 537.599529 
Q 620.150391 538.193904 620.150391 539.307654 
L 620.150391 542.765154 
L 619.066641 542.765154 
L 619.066641 536.202654 
L 620.150391 536.202654 
L 620.150391 537.222654 
Q 620.491641 536.624529 621.035391 536.335779 
Q 621.581016 536.045154 622.361016 536.045154 
Q 622.471641 536.045154 622.606641 536.060154 
Q 622.741641 536.073279 622.904766 536.103279 
L 622.910391 537.209529 
z
M 626.313984 536.958279 
Q 625.447734 536.958279 624.943359 537.635154 
Q 624.438984 538.312029 624.438984 539.489529 
Q 624.438984 540.667029 624.939609 541.343904 
Q 625.442109 542.020779 626.313984 542.020779 
Q 627.176484 542.020779 627.678984 541.342029 
Q 628.183359 540.661404 628.183359 539.489529 
Q 628.183359 538.323279 627.678984 537.640779 
Q 627.176484 536.958279 626.313984 536.958279 
z
M 626.313984 536.045154 
Q 627.720234 536.045154 628.522734 536.960154 
Q 629.327109 537.873279 629.327109 539.489529 
Q 629.327109 541.100154 628.522734 542.018904 
Q 627.720234 542.935779 626.313984 542.935779 
Q 624.902109 542.935779 624.101484 542.018904 
Q 623.302734 541.100154 623.302734 539.489529 
Q 623.302734 537.873279 624.101484 536.960154 
Q 624.902109 536.045154 626.313984 536.045154 
z
M 635.836406 536.453904 
L 635.836406 537.462654 
Q 635.378906 537.209529 634.919531 537.083904 
Q 634.460156 536.958279 633.991406 536.958279 
Q 632.941406 536.958279 632.360156 537.623904 
Q 631.780781 538.287654 631.780781 539.489529 
Q 631.780781 540.691404 632.360156 541.357029 
Q 632.941406 542.020779 633.991406 542.020779 
Q 634.460156 542.020779 634.919531 541.895154 
Q 635.378906 541.769529 635.836406 541.516404 
L 635.836406 542.513904 
Q 635.384531 542.723904 634.900781 542.828904 
Q 634.418906 542.935779 633.873281 542.935779 
Q 632.390156 542.935779 631.516406 542.003904 
Q 630.644531 541.072029 630.644531 539.489529 
Q 630.644531 537.884529 631.525781 536.965779 
Q 632.408906 536.045154 633.944531 536.045154 
Q 634.441406 536.045154 634.915781 536.148279 
Q 635.390156 536.249529 635.836406 536.453904 
z
M 643.324687 539.213904 
L 643.324687 539.740779 
L 638.367188 539.740779 
Q 638.438437 540.854529 639.038437 541.437654 
Q 639.638438 542.020779 640.710938 542.020779 
Q 641.331563 542.020779 641.914688 541.868904 
Q 642.497813 541.717029 643.073437 541.411404 
L 643.073437 542.431404 
Q 642.492188 542.677029 641.882812 542.806404 
Q 641.273438 542.935779 640.647187 542.935779 
Q 639.075938 542.935779 638.159063 542.022654 
Q 637.242188 541.107654 637.242188 539.547654 
Q 637.242188 537.937029 638.112188 536.992029 
Q 638.982188 536.045154 640.459687 536.045154 
Q 641.783437 536.045154 642.554062 536.898279 
Q 643.324687 537.749529 643.324687 539.213904 
z
M 642.246562 538.897029 
Q 642.235312 538.013904 641.751562 537.487029 
Q 641.267812 536.958279 640.470937 536.958279 
Q 639.569062 536.958279 639.027187 537.468279 
Q 638.485312 537.978279 638.402812 538.904529 
L 642.246562 538.897029 
z
M 649.276875 536.395779 
L 649.276875 537.415779 
Q 648.82125 537.181404 648.328125 537.065154 
Q 647.836875 536.947029 647.308125 536.947029 
Q 646.505625 536.947029 646.104375 537.192654 
Q 645.703125 537.438279 645.703125 537.931404 
Q 645.703125 538.306404 645.99 538.520154 
Q 646.276875 538.733904 647.145 538.927029 
L 647.514375 539.009529 
Q 648.661875 539.255154 649.145625 539.703279 
Q 649.629375 540.151404 649.629375 540.953904 
Q 649.629375 541.868904 648.905625 542.403279 
Q 648.181875 542.935779 646.91625 542.935779 
Q 646.389375 542.935779 645.8175 542.832654 
Q 645.245625 542.729529 644.61375 542.525154 
L 644.61375 541.411404 
Q 645.211875 541.722654 645.79125 541.878279 
Q 646.370625 542.032029 646.940625 542.032029 
Q 647.701875 542.032029 648.110625 541.771404 
Q 648.52125 541.510779 648.52125 541.036404 
Q 648.52125 540.597654 648.225 540.363279 
Q 647.930625 540.128904 646.9275 539.911404 
L 646.5525 539.823279 
Q 645.55125 539.613279 645.105 539.176404 
Q 644.660625 538.739529 644.660625 537.978279 
Q 644.660625 537.052029 645.316875 536.549529 
Q 645.973125 536.045154 647.180625 536.045154 
Q 647.776875 536.045154 648.30375 536.133279 
Q 648.8325 536.219529 649.276875 536.395779 
z
M 655.528828 536.395779 
L 655.528828 537.415779 
Q 655.073203 537.181404 654.580078 537.065154 
Q 654.088828 536.947029 653.560078 536.947029 
Q 652.757578 536.947029 652.356328 537.192654 
Q 651.955078 537.438279 651.955078 537.931404 
Q 651.955078 538.306404 652.241953 538.520154 
Q 652.528828 538.733904 653.396953 538.927029 
L 653.766328 539.009529 
Q 654.913828 539.255154 655.397578 539.703279 
Q 655.881328 540.151404 655.881328 540.953904 
Q 655.881328 541.868904 655.157578 542.403279 
Q 654.433828 542.935779 653.168203 542.935779 
Q 652.641328 542.935779 652.069453 542.832654 
Q 651.497578 542.729529 650.865703 542.525154 
L 650.865703 541.411404 
Q 651.463828 541.722654 652.043203 541.878279 
Q 652.622578 542.032029 653.192578 542.032029 
Q 653.953828 542.032029 654.362578 541.771404 
Q 654.773203 541.510779 654.773203 541.036404 
Q 654.773203 540.597654 654.476953 540.363279 
Q 654.182578 540.128904 653.179453 539.911404 
L 652.804453 539.823279 
Q 651.803203 539.613279 651.356953 539.176404 
Q 650.912578 538.739529 650.912578 537.978279 
Q 650.912578 537.052029 651.568828 536.549529 
Q 652.225078 536.045154 653.432578 536.045154 
Q 654.028828 536.045154 654.555703 536.133279 
Q 655.084453 536.219529 655.528828 536.395779 
z
" clip-path="url(#pfdedf7dee7)" style="fill: #ffffff; stroke: #000000; stroke-width: 2"/>
    <path d="M 555.49125 538.587654 
L 555.49125 541.792029 
L 557.390625 541.792029 
Q 558.345 541.792029 558.804375 541.396404 
Q 559.265625 541.000779 559.265625 540.187029 
Q 559.265625 539.365779 558.804375 538.977654 
Q 558.345 538.587654 557.390625 538.587654 
L 555.49125 538.587654 
z
M 555.49125 534.989529 
L 555.49125 537.625779 
L 557.244375 537.625779 
Q 558.110625 537.625779 558.534375 537.301404 
Q 558.96 536.975154 558.96 536.307654 
Q 558.96 535.645779 558.534375 535.317654 
Q 558.110625 534.989529 557.244375 534.989529 
L 555.49125 534.989529 
z
M 554.308125 534.016404 
L 557.3325 534.016404 
Q 558.68625 534.016404 559.4175 534.578904 
Q 560.150625 535.141404 560.150625 536.178279 
Q 560.150625 536.982654 559.775625 537.457029 
Q 559.400625 537.931404 558.673125 538.047654 
Q 559.546875 538.235154 560.030625 538.831404 
Q 560.514375 539.425779 560.514375 540.316404 
Q 560.514375 541.488279 559.7175 542.127654 
Q 558.920625 542.765154 557.44875 542.765154 
L 554.308125 542.765154 
L 554.308125 534.016404 
z
M 562.493672 536.202654 
L 563.571797 536.202654 
L 563.571797 542.765154 
L 562.493672 542.765154 
L 562.493672 536.202654 
z
M 562.493672 533.647029 
L 563.571797 533.647029 
L 563.571797 535.013904 
L 562.493672 535.013904 
L 562.493672 533.647029 
z
M 568.370156 536.958279 
Q 567.503906 536.958279 566.999531 537.635154 
Q 566.495156 538.312029 566.495156 539.489529 
Q 566.495156 540.667029 566.995781 541.343904 
Q 567.498281 542.020779 568.370156 542.020779 
Q 569.232656 542.020779 569.735156 541.342029 
Q 570.239531 540.661404 570.239531 539.489529 
Q 570.239531 538.323279 569.735156 537.640779 
Q 569.232656 536.958279 568.370156 536.958279 
z
M 568.370156 536.045154 
Q 569.776406 536.045154 570.578906 536.960154 
Q 571.383281 537.873279 571.383281 539.489529 
Q 571.383281 541.100154 570.578906 542.018904 
Q 569.776406 542.935779 568.370156 542.935779 
Q 566.958281 542.935779 566.157656 542.018904 
Q 565.358906 541.100154 565.358906 539.489529 
Q 565.358906 537.873279 566.157656 536.960154 
Q 566.958281 536.045154 568.370156 536.045154 
z
M 573.169453 533.647029 
L 574.247578 533.647029 
L 574.247578 542.765154 
L 573.169453 542.765154 
L 573.169453 533.647029 
z
M 579.045938 536.958279 
Q 578.179688 536.958279 577.675313 537.635154 
Q 577.170938 538.312029 577.170938 539.489529 
Q 577.170938 540.667029 577.671563 541.343904 
Q 578.174062 542.020779 579.045938 542.020779 
Q 579.908437 542.020779 580.410938 541.342029 
Q 580.915313 540.661404 580.915313 539.489529 
Q 580.915313 538.323279 580.410938 537.640779 
Q 579.908437 536.958279 579.045938 536.958279 
z
M 579.045938 536.045154 
Q 580.452188 536.045154 581.254688 536.960154 
Q 582.059062 537.873279 582.059062 539.489529 
Q 582.059062 541.100154 581.254688 542.018904 
Q 580.452188 542.935779 579.045938 542.935779 
Q 577.634063 542.935779 576.833438 542.018904 
Q 576.034688 541.100154 576.034688 539.489529 
Q 576.034688 537.873279 576.833438 536.960154 
Q 577.634063 536.045154 579.045938 536.045154 
z
M 588.163359 539.407029 
Q 588.163359 538.235154 587.679609 537.592029 
Q 587.197734 536.947029 586.323984 536.947029 
Q 585.457734 536.947029 584.973984 537.592029 
Q 584.490234 538.235154 584.490234 539.407029 
Q 584.490234 540.573279 584.973984 541.218279 
Q 585.457734 541.863279 586.323984 541.863279 
Q 587.197734 541.863279 587.679609 541.218279 
Q 588.163359 540.573279 588.163359 539.407029 
z
M 589.241484 541.951404 
Q 589.241484 543.625779 588.497109 544.443279 
Q 587.754609 545.260779 586.218984 545.260779 
Q 585.650859 545.260779 585.146484 545.176404 
Q 584.642109 545.092029 584.167734 544.915779 
L 584.167734 543.867654 
Q 584.642109 544.124529 585.105234 544.246404 
Q 585.568359 544.370154 586.048359 544.370154 
Q 587.109609 544.370154 587.636484 543.817029 
Q 588.163359 543.263904 588.163359 542.144529 
L 588.163359 541.610154 
Q 587.829609 542.191404 587.308359 542.478279 
Q 586.787109 542.765154 586.059609 542.765154 
Q 584.853984 542.765154 584.115234 541.846404 
Q 583.376484 540.925779 583.376484 539.407029 
Q 583.376484 537.884529 584.115234 536.965779 
Q 584.853984 536.045154 586.059609 536.045154 
Q 586.787109 536.045154 587.308359 536.332029 
Q 587.829609 536.618904 588.163359 537.198279 
L 588.163359 536.202654 
L 589.241484 536.202654 
L 589.241484 541.951404 
z
M 591.462422 536.202654 
L 592.540547 536.202654 
L 592.540547 542.765154 
L 591.462422 542.765154 
L 591.462422 536.202654 
z
M 591.462422 533.647029 
L 592.540547 533.647029 
L 592.540547 535.013904 
L 591.462422 535.013904 
L 591.462422 533.647029 
z
M 599.519531 536.453904 
L 599.519531 537.462654 
Q 599.062031 537.209529 598.602656 537.083904 
Q 598.143281 536.958279 597.674531 536.958279 
Q 596.624531 536.958279 596.043281 537.623904 
Q 595.463906 538.287654 595.463906 539.489529 
Q 595.463906 540.691404 596.043281 541.357029 
Q 596.624531 542.020779 597.674531 542.020779 
Q 598.143281 542.020779 598.602656 541.895154 
Q 599.062031 541.769529 599.519531 541.516404 
L 599.519531 542.513904 
Q 599.067656 542.723904 598.583906 542.828904 
Q 598.102031 542.935779 597.556406 542.935779 
Q 596.073281 542.935779 595.199531 542.003904 
Q 594.327656 541.072029 594.327656 539.489529 
Q 594.327656 537.884529 595.208906 536.965779 
Q 596.092031 536.045154 597.627656 536.045154 
Q 598.124531 536.045154 598.598906 536.148279 
Q 599.073281 536.249529 599.519531 536.453904 
z
M 604.377187 539.467029 
Q 603.070312 539.467029 602.565938 539.765154 
Q 602.061563 540.063279 602.061563 540.785154 
Q 602.061563 541.358904 602.440313 541.696404 
Q 602.819062 542.032029 603.467813 542.032029 
Q 604.365937 542.032029 604.907812 541.396404 
Q 605.449687 540.760779 605.449687 539.707029 
L 605.449687 539.467029 
L 604.377187 539.467029 
z
M 606.527812 539.020779 
L 606.527812 542.765154 
L 605.449687 542.765154 
L 605.449687 541.769529 
Q 605.080312 542.365779 604.529063 542.650779 
Q 603.977813 542.935779 603.180938 542.935779 
Q 602.174062 542.935779 601.577813 542.369529 
Q 600.983438 541.803279 600.983438 540.854529 
Q 600.983438 539.748279 601.724063 539.185779 
Q 602.466563 538.623279 603.936563 538.623279 
L 605.449687 538.623279 
L 605.449687 538.516404 
Q 605.449687 537.772029 604.960312 537.365154 
Q 604.470937 536.958279 603.585938 536.958279 
Q 603.023438 536.958279 602.489063 537.093279 
Q 601.956563 537.228279 601.465312 537.498279 
L 601.465312 536.500779 
Q 602.055938 536.272029 602.612813 536.159529 
Q 603.169688 536.045154 603.696563 536.045154 
Q 605.121562 536.045154 605.824687 536.783904 
Q 606.527812 537.520779 606.527812 539.020779 
z
M 608.747578 533.647029 
L 609.825703 533.647029 
L 609.825703 542.765154 
L 608.747578 542.765154 
L 608.747578 533.647029 
z
M 613.311563 534.989529 
L 613.311563 538.276404 
L 614.800313 538.276404 
Q 615.627187 538.276404 616.077188 537.848904 
Q 616.529063 537.421404 616.529063 536.630154 
Q 616.529063 535.844529 616.077188 535.417029 
Q 615.627187 534.989529 614.800313 534.989529 
L 613.311563 534.989529 
z
M 612.128438 534.016404 
L 614.800313 534.016404 
Q 616.272187 534.016404 617.024063 534.682029 
Q 617.777812 535.347654 617.777812 536.630154 
Q 617.777812 537.925779 617.024063 538.587654 
Q 616.272187 539.249529 614.800313 539.249529 
L 613.311563 539.249529 
L 613.311563 542.765154 
L 612.128438 542.765154 
L 612.128438 534.016404 
z
M 622.910391 537.209529 
Q 622.728516 537.104529 622.514766 537.055779 
Q 622.301016 537.005154 622.044141 537.005154 
Q 621.129141 537.005154 620.639766 537.599529 
Q 620.150391 538.193904 620.150391 539.307654 
L 620.150391 542.765154 
L 619.066641 542.765154 
L 619.066641 536.202654 
L 620.150391 536.202654 
L 620.150391 537.222654 
Q 620.491641 536.624529 621.035391 536.335779 
Q 621.581016 536.045154 622.361016 536.045154 
Q 622.471641 536.045154 622.606641 536.060154 
Q 622.741641 536.073279 622.904766 536.103279 
L 622.910391 537.209529 
z
M 626.313984 536.958279 
Q 625.447734 536.958279 624.943359 537.635154 
Q 624.438984 538.312029 624.438984 539.489529 
Q 624.438984 540.667029 624.939609 541.343904 
Q 625.442109 542.020779 626.313984 542.020779 
Q 627.176484 542.020779 627.678984 541.342029 
Q 628.183359 540.661404 628.183359 539.489529 
Q 628.183359 538.323279 627.678984 537.640779 
Q 627.176484 536.958279 626.313984 536.958279 
z
M 626.313984 536.045154 
Q 627.720234 536.045154 628.522734 536.960154 
Q 629.327109 537.873279 629.327109 539.489529 
Q 629.327109 541.100154 628.522734 542.018904 
Q 627.720234 542.935779 626.313984 542.935779 
Q 624.902109 542.935779 624.101484 542.018904 
Q 623.302734 541.100154 623.302734 539.489529 
Q 623.302734 537.873279 624.101484 536.960154 
Q 624.902109 536.045154 626.313984 536.045154 
z
M 635.836406 536.453904 
L 635.836406 537.462654 
Q 635.378906 537.209529 634.919531 537.083904 
Q 634.460156 536.958279 633.991406 536.958279 
Q 632.941406 536.958279 632.360156 537.623904 
Q 631.780781 538.287654 631.780781 539.489529 
Q 631.780781 540.691404 632.360156 541.357029 
Q 632.941406 542.020779 633.991406 542.020779 
Q 634.460156 542.020779 634.919531 541.895154 
Q 635.378906 541.769529 635.836406 541.516404 
L 635.836406 542.513904 
Q 635.384531 542.723904 634.900781 542.828904 
Q 634.418906 542.935779 633.873281 542.935779 
Q 632.390156 542.935779 631.516406 542.003904 
Q 630.644531 541.072029 630.644531 539.489529 
Q 630.644531 537.884529 631.525781 536.965779 
Q 632.408906 536.045154 633.944531 536.045154 
Q 634.441406 536.045154 634.915781 536.148279 
Q 635.390156 536.249529 635.836406 536.453904 
z
M 643.324687 539.213904 
L 643.324687 539.740779 
L 638.367188 539.740779 
Q 638.438437 540.854529 639.038437 541.437654 
Q 639.638438 542.020779 640.710938 542.020779 
Q 641.331563 542.020779 641.914688 541.868904 
Q 642.497813 541.717029 643.073437 541.411404 
L 643.073437 542.431404 
Q 642.492188 542.677029 641.882812 542.806404 
Q 641.273438 542.935779 640.647187 542.935779 
Q 639.075938 542.935779 638.159063 542.022654 
Q 637.242188 541.107654 637.242188 539.547654 
Q 637.242188 537.937029 638.112188 536.992029 
Q 638.982188 536.045154 640.459687 536.045154 
Q 641.783437 536.045154 642.554062 536.898279 
Q 643.324687 537.749529 643.324687 539.213904 
z
M 642.246562 538.897029 
Q 642.235312 538.013904 641.751562 537.487029 
Q 641.267812 536.958279 640.470937 536.958279 
Q 639.569062 536.958279 639.027187 537.468279 
Q 638.485312 537.978279 638.402812 538.904529 
L 642.246562 538.897029 
z
M 649.276875 536.395779 
L 649.276875 537.415779 
Q 648.82125 537.181404 648.328125 537.065154 
Q 647.836875 536.947029 647.308125 536.947029 
Q 646.505625 536.947029 646.104375 537.192654 
Q 645.703125 537.438279 645.703125 537.931404 
Q 645.703125 538.306404 645.99 538.520154 
Q 646.276875 538.733904 647.145 538.927029 
L 647.514375 539.009529 
Q 648.661875 539.255154 649.145625 539.703279 
Q 649.629375 540.151404 649.629375 540.953904 
Q 649.629375 541.868904 648.905625 542.403279 
Q 648.181875 542.935779 646.91625 542.935779 
Q 646.389375 542.935779 645.8175 542.832654 
Q 645.245625 542.729529 644.61375 542.525154 
L 644.61375 541.411404 
Q 645.211875 541.722654 645.79125 541.878279 
Q 646.370625 542.032029 646.940625 542.032029 
Q 647.701875 542.032029 648.110625 541.771404 
Q 648.52125 541.510779 648.52125 541.036404 
Q 648.52125 540.597654 648.225 540.363279 
Q 647.930625 540.128904 646.9275 539.911404 
L 646.5525 539.823279 
Q 645.55125 539.613279 645.105 539.176404 
Q 644.660625 538.739529 644.660625 537.978279 
Q 644.660625 537.052029 645.316875 536.549529 
Q 645.973125 536.045154 647.180625 536.045154 
Q 647.776875 536.045154 648.30375 536.133279 
Q 648.8325 536.219529 649.276875 536.395779 
z
M 655.528828 536.395779 
L 655.528828 537.415779 
Q 655.073203 537.181404 654.580078 537.065154 
Q 654.088828 536.947029 653.560078 536.947029 
Q 652.757578 536.947029 652.356328 537.192654 
Q 651.955078 537.438279 651.955078 537.931404 
Q 651.955078 538.306404 652.241953 538.520154 
Q 652.528828 538.733904 653.396953 538.927029 
L 653.766328 539.009529 
Q 654.913828 539.255154 655.397578 539.703279 
Q 655.881328 540.151404 655.881328 540.953904 
Q 655.881328 541.868904 655.157578 542.403279 
Q 654.433828 542.935779 653.168203 542.935779 
Q 652.641328 542.935779 652.069453 542.832654 
Q 651.497578 542.729529 650.865703 542.525154 
L 650.865703 541.411404 
Q 651.463828 541.722654 652.043203 541.878279 
Q 652.622578 542.032029 653.192578 542.032029 
Q 653.953828 542.032029 654.362578 541.771404 
Q 654.773203 541.510779 654.773203 541.036404 
Q 654.773203 540.597654 654.476953 540.363279 
Q 654.182578 540.128904 653.179453 539.911404 
L 652.804453 539.823279 
Q 651.803203 539.613279 651.356953 539.176404 
Q 650.912578 538.739529 650.912578 537.978279 
Q 650.912578 537.052029 651.568828 536.549529 
Q 652.225078 536.045154 653.432578 536.045154 
Q 654.028828 536.045154 654.555703 536.133279 
Q 655.084453 536.219529 655.528828 536.395779 
z
" clip-path="url(#pfdedf7dee7)" style="fill: #ffffff"/>
   </g>
   <g id="text_6">
    <g clip-path="url(#pfdedf7dee7)">
     <!-- Zinc oxide -->
     <g transform="translate(73.977164 277.873875)scale(0.12 -0.12)">
      <defs>
       <path id="DejaVuSans-5a" d="M 359 4666 
L 4025 4666 
L 4025 4184 
L 1075 531 
L 4097 531 
L 4097 0 
L 288 0 
L 288 481 
L 3238 4134 
L 359 4134 
L 359 4666 
z
" transform="scale(0.015625)"/>
       <path id="DejaVuSans-78" d="M 3513 3500 
L 2247 1797 
L 3578 0 
L 2900 0 
L 1881 1375 
L 863 0 
L 184 0 
L 1544 1831 
L 300 3500 
L 978 3500 
L 1906 2253 
L 2834 3500 
L 3513 3500 
z
" transform="scale(0.015625)"/>
      </defs>
      <use xlink:href="#DejaVuSans-5a"/>
      <use xlink:href="#DejaVuSans-69" x="68.505859"/>
      <use xlink:href="#DejaVuSans-6e" x="96.289062"/>
      <use xlink:href="#DejaVuSans-63" x="159.667969"/>
      <use xlink:href="#DejaVuSans-20" x="214.648438"/>
      <use xlink:href="#DejaVuSans-6f" x="246.435547"/>
      <use xlink:href="#DejaVuSans-78" x="304.492188"/>
      <use xlink:href="#DejaVuSans-69" x="363.671875"/>
      <use xlink:href="#DejaVuSans-64" x="391.455078"/>
      <use xlink:href="#DejaVuSans-65" x="454.931641"/>
     </g>
    </g>
    <g clip-path="url(#pfdedf7dee7)">
     <!-- MESH:D015034 -->
     <g transform="translate(58.129664 291.31125)scale(0.12 -0.12)">
      <defs>
       <path id="DejaVuSans-4d" d="M 628 4666 
L 1569 4666 
L 2759 1491 
L 3956 4666 
L 4897 4666 
L 4897 0 
L 4281 0 
L 4281 4097 
L 3078 897 
L 2444 897 
L 1241 4097 
L 1241 0 
L 628 0 
L 628 4666 
z
" transform="scale(0.015625)"/>
       <path id="DejaVuSans-45" d="M 628 4666 
L 3578 4666 
L 3578 4134 
L 1259 4134 
L 1259 2753 
L 3481 2753 
L 3481 2222 
L 1259 2222 
L 1259 531 
L 3634 531 
L 3634 0 
L 628 0 
L 628 4666 
z
" transform="scale(0.015625)"/>
       <path id="DejaVuSans-53" d="M 3425 4513 
L 3425 3897 
Q 3066 4069 2747 4153 
Q 2428 4238 2131 4238 
Q 1616 4238 1336 4038 
Q 1056 3838 1056 3469 
Q 1056 3159 1242 3001 
Q 1428 2844 1947 2747 
L 2328 2669 
Q 3034 2534 3370 2195 
Q 3706 1856 3706 1288 
Q 3706 609 3251 259 
Q 2797 -91 1919 -91 
Q 1588 -91 1214 -16 
Q 841 59 441 206 
L 441 856 
Q 825 641 1194 531 
Q 1563 422 1919 422 
Q 2459 422 2753 634 
Q 3047 847 3047 1241 
Q 3047 1584 2836 1778 
Q 2625 1972 2144 2069 
L 1759 2144 
Q 1053 2284 737 2584 
Q 422 2884 422 3419 
Q 422 4038 858 4394 
Q 1294 4750 2059 4750 
Q 2388 4750 2728 4690 
Q 3069 4631 3425 4513 
z
" transform="scale(0.015625)"/>
       <path id="DejaVuSans-48" d="M 628 4666 
L 1259 4666 
L 1259 2753 
L 3553 2753 
L 3553 4666 
L 4184 4666 
L 4184 0 
L 3553 0 
L 3553 2222 
L 1259 2222 
L 1259 0 
L 628 0 
L 628 4666 
z
" transform="scale(0.015625)"/>
       <path id="DejaVuSans-3a" d="M 750 794 
L 1409 794 
L 1409 0 
L 750 0 
L 750 794 
z
M 750 3309 
L 1409 3309 
L 1409 2516 
L 750 2516 
L 750 3309 
z
" transform="scale(0.015625)"/>
       <path id="DejaVuSans-44" d="M 1259 4147 
L 1259 519 
L 2022 519 
Q 2988 519 3436 956 
Q 3884 1394 3884 2338 
Q 3884 3275 3436 3711 
Q 2988 4147 2022 4147 
L 1259 4147 
z
M 628 4666 
L 1925 4666 
Q 3281 4666 3915 4102 
Q 4550 3538 4550 2338 
Q 4550 1131 3912 565 
Q 3275 0 1925 0 
L 628 0 
L 628 4666 
z
" transform="scale(0.015625)"/>
       <path id="DejaVuSans-30" d="M 2034 4250 
Q 1547 4250 1301 3770 
Q 1056 3291 1056 2328 
Q 1056 1369 1301 889 
Q 1547 409 2034 409 
Q 2525 409 2770 889 
Q 3016 1369 3016 2328 
Q 3016 3291 2770 3770 
Q 2525 4250 2034 4250 
z
M 2034 4750 
Q 2819 4750 3233 4129 
Q 3647 3509 3647 2328 
Q 3647 1150 3233 529 
Q 2819 -91 2034 -91 
Q 1250 -91 836 529 
Q 422 1150 422 2328 
Q 422 3509 836 4129 
Q 1250 4750 2034 4750 
z
" transform="scale(0.015625)"/>
       <path id="DejaVuSans-31" d="M 794 531 
L 1825 531 
L 1825 4091 
L 703 3866 
L 703 4441 
L 1819 4666 
L 2450 4666 
L 2450 531 
L 3481 531 
L 3481 0 
L 794 0 
L 794 531 
z
" transform="scale(0.015625)"/>
       <path id="DejaVuSans-35" d="M 691 4666 
L 3169 4666 
L 3169 4134 
L 1269 4134 
L 1269 2991 
Q 1406 3038 1543 3061 
Q 1681 3084 1819 3084 
Q 2600 3084 3056 2656 
Q 3513 2228 3513 1497 
Q 3513 744 3044 326 
Q 2575 -91 1722 -91 
Q 1428 -91 1123 -41 
Q 819 9 494 109 
L 494 744 
Q 775 591 1075 516 
Q 1375 441 1709 441 
Q 2250 441 2565 725 
Q 2881 1009 2881 1497 
Q 2881 1984 2565 2268 
Q 2250 2553 1709 2553 
Q 1456 2553 1204 2497 
Q 953 2441 691 2322 
L 691 4666 
z
" transform="scale(0.015625)"/>
       <path id="DejaVuSans-33" d="M 2597 2516 
Q 3050 2419 3304 2112 
Q 3559 1806 3559 1356 
Q 3559 666 3084 287 
Q 2609 -91 1734 -91 
Q 1441 -91 1130 -33 
Q 819 25 488 141 
L 488 750 
Q 750 597 1062 519 
Q 1375 441 1716 441 
Q 2309 441 2620 675 
Q 2931 909 2931 1356 
Q 2931 1769 2642 2001 
Q 2353 2234 1838 2234 
L 1294 2234 
L 1294 2753 
L 1863 2753 
Q 2328 2753 2575 2939 
Q 2822 3125 2822 3475 
Q 2822 3834 2567 4026 
Q 2313 4219 1838 4219 
Q 1578 4219 1281 4162 
Q 984 4106 628 3988 
L 628 4550 
Q 988 4650 1302 4700 
Q 1616 4750 1894 4750 
Q 2613 4750 3031 4423 
Q 3450 4097 3450 3541 
Q 3450 3153 3228 2886 
Q 3006 2619 2597 2516 
z
" transform="scale(0.015625)"/>
       <path id="DejaVuSans-34" d="M 2419 4116 
L 825 1625 
L 2419 1625 
L 2419 4116 
z
M 2253 4666 
L 3047 4666 
L 3047 1625 
L 3713 1625 
L 3713 1100 
L 3047 1100 
L 3047 0 
L 2419 0 
L 2419 1100 
L 313 1100 
L 313 1709 
L 2253 4666 
z
" transform="scale(0.015625)"/>
      </defs>
      <use xlink:href="#DejaVuSans-4d"/>
      <use xlink:href="#DejaVuSans-45" x="86.279297"/>
      <use xlink:href="#DejaVuSans-53" x="149.462891"/>
      <use xlink:href="#DejaVuSans-48" x="212.939453"/>
      <use xlink:href="#DejaVuSans-3a" x="288.134766"/>
      <use xlink:href="#DejaVuSans-44" x="321.826172"/>
      <use xlink:href="#DejaVuSans-30" x="398.828125"/>
      <use xlink:href="#DejaVuSans-31" x="462.451172"/>
      <use xlink:href="#DejaVuSans-35" x="526.074219"/>
      <use xlink:href="#DejaVuSans-30" x="589.697266"/>
      <use xlink:href="#DejaVuSans-33" x="653.320312"/>
      <use xlink:href="#DejaVuSans-34" x="716.943359"/>
     </g>
    </g>
    <g clip-path="url(#pfdedf7dee7)">
     <!-- Drug -->
     <g transform="translate(90.267164 304.748625)scale(0.12 -0.12)">
      <use xlink:href="#DejaVuSans-44"/>
      <use xlink:href="#DejaVuSans-72" x="77.001953"/>
      <use xlink:href="#DejaVuSans-75" x="118.115234"/>
      <use xlink:href="#DejaVuSans-67" x="181.494141"/>
     </g>
    </g>
   </g>
   <g id="text_7">
    <g clip-path="url(#pfdedf7dee7)">
     <!-- Fungi -->
     <g transform="translate(588.598125 39.857346)scale(0.12 -0.12)">
      <defs>
       <path id="DejaVuSans-46" d="M 628 4666 
L 3309 4666 
L 3309 4134 
L 1259 4134 
L 1259 2759 
L 3109 2759 
L 3109 2228 
L 1259 2228 
L 1259 0 
L 628 0 
L 628 4666 
z
" transform="scale(0.015625)"/>
      </defs>
      <use xlink:href="#DejaVuSans-46"/>
      <use xlink:href="#DejaVuSans-75" x="52.019531"/>
      <use xlink:href="#DejaVuSans-6e" x="115.398438"/>
      <use xlink:href="#DejaVuSans-67" x="178.777344"/>
      <use xlink:href="#DejaVuSans-69" x="242.253906"/>
     </g>
    </g>
    <g clip-path="url(#pfdedf7dee7)">
     <!-- NCBITaxon:4751 -->
     <g transform="translate(555.754687 53.294721)scale(0.12 -0.12)">
      <defs>
       <path id="DejaVuSans-4e" d="M 628 4666 
L 1478 4666 
L 3547 763 
L 3547 4666 
L 4159 4666 
L 4159 0 
L 3309 0 
L 1241 3903 
L 1241 0 
L 628 0 
L 628 4666 
z
" transform="scale(0.015625)"/>
       <path id="DejaVuSans-43" d="M 4122 4306 
L 4122 3641 
Q 3803 3938 3442 4084 
Q 3081 4231 2675 4231 
Q 1875 4231 1450 3742 
Q 1025 3253 1025 2328 
Q 1025 1406 1450 917 
Q 1875 428 2675 428 
Q 3081 428 3442 575 
Q 3803 722 4122 1019 
L 4122 359 
Q 3791 134 3420 21 
Q 3050 -91 2638 -91 
Q 1578 -91 968 557 
Q 359 1206 359 2328 
Q 359 3453 968 4101 
Q 1578 4750 2638 4750 
Q 3056 4750 3426 4639 
Q 3797 4528 4122 4306 
z
" transform="scale(0.015625)"/>
       <path id="DejaVuSans-42" d="M 1259 2228 
L 1259 519 
L 2272 519 
Q 2781 519 3026 730 
Q 3272 941 3272 1375 
Q 3272 1813 3026 2020 
Q 2781 2228 2272 2228 
L 1259 2228 
z
M 1259 4147 
L 1259 2741 
L 2194 2741 
Q 2656 2741 2882 2914 
Q 3109 3088 3109 3444 
Q 3109 3797 2882 3972 
Q 2656 4147 2194 4147 
L 1259 4147 
z
M 628 4666 
L 2241 4666 
Q 2963 4666 3353 4366 
Q 3744 4066 3744 3513 
Q 3744 3084 3544 2831 
Q 3344 2578 2956 2516 
Q 3422 2416 3680 2098 
Q 3938 1781 3938 1306 
Q 3938 681 3513 340 
Q 3088 0 2303 0 
L 628 0 
L 628 4666 
z
" transform="scale(0.015625)"/>
       <path id="DejaVuSans-49" d="M 628 4666 
L 1259 4666 
L 1259 0 
L 628 0 
L 628 4666 
z
" transform="scale(0.015625)"/>
       <path id="DejaVuSans-54" d="M -19 4666 
L 3928 4666 
L 3928 4134 
L 2272 4134 
L 2272 0 
L 1638 0 
L 1638 4134 
L -19 4134 
L -19 4666 
z
" transform="scale(0.015625)"/>
       <path id="DejaVuSans-37" d="M 525 4666 
L 3525 4666 
L 3525 4397 
L 1831 0 
L 1172 0 
L 2766 4134 
L 525 4134 
L 525 4666 
z
" transform="scale(0.015625)"/>
      </defs>
      <use xlink:href="#DejaVuSans-4e"/>
      <use xlink:href="#DejaVuSans-43" x="74.804688"/>
      <use xlink:href="#DejaVuSans-42" x="144.628906"/>
      <use xlink:href="#DejaVuSans-49" x="213.232422"/>
      <use xlink:href="#DejaVuSans-54" x="242.724609"/>
      <use xlink:href="#DejaVuSans-61" x="287.308594"/>
      <use xlink:href="#DejaVuSans-78" x="348.587891"/>
      <use xlink:href="#DejaVuSans-6f" x="404.642578"/>
      <use xlink:href="#DejaVuSans-6e" x="465.824219"/>
      <use xlink:href="#DejaVuSans-3a" x="529.203125"/>
      <use xlink:href="#DejaVuSans-34" x="562.894531"/>
      <use xlink:href="#DejaVuSans-37" x="626.517578"/>
      <use xlink:href="#DejaVuSans-35" x="690.140625"/>
      <use xlink:href="#DejaVuSans-31" x="753.763672"/>
     </g>
    </g>
    <g clip-path="url(#pfdedf7dee7)">
     <!-- OrganismTaxon -->
     <g transform="translate(558.600937 66.732096)scale(0.12 -0.12)">
      <defs>
       <path id="DejaVuSans-4f" d="M 2522 4238 
Q 1834 4238 1429 3725 
Q 1025 3213 1025 2328 
Q 1025 1447 1429 934 
Q 1834 422 2522 422 
Q 3209 422 3611 934 
Q 4013 1447 4013 2328 
Q 4013 3213 3611 3725 
Q 3209 4238 2522 4238 
z
M 2522 4750 
Q 3503 4750 4090 4092 
Q 4678 3434 4678 2328 
Q 4678 1225 4090 567 
Q 3503 -91 2522 -91 
Q 1538 -91 948 565 
Q 359 1222 359 2328 
Q 359 3434 948 4092 
Q 1538 4750 2522 4750 
z
" transform="scale(0.015625)"/>
       <path id="DejaVuSans-6d" d="M 3328 2828 
Q 3544 3216 3844 3400 
Q 4144 3584 4550 3584 
Q 5097 3584 5394 3201 
Q 5691 2819 5691 2113 
L 5691 0 
L 5113 0 
L 5113 2094 
Q 5113 2597 4934 2840 
Q 4756 3084 4391 3084 
Q 3944 3084 3684 2787 
Q 3425 2491 3425 1978 
L 3425 0 
L 2847 0 
L 2847 2094 
Q 2847 2600 2669 2842 
Q 2491 3084 2119 3084 
Q 1678 3084 1418 2786 
Q 1159 2488 1159 1978 
L 1159 0 
L 581 0 
L 581 3500 
L 1159 3500 
L 1159 2956 
Q 1356 3278 1631 3431 
Q 1906 3584 2284 3584 
Q 2666 3584 2933 3390 
Q 3200 3197 3328 2828 
z
" transform="scale(0.015625)"/>
      </defs>
      <use xlink:href="#DejaVuSans-4f"/>
      <use xlink:href="#DejaVuSans-72" x="78.710938"/>
      <use xlink:href="#DejaVuSans-67" x="118.074219"/>
      <use xlink:href="#DejaVuSans-61" x="181.550781"/>
      <use xlink:href="#DejaVuSans-6e" x="242.830078"/>
      <use xlink:href="#DejaVuSans-69" x="306.208984"/>
      <use xlink:href="#DejaVuSans-73" x="333.992188"/>
      <use xlink:href="#DejaVuSans-6d" x="386.091797"/>
      <use xlink:href="#DejaVuSans-54" x="483.503906"/>
      <use xlink:href="#DejaVuSans-61" x="528.087891"/>
      <use xlink:href="#DejaVuSans-78" x="589.367188"/>
      <use xlink:href="#DejaVuSans-6f" x="645.421875"/>
      <use xlink:href="#DejaVuSans-6e" x="706.603516"/>
     </g>
    </g>
   </g>
   <g id="text_8">
    <g clip-path="url(#pfdedf7dee7)">
     <!-- Pityriasis -->
     <g transform="translate(1077.853148 271.155187)scale(0.12 -0.12)">
      <defs>
       <path id="DejaVuSans-50" d="M 1259 4147 
L 1259 2394 
L 2053 2394 
Q 2494 2394 2734 2622 
Q 2975 2850 2975 3272 
Q 2975 3691 2734 3919 
Q 2494 4147 2053 4147 
L 1259 4147 
z
M 628 4666 
L 2053 4666 
Q 2838 4666 3239 4311 
Q 3641 3956 3641 3272 
Q 3641 2581 3239 2228 
Q 2838 1875 2053 1875 
L 1259 1875 
L 1259 0 
L 628 0 
L 628 4666 
z
" transform="scale(0.015625)"/>
      </defs>
      <use xlink:href="#DejaVuSans-50"/>
      <use xlink:href="#DejaVuSans-69" x="58.052734"/>
      <use xlink:href="#DejaVuSans-74" x="85.835938"/>
      <use xlink:href="#DejaVuSans-79" x="125.044922"/>
      <use xlink:href="#DejaVuSans-72" x="184.224609"/>
      <use xlink:href="#DejaVuSans-69" x="225.337891"/>
      <use xlink:href="#DejaVuSans-61" x="253.121094"/>
      <use xlink:href="#DejaVuSans-73" x="314.400391"/>
      <use xlink:href="#DejaVuSans-69" x="366.5"/>
      <use xlink:href="#DejaVuSans-73" x="394.283203"/>
     </g>
    </g>
    <g clip-path="url(#pfdedf7dee7)">
     <!-- versicolor -->
     <g transform="translate(1075.357523 284.592562)scale(0.12 -0.12)">
      <use xlink:href="#DejaVuSans-76"/>
      <use xlink:href="#DejaVuSans-65" x="59.179688"/>
      <use xlink:href="#DejaVuSans-72" x="120.703125"/>
      <use xlink:href="#DejaVuSans-73" x="161.816406"/>
      <use xlink:href="#DejaVuSans-69" x="213.916016"/>
      <use xlink:href="#DejaVuSans-63" x="241.699219"/>
      <use xlink:href="#DejaVuSans-6f" x="296.679688"/>
      <use xlink:href="#DejaVuSans-6c" x="357.861328"/>
      <use xlink:href="#DejaVuSans-6f" x="385.644531"/>
      <use xlink:href="#DejaVuSans-72" x="446.826172"/>
     </g>
    </g>
    <g clip-path="url(#pfdedf7dee7)">
     <!-- MESH:D014010 -->
     <g transform="translate(1057.799086 298.029937)scale(0.12 -0.12)">
      <use xlink:href="#DejaVuSans-4d"/>
      <use xlink:href="#DejaVuSans-45" x="86.279297"/>
      <use xlink:href="#DejaVuSans-53" x="149.462891"/>
      <use xlink:href="#DejaVuSans-48" x="212.939453"/>
      <use xlink:href="#DejaVuSans-3a" x="288.134766"/>
      <use xlink:href="#DejaVuSans-44" x="321.826172"/>
      <use xlink:href="#DejaVuSans-30" x="398.828125"/>
      <use xlink:href="#DejaVuSans-31" x="462.451172"/>
      <use xlink:href="#DejaVuSans-34" x="526.074219"/>
      <use xlink:href="#DejaVuSans-30" x="589.697266"/>
      <use xlink:href="#DejaVuSans-31" x="653.320312"/>
      <use xlink:href="#DejaVuSans-30" x="716.943359"/>
     </g>
    </g>
    <g clip-path="url(#pfdedf7dee7)">
     <!-- Disease -->
     <g transform="translate(1081.035961 311.467312)scale(0.12 -0.12)">
      <use xlink:href="#DejaVuSans-44"/>
      <use xlink:href="#DejaVuSans-69" x="77.001953"/>
      <use xlink:href="#DejaVuSans-73" x="104.785156"/>
      <use xlink:href="#DejaVuSans-65" x="156.884766"/>
      <use xlink:href="#DejaVuSans-61" x="218.408203"/>
      <use xlink:href="#DejaVuSans-73" x="279.6875"/>
      <use xlink:href="#DejaVuSans-65" x="331.787109"/>
     </g>
    </g>
   </g>
  </g>
 </g>
 <defs>
  <clipPath id="pfdedf7dee7">
   <rect x="0" y="0" width="1209.6" height="576"/>
  </clipPath>
 </defs>
</svg>
