<?xml version="1.0" encoding="utf-8" standalone="no"?>
<!DOCTYPE svg PUBLIC "-//W3C//DTD SVG 1.1//EN"
  "http://www.w3.org/Graphics/SVG/1.1/DTD/svg11.dtd">
<svg xmlns:xlink="http://www.w3.org/1999/xlink" width="864pt" height="360pt" viewBox="0 0 864 360" xmlns="http://www.w3.org/2000/svg" version="1.1">
 <metadata>
  <rdf:RDF xmlns:dc="http://purl.org/dc/elements/1.1/" xmlns:cc="http://creativecommons.org/ns#" xmlns:rdf="http://www.w3.org/1999/02/22-rdf-syntax-ns#">
   <cc:Work>
    <dc:type rdf:resource="http://purl.org/dc/dcmitype/StillImage"/>
    <dc:date>2023-02-08T08:51:17.989489</dc:date>
    <dc:format>image/svg+xml</dc:format>
    <dc:creator>
     <cc:Agent>
      <dc:title>Matplotlib v3.5.1, https://matplotlib.org/</dc:title>
     </cc:Agent>
    </dc:creator>
   </cc:Work>
  </rdf:RDF>
 </metadata>
 <defs>
  <style type="text/css">*{stroke-linejoin: round; stroke-linecap: butt}</style>
 </defs>
 <g id="figure_1">
  <g id="patch_1">
   <path d="M 0 360 
L 864 360 
L 864 0 
L 0 0 
z
" style="fill: #ffffff"/>
  </g>
  <g id="axes_1">
   <g id="patch_2">
    <path d="M 127.418126 180 
Q 253.489907 180 376.207585 180 
" clip-path="url(#pdcaac9222d)" style="fill: none; stroke: #2ca02c; stroke-width: 3; stroke-linecap: round"/>
    <path d="M 372.207585 178 
L 376.207585 180 
L 372.207585 182 
L 372.207585 178 
z
" clip-path="url(#pdcaac9222d)" style="fill: #2ca02c; stroke: #2ca02c; stroke-width: 3; stroke-linecap: round"/>
   </g>
   <g id="patch_3">
    <path d="M 484.44292 180 
Q 610.5147 180 733.232378 180 
" clip-path="url(#pdcaac9222d)" style="fill: none; stroke: #2ca02c; stroke-width: 3; stroke-linecap: round"/>
    <path d="M 729.232378 178 
L 733.232378 180 
L 729.232378 182 
L 729.232378 178 
z
" clip-path="url(#pdcaac9222d)" style="fill: #2ca02c; stroke: #2ca02c; stroke-width: 3; stroke-linecap: round"/>
   </g>
   <g id="text_1">
    <g id="patch_4">
     <path d="M 228.118072 193.437969 
L 278.857135 193.437969 
Q 281.857135 193.437969 281.857135 190.437969 
L 281.857135 169.562031 
Q 281.857135 166.562031 278.857135 166.562031 
L 228.118072 166.562031 
Q 225.118072 166.562031 225.118072 169.562031 
L 225.118072 190.437969 
Q 225.118072 193.437969 228.118072 193.437969 
z
" clip-path="url(#pdcaac9222d)" style="fill: #ffffff; stroke: #ffffff; stroke-linejoin: miter"/>
    </g>
    <g clip-path="url(#pdcaac9222d)">
     <!-- decreases -->
     <g transform="translate(228.118072 177.160469)scale(0.1 -0.1)">
      <defs>
       <path id="DejaVuSans-64" d="M 2906 2969 
L 2906 4863 
L 3481 4863 
L 3481 0 
L 2906 0 
L 2906 525 
Q 2725 213 2448 61 
Q 2172 -91 1784 -91 
Q 1150 -91 751 415 
Q 353 922 353 1747 
Q 353 2572 751 3078 
Q 1150 3584 1784 3584 
Q 2172 3584 2448 3432 
Q 2725 3281 2906 2969 
z
M 947 1747 
Q 947 1113 1208 752 
Q 1469 391 1925 391 
Q 2381 391 2643 752 
Q 2906 1113 2906 1747 
Q 2906 2381 2643 2742 
Q 2381 3103 1925 3103 
Q 1469 3103 1208 2742 
Q 947 2381 947 1747 
z
" transform="scale(0.015625)"/>
       <path id="DejaVuSans-65" d="M 3597 1894 
L 3597 1613 
L 953 1613 
Q 991 1019 1311 708 
Q 1631 397 2203 397 
Q 2534 397 2845 478 
Q 3156 559 3463 722 
L 3463 178 
Q 3153 47 2828 -22 
Q 2503 -91 2169 -91 
Q 1331 -91 842 396 
Q 353 884 353 1716 
Q 353 2575 817 3079 
Q 1281 3584 2069 3584 
Q 2775 3584 3186 3129 
Q 3597 2675 3597 1894 
z
M 3022 2063 
Q 3016 2534 2758 2815 
Q 2500 3097 2075 3097 
Q 1594 3097 1305 2825 
Q 1016 2553 972 2059 
L 3022 2063 
z
" transform="scale(0.015625)"/>
       <path id="DejaVuSans-63" d="M 3122 3366 
L 3122 2828 
Q 2878 2963 2633 3030 
Q 2388 3097 2138 3097 
Q 1578 3097 1268 2742 
Q 959 2388 959 1747 
Q 959 1106 1268 751 
Q 1578 397 2138 397 
Q 2388 397 2633 464 
Q 2878 531 3122 666 
L 3122 134 
Q 2881 22 2623 -34 
Q 2366 -91 2075 -91 
Q 1284 -91 818 406 
Q 353 903 353 1747 
Q 353 2603 823 3093 
Q 1294 3584 2113 3584 
Q 2378 3584 2631 3529 
Q 2884 3475 3122 3366 
z
" transform="scale(0.015625)"/>
       <path id="DejaVuSans-72" d="M 2631 2963 
Q 2534 3019 2420 3045 
Q 2306 3072 2169 3072 
Q 1681 3072 1420 2755 
Q 1159 2438 1159 1844 
L 1159 0 
L 581 0 
L 581 3500 
L 1159 3500 
L 1159 2956 
Q 1341 3275 1631 3429 
Q 1922 3584 2338 3584 
Q 2397 3584 2469 3576 
Q 2541 3569 2628 3553 
L 2631 2963 
z
" transform="scale(0.015625)"/>
       <path id="DejaVuSans-61" d="M 2194 1759 
Q 1497 1759 1228 1600 
Q 959 1441 959 1056 
Q 959 750 1161 570 
Q 1363 391 1709 391 
Q 2188 391 2477 730 
Q 2766 1069 2766 1631 
L 2766 1759 
L 2194 1759 
z
M 3341 1997 
L 3341 0 
L 2766 0 
L 2766 531 
Q 2569 213 2275 61 
Q 1981 -91 1556 -91 
Q 1019 -91 701 211 
Q 384 513 384 1019 
Q 384 1609 779 1909 
Q 1175 2209 1959 2209 
L 2766 2209 
L 2766 2266 
Q 2766 2663 2505 2880 
Q 2244 3097 1772 3097 
Q 1472 3097 1187 3025 
Q 903 2953 641 2809 
L 641 3341 
Q 956 3463 1253 3523 
Q 1550 3584 1831 3584 
Q 2591 3584 2966 3190 
Q 3341 2797 3341 1997 
z
" transform="scale(0.015625)"/>
       <path id="DejaVuSans-73" d="M 2834 3397 
L 2834 2853 
Q 2591 2978 2328 3040 
Q 2066 3103 1784 3103 
Q 1356 3103 1142 2972 
Q 928 2841 928 2578 
Q 928 2378 1081 2264 
Q 1234 2150 1697 2047 
L 1894 2003 
Q 2506 1872 2764 1633 
Q 3022 1394 3022 966 
Q 3022 478 2636 193 
Q 2250 -91 1575 -91 
Q 1294 -91 989 -36 
Q 684 19 347 128 
L 347 722 
Q 666 556 975 473 
Q 1284 391 1588 391 
Q 1994 391 2212 530 
Q 2431 669 2431 922 
Q 2431 1156 2273 1281 
Q 2116 1406 1581 1522 
L 1381 1569 
Q 847 1681 609 1914 
Q 372 2147 372 2553 
Q 372 3047 722 3315 
Q 1072 3584 1716 3584 
Q 2034 3584 2315 3537 
Q 2597 3491 2834 3397 
z
" transform="scale(0.015625)"/>
      </defs>
      <use xlink:href="#DejaVuSans-64"/>
      <use xlink:href="#DejaVuSans-65" x="63.476562"/>
      <use xlink:href="#DejaVuSans-63" x="125"/>
      <use xlink:href="#DejaVuSans-72" x="179.980469"/>
      <use xlink:href="#DejaVuSans-65" x="218.84375"/>
      <use xlink:href="#DejaVuSans-61" x="280.367188"/>
      <use xlink:href="#DejaVuSans-73" x="341.646484"/>
      <use xlink:href="#DejaVuSans-65" x="393.746094"/>
      <use xlink:href="#DejaVuSans-73" x="455.269531"/>
     </g>
    </g>
    <g clip-path="url(#pdcaac9222d)">
     <!-- activity of -->
     <g transform="translate(228.648541 188.358281)scale(0.1 -0.1)">
      <defs>
       <path id="DejaVuSans-74" d="M 1172 4494 
L 1172 3500 
L 2356 3500 
L 2356 3053 
L 1172 3053 
L 1172 1153 
Q 1172 725 1289 603 
Q 1406 481 1766 481 
L 2356 481 
L 2356 0 
L 1766 0 
Q 1100 0 847 248 
Q 594 497 594 1153 
L 594 3053 
L 172 3053 
L 172 3500 
L 594 3500 
L 594 4494 
L 1172 4494 
z
" transform="scale(0.015625)"/>
       <path id="DejaVuSans-69" d="M 603 3500 
L 1178 3500 
L 1178 0 
L 603 0 
L 603 3500 
z
M 603 4863 
L 1178 4863 
L 1178 4134 
L 603 4134 
L 603 4863 
z
" transform="scale(0.015625)"/>
       <path id="DejaVuSans-76" d="M 191 3500 
L 800 3500 
L 1894 563 
L 2988 3500 
L 3597 3500 
L 2284 0 
L 1503 0 
L 191 3500 
z
" transform="scale(0.015625)"/>
       <path id="DejaVuSans-79" d="M 2059 -325 
Q 1816 -950 1584 -1140 
Q 1353 -1331 966 -1331 
L 506 -1331 
L 506 -850 
L 844 -850 
Q 1081 -850 1212 -737 
Q 1344 -625 1503 -206 
L 1606 56 
L 191 3500 
L 800 3500 
L 1894 763 
L 2988 3500 
L 3597 3500 
L 2059 -325 
z
" transform="scale(0.015625)"/>
       <path id="DejaVuSans-20" transform="scale(0.015625)"/>
       <path id="DejaVuSans-6f" d="M 1959 3097 
Q 1497 3097 1228 2736 
Q 959 2375 959 1747 
Q 959 1119 1226 758 
Q 1494 397 1959 397 
Q 2419 397 2687 759 
Q 2956 1122 2956 1747 
Q 2956 2369 2687 2733 
Q 2419 3097 1959 3097 
z
M 1959 3584 
Q 2709 3584 3137 3096 
Q 3566 2609 3566 1747 
Q 3566 888 3137 398 
Q 2709 -91 1959 -91 
Q 1206 -91 779 398 
Q 353 888 353 1747 
Q 353 2609 779 3096 
Q 1206 3584 1959 3584 
z
" transform="scale(0.015625)"/>
       <path id="DejaVuSans-66" d="M 2375 4863 
L 2375 4384 
L 1825 4384 
Q 1516 4384 1395 4259 
Q 1275 4134 1275 3809 
L 1275 3500 
L 2222 3500 
L 2222 3053 
L 1275 3053 
L 1275 0 
L 697 0 
L 697 3053 
L 147 3053 
L 147 3500 
L 697 3500 
L 697 3744 
Q 697 4328 969 4595 
Q 1241 4863 1831 4863 
L 2375 4863 
z
" transform="scale(0.015625)"/>
      </defs>
      <use xlink:href="#DejaVuSans-61"/>
      <use xlink:href="#DejaVuSans-63" x="61.279297"/>
      <use xlink:href="#DejaVuSans-74" x="116.259766"/>
      <use xlink:href="#DejaVuSans-69" x="155.46875"/>
      <use xlink:href="#DejaVuSans-76" x="183.251953"/>
      <use xlink:href="#DejaVuSans-69" x="242.431641"/>
      <use xlink:href="#DejaVuSans-74" x="270.214844"/>
      <use xlink:href="#DejaVuSans-79" x="309.423828"/>
      <use xlink:href="#DejaVuSans-20" x="368.603516"/>
      <use xlink:href="#DejaVuSans-6f" x="400.390625"/>
      <use xlink:href="#DejaVuSans-66" x="461.572266"/>
     </g>
    </g>
   </g>
   <g id="text_2">
    <g id="patch_5">
     <path d="M 595.903803 187.839062 
L 625.12099 187.839062 
Q 628.12099 187.839062 628.12099 184.839062 
L 628.12099 175.160937 
Q 628.12099 172.160937 625.12099 172.160937 
L 595.903803 172.160937 
Q 592.903803 172.160937 592.903803 175.160937 
L 592.903803 184.839062 
Q 592.903803 187.839062 595.903803 187.839062 
z
" clip-path="url(#pdcaac9222d)" style="fill: #ffffff; stroke: #ffffff; stroke-linejoin: miter"/>
    </g>
    <g clip-path="url(#pdcaac9222d)">
     <!-- treats -->
     <g transform="translate(595.903803 182.759375)scale(0.1 -0.1)">
      <use xlink:href="#DejaVuSans-74"/>
      <use xlink:href="#DejaVuSans-72" x="39.208984"/>
      <use xlink:href="#DejaVuSans-65" x="78.072266"/>
      <use xlink:href="#DejaVuSans-61" x="139.595703"/>
      <use xlink:href="#DejaVuSans-74" x="200.875"/>
      <use xlink:href="#DejaVuSans-73" x="240.083984"/>
     </g>
    </g>
   </g>
   <g id="PathCollection_1">
    <defs>
     <path id="C0_0_44fb78b08d" d="M 0 52.440442 
C 13.907368 52.440442 27.246998 46.914987 37.080992 37.080992 
C 46.914987 27.246998 52.440442 13.907368 52.440442 -0 
C 52.440442 -13.907368 46.914987 -27.246998 37.080992 -37.080992 
C 27.246998 -46.914987 13.907368 -52.440442 0 -52.440442 
C -13.907368 -52.440442 -27.246998 -46.914987 -37.080992 -37.080992 
C -46.914987 -27.246998 -52.440442 -13.907368 -52.440442 0 
C -52.440442 13.907368 -46.914987 27.246998 -37.080992 37.080992 
C -27.246998 46.914987 -13.907368 52.440442 0 52.440442 
z
"/>
    </defs>
    <g clip-path="url(#pdcaac9222d)">
     <use xlink:href="#C0_0_44fb78b08d" x="74.975207" y="180" style="fill: #01c472; stroke: #01c472"/>
    </g>
    <g clip-path="url(#pdcaac9222d)">
     <use xlink:href="#C0_0_44fb78b08d" x="432" y="180" style="fill: #e71761; stroke: #e71761"/>
    </g>
    <g clip-path="url(#pdcaac9222d)">
     <use xlink:href="#C0_0_44fb78b08d" x="789.024793" y="180" style="fill: #70c6ca; stroke: #70c6ca"/>
    </g>
   </g>
   <g id="text_3">
    <path d="M 402.658125 154.693312 
L 402.658125 155.848312 
Q 401.985 155.525812 401.386875 155.368312 
Q 400.78875 155.208937 400.231875 155.208937 
Q 399.26625 155.208937 398.74125 155.583937 
Q 398.21625 155.958937 398.21625 156.650812 
Q 398.21625 157.232062 398.565 157.528312 
Q 398.91375 157.822687 399.886875 158.004562 
L 400.60125 158.150812 
Q 401.925 158.403937 402.555 159.039562 
Q 403.185 159.675187 403.185 160.740187 
Q 403.185 162.013312 402.331875 162.669562 
Q 401.480625 163.325812 399.834375 163.325812 
Q 399.21375 163.325812 398.5125 163.185187 
Q 397.813125 163.044562 397.063125 162.768937 
L 397.063125 161.550187 
Q 397.783125 161.953312 398.475 162.159562 
Q 399.166875 162.363937 399.834375 162.363937 
Q 400.846875 162.363937 401.398125 161.966437 
Q 401.949375 161.567062 401.949375 160.828312 
Q 401.949375 160.185187 401.55375 159.821437 
Q 401.158125 159.457687 400.25625 159.275812 
L 399.534375 159.135187 
Q 398.210625 158.872687 397.618125 158.310187 
Q 397.0275 157.747687 397.0275 156.744562 
Q 397.0275 155.583937 397.845 154.916437 
Q 398.6625 154.248937 400.096875 154.248937 
Q 400.71375 154.248937 401.35125 154.361437 
Q 401.990625 154.472062 402.658125 154.693312 
z
M 408.180937 155.572687 
L 406.574062 159.926437 
L 409.791562 159.926437 
L 408.180937 155.572687 
z
M 407.511562 154.406437 
L 408.854062 154.406437 
L 412.187812 163.155187 
L 410.957812 163.155187 
L 410.160937 160.910812 
L 406.217812 160.910812 
L 405.420937 163.155187 
L 404.172187 163.155187 
L 407.511562 154.406437 
z
M 417.614297 159.052687 
Q 417.994922 159.182062 418.354922 159.603937 
Q 418.714922 160.025812 419.078672 160.764562 
L 420.280547 163.155187 
L 419.007422 163.155187 
L 417.889922 160.910812 
Q 417.454922 160.031437 417.048047 159.744562 
Q 416.641172 159.457687 415.938047 159.457687 
L 414.648047 159.457687 
L 414.648047 163.155187 
L 413.464922 163.155187 
L 413.464922 154.406437 
L 416.136797 154.406437 
Q 417.636797 154.406437 418.375547 155.034562 
Q 419.114297 155.660812 419.114297 156.926437 
Q 419.114297 157.753312 418.729922 158.298937 
Q 418.345547 158.842687 417.614297 159.052687 
z
M 414.648047 155.379562 
L 414.648047 158.484562 
L 416.136797 158.484562 
Q 416.991797 158.484562 417.428672 158.088937 
Q 417.865547 157.693312 417.865547 156.926437 
Q 417.865547 156.159562 417.428672 155.769562 
Q 416.991797 155.379562 416.136797 155.379562 
L 414.648047 155.379562 
z
M 427.047187 154.693312 
L 427.047187 155.848312 
Q 426.374062 155.525812 425.775937 155.368312 
Q 425.177812 155.208937 424.620937 155.208937 
Q 423.655312 155.208937 423.130312 155.583937 
Q 422.605312 155.958937 422.605312 156.650812 
Q 422.605312 157.232062 422.954062 157.528312 
Q 423.302812 157.822687 424.275937 158.004562 
L 424.990312 158.150812 
Q 426.314062 158.403937 426.944062 159.039562 
Q 427.574062 159.675187 427.574062 160.740187 
Q 427.574062 162.013312 426.720937 162.669562 
Q 425.869687 163.325812 424.223437 163.325812 
Q 423.602812 163.325812 422.901562 163.185187 
Q 422.202187 163.044562 421.452187 162.768937 
L 421.452187 161.550187 
Q 422.172187 161.953312 422.864062 162.159562 
Q 423.555937 162.363937 424.223437 162.363937 
Q 425.235937 162.363937 425.787187 161.966437 
Q 426.338437 161.567062 426.338437 160.828312 
Q 426.338437 160.185187 425.942812 159.821437 
Q 425.547187 159.457687 424.645312 159.275812 
L 423.923437 159.135187 
Q 422.599687 158.872687 422.007187 158.310187 
Q 421.416562 157.747687 421.416562 156.744562 
Q 421.416562 155.583937 422.234062 154.916437 
Q 423.051562 154.248937 424.485937 154.248937 
Q 425.102812 154.248937 425.740312 154.361437 
Q 426.379687 154.472062 427.047187 154.693312 
z
M 428.829375 159.388312 
L 431.986875 159.388312 
L 431.986875 160.348312 
L 428.829375 160.348312 
L 428.829375 159.388312 
z
M 440.301328 155.081437 
L 440.301328 156.328312 
Q 439.703203 155.771437 439.026328 155.497687 
Q 438.349453 155.222062 437.588203 155.222062 
Q 436.088203 155.222062 435.291328 156.138937 
Q 434.494453 157.055812 434.494453 158.790187 
Q 434.494453 160.518937 435.291328 161.435812 
Q 436.088203 162.352687 437.588203 162.352687 
Q 438.349453 162.352687 439.026328 162.077062 
Q 439.703203 161.801437 440.301328 161.244562 
L 440.301328 162.482062 
Q 439.680703 162.903937 438.985078 163.115812 
Q 438.291328 163.325812 437.518828 163.325812 
Q 435.531328 163.325812 434.387578 162.110812 
Q 433.245703 160.893937 433.245703 158.790187 
Q 433.245703 156.680812 434.387578 155.465812 
Q 435.531328 154.248937 437.518828 154.248937 
Q 438.302578 154.248937 438.996328 154.457062 
Q 439.691953 154.665187 440.301328 155.081437 
z
M 444.624609 157.348312 
Q 443.758359 157.348312 443.253984 158.025187 
Q 442.749609 158.702062 442.749609 159.879562 
Q 442.749609 161.057062 443.250234 161.733937 
Q 443.752734 162.410812 444.624609 162.410812 
Q 445.487109 162.410812 445.989609 161.732062 
Q 446.493984 161.051437 446.493984 159.879562 
Q 446.493984 158.713312 445.989609 158.030812 
Q 445.487109 157.348312 444.624609 157.348312 
z
M 444.624609 156.435187 
Q 446.030859 156.435187 446.833359 157.350187 
Q 447.637734 158.263312 447.637734 159.879562 
Q 447.637734 161.490187 446.833359 162.408937 
Q 446.030859 163.325812 444.624609 163.325812 
Q 443.212734 163.325812 442.412109 162.408937 
Q 441.613359 161.490187 441.613359 159.879562 
Q 441.613359 158.263312 442.412109 157.350187 
Q 443.212734 156.435187 444.624609 156.435187 
z
M 451.726406 163.155187 
L 448.387031 154.406437 
L 449.622656 154.406437 
L 452.395781 161.771437 
L 455.172656 154.406437 
L 456.402656 154.406437 
L 453.068906 163.155187 
L 451.726406 163.155187 
z
M 456.384141 159.388312 
L 459.541641 159.388312 
L 459.541641 160.348312 
L 456.384141 160.348312 
L 456.384141 159.388312 
z
M 462.429844 162.159562 
L 466.560469 162.159562 
L 466.560469 163.155187 
L 461.006719 163.155187 
L 461.006719 162.159562 
Q 461.679844 161.462062 462.842344 160.288312 
Q 464.006719 159.112687 464.304844 158.771437 
Q 464.872969 158.133937 465.097969 157.691437 
Q 465.324844 157.248937 465.324844 156.821437 
Q 465.324844 156.123937 464.835469 155.685187 
Q 464.346094 155.244562 463.560469 155.244562 
Q 463.003594 155.244562 462.384844 155.437687 
Q 461.767969 155.630812 461.064844 156.024562 
L 461.064844 154.828312 
Q 461.779219 154.541437 462.399844 154.395187 
Q 463.022344 154.248937 463.537969 154.248937 
Q 464.897344 154.248937 465.705469 154.929562 
Q 466.513594 155.608312 466.513594 156.744562 
Q 466.513594 157.284562 466.311094 157.768312 
Q 466.110469 158.250187 465.576094 158.906437 
Q 465.429844 159.077062 464.644219 159.888937 
Q 463.860469 160.700812 462.429844 162.159562 
z
" clip-path="url(#pdcaac9222d)" style="fill: #ffffff; stroke: #000000; stroke-width: 2"/>
    <path d="M 402.658125 154.693312 
L 402.658125 155.848312 
Q 401.985 155.525812 401.386875 155.368312 
Q 400.78875 155.208937 400.231875 155.208937 
Q 399.26625 155.208937 398.74125 155.583937 
Q 398.21625 155.958937 398.21625 156.650812 
Q 398.21625 157.232062 398.565 157.528312 
Q 398.91375 157.822687 399.886875 158.004562 
L 400.60125 158.150812 
Q 401.925 158.403937 402.555 159.039562 
Q 403.185 159.675187 403.185 160.740187 
Q 403.185 162.013312 402.331875 162.669562 
Q 401.480625 163.325812 399.834375 163.325812 
Q 399.21375 163.325812 398.5125 163.185187 
Q 397.813125 163.044562 397.063125 162.768937 
L 397.063125 161.550187 
Q 397.783125 161.953312 398.475 162.159562 
Q 399.166875 162.363937 399.834375 162.363937 
Q 400.846875 162.363937 401.398125 161.966437 
Q 401.949375 161.567062 401.949375 160.828312 
Q 401.949375 160.185187 401.55375 159.821437 
Q 401.158125 159.457687 400.25625 159.275812 
L 399.534375 159.135187 
Q 398.210625 158.872687 397.618125 158.310187 
Q 397.0275 157.747687 397.0275 156.744562 
Q 397.0275 155.583937 397.845 154.916437 
Q 398.6625 154.248937 400.096875 154.248937 
Q 400.71375 154.248937 401.35125 154.361437 
Q 401.990625 154.472062 402.658125 154.693312 
z
M 408.180937 155.572687 
L 406.574062 159.926437 
L 409.791562 159.926437 
L 408.180937 155.572687 
z
M 407.511562 154.406437 
L 408.854062 154.406437 
L 412.187812 163.155187 
L 410.957812 163.155187 
L 410.160937 160.910812 
L 406.217812 160.910812 
L 405.420937 163.155187 
L 404.172187 163.155187 
L 407.511562 154.406437 
z
M 417.614297 159.052687 
Q 417.994922 159.182062 418.354922 159.603937 
Q 418.714922 160.025812 419.078672 160.764562 
L 420.280547 163.155187 
L 419.007422 163.155187 
L 417.889922 160.910812 
Q 417.454922 160.031437 417.048047 159.744562 
Q 416.641172 159.457687 415.938047 159.457687 
L 414.648047 159.457687 
L 414.648047 163.155187 
L 413.464922 163.155187 
L 413.464922 154.406437 
L 416.136797 154.406437 
Q 417.636797 154.406437 418.375547 155.034562 
Q 419.114297 155.660812 419.114297 156.926437 
Q 419.114297 157.753312 418.729922 158.298937 
Q 418.345547 158.842687 417.614297 159.052687 
z
M 414.648047 155.379562 
L 414.648047 158.484562 
L 416.136797 158.484562 
Q 416.991797 158.484562 417.428672 158.088937 
Q 417.865547 157.693312 417.865547 156.926437 
Q 417.865547 156.159562 417.428672 155.769562 
Q 416.991797 155.379562 416.136797 155.379562 
L 414.648047 155.379562 
z
M 427.047187 154.693312 
L 427.047187 155.848312 
Q 426.374062 155.525812 425.775937 155.368312 
Q 425.177812 155.208937 424.620937 155.208937 
Q 423.655312 155.208937 423.130312 155.583937 
Q 422.605312 155.958937 422.605312 156.650812 
Q 422.605312 157.232062 422.954062 157.528312 
Q 423.302812 157.822687 424.275937 158.004562 
L 424.990312 158.150812 
Q 426.314062 158.403937 426.944062 159.039562 
Q 427.574062 159.675187 427.574062 160.740187 
Q 427.574062 162.013312 426.720937 162.669562 
Q 425.869687 163.325812 424.223437 163.325812 
Q 423.602812 163.325812 422.901562 163.185187 
Q 422.202187 163.044562 421.452187 162.768937 
L 421.452187 161.550187 
Q 422.172187 161.953312 422.864062 162.159562 
Q 423.555937 162.363937 424.223437 162.363937 
Q 425.235937 162.363937 425.787187 161.966437 
Q 426.338437 161.567062 426.338437 160.828312 
Q 426.338437 160.185187 425.942812 159.821437 
Q 425.547187 159.457687 424.645312 159.275812 
L 423.923437 159.135187 
Q 422.599687 158.872687 422.007187 158.310187 
Q 421.416562 157.747687 421.416562 156.744562 
Q 421.416562 155.583937 422.234062 154.916437 
Q 423.051562 154.248937 424.485937 154.248937 
Q 425.102812 154.248937 425.740312 154.361437 
Q 426.379687 154.472062 427.047187 154.693312 
z
M 428.829375 159.388312 
L 431.986875 159.388312 
L 431.986875 160.348312 
L 428.829375 160.348312 
L 428.829375 159.388312 
z
M 440.301328 155.081437 
L 440.301328 156.328312 
Q 439.703203 155.771437 439.026328 155.497687 
Q 438.349453 155.222062 437.588203 155.222062 
Q 436.088203 155.222062 435.291328 156.138937 
Q 434.494453 157.055812 434.494453 158.790187 
Q 434.494453 160.518937 435.291328 161.435812 
Q 436.088203 162.352687 437.588203 162.352687 
Q 438.349453 162.352687 439.026328 162.077062 
Q 439.703203 161.801437 440.301328 161.244562 
L 440.301328 162.482062 
Q 439.680703 162.903937 438.985078 163.115812 
Q 438.291328 163.325812 437.518828 163.325812 
Q 435.531328 163.325812 434.387578 162.110812 
Q 433.245703 160.893937 433.245703 158.790187 
Q 433.245703 156.680812 434.387578 155.465812 
Q 435.531328 154.248937 437.518828 154.248937 
Q 438.302578 154.248937 438.996328 154.457062 
Q 439.691953 154.665187 440.301328 155.081437 
z
M 444.624609 157.348312 
Q 443.758359 157.348312 443.253984 158.025187 
Q 442.749609 158.702062 442.749609 159.879562 
Q 442.749609 161.057062 443.250234 161.733937 
Q 443.752734 162.410812 444.624609 162.410812 
Q 445.487109 162.410812 445.989609 161.732062 
Q 446.493984 161.051437 446.493984 159.879562 
Q 446.493984 158.713312 445.989609 158.030812 
Q 445.487109 157.348312 444.624609 157.348312 
z
M 444.624609 156.435187 
Q 446.030859 156.435187 446.833359 157.350187 
Q 447.637734 158.263312 447.637734 159.879562 
Q 447.637734 161.490187 446.833359 162.408937 
Q 446.030859 163.325812 444.624609 163.325812 
Q 443.212734 163.325812 442.412109 162.408937 
Q 441.613359 161.490187 441.613359 159.879562 
Q 441.613359 158.263312 442.412109 157.350187 
Q 443.212734 156.435187 444.624609 156.435187 
z
M 451.726406 163.155187 
L 448.387031 154.406437 
L 449.622656 154.406437 
L 452.395781 161.771437 
L 455.172656 154.406437 
L 456.402656 154.406437 
L 453.068906 163.155187 
L 451.726406 163.155187 
z
M 456.384141 159.388312 
L 459.541641 159.388312 
L 459.541641 160.348312 
L 456.384141 160.348312 
L 456.384141 159.388312 
z
M 462.429844 162.159562 
L 466.560469 162.159562 
L 466.560469 163.155187 
L 461.006719 163.155187 
L 461.006719 162.159562 
Q 461.679844 161.462062 462.842344 160.288312 
Q 464.006719 159.112687 464.304844 158.771437 
Q 464.872969 158.133937 465.097969 157.691437 
Q 465.324844 157.248937 465.324844 156.821437 
Q 465.324844 156.123937 464.835469 155.685187 
Q 464.346094 155.244562 463.560469 155.244562 
Q 463.003594 155.244562 462.384844 155.437687 
Q 461.767969 155.630812 461.064844 156.024562 
L 461.064844 154.828312 
Q 461.779219 154.541437 462.399844 154.395187 
Q 463.022344 154.248937 463.537969 154.248937 
Q 464.897344 154.248937 465.705469 154.929562 
Q 466.513594 155.608312 466.513594 156.744562 
Q 466.513594 157.284562 466.311094 157.768312 
Q 466.110469 158.250187 465.576094 158.906437 
Q 465.429844 159.077062 464.644219 159.888937 
Q 463.860469 160.700812 462.429844 162.159562 
z
" clip-path="url(#pdcaac9222d)" style="fill: #ffffff"/>
    <path d="M 394.992187 171.290062 
Q 395.397187 170.562562 395.959687 170.217562 
Q 396.522187 169.872562 397.283437 169.872562 
Q 398.309062 169.872562 398.865937 170.590687 
Q 399.422812 171.306937 399.422812 172.630687 
L 399.422812 176.592562 
L 398.339062 176.592562 
L 398.339062 172.666312 
Q 398.339062 171.723187 398.003437 171.267562 
Q 397.669687 170.810062 396.985312 170.810062 
Q 396.147187 170.810062 395.659687 171.366937 
Q 395.174062 171.921937 395.174062 172.883812 
L 395.174062 176.592562 
L 394.090312 176.592562 
L 394.090312 172.666312 
Q 394.090312 171.717562 393.756562 171.263812 
Q 393.422812 170.810062 392.725312 170.810062 
Q 391.898437 170.810062 391.410937 171.368812 
Q 390.925312 171.927562 390.925312 172.883812 
L 390.925312 176.592562 
L 389.841562 176.592562 
L 389.841562 170.030062 
L 390.925312 170.030062 
L 390.925312 171.050062 
Q 391.294687 170.446312 391.810312 170.159437 
Q 392.325937 169.872562 393.034687 169.872562 
Q 393.750937 169.872562 394.251562 170.236312 
Q 394.752187 170.598187 394.992187 171.290062 
z
M 404.555391 173.294437 
Q 403.248516 173.294437 402.744141 173.592562 
Q 402.239766 173.890687 402.239766 174.612562 
Q 402.239766 175.186312 402.618516 175.523812 
Q 402.997266 175.859437 403.646016 175.859437 
Q 404.544141 175.859437 405.086016 175.223812 
Q 405.627891 174.588187 405.627891 173.534437 
L 405.627891 173.294437 
L 404.555391 173.294437 
z
M 406.706016 172.848187 
L 406.706016 176.592562 
L 405.627891 176.592562 
L 405.627891 175.596937 
Q 405.258516 176.193187 404.707266 176.478187 
Q 404.156016 176.763187 403.359141 176.763187 
Q 402.352266 176.763187 401.756016 176.196937 
Q 401.161641 175.630687 401.161641 174.681937 
Q 401.161641 173.575687 401.902266 173.013187 
Q 402.644766 172.450687 404.114766 172.450687 
L 405.627891 172.450687 
L 405.627891 172.343812 
Q 405.627891 171.599437 405.138516 171.192562 
Q 404.649141 170.785687 403.764141 170.785687 
Q 403.201641 170.785687 402.667266 170.920687 
Q 402.134766 171.055687 401.643516 171.325687 
L 401.643516 170.328187 
Q 402.234141 170.099437 402.791016 169.986937 
Q 403.347891 169.872562 403.874766 169.872562 
Q 405.299766 169.872562 406.002891 170.611312 
Q 406.706016 171.348187 406.706016 172.848187 
z
M 408.925781 170.030062 
L 410.003906 170.030062 
L 410.003906 176.592562 
L 408.925781 176.592562 
L 408.925781 170.030062 
z
M 408.925781 167.474437 
L 410.003906 167.474437 
L 410.003906 168.841312 
L 408.925781 168.841312 
L 408.925781 167.474437 
z
M 417.716016 172.630687 
L 417.716016 176.592562 
L 416.637891 176.592562 
L 416.637891 172.666312 
Q 416.637891 171.734437 416.274141 171.273187 
Q 415.910391 170.810062 415.184766 170.810062 
Q 414.311016 170.810062 413.806641 171.366937 
Q 413.302266 171.921937 413.302266 172.883812 
L 413.302266 176.592562 
L 412.218516 176.592562 
L 412.218516 170.030062 
L 413.302266 170.030062 
L 413.302266 171.050062 
Q 413.690391 170.457562 414.213516 170.165062 
Q 414.738516 169.872562 415.424766 169.872562 
Q 416.555391 169.872562 417.134766 170.571937 
Q 417.716016 171.271312 417.716016 172.630687 
z
M 424.722187 175.608187 
L 424.722187 179.088187 
L 423.638437 179.088187 
L 423.638437 170.030062 
L 424.722187 170.030062 
L 424.722187 171.025687 
Q 425.063437 170.440687 425.580937 170.157562 
Q 426.100312 169.872562 426.820312 169.872562 
Q 428.016562 169.872562 428.762812 170.821312 
Q 429.510937 171.770062 429.510937 173.316937 
Q 429.510937 174.863812 428.762812 175.814437 
Q 428.016562 176.763187 426.820312 176.763187 
Q 426.100312 176.763187 425.580937 176.478187 
Q 425.063437 176.193187 424.722187 175.608187 
z
M 428.391562 173.316937 
Q 428.391562 172.128187 427.902187 171.451312 
Q 427.412812 170.774437 426.557812 170.774437 
Q 425.700937 170.774437 425.211562 171.451312 
Q 424.722187 172.128187 424.722187 173.316937 
Q 424.722187 174.505687 425.211562 175.182562 
Q 425.700937 175.859437 426.557812 175.859437 
Q 427.412812 175.859437 427.902187 175.182562 
Q 428.391562 174.505687 428.391562 173.316937 
z
M 435.099375 171.036937 
Q 434.9175 170.931937 434.70375 170.883187 
Q 434.49 170.832562 434.233125 170.832562 
Q 433.318125 170.832562 432.82875 171.426937 
Q 432.339375 172.021312 432.339375 173.135062 
L 432.339375 176.592562 
L 431.255625 176.592562 
L 431.255625 170.030062 
L 432.339375 170.030062 
L 432.339375 171.050062 
Q 432.680625 170.451937 433.224375 170.163187 
Q 433.77 169.872562 434.55 169.872562 
Q 434.660625 169.872562 434.795625 169.887562 
Q 434.930625 169.900687 435.09375 169.930687 
L 435.099375 171.036937 
z
M 438.502969 170.785687 
Q 437.636719 170.785687 437.132344 171.462562 
Q 436.627969 172.139437 436.627969 173.316937 
Q 436.627969 174.494437 437.128594 175.171312 
Q 437.631094 175.848187 438.502969 175.848187 
Q 439.365469 175.848187 439.867969 175.169437 
Q 440.372344 174.488812 440.372344 173.316937 
Q 440.372344 172.150687 439.867969 171.468187 
Q 439.365469 170.785687 438.502969 170.785687 
z
M 438.502969 169.872562 
Q 439.909219 169.872562 440.711719 170.787562 
Q 441.516094 171.700687 441.516094 173.316937 
Q 441.516094 174.927562 440.711719 175.846312 
Q 439.909219 176.763187 438.502969 176.763187 
Q 437.091094 176.763187 436.290469 175.846312 
Q 435.491719 174.927562 435.491719 173.316937 
Q 435.491719 171.700687 436.290469 170.787562 
Q 437.091094 169.872562 438.502969 169.872562 
z
M 444.369141 168.166312 
L 444.369141 170.030062 
L 446.589141 170.030062 
L 446.589141 170.868187 
L 444.369141 170.868187 
L 444.369141 174.430687 
Q 444.369141 175.233187 444.588516 175.461937 
Q 444.807891 175.690687 445.482891 175.690687 
L 446.589141 175.690687 
L 446.589141 176.592562 
L 445.482891 176.592562 
Q 444.234141 176.592562 443.759766 176.127562 
Q 443.285391 175.660687 443.285391 174.430687 
L 443.285391 170.868187 
L 442.494141 170.868187 
L 442.494141 170.030062 
L 443.285391 170.030062 
L 443.285391 168.166312 
L 444.369141 168.166312 
z
M 453.621094 173.041312 
L 453.621094 173.568187 
L 448.663594 173.568187 
Q 448.734844 174.681937 449.334844 175.265062 
Q 449.934844 175.848187 451.007344 175.848187 
Q 451.627969 175.848187 452.211094 175.696312 
Q 452.794219 175.544437 453.369844 175.238812 
L 453.369844 176.258812 
Q 452.788594 176.504437 452.179219 176.633812 
Q 451.569844 176.763187 450.943594 176.763187 
Q 449.372344 176.763187 448.455469 175.850062 
Q 447.538594 174.935062 447.538594 173.375062 
Q 447.538594 171.764437 448.408594 170.819437 
Q 449.278594 169.872562 450.756094 169.872562 
Q 452.079844 169.872562 452.850469 170.725687 
Q 453.621094 171.576937 453.621094 173.041312 
z
M 452.542969 172.724437 
Q 452.531719 171.841312 452.047969 171.314437 
Q 451.564219 170.785687 450.767344 170.785687 
Q 449.865469 170.785687 449.323594 171.295687 
Q 448.781719 171.805687 448.699219 172.731937 
L 452.542969 172.724437 
z
M 458.373281 173.294437 
Q 457.066406 173.294437 456.562031 173.592562 
Q 456.057656 173.890687 456.057656 174.612562 
Q 456.057656 175.186312 456.436406 175.523812 
Q 456.815156 175.859437 457.463906 175.859437 
Q 458.362031 175.859437 458.903906 175.223812 
Q 459.445781 174.588187 459.445781 173.534437 
L 459.445781 173.294437 
L 458.373281 173.294437 
z
M 460.523906 172.848187 
L 460.523906 176.592562 
L 459.445781 176.592562 
L 459.445781 175.596937 
Q 459.076406 176.193187 458.525156 176.478187 
Q 457.973906 176.763187 457.177031 176.763187 
Q 456.170156 176.763187 455.573906 176.196937 
Q 454.979531 175.630687 454.979531 174.681937 
Q 454.979531 173.575687 455.720156 173.013187 
Q 456.462656 172.450687 457.932656 172.450687 
L 459.445781 172.450687 
L 459.445781 172.343812 
Q 459.445781 171.599437 458.956406 171.192562 
Q 458.467031 170.785687 457.582031 170.785687 
Q 457.019531 170.785687 456.485156 170.920687 
Q 455.952656 171.055687 455.461406 171.325687 
L 455.461406 170.328187 
Q 456.052031 170.099437 456.608906 169.986937 
Q 457.165781 169.872562 457.692656 169.872562 
Q 459.117656 169.872562 459.820781 170.611312 
Q 460.523906 171.348187 460.523906 172.848187 
z
M 466.926797 170.223187 
L 466.926797 171.243187 
Q 466.471172 171.008812 465.978047 170.892562 
Q 465.486797 170.774437 464.958047 170.774437 
Q 464.155547 170.774437 463.754297 171.020062 
Q 463.353047 171.265687 463.353047 171.758812 
Q 463.353047 172.133812 463.639922 172.347562 
Q 463.926797 172.561312 464.794922 172.754437 
L 465.164297 172.836937 
Q 466.311797 173.082562 466.795547 173.530687 
Q 467.279297 173.978812 467.279297 174.781312 
Q 467.279297 175.696312 466.555547 176.230687 
Q 465.831797 176.763187 464.566172 176.763187 
Q 464.039297 176.763187 463.467422 176.660062 
Q 462.895547 176.556937 462.263672 176.352562 
L 462.263672 175.238812 
Q 462.861797 175.550062 463.441172 175.705687 
Q 464.020547 175.859437 464.590547 175.859437 
Q 465.351797 175.859437 465.760547 175.598812 
Q 466.171172 175.338187 466.171172 174.863812 
Q 466.171172 174.425062 465.874922 174.190687 
Q 465.580547 173.956312 464.577422 173.738812 
L 464.202422 173.650687 
Q 463.201172 173.440687 462.754922 173.003812 
Q 462.310547 172.566937 462.310547 171.805687 
Q 462.310547 170.879437 462.966797 170.376937 
Q 463.623047 169.872562 464.830547 169.872562 
Q 465.426797 169.872562 465.953672 169.960687 
Q 466.482422 170.046937 466.926797 170.223187 
z
M 474.609375 173.041312 
L 474.609375 173.568187 
L 469.651875 173.568187 
Q 469.723125 174.681937 470.323125 175.265062 
Q 470.923125 175.848187 471.995625 175.848187 
Q 472.61625 175.848187 473.199375 175.696312 
Q 473.7825 175.544437 474.358125 175.238812 
L 474.358125 176.258812 
Q 473.776875 176.504437 473.1675 176.633812 
Q 472.558125 176.763187 471.931875 176.763187 
Q 470.360625 176.763187 469.44375 175.850062 
Q 468.526875 174.935062 468.526875 173.375062 
Q 468.526875 171.764437 469.396875 170.819437 
Q 470.266875 169.872562 471.744375 169.872562 
Q 473.068125 169.872562 473.83875 170.725687 
Q 474.609375 171.576937 474.609375 173.041312 
z
M 473.53125 172.724437 
Q 473.52 171.841312 473.03625 171.314437 
Q 472.5525 170.785687 471.755625 170.785687 
Q 470.85375 170.785687 470.311875 171.295687 
Q 469.77 171.805687 469.6875 172.731937 
L 473.53125 172.724437 
z
" clip-path="url(#pdcaac9222d)" style="fill: #ffffff; stroke: #000000; stroke-width: 2"/>
    <path d="M 394.992187 171.290062 
Q 395.397187 170.562562 395.959687 170.217562 
Q 396.522187 169.872562 397.283437 169.872562 
Q 398.309062 169.872562 398.865937 170.590687 
Q 399.422812 171.306937 399.422812 172.630687 
L 399.422812 176.592562 
L 398.339062 176.592562 
L 398.339062 172.666312 
Q 398.339062 171.723187 398.003437 171.267562 
Q 397.669687 170.810062 396.985312 170.810062 
Q 396.147187 170.810062 395.659687 171.366937 
Q 395.174062 171.921937 395.174062 172.883812 
L 395.174062 176.592562 
L 394.090312 176.592562 
L 394.090312 172.666312 
Q 394.090312 171.717562 393.756562 171.263812 
Q 393.422812 170.810062 392.725312 170.810062 
Q 391.898437 170.810062 391.410937 171.368812 
Q 390.925312 171.927562 390.925312 172.883812 
L 390.925312 176.592562 
L 389.841562 176.592562 
L 389.841562 170.030062 
L 390.925312 170.030062 
L 390.925312 171.050062 
Q 391.294687 170.446312 391.810312 170.159437 
Q 392.325937 169.872562 393.034687 169.872562 
Q 393.750937 169.872562 394.251562 170.236312 
Q 394.752187 170.598187 394.992187 171.290062 
z
M 404.555391 173.294437 
Q 403.248516 173.294437 402.744141 173.592562 
Q 402.239766 173.890687 402.239766 174.612562 
Q 402.239766 175.186312 402.618516 175.523812 
Q 402.997266 175.859437 403.646016 175.859437 
Q 404.544141 175.859437 405.086016 175.223812 
Q 405.627891 174.588187 405.627891 173.534437 
L 405.627891 173.294437 
L 404.555391 173.294437 
z
M 406.706016 172.848187 
L 406.706016 176.592562 
L 405.627891 176.592562 
L 405.627891 175.596937 
Q 405.258516 176.193187 404.707266 176.478187 
Q 404.156016 176.763187 403.359141 176.763187 
Q 402.352266 176.763187 401.756016 176.196937 
Q 401.161641 175.630687 401.161641 174.681937 
Q 401.161641 173.575687 401.902266 173.013187 
Q 402.644766 172.450687 404.114766 172.450687 
L 405.627891 172.450687 
L 405.627891 172.343812 
Q 405.627891 171.599437 405.138516 171.192562 
Q 404.649141 170.785687 403.764141 170.785687 
Q 403.201641 170.785687 402.667266 170.920687 
Q 402.134766 171.055687 401.643516 171.325687 
L 401.643516 170.328187 
Q 402.234141 170.099437 402.791016 169.986937 
Q 403.347891 169.872562 403.874766 169.872562 
Q 405.299766 169.872562 406.002891 170.611312 
Q 406.706016 171.348187 406.706016 172.848187 
z
M 408.925781 170.030062 
L 410.003906 170.030062 
L 410.003906 176.592562 
L 408.925781 176.592562 
L 408.925781 170.030062 
z
M 408.925781 167.474437 
L 410.003906 167.474437 
L 410.003906 168.841312 
L 408.925781 168.841312 
L 408.925781 167.474437 
z
M 417.716016 172.630687 
L 417.716016 176.592562 
L 416.637891 176.592562 
L 416.637891 172.666312 
Q 416.637891 171.734437 416.274141 171.273187 
Q 415.910391 170.810062 415.184766 170.810062 
Q 414.311016 170.810062 413.806641 171.366937 
Q 413.302266 171.921937 413.302266 172.883812 
L 413.302266 176.592562 
L 412.218516 176.592562 
L 412.218516 170.030062 
L 413.302266 170.030062 
L 413.302266 171.050062 
Q 413.690391 170.457562 414.213516 170.165062 
Q 414.738516 169.872562 415.424766 169.872562 
Q 416.555391 169.872562 417.134766 170.571937 
Q 417.716016 171.271312 417.716016 172.630687 
z
M 424.722187 175.608187 
L 424.722187 179.088187 
L 423.638437 179.088187 
L 423.638437 170.030062 
L 424.722187 170.030062 
L 424.722187 171.025687 
Q 425.063437 170.440687 425.580937 170.157562 
Q 426.100312 169.872562 426.820312 169.872562 
Q 428.016562 169.872562 428.762812 170.821312 
Q 429.510937 171.770062 429.510937 173.316937 
Q 429.510937 174.863812 428.762812 175.814437 
Q 428.016562 176.763187 426.820312 176.763187 
Q 426.100312 176.763187 425.580937 176.478187 
Q 425.063437 176.193187 424.722187 175.608187 
z
M 428.391562 173.316937 
Q 428.391562 172.128187 427.902187 171.451312 
Q 427.412812 170.774437 426.557812 170.774437 
Q 425.700937 170.774437 425.211562 171.451312 
Q 424.722187 172.128187 424.722187 173.316937 
Q 424.722187 174.505687 425.211562 175.182562 
Q 425.700937 175.859437 426.557812 175.859437 
Q 427.412812 175.859437 427.902187 175.182562 
Q 428.391562 174.505687 428.391562 173.316937 
z
M 435.099375 171.036937 
Q 434.9175 170.931937 434.70375 170.883187 
Q 434.49 170.832562 434.233125 170.832562 
Q 433.318125 170.832562 432.82875 171.426937 
Q 432.339375 172.021312 432.339375 173.135062 
L 432.339375 176.592562 
L 431.255625 176.592562 
L 431.255625 170.030062 
L 432.339375 170.030062 
L 432.339375 171.050062 
Q 432.680625 170.451937 433.224375 170.163187 
Q 433.77 169.872562 434.55 169.872562 
Q 434.660625 169.872562 434.795625 169.887562 
Q 434.930625 169.900687 435.09375 169.930687 
L 435.099375 171.036937 
z
M 438.502969 170.785687 
Q 437.636719 170.785687 437.132344 171.462562 
Q 436.627969 172.139437 436.627969 173.316937 
Q 436.627969 174.494437 437.128594 175.171312 
Q 437.631094 175.848187 438.502969 175.848187 
Q 439.365469 175.848187 439.867969 175.169437 
Q 440.372344 174.488812 440.372344 173.316937 
Q 440.372344 172.150687 439.867969 171.468187 
Q 439.365469 170.785687 438.502969 170.785687 
z
M 438.502969 169.872562 
Q 439.909219 169.872562 440.711719 170.787562 
Q 441.516094 171.700687 441.516094 173.316937 
Q 441.516094 174.927562 440.711719 175.846312 
Q 439.909219 176.763187 438.502969 176.763187 
Q 437.091094 176.763187 436.290469 175.846312 
Q 435.491719 174.927562 435.491719 173.316937 
Q 435.491719 171.700687 436.290469 170.787562 
Q 437.091094 169.872562 438.502969 169.872562 
z
M 444.369141 168.166312 
L 444.369141 170.030062 
L 446.589141 170.030062 
L 446.589141 170.868187 
L 444.369141 170.868187 
L 444.369141 174.430687 
Q 444.369141 175.233187 444.588516 175.461937 
Q 444.807891 175.690687 445.482891 175.690687 
L 446.589141 175.690687 
L 446.589141 176.592562 
L 445.482891 176.592562 
Q 444.234141 176.592562 443.759766 176.127562 
Q 443.285391 175.660687 443.285391 174.430687 
L 443.285391 170.868187 
L 442.494141 170.868187 
L 442.494141 170.030062 
L 443.285391 170.030062 
L 443.285391 168.166312 
L 444.369141 168.166312 
z
M 453.621094 173.041312 
L 453.621094 173.568187 
L 448.663594 173.568187 
Q 448.734844 174.681937 449.334844 175.265062 
Q 449.934844 175.848187 451.007344 175.848187 
Q 451.627969 175.848187 452.211094 175.696312 
Q 452.794219 175.544437 453.369844 175.238812 
L 453.369844 176.258812 
Q 452.788594 176.504437 452.179219 176.633812 
Q 451.569844 176.763187 450.943594 176.763187 
Q 449.372344 176.763187 448.455469 175.850062 
Q 447.538594 174.935062 447.538594 173.375062 
Q 447.538594 171.764437 448.408594 170.819437 
Q 449.278594 169.872562 450.756094 169.872562 
Q 452.079844 169.872562 452.850469 170.725687 
Q 453.621094 171.576937 453.621094 173.041312 
z
M 452.542969 172.724437 
Q 452.531719 171.841312 452.047969 171.314437 
Q 451.564219 170.785687 450.767344 170.785687 
Q 449.865469 170.785687 449.323594 171.295687 
Q 448.781719 171.805687 448.699219 172.731937 
L 452.542969 172.724437 
z
M 458.373281 173.294437 
Q 457.066406 173.294437 456.562031 173.592562 
Q 456.057656 173.890687 456.057656 174.612562 
Q 456.057656 175.186312 456.436406 175.523812 
Q 456.815156 175.859437 457.463906 175.859437 
Q 458.362031 175.859437 458.903906 175.223812 
Q 459.445781 174.588187 459.445781 173.534437 
L 459.445781 173.294437 
L 458.373281 173.294437 
z
M 460.523906 172.848187 
L 460.523906 176.592562 
L 459.445781 176.592562 
L 459.445781 175.596937 
Q 459.076406 176.193187 458.525156 176.478187 
Q 457.973906 176.763187 457.177031 176.763187 
Q 456.170156 176.763187 455.573906 176.196937 
Q 454.979531 175.630687 454.979531 174.681937 
Q 454.979531 173.575687 455.720156 173.013187 
Q 456.462656 172.450687 457.932656 172.450687 
L 459.445781 172.450687 
L 459.445781 172.343812 
Q 459.445781 171.599437 458.956406 171.192562 
Q 458.467031 170.785687 457.582031 170.785687 
Q 457.019531 170.785687 456.485156 170.920687 
Q 455.952656 171.055687 455.461406 171.325687 
L 455.461406 170.328187 
Q 456.052031 170.099437 456.608906 169.986937 
Q 457.165781 169.872562 457.692656 169.872562 
Q 459.117656 169.872562 459.820781 170.611312 
Q 460.523906 171.348187 460.523906 172.848187 
z
M 466.926797 170.223187 
L 466.926797 171.243187 
Q 466.471172 171.008812 465.978047 170.892562 
Q 465.486797 170.774437 464.958047 170.774437 
Q 464.155547 170.774437 463.754297 171.020062 
Q 463.353047 171.265687 463.353047 171.758812 
Q 463.353047 172.133812 463.639922 172.347562 
Q 463.926797 172.561312 464.794922 172.754437 
L 465.164297 172.836937 
Q 466.311797 173.082562 466.795547 173.530687 
Q 467.279297 173.978812 467.279297 174.781312 
Q 467.279297 175.696312 466.555547 176.230687 
Q 465.831797 176.763187 464.566172 176.763187 
Q 464.039297 176.763187 463.467422 176.660062 
Q 462.895547 176.556937 462.263672 176.352562 
L 462.263672 175.238812 
Q 462.861797 175.550062 463.441172 175.705687 
Q 464.020547 175.859437 464.590547 175.859437 
Q 465.351797 175.859437 465.760547 175.598812 
Q 466.171172 175.338187 466.171172 174.863812 
Q 466.171172 174.425062 465.874922 174.190687 
Q 465.580547 173.956312 464.577422 173.738812 
L 464.202422 173.650687 
Q 463.201172 173.440687 462.754922 173.003812 
Q 462.310547 172.566937 462.310547 171.805687 
Q 462.310547 170.879437 462.966797 170.376937 
Q 463.623047 169.872562 464.830547 169.872562 
Q 465.426797 169.872562 465.953672 169.960687 
Q 466.482422 170.046937 466.926797 170.223187 
z
M 474.609375 173.041312 
L 474.609375 173.568187 
L 469.651875 173.568187 
Q 469.723125 174.681937 470.323125 175.265062 
Q 470.923125 175.848187 471.995625 175.848187 
Q 472.61625 175.848187 473.199375 175.696312 
Q 473.7825 175.544437 474.358125 175.238812 
L 474.358125 176.258812 
Q 473.776875 176.504437 473.1675 176.633812 
Q 472.558125 176.763187 471.931875 176.763187 
Q 470.360625 176.763187 469.44375 175.850062 
Q 468.526875 174.935062 468.526875 173.375062 
Q 468.526875 171.764437 469.396875 170.819437 
Q 470.266875 169.872562 471.744375 169.872562 
Q 473.068125 169.872562 473.83875 170.725687 
Q 474.609375 171.576937 474.609375 173.041312 
z
M 473.53125 172.724437 
Q 473.52 171.841312 473.03625 171.314437 
Q 472.5525 170.785687 471.755625 170.785687 
Q 470.85375 170.785687 470.311875 171.295687 
Q 469.77 171.805687 469.6875 172.731937 
L 473.53125 172.724437 
z
" clip-path="url(#pdcaac9222d)" style="fill: #ffffff"/>
    <path d="M 385.135312 181.281187 
L 386.325937 181.281187 
L 386.325937 186.596812 
Q 386.325937 188.003062 386.834062 188.621812 
Q 387.344062 189.238687 388.487812 189.238687 
Q 389.624062 189.238687 390.134062 188.621812 
Q 390.644062 188.003062 390.644062 186.596812 
L 390.644062 181.281187 
L 391.832812 181.281187 
L 391.832812 186.743062 
Q 391.832812 188.453062 390.985312 189.326812 
Q 390.139687 190.200562 388.487812 190.200562 
Q 386.828437 190.200562 385.980937 189.326812 
Q 385.135312 188.453062 385.135312 186.743062 
L 385.135312 181.281187 
z
M 399.462891 186.068062 
L 399.462891 190.029937 
L 398.384766 190.029937 
L 398.384766 186.103687 
Q 398.384766 185.171812 398.021016 184.710562 
Q 397.657266 184.247437 396.931641 184.247437 
Q 396.057891 184.247437 395.553516 184.804312 
Q 395.049141 185.359312 395.049141 186.321187 
L 395.049141 190.029937 
L 393.965391 190.029937 
L 393.965391 183.467437 
L 395.049141 183.467437 
L 395.049141 184.487437 
Q 395.437266 183.894937 395.960391 183.602437 
Q 396.485391 183.309937 397.171641 183.309937 
Q 398.302266 183.309937 398.881641 184.009312 
Q 399.462891 184.708687 399.462891 186.068062 
z
M 401.612109 183.467437 
L 402.690234 183.467437 
L 402.690234 190.029937 
L 401.612109 190.029937 
L 401.612109 183.467437 
z
M 401.612109 180.911812 
L 402.690234 180.911812 
L 402.690234 182.278687 
L 401.612109 182.278687 
L 401.612109 180.911812 
z
M 406.176094 182.254312 
L 406.176094 185.541187 
L 407.664844 185.541187 
Q 408.491719 185.541187 408.941719 185.113687 
Q 409.393594 184.686187 409.393594 183.894937 
Q 409.393594 183.109312 408.941719 182.681812 
Q 408.491719 182.254312 407.664844 182.254312 
L 406.176094 182.254312 
z
M 404.992969 181.281187 
L 407.664844 181.281187 
Q 409.136719 181.281187 409.888594 181.946812 
Q 410.642344 182.612437 410.642344 183.894937 
Q 410.642344 185.190562 409.888594 185.852437 
Q 409.136719 186.514312 407.664844 186.514312 
L 406.176094 186.514312 
L 406.176094 190.029937 
L 404.992969 190.029937 
L 404.992969 181.281187 
z
M 415.774922 184.474312 
Q 415.593047 184.369312 415.379297 184.320562 
Q 415.165547 184.269937 414.908672 184.269937 
Q 413.993672 184.269937 413.504297 184.864312 
Q 413.014922 185.458687 413.014922 186.572437 
L 413.014922 190.029937 
L 411.931172 190.029937 
L 411.931172 183.467437 
L 413.014922 183.467437 
L 413.014922 184.487437 
Q 413.356172 183.889312 413.899922 183.600562 
Q 414.445547 183.309937 415.225547 183.309937 
Q 415.336172 183.309937 415.471172 183.324937 
Q 415.606172 183.338062 415.769297 183.368062 
L 415.774922 184.474312 
z
M 419.178516 184.223062 
Q 418.312266 184.223062 417.807891 184.899937 
Q 417.303516 185.576812 417.303516 186.754312 
Q 417.303516 187.931812 417.804141 188.608687 
Q 418.306641 189.285562 419.178516 189.285562 
Q 420.041016 189.285562 420.543516 188.606812 
Q 421.047891 187.926187 421.047891 186.754312 
Q 421.047891 185.588062 420.543516 184.905562 
Q 420.041016 184.223062 419.178516 184.223062 
z
M 419.178516 183.309937 
Q 420.584766 183.309937 421.387266 184.224937 
Q 422.191641 185.138062 422.191641 186.754312 
Q 422.191641 188.364937 421.387266 189.283687 
Q 420.584766 190.200562 419.178516 190.200562 
Q 417.766641 190.200562 416.966016 189.283687 
Q 416.167266 188.364937 416.167266 186.754312 
Q 416.167266 185.138062 416.966016 184.224937 
Q 417.766641 183.309937 419.178516 183.309937 
z
M 425.044687 181.603687 
L 425.044687 183.467437 
L 427.264687 183.467437 
L 427.264687 184.305562 
L 425.044687 184.305562 
L 425.044687 187.868062 
Q 425.044687 188.670562 425.264062 188.899312 
Q 425.483437 189.128062 426.158437 189.128062 
L 427.264687 189.128062 
L 427.264687 190.029937 
L 426.158437 190.029937 
Q 424.909687 190.029937 424.435312 189.564937 
Q 423.960937 189.098062 423.960937 187.868062 
L 423.960937 184.305562 
L 423.169687 184.305562 
L 423.169687 183.467437 
L 423.960937 183.467437 
L 423.960937 181.603687 
L 425.044687 181.603687 
z
M 428.958516 188.541187 
L 430.194141 188.541187 
L 430.194141 190.029937 
L 428.958516 190.029937 
L 428.958516 188.541187 
z
M 428.958516 183.825562 
L 430.194141 183.825562 
L 430.194141 185.312437 
L 428.958516 185.312437 
L 428.958516 183.825562 
z
M 433.955859 182.254312 
L 433.955859 185.541187 
L 435.444609 185.541187 
Q 436.271484 185.541187 436.721484 185.113687 
Q 437.173359 184.686187 437.173359 183.894937 
Q 437.173359 183.109312 436.721484 182.681812 
Q 436.271484 182.254312 435.444609 182.254312 
L 433.955859 182.254312 
z
M 432.772734 181.281187 
L 435.444609 181.281187 
Q 436.916484 181.281187 437.668359 181.946812 
Q 438.422109 182.612437 438.422109 183.894937 
Q 438.422109 185.190562 437.668359 185.852437 
Q 436.916484 186.514312 435.444609 186.514312 
L 433.955859 186.514312 
L 433.955859 190.029937 
L 432.772734 190.029937 
L 432.772734 181.281187 
z
M 442.645312 182.061187 
Q 441.732187 182.061187 441.270937 182.961187 
Q 440.811562 183.859312 440.811562 185.664937 
Q 440.811562 187.463062 441.270937 188.363062 
Q 441.732187 189.263062 442.645312 189.263062 
Q 443.565937 189.263062 444.025312 188.363062 
Q 444.486562 187.463062 444.486562 185.664937 
Q 444.486562 183.859312 444.025312 182.961187 
Q 443.565937 182.061187 442.645312 182.061187 
z
M 442.645312 181.123687 
Q 444.117187 181.123687 444.893437 182.288062 
Q 445.669687 183.450562 445.669687 185.664937 
Q 445.669687 187.873687 444.893437 189.038062 
Q 444.117187 190.200562 442.645312 190.200562 
Q 441.175312 190.200562 440.399062 189.038062 
Q 439.622812 187.873687 439.622812 185.664937 
Q 439.622812 183.450562 440.399062 182.288062 
Q 441.175312 181.123687 442.645312 181.123687 
z
M 448.826953 182.254312 
L 448.826953 189.056812 
L 450.257578 189.056812 
Q 452.068828 189.056812 452.908828 188.237437 
Q 453.748828 187.416187 453.748828 185.646187 
Q 453.748828 183.889312 452.908828 183.071812 
Q 452.068828 182.254312 450.257578 182.254312 
L 448.826953 182.254312 
z
M 447.643828 181.281187 
L 450.075703 181.281187 
Q 452.618203 181.281187 453.806953 182.338687 
Q 454.997578 183.396187 454.997578 185.646187 
Q 454.997578 187.909312 453.801328 188.970562 
Q 452.606953 190.029937 450.075703 190.029937 
L 447.643828 190.029937 
L 447.643828 181.281187 
z
M 455.670937 181.281187 
L 463.071562 181.281187 
L 463.071562 182.278687 
L 459.966562 182.278687 
L 459.966562 190.029937 
L 458.777812 190.029937 
L 458.777812 182.278687 
L 455.670937 182.278687 
L 455.670937 181.281187 
z
M 465.397266 182.254312 
L 465.397266 189.056812 
L 466.827891 189.056812 
Q 468.639141 189.056812 469.479141 188.237437 
Q 470.319141 187.416187 470.319141 185.646187 
Q 470.319141 183.889312 469.479141 183.071812 
Q 468.639141 182.254312 466.827891 182.254312 
L 465.397266 182.254312 
z
M 464.214141 181.281187 
L 466.646016 181.281187 
Q 469.188516 181.281187 470.377266 182.338687 
Q 471.567891 183.396187 471.567891 185.646187 
Q 471.567891 187.909312 470.371641 188.970562 
Q 469.177266 190.029937 466.646016 190.029937 
L 464.214141 190.029937 
L 464.214141 181.281187 
z
M 473.765625 189.034312 
L 475.69875 189.034312 
L 475.69875 182.359312 
L 473.595 182.781187 
L 473.595 181.703062 
L 475.6875 181.281187 
L 476.870625 181.281187 
L 476.870625 189.034312 
L 478.80375 189.034312 
L 478.80375 190.029937 
L 473.765625 190.029937 
L 473.765625 189.034312 
z
" clip-path="url(#pdcaac9222d)" style="fill: #ffffff; stroke: #000000; stroke-width: 2"/>
    <path d="M 385.135312 181.281187 
L 386.325937 181.281187 
L 386.325937 186.596812 
Q 386.325937 188.003062 386.834062 188.621812 
Q 387.344062 189.238687 388.487812 189.238687 
Q 389.624062 189.238687 390.134062 188.621812 
Q 390.644062 188.003062 390.644062 186.596812 
L 390.644062 181.281187 
L 391.832812 181.281187 
L 391.832812 186.743062 
Q 391.832812 188.453062 390.985312 189.326812 
Q 390.139687 190.200562 388.487812 190.200562 
Q 386.828437 190.200562 385.980937 189.326812 
Q 385.135312 188.453062 385.135312 186.743062 
L 385.135312 181.281187 
z
M 399.462891 186.068062 
L 399.462891 190.029937 
L 398.384766 190.029937 
L 398.384766 186.103687 
Q 398.384766 185.171812 398.021016 184.710562 
Q 397.657266 184.247437 396.931641 184.247437 
Q 396.057891 184.247437 395.553516 184.804312 
Q 395.049141 185.359312 395.049141 186.321187 
L 395.049141 190.029937 
L 393.965391 190.029937 
L 393.965391 183.467437 
L 395.049141 183.467437 
L 395.049141 184.487437 
Q 395.437266 183.894937 395.960391 183.602437 
Q 396.485391 183.309937 397.171641 183.309937 
Q 398.302266 183.309937 398.881641 184.009312 
Q 399.462891 184.708687 399.462891 186.068062 
z
M 401.612109 183.467437 
L 402.690234 183.467437 
L 402.690234 190.029937 
L 401.612109 190.029937 
L 401.612109 183.467437 
z
M 401.612109 180.911812 
L 402.690234 180.911812 
L 402.690234 182.278687 
L 401.612109 182.278687 
L 401.612109 180.911812 
z
M 406.176094 182.254312 
L 406.176094 185.541187 
L 407.664844 185.541187 
Q 408.491719 185.541187 408.941719 185.113687 
Q 409.393594 184.686187 409.393594 183.894937 
Q 409.393594 183.109312 408.941719 182.681812 
Q 408.491719 182.254312 407.664844 182.254312 
L 406.176094 182.254312 
z
M 404.992969 181.281187 
L 407.664844 181.281187 
Q 409.136719 181.281187 409.888594 181.946812 
Q 410.642344 182.612437 410.642344 183.894937 
Q 410.642344 185.190562 409.888594 185.852437 
Q 409.136719 186.514312 407.664844 186.514312 
L 406.176094 186.514312 
L 406.176094 190.029937 
L 404.992969 190.029937 
L 404.992969 181.281187 
z
M 415.774922 184.474312 
Q 415.593047 184.369312 415.379297 184.320562 
Q 415.165547 184.269937 414.908672 184.269937 
Q 413.993672 184.269937 413.504297 184.864312 
Q 413.014922 185.458687 413.014922 186.572437 
L 413.014922 190.029937 
L 411.931172 190.029937 
L 411.931172 183.467437 
L 413.014922 183.467437 
L 413.014922 184.487437 
Q 413.356172 183.889312 413.899922 183.600562 
Q 414.445547 183.309937 415.225547 183.309937 
Q 415.336172 183.309937 415.471172 183.324937 
Q 415.606172 183.338062 415.769297 183.368062 
L 415.774922 184.474312 
z
M 419.178516 184.223062 
Q 418.312266 184.223062 417.807891 184.899937 
Q 417.303516 185.576812 417.303516 186.754312 
Q 417.303516 187.931812 417.804141 188.608687 
Q 418.306641 189.285562 419.178516 189.285562 
Q 420.041016 189.285562 420.543516 188.606812 
Q 421.047891 187.926187 421.047891 186.754312 
Q 421.047891 185.588062 420.543516 184.905562 
Q 420.041016 184.223062 419.178516 184.223062 
z
M 419.178516 183.309937 
Q 420.584766 183.309937 421.387266 184.224937 
Q 422.191641 185.138062 422.191641 186.754312 
Q 422.191641 188.364937 421.387266 189.283687 
Q 420.584766 190.200562 419.178516 190.200562 
Q 417.766641 190.200562 416.966016 189.283687 
Q 416.167266 188.364937 416.167266 186.754312 
Q 416.167266 185.138062 416.966016 184.224937 
Q 417.766641 183.309937 419.178516 183.309937 
z
M 425.044687 181.603687 
L 425.044687 183.467437 
L 427.264687 183.467437 
L 427.264687 184.305562 
L 425.044687 184.305562 
L 425.044687 187.868062 
Q 425.044687 188.670562 425.264062 188.899312 
Q 425.483437 189.128062 426.158437 189.128062 
L 427.264687 189.128062 
L 427.264687 190.029937 
L 426.158437 190.029937 
Q 424.909687 190.029937 424.435312 189.564937 
Q 423.960937 189.098062 423.960937 187.868062 
L 423.960937 184.305562 
L 423.169687 184.305562 
L 423.169687 183.467437 
L 423.960937 183.467437 
L 423.960937 181.603687 
L 425.044687 181.603687 
z
M 428.958516 188.541187 
L 430.194141 188.541187 
L 430.194141 190.029937 
L 428.958516 190.029937 
L 428.958516 188.541187 
z
M 428.958516 183.825562 
L 430.194141 183.825562 
L 430.194141 185.312437 
L 428.958516 185.312437 
L 428.958516 183.825562 
z
M 433.955859 182.254312 
L 433.955859 185.541187 
L 435.444609 185.541187 
Q 436.271484 185.541187 436.721484 185.113687 
Q 437.173359 184.686187 437.173359 183.894937 
Q 437.173359 183.109312 436.721484 182.681812 
Q 436.271484 182.254312 435.444609 182.254312 
L 433.955859 182.254312 
z
M 432.772734 181.281187 
L 435.444609 181.281187 
Q 436.916484 181.281187 437.668359 181.946812 
Q 438.422109 182.612437 438.422109 183.894937 
Q 438.422109 185.190562 437.668359 185.852437 
Q 436.916484 186.514312 435.444609 186.514312 
L 433.955859 186.514312 
L 433.955859 190.029937 
L 432.772734 190.029937 
L 432.772734 181.281187 
z
M 442.645312 182.061187 
Q 441.732187 182.061187 441.270937 182.961187 
Q 440.811562 183.859312 440.811562 185.664937 
Q 440.811562 187.463062 441.270937 188.363062 
Q 441.732187 189.263062 442.645312 189.263062 
Q 443.565937 189.263062 444.025312 188.363062 
Q 444.486562 187.463062 444.486562 185.664937 
Q 444.486562 183.859312 444.025312 182.961187 
Q 443.565937 182.061187 442.645312 182.061187 
z
M 442.645312 181.123687 
Q 444.117187 181.123687 444.893437 182.288062 
Q 445.669687 183.450562 445.669687 185.664937 
Q 445.669687 187.873687 444.893437 189.038062 
Q 444.117187 190.200562 442.645312 190.200562 
Q 441.175312 190.200562 440.399062 189.038062 
Q 439.622812 187.873687 439.622812 185.664937 
Q 439.622812 183.450562 440.399062 182.288062 
Q 441.175312 181.123687 442.645312 181.123687 
z
M 448.826953 182.254312 
L 448.826953 189.056812 
L 450.257578 189.056812 
Q 452.068828 189.056812 452.908828 188.237437 
Q 453.748828 187.416187 453.748828 185.646187 
Q 453.748828 183.889312 452.908828 183.071812 
Q 452.068828 182.254312 450.257578 182.254312 
L 448.826953 182.254312 
z
M 447.643828 181.281187 
L 450.075703 181.281187 
Q 452.618203 181.281187 453.806953 182.338687 
Q 454.997578 183.396187 454.997578 185.646187 
Q 454.997578 187.909312 453.801328 188.970562 
Q 452.606953 190.029937 450.075703 190.029937 
L 447.643828 190.029937 
L 447.643828 181.281187 
z
M 455.670937 181.281187 
L 463.071562 181.281187 
L 463.071562 182.278687 
L 459.966562 182.278687 
L 459.966562 190.029937 
L 458.777812 190.029937 
L 458.777812 182.278687 
L 455.670937 182.278687 
L 455.670937 181.281187 
z
M 465.397266 182.254312 
L 465.397266 189.056812 
L 466.827891 189.056812 
Q 468.639141 189.056812 469.479141 188.237437 
Q 470.319141 187.416187 470.319141 185.646187 
Q 470.319141 183.889312 469.479141 183.071812 
Q 468.639141 182.254312 466.827891 182.254312 
L 465.397266 182.254312 
z
M 464.214141 181.281187 
L 466.646016 181.281187 
Q 469.188516 181.281187 470.377266 182.338687 
Q 471.567891 183.396187 471.567891 185.646187 
Q 471.567891 187.909312 470.371641 188.970562 
Q 469.177266 190.029937 466.646016 190.029937 
L 464.214141 190.029937 
L 464.214141 181.281187 
z
M 473.765625 189.034312 
L 475.69875 189.034312 
L 475.69875 182.359312 
L 473.595 182.781187 
L 473.595 181.703062 
L 475.6875 181.281187 
L 476.870625 181.281187 
L 476.870625 189.034312 
L 478.80375 189.034312 
L 478.80375 190.029937 
L 473.765625 190.029937 
L 473.765625 189.034312 
z
" clip-path="url(#pdcaac9222d)" style="fill: #ffffff"/>
    <path d="M 413.331562 195.691687 
L 413.331562 198.978562 
L 414.820312 198.978562 
Q 415.647187 198.978562 416.097187 198.551062 
Q 416.549062 198.123562 416.549062 197.332312 
Q 416.549062 196.546687 416.097187 196.119187 
Q 415.647187 195.691687 414.820312 195.691687 
L 413.331562 195.691687 
z
M 412.148437 194.718562 
L 414.820312 194.718562 
Q 416.292187 194.718562 417.044062 195.384187 
Q 417.797812 196.049812 417.797812 197.332312 
Q 417.797812 198.627937 417.044062 199.289812 
Q 416.292187 199.951687 414.820312 199.951687 
L 413.331562 199.951687 
L 413.331562 203.467312 
L 412.148437 203.467312 
L 412.148437 194.718562 
z
M 422.930391 197.911687 
Q 422.748516 197.806687 422.534766 197.757937 
Q 422.321016 197.707312 422.064141 197.707312 
Q 421.149141 197.707312 420.659766 198.301687 
Q 420.170391 198.896062 420.170391 200.009812 
L 420.170391 203.467312 
L 419.086641 203.467312 
L 419.086641 196.904812 
L 420.170391 196.904812 
L 420.170391 197.924812 
Q 420.511641 197.326687 421.055391 197.037937 
Q 421.601016 196.747312 422.381016 196.747312 
Q 422.491641 196.747312 422.626641 196.762312 
Q 422.761641 196.775437 422.924766 196.805437 
L 422.930391 197.911687 
z
M 426.333984 197.660437 
Q 425.467734 197.660437 424.963359 198.337312 
Q 424.458984 199.014187 424.458984 200.191687 
Q 424.458984 201.369187 424.959609 202.046062 
Q 425.462109 202.722937 426.333984 202.722937 
Q 427.196484 202.722937 427.698984 202.044187 
Q 428.203359 201.363562 428.203359 200.191687 
Q 428.203359 199.025437 427.698984 198.342937 
Q 427.196484 197.660437 426.333984 197.660437 
z
M 426.333984 196.747312 
Q 427.740234 196.747312 428.542734 197.662312 
Q 429.347109 198.575437 429.347109 200.191687 
Q 429.347109 201.802312 428.542734 202.721062 
Q 427.740234 203.637937 426.333984 203.637937 
Q 424.922109 203.637937 424.121484 202.721062 
Q 423.322734 201.802312 423.322734 200.191687 
Q 423.322734 198.575437 424.121484 197.662312 
Q 424.922109 196.747312 426.333984 196.747312 
z
M 432.200156 195.041062 
L 432.200156 196.904812 
L 434.420156 196.904812 
L 434.420156 197.742937 
L 432.200156 197.742937 
L 432.200156 201.305437 
Q 432.200156 202.107937 432.419531 202.336687 
Q 432.638906 202.565437 433.313906 202.565437 
L 434.420156 202.565437 
L 434.420156 203.467312 
L 433.313906 203.467312 
Q 432.065156 203.467312 431.590781 203.002312 
Q 431.116406 202.535437 431.116406 201.305437 
L 431.116406 197.742937 
L 430.325156 197.742937 
L 430.325156 196.904812 
L 431.116406 196.904812 
L 431.116406 195.041062 
L 432.200156 195.041062 
z
M 441.452109 199.916062 
L 441.452109 200.442937 
L 436.494609 200.442937 
Q 436.565859 201.556687 437.165859 202.139812 
Q 437.765859 202.722937 438.838359 202.722937 
Q 439.458984 202.722937 440.042109 202.571062 
Q 440.625234 202.419187 441.200859 202.113562 
L 441.200859 203.133562 
Q 440.619609 203.379187 440.010234 203.508562 
Q 439.400859 203.637937 438.774609 203.637937 
Q 437.203359 203.637937 436.286484 202.724812 
Q 435.369609 201.809812 435.369609 200.249812 
Q 435.369609 198.639187 436.239609 197.694187 
Q 437.109609 196.747312 438.587109 196.747312 
Q 439.910859 196.747312 440.681484 197.600437 
Q 441.452109 198.451687 441.452109 199.916062 
z
M 440.373984 199.599187 
Q 440.362734 198.716062 439.878984 198.189187 
Q 439.395234 197.660437 438.598359 197.660437 
Q 437.696484 197.660437 437.154609 198.170437 
Q 436.612734 198.680437 436.530234 199.606687 
L 440.373984 199.599187 
z
M 443.221172 196.904812 
L 444.299297 196.904812 
L 444.299297 203.467312 
L 443.221172 203.467312 
L 443.221172 196.904812 
z
M 443.221172 194.349187 
L 444.299297 194.349187 
L 444.299297 195.716062 
L 443.221172 195.716062 
L 443.221172 194.349187 
z
M 452.011406 199.505437 
L 452.011406 203.467312 
L 450.933281 203.467312 
L 450.933281 199.541062 
Q 450.933281 198.609187 450.569531 198.147937 
Q 450.205781 197.684812 449.480156 197.684812 
Q 448.606406 197.684812 448.102031 198.241687 
Q 447.597656 198.796687 447.597656 199.758562 
L 447.597656 203.467312 
L 446.513906 203.467312 
L 446.513906 196.904812 
L 447.597656 196.904812 
L 447.597656 197.924812 
Q 447.985781 197.332312 448.508906 197.039812 
Q 449.033906 196.747312 449.720156 196.747312 
Q 450.850781 196.747312 451.430156 197.446687 
Q 452.011406 198.146062 452.011406 199.505437 
z
" clip-path="url(#pdcaac9222d)" style="fill: #ffffff; stroke: #000000; stroke-width: 2"/>
    <path d="M 413.331562 195.691687 
L 413.331562 198.978562 
L 414.820312 198.978562 
Q 415.647187 198.978562 416.097187 198.551062 
Q 416.549062 198.123562 416.549062 197.332312 
Q 416.549062 196.546687 416.097187 196.119187 
Q 415.647187 195.691687 414.820312 195.691687 
L 413.331562 195.691687 
z
M 412.148437 194.718562 
L 414.820312 194.718562 
Q 416.292187 194.718562 417.044062 195.384187 
Q 417.797812 196.049812 417.797812 197.332312 
Q 417.797812 198.627937 417.044062 199.289812 
Q 416.292187 199.951687 414.820312 199.951687 
L 413.331562 199.951687 
L 413.331562 203.467312 
L 412.148437 203.467312 
L 412.148437 194.718562 
z
M 422.930391 197.911687 
Q 422.748516 197.806687 422.534766 197.757937 
Q 422.321016 197.707312 422.064141 197.707312 
Q 421.149141 197.707312 420.659766 198.301687 
Q 420.170391 198.896062 420.170391 200.009812 
L 420.170391 203.467312 
L 419.086641 203.467312 
L 419.086641 196.904812 
L 420.170391 196.904812 
L 420.170391 197.924812 
Q 420.511641 197.326687 421.055391 197.037937 
Q 421.601016 196.747312 422.381016 196.747312 
Q 422.491641 196.747312 422.626641 196.762312 
Q 422.761641 196.775437 422.924766 196.805437 
L 422.930391 197.911687 
z
M 426.333984 197.660437 
Q 425.467734 197.660437 424.963359 198.337312 
Q 424.458984 199.014187 424.458984 200.191687 
Q 424.458984 201.369187 424.959609 202.046062 
Q 425.462109 202.722937 426.333984 202.722937 
Q 427.196484 202.722937 427.698984 202.044187 
Q 428.203359 201.363562 428.203359 200.191687 
Q 428.203359 199.025437 427.698984 198.342937 
Q 427.196484 197.660437 426.333984 197.660437 
z
M 426.333984 196.747312 
Q 427.740234 196.747312 428.542734 197.662312 
Q 429.347109 198.575437 429.347109 200.191687 
Q 429.347109 201.802312 428.542734 202.721062 
Q 427.740234 203.637937 426.333984 203.637937 
Q 424.922109 203.637937 424.121484 202.721062 
Q 423.322734 201.802312 423.322734 200.191687 
Q 423.322734 198.575437 424.121484 197.662312 
Q 424.922109 196.747312 426.333984 196.747312 
z
M 432.200156 195.041062 
L 432.200156 196.904812 
L 434.420156 196.904812 
L 434.420156 197.742937 
L 432.200156 197.742937 
L 432.200156 201.305437 
Q 432.200156 202.107937 432.419531 202.336687 
Q 432.638906 202.565437 433.313906 202.565437 
L 434.420156 202.565437 
L 434.420156 203.467312 
L 433.313906 203.467312 
Q 432.065156 203.467312 431.590781 203.002312 
Q 431.116406 202.535437 431.116406 201.305437 
L 431.116406 197.742937 
L 430.325156 197.742937 
L 430.325156 196.904812 
L 431.116406 196.904812 
L 431.116406 195.041062 
L 432.200156 195.041062 
z
M 441.452109 199.916062 
L 441.452109 200.442937 
L 436.494609 200.442937 
Q 436.565859 201.556687 437.165859 202.139812 
Q 437.765859 202.722937 438.838359 202.722937 
Q 439.458984 202.722937 440.042109 202.571062 
Q 440.625234 202.419187 441.200859 202.113562 
L 441.200859 203.133562 
Q 440.619609 203.379187 440.010234 203.508562 
Q 439.400859 203.637937 438.774609 203.637937 
Q 437.203359 203.637937 436.286484 202.724812 
Q 435.369609 201.809812 435.369609 200.249812 
Q 435.369609 198.639187 436.239609 197.694187 
Q 437.109609 196.747312 438.587109 196.747312 
Q 439.910859 196.747312 440.681484 197.600437 
Q 441.452109 198.451687 441.452109 199.916062 
z
M 440.373984 199.599187 
Q 440.362734 198.716062 439.878984 198.189187 
Q 439.395234 197.660437 438.598359 197.660437 
Q 437.696484 197.660437 437.154609 198.170437 
Q 436.612734 198.680437 436.530234 199.606687 
L 440.373984 199.599187 
z
M 443.221172 196.904812 
L 444.299297 196.904812 
L 444.299297 203.467312 
L 443.221172 203.467312 
L 443.221172 196.904812 
z
M 443.221172 194.349187 
L 444.299297 194.349187 
L 444.299297 195.716062 
L 443.221172 195.716062 
L 443.221172 194.349187 
z
M 452.011406 199.505437 
L 452.011406 203.467312 
L 450.933281 203.467312 
L 450.933281 199.541062 
Q 450.933281 198.609187 450.569531 198.147937 
Q 450.205781 197.684812 449.480156 197.684812 
Q 448.606406 197.684812 448.102031 198.241687 
Q 447.597656 198.796687 447.597656 199.758562 
L 447.597656 203.467312 
L 446.513906 203.467312 
L 446.513906 196.904812 
L 447.597656 196.904812 
L 447.597656 197.924812 
Q 447.985781 197.332312 448.508906 197.039812 
Q 449.033906 196.747312 449.720156 196.747312 
Q 450.850781 196.747312 451.430156 197.446687 
Q 452.011406 198.146062 452.011406 199.505437 
z
" clip-path="url(#pdcaac9222d)" style="fill: #ffffff"/>
   </g>
   <g id="text_4">
    <g clip-path="url(#pdcaac9222d)">
     <!-- carmofur -->
     <g transform="translate(47.740832 169.873875)scale(0.12 -0.12)">
      <defs>
       <path id="DejaVuSans-6d" d="M 3328 2828 
Q 3544 3216 3844 3400 
Q 4144 3584 4550 3584 
Q 5097 3584 5394 3201 
Q 5691 2819 5691 2113 
L 5691 0 
L 5113 0 
L 5113 2094 
Q 5113 2597 4934 2840 
Q 4756 3084 4391 3084 
Q 3944 3084 3684 2787 
Q 3425 2491 3425 1978 
L 3425 0 
L 2847 0 
L 2847 2094 
Q 2847 2600 2669 2842 
Q 2491 3084 2119 3084 
Q 1678 3084 1418 2786 
Q 1159 2488 1159 1978 
L 1159 0 
L 581 0 
L 581 3500 
L 1159 3500 
L 1159 2956 
Q 1356 3278 1631 3431 
Q 1906 3584 2284 3584 
Q 2666 3584 2933 3390 
Q 3200 3197 3328 2828 
z
" transform="scale(0.015625)"/>
       <path id="DejaVuSans-75" d="M 544 1381 
L 544 3500 
L 1119 3500 
L 1119 1403 
Q 1119 906 1312 657 
Q 1506 409 1894 409 
Q 2359 409 2629 706 
Q 2900 1003 2900 1516 
L 2900 3500 
L 3475 3500 
L 3475 0 
L 2900 0 
L 2900 538 
Q 2691 219 2414 64 
Q 2138 -91 1772 -91 
Q 1169 -91 856 284 
Q 544 659 544 1381 
z
M 1991 3584 
L 1991 3584 
z
" transform="scale(0.015625)"/>
      </defs>
      <use xlink:href="#DejaVuSans-63"/>
      <use xlink:href="#DejaVuSans-61" x="54.980469"/>
      <use xlink:href="#DejaVuSans-72" x="116.259766"/>
      <use xlink:href="#DejaVuSans-6d" x="155.623047"/>
      <use xlink:href="#DejaVuSans-6f" x="253.035156"/>
      <use xlink:href="#DejaVuSans-66" x="314.216797"/>
      <use xlink:href="#DejaVuSans-75" x="349.421875"/>
      <use xlink:href="#DejaVuSans-72" x="412.800781"/>
     </g>
    </g>
    <g clip-path="url(#pdcaac9222d)">
     <!-- MESH:C017367 -->
     <g transform="translate(28.569894 183.31125)scale(0.12 -0.12)">
      <defs>
       <path id="DejaVuSans-4d" d="M 628 4666 
L 1569 4666 
L 2759 1491 
L 3956 4666 
L 4897 4666 
L 4897 0 
L 4281 0 
L 4281 4097 
L 3078 897 
L 2444 897 
L 1241 4097 
L 1241 0 
L 628 0 
L 628 4666 
z
" transform="scale(0.015625)"/>
       <path id="DejaVuSans-45" d="M 628 4666 
L 3578 4666 
L 3578 4134 
L 1259 4134 
L 1259 2753 
L 3481 2753 
L 3481 2222 
L 1259 2222 
L 1259 531 
L 3634 531 
L 3634 0 
L 628 0 
L 628 4666 
z
" transform="scale(0.015625)"/>
       <path id="DejaVuSans-53" d="M 3425 4513 
L 3425 3897 
Q 3066 4069 2747 4153 
Q 2428 4238 2131 4238 
Q 1616 4238 1336 4038 
Q 1056 3838 1056 3469 
Q 1056 3159 1242 3001 
Q 1428 2844 1947 2747 
L 2328 2669 
Q 3034 2534 3370 2195 
Q 3706 1856 3706 1288 
Q 3706 609 3251 259 
Q 2797 -91 1919 -91 
Q 1588 -91 1214 -16 
Q 841 59 441 206 
L 441 856 
Q 825 641 1194 531 
Q 1563 422 1919 422 
Q 2459 422 2753 634 
Q 3047 847 3047 1241 
Q 3047 1584 2836 1778 
Q 2625 1972 2144 2069 
L 1759 2144 
Q 1053 2284 737 2584 
Q 422 2884 422 3419 
Q 422 4038 858 4394 
Q 1294 4750 2059 4750 
Q 2388 4750 2728 4690 
Q 3069 4631 3425 4513 
z
" transform="scale(0.015625)"/>
       <path id="DejaVuSans-48" d="M 628 4666 
L 1259 4666 
L 1259 2753 
L 3553 2753 
L 3553 4666 
L 4184 4666 
L 4184 0 
L 3553 0 
L 3553 2222 
L 1259 2222 
L 1259 0 
L 628 0 
L 628 4666 
z
" transform="scale(0.015625)"/>
       <path id="DejaVuSans-3a" d="M 750 794 
L 1409 794 
L 1409 0 
L 750 0 
L 750 794 
z
M 750 3309 
L 1409 3309 
L 1409 2516 
L 750 2516 
L 750 3309 
z
" transform="scale(0.015625)"/>
       <path id="DejaVuSans-43" d="M 4122 4306 
L 4122 3641 
Q 3803 3938 3442 4084 
Q 3081 4231 2675 4231 
Q 1875 4231 1450 3742 
Q 1025 3253 1025 2328 
Q 1025 1406 1450 917 
Q 1875 428 2675 428 
Q 3081 428 3442 575 
Q 3803 722 4122 1019 
L 4122 359 
Q 3791 134 3420 21 
Q 3050 -91 2638 -91 
Q 1578 -91 968 557 
Q 359 1206 359 2328 
Q 359 3453 968 4101 
Q 1578 4750 2638 4750 
Q 3056 4750 3426 4639 
Q 3797 4528 4122 4306 
z
" transform="scale(0.015625)"/>
       <path id="DejaVuSans-30" d="M 2034 4250 
Q 1547 4250 1301 3770 
Q 1056 3291 1056 2328 
Q 1056 1369 1301 889 
Q 1547 409 2034 409 
Q 2525 409 2770 889 
Q 3016 1369 3016 2328 
Q 3016 3291 2770 3770 
Q 2525 4250 2034 4250 
z
M 2034 4750 
Q 2819 4750 3233 4129 
Q 3647 3509 3647 2328 
Q 3647 1150 3233 529 
Q 2819 -91 2034 -91 
Q 1250 -91 836 529 
Q 422 1150 422 2328 
Q 422 3509 836 4129 
Q 1250 4750 2034 4750 
z
" transform="scale(0.015625)"/>
       <path id="DejaVuSans-31" d="M 794 531 
L 1825 531 
L 1825 4091 
L 703 3866 
L 703 4441 
L 1819 4666 
L 2450 4666 
L 2450 531 
L 3481 531 
L 3481 0 
L 794 0 
L 794 531 
z
" transform="scale(0.015625)"/>
       <path id="DejaVuSans-37" d="M 525 4666 
L 3525 4666 
L 3525 4397 
L 1831 0 
L 1172 0 
L 2766 4134 
L 525 4134 
L 525 4666 
z
" transform="scale(0.015625)"/>
       <path id="DejaVuSans-33" d="M 2597 2516 
Q 3050 2419 3304 2112 
Q 3559 1806 3559 1356 
Q 3559 666 3084 287 
Q 2609 -91 1734 -91 
Q 1441 -91 1130 -33 
Q 819 25 488 141 
L 488 750 
Q 750 597 1062 519 
Q 1375 441 1716 441 
Q 2309 441 2620 675 
Q 2931 909 2931 1356 
Q 2931 1769 2642 2001 
Q 2353 2234 1838 2234 
L 1294 2234 
L 1294 2753 
L 1863 2753 
Q 2328 2753 2575 2939 
Q 2822 3125 2822 3475 
Q 2822 3834 2567 4026 
Q 2313 4219 1838 4219 
Q 1578 4219 1281 4162 
Q 984 4106 628 3988 
L 628 4550 
Q 988 4650 1302 4700 
Q 1616 4750 1894 4750 
Q 2613 4750 3031 4423 
Q 3450 4097 3450 3541 
Q 3450 3153 3228 2886 
Q 3006 2619 2597 2516 
z
" transform="scale(0.015625)"/>
       <path id="DejaVuSans-36" d="M 2113 2584 
Q 1688 2584 1439 2293 
Q 1191 2003 1191 1497 
Q 1191 994 1439 701 
Q 1688 409 2113 409 
Q 2538 409 2786 701 
Q 3034 994 3034 1497 
Q 3034 2003 2786 2293 
Q 2538 2584 2113 2584 
z
M 3366 4563 
L 3366 3988 
Q 3128 4100 2886 4159 
Q 2644 4219 2406 4219 
Q 1781 4219 1451 3797 
Q 1122 3375 1075 2522 
Q 1259 2794 1537 2939 
Q 1816 3084 2150 3084 
Q 2853 3084 3261 2657 
Q 3669 2231 3669 1497 
Q 3669 778 3244 343 
Q 2819 -91 2113 -91 
Q 1303 -91 875 529 
Q 447 1150 447 2328 
Q 447 3434 972 4092 
Q 1497 4750 2381 4750 
Q 2619 4750 2861 4703 
Q 3103 4656 3366 4563 
z
" transform="scale(0.015625)"/>
      </defs>
      <use xlink:href="#DejaVuSans-4d"/>
      <use xlink:href="#DejaVuSans-45" x="86.279297"/>
      <use xlink:href="#DejaVuSans-53" x="149.462891"/>
      <use xlink:href="#DejaVuSans-48" x="212.939453"/>
      <use xlink:href="#DejaVuSans-3a" x="288.134766"/>
      <use xlink:href="#DejaVuSans-43" x="321.826172"/>
      <use xlink:href="#DejaVuSans-30" x="391.650391"/>
      <use xlink:href="#DejaVuSans-31" x="455.273438"/>
      <use xlink:href="#DejaVuSans-37" x="518.896484"/>
      <use xlink:href="#DejaVuSans-33" x="582.519531"/>
      <use xlink:href="#DejaVuSans-36" x="646.142578"/>
      <use xlink:href="#DejaVuSans-37" x="709.765625"/>
     </g>
    </g>
    <g clip-path="url(#pdcaac9222d)">
     <!-- Drug -->
     <g transform="translate(60.277082 196.748625)scale(0.12 -0.12)">
      <defs>
       <path id="DejaVuSans-44" d="M 1259 4147 
L 1259 519 
L 2022 519 
Q 2988 519 3436 956 
Q 3884 1394 3884 2338 
Q 3884 3275 3436 3711 
Q 2988 4147 2022 4147 
L 1259 4147 
z
M 628 4666 
L 1925 4666 
Q 3281 4666 3915 4102 
Q 4550 3538 4550 2338 
Q 4550 1131 3912 565 
Q 3275 0 1925 0 
L 628 0 
L 628 4666 
z
" transform="scale(0.015625)"/>
       <path id="DejaVuSans-67" d="M 2906 1791 
Q 2906 2416 2648 2759 
Q 2391 3103 1925 3103 
Q 1463 3103 1205 2759 
Q 947 2416 947 1791 
Q 947 1169 1205 825 
Q 1463 481 1925 481 
Q 2391 481 2648 825 
Q 2906 1169 2906 1791 
z
M 3481 434 
Q 3481 -459 3084 -895 
Q 2688 -1331 1869 -1331 
Q 1566 -1331 1297 -1286 
Q 1028 -1241 775 -1147 
L 775 -588 
Q 1028 -725 1275 -790 
Q 1522 -856 1778 -856 
Q 2344 -856 2625 -561 
Q 2906 -266 2906 331 
L 2906 616 
Q 2728 306 2450 153 
Q 2172 0 1784 0 
Q 1141 0 747 490 
Q 353 981 353 1791 
Q 353 2603 747 3093 
Q 1141 3584 1784 3584 
Q 2172 3584 2450 3431 
Q 2728 3278 2906 2969 
L 2906 3500 
L 3481 3500 
L 3481 434 
z
" transform="scale(0.015625)"/>
      </defs>
      <use xlink:href="#DejaVuSans-44"/>
      <use xlink:href="#DejaVuSans-72" x="77.001953"/>
      <use xlink:href="#DejaVuSans-75" x="118.115234"/>
      <use xlink:href="#DejaVuSans-67" x="181.494141"/>
     </g>
    </g>
   </g>
   <g id="text_5">
    <g clip-path="url(#pdcaac9222d)">
     <!-- covid-19 -->
     <g transform="translate(763.227606 169.873875)scale(0.12 -0.12)">
      <defs>
       <path id="DejaVuSans-2d" d="M 313 2009 
L 1997 2009 
L 1997 1497 
L 313 1497 
L 313 2009 
z
" transform="scale(0.015625)"/>
       <path id="DejaVuSans-39" d="M 703 97 
L 703 672 
Q 941 559 1184 500 
Q 1428 441 1663 441 
Q 2288 441 2617 861 
Q 2947 1281 2994 2138 
Q 2813 1869 2534 1725 
Q 2256 1581 1919 1581 
Q 1219 1581 811 2004 
Q 403 2428 403 3163 
Q 403 3881 828 4315 
Q 1253 4750 1959 4750 
Q 2769 4750 3195 4129 
Q 3622 3509 3622 2328 
Q 3622 1225 3098 567 
Q 2575 -91 1691 -91 
Q 1453 -91 1209 -44 
Q 966 3 703 97 
z
M 1959 2075 
Q 2384 2075 2632 2365 
Q 2881 2656 2881 3163 
Q 2881 3666 2632 3958 
Q 2384 4250 1959 4250 
Q 1534 4250 1286 3958 
Q 1038 3666 1038 3163 
Q 1038 2656 1286 2365 
Q 1534 2075 1959 2075 
z
" transform="scale(0.015625)"/>
      </defs>
      <use xlink:href="#DejaVuSans-63"/>
      <use xlink:href="#DejaVuSans-6f" x="54.980469"/>
      <use xlink:href="#DejaVuSans-76" x="116.162109"/>
      <use xlink:href="#DejaVuSans-69" x="175.341797"/>
      <use xlink:href="#DejaVuSans-64" x="203.125"/>
      <use xlink:href="#DejaVuSans-2d" x="266.601562"/>
      <use xlink:href="#DejaVuSans-31" x="302.685547"/>
      <use xlink:href="#DejaVuSans-39" x="366.308594"/>
     </g>
    </g>
    <g clip-path="url(#pdcaac9222d)">
     <!-- MESH:D000086382 -->
     <g transform="translate(730.736668 183.31125)scale(0.12 -0.12)">
      <defs>
       <path id="DejaVuSans-38" d="M 2034 2216 
Q 1584 2216 1326 1975 
Q 1069 1734 1069 1313 
Q 1069 891 1326 650 
Q 1584 409 2034 409 
Q 2484 409 2743 651 
Q 3003 894 3003 1313 
Q 3003 1734 2745 1975 
Q 2488 2216 2034 2216 
z
M 1403 2484 
Q 997 2584 770 2862 
Q 544 3141 544 3541 
Q 544 4100 942 4425 
Q 1341 4750 2034 4750 
Q 2731 4750 3128 4425 
Q 3525 4100 3525 3541 
Q 3525 3141 3298 2862 
Q 3072 2584 2669 2484 
Q 3125 2378 3379 2068 
Q 3634 1759 3634 1313 
Q 3634 634 3220 271 
Q 2806 -91 2034 -91 
Q 1263 -91 848 271 
Q 434 634 434 1313 
Q 434 1759 690 2068 
Q 947 2378 1403 2484 
z
M 1172 3481 
Q 1172 3119 1398 2916 
Q 1625 2713 2034 2713 
Q 2441 2713 2670 2916 
Q 2900 3119 2900 3481 
Q 2900 3844 2670 4047 
Q 2441 4250 2034 4250 
Q 1625 4250 1398 4047 
Q 1172 3844 1172 3481 
z
" transform="scale(0.015625)"/>
       <path id="DejaVuSans-32" d="M 1228 531 
L 3431 531 
L 3431 0 
L 469 0 
L 469 531 
Q 828 903 1448 1529 
Q 2069 2156 2228 2338 
Q 2531 2678 2651 2914 
Q 2772 3150 2772 3378 
Q 2772 3750 2511 3984 
Q 2250 4219 1831 4219 
Q 1534 4219 1204 4116 
Q 875 4013 500 3803 
L 500 4441 
Q 881 4594 1212 4672 
Q 1544 4750 1819 4750 
Q 2544 4750 2975 4387 
Q 3406 4025 3406 3419 
Q 3406 3131 3298 2873 
Q 3191 2616 2906 2266 
Q 2828 2175 2409 1742 
Q 1991 1309 1228 531 
z
" transform="scale(0.015625)"/>
      </defs>
      <use xlink:href="#DejaVuSans-4d"/>
      <use xlink:href="#DejaVuSans-45" x="86.279297"/>
      <use xlink:href="#DejaVuSans-53" x="149.462891"/>
      <use xlink:href="#DejaVuSans-48" x="212.939453"/>
      <use xlink:href="#DejaVuSans-3a" x="288.134766"/>
      <use xlink:href="#DejaVuSans-44" x="321.826172"/>
      <use xlink:href="#DejaVuSans-30" x="398.828125"/>
      <use xlink:href="#DejaVuSans-30" x="462.451172"/>
      <use xlink:href="#DejaVuSans-30" x="526.074219"/>
      <use xlink:href="#DejaVuSans-30" x="589.697266"/>
      <use xlink:href="#DejaVuSans-38" x="653.320312"/>
      <use xlink:href="#DejaVuSans-36" x="716.943359"/>
      <use xlink:href="#DejaVuSans-33" x="780.566406"/>
      <use xlink:href="#DejaVuSans-38" x="844.189453"/>
      <use xlink:href="#DejaVuSans-32" x="907.8125"/>
     </g>
    </g>
    <g clip-path="url(#pdcaac9222d)">
     <!-- Disease -->
     <g transform="translate(765.426043 196.748625)scale(0.12 -0.12)">
      <use xlink:href="#DejaVuSans-44"/>
      <use xlink:href="#DejaVuSans-69" x="77.001953"/>
      <use xlink:href="#DejaVuSans-73" x="104.785156"/>
      <use xlink:href="#DejaVuSans-65" x="156.884766"/>
      <use xlink:href="#DejaVuSans-61" x="218.408203"/>
      <use xlink:href="#DejaVuSans-73" x="279.6875"/>
      <use xlink:href="#DejaVuSans-65" x="331.787109"/>
     </g>
    </g>
   </g>
  </g>
 </g>
 <defs>
  <clipPath id="pdcaac9222d">
   <rect x="0" y="0" width="864" height="360"/>
  </clipPath>
 </defs>
</svg>
