<?xml version="1.0" encoding="utf-8" standalone="no"?>
<!DOCTYPE svg PUBLIC "-//W3C//DTD SVG 1.1//EN"
  "http://www.w3.org/Graphics/SVG/1.1/DTD/svg11.dtd">
<svg xmlns:xlink="http://www.w3.org/1999/xlink" width="1036.8pt" height="360pt" viewBox="0 0 1036.8 360" xmlns="http://www.w3.org/2000/svg" version="1.1">
 <metadata>
  <rdf:RDF xmlns:dc="http://purl.org/dc/elements/1.1/" xmlns:cc="http://creativecommons.org/ns#" xmlns:rdf="http://www.w3.org/1999/02/22-rdf-syntax-ns#">
   <cc:Work>
    <dc:type rdf:resource="http://purl.org/dc/dcmitype/StillImage"/>
    <dc:date>2023-02-08T08:52:49.587113</dc:date>
    <dc:format>image/svg+xml</dc:format>
    <dc:creator>
     <cc:Agent>
      <dc:title>Matplotlib v3.5.1, https://matplotlib.org/</dc:title>
     </cc:Agent>
    </dc:creator>
   </cc:Work>
  </rdf:RDF>
 </metadata>
 <defs>
  <style type="text/css">*{stroke-linejoin: round; stroke-linecap: butt}</style>
 </defs>
 <g id="figure_1">
  <g id="patch_1">
   <path d="M 0 360 
L 1036.8 360 
L 1036.8 0 
L 0 0 
z
" style="fill: #ffffff"/>
  </g>
  <g id="axes_1">
   <g id="patch_2">
    <path d="M 142.412623 180 
Q 232.78063 180 319.794535 180 
" clip-path="url(#p7bf88d2bc8)" style="fill: none; stroke: #2ca02c; stroke-width: 3; stroke-linecap: round"/>
    <path d="M 315.794535 178 
L 319.794535 180 
L 315.794535 182 
L 315.794535 178 
z
" clip-path="url(#p7bf88d2bc8)" style="fill: #2ca02c; stroke: #2ca02c; stroke-width: 3; stroke-linecap: round"/>
   </g>
   <g id="patch_3">
    <path d="M 428.032457 180 
Q 518.400465 180 605.41437 180 
" clip-path="url(#p7bf88d2bc8)" style="fill: none; stroke: #2ca02c; stroke-width: 3; stroke-linecap: round"/>
    <path d="M 601.41437 178 
L 605.41437 180 
L 601.41437 182 
L 601.41437 178 
z
" clip-path="url(#p7bf88d2bc8)" style="fill: #2ca02c; stroke: #2ca02c; stroke-width: 3; stroke-linecap: round"/>
   </g>
   <g id="patch_4">
    <path d="M 713.652292 180 
Q 804.020299 180 891.034204 180 
" clip-path="url(#p7bf88d2bc8)" style="fill: none; stroke: #2ca02c; stroke-width: 3; stroke-linecap: round"/>
    <path d="M 887.034204 178 
L 891.034204 180 
L 887.034204 182 
L 887.034204 178 
z
" clip-path="url(#p7bf88d2bc8)" style="fill: #2ca02c; stroke: #2ca02c; stroke-width: 3; stroke-linecap: round"/>
   </g>
   <g id="text_1">
    <g id="patch_5">
     <path d="M 198.562978 193.437969 
L 266.997353 193.437969 
Q 269.997353 193.437969 269.997353 190.437969 
L 269.997353 169.562031 
Q 269.997353 166.562031 266.997353 166.562031 
L 198.562978 166.562031 
Q 195.562978 166.562031 195.562978 169.562031 
L 195.562978 190.437969 
Q 195.562978 193.437969 198.562978 193.437969 
z
" clip-path="url(#p7bf88d2bc8)" style="fill: #ffffff; stroke: #ffffff; stroke-linejoin: miter"/>
    </g>
    <g clip-path="url(#p7bf88d2bc8)">
     <!-- decreases -->
     <g transform="translate(207.410634 177.160469)scale(0.1 -0.1)">
      <defs>
       <path id="DejaVuSans-64" d="M 2906 2969 
L 2906 4863 
L 3481 4863 
L 3481 0 
L 2906 0 
L 2906 525 
Q 2725 213 2448 61 
Q 2172 -91 1784 -91 
Q 1150 -91 751 415 
Q 353 922 353 1747 
Q 353 2572 751 3078 
Q 1150 3584 1784 3584 
Q 2172 3584 2448 3432 
Q 2725 3281 2906 2969 
z
M 947 1747 
Q 947 1113 1208 752 
Q 1469 391 1925 391 
Q 2381 391 2643 752 
Q 2906 1113 2906 1747 
Q 2906 2381 2643 2742 
Q 2381 3103 1925 3103 
Q 1469 3103 1208 2742 
Q 947 2381 947 1747 
z
" transform="scale(0.015625)"/>
       <path id="DejaVuSans-65" d="M 3597 1894 
L 3597 1613 
L 953 1613 
Q 991 1019 1311 708 
Q 1631 397 2203 397 
Q 2534 397 2845 478 
Q 3156 559 3463 722 
L 3463 178 
Q 3153 47 2828 -22 
Q 2503 -91 2169 -91 
Q 1331 -91 842 396 
Q 353 884 353 1716 
Q 353 2575 817 3079 
Q 1281 3584 2069 3584 
Q 2775 3584 3186 3129 
Q 3597 2675 3597 1894 
z
M 3022 2063 
Q 3016 2534 2758 2815 
Q 2500 3097 2075 3097 
Q 1594 3097 1305 2825 
Q 1016 2553 972 2059 
L 3022 2063 
z
" transform="scale(0.015625)"/>
       <path id="DejaVuSans-63" d="M 3122 3366 
L 3122 2828 
Q 2878 2963 2633 3030 
Q 2388 3097 2138 3097 
Q 1578 3097 1268 2742 
Q 959 2388 959 1747 
Q 959 1106 1268 751 
Q 1578 397 2138 397 
Q 2388 397 2633 464 
Q 2878 531 3122 666 
L 3122 134 
Q 2881 22 2623 -34 
Q 2366 -91 2075 -91 
Q 1284 -91 818 406 
Q 353 903 353 1747 
Q 353 2603 823 3093 
Q 1294 3584 2113 3584 
Q 2378 3584 2631 3529 
Q 2884 3475 3122 3366 
z
" transform="scale(0.015625)"/>
       <path id="DejaVuSans-72" d="M 2631 2963 
Q 2534 3019 2420 3045 
Q 2306 3072 2169 3072 
Q 1681 3072 1420 2755 
Q 1159 2438 1159 1844 
L 1159 0 
L 581 0 
L 581 3500 
L 1159 3500 
L 1159 2956 
Q 1341 3275 1631 3429 
Q 1922 3584 2338 3584 
Q 2397 3584 2469 3576 
Q 2541 3569 2628 3553 
L 2631 2963 
z
" transform="scale(0.015625)"/>
       <path id="DejaVuSans-61" d="M 2194 1759 
Q 1497 1759 1228 1600 
Q 959 1441 959 1056 
Q 959 750 1161 570 
Q 1363 391 1709 391 
Q 2188 391 2477 730 
Q 2766 1069 2766 1631 
L 2766 1759 
L 2194 1759 
z
M 3341 1997 
L 3341 0 
L 2766 0 
L 2766 531 
Q 2569 213 2275 61 
Q 1981 -91 1556 -91 
Q 1019 -91 701 211 
Q 384 513 384 1019 
Q 384 1609 779 1909 
Q 1175 2209 1959 2209 
L 2766 2209 
L 2766 2266 
Q 2766 2663 2505 2880 
Q 2244 3097 1772 3097 
Q 1472 3097 1187 3025 
Q 903 2953 641 2809 
L 641 3341 
Q 956 3463 1253 3523 
Q 1550 3584 1831 3584 
Q 2591 3584 2966 3190 
Q 3341 2797 3341 1997 
z
" transform="scale(0.015625)"/>
       <path id="DejaVuSans-73" d="M 2834 3397 
L 2834 2853 
Q 2591 2978 2328 3040 
Q 2066 3103 1784 3103 
Q 1356 3103 1142 2972 
Q 928 2841 928 2578 
Q 928 2378 1081 2264 
Q 1234 2150 1697 2047 
L 1894 2003 
Q 2506 1872 2764 1633 
Q 3022 1394 3022 966 
Q 3022 478 2636 193 
Q 2250 -91 1575 -91 
Q 1294 -91 989 -36 
Q 684 19 347 128 
L 347 722 
Q 666 556 975 473 
Q 1284 391 1588 391 
Q 1994 391 2212 530 
Q 2431 669 2431 922 
Q 2431 1156 2273 1281 
Q 2116 1406 1581 1522 
L 1381 1569 
Q 847 1681 609 1914 
Q 372 2147 372 2553 
Q 372 3047 722 3315 
Q 1072 3584 1716 3584 
Q 2034 3584 2315 3537 
Q 2597 3491 2834 3397 
z
" transform="scale(0.015625)"/>
      </defs>
      <use xlink:href="#DejaVuSans-64"/>
      <use xlink:href="#DejaVuSans-65" x="63.476562"/>
      <use xlink:href="#DejaVuSans-63" x="125"/>
      <use xlink:href="#DejaVuSans-72" x="179.980469"/>
      <use xlink:href="#DejaVuSans-65" x="218.84375"/>
      <use xlink:href="#DejaVuSans-61" x="280.367188"/>
      <use xlink:href="#DejaVuSans-73" x="341.646484"/>
      <use xlink:href="#DejaVuSans-65" x="393.746094"/>
      <use xlink:href="#DejaVuSans-73" x="455.269531"/>
     </g>
    </g>
    <g clip-path="url(#p7bf88d2bc8)">
     <!-- abundance of -->
     <g transform="translate(198.562978 188.358281)scale(0.1 -0.1)">
      <defs>
       <path id="DejaVuSans-62" d="M 3116 1747 
Q 3116 2381 2855 2742 
Q 2594 3103 2138 3103 
Q 1681 3103 1420 2742 
Q 1159 2381 1159 1747 
Q 1159 1113 1420 752 
Q 1681 391 2138 391 
Q 2594 391 2855 752 
Q 3116 1113 3116 1747 
z
M 1159 2969 
Q 1341 3281 1617 3432 
Q 1894 3584 2278 3584 
Q 2916 3584 3314 3078 
Q 3713 2572 3713 1747 
Q 3713 922 3314 415 
Q 2916 -91 2278 -91 
Q 1894 -91 1617 61 
Q 1341 213 1159 525 
L 1159 0 
L 581 0 
L 581 4863 
L 1159 4863 
L 1159 2969 
z
" transform="scale(0.015625)"/>
       <path id="DejaVuSans-75" d="M 544 1381 
L 544 3500 
L 1119 3500 
L 1119 1403 
Q 1119 906 1312 657 
Q 1506 409 1894 409 
Q 2359 409 2629 706 
Q 2900 1003 2900 1516 
L 2900 3500 
L 3475 3500 
L 3475 0 
L 2900 0 
L 2900 538 
Q 2691 219 2414 64 
Q 2138 -91 1772 -91 
Q 1169 -91 856 284 
Q 544 659 544 1381 
z
M 1991 3584 
L 1991 3584 
z
" transform="scale(0.015625)"/>
       <path id="DejaVuSans-6e" d="M 3513 2113 
L 3513 0 
L 2938 0 
L 2938 2094 
Q 2938 2591 2744 2837 
Q 2550 3084 2163 3084 
Q 1697 3084 1428 2787 
Q 1159 2491 1159 1978 
L 1159 0 
L 581 0 
L 581 3500 
L 1159 3500 
L 1159 2956 
Q 1366 3272 1645 3428 
Q 1925 3584 2291 3584 
Q 2894 3584 3203 3211 
Q 3513 2838 3513 2113 
z
" transform="scale(0.015625)"/>
       <path id="DejaVuSans-20" transform="scale(0.015625)"/>
       <path id="DejaVuSans-6f" d="M 1959 3097 
Q 1497 3097 1228 2736 
Q 959 2375 959 1747 
Q 959 1119 1226 758 
Q 1494 397 1959 397 
Q 2419 397 2687 759 
Q 2956 1122 2956 1747 
Q 2956 2369 2687 2733 
Q 2419 3097 1959 3097 
z
M 1959 3584 
Q 2709 3584 3137 3096 
Q 3566 2609 3566 1747 
Q 3566 888 3137 398 
Q 2709 -91 1959 -91 
Q 1206 -91 779 398 
Q 353 888 353 1747 
Q 353 2609 779 3096 
Q 1206 3584 1959 3584 
z
" transform="scale(0.015625)"/>
       <path id="DejaVuSans-66" d="M 2375 4863 
L 2375 4384 
L 1825 4384 
Q 1516 4384 1395 4259 
Q 1275 4134 1275 3809 
L 1275 3500 
L 2222 3500 
L 2222 3053 
L 1275 3053 
L 1275 0 
L 697 0 
L 697 3053 
L 147 3053 
L 147 3500 
L 697 3500 
L 697 3744 
Q 697 4328 969 4595 
Q 1241 4863 1831 4863 
L 2375 4863 
z
" transform="scale(0.015625)"/>
      </defs>
      <use xlink:href="#DejaVuSans-61"/>
      <use xlink:href="#DejaVuSans-62" x="61.279297"/>
      <use xlink:href="#DejaVuSans-75" x="124.755859"/>
      <use xlink:href="#DejaVuSans-6e" x="188.134766"/>
      <use xlink:href="#DejaVuSans-64" x="251.513672"/>
      <use xlink:href="#DejaVuSans-61" x="314.990234"/>
      <use xlink:href="#DejaVuSans-6e" x="376.269531"/>
      <use xlink:href="#DejaVuSans-63" x="439.648438"/>
      <use xlink:href="#DejaVuSans-65" x="494.628906"/>
      <use xlink:href="#DejaVuSans-20" x="556.152344"/>
      <use xlink:href="#DejaVuSans-6f" x="587.939453"/>
      <use xlink:href="#DejaVuSans-66" x="649.121094"/>
     </g>
    </g>
   </g>
   <g id="text_2">
    <g id="patch_6">
     <path d="M 480.74375 193.437969 
L 556.05625 193.437969 
Q 559.05625 193.437969 559.05625 190.437969 
L 559.05625 169.562031 
Q 559.05625 166.562031 556.05625 166.562031 
L 480.74375 166.562031 
Q 477.74375 166.562031 477.74375 169.562031 
L 477.74375 190.437969 
Q 477.74375 193.437969 480.74375 193.437969 
z
" clip-path="url(#p7bf88d2bc8)" style="fill: #ffffff; stroke: #ffffff; stroke-linejoin: miter"/>
    </g>
    <g clip-path="url(#p7bf88d2bc8)">
     <!-- positively -->
     <g transform="translate(494.439062 177.160469)scale(0.1 -0.1)">
      <defs>
       <path id="DejaVuSans-70" d="M 1159 525 
L 1159 -1331 
L 581 -1331 
L 581 3500 
L 1159 3500 
L 1159 2969 
Q 1341 3281 1617 3432 
Q 1894 3584 2278 3584 
Q 2916 3584 3314 3078 
Q 3713 2572 3713 1747 
Q 3713 922 3314 415 
Q 2916 -91 2278 -91 
Q 1894 -91 1617 61 
Q 1341 213 1159 525 
z
M 3116 1747 
Q 3116 2381 2855 2742 
Q 2594 3103 2138 3103 
Q 1681 3103 1420 2742 
Q 1159 2381 1159 1747 
Q 1159 1113 1420 752 
Q 1681 391 2138 391 
Q 2594 391 2855 752 
Q 3116 1113 3116 1747 
z
" transform="scale(0.015625)"/>
       <path id="DejaVuSans-69" d="M 603 3500 
L 1178 3500 
L 1178 0 
L 603 0 
L 603 3500 
z
M 603 4863 
L 1178 4863 
L 1178 4134 
L 603 4134 
L 603 4863 
z
" transform="scale(0.015625)"/>
       <path id="DejaVuSans-74" d="M 1172 4494 
L 1172 3500 
L 2356 3500 
L 2356 3053 
L 1172 3053 
L 1172 1153 
Q 1172 725 1289 603 
Q 1406 481 1766 481 
L 2356 481 
L 2356 0 
L 1766 0 
Q 1100 0 847 248 
Q 594 497 594 1153 
L 594 3053 
L 172 3053 
L 172 3500 
L 594 3500 
L 594 4494 
L 1172 4494 
z
" transform="scale(0.015625)"/>
       <path id="DejaVuSans-76" d="M 191 3500 
L 800 3500 
L 1894 563 
L 2988 3500 
L 3597 3500 
L 2284 0 
L 1503 0 
L 191 3500 
z
" transform="scale(0.015625)"/>
       <path id="DejaVuSans-6c" d="M 603 4863 
L 1178 4863 
L 1178 0 
L 603 0 
L 603 4863 
z
" transform="scale(0.015625)"/>
       <path id="DejaVuSans-79" d="M 2059 -325 
Q 1816 -950 1584 -1140 
Q 1353 -1331 966 -1331 
L 506 -1331 
L 506 -850 
L 844 -850 
Q 1081 -850 1212 -737 
Q 1344 -625 1503 -206 
L 1606 56 
L 191 3500 
L 800 3500 
L 1894 763 
L 2988 3500 
L 3597 3500 
L 2059 -325 
z
" transform="scale(0.015625)"/>
      </defs>
      <use xlink:href="#DejaVuSans-70"/>
      <use xlink:href="#DejaVuSans-6f" x="63.476562"/>
      <use xlink:href="#DejaVuSans-73" x="124.658203"/>
      <use xlink:href="#DejaVuSans-69" x="176.757812"/>
      <use xlink:href="#DejaVuSans-74" x="204.541016"/>
      <use xlink:href="#DejaVuSans-69" x="243.75"/>
      <use xlink:href="#DejaVuSans-76" x="271.533203"/>
      <use xlink:href="#DejaVuSans-65" x="330.712891"/>
      <use xlink:href="#DejaVuSans-6c" x="392.236328"/>
      <use xlink:href="#DejaVuSans-79" x="420.019531"/>
     </g>
    </g>
    <g clip-path="url(#p7bf88d2bc8)">
     <!-- correlated with -->
     <g transform="translate(480.74375 188.358281)scale(0.1 -0.1)">
      <defs>
       <path id="DejaVuSans-77" d="M 269 3500 
L 844 3500 
L 1563 769 
L 2278 3500 
L 2956 3500 
L 3675 769 
L 4391 3500 
L 4966 3500 
L 4050 0 
L 3372 0 
L 2619 2869 
L 1863 0 
L 1184 0 
L 269 3500 
z
" transform="scale(0.015625)"/>
       <path id="DejaVuSans-68" d="M 3513 2113 
L 3513 0 
L 2938 0 
L 2938 2094 
Q 2938 2591 2744 2837 
Q 2550 3084 2163 3084 
Q 1697 3084 1428 2787 
Q 1159 2491 1159 1978 
L 1159 0 
L 581 0 
L 581 4863 
L 1159 4863 
L 1159 2956 
Q 1366 3272 1645 3428 
Q 1925 3584 2291 3584 
Q 2894 3584 3203 3211 
Q 3513 2838 3513 2113 
z
" transform="scale(0.015625)"/>
      </defs>
      <use xlink:href="#DejaVuSans-63"/>
      <use xlink:href="#DejaVuSans-6f" x="54.980469"/>
      <use xlink:href="#DejaVuSans-72" x="116.162109"/>
      <use xlink:href="#DejaVuSans-72" x="155.525391"/>
      <use xlink:href="#DejaVuSans-65" x="194.388672"/>
      <use xlink:href="#DejaVuSans-6c" x="255.912109"/>
      <use xlink:href="#DejaVuSans-61" x="283.695312"/>
      <use xlink:href="#DejaVuSans-74" x="344.974609"/>
      <use xlink:href="#DejaVuSans-65" x="384.183594"/>
      <use xlink:href="#DejaVuSans-64" x="445.707031"/>
      <use xlink:href="#DejaVuSans-20" x="509.183594"/>
      <use xlink:href="#DejaVuSans-77" x="540.970703"/>
      <use xlink:href="#DejaVuSans-69" x="622.757812"/>
      <use xlink:href="#DejaVuSans-74" x="650.541016"/>
      <use xlink:href="#DejaVuSans-68" x="689.75"/>
     </g>
    </g>
   </g>
   <g id="text_3">
    <g id="patch_7">
     <path d="M 769.484678 193.437969 
L 838.554991 193.437969 
Q 841.554991 193.437969 841.554991 190.437969 
L 841.554991 169.562031 
Q 841.554991 166.562031 838.554991 166.562031 
L 769.484678 166.562031 
Q 766.484678 166.562031 766.484678 169.562031 
L 766.484678 190.437969 
Q 766.484678 193.437969 769.484678 193.437969 
z
" clip-path="url(#p7bf88d2bc8)" style="fill: #ffffff; stroke: #ffffff; stroke-linejoin: miter"/>
    </g>
    <g clip-path="url(#p7bf88d2bc8)">
     <!-- manifestation -->
     <g transform="translate(769.484678 177.160469)scale(0.1 -0.1)">
      <defs>
       <path id="DejaVuSans-6d" d="M 3328 2828 
Q 3544 3216 3844 3400 
Q 4144 3584 4550 3584 
Q 5097 3584 5394 3201 
Q 5691 2819 5691 2113 
L 5691 0 
L 5113 0 
L 5113 2094 
Q 5113 2597 4934 2840 
Q 4756 3084 4391 3084 
Q 3944 3084 3684 2787 
Q 3425 2491 3425 1978 
L 3425 0 
L 2847 0 
L 2847 2094 
Q 2847 2600 2669 2842 
Q 2491 3084 2119 3084 
Q 1678 3084 1418 2786 
Q 1159 2488 1159 1978 
L 1159 0 
L 581 0 
L 581 3500 
L 1159 3500 
L 1159 2956 
Q 1356 3278 1631 3431 
Q 1906 3584 2284 3584 
Q 2666 3584 2933 3390 
Q 3200 3197 3328 2828 
z
" transform="scale(0.015625)"/>
      </defs>
      <use xlink:href="#DejaVuSans-6d"/>
      <use xlink:href="#DejaVuSans-61" x="97.412109"/>
      <use xlink:href="#DejaVuSans-6e" x="158.691406"/>
      <use xlink:href="#DejaVuSans-69" x="222.070312"/>
      <use xlink:href="#DejaVuSans-66" x="249.853516"/>
      <use xlink:href="#DejaVuSans-65" x="285.058594"/>
      <use xlink:href="#DejaVuSans-73" x="346.582031"/>
      <use xlink:href="#DejaVuSans-74" x="398.681641"/>
      <use xlink:href="#DejaVuSans-61" x="437.890625"/>
      <use xlink:href="#DejaVuSans-74" x="499.169922"/>
      <use xlink:href="#DejaVuSans-69" x="538.378906"/>
      <use xlink:href="#DejaVuSans-6f" x="566.162109"/>
      <use xlink:href="#DejaVuSans-6e" x="627.34375"/>
     </g>
    </g>
    <g clip-path="url(#p7bf88d2bc8)">
     <!-- of -->
     <g transform="translate(799.200303 188.358281)scale(0.1 -0.1)">
      <use xlink:href="#DejaVuSans-6f"/>
      <use xlink:href="#DejaVuSans-66" x="61.181641"/>
     </g>
    </g>
   </g>
   <g id="PathCollection_1">
    <defs>
     <path id="C0_0_496a874ba7" d="M 0 52.440442 
C 13.907368 52.440442 27.246998 46.914987 37.080992 37.080992 
C 46.914987 27.246998 52.440442 13.907368 52.440442 -0 
C 52.440442 -13.907368 46.914987 -27.246998 37.080992 -37.080992 
C 27.246998 -46.914987 13.907368 -52.440442 0 -52.440442 
C -13.907368 -52.440442 -27.246998 -46.914987 -37.080992 -37.080992 
C -46.914987 -27.246998 -52.440442 -13.907368 -52.440442 0 
C -52.440442 13.907368 -46.914987 27.246998 -37.080992 37.080992 
C -27.246998 46.914987 -13.907368 52.440442 0 52.440442 
z
"/>
    </defs>
    <g clip-path="url(#p7bf88d2bc8)">
     <use xlink:href="#C0_0_496a874ba7" x="89.970248" y="180" style="fill: #01c472; stroke: #01c472"/>
    </g>
    <g clip-path="url(#p7bf88d2bc8)">
     <use xlink:href="#C0_0_496a874ba7" x="375.590083" y="180" style="fill: #01c472; stroke: #01c472"/>
    </g>
    <g clip-path="url(#p7bf88d2bc8)">
     <use xlink:href="#C0_0_496a874ba7" x="661.209917" y="180" style="fill: #154e56; stroke: #154e56"/>
    </g>
    <g clip-path="url(#p7bf88d2bc8)">
     <use xlink:href="#C0_0_496a874ba7" x="946.829752" y="180" style="fill: #70c6ca; stroke: #70c6ca"/>
    </g>
   </g>
   <g id="text_4">
    <path d="M 618.24148 161.125125 
L 619.424605 161.125125 
L 619.424605 164.712 
L 623.725855 164.712 
L 623.725855 161.125125 
L 624.90898 161.125125 
L 624.90898 169.873875 
L 623.725855 169.873875 
L 623.725855 165.707625 
L 619.424605 165.707625 
L 619.424605 169.873875 
L 618.24148 169.873875 
L 618.24148 161.125125 
z
M 629.948042 170.48325 
Q 629.492417 171.655125 629.057417 172.011375 
Q 628.624292 172.3695 627.898667 172.3695 
L 627.036167 172.3695 
L 627.036167 171.467625 
L 627.669917 171.467625 
Q 628.114292 171.467625 628.359917 171.25575 
Q 628.607417 171.04575 628.905542 170.260125 
L 629.098667 169.768875 
L 626.445542 163.311375 
L 627.587417 163.311375 
L 629.638667 168.44325 
L 631.689917 163.311375 
L 632.831792 163.311375 
L 629.948042 170.48325 
z
M 635.362105 168.8895 
L 635.362105 172.3695 
L 634.278355 172.3695 
L 634.278355 163.311375 
L 635.362105 163.311375 
L 635.362105 164.307 
Q 635.703355 163.722 636.220855 163.438875 
Q 636.74023 163.153875 637.46023 163.153875 
Q 638.65648 163.153875 639.40273 164.102625 
Q 640.150855 165.051375 640.150855 166.59825 
Q 640.150855 168.145125 639.40273 169.09575 
Q 638.65648 170.0445 637.46023 170.0445 
Q 636.74023 170.0445 636.220855 169.7595 
Q 635.703355 169.4745 635.362105 168.8895 
z
M 639.03148 166.59825 
Q 639.03148 165.4095 638.542105 164.732625 
Q 638.05273 164.05575 637.19773 164.05575 
Q 636.340855 164.05575 635.85148 164.732625 
Q 635.362105 165.4095 635.362105 166.59825 
Q 635.362105 167.787 635.85148 168.463875 
Q 636.340855 169.14075 637.19773 169.14075 
Q 638.05273 169.14075 638.542105 168.463875 
Q 639.03148 167.787 639.03148 166.59825 
z
M 647.550542 166.322625 
L 647.550542 166.8495 
L 642.593042 166.8495 
Q 642.664292 167.96325 643.264292 168.546375 
Q 643.864292 169.1295 644.936792 169.1295 
Q 645.557417 169.1295 646.140542 168.977625 
Q 646.723667 168.82575 647.299292 168.520125 
L 647.299292 169.540125 
Q 646.718042 169.78575 646.108667 169.915125 
Q 645.499292 170.0445 644.873042 170.0445 
Q 643.301792 170.0445 642.384917 169.131375 
Q 641.468042 168.216375 641.468042 166.656375 
Q 641.468042 165.04575 642.338042 164.10075 
Q 643.208042 163.153875 644.685542 163.153875 
Q 646.009292 163.153875 646.779917 164.007 
Q 647.550542 164.85825 647.550542 166.322625 
z
M 646.472417 166.00575 
Q 646.461167 165.122625 645.977417 164.59575 
Q 645.493667 164.067 644.696792 164.067 
Q 643.794917 164.067 643.253042 164.577 
Q 642.711167 165.087 642.628667 166.01325 
L 646.472417 166.00575 
z
M 653.122105 164.31825 
Q 652.94023 164.21325 652.72648 164.1645 
Q 652.51273 164.113875 652.255855 164.113875 
Q 651.340855 164.113875 650.85148 164.70825 
Q 650.362105 165.302625 650.362105 166.416375 
L 650.362105 169.873875 
L 649.278355 169.873875 
L 649.278355 163.311375 
L 650.362105 163.311375 
L 650.362105 164.331375 
Q 650.703355 163.73325 651.247105 163.4445 
Q 651.79273 163.153875 652.57273 163.153875 
Q 652.683355 163.153875 652.818355 163.168875 
Q 652.953355 163.182 653.11648 163.212 
L 653.122105 164.31825 
z
M 654.142574 167.2845 
L 654.142574 163.311375 
L 655.220699 163.311375 
L 655.220699 167.24325 
Q 655.220699 168.175125 655.582574 168.642 
Q 655.946324 169.107 656.673824 169.107 
Q 657.545699 169.107 658.051949 168.550125 
Q 658.560074 167.99325 658.560074 167.031375 
L 658.560074 163.311375 
L 659.638199 163.311375 
L 659.638199 169.873875 
L 658.560074 169.873875 
L 658.560074 168.865125 
Q 658.168199 169.46325 657.648824 169.753875 
Q 657.131324 170.0445 656.445074 170.0445 
Q 655.314449 170.0445 654.727574 169.341375 
Q 654.142574 168.63825 654.142574 167.2845 
z
M 656.855699 163.153875 
L 656.855699 163.153875 
z
M 665.661167 164.31825 
Q 665.479292 164.21325 665.265542 164.1645 
Q 665.051792 164.113875 664.794917 164.113875 
Q 663.879917 164.113875 663.390542 164.70825 
Q 662.901167 165.302625 662.901167 166.416375 
L 662.901167 169.873875 
L 661.817417 169.873875 
L 661.817417 163.311375 
L 662.901167 163.311375 
L 662.901167 164.331375 
Q 663.242417 163.73325 663.786167 163.4445 
Q 664.331792 163.153875 665.111792 163.153875 
Q 665.222417 163.153875 665.357417 163.168875 
Q 665.492417 163.182 665.655542 163.212 
L 665.661167 164.31825 
z
M 666.792261 163.311375 
L 667.870386 163.311375 
L 667.870386 169.873875 
L 666.792261 169.873875 
L 666.792261 163.311375 
z
M 666.792261 160.75575 
L 667.870386 160.75575 
L 667.870386 162.122625 
L 666.792261 162.122625 
L 666.792261 160.75575 
z
M 674.84937 163.562625 
L 674.84937 164.571375 
Q 674.39187 164.31825 673.932495 164.192625 
Q 673.47312 164.067 673.00437 164.067 
Q 671.95437 164.067 671.37312 164.732625 
Q 670.793745 165.396375 670.793745 166.59825 
Q 670.793745 167.800125 671.37312 168.46575 
Q 671.95437 169.1295 673.00437 169.1295 
Q 673.47312 169.1295 673.932495 169.003875 
Q 674.39187 168.87825 674.84937 168.625125 
L 674.84937 169.622625 
Q 674.397495 169.832625 673.913745 169.937625 
Q 673.43187 170.0445 672.886245 170.0445 
Q 671.40312 170.0445 670.52937 169.112625 
Q 669.657495 168.18075 669.657495 166.59825 
Q 669.657495 164.99325 670.538745 164.0745 
Q 671.42187 163.153875 672.957495 163.153875 
Q 673.45437 163.153875 673.928745 163.257 
Q 674.40312 163.35825 674.84937 163.562625 
z
M 682.337652 166.322625 
L 682.337652 166.8495 
L 677.380152 166.8495 
Q 677.451402 167.96325 678.051402 168.546375 
Q 678.651402 169.1295 679.723902 169.1295 
Q 680.344527 169.1295 680.927652 168.977625 
Q 681.510777 168.82575 682.086402 168.520125 
L 682.086402 169.540125 
Q 681.505152 169.78575 680.895777 169.915125 
Q 680.286402 170.0445 679.660152 170.0445 
Q 678.088902 170.0445 677.172027 169.131375 
Q 676.255152 168.216375 676.255152 166.656375 
Q 676.255152 165.04575 677.125152 164.10075 
Q 677.995152 163.153875 679.472652 163.153875 
Q 680.796402 163.153875 681.567027 164.007 
Q 682.337652 164.85825 682.337652 166.322625 
z
M 681.259527 166.00575 
Q 681.248277 165.122625 680.764527 164.59575 
Q 680.280777 164.067 679.483902 164.067 
Q 678.582027 164.067 678.040152 164.577 
Q 677.498277 165.087 677.415777 166.01325 
L 681.259527 166.00575 
z
M 689.216089 164.571375 
Q 689.621089 163.843875 690.183589 163.498875 
Q 690.746089 163.153875 691.507339 163.153875 
Q 692.532964 163.153875 693.089839 163.872 
Q 693.646714 164.58825 693.646714 165.912 
L 693.646714 169.873875 
L 692.562964 169.873875 
L 692.562964 165.947625 
Q 692.562964 165.0045 692.227339 164.548875 
Q 691.893589 164.091375 691.209214 164.091375 
Q 690.371089 164.091375 689.883589 164.64825 
Q 689.397964 165.20325 689.397964 166.165125 
L 689.397964 169.873875 
L 688.314214 169.873875 
L 688.314214 165.947625 
Q 688.314214 164.998875 687.980464 164.545125 
Q 687.646714 164.091375 686.949214 164.091375 
Q 686.122339 164.091375 685.634839 164.650125 
Q 685.149214 165.208875 685.149214 166.165125 
L 685.149214 169.873875 
L 684.065464 169.873875 
L 684.065464 163.311375 
L 685.149214 163.311375 
L 685.149214 164.331375 
Q 685.518589 163.727625 686.034214 163.44075 
Q 686.549839 163.153875 687.258589 163.153875 
Q 687.974839 163.153875 688.475464 163.517625 
Q 688.976089 163.8795 689.216089 164.571375 
z
M 695.796167 163.311375 
L 696.874292 163.311375 
L 696.874292 169.873875 
L 695.796167 169.873875 
L 695.796167 163.311375 
z
M 695.796167 160.75575 
L 696.874292 160.75575 
L 696.874292 162.122625 
L 695.796167 162.122625 
L 695.796167 160.75575 
z
M 702.113277 166.57575 
Q 700.806402 166.57575 700.302027 166.873875 
Q 699.797652 167.172 699.797652 167.893875 
Q 699.797652 168.467625 700.176402 168.805125 
Q 700.555152 169.14075 701.203902 169.14075 
Q 702.102027 169.14075 702.643902 168.505125 
Q 703.185777 167.8695 703.185777 166.81575 
L 703.185777 166.57575 
L 702.113277 166.57575 
z
M 704.263902 166.1295 
L 704.263902 169.873875 
L 703.185777 169.873875 
L 703.185777 168.87825 
Q 702.816402 169.4745 702.265152 169.7595 
Q 701.713902 170.0445 700.917027 170.0445 
Q 699.910152 170.0445 699.313902 169.47825 
Q 698.719527 168.912 698.719527 167.96325 
Q 698.719527 166.857 699.460152 166.2945 
Q 700.202652 165.732 701.672652 165.732 
L 703.185777 165.732 
L 703.185777 165.625125 
Q 703.185777 164.88075 702.696402 164.473875 
Q 702.207027 164.067 701.322027 164.067 
Q 700.759527 164.067 700.225152 164.202 
Q 699.692652 164.337 699.201402 164.607 
L 699.201402 163.6095 
Q 699.792027 163.38075 700.348902 163.26825 
Q 700.905777 163.153875 701.432652 163.153875 
Q 702.857652 163.153875 703.560777 163.892625 
Q 704.263902 164.6295 704.263902 166.1295 
z
" clip-path="url(#p7bf88d2bc8)" style="fill: #ffffff; stroke: #000000; stroke-width: 2"/>
    <path d="M 618.24148 161.125125 
L 619.424605 161.125125 
L 619.424605 164.712 
L 623.725855 164.712 
L 623.725855 161.125125 
L 624.90898 161.125125 
L 624.90898 169.873875 
L 623.725855 169.873875 
L 623.725855 165.707625 
L 619.424605 165.707625 
L 619.424605 169.873875 
L 618.24148 169.873875 
L 618.24148 161.125125 
z
M 629.948042 170.48325 
Q 629.492417 171.655125 629.057417 172.011375 
Q 628.624292 172.3695 627.898667 172.3695 
L 627.036167 172.3695 
L 627.036167 171.467625 
L 627.669917 171.467625 
Q 628.114292 171.467625 628.359917 171.25575 
Q 628.607417 171.04575 628.905542 170.260125 
L 629.098667 169.768875 
L 626.445542 163.311375 
L 627.587417 163.311375 
L 629.638667 168.44325 
L 631.689917 163.311375 
L 632.831792 163.311375 
L 629.948042 170.48325 
z
M 635.362105 168.8895 
L 635.362105 172.3695 
L 634.278355 172.3695 
L 634.278355 163.311375 
L 635.362105 163.311375 
L 635.362105 164.307 
Q 635.703355 163.722 636.220855 163.438875 
Q 636.74023 163.153875 637.46023 163.153875 
Q 638.65648 163.153875 639.40273 164.102625 
Q 640.150855 165.051375 640.150855 166.59825 
Q 640.150855 168.145125 639.40273 169.09575 
Q 638.65648 170.0445 637.46023 170.0445 
Q 636.74023 170.0445 636.220855 169.7595 
Q 635.703355 169.4745 635.362105 168.8895 
z
M 639.03148 166.59825 
Q 639.03148 165.4095 638.542105 164.732625 
Q 638.05273 164.05575 637.19773 164.05575 
Q 636.340855 164.05575 635.85148 164.732625 
Q 635.362105 165.4095 635.362105 166.59825 
Q 635.362105 167.787 635.85148 168.463875 
Q 636.340855 169.14075 637.19773 169.14075 
Q 638.05273 169.14075 638.542105 168.463875 
Q 639.03148 167.787 639.03148 166.59825 
z
M 647.550542 166.322625 
L 647.550542 166.8495 
L 642.593042 166.8495 
Q 642.664292 167.96325 643.264292 168.546375 
Q 643.864292 169.1295 644.936792 169.1295 
Q 645.557417 169.1295 646.140542 168.977625 
Q 646.723667 168.82575 647.299292 168.520125 
L 647.299292 169.540125 
Q 646.718042 169.78575 646.108667 169.915125 
Q 645.499292 170.0445 644.873042 170.0445 
Q 643.301792 170.0445 642.384917 169.131375 
Q 641.468042 168.216375 641.468042 166.656375 
Q 641.468042 165.04575 642.338042 164.10075 
Q 643.208042 163.153875 644.685542 163.153875 
Q 646.009292 163.153875 646.779917 164.007 
Q 647.550542 164.85825 647.550542 166.322625 
z
M 646.472417 166.00575 
Q 646.461167 165.122625 645.977417 164.59575 
Q 645.493667 164.067 644.696792 164.067 
Q 643.794917 164.067 643.253042 164.577 
Q 642.711167 165.087 642.628667 166.01325 
L 646.472417 166.00575 
z
M 653.122105 164.31825 
Q 652.94023 164.21325 652.72648 164.1645 
Q 652.51273 164.113875 652.255855 164.113875 
Q 651.340855 164.113875 650.85148 164.70825 
Q 650.362105 165.302625 650.362105 166.416375 
L 650.362105 169.873875 
L 649.278355 169.873875 
L 649.278355 163.311375 
L 650.362105 163.311375 
L 650.362105 164.331375 
Q 650.703355 163.73325 651.247105 163.4445 
Q 651.79273 163.153875 652.57273 163.153875 
Q 652.683355 163.153875 652.818355 163.168875 
Q 652.953355 163.182 653.11648 163.212 
L 653.122105 164.31825 
z
M 654.142574 167.2845 
L 654.142574 163.311375 
L 655.220699 163.311375 
L 655.220699 167.24325 
Q 655.220699 168.175125 655.582574 168.642 
Q 655.946324 169.107 656.673824 169.107 
Q 657.545699 169.107 658.051949 168.550125 
Q 658.560074 167.99325 658.560074 167.031375 
L 658.560074 163.311375 
L 659.638199 163.311375 
L 659.638199 169.873875 
L 658.560074 169.873875 
L 658.560074 168.865125 
Q 658.168199 169.46325 657.648824 169.753875 
Q 657.131324 170.0445 656.445074 170.0445 
Q 655.314449 170.0445 654.727574 169.341375 
Q 654.142574 168.63825 654.142574 167.2845 
z
M 656.855699 163.153875 
L 656.855699 163.153875 
z
M 665.661167 164.31825 
Q 665.479292 164.21325 665.265542 164.1645 
Q 665.051792 164.113875 664.794917 164.113875 
Q 663.879917 164.113875 663.390542 164.70825 
Q 662.901167 165.302625 662.901167 166.416375 
L 662.901167 169.873875 
L 661.817417 169.873875 
L 661.817417 163.311375 
L 662.901167 163.311375 
L 662.901167 164.331375 
Q 663.242417 163.73325 663.786167 163.4445 
Q 664.331792 163.153875 665.111792 163.153875 
Q 665.222417 163.153875 665.357417 163.168875 
Q 665.492417 163.182 665.655542 163.212 
L 665.661167 164.31825 
z
M 666.792261 163.311375 
L 667.870386 163.311375 
L 667.870386 169.873875 
L 666.792261 169.873875 
L 666.792261 163.311375 
z
M 666.792261 160.75575 
L 667.870386 160.75575 
L 667.870386 162.122625 
L 666.792261 162.122625 
L 666.792261 160.75575 
z
M 674.84937 163.562625 
L 674.84937 164.571375 
Q 674.39187 164.31825 673.932495 164.192625 
Q 673.47312 164.067 673.00437 164.067 
Q 671.95437 164.067 671.37312 164.732625 
Q 670.793745 165.396375 670.793745 166.59825 
Q 670.793745 167.800125 671.37312 168.46575 
Q 671.95437 169.1295 673.00437 169.1295 
Q 673.47312 169.1295 673.932495 169.003875 
Q 674.39187 168.87825 674.84937 168.625125 
L 674.84937 169.622625 
Q 674.397495 169.832625 673.913745 169.937625 
Q 673.43187 170.0445 672.886245 170.0445 
Q 671.40312 170.0445 670.52937 169.112625 
Q 669.657495 168.18075 669.657495 166.59825 
Q 669.657495 164.99325 670.538745 164.0745 
Q 671.42187 163.153875 672.957495 163.153875 
Q 673.45437 163.153875 673.928745 163.257 
Q 674.40312 163.35825 674.84937 163.562625 
z
M 682.337652 166.322625 
L 682.337652 166.8495 
L 677.380152 166.8495 
Q 677.451402 167.96325 678.051402 168.546375 
Q 678.651402 169.1295 679.723902 169.1295 
Q 680.344527 169.1295 680.927652 168.977625 
Q 681.510777 168.82575 682.086402 168.520125 
L 682.086402 169.540125 
Q 681.505152 169.78575 680.895777 169.915125 
Q 680.286402 170.0445 679.660152 170.0445 
Q 678.088902 170.0445 677.172027 169.131375 
Q 676.255152 168.216375 676.255152 166.656375 
Q 676.255152 165.04575 677.125152 164.10075 
Q 677.995152 163.153875 679.472652 163.153875 
Q 680.796402 163.153875 681.567027 164.007 
Q 682.337652 164.85825 682.337652 166.322625 
z
M 681.259527 166.00575 
Q 681.248277 165.122625 680.764527 164.59575 
Q 680.280777 164.067 679.483902 164.067 
Q 678.582027 164.067 678.040152 164.577 
Q 677.498277 165.087 677.415777 166.01325 
L 681.259527 166.00575 
z
M 689.216089 164.571375 
Q 689.621089 163.843875 690.183589 163.498875 
Q 690.746089 163.153875 691.507339 163.153875 
Q 692.532964 163.153875 693.089839 163.872 
Q 693.646714 164.58825 693.646714 165.912 
L 693.646714 169.873875 
L 692.562964 169.873875 
L 692.562964 165.947625 
Q 692.562964 165.0045 692.227339 164.548875 
Q 691.893589 164.091375 691.209214 164.091375 
Q 690.371089 164.091375 689.883589 164.64825 
Q 689.397964 165.20325 689.397964 166.165125 
L 689.397964 169.873875 
L 688.314214 169.873875 
L 688.314214 165.947625 
Q 688.314214 164.998875 687.980464 164.545125 
Q 687.646714 164.091375 686.949214 164.091375 
Q 686.122339 164.091375 685.634839 164.650125 
Q 685.149214 165.208875 685.149214 166.165125 
L 685.149214 169.873875 
L 684.065464 169.873875 
L 684.065464 163.311375 
L 685.149214 163.311375 
L 685.149214 164.331375 
Q 685.518589 163.727625 686.034214 163.44075 
Q 686.549839 163.153875 687.258589 163.153875 
Q 687.974839 163.153875 688.475464 163.517625 
Q 688.976089 163.8795 689.216089 164.571375 
z
M 695.796167 163.311375 
L 696.874292 163.311375 
L 696.874292 169.873875 
L 695.796167 169.873875 
L 695.796167 163.311375 
z
M 695.796167 160.75575 
L 696.874292 160.75575 
L 696.874292 162.122625 
L 695.796167 162.122625 
L 695.796167 160.75575 
z
M 702.113277 166.57575 
Q 700.806402 166.57575 700.302027 166.873875 
Q 699.797652 167.172 699.797652 167.893875 
Q 699.797652 168.467625 700.176402 168.805125 
Q 700.555152 169.14075 701.203902 169.14075 
Q 702.102027 169.14075 702.643902 168.505125 
Q 703.185777 167.8695 703.185777 166.81575 
L 703.185777 166.57575 
L 702.113277 166.57575 
z
M 704.263902 166.1295 
L 704.263902 169.873875 
L 703.185777 169.873875 
L 703.185777 168.87825 
Q 702.816402 169.4745 702.265152 169.7595 
Q 701.713902 170.0445 700.917027 170.0445 
Q 699.910152 170.0445 699.313902 169.47825 
Q 698.719527 168.912 698.719527 167.96325 
Q 698.719527 166.857 699.460152 166.2945 
Q 700.202652 165.732 701.672652 165.732 
L 703.185777 165.732 
L 703.185777 165.625125 
Q 703.185777 164.88075 702.696402 164.473875 
Q 702.207027 164.067 701.322027 164.067 
Q 700.759527 164.067 700.225152 164.202 
Q 699.692652 164.337 699.201402 164.607 
L 699.201402 163.6095 
Q 699.792027 163.38075 700.348902 163.26825 
Q 700.905777 163.153875 701.432652 163.153875 
Q 702.857652 163.153875 703.560777 163.892625 
Q 704.263902 164.6295 704.263902 166.1295 
z
" clip-path="url(#p7bf88d2bc8)" style="fill: #ffffff"/>
    <path d="M 625.513667 174.5625 
L 626.696792 174.5625 
L 626.696792 178.149375 
L 630.998042 178.149375 
L 630.998042 174.5625 
L 632.181167 174.5625 
L 632.181167 183.31125 
L 630.998042 183.31125 
L 630.998042 179.145 
L 626.696792 179.145 
L 626.696792 183.31125 
L 625.513667 183.31125 
L 625.513667 174.5625 
z
M 635.72023 175.535625 
L 635.72023 178.8225 
L 637.20898 178.8225 
Q 638.035855 178.8225 638.485855 178.395 
Q 638.93773 177.9675 638.93773 177.17625 
Q 638.93773 176.390625 638.485855 175.963125 
Q 638.035855 175.535625 637.20898 175.535625 
L 635.72023 175.535625 
z
M 634.537105 174.5625 
L 637.20898 174.5625 
Q 638.680855 174.5625 639.43273 175.228125 
Q 640.18648 175.89375 640.18648 177.17625 
Q 640.18648 178.471875 639.43273 179.13375 
Q 638.680855 179.795625 637.20898 179.795625 
L 635.72023 179.795625 
L 635.72023 183.31125 
L 634.537105 183.31125 
L 634.537105 174.5625 
z
M 642.002183 181.8225 
L 643.237808 181.8225 
L 643.237808 183.31125 
L 642.002183 183.31125 
L 642.002183 181.8225 
z
M 642.002183 177.106875 
L 643.237808 177.106875 
L 643.237808 178.59375 
L 642.002183 178.59375 
L 642.002183 177.106875 
z
M 648.452652 175.3425 
Q 647.539527 175.3425 647.078277 176.2425 
Q 646.618902 177.140625 646.618902 178.94625 
Q 646.618902 180.744375 647.078277 181.644375 
Q 647.539527 182.544375 648.452652 182.544375 
Q 649.373277 182.544375 649.832652 181.644375 
Q 650.293902 180.744375 650.293902 178.94625 
Q 650.293902 177.140625 649.832652 176.2425 
Q 649.373277 175.3425 648.452652 175.3425 
z
M 648.452652 174.405 
Q 649.924527 174.405 650.700777 175.569375 
Q 651.477027 176.731875 651.477027 178.94625 
Q 651.477027 181.155 650.700777 182.319375 
Q 649.924527 183.481875 648.452652 183.481875 
Q 646.982652 183.481875 646.206402 182.319375 
Q 645.430152 181.155 645.430152 178.94625 
Q 645.430152 176.731875 646.206402 175.569375 
Q 646.982652 174.405 648.452652 174.405 
z
M 656.087417 175.3425 
Q 655.174292 175.3425 654.713042 176.2425 
Q 654.253667 177.140625 654.253667 178.94625 
Q 654.253667 180.744375 654.713042 181.644375 
Q 655.174292 182.544375 656.087417 182.544375 
Q 657.008042 182.544375 657.467417 181.644375 
Q 657.928667 180.744375 657.928667 178.94625 
Q 657.928667 177.140625 657.467417 176.2425 
Q 657.008042 175.3425 656.087417 175.3425 
z
M 656.087417 174.405 
Q 657.559292 174.405 658.335542 175.569375 
Q 659.111792 176.731875 659.111792 178.94625 
Q 659.111792 181.155 658.335542 182.319375 
Q 657.559292 183.481875 656.087417 183.481875 
Q 654.617417 183.481875 653.841167 182.319375 
Q 653.064917 181.155 653.064917 178.94625 
Q 653.064917 176.731875 653.841167 175.569375 
Q 654.617417 174.405 656.087417 174.405 
z
M 663.722183 175.3425 
Q 662.809058 175.3425 662.347808 176.2425 
Q 661.888433 177.140625 661.888433 178.94625 
Q 661.888433 180.744375 662.347808 181.644375 
Q 662.809058 182.544375 663.722183 182.544375 
Q 664.642808 182.544375 665.102183 181.644375 
Q 665.563433 180.744375 665.563433 178.94625 
Q 665.563433 177.140625 665.102183 176.2425 
Q 664.642808 175.3425 663.722183 175.3425 
z
M 663.722183 174.405 
Q 665.194058 174.405 665.970308 175.569375 
Q 666.746558 176.731875 666.746558 178.94625 
Q 666.746558 181.155 665.970308 182.319375 
Q 665.194058 183.481875 663.722183 183.481875 
Q 662.252183 183.481875 661.475933 182.319375 
Q 660.699683 181.155 660.699683 178.94625 
Q 660.699683 176.731875 661.475933 175.569375 
Q 662.252183 174.405 663.722183 174.405 
z
M 669.845699 182.315625 
L 673.976324 182.315625 
L 673.976324 183.31125 
L 668.422574 183.31125 
L 668.422574 182.315625 
Q 669.095699 181.618125 670.258199 180.444375 
Q 671.422574 179.26875 671.720699 178.9275 
Q 672.288824 178.29 672.513824 177.8475 
Q 672.740699 177.405 672.740699 176.9775 
Q 672.740699 176.28 672.251324 175.84125 
Q 671.761949 175.400625 670.976324 175.400625 
Q 670.419449 175.400625 669.800699 175.59375 
Q 669.183824 175.786875 668.480699 176.180625 
L 668.480699 174.984375 
Q 669.195074 174.6975 669.815699 174.55125 
Q 670.438199 174.405 670.953824 174.405 
Q 672.313199 174.405 673.121324 175.085625 
Q 673.929449 175.764375 673.929449 176.900625 
Q 673.929449 177.440625 673.726949 177.924375 
Q 673.526324 178.40625 672.991949 179.0625 
Q 672.845699 179.233125 672.060074 180.045 
Q 671.276324 180.856875 669.845699 182.315625 
z
M 676.666714 182.315625 
L 678.599839 182.315625 
L 678.599839 175.640625 
L 676.496089 176.0625 
L 676.496089 174.984375 
L 678.588589 174.5625 
L 679.771714 174.5625 
L 679.771714 182.315625 
L 681.704839 182.315625 
L 681.704839 183.31125 
L 676.666714 183.31125 
L 676.666714 182.315625 
z
M 687.348355 175.59375 
L 684.359605 180.264375 
L 687.348355 180.264375 
L 687.348355 175.59375 
z
M 687.037105 174.5625 
L 688.525855 174.5625 
L 688.525855 180.264375 
L 689.774605 180.264375 
L 689.774605 181.24875 
L 688.525855 181.24875 
L 688.525855 183.31125 
L 687.348355 183.31125 
L 687.348355 181.24875 
L 683.399605 181.24875 
L 683.399605 180.106875 
L 687.037105 174.5625 
z
M 691.76562 183.129375 
L 691.76562 182.05125 
Q 692.21187 182.263125 692.667495 182.37375 
Q 693.124995 182.484375 693.56562 182.484375 
Q 694.737495 182.484375 695.35437 181.696875 
Q 695.97312 180.909375 696.061245 179.3025 
Q 695.72187 179.806875 695.198745 180.076875 
Q 694.677495 180.346875 694.04562 180.346875 
Q 692.73312 180.346875 691.96812 179.55375 
Q 691.20312 178.75875 691.20312 177.380625 
Q 691.20312 176.034375 691.999995 175.220625 
Q 692.79687 174.405 694.12062 174.405 
Q 695.63937 174.405 696.43812 175.569375 
Q 697.238745 176.731875 697.238745 178.94625 
Q 697.238745 181.014375 696.256245 182.248125 
Q 695.27562 183.481875 693.61812 183.481875 
Q 693.17187 183.481875 692.71437 183.39375 
Q 692.258745 183.305625 691.76562 183.129375 
z
M 694.12062 179.420625 
Q 694.917495 179.420625 695.382495 178.876875 
Q 695.84937 178.33125 695.84937 177.380625 
Q 695.84937 176.4375 695.382495 175.89 
Q 694.917495 175.3425 694.12062 175.3425 
Q 693.323745 175.3425 692.858745 175.89 
Q 692.393745 176.4375 692.393745 177.380625 
Q 692.393745 178.33125 692.858745 178.876875 
Q 693.323745 179.420625 694.12062 179.420625 
z
" clip-path="url(#p7bf88d2bc8)" style="fill: #ffffff; stroke: #000000; stroke-width: 2"/>
    <path d="M 625.513667 174.5625 
L 626.696792 174.5625 
L 626.696792 178.149375 
L 630.998042 178.149375 
L 630.998042 174.5625 
L 632.181167 174.5625 
L 632.181167 183.31125 
L 630.998042 183.31125 
L 630.998042 179.145 
L 626.696792 179.145 
L 626.696792 183.31125 
L 625.513667 183.31125 
L 625.513667 174.5625 
z
M 635.72023 175.535625 
L 635.72023 178.8225 
L 637.20898 178.8225 
Q 638.035855 178.8225 638.485855 178.395 
Q 638.93773 177.9675 638.93773 177.17625 
Q 638.93773 176.390625 638.485855 175.963125 
Q 638.035855 175.535625 637.20898 175.535625 
L 635.72023 175.535625 
z
M 634.537105 174.5625 
L 637.20898 174.5625 
Q 638.680855 174.5625 639.43273 175.228125 
Q 640.18648 175.89375 640.18648 177.17625 
Q 640.18648 178.471875 639.43273 179.13375 
Q 638.680855 179.795625 637.20898 179.795625 
L 635.72023 179.795625 
L 635.72023 183.31125 
L 634.537105 183.31125 
L 634.537105 174.5625 
z
M 642.002183 181.8225 
L 643.237808 181.8225 
L 643.237808 183.31125 
L 642.002183 183.31125 
L 642.002183 181.8225 
z
M 642.002183 177.106875 
L 643.237808 177.106875 
L 643.237808 178.59375 
L 642.002183 178.59375 
L 642.002183 177.106875 
z
M 648.452652 175.3425 
Q 647.539527 175.3425 647.078277 176.2425 
Q 646.618902 177.140625 646.618902 178.94625 
Q 646.618902 180.744375 647.078277 181.644375 
Q 647.539527 182.544375 648.452652 182.544375 
Q 649.373277 182.544375 649.832652 181.644375 
Q 650.293902 180.744375 650.293902 178.94625 
Q 650.293902 177.140625 649.832652 176.2425 
Q 649.373277 175.3425 648.452652 175.3425 
z
M 648.452652 174.405 
Q 649.924527 174.405 650.700777 175.569375 
Q 651.477027 176.731875 651.477027 178.94625 
Q 651.477027 181.155 650.700777 182.319375 
Q 649.924527 183.481875 648.452652 183.481875 
Q 646.982652 183.481875 646.206402 182.319375 
Q 645.430152 181.155 645.430152 178.94625 
Q 645.430152 176.731875 646.206402 175.569375 
Q 646.982652 174.405 648.452652 174.405 
z
M 656.087417 175.3425 
Q 655.174292 175.3425 654.713042 176.2425 
Q 654.253667 177.140625 654.253667 178.94625 
Q 654.253667 180.744375 654.713042 181.644375 
Q 655.174292 182.544375 656.087417 182.544375 
Q 657.008042 182.544375 657.467417 181.644375 
Q 657.928667 180.744375 657.928667 178.94625 
Q 657.928667 177.140625 657.467417 176.2425 
Q 657.008042 175.3425 656.087417 175.3425 
z
M 656.087417 174.405 
Q 657.559292 174.405 658.335542 175.569375 
Q 659.111792 176.731875 659.111792 178.94625 
Q 659.111792 181.155 658.335542 182.319375 
Q 657.559292 183.481875 656.087417 183.481875 
Q 654.617417 183.481875 653.841167 182.319375 
Q 653.064917 181.155 653.064917 178.94625 
Q 653.064917 176.731875 653.841167 175.569375 
Q 654.617417 174.405 656.087417 174.405 
z
M 663.722183 175.3425 
Q 662.809058 175.3425 662.347808 176.2425 
Q 661.888433 177.140625 661.888433 178.94625 
Q 661.888433 180.744375 662.347808 181.644375 
Q 662.809058 182.544375 663.722183 182.544375 
Q 664.642808 182.544375 665.102183 181.644375 
Q 665.563433 180.744375 665.563433 178.94625 
Q 665.563433 177.140625 665.102183 176.2425 
Q 664.642808 175.3425 663.722183 175.3425 
z
M 663.722183 174.405 
Q 665.194058 174.405 665.970308 175.569375 
Q 666.746558 176.731875 666.746558 178.94625 
Q 666.746558 181.155 665.970308 182.319375 
Q 665.194058 183.481875 663.722183 183.481875 
Q 662.252183 183.481875 661.475933 182.319375 
Q 660.699683 181.155 660.699683 178.94625 
Q 660.699683 176.731875 661.475933 175.569375 
Q 662.252183 174.405 663.722183 174.405 
z
M 669.845699 182.315625 
L 673.976324 182.315625 
L 673.976324 183.31125 
L 668.422574 183.31125 
L 668.422574 182.315625 
Q 669.095699 181.618125 670.258199 180.444375 
Q 671.422574 179.26875 671.720699 178.9275 
Q 672.288824 178.29 672.513824 177.8475 
Q 672.740699 177.405 672.740699 176.9775 
Q 672.740699 176.28 672.251324 175.84125 
Q 671.761949 175.400625 670.976324 175.400625 
Q 670.419449 175.400625 669.800699 175.59375 
Q 669.183824 175.786875 668.480699 176.180625 
L 668.480699 174.984375 
Q 669.195074 174.6975 669.815699 174.55125 
Q 670.438199 174.405 670.953824 174.405 
Q 672.313199 174.405 673.121324 175.085625 
Q 673.929449 175.764375 673.929449 176.900625 
Q 673.929449 177.440625 673.726949 177.924375 
Q 673.526324 178.40625 672.991949 179.0625 
Q 672.845699 179.233125 672.060074 180.045 
Q 671.276324 180.856875 669.845699 182.315625 
z
M 676.666714 182.315625 
L 678.599839 182.315625 
L 678.599839 175.640625 
L 676.496089 176.0625 
L 676.496089 174.984375 
L 678.588589 174.5625 
L 679.771714 174.5625 
L 679.771714 182.315625 
L 681.704839 182.315625 
L 681.704839 183.31125 
L 676.666714 183.31125 
L 676.666714 182.315625 
z
M 687.348355 175.59375 
L 684.359605 180.264375 
L 687.348355 180.264375 
L 687.348355 175.59375 
z
M 687.037105 174.5625 
L 688.525855 174.5625 
L 688.525855 180.264375 
L 689.774605 180.264375 
L 689.774605 181.24875 
L 688.525855 181.24875 
L 688.525855 183.31125 
L 687.348355 183.31125 
L 687.348355 181.24875 
L 683.399605 181.24875 
L 683.399605 180.106875 
L 687.037105 174.5625 
z
M 691.76562 183.129375 
L 691.76562 182.05125 
Q 692.21187 182.263125 692.667495 182.37375 
Q 693.124995 182.484375 693.56562 182.484375 
Q 694.737495 182.484375 695.35437 181.696875 
Q 695.97312 180.909375 696.061245 179.3025 
Q 695.72187 179.806875 695.198745 180.076875 
Q 694.677495 180.346875 694.04562 180.346875 
Q 692.73312 180.346875 691.96812 179.55375 
Q 691.20312 178.75875 691.20312 177.380625 
Q 691.20312 176.034375 691.999995 175.220625 
Q 692.79687 174.405 694.12062 174.405 
Q 695.63937 174.405 696.43812 175.569375 
Q 697.238745 176.731875 697.238745 178.94625 
Q 697.238745 181.014375 696.256245 182.248125 
Q 695.27562 183.481875 693.61812 183.481875 
Q 693.17187 183.481875 692.71437 183.39375 
Q 692.258745 183.305625 691.76562 183.129375 
z
M 694.12062 179.420625 
Q 694.917495 179.420625 695.382495 178.876875 
Q 695.84937 178.33125 695.84937 177.380625 
Q 695.84937 176.4375 695.382495 175.89 
Q 694.917495 175.3425 694.12062 175.3425 
Q 693.323745 175.3425 692.858745 175.89 
Q 692.393745 176.4375 692.393745 177.380625 
Q 692.393745 178.33125 692.858745 178.876875 
Q 693.323745 179.420625 694.12062 179.420625 
z
" clip-path="url(#p7bf88d2bc8)" style="fill: #ffffff"/>
    <path d="M 607.638355 188.973 
L 607.638355 192.259875 
L 609.127105 192.259875 
Q 609.95398 192.259875 610.40398 191.832375 
Q 610.855855 191.404875 610.855855 190.613625 
Q 610.855855 189.828 610.40398 189.4005 
Q 609.95398 188.973 609.127105 188.973 
L 607.638355 188.973 
z
M 606.45523 187.999875 
L 609.127105 187.999875 
Q 610.59898 187.999875 611.350855 188.6655 
Q 612.104605 189.331125 612.104605 190.613625 
Q 612.104605 191.90925 611.350855 192.571125 
Q 610.59898 193.233 609.127105 193.233 
L 607.638355 193.233 
L 607.638355 196.748625 
L 606.45523 196.748625 
L 606.45523 187.999875 
z
M 619.100933 192.78675 
L 619.100933 196.748625 
L 618.022808 196.748625 
L 618.022808 192.822375 
Q 618.022808 191.8905 617.659058 191.42925 
Q 617.295308 190.966125 616.569683 190.966125 
Q 615.695933 190.966125 615.191558 191.523 
Q 614.687183 192.078 614.687183 193.039875 
L 614.687183 196.748625 
L 613.603433 196.748625 
L 613.603433 187.6305 
L 614.687183 187.6305 
L 614.687183 191.206125 
Q 615.075308 190.613625 615.598433 190.321125 
Q 616.123433 190.028625 616.809683 190.028625 
Q 617.940308 190.028625 618.519683 190.728 
Q 619.100933 191.427375 619.100933 192.78675 
z
M 626.863902 193.197375 
L 626.863902 193.72425 
L 621.906402 193.72425 
Q 621.977652 194.838 622.577652 195.421125 
Q 623.177652 196.00425 624.250152 196.00425 
Q 624.870777 196.00425 625.453902 195.852375 
Q 626.037027 195.7005 626.612652 195.394875 
L 626.612652 196.414875 
Q 626.031402 196.6605 625.422027 196.789875 
Q 624.812652 196.91925 624.186402 196.91925 
Q 622.615152 196.91925 621.698277 196.006125 
Q 620.781402 195.091125 620.781402 193.531125 
Q 620.781402 191.9205 621.651402 190.9755 
Q 622.521402 190.028625 623.998902 190.028625 
Q 625.322652 190.028625 626.093277 190.88175 
Q 626.863902 191.733 626.863902 193.197375 
z
M 625.785777 192.8805 
Q 625.774527 191.997375 625.290777 191.4705 
Q 624.807027 190.94175 624.010152 190.94175 
Q 623.108277 190.94175 622.566402 191.45175 
Q 622.024527 191.96175 621.942027 192.888 
L 625.785777 192.8805 
z
M 634.089214 192.78675 
L 634.089214 196.748625 
L 633.011089 196.748625 
L 633.011089 192.822375 
Q 633.011089 191.8905 632.647339 191.42925 
Q 632.283589 190.966125 631.557964 190.966125 
Q 630.684214 190.966125 630.179839 191.523 
Q 629.675464 192.078 629.675464 193.039875 
L 629.675464 196.748625 
L 628.591714 196.748625 
L 628.591714 190.186125 
L 629.675464 190.186125 
L 629.675464 191.206125 
Q 630.063589 190.613625 630.586714 190.321125 
Q 631.111714 190.028625 631.797964 190.028625 
Q 632.928589 190.028625 633.507964 190.728 
Q 634.089214 191.427375 634.089214 192.78675 
z
M 638.780933 190.94175 
Q 637.914683 190.94175 637.410308 191.618625 
Q 636.905933 192.2955 636.905933 193.473 
Q 636.905933 194.6505 637.406558 195.327375 
Q 637.909058 196.00425 638.780933 196.00425 
Q 639.643433 196.00425 640.145933 195.3255 
Q 640.650308 194.644875 640.650308 193.473 
Q 640.650308 192.30675 640.145933 191.62425 
Q 639.643433 190.94175 638.780933 190.94175 
z
M 638.780933 190.028625 
Q 640.187183 190.028625 640.989683 190.943625 
Q 641.794058 191.85675 641.794058 193.473 
Q 641.794058 195.083625 640.989683 196.002375 
Q 640.187183 196.91925 638.780933 196.91925 
Q 637.369058 196.91925 636.568433 196.002375 
Q 635.769683 195.083625 635.769683 193.473 
Q 635.769683 191.85675 636.568433 190.943625 
Q 637.369058 190.028625 638.780933 190.028625 
z
M 644.647105 188.322375 
L 644.647105 190.186125 
L 646.867105 190.186125 
L 646.867105 191.02425 
L 644.647105 191.02425 
L 644.647105 194.58675 
Q 644.647105 195.38925 644.86648 195.618 
Q 645.085855 195.84675 645.760855 195.84675 
L 646.867105 195.84675 
L 646.867105 196.748625 
L 645.760855 196.748625 
Q 644.512105 196.748625 644.03773 196.283625 
Q 643.563355 195.81675 643.563355 194.58675 
L 643.563355 191.02425 
L 642.772105 191.02425 
L 642.772105 190.186125 
L 643.563355 190.186125 
L 643.563355 188.322375 
L 644.647105 188.322375 
z
M 651.015308 197.358 
Q 650.559683 198.529875 650.124683 198.886125 
Q 649.691558 199.24425 648.965933 199.24425 
L 648.103433 199.24425 
L 648.103433 198.342375 
L 648.737183 198.342375 
Q 649.181558 198.342375 649.427183 198.1305 
Q 649.674683 197.9205 649.972808 197.134875 
L 650.165933 196.643625 
L 647.512808 190.186125 
L 648.654683 190.186125 
L 650.705933 195.318 
L 652.757183 190.186125 
L 653.899058 190.186125 
L 651.015308 197.358 
z
M 656.42937 195.76425 
L 656.42937 199.24425 
L 655.34562 199.24425 
L 655.34562 190.186125 
L 656.42937 190.186125 
L 656.42937 191.18175 
Q 656.77062 190.59675 657.28812 190.313625 
Q 657.807495 190.028625 658.527495 190.028625 
Q 659.723745 190.028625 660.469995 190.977375 
Q 661.21812 191.926125 661.21812 193.473 
Q 661.21812 195.019875 660.469995 195.9705 
Q 659.723745 196.91925 658.527495 196.91925 
Q 657.807495 196.91925 657.28812 196.63425 
Q 656.77062 196.34925 656.42937 195.76425 
z
M 660.098745 193.473 
Q 660.098745 192.28425 659.60937 191.607375 
Q 659.119995 190.9305 658.264995 190.9305 
Q 657.40812 190.9305 656.918745 191.607375 
Q 656.42937 192.28425 656.42937 193.473 
Q 656.42937 194.66175 656.918745 195.338625 
Q 657.40812 196.0155 658.264995 196.0155 
Q 659.119995 196.0155 659.60937 195.338625 
Q 660.098745 194.66175 660.098745 193.473 
z
M 663.004058 190.186125 
L 664.082183 190.186125 
L 664.082183 196.748625 
L 663.004058 196.748625 
L 663.004058 190.186125 
z
M 663.004058 187.6305 
L 664.082183 187.6305 
L 664.082183 188.997375 
L 663.004058 188.997375 
L 663.004058 187.6305 
z
M 671.061167 190.437375 
L 671.061167 191.446125 
Q 670.603667 191.193 670.144292 191.067375 
Q 669.684917 190.94175 669.216167 190.94175 
Q 668.166167 190.94175 667.584917 191.607375 
Q 667.005542 192.271125 667.005542 193.473 
Q 667.005542 194.674875 667.584917 195.3405 
Q 668.166167 196.00425 669.216167 196.00425 
Q 669.684917 196.00425 670.144292 195.878625 
Q 670.603667 195.753 671.061167 195.499875 
L 671.061167 196.497375 
Q 670.609292 196.707375 670.125542 196.812375 
Q 669.643667 196.91925 669.098042 196.91925 
Q 667.614917 196.91925 666.741167 195.987375 
Q 665.869292 195.0555 665.869292 193.473 
Q 665.869292 191.868 666.750542 190.94925 
Q 667.633667 190.028625 669.169292 190.028625 
Q 669.666167 190.028625 670.140542 190.13175 
Q 670.614917 190.233 671.061167 190.437375 
z
M 672.982574 187.999875 
L 678.009449 187.999875 
L 678.009449 188.997375 
L 674.165699 188.997375 
L 674.165699 191.5755 
L 677.634449 191.5755 
L 677.634449 192.571125 
L 674.165699 192.571125 
L 674.165699 196.748625 
L 672.982574 196.748625 
L 672.982574 187.999875 
z
M 684.791792 193.197375 
L 684.791792 193.72425 
L 679.834292 193.72425 
Q 679.905542 194.838 680.505542 195.421125 
Q 681.105542 196.00425 682.178042 196.00425 
Q 682.798667 196.00425 683.381792 195.852375 
Q 683.964917 195.7005 684.540542 195.394875 
L 684.540542 196.414875 
Q 683.959292 196.6605 683.349917 196.789875 
Q 682.740542 196.91925 682.114292 196.91925 
Q 680.543042 196.91925 679.626167 196.006125 
Q 678.709292 195.091125 678.709292 193.531125 
Q 678.709292 191.9205 679.579292 190.9755 
Q 680.449292 190.028625 681.926792 190.028625 
Q 683.250542 190.028625 684.021167 190.88175 
Q 684.791792 191.733 684.791792 193.197375 
z
M 683.713667 192.8805 
Q 683.702417 191.997375 683.218667 191.4705 
Q 682.734917 190.94175 681.938042 190.94175 
Q 681.036167 190.94175 680.494292 191.45175 
Q 679.952417 191.96175 679.869917 192.888 
L 683.713667 192.8805 
z
M 689.54398 193.4505 
Q 688.237105 193.4505 687.73273 193.748625 
Q 687.228355 194.04675 687.228355 194.768625 
Q 687.228355 195.342375 687.607105 195.679875 
Q 687.985855 196.0155 688.634605 196.0155 
Q 689.53273 196.0155 690.074605 195.379875 
Q 690.61648 194.74425 690.61648 193.6905 
L 690.61648 193.4505 
L 689.54398 193.4505 
z
M 691.694605 193.00425 
L 691.694605 196.748625 
L 690.61648 196.748625 
L 690.61648 195.753 
Q 690.247105 196.34925 689.695855 196.63425 
Q 689.144605 196.91925 688.34773 196.91925 
Q 687.340855 196.91925 686.744605 196.353 
Q 686.15023 195.78675 686.15023 194.838 
Q 686.15023 193.73175 686.890855 193.16925 
Q 687.633355 192.60675 689.103355 192.60675 
L 690.61648 192.60675 
L 690.61648 192.499875 
Q 690.61648 191.7555 690.127105 191.348625 
Q 689.63773 190.94175 688.75273 190.94175 
Q 688.19023 190.94175 687.655855 191.07675 
Q 687.123355 191.21175 686.632105 191.48175 
L 686.632105 190.48425 
Q 687.22273 190.2555 687.779605 190.143 
Q 688.33648 190.028625 688.863355 190.028625 
Q 690.288355 190.028625 690.99148 190.767375 
Q 691.694605 191.50425 691.694605 193.00425 
z
M 694.981245 188.322375 
L 694.981245 190.186125 
L 697.201245 190.186125 
L 697.201245 191.02425 
L 694.981245 191.02425 
L 694.981245 194.58675 
Q 694.981245 195.38925 695.20062 195.618 
Q 695.419995 195.84675 696.094995 195.84675 
L 697.201245 195.84675 
L 697.201245 196.748625 
L 696.094995 196.748625 
Q 694.846245 196.748625 694.37187 196.283625 
Q 693.897495 195.81675 693.897495 194.58675 
L 693.897495 191.02425 
L 693.106245 191.02425 
L 693.106245 190.186125 
L 693.897495 190.186125 
L 693.897495 188.322375 
L 694.981245 188.322375 
z
M 698.508824 194.15925 
L 698.508824 190.186125 
L 699.586949 190.186125 
L 699.586949 194.118 
Q 699.586949 195.049875 699.948824 195.51675 
Q 700.312574 195.98175 701.040074 195.98175 
Q 701.911949 195.98175 702.418199 195.424875 
Q 702.926324 194.868 702.926324 193.906125 
L 702.926324 190.186125 
L 704.004449 190.186125 
L 704.004449 196.748625 
L 702.926324 196.748625 
L 702.926324 195.739875 
Q 702.534449 196.338 702.015074 196.628625 
Q 701.497574 196.91925 700.811324 196.91925 
Q 699.680699 196.91925 699.093824 196.216125 
Q 698.508824 195.513 698.508824 194.15925 
z
M 701.221949 190.028625 
L 701.221949 190.028625 
z
M 710.027417 191.193 
Q 709.845542 191.088 709.631792 191.03925 
Q 709.418042 190.988625 709.161167 190.988625 
Q 708.246167 190.988625 707.756792 191.583 
Q 707.267417 192.177375 707.267417 193.291125 
L 707.267417 196.748625 
L 706.183667 196.748625 
L 706.183667 190.186125 
L 707.267417 190.186125 
L 707.267417 191.206125 
Q 707.608667 190.608 708.152417 190.31925 
Q 708.698042 190.028625 709.478042 190.028625 
Q 709.588667 190.028625 709.723667 190.043625 
Q 709.858667 190.05675 710.021792 190.08675 
L 710.027417 191.193 
z
M 716.502261 193.197375 
L 716.502261 193.72425 
L 711.544761 193.72425 
Q 711.616011 194.838 712.216011 195.421125 
Q 712.816011 196.00425 713.888511 196.00425 
Q 714.509136 196.00425 715.092261 195.852375 
Q 715.675386 195.7005 716.251011 195.394875 
L 716.251011 196.414875 
Q 715.669761 196.6605 715.060386 196.789875 
Q 714.451011 196.91925 713.824761 196.91925 
Q 712.253511 196.91925 711.336636 196.006125 
Q 710.419761 195.091125 710.419761 193.531125 
Q 710.419761 191.9205 711.289761 190.9755 
Q 712.159761 190.028625 713.637261 190.028625 
Q 714.961011 190.028625 715.731636 190.88175 
Q 716.502261 191.733 716.502261 193.197375 
z
M 715.424136 192.8805 
Q 715.412886 191.997375 714.929136 191.4705 
Q 714.445386 190.94175 713.648511 190.94175 
Q 712.746636 190.94175 712.204761 191.45175 
Q 711.662886 191.96175 711.580386 192.888 
L 715.424136 192.8805 
z
" clip-path="url(#p7bf88d2bc8)" style="fill: #ffffff; stroke: #000000; stroke-width: 2"/>
    <path d="M 607.638355 188.973 
L 607.638355 192.259875 
L 609.127105 192.259875 
Q 609.95398 192.259875 610.40398 191.832375 
Q 610.855855 191.404875 610.855855 190.613625 
Q 610.855855 189.828 610.40398 189.4005 
Q 609.95398 188.973 609.127105 188.973 
L 607.638355 188.973 
z
M 606.45523 187.999875 
L 609.127105 187.999875 
Q 610.59898 187.999875 611.350855 188.6655 
Q 612.104605 189.331125 612.104605 190.613625 
Q 612.104605 191.90925 611.350855 192.571125 
Q 610.59898 193.233 609.127105 193.233 
L 607.638355 193.233 
L 607.638355 196.748625 
L 606.45523 196.748625 
L 606.45523 187.999875 
z
M 619.100933 192.78675 
L 619.100933 196.748625 
L 618.022808 196.748625 
L 618.022808 192.822375 
Q 618.022808 191.8905 617.659058 191.42925 
Q 617.295308 190.966125 616.569683 190.966125 
Q 615.695933 190.966125 615.191558 191.523 
Q 614.687183 192.078 614.687183 193.039875 
L 614.687183 196.748625 
L 613.603433 196.748625 
L 613.603433 187.6305 
L 614.687183 187.6305 
L 614.687183 191.206125 
Q 615.075308 190.613625 615.598433 190.321125 
Q 616.123433 190.028625 616.809683 190.028625 
Q 617.940308 190.028625 618.519683 190.728 
Q 619.100933 191.427375 619.100933 192.78675 
z
M 626.863902 193.197375 
L 626.863902 193.72425 
L 621.906402 193.72425 
Q 621.977652 194.838 622.577652 195.421125 
Q 623.177652 196.00425 624.250152 196.00425 
Q 624.870777 196.00425 625.453902 195.852375 
Q 626.037027 195.7005 626.612652 195.394875 
L 626.612652 196.414875 
Q 626.031402 196.6605 625.422027 196.789875 
Q 624.812652 196.91925 624.186402 196.91925 
Q 622.615152 196.91925 621.698277 196.006125 
Q 620.781402 195.091125 620.781402 193.531125 
Q 620.781402 191.9205 621.651402 190.9755 
Q 622.521402 190.028625 623.998902 190.028625 
Q 625.322652 190.028625 626.093277 190.88175 
Q 626.863902 191.733 626.863902 193.197375 
z
M 625.785777 192.8805 
Q 625.774527 191.997375 625.290777 191.4705 
Q 624.807027 190.94175 624.010152 190.94175 
Q 623.108277 190.94175 622.566402 191.45175 
Q 622.024527 191.96175 621.942027 192.888 
L 625.785777 192.8805 
z
M 634.089214 192.78675 
L 634.089214 196.748625 
L 633.011089 196.748625 
L 633.011089 192.822375 
Q 633.011089 191.8905 632.647339 191.42925 
Q 632.283589 190.966125 631.557964 190.966125 
Q 630.684214 190.966125 630.179839 191.523 
Q 629.675464 192.078 629.675464 193.039875 
L 629.675464 196.748625 
L 628.591714 196.748625 
L 628.591714 190.186125 
L 629.675464 190.186125 
L 629.675464 191.206125 
Q 630.063589 190.613625 630.586714 190.321125 
Q 631.111714 190.028625 631.797964 190.028625 
Q 632.928589 190.028625 633.507964 190.728 
Q 634.089214 191.427375 634.089214 192.78675 
z
M 638.780933 190.94175 
Q 637.914683 190.94175 637.410308 191.618625 
Q 636.905933 192.2955 636.905933 193.473 
Q 636.905933 194.6505 637.406558 195.327375 
Q 637.909058 196.00425 638.780933 196.00425 
Q 639.643433 196.00425 640.145933 195.3255 
Q 640.650308 194.644875 640.650308 193.473 
Q 640.650308 192.30675 640.145933 191.62425 
Q 639.643433 190.94175 638.780933 190.94175 
z
M 638.780933 190.028625 
Q 640.187183 190.028625 640.989683 190.943625 
Q 641.794058 191.85675 641.794058 193.473 
Q 641.794058 195.083625 640.989683 196.002375 
Q 640.187183 196.91925 638.780933 196.91925 
Q 637.369058 196.91925 636.568433 196.002375 
Q 635.769683 195.083625 635.769683 193.473 
Q 635.769683 191.85675 636.568433 190.943625 
Q 637.369058 190.028625 638.780933 190.028625 
z
M 644.647105 188.322375 
L 644.647105 190.186125 
L 646.867105 190.186125 
L 646.867105 191.02425 
L 644.647105 191.02425 
L 644.647105 194.58675 
Q 644.647105 195.38925 644.86648 195.618 
Q 645.085855 195.84675 645.760855 195.84675 
L 646.867105 195.84675 
L 646.867105 196.748625 
L 645.760855 196.748625 
Q 644.512105 196.748625 644.03773 196.283625 
Q 643.563355 195.81675 643.563355 194.58675 
L 643.563355 191.02425 
L 642.772105 191.02425 
L 642.772105 190.186125 
L 643.563355 190.186125 
L 643.563355 188.322375 
L 644.647105 188.322375 
z
M 651.015308 197.358 
Q 650.559683 198.529875 650.124683 198.886125 
Q 649.691558 199.24425 648.965933 199.24425 
L 648.103433 199.24425 
L 648.103433 198.342375 
L 648.737183 198.342375 
Q 649.181558 198.342375 649.427183 198.1305 
Q 649.674683 197.9205 649.972808 197.134875 
L 650.165933 196.643625 
L 647.512808 190.186125 
L 648.654683 190.186125 
L 650.705933 195.318 
L 652.757183 190.186125 
L 653.899058 190.186125 
L 651.015308 197.358 
z
M 656.42937 195.76425 
L 656.42937 199.24425 
L 655.34562 199.24425 
L 655.34562 190.186125 
L 656.42937 190.186125 
L 656.42937 191.18175 
Q 656.77062 190.59675 657.28812 190.313625 
Q 657.807495 190.028625 658.527495 190.028625 
Q 659.723745 190.028625 660.469995 190.977375 
Q 661.21812 191.926125 661.21812 193.473 
Q 661.21812 195.019875 660.469995 195.9705 
Q 659.723745 196.91925 658.527495 196.91925 
Q 657.807495 196.91925 657.28812 196.63425 
Q 656.77062 196.34925 656.42937 195.76425 
z
M 660.098745 193.473 
Q 660.098745 192.28425 659.60937 191.607375 
Q 659.119995 190.9305 658.264995 190.9305 
Q 657.40812 190.9305 656.918745 191.607375 
Q 656.42937 192.28425 656.42937 193.473 
Q 656.42937 194.66175 656.918745 195.338625 
Q 657.40812 196.0155 658.264995 196.0155 
Q 659.119995 196.0155 659.60937 195.338625 
Q 660.098745 194.66175 660.098745 193.473 
z
M 663.004058 190.186125 
L 664.082183 190.186125 
L 664.082183 196.748625 
L 663.004058 196.748625 
L 663.004058 190.186125 
z
M 663.004058 187.6305 
L 664.082183 187.6305 
L 664.082183 188.997375 
L 663.004058 188.997375 
L 663.004058 187.6305 
z
M 671.061167 190.437375 
L 671.061167 191.446125 
Q 670.603667 191.193 670.144292 191.067375 
Q 669.684917 190.94175 669.216167 190.94175 
Q 668.166167 190.94175 667.584917 191.607375 
Q 667.005542 192.271125 667.005542 193.473 
Q 667.005542 194.674875 667.584917 195.3405 
Q 668.166167 196.00425 669.216167 196.00425 
Q 669.684917 196.00425 670.144292 195.878625 
Q 670.603667 195.753 671.061167 195.499875 
L 671.061167 196.497375 
Q 670.609292 196.707375 670.125542 196.812375 
Q 669.643667 196.91925 669.098042 196.91925 
Q 667.614917 196.91925 666.741167 195.987375 
Q 665.869292 195.0555 665.869292 193.473 
Q 665.869292 191.868 666.750542 190.94925 
Q 667.633667 190.028625 669.169292 190.028625 
Q 669.666167 190.028625 670.140542 190.13175 
Q 670.614917 190.233 671.061167 190.437375 
z
M 672.982574 187.999875 
L 678.009449 187.999875 
L 678.009449 188.997375 
L 674.165699 188.997375 
L 674.165699 191.5755 
L 677.634449 191.5755 
L 677.634449 192.571125 
L 674.165699 192.571125 
L 674.165699 196.748625 
L 672.982574 196.748625 
L 672.982574 187.999875 
z
M 684.791792 193.197375 
L 684.791792 193.72425 
L 679.834292 193.72425 
Q 679.905542 194.838 680.505542 195.421125 
Q 681.105542 196.00425 682.178042 196.00425 
Q 682.798667 196.00425 683.381792 195.852375 
Q 683.964917 195.7005 684.540542 195.394875 
L 684.540542 196.414875 
Q 683.959292 196.6605 683.349917 196.789875 
Q 682.740542 196.91925 682.114292 196.91925 
Q 680.543042 196.91925 679.626167 196.006125 
Q 678.709292 195.091125 678.709292 193.531125 
Q 678.709292 191.9205 679.579292 190.9755 
Q 680.449292 190.028625 681.926792 190.028625 
Q 683.250542 190.028625 684.021167 190.88175 
Q 684.791792 191.733 684.791792 193.197375 
z
M 683.713667 192.8805 
Q 683.702417 191.997375 683.218667 191.4705 
Q 682.734917 190.94175 681.938042 190.94175 
Q 681.036167 190.94175 680.494292 191.45175 
Q 679.952417 191.96175 679.869917 192.888 
L 683.713667 192.8805 
z
M 689.54398 193.4505 
Q 688.237105 193.4505 687.73273 193.748625 
Q 687.228355 194.04675 687.228355 194.768625 
Q 687.228355 195.342375 687.607105 195.679875 
Q 687.985855 196.0155 688.634605 196.0155 
Q 689.53273 196.0155 690.074605 195.379875 
Q 690.61648 194.74425 690.61648 193.6905 
L 690.61648 193.4505 
L 689.54398 193.4505 
z
M 691.694605 193.00425 
L 691.694605 196.748625 
L 690.61648 196.748625 
L 690.61648 195.753 
Q 690.247105 196.34925 689.695855 196.63425 
Q 689.144605 196.91925 688.34773 196.91925 
Q 687.340855 196.91925 686.744605 196.353 
Q 686.15023 195.78675 686.15023 194.838 
Q 686.15023 193.73175 686.890855 193.16925 
Q 687.633355 192.60675 689.103355 192.60675 
L 690.61648 192.60675 
L 690.61648 192.499875 
Q 690.61648 191.7555 690.127105 191.348625 
Q 689.63773 190.94175 688.75273 190.94175 
Q 688.19023 190.94175 687.655855 191.07675 
Q 687.123355 191.21175 686.632105 191.48175 
L 686.632105 190.48425 
Q 687.22273 190.2555 687.779605 190.143 
Q 688.33648 190.028625 688.863355 190.028625 
Q 690.288355 190.028625 690.99148 190.767375 
Q 691.694605 191.50425 691.694605 193.00425 
z
M 694.981245 188.322375 
L 694.981245 190.186125 
L 697.201245 190.186125 
L 697.201245 191.02425 
L 694.981245 191.02425 
L 694.981245 194.58675 
Q 694.981245 195.38925 695.20062 195.618 
Q 695.419995 195.84675 696.094995 195.84675 
L 697.201245 195.84675 
L 697.201245 196.748625 
L 696.094995 196.748625 
Q 694.846245 196.748625 694.37187 196.283625 
Q 693.897495 195.81675 693.897495 194.58675 
L 693.897495 191.02425 
L 693.106245 191.02425 
L 693.106245 190.186125 
L 693.897495 190.186125 
L 693.897495 188.322375 
L 694.981245 188.322375 
z
M 698.508824 194.15925 
L 698.508824 190.186125 
L 699.586949 190.186125 
L 699.586949 194.118 
Q 699.586949 195.049875 699.948824 195.51675 
Q 700.312574 195.98175 701.040074 195.98175 
Q 701.911949 195.98175 702.418199 195.424875 
Q 702.926324 194.868 702.926324 193.906125 
L 702.926324 190.186125 
L 704.004449 190.186125 
L 704.004449 196.748625 
L 702.926324 196.748625 
L 702.926324 195.739875 
Q 702.534449 196.338 702.015074 196.628625 
Q 701.497574 196.91925 700.811324 196.91925 
Q 699.680699 196.91925 699.093824 196.216125 
Q 698.508824 195.513 698.508824 194.15925 
z
M 701.221949 190.028625 
L 701.221949 190.028625 
z
M 710.027417 191.193 
Q 709.845542 191.088 709.631792 191.03925 
Q 709.418042 190.988625 709.161167 190.988625 
Q 708.246167 190.988625 707.756792 191.583 
Q 707.267417 192.177375 707.267417 193.291125 
L 707.267417 196.748625 
L 706.183667 196.748625 
L 706.183667 190.186125 
L 707.267417 190.186125 
L 707.267417 191.206125 
Q 707.608667 190.608 708.152417 190.31925 
Q 708.698042 190.028625 709.478042 190.028625 
Q 709.588667 190.028625 709.723667 190.043625 
Q 709.858667 190.05675 710.021792 190.08675 
L 710.027417 191.193 
z
M 716.502261 193.197375 
L 716.502261 193.72425 
L 711.544761 193.72425 
Q 711.616011 194.838 712.216011 195.421125 
Q 712.816011 196.00425 713.888511 196.00425 
Q 714.509136 196.00425 715.092261 195.852375 
Q 715.675386 195.7005 716.251011 195.394875 
L 716.251011 196.414875 
Q 715.669761 196.6605 715.060386 196.789875 
Q 714.451011 196.91925 713.824761 196.91925 
Q 712.253511 196.91925 711.336636 196.006125 
Q 710.419761 195.091125 710.419761 193.531125 
Q 710.419761 191.9205 711.289761 190.9755 
Q 712.159761 190.028625 713.637261 190.028625 
Q 714.961011 190.028625 715.731636 190.88175 
Q 716.502261 191.733 716.502261 193.197375 
z
M 715.424136 192.8805 
Q 715.412886 191.997375 714.929136 191.4705 
Q 714.445386 190.94175 713.648511 190.94175 
Q 712.746636 190.94175 712.204761 191.45175 
Q 711.662886 191.96175 711.580386 192.888 
L 715.424136 192.8805 
z
" clip-path="url(#p7bf88d2bc8)" style="fill: #ffffff"/>
   </g>
   <g id="text_5">
    <g clip-path="url(#p7bf88d2bc8)">
     <!-- pegloticase -->
     <g transform="translate(55.509623 169.873875)scale(0.12 -0.12)">
      <defs>
       <path id="DejaVuSans-67" d="M 2906 1791 
Q 2906 2416 2648 2759 
Q 2391 3103 1925 3103 
Q 1463 3103 1205 2759 
Q 947 2416 947 1791 
Q 947 1169 1205 825 
Q 1463 481 1925 481 
Q 2391 481 2648 825 
Q 2906 1169 2906 1791 
z
M 3481 434 
Q 3481 -459 3084 -895 
Q 2688 -1331 1869 -1331 
Q 1566 -1331 1297 -1286 
Q 1028 -1241 775 -1147 
L 775 -588 
Q 1028 -725 1275 -790 
Q 1522 -856 1778 -856 
Q 2344 -856 2625 -561 
Q 2906 -266 2906 331 
L 2906 616 
Q 2728 306 2450 153 
Q 2172 0 1784 0 
Q 1141 0 747 490 
Q 353 981 353 1791 
Q 353 2603 747 3093 
Q 1141 3584 1784 3584 
Q 2172 3584 2450 3431 
Q 2728 3278 2906 2969 
L 2906 3500 
L 3481 3500 
L 3481 434 
z
" transform="scale(0.015625)"/>
      </defs>
      <use xlink:href="#DejaVuSans-70"/>
      <use xlink:href="#DejaVuSans-65" x="63.476562"/>
      <use xlink:href="#DejaVuSans-67" x="125"/>
      <use xlink:href="#DejaVuSans-6c" x="188.476562"/>
      <use xlink:href="#DejaVuSans-6f" x="216.259766"/>
      <use xlink:href="#DejaVuSans-74" x="277.441406"/>
      <use xlink:href="#DejaVuSans-69" x="316.650391"/>
      <use xlink:href="#DejaVuSans-63" x="344.433594"/>
      <use xlink:href="#DejaVuSans-61" x="399.414062"/>
      <use xlink:href="#DejaVuSans-73" x="460.693359"/>
      <use xlink:href="#DejaVuSans-65" x="512.792969"/>
     </g>
    </g>
    <g clip-path="url(#p7bf88d2bc8)">
     <!-- MESH:C031545 -->
     <g transform="translate(43.564935 183.31125)scale(0.12 -0.12)">
      <defs>
       <path id="DejaVuSans-4d" d="M 628 4666 
L 1569 4666 
L 2759 1491 
L 3956 4666 
L 4897 4666 
L 4897 0 
L 4281 0 
L 4281 4097 
L 3078 897 
L 2444 897 
L 1241 4097 
L 1241 0 
L 628 0 
L 628 4666 
z
" transform="scale(0.015625)"/>
       <path id="DejaVuSans-45" d="M 628 4666 
L 3578 4666 
L 3578 4134 
L 1259 4134 
L 1259 2753 
L 3481 2753 
L 3481 2222 
L 1259 2222 
L 1259 531 
L 3634 531 
L 3634 0 
L 628 0 
L 628 4666 
z
" transform="scale(0.015625)"/>
       <path id="DejaVuSans-53" d="M 3425 4513 
L 3425 3897 
Q 3066 4069 2747 4153 
Q 2428 4238 2131 4238 
Q 1616 4238 1336 4038 
Q 1056 3838 1056 3469 
Q 1056 3159 1242 3001 
Q 1428 2844 1947 2747 
L 2328 2669 
Q 3034 2534 3370 2195 
Q 3706 1856 3706 1288 
Q 3706 609 3251 259 
Q 2797 -91 1919 -91 
Q 1588 -91 1214 -16 
Q 841 59 441 206 
L 441 856 
Q 825 641 1194 531 
Q 1563 422 1919 422 
Q 2459 422 2753 634 
Q 3047 847 3047 1241 
Q 3047 1584 2836 1778 
Q 2625 1972 2144 2069 
L 1759 2144 
Q 1053 2284 737 2584 
Q 422 2884 422 3419 
Q 422 4038 858 4394 
Q 1294 4750 2059 4750 
Q 2388 4750 2728 4690 
Q 3069 4631 3425 4513 
z
" transform="scale(0.015625)"/>
       <path id="DejaVuSans-48" d="M 628 4666 
L 1259 4666 
L 1259 2753 
L 3553 2753 
L 3553 4666 
L 4184 4666 
L 4184 0 
L 3553 0 
L 3553 2222 
L 1259 2222 
L 1259 0 
L 628 0 
L 628 4666 
z
" transform="scale(0.015625)"/>
       <path id="DejaVuSans-3a" d="M 750 794 
L 1409 794 
L 1409 0 
L 750 0 
L 750 794 
z
M 750 3309 
L 1409 3309 
L 1409 2516 
L 750 2516 
L 750 3309 
z
" transform="scale(0.015625)"/>
       <path id="DejaVuSans-43" d="M 4122 4306 
L 4122 3641 
Q 3803 3938 3442 4084 
Q 3081 4231 2675 4231 
Q 1875 4231 1450 3742 
Q 1025 3253 1025 2328 
Q 1025 1406 1450 917 
Q 1875 428 2675 428 
Q 3081 428 3442 575 
Q 3803 722 4122 1019 
L 4122 359 
Q 3791 134 3420 21 
Q 3050 -91 2638 -91 
Q 1578 -91 968 557 
Q 359 1206 359 2328 
Q 359 3453 968 4101 
Q 1578 4750 2638 4750 
Q 3056 4750 3426 4639 
Q 3797 4528 4122 4306 
z
" transform="scale(0.015625)"/>
       <path id="DejaVuSans-30" d="M 2034 4250 
Q 1547 4250 1301 3770 
Q 1056 3291 1056 2328 
Q 1056 1369 1301 889 
Q 1547 409 2034 409 
Q 2525 409 2770 889 
Q 3016 1369 3016 2328 
Q 3016 3291 2770 3770 
Q 2525 4250 2034 4250 
z
M 2034 4750 
Q 2819 4750 3233 4129 
Q 3647 3509 3647 2328 
Q 3647 1150 3233 529 
Q 2819 -91 2034 -91 
Q 1250 -91 836 529 
Q 422 1150 422 2328 
Q 422 3509 836 4129 
Q 1250 4750 2034 4750 
z
" transform="scale(0.015625)"/>
       <path id="DejaVuSans-33" d="M 2597 2516 
Q 3050 2419 3304 2112 
Q 3559 1806 3559 1356 
Q 3559 666 3084 287 
Q 2609 -91 1734 -91 
Q 1441 -91 1130 -33 
Q 819 25 488 141 
L 488 750 
Q 750 597 1062 519 
Q 1375 441 1716 441 
Q 2309 441 2620 675 
Q 2931 909 2931 1356 
Q 2931 1769 2642 2001 
Q 2353 2234 1838 2234 
L 1294 2234 
L 1294 2753 
L 1863 2753 
Q 2328 2753 2575 2939 
Q 2822 3125 2822 3475 
Q 2822 3834 2567 4026 
Q 2313 4219 1838 4219 
Q 1578 4219 1281 4162 
Q 984 4106 628 3988 
L 628 4550 
Q 988 4650 1302 4700 
Q 1616 4750 1894 4750 
Q 2613 4750 3031 4423 
Q 3450 4097 3450 3541 
Q 3450 3153 3228 2886 
Q 3006 2619 2597 2516 
z
" transform="scale(0.015625)"/>
       <path id="DejaVuSans-31" d="M 794 531 
L 1825 531 
L 1825 4091 
L 703 3866 
L 703 4441 
L 1819 4666 
L 2450 4666 
L 2450 531 
L 3481 531 
L 3481 0 
L 794 0 
L 794 531 
z
" transform="scale(0.015625)"/>
       <path id="DejaVuSans-35" d="M 691 4666 
L 3169 4666 
L 3169 4134 
L 1269 4134 
L 1269 2991 
Q 1406 3038 1543 3061 
Q 1681 3084 1819 3084 
Q 2600 3084 3056 2656 
Q 3513 2228 3513 1497 
Q 3513 744 3044 326 
Q 2575 -91 1722 -91 
Q 1428 -91 1123 -41 
Q 819 9 494 109 
L 494 744 
Q 775 591 1075 516 
Q 1375 441 1709 441 
Q 2250 441 2565 725 
Q 2881 1009 2881 1497 
Q 2881 1984 2565 2268 
Q 2250 2553 1709 2553 
Q 1456 2553 1204 2497 
Q 953 2441 691 2322 
L 691 4666 
z
" transform="scale(0.015625)"/>
       <path id="DejaVuSans-34" d="M 2419 4116 
L 825 1625 
L 2419 1625 
L 2419 4116 
z
M 2253 4666 
L 3047 4666 
L 3047 1625 
L 3713 1625 
L 3713 1100 
L 3047 1100 
L 3047 0 
L 2419 0 
L 2419 1100 
L 313 1100 
L 313 1709 
L 2253 4666 
z
" transform="scale(0.015625)"/>
      </defs>
      <use xlink:href="#DejaVuSans-4d"/>
      <use xlink:href="#DejaVuSans-45" x="86.279297"/>
      <use xlink:href="#DejaVuSans-53" x="149.462891"/>
      <use xlink:href="#DejaVuSans-48" x="212.939453"/>
      <use xlink:href="#DejaVuSans-3a" x="288.134766"/>
      <use xlink:href="#DejaVuSans-43" x="321.826172"/>
      <use xlink:href="#DejaVuSans-30" x="391.650391"/>
      <use xlink:href="#DejaVuSans-33" x="455.273438"/>
      <use xlink:href="#DejaVuSans-31" x="518.896484"/>
      <use xlink:href="#DejaVuSans-35" x="582.519531"/>
      <use xlink:href="#DejaVuSans-34" x="646.142578"/>
      <use xlink:href="#DejaVuSans-35" x="709.765625"/>
     </g>
    </g>
    <g clip-path="url(#p7bf88d2bc8)">
     <!-- Drug -->
     <g transform="translate(75.272123 196.748625)scale(0.12 -0.12)">
      <defs>
       <path id="DejaVuSans-44" d="M 1259 4147 
L 1259 519 
L 2022 519 
Q 2988 519 3436 956 
Q 3884 1394 3884 2338 
Q 3884 3275 3436 3711 
Q 2988 4147 2022 4147 
L 1259 4147 
z
M 628 4666 
L 1925 4666 
Q 3281 4666 3915 4102 
Q 4550 3538 4550 2338 
Q 4550 1131 3912 565 
Q 3275 0 1925 0 
L 628 0 
L 628 4666 
z
" transform="scale(0.015625)"/>
      </defs>
      <use xlink:href="#DejaVuSans-44"/>
      <use xlink:href="#DejaVuSans-72" x="77.001953"/>
      <use xlink:href="#DejaVuSans-75" x="118.115234"/>
      <use xlink:href="#DejaVuSans-67" x="181.494141"/>
     </g>
    </g>
   </g>
   <g id="text_6">
    <g clip-path="url(#p7bf88d2bc8)">
     <!-- uric acid -->
     <g transform="translate(349.996333 169.873875)scale(0.12 -0.12)">
      <use xlink:href="#DejaVuSans-75"/>
      <use xlink:href="#DejaVuSans-72" x="63.378906"/>
      <use xlink:href="#DejaVuSans-69" x="104.492188"/>
      <use xlink:href="#DejaVuSans-63" x="132.275391"/>
      <use xlink:href="#DejaVuSans-20" x="187.255859"/>
      <use xlink:href="#DejaVuSans-61" x="219.042969"/>
      <use xlink:href="#DejaVuSans-63" x="280.322266"/>
      <use xlink:href="#DejaVuSans-69" x="335.302734"/>
      <use xlink:href="#DejaVuSans-64" x="363.085938"/>
     </g>
    </g>
    <g clip-path="url(#p7bf88d2bc8)">
     <!-- CHEBI:27226 -->
     <g transform="translate(336.101645 183.31125)scale(0.12 -0.12)">
      <defs>
       <path id="DejaVuSans-42" d="M 1259 2228 
L 1259 519 
L 2272 519 
Q 2781 519 3026 730 
Q 3272 941 3272 1375 
Q 3272 1813 3026 2020 
Q 2781 2228 2272 2228 
L 1259 2228 
z
M 1259 4147 
L 1259 2741 
L 2194 2741 
Q 2656 2741 2882 2914 
Q 3109 3088 3109 3444 
Q 3109 3797 2882 3972 
Q 2656 4147 2194 4147 
L 1259 4147 
z
M 628 4666 
L 2241 4666 
Q 2963 4666 3353 4366 
Q 3744 4066 3744 3513 
Q 3744 3084 3544 2831 
Q 3344 2578 2956 2516 
Q 3422 2416 3680 2098 
Q 3938 1781 3938 1306 
Q 3938 681 3513 340 
Q 3088 0 2303 0 
L 628 0 
L 628 4666 
z
" transform="scale(0.015625)"/>
       <path id="DejaVuSans-49" d="M 628 4666 
L 1259 4666 
L 1259 0 
L 628 0 
L 628 4666 
z
" transform="scale(0.015625)"/>
       <path id="DejaVuSans-32" d="M 1228 531 
L 3431 531 
L 3431 0 
L 469 0 
L 469 531 
Q 828 903 1448 1529 
Q 2069 2156 2228 2338 
Q 2531 2678 2651 2914 
Q 2772 3150 2772 3378 
Q 2772 3750 2511 3984 
Q 2250 4219 1831 4219 
Q 1534 4219 1204 4116 
Q 875 4013 500 3803 
L 500 4441 
Q 881 4594 1212 4672 
Q 1544 4750 1819 4750 
Q 2544 4750 2975 4387 
Q 3406 4025 3406 3419 
Q 3406 3131 3298 2873 
Q 3191 2616 2906 2266 
Q 2828 2175 2409 1742 
Q 1991 1309 1228 531 
z
" transform="scale(0.015625)"/>
       <path id="DejaVuSans-37" d="M 525 4666 
L 3525 4666 
L 3525 4397 
L 1831 0 
L 1172 0 
L 2766 4134 
L 525 4134 
L 525 4666 
z
" transform="scale(0.015625)"/>
       <path id="DejaVuSans-36" d="M 2113 2584 
Q 1688 2584 1439 2293 
Q 1191 2003 1191 1497 
Q 1191 994 1439 701 
Q 1688 409 2113 409 
Q 2538 409 2786 701 
Q 3034 994 3034 1497 
Q 3034 2003 2786 2293 
Q 2538 2584 2113 2584 
z
M 3366 4563 
L 3366 3988 
Q 3128 4100 2886 4159 
Q 2644 4219 2406 4219 
Q 1781 4219 1451 3797 
Q 1122 3375 1075 2522 
Q 1259 2794 1537 2939 
Q 1816 3084 2150 3084 
Q 2853 3084 3261 2657 
Q 3669 2231 3669 1497 
Q 3669 778 3244 343 
Q 2819 -91 2113 -91 
Q 1303 -91 875 529 
Q 447 1150 447 2328 
Q 447 3434 972 4092 
Q 1497 4750 2381 4750 
Q 2619 4750 2861 4703 
Q 3103 4656 3366 4563 
z
" transform="scale(0.015625)"/>
      </defs>
      <use xlink:href="#DejaVuSans-43"/>
      <use xlink:href="#DejaVuSans-48" x="69.824219"/>
      <use xlink:href="#DejaVuSans-45" x="145.019531"/>
      <use xlink:href="#DejaVuSans-42" x="208.203125"/>
      <use xlink:href="#DejaVuSans-49" x="276.806641"/>
      <use xlink:href="#DejaVuSans-3a" x="306.298828"/>
      <use xlink:href="#DejaVuSans-32" x="339.990234"/>
      <use xlink:href="#DejaVuSans-37" x="403.613281"/>
      <use xlink:href="#DejaVuSans-32" x="467.236328"/>
      <use xlink:href="#DejaVuSans-32" x="530.859375"/>
      <use xlink:href="#DejaVuSans-36" x="594.482422"/>
     </g>
    </g>
    <g clip-path="url(#p7bf88d2bc8)">
     <!-- ChemicalSubstance -->
     <g transform="translate(316.383208 196.748625)scale(0.12 -0.12)">
      <use xlink:href="#DejaVuSans-43"/>
      <use xlink:href="#DejaVuSans-68" x="69.824219"/>
      <use xlink:href="#DejaVuSans-65" x="133.203125"/>
      <use xlink:href="#DejaVuSans-6d" x="194.726562"/>
      <use xlink:href="#DejaVuSans-69" x="292.138672"/>
      <use xlink:href="#DejaVuSans-63" x="319.921875"/>
      <use xlink:href="#DejaVuSans-61" x="374.902344"/>
      <use xlink:href="#DejaVuSans-6c" x="436.181641"/>
      <use xlink:href="#DejaVuSans-53" x="463.964844"/>
      <use xlink:href="#DejaVuSans-75" x="527.441406"/>
      <use xlink:href="#DejaVuSans-62" x="590.820312"/>
      <use xlink:href="#DejaVuSans-73" x="654.296875"/>
      <use xlink:href="#DejaVuSans-74" x="706.396484"/>
      <use xlink:href="#DejaVuSans-61" x="745.605469"/>
      <use xlink:href="#DejaVuSans-6e" x="806.884766"/>
      <use xlink:href="#DejaVuSans-63" x="870.263672"/>
      <use xlink:href="#DejaVuSans-65" x="925.244141"/>
     </g>
    </g>
   </g>
   <g id="text_7">
    <g clip-path="url(#p7bf88d2bc8)">
     <!-- Gout -->
     <g transform="translate(932.354752 169.873875)scale(0.12 -0.12)">
      <defs>
       <path id="DejaVuSans-47" d="M 3809 666 
L 3809 1919 
L 2778 1919 
L 2778 2438 
L 4434 2438 
L 4434 434 
Q 4069 175 3628 42 
Q 3188 -91 2688 -91 
Q 1594 -91 976 548 
Q 359 1188 359 2328 
Q 359 3472 976 4111 
Q 1594 4750 2688 4750 
Q 3144 4750 3555 4637 
Q 3966 4525 4313 4306 
L 4313 3634 
Q 3963 3931 3569 4081 
Q 3175 4231 2741 4231 
Q 1884 4231 1454 3753 
Q 1025 3275 1025 2328 
Q 1025 1384 1454 906 
Q 1884 428 2741 428 
Q 3075 428 3337 486 
Q 3600 544 3809 666 
z
" transform="scale(0.015625)"/>
      </defs>
      <use xlink:href="#DejaVuSans-47"/>
      <use xlink:href="#DejaVuSans-6f" x="77.490234"/>
      <use xlink:href="#DejaVuSans-75" x="138.671875"/>
      <use xlink:href="#DejaVuSans-74" x="202.050781"/>
     </g>
    </g>
    <g clip-path="url(#p7bf88d2bc8)">
     <!-- MESH:D006073 -->
     <g transform="translate(899.994127 183.31125)scale(0.12 -0.12)">
      <use xlink:href="#DejaVuSans-4d"/>
      <use xlink:href="#DejaVuSans-45" x="86.279297"/>
      <use xlink:href="#DejaVuSans-53" x="149.462891"/>
      <use xlink:href="#DejaVuSans-48" x="212.939453"/>
      <use xlink:href="#DejaVuSans-3a" x="288.134766"/>
      <use xlink:href="#DejaVuSans-44" x="321.826172"/>
      <use xlink:href="#DejaVuSans-30" x="398.828125"/>
      <use xlink:href="#DejaVuSans-30" x="462.451172"/>
      <use xlink:href="#DejaVuSans-36" x="526.074219"/>
      <use xlink:href="#DejaVuSans-30" x="589.697266"/>
      <use xlink:href="#DejaVuSans-37" x="653.320312"/>
      <use xlink:href="#DejaVuSans-33" x="716.943359"/>
     </g>
    </g>
    <g clip-path="url(#p7bf88d2bc8)">
     <!-- Disease -->
     <g transform="translate(923.231002 196.748625)scale(0.12 -0.12)">
      <use xlink:href="#DejaVuSans-44"/>
      <use xlink:href="#DejaVuSans-69" x="77.001953"/>
      <use xlink:href="#DejaVuSans-73" x="104.785156"/>
      <use xlink:href="#DejaVuSans-65" x="156.884766"/>
      <use xlink:href="#DejaVuSans-61" x="218.408203"/>
      <use xlink:href="#DejaVuSans-73" x="279.6875"/>
      <use xlink:href="#DejaVuSans-65" x="331.787109"/>
     </g>
    </g>
   </g>
  </g>
 </g>
 <defs>
  <clipPath id="p7bf88d2bc8">
   <rect x="0" y="0" width="1036.8" height="360"/>
  </clipPath>
 </defs>
</svg>
