<?xml version="1.0" encoding="utf-8" standalone="no"?>
<!DOCTYPE svg PUBLIC "-//W3C//DTD SVG 1.1//EN"
  "http://www.w3.org/Graphics/SVG/1.1/DTD/svg11.dtd">
<svg xmlns:xlink="http://www.w3.org/1999/xlink" width="864pt" height="360pt" viewBox="0 0 864 360" xmlns="http://www.w3.org/2000/svg" version="1.1">
 <metadata>
  <rdf:RDF xmlns:dc="http://purl.org/dc/elements/1.1/" xmlns:cc="http://creativecommons.org/ns#" xmlns:rdf="http://www.w3.org/1999/02/22-rdf-syntax-ns#">
   <cc:Work>
    <dc:type rdf:resource="http://purl.org/dc/dcmitype/StillImage"/>
    <dc:date>2023-02-08T08:51:01.938120</dc:date>
    <dc:format>image/svg+xml</dc:format>
    <dc:creator>
     <cc:Agent>
      <dc:title>Matplotlib v3.5.1, https://matplotlib.org/</dc:title>
     </cc:Agent>
    </dc:creator>
   </cc:Work>
  </rdf:RDF>
 </metadata>
 <defs>
  <style type="text/css">*{stroke-linejoin: round; stroke-linecap: butt}</style>
 </defs>
 <g id="figure_1">
  <g id="patch_1">
   <path d="M 0 360 
L 864 360 
L 864 0 
L 0 0 
z
" style="fill: #ffffff"/>
  </g>
  <g id="axes_1">
   <g id="patch_2">
    <path d="M 127.418126 180 
Q 253.489907 180 376.207585 180 
" clip-path="url(#p72d929a1fe)" style="fill: none; stroke: #2ca02c; stroke-width: 3; stroke-linecap: round"/>
    <path d="M 372.207585 178 
L 376.207585 180 
L 372.207585 182 
L 372.207585 178 
z
" clip-path="url(#p72d929a1fe)" style="fill: #2ca02c; stroke: #2ca02c; stroke-width: 3; stroke-linecap: round"/>
   </g>
   <g id="patch_3">
    <path d="M 484.44292 180 
Q 610.5147 180 733.232378 180 
" clip-path="url(#p72d929a1fe)" style="fill: none; stroke: #2ca02c; stroke-width: 3; stroke-linecap: round"/>
    <path d="M 729.232378 178 
L 733.232378 180 
L 729.232378 182 
L 729.232378 178 
z
" clip-path="url(#p72d929a1fe)" style="fill: #2ca02c; stroke: #2ca02c; stroke-width: 3; stroke-linecap: round"/>
   </g>
   <g id="text_1">
    <g id="patch_4">
     <path d="M 229.526666 193.437969 
L 277.448541 193.437969 
Q 280.448541 193.437969 280.448541 190.437969 
L 280.448541 169.562031 
Q 280.448541 166.562031 277.448541 166.562031 
L 229.526666 166.562031 
Q 226.526666 166.562031 226.526666 169.562031 
L 226.526666 190.437969 
Q 226.526666 193.437969 229.526666 193.437969 
z
" clip-path="url(#p72d929a1fe)" style="fill: #ffffff; stroke: #ffffff; stroke-linejoin: miter"/>
    </g>
    <g clip-path="url(#p72d929a1fe)">
     <!-- positively -->
     <g transform="translate(229.526666 177.160469)scale(0.1 -0.1)">
      <defs>
       <path id="DejaVuSans-70" d="M 1159 525 
L 1159 -1331 
L 581 -1331 
L 581 3500 
L 1159 3500 
L 1159 2969 
Q 1341 3281 1617 3432 
Q 1894 3584 2278 3584 
Q 2916 3584 3314 3078 
Q 3713 2572 3713 1747 
Q 3713 922 3314 415 
Q 2916 -91 2278 -91 
Q 1894 -91 1617 61 
Q 1341 213 1159 525 
z
M 3116 1747 
Q 3116 2381 2855 2742 
Q 2594 3103 2138 3103 
Q 1681 3103 1420 2742 
Q 1159 2381 1159 1747 
Q 1159 1113 1420 752 
Q 1681 391 2138 391 
Q 2594 391 2855 752 
Q 3116 1113 3116 1747 
z
" transform="scale(0.015625)"/>
       <path id="DejaVuSans-6f" d="M 1959 3097 
Q 1497 3097 1228 2736 
Q 959 2375 959 1747 
Q 959 1119 1226 758 
Q 1494 397 1959 397 
Q 2419 397 2687 759 
Q 2956 1122 2956 1747 
Q 2956 2369 2687 2733 
Q 2419 3097 1959 3097 
z
M 1959 3584 
Q 2709 3584 3137 3096 
Q 3566 2609 3566 1747 
Q 3566 888 3137 398 
Q 2709 -91 1959 -91 
Q 1206 -91 779 398 
Q 353 888 353 1747 
Q 353 2609 779 3096 
Q 1206 3584 1959 3584 
z
" transform="scale(0.015625)"/>
       <path id="DejaVuSans-73" d="M 2834 3397 
L 2834 2853 
Q 2591 2978 2328 3040 
Q 2066 3103 1784 3103 
Q 1356 3103 1142 2972 
Q 928 2841 928 2578 
Q 928 2378 1081 2264 
Q 1234 2150 1697 2047 
L 1894 2003 
Q 2506 1872 2764 1633 
Q 3022 1394 3022 966 
Q 3022 478 2636 193 
Q 2250 -91 1575 -91 
Q 1294 -91 989 -36 
Q 684 19 347 128 
L 347 722 
Q 666 556 975 473 
Q 1284 391 1588 391 
Q 1994 391 2212 530 
Q 2431 669 2431 922 
Q 2431 1156 2273 1281 
Q 2116 1406 1581 1522 
L 1381 1569 
Q 847 1681 609 1914 
Q 372 2147 372 2553 
Q 372 3047 722 3315 
Q 1072 3584 1716 3584 
Q 2034 3584 2315 3537 
Q 2597 3491 2834 3397 
z
" transform="scale(0.015625)"/>
       <path id="DejaVuSans-69" d="M 603 3500 
L 1178 3500 
L 1178 0 
L 603 0 
L 603 3500 
z
M 603 4863 
L 1178 4863 
L 1178 4134 
L 603 4134 
L 603 4863 
z
" transform="scale(0.015625)"/>
       <path id="DejaVuSans-74" d="M 1172 4494 
L 1172 3500 
L 2356 3500 
L 2356 3053 
L 1172 3053 
L 1172 1153 
Q 1172 725 1289 603 
Q 1406 481 1766 481 
L 2356 481 
L 2356 0 
L 1766 0 
Q 1100 0 847 248 
Q 594 497 594 1153 
L 594 3053 
L 172 3053 
L 172 3500 
L 594 3500 
L 594 4494 
L 1172 4494 
z
" transform="scale(0.015625)"/>
       <path id="DejaVuSans-76" d="M 191 3500 
L 800 3500 
L 1894 563 
L 2988 3500 
L 3597 3500 
L 2284 0 
L 1503 0 
L 191 3500 
z
" transform="scale(0.015625)"/>
       <path id="DejaVuSans-65" d="M 3597 1894 
L 3597 1613 
L 953 1613 
Q 991 1019 1311 708 
Q 1631 397 2203 397 
Q 2534 397 2845 478 
Q 3156 559 3463 722 
L 3463 178 
Q 3153 47 2828 -22 
Q 2503 -91 2169 -91 
Q 1331 -91 842 396 
Q 353 884 353 1716 
Q 353 2575 817 3079 
Q 1281 3584 2069 3584 
Q 2775 3584 3186 3129 
Q 3597 2675 3597 1894 
z
M 3022 2063 
Q 3016 2534 2758 2815 
Q 2500 3097 2075 3097 
Q 1594 3097 1305 2825 
Q 1016 2553 972 2059 
L 3022 2063 
z
" transform="scale(0.015625)"/>
       <path id="DejaVuSans-6c" d="M 603 4863 
L 1178 4863 
L 1178 0 
L 603 0 
L 603 4863 
z
" transform="scale(0.015625)"/>
       <path id="DejaVuSans-79" d="M 2059 -325 
Q 1816 -950 1584 -1140 
Q 1353 -1331 966 -1331 
L 506 -1331 
L 506 -850 
L 844 -850 
Q 1081 -850 1212 -737 
Q 1344 -625 1503 -206 
L 1606 56 
L 191 3500 
L 800 3500 
L 1894 763 
L 2988 3500 
L 3597 3500 
L 2059 -325 
z
" transform="scale(0.015625)"/>
      </defs>
      <use xlink:href="#DejaVuSans-70"/>
      <use xlink:href="#DejaVuSans-6f" x="63.476562"/>
      <use xlink:href="#DejaVuSans-73" x="124.658203"/>
      <use xlink:href="#DejaVuSans-69" x="176.757812"/>
      <use xlink:href="#DejaVuSans-74" x="204.541016"/>
      <use xlink:href="#DejaVuSans-69" x="243.75"/>
      <use xlink:href="#DejaVuSans-76" x="271.533203"/>
      <use xlink:href="#DejaVuSans-65" x="330.712891"/>
      <use xlink:href="#DejaVuSans-6c" x="392.236328"/>
      <use xlink:href="#DejaVuSans-79" x="420.019531"/>
     </g>
    </g>
    <g clip-path="url(#p72d929a1fe)">
     <!-- regulates -->
     <g transform="translate(230.030572 188.358281)scale(0.1 -0.1)">
      <defs>
       <path id="DejaVuSans-72" d="M 2631 2963 
Q 2534 3019 2420 3045 
Q 2306 3072 2169 3072 
Q 1681 3072 1420 2755 
Q 1159 2438 1159 1844 
L 1159 0 
L 581 0 
L 581 3500 
L 1159 3500 
L 1159 2956 
Q 1341 3275 1631 3429 
Q 1922 3584 2338 3584 
Q 2397 3584 2469 3576 
Q 2541 3569 2628 3553 
L 2631 2963 
z
" transform="scale(0.015625)"/>
       <path id="DejaVuSans-67" d="M 2906 1791 
Q 2906 2416 2648 2759 
Q 2391 3103 1925 3103 
Q 1463 3103 1205 2759 
Q 947 2416 947 1791 
Q 947 1169 1205 825 
Q 1463 481 1925 481 
Q 2391 481 2648 825 
Q 2906 1169 2906 1791 
z
M 3481 434 
Q 3481 -459 3084 -895 
Q 2688 -1331 1869 -1331 
Q 1566 -1331 1297 -1286 
Q 1028 -1241 775 -1147 
L 775 -588 
Q 1028 -725 1275 -790 
Q 1522 -856 1778 -856 
Q 2344 -856 2625 -561 
Q 2906 -266 2906 331 
L 2906 616 
Q 2728 306 2450 153 
Q 2172 0 1784 0 
Q 1141 0 747 490 
Q 353 981 353 1791 
Q 353 2603 747 3093 
Q 1141 3584 1784 3584 
Q 2172 3584 2450 3431 
Q 2728 3278 2906 2969 
L 2906 3500 
L 3481 3500 
L 3481 434 
z
" transform="scale(0.015625)"/>
       <path id="DejaVuSans-75" d="M 544 1381 
L 544 3500 
L 1119 3500 
L 1119 1403 
Q 1119 906 1312 657 
Q 1506 409 1894 409 
Q 2359 409 2629 706 
Q 2900 1003 2900 1516 
L 2900 3500 
L 3475 3500 
L 3475 0 
L 2900 0 
L 2900 538 
Q 2691 219 2414 64 
Q 2138 -91 1772 -91 
Q 1169 -91 856 284 
Q 544 659 544 1381 
z
M 1991 3584 
L 1991 3584 
z
" transform="scale(0.015625)"/>
       <path id="DejaVuSans-61" d="M 2194 1759 
Q 1497 1759 1228 1600 
Q 959 1441 959 1056 
Q 959 750 1161 570 
Q 1363 391 1709 391 
Q 2188 391 2477 730 
Q 2766 1069 2766 1631 
L 2766 1759 
L 2194 1759 
z
M 3341 1997 
L 3341 0 
L 2766 0 
L 2766 531 
Q 2569 213 2275 61 
Q 1981 -91 1556 -91 
Q 1019 -91 701 211 
Q 384 513 384 1019 
Q 384 1609 779 1909 
Q 1175 2209 1959 2209 
L 2766 2209 
L 2766 2266 
Q 2766 2663 2505 2880 
Q 2244 3097 1772 3097 
Q 1472 3097 1187 3025 
Q 903 2953 641 2809 
L 641 3341 
Q 956 3463 1253 3523 
Q 1550 3584 1831 3584 
Q 2591 3584 2966 3190 
Q 3341 2797 3341 1997 
z
" transform="scale(0.015625)"/>
      </defs>
      <use xlink:href="#DejaVuSans-72"/>
      <use xlink:href="#DejaVuSans-65" x="38.863281"/>
      <use xlink:href="#DejaVuSans-67" x="100.386719"/>
      <use xlink:href="#DejaVuSans-75" x="163.863281"/>
      <use xlink:href="#DejaVuSans-6c" x="227.242188"/>
      <use xlink:href="#DejaVuSans-61" x="255.025391"/>
      <use xlink:href="#DejaVuSans-74" x="316.304688"/>
      <use xlink:href="#DejaVuSans-65" x="355.513672"/>
      <use xlink:href="#DejaVuSans-73" x="417.037109"/>
     </g>
    </g>
   </g>
   <g id="text_2">
    <g id="patch_5">
     <path d="M 588.549115 187.839062 
L 632.475678 187.839062 
Q 635.475678 187.839062 635.475678 184.839062 
L 635.475678 175.160937 
Q 635.475678 172.160937 632.475678 172.160937 
L 588.549115 172.160937 
Q 585.549115 172.160937 585.549115 175.160937 
L 585.549115 184.839062 
Q 585.549115 187.839062 588.549115 187.839062 
z
" clip-path="url(#p72d929a1fe)" style="fill: #ffffff; stroke: #ffffff; stroke-linejoin: miter"/>
    </g>
    <g clip-path="url(#p72d929a1fe)">
     <!-- prevents -->
     <g transform="translate(588.549115 182.759375)scale(0.1 -0.1)">
      <defs>
       <path id="DejaVuSans-6e" d="M 3513 2113 
L 3513 0 
L 2938 0 
L 2938 2094 
Q 2938 2591 2744 2837 
Q 2550 3084 2163 3084 
Q 1697 3084 1428 2787 
Q 1159 2491 1159 1978 
L 1159 0 
L 581 0 
L 581 3500 
L 1159 3500 
L 1159 2956 
Q 1366 3272 1645 3428 
Q 1925 3584 2291 3584 
Q 2894 3584 3203 3211 
Q 3513 2838 3513 2113 
z
" transform="scale(0.015625)"/>
      </defs>
      <use xlink:href="#DejaVuSans-70"/>
      <use xlink:href="#DejaVuSans-72" x="63.476562"/>
      <use xlink:href="#DejaVuSans-65" x="102.339844"/>
      <use xlink:href="#DejaVuSans-76" x="163.863281"/>
      <use xlink:href="#DejaVuSans-65" x="223.042969"/>
      <use xlink:href="#DejaVuSans-6e" x="284.566406"/>
      <use xlink:href="#DejaVuSans-74" x="347.945312"/>
      <use xlink:href="#DejaVuSans-73" x="387.154297"/>
     </g>
    </g>
   </g>
   <g id="PathCollection_1">
    <defs>
     <path id="C0_0_a4e628495f" d="M 0 52.440442 
C 13.907368 52.440442 27.246998 46.914987 37.080992 37.080992 
C 46.914987 27.246998 52.440442 13.907368 52.440442 -0 
C 52.440442 -13.907368 46.914987 -27.246998 37.080992 -37.080992 
C 27.246998 -46.914987 13.907368 -52.440442 0 -52.440442 
C -13.907368 -52.440442 -27.246998 -46.914987 -37.080992 -37.080992 
C -46.914987 -27.246998 -52.440442 -13.907368 -52.440442 0 
C -52.440442 13.907368 -46.914987 27.246998 -37.080992 37.080992 
C -27.246998 46.914987 -13.907368 52.440442 0 52.440442 
z
"/>
    </defs>
    <g clip-path="url(#p72d929a1fe)">
     <use xlink:href="#C0_0_a4e628495f" x="74.975207" y="180" style="fill: #01c472; stroke: #01c472"/>
    </g>
    <g clip-path="url(#p72d929a1fe)">
     <use xlink:href="#C0_0_a4e628495f" x="432" y="180" style="fill: #b75970; stroke: #b75970"/>
    </g>
    <g clip-path="url(#p72d929a1fe)">
     <use xlink:href="#C0_0_a4e628495f" x="789.024793" y="180" style="fill: #70c6ca; stroke: #70c6ca"/>
    </g>
   </g>
   <g id="text_3">
    <path d="M 402.240937 159.193312 
L 402.240937 163.155187 
L 401.162812 163.155187 
L 401.162812 159.228937 
Q 401.162812 158.297062 400.799062 157.835812 
Q 400.435312 157.372687 399.709687 157.372687 
Q 398.835937 157.372687 398.331562 157.929562 
Q 397.827187 158.484562 397.827187 159.446437 
L 397.827187 163.155187 
L 396.743437 163.155187 
L 396.743437 156.592687 
L 397.827187 156.592687 
L 397.827187 157.612687 
Q 398.215312 157.020187 398.738437 156.727687 
Q 399.263437 156.435187 399.949687 156.435187 
Q 401.080312 156.435187 401.659687 157.134562 
Q 402.240937 157.833937 402.240937 159.193312 
z
M 410.003906 159.603937 
L 410.003906 160.130812 
L 405.046406 160.130812 
Q 405.117656 161.244562 405.717656 161.827687 
Q 406.317656 162.410812 407.390156 162.410812 
Q 408.010781 162.410812 408.593906 162.258937 
Q 409.177031 162.107062 409.752656 161.801437 
L 409.752656 162.821437 
Q 409.171406 163.067062 408.562031 163.196437 
Q 407.952656 163.325812 407.326406 163.325812 
Q 405.755156 163.325812 404.838281 162.412687 
Q 403.921406 161.497687 403.921406 159.937687 
Q 403.921406 158.327062 404.791406 157.382062 
Q 405.661406 156.435187 407.138906 156.435187 
Q 408.462656 156.435187 409.233281 157.288312 
Q 410.003906 158.139562 410.003906 159.603937 
z
M 408.925781 159.287062 
Q 408.914531 158.403937 408.430781 157.877062 
Q 407.947031 157.348312 407.150156 157.348312 
Q 406.248281 157.348312 405.706406 157.858312 
Q 405.164531 158.368312 405.082031 159.294562 
L 408.925781 159.287062 
z
M 416.496094 156.843937 
L 416.496094 157.852687 
Q 416.038594 157.599562 415.579219 157.473937 
Q 415.119844 157.348312 414.651094 157.348312 
Q 413.601094 157.348312 413.019844 158.013937 
Q 412.440469 158.677687 412.440469 159.879562 
Q 412.440469 161.081437 413.019844 161.747062 
Q 413.601094 162.410812 414.651094 162.410812 
Q 415.119844 162.410812 415.579219 162.285187 
Q 416.038594 162.159562 416.496094 161.906437 
L 416.496094 162.903937 
Q 416.044219 163.113937 415.560469 163.218937 
Q 415.078594 163.325812 414.532969 163.325812 
Q 413.049844 163.325812 412.176094 162.393937 
Q 411.304219 161.462062 411.304219 159.879562 
Q 411.304219 158.274562 412.185469 157.355812 
Q 413.068594 156.435187 414.604219 156.435187 
Q 415.101094 156.435187 415.575469 156.538312 
Q 416.049844 156.639562 416.496094 156.843937 
z
M 422.173125 157.599562 
Q 421.99125 157.494562 421.7775 157.445812 
Q 421.56375 157.395187 421.306875 157.395187 
Q 420.391875 157.395187 419.9025 157.989562 
Q 419.413125 158.583937 419.413125 159.697687 
L 419.413125 163.155187 
L 418.329375 163.155187 
L 418.329375 156.592687 
L 419.413125 156.592687 
L 419.413125 157.612687 
Q 419.754375 157.014562 420.298125 156.725812 
Q 420.84375 156.435187 421.62375 156.435187 
Q 421.734375 156.435187 421.869375 156.450187 
Q 422.004375 156.463312 422.1675 156.493312 
L 422.173125 157.599562 
z
M 425.576719 157.348312 
Q 424.710469 157.348312 424.206094 158.025187 
Q 423.701719 158.702062 423.701719 159.879562 
Q 423.701719 161.057062 424.202344 161.733937 
Q 424.704844 162.410812 425.576719 162.410812 
Q 426.439219 162.410812 426.941719 161.732062 
Q 427.446094 161.051437 427.446094 159.879562 
Q 427.446094 158.713312 426.941719 158.030812 
Q 426.439219 157.348312 425.576719 157.348312 
z
M 425.576719 156.435187 
Q 426.982969 156.435187 427.785469 157.350187 
Q 428.589844 158.263312 428.589844 159.879562 
Q 428.589844 161.490187 427.785469 162.408937 
Q 426.982969 163.325812 425.576719 163.325812 
Q 424.164844 163.325812 423.364219 162.408937 
Q 422.565469 161.490187 422.565469 159.879562 
Q 422.565469 158.263312 423.364219 157.350187 
Q 424.164844 156.435187 425.576719 156.435187 
z
M 431.442891 154.728937 
L 431.442891 156.592687 
L 433.662891 156.592687 
L 433.662891 157.430812 
L 431.442891 157.430812 
L 431.442891 160.993312 
Q 431.442891 161.795812 431.662266 162.024562 
Q 431.881641 162.253312 432.556641 162.253312 
L 433.662891 162.253312 
L 433.662891 163.155187 
L 432.556641 163.155187 
Q 431.307891 163.155187 430.833516 162.690187 
Q 430.359141 162.223312 430.359141 160.993312 
L 430.359141 157.430812 
L 429.567891 157.430812 
L 429.567891 156.592687 
L 430.359141 156.592687 
L 430.359141 154.728937 
L 431.442891 154.728937 
z
M 435.081094 156.592687 
L 436.159219 156.592687 
L 436.159219 163.155187 
L 435.081094 163.155187 
L 435.081094 156.592687 
z
M 435.081094 154.037062 
L 436.159219 154.037062 
L 436.159219 155.403937 
L 435.081094 155.403937 
L 435.081094 154.037062 
z
M 443.138203 156.843937 
L 443.138203 157.852687 
Q 442.680703 157.599562 442.221328 157.473937 
Q 441.761953 157.348312 441.293203 157.348312 
Q 440.243203 157.348312 439.661953 158.013937 
Q 439.082578 158.677687 439.082578 159.879562 
Q 439.082578 161.081437 439.661953 161.747062 
Q 440.243203 162.410812 441.293203 162.410812 
Q 441.761953 162.410812 442.221328 162.285187 
Q 442.680703 162.159562 443.138203 161.906437 
L 443.138203 162.903937 
Q 442.686328 163.113937 442.202578 163.218937 
Q 441.720703 163.325812 441.175078 163.325812 
Q 439.691953 163.325812 438.818203 162.393937 
Q 437.946328 161.462062 437.946328 159.879562 
Q 437.946328 158.274562 438.827578 157.355812 
Q 439.710703 156.435187 441.246328 156.435187 
Q 441.743203 156.435187 442.217578 156.538312 
Q 442.691953 156.639562 443.138203 156.843937 
z
M 453.550312 156.843937 
L 453.550312 157.852687 
Q 453.092812 157.599562 452.633437 157.473937 
Q 452.174062 157.348312 451.705312 157.348312 
Q 450.655312 157.348312 450.074062 158.013937 
Q 449.494687 158.677687 449.494687 159.879562 
Q 449.494687 161.081437 450.074062 161.747062 
Q 450.655312 162.410812 451.705312 162.410812 
Q 452.174062 162.410812 452.633437 162.285187 
Q 453.092812 162.159562 453.550312 161.906437 
L 453.550312 162.903937 
Q 453.098437 163.113937 452.614687 163.218937 
Q 452.132812 163.325812 451.587187 163.325812 
Q 450.104062 163.325812 449.230312 162.393937 
Q 448.358437 161.462062 448.358437 159.879562 
Q 448.358437 158.274562 449.239687 157.355812 
Q 450.122812 156.435187 451.658437 156.435187 
Q 452.155312 156.435187 452.629687 156.538312 
Q 453.104062 156.639562 453.550312 156.843937 
z
M 461.038594 159.603937 
L 461.038594 160.130812 
L 456.081094 160.130812 
Q 456.152344 161.244562 456.752344 161.827687 
Q 457.352344 162.410812 458.424844 162.410812 
Q 459.045469 162.410812 459.628594 162.258937 
Q 460.211719 162.107062 460.787344 161.801437 
L 460.787344 162.821437 
Q 460.206094 163.067062 459.596719 163.196437 
Q 458.987344 163.325812 458.361094 163.325812 
Q 456.789844 163.325812 455.872969 162.412687 
Q 454.956094 161.497687 454.956094 159.937687 
Q 454.956094 158.327062 455.826094 157.382062 
Q 456.696094 156.435187 458.173594 156.435187 
Q 459.497344 156.435187 460.267969 157.288312 
Q 461.038594 158.139562 461.038594 159.603937 
z
M 459.960469 159.287062 
Q 459.949219 158.403937 459.465469 157.877062 
Q 458.981719 157.348312 458.184844 157.348312 
Q 457.282969 157.348312 456.741094 157.858312 
Q 456.199219 158.368312 456.116719 159.294562 
L 459.960469 159.287062 
z
M 462.807656 154.037062 
L 463.885781 154.037062 
L 463.885781 163.155187 
L 462.807656 163.155187 
L 462.807656 154.037062 
z
M 466.141641 154.037062 
L 467.219766 154.037062 
L 467.219766 163.155187 
L 466.141641 163.155187 
L 466.141641 154.037062 
z
" clip-path="url(#p72d929a1fe)" style="fill: #ffffff; stroke: #000000; stroke-width: 2"/>
    <path d="M 402.240937 159.193312 
L 402.240937 163.155187 
L 401.162812 163.155187 
L 401.162812 159.228937 
Q 401.162812 158.297062 400.799062 157.835812 
Q 400.435312 157.372687 399.709687 157.372687 
Q 398.835937 157.372687 398.331562 157.929562 
Q 397.827187 158.484562 397.827187 159.446437 
L 397.827187 163.155187 
L 396.743437 163.155187 
L 396.743437 156.592687 
L 397.827187 156.592687 
L 397.827187 157.612687 
Q 398.215312 157.020187 398.738437 156.727687 
Q 399.263437 156.435187 399.949687 156.435187 
Q 401.080312 156.435187 401.659687 157.134562 
Q 402.240937 157.833937 402.240937 159.193312 
z
M 410.003906 159.603937 
L 410.003906 160.130812 
L 405.046406 160.130812 
Q 405.117656 161.244562 405.717656 161.827687 
Q 406.317656 162.410812 407.390156 162.410812 
Q 408.010781 162.410812 408.593906 162.258937 
Q 409.177031 162.107062 409.752656 161.801437 
L 409.752656 162.821437 
Q 409.171406 163.067062 408.562031 163.196437 
Q 407.952656 163.325812 407.326406 163.325812 
Q 405.755156 163.325812 404.838281 162.412687 
Q 403.921406 161.497687 403.921406 159.937687 
Q 403.921406 158.327062 404.791406 157.382062 
Q 405.661406 156.435187 407.138906 156.435187 
Q 408.462656 156.435187 409.233281 157.288312 
Q 410.003906 158.139562 410.003906 159.603937 
z
M 408.925781 159.287062 
Q 408.914531 158.403937 408.430781 157.877062 
Q 407.947031 157.348312 407.150156 157.348312 
Q 406.248281 157.348312 405.706406 157.858312 
Q 405.164531 158.368312 405.082031 159.294562 
L 408.925781 159.287062 
z
M 416.496094 156.843937 
L 416.496094 157.852687 
Q 416.038594 157.599562 415.579219 157.473937 
Q 415.119844 157.348312 414.651094 157.348312 
Q 413.601094 157.348312 413.019844 158.013937 
Q 412.440469 158.677687 412.440469 159.879562 
Q 412.440469 161.081437 413.019844 161.747062 
Q 413.601094 162.410812 414.651094 162.410812 
Q 415.119844 162.410812 415.579219 162.285187 
Q 416.038594 162.159562 416.496094 161.906437 
L 416.496094 162.903937 
Q 416.044219 163.113937 415.560469 163.218937 
Q 415.078594 163.325812 414.532969 163.325812 
Q 413.049844 163.325812 412.176094 162.393937 
Q 411.304219 161.462062 411.304219 159.879562 
Q 411.304219 158.274562 412.185469 157.355812 
Q 413.068594 156.435187 414.604219 156.435187 
Q 415.101094 156.435187 415.575469 156.538312 
Q 416.049844 156.639562 416.496094 156.843937 
z
M 422.173125 157.599562 
Q 421.99125 157.494562 421.7775 157.445812 
Q 421.56375 157.395187 421.306875 157.395187 
Q 420.391875 157.395187 419.9025 157.989562 
Q 419.413125 158.583937 419.413125 159.697687 
L 419.413125 163.155187 
L 418.329375 163.155187 
L 418.329375 156.592687 
L 419.413125 156.592687 
L 419.413125 157.612687 
Q 419.754375 157.014562 420.298125 156.725812 
Q 420.84375 156.435187 421.62375 156.435187 
Q 421.734375 156.435187 421.869375 156.450187 
Q 422.004375 156.463312 422.1675 156.493312 
L 422.173125 157.599562 
z
M 425.576719 157.348312 
Q 424.710469 157.348312 424.206094 158.025187 
Q 423.701719 158.702062 423.701719 159.879562 
Q 423.701719 161.057062 424.202344 161.733937 
Q 424.704844 162.410812 425.576719 162.410812 
Q 426.439219 162.410812 426.941719 161.732062 
Q 427.446094 161.051437 427.446094 159.879562 
Q 427.446094 158.713312 426.941719 158.030812 
Q 426.439219 157.348312 425.576719 157.348312 
z
M 425.576719 156.435187 
Q 426.982969 156.435187 427.785469 157.350187 
Q 428.589844 158.263312 428.589844 159.879562 
Q 428.589844 161.490187 427.785469 162.408937 
Q 426.982969 163.325812 425.576719 163.325812 
Q 424.164844 163.325812 423.364219 162.408937 
Q 422.565469 161.490187 422.565469 159.879562 
Q 422.565469 158.263312 423.364219 157.350187 
Q 424.164844 156.435187 425.576719 156.435187 
z
M 431.442891 154.728937 
L 431.442891 156.592687 
L 433.662891 156.592687 
L 433.662891 157.430812 
L 431.442891 157.430812 
L 431.442891 160.993312 
Q 431.442891 161.795812 431.662266 162.024562 
Q 431.881641 162.253312 432.556641 162.253312 
L 433.662891 162.253312 
L 433.662891 163.155187 
L 432.556641 163.155187 
Q 431.307891 163.155187 430.833516 162.690187 
Q 430.359141 162.223312 430.359141 160.993312 
L 430.359141 157.430812 
L 429.567891 157.430812 
L 429.567891 156.592687 
L 430.359141 156.592687 
L 430.359141 154.728937 
L 431.442891 154.728937 
z
M 435.081094 156.592687 
L 436.159219 156.592687 
L 436.159219 163.155187 
L 435.081094 163.155187 
L 435.081094 156.592687 
z
M 435.081094 154.037062 
L 436.159219 154.037062 
L 436.159219 155.403937 
L 435.081094 155.403937 
L 435.081094 154.037062 
z
M 443.138203 156.843937 
L 443.138203 157.852687 
Q 442.680703 157.599562 442.221328 157.473937 
Q 441.761953 157.348312 441.293203 157.348312 
Q 440.243203 157.348312 439.661953 158.013937 
Q 439.082578 158.677687 439.082578 159.879562 
Q 439.082578 161.081437 439.661953 161.747062 
Q 440.243203 162.410812 441.293203 162.410812 
Q 441.761953 162.410812 442.221328 162.285187 
Q 442.680703 162.159562 443.138203 161.906437 
L 443.138203 162.903937 
Q 442.686328 163.113937 442.202578 163.218937 
Q 441.720703 163.325812 441.175078 163.325812 
Q 439.691953 163.325812 438.818203 162.393937 
Q 437.946328 161.462062 437.946328 159.879562 
Q 437.946328 158.274562 438.827578 157.355812 
Q 439.710703 156.435187 441.246328 156.435187 
Q 441.743203 156.435187 442.217578 156.538312 
Q 442.691953 156.639562 443.138203 156.843937 
z
M 453.550312 156.843937 
L 453.550312 157.852687 
Q 453.092812 157.599562 452.633437 157.473937 
Q 452.174062 157.348312 451.705312 157.348312 
Q 450.655312 157.348312 450.074062 158.013937 
Q 449.494687 158.677687 449.494687 159.879562 
Q 449.494687 161.081437 450.074062 161.747062 
Q 450.655312 162.410812 451.705312 162.410812 
Q 452.174062 162.410812 452.633437 162.285187 
Q 453.092812 162.159562 453.550312 161.906437 
L 453.550312 162.903937 
Q 453.098437 163.113937 452.614687 163.218937 
Q 452.132812 163.325812 451.587187 163.325812 
Q 450.104062 163.325812 449.230312 162.393937 
Q 448.358437 161.462062 448.358437 159.879562 
Q 448.358437 158.274562 449.239687 157.355812 
Q 450.122812 156.435187 451.658437 156.435187 
Q 452.155312 156.435187 452.629687 156.538312 
Q 453.104062 156.639562 453.550312 156.843937 
z
M 461.038594 159.603937 
L 461.038594 160.130812 
L 456.081094 160.130812 
Q 456.152344 161.244562 456.752344 161.827687 
Q 457.352344 162.410812 458.424844 162.410812 
Q 459.045469 162.410812 459.628594 162.258937 
Q 460.211719 162.107062 460.787344 161.801437 
L 460.787344 162.821437 
Q 460.206094 163.067062 459.596719 163.196437 
Q 458.987344 163.325812 458.361094 163.325812 
Q 456.789844 163.325812 455.872969 162.412687 
Q 454.956094 161.497687 454.956094 159.937687 
Q 454.956094 158.327062 455.826094 157.382062 
Q 456.696094 156.435187 458.173594 156.435187 
Q 459.497344 156.435187 460.267969 157.288312 
Q 461.038594 158.139562 461.038594 159.603937 
z
M 459.960469 159.287062 
Q 459.949219 158.403937 459.465469 157.877062 
Q 458.981719 157.348312 458.184844 157.348312 
Q 457.282969 157.348312 456.741094 157.858312 
Q 456.199219 158.368312 456.116719 159.294562 
L 459.960469 159.287062 
z
M 462.807656 154.037062 
L 463.885781 154.037062 
L 463.885781 163.155187 
L 462.807656 163.155187 
L 462.807656 154.037062 
z
M 466.141641 154.037062 
L 467.219766 154.037062 
L 467.219766 163.155187 
L 466.141641 163.155187 
L 466.141641 154.037062 
z
" clip-path="url(#p72d929a1fe)" style="fill: #ffffff"/>
    <path d="M 420.11625 171.025687 
L 420.11625 167.474437 
L 421.194375 167.474437 
L 421.194375 176.592562 
L 420.11625 176.592562 
L 420.11625 175.608187 
Q 419.776875 176.193187 419.2575 176.478187 
Q 418.74 176.763187 418.0125 176.763187 
Q 416.82375 176.763187 416.075625 175.814437 
Q 415.329375 174.863812 415.329375 173.316937 
Q 415.329375 171.770062 416.075625 170.821312 
Q 416.82375 169.872562 418.0125 169.872562 
Q 418.74 169.872562 419.2575 170.157562 
Q 419.776875 170.440687 420.11625 171.025687 
z
M 416.443125 173.316937 
Q 416.443125 174.505687 416.9325 175.182562 
Q 417.421875 175.859437 418.276875 175.859437 
Q 419.131875 175.859437 419.623125 175.182562 
Q 420.11625 174.505687 420.11625 173.316937 
Q 420.11625 172.128187 419.623125 171.451312 
Q 419.131875 170.774437 418.276875 170.774437 
Q 417.421875 170.774437 416.9325 171.451312 
Q 416.443125 172.128187 416.443125 173.316937 
z
M 429.029062 173.041312 
L 429.029062 173.568187 
L 424.071562 173.568187 
Q 424.142812 174.681937 424.742812 175.265062 
Q 425.342812 175.848187 426.415312 175.848187 
Q 427.035937 175.848187 427.619062 175.696312 
Q 428.202187 175.544437 428.777812 175.238812 
L 428.777812 176.258812 
Q 428.196562 176.504437 427.587187 176.633812 
Q 426.977812 176.763187 426.351562 176.763187 
Q 424.780312 176.763187 423.863437 175.850062 
Q 422.946562 174.935062 422.946562 173.375062 
Q 422.946562 171.764437 423.816562 170.819437 
Q 424.686562 169.872562 426.164062 169.872562 
Q 427.487812 169.872562 428.258437 170.725687 
Q 429.029062 171.576937 429.029062 173.041312 
z
M 427.950937 172.724437 
Q 427.939687 171.841312 427.455937 171.314437 
Q 426.972187 170.785687 426.175312 170.785687 
Q 425.273437 170.785687 424.731562 171.295687 
Q 424.189687 171.805687 424.107187 172.731937 
L 427.950937 172.724437 
z
M 433.78125 173.294437 
Q 432.474375 173.294437 431.97 173.592562 
Q 431.465625 173.890687 431.465625 174.612562 
Q 431.465625 175.186312 431.844375 175.523812 
Q 432.223125 175.859437 432.871875 175.859437 
Q 433.77 175.859437 434.311875 175.223812 
Q 434.85375 174.588187 434.85375 173.534437 
L 434.85375 173.294437 
L 433.78125 173.294437 
z
M 435.931875 172.848187 
L 435.931875 176.592562 
L 434.85375 176.592562 
L 434.85375 175.596937 
Q 434.484375 176.193187 433.933125 176.478187 
Q 433.381875 176.763187 432.585 176.763187 
Q 431.578125 176.763187 430.981875 176.196937 
Q 430.3875 175.630687 430.3875 174.681937 
Q 430.3875 173.575687 431.128125 173.013187 
Q 431.870625 172.450687 433.340625 172.450687 
L 434.85375 172.450687 
L 434.85375 172.343812 
Q 434.85375 171.599437 434.364375 171.192562 
Q 433.875 170.785687 432.99 170.785687 
Q 432.4275 170.785687 431.893125 170.920687 
Q 431.360625 171.055687 430.869375 171.325687 
L 430.869375 170.328187 
Q 431.46 170.099437 432.016875 169.986937 
Q 432.57375 169.872562 433.100625 169.872562 
Q 434.525625 169.872562 435.22875 170.611312 
Q 435.931875 171.348187 435.931875 172.848187 
z
M 439.218516 168.166312 
L 439.218516 170.030062 
L 441.438516 170.030062 
L 441.438516 170.868187 
L 439.218516 170.868187 
L 439.218516 174.430687 
Q 439.218516 175.233187 439.437891 175.461937 
Q 439.657266 175.690687 440.332266 175.690687 
L 441.438516 175.690687 
L 441.438516 176.592562 
L 440.332266 176.592562 
Q 439.083516 176.592562 438.609141 176.127562 
Q 438.134766 175.660687 438.134766 174.430687 
L 438.134766 170.868187 
L 437.343516 170.868187 
L 437.343516 170.030062 
L 438.134766 170.030062 
L 438.134766 168.166312 
L 439.218516 168.166312 
z
M 448.312969 172.630687 
L 448.312969 176.592562 
L 447.234844 176.592562 
L 447.234844 172.666312 
Q 447.234844 171.734437 446.871094 171.273187 
Q 446.507344 170.810062 445.781719 170.810062 
Q 444.907969 170.810062 444.403594 171.366937 
Q 443.899219 171.921937 443.899219 172.883812 
L 443.899219 176.592562 
L 442.815469 176.592562 
L 442.815469 167.474437 
L 443.899219 167.474437 
L 443.899219 171.050062 
Q 444.287344 170.457562 444.810469 170.165062 
Q 445.335469 169.872562 446.021719 169.872562 
Q 447.152344 169.872562 447.731719 170.571937 
Q 448.312969 171.271312 448.312969 172.630687 
z
" clip-path="url(#p72d929a1fe)" style="fill: #ffffff; stroke: #000000; stroke-width: 2"/>
    <path d="M 420.11625 171.025687 
L 420.11625 167.474437 
L 421.194375 167.474437 
L 421.194375 176.592562 
L 420.11625 176.592562 
L 420.11625 175.608187 
Q 419.776875 176.193187 419.2575 176.478187 
Q 418.74 176.763187 418.0125 176.763187 
Q 416.82375 176.763187 416.075625 175.814437 
Q 415.329375 174.863812 415.329375 173.316937 
Q 415.329375 171.770062 416.075625 170.821312 
Q 416.82375 169.872562 418.0125 169.872562 
Q 418.74 169.872562 419.2575 170.157562 
Q 419.776875 170.440687 420.11625 171.025687 
z
M 416.443125 173.316937 
Q 416.443125 174.505687 416.9325 175.182562 
Q 417.421875 175.859437 418.276875 175.859437 
Q 419.131875 175.859437 419.623125 175.182562 
Q 420.11625 174.505687 420.11625 173.316937 
Q 420.11625 172.128187 419.623125 171.451312 
Q 419.131875 170.774437 418.276875 170.774437 
Q 417.421875 170.774437 416.9325 171.451312 
Q 416.443125 172.128187 416.443125 173.316937 
z
M 429.029062 173.041312 
L 429.029062 173.568187 
L 424.071562 173.568187 
Q 424.142812 174.681937 424.742812 175.265062 
Q 425.342812 175.848187 426.415312 175.848187 
Q 427.035937 175.848187 427.619062 175.696312 
Q 428.202187 175.544437 428.777812 175.238812 
L 428.777812 176.258812 
Q 428.196562 176.504437 427.587187 176.633812 
Q 426.977812 176.763187 426.351562 176.763187 
Q 424.780312 176.763187 423.863437 175.850062 
Q 422.946562 174.935062 422.946562 173.375062 
Q 422.946562 171.764437 423.816562 170.819437 
Q 424.686562 169.872562 426.164062 169.872562 
Q 427.487812 169.872562 428.258437 170.725687 
Q 429.029062 171.576937 429.029062 173.041312 
z
M 427.950937 172.724437 
Q 427.939687 171.841312 427.455937 171.314437 
Q 426.972187 170.785687 426.175312 170.785687 
Q 425.273437 170.785687 424.731562 171.295687 
Q 424.189687 171.805687 424.107187 172.731937 
L 427.950937 172.724437 
z
M 433.78125 173.294437 
Q 432.474375 173.294437 431.97 173.592562 
Q 431.465625 173.890687 431.465625 174.612562 
Q 431.465625 175.186312 431.844375 175.523812 
Q 432.223125 175.859437 432.871875 175.859437 
Q 433.77 175.859437 434.311875 175.223812 
Q 434.85375 174.588187 434.85375 173.534437 
L 434.85375 173.294437 
L 433.78125 173.294437 
z
M 435.931875 172.848187 
L 435.931875 176.592562 
L 434.85375 176.592562 
L 434.85375 175.596937 
Q 434.484375 176.193187 433.933125 176.478187 
Q 433.381875 176.763187 432.585 176.763187 
Q 431.578125 176.763187 430.981875 176.196937 
Q 430.3875 175.630687 430.3875 174.681937 
Q 430.3875 173.575687 431.128125 173.013187 
Q 431.870625 172.450687 433.340625 172.450687 
L 434.85375 172.450687 
L 434.85375 172.343812 
Q 434.85375 171.599437 434.364375 171.192562 
Q 433.875 170.785687 432.99 170.785687 
Q 432.4275 170.785687 431.893125 170.920687 
Q 431.360625 171.055687 430.869375 171.325687 
L 430.869375 170.328187 
Q 431.46 170.099437 432.016875 169.986937 
Q 432.57375 169.872562 433.100625 169.872562 
Q 434.525625 169.872562 435.22875 170.611312 
Q 435.931875 171.348187 435.931875 172.848187 
z
M 439.218516 168.166312 
L 439.218516 170.030062 
L 441.438516 170.030062 
L 441.438516 170.868187 
L 439.218516 170.868187 
L 439.218516 174.430687 
Q 439.218516 175.233187 439.437891 175.461937 
Q 439.657266 175.690687 440.332266 175.690687 
L 441.438516 175.690687 
L 441.438516 176.592562 
L 440.332266 176.592562 
Q 439.083516 176.592562 438.609141 176.127562 
Q 438.134766 175.660687 438.134766 174.430687 
L 438.134766 170.868187 
L 437.343516 170.868187 
L 437.343516 170.030062 
L 438.134766 170.030062 
L 438.134766 168.166312 
L 439.218516 168.166312 
z
M 448.312969 172.630687 
L 448.312969 176.592562 
L 447.234844 176.592562 
L 447.234844 172.666312 
Q 447.234844 171.734437 446.871094 171.273187 
Q 446.507344 170.810062 445.781719 170.810062 
Q 444.907969 170.810062 444.403594 171.366937 
Q 443.899219 171.921937 443.899219 172.883812 
L 443.899219 176.592562 
L 442.815469 176.592562 
L 442.815469 167.474437 
L 443.899219 167.474437 
L 443.899219 171.050062 
Q 444.287344 170.457562 444.810469 170.165062 
Q 445.335469 169.872562 446.021719 169.872562 
Q 447.152344 169.872562 447.731719 170.571937 
Q 448.312969 171.271312 448.312969 172.630687 
z
" clip-path="url(#p72d929a1fe)" style="fill: #ffffff"/>
    <path d="M 401.130937 188.781187 
L 401.130937 186.431812 
L 399.197812 186.431812 
L 399.197812 185.458687 
L 402.302812 185.458687 
L 402.302812 189.216187 
Q 401.618437 189.701812 400.791562 189.951187 
Q 399.966562 190.200562 399.029062 190.200562 
Q 396.977812 190.200562 395.819062 189.002437 
Q 394.662187 187.802437 394.662187 185.664937 
Q 394.662187 183.519937 395.819062 182.321812 
Q 396.977812 181.123687 399.029062 181.123687 
Q 399.884062 181.123687 400.654687 181.335562 
Q 401.425312 181.545562 402.075937 181.956187 
L 402.075937 183.216187 
Q 401.419687 182.659312 400.680937 182.378062 
Q 399.942187 182.096812 399.128437 182.096812 
Q 397.521562 182.096812 396.715312 182.993062 
Q 395.910937 183.889312 395.910937 185.664937 
Q 395.910937 187.434937 396.715312 188.331187 
Q 397.521562 189.227437 399.128437 189.227437 
Q 399.754687 189.227437 400.245937 189.118687 
Q 400.739062 189.009937 401.130937 188.781187 
z
M 408.016641 182.083687 
Q 406.726641 182.083687 405.967266 183.045562 
Q 405.209766 184.005562 405.209766 185.664937 
Q 405.209766 187.316812 405.967266 188.278687 
Q 406.726641 189.238687 408.016641 189.238687 
Q 409.304766 189.238687 410.058516 188.278687 
Q 410.812266 187.316812 410.812266 185.664937 
Q 410.812266 184.005562 410.058516 183.045562 
Q 409.304766 182.083687 408.016641 182.083687 
z
M 408.016641 181.123687 
Q 409.856016 181.123687 410.956641 182.357437 
Q 412.059141 183.591187 412.059141 185.664937 
Q 412.059141 187.733062 410.956641 188.966812 
Q 409.856016 190.200562 408.016641 190.200562 
Q 406.171641 190.200562 405.065391 188.970562 
Q 403.961016 187.738687 403.961016 185.664937 
Q 403.961016 183.591187 405.065391 182.357437 
Q 406.171641 181.123687 408.016641 181.123687 
z
M 413.929453 188.541187 
L 415.165078 188.541187 
L 415.165078 190.029937 
L 413.929453 190.029937 
L 413.929453 188.541187 
z
M 413.929453 183.825562 
L 415.165078 183.825562 
L 415.165078 185.312437 
L 413.929453 185.312437 
L 413.929453 183.825562 
z
M 420.379922 182.061187 
Q 419.466797 182.061187 419.005547 182.961187 
Q 418.546172 183.859312 418.546172 185.664937 
Q 418.546172 187.463062 419.005547 188.363062 
Q 419.466797 189.263062 420.379922 189.263062 
Q 421.300547 189.263062 421.759922 188.363062 
Q 422.221172 187.463062 422.221172 185.664937 
Q 422.221172 183.859312 421.759922 182.961187 
Q 421.300547 182.061187 420.379922 182.061187 
z
M 420.379922 181.123687 
Q 421.851797 181.123687 422.628047 182.288062 
Q 423.404297 183.450562 423.404297 185.664937 
Q 423.404297 187.873687 422.628047 189.038062 
Q 421.851797 190.200562 420.379922 190.200562 
Q 418.909922 190.200562 418.133672 189.038062 
Q 417.357422 187.873687 417.357422 185.664937 
Q 417.357422 183.450562 418.133672 182.288062 
Q 418.909922 181.123687 420.379922 181.123687 
z
M 428.014687 182.061187 
Q 427.101562 182.061187 426.640312 182.961187 
Q 426.180937 183.859312 426.180937 185.664937 
Q 426.180937 187.463062 426.640312 188.363062 
Q 427.101562 189.263062 428.014687 189.263062 
Q 428.935312 189.263062 429.394687 188.363062 
Q 429.855937 187.463062 429.855937 185.664937 
Q 429.855937 183.859312 429.394687 182.961187 
Q 428.935312 182.061187 428.014687 182.061187 
z
M 428.014687 181.123687 
Q 429.486562 181.123687 430.262812 182.288062 
Q 431.039062 183.450562 431.039062 185.664937 
Q 431.039062 187.873687 430.262812 189.038062 
Q 429.486562 190.200562 428.014687 190.200562 
Q 426.544687 190.200562 425.768437 189.038062 
Q 424.992187 187.873687 424.992187 185.664937 
Q 424.992187 183.450562 425.768437 182.288062 
Q 426.544687 181.123687 428.014687 181.123687 
z
M 432.820078 181.281187 
L 438.445078 181.281187 
L 438.445078 181.785562 
L 435.268828 190.029937 
L 434.033203 190.029937 
L 437.021953 182.278687 
L 432.820078 182.278687 
L 432.820078 181.281187 
z
M 443.284219 182.061187 
Q 442.371094 182.061187 441.909844 182.961187 
Q 441.450469 183.859312 441.450469 185.664937 
Q 441.450469 187.463062 441.909844 188.363062 
Q 442.371094 189.263062 443.284219 189.263062 
Q 444.204844 189.263062 444.664219 188.363062 
Q 445.125469 187.463062 445.125469 185.664937 
Q 445.125469 183.859312 444.664219 182.961187 
Q 444.204844 182.061187 443.284219 182.061187 
z
M 443.284219 181.123687 
Q 444.756094 181.123687 445.532344 182.288062 
Q 446.308594 183.450562 446.308594 185.664937 
Q 446.308594 187.873687 445.532344 189.038062 
Q 444.756094 190.200562 443.284219 190.200562 
Q 441.814219 190.200562 441.037969 189.038062 
Q 440.261719 187.873687 440.261719 185.664937 
Q 440.261719 183.450562 441.037969 182.288062 
Q 441.814219 181.123687 443.284219 181.123687 
z
M 449.407734 189.034312 
L 453.538359 189.034312 
L 453.538359 190.029937 
L 447.984609 190.029937 
L 447.984609 189.034312 
Q 448.657734 188.336812 449.820234 187.163062 
Q 450.984609 185.987437 451.282734 185.646187 
Q 451.850859 185.008687 452.075859 184.566187 
Q 452.302734 184.123687 452.302734 183.696187 
Q 452.302734 182.998687 451.813359 182.559937 
Q 451.323984 182.119312 450.538359 182.119312 
Q 449.981484 182.119312 449.362734 182.312437 
Q 448.745859 182.505562 448.042734 182.899312 
L 448.042734 181.703062 
Q 448.757109 181.416187 449.377734 181.269937 
Q 450.000234 181.123687 450.515859 181.123687 
Q 451.875234 181.123687 452.683359 181.804312 
Q 453.491484 182.483062 453.491484 183.619312 
Q 453.491484 184.159312 453.288984 184.643062 
Q 453.088359 185.124937 452.553984 185.781187 
Q 452.407734 185.951812 451.622109 186.763687 
Q 450.838359 187.575562 449.407734 189.034312 
z
M 458.701875 185.184937 
Q 457.905 185.184937 457.438125 185.730562 
Q 456.973125 186.274312 456.973125 187.223062 
Q 456.973125 188.166187 457.438125 188.715562 
Q 457.905 189.263062 458.701875 189.263062 
Q 459.49875 189.263062 459.96375 188.715562 
Q 460.42875 188.166187 460.42875 187.223062 
Q 460.42875 186.274312 459.96375 185.730562 
Q 459.49875 185.184937 458.701875 185.184937 
z
M 461.05125 181.474312 
L 461.05125 182.552437 
Q 460.605 182.342437 460.15125 182.231812 
Q 459.6975 182.119312 459.25125 182.119312 
Q 458.079375 182.119312 457.460625 182.910562 
Q 456.84375 183.701812 456.755625 185.301187 
Q 457.100625 184.791187 457.621875 184.519312 
Q 458.145 184.247437 458.77125 184.247437 
Q 460.089375 184.247437 460.854375 185.048062 
Q 461.619375 185.846812 461.619375 187.223062 
Q 461.619375 188.571187 460.8225 189.386812 
Q 460.025625 190.200562 458.701875 190.200562 
Q 457.183125 190.200562 456.380625 189.038062 
Q 455.578125 187.873687 455.578125 185.664937 
Q 455.578125 183.591187 456.5625 182.357437 
Q 457.546875 181.123687 459.204375 181.123687 
Q 459.650625 181.123687 460.104375 181.211812 
Q 460.558125 181.299937 461.05125 181.474312 
z
M 463.670391 181.281187 
L 468.316641 181.281187 
L 468.316641 182.278687 
L 464.754141 182.278687 
L 464.754141 184.421812 
Q 465.011016 184.333687 465.267891 184.290562 
Q 465.526641 184.247437 465.785391 184.247437 
Q 467.249766 184.247437 468.104766 185.049937 
Q 468.961641 185.852437 468.961641 187.223062 
Q 468.961641 188.634937 468.082266 189.418687 
Q 467.202891 190.200562 465.603516 190.200562 
Q 465.052266 190.200562 464.480391 190.106812 
Q 463.910391 190.013062 463.301016 189.825562 
L 463.301016 188.634937 
Q 463.827891 188.921812 464.390391 189.062437 
Q 464.952891 189.203062 465.579141 189.203062 
Q 466.593516 189.203062 467.184141 188.670562 
Q 467.776641 188.138062 467.776641 187.223062 
Q 467.776641 186.309937 467.184141 185.777437 
Q 466.593516 185.243062 465.579141 185.243062 
Q 465.104766 185.243062 464.632266 185.348062 
Q 464.161641 185.453062 463.670391 185.676187 
L 463.670391 181.281187 
z
" clip-path="url(#p72d929a1fe)" style="fill: #ffffff; stroke: #000000; stroke-width: 2"/>
    <path d="M 401.130937 188.781187 
L 401.130937 186.431812 
L 399.197812 186.431812 
L 399.197812 185.458687 
L 402.302812 185.458687 
L 402.302812 189.216187 
Q 401.618437 189.701812 400.791562 189.951187 
Q 399.966562 190.200562 399.029062 190.200562 
Q 396.977812 190.200562 395.819062 189.002437 
Q 394.662187 187.802437 394.662187 185.664937 
Q 394.662187 183.519937 395.819062 182.321812 
Q 396.977812 181.123687 399.029062 181.123687 
Q 399.884062 181.123687 400.654687 181.335562 
Q 401.425312 181.545562 402.075937 181.956187 
L 402.075937 183.216187 
Q 401.419687 182.659312 400.680937 182.378062 
Q 399.942187 182.096812 399.128437 182.096812 
Q 397.521562 182.096812 396.715312 182.993062 
Q 395.910937 183.889312 395.910937 185.664937 
Q 395.910937 187.434937 396.715312 188.331187 
Q 397.521562 189.227437 399.128437 189.227437 
Q 399.754687 189.227437 400.245937 189.118687 
Q 400.739062 189.009937 401.130937 188.781187 
z
M 408.016641 182.083687 
Q 406.726641 182.083687 405.967266 183.045562 
Q 405.209766 184.005562 405.209766 185.664937 
Q 405.209766 187.316812 405.967266 188.278687 
Q 406.726641 189.238687 408.016641 189.238687 
Q 409.304766 189.238687 410.058516 188.278687 
Q 410.812266 187.316812 410.812266 185.664937 
Q 410.812266 184.005562 410.058516 183.045562 
Q 409.304766 182.083687 408.016641 182.083687 
z
M 408.016641 181.123687 
Q 409.856016 181.123687 410.956641 182.357437 
Q 412.059141 183.591187 412.059141 185.664937 
Q 412.059141 187.733062 410.956641 188.966812 
Q 409.856016 190.200562 408.016641 190.200562 
Q 406.171641 190.200562 405.065391 188.970562 
Q 403.961016 187.738687 403.961016 185.664937 
Q 403.961016 183.591187 405.065391 182.357437 
Q 406.171641 181.123687 408.016641 181.123687 
z
M 413.929453 188.541187 
L 415.165078 188.541187 
L 415.165078 190.029937 
L 413.929453 190.029937 
L 413.929453 188.541187 
z
M 413.929453 183.825562 
L 415.165078 183.825562 
L 415.165078 185.312437 
L 413.929453 185.312437 
L 413.929453 183.825562 
z
M 420.379922 182.061187 
Q 419.466797 182.061187 419.005547 182.961187 
Q 418.546172 183.859312 418.546172 185.664937 
Q 418.546172 187.463062 419.005547 188.363062 
Q 419.466797 189.263062 420.379922 189.263062 
Q 421.300547 189.263062 421.759922 188.363062 
Q 422.221172 187.463062 422.221172 185.664937 
Q 422.221172 183.859312 421.759922 182.961187 
Q 421.300547 182.061187 420.379922 182.061187 
z
M 420.379922 181.123687 
Q 421.851797 181.123687 422.628047 182.288062 
Q 423.404297 183.450562 423.404297 185.664937 
Q 423.404297 187.873687 422.628047 189.038062 
Q 421.851797 190.200562 420.379922 190.200562 
Q 418.909922 190.200562 418.133672 189.038062 
Q 417.357422 187.873687 417.357422 185.664937 
Q 417.357422 183.450562 418.133672 182.288062 
Q 418.909922 181.123687 420.379922 181.123687 
z
M 428.014687 182.061187 
Q 427.101562 182.061187 426.640312 182.961187 
Q 426.180937 183.859312 426.180937 185.664937 
Q 426.180937 187.463062 426.640312 188.363062 
Q 427.101562 189.263062 428.014687 189.263062 
Q 428.935312 189.263062 429.394687 188.363062 
Q 429.855937 187.463062 429.855937 185.664937 
Q 429.855937 183.859312 429.394687 182.961187 
Q 428.935312 182.061187 428.014687 182.061187 
z
M 428.014687 181.123687 
Q 429.486562 181.123687 430.262812 182.288062 
Q 431.039062 183.450562 431.039062 185.664937 
Q 431.039062 187.873687 430.262812 189.038062 
Q 429.486562 190.200562 428.014687 190.200562 
Q 426.544687 190.200562 425.768437 189.038062 
Q 424.992187 187.873687 424.992187 185.664937 
Q 424.992187 183.450562 425.768437 182.288062 
Q 426.544687 181.123687 428.014687 181.123687 
z
M 432.820078 181.281187 
L 438.445078 181.281187 
L 438.445078 181.785562 
L 435.268828 190.029937 
L 434.033203 190.029937 
L 437.021953 182.278687 
L 432.820078 182.278687 
L 432.820078 181.281187 
z
M 443.284219 182.061187 
Q 442.371094 182.061187 441.909844 182.961187 
Q 441.450469 183.859312 441.450469 185.664937 
Q 441.450469 187.463062 441.909844 188.363062 
Q 442.371094 189.263062 443.284219 189.263062 
Q 444.204844 189.263062 444.664219 188.363062 
Q 445.125469 187.463062 445.125469 185.664937 
Q 445.125469 183.859312 444.664219 182.961187 
Q 444.204844 182.061187 443.284219 182.061187 
z
M 443.284219 181.123687 
Q 444.756094 181.123687 445.532344 182.288062 
Q 446.308594 183.450562 446.308594 185.664937 
Q 446.308594 187.873687 445.532344 189.038062 
Q 444.756094 190.200562 443.284219 190.200562 
Q 441.814219 190.200562 441.037969 189.038062 
Q 440.261719 187.873687 440.261719 185.664937 
Q 440.261719 183.450562 441.037969 182.288062 
Q 441.814219 181.123687 443.284219 181.123687 
z
M 449.407734 189.034312 
L 453.538359 189.034312 
L 453.538359 190.029937 
L 447.984609 190.029937 
L 447.984609 189.034312 
Q 448.657734 188.336812 449.820234 187.163062 
Q 450.984609 185.987437 451.282734 185.646187 
Q 451.850859 185.008687 452.075859 184.566187 
Q 452.302734 184.123687 452.302734 183.696187 
Q 452.302734 182.998687 451.813359 182.559937 
Q 451.323984 182.119312 450.538359 182.119312 
Q 449.981484 182.119312 449.362734 182.312437 
Q 448.745859 182.505562 448.042734 182.899312 
L 448.042734 181.703062 
Q 448.757109 181.416187 449.377734 181.269937 
Q 450.000234 181.123687 450.515859 181.123687 
Q 451.875234 181.123687 452.683359 181.804312 
Q 453.491484 182.483062 453.491484 183.619312 
Q 453.491484 184.159312 453.288984 184.643062 
Q 453.088359 185.124937 452.553984 185.781187 
Q 452.407734 185.951812 451.622109 186.763687 
Q 450.838359 187.575562 449.407734 189.034312 
z
M 458.701875 185.184937 
Q 457.905 185.184937 457.438125 185.730562 
Q 456.973125 186.274312 456.973125 187.223062 
Q 456.973125 188.166187 457.438125 188.715562 
Q 457.905 189.263062 458.701875 189.263062 
Q 459.49875 189.263062 459.96375 188.715562 
Q 460.42875 188.166187 460.42875 187.223062 
Q 460.42875 186.274312 459.96375 185.730562 
Q 459.49875 185.184937 458.701875 185.184937 
z
M 461.05125 181.474312 
L 461.05125 182.552437 
Q 460.605 182.342437 460.15125 182.231812 
Q 459.6975 182.119312 459.25125 182.119312 
Q 458.079375 182.119312 457.460625 182.910562 
Q 456.84375 183.701812 456.755625 185.301187 
Q 457.100625 184.791187 457.621875 184.519312 
Q 458.145 184.247437 458.77125 184.247437 
Q 460.089375 184.247437 460.854375 185.048062 
Q 461.619375 185.846812 461.619375 187.223062 
Q 461.619375 188.571187 460.8225 189.386812 
Q 460.025625 190.200562 458.701875 190.200562 
Q 457.183125 190.200562 456.380625 189.038062 
Q 455.578125 187.873687 455.578125 185.664937 
Q 455.578125 183.591187 456.5625 182.357437 
Q 457.546875 181.123687 459.204375 181.123687 
Q 459.650625 181.123687 460.104375 181.211812 
Q 460.558125 181.299937 461.05125 181.474312 
z
M 463.670391 181.281187 
L 468.316641 181.281187 
L 468.316641 182.278687 
L 464.754141 182.278687 
L 464.754141 184.421812 
Q 465.011016 184.333687 465.267891 184.290562 
Q 465.526641 184.247437 465.785391 184.247437 
Q 467.249766 184.247437 468.104766 185.049937 
Q 468.961641 185.852437 468.961641 187.223062 
Q 468.961641 188.634937 468.082266 189.418687 
Q 467.202891 190.200562 465.603516 190.200562 
Q 465.052266 190.200562 464.480391 190.106812 
Q 463.910391 190.013062 463.301016 189.825562 
L 463.301016 188.634937 
Q 463.827891 188.921812 464.390391 189.062437 
Q 464.952891 189.203062 465.579141 189.203062 
Q 466.593516 189.203062 467.184141 188.670562 
Q 467.776641 188.138062 467.776641 187.223062 
Q 467.776641 186.309937 467.184141 185.777437 
Q 466.593516 185.243062 465.579141 185.243062 
Q 465.104766 185.243062 464.632266 185.348062 
Q 464.161641 185.453062 463.670391 185.676187 
L 463.670391 181.281187 
z
" clip-path="url(#p72d929a1fe)" style="fill: #ffffff"/>
    <path d="M 382.69125 199.289812 
L 382.69125 202.494187 
L 384.590625 202.494187 
Q 385.545 202.494187 386.004375 202.098562 
Q 386.465625 201.702937 386.465625 200.889187 
Q 386.465625 200.067937 386.004375 199.679812 
Q 385.545 199.289812 384.590625 199.289812 
L 382.69125 199.289812 
z
M 382.69125 195.691687 
L 382.69125 198.327937 
L 384.444375 198.327937 
Q 385.310625 198.327937 385.734375 198.003562 
Q 386.16 197.677312 386.16 197.009812 
Q 386.16 196.347937 385.734375 196.019812 
Q 385.310625 195.691687 384.444375 195.691687 
L 382.69125 195.691687 
z
M 381.508125 194.718562 
L 384.5325 194.718562 
Q 385.88625 194.718562 386.6175 195.281062 
Q 387.350625 195.843562 387.350625 196.880437 
Q 387.350625 197.684812 386.975625 198.159187 
Q 386.600625 198.633562 385.873125 198.749812 
Q 386.746875 198.937312 387.230625 199.533562 
Q 387.714375 200.127937 387.714375 201.018562 
Q 387.714375 202.190437 386.9175 202.829812 
Q 386.120625 203.467312 384.64875 203.467312 
L 381.508125 203.467312 
L 381.508125 194.718562 
z
M 389.693672 196.904812 
L 390.771797 196.904812 
L 390.771797 203.467312 
L 389.693672 203.467312 
L 389.693672 196.904812 
z
M 389.693672 194.349187 
L 390.771797 194.349187 
L 390.771797 195.716062 
L 389.693672 195.716062 
L 389.693672 194.349187 
z
M 395.570156 197.660437 
Q 394.703906 197.660437 394.199531 198.337312 
Q 393.695156 199.014187 393.695156 200.191687 
Q 393.695156 201.369187 394.195781 202.046062 
Q 394.698281 202.722937 395.570156 202.722937 
Q 396.432656 202.722937 396.935156 202.044187 
Q 397.439531 201.363562 397.439531 200.191687 
Q 397.439531 199.025437 396.935156 198.342937 
Q 396.432656 197.660437 395.570156 197.660437 
z
M 395.570156 196.747312 
Q 396.976406 196.747312 397.778906 197.662312 
Q 398.583281 198.575437 398.583281 200.191687 
Q 398.583281 201.802312 397.778906 202.721062 
Q 396.976406 203.637937 395.570156 203.637937 
Q 394.158281 203.637937 393.357656 202.721062 
Q 392.558906 201.802312 392.558906 200.191687 
Q 392.558906 198.575437 393.357656 197.662312 
Q 394.158281 196.747312 395.570156 196.747312 
z
M 400.369453 194.349187 
L 401.447578 194.349187 
L 401.447578 203.467312 
L 400.369453 203.467312 
L 400.369453 194.349187 
z
M 406.245937 197.660437 
Q 405.379687 197.660437 404.875312 198.337312 
Q 404.370937 199.014187 404.370937 200.191687 
Q 404.370937 201.369187 404.871562 202.046062 
Q 405.374062 202.722937 406.245937 202.722937 
Q 407.108437 202.722937 407.610937 202.044187 
Q 408.115312 201.363562 408.115312 200.191687 
Q 408.115312 199.025437 407.610937 198.342937 
Q 407.108437 197.660437 406.245937 197.660437 
z
M 406.245937 196.747312 
Q 407.652187 196.747312 408.454687 197.662312 
Q 409.259062 198.575437 409.259062 200.191687 
Q 409.259062 201.802312 408.454687 202.721062 
Q 407.652187 203.637937 406.245937 203.637937 
Q 404.834062 203.637937 404.033437 202.721062 
Q 403.234687 201.802312 403.234687 200.191687 
Q 403.234687 198.575437 404.033437 197.662312 
Q 404.834062 196.747312 406.245937 196.747312 
z
M 415.363359 200.109187 
Q 415.363359 198.937312 414.879609 198.294187 
Q 414.397734 197.649187 413.523984 197.649187 
Q 412.657734 197.649187 412.173984 198.294187 
Q 411.690234 198.937312 411.690234 200.109187 
Q 411.690234 201.275437 412.173984 201.920437 
Q 412.657734 202.565437 413.523984 202.565437 
Q 414.397734 202.565437 414.879609 201.920437 
Q 415.363359 201.275437 415.363359 200.109187 
z
M 416.441484 202.653562 
Q 416.441484 204.327937 415.697109 205.145437 
Q 414.954609 205.962937 413.418984 205.962937 
Q 412.850859 205.962937 412.346484 205.878562 
Q 411.842109 205.794187 411.367734 205.617937 
L 411.367734 204.569812 
Q 411.842109 204.826687 412.305234 204.948562 
Q 412.768359 205.072312 413.248359 205.072312 
Q 414.309609 205.072312 414.836484 204.519187 
Q 415.363359 203.966062 415.363359 202.846687 
L 415.363359 202.312312 
Q 415.029609 202.893562 414.508359 203.180437 
Q 413.987109 203.467312 413.259609 203.467312 
Q 412.053984 203.467312 411.315234 202.548562 
Q 410.576484 201.627937 410.576484 200.109187 
Q 410.576484 198.586687 411.315234 197.667937 
Q 412.053984 196.747312 413.259609 196.747312 
Q 413.987109 196.747312 414.508359 197.034187 
Q 415.029609 197.321062 415.363359 197.900437 
L 415.363359 196.904812 
L 416.441484 196.904812 
L 416.441484 202.653562 
z
M 418.662422 196.904812 
L 419.740547 196.904812 
L 419.740547 203.467312 
L 418.662422 203.467312 
L 418.662422 196.904812 
z
M 418.662422 194.349187 
L 419.740547 194.349187 
L 419.740547 195.716062 
L 418.662422 195.716062 
L 418.662422 194.349187 
z
M 426.719531 197.156062 
L 426.719531 198.164812 
Q 426.262031 197.911687 425.802656 197.786062 
Q 425.343281 197.660437 424.874531 197.660437 
Q 423.824531 197.660437 423.243281 198.326062 
Q 422.663906 198.989812 422.663906 200.191687 
Q 422.663906 201.393562 423.243281 202.059187 
Q 423.824531 202.722937 424.874531 202.722937 
Q 425.343281 202.722937 425.802656 202.597312 
Q 426.262031 202.471687 426.719531 202.218562 
L 426.719531 203.216062 
Q 426.267656 203.426062 425.783906 203.531062 
Q 425.302031 203.637937 424.756406 203.637937 
Q 423.273281 203.637937 422.399531 202.706062 
Q 421.527656 201.774187 421.527656 200.191687 
Q 421.527656 198.586687 422.408906 197.667937 
Q 423.292031 196.747312 424.827656 196.747312 
Q 425.324531 196.747312 425.798906 196.850437 
Q 426.273281 196.951687 426.719531 197.156062 
z
M 431.577187 200.169187 
Q 430.270312 200.169187 429.765937 200.467312 
Q 429.261562 200.765437 429.261562 201.487312 
Q 429.261562 202.061062 429.640312 202.398562 
Q 430.019062 202.734187 430.667812 202.734187 
Q 431.565937 202.734187 432.107812 202.098562 
Q 432.649687 201.462937 432.649687 200.409187 
L 432.649687 200.169187 
L 431.577187 200.169187 
z
M 433.727812 199.722937 
L 433.727812 203.467312 
L 432.649687 203.467312 
L 432.649687 202.471687 
Q 432.280312 203.067937 431.729062 203.352937 
Q 431.177812 203.637937 430.380937 203.637937 
Q 429.374062 203.637937 428.777812 203.071687 
Q 428.183437 202.505437 428.183437 201.556687 
Q 428.183437 200.450437 428.924062 199.887937 
Q 429.666562 199.325437 431.136562 199.325437 
L 432.649687 199.325437 
L 432.649687 199.218562 
Q 432.649687 198.474187 432.160312 198.067312 
Q 431.670937 197.660437 430.785937 197.660437 
Q 430.223437 197.660437 429.689062 197.795437 
Q 429.156562 197.930437 428.665312 198.200437 
L 428.665312 197.202937 
Q 429.255937 196.974187 429.812812 196.861687 
Q 430.369687 196.747312 430.896562 196.747312 
Q 432.321562 196.747312 433.024687 197.486062 
Q 433.727812 198.222937 433.727812 199.722937 
z
M 435.947578 194.349187 
L 437.025703 194.349187 
L 437.025703 203.467312 
L 435.947578 203.467312 
L 435.947578 194.349187 
z
M 440.511562 195.691687 
L 440.511562 198.978562 
L 442.000312 198.978562 
Q 442.827187 198.978562 443.277187 198.551062 
Q 443.729062 198.123562 443.729062 197.332312 
Q 443.729062 196.546687 443.277187 196.119187 
Q 442.827187 195.691687 442.000312 195.691687 
L 440.511562 195.691687 
z
M 439.328437 194.718562 
L 442.000312 194.718562 
Q 443.472187 194.718562 444.224062 195.384187 
Q 444.977812 196.049812 444.977812 197.332312 
Q 444.977812 198.627937 444.224062 199.289812 
Q 443.472187 199.951687 442.000312 199.951687 
L 440.511562 199.951687 
L 440.511562 203.467312 
L 439.328437 203.467312 
L 439.328437 194.718562 
z
M 450.110391 197.911687 
Q 449.928516 197.806687 449.714766 197.757937 
Q 449.501016 197.707312 449.244141 197.707312 
Q 448.329141 197.707312 447.839766 198.301687 
Q 447.350391 198.896062 447.350391 200.009812 
L 447.350391 203.467312 
L 446.266641 203.467312 
L 446.266641 196.904812 
L 447.350391 196.904812 
L 447.350391 197.924812 
Q 447.691641 197.326687 448.235391 197.037937 
Q 448.781016 196.747312 449.561016 196.747312 
Q 449.671641 196.747312 449.806641 196.762312 
Q 449.941641 196.775437 450.104766 196.805437 
L 450.110391 197.911687 
z
M 453.513984 197.660437 
Q 452.647734 197.660437 452.143359 198.337312 
Q 451.638984 199.014187 451.638984 200.191687 
Q 451.638984 201.369187 452.139609 202.046062 
Q 452.642109 202.722937 453.513984 202.722937 
Q 454.376484 202.722937 454.878984 202.044187 
Q 455.383359 201.363562 455.383359 200.191687 
Q 455.383359 199.025437 454.878984 198.342937 
Q 454.376484 197.660437 453.513984 197.660437 
z
M 453.513984 196.747312 
Q 454.920234 196.747312 455.722734 197.662312 
Q 456.527109 198.575437 456.527109 200.191687 
Q 456.527109 201.802312 455.722734 202.721062 
Q 454.920234 203.637937 453.513984 203.637937 
Q 452.102109 203.637937 451.301484 202.721062 
Q 450.502734 201.802312 450.502734 200.191687 
Q 450.502734 198.575437 451.301484 197.662312 
Q 452.102109 196.747312 453.513984 196.747312 
z
M 463.036406 197.156062 
L 463.036406 198.164812 
Q 462.578906 197.911687 462.119531 197.786062 
Q 461.660156 197.660437 461.191406 197.660437 
Q 460.141406 197.660437 459.560156 198.326062 
Q 458.980781 198.989812 458.980781 200.191687 
Q 458.980781 201.393562 459.560156 202.059187 
Q 460.141406 202.722937 461.191406 202.722937 
Q 461.660156 202.722937 462.119531 202.597312 
Q 462.578906 202.471687 463.036406 202.218562 
L 463.036406 203.216062 
Q 462.584531 203.426062 462.100781 203.531062 
Q 461.618906 203.637937 461.073281 203.637937 
Q 459.590156 203.637937 458.716406 202.706062 
Q 457.844531 201.774187 457.844531 200.191687 
Q 457.844531 198.586687 458.725781 197.667937 
Q 459.608906 196.747312 461.144531 196.747312 
Q 461.641406 196.747312 462.115781 196.850437 
Q 462.590156 196.951687 463.036406 197.156062 
z
M 470.524687 199.916062 
L 470.524687 200.442937 
L 465.567187 200.442937 
Q 465.638437 201.556687 466.238437 202.139812 
Q 466.838437 202.722937 467.910937 202.722937 
Q 468.531562 202.722937 469.114687 202.571062 
Q 469.697812 202.419187 470.273437 202.113562 
L 470.273437 203.133562 
Q 469.692187 203.379187 469.082812 203.508562 
Q 468.473437 203.637937 467.847187 203.637937 
Q 466.275937 203.637937 465.359062 202.724812 
Q 464.442187 201.809812 464.442187 200.249812 
Q 464.442187 198.639187 465.312187 197.694187 
Q 466.182187 196.747312 467.659687 196.747312 
Q 468.983437 196.747312 469.754062 197.600437 
Q 470.524687 198.451687 470.524687 199.916062 
z
M 469.446562 199.599187 
Q 469.435312 198.716062 468.951562 198.189187 
Q 468.467812 197.660437 467.670937 197.660437 
Q 466.769062 197.660437 466.227187 198.170437 
Q 465.685312 198.680437 465.602812 199.606687 
L 469.446562 199.599187 
z
M 476.476875 197.097937 
L 476.476875 198.117937 
Q 476.02125 197.883562 475.528125 197.767312 
Q 475.036875 197.649187 474.508125 197.649187 
Q 473.705625 197.649187 473.304375 197.894812 
Q 472.903125 198.140437 472.903125 198.633562 
Q 472.903125 199.008562 473.19 199.222312 
Q 473.476875 199.436062 474.345 199.629187 
L 474.714375 199.711687 
Q 475.861875 199.957312 476.345625 200.405437 
Q 476.829375 200.853562 476.829375 201.656062 
Q 476.829375 202.571062 476.105625 203.105437 
Q 475.381875 203.637937 474.11625 203.637937 
Q 473.589375 203.637937 473.0175 203.534812 
Q 472.445625 203.431687 471.81375 203.227312 
L 471.81375 202.113562 
Q 472.411875 202.424812 472.99125 202.580437 
Q 473.570625 202.734187 474.140625 202.734187 
Q 474.901875 202.734187 475.310625 202.473562 
Q 475.72125 202.212937 475.72125 201.738562 
Q 475.72125 201.299812 475.425 201.065437 
Q 475.130625 200.831062 474.1275 200.613562 
L 473.7525 200.525437 
Q 472.75125 200.315437 472.305 199.878562 
Q 471.860625 199.441687 471.860625 198.680437 
Q 471.860625 197.754187 472.516875 197.251687 
Q 473.173125 196.747312 474.380625 196.747312 
Q 474.976875 196.747312 475.50375 196.835437 
Q 476.0325 196.921687 476.476875 197.097937 
z
M 482.728828 197.097937 
L 482.728828 198.117937 
Q 482.273203 197.883562 481.780078 197.767312 
Q 481.288828 197.649187 480.760078 197.649187 
Q 479.957578 197.649187 479.556328 197.894812 
Q 479.155078 198.140437 479.155078 198.633562 
Q 479.155078 199.008562 479.441953 199.222312 
Q 479.728828 199.436062 480.596953 199.629187 
L 480.966328 199.711687 
Q 482.113828 199.957312 482.597578 200.405437 
Q 483.081328 200.853562 483.081328 201.656062 
Q 483.081328 202.571062 482.357578 203.105437 
Q 481.633828 203.637937 480.368203 203.637937 
Q 479.841328 203.637937 479.269453 203.534812 
Q 478.697578 203.431687 478.065703 203.227312 
L 478.065703 202.113562 
Q 478.663828 202.424812 479.243203 202.580437 
Q 479.822578 202.734187 480.392578 202.734187 
Q 481.153828 202.734187 481.562578 202.473562 
Q 481.973203 202.212937 481.973203 201.738562 
Q 481.973203 201.299812 481.676953 201.065437 
Q 481.382578 200.831062 480.379453 200.613562 
L 480.004453 200.525437 
Q 479.003203 200.315437 478.556953 199.878562 
Q 478.112578 199.441687 478.112578 198.680437 
Q 478.112578 197.754187 478.768828 197.251687 
Q 479.425078 196.747312 480.632578 196.747312 
Q 481.228828 196.747312 481.755703 196.835437 
Q 482.284453 196.921687 482.728828 197.097937 
z
" clip-path="url(#p72d929a1fe)" style="fill: #ffffff; stroke: #000000; stroke-width: 2"/>
    <path d="M 382.69125 199.289812 
L 382.69125 202.494187 
L 384.590625 202.494187 
Q 385.545 202.494187 386.004375 202.098562 
Q 386.465625 201.702937 386.465625 200.889187 
Q 386.465625 200.067937 386.004375 199.679812 
Q 385.545 199.289812 384.590625 199.289812 
L 382.69125 199.289812 
z
M 382.69125 195.691687 
L 382.69125 198.327937 
L 384.444375 198.327937 
Q 385.310625 198.327937 385.734375 198.003562 
Q 386.16 197.677312 386.16 197.009812 
Q 386.16 196.347937 385.734375 196.019812 
Q 385.310625 195.691687 384.444375 195.691687 
L 382.69125 195.691687 
z
M 381.508125 194.718562 
L 384.5325 194.718562 
Q 385.88625 194.718562 386.6175 195.281062 
Q 387.350625 195.843562 387.350625 196.880437 
Q 387.350625 197.684812 386.975625 198.159187 
Q 386.600625 198.633562 385.873125 198.749812 
Q 386.746875 198.937312 387.230625 199.533562 
Q 387.714375 200.127937 387.714375 201.018562 
Q 387.714375 202.190437 386.9175 202.829812 
Q 386.120625 203.467312 384.64875 203.467312 
L 381.508125 203.467312 
L 381.508125 194.718562 
z
M 389.693672 196.904812 
L 390.771797 196.904812 
L 390.771797 203.467312 
L 389.693672 203.467312 
L 389.693672 196.904812 
z
M 389.693672 194.349187 
L 390.771797 194.349187 
L 390.771797 195.716062 
L 389.693672 195.716062 
L 389.693672 194.349187 
z
M 395.570156 197.660437 
Q 394.703906 197.660437 394.199531 198.337312 
Q 393.695156 199.014187 393.695156 200.191687 
Q 393.695156 201.369187 394.195781 202.046062 
Q 394.698281 202.722937 395.570156 202.722937 
Q 396.432656 202.722937 396.935156 202.044187 
Q 397.439531 201.363562 397.439531 200.191687 
Q 397.439531 199.025437 396.935156 198.342937 
Q 396.432656 197.660437 395.570156 197.660437 
z
M 395.570156 196.747312 
Q 396.976406 196.747312 397.778906 197.662312 
Q 398.583281 198.575437 398.583281 200.191687 
Q 398.583281 201.802312 397.778906 202.721062 
Q 396.976406 203.637937 395.570156 203.637937 
Q 394.158281 203.637937 393.357656 202.721062 
Q 392.558906 201.802312 392.558906 200.191687 
Q 392.558906 198.575437 393.357656 197.662312 
Q 394.158281 196.747312 395.570156 196.747312 
z
M 400.369453 194.349187 
L 401.447578 194.349187 
L 401.447578 203.467312 
L 400.369453 203.467312 
L 400.369453 194.349187 
z
M 406.245937 197.660437 
Q 405.379687 197.660437 404.875312 198.337312 
Q 404.370937 199.014187 404.370937 200.191687 
Q 404.370937 201.369187 404.871562 202.046062 
Q 405.374062 202.722937 406.245937 202.722937 
Q 407.108437 202.722937 407.610937 202.044187 
Q 408.115312 201.363562 408.115312 200.191687 
Q 408.115312 199.025437 407.610937 198.342937 
Q 407.108437 197.660437 406.245937 197.660437 
z
M 406.245937 196.747312 
Q 407.652187 196.747312 408.454687 197.662312 
Q 409.259062 198.575437 409.259062 200.191687 
Q 409.259062 201.802312 408.454687 202.721062 
Q 407.652187 203.637937 406.245937 203.637937 
Q 404.834062 203.637937 404.033437 202.721062 
Q 403.234687 201.802312 403.234687 200.191687 
Q 403.234687 198.575437 404.033437 197.662312 
Q 404.834062 196.747312 406.245937 196.747312 
z
M 415.363359 200.109187 
Q 415.363359 198.937312 414.879609 198.294187 
Q 414.397734 197.649187 413.523984 197.649187 
Q 412.657734 197.649187 412.173984 198.294187 
Q 411.690234 198.937312 411.690234 200.109187 
Q 411.690234 201.275437 412.173984 201.920437 
Q 412.657734 202.565437 413.523984 202.565437 
Q 414.397734 202.565437 414.879609 201.920437 
Q 415.363359 201.275437 415.363359 200.109187 
z
M 416.441484 202.653562 
Q 416.441484 204.327937 415.697109 205.145437 
Q 414.954609 205.962937 413.418984 205.962937 
Q 412.850859 205.962937 412.346484 205.878562 
Q 411.842109 205.794187 411.367734 205.617937 
L 411.367734 204.569812 
Q 411.842109 204.826687 412.305234 204.948562 
Q 412.768359 205.072312 413.248359 205.072312 
Q 414.309609 205.072312 414.836484 204.519187 
Q 415.363359 203.966062 415.363359 202.846687 
L 415.363359 202.312312 
Q 415.029609 202.893562 414.508359 203.180437 
Q 413.987109 203.467312 413.259609 203.467312 
Q 412.053984 203.467312 411.315234 202.548562 
Q 410.576484 201.627937 410.576484 200.109187 
Q 410.576484 198.586687 411.315234 197.667937 
Q 412.053984 196.747312 413.259609 196.747312 
Q 413.987109 196.747312 414.508359 197.034187 
Q 415.029609 197.321062 415.363359 197.900437 
L 415.363359 196.904812 
L 416.441484 196.904812 
L 416.441484 202.653562 
z
M 418.662422 196.904812 
L 419.740547 196.904812 
L 419.740547 203.467312 
L 418.662422 203.467312 
L 418.662422 196.904812 
z
M 418.662422 194.349187 
L 419.740547 194.349187 
L 419.740547 195.716062 
L 418.662422 195.716062 
L 418.662422 194.349187 
z
M 426.719531 197.156062 
L 426.719531 198.164812 
Q 426.262031 197.911687 425.802656 197.786062 
Q 425.343281 197.660437 424.874531 197.660437 
Q 423.824531 197.660437 423.243281 198.326062 
Q 422.663906 198.989812 422.663906 200.191687 
Q 422.663906 201.393562 423.243281 202.059187 
Q 423.824531 202.722937 424.874531 202.722937 
Q 425.343281 202.722937 425.802656 202.597312 
Q 426.262031 202.471687 426.719531 202.218562 
L 426.719531 203.216062 
Q 426.267656 203.426062 425.783906 203.531062 
Q 425.302031 203.637937 424.756406 203.637937 
Q 423.273281 203.637937 422.399531 202.706062 
Q 421.527656 201.774187 421.527656 200.191687 
Q 421.527656 198.586687 422.408906 197.667937 
Q 423.292031 196.747312 424.827656 196.747312 
Q 425.324531 196.747312 425.798906 196.850437 
Q 426.273281 196.951687 426.719531 197.156062 
z
M 431.577187 200.169187 
Q 430.270312 200.169187 429.765937 200.467312 
Q 429.261562 200.765437 429.261562 201.487312 
Q 429.261562 202.061062 429.640312 202.398562 
Q 430.019062 202.734187 430.667812 202.734187 
Q 431.565937 202.734187 432.107812 202.098562 
Q 432.649687 201.462937 432.649687 200.409187 
L 432.649687 200.169187 
L 431.577187 200.169187 
z
M 433.727812 199.722937 
L 433.727812 203.467312 
L 432.649687 203.467312 
L 432.649687 202.471687 
Q 432.280312 203.067937 431.729062 203.352937 
Q 431.177812 203.637937 430.380937 203.637937 
Q 429.374062 203.637937 428.777812 203.071687 
Q 428.183437 202.505437 428.183437 201.556687 
Q 428.183437 200.450437 428.924062 199.887937 
Q 429.666562 199.325437 431.136562 199.325437 
L 432.649687 199.325437 
L 432.649687 199.218562 
Q 432.649687 198.474187 432.160312 198.067312 
Q 431.670937 197.660437 430.785937 197.660437 
Q 430.223437 197.660437 429.689062 197.795437 
Q 429.156562 197.930437 428.665312 198.200437 
L 428.665312 197.202937 
Q 429.255937 196.974187 429.812812 196.861687 
Q 430.369687 196.747312 430.896562 196.747312 
Q 432.321562 196.747312 433.024687 197.486062 
Q 433.727812 198.222937 433.727812 199.722937 
z
M 435.947578 194.349187 
L 437.025703 194.349187 
L 437.025703 203.467312 
L 435.947578 203.467312 
L 435.947578 194.349187 
z
M 440.511562 195.691687 
L 440.511562 198.978562 
L 442.000312 198.978562 
Q 442.827187 198.978562 443.277187 198.551062 
Q 443.729062 198.123562 443.729062 197.332312 
Q 443.729062 196.546687 443.277187 196.119187 
Q 442.827187 195.691687 442.000312 195.691687 
L 440.511562 195.691687 
z
M 439.328437 194.718562 
L 442.000312 194.718562 
Q 443.472187 194.718562 444.224062 195.384187 
Q 444.977812 196.049812 444.977812 197.332312 
Q 444.977812 198.627937 444.224062 199.289812 
Q 443.472187 199.951687 442.000312 199.951687 
L 440.511562 199.951687 
L 440.511562 203.467312 
L 439.328437 203.467312 
L 439.328437 194.718562 
z
M 450.110391 197.911687 
Q 449.928516 197.806687 449.714766 197.757937 
Q 449.501016 197.707312 449.244141 197.707312 
Q 448.329141 197.707312 447.839766 198.301687 
Q 447.350391 198.896062 447.350391 200.009812 
L 447.350391 203.467312 
L 446.266641 203.467312 
L 446.266641 196.904812 
L 447.350391 196.904812 
L 447.350391 197.924812 
Q 447.691641 197.326687 448.235391 197.037937 
Q 448.781016 196.747312 449.561016 196.747312 
Q 449.671641 196.747312 449.806641 196.762312 
Q 449.941641 196.775437 450.104766 196.805437 
L 450.110391 197.911687 
z
M 453.513984 197.660437 
Q 452.647734 197.660437 452.143359 198.337312 
Q 451.638984 199.014187 451.638984 200.191687 
Q 451.638984 201.369187 452.139609 202.046062 
Q 452.642109 202.722937 453.513984 202.722937 
Q 454.376484 202.722937 454.878984 202.044187 
Q 455.383359 201.363562 455.383359 200.191687 
Q 455.383359 199.025437 454.878984 198.342937 
Q 454.376484 197.660437 453.513984 197.660437 
z
M 453.513984 196.747312 
Q 454.920234 196.747312 455.722734 197.662312 
Q 456.527109 198.575437 456.527109 200.191687 
Q 456.527109 201.802312 455.722734 202.721062 
Q 454.920234 203.637937 453.513984 203.637937 
Q 452.102109 203.637937 451.301484 202.721062 
Q 450.502734 201.802312 450.502734 200.191687 
Q 450.502734 198.575437 451.301484 197.662312 
Q 452.102109 196.747312 453.513984 196.747312 
z
M 463.036406 197.156062 
L 463.036406 198.164812 
Q 462.578906 197.911687 462.119531 197.786062 
Q 461.660156 197.660437 461.191406 197.660437 
Q 460.141406 197.660437 459.560156 198.326062 
Q 458.980781 198.989812 458.980781 200.191687 
Q 458.980781 201.393562 459.560156 202.059187 
Q 460.141406 202.722937 461.191406 202.722937 
Q 461.660156 202.722937 462.119531 202.597312 
Q 462.578906 202.471687 463.036406 202.218562 
L 463.036406 203.216062 
Q 462.584531 203.426062 462.100781 203.531062 
Q 461.618906 203.637937 461.073281 203.637937 
Q 459.590156 203.637937 458.716406 202.706062 
Q 457.844531 201.774187 457.844531 200.191687 
Q 457.844531 198.586687 458.725781 197.667937 
Q 459.608906 196.747312 461.144531 196.747312 
Q 461.641406 196.747312 462.115781 196.850437 
Q 462.590156 196.951687 463.036406 197.156062 
z
M 470.524687 199.916062 
L 470.524687 200.442937 
L 465.567187 200.442937 
Q 465.638437 201.556687 466.238437 202.139812 
Q 466.838437 202.722937 467.910937 202.722937 
Q 468.531562 202.722937 469.114687 202.571062 
Q 469.697812 202.419187 470.273437 202.113562 
L 470.273437 203.133562 
Q 469.692187 203.379187 469.082812 203.508562 
Q 468.473437 203.637937 467.847187 203.637937 
Q 466.275937 203.637937 465.359062 202.724812 
Q 464.442187 201.809812 464.442187 200.249812 
Q 464.442187 198.639187 465.312187 197.694187 
Q 466.182187 196.747312 467.659687 196.747312 
Q 468.983437 196.747312 469.754062 197.600437 
Q 470.524687 198.451687 470.524687 199.916062 
z
M 469.446562 199.599187 
Q 469.435312 198.716062 468.951562 198.189187 
Q 468.467812 197.660437 467.670937 197.660437 
Q 466.769062 197.660437 466.227187 198.170437 
Q 465.685312 198.680437 465.602812 199.606687 
L 469.446562 199.599187 
z
M 476.476875 197.097937 
L 476.476875 198.117937 
Q 476.02125 197.883562 475.528125 197.767312 
Q 475.036875 197.649187 474.508125 197.649187 
Q 473.705625 197.649187 473.304375 197.894812 
Q 472.903125 198.140437 472.903125 198.633562 
Q 472.903125 199.008562 473.19 199.222312 
Q 473.476875 199.436062 474.345 199.629187 
L 474.714375 199.711687 
Q 475.861875 199.957312 476.345625 200.405437 
Q 476.829375 200.853562 476.829375 201.656062 
Q 476.829375 202.571062 476.105625 203.105437 
Q 475.381875 203.637937 474.11625 203.637937 
Q 473.589375 203.637937 473.0175 203.534812 
Q 472.445625 203.431687 471.81375 203.227312 
L 471.81375 202.113562 
Q 472.411875 202.424812 472.99125 202.580437 
Q 473.570625 202.734187 474.140625 202.734187 
Q 474.901875 202.734187 475.310625 202.473562 
Q 475.72125 202.212937 475.72125 201.738562 
Q 475.72125 201.299812 475.425 201.065437 
Q 475.130625 200.831062 474.1275 200.613562 
L 473.7525 200.525437 
Q 472.75125 200.315437 472.305 199.878562 
Q 471.860625 199.441687 471.860625 198.680437 
Q 471.860625 197.754187 472.516875 197.251687 
Q 473.173125 196.747312 474.380625 196.747312 
Q 474.976875 196.747312 475.50375 196.835437 
Q 476.0325 196.921687 476.476875 197.097937 
z
M 482.728828 197.097937 
L 482.728828 198.117937 
Q 482.273203 197.883562 481.780078 197.767312 
Q 481.288828 197.649187 480.760078 197.649187 
Q 479.957578 197.649187 479.556328 197.894812 
Q 479.155078 198.140437 479.155078 198.633562 
Q 479.155078 199.008562 479.441953 199.222312 
Q 479.728828 199.436062 480.596953 199.629187 
L 480.966328 199.711687 
Q 482.113828 199.957312 482.597578 200.405437 
Q 483.081328 200.853562 483.081328 201.656062 
Q 483.081328 202.571062 482.357578 203.105437 
Q 481.633828 203.637937 480.368203 203.637937 
Q 479.841328 203.637937 479.269453 203.534812 
Q 478.697578 203.431687 478.065703 203.227312 
L 478.065703 202.113562 
Q 478.663828 202.424812 479.243203 202.580437 
Q 479.822578 202.734187 480.392578 202.734187 
Q 481.153828 202.734187 481.562578 202.473562 
Q 481.973203 202.212937 481.973203 201.738562 
Q 481.973203 201.299812 481.676953 201.065437 
Q 481.382578 200.831062 480.379453 200.613562 
L 480.004453 200.525437 
Q 479.003203 200.315437 478.556953 199.878562 
Q 478.112578 199.441687 478.112578 198.680437 
Q 478.112578 197.754187 478.768828 197.251687 
Q 479.425078 196.747312 480.632578 196.747312 
Q 481.228828 196.747312 481.755703 196.835437 
Q 482.284453 196.921687 482.728828 197.097937 
z
" clip-path="url(#p72d929a1fe)" style="fill: #ffffff"/>
   </g>
   <g id="text_4">
    <g clip-path="url(#p72d929a1fe)">
     <!-- trichloroacetic -->
     <g transform="translate(32.061144 163.155187)scale(0.12 -0.12)">
      <defs>
       <path id="DejaVuSans-63" d="M 3122 3366 
L 3122 2828 
Q 2878 2963 2633 3030 
Q 2388 3097 2138 3097 
Q 1578 3097 1268 2742 
Q 959 2388 959 1747 
Q 959 1106 1268 751 
Q 1578 397 2138 397 
Q 2388 397 2633 464 
Q 2878 531 3122 666 
L 3122 134 
Q 2881 22 2623 -34 
Q 2366 -91 2075 -91 
Q 1284 -91 818 406 
Q 353 903 353 1747 
Q 353 2603 823 3093 
Q 1294 3584 2113 3584 
Q 2378 3584 2631 3529 
Q 2884 3475 3122 3366 
z
" transform="scale(0.015625)"/>
       <path id="DejaVuSans-68" d="M 3513 2113 
L 3513 0 
L 2938 0 
L 2938 2094 
Q 2938 2591 2744 2837 
Q 2550 3084 2163 3084 
Q 1697 3084 1428 2787 
Q 1159 2491 1159 1978 
L 1159 0 
L 581 0 
L 581 4863 
L 1159 4863 
L 1159 2956 
Q 1366 3272 1645 3428 
Q 1925 3584 2291 3584 
Q 2894 3584 3203 3211 
Q 3513 2838 3513 2113 
z
" transform="scale(0.015625)"/>
      </defs>
      <use xlink:href="#DejaVuSans-74"/>
      <use xlink:href="#DejaVuSans-72" x="39.208984"/>
      <use xlink:href="#DejaVuSans-69" x="80.322266"/>
      <use xlink:href="#DejaVuSans-63" x="108.105469"/>
      <use xlink:href="#DejaVuSans-68" x="163.085938"/>
      <use xlink:href="#DejaVuSans-6c" x="226.464844"/>
      <use xlink:href="#DejaVuSans-6f" x="254.248047"/>
      <use xlink:href="#DejaVuSans-72" x="315.429688"/>
      <use xlink:href="#DejaVuSans-6f" x="354.292969"/>
      <use xlink:href="#DejaVuSans-61" x="415.474609"/>
      <use xlink:href="#DejaVuSans-63" x="476.753906"/>
      <use xlink:href="#DejaVuSans-65" x="531.734375"/>
      <use xlink:href="#DejaVuSans-74" x="593.257812"/>
      <use xlink:href="#DejaVuSans-69" x="632.466797"/>
      <use xlink:href="#DejaVuSans-63" x="660.25"/>
     </g>
    </g>
    <g clip-path="url(#p72d929a1fe)">
     <!-- acid -->
     <g transform="translate(62.523332 176.592562)scale(0.12 -0.12)">
      <defs>
       <path id="DejaVuSans-64" d="M 2906 2969 
L 2906 4863 
L 3481 4863 
L 3481 0 
L 2906 0 
L 2906 525 
Q 2725 213 2448 61 
Q 2172 -91 1784 -91 
Q 1150 -91 751 415 
Q 353 922 353 1747 
Q 353 2572 751 3078 
Q 1150 3584 1784 3584 
Q 2172 3584 2448 3432 
Q 2725 3281 2906 2969 
z
M 947 1747 
Q 947 1113 1208 752 
Q 1469 391 1925 391 
Q 2381 391 2643 752 
Q 2906 1113 2906 1747 
Q 2906 2381 2643 2742 
Q 2381 3103 1925 3103 
Q 1469 3103 1208 2742 
Q 947 2381 947 1747 
z
" transform="scale(0.015625)"/>
      </defs>
      <use xlink:href="#DejaVuSans-61"/>
      <use xlink:href="#DejaVuSans-63" x="61.279297"/>
      <use xlink:href="#DejaVuSans-69" x="116.259766"/>
      <use xlink:href="#DejaVuSans-64" x="144.042969"/>
     </g>
    </g>
    <g clip-path="url(#p72d929a1fe)">
     <!-- MESH:D014238 -->
     <g transform="translate(28.139582 190.029937)scale(0.12 -0.12)">
      <defs>
       <path id="DejaVuSans-4d" d="M 628 4666 
L 1569 4666 
L 2759 1491 
L 3956 4666 
L 4897 4666 
L 4897 0 
L 4281 0 
L 4281 4097 
L 3078 897 
L 2444 897 
L 1241 4097 
L 1241 0 
L 628 0 
L 628 4666 
z
" transform="scale(0.015625)"/>
       <path id="DejaVuSans-45" d="M 628 4666 
L 3578 4666 
L 3578 4134 
L 1259 4134 
L 1259 2753 
L 3481 2753 
L 3481 2222 
L 1259 2222 
L 1259 531 
L 3634 531 
L 3634 0 
L 628 0 
L 628 4666 
z
" transform="scale(0.015625)"/>
       <path id="DejaVuSans-53" d="M 3425 4513 
L 3425 3897 
Q 3066 4069 2747 4153 
Q 2428 4238 2131 4238 
Q 1616 4238 1336 4038 
Q 1056 3838 1056 3469 
Q 1056 3159 1242 3001 
Q 1428 2844 1947 2747 
L 2328 2669 
Q 3034 2534 3370 2195 
Q 3706 1856 3706 1288 
Q 3706 609 3251 259 
Q 2797 -91 1919 -91 
Q 1588 -91 1214 -16 
Q 841 59 441 206 
L 441 856 
Q 825 641 1194 531 
Q 1563 422 1919 422 
Q 2459 422 2753 634 
Q 3047 847 3047 1241 
Q 3047 1584 2836 1778 
Q 2625 1972 2144 2069 
L 1759 2144 
Q 1053 2284 737 2584 
Q 422 2884 422 3419 
Q 422 4038 858 4394 
Q 1294 4750 2059 4750 
Q 2388 4750 2728 4690 
Q 3069 4631 3425 4513 
z
" transform="scale(0.015625)"/>
       <path id="DejaVuSans-48" d="M 628 4666 
L 1259 4666 
L 1259 2753 
L 3553 2753 
L 3553 4666 
L 4184 4666 
L 4184 0 
L 3553 0 
L 3553 2222 
L 1259 2222 
L 1259 0 
L 628 0 
L 628 4666 
z
" transform="scale(0.015625)"/>
       <path id="DejaVuSans-3a" d="M 750 794 
L 1409 794 
L 1409 0 
L 750 0 
L 750 794 
z
M 750 3309 
L 1409 3309 
L 1409 2516 
L 750 2516 
L 750 3309 
z
" transform="scale(0.015625)"/>
       <path id="DejaVuSans-44" d="M 1259 4147 
L 1259 519 
L 2022 519 
Q 2988 519 3436 956 
Q 3884 1394 3884 2338 
Q 3884 3275 3436 3711 
Q 2988 4147 2022 4147 
L 1259 4147 
z
M 628 4666 
L 1925 4666 
Q 3281 4666 3915 4102 
Q 4550 3538 4550 2338 
Q 4550 1131 3912 565 
Q 3275 0 1925 0 
L 628 0 
L 628 4666 
z
" transform="scale(0.015625)"/>
       <path id="DejaVuSans-30" d="M 2034 4250 
Q 1547 4250 1301 3770 
Q 1056 3291 1056 2328 
Q 1056 1369 1301 889 
Q 1547 409 2034 409 
Q 2525 409 2770 889 
Q 3016 1369 3016 2328 
Q 3016 3291 2770 3770 
Q 2525 4250 2034 4250 
z
M 2034 4750 
Q 2819 4750 3233 4129 
Q 3647 3509 3647 2328 
Q 3647 1150 3233 529 
Q 2819 -91 2034 -91 
Q 1250 -91 836 529 
Q 422 1150 422 2328 
Q 422 3509 836 4129 
Q 1250 4750 2034 4750 
z
" transform="scale(0.015625)"/>
       <path id="DejaVuSans-31" d="M 794 531 
L 1825 531 
L 1825 4091 
L 703 3866 
L 703 4441 
L 1819 4666 
L 2450 4666 
L 2450 531 
L 3481 531 
L 3481 0 
L 794 0 
L 794 531 
z
" transform="scale(0.015625)"/>
       <path id="DejaVuSans-34" d="M 2419 4116 
L 825 1625 
L 2419 1625 
L 2419 4116 
z
M 2253 4666 
L 3047 4666 
L 3047 1625 
L 3713 1625 
L 3713 1100 
L 3047 1100 
L 3047 0 
L 2419 0 
L 2419 1100 
L 313 1100 
L 313 1709 
L 2253 4666 
z
" transform="scale(0.015625)"/>
       <path id="DejaVuSans-32" d="M 1228 531 
L 3431 531 
L 3431 0 
L 469 0 
L 469 531 
Q 828 903 1448 1529 
Q 2069 2156 2228 2338 
Q 2531 2678 2651 2914 
Q 2772 3150 2772 3378 
Q 2772 3750 2511 3984 
Q 2250 4219 1831 4219 
Q 1534 4219 1204 4116 
Q 875 4013 500 3803 
L 500 4441 
Q 881 4594 1212 4672 
Q 1544 4750 1819 4750 
Q 2544 4750 2975 4387 
Q 3406 4025 3406 3419 
Q 3406 3131 3298 2873 
Q 3191 2616 2906 2266 
Q 2828 2175 2409 1742 
Q 1991 1309 1228 531 
z
" transform="scale(0.015625)"/>
       <path id="DejaVuSans-33" d="M 2597 2516 
Q 3050 2419 3304 2112 
Q 3559 1806 3559 1356 
Q 3559 666 3084 287 
Q 2609 -91 1734 -91 
Q 1441 -91 1130 -33 
Q 819 25 488 141 
L 488 750 
Q 750 597 1062 519 
Q 1375 441 1716 441 
Q 2309 441 2620 675 
Q 2931 909 2931 1356 
Q 2931 1769 2642 2001 
Q 2353 2234 1838 2234 
L 1294 2234 
L 1294 2753 
L 1863 2753 
Q 2328 2753 2575 2939 
Q 2822 3125 2822 3475 
Q 2822 3834 2567 4026 
Q 2313 4219 1838 4219 
Q 1578 4219 1281 4162 
Q 984 4106 628 3988 
L 628 4550 
Q 988 4650 1302 4700 
Q 1616 4750 1894 4750 
Q 2613 4750 3031 4423 
Q 3450 4097 3450 3541 
Q 3450 3153 3228 2886 
Q 3006 2619 2597 2516 
z
" transform="scale(0.015625)"/>
       <path id="DejaVuSans-38" d="M 2034 2216 
Q 1584 2216 1326 1975 
Q 1069 1734 1069 1313 
Q 1069 891 1326 650 
Q 1584 409 2034 409 
Q 2484 409 2743 651 
Q 3003 894 3003 1313 
Q 3003 1734 2745 1975 
Q 2488 2216 2034 2216 
z
M 1403 2484 
Q 997 2584 770 2862 
Q 544 3141 544 3541 
Q 544 4100 942 4425 
Q 1341 4750 2034 4750 
Q 2731 4750 3128 4425 
Q 3525 4100 3525 3541 
Q 3525 3141 3298 2862 
Q 3072 2584 2669 2484 
Q 3125 2378 3379 2068 
Q 3634 1759 3634 1313 
Q 3634 634 3220 271 
Q 2806 -91 2034 -91 
Q 1263 -91 848 271 
Q 434 634 434 1313 
Q 434 1759 690 2068 
Q 947 2378 1403 2484 
z
M 1172 3481 
Q 1172 3119 1398 2916 
Q 1625 2713 2034 2713 
Q 2441 2713 2670 2916 
Q 2900 3119 2900 3481 
Q 2900 3844 2670 4047 
Q 2441 4250 2034 4250 
Q 1625 4250 1398 4047 
Q 1172 3844 1172 3481 
z
" transform="scale(0.015625)"/>
      </defs>
      <use xlink:href="#DejaVuSans-4d"/>
      <use xlink:href="#DejaVuSans-45" x="86.279297"/>
      <use xlink:href="#DejaVuSans-53" x="149.462891"/>
      <use xlink:href="#DejaVuSans-48" x="212.939453"/>
      <use xlink:href="#DejaVuSans-3a" x="288.134766"/>
      <use xlink:href="#DejaVuSans-44" x="321.826172"/>
      <use xlink:href="#DejaVuSans-30" x="398.828125"/>
      <use xlink:href="#DejaVuSans-31" x="462.451172"/>
      <use xlink:href="#DejaVuSans-34" x="526.074219"/>
      <use xlink:href="#DejaVuSans-32" x="589.697266"/>
      <use xlink:href="#DejaVuSans-33" x="653.320312"/>
      <use xlink:href="#DejaVuSans-38" x="716.943359"/>
     </g>
    </g>
    <g clip-path="url(#p72d929a1fe)">
     <!-- Drug -->
     <g transform="translate(60.277082 203.467312)scale(0.12 -0.12)">
      <use xlink:href="#DejaVuSans-44"/>
      <use xlink:href="#DejaVuSans-72" x="77.001953"/>
      <use xlink:href="#DejaVuSans-75" x="118.115234"/>
      <use xlink:href="#DejaVuSans-67" x="181.494141"/>
     </g>
    </g>
   </g>
   <g id="text_5">
    <g clip-path="url(#p72d929a1fe)">
     <!-- Condyloma -->
     <g transform="translate(755.141668 163.155187)scale(0.12 -0.12)">
      <defs>
       <path id="DejaVuSans-43" d="M 4122 4306 
L 4122 3641 
Q 3803 3938 3442 4084 
Q 3081 4231 2675 4231 
Q 1875 4231 1450 3742 
Q 1025 3253 1025 2328 
Q 1025 1406 1450 917 
Q 1875 428 2675 428 
Q 3081 428 3442 575 
Q 3803 722 4122 1019 
L 4122 359 
Q 3791 134 3420 21 
Q 3050 -91 2638 -91 
Q 1578 -91 968 557 
Q 359 1206 359 2328 
Q 359 3453 968 4101 
Q 1578 4750 2638 4750 
Q 3056 4750 3426 4639 
Q 3797 4528 4122 4306 
z
" transform="scale(0.015625)"/>
       <path id="DejaVuSans-6d" d="M 3328 2828 
Q 3544 3216 3844 3400 
Q 4144 3584 4550 3584 
Q 5097 3584 5394 3201 
Q 5691 2819 5691 2113 
L 5691 0 
L 5113 0 
L 5113 2094 
Q 5113 2597 4934 2840 
Q 4756 3084 4391 3084 
Q 3944 3084 3684 2787 
Q 3425 2491 3425 1978 
L 3425 0 
L 2847 0 
L 2847 2094 
Q 2847 2600 2669 2842 
Q 2491 3084 2119 3084 
Q 1678 3084 1418 2786 
Q 1159 2488 1159 1978 
L 1159 0 
L 581 0 
L 581 3500 
L 1159 3500 
L 1159 2956 
Q 1356 3278 1631 3431 
Q 1906 3584 2284 3584 
Q 2666 3584 2933 3390 
Q 3200 3197 3328 2828 
z
" transform="scale(0.015625)"/>
      </defs>
      <use xlink:href="#DejaVuSans-43"/>
      <use xlink:href="#DejaVuSans-6f" x="69.824219"/>
      <use xlink:href="#DejaVuSans-6e" x="131.005859"/>
      <use xlink:href="#DejaVuSans-64" x="194.384766"/>
      <use xlink:href="#DejaVuSans-79" x="257.861328"/>
      <use xlink:href="#DejaVuSans-6c" x="317.041016"/>
      <use xlink:href="#DejaVuSans-6f" x="344.824219"/>
      <use xlink:href="#DejaVuSans-6d" x="406.005859"/>
      <use xlink:href="#DejaVuSans-61" x="503.417969"/>
     </g>
    </g>
    <g clip-path="url(#p72d929a1fe)">
     <!-- acuminatum -->
     <g transform="translate(751.256668 176.592562)scale(0.12 -0.12)">
      <use xlink:href="#DejaVuSans-61"/>
      <use xlink:href="#DejaVuSans-63" x="61.279297"/>
      <use xlink:href="#DejaVuSans-75" x="116.259766"/>
      <use xlink:href="#DejaVuSans-6d" x="179.638672"/>
      <use xlink:href="#DejaVuSans-69" x="277.050781"/>
      <use xlink:href="#DejaVuSans-6e" x="304.833984"/>
      <use xlink:href="#DejaVuSans-61" x="368.212891"/>
      <use xlink:href="#DejaVuSans-74" x="429.492188"/>
      <use xlink:href="#DejaVuSans-75" x="468.701172"/>
      <use xlink:href="#DejaVuSans-6d" x="532.080078"/>
     </g>
    </g>
    <g clip-path="url(#p72d929a1fe)">
     <!-- MESH:D003218 -->
     <g transform="translate(742.189168 190.029937)scale(0.12 -0.12)">
      <use xlink:href="#DejaVuSans-4d"/>
      <use xlink:href="#DejaVuSans-45" x="86.279297"/>
      <use xlink:href="#DejaVuSans-53" x="149.462891"/>
      <use xlink:href="#DejaVuSans-48" x="212.939453"/>
      <use xlink:href="#DejaVuSans-3a" x="288.134766"/>
      <use xlink:href="#DejaVuSans-44" x="321.826172"/>
      <use xlink:href="#DejaVuSans-30" x="398.828125"/>
      <use xlink:href="#DejaVuSans-30" x="462.451172"/>
      <use xlink:href="#DejaVuSans-33" x="526.074219"/>
      <use xlink:href="#DejaVuSans-32" x="589.697266"/>
      <use xlink:href="#DejaVuSans-31" x="653.320312"/>
      <use xlink:href="#DejaVuSans-38" x="716.943359"/>
     </g>
    </g>
    <g clip-path="url(#p72d929a1fe)">
     <!-- Disease -->
     <g transform="translate(765.426043 203.467312)scale(0.12 -0.12)">
      <use xlink:href="#DejaVuSans-44"/>
      <use xlink:href="#DejaVuSans-69" x="77.001953"/>
      <use xlink:href="#DejaVuSans-73" x="104.785156"/>
      <use xlink:href="#DejaVuSans-65" x="156.884766"/>
      <use xlink:href="#DejaVuSans-61" x="218.408203"/>
      <use xlink:href="#DejaVuSans-73" x="279.6875"/>
      <use xlink:href="#DejaVuSans-65" x="331.787109"/>
     </g>
    </g>
   </g>
  </g>
 </g>
 <defs>
  <clipPath id="p72d929a1fe">
   <rect x="0" y="0" width="864" height="360"/>
  </clipPath>
 </defs>
</svg>
