<?xml version="1.0" encoding="utf-8" standalone="no"?>
<!DOCTYPE svg PUBLIC "-//W3C//DTD SVG 1.1//EN"
  "http://www.w3.org/Graphics/SVG/1.1/DTD/svg11.dtd">
<svg xmlns:xlink="http://www.w3.org/1999/xlink" width="864pt" height="360pt" viewBox="0 0 864 360" xmlns="http://www.w3.org/2000/svg" version="1.1">
 <metadata>
  <rdf:RDF xmlns:dc="http://purl.org/dc/elements/1.1/" xmlns:cc="http://creativecommons.org/ns#" xmlns:rdf="http://www.w3.org/1999/02/22-rdf-syntax-ns#">
   <cc:Work>
    <dc:type rdf:resource="http://purl.org/dc/dcmitype/StillImage"/>
    <dc:date>2023-02-08T08:50:58.312723</dc:date>
    <dc:format>image/svg+xml</dc:format>
    <dc:creator>
     <cc:Agent>
      <dc:title>Matplotlib v3.5.1, https://matplotlib.org/</dc:title>
     </cc:Agent>
    </dc:creator>
   </cc:Work>
  </rdf:RDF>
 </metadata>
 <defs>
  <style type="text/css">*{stroke-linejoin: round; stroke-linecap: butt}</style>
 </defs>
 <g id="figure_1">
  <g id="patch_1">
   <path d="M 0 360 
L 864 360 
L 864 0 
L 0 0 
z
" style="fill: #ffffff"/>
  </g>
  <g id="axes_1">
   <g id="patch_2">
    <path d="M 127.418126 180 
Q 253.489907 180 376.207585 180 
" clip-path="url(#p19e6773ecf)" style="fill: none; stroke: #2ca02c; stroke-width: 3; stroke-linecap: round"/>
    <path d="M 372.207585 178 
L 376.207585 180 
L 372.207585 182 
L 372.207585 178 
z
" clip-path="url(#p19e6773ecf)" style="fill: #2ca02c; stroke: #2ca02c; stroke-width: 3; stroke-linecap: round"/>
   </g>
   <g id="patch_3">
    <path d="M 484.44292 180 
Q 610.5147 180 733.232378 180 
" clip-path="url(#p19e6773ecf)" style="fill: none; stroke: #2ca02c; stroke-width: 3; stroke-linecap: round"/>
    <path d="M 729.232378 178 
L 733.232378 180 
L 729.232378 182 
L 729.232378 178 
z
" clip-path="url(#p19e6773ecf)" style="fill: #2ca02c; stroke: #2ca02c; stroke-width: 3; stroke-linecap: round"/>
   </g>
   <g id="text_1">
    <g id="patch_4">
     <path d="M 228.118072 193.437969 
L 278.857135 193.437969 
Q 281.857135 193.437969 281.857135 190.437969 
L 281.857135 169.562031 
Q 281.857135 166.562031 278.857135 166.562031 
L 228.118072 166.562031 
Q 225.118072 166.562031 225.118072 169.562031 
L 225.118072 190.437969 
Q 225.118072 193.437969 228.118072 193.437969 
z
" clip-path="url(#p19e6773ecf)" style="fill: #ffffff; stroke: #ffffff; stroke-linejoin: miter"/>
    </g>
    <g clip-path="url(#p19e6773ecf)">
     <!-- decreases -->
     <g transform="translate(228.118072 177.160469)scale(0.1 -0.1)">
      <defs>
       <path id="DejaVuSans-64" d="M 2906 2969 
L 2906 4863 
L 3481 4863 
L 3481 0 
L 2906 0 
L 2906 525 
Q 2725 213 2448 61 
Q 2172 -91 1784 -91 
Q 1150 -91 751 415 
Q 353 922 353 1747 
Q 353 2572 751 3078 
Q 1150 3584 1784 3584 
Q 2172 3584 2448 3432 
Q 2725 3281 2906 2969 
z
M 947 1747 
Q 947 1113 1208 752 
Q 1469 391 1925 391 
Q 2381 391 2643 752 
Q 2906 1113 2906 1747 
Q 2906 2381 2643 2742 
Q 2381 3103 1925 3103 
Q 1469 3103 1208 2742 
Q 947 2381 947 1747 
z
" transform="scale(0.015625)"/>
       <path id="DejaVuSans-65" d="M 3597 1894 
L 3597 1613 
L 953 1613 
Q 991 1019 1311 708 
Q 1631 397 2203 397 
Q 2534 397 2845 478 
Q 3156 559 3463 722 
L 3463 178 
Q 3153 47 2828 -22 
Q 2503 -91 2169 -91 
Q 1331 -91 842 396 
Q 353 884 353 1716 
Q 353 2575 817 3079 
Q 1281 3584 2069 3584 
Q 2775 3584 3186 3129 
Q 3597 2675 3597 1894 
z
M 3022 2063 
Q 3016 2534 2758 2815 
Q 2500 3097 2075 3097 
Q 1594 3097 1305 2825 
Q 1016 2553 972 2059 
L 3022 2063 
z
" transform="scale(0.015625)"/>
       <path id="DejaVuSans-63" d="M 3122 3366 
L 3122 2828 
Q 2878 2963 2633 3030 
Q 2388 3097 2138 3097 
Q 1578 3097 1268 2742 
Q 959 2388 959 1747 
Q 959 1106 1268 751 
Q 1578 397 2138 397 
Q 2388 397 2633 464 
Q 2878 531 3122 666 
L 3122 134 
Q 2881 22 2623 -34 
Q 2366 -91 2075 -91 
Q 1284 -91 818 406 
Q 353 903 353 1747 
Q 353 2603 823 3093 
Q 1294 3584 2113 3584 
Q 2378 3584 2631 3529 
Q 2884 3475 3122 3366 
z
" transform="scale(0.015625)"/>
       <path id="DejaVuSans-72" d="M 2631 2963 
Q 2534 3019 2420 3045 
Q 2306 3072 2169 3072 
Q 1681 3072 1420 2755 
Q 1159 2438 1159 1844 
L 1159 0 
L 581 0 
L 581 3500 
L 1159 3500 
L 1159 2956 
Q 1341 3275 1631 3429 
Q 1922 3584 2338 3584 
Q 2397 3584 2469 3576 
Q 2541 3569 2628 3553 
L 2631 2963 
z
" transform="scale(0.015625)"/>
       <path id="DejaVuSans-61" d="M 2194 1759 
Q 1497 1759 1228 1600 
Q 959 1441 959 1056 
Q 959 750 1161 570 
Q 1363 391 1709 391 
Q 2188 391 2477 730 
Q 2766 1069 2766 1631 
L 2766 1759 
L 2194 1759 
z
M 3341 1997 
L 3341 0 
L 2766 0 
L 2766 531 
Q 2569 213 2275 61 
Q 1981 -91 1556 -91 
Q 1019 -91 701 211 
Q 384 513 384 1019 
Q 384 1609 779 1909 
Q 1175 2209 1959 2209 
L 2766 2209 
L 2766 2266 
Q 2766 2663 2505 2880 
Q 2244 3097 1772 3097 
Q 1472 3097 1187 3025 
Q 903 2953 641 2809 
L 641 3341 
Q 956 3463 1253 3523 
Q 1550 3584 1831 3584 
Q 2591 3584 2966 3190 
Q 3341 2797 3341 1997 
z
" transform="scale(0.015625)"/>
       <path id="DejaVuSans-73" d="M 2834 3397 
L 2834 2853 
Q 2591 2978 2328 3040 
Q 2066 3103 1784 3103 
Q 1356 3103 1142 2972 
Q 928 2841 928 2578 
Q 928 2378 1081 2264 
Q 1234 2150 1697 2047 
L 1894 2003 
Q 2506 1872 2764 1633 
Q 3022 1394 3022 966 
Q 3022 478 2636 193 
Q 2250 -91 1575 -91 
Q 1294 -91 989 -36 
Q 684 19 347 128 
L 347 722 
Q 666 556 975 473 
Q 1284 391 1588 391 
Q 1994 391 2212 530 
Q 2431 669 2431 922 
Q 2431 1156 2273 1281 
Q 2116 1406 1581 1522 
L 1381 1569 
Q 847 1681 609 1914 
Q 372 2147 372 2553 
Q 372 3047 722 3315 
Q 1072 3584 1716 3584 
Q 2034 3584 2315 3537 
Q 2597 3491 2834 3397 
z
" transform="scale(0.015625)"/>
      </defs>
      <use xlink:href="#DejaVuSans-64"/>
      <use xlink:href="#DejaVuSans-65" x="63.476562"/>
      <use xlink:href="#DejaVuSans-63" x="125"/>
      <use xlink:href="#DejaVuSans-72" x="179.980469"/>
      <use xlink:href="#DejaVuSans-65" x="218.84375"/>
      <use xlink:href="#DejaVuSans-61" x="280.367188"/>
      <use xlink:href="#DejaVuSans-73" x="341.646484"/>
      <use xlink:href="#DejaVuSans-65" x="393.746094"/>
      <use xlink:href="#DejaVuSans-73" x="455.269531"/>
     </g>
    </g>
    <g clip-path="url(#p19e6773ecf)">
     <!-- activity of -->
     <g transform="translate(228.648541 188.358281)scale(0.1 -0.1)">
      <defs>
       <path id="DejaVuSans-74" d="M 1172 4494 
L 1172 3500 
L 2356 3500 
L 2356 3053 
L 1172 3053 
L 1172 1153 
Q 1172 725 1289 603 
Q 1406 481 1766 481 
L 2356 481 
L 2356 0 
L 1766 0 
Q 1100 0 847 248 
Q 594 497 594 1153 
L 594 3053 
L 172 3053 
L 172 3500 
L 594 3500 
L 594 4494 
L 1172 4494 
z
" transform="scale(0.015625)"/>
       <path id="DejaVuSans-69" d="M 603 3500 
L 1178 3500 
L 1178 0 
L 603 0 
L 603 3500 
z
M 603 4863 
L 1178 4863 
L 1178 4134 
L 603 4134 
L 603 4863 
z
" transform="scale(0.015625)"/>
       <path id="DejaVuSans-76" d="M 191 3500 
L 800 3500 
L 1894 563 
L 2988 3500 
L 3597 3500 
L 2284 0 
L 1503 0 
L 191 3500 
z
" transform="scale(0.015625)"/>
       <path id="DejaVuSans-79" d="M 2059 -325 
Q 1816 -950 1584 -1140 
Q 1353 -1331 966 -1331 
L 506 -1331 
L 506 -850 
L 844 -850 
Q 1081 -850 1212 -737 
Q 1344 -625 1503 -206 
L 1606 56 
L 191 3500 
L 800 3500 
L 1894 763 
L 2988 3500 
L 3597 3500 
L 2059 -325 
z
" transform="scale(0.015625)"/>
       <path id="DejaVuSans-20" transform="scale(0.015625)"/>
       <path id="DejaVuSans-6f" d="M 1959 3097 
Q 1497 3097 1228 2736 
Q 959 2375 959 1747 
Q 959 1119 1226 758 
Q 1494 397 1959 397 
Q 2419 397 2687 759 
Q 2956 1122 2956 1747 
Q 2956 2369 2687 2733 
Q 2419 3097 1959 3097 
z
M 1959 3584 
Q 2709 3584 3137 3096 
Q 3566 2609 3566 1747 
Q 3566 888 3137 398 
Q 2709 -91 1959 -91 
Q 1206 -91 779 398 
Q 353 888 353 1747 
Q 353 2609 779 3096 
Q 1206 3584 1959 3584 
z
" transform="scale(0.015625)"/>
       <path id="DejaVuSans-66" d="M 2375 4863 
L 2375 4384 
L 1825 4384 
Q 1516 4384 1395 4259 
Q 1275 4134 1275 3809 
L 1275 3500 
L 2222 3500 
L 2222 3053 
L 1275 3053 
L 1275 0 
L 697 0 
L 697 3053 
L 147 3053 
L 147 3500 
L 697 3500 
L 697 3744 
Q 697 4328 969 4595 
Q 1241 4863 1831 4863 
L 2375 4863 
z
" transform="scale(0.015625)"/>
      </defs>
      <use xlink:href="#DejaVuSans-61"/>
      <use xlink:href="#DejaVuSans-63" x="61.279297"/>
      <use xlink:href="#DejaVuSans-74" x="116.259766"/>
      <use xlink:href="#DejaVuSans-69" x="155.46875"/>
      <use xlink:href="#DejaVuSans-76" x="183.251953"/>
      <use xlink:href="#DejaVuSans-69" x="242.431641"/>
      <use xlink:href="#DejaVuSans-74" x="270.214844"/>
      <use xlink:href="#DejaVuSans-79" x="309.423828"/>
      <use xlink:href="#DejaVuSans-20" x="368.603516"/>
      <use xlink:href="#DejaVuSans-6f" x="400.390625"/>
      <use xlink:href="#DejaVuSans-66" x="461.572266"/>
     </g>
    </g>
   </g>
   <g id="text_2">
    <g id="patch_5">
     <path d="M 572.856147 193.437969 
L 648.168647 193.437969 
Q 651.168647 193.437969 651.168647 190.437969 
L 651.168647 169.562031 
Q 651.168647 166.562031 648.168647 166.562031 
L 572.856147 166.562031 
Q 569.856147 166.562031 569.856147 169.562031 
L 569.856147 190.437969 
Q 569.856147 193.437969 572.856147 193.437969 
z
" clip-path="url(#p19e6773ecf)" style="fill: #ffffff; stroke: #ffffff; stroke-linejoin: miter"/>
    </g>
    <g clip-path="url(#p19e6773ecf)">
     <!-- positively -->
     <g transform="translate(586.551459 177.160469)scale(0.1 -0.1)">
      <defs>
       <path id="DejaVuSans-70" d="M 1159 525 
L 1159 -1331 
L 581 -1331 
L 581 3500 
L 1159 3500 
L 1159 2969 
Q 1341 3281 1617 3432 
Q 1894 3584 2278 3584 
Q 2916 3584 3314 3078 
Q 3713 2572 3713 1747 
Q 3713 922 3314 415 
Q 2916 -91 2278 -91 
Q 1894 -91 1617 61 
Q 1341 213 1159 525 
z
M 3116 1747 
Q 3116 2381 2855 2742 
Q 2594 3103 2138 3103 
Q 1681 3103 1420 2742 
Q 1159 2381 1159 1747 
Q 1159 1113 1420 752 
Q 1681 391 2138 391 
Q 2594 391 2855 752 
Q 3116 1113 3116 1747 
z
" transform="scale(0.015625)"/>
       <path id="DejaVuSans-6c" d="M 603 4863 
L 1178 4863 
L 1178 0 
L 603 0 
L 603 4863 
z
" transform="scale(0.015625)"/>
      </defs>
      <use xlink:href="#DejaVuSans-70"/>
      <use xlink:href="#DejaVuSans-6f" x="63.476562"/>
      <use xlink:href="#DejaVuSans-73" x="124.658203"/>
      <use xlink:href="#DejaVuSans-69" x="176.757812"/>
      <use xlink:href="#DejaVuSans-74" x="204.541016"/>
      <use xlink:href="#DejaVuSans-69" x="243.75"/>
      <use xlink:href="#DejaVuSans-76" x="271.533203"/>
      <use xlink:href="#DejaVuSans-65" x="330.712891"/>
      <use xlink:href="#DejaVuSans-6c" x="392.236328"/>
      <use xlink:href="#DejaVuSans-79" x="420.019531"/>
     </g>
    </g>
    <g clip-path="url(#p19e6773ecf)">
     <!-- correlated with -->
     <g transform="translate(572.856147 188.358281)scale(0.1 -0.1)">
      <defs>
       <path id="DejaVuSans-77" d="M 269 3500 
L 844 3500 
L 1563 769 
L 2278 3500 
L 2956 3500 
L 3675 769 
L 4391 3500 
L 4966 3500 
L 4050 0 
L 3372 0 
L 2619 2869 
L 1863 0 
L 1184 0 
L 269 3500 
z
" transform="scale(0.015625)"/>
       <path id="DejaVuSans-68" d="M 3513 2113 
L 3513 0 
L 2938 0 
L 2938 2094 
Q 2938 2591 2744 2837 
Q 2550 3084 2163 3084 
Q 1697 3084 1428 2787 
Q 1159 2491 1159 1978 
L 1159 0 
L 581 0 
L 581 4863 
L 1159 4863 
L 1159 2956 
Q 1366 3272 1645 3428 
Q 1925 3584 2291 3584 
Q 2894 3584 3203 3211 
Q 3513 2838 3513 2113 
z
" transform="scale(0.015625)"/>
      </defs>
      <use xlink:href="#DejaVuSans-63"/>
      <use xlink:href="#DejaVuSans-6f" x="54.980469"/>
      <use xlink:href="#DejaVuSans-72" x="116.162109"/>
      <use xlink:href="#DejaVuSans-72" x="155.525391"/>
      <use xlink:href="#DejaVuSans-65" x="194.388672"/>
      <use xlink:href="#DejaVuSans-6c" x="255.912109"/>
      <use xlink:href="#DejaVuSans-61" x="283.695312"/>
      <use xlink:href="#DejaVuSans-74" x="344.974609"/>
      <use xlink:href="#DejaVuSans-65" x="384.183594"/>
      <use xlink:href="#DejaVuSans-64" x="445.707031"/>
      <use xlink:href="#DejaVuSans-20" x="509.183594"/>
      <use xlink:href="#DejaVuSans-77" x="540.970703"/>
      <use xlink:href="#DejaVuSans-69" x="622.757812"/>
      <use xlink:href="#DejaVuSans-74" x="650.541016"/>
      <use xlink:href="#DejaVuSans-68" x="689.75"/>
     </g>
    </g>
   </g>
   <g id="PathCollection_1">
    <defs>
     <path id="C0_0_27d77c4999" d="M 0 52.440442 
C 13.907368 52.440442 27.246998 46.914987 37.080992 37.080992 
C 46.914987 27.246998 52.440442 13.907368 52.440442 -0 
C 52.440442 -13.907368 46.914987 -27.246998 37.080992 -37.080992 
C 27.246998 -46.914987 13.907368 -52.440442 0 -52.440442 
C -13.907368 -52.440442 -27.246998 -46.914987 -37.080992 -37.080992 
C -46.914987 -27.246998 -52.440442 -13.907368 -52.440442 0 
C -52.440442 13.907368 -46.914987 27.246998 -37.080992 37.080992 
C -27.246998 46.914987 -13.907368 52.440442 0 52.440442 
z
"/>
    </defs>
    <g clip-path="url(#p19e6773ecf)">
     <use xlink:href="#C0_0_27d77c4999" x="74.975207" y="180" style="fill: #01c472; stroke: #01c472"/>
    </g>
    <g clip-path="url(#p19e6773ecf)">
     <use xlink:href="#C0_0_27d77c4999" x="432" y="180" style="fill: #e71761; stroke: #e71761"/>
    </g>
    <g clip-path="url(#p19e6773ecf)">
     <use xlink:href="#C0_0_27d77c4999" x="789.024793" y="180" style="fill: #70c6ca; stroke: #70c6ca"/>
    </g>
   </g>
   <g id="text_3">
    <path d="M 427.313437 147.68775 
L 431.959687 147.68775 
L 431.959687 148.68525 
L 428.397187 148.68525 
L 428.397187 150.828375 
Q 428.654062 150.74025 428.910937 150.697125 
Q 429.169687 150.654 429.428437 150.654 
Q 430.892812 150.654 431.747812 151.4565 
Q 432.604687 152.259 432.604687 153.629625 
Q 432.604687 155.0415 431.725312 155.82525 
Q 430.845937 156.607125 429.246562 156.607125 
Q 428.695312 156.607125 428.123437 156.513375 
Q 427.553437 156.419625 426.944062 156.232125 
L 426.944062 155.0415 
Q 427.470937 155.328375 428.033437 155.469 
Q 428.595937 155.609625 429.222187 155.609625 
Q 430.236562 155.609625 430.827187 155.077125 
Q 431.419687 154.544625 431.419687 153.629625 
Q 431.419687 152.7165 430.827187 152.184 
Q 430.236562 151.649625 429.222187 151.649625 
Q 428.747812 151.649625 428.275312 151.754625 
Q 427.804687 151.859625 427.313437 152.08275 
L 427.313437 147.68775 
z
M 434.239453 152.669625 
L 437.396953 152.669625 
L 437.396953 153.629625 
L 434.239453 153.629625 
L 434.239453 152.669625 
z
" clip-path="url(#p19e6773ecf)" style="fill: #ffffff; stroke: #000000; stroke-width: 2"/>
    <path d="M 427.313437 147.68775 
L 431.959687 147.68775 
L 431.959687 148.68525 
L 428.397187 148.68525 
L 428.397187 150.828375 
Q 428.654062 150.74025 428.910937 150.697125 
Q 429.169687 150.654 429.428437 150.654 
Q 430.892812 150.654 431.747812 151.4565 
Q 432.604687 152.259 432.604687 153.629625 
Q 432.604687 155.0415 431.725312 155.82525 
Q 430.845937 156.607125 429.246562 156.607125 
Q 428.695312 156.607125 428.123437 156.513375 
Q 427.553437 156.419625 426.944062 156.232125 
L 426.944062 155.0415 
Q 427.470937 155.328375 428.033437 155.469 
Q 428.595937 155.609625 429.222187 155.609625 
Q 430.236562 155.609625 430.827187 155.077125 
Q 431.419687 154.544625 431.419687 153.629625 
Q 431.419687 152.7165 430.827187 152.184 
Q 430.236562 151.649625 429.222187 151.649625 
Q 428.747812 151.649625 428.275312 151.754625 
Q 427.804687 151.859625 427.313437 152.08275 
L 427.313437 147.68775 
z
M 434.239453 152.669625 
L 437.396953 152.669625 
L 437.396953 153.629625 
L 434.239453 153.629625 
L 434.239453 152.669625 
z
" clip-path="url(#p19e6773ecf)" style="fill: #ffffff"/>
    <path d="M 375.173437 161.125125 
L 376.356562 161.125125 
L 376.356562 164.712 
L 380.657812 164.712 
L 380.657812 161.125125 
L 381.840937 161.125125 
L 381.840937 169.873875 
L 380.657812 169.873875 
L 380.657812 165.707625 
L 376.356562 165.707625 
L 376.356562 169.873875 
L 375.173437 169.873875 
L 375.173437 161.125125 
z
M 386.88 170.48325 
Q 386.424375 171.655125 385.989375 172.011375 
Q 385.55625 172.3695 384.830625 172.3695 
L 383.968125 172.3695 
L 383.968125 171.467625 
L 384.601875 171.467625 
Q 385.04625 171.467625 385.291875 171.25575 
Q 385.539375 171.04575 385.8375 170.260125 
L 386.030625 169.768875 
L 383.3775 163.311375 
L 384.519375 163.311375 
L 386.570625 168.44325 
L 388.621875 163.311375 
L 389.76375 163.311375 
L 386.88 170.48325 
z
M 395.569687 164.307 
L 395.569687 160.75575 
L 396.647812 160.75575 
L 396.647812 169.873875 
L 395.569687 169.873875 
L 395.569687 168.8895 
Q 395.230312 169.4745 394.710937 169.7595 
Q 394.193437 170.0445 393.465937 170.0445 
Q 392.277187 170.0445 391.529062 169.09575 
Q 390.782812 168.145125 390.782812 166.59825 
Q 390.782812 165.051375 391.529062 164.102625 
Q 392.277187 163.153875 393.465937 163.153875 
Q 394.193437 163.153875 394.710937 163.438875 
Q 395.230312 163.722 395.569687 164.307 
z
M 391.896562 166.59825 
Q 391.896562 167.787 392.385937 168.463875 
Q 392.875312 169.14075 393.730312 169.14075 
Q 394.585312 169.14075 395.076562 168.463875 
Q 395.569687 167.787 395.569687 166.59825 
Q 395.569687 165.4095 395.076562 164.732625 
Q 394.585312 164.05575 393.730312 164.05575 
Q 392.875312 164.05575 392.385937 164.732625 
Q 391.896562 165.4095 391.896562 166.59825 
z
M 402.67125 164.31825 
Q 402.489375 164.21325 402.275625 164.1645 
Q 402.061875 164.113875 401.805 164.113875 
Q 400.89 164.113875 400.400625 164.70825 
Q 399.91125 165.302625 399.91125 166.416375 
L 399.91125 169.873875 
L 398.8275 169.873875 
L 398.8275 163.311375 
L 399.91125 163.311375 
L 399.91125 164.331375 
Q 400.2525 163.73325 400.79625 163.4445 
Q 401.341875 163.153875 402.121875 163.153875 
Q 402.2325 163.153875 402.3675 163.168875 
Q 402.5025 163.182 402.665625 163.212 
L 402.67125 164.31825 
z
M 406.074844 164.067 
Q 405.208594 164.067 404.704219 164.743875 
Q 404.199844 165.42075 404.199844 166.59825 
Q 404.199844 167.77575 404.700469 168.452625 
Q 405.202969 169.1295 406.074844 169.1295 
Q 406.937344 169.1295 407.439844 168.45075 
Q 407.944219 167.770125 407.944219 166.59825 
Q 407.944219 165.432 407.439844 164.7495 
Q 406.937344 164.067 406.074844 164.067 
z
M 406.074844 163.153875 
Q 407.481094 163.153875 408.283594 164.068875 
Q 409.087969 164.982 409.087969 166.59825 
Q 409.087969 168.208875 408.283594 169.127625 
Q 407.481094 170.0445 406.074844 170.0445 
Q 404.662969 170.0445 403.862344 169.127625 
Q 403.063594 168.208875 403.063594 166.59825 
Q 403.063594 164.982 403.862344 164.068875 
Q 404.662969 163.153875 406.074844 163.153875 
z
M 415.955391 163.311375 
L 413.581641 166.5045 
L 416.077266 169.873875 
L 414.806016 169.873875 
L 412.895391 167.29575 
L 410.986641 169.873875 
L 409.713516 169.873875 
L 412.263516 166.44075 
L 409.931016 163.311375 
L 411.202266 163.311375 
L 412.942266 165.6495 
L 414.682266 163.311375 
L 415.955391 163.311375 
z
M 420.330703 170.48325 
Q 419.875078 171.655125 419.440078 172.011375 
Q 419.006953 172.3695 418.281328 172.3695 
L 417.418828 172.3695 
L 417.418828 171.467625 
L 418.052578 171.467625 
Q 418.496953 171.467625 418.742578 171.25575 
Q 418.990078 171.04575 419.288203 170.260125 
L 419.481328 169.768875 
L 416.828203 163.311375 
L 417.970078 163.311375 
L 420.021328 168.44325 
L 422.072578 163.311375 
L 423.214453 163.311375 
L 420.330703 170.48325 
z
M 425.769141 161.447625 
L 425.769141 163.311375 
L 427.989141 163.311375 
L 427.989141 164.1495 
L 425.769141 164.1495 
L 425.769141 167.712 
Q 425.769141 168.5145 425.988516 168.74325 
Q 426.207891 168.972 426.882891 168.972 
L 427.989141 168.972 
L 427.989141 169.873875 
L 426.882891 169.873875 
Q 425.634141 169.873875 425.159766 169.408875 
Q 424.685391 168.942 424.685391 167.712 
L 424.685391 164.1495 
L 423.894141 164.1495 
L 423.894141 163.311375 
L 424.685391 163.311375 
L 424.685391 161.447625 
L 425.769141 161.447625 
z
M 433.209844 164.31825 
Q 433.027969 164.21325 432.814219 164.1645 
Q 432.600469 164.113875 432.343594 164.113875 
Q 431.428594 164.113875 430.939219 164.70825 
Q 430.449844 165.302625 430.449844 166.416375 
L 430.449844 169.873875 
L 429.366094 169.873875 
L 429.366094 163.311375 
L 430.449844 163.311375 
L 430.449844 164.331375 
Q 430.791094 163.73325 431.334844 163.4445 
Q 431.880469 163.153875 432.660469 163.153875 
Q 432.771094 163.153875 432.906094 163.168875 
Q 433.041094 163.182 433.204219 163.212 
L 433.209844 164.31825 
z
M 437.070937 170.48325 
Q 436.615312 171.655125 436.180312 172.011375 
Q 435.747187 172.3695 435.021562 172.3695 
L 434.159062 172.3695 
L 434.159062 171.467625 
L 434.792812 171.467625 
Q 435.237187 171.467625 435.482812 171.25575 
Q 435.730312 171.04575 436.028437 170.260125 
L 436.221562 169.768875 
L 433.568437 163.311375 
L 434.710312 163.311375 
L 436.761562 168.44325 
L 438.812812 163.311375 
L 439.954687 163.311375 
L 437.070937 170.48325 
z
M 442.485 168.8895 
L 442.485 172.3695 
L 441.40125 172.3695 
L 441.40125 163.311375 
L 442.485 163.311375 
L 442.485 164.307 
Q 442.82625 163.722 443.34375 163.438875 
Q 443.863125 163.153875 444.583125 163.153875 
Q 445.779375 163.153875 446.525625 164.102625 
Q 447.27375 165.051375 447.27375 166.59825 
Q 447.27375 168.145125 446.525625 169.09575 
Q 445.779375 170.0445 444.583125 170.0445 
Q 443.863125 170.0445 443.34375 169.7595 
Q 442.82625 169.4745 442.485 168.8895 
z
M 446.154375 166.59825 
Q 446.154375 165.4095 445.665 164.732625 
Q 445.175625 164.05575 444.320625 164.05575 
Q 443.46375 164.05575 442.974375 164.732625 
Q 442.485 165.4095 442.485 166.59825 
Q 442.485 167.787 442.974375 168.463875 
Q 443.46375 169.14075 444.320625 169.14075 
Q 445.175625 169.14075 445.665 168.463875 
Q 446.154375 167.787 446.154375 166.59825 
z
M 450.126562 161.447625 
L 450.126562 163.311375 
L 452.346562 163.311375 
L 452.346562 164.1495 
L 450.126562 164.1495 
L 450.126562 167.712 
Q 450.126562 168.5145 450.345937 168.74325 
Q 450.565312 168.972 451.240312 168.972 
L 452.346562 168.972 
L 452.346562 169.873875 
L 451.240312 169.873875 
Q 449.991562 169.873875 449.517187 169.408875 
Q 449.042812 168.942 449.042812 167.712 
L 449.042812 164.1495 
L 448.251562 164.1495 
L 448.251562 163.311375 
L 449.042812 163.311375 
L 449.042812 161.447625 
L 450.126562 161.447625 
z
M 456.747891 166.57575 
Q 455.441016 166.57575 454.936641 166.873875 
Q 454.432266 167.172 454.432266 167.893875 
Q 454.432266 168.467625 454.811016 168.805125 
Q 455.189766 169.14075 455.838516 169.14075 
Q 456.736641 169.14075 457.278516 168.505125 
Q 457.820391 167.8695 457.820391 166.81575 
L 457.820391 166.57575 
L 456.747891 166.57575 
z
M 458.898516 166.1295 
L 458.898516 169.873875 
L 457.820391 169.873875 
L 457.820391 168.87825 
Q 457.451016 169.4745 456.899766 169.7595 
Q 456.348516 170.0445 455.551641 170.0445 
Q 454.544766 170.0445 453.948516 169.47825 
Q 453.354141 168.912 453.354141 167.96325 
Q 453.354141 166.857 454.094766 166.2945 
Q 454.837266 165.732 456.307266 165.732 
L 457.820391 165.732 
L 457.820391 165.625125 
Q 457.820391 164.88075 457.331016 164.473875 
Q 456.841641 164.067 455.956641 164.067 
Q 455.394141 164.067 454.859766 164.202 
Q 454.327266 164.337 453.836016 164.607 
L 453.836016 163.6095 
Q 454.426641 163.38075 454.983516 163.26825 
Q 455.540391 163.153875 456.067266 163.153875 
Q 457.492266 163.153875 458.195391 163.892625 
Q 458.898516 164.6295 458.898516 166.1295 
z
M 466.227656 164.571375 
Q 466.632656 163.843875 467.195156 163.498875 
Q 467.757656 163.153875 468.518906 163.153875 
Q 469.544531 163.153875 470.101406 163.872 
Q 470.658281 164.58825 470.658281 165.912 
L 470.658281 169.873875 
L 469.574531 169.873875 
L 469.574531 165.947625 
Q 469.574531 165.0045 469.238906 164.548875 
Q 468.905156 164.091375 468.220781 164.091375 
Q 467.382656 164.091375 466.895156 164.64825 
Q 466.409531 165.20325 466.409531 166.165125 
L 466.409531 169.873875 
L 465.325781 169.873875 
L 465.325781 165.947625 
Q 465.325781 164.998875 464.992031 164.545125 
Q 464.658281 164.091375 463.960781 164.091375 
Q 463.133906 164.091375 462.646406 164.650125 
Q 462.160781 165.208875 462.160781 166.165125 
L 462.160781 169.873875 
L 461.077031 169.873875 
L 461.077031 163.311375 
L 462.160781 163.311375 
L 462.160781 164.331375 
Q 462.530156 163.727625 463.045781 163.44075 
Q 463.561406 163.153875 464.270156 163.153875 
Q 464.986406 163.153875 465.487031 163.517625 
Q 465.987656 163.8795 466.227656 164.571375 
z
M 472.807734 163.311375 
L 473.885859 163.311375 
L 473.885859 169.873875 
L 472.807734 169.873875 
L 472.807734 163.311375 
z
M 472.807734 160.75575 
L 473.885859 160.75575 
L 473.885859 162.122625 
L 472.807734 162.122625 
L 472.807734 160.75575 
z
M 481.597969 165.912 
L 481.597969 169.873875 
L 480.519844 169.873875 
L 480.519844 165.947625 
Q 480.519844 165.01575 480.156094 164.5545 
Q 479.792344 164.091375 479.066719 164.091375 
Q 478.192969 164.091375 477.688594 164.64825 
Q 477.184219 165.20325 477.184219 166.165125 
L 477.184219 169.873875 
L 476.100469 169.873875 
L 476.100469 163.311375 
L 477.184219 163.311375 
L 477.184219 164.331375 
Q 477.572344 163.738875 478.095469 163.446375 
Q 478.620469 163.153875 479.306719 163.153875 
Q 480.437344 163.153875 481.016719 163.85325 
Q 481.597969 164.552625 481.597969 165.912 
z
M 489.360937 166.322625 
L 489.360937 166.8495 
L 484.403437 166.8495 
Q 484.474687 167.96325 485.074687 168.546375 
Q 485.674687 169.1295 486.747187 169.1295 
Q 487.367812 169.1295 487.950937 168.977625 
Q 488.534062 168.82575 489.109687 168.520125 
L 489.109687 169.540125 
Q 488.528437 169.78575 487.919062 169.915125 
Q 487.309687 170.0445 486.683437 170.0445 
Q 485.112187 170.0445 484.195312 169.131375 
Q 483.278437 168.216375 483.278437 166.656375 
Q 483.278437 165.04575 484.148437 164.10075 
Q 485.018437 163.153875 486.495937 163.153875 
Q 487.819687 163.153875 488.590312 164.007 
Q 489.360937 164.85825 489.360937 166.322625 
z
M 488.282812 166.00575 
Q 488.271562 165.122625 487.787812 164.59575 
Q 487.304062 164.067 486.507187 164.067 
Q 485.605312 164.067 485.063437 164.577 
Q 484.521562 165.087 484.439062 166.01325 
L 488.282812 166.00575 
z
" clip-path="url(#p19e6773ecf)" style="fill: #ffffff; stroke: #000000; stroke-width: 2"/>
    <path d="M 375.173437 161.125125 
L 376.356562 161.125125 
L 376.356562 164.712 
L 380.657812 164.712 
L 380.657812 161.125125 
L 381.840937 161.125125 
L 381.840937 169.873875 
L 380.657812 169.873875 
L 380.657812 165.707625 
L 376.356562 165.707625 
L 376.356562 169.873875 
L 375.173437 169.873875 
L 375.173437 161.125125 
z
M 386.88 170.48325 
Q 386.424375 171.655125 385.989375 172.011375 
Q 385.55625 172.3695 384.830625 172.3695 
L 383.968125 172.3695 
L 383.968125 171.467625 
L 384.601875 171.467625 
Q 385.04625 171.467625 385.291875 171.25575 
Q 385.539375 171.04575 385.8375 170.260125 
L 386.030625 169.768875 
L 383.3775 163.311375 
L 384.519375 163.311375 
L 386.570625 168.44325 
L 388.621875 163.311375 
L 389.76375 163.311375 
L 386.88 170.48325 
z
M 395.569687 164.307 
L 395.569687 160.75575 
L 396.647812 160.75575 
L 396.647812 169.873875 
L 395.569687 169.873875 
L 395.569687 168.8895 
Q 395.230312 169.4745 394.710937 169.7595 
Q 394.193437 170.0445 393.465937 170.0445 
Q 392.277187 170.0445 391.529062 169.09575 
Q 390.782812 168.145125 390.782812 166.59825 
Q 390.782812 165.051375 391.529062 164.102625 
Q 392.277187 163.153875 393.465937 163.153875 
Q 394.193437 163.153875 394.710937 163.438875 
Q 395.230312 163.722 395.569687 164.307 
z
M 391.896562 166.59825 
Q 391.896562 167.787 392.385937 168.463875 
Q 392.875312 169.14075 393.730312 169.14075 
Q 394.585312 169.14075 395.076562 168.463875 
Q 395.569687 167.787 395.569687 166.59825 
Q 395.569687 165.4095 395.076562 164.732625 
Q 394.585312 164.05575 393.730312 164.05575 
Q 392.875312 164.05575 392.385937 164.732625 
Q 391.896562 165.4095 391.896562 166.59825 
z
M 402.67125 164.31825 
Q 402.489375 164.21325 402.275625 164.1645 
Q 402.061875 164.113875 401.805 164.113875 
Q 400.89 164.113875 400.400625 164.70825 
Q 399.91125 165.302625 399.91125 166.416375 
L 399.91125 169.873875 
L 398.8275 169.873875 
L 398.8275 163.311375 
L 399.91125 163.311375 
L 399.91125 164.331375 
Q 400.2525 163.73325 400.79625 163.4445 
Q 401.341875 163.153875 402.121875 163.153875 
Q 402.2325 163.153875 402.3675 163.168875 
Q 402.5025 163.182 402.665625 163.212 
L 402.67125 164.31825 
z
M 406.074844 164.067 
Q 405.208594 164.067 404.704219 164.743875 
Q 404.199844 165.42075 404.199844 166.59825 
Q 404.199844 167.77575 404.700469 168.452625 
Q 405.202969 169.1295 406.074844 169.1295 
Q 406.937344 169.1295 407.439844 168.45075 
Q 407.944219 167.770125 407.944219 166.59825 
Q 407.944219 165.432 407.439844 164.7495 
Q 406.937344 164.067 406.074844 164.067 
z
M 406.074844 163.153875 
Q 407.481094 163.153875 408.283594 164.068875 
Q 409.087969 164.982 409.087969 166.59825 
Q 409.087969 168.208875 408.283594 169.127625 
Q 407.481094 170.0445 406.074844 170.0445 
Q 404.662969 170.0445 403.862344 169.127625 
Q 403.063594 168.208875 403.063594 166.59825 
Q 403.063594 164.982 403.862344 164.068875 
Q 404.662969 163.153875 406.074844 163.153875 
z
M 415.955391 163.311375 
L 413.581641 166.5045 
L 416.077266 169.873875 
L 414.806016 169.873875 
L 412.895391 167.29575 
L 410.986641 169.873875 
L 409.713516 169.873875 
L 412.263516 166.44075 
L 409.931016 163.311375 
L 411.202266 163.311375 
L 412.942266 165.6495 
L 414.682266 163.311375 
L 415.955391 163.311375 
z
M 420.330703 170.48325 
Q 419.875078 171.655125 419.440078 172.011375 
Q 419.006953 172.3695 418.281328 172.3695 
L 417.418828 172.3695 
L 417.418828 171.467625 
L 418.052578 171.467625 
Q 418.496953 171.467625 418.742578 171.25575 
Q 418.990078 171.04575 419.288203 170.260125 
L 419.481328 169.768875 
L 416.828203 163.311375 
L 417.970078 163.311375 
L 420.021328 168.44325 
L 422.072578 163.311375 
L 423.214453 163.311375 
L 420.330703 170.48325 
z
M 425.769141 161.447625 
L 425.769141 163.311375 
L 427.989141 163.311375 
L 427.989141 164.1495 
L 425.769141 164.1495 
L 425.769141 167.712 
Q 425.769141 168.5145 425.988516 168.74325 
Q 426.207891 168.972 426.882891 168.972 
L 427.989141 168.972 
L 427.989141 169.873875 
L 426.882891 169.873875 
Q 425.634141 169.873875 425.159766 169.408875 
Q 424.685391 168.942 424.685391 167.712 
L 424.685391 164.1495 
L 423.894141 164.1495 
L 423.894141 163.311375 
L 424.685391 163.311375 
L 424.685391 161.447625 
L 425.769141 161.447625 
z
M 433.209844 164.31825 
Q 433.027969 164.21325 432.814219 164.1645 
Q 432.600469 164.113875 432.343594 164.113875 
Q 431.428594 164.113875 430.939219 164.70825 
Q 430.449844 165.302625 430.449844 166.416375 
L 430.449844 169.873875 
L 429.366094 169.873875 
L 429.366094 163.311375 
L 430.449844 163.311375 
L 430.449844 164.331375 
Q 430.791094 163.73325 431.334844 163.4445 
Q 431.880469 163.153875 432.660469 163.153875 
Q 432.771094 163.153875 432.906094 163.168875 
Q 433.041094 163.182 433.204219 163.212 
L 433.209844 164.31825 
z
M 437.070937 170.48325 
Q 436.615312 171.655125 436.180312 172.011375 
Q 435.747187 172.3695 435.021562 172.3695 
L 434.159062 172.3695 
L 434.159062 171.467625 
L 434.792812 171.467625 
Q 435.237187 171.467625 435.482812 171.25575 
Q 435.730312 171.04575 436.028437 170.260125 
L 436.221562 169.768875 
L 433.568437 163.311375 
L 434.710312 163.311375 
L 436.761562 168.44325 
L 438.812812 163.311375 
L 439.954687 163.311375 
L 437.070937 170.48325 
z
M 442.485 168.8895 
L 442.485 172.3695 
L 441.40125 172.3695 
L 441.40125 163.311375 
L 442.485 163.311375 
L 442.485 164.307 
Q 442.82625 163.722 443.34375 163.438875 
Q 443.863125 163.153875 444.583125 163.153875 
Q 445.779375 163.153875 446.525625 164.102625 
Q 447.27375 165.051375 447.27375 166.59825 
Q 447.27375 168.145125 446.525625 169.09575 
Q 445.779375 170.0445 444.583125 170.0445 
Q 443.863125 170.0445 443.34375 169.7595 
Q 442.82625 169.4745 442.485 168.8895 
z
M 446.154375 166.59825 
Q 446.154375 165.4095 445.665 164.732625 
Q 445.175625 164.05575 444.320625 164.05575 
Q 443.46375 164.05575 442.974375 164.732625 
Q 442.485 165.4095 442.485 166.59825 
Q 442.485 167.787 442.974375 168.463875 
Q 443.46375 169.14075 444.320625 169.14075 
Q 445.175625 169.14075 445.665 168.463875 
Q 446.154375 167.787 446.154375 166.59825 
z
M 450.126562 161.447625 
L 450.126562 163.311375 
L 452.346562 163.311375 
L 452.346562 164.1495 
L 450.126562 164.1495 
L 450.126562 167.712 
Q 450.126562 168.5145 450.345937 168.74325 
Q 450.565312 168.972 451.240312 168.972 
L 452.346562 168.972 
L 452.346562 169.873875 
L 451.240312 169.873875 
Q 449.991562 169.873875 449.517187 169.408875 
Q 449.042812 168.942 449.042812 167.712 
L 449.042812 164.1495 
L 448.251562 164.1495 
L 448.251562 163.311375 
L 449.042812 163.311375 
L 449.042812 161.447625 
L 450.126562 161.447625 
z
M 456.747891 166.57575 
Q 455.441016 166.57575 454.936641 166.873875 
Q 454.432266 167.172 454.432266 167.893875 
Q 454.432266 168.467625 454.811016 168.805125 
Q 455.189766 169.14075 455.838516 169.14075 
Q 456.736641 169.14075 457.278516 168.505125 
Q 457.820391 167.8695 457.820391 166.81575 
L 457.820391 166.57575 
L 456.747891 166.57575 
z
M 458.898516 166.1295 
L 458.898516 169.873875 
L 457.820391 169.873875 
L 457.820391 168.87825 
Q 457.451016 169.4745 456.899766 169.7595 
Q 456.348516 170.0445 455.551641 170.0445 
Q 454.544766 170.0445 453.948516 169.47825 
Q 453.354141 168.912 453.354141 167.96325 
Q 453.354141 166.857 454.094766 166.2945 
Q 454.837266 165.732 456.307266 165.732 
L 457.820391 165.732 
L 457.820391 165.625125 
Q 457.820391 164.88075 457.331016 164.473875 
Q 456.841641 164.067 455.956641 164.067 
Q 455.394141 164.067 454.859766 164.202 
Q 454.327266 164.337 453.836016 164.607 
L 453.836016 163.6095 
Q 454.426641 163.38075 454.983516 163.26825 
Q 455.540391 163.153875 456.067266 163.153875 
Q 457.492266 163.153875 458.195391 163.892625 
Q 458.898516 164.6295 458.898516 166.1295 
z
M 466.227656 164.571375 
Q 466.632656 163.843875 467.195156 163.498875 
Q 467.757656 163.153875 468.518906 163.153875 
Q 469.544531 163.153875 470.101406 163.872 
Q 470.658281 164.58825 470.658281 165.912 
L 470.658281 169.873875 
L 469.574531 169.873875 
L 469.574531 165.947625 
Q 469.574531 165.0045 469.238906 164.548875 
Q 468.905156 164.091375 468.220781 164.091375 
Q 467.382656 164.091375 466.895156 164.64825 
Q 466.409531 165.20325 466.409531 166.165125 
L 466.409531 169.873875 
L 465.325781 169.873875 
L 465.325781 165.947625 
Q 465.325781 164.998875 464.992031 164.545125 
Q 464.658281 164.091375 463.960781 164.091375 
Q 463.133906 164.091375 462.646406 164.650125 
Q 462.160781 165.208875 462.160781 166.165125 
L 462.160781 169.873875 
L 461.077031 169.873875 
L 461.077031 163.311375 
L 462.160781 163.311375 
L 462.160781 164.331375 
Q 462.530156 163.727625 463.045781 163.44075 
Q 463.561406 163.153875 464.270156 163.153875 
Q 464.986406 163.153875 465.487031 163.517625 
Q 465.987656 163.8795 466.227656 164.571375 
z
M 472.807734 163.311375 
L 473.885859 163.311375 
L 473.885859 169.873875 
L 472.807734 169.873875 
L 472.807734 163.311375 
z
M 472.807734 160.75575 
L 473.885859 160.75575 
L 473.885859 162.122625 
L 472.807734 162.122625 
L 472.807734 160.75575 
z
M 481.597969 165.912 
L 481.597969 169.873875 
L 480.519844 169.873875 
L 480.519844 165.947625 
Q 480.519844 165.01575 480.156094 164.5545 
Q 479.792344 164.091375 479.066719 164.091375 
Q 478.192969 164.091375 477.688594 164.64825 
Q 477.184219 165.20325 477.184219 166.165125 
L 477.184219 169.873875 
L 476.100469 169.873875 
L 476.100469 163.311375 
L 477.184219 163.311375 
L 477.184219 164.331375 
Q 477.572344 163.738875 478.095469 163.446375 
Q 478.620469 163.153875 479.306719 163.153875 
Q 480.437344 163.153875 481.016719 163.85325 
Q 481.597969 164.552625 481.597969 165.912 
z
M 489.360937 166.322625 
L 489.360937 166.8495 
L 484.403437 166.8495 
Q 484.474687 167.96325 485.074687 168.546375 
Q 485.674687 169.1295 486.747187 169.1295 
Q 487.367812 169.1295 487.950937 168.977625 
Q 488.534062 168.82575 489.109687 168.520125 
L 489.109687 169.540125 
Q 488.528437 169.78575 487.919062 169.915125 
Q 487.309687 170.0445 486.683437 170.0445 
Q 485.112187 170.0445 484.195312 169.131375 
Q 483.278437 168.216375 483.278437 166.656375 
Q 483.278437 165.04575 484.148437 164.10075 
Q 485.018437 163.153875 486.495937 163.153875 
Q 487.819687 163.153875 488.590312 164.007 
Q 489.360937 164.85825 489.360937 166.322625 
z
M 488.282812 166.00575 
Q 488.271562 165.122625 487.787812 164.59575 
Q 487.304062 164.067 486.507187 164.067 
Q 485.605312 164.067 485.063437 164.577 
Q 484.521562 165.087 484.439062 166.01325 
L 488.282812 166.00575 
z
" clip-path="url(#p19e6773ecf)" style="fill: #ffffff"/>
    <path d="M 401.77875 177.755625 
Q 401.596875 177.650625 401.383125 177.601875 
Q 401.169375 177.55125 400.9125 177.55125 
Q 399.9975 177.55125 399.508125 178.145625 
Q 399.01875 178.74 399.01875 179.85375 
L 399.01875 183.31125 
L 397.935 183.31125 
L 397.935 176.74875 
L 399.01875 176.74875 
L 399.01875 177.76875 
Q 399.36 177.170625 399.90375 176.881875 
Q 400.449375 176.59125 401.229375 176.59125 
Q 401.34 176.59125 401.475 176.60625 
Q 401.61 176.619375 401.773125 176.649375 
L 401.77875 177.755625 
z
M 408.253594 179.76 
L 408.253594 180.286875 
L 403.296094 180.286875 
Q 403.367344 181.400625 403.967344 181.98375 
Q 404.567344 182.566875 405.639844 182.566875 
Q 406.260469 182.566875 406.843594 182.415 
Q 407.426719 182.263125 408.002344 181.9575 
L 408.002344 182.9775 
Q 407.421094 183.223125 406.811719 183.3525 
Q 406.202344 183.481875 405.576094 183.481875 
Q 404.004844 183.481875 403.087969 182.56875 
Q 402.171094 181.65375 402.171094 180.09375 
Q 402.171094 178.483125 403.041094 177.538125 
Q 403.911094 176.59125 405.388594 176.59125 
Q 406.712344 176.59125 407.482969 177.444375 
Q 408.253594 178.295625 408.253594 179.76 
z
M 407.175469 179.443125 
Q 407.164219 178.56 406.680469 178.033125 
Q 406.196719 177.504375 405.399844 177.504375 
Q 404.497969 177.504375 403.956094 178.014375 
Q 403.414219 178.524375 403.331719 179.450625 
L 407.175469 179.443125 
z
M 414.745781 177 
L 414.745781 178.00875 
Q 414.288281 177.755625 413.828906 177.63 
Q 413.369531 177.504375 412.900781 177.504375 
Q 411.850781 177.504375 411.269531 178.17 
Q 410.690156 178.83375 410.690156 180.035625 
Q 410.690156 181.2375 411.269531 181.903125 
Q 411.850781 182.566875 412.900781 182.566875 
Q 413.369531 182.566875 413.828906 182.44125 
Q 414.288281 182.315625 414.745781 182.0625 
L 414.745781 183.06 
Q 414.293906 183.27 413.810156 183.375 
Q 413.328281 183.481875 412.782656 183.481875 
Q 411.299531 183.481875 410.425781 182.55 
Q 409.553906 181.618125 409.553906 180.035625 
Q 409.553906 178.430625 410.435156 177.511875 
Q 411.318281 176.59125 412.853906 176.59125 
Q 413.350781 176.59125 413.825156 176.694375 
Q 414.299531 176.795625 414.745781 177 
z
M 422.234062 179.76 
L 422.234062 180.286875 
L 417.276562 180.286875 
Q 417.347812 181.400625 417.947812 181.98375 
Q 418.547812 182.566875 419.620312 182.566875 
Q 420.240937 182.566875 420.824062 182.415 
Q 421.407187 182.263125 421.982812 181.9575 
L 421.982812 182.9775 
Q 421.401562 183.223125 420.792187 183.3525 
Q 420.182812 183.481875 419.556562 183.481875 
Q 417.985312 183.481875 417.068437 182.56875 
Q 416.151562 181.65375 416.151562 180.09375 
Q 416.151562 178.483125 417.021562 177.538125 
Q 417.891562 176.59125 419.369062 176.59125 
Q 420.692812 176.59125 421.463437 177.444375 
Q 422.234062 178.295625 422.234062 179.76 
z
M 421.155937 179.443125 
Q 421.144687 178.56 420.660937 178.033125 
Q 420.177187 177.504375 419.380312 177.504375 
Q 418.478437 177.504375 417.936562 178.014375 
Q 417.394687 178.524375 417.312187 179.450625 
L 421.155937 179.443125 
z
M 425.045625 182.326875 
L 425.045625 185.806875 
L 423.961875 185.806875 
L 423.961875 176.74875 
L 425.045625 176.74875 
L 425.045625 177.744375 
Q 425.386875 177.159375 425.904375 176.87625 
Q 426.42375 176.59125 427.14375 176.59125 
Q 428.34 176.59125 429.08625 177.54 
Q 429.834375 178.48875 429.834375 180.035625 
Q 429.834375 181.5825 429.08625 182.533125 
Q 428.34 183.481875 427.14375 183.481875 
Q 426.42375 183.481875 425.904375 183.196875 
Q 425.386875 182.911875 425.045625 182.326875 
z
M 428.715 180.035625 
Q 428.715 178.846875 428.225625 178.17 
Q 427.73625 177.493125 426.88125 177.493125 
Q 426.024375 177.493125 425.535 178.17 
Q 425.045625 178.846875 425.045625 180.035625 
Q 425.045625 181.224375 425.535 181.90125 
Q 426.024375 182.578125 426.88125 182.578125 
Q 427.73625 182.578125 428.225625 181.90125 
Q 428.715 181.224375 428.715 180.035625 
z
M 432.687187 174.885 
L 432.687187 176.74875 
L 434.907187 176.74875 
L 434.907187 177.586875 
L 432.687187 177.586875 
L 432.687187 181.149375 
Q 432.687187 181.951875 432.906562 182.180625 
Q 433.125937 182.409375 433.800937 182.409375 
L 434.907187 182.409375 
L 434.907187 183.31125 
L 433.800937 183.31125 
Q 432.552187 183.31125 432.077812 182.84625 
Q 431.603437 182.379375 431.603437 181.149375 
L 431.603437 177.586875 
L 430.812187 177.586875 
L 430.812187 176.74875 
L 431.603437 176.74875 
L 431.603437 174.885 
L 432.687187 174.885 
z
M 438.867891 177.504375 
Q 438.001641 177.504375 437.497266 178.18125 
Q 436.992891 178.858125 436.992891 180.035625 
Q 436.992891 181.213125 437.493516 181.89 
Q 437.996016 182.566875 438.867891 182.566875 
Q 439.730391 182.566875 440.232891 181.888125 
Q 440.737266 181.2075 440.737266 180.035625 
Q 440.737266 178.869375 440.232891 178.186875 
Q 439.730391 177.504375 438.867891 177.504375 
z
M 438.867891 176.59125 
Q 440.274141 176.59125 441.076641 177.50625 
Q 441.881016 178.419375 441.881016 180.035625 
Q 441.881016 181.64625 441.076641 182.565 
Q 440.274141 183.481875 438.867891 183.481875 
Q 437.456016 183.481875 436.655391 182.565 
Q 435.856641 181.64625 435.856641 180.035625 
Q 435.856641 178.419375 436.655391 177.50625 
Q 437.456016 176.59125 438.867891 176.59125 
z
M 447.469687 177.755625 
Q 447.287812 177.650625 447.074062 177.601875 
Q 446.860312 177.55125 446.603437 177.55125 
Q 445.688437 177.55125 445.199062 178.145625 
Q 444.709687 178.74 444.709687 179.85375 
L 444.709687 183.31125 
L 443.625937 183.31125 
L 443.625937 176.74875 
L 444.709687 176.74875 
L 444.709687 177.76875 
Q 445.050937 177.170625 445.594687 176.881875 
Q 446.140312 176.59125 446.920312 176.59125 
Q 447.030937 176.59125 447.165937 176.60625 
Q 447.300937 176.619375 447.464062 176.649375 
L 447.469687 177.755625 
z
M 453.587109 182.315625 
L 457.717734 182.315625 
L 457.717734 183.31125 
L 452.163984 183.31125 
L 452.163984 182.315625 
Q 452.837109 181.618125 453.999609 180.444375 
Q 455.163984 179.26875 455.462109 178.9275 
Q 456.030234 178.29 456.255234 177.8475 
Q 456.482109 177.405 456.482109 176.9775 
Q 456.482109 176.28 455.992734 175.84125 
Q 455.503359 175.400625 454.717734 175.400625 
Q 454.160859 175.400625 453.542109 175.59375 
Q 452.925234 175.786875 452.222109 176.180625 
L 452.222109 174.984375 
Q 452.936484 174.6975 453.557109 174.55125 
Q 454.179609 174.405 454.695234 174.405 
Q 456.054609 174.405 456.862734 175.085625 
Q 457.670859 175.764375 457.670859 176.900625 
Q 457.670859 177.440625 457.468359 177.924375 
Q 457.267734 178.40625 456.733359 179.0625 
Q 456.587109 179.233125 455.801484 180.045 
Q 455.017734 180.856875 453.587109 182.315625 
z
M 461.28 179.13375 
L 461.28 182.338125 
L 463.179375 182.338125 
Q 464.13375 182.338125 464.593125 181.9425 
Q 465.054375 181.546875 465.054375 180.733125 
Q 465.054375 179.911875 464.593125 179.52375 
Q 464.13375 179.13375 463.179375 179.13375 
L 461.28 179.13375 
z
M 461.28 175.535625 
L 461.28 178.171875 
L 463.033125 178.171875 
Q 463.899375 178.171875 464.323125 177.8475 
Q 464.74875 177.52125 464.74875 176.85375 
Q 464.74875 176.191875 464.323125 175.86375 
Q 463.899375 175.535625 463.033125 175.535625 
L 461.28 175.535625 
z
M 460.096875 174.5625 
L 463.12125 174.5625 
Q 464.475 174.5625 465.20625 175.125 
Q 465.939375 175.6875 465.939375 176.724375 
Q 465.939375 177.52875 465.564375 178.003125 
Q 465.189375 178.4775 464.461875 178.59375 
Q 465.335625 178.78125 465.819375 179.3775 
Q 466.303125 179.971875 466.303125 180.8625 
Q 466.303125 182.034375 465.50625 182.67375 
Q 464.709375 183.31125 463.2375 183.31125 
L 460.096875 183.31125 
L 460.096875 174.5625 
z
" clip-path="url(#p19e6773ecf)" style="fill: #ffffff; stroke: #000000; stroke-width: 2"/>
    <path d="M 401.77875 177.755625 
Q 401.596875 177.650625 401.383125 177.601875 
Q 401.169375 177.55125 400.9125 177.55125 
Q 399.9975 177.55125 399.508125 178.145625 
Q 399.01875 178.74 399.01875 179.85375 
L 399.01875 183.31125 
L 397.935 183.31125 
L 397.935 176.74875 
L 399.01875 176.74875 
L 399.01875 177.76875 
Q 399.36 177.170625 399.90375 176.881875 
Q 400.449375 176.59125 401.229375 176.59125 
Q 401.34 176.59125 401.475 176.60625 
Q 401.61 176.619375 401.773125 176.649375 
L 401.77875 177.755625 
z
M 408.253594 179.76 
L 408.253594 180.286875 
L 403.296094 180.286875 
Q 403.367344 181.400625 403.967344 181.98375 
Q 404.567344 182.566875 405.639844 182.566875 
Q 406.260469 182.566875 406.843594 182.415 
Q 407.426719 182.263125 408.002344 181.9575 
L 408.002344 182.9775 
Q 407.421094 183.223125 406.811719 183.3525 
Q 406.202344 183.481875 405.576094 183.481875 
Q 404.004844 183.481875 403.087969 182.56875 
Q 402.171094 181.65375 402.171094 180.09375 
Q 402.171094 178.483125 403.041094 177.538125 
Q 403.911094 176.59125 405.388594 176.59125 
Q 406.712344 176.59125 407.482969 177.444375 
Q 408.253594 178.295625 408.253594 179.76 
z
M 407.175469 179.443125 
Q 407.164219 178.56 406.680469 178.033125 
Q 406.196719 177.504375 405.399844 177.504375 
Q 404.497969 177.504375 403.956094 178.014375 
Q 403.414219 178.524375 403.331719 179.450625 
L 407.175469 179.443125 
z
M 414.745781 177 
L 414.745781 178.00875 
Q 414.288281 177.755625 413.828906 177.63 
Q 413.369531 177.504375 412.900781 177.504375 
Q 411.850781 177.504375 411.269531 178.17 
Q 410.690156 178.83375 410.690156 180.035625 
Q 410.690156 181.2375 411.269531 181.903125 
Q 411.850781 182.566875 412.900781 182.566875 
Q 413.369531 182.566875 413.828906 182.44125 
Q 414.288281 182.315625 414.745781 182.0625 
L 414.745781 183.06 
Q 414.293906 183.27 413.810156 183.375 
Q 413.328281 183.481875 412.782656 183.481875 
Q 411.299531 183.481875 410.425781 182.55 
Q 409.553906 181.618125 409.553906 180.035625 
Q 409.553906 178.430625 410.435156 177.511875 
Q 411.318281 176.59125 412.853906 176.59125 
Q 413.350781 176.59125 413.825156 176.694375 
Q 414.299531 176.795625 414.745781 177 
z
M 422.234062 179.76 
L 422.234062 180.286875 
L 417.276562 180.286875 
Q 417.347812 181.400625 417.947812 181.98375 
Q 418.547812 182.566875 419.620312 182.566875 
Q 420.240937 182.566875 420.824062 182.415 
Q 421.407187 182.263125 421.982812 181.9575 
L 421.982812 182.9775 
Q 421.401562 183.223125 420.792187 183.3525 
Q 420.182812 183.481875 419.556562 183.481875 
Q 417.985312 183.481875 417.068437 182.56875 
Q 416.151562 181.65375 416.151562 180.09375 
Q 416.151562 178.483125 417.021562 177.538125 
Q 417.891562 176.59125 419.369062 176.59125 
Q 420.692812 176.59125 421.463437 177.444375 
Q 422.234062 178.295625 422.234062 179.76 
z
M 421.155937 179.443125 
Q 421.144687 178.56 420.660937 178.033125 
Q 420.177187 177.504375 419.380312 177.504375 
Q 418.478437 177.504375 417.936562 178.014375 
Q 417.394687 178.524375 417.312187 179.450625 
L 421.155937 179.443125 
z
M 425.045625 182.326875 
L 425.045625 185.806875 
L 423.961875 185.806875 
L 423.961875 176.74875 
L 425.045625 176.74875 
L 425.045625 177.744375 
Q 425.386875 177.159375 425.904375 176.87625 
Q 426.42375 176.59125 427.14375 176.59125 
Q 428.34 176.59125 429.08625 177.54 
Q 429.834375 178.48875 429.834375 180.035625 
Q 429.834375 181.5825 429.08625 182.533125 
Q 428.34 183.481875 427.14375 183.481875 
Q 426.42375 183.481875 425.904375 183.196875 
Q 425.386875 182.911875 425.045625 182.326875 
z
M 428.715 180.035625 
Q 428.715 178.846875 428.225625 178.17 
Q 427.73625 177.493125 426.88125 177.493125 
Q 426.024375 177.493125 425.535 178.17 
Q 425.045625 178.846875 425.045625 180.035625 
Q 425.045625 181.224375 425.535 181.90125 
Q 426.024375 182.578125 426.88125 182.578125 
Q 427.73625 182.578125 428.225625 181.90125 
Q 428.715 181.224375 428.715 180.035625 
z
M 432.687187 174.885 
L 432.687187 176.74875 
L 434.907187 176.74875 
L 434.907187 177.586875 
L 432.687187 177.586875 
L 432.687187 181.149375 
Q 432.687187 181.951875 432.906562 182.180625 
Q 433.125937 182.409375 433.800937 182.409375 
L 434.907187 182.409375 
L 434.907187 183.31125 
L 433.800937 183.31125 
Q 432.552187 183.31125 432.077812 182.84625 
Q 431.603437 182.379375 431.603437 181.149375 
L 431.603437 177.586875 
L 430.812187 177.586875 
L 430.812187 176.74875 
L 431.603437 176.74875 
L 431.603437 174.885 
L 432.687187 174.885 
z
M 438.867891 177.504375 
Q 438.001641 177.504375 437.497266 178.18125 
Q 436.992891 178.858125 436.992891 180.035625 
Q 436.992891 181.213125 437.493516 181.89 
Q 437.996016 182.566875 438.867891 182.566875 
Q 439.730391 182.566875 440.232891 181.888125 
Q 440.737266 181.2075 440.737266 180.035625 
Q 440.737266 178.869375 440.232891 178.186875 
Q 439.730391 177.504375 438.867891 177.504375 
z
M 438.867891 176.59125 
Q 440.274141 176.59125 441.076641 177.50625 
Q 441.881016 178.419375 441.881016 180.035625 
Q 441.881016 181.64625 441.076641 182.565 
Q 440.274141 183.481875 438.867891 183.481875 
Q 437.456016 183.481875 436.655391 182.565 
Q 435.856641 181.64625 435.856641 180.035625 
Q 435.856641 178.419375 436.655391 177.50625 
Q 437.456016 176.59125 438.867891 176.59125 
z
M 447.469687 177.755625 
Q 447.287812 177.650625 447.074062 177.601875 
Q 446.860312 177.55125 446.603437 177.55125 
Q 445.688437 177.55125 445.199062 178.145625 
Q 444.709687 178.74 444.709687 179.85375 
L 444.709687 183.31125 
L 443.625937 183.31125 
L 443.625937 176.74875 
L 444.709687 176.74875 
L 444.709687 177.76875 
Q 445.050937 177.170625 445.594687 176.881875 
Q 446.140312 176.59125 446.920312 176.59125 
Q 447.030937 176.59125 447.165937 176.60625 
Q 447.300937 176.619375 447.464062 176.649375 
L 447.469687 177.755625 
z
M 453.587109 182.315625 
L 457.717734 182.315625 
L 457.717734 183.31125 
L 452.163984 183.31125 
L 452.163984 182.315625 
Q 452.837109 181.618125 453.999609 180.444375 
Q 455.163984 179.26875 455.462109 178.9275 
Q 456.030234 178.29 456.255234 177.8475 
Q 456.482109 177.405 456.482109 176.9775 
Q 456.482109 176.28 455.992734 175.84125 
Q 455.503359 175.400625 454.717734 175.400625 
Q 454.160859 175.400625 453.542109 175.59375 
Q 452.925234 175.786875 452.222109 176.180625 
L 452.222109 174.984375 
Q 452.936484 174.6975 453.557109 174.55125 
Q 454.179609 174.405 454.695234 174.405 
Q 456.054609 174.405 456.862734 175.085625 
Q 457.670859 175.764375 457.670859 176.900625 
Q 457.670859 177.440625 457.468359 177.924375 
Q 457.267734 178.40625 456.733359 179.0625 
Q 456.587109 179.233125 455.801484 180.045 
Q 455.017734 180.856875 453.587109 182.315625 
z
M 461.28 179.13375 
L 461.28 182.338125 
L 463.179375 182.338125 
Q 464.13375 182.338125 464.593125 181.9425 
Q 465.054375 181.546875 465.054375 180.733125 
Q 465.054375 179.911875 464.593125 179.52375 
Q 464.13375 179.13375 463.179375 179.13375 
L 461.28 179.13375 
z
M 461.28 175.535625 
L 461.28 178.171875 
L 463.033125 178.171875 
Q 463.899375 178.171875 464.323125 177.8475 
Q 464.74875 177.52125 464.74875 176.85375 
Q 464.74875 176.191875 464.323125 175.86375 
Q 463.899375 175.535625 463.033125 175.535625 
L 461.28 175.535625 
z
M 460.096875 174.5625 
L 463.12125 174.5625 
Q 464.475 174.5625 465.20625 175.125 
Q 465.939375 175.6875 465.939375 176.724375 
Q 465.939375 177.52875 465.564375 178.003125 
Q 465.189375 178.4775 464.461875 178.59375 
Q 465.335625 178.78125 465.819375 179.3775 
Q 466.303125 179.971875 466.303125 180.8625 
Q 466.303125 182.034375 465.50625 182.67375 
Q 464.709375 183.31125 463.2375 183.31125 
L 460.096875 183.31125 
L 460.096875 174.5625 
z
" clip-path="url(#p19e6773ecf)" style="fill: #ffffff"/>
    <path d="M 386.5875 187.999875 
L 387.778125 187.999875 
L 387.778125 193.3155 
Q 387.778125 194.72175 388.28625 195.3405 
Q 388.79625 195.957375 389.94 195.957375 
Q 391.07625 195.957375 391.58625 195.3405 
Q 392.09625 194.72175 392.09625 193.3155 
L 392.09625 187.999875 
L 393.285 187.999875 
L 393.285 193.46175 
Q 393.285 195.17175 392.4375 196.0455 
Q 391.591875 196.91925 389.94 196.91925 
Q 388.280625 196.91925 387.433125 196.0455 
Q 386.5875 195.17175 386.5875 193.46175 
L 386.5875 187.999875 
z
M 400.915078 192.78675 
L 400.915078 196.748625 
L 399.836953 196.748625 
L 399.836953 192.822375 
Q 399.836953 191.8905 399.473203 191.42925 
Q 399.109453 190.966125 398.383828 190.966125 
Q 397.510078 190.966125 397.005703 191.523 
Q 396.501328 192.078 396.501328 193.039875 
L 396.501328 196.748625 
L 395.417578 196.748625 
L 395.417578 190.186125 
L 396.501328 190.186125 
L 396.501328 191.206125 
Q 396.889453 190.613625 397.412578 190.321125 
Q 397.937578 190.028625 398.623828 190.028625 
Q 399.754453 190.028625 400.333828 190.728 
Q 400.915078 191.427375 400.915078 192.78675 
z
M 403.064297 190.186125 
L 404.142422 190.186125 
L 404.142422 196.748625 
L 403.064297 196.748625 
L 403.064297 190.186125 
z
M 403.064297 187.6305 
L 404.142422 187.6305 
L 404.142422 188.997375 
L 403.064297 188.997375 
L 403.064297 187.6305 
z
M 407.628281 188.973 
L 407.628281 192.259875 
L 409.117031 192.259875 
Q 409.943906 192.259875 410.393906 191.832375 
Q 410.845781 191.404875 410.845781 190.613625 
Q 410.845781 189.828 410.393906 189.4005 
Q 409.943906 188.973 409.117031 188.973 
L 407.628281 188.973 
z
M 406.445156 187.999875 
L 409.117031 187.999875 
Q 410.588906 187.999875 411.340781 188.6655 
Q 412.094531 189.331125 412.094531 190.613625 
Q 412.094531 191.90925 411.340781 192.571125 
Q 410.588906 193.233 409.117031 193.233 
L 407.628281 193.233 
L 407.628281 196.748625 
L 406.445156 196.748625 
L 406.445156 187.999875 
z
M 417.227109 191.193 
Q 417.045234 191.088 416.831484 191.03925 
Q 416.617734 190.988625 416.360859 190.988625 
Q 415.445859 190.988625 414.956484 191.583 
Q 414.467109 192.177375 414.467109 193.291125 
L 414.467109 196.748625 
L 413.383359 196.748625 
L 413.383359 190.186125 
L 414.467109 190.186125 
L 414.467109 191.206125 
Q 414.808359 190.608 415.352109 190.31925 
Q 415.897734 190.028625 416.677734 190.028625 
Q 416.788359 190.028625 416.923359 190.043625 
Q 417.058359 190.05675 417.221484 190.08675 
L 417.227109 191.193 
z
M 420.630703 190.94175 
Q 419.764453 190.94175 419.260078 191.618625 
Q 418.755703 192.2955 418.755703 193.473 
Q 418.755703 194.6505 419.256328 195.327375 
Q 419.758828 196.00425 420.630703 196.00425 
Q 421.493203 196.00425 421.995703 195.3255 
Q 422.500078 194.644875 422.500078 193.473 
Q 422.500078 192.30675 421.995703 191.62425 
Q 421.493203 190.94175 420.630703 190.94175 
z
M 420.630703 190.028625 
Q 422.036953 190.028625 422.839453 190.943625 
Q 423.643828 191.85675 423.643828 193.473 
Q 423.643828 195.083625 422.839453 196.002375 
Q 422.036953 196.91925 420.630703 196.91925 
Q 419.218828 196.91925 418.418203 196.002375 
Q 417.619453 195.083625 417.619453 193.473 
Q 417.619453 191.85675 418.418203 190.943625 
Q 419.218828 190.028625 420.630703 190.028625 
z
M 426.496875 188.322375 
L 426.496875 190.186125 
L 428.716875 190.186125 
L 428.716875 191.02425 
L 426.496875 191.02425 
L 426.496875 194.58675 
Q 426.496875 195.38925 426.71625 195.618 
Q 426.935625 195.84675 427.610625 195.84675 
L 428.716875 195.84675 
L 428.716875 196.748625 
L 427.610625 196.748625 
Q 426.361875 196.748625 425.8875 196.283625 
Q 425.413125 195.81675 425.413125 194.58675 
L 425.413125 191.02425 
L 424.621875 191.02425 
L 424.621875 190.186125 
L 425.413125 190.186125 
L 425.413125 188.322375 
L 426.496875 188.322375 
z
M 430.410703 195.259875 
L 431.646328 195.259875 
L 431.646328 196.748625 
L 430.410703 196.748625 
L 430.410703 195.259875 
z
M 430.410703 190.54425 
L 431.646328 190.54425 
L 431.646328 192.031125 
L 430.410703 192.031125 
L 430.410703 190.54425 
z
M 435.408047 188.973 
L 435.408047 192.259875 
L 436.896797 192.259875 
Q 437.723672 192.259875 438.173672 191.832375 
Q 438.625547 191.404875 438.625547 190.613625 
Q 438.625547 189.828 438.173672 189.4005 
Q 437.723672 188.973 436.896797 188.973 
L 435.408047 188.973 
z
M 434.224922 187.999875 
L 436.896797 187.999875 
Q 438.368672 187.999875 439.120547 188.6655 
Q 439.874297 189.331125 439.874297 190.613625 
Q 439.874297 191.90925 439.120547 192.571125 
Q 438.368672 193.233 436.896797 193.233 
L 435.408047 193.233 
L 435.408047 196.748625 
L 434.224922 196.748625 
L 434.224922 187.999875 
z
M 444.819375 189.031125 
L 441.830625 193.70175 
L 444.819375 193.70175 
L 444.819375 189.031125 
z
M 444.508125 187.999875 
L 445.996875 187.999875 
L 445.996875 193.70175 
L 447.245625 193.70175 
L 447.245625 194.686125 
L 445.996875 194.686125 
L 445.996875 196.748625 
L 444.819375 196.748625 
L 444.819375 194.686125 
L 440.870625 194.686125 
L 440.870625 193.54425 
L 444.508125 187.999875 
z
M 449.407266 195.753 
L 451.340391 195.753 
L 451.340391 189.078 
L 449.236641 189.499875 
L 449.236641 188.42175 
L 451.329141 187.999875 
L 452.512266 187.999875 
L 452.512266 195.753 
L 454.445391 195.753 
L 454.445391 196.748625 
L 449.407266 196.748625 
L 449.407266 195.753 
z
M 456.848906 187.999875 
L 461.495156 187.999875 
L 461.495156 188.997375 
L 457.932656 188.997375 
L 457.932656 191.1405 
Q 458.189531 191.052375 458.446406 191.00925 
Q 458.705156 190.966125 458.963906 190.966125 
Q 460.428281 190.966125 461.283281 191.768625 
Q 462.140156 192.571125 462.140156 193.94175 
Q 462.140156 195.353625 461.260781 196.137375 
Q 460.381406 196.91925 458.782031 196.91925 
Q 458.230781 196.91925 457.658906 196.8255 
Q 457.088906 196.73175 456.479531 196.54425 
L 456.479531 195.353625 
Q 457.006406 195.6405 457.568906 195.781125 
Q 458.131406 195.92175 458.757656 195.92175 
Q 459.772031 195.92175 460.362656 195.38925 
Q 460.955156 194.85675 460.955156 193.94175 
Q 460.955156 193.028625 460.362656 192.496125 
Q 459.772031 191.96175 458.757656 191.96175 
Q 458.283281 191.96175 457.810781 192.06675 
Q 457.340156 192.17175 456.848906 192.394875 
L 456.848906 187.999875 
z
M 464.506172 196.56675 
L 464.506172 195.488625 
Q 464.952422 195.7005 465.408047 195.811125 
Q 465.865547 195.92175 466.306172 195.92175 
Q 467.478047 195.92175 468.094922 195.13425 
Q 468.713672 194.34675 468.801797 192.739875 
Q 468.462422 193.24425 467.939297 193.51425 
Q 467.418047 193.78425 466.786172 193.78425 
Q 465.473672 193.78425 464.708672 192.991125 
Q 463.943672 192.196125 463.943672 190.818 
Q 463.943672 189.47175 464.740547 188.658 
Q 465.537422 187.842375 466.861172 187.842375 
Q 468.379922 187.842375 469.178672 189.00675 
Q 469.979297 190.16925 469.979297 192.383625 
Q 469.979297 194.45175 468.996797 195.6855 
Q 468.016172 196.91925 466.358672 196.91925 
Q 465.912422 196.91925 465.454922 196.831125 
Q 464.999297 196.743 464.506172 196.56675 
z
M 466.861172 192.858 
Q 467.658047 192.858 468.123047 192.31425 
Q 468.589922 191.768625 468.589922 190.818 
Q 468.589922 189.874875 468.123047 189.327375 
Q 467.658047 188.779875 466.861172 188.779875 
Q 466.064297 188.779875 465.599297 189.327375 
Q 465.134297 189.874875 465.134297 190.818 
Q 465.134297 191.768625 465.599297 192.31425 
Q 466.064297 192.858 466.861172 192.858 
z
M 472.118437 187.999875 
L 476.764687 187.999875 
L 476.764687 188.997375 
L 473.202187 188.997375 
L 473.202187 191.1405 
Q 473.459062 191.052375 473.715937 191.00925 
Q 473.974687 190.966125 474.233437 190.966125 
Q 475.697812 190.966125 476.552812 191.768625 
Q 477.409687 192.571125 477.409687 193.94175 
Q 477.409687 195.353625 476.530312 196.137375 
Q 475.650937 196.91925 474.051562 196.91925 
Q 473.500312 196.91925 472.928437 196.8255 
Q 472.358437 196.73175 471.749062 196.54425 
L 471.749062 195.353625 
Q 472.275937 195.6405 472.838437 195.781125 
Q 473.400937 195.92175 474.027187 195.92175 
Q 475.041562 195.92175 475.632187 195.38925 
Q 476.224687 194.85675 476.224687 193.94175 
Q 476.224687 193.028625 475.632187 192.496125 
Q 475.041562 191.96175 474.027187 191.96175 
Q 473.552812 191.96175 473.080312 192.06675 
Q 472.609687 192.17175 472.118437 192.394875 
L 472.118437 187.999875 
z
" clip-path="url(#p19e6773ecf)" style="fill: #ffffff; stroke: #000000; stroke-width: 2"/>
    <path d="M 386.5875 187.999875 
L 387.778125 187.999875 
L 387.778125 193.3155 
Q 387.778125 194.72175 388.28625 195.3405 
Q 388.79625 195.957375 389.94 195.957375 
Q 391.07625 195.957375 391.58625 195.3405 
Q 392.09625 194.72175 392.09625 193.3155 
L 392.09625 187.999875 
L 393.285 187.999875 
L 393.285 193.46175 
Q 393.285 195.17175 392.4375 196.0455 
Q 391.591875 196.91925 389.94 196.91925 
Q 388.280625 196.91925 387.433125 196.0455 
Q 386.5875 195.17175 386.5875 193.46175 
L 386.5875 187.999875 
z
M 400.915078 192.78675 
L 400.915078 196.748625 
L 399.836953 196.748625 
L 399.836953 192.822375 
Q 399.836953 191.8905 399.473203 191.42925 
Q 399.109453 190.966125 398.383828 190.966125 
Q 397.510078 190.966125 397.005703 191.523 
Q 396.501328 192.078 396.501328 193.039875 
L 396.501328 196.748625 
L 395.417578 196.748625 
L 395.417578 190.186125 
L 396.501328 190.186125 
L 396.501328 191.206125 
Q 396.889453 190.613625 397.412578 190.321125 
Q 397.937578 190.028625 398.623828 190.028625 
Q 399.754453 190.028625 400.333828 190.728 
Q 400.915078 191.427375 400.915078 192.78675 
z
M 403.064297 190.186125 
L 404.142422 190.186125 
L 404.142422 196.748625 
L 403.064297 196.748625 
L 403.064297 190.186125 
z
M 403.064297 187.6305 
L 404.142422 187.6305 
L 404.142422 188.997375 
L 403.064297 188.997375 
L 403.064297 187.6305 
z
M 407.628281 188.973 
L 407.628281 192.259875 
L 409.117031 192.259875 
Q 409.943906 192.259875 410.393906 191.832375 
Q 410.845781 191.404875 410.845781 190.613625 
Q 410.845781 189.828 410.393906 189.4005 
Q 409.943906 188.973 409.117031 188.973 
L 407.628281 188.973 
z
M 406.445156 187.999875 
L 409.117031 187.999875 
Q 410.588906 187.999875 411.340781 188.6655 
Q 412.094531 189.331125 412.094531 190.613625 
Q 412.094531 191.90925 411.340781 192.571125 
Q 410.588906 193.233 409.117031 193.233 
L 407.628281 193.233 
L 407.628281 196.748625 
L 406.445156 196.748625 
L 406.445156 187.999875 
z
M 417.227109 191.193 
Q 417.045234 191.088 416.831484 191.03925 
Q 416.617734 190.988625 416.360859 190.988625 
Q 415.445859 190.988625 414.956484 191.583 
Q 414.467109 192.177375 414.467109 193.291125 
L 414.467109 196.748625 
L 413.383359 196.748625 
L 413.383359 190.186125 
L 414.467109 190.186125 
L 414.467109 191.206125 
Q 414.808359 190.608 415.352109 190.31925 
Q 415.897734 190.028625 416.677734 190.028625 
Q 416.788359 190.028625 416.923359 190.043625 
Q 417.058359 190.05675 417.221484 190.08675 
L 417.227109 191.193 
z
M 420.630703 190.94175 
Q 419.764453 190.94175 419.260078 191.618625 
Q 418.755703 192.2955 418.755703 193.473 
Q 418.755703 194.6505 419.256328 195.327375 
Q 419.758828 196.00425 420.630703 196.00425 
Q 421.493203 196.00425 421.995703 195.3255 
Q 422.500078 194.644875 422.500078 193.473 
Q 422.500078 192.30675 421.995703 191.62425 
Q 421.493203 190.94175 420.630703 190.94175 
z
M 420.630703 190.028625 
Q 422.036953 190.028625 422.839453 190.943625 
Q 423.643828 191.85675 423.643828 193.473 
Q 423.643828 195.083625 422.839453 196.002375 
Q 422.036953 196.91925 420.630703 196.91925 
Q 419.218828 196.91925 418.418203 196.002375 
Q 417.619453 195.083625 417.619453 193.473 
Q 417.619453 191.85675 418.418203 190.943625 
Q 419.218828 190.028625 420.630703 190.028625 
z
M 426.496875 188.322375 
L 426.496875 190.186125 
L 428.716875 190.186125 
L 428.716875 191.02425 
L 426.496875 191.02425 
L 426.496875 194.58675 
Q 426.496875 195.38925 426.71625 195.618 
Q 426.935625 195.84675 427.610625 195.84675 
L 428.716875 195.84675 
L 428.716875 196.748625 
L 427.610625 196.748625 
Q 426.361875 196.748625 425.8875 196.283625 
Q 425.413125 195.81675 425.413125 194.58675 
L 425.413125 191.02425 
L 424.621875 191.02425 
L 424.621875 190.186125 
L 425.413125 190.186125 
L 425.413125 188.322375 
L 426.496875 188.322375 
z
M 430.410703 195.259875 
L 431.646328 195.259875 
L 431.646328 196.748625 
L 430.410703 196.748625 
L 430.410703 195.259875 
z
M 430.410703 190.54425 
L 431.646328 190.54425 
L 431.646328 192.031125 
L 430.410703 192.031125 
L 430.410703 190.54425 
z
M 435.408047 188.973 
L 435.408047 192.259875 
L 436.896797 192.259875 
Q 437.723672 192.259875 438.173672 191.832375 
Q 438.625547 191.404875 438.625547 190.613625 
Q 438.625547 189.828 438.173672 189.4005 
Q 437.723672 188.973 436.896797 188.973 
L 435.408047 188.973 
z
M 434.224922 187.999875 
L 436.896797 187.999875 
Q 438.368672 187.999875 439.120547 188.6655 
Q 439.874297 189.331125 439.874297 190.613625 
Q 439.874297 191.90925 439.120547 192.571125 
Q 438.368672 193.233 436.896797 193.233 
L 435.408047 193.233 
L 435.408047 196.748625 
L 434.224922 196.748625 
L 434.224922 187.999875 
z
M 444.819375 189.031125 
L 441.830625 193.70175 
L 444.819375 193.70175 
L 444.819375 189.031125 
z
M 444.508125 187.999875 
L 445.996875 187.999875 
L 445.996875 193.70175 
L 447.245625 193.70175 
L 447.245625 194.686125 
L 445.996875 194.686125 
L 445.996875 196.748625 
L 444.819375 196.748625 
L 444.819375 194.686125 
L 440.870625 194.686125 
L 440.870625 193.54425 
L 444.508125 187.999875 
z
M 449.407266 195.753 
L 451.340391 195.753 
L 451.340391 189.078 
L 449.236641 189.499875 
L 449.236641 188.42175 
L 451.329141 187.999875 
L 452.512266 187.999875 
L 452.512266 195.753 
L 454.445391 195.753 
L 454.445391 196.748625 
L 449.407266 196.748625 
L 449.407266 195.753 
z
M 456.848906 187.999875 
L 461.495156 187.999875 
L 461.495156 188.997375 
L 457.932656 188.997375 
L 457.932656 191.1405 
Q 458.189531 191.052375 458.446406 191.00925 
Q 458.705156 190.966125 458.963906 190.966125 
Q 460.428281 190.966125 461.283281 191.768625 
Q 462.140156 192.571125 462.140156 193.94175 
Q 462.140156 195.353625 461.260781 196.137375 
Q 460.381406 196.91925 458.782031 196.91925 
Q 458.230781 196.91925 457.658906 196.8255 
Q 457.088906 196.73175 456.479531 196.54425 
L 456.479531 195.353625 
Q 457.006406 195.6405 457.568906 195.781125 
Q 458.131406 195.92175 458.757656 195.92175 
Q 459.772031 195.92175 460.362656 195.38925 
Q 460.955156 194.85675 460.955156 193.94175 
Q 460.955156 193.028625 460.362656 192.496125 
Q 459.772031 191.96175 458.757656 191.96175 
Q 458.283281 191.96175 457.810781 192.06675 
Q 457.340156 192.17175 456.848906 192.394875 
L 456.848906 187.999875 
z
M 464.506172 196.56675 
L 464.506172 195.488625 
Q 464.952422 195.7005 465.408047 195.811125 
Q 465.865547 195.92175 466.306172 195.92175 
Q 467.478047 195.92175 468.094922 195.13425 
Q 468.713672 194.34675 468.801797 192.739875 
Q 468.462422 193.24425 467.939297 193.51425 
Q 467.418047 193.78425 466.786172 193.78425 
Q 465.473672 193.78425 464.708672 192.991125 
Q 463.943672 192.196125 463.943672 190.818 
Q 463.943672 189.47175 464.740547 188.658 
Q 465.537422 187.842375 466.861172 187.842375 
Q 468.379922 187.842375 469.178672 189.00675 
Q 469.979297 190.16925 469.979297 192.383625 
Q 469.979297 194.45175 468.996797 195.6855 
Q 468.016172 196.91925 466.358672 196.91925 
Q 465.912422 196.91925 465.454922 196.831125 
Q 464.999297 196.743 464.506172 196.56675 
z
M 466.861172 192.858 
Q 467.658047 192.858 468.123047 192.31425 
Q 468.589922 191.768625 468.589922 190.818 
Q 468.589922 189.874875 468.123047 189.327375 
Q 467.658047 188.779875 466.861172 188.779875 
Q 466.064297 188.779875 465.599297 189.327375 
Q 465.134297 189.874875 465.134297 190.818 
Q 465.134297 191.768625 465.599297 192.31425 
Q 466.064297 192.858 466.861172 192.858 
z
M 472.118437 187.999875 
L 476.764687 187.999875 
L 476.764687 188.997375 
L 473.202187 188.997375 
L 473.202187 191.1405 
Q 473.459062 191.052375 473.715937 191.00925 
Q 473.974687 190.966125 474.233437 190.966125 
Q 475.697812 190.966125 476.552812 191.768625 
Q 477.409687 192.571125 477.409687 193.94175 
Q 477.409687 195.353625 476.530312 196.137375 
Q 475.650937 196.91925 474.051562 196.91925 
Q 473.500312 196.91925 472.928437 196.8255 
Q 472.358437 196.73175 471.749062 196.54425 
L 471.749062 195.353625 
Q 472.275937 195.6405 472.838437 195.781125 
Q 473.400937 195.92175 474.027187 195.92175 
Q 475.041562 195.92175 475.632187 195.38925 
Q 476.224687 194.85675 476.224687 193.94175 
Q 476.224687 193.028625 475.632187 192.496125 
Q 475.041562 191.96175 474.027187 191.96175 
Q 473.552812 191.96175 473.080312 192.06675 
Q 472.609687 192.17175 472.118437 192.394875 
L 472.118437 187.999875 
z
" clip-path="url(#p19e6773ecf)" style="fill: #ffffff"/>
    <path d="M 413.331562 202.410375 
L 413.331562 205.69725 
L 414.820312 205.69725 
Q 415.647187 205.69725 416.097187 205.26975 
Q 416.549062 204.84225 416.549062 204.051 
Q 416.549062 203.265375 416.097187 202.837875 
Q 415.647187 202.410375 414.820312 202.410375 
L 413.331562 202.410375 
z
M 412.148437 201.43725 
L 414.820312 201.43725 
Q 416.292187 201.43725 417.044062 202.102875 
Q 417.797812 202.7685 417.797812 204.051 
Q 417.797812 205.346625 417.044062 206.0085 
Q 416.292187 206.670375 414.820312 206.670375 
L 413.331562 206.670375 
L 413.331562 210.186 
L 412.148437 210.186 
L 412.148437 201.43725 
z
M 422.930391 204.630375 
Q 422.748516 204.525375 422.534766 204.476625 
Q 422.321016 204.426 422.064141 204.426 
Q 421.149141 204.426 420.659766 205.020375 
Q 420.170391 205.61475 420.170391 206.7285 
L 420.170391 210.186 
L 419.086641 210.186 
L 419.086641 203.6235 
L 420.170391 203.6235 
L 420.170391 204.6435 
Q 420.511641 204.045375 421.055391 203.756625 
Q 421.601016 203.466 422.381016 203.466 
Q 422.491641 203.466 422.626641 203.481 
Q 422.761641 203.494125 422.924766 203.524125 
L 422.930391 204.630375 
z
M 426.333984 204.379125 
Q 425.467734 204.379125 424.963359 205.056 
Q 424.458984 205.732875 424.458984 206.910375 
Q 424.458984 208.087875 424.959609 208.76475 
Q 425.462109 209.441625 426.333984 209.441625 
Q 427.196484 209.441625 427.698984 208.762875 
Q 428.203359 208.08225 428.203359 206.910375 
Q 428.203359 205.744125 427.698984 205.061625 
Q 427.196484 204.379125 426.333984 204.379125 
z
M 426.333984 203.466 
Q 427.740234 203.466 428.542734 204.381 
Q 429.347109 205.294125 429.347109 206.910375 
Q 429.347109 208.521 428.542734 209.43975 
Q 427.740234 210.356625 426.333984 210.356625 
Q 424.922109 210.356625 424.121484 209.43975 
Q 423.322734 208.521 423.322734 206.910375 
Q 423.322734 205.294125 424.121484 204.381 
Q 424.922109 203.466 426.333984 203.466 
z
M 432.200156 201.75975 
L 432.200156 203.6235 
L 434.420156 203.6235 
L 434.420156 204.461625 
L 432.200156 204.461625 
L 432.200156 208.024125 
Q 432.200156 208.826625 432.419531 209.055375 
Q 432.638906 209.284125 433.313906 209.284125 
L 434.420156 209.284125 
L 434.420156 210.186 
L 433.313906 210.186 
Q 432.065156 210.186 431.590781 209.721 
Q 431.116406 209.254125 431.116406 208.024125 
L 431.116406 204.461625 
L 430.325156 204.461625 
L 430.325156 203.6235 
L 431.116406 203.6235 
L 431.116406 201.75975 
L 432.200156 201.75975 
z
M 441.452109 206.63475 
L 441.452109 207.161625 
L 436.494609 207.161625 
Q 436.565859 208.275375 437.165859 208.8585 
Q 437.765859 209.441625 438.838359 209.441625 
Q 439.458984 209.441625 440.042109 209.28975 
Q 440.625234 209.137875 441.200859 208.83225 
L 441.200859 209.85225 
Q 440.619609 210.097875 440.010234 210.22725 
Q 439.400859 210.356625 438.774609 210.356625 
Q 437.203359 210.356625 436.286484 209.4435 
Q 435.369609 208.5285 435.369609 206.9685 
Q 435.369609 205.357875 436.239609 204.412875 
Q 437.109609 203.466 438.587109 203.466 
Q 439.910859 203.466 440.681484 204.319125 
Q 441.452109 205.170375 441.452109 206.63475 
z
M 440.373984 206.317875 
Q 440.362734 205.43475 439.878984 204.907875 
Q 439.395234 204.379125 438.598359 204.379125 
Q 437.696484 204.379125 437.154609 204.889125 
Q 436.612734 205.399125 436.530234 206.325375 
L 440.373984 206.317875 
z
M 443.221172 203.6235 
L 444.299297 203.6235 
L 444.299297 210.186 
L 443.221172 210.186 
L 443.221172 203.6235 
z
M 443.221172 201.067875 
L 444.299297 201.067875 
L 444.299297 202.43475 
L 443.221172 202.43475 
L 443.221172 201.067875 
z
M 452.011406 206.224125 
L 452.011406 210.186 
L 450.933281 210.186 
L 450.933281 206.25975 
Q 450.933281 205.327875 450.569531 204.866625 
Q 450.205781 204.4035 449.480156 204.4035 
Q 448.606406 204.4035 448.102031 204.960375 
Q 447.597656 205.515375 447.597656 206.47725 
L 447.597656 210.186 
L 446.513906 210.186 
L 446.513906 203.6235 
L 447.597656 203.6235 
L 447.597656 204.6435 
Q 447.985781 204.051 448.508906 203.7585 
Q 449.033906 203.466 449.720156 203.466 
Q 450.850781 203.466 451.430156 204.165375 
Q 452.011406 204.86475 452.011406 206.224125 
z
" clip-path="url(#p19e6773ecf)" style="fill: #ffffff; stroke: #000000; stroke-width: 2"/>
    <path d="M 413.331562 202.410375 
L 413.331562 205.69725 
L 414.820312 205.69725 
Q 415.647187 205.69725 416.097187 205.26975 
Q 416.549062 204.84225 416.549062 204.051 
Q 416.549062 203.265375 416.097187 202.837875 
Q 415.647187 202.410375 414.820312 202.410375 
L 413.331562 202.410375 
z
M 412.148437 201.43725 
L 414.820312 201.43725 
Q 416.292187 201.43725 417.044062 202.102875 
Q 417.797812 202.7685 417.797812 204.051 
Q 417.797812 205.346625 417.044062 206.0085 
Q 416.292187 206.670375 414.820312 206.670375 
L 413.331562 206.670375 
L 413.331562 210.186 
L 412.148437 210.186 
L 412.148437 201.43725 
z
M 422.930391 204.630375 
Q 422.748516 204.525375 422.534766 204.476625 
Q 422.321016 204.426 422.064141 204.426 
Q 421.149141 204.426 420.659766 205.020375 
Q 420.170391 205.61475 420.170391 206.7285 
L 420.170391 210.186 
L 419.086641 210.186 
L 419.086641 203.6235 
L 420.170391 203.6235 
L 420.170391 204.6435 
Q 420.511641 204.045375 421.055391 203.756625 
Q 421.601016 203.466 422.381016 203.466 
Q 422.491641 203.466 422.626641 203.481 
Q 422.761641 203.494125 422.924766 203.524125 
L 422.930391 204.630375 
z
M 426.333984 204.379125 
Q 425.467734 204.379125 424.963359 205.056 
Q 424.458984 205.732875 424.458984 206.910375 
Q 424.458984 208.087875 424.959609 208.76475 
Q 425.462109 209.441625 426.333984 209.441625 
Q 427.196484 209.441625 427.698984 208.762875 
Q 428.203359 208.08225 428.203359 206.910375 
Q 428.203359 205.744125 427.698984 205.061625 
Q 427.196484 204.379125 426.333984 204.379125 
z
M 426.333984 203.466 
Q 427.740234 203.466 428.542734 204.381 
Q 429.347109 205.294125 429.347109 206.910375 
Q 429.347109 208.521 428.542734 209.43975 
Q 427.740234 210.356625 426.333984 210.356625 
Q 424.922109 210.356625 424.121484 209.43975 
Q 423.322734 208.521 423.322734 206.910375 
Q 423.322734 205.294125 424.121484 204.381 
Q 424.922109 203.466 426.333984 203.466 
z
M 432.200156 201.75975 
L 432.200156 203.6235 
L 434.420156 203.6235 
L 434.420156 204.461625 
L 432.200156 204.461625 
L 432.200156 208.024125 
Q 432.200156 208.826625 432.419531 209.055375 
Q 432.638906 209.284125 433.313906 209.284125 
L 434.420156 209.284125 
L 434.420156 210.186 
L 433.313906 210.186 
Q 432.065156 210.186 431.590781 209.721 
Q 431.116406 209.254125 431.116406 208.024125 
L 431.116406 204.461625 
L 430.325156 204.461625 
L 430.325156 203.6235 
L 431.116406 203.6235 
L 431.116406 201.75975 
L 432.200156 201.75975 
z
M 441.452109 206.63475 
L 441.452109 207.161625 
L 436.494609 207.161625 
Q 436.565859 208.275375 437.165859 208.8585 
Q 437.765859 209.441625 438.838359 209.441625 
Q 439.458984 209.441625 440.042109 209.28975 
Q 440.625234 209.137875 441.200859 208.83225 
L 441.200859 209.85225 
Q 440.619609 210.097875 440.010234 210.22725 
Q 439.400859 210.356625 438.774609 210.356625 
Q 437.203359 210.356625 436.286484 209.4435 
Q 435.369609 208.5285 435.369609 206.9685 
Q 435.369609 205.357875 436.239609 204.412875 
Q 437.109609 203.466 438.587109 203.466 
Q 439.910859 203.466 440.681484 204.319125 
Q 441.452109 205.170375 441.452109 206.63475 
z
M 440.373984 206.317875 
Q 440.362734 205.43475 439.878984 204.907875 
Q 439.395234 204.379125 438.598359 204.379125 
Q 437.696484 204.379125 437.154609 204.889125 
Q 436.612734 205.399125 436.530234 206.325375 
L 440.373984 206.317875 
z
M 443.221172 203.6235 
L 444.299297 203.6235 
L 444.299297 210.186 
L 443.221172 210.186 
L 443.221172 203.6235 
z
M 443.221172 201.067875 
L 444.299297 201.067875 
L 444.299297 202.43475 
L 443.221172 202.43475 
L 443.221172 201.067875 
z
M 452.011406 206.224125 
L 452.011406 210.186 
L 450.933281 210.186 
L 450.933281 206.25975 
Q 450.933281 205.327875 450.569531 204.866625 
Q 450.205781 204.4035 449.480156 204.4035 
Q 448.606406 204.4035 448.102031 204.960375 
Q 447.597656 205.515375 447.597656 206.47725 
L 447.597656 210.186 
L 446.513906 210.186 
L 446.513906 203.6235 
L 447.597656 203.6235 
L 447.597656 204.6435 
Q 447.985781 204.051 448.508906 203.7585 
Q 449.033906 203.466 449.720156 203.466 
Q 450.850781 203.466 451.430156 204.165375 
Q 452.011406 204.86475 452.011406 206.224125 
z
" clip-path="url(#p19e6773ecf)" style="fill: #ffffff"/>
   </g>
   <g id="text_4">
    <g clip-path="url(#p19e6773ecf)">
     <!-- terguride -->
     <g transform="translate(47.323644 169.873875)scale(0.12 -0.12)">
      <defs>
       <path id="DejaVuSans-67" d="M 2906 1791 
Q 2906 2416 2648 2759 
Q 2391 3103 1925 3103 
Q 1463 3103 1205 2759 
Q 947 2416 947 1791 
Q 947 1169 1205 825 
Q 1463 481 1925 481 
Q 2391 481 2648 825 
Q 2906 1169 2906 1791 
z
M 3481 434 
Q 3481 -459 3084 -895 
Q 2688 -1331 1869 -1331 
Q 1566 -1331 1297 -1286 
Q 1028 -1241 775 -1147 
L 775 -588 
Q 1028 -725 1275 -790 
Q 1522 -856 1778 -856 
Q 2344 -856 2625 -561 
Q 2906 -266 2906 331 
L 2906 616 
Q 2728 306 2450 153 
Q 2172 0 1784 0 
Q 1141 0 747 490 
Q 353 981 353 1791 
Q 353 2603 747 3093 
Q 1141 3584 1784 3584 
Q 2172 3584 2450 3431 
Q 2728 3278 2906 2969 
L 2906 3500 
L 3481 3500 
L 3481 434 
z
" transform="scale(0.015625)"/>
       <path id="DejaVuSans-75" d="M 544 1381 
L 544 3500 
L 1119 3500 
L 1119 1403 
Q 1119 906 1312 657 
Q 1506 409 1894 409 
Q 2359 409 2629 706 
Q 2900 1003 2900 1516 
L 2900 3500 
L 3475 3500 
L 3475 0 
L 2900 0 
L 2900 538 
Q 2691 219 2414 64 
Q 2138 -91 1772 -91 
Q 1169 -91 856 284 
Q 544 659 544 1381 
z
M 1991 3584 
L 1991 3584 
z
" transform="scale(0.015625)"/>
      </defs>
      <use xlink:href="#DejaVuSans-74"/>
      <use xlink:href="#DejaVuSans-65" x="39.208984"/>
      <use xlink:href="#DejaVuSans-72" x="100.732422"/>
      <use xlink:href="#DejaVuSans-67" x="140.095703"/>
      <use xlink:href="#DejaVuSans-75" x="203.572266"/>
      <use xlink:href="#DejaVuSans-72" x="266.951172"/>
      <use xlink:href="#DejaVuSans-69" x="308.064453"/>
      <use xlink:href="#DejaVuSans-64" x="335.847656"/>
      <use xlink:href="#DejaVuSans-65" x="399.324219"/>
     </g>
    </g>
    <g clip-path="url(#p19e6773ecf)">
     <!-- MESH:C006208 -->
     <g transform="translate(28.569894 183.31125)scale(0.12 -0.12)">
      <defs>
       <path id="DejaVuSans-4d" d="M 628 4666 
L 1569 4666 
L 2759 1491 
L 3956 4666 
L 4897 4666 
L 4897 0 
L 4281 0 
L 4281 4097 
L 3078 897 
L 2444 897 
L 1241 4097 
L 1241 0 
L 628 0 
L 628 4666 
z
" transform="scale(0.015625)"/>
       <path id="DejaVuSans-45" d="M 628 4666 
L 3578 4666 
L 3578 4134 
L 1259 4134 
L 1259 2753 
L 3481 2753 
L 3481 2222 
L 1259 2222 
L 1259 531 
L 3634 531 
L 3634 0 
L 628 0 
L 628 4666 
z
" transform="scale(0.015625)"/>
       <path id="DejaVuSans-53" d="M 3425 4513 
L 3425 3897 
Q 3066 4069 2747 4153 
Q 2428 4238 2131 4238 
Q 1616 4238 1336 4038 
Q 1056 3838 1056 3469 
Q 1056 3159 1242 3001 
Q 1428 2844 1947 2747 
L 2328 2669 
Q 3034 2534 3370 2195 
Q 3706 1856 3706 1288 
Q 3706 609 3251 259 
Q 2797 -91 1919 -91 
Q 1588 -91 1214 -16 
Q 841 59 441 206 
L 441 856 
Q 825 641 1194 531 
Q 1563 422 1919 422 
Q 2459 422 2753 634 
Q 3047 847 3047 1241 
Q 3047 1584 2836 1778 
Q 2625 1972 2144 2069 
L 1759 2144 
Q 1053 2284 737 2584 
Q 422 2884 422 3419 
Q 422 4038 858 4394 
Q 1294 4750 2059 4750 
Q 2388 4750 2728 4690 
Q 3069 4631 3425 4513 
z
" transform="scale(0.015625)"/>
       <path id="DejaVuSans-48" d="M 628 4666 
L 1259 4666 
L 1259 2753 
L 3553 2753 
L 3553 4666 
L 4184 4666 
L 4184 0 
L 3553 0 
L 3553 2222 
L 1259 2222 
L 1259 0 
L 628 0 
L 628 4666 
z
" transform="scale(0.015625)"/>
       <path id="DejaVuSans-3a" d="M 750 794 
L 1409 794 
L 1409 0 
L 750 0 
L 750 794 
z
M 750 3309 
L 1409 3309 
L 1409 2516 
L 750 2516 
L 750 3309 
z
" transform="scale(0.015625)"/>
       <path id="DejaVuSans-43" d="M 4122 4306 
L 4122 3641 
Q 3803 3938 3442 4084 
Q 3081 4231 2675 4231 
Q 1875 4231 1450 3742 
Q 1025 3253 1025 2328 
Q 1025 1406 1450 917 
Q 1875 428 2675 428 
Q 3081 428 3442 575 
Q 3803 722 4122 1019 
L 4122 359 
Q 3791 134 3420 21 
Q 3050 -91 2638 -91 
Q 1578 -91 968 557 
Q 359 1206 359 2328 
Q 359 3453 968 4101 
Q 1578 4750 2638 4750 
Q 3056 4750 3426 4639 
Q 3797 4528 4122 4306 
z
" transform="scale(0.015625)"/>
       <path id="DejaVuSans-30" d="M 2034 4250 
Q 1547 4250 1301 3770 
Q 1056 3291 1056 2328 
Q 1056 1369 1301 889 
Q 1547 409 2034 409 
Q 2525 409 2770 889 
Q 3016 1369 3016 2328 
Q 3016 3291 2770 3770 
Q 2525 4250 2034 4250 
z
M 2034 4750 
Q 2819 4750 3233 4129 
Q 3647 3509 3647 2328 
Q 3647 1150 3233 529 
Q 2819 -91 2034 -91 
Q 1250 -91 836 529 
Q 422 1150 422 2328 
Q 422 3509 836 4129 
Q 1250 4750 2034 4750 
z
" transform="scale(0.015625)"/>
       <path id="DejaVuSans-36" d="M 2113 2584 
Q 1688 2584 1439 2293 
Q 1191 2003 1191 1497 
Q 1191 994 1439 701 
Q 1688 409 2113 409 
Q 2538 409 2786 701 
Q 3034 994 3034 1497 
Q 3034 2003 2786 2293 
Q 2538 2584 2113 2584 
z
M 3366 4563 
L 3366 3988 
Q 3128 4100 2886 4159 
Q 2644 4219 2406 4219 
Q 1781 4219 1451 3797 
Q 1122 3375 1075 2522 
Q 1259 2794 1537 2939 
Q 1816 3084 2150 3084 
Q 2853 3084 3261 2657 
Q 3669 2231 3669 1497 
Q 3669 778 3244 343 
Q 2819 -91 2113 -91 
Q 1303 -91 875 529 
Q 447 1150 447 2328 
Q 447 3434 972 4092 
Q 1497 4750 2381 4750 
Q 2619 4750 2861 4703 
Q 3103 4656 3366 4563 
z
" transform="scale(0.015625)"/>
       <path id="DejaVuSans-32" d="M 1228 531 
L 3431 531 
L 3431 0 
L 469 0 
L 469 531 
Q 828 903 1448 1529 
Q 2069 2156 2228 2338 
Q 2531 2678 2651 2914 
Q 2772 3150 2772 3378 
Q 2772 3750 2511 3984 
Q 2250 4219 1831 4219 
Q 1534 4219 1204 4116 
Q 875 4013 500 3803 
L 500 4441 
Q 881 4594 1212 4672 
Q 1544 4750 1819 4750 
Q 2544 4750 2975 4387 
Q 3406 4025 3406 3419 
Q 3406 3131 3298 2873 
Q 3191 2616 2906 2266 
Q 2828 2175 2409 1742 
Q 1991 1309 1228 531 
z
" transform="scale(0.015625)"/>
       <path id="DejaVuSans-38" d="M 2034 2216 
Q 1584 2216 1326 1975 
Q 1069 1734 1069 1313 
Q 1069 891 1326 650 
Q 1584 409 2034 409 
Q 2484 409 2743 651 
Q 3003 894 3003 1313 
Q 3003 1734 2745 1975 
Q 2488 2216 2034 2216 
z
M 1403 2484 
Q 997 2584 770 2862 
Q 544 3141 544 3541 
Q 544 4100 942 4425 
Q 1341 4750 2034 4750 
Q 2731 4750 3128 4425 
Q 3525 4100 3525 3541 
Q 3525 3141 3298 2862 
Q 3072 2584 2669 2484 
Q 3125 2378 3379 2068 
Q 3634 1759 3634 1313 
Q 3634 634 3220 271 
Q 2806 -91 2034 -91 
Q 1263 -91 848 271 
Q 434 634 434 1313 
Q 434 1759 690 2068 
Q 947 2378 1403 2484 
z
M 1172 3481 
Q 1172 3119 1398 2916 
Q 1625 2713 2034 2713 
Q 2441 2713 2670 2916 
Q 2900 3119 2900 3481 
Q 2900 3844 2670 4047 
Q 2441 4250 2034 4250 
Q 1625 4250 1398 4047 
Q 1172 3844 1172 3481 
z
" transform="scale(0.015625)"/>
      </defs>
      <use xlink:href="#DejaVuSans-4d"/>
      <use xlink:href="#DejaVuSans-45" x="86.279297"/>
      <use xlink:href="#DejaVuSans-53" x="149.462891"/>
      <use xlink:href="#DejaVuSans-48" x="212.939453"/>
      <use xlink:href="#DejaVuSans-3a" x="288.134766"/>
      <use xlink:href="#DejaVuSans-43" x="321.826172"/>
      <use xlink:href="#DejaVuSans-30" x="391.650391"/>
      <use xlink:href="#DejaVuSans-30" x="455.273438"/>
      <use xlink:href="#DejaVuSans-36" x="518.896484"/>
      <use xlink:href="#DejaVuSans-32" x="582.519531"/>
      <use xlink:href="#DejaVuSans-30" x="646.142578"/>
      <use xlink:href="#DejaVuSans-38" x="709.765625"/>
     </g>
    </g>
    <g clip-path="url(#p19e6773ecf)">
     <!-- Drug -->
     <g transform="translate(60.277082 196.748625)scale(0.12 -0.12)">
      <defs>
       <path id="DejaVuSans-44" d="M 1259 4147 
L 1259 519 
L 2022 519 
Q 2988 519 3436 956 
Q 3884 1394 3884 2338 
Q 3884 3275 3436 3711 
Q 2988 4147 2022 4147 
L 1259 4147 
z
M 628 4666 
L 1925 4666 
Q 3281 4666 3915 4102 
Q 4550 3538 4550 2338 
Q 4550 1131 3912 565 
Q 3275 0 1925 0 
L 628 0 
L 628 4666 
z
" transform="scale(0.015625)"/>
      </defs>
      <use xlink:href="#DejaVuSans-44"/>
      <use xlink:href="#DejaVuSans-72" x="77.001953"/>
      <use xlink:href="#DejaVuSans-75" x="118.115234"/>
      <use xlink:href="#DejaVuSans-67" x="181.494141"/>
     </g>
    </g>
   </g>
   <g id="text_5">
    <g clip-path="url(#p19e6773ecf)">
     <!-- Pulmonary -->
     <g transform="translate(757.029793 163.155187)scale(0.12 -0.12)">
      <defs>
       <path id="DejaVuSans-50" d="M 1259 4147 
L 1259 2394 
L 2053 2394 
Q 2494 2394 2734 2622 
Q 2975 2850 2975 3272 
Q 2975 3691 2734 3919 
Q 2494 4147 2053 4147 
L 1259 4147 
z
M 628 4666 
L 2053 4666 
Q 2838 4666 3239 4311 
Q 3641 3956 3641 3272 
Q 3641 2581 3239 2228 
Q 2838 1875 2053 1875 
L 1259 1875 
L 1259 0 
L 628 0 
L 628 4666 
z
" transform="scale(0.015625)"/>
       <path id="DejaVuSans-6d" d="M 3328 2828 
Q 3544 3216 3844 3400 
Q 4144 3584 4550 3584 
Q 5097 3584 5394 3201 
Q 5691 2819 5691 2113 
L 5691 0 
L 5113 0 
L 5113 2094 
Q 5113 2597 4934 2840 
Q 4756 3084 4391 3084 
Q 3944 3084 3684 2787 
Q 3425 2491 3425 1978 
L 3425 0 
L 2847 0 
L 2847 2094 
Q 2847 2600 2669 2842 
Q 2491 3084 2119 3084 
Q 1678 3084 1418 2786 
Q 1159 2488 1159 1978 
L 1159 0 
L 581 0 
L 581 3500 
L 1159 3500 
L 1159 2956 
Q 1356 3278 1631 3431 
Q 1906 3584 2284 3584 
Q 2666 3584 2933 3390 
Q 3200 3197 3328 2828 
z
" transform="scale(0.015625)"/>
       <path id="DejaVuSans-6e" d="M 3513 2113 
L 3513 0 
L 2938 0 
L 2938 2094 
Q 2938 2591 2744 2837 
Q 2550 3084 2163 3084 
Q 1697 3084 1428 2787 
Q 1159 2491 1159 1978 
L 1159 0 
L 581 0 
L 581 3500 
L 1159 3500 
L 1159 2956 
Q 1366 3272 1645 3428 
Q 1925 3584 2291 3584 
Q 2894 3584 3203 3211 
Q 3513 2838 3513 2113 
z
" transform="scale(0.015625)"/>
      </defs>
      <use xlink:href="#DejaVuSans-50"/>
      <use xlink:href="#DejaVuSans-75" x="58.552734"/>
      <use xlink:href="#DejaVuSans-6c" x="121.931641"/>
      <use xlink:href="#DejaVuSans-6d" x="149.714844"/>
      <use xlink:href="#DejaVuSans-6f" x="247.126953"/>
      <use xlink:href="#DejaVuSans-6e" x="308.308594"/>
      <use xlink:href="#DejaVuSans-61" x="371.6875"/>
      <use xlink:href="#DejaVuSans-72" x="432.966797"/>
      <use xlink:href="#DejaVuSans-79" x="474.080078"/>
     </g>
    </g>
    <g clip-path="url(#p19e6773ecf)">
     <!-- hypertension -->
     <g transform="translate(749.590731 176.592562)scale(0.12 -0.12)">
      <use xlink:href="#DejaVuSans-68"/>
      <use xlink:href="#DejaVuSans-79" x="63.378906"/>
      <use xlink:href="#DejaVuSans-70" x="122.558594"/>
      <use xlink:href="#DejaVuSans-65" x="186.035156"/>
      <use xlink:href="#DejaVuSans-72" x="247.558594"/>
      <use xlink:href="#DejaVuSans-74" x="288.671875"/>
      <use xlink:href="#DejaVuSans-65" x="327.880859"/>
      <use xlink:href="#DejaVuSans-6e" x="389.404297"/>
      <use xlink:href="#DejaVuSans-73" x="452.783203"/>
      <use xlink:href="#DejaVuSans-69" x="504.882812"/>
      <use xlink:href="#DejaVuSans-6f" x="532.666016"/>
      <use xlink:href="#DejaVuSans-6e" x="593.847656"/>
     </g>
    </g>
    <g clip-path="url(#p19e6773ecf)">
     <!-- MESH:D006976 -->
     <g transform="translate(742.189168 190.029937)scale(0.12 -0.12)">
      <defs>
       <path id="DejaVuSans-39" d="M 703 97 
L 703 672 
Q 941 559 1184 500 
Q 1428 441 1663 441 
Q 2288 441 2617 861 
Q 2947 1281 2994 2138 
Q 2813 1869 2534 1725 
Q 2256 1581 1919 1581 
Q 1219 1581 811 2004 
Q 403 2428 403 3163 
Q 403 3881 828 4315 
Q 1253 4750 1959 4750 
Q 2769 4750 3195 4129 
Q 3622 3509 3622 2328 
Q 3622 1225 3098 567 
Q 2575 -91 1691 -91 
Q 1453 -91 1209 -44 
Q 966 3 703 97 
z
M 1959 2075 
Q 2384 2075 2632 2365 
Q 2881 2656 2881 3163 
Q 2881 3666 2632 3958 
Q 2384 4250 1959 4250 
Q 1534 4250 1286 3958 
Q 1038 3666 1038 3163 
Q 1038 2656 1286 2365 
Q 1534 2075 1959 2075 
z
" transform="scale(0.015625)"/>
       <path id="DejaVuSans-37" d="M 525 4666 
L 3525 4666 
L 3525 4397 
L 1831 0 
L 1172 0 
L 2766 4134 
L 525 4134 
L 525 4666 
z
" transform="scale(0.015625)"/>
      </defs>
      <use xlink:href="#DejaVuSans-4d"/>
      <use xlink:href="#DejaVuSans-45" x="86.279297"/>
      <use xlink:href="#DejaVuSans-53" x="149.462891"/>
      <use xlink:href="#DejaVuSans-48" x="212.939453"/>
      <use xlink:href="#DejaVuSans-3a" x="288.134766"/>
      <use xlink:href="#DejaVuSans-44" x="321.826172"/>
      <use xlink:href="#DejaVuSans-30" x="398.828125"/>
      <use xlink:href="#DejaVuSans-30" x="462.451172"/>
      <use xlink:href="#DejaVuSans-36" x="526.074219"/>
      <use xlink:href="#DejaVuSans-39" x="589.697266"/>
      <use xlink:href="#DejaVuSans-37" x="653.320312"/>
      <use xlink:href="#DejaVuSans-36" x="716.943359"/>
     </g>
    </g>
    <g clip-path="url(#p19e6773ecf)">
     <!-- Disease -->
     <g transform="translate(765.426043 203.467312)scale(0.12 -0.12)">
      <use xlink:href="#DejaVuSans-44"/>
      <use xlink:href="#DejaVuSans-69" x="77.001953"/>
      <use xlink:href="#DejaVuSans-73" x="104.785156"/>
      <use xlink:href="#DejaVuSans-65" x="156.884766"/>
      <use xlink:href="#DejaVuSans-61" x="218.408203"/>
      <use xlink:href="#DejaVuSans-73" x="279.6875"/>
      <use xlink:href="#DejaVuSans-65" x="331.787109"/>
     </g>
    </g>
   </g>
  </g>
 </g>
 <defs>
  <clipPath id="p19e6773ecf">
   <rect x="0" y="0" width="864" height="360"/>
  </clipPath>
 </defs>
</svg>
