<?xml version="1.0" encoding="utf-8" standalone="no"?>
<!DOCTYPE svg PUBLIC "-//W3C//DTD SVG 1.1//EN"
  "http://www.w3.org/Graphics/SVG/1.1/DTD/svg11.dtd">
<svg xmlns:xlink="http://www.w3.org/1999/xlink" width="1036.8pt" height="360pt" viewBox="0 0 1036.8 360" xmlns="http://www.w3.org/2000/svg" version="1.1">
 <metadata>
  <rdf:RDF xmlns:dc="http://purl.org/dc/elements/1.1/" xmlns:cc="http://creativecommons.org/ns#" xmlns:rdf="http://www.w3.org/1999/02/22-rdf-syntax-ns#">
   <cc:Work>
    <dc:type rdf:resource="http://purl.org/dc/dcmitype/StillImage"/>
    <dc:date>2023-02-08T08:50:59.407163</dc:date>
    <dc:format>image/svg+xml</dc:format>
    <dc:creator>
     <cc:Agent>
      <dc:title>Matplotlib v3.5.1, https://matplotlib.org/</dc:title>
     </cc:Agent>
    </dc:creator>
   </cc:Work>
  </rdf:RDF>
 </metadata>
 <defs>
  <style type="text/css">*{stroke-linejoin: round; stroke-linecap: butt}</style>
 </defs>
 <g id="figure_1">
  <g id="patch_1">
   <path d="M 0 360 
L 1036.8 360 
L 1036.8 0 
L 0 0 
z
" style="fill: #ffffff"/>
  </g>
  <g id="axes_1">
   <g id="patch_2">
    <path d="M 142.412623 180 
Q 232.78063 180 319.794535 180 
" clip-path="url(#p931c55ce54)" style="fill: none; stroke: #2ca02c; stroke-width: 3; stroke-linecap: round"/>
    <path d="M 315.794535 178 
L 319.794535 180 
L 315.794535 182 
L 315.794535 178 
z
" clip-path="url(#p931c55ce54)" style="fill: #2ca02c; stroke: #2ca02c; stroke-width: 3; stroke-linecap: round"/>
   </g>
   <g id="patch_3">
    <path d="M 428.032457 180 
Q 518.400465 180 605.41437 180 
" clip-path="url(#p931c55ce54)" style="fill: none; stroke: #2ca02c; stroke-width: 3; stroke-linecap: round"/>
    <path d="M 601.41437 178 
L 605.41437 180 
L 601.41437 182 
L 601.41437 178 
z
" clip-path="url(#p931c55ce54)" style="fill: #2ca02c; stroke: #2ca02c; stroke-width: 3; stroke-linecap: round"/>
   </g>
   <g id="patch_4">
    <path d="M 713.652292 180 
Q 804.020299 180 891.034204 180 
" clip-path="url(#p931c55ce54)" style="fill: none; stroke: #2ca02c; stroke-width: 3; stroke-linecap: round"/>
    <path d="M 887.034204 178 
L 891.034204 180 
L 887.034204 182 
L 887.034204 178 
z
" clip-path="url(#p931c55ce54)" style="fill: #2ca02c; stroke: #2ca02c; stroke-width: 3; stroke-linecap: round"/>
   </g>
   <g id="text_1">
    <g id="patch_5">
     <path d="M 207.410634 193.437969 
L 258.149697 193.437969 
Q 261.149697 193.437969 261.149697 190.437969 
L 261.149697 169.562031 
Q 261.149697 166.562031 258.149697 166.562031 
L 207.410634 166.562031 
Q 204.410634 166.562031 204.410634 169.562031 
L 204.410634 190.437969 
Q 204.410634 193.437969 207.410634 193.437969 
z
" clip-path="url(#p931c55ce54)" style="fill: #ffffff; stroke: #ffffff; stroke-linejoin: miter"/>
    </g>
    <g clip-path="url(#p931c55ce54)">
     <!-- decreases -->
     <g transform="translate(207.410634 177.160469)scale(0.1 -0.1)">
      <defs>
       <path id="DejaVuSans-64" d="M 2906 2969 
L 2906 4863 
L 3481 4863 
L 3481 0 
L 2906 0 
L 2906 525 
Q 2725 213 2448 61 
Q 2172 -91 1784 -91 
Q 1150 -91 751 415 
Q 353 922 353 1747 
Q 353 2572 751 3078 
Q 1150 3584 1784 3584 
Q 2172 3584 2448 3432 
Q 2725 3281 2906 2969 
z
M 947 1747 
Q 947 1113 1208 752 
Q 1469 391 1925 391 
Q 2381 391 2643 752 
Q 2906 1113 2906 1747 
Q 2906 2381 2643 2742 
Q 2381 3103 1925 3103 
Q 1469 3103 1208 2742 
Q 947 2381 947 1747 
z
" transform="scale(0.015625)"/>
       <path id="DejaVuSans-65" d="M 3597 1894 
L 3597 1613 
L 953 1613 
Q 991 1019 1311 708 
Q 1631 397 2203 397 
Q 2534 397 2845 478 
Q 3156 559 3463 722 
L 3463 178 
Q 3153 47 2828 -22 
Q 2503 -91 2169 -91 
Q 1331 -91 842 396 
Q 353 884 353 1716 
Q 353 2575 817 3079 
Q 1281 3584 2069 3584 
Q 2775 3584 3186 3129 
Q 3597 2675 3597 1894 
z
M 3022 2063 
Q 3016 2534 2758 2815 
Q 2500 3097 2075 3097 
Q 1594 3097 1305 2825 
Q 1016 2553 972 2059 
L 3022 2063 
z
" transform="scale(0.015625)"/>
       <path id="DejaVuSans-63" d="M 3122 3366 
L 3122 2828 
Q 2878 2963 2633 3030 
Q 2388 3097 2138 3097 
Q 1578 3097 1268 2742 
Q 959 2388 959 1747 
Q 959 1106 1268 751 
Q 1578 397 2138 397 
Q 2388 397 2633 464 
Q 2878 531 3122 666 
L 3122 134 
Q 2881 22 2623 -34 
Q 2366 -91 2075 -91 
Q 1284 -91 818 406 
Q 353 903 353 1747 
Q 353 2603 823 3093 
Q 1294 3584 2113 3584 
Q 2378 3584 2631 3529 
Q 2884 3475 3122 3366 
z
" transform="scale(0.015625)"/>
       <path id="DejaVuSans-72" d="M 2631 2963 
Q 2534 3019 2420 3045 
Q 2306 3072 2169 3072 
Q 1681 3072 1420 2755 
Q 1159 2438 1159 1844 
L 1159 0 
L 581 0 
L 581 3500 
L 1159 3500 
L 1159 2956 
Q 1341 3275 1631 3429 
Q 1922 3584 2338 3584 
Q 2397 3584 2469 3576 
Q 2541 3569 2628 3553 
L 2631 2963 
z
" transform="scale(0.015625)"/>
       <path id="DejaVuSans-61" d="M 2194 1759 
Q 1497 1759 1228 1600 
Q 959 1441 959 1056 
Q 959 750 1161 570 
Q 1363 391 1709 391 
Q 2188 391 2477 730 
Q 2766 1069 2766 1631 
L 2766 1759 
L 2194 1759 
z
M 3341 1997 
L 3341 0 
L 2766 0 
L 2766 531 
Q 2569 213 2275 61 
Q 1981 -91 1556 -91 
Q 1019 -91 701 211 
Q 384 513 384 1019 
Q 384 1609 779 1909 
Q 1175 2209 1959 2209 
L 2766 2209 
L 2766 2266 
Q 2766 2663 2505 2880 
Q 2244 3097 1772 3097 
Q 1472 3097 1187 3025 
Q 903 2953 641 2809 
L 641 3341 
Q 956 3463 1253 3523 
Q 1550 3584 1831 3584 
Q 2591 3584 2966 3190 
Q 3341 2797 3341 1997 
z
" transform="scale(0.015625)"/>
       <path id="DejaVuSans-73" d="M 2834 3397 
L 2834 2853 
Q 2591 2978 2328 3040 
Q 2066 3103 1784 3103 
Q 1356 3103 1142 2972 
Q 928 2841 928 2578 
Q 928 2378 1081 2264 
Q 1234 2150 1697 2047 
L 1894 2003 
Q 2506 1872 2764 1633 
Q 3022 1394 3022 966 
Q 3022 478 2636 193 
Q 2250 -91 1575 -91 
Q 1294 -91 989 -36 
Q 684 19 347 128 
L 347 722 
Q 666 556 975 473 
Q 1284 391 1588 391 
Q 1994 391 2212 530 
Q 2431 669 2431 922 
Q 2431 1156 2273 1281 
Q 2116 1406 1581 1522 
L 1381 1569 
Q 847 1681 609 1914 
Q 372 2147 372 2553 
Q 372 3047 722 3315 
Q 1072 3584 1716 3584 
Q 2034 3584 2315 3537 
Q 2597 3491 2834 3397 
z
" transform="scale(0.015625)"/>
      </defs>
      <use xlink:href="#DejaVuSans-64"/>
      <use xlink:href="#DejaVuSans-65" x="63.476562"/>
      <use xlink:href="#DejaVuSans-63" x="125"/>
      <use xlink:href="#DejaVuSans-72" x="179.980469"/>
      <use xlink:href="#DejaVuSans-65" x="218.84375"/>
      <use xlink:href="#DejaVuSans-61" x="280.367188"/>
      <use xlink:href="#DejaVuSans-73" x="341.646484"/>
      <use xlink:href="#DejaVuSans-65" x="393.746094"/>
      <use xlink:href="#DejaVuSans-73" x="455.269531"/>
     </g>
    </g>
    <g clip-path="url(#p931c55ce54)">
     <!-- activity of -->
     <g transform="translate(207.941103 188.358281)scale(0.1 -0.1)">
      <defs>
       <path id="DejaVuSans-74" d="M 1172 4494 
L 1172 3500 
L 2356 3500 
L 2356 3053 
L 1172 3053 
L 1172 1153 
Q 1172 725 1289 603 
Q 1406 481 1766 481 
L 2356 481 
L 2356 0 
L 1766 0 
Q 1100 0 847 248 
Q 594 497 594 1153 
L 594 3053 
L 172 3053 
L 172 3500 
L 594 3500 
L 594 4494 
L 1172 4494 
z
" transform="scale(0.015625)"/>
       <path id="DejaVuSans-69" d="M 603 3500 
L 1178 3500 
L 1178 0 
L 603 0 
L 603 3500 
z
M 603 4863 
L 1178 4863 
L 1178 4134 
L 603 4134 
L 603 4863 
z
" transform="scale(0.015625)"/>
       <path id="DejaVuSans-76" d="M 191 3500 
L 800 3500 
L 1894 563 
L 2988 3500 
L 3597 3500 
L 2284 0 
L 1503 0 
L 191 3500 
z
" transform="scale(0.015625)"/>
       <path id="DejaVuSans-79" d="M 2059 -325 
Q 1816 -950 1584 -1140 
Q 1353 -1331 966 -1331 
L 506 -1331 
L 506 -850 
L 844 -850 
Q 1081 -850 1212 -737 
Q 1344 -625 1503 -206 
L 1606 56 
L 191 3500 
L 800 3500 
L 1894 763 
L 2988 3500 
L 3597 3500 
L 2059 -325 
z
" transform="scale(0.015625)"/>
       <path id="DejaVuSans-20" transform="scale(0.015625)"/>
       <path id="DejaVuSans-6f" d="M 1959 3097 
Q 1497 3097 1228 2736 
Q 959 2375 959 1747 
Q 959 1119 1226 758 
Q 1494 397 1959 397 
Q 2419 397 2687 759 
Q 2956 1122 2956 1747 
Q 2956 2369 2687 2733 
Q 2419 3097 1959 3097 
z
M 1959 3584 
Q 2709 3584 3137 3096 
Q 3566 2609 3566 1747 
Q 3566 888 3137 398 
Q 2709 -91 1959 -91 
Q 1206 -91 779 398 
Q 353 888 353 1747 
Q 353 2609 779 3096 
Q 1206 3584 1959 3584 
z
" transform="scale(0.015625)"/>
       <path id="DejaVuSans-66" d="M 2375 4863 
L 2375 4384 
L 1825 4384 
Q 1516 4384 1395 4259 
Q 1275 4134 1275 3809 
L 1275 3500 
L 2222 3500 
L 2222 3053 
L 1275 3053 
L 1275 0 
L 697 0 
L 697 3053 
L 147 3053 
L 147 3500 
L 697 3500 
L 697 3744 
Q 697 4328 969 4595 
Q 1241 4863 1831 4863 
L 2375 4863 
z
" transform="scale(0.015625)"/>
      </defs>
      <use xlink:href="#DejaVuSans-61"/>
      <use xlink:href="#DejaVuSans-63" x="61.279297"/>
      <use xlink:href="#DejaVuSans-74" x="116.259766"/>
      <use xlink:href="#DejaVuSans-69" x="155.46875"/>
      <use xlink:href="#DejaVuSans-76" x="183.251953"/>
      <use xlink:href="#DejaVuSans-69" x="242.431641"/>
      <use xlink:href="#DejaVuSans-74" x="270.214844"/>
      <use xlink:href="#DejaVuSans-79" x="309.423828"/>
      <use xlink:href="#DejaVuSans-20" x="368.603516"/>
      <use xlink:href="#DejaVuSans-6f" x="400.390625"/>
      <use xlink:href="#DejaVuSans-66" x="461.572266"/>
     </g>
    </g>
   </g>
   <g id="text_2">
    <g id="patch_6">
     <path d="M 482.592187 187.839062 
L 554.207812 187.839062 
Q 557.207812 187.839062 557.207812 184.839062 
L 557.207812 175.160937 
Q 557.207812 172.160937 554.207812 172.160937 
L 482.592187 172.160937 
Q 479.592187 172.160937 479.592187 175.160937 
L 479.592187 184.839062 
Q 479.592187 187.839062 482.592187 187.839062 
z
" clip-path="url(#p931c55ce54)" style="fill: #ffffff; stroke: #ffffff; stroke-linejoin: miter"/>
    </g>
    <g clip-path="url(#p931c55ce54)">
     <!-- participates in -->
     <g transform="translate(482.592187 182.759375)scale(0.1 -0.1)">
      <defs>
       <path id="DejaVuSans-70" d="M 1159 525 
L 1159 -1331 
L 581 -1331 
L 581 3500 
L 1159 3500 
L 1159 2969 
Q 1341 3281 1617 3432 
Q 1894 3584 2278 3584 
Q 2916 3584 3314 3078 
Q 3713 2572 3713 1747 
Q 3713 922 3314 415 
Q 2916 -91 2278 -91 
Q 1894 -91 1617 61 
Q 1341 213 1159 525 
z
M 3116 1747 
Q 3116 2381 2855 2742 
Q 2594 3103 2138 3103 
Q 1681 3103 1420 2742 
Q 1159 2381 1159 1747 
Q 1159 1113 1420 752 
Q 1681 391 2138 391 
Q 2594 391 2855 752 
Q 3116 1113 3116 1747 
z
" transform="scale(0.015625)"/>
       <path id="DejaVuSans-6e" d="M 3513 2113 
L 3513 0 
L 2938 0 
L 2938 2094 
Q 2938 2591 2744 2837 
Q 2550 3084 2163 3084 
Q 1697 3084 1428 2787 
Q 1159 2491 1159 1978 
L 1159 0 
L 581 0 
L 581 3500 
L 1159 3500 
L 1159 2956 
Q 1366 3272 1645 3428 
Q 1925 3584 2291 3584 
Q 2894 3584 3203 3211 
Q 3513 2838 3513 2113 
z
" transform="scale(0.015625)"/>
      </defs>
      <use xlink:href="#DejaVuSans-70"/>
      <use xlink:href="#DejaVuSans-61" x="63.476562"/>
      <use xlink:href="#DejaVuSans-72" x="124.755859"/>
      <use xlink:href="#DejaVuSans-74" x="165.869141"/>
      <use xlink:href="#DejaVuSans-69" x="205.078125"/>
      <use xlink:href="#DejaVuSans-63" x="232.861328"/>
      <use xlink:href="#DejaVuSans-69" x="287.841797"/>
      <use xlink:href="#DejaVuSans-70" x="315.625"/>
      <use xlink:href="#DejaVuSans-61" x="379.101562"/>
      <use xlink:href="#DejaVuSans-74" x="440.380859"/>
      <use xlink:href="#DejaVuSans-65" x="479.589844"/>
      <use xlink:href="#DejaVuSans-73" x="541.113281"/>
      <use xlink:href="#DejaVuSans-20" x="593.212891"/>
      <use xlink:href="#DejaVuSans-69" x="625"/>
      <use xlink:href="#DejaVuSans-6e" x="652.783203"/>
     </g>
    </g>
   </g>
   <g id="text_3">
    <g id="patch_7">
     <path d="M 776.511241 193.437969 
L 831.528428 193.437969 
Q 834.528428 193.437969 834.528428 190.437969 
L 834.528428 169.562031 
Q 834.528428 166.562031 831.528428 166.562031 
L 776.511241 166.562031 
Q 773.511241 166.562031 773.511241 169.562031 
L 773.511241 190.437969 
Q 773.511241 193.437969 776.511241 193.437969 
z
" clip-path="url(#p931c55ce54)" style="fill: #ffffff; stroke: #ffffff; stroke-linejoin: miter"/>
    </g>
    <g clip-path="url(#p931c55ce54)">
     <!-- affects risk -->
     <g transform="translate(776.511241 177.160469)scale(0.1 -0.1)">
      <defs>
       <path id="DejaVuSans-6b" d="M 581 4863 
L 1159 4863 
L 1159 1991 
L 2875 3500 
L 3609 3500 
L 1753 1863 
L 3688 0 
L 2938 0 
L 1159 1709 
L 1159 0 
L 581 0 
L 581 4863 
z
" transform="scale(0.015625)"/>
      </defs>
      <use xlink:href="#DejaVuSans-61"/>
      <use xlink:href="#DejaVuSans-66" x="61.279297"/>
      <use xlink:href="#DejaVuSans-66" x="96.484375"/>
      <use xlink:href="#DejaVuSans-65" x="131.689453"/>
      <use xlink:href="#DejaVuSans-63" x="193.212891"/>
      <use xlink:href="#DejaVuSans-74" x="248.193359"/>
      <use xlink:href="#DejaVuSans-73" x="287.402344"/>
      <use xlink:href="#DejaVuSans-20" x="339.501953"/>
      <use xlink:href="#DejaVuSans-72" x="371.289062"/>
      <use xlink:href="#DejaVuSans-69" x="412.402344"/>
      <use xlink:href="#DejaVuSans-73" x="440.185547"/>
      <use xlink:href="#DejaVuSans-6b" x="492.285156"/>
     </g>
    </g>
    <g clip-path="url(#p931c55ce54)">
     <!-- for -->
     <g transform="translate(797.144835 188.358281)scale(0.1 -0.1)">
      <use xlink:href="#DejaVuSans-66"/>
      <use xlink:href="#DejaVuSans-6f" x="35.205078"/>
      <use xlink:href="#DejaVuSans-72" x="96.386719"/>
     </g>
    </g>
   </g>
   <g id="PathCollection_1">
    <defs>
     <path id="C0_0_8b27182cd6" d="M 0 52.440442 
C 13.907368 52.440442 27.246998 46.914987 37.080992 37.080992 
C 46.914987 27.246998 52.440442 13.907368 52.440442 -0 
C 52.440442 -13.907368 46.914987 -27.246998 37.080992 -37.080992 
C 27.246998 -46.914987 13.907368 -52.440442 0 -52.440442 
C -13.907368 -52.440442 -27.246998 -46.914987 -37.080992 -37.080992 
C -46.914987 -27.246998 -52.440442 -13.907368 -52.440442 0 
C -52.440442 13.907368 -46.914987 27.246998 -37.080992 37.080992 
C -27.246998 46.914987 -13.907368 52.440442 0 52.440442 
z
"/>
    </defs>
    <g clip-path="url(#p931c55ce54)">
     <use xlink:href="#C0_0_8b27182cd6" x="89.970248" y="180" style="fill: #01c472; stroke: #01c472"/>
    </g>
    <g clip-path="url(#p931c55ce54)">
     <use xlink:href="#C0_0_8b27182cd6" x="375.590083" y="180" style="fill: #e71761; stroke: #e71761"/>
    </g>
    <g clip-path="url(#p931c55ce54)">
     <use xlink:href="#C0_0_8b27182cd6" x="661.209917" y="180" style="fill: #b1d34f; stroke: #b1d34f"/>
    </g>
    <g clip-path="url(#p931c55ce54)">
     <use xlink:href="#C0_0_8b27182cd6" x="946.829752" y="180" style="fill: #70c6ca; stroke: #70c6ca"/>
    </g>
   </g>
   <g id="text_4">
    <path d="M 347.167895 155.379562 
L 347.167895 162.182062 
L 348.59852 162.182062 
Q 350.40977 162.182062 351.24977 161.362687 
Q 352.08977 160.541437 352.08977 158.771437 
Q 352.08977 157.014562 351.24977 156.197062 
Q 350.40977 155.379562 348.59852 155.379562 
L 347.167895 155.379562 
z
M 345.98477 154.406437 
L 348.416645 154.406437 
Q 350.959145 154.406437 352.147895 155.463937 
Q 353.33852 156.521437 353.33852 158.771437 
Q 353.33852 161.034562 352.14227 162.095812 
Q 350.947895 163.155187 348.416645 163.155187 
L 345.98477 163.155187 
L 345.98477 154.406437 
z
M 357.72063 157.348312 
Q 356.85438 157.348312 356.350005 158.025187 
Q 355.84563 158.702062 355.84563 159.879562 
Q 355.84563 161.057062 356.346255 161.733937 
Q 356.848755 162.410812 357.72063 162.410812 
Q 358.58313 162.410812 359.08563 161.732062 
Q 359.590005 161.051437 359.590005 159.879562 
Q 359.590005 158.713312 359.08563 158.030812 
Q 358.58313 157.348312 357.72063 157.348312 
z
M 357.72063 156.435187 
Q 359.12688 156.435187 359.92938 157.350187 
Q 360.733755 158.263312 360.733755 159.879562 
Q 360.733755 161.490187 359.92938 162.408937 
Q 359.12688 163.325812 357.72063 163.325812 
Q 356.308755 163.325812 355.50813 162.408937 
Q 354.70938 161.490187 354.70938 159.879562 
Q 354.70938 158.263312 355.50813 157.350187 
Q 356.308755 156.435187 357.72063 156.435187 
z
M 363.562426 162.170812 
L 363.562426 165.650812 
L 362.478676 165.650812 
L 362.478676 156.592687 
L 363.562426 156.592687 
L 363.562426 157.588312 
Q 363.903676 157.003312 364.421176 156.720187 
Q 364.940551 156.435187 365.660551 156.435187 
Q 366.856801 156.435187 367.603051 157.383937 
Q 368.351176 158.332687 368.351176 159.879562 
Q 368.351176 161.426437 367.603051 162.377062 
Q 366.856801 163.325812 365.660551 163.325812 
Q 364.940551 163.325812 364.421176 163.040812 
Q 363.903676 162.755812 363.562426 162.170812 
z
M 367.231801 159.879562 
Q 367.231801 158.690812 366.742426 158.013937 
Q 366.253051 157.337062 365.398051 157.337062 
Q 364.541176 157.337062 364.051801 158.013937 
Q 363.562426 158.690812 363.562426 159.879562 
Q 363.562426 161.068312 364.051801 161.745187 
Q 364.541176 162.422062 365.398051 162.422062 
Q 366.253051 162.422062 366.742426 161.745187 
Q 367.231801 161.068312 367.231801 159.879562 
z
M 373.120239 159.857062 
Q 371.813364 159.857062 371.308989 160.155187 
Q 370.804614 160.453312 370.804614 161.175187 
Q 370.804614 161.748937 371.183364 162.086437 
Q 371.562114 162.422062 372.210864 162.422062 
Q 373.108989 162.422062 373.650864 161.786437 
Q 374.192739 161.150812 374.192739 160.097062 
L 374.192739 159.857062 
L 373.120239 159.857062 
z
M 375.270864 159.410812 
L 375.270864 163.155187 
L 374.192739 163.155187 
L 374.192739 162.159562 
Q 373.823364 162.755812 373.272114 163.040812 
Q 372.720864 163.325812 371.923989 163.325812 
Q 370.917114 163.325812 370.320864 162.759562 
Q 369.726489 162.193312 369.726489 161.244562 
Q 369.726489 160.138312 370.467114 159.575812 
Q 371.209614 159.013312 372.679614 159.013312 
L 374.192739 159.013312 
L 374.192739 158.906437 
Q 374.192739 158.162062 373.703364 157.755187 
Q 373.213989 157.348312 372.328989 157.348312 
Q 371.766489 157.348312 371.232114 157.483312 
Q 370.699614 157.618312 370.208364 157.888312 
L 370.208364 156.890812 
Q 370.798989 156.662062 371.355864 156.549562 
Q 371.912739 156.435187 372.439614 156.435187 
Q 373.864614 156.435187 374.567739 157.173937 
Q 375.270864 157.910812 375.270864 159.410812 
z
M 382.600005 157.852687 
Q 383.005005 157.125187 383.567505 156.780187 
Q 384.130005 156.435187 384.891255 156.435187 
Q 385.91688 156.435187 386.473755 157.153312 
Q 387.03063 157.869562 387.03063 159.193312 
L 387.03063 163.155187 
L 385.94688 163.155187 
L 385.94688 159.228937 
Q 385.94688 158.285812 385.611255 157.830187 
Q 385.277505 157.372687 384.59313 157.372687 
Q 383.755005 157.372687 383.267505 157.929562 
Q 382.78188 158.484562 382.78188 159.446437 
L 382.78188 163.155187 
L 381.69813 163.155187 
L 381.69813 159.228937 
Q 381.69813 158.280187 381.36438 157.826437 
Q 381.03063 157.372687 380.33313 157.372687 
Q 379.506255 157.372687 379.018755 157.931437 
Q 378.53313 158.490187 378.53313 159.446437 
L 378.53313 163.155187 
L 377.44938 163.155187 
L 377.44938 156.592687 
L 378.53313 156.592687 
L 378.53313 157.612687 
Q 378.902505 157.008937 379.41813 156.722062 
Q 379.933755 156.435187 380.642505 156.435187 
Q 381.358755 156.435187 381.85938 156.798937 
Q 382.360005 157.160812 382.600005 157.852687 
z
M 389.180083 156.592687 
L 390.258208 156.592687 
L 390.258208 163.155187 
L 389.180083 163.155187 
L 389.180083 156.592687 
z
M 389.180083 154.037062 
L 390.258208 154.037062 
L 390.258208 155.403937 
L 389.180083 155.403937 
L 389.180083 154.037062 
z
M 397.970317 159.193312 
L 397.970317 163.155187 
L 396.892192 163.155187 
L 396.892192 159.228937 
Q 396.892192 158.297062 396.528442 157.835812 
Q 396.164692 157.372687 395.439067 157.372687 
Q 394.565317 157.372687 394.060942 157.929562 
Q 393.556567 158.484562 393.556567 159.446437 
L 393.556567 163.155187 
L 392.472817 163.155187 
L 392.472817 156.592687 
L 393.556567 156.592687 
L 393.556567 157.612687 
Q 393.944692 157.020187 394.467817 156.727687 
Q 394.992817 156.435187 395.679067 156.435187 
Q 396.809692 156.435187 397.389067 157.134562 
Q 397.970317 157.833937 397.970317 159.193312 
z
M 405.733286 159.603937 
L 405.733286 160.130812 
L 400.775786 160.130812 
Q 400.847036 161.244562 401.447036 161.827687 
Q 402.047036 162.410812 403.119536 162.410812 
Q 403.740161 162.410812 404.323286 162.258937 
Q 404.906411 162.107062 405.482036 161.801437 
L 405.482036 162.821437 
Q 404.900786 163.067062 404.291411 163.196437 
Q 403.682036 163.325812 403.055786 163.325812 
Q 401.484536 163.325812 400.567661 162.412687 
Q 399.650786 161.497687 399.650786 159.937687 
Q 399.650786 158.327062 400.520786 157.382062 
Q 401.390786 156.435187 402.868286 156.435187 
Q 404.192036 156.435187 404.962661 157.288312 
Q 405.733286 158.139562 405.733286 159.603937 
z
M 404.655161 159.287062 
Q 404.643911 158.403937 404.160161 157.877062 
Q 403.676411 157.348312 402.879536 157.348312 
Q 401.977661 157.348312 401.435786 157.858312 
Q 400.893911 158.368312 400.811411 159.294562 
L 404.655161 159.287062 
z
" clip-path="url(#p931c55ce54)" style="fill: #ffffff; stroke: #000000; stroke-width: 2"/>
    <path d="M 347.167895 155.379562 
L 347.167895 162.182062 
L 348.59852 162.182062 
Q 350.40977 162.182062 351.24977 161.362687 
Q 352.08977 160.541437 352.08977 158.771437 
Q 352.08977 157.014562 351.24977 156.197062 
Q 350.40977 155.379562 348.59852 155.379562 
L 347.167895 155.379562 
z
M 345.98477 154.406437 
L 348.416645 154.406437 
Q 350.959145 154.406437 352.147895 155.463937 
Q 353.33852 156.521437 353.33852 158.771437 
Q 353.33852 161.034562 352.14227 162.095812 
Q 350.947895 163.155187 348.416645 163.155187 
L 345.98477 163.155187 
L 345.98477 154.406437 
z
M 357.72063 157.348312 
Q 356.85438 157.348312 356.350005 158.025187 
Q 355.84563 158.702062 355.84563 159.879562 
Q 355.84563 161.057062 356.346255 161.733937 
Q 356.848755 162.410812 357.72063 162.410812 
Q 358.58313 162.410812 359.08563 161.732062 
Q 359.590005 161.051437 359.590005 159.879562 
Q 359.590005 158.713312 359.08563 158.030812 
Q 358.58313 157.348312 357.72063 157.348312 
z
M 357.72063 156.435187 
Q 359.12688 156.435187 359.92938 157.350187 
Q 360.733755 158.263312 360.733755 159.879562 
Q 360.733755 161.490187 359.92938 162.408937 
Q 359.12688 163.325812 357.72063 163.325812 
Q 356.308755 163.325812 355.50813 162.408937 
Q 354.70938 161.490187 354.70938 159.879562 
Q 354.70938 158.263312 355.50813 157.350187 
Q 356.308755 156.435187 357.72063 156.435187 
z
M 363.562426 162.170812 
L 363.562426 165.650812 
L 362.478676 165.650812 
L 362.478676 156.592687 
L 363.562426 156.592687 
L 363.562426 157.588312 
Q 363.903676 157.003312 364.421176 156.720187 
Q 364.940551 156.435187 365.660551 156.435187 
Q 366.856801 156.435187 367.603051 157.383937 
Q 368.351176 158.332687 368.351176 159.879562 
Q 368.351176 161.426437 367.603051 162.377062 
Q 366.856801 163.325812 365.660551 163.325812 
Q 364.940551 163.325812 364.421176 163.040812 
Q 363.903676 162.755812 363.562426 162.170812 
z
M 367.231801 159.879562 
Q 367.231801 158.690812 366.742426 158.013937 
Q 366.253051 157.337062 365.398051 157.337062 
Q 364.541176 157.337062 364.051801 158.013937 
Q 363.562426 158.690812 363.562426 159.879562 
Q 363.562426 161.068312 364.051801 161.745187 
Q 364.541176 162.422062 365.398051 162.422062 
Q 366.253051 162.422062 366.742426 161.745187 
Q 367.231801 161.068312 367.231801 159.879562 
z
M 373.120239 159.857062 
Q 371.813364 159.857062 371.308989 160.155187 
Q 370.804614 160.453312 370.804614 161.175187 
Q 370.804614 161.748937 371.183364 162.086437 
Q 371.562114 162.422062 372.210864 162.422062 
Q 373.108989 162.422062 373.650864 161.786437 
Q 374.192739 161.150812 374.192739 160.097062 
L 374.192739 159.857062 
L 373.120239 159.857062 
z
M 375.270864 159.410812 
L 375.270864 163.155187 
L 374.192739 163.155187 
L 374.192739 162.159562 
Q 373.823364 162.755812 373.272114 163.040812 
Q 372.720864 163.325812 371.923989 163.325812 
Q 370.917114 163.325812 370.320864 162.759562 
Q 369.726489 162.193312 369.726489 161.244562 
Q 369.726489 160.138312 370.467114 159.575812 
Q 371.209614 159.013312 372.679614 159.013312 
L 374.192739 159.013312 
L 374.192739 158.906437 
Q 374.192739 158.162062 373.703364 157.755187 
Q 373.213989 157.348312 372.328989 157.348312 
Q 371.766489 157.348312 371.232114 157.483312 
Q 370.699614 157.618312 370.208364 157.888312 
L 370.208364 156.890812 
Q 370.798989 156.662062 371.355864 156.549562 
Q 371.912739 156.435187 372.439614 156.435187 
Q 373.864614 156.435187 374.567739 157.173937 
Q 375.270864 157.910812 375.270864 159.410812 
z
M 382.600005 157.852687 
Q 383.005005 157.125187 383.567505 156.780187 
Q 384.130005 156.435187 384.891255 156.435187 
Q 385.91688 156.435187 386.473755 157.153312 
Q 387.03063 157.869562 387.03063 159.193312 
L 387.03063 163.155187 
L 385.94688 163.155187 
L 385.94688 159.228937 
Q 385.94688 158.285812 385.611255 157.830187 
Q 385.277505 157.372687 384.59313 157.372687 
Q 383.755005 157.372687 383.267505 157.929562 
Q 382.78188 158.484562 382.78188 159.446437 
L 382.78188 163.155187 
L 381.69813 163.155187 
L 381.69813 159.228937 
Q 381.69813 158.280187 381.36438 157.826437 
Q 381.03063 157.372687 380.33313 157.372687 
Q 379.506255 157.372687 379.018755 157.931437 
Q 378.53313 158.490187 378.53313 159.446437 
L 378.53313 163.155187 
L 377.44938 163.155187 
L 377.44938 156.592687 
L 378.53313 156.592687 
L 378.53313 157.612687 
Q 378.902505 157.008937 379.41813 156.722062 
Q 379.933755 156.435187 380.642505 156.435187 
Q 381.358755 156.435187 381.85938 156.798937 
Q 382.360005 157.160812 382.600005 157.852687 
z
M 389.180083 156.592687 
L 390.258208 156.592687 
L 390.258208 163.155187 
L 389.180083 163.155187 
L 389.180083 156.592687 
z
M 389.180083 154.037062 
L 390.258208 154.037062 
L 390.258208 155.403937 
L 389.180083 155.403937 
L 389.180083 154.037062 
z
M 397.970317 159.193312 
L 397.970317 163.155187 
L 396.892192 163.155187 
L 396.892192 159.228937 
Q 396.892192 158.297062 396.528442 157.835812 
Q 396.164692 157.372687 395.439067 157.372687 
Q 394.565317 157.372687 394.060942 157.929562 
Q 393.556567 158.484562 393.556567 159.446437 
L 393.556567 163.155187 
L 392.472817 163.155187 
L 392.472817 156.592687 
L 393.556567 156.592687 
L 393.556567 157.612687 
Q 393.944692 157.020187 394.467817 156.727687 
Q 394.992817 156.435187 395.679067 156.435187 
Q 396.809692 156.435187 397.389067 157.134562 
Q 397.970317 157.833937 397.970317 159.193312 
z
M 405.733286 159.603937 
L 405.733286 160.130812 
L 400.775786 160.130812 
Q 400.847036 161.244562 401.447036 161.827687 
Q 402.047036 162.410812 403.119536 162.410812 
Q 403.740161 162.410812 404.323286 162.258937 
Q 404.906411 162.107062 405.482036 161.801437 
L 405.482036 162.821437 
Q 404.900786 163.067062 404.291411 163.196437 
Q 403.682036 163.325812 403.055786 163.325812 
Q 401.484536 163.325812 400.567661 162.412687 
Q 399.650786 161.497687 399.650786 159.937687 
Q 399.650786 158.327062 400.520786 157.382062 
Q 401.390786 156.435187 402.868286 156.435187 
Q 404.192036 156.435187 404.962661 157.288312 
Q 405.733286 158.139562 405.733286 159.603937 
z
M 404.655161 159.287062 
Q 404.643911 158.403937 404.160161 157.877062 
Q 403.676411 157.348312 402.879536 157.348312 
Q 401.977661 157.348312 401.435786 157.858312 
Q 400.893911 158.368312 400.811411 159.294562 
L 404.655161 159.287062 
z
" clip-path="url(#p931c55ce54)" style="fill: #ffffff"/>
    <path d="M 344.865395 171.036937 
Q 344.68352 170.931937 344.46977 170.883187 
Q 344.25602 170.832562 343.999145 170.832562 
Q 343.084145 170.832562 342.59477 171.426937 
Q 342.105395 172.021312 342.105395 173.135062 
L 342.105395 176.592562 
L 341.021645 176.592562 
L 341.021645 170.030062 
L 342.105395 170.030062 
L 342.105395 171.050062 
Q 342.446645 170.451937 342.990395 170.163187 
Q 343.53602 169.872562 344.31602 169.872562 
Q 344.426645 169.872562 344.561645 169.887562 
Q 344.696645 169.900687 344.85977 169.930687 
L 344.865395 171.036937 
z
M 351.340239 173.041312 
L 351.340239 173.568187 
L 346.382739 173.568187 
Q 346.453989 174.681937 347.053989 175.265062 
Q 347.653989 175.848187 348.726489 175.848187 
Q 349.347114 175.848187 349.930239 175.696312 
Q 350.513364 175.544437 351.088989 175.238812 
L 351.088989 176.258812 
Q 350.507739 176.504437 349.898364 176.633812 
Q 349.288989 176.763187 348.662739 176.763187 
Q 347.091489 176.763187 346.174614 175.850062 
Q 345.257739 174.935062 345.257739 173.375062 
Q 345.257739 171.764437 346.127739 170.819437 
Q 346.997739 169.872562 348.475239 169.872562 
Q 349.798989 169.872562 350.569614 170.725687 
Q 351.340239 171.576937 351.340239 173.041312 
z
M 350.262114 172.724437 
Q 350.250864 171.841312 349.767114 171.314437 
Q 349.283364 170.785687 348.486489 170.785687 
Q 347.584614 170.785687 347.042739 171.295687 
Q 346.500864 171.805687 346.418364 172.731937 
L 350.262114 172.724437 
z
M 357.832426 170.281312 
L 357.832426 171.290062 
Q 357.374926 171.036937 356.915551 170.911312 
Q 356.456176 170.785687 355.987426 170.785687 
Q 354.937426 170.785687 354.356176 171.451312 
Q 353.776801 172.115062 353.776801 173.316937 
Q 353.776801 174.518812 354.356176 175.184437 
Q 354.937426 175.848187 355.987426 175.848187 
Q 356.456176 175.848187 356.915551 175.722562 
Q 357.374926 175.596937 357.832426 175.343812 
L 357.832426 176.341312 
Q 357.380551 176.551312 356.896801 176.656312 
Q 356.414926 176.763187 355.869301 176.763187 
Q 354.386176 176.763187 353.512426 175.831312 
Q 352.640551 174.899437 352.640551 173.316937 
Q 352.640551 171.711937 353.521801 170.793187 
Q 354.404926 169.872562 355.940551 169.872562 
Q 356.437426 169.872562 356.911801 169.975687 
Q 357.386176 170.076937 357.832426 170.281312 
z
M 365.320708 173.041312 
L 365.320708 173.568187 
L 360.363208 173.568187 
Q 360.434458 174.681937 361.034458 175.265062 
Q 361.634458 175.848187 362.706958 175.848187 
Q 363.327583 175.848187 363.910708 175.696312 
Q 364.493833 175.544437 365.069458 175.238812 
L 365.069458 176.258812 
Q 364.488208 176.504437 363.878833 176.633812 
Q 363.269458 176.763187 362.643208 176.763187 
Q 361.071958 176.763187 360.155083 175.850062 
Q 359.238208 174.935062 359.238208 173.375062 
Q 359.238208 171.764437 360.108208 170.819437 
Q 360.978208 169.872562 362.455708 169.872562 
Q 363.779458 169.872562 364.550083 170.725687 
Q 365.320708 171.576937 365.320708 173.041312 
z
M 364.242583 172.724437 
Q 364.231333 171.841312 363.747583 171.314437 
Q 363.263833 170.785687 362.466958 170.785687 
Q 361.565083 170.785687 361.023208 171.295687 
Q 360.481333 171.805687 360.398833 172.731937 
L 364.242583 172.724437 
z
M 368.13227 175.608187 
L 368.13227 179.088187 
L 367.04852 179.088187 
L 367.04852 170.030062 
L 368.13227 170.030062 
L 368.13227 171.025687 
Q 368.47352 170.440687 368.99102 170.157562 
Q 369.510395 169.872562 370.230395 169.872562 
Q 371.426645 169.872562 372.172895 170.821312 
Q 372.92102 171.770062 372.92102 173.316937 
Q 372.92102 174.863812 372.172895 175.814437 
Q 371.426645 176.763187 370.230395 176.763187 
Q 369.510395 176.763187 368.99102 176.478187 
Q 368.47352 176.193187 368.13227 175.608187 
z
M 371.801645 173.316937 
Q 371.801645 172.128187 371.31227 171.451312 
Q 370.822895 170.774437 369.967895 170.774437 
Q 369.11102 170.774437 368.621645 171.451312 
Q 368.13227 172.128187 368.13227 173.316937 
Q 368.13227 174.505687 368.621645 175.182562 
Q 369.11102 175.859437 369.967895 175.859437 
Q 370.822895 175.859437 371.31227 175.182562 
Q 371.801645 174.505687 371.801645 173.316937 
z
M 375.773833 168.166312 
L 375.773833 170.030062 
L 377.993833 170.030062 
L 377.993833 170.868187 
L 375.773833 170.868187 
L 375.773833 174.430687 
Q 375.773833 175.233187 375.993208 175.461937 
Q 376.212583 175.690687 376.887583 175.690687 
L 377.993833 175.690687 
L 377.993833 176.592562 
L 376.887583 176.592562 
Q 375.638833 176.592562 375.164458 176.127562 
Q 374.690083 175.660687 374.690083 174.430687 
L 374.690083 170.868187 
L 373.898833 170.868187 
L 373.898833 170.030062 
L 374.690083 170.030062 
L 374.690083 168.166312 
L 375.773833 168.166312 
z
M 381.954536 170.785687 
Q 381.088286 170.785687 380.583911 171.462562 
Q 380.079536 172.139437 380.079536 173.316937 
Q 380.079536 174.494437 380.580161 175.171312 
Q 381.082661 175.848187 381.954536 175.848187 
Q 382.817036 175.848187 383.319536 175.169437 
Q 383.823911 174.488812 383.823911 173.316937 
Q 383.823911 172.150687 383.319536 171.468187 
Q 382.817036 170.785687 381.954536 170.785687 
z
M 381.954536 169.872562 
Q 383.360786 169.872562 384.163286 170.787562 
Q 384.967661 171.700687 384.967661 173.316937 
Q 384.967661 174.927562 384.163286 175.846312 
Q 383.360786 176.763187 381.954536 176.763187 
Q 380.542661 176.763187 379.742036 175.846312 
Q 378.943286 174.927562 378.943286 173.316937 
Q 378.943286 171.700687 379.742036 170.787562 
Q 380.542661 169.872562 381.954536 169.872562 
z
M 390.556333 171.036937 
Q 390.374458 170.931937 390.160708 170.883187 
Q 389.946958 170.832562 389.690083 170.832562 
Q 388.775083 170.832562 388.285708 171.426937 
Q 387.796333 172.021312 387.796333 173.135062 
L 387.796333 176.592562 
L 386.712583 176.592562 
L 386.712583 170.030062 
L 387.796333 170.030062 
L 387.796333 171.050062 
Q 388.137583 170.451937 388.681333 170.163187 
Q 389.226958 169.872562 390.006958 169.872562 
Q 390.117583 169.872562 390.252583 169.887562 
Q 390.387583 169.900687 390.550708 169.930687 
L 390.556333 171.036937 
z
M 396.73188 168.816937 
L 396.73188 175.619437 
L 398.162505 175.619437 
Q 399.973755 175.619437 400.813755 174.800062 
Q 401.653755 173.978812 401.653755 172.208812 
Q 401.653755 170.451937 400.813755 169.634437 
Q 399.973755 168.816937 398.162505 168.816937 
L 396.73188 168.816937 
z
M 395.548755 167.843812 
L 397.98063 167.843812 
Q 400.52313 167.843812 401.71188 168.901312 
Q 402.902505 169.958812 402.902505 172.208812 
Q 402.902505 174.471937 401.706255 175.533187 
Q 400.51188 176.592562 397.98063 176.592562 
L 395.548755 176.592562 
L 395.548755 167.843812 
z
M 405.913989 175.596937 
L 410.044614 175.596937 
L 410.044614 176.592562 
L 404.490864 176.592562 
L 404.490864 175.596937 
Q 405.163989 174.899437 406.326489 173.725687 
Q 407.490864 172.550062 407.788989 172.208812 
Q 408.357114 171.571312 408.582114 171.128812 
Q 408.808989 170.686312 408.808989 170.258812 
Q 408.808989 169.561312 408.319614 169.122562 
Q 407.830239 168.681937 407.044614 168.681937 
Q 406.487739 168.681937 405.868989 168.875062 
Q 405.252114 169.068187 404.548989 169.461937 
L 404.548989 168.265687 
Q 405.263364 167.978812 405.883989 167.832562 
Q 406.506489 167.686312 407.022114 167.686312 
Q 408.381489 167.686312 409.189614 168.366937 
Q 409.997739 169.045687 409.997739 170.181937 
Q 409.997739 170.721937 409.795239 171.205687 
Q 409.594614 171.687562 409.060239 172.343812 
Q 408.913989 172.514437 408.128364 173.326312 
Q 407.344614 174.138187 405.913989 175.596937 
z
" clip-path="url(#p931c55ce54)" style="fill: #ffffff; stroke: #000000; stroke-width: 2"/>
    <path d="M 344.865395 171.036937 
Q 344.68352 170.931937 344.46977 170.883187 
Q 344.25602 170.832562 343.999145 170.832562 
Q 343.084145 170.832562 342.59477 171.426937 
Q 342.105395 172.021312 342.105395 173.135062 
L 342.105395 176.592562 
L 341.021645 176.592562 
L 341.021645 170.030062 
L 342.105395 170.030062 
L 342.105395 171.050062 
Q 342.446645 170.451937 342.990395 170.163187 
Q 343.53602 169.872562 344.31602 169.872562 
Q 344.426645 169.872562 344.561645 169.887562 
Q 344.696645 169.900687 344.85977 169.930687 
L 344.865395 171.036937 
z
M 351.340239 173.041312 
L 351.340239 173.568187 
L 346.382739 173.568187 
Q 346.453989 174.681937 347.053989 175.265062 
Q 347.653989 175.848187 348.726489 175.848187 
Q 349.347114 175.848187 349.930239 175.696312 
Q 350.513364 175.544437 351.088989 175.238812 
L 351.088989 176.258812 
Q 350.507739 176.504437 349.898364 176.633812 
Q 349.288989 176.763187 348.662739 176.763187 
Q 347.091489 176.763187 346.174614 175.850062 
Q 345.257739 174.935062 345.257739 173.375062 
Q 345.257739 171.764437 346.127739 170.819437 
Q 346.997739 169.872562 348.475239 169.872562 
Q 349.798989 169.872562 350.569614 170.725687 
Q 351.340239 171.576937 351.340239 173.041312 
z
M 350.262114 172.724437 
Q 350.250864 171.841312 349.767114 171.314437 
Q 349.283364 170.785687 348.486489 170.785687 
Q 347.584614 170.785687 347.042739 171.295687 
Q 346.500864 171.805687 346.418364 172.731937 
L 350.262114 172.724437 
z
M 357.832426 170.281312 
L 357.832426 171.290062 
Q 357.374926 171.036937 356.915551 170.911312 
Q 356.456176 170.785687 355.987426 170.785687 
Q 354.937426 170.785687 354.356176 171.451312 
Q 353.776801 172.115062 353.776801 173.316937 
Q 353.776801 174.518812 354.356176 175.184437 
Q 354.937426 175.848187 355.987426 175.848187 
Q 356.456176 175.848187 356.915551 175.722562 
Q 357.374926 175.596937 357.832426 175.343812 
L 357.832426 176.341312 
Q 357.380551 176.551312 356.896801 176.656312 
Q 356.414926 176.763187 355.869301 176.763187 
Q 354.386176 176.763187 353.512426 175.831312 
Q 352.640551 174.899437 352.640551 173.316937 
Q 352.640551 171.711937 353.521801 170.793187 
Q 354.404926 169.872562 355.940551 169.872562 
Q 356.437426 169.872562 356.911801 169.975687 
Q 357.386176 170.076937 357.832426 170.281312 
z
M 365.320708 173.041312 
L 365.320708 173.568187 
L 360.363208 173.568187 
Q 360.434458 174.681937 361.034458 175.265062 
Q 361.634458 175.848187 362.706958 175.848187 
Q 363.327583 175.848187 363.910708 175.696312 
Q 364.493833 175.544437 365.069458 175.238812 
L 365.069458 176.258812 
Q 364.488208 176.504437 363.878833 176.633812 
Q 363.269458 176.763187 362.643208 176.763187 
Q 361.071958 176.763187 360.155083 175.850062 
Q 359.238208 174.935062 359.238208 173.375062 
Q 359.238208 171.764437 360.108208 170.819437 
Q 360.978208 169.872562 362.455708 169.872562 
Q 363.779458 169.872562 364.550083 170.725687 
Q 365.320708 171.576937 365.320708 173.041312 
z
M 364.242583 172.724437 
Q 364.231333 171.841312 363.747583 171.314437 
Q 363.263833 170.785687 362.466958 170.785687 
Q 361.565083 170.785687 361.023208 171.295687 
Q 360.481333 171.805687 360.398833 172.731937 
L 364.242583 172.724437 
z
M 368.13227 175.608187 
L 368.13227 179.088187 
L 367.04852 179.088187 
L 367.04852 170.030062 
L 368.13227 170.030062 
L 368.13227 171.025687 
Q 368.47352 170.440687 368.99102 170.157562 
Q 369.510395 169.872562 370.230395 169.872562 
Q 371.426645 169.872562 372.172895 170.821312 
Q 372.92102 171.770062 372.92102 173.316937 
Q 372.92102 174.863812 372.172895 175.814437 
Q 371.426645 176.763187 370.230395 176.763187 
Q 369.510395 176.763187 368.99102 176.478187 
Q 368.47352 176.193187 368.13227 175.608187 
z
M 371.801645 173.316937 
Q 371.801645 172.128187 371.31227 171.451312 
Q 370.822895 170.774437 369.967895 170.774437 
Q 369.11102 170.774437 368.621645 171.451312 
Q 368.13227 172.128187 368.13227 173.316937 
Q 368.13227 174.505687 368.621645 175.182562 
Q 369.11102 175.859437 369.967895 175.859437 
Q 370.822895 175.859437 371.31227 175.182562 
Q 371.801645 174.505687 371.801645 173.316937 
z
M 375.773833 168.166312 
L 375.773833 170.030062 
L 377.993833 170.030062 
L 377.993833 170.868187 
L 375.773833 170.868187 
L 375.773833 174.430687 
Q 375.773833 175.233187 375.993208 175.461937 
Q 376.212583 175.690687 376.887583 175.690687 
L 377.993833 175.690687 
L 377.993833 176.592562 
L 376.887583 176.592562 
Q 375.638833 176.592562 375.164458 176.127562 
Q 374.690083 175.660687 374.690083 174.430687 
L 374.690083 170.868187 
L 373.898833 170.868187 
L 373.898833 170.030062 
L 374.690083 170.030062 
L 374.690083 168.166312 
L 375.773833 168.166312 
z
M 381.954536 170.785687 
Q 381.088286 170.785687 380.583911 171.462562 
Q 380.079536 172.139437 380.079536 173.316937 
Q 380.079536 174.494437 380.580161 175.171312 
Q 381.082661 175.848187 381.954536 175.848187 
Q 382.817036 175.848187 383.319536 175.169437 
Q 383.823911 174.488812 383.823911 173.316937 
Q 383.823911 172.150687 383.319536 171.468187 
Q 382.817036 170.785687 381.954536 170.785687 
z
M 381.954536 169.872562 
Q 383.360786 169.872562 384.163286 170.787562 
Q 384.967661 171.700687 384.967661 173.316937 
Q 384.967661 174.927562 384.163286 175.846312 
Q 383.360786 176.763187 381.954536 176.763187 
Q 380.542661 176.763187 379.742036 175.846312 
Q 378.943286 174.927562 378.943286 173.316937 
Q 378.943286 171.700687 379.742036 170.787562 
Q 380.542661 169.872562 381.954536 169.872562 
z
M 390.556333 171.036937 
Q 390.374458 170.931937 390.160708 170.883187 
Q 389.946958 170.832562 389.690083 170.832562 
Q 388.775083 170.832562 388.285708 171.426937 
Q 387.796333 172.021312 387.796333 173.135062 
L 387.796333 176.592562 
L 386.712583 176.592562 
L 386.712583 170.030062 
L 387.796333 170.030062 
L 387.796333 171.050062 
Q 388.137583 170.451937 388.681333 170.163187 
Q 389.226958 169.872562 390.006958 169.872562 
Q 390.117583 169.872562 390.252583 169.887562 
Q 390.387583 169.900687 390.550708 169.930687 
L 390.556333 171.036937 
z
M 396.73188 168.816937 
L 396.73188 175.619437 
L 398.162505 175.619437 
Q 399.973755 175.619437 400.813755 174.800062 
Q 401.653755 173.978812 401.653755 172.208812 
Q 401.653755 170.451937 400.813755 169.634437 
Q 399.973755 168.816937 398.162505 168.816937 
L 396.73188 168.816937 
z
M 395.548755 167.843812 
L 397.98063 167.843812 
Q 400.52313 167.843812 401.71188 168.901312 
Q 402.902505 169.958812 402.902505 172.208812 
Q 402.902505 174.471937 401.706255 175.533187 
Q 400.51188 176.592562 397.98063 176.592562 
L 395.548755 176.592562 
L 395.548755 167.843812 
z
M 405.913989 175.596937 
L 410.044614 175.596937 
L 410.044614 176.592562 
L 404.490864 176.592562 
L 404.490864 175.596937 
Q 405.163989 174.899437 406.326489 173.725687 
Q 407.490864 172.550062 407.788989 172.208812 
Q 408.357114 171.571312 408.582114 171.128812 
Q 408.808989 170.686312 408.808989 170.258812 
Q 408.808989 169.561312 408.319614 169.122562 
Q 407.830239 168.681937 407.044614 168.681937 
Q 406.487739 168.681937 405.868989 168.875062 
Q 405.252114 169.068187 404.548989 169.461937 
L 404.548989 168.265687 
Q 405.263364 167.978812 405.883989 167.832562 
Q 406.506489 167.686312 407.022114 167.686312 
Q 408.381489 167.686312 409.189614 168.366937 
Q 409.997739 169.045687 409.997739 170.181937 
Q 409.997739 170.721937 409.795239 171.205687 
Q 409.594614 171.687562 409.060239 172.343812 
Q 408.913989 172.514437 408.128364 173.326312 
Q 407.344614 174.138187 405.913989 175.596937 
z
" clip-path="url(#p931c55ce54)" style="fill: #ffffff"/>
    <path d="M 330.177583 181.281187 
L 331.368208 181.281187 
L 331.368208 186.596812 
Q 331.368208 188.003062 331.876333 188.621812 
Q 332.386333 189.238687 333.530083 189.238687 
Q 334.666333 189.238687 335.176333 188.621812 
Q 335.686333 188.003062 335.686333 186.596812 
L 335.686333 181.281187 
L 336.875083 181.281187 
L 336.875083 186.743062 
Q 336.875083 188.453062 336.027583 189.326812 
Q 335.181958 190.200562 333.530083 190.200562 
Q 331.870708 190.200562 331.023208 189.326812 
Q 330.177583 188.453062 330.177583 186.743062 
L 330.177583 181.281187 
z
M 344.505161 186.068062 
L 344.505161 190.029937 
L 343.427036 190.029937 
L 343.427036 186.103687 
Q 343.427036 185.171812 343.063286 184.710562 
Q 342.699536 184.247437 341.973911 184.247437 
Q 341.100161 184.247437 340.595786 184.804312 
Q 340.091411 185.359312 340.091411 186.321187 
L 340.091411 190.029937 
L 339.007661 190.029937 
L 339.007661 183.467437 
L 340.091411 183.467437 
L 340.091411 184.487437 
Q 340.479536 183.894937 341.002661 183.602437 
Q 341.527661 183.309937 342.213911 183.309937 
Q 343.344536 183.309937 343.923911 184.009312 
Q 344.505161 184.708687 344.505161 186.068062 
z
M 346.65438 183.467437 
L 347.732505 183.467437 
L 347.732505 190.029937 
L 346.65438 190.029937 
L 346.65438 183.467437 
z
M 346.65438 180.911812 
L 347.732505 180.911812 
L 347.732505 182.278687 
L 346.65438 182.278687 
L 346.65438 180.911812 
z
M 351.218364 182.254312 
L 351.218364 185.541187 
L 352.707114 185.541187 
Q 353.533989 185.541187 353.983989 185.113687 
Q 354.435864 184.686187 354.435864 183.894937 
Q 354.435864 183.109312 353.983989 182.681812 
Q 353.533989 182.254312 352.707114 182.254312 
L 351.218364 182.254312 
z
M 350.035239 181.281187 
L 352.707114 181.281187 
Q 354.178989 181.281187 354.930864 181.946812 
Q 355.684614 182.612437 355.684614 183.894937 
Q 355.684614 185.190562 354.930864 185.852437 
Q 354.178989 186.514312 352.707114 186.514312 
L 351.218364 186.514312 
L 351.218364 190.029937 
L 350.035239 190.029937 
L 350.035239 181.281187 
z
M 360.817192 184.474312 
Q 360.635317 184.369312 360.421567 184.320562 
Q 360.207817 184.269937 359.950942 184.269937 
Q 359.035942 184.269937 358.546567 184.864312 
Q 358.057192 185.458687 358.057192 186.572437 
L 358.057192 190.029937 
L 356.973442 190.029937 
L 356.973442 183.467437 
L 358.057192 183.467437 
L 358.057192 184.487437 
Q 358.398442 183.889312 358.942192 183.600562 
Q 359.487817 183.309937 360.267817 183.309937 
Q 360.378442 183.309937 360.513442 183.324937 
Q 360.648442 183.338062 360.811567 183.368062 
L 360.817192 184.474312 
z
M 364.220786 184.223062 
Q 363.354536 184.223062 362.850161 184.899937 
Q 362.345786 185.576812 362.345786 186.754312 
Q 362.345786 187.931812 362.846411 188.608687 
Q 363.348911 189.285562 364.220786 189.285562 
Q 365.083286 189.285562 365.585786 188.606812 
Q 366.090161 187.926187 366.090161 186.754312 
Q 366.090161 185.588062 365.585786 184.905562 
Q 365.083286 184.223062 364.220786 184.223062 
z
M 364.220786 183.309937 
Q 365.627036 183.309937 366.429536 184.224937 
Q 367.233911 185.138062 367.233911 186.754312 
Q 367.233911 188.364937 366.429536 189.283687 
Q 365.627036 190.200562 364.220786 190.200562 
Q 362.808911 190.200562 362.008286 189.283687 
Q 361.209536 188.364937 361.209536 186.754312 
Q 361.209536 185.138062 362.008286 184.224937 
Q 362.808911 183.309937 364.220786 183.309937 
z
M 370.086958 181.603687 
L 370.086958 183.467437 
L 372.306958 183.467437 
L 372.306958 184.305562 
L 370.086958 184.305562 
L 370.086958 187.868062 
Q 370.086958 188.670562 370.306333 188.899312 
Q 370.525708 189.128062 371.200708 189.128062 
L 372.306958 189.128062 
L 372.306958 190.029937 
L 371.200708 190.029937 
Q 369.951958 190.029937 369.477583 189.564937 
Q 369.003208 189.098062 369.003208 187.868062 
L 369.003208 184.305562 
L 368.211958 184.305562 
L 368.211958 183.467437 
L 369.003208 183.467437 
L 369.003208 181.603687 
L 370.086958 181.603687 
z
M 374.000786 188.541187 
L 375.236411 188.541187 
L 375.236411 190.029937 
L 374.000786 190.029937 
L 374.000786 188.541187 
z
M 374.000786 183.825562 
L 375.236411 183.825562 
L 375.236411 185.312437 
L 374.000786 185.312437 
L 374.000786 183.825562 
z
M 378.99813 182.254312 
L 378.99813 185.541187 
L 380.48688 185.541187 
Q 381.313755 185.541187 381.763755 185.113687 
Q 382.21563 184.686187 382.21563 183.894937 
Q 382.21563 183.109312 381.763755 182.681812 
Q 381.313755 182.254312 380.48688 182.254312 
L 378.99813 182.254312 
z
M 377.815005 181.281187 
L 380.48688 181.281187 
Q 381.958755 181.281187 382.71063 181.946812 
Q 383.46438 182.612437 383.46438 183.894937 
Q 383.46438 185.190562 382.71063 185.852437 
Q 381.958755 186.514312 380.48688 186.514312 
L 378.99813 186.514312 
L 378.99813 190.029937 
L 377.815005 190.029937 
L 377.815005 181.281187 
z
M 385.362583 189.034312 
L 387.295708 189.034312 
L 387.295708 182.359312 
L 385.191958 182.781187 
L 385.191958 181.703062 
L 387.284458 181.281187 
L 388.467583 181.281187 
L 388.467583 189.034312 
L 390.400708 189.034312 
L 390.400708 190.029937 
L 385.362583 190.029937 
L 385.362583 189.034312 
z
M 396.044223 182.312437 
L 393.055473 186.983062 
L 396.044223 186.983062 
L 396.044223 182.312437 
z
M 395.732973 181.281187 
L 397.221723 181.281187 
L 397.221723 186.983062 
L 398.470473 186.983062 
L 398.470473 187.967437 
L 397.221723 187.967437 
L 397.221723 190.029937 
L 396.044223 190.029937 
L 396.044223 187.967437 
L 392.095473 187.967437 
L 392.095473 186.825562 
L 395.732973 181.281187 
z
M 403.678989 182.312437 
L 400.690239 186.983062 
L 403.678989 186.983062 
L 403.678989 182.312437 
z
M 403.367739 181.281187 
L 404.856489 181.281187 
L 404.856489 186.983062 
L 406.105239 186.983062 
L 406.105239 187.967437 
L 404.856489 187.967437 
L 404.856489 190.029937 
L 403.678989 190.029937 
L 403.678989 187.967437 
L 399.730239 187.967437 
L 399.730239 186.825562 
L 403.367739 181.281187 
z
M 408.26688 189.034312 
L 410.200005 189.034312 
L 410.200005 182.359312 
L 408.096255 182.781187 
L 408.096255 181.703062 
L 410.188755 181.281187 
L 411.37188 181.281187 
L 411.37188 189.034312 
L 413.305005 189.034312 
L 413.305005 190.029937 
L 408.26688 190.029937 
L 408.26688 189.034312 
z
M 418.37477 185.184937 
Q 417.577895 185.184937 417.11102 185.730562 
Q 416.64602 186.274312 416.64602 187.223062 
Q 416.64602 188.166187 417.11102 188.715562 
Q 417.577895 189.263062 418.37477 189.263062 
Q 419.171645 189.263062 419.636645 188.715562 
Q 420.101645 188.166187 420.101645 187.223062 
Q 420.101645 186.274312 419.636645 185.730562 
Q 419.171645 185.184937 418.37477 185.184937 
z
M 420.724145 181.474312 
L 420.724145 182.552437 
Q 420.277895 182.342437 419.824145 182.231812 
Q 419.370395 182.119312 418.924145 182.119312 
Q 417.75227 182.119312 417.13352 182.910562 
Q 416.516645 183.701812 416.42852 185.301187 
Q 416.77352 184.791187 417.29477 184.519312 
Q 417.817895 184.247437 418.444145 184.247437 
Q 419.76227 184.247437 420.52727 185.048062 
Q 421.29227 185.846812 421.29227 187.223062 
Q 421.29227 188.571187 420.495395 189.386812 
Q 419.69852 190.200562 418.37477 190.200562 
Q 416.85602 190.200562 416.05352 189.038062 
Q 415.25102 187.873687 415.25102 185.664937 
Q 415.25102 183.591187 416.235395 182.357437 
Q 417.21977 181.123687 418.87727 181.123687 
Q 419.32352 181.123687 419.77727 181.211812 
Q 420.23102 181.299937 420.724145 181.474312 
z
" clip-path="url(#p931c55ce54)" style="fill: #ffffff; stroke: #000000; stroke-width: 2"/>
    <path d="M 330.177583 181.281187 
L 331.368208 181.281187 
L 331.368208 186.596812 
Q 331.368208 188.003062 331.876333 188.621812 
Q 332.386333 189.238687 333.530083 189.238687 
Q 334.666333 189.238687 335.176333 188.621812 
Q 335.686333 188.003062 335.686333 186.596812 
L 335.686333 181.281187 
L 336.875083 181.281187 
L 336.875083 186.743062 
Q 336.875083 188.453062 336.027583 189.326812 
Q 335.181958 190.200562 333.530083 190.200562 
Q 331.870708 190.200562 331.023208 189.326812 
Q 330.177583 188.453062 330.177583 186.743062 
L 330.177583 181.281187 
z
M 344.505161 186.068062 
L 344.505161 190.029937 
L 343.427036 190.029937 
L 343.427036 186.103687 
Q 343.427036 185.171812 343.063286 184.710562 
Q 342.699536 184.247437 341.973911 184.247437 
Q 341.100161 184.247437 340.595786 184.804312 
Q 340.091411 185.359312 340.091411 186.321187 
L 340.091411 190.029937 
L 339.007661 190.029937 
L 339.007661 183.467437 
L 340.091411 183.467437 
L 340.091411 184.487437 
Q 340.479536 183.894937 341.002661 183.602437 
Q 341.527661 183.309937 342.213911 183.309937 
Q 343.344536 183.309937 343.923911 184.009312 
Q 344.505161 184.708687 344.505161 186.068062 
z
M 346.65438 183.467437 
L 347.732505 183.467437 
L 347.732505 190.029937 
L 346.65438 190.029937 
L 346.65438 183.467437 
z
M 346.65438 180.911812 
L 347.732505 180.911812 
L 347.732505 182.278687 
L 346.65438 182.278687 
L 346.65438 180.911812 
z
M 351.218364 182.254312 
L 351.218364 185.541187 
L 352.707114 185.541187 
Q 353.533989 185.541187 353.983989 185.113687 
Q 354.435864 184.686187 354.435864 183.894937 
Q 354.435864 183.109312 353.983989 182.681812 
Q 353.533989 182.254312 352.707114 182.254312 
L 351.218364 182.254312 
z
M 350.035239 181.281187 
L 352.707114 181.281187 
Q 354.178989 181.281187 354.930864 181.946812 
Q 355.684614 182.612437 355.684614 183.894937 
Q 355.684614 185.190562 354.930864 185.852437 
Q 354.178989 186.514312 352.707114 186.514312 
L 351.218364 186.514312 
L 351.218364 190.029937 
L 350.035239 190.029937 
L 350.035239 181.281187 
z
M 360.817192 184.474312 
Q 360.635317 184.369312 360.421567 184.320562 
Q 360.207817 184.269937 359.950942 184.269937 
Q 359.035942 184.269937 358.546567 184.864312 
Q 358.057192 185.458687 358.057192 186.572437 
L 358.057192 190.029937 
L 356.973442 190.029937 
L 356.973442 183.467437 
L 358.057192 183.467437 
L 358.057192 184.487437 
Q 358.398442 183.889312 358.942192 183.600562 
Q 359.487817 183.309937 360.267817 183.309937 
Q 360.378442 183.309937 360.513442 183.324937 
Q 360.648442 183.338062 360.811567 183.368062 
L 360.817192 184.474312 
z
M 364.220786 184.223062 
Q 363.354536 184.223062 362.850161 184.899937 
Q 362.345786 185.576812 362.345786 186.754312 
Q 362.345786 187.931812 362.846411 188.608687 
Q 363.348911 189.285562 364.220786 189.285562 
Q 365.083286 189.285562 365.585786 188.606812 
Q 366.090161 187.926187 366.090161 186.754312 
Q 366.090161 185.588062 365.585786 184.905562 
Q 365.083286 184.223062 364.220786 184.223062 
z
M 364.220786 183.309937 
Q 365.627036 183.309937 366.429536 184.224937 
Q 367.233911 185.138062 367.233911 186.754312 
Q 367.233911 188.364937 366.429536 189.283687 
Q 365.627036 190.200562 364.220786 190.200562 
Q 362.808911 190.200562 362.008286 189.283687 
Q 361.209536 188.364937 361.209536 186.754312 
Q 361.209536 185.138062 362.008286 184.224937 
Q 362.808911 183.309937 364.220786 183.309937 
z
M 370.086958 181.603687 
L 370.086958 183.467437 
L 372.306958 183.467437 
L 372.306958 184.305562 
L 370.086958 184.305562 
L 370.086958 187.868062 
Q 370.086958 188.670562 370.306333 188.899312 
Q 370.525708 189.128062 371.200708 189.128062 
L 372.306958 189.128062 
L 372.306958 190.029937 
L 371.200708 190.029937 
Q 369.951958 190.029937 369.477583 189.564937 
Q 369.003208 189.098062 369.003208 187.868062 
L 369.003208 184.305562 
L 368.211958 184.305562 
L 368.211958 183.467437 
L 369.003208 183.467437 
L 369.003208 181.603687 
L 370.086958 181.603687 
z
M 374.000786 188.541187 
L 375.236411 188.541187 
L 375.236411 190.029937 
L 374.000786 190.029937 
L 374.000786 188.541187 
z
M 374.000786 183.825562 
L 375.236411 183.825562 
L 375.236411 185.312437 
L 374.000786 185.312437 
L 374.000786 183.825562 
z
M 378.99813 182.254312 
L 378.99813 185.541187 
L 380.48688 185.541187 
Q 381.313755 185.541187 381.763755 185.113687 
Q 382.21563 184.686187 382.21563 183.894937 
Q 382.21563 183.109312 381.763755 182.681812 
Q 381.313755 182.254312 380.48688 182.254312 
L 378.99813 182.254312 
z
M 377.815005 181.281187 
L 380.48688 181.281187 
Q 381.958755 181.281187 382.71063 181.946812 
Q 383.46438 182.612437 383.46438 183.894937 
Q 383.46438 185.190562 382.71063 185.852437 
Q 381.958755 186.514312 380.48688 186.514312 
L 378.99813 186.514312 
L 378.99813 190.029937 
L 377.815005 190.029937 
L 377.815005 181.281187 
z
M 385.362583 189.034312 
L 387.295708 189.034312 
L 387.295708 182.359312 
L 385.191958 182.781187 
L 385.191958 181.703062 
L 387.284458 181.281187 
L 388.467583 181.281187 
L 388.467583 189.034312 
L 390.400708 189.034312 
L 390.400708 190.029937 
L 385.362583 190.029937 
L 385.362583 189.034312 
z
M 396.044223 182.312437 
L 393.055473 186.983062 
L 396.044223 186.983062 
L 396.044223 182.312437 
z
M 395.732973 181.281187 
L 397.221723 181.281187 
L 397.221723 186.983062 
L 398.470473 186.983062 
L 398.470473 187.967437 
L 397.221723 187.967437 
L 397.221723 190.029937 
L 396.044223 190.029937 
L 396.044223 187.967437 
L 392.095473 187.967437 
L 392.095473 186.825562 
L 395.732973 181.281187 
z
M 403.678989 182.312437 
L 400.690239 186.983062 
L 403.678989 186.983062 
L 403.678989 182.312437 
z
M 403.367739 181.281187 
L 404.856489 181.281187 
L 404.856489 186.983062 
L 406.105239 186.983062 
L 406.105239 187.967437 
L 404.856489 187.967437 
L 404.856489 190.029937 
L 403.678989 190.029937 
L 403.678989 187.967437 
L 399.730239 187.967437 
L 399.730239 186.825562 
L 403.367739 181.281187 
z
M 408.26688 189.034312 
L 410.200005 189.034312 
L 410.200005 182.359312 
L 408.096255 182.781187 
L 408.096255 181.703062 
L 410.188755 181.281187 
L 411.37188 181.281187 
L 411.37188 189.034312 
L 413.305005 189.034312 
L 413.305005 190.029937 
L 408.26688 190.029937 
L 408.26688 189.034312 
z
M 418.37477 185.184937 
Q 417.577895 185.184937 417.11102 185.730562 
Q 416.64602 186.274312 416.64602 187.223062 
Q 416.64602 188.166187 417.11102 188.715562 
Q 417.577895 189.263062 418.37477 189.263062 
Q 419.171645 189.263062 419.636645 188.715562 
Q 420.101645 188.166187 420.101645 187.223062 
Q 420.101645 186.274312 419.636645 185.730562 
Q 419.171645 185.184937 418.37477 185.184937 
z
M 420.724145 181.474312 
L 420.724145 182.552437 
Q 420.277895 182.342437 419.824145 182.231812 
Q 419.370395 182.119312 418.924145 182.119312 
Q 417.75227 182.119312 417.13352 182.910562 
Q 416.516645 183.701812 416.42852 185.301187 
Q 416.77352 184.791187 417.29477 184.519312 
Q 417.817895 184.247437 418.444145 184.247437 
Q 419.76227 184.247437 420.52727 185.048062 
Q 421.29227 185.846812 421.29227 187.223062 
Q 421.29227 188.571187 420.495395 189.386812 
Q 419.69852 190.200562 418.37477 190.200562 
Q 416.85602 190.200562 416.05352 189.038062 
Q 415.25102 187.873687 415.25102 185.664937 
Q 415.25102 183.591187 416.235395 182.357437 
Q 417.21977 181.123687 418.87727 181.123687 
Q 419.32352 181.123687 419.77727 181.211812 
Q 420.23102 181.299937 420.724145 181.474312 
z
" clip-path="url(#p931c55ce54)" style="fill: #ffffff"/>
    <path d="M 356.921645 195.691687 
L 356.921645 198.978562 
L 358.410395 198.978562 
Q 359.23727 198.978562 359.68727 198.551062 
Q 360.139145 198.123562 360.139145 197.332312 
Q 360.139145 196.546687 359.68727 196.119187 
Q 359.23727 195.691687 358.410395 195.691687 
L 356.921645 195.691687 
z
M 355.73852 194.718562 
L 358.410395 194.718562 
Q 359.88227 194.718562 360.634145 195.384187 
Q 361.387895 196.049812 361.387895 197.332312 
Q 361.387895 198.627937 360.634145 199.289812 
Q 359.88227 199.951687 358.410395 199.951687 
L 356.921645 199.951687 
L 356.921645 203.467312 
L 355.73852 203.467312 
L 355.73852 194.718562 
z
M 366.520473 197.911687 
Q 366.338598 197.806687 366.124848 197.757937 
Q 365.911098 197.707312 365.654223 197.707312 
Q 364.739223 197.707312 364.249848 198.301687 
Q 363.760473 198.896062 363.760473 200.009812 
L 363.760473 203.467312 
L 362.676723 203.467312 
L 362.676723 196.904812 
L 363.760473 196.904812 
L 363.760473 197.924812 
Q 364.101723 197.326687 364.645473 197.037937 
Q 365.191098 196.747312 365.971098 196.747312 
Q 366.081723 196.747312 366.216723 196.762312 
Q 366.351723 196.775437 366.514848 196.805437 
L 366.520473 197.911687 
z
M 369.924067 197.660437 
Q 369.057817 197.660437 368.553442 198.337312 
Q 368.049067 199.014187 368.049067 200.191687 
Q 368.049067 201.369187 368.549692 202.046062 
Q 369.052192 202.722937 369.924067 202.722937 
Q 370.786567 202.722937 371.289067 202.044187 
Q 371.793442 201.363562 371.793442 200.191687 
Q 371.793442 199.025437 371.289067 198.342937 
Q 370.786567 197.660437 369.924067 197.660437 
z
M 369.924067 196.747312 
Q 371.330317 196.747312 372.132817 197.662312 
Q 372.937192 198.575437 372.937192 200.191687 
Q 372.937192 201.802312 372.132817 202.721062 
Q 371.330317 203.637937 369.924067 203.637937 
Q 368.512192 203.637937 367.711567 202.721062 
Q 366.912817 201.802312 366.912817 200.191687 
Q 366.912817 198.575437 367.711567 197.662312 
Q 368.512192 196.747312 369.924067 196.747312 
z
M 375.790239 195.041062 
L 375.790239 196.904812 
L 378.010239 196.904812 
L 378.010239 197.742937 
L 375.790239 197.742937 
L 375.790239 201.305437 
Q 375.790239 202.107937 376.009614 202.336687 
Q 376.228989 202.565437 376.903989 202.565437 
L 378.010239 202.565437 
L 378.010239 203.467312 
L 376.903989 203.467312 
Q 375.655239 203.467312 375.180864 203.002312 
Q 374.706489 202.535437 374.706489 201.305437 
L 374.706489 197.742937 
L 373.915239 197.742937 
L 373.915239 196.904812 
L 374.706489 196.904812 
L 374.706489 195.041062 
L 375.790239 195.041062 
z
M 385.042192 199.916062 
L 385.042192 200.442937 
L 380.084692 200.442937 
Q 380.155942 201.556687 380.755942 202.139812 
Q 381.355942 202.722937 382.428442 202.722937 
Q 383.049067 202.722937 383.632192 202.571062 
Q 384.215317 202.419187 384.790942 202.113562 
L 384.790942 203.133562 
Q 384.209692 203.379187 383.600317 203.508562 
Q 382.990942 203.637937 382.364692 203.637937 
Q 380.793442 203.637937 379.876567 202.724812 
Q 378.959692 201.809812 378.959692 200.249812 
Q 378.959692 198.639187 379.829692 197.694187 
Q 380.699692 196.747312 382.177192 196.747312 
Q 383.500942 196.747312 384.271567 197.600437 
Q 385.042192 198.451687 385.042192 199.916062 
z
M 383.964067 199.599187 
Q 383.952817 198.716062 383.469067 198.189187 
Q 382.985317 197.660437 382.188442 197.660437 
Q 381.286567 197.660437 380.744692 198.170437 
Q 380.202817 198.680437 380.120317 199.606687 
L 383.964067 199.599187 
z
M 386.811255 196.904812 
L 387.88938 196.904812 
L 387.88938 203.467312 
L 386.811255 203.467312 
L 386.811255 196.904812 
z
M 386.811255 194.349187 
L 387.88938 194.349187 
L 387.88938 195.716062 
L 386.811255 195.716062 
L 386.811255 194.349187 
z
M 395.601489 199.505437 
L 395.601489 203.467312 
L 394.523364 203.467312 
L 394.523364 199.541062 
Q 394.523364 198.609187 394.159614 198.147937 
Q 393.795864 197.684812 393.070239 197.684812 
Q 392.196489 197.684812 391.692114 198.241687 
Q 391.187739 198.796687 391.187739 199.758562 
L 391.187739 203.467312 
L 390.103989 203.467312 
L 390.103989 196.904812 
L 391.187739 196.904812 
L 391.187739 197.924812 
Q 391.575864 197.332312 392.098989 197.039812 
Q 392.623989 196.747312 393.310239 196.747312 
Q 394.440864 196.747312 395.020239 197.446687 
Q 395.601489 198.146062 395.601489 199.505437 
z
" clip-path="url(#p931c55ce54)" style="fill: #ffffff; stroke: #000000; stroke-width: 2"/>
    <path d="M 356.921645 195.691687 
L 356.921645 198.978562 
L 358.410395 198.978562 
Q 359.23727 198.978562 359.68727 198.551062 
Q 360.139145 198.123562 360.139145 197.332312 
Q 360.139145 196.546687 359.68727 196.119187 
Q 359.23727 195.691687 358.410395 195.691687 
L 356.921645 195.691687 
z
M 355.73852 194.718562 
L 358.410395 194.718562 
Q 359.88227 194.718562 360.634145 195.384187 
Q 361.387895 196.049812 361.387895 197.332312 
Q 361.387895 198.627937 360.634145 199.289812 
Q 359.88227 199.951687 358.410395 199.951687 
L 356.921645 199.951687 
L 356.921645 203.467312 
L 355.73852 203.467312 
L 355.73852 194.718562 
z
M 366.520473 197.911687 
Q 366.338598 197.806687 366.124848 197.757937 
Q 365.911098 197.707312 365.654223 197.707312 
Q 364.739223 197.707312 364.249848 198.301687 
Q 363.760473 198.896062 363.760473 200.009812 
L 363.760473 203.467312 
L 362.676723 203.467312 
L 362.676723 196.904812 
L 363.760473 196.904812 
L 363.760473 197.924812 
Q 364.101723 197.326687 364.645473 197.037937 
Q 365.191098 196.747312 365.971098 196.747312 
Q 366.081723 196.747312 366.216723 196.762312 
Q 366.351723 196.775437 366.514848 196.805437 
L 366.520473 197.911687 
z
M 369.924067 197.660437 
Q 369.057817 197.660437 368.553442 198.337312 
Q 368.049067 199.014187 368.049067 200.191687 
Q 368.049067 201.369187 368.549692 202.046062 
Q 369.052192 202.722937 369.924067 202.722937 
Q 370.786567 202.722937 371.289067 202.044187 
Q 371.793442 201.363562 371.793442 200.191687 
Q 371.793442 199.025437 371.289067 198.342937 
Q 370.786567 197.660437 369.924067 197.660437 
z
M 369.924067 196.747312 
Q 371.330317 196.747312 372.132817 197.662312 
Q 372.937192 198.575437 372.937192 200.191687 
Q 372.937192 201.802312 372.132817 202.721062 
Q 371.330317 203.637937 369.924067 203.637937 
Q 368.512192 203.637937 367.711567 202.721062 
Q 366.912817 201.802312 366.912817 200.191687 
Q 366.912817 198.575437 367.711567 197.662312 
Q 368.512192 196.747312 369.924067 196.747312 
z
M 375.790239 195.041062 
L 375.790239 196.904812 
L 378.010239 196.904812 
L 378.010239 197.742937 
L 375.790239 197.742937 
L 375.790239 201.305437 
Q 375.790239 202.107937 376.009614 202.336687 
Q 376.228989 202.565437 376.903989 202.565437 
L 378.010239 202.565437 
L 378.010239 203.467312 
L 376.903989 203.467312 
Q 375.655239 203.467312 375.180864 203.002312 
Q 374.706489 202.535437 374.706489 201.305437 
L 374.706489 197.742937 
L 373.915239 197.742937 
L 373.915239 196.904812 
L 374.706489 196.904812 
L 374.706489 195.041062 
L 375.790239 195.041062 
z
M 385.042192 199.916062 
L 385.042192 200.442937 
L 380.084692 200.442937 
Q 380.155942 201.556687 380.755942 202.139812 
Q 381.355942 202.722937 382.428442 202.722937 
Q 383.049067 202.722937 383.632192 202.571062 
Q 384.215317 202.419187 384.790942 202.113562 
L 384.790942 203.133562 
Q 384.209692 203.379187 383.600317 203.508562 
Q 382.990942 203.637937 382.364692 203.637937 
Q 380.793442 203.637937 379.876567 202.724812 
Q 378.959692 201.809812 378.959692 200.249812 
Q 378.959692 198.639187 379.829692 197.694187 
Q 380.699692 196.747312 382.177192 196.747312 
Q 383.500942 196.747312 384.271567 197.600437 
Q 385.042192 198.451687 385.042192 199.916062 
z
M 383.964067 199.599187 
Q 383.952817 198.716062 383.469067 198.189187 
Q 382.985317 197.660437 382.188442 197.660437 
Q 381.286567 197.660437 380.744692 198.170437 
Q 380.202817 198.680437 380.120317 199.606687 
L 383.964067 199.599187 
z
M 386.811255 196.904812 
L 387.88938 196.904812 
L 387.88938 203.467312 
L 386.811255 203.467312 
L 386.811255 196.904812 
z
M 386.811255 194.349187 
L 387.88938 194.349187 
L 387.88938 195.716062 
L 386.811255 195.716062 
L 386.811255 194.349187 
z
M 395.601489 199.505437 
L 395.601489 203.467312 
L 394.523364 203.467312 
L 394.523364 199.541062 
Q 394.523364 198.609187 394.159614 198.147937 
Q 393.795864 197.684812 393.070239 197.684812 
Q 392.196489 197.684812 391.692114 198.241687 
Q 391.187739 198.796687 391.187739 199.758562 
L 391.187739 203.467312 
L 390.103989 203.467312 
L 390.103989 196.904812 
L 391.187739 196.904812 
L 391.187739 197.924812 
Q 391.575864 197.332312 392.098989 197.039812 
Q 392.623989 196.747312 393.310239 196.747312 
Q 394.440864 196.747312 395.020239 197.446687 
Q 395.601489 198.146062 395.601489 199.505437 
z
" clip-path="url(#p931c55ce54)" style="fill: #ffffff"/>
   </g>
   <g id="text_5">
    <g clip-path="url(#p931c55ce54)">
     <!-- mosapramine -->
     <g transform="translate(48.693998 169.873875)scale(0.12 -0.12)">
      <defs>
       <path id="DejaVuSans-6d" d="M 3328 2828 
Q 3544 3216 3844 3400 
Q 4144 3584 4550 3584 
Q 5097 3584 5394 3201 
Q 5691 2819 5691 2113 
L 5691 0 
L 5113 0 
L 5113 2094 
Q 5113 2597 4934 2840 
Q 4756 3084 4391 3084 
Q 3944 3084 3684 2787 
Q 3425 2491 3425 1978 
L 3425 0 
L 2847 0 
L 2847 2094 
Q 2847 2600 2669 2842 
Q 2491 3084 2119 3084 
Q 1678 3084 1418 2786 
Q 1159 2488 1159 1978 
L 1159 0 
L 581 0 
L 581 3500 
L 1159 3500 
L 1159 2956 
Q 1356 3278 1631 3431 
Q 1906 3584 2284 3584 
Q 2666 3584 2933 3390 
Q 3200 3197 3328 2828 
z
" transform="scale(0.015625)"/>
      </defs>
      <use xlink:href="#DejaVuSans-6d"/>
      <use xlink:href="#DejaVuSans-6f" x="97.412109"/>
      <use xlink:href="#DejaVuSans-73" x="158.59375"/>
      <use xlink:href="#DejaVuSans-61" x="210.693359"/>
      <use xlink:href="#DejaVuSans-70" x="271.972656"/>
      <use xlink:href="#DejaVuSans-72" x="335.449219"/>
      <use xlink:href="#DejaVuSans-61" x="376.5625"/>
      <use xlink:href="#DejaVuSans-6d" x="437.841797"/>
      <use xlink:href="#DejaVuSans-69" x="535.253906"/>
      <use xlink:href="#DejaVuSans-6e" x="563.037109"/>
      <use xlink:href="#DejaVuSans-65" x="626.416016"/>
     </g>
    </g>
    <g clip-path="url(#p931c55ce54)">
     <!-- MESH:C046384 -->
     <g transform="translate(43.564935 183.31125)scale(0.12 -0.12)">
      <defs>
       <path id="DejaVuSans-4d" d="M 628 4666 
L 1569 4666 
L 2759 1491 
L 3956 4666 
L 4897 4666 
L 4897 0 
L 4281 0 
L 4281 4097 
L 3078 897 
L 2444 897 
L 1241 4097 
L 1241 0 
L 628 0 
L 628 4666 
z
" transform="scale(0.015625)"/>
       <path id="DejaVuSans-45" d="M 628 4666 
L 3578 4666 
L 3578 4134 
L 1259 4134 
L 1259 2753 
L 3481 2753 
L 3481 2222 
L 1259 2222 
L 1259 531 
L 3634 531 
L 3634 0 
L 628 0 
L 628 4666 
z
" transform="scale(0.015625)"/>
       <path id="DejaVuSans-53" d="M 3425 4513 
L 3425 3897 
Q 3066 4069 2747 4153 
Q 2428 4238 2131 4238 
Q 1616 4238 1336 4038 
Q 1056 3838 1056 3469 
Q 1056 3159 1242 3001 
Q 1428 2844 1947 2747 
L 2328 2669 
Q 3034 2534 3370 2195 
Q 3706 1856 3706 1288 
Q 3706 609 3251 259 
Q 2797 -91 1919 -91 
Q 1588 -91 1214 -16 
Q 841 59 441 206 
L 441 856 
Q 825 641 1194 531 
Q 1563 422 1919 422 
Q 2459 422 2753 634 
Q 3047 847 3047 1241 
Q 3047 1584 2836 1778 
Q 2625 1972 2144 2069 
L 1759 2144 
Q 1053 2284 737 2584 
Q 422 2884 422 3419 
Q 422 4038 858 4394 
Q 1294 4750 2059 4750 
Q 2388 4750 2728 4690 
Q 3069 4631 3425 4513 
z
" transform="scale(0.015625)"/>
       <path id="DejaVuSans-48" d="M 628 4666 
L 1259 4666 
L 1259 2753 
L 3553 2753 
L 3553 4666 
L 4184 4666 
L 4184 0 
L 3553 0 
L 3553 2222 
L 1259 2222 
L 1259 0 
L 628 0 
L 628 4666 
z
" transform="scale(0.015625)"/>
       <path id="DejaVuSans-3a" d="M 750 794 
L 1409 794 
L 1409 0 
L 750 0 
L 750 794 
z
M 750 3309 
L 1409 3309 
L 1409 2516 
L 750 2516 
L 750 3309 
z
" transform="scale(0.015625)"/>
       <path id="DejaVuSans-43" d="M 4122 4306 
L 4122 3641 
Q 3803 3938 3442 4084 
Q 3081 4231 2675 4231 
Q 1875 4231 1450 3742 
Q 1025 3253 1025 2328 
Q 1025 1406 1450 917 
Q 1875 428 2675 428 
Q 3081 428 3442 575 
Q 3803 722 4122 1019 
L 4122 359 
Q 3791 134 3420 21 
Q 3050 -91 2638 -91 
Q 1578 -91 968 557 
Q 359 1206 359 2328 
Q 359 3453 968 4101 
Q 1578 4750 2638 4750 
Q 3056 4750 3426 4639 
Q 3797 4528 4122 4306 
z
" transform="scale(0.015625)"/>
       <path id="DejaVuSans-30" d="M 2034 4250 
Q 1547 4250 1301 3770 
Q 1056 3291 1056 2328 
Q 1056 1369 1301 889 
Q 1547 409 2034 409 
Q 2525 409 2770 889 
Q 3016 1369 3016 2328 
Q 3016 3291 2770 3770 
Q 2525 4250 2034 4250 
z
M 2034 4750 
Q 2819 4750 3233 4129 
Q 3647 3509 3647 2328 
Q 3647 1150 3233 529 
Q 2819 -91 2034 -91 
Q 1250 -91 836 529 
Q 422 1150 422 2328 
Q 422 3509 836 4129 
Q 1250 4750 2034 4750 
z
" transform="scale(0.015625)"/>
       <path id="DejaVuSans-34" d="M 2419 4116 
L 825 1625 
L 2419 1625 
L 2419 4116 
z
M 2253 4666 
L 3047 4666 
L 3047 1625 
L 3713 1625 
L 3713 1100 
L 3047 1100 
L 3047 0 
L 2419 0 
L 2419 1100 
L 313 1100 
L 313 1709 
L 2253 4666 
z
" transform="scale(0.015625)"/>
       <path id="DejaVuSans-36" d="M 2113 2584 
Q 1688 2584 1439 2293 
Q 1191 2003 1191 1497 
Q 1191 994 1439 701 
Q 1688 409 2113 409 
Q 2538 409 2786 701 
Q 3034 994 3034 1497 
Q 3034 2003 2786 2293 
Q 2538 2584 2113 2584 
z
M 3366 4563 
L 3366 3988 
Q 3128 4100 2886 4159 
Q 2644 4219 2406 4219 
Q 1781 4219 1451 3797 
Q 1122 3375 1075 2522 
Q 1259 2794 1537 2939 
Q 1816 3084 2150 3084 
Q 2853 3084 3261 2657 
Q 3669 2231 3669 1497 
Q 3669 778 3244 343 
Q 2819 -91 2113 -91 
Q 1303 -91 875 529 
Q 447 1150 447 2328 
Q 447 3434 972 4092 
Q 1497 4750 2381 4750 
Q 2619 4750 2861 4703 
Q 3103 4656 3366 4563 
z
" transform="scale(0.015625)"/>
       <path id="DejaVuSans-33" d="M 2597 2516 
Q 3050 2419 3304 2112 
Q 3559 1806 3559 1356 
Q 3559 666 3084 287 
Q 2609 -91 1734 -91 
Q 1441 -91 1130 -33 
Q 819 25 488 141 
L 488 750 
Q 750 597 1062 519 
Q 1375 441 1716 441 
Q 2309 441 2620 675 
Q 2931 909 2931 1356 
Q 2931 1769 2642 2001 
Q 2353 2234 1838 2234 
L 1294 2234 
L 1294 2753 
L 1863 2753 
Q 2328 2753 2575 2939 
Q 2822 3125 2822 3475 
Q 2822 3834 2567 4026 
Q 2313 4219 1838 4219 
Q 1578 4219 1281 4162 
Q 984 4106 628 3988 
L 628 4550 
Q 988 4650 1302 4700 
Q 1616 4750 1894 4750 
Q 2613 4750 3031 4423 
Q 3450 4097 3450 3541 
Q 3450 3153 3228 2886 
Q 3006 2619 2597 2516 
z
" transform="scale(0.015625)"/>
       <path id="DejaVuSans-38" d="M 2034 2216 
Q 1584 2216 1326 1975 
Q 1069 1734 1069 1313 
Q 1069 891 1326 650 
Q 1584 409 2034 409 
Q 2484 409 2743 651 
Q 3003 894 3003 1313 
Q 3003 1734 2745 1975 
Q 2488 2216 2034 2216 
z
M 1403 2484 
Q 997 2584 770 2862 
Q 544 3141 544 3541 
Q 544 4100 942 4425 
Q 1341 4750 2034 4750 
Q 2731 4750 3128 4425 
Q 3525 4100 3525 3541 
Q 3525 3141 3298 2862 
Q 3072 2584 2669 2484 
Q 3125 2378 3379 2068 
Q 3634 1759 3634 1313 
Q 3634 634 3220 271 
Q 2806 -91 2034 -91 
Q 1263 -91 848 271 
Q 434 634 434 1313 
Q 434 1759 690 2068 
Q 947 2378 1403 2484 
z
M 1172 3481 
Q 1172 3119 1398 2916 
Q 1625 2713 2034 2713 
Q 2441 2713 2670 2916 
Q 2900 3119 2900 3481 
Q 2900 3844 2670 4047 
Q 2441 4250 2034 4250 
Q 1625 4250 1398 4047 
Q 1172 3844 1172 3481 
z
" transform="scale(0.015625)"/>
      </defs>
      <use xlink:href="#DejaVuSans-4d"/>
      <use xlink:href="#DejaVuSans-45" x="86.279297"/>
      <use xlink:href="#DejaVuSans-53" x="149.462891"/>
      <use xlink:href="#DejaVuSans-48" x="212.939453"/>
      <use xlink:href="#DejaVuSans-3a" x="288.134766"/>
      <use xlink:href="#DejaVuSans-43" x="321.826172"/>
      <use xlink:href="#DejaVuSans-30" x="391.650391"/>
      <use xlink:href="#DejaVuSans-34" x="455.273438"/>
      <use xlink:href="#DejaVuSans-36" x="518.896484"/>
      <use xlink:href="#DejaVuSans-33" x="582.519531"/>
      <use xlink:href="#DejaVuSans-38" x="646.142578"/>
      <use xlink:href="#DejaVuSans-34" x="709.765625"/>
     </g>
    </g>
    <g clip-path="url(#p931c55ce54)">
     <!-- Drug -->
     <g transform="translate(75.272123 196.748625)scale(0.12 -0.12)">
      <defs>
       <path id="DejaVuSans-44" d="M 1259 4147 
L 1259 519 
L 2022 519 
Q 2988 519 3436 956 
Q 3884 1394 3884 2338 
Q 3884 3275 3436 3711 
Q 2988 4147 2022 4147 
L 1259 4147 
z
M 628 4666 
L 1925 4666 
Q 3281 4666 3915 4102 
Q 4550 3538 4550 2338 
Q 4550 1131 3912 565 
Q 3275 0 1925 0 
L 628 0 
L 628 4666 
z
" transform="scale(0.015625)"/>
       <path id="DejaVuSans-75" d="M 544 1381 
L 544 3500 
L 1119 3500 
L 1119 1403 
Q 1119 906 1312 657 
Q 1506 409 1894 409 
Q 2359 409 2629 706 
Q 2900 1003 2900 1516 
L 2900 3500 
L 3475 3500 
L 3475 0 
L 2900 0 
L 2900 538 
Q 2691 219 2414 64 
Q 2138 -91 1772 -91 
Q 1169 -91 856 284 
Q 544 659 544 1381 
z
M 1991 3584 
L 1991 3584 
z
" transform="scale(0.015625)"/>
       <path id="DejaVuSans-67" d="M 2906 1791 
Q 2906 2416 2648 2759 
Q 2391 3103 1925 3103 
Q 1463 3103 1205 2759 
Q 947 2416 947 1791 
Q 947 1169 1205 825 
Q 1463 481 1925 481 
Q 2391 481 2648 825 
Q 2906 1169 2906 1791 
z
M 3481 434 
Q 3481 -459 3084 -895 
Q 2688 -1331 1869 -1331 
Q 1566 -1331 1297 -1286 
Q 1028 -1241 775 -1147 
L 775 -588 
Q 1028 -725 1275 -790 
Q 1522 -856 1778 -856 
Q 2344 -856 2625 -561 
Q 2906 -266 2906 331 
L 2906 616 
Q 2728 306 2450 153 
Q 2172 0 1784 0 
Q 1141 0 747 490 
Q 353 981 353 1791 
Q 353 2603 747 3093 
Q 1141 3584 1784 3584 
Q 2172 3584 2450 3431 
Q 2728 3278 2906 2969 
L 2906 3500 
L 3481 3500 
L 3481 434 
z
" transform="scale(0.015625)"/>
      </defs>
      <use xlink:href="#DejaVuSans-44"/>
      <use xlink:href="#DejaVuSans-72" x="77.001953"/>
      <use xlink:href="#DejaVuSans-75" x="118.115234"/>
      <use xlink:href="#DejaVuSans-67" x="181.494141"/>
     </g>
    </g>
   </g>
   <g id="text_6">
    <g clip-path="url(#p931c55ce54)">
     <!-- Dopamine -->
     <g transform="translate(630.427105 156.4365)scale(0.12 -0.12)">
      <use xlink:href="#DejaVuSans-44"/>
      <use xlink:href="#DejaVuSans-6f" x="77.001953"/>
      <use xlink:href="#DejaVuSans-70" x="138.183594"/>
      <use xlink:href="#DejaVuSans-61" x="201.660156"/>
      <use xlink:href="#DejaVuSans-6d" x="262.939453"/>
      <use xlink:href="#DejaVuSans-69" x="360.351562"/>
      <use xlink:href="#DejaVuSans-6e" x="388.134766"/>
      <use xlink:href="#DejaVuSans-65" x="451.513672"/>
     </g>
    </g>
    <g clip-path="url(#p931c55ce54)">
     <!-- pathway -->
     <g transform="translate(635.434292 169.873875)scale(0.12 -0.12)">
      <defs>
       <path id="DejaVuSans-68" d="M 3513 2113 
L 3513 0 
L 2938 0 
L 2938 2094 
Q 2938 2591 2744 2837 
Q 2550 3084 2163 3084 
Q 1697 3084 1428 2787 
Q 1159 2491 1159 1978 
L 1159 0 
L 581 0 
L 581 4863 
L 1159 4863 
L 1159 2956 
Q 1366 3272 1645 3428 
Q 1925 3584 2291 3584 
Q 2894 3584 3203 3211 
Q 3513 2838 3513 2113 
z
" transform="scale(0.015625)"/>
       <path id="DejaVuSans-77" d="M 269 3500 
L 844 3500 
L 1563 769 
L 2278 3500 
L 2956 3500 
L 3675 769 
L 4391 3500 
L 4966 3500 
L 4050 0 
L 3372 0 
L 2619 2869 
L 1863 0 
L 1184 0 
L 269 3500 
z
" transform="scale(0.015625)"/>
      </defs>
      <use xlink:href="#DejaVuSans-70"/>
      <use xlink:href="#DejaVuSans-61" x="63.476562"/>
      <use xlink:href="#DejaVuSans-74" x="124.755859"/>
      <use xlink:href="#DejaVuSans-68" x="163.964844"/>
      <use xlink:href="#DejaVuSans-77" x="227.34375"/>
      <use xlink:href="#DejaVuSans-61" x="309.130859"/>
      <use xlink:href="#DejaVuSans-79" x="370.410156"/>
     </g>
    </g>
    <g clip-path="url(#p931c55ce54)">
     <!-- REACT:R-HSA- -->
     <g transform="translate(619.373042 183.31125)scale(0.12 -0.12)">
      <defs>
       <path id="DejaVuSans-52" d="M 2841 2188 
Q 3044 2119 3236 1894 
Q 3428 1669 3622 1275 
L 4263 0 
L 3584 0 
L 2988 1197 
Q 2756 1666 2539 1819 
Q 2322 1972 1947 1972 
L 1259 1972 
L 1259 0 
L 628 0 
L 628 4666 
L 2053 4666 
Q 2853 4666 3247 4331 
Q 3641 3997 3641 3322 
Q 3641 2881 3436 2590 
Q 3231 2300 2841 2188 
z
M 1259 4147 
L 1259 2491 
L 2053 2491 
Q 2509 2491 2742 2702 
Q 2975 2913 2975 3322 
Q 2975 3731 2742 3939 
Q 2509 4147 2053 4147 
L 1259 4147 
z
" transform="scale(0.015625)"/>
       <path id="DejaVuSans-41" d="M 2188 4044 
L 1331 1722 
L 3047 1722 
L 2188 4044 
z
M 1831 4666 
L 2547 4666 
L 4325 0 
L 3669 0 
L 3244 1197 
L 1141 1197 
L 716 0 
L 50 0 
L 1831 4666 
z
" transform="scale(0.015625)"/>
       <path id="DejaVuSans-54" d="M -19 4666 
L 3928 4666 
L 3928 4134 
L 2272 4134 
L 2272 0 
L 1638 0 
L 1638 4134 
L -19 4134 
L -19 4666 
z
" transform="scale(0.015625)"/>
       <path id="DejaVuSans-2d" d="M 313 2009 
L 1997 2009 
L 1997 1497 
L 313 1497 
L 313 2009 
z
" transform="scale(0.015625)"/>
      </defs>
      <use xlink:href="#DejaVuSans-52"/>
      <use xlink:href="#DejaVuSans-45" x="69.482422"/>
      <use xlink:href="#DejaVuSans-41" x="132.666016"/>
      <use xlink:href="#DejaVuSans-43" x="199.324219"/>
      <use xlink:href="#DejaVuSans-54" x="269.148438"/>
      <use xlink:href="#DejaVuSans-3a" x="319.232422"/>
      <use xlink:href="#DejaVuSans-52" x="352.923828"/>
      <use xlink:href="#DejaVuSans-2d" x="418.40625"/>
      <use xlink:href="#DejaVuSans-48" x="454.490234"/>
      <use xlink:href="#DejaVuSans-53" x="529.685547"/>
      <use xlink:href="#DejaVuSans-41" x="595.037109"/>
      <use xlink:href="#DejaVuSans-2d" x="661.195312"/>
     </g>
    </g>
    <g clip-path="url(#p931c55ce54)">
     <!-- 390651 -->
     <g transform="translate(638.304917 196.748625)scale(0.12 -0.12)">
      <defs>
       <path id="DejaVuSans-39" d="M 703 97 
L 703 672 
Q 941 559 1184 500 
Q 1428 441 1663 441 
Q 2288 441 2617 861 
Q 2947 1281 2994 2138 
Q 2813 1869 2534 1725 
Q 2256 1581 1919 1581 
Q 1219 1581 811 2004 
Q 403 2428 403 3163 
Q 403 3881 828 4315 
Q 1253 4750 1959 4750 
Q 2769 4750 3195 4129 
Q 3622 3509 3622 2328 
Q 3622 1225 3098 567 
Q 2575 -91 1691 -91 
Q 1453 -91 1209 -44 
Q 966 3 703 97 
z
M 1959 2075 
Q 2384 2075 2632 2365 
Q 2881 2656 2881 3163 
Q 2881 3666 2632 3958 
Q 2384 4250 1959 4250 
Q 1534 4250 1286 3958 
Q 1038 3666 1038 3163 
Q 1038 2656 1286 2365 
Q 1534 2075 1959 2075 
z
" transform="scale(0.015625)"/>
       <path id="DejaVuSans-35" d="M 691 4666 
L 3169 4666 
L 3169 4134 
L 1269 4134 
L 1269 2991 
Q 1406 3038 1543 3061 
Q 1681 3084 1819 3084 
Q 2600 3084 3056 2656 
Q 3513 2228 3513 1497 
Q 3513 744 3044 326 
Q 2575 -91 1722 -91 
Q 1428 -91 1123 -41 
Q 819 9 494 109 
L 494 744 
Q 775 591 1075 516 
Q 1375 441 1709 441 
Q 2250 441 2565 725 
Q 2881 1009 2881 1497 
Q 2881 1984 2565 2268 
Q 2250 2553 1709 2553 
Q 1456 2553 1204 2497 
Q 953 2441 691 2322 
L 691 4666 
z
" transform="scale(0.015625)"/>
       <path id="DejaVuSans-31" d="M 794 531 
L 1825 531 
L 1825 4091 
L 703 3866 
L 703 4441 
L 1819 4666 
L 2450 4666 
L 2450 531 
L 3481 531 
L 3481 0 
L 794 0 
L 794 531 
z
" transform="scale(0.015625)"/>
      </defs>
      <use xlink:href="#DejaVuSans-33"/>
      <use xlink:href="#DejaVuSans-39" x="63.623047"/>
      <use xlink:href="#DejaVuSans-30" x="127.246094"/>
      <use xlink:href="#DejaVuSans-36" x="190.869141"/>
      <use xlink:href="#DejaVuSans-35" x="254.492188"/>
      <use xlink:href="#DejaVuSans-31" x="318.115234"/>
     </g>
    </g>
    <g clip-path="url(#p931c55ce54)">
     <!-- Pathway -->
     <g transform="translate(635.895542 210.186)scale(0.12 -0.12)">
      <defs>
       <path id="DejaVuSans-50" d="M 1259 4147 
L 1259 2394 
L 2053 2394 
Q 2494 2394 2734 2622 
Q 2975 2850 2975 3272 
Q 2975 3691 2734 3919 
Q 2494 4147 2053 4147 
L 1259 4147 
z
M 628 4666 
L 2053 4666 
Q 2838 4666 3239 4311 
Q 3641 3956 3641 3272 
Q 3641 2581 3239 2228 
Q 2838 1875 2053 1875 
L 1259 1875 
L 1259 0 
L 628 0 
L 628 4666 
z
" transform="scale(0.015625)"/>
      </defs>
      <use xlink:href="#DejaVuSans-50"/>
      <use xlink:href="#DejaVuSans-61" x="55.802734"/>
      <use xlink:href="#DejaVuSans-74" x="117.082031"/>
      <use xlink:href="#DejaVuSans-68" x="156.291016"/>
      <use xlink:href="#DejaVuSans-77" x="219.669922"/>
      <use xlink:href="#DejaVuSans-61" x="301.457031"/>
      <use xlink:href="#DejaVuSans-79" x="362.736328"/>
     </g>
    </g>
   </g>
   <g id="text_7">
    <g clip-path="url(#p931c55ce54)">
     <!-- Schizophrenia -->
     <g transform="translate(904.65069 169.873875)scale(0.12 -0.12)">
      <defs>
       <path id="DejaVuSans-7a" d="M 353 3500 
L 3084 3500 
L 3084 2975 
L 922 459 
L 3084 459 
L 3084 0 
L 275 0 
L 275 525 
L 2438 3041 
L 353 3041 
L 353 3500 
z
" transform="scale(0.015625)"/>
      </defs>
      <use xlink:href="#DejaVuSans-53"/>
      <use xlink:href="#DejaVuSans-63" x="63.476562"/>
      <use xlink:href="#DejaVuSans-68" x="118.457031"/>
      <use xlink:href="#DejaVuSans-69" x="181.835938"/>
      <use xlink:href="#DejaVuSans-7a" x="209.619141"/>
      <use xlink:href="#DejaVuSans-6f" x="262.109375"/>
      <use xlink:href="#DejaVuSans-70" x="323.291016"/>
      <use xlink:href="#DejaVuSans-68" x="386.767578"/>
      <use xlink:href="#DejaVuSans-72" x="450.146484"/>
      <use xlink:href="#DejaVuSans-65" x="489.009766"/>
      <use xlink:href="#DejaVuSans-6e" x="550.533203"/>
      <use xlink:href="#DejaVuSans-69" x="613.912109"/>
      <use xlink:href="#DejaVuSans-61" x="641.695312"/>
     </g>
    </g>
    <g clip-path="url(#p931c55ce54)">
     <!-- MESH:D012559 -->
     <g transform="translate(899.994127 183.31125)scale(0.12 -0.12)">
      <defs>
       <path id="DejaVuSans-32" d="M 1228 531 
L 3431 531 
L 3431 0 
L 469 0 
L 469 531 
Q 828 903 1448 1529 
Q 2069 2156 2228 2338 
Q 2531 2678 2651 2914 
Q 2772 3150 2772 3378 
Q 2772 3750 2511 3984 
Q 2250 4219 1831 4219 
Q 1534 4219 1204 4116 
Q 875 4013 500 3803 
L 500 4441 
Q 881 4594 1212 4672 
Q 1544 4750 1819 4750 
Q 2544 4750 2975 4387 
Q 3406 4025 3406 3419 
Q 3406 3131 3298 2873 
Q 3191 2616 2906 2266 
Q 2828 2175 2409 1742 
Q 1991 1309 1228 531 
z
" transform="scale(0.015625)"/>
      </defs>
      <use xlink:href="#DejaVuSans-4d"/>
      <use xlink:href="#DejaVuSans-45" x="86.279297"/>
      <use xlink:href="#DejaVuSans-53" x="149.462891"/>
      <use xlink:href="#DejaVuSans-48" x="212.939453"/>
      <use xlink:href="#DejaVuSans-3a" x="288.134766"/>
      <use xlink:href="#DejaVuSans-44" x="321.826172"/>
      <use xlink:href="#DejaVuSans-30" x="398.828125"/>
      <use xlink:href="#DejaVuSans-31" x="462.451172"/>
      <use xlink:href="#DejaVuSans-32" x="526.074219"/>
      <use xlink:href="#DejaVuSans-35" x="589.697266"/>
      <use xlink:href="#DejaVuSans-35" x="653.320312"/>
      <use xlink:href="#DejaVuSans-39" x="716.943359"/>
     </g>
    </g>
    <g clip-path="url(#p931c55ce54)">
     <!-- Disease -->
     <g transform="translate(923.231002 196.748625)scale(0.12 -0.12)">
      <use xlink:href="#DejaVuSans-44"/>
      <use xlink:href="#DejaVuSans-69" x="77.001953"/>
      <use xlink:href="#DejaVuSans-73" x="104.785156"/>
      <use xlink:href="#DejaVuSans-65" x="156.884766"/>
      <use xlink:href="#DejaVuSans-61" x="218.408203"/>
      <use xlink:href="#DejaVuSans-73" x="279.6875"/>
      <use xlink:href="#DejaVuSans-65" x="331.787109"/>
     </g>
    </g>
   </g>
  </g>
 </g>
 <defs>
  <clipPath id="p931c55ce54">
   <rect x="0" y="0" width="1036.8" height="360"/>
  </clipPath>
 </defs>
</svg>
