<?xml version="1.0" encoding="utf-8" standalone="no"?>
<!DOCTYPE svg PUBLIC "-//W3C//DTD SVG 1.1//EN"
  "http://www.w3.org/Graphics/SVG/1.1/DTD/svg11.dtd">
<svg xmlns:xlink="http://www.w3.org/1999/xlink" width="1036.8pt" height="360pt" viewBox="0 0 1036.8 360" xmlns="http://www.w3.org/2000/svg" version="1.1">
 <metadata>
  <rdf:RDF xmlns:dc="http://purl.org/dc/elements/1.1/" xmlns:cc="http://creativecommons.org/ns#" xmlns:rdf="http://www.w3.org/1999/02/22-rdf-syntax-ns#">
   <cc:Work>
    <dc:type rdf:resource="http://purl.org/dc/dcmitype/StillImage"/>
    <dc:date>2023-02-08T08:51:22.796991</dc:date>
    <dc:format>image/svg+xml</dc:format>
    <dc:creator>
     <cc:Agent>
      <dc:title>Matplotlib v3.5.1, https://matplotlib.org/</dc:title>
     </cc:Agent>
    </dc:creator>
   </cc:Work>
  </rdf:RDF>
 </metadata>
 <defs>
  <style type="text/css">*{stroke-linejoin: round; stroke-linecap: butt}</style>
 </defs>
 <g id="figure_1">
  <g id="patch_1">
   <path d="M 0 360 
L 1036.8 360 
L 1036.8 0 
L 0 0 
z
" style="fill: #ffffff"/>
  </g>
  <g id="axes_1">
   <g id="patch_2">
    <path d="M 142.412623 180 
Q 232.78063 180 319.794535 180 
" clip-path="url(#p3b12eca565)" style="fill: none; stroke: #2ca02c; stroke-width: 3; stroke-linecap: round"/>
    <path d="M 315.794535 178 
L 319.794535 180 
L 315.794535 182 
L 315.794535 178 
z
" clip-path="url(#p3b12eca565)" style="fill: #2ca02c; stroke: #2ca02c; stroke-width: 3; stroke-linecap: round"/>
   </g>
   <g id="patch_3">
    <path d="M 428.032457 180 
Q 518.400465 180 605.41437 180 
" clip-path="url(#p3b12eca565)" style="fill: none; stroke: #2ca02c; stroke-width: 3; stroke-linecap: round"/>
    <path d="M 601.41437 178 
L 605.41437 180 
L 601.41437 182 
L 601.41437 178 
z
" clip-path="url(#p3b12eca565)" style="fill: #2ca02c; stroke: #2ca02c; stroke-width: 3; stroke-linecap: round"/>
   </g>
   <g id="patch_4">
    <path d="M 713.652292 180 
Q 804.020299 180 891.034204 180 
" clip-path="url(#p3b12eca565)" style="fill: none; stroke: #2ca02c; stroke-width: 3; stroke-linecap: round"/>
    <path d="M 887.034204 178 
L 891.034204 180 
L 887.034204 182 
L 887.034204 178 
z
" clip-path="url(#p3b12eca565)" style="fill: #2ca02c; stroke: #2ca02c; stroke-width: 3; stroke-linecap: round"/>
   </g>
   <g id="text_1">
    <g id="patch_5">
     <path d="M 207.410634 193.437969 
L 258.149697 193.437969 
Q 261.149697 193.437969 261.149697 190.437969 
L 261.149697 169.562031 
Q 261.149697 166.562031 258.149697 166.562031 
L 207.410634 166.562031 
Q 204.410634 166.562031 204.410634 169.562031 
L 204.410634 190.437969 
Q 204.410634 193.437969 207.410634 193.437969 
z
" clip-path="url(#p3b12eca565)" style="fill: #ffffff; stroke: #ffffff; stroke-linejoin: miter"/>
    </g>
    <g clip-path="url(#p3b12eca565)">
     <!-- decreases -->
     <g transform="translate(207.410634 177.160469)scale(0.1 -0.1)">
      <defs>
       <path id="DejaVuSans-64" d="M 2906 2969 
L 2906 4863 
L 3481 4863 
L 3481 0 
L 2906 0 
L 2906 525 
Q 2725 213 2448 61 
Q 2172 -91 1784 -91 
Q 1150 -91 751 415 
Q 353 922 353 1747 
Q 353 2572 751 3078 
Q 1150 3584 1784 3584 
Q 2172 3584 2448 3432 
Q 2725 3281 2906 2969 
z
M 947 1747 
Q 947 1113 1208 752 
Q 1469 391 1925 391 
Q 2381 391 2643 752 
Q 2906 1113 2906 1747 
Q 2906 2381 2643 2742 
Q 2381 3103 1925 3103 
Q 1469 3103 1208 2742 
Q 947 2381 947 1747 
z
" transform="scale(0.015625)"/>
       <path id="DejaVuSans-65" d="M 3597 1894 
L 3597 1613 
L 953 1613 
Q 991 1019 1311 708 
Q 1631 397 2203 397 
Q 2534 397 2845 478 
Q 3156 559 3463 722 
L 3463 178 
Q 3153 47 2828 -22 
Q 2503 -91 2169 -91 
Q 1331 -91 842 396 
Q 353 884 353 1716 
Q 353 2575 817 3079 
Q 1281 3584 2069 3584 
Q 2775 3584 3186 3129 
Q 3597 2675 3597 1894 
z
M 3022 2063 
Q 3016 2534 2758 2815 
Q 2500 3097 2075 3097 
Q 1594 3097 1305 2825 
Q 1016 2553 972 2059 
L 3022 2063 
z
" transform="scale(0.015625)"/>
       <path id="DejaVuSans-63" d="M 3122 3366 
L 3122 2828 
Q 2878 2963 2633 3030 
Q 2388 3097 2138 3097 
Q 1578 3097 1268 2742 
Q 959 2388 959 1747 
Q 959 1106 1268 751 
Q 1578 397 2138 397 
Q 2388 397 2633 464 
Q 2878 531 3122 666 
L 3122 134 
Q 2881 22 2623 -34 
Q 2366 -91 2075 -91 
Q 1284 -91 818 406 
Q 353 903 353 1747 
Q 353 2603 823 3093 
Q 1294 3584 2113 3584 
Q 2378 3584 2631 3529 
Q 2884 3475 3122 3366 
z
" transform="scale(0.015625)"/>
       <path id="DejaVuSans-72" d="M 2631 2963 
Q 2534 3019 2420 3045 
Q 2306 3072 2169 3072 
Q 1681 3072 1420 2755 
Q 1159 2438 1159 1844 
L 1159 0 
L 581 0 
L 581 3500 
L 1159 3500 
L 1159 2956 
Q 1341 3275 1631 3429 
Q 1922 3584 2338 3584 
Q 2397 3584 2469 3576 
Q 2541 3569 2628 3553 
L 2631 2963 
z
" transform="scale(0.015625)"/>
       <path id="DejaVuSans-61" d="M 2194 1759 
Q 1497 1759 1228 1600 
Q 959 1441 959 1056 
Q 959 750 1161 570 
Q 1363 391 1709 391 
Q 2188 391 2477 730 
Q 2766 1069 2766 1631 
L 2766 1759 
L 2194 1759 
z
M 3341 1997 
L 3341 0 
L 2766 0 
L 2766 531 
Q 2569 213 2275 61 
Q 1981 -91 1556 -91 
Q 1019 -91 701 211 
Q 384 513 384 1019 
Q 384 1609 779 1909 
Q 1175 2209 1959 2209 
L 2766 2209 
L 2766 2266 
Q 2766 2663 2505 2880 
Q 2244 3097 1772 3097 
Q 1472 3097 1187 3025 
Q 903 2953 641 2809 
L 641 3341 
Q 956 3463 1253 3523 
Q 1550 3584 1831 3584 
Q 2591 3584 2966 3190 
Q 3341 2797 3341 1997 
z
" transform="scale(0.015625)"/>
       <path id="DejaVuSans-73" d="M 2834 3397 
L 2834 2853 
Q 2591 2978 2328 3040 
Q 2066 3103 1784 3103 
Q 1356 3103 1142 2972 
Q 928 2841 928 2578 
Q 928 2378 1081 2264 
Q 1234 2150 1697 2047 
L 1894 2003 
Q 2506 1872 2764 1633 
Q 3022 1394 3022 966 
Q 3022 478 2636 193 
Q 2250 -91 1575 -91 
Q 1294 -91 989 -36 
Q 684 19 347 128 
L 347 722 
Q 666 556 975 473 
Q 1284 391 1588 391 
Q 1994 391 2212 530 
Q 2431 669 2431 922 
Q 2431 1156 2273 1281 
Q 2116 1406 1581 1522 
L 1381 1569 
Q 847 1681 609 1914 
Q 372 2147 372 2553 
Q 372 3047 722 3315 
Q 1072 3584 1716 3584 
Q 2034 3584 2315 3537 
Q 2597 3491 2834 3397 
z
" transform="scale(0.015625)"/>
      </defs>
      <use xlink:href="#DejaVuSans-64"/>
      <use xlink:href="#DejaVuSans-65" x="63.476562"/>
      <use xlink:href="#DejaVuSans-63" x="125"/>
      <use xlink:href="#DejaVuSans-72" x="179.980469"/>
      <use xlink:href="#DejaVuSans-65" x="218.84375"/>
      <use xlink:href="#DejaVuSans-61" x="280.367188"/>
      <use xlink:href="#DejaVuSans-73" x="341.646484"/>
      <use xlink:href="#DejaVuSans-65" x="393.746094"/>
      <use xlink:href="#DejaVuSans-73" x="455.269531"/>
     </g>
    </g>
    <g clip-path="url(#p3b12eca565)">
     <!-- activity of -->
     <g transform="translate(207.941103 188.358281)scale(0.1 -0.1)">
      <defs>
       <path id="DejaVuSans-74" d="M 1172 4494 
L 1172 3500 
L 2356 3500 
L 2356 3053 
L 1172 3053 
L 1172 1153 
Q 1172 725 1289 603 
Q 1406 481 1766 481 
L 2356 481 
L 2356 0 
L 1766 0 
Q 1100 0 847 248 
Q 594 497 594 1153 
L 594 3053 
L 172 3053 
L 172 3500 
L 594 3500 
L 594 4494 
L 1172 4494 
z
" transform="scale(0.015625)"/>
       <path id="DejaVuSans-69" d="M 603 3500 
L 1178 3500 
L 1178 0 
L 603 0 
L 603 3500 
z
M 603 4863 
L 1178 4863 
L 1178 4134 
L 603 4134 
L 603 4863 
z
" transform="scale(0.015625)"/>
       <path id="DejaVuSans-76" d="M 191 3500 
L 800 3500 
L 1894 563 
L 2988 3500 
L 3597 3500 
L 2284 0 
L 1503 0 
L 191 3500 
z
" transform="scale(0.015625)"/>
       <path id="DejaVuSans-79" d="M 2059 -325 
Q 1816 -950 1584 -1140 
Q 1353 -1331 966 -1331 
L 506 -1331 
L 506 -850 
L 844 -850 
Q 1081 -850 1212 -737 
Q 1344 -625 1503 -206 
L 1606 56 
L 191 3500 
L 800 3500 
L 1894 763 
L 2988 3500 
L 3597 3500 
L 2059 -325 
z
" transform="scale(0.015625)"/>
       <path id="DejaVuSans-20" transform="scale(0.015625)"/>
       <path id="DejaVuSans-6f" d="M 1959 3097 
Q 1497 3097 1228 2736 
Q 959 2375 959 1747 
Q 959 1119 1226 758 
Q 1494 397 1959 397 
Q 2419 397 2687 759 
Q 2956 1122 2956 1747 
Q 2956 2369 2687 2733 
Q 2419 3097 1959 3097 
z
M 1959 3584 
Q 2709 3584 3137 3096 
Q 3566 2609 3566 1747 
Q 3566 888 3137 398 
Q 2709 -91 1959 -91 
Q 1206 -91 779 398 
Q 353 888 353 1747 
Q 353 2609 779 3096 
Q 1206 3584 1959 3584 
z
" transform="scale(0.015625)"/>
       <path id="DejaVuSans-66" d="M 2375 4863 
L 2375 4384 
L 1825 4384 
Q 1516 4384 1395 4259 
Q 1275 4134 1275 3809 
L 1275 3500 
L 2222 3500 
L 2222 3053 
L 1275 3053 
L 1275 0 
L 697 0 
L 697 3053 
L 147 3053 
L 147 3500 
L 697 3500 
L 697 3744 
Q 697 4328 969 4595 
Q 1241 4863 1831 4863 
L 2375 4863 
z
" transform="scale(0.015625)"/>
      </defs>
      <use xlink:href="#DejaVuSans-61"/>
      <use xlink:href="#DejaVuSans-63" x="61.279297"/>
      <use xlink:href="#DejaVuSans-74" x="116.259766"/>
      <use xlink:href="#DejaVuSans-69" x="155.46875"/>
      <use xlink:href="#DejaVuSans-76" x="183.251953"/>
      <use xlink:href="#DejaVuSans-69" x="242.431641"/>
      <use xlink:href="#DejaVuSans-74" x="270.214844"/>
      <use xlink:href="#DejaVuSans-79" x="309.423828"/>
      <use xlink:href="#DejaVuSans-20" x="368.603516"/>
      <use xlink:href="#DejaVuSans-6f" x="400.390625"/>
      <use xlink:href="#DejaVuSans-66" x="461.572266"/>
     </g>
    </g>
   </g>
   <g id="text_2">
    <g id="patch_6">
     <path d="M 487.157812 187.839062 
L 549.642187 187.839062 
Q 552.642187 187.839062 552.642187 184.839062 
L 552.642187 175.160937 
Q 552.642187 172.160937 549.642187 172.160937 
L 487.157812 172.160937 
Q 484.157812 172.160937 484.157812 175.160937 
L 484.157812 184.839062 
Q 484.157812 187.839062 487.157812 187.839062 
z
" clip-path="url(#p3b12eca565)" style="fill: #ffffff; stroke: #ffffff; stroke-linejoin: miter"/>
    </g>
    <g clip-path="url(#p3b12eca565)">
     <!-- produced by -->
     <g transform="translate(487.157812 182.759375)scale(0.1 -0.1)">
      <defs>
       <path id="DejaVuSans-70" d="M 1159 525 
L 1159 -1331 
L 581 -1331 
L 581 3500 
L 1159 3500 
L 1159 2969 
Q 1341 3281 1617 3432 
Q 1894 3584 2278 3584 
Q 2916 3584 3314 3078 
Q 3713 2572 3713 1747 
Q 3713 922 3314 415 
Q 2916 -91 2278 -91 
Q 1894 -91 1617 61 
Q 1341 213 1159 525 
z
M 3116 1747 
Q 3116 2381 2855 2742 
Q 2594 3103 2138 3103 
Q 1681 3103 1420 2742 
Q 1159 2381 1159 1747 
Q 1159 1113 1420 752 
Q 1681 391 2138 391 
Q 2594 391 2855 752 
Q 3116 1113 3116 1747 
z
" transform="scale(0.015625)"/>
       <path id="DejaVuSans-75" d="M 544 1381 
L 544 3500 
L 1119 3500 
L 1119 1403 
Q 1119 906 1312 657 
Q 1506 409 1894 409 
Q 2359 409 2629 706 
Q 2900 1003 2900 1516 
L 2900 3500 
L 3475 3500 
L 3475 0 
L 2900 0 
L 2900 538 
Q 2691 219 2414 64 
Q 2138 -91 1772 -91 
Q 1169 -91 856 284 
Q 544 659 544 1381 
z
M 1991 3584 
L 1991 3584 
z
" transform="scale(0.015625)"/>
       <path id="DejaVuSans-62" d="M 3116 1747 
Q 3116 2381 2855 2742 
Q 2594 3103 2138 3103 
Q 1681 3103 1420 2742 
Q 1159 2381 1159 1747 
Q 1159 1113 1420 752 
Q 1681 391 2138 391 
Q 2594 391 2855 752 
Q 3116 1113 3116 1747 
z
M 1159 2969 
Q 1341 3281 1617 3432 
Q 1894 3584 2278 3584 
Q 2916 3584 3314 3078 
Q 3713 2572 3713 1747 
Q 3713 922 3314 415 
Q 2916 -91 2278 -91 
Q 1894 -91 1617 61 
Q 1341 213 1159 525 
L 1159 0 
L 581 0 
L 581 4863 
L 1159 4863 
L 1159 2969 
z
" transform="scale(0.015625)"/>
      </defs>
      <use xlink:href="#DejaVuSans-70"/>
      <use xlink:href="#DejaVuSans-72" x="63.476562"/>
      <use xlink:href="#DejaVuSans-6f" x="102.339844"/>
      <use xlink:href="#DejaVuSans-64" x="163.521484"/>
      <use xlink:href="#DejaVuSans-75" x="226.998047"/>
      <use xlink:href="#DejaVuSans-63" x="290.376953"/>
      <use xlink:href="#DejaVuSans-65" x="345.357422"/>
      <use xlink:href="#DejaVuSans-64" x="406.880859"/>
      <use xlink:href="#DejaVuSans-20" x="470.357422"/>
      <use xlink:href="#DejaVuSans-62" x="502.144531"/>
      <use xlink:href="#DejaVuSans-79" x="565.621094"/>
     </g>
    </g>
   </g>
   <g id="text_3">
    <g id="patch_7">
     <path d="M 786.751866 187.839062 
L 821.287803 187.839062 
Q 824.287803 187.839062 824.287803 184.839062 
L 824.287803 175.160937 
Q 824.287803 172.160937 821.287803 172.160937 
L 786.751866 172.160937 
Q 783.751866 172.160937 783.751866 175.160937 
L 783.751866 184.839062 
Q 783.751866 187.839062 786.751866 187.839062 
z
" clip-path="url(#p3b12eca565)" style="fill: #ffffff; stroke: #ffffff; stroke-linejoin: miter"/>
    </g>
    <g clip-path="url(#p3b12eca565)">
     <!-- causes -->
     <g transform="translate(786.751866 182.759375)scale(0.1 -0.1)">
      <use xlink:href="#DejaVuSans-63"/>
      <use xlink:href="#DejaVuSans-61" x="54.980469"/>
      <use xlink:href="#DejaVuSans-75" x="116.259766"/>
      <use xlink:href="#DejaVuSans-73" x="179.638672"/>
      <use xlink:href="#DejaVuSans-65" x="231.738281"/>
      <use xlink:href="#DejaVuSans-73" x="293.261719"/>
     </g>
    </g>
   </g>
   <g id="PathCollection_1">
    <defs>
     <path id="C0_0_b74bd4df15" d="M 0 52.440442 
C 13.907368 52.440442 27.246998 46.914987 37.080992 37.080992 
C 46.914987 27.246998 52.440442 13.907368 52.440442 -0 
C 52.440442 -13.907368 46.914987 -27.246998 37.080992 -37.080992 
C 27.246998 -46.914987 13.907368 -52.440442 0 -52.440442 
C -13.907368 -52.440442 -27.246998 -46.914987 -37.080992 -37.080992 
C -46.914987 -27.246998 -52.440442 -13.907368 -52.440442 0 
C -52.440442 13.907368 -46.914987 27.246998 -37.080992 37.080992 
C -27.246998 46.914987 -13.907368 52.440442 0 52.440442 
z
"/>
    </defs>
    <g clip-path="url(#p3b12eca565)">
     <use xlink:href="#C0_0_b74bd4df15" x="89.970248" y="180" style="fill: #01c472; stroke: #01c472"/>
    </g>
    <g clip-path="url(#p3b12eca565)">
     <use xlink:href="#C0_0_b74bd4df15" x="375.590083" y="180" style="fill: #e71761; stroke: #e71761"/>
    </g>
    <g clip-path="url(#p3b12eca565)">
     <use xlink:href="#C0_0_b74bd4df15" x="661.209917" y="180" style="fill: #e9bf98; stroke: #e9bf98"/>
    </g>
    <g clip-path="url(#p3b12eca565)">
     <use xlink:href="#C0_0_b74bd4df15" x="946.829752" y="180" style="fill: #70c6ca; stroke: #70c6ca"/>
    </g>
   </g>
   <g id="text_4">
    <path d="M 347.82977 155.379562 
L 347.82977 158.666437 
L 349.31852 158.666437 
Q 350.145395 158.666437 350.595395 158.238937 
Q 351.04727 157.811437 351.04727 157.020187 
Q 351.04727 156.234562 350.595395 155.807062 
Q 350.145395 155.379562 349.31852 155.379562 
L 347.82977 155.379562 
z
M 346.646645 154.406437 
L 349.31852 154.406437 
Q 350.790395 154.406437 351.54227 155.072062 
Q 352.29602 155.737687 352.29602 157.020187 
Q 352.29602 158.315812 351.54227 158.977687 
Q 350.790395 159.639562 349.31852 159.639562 
L 347.82977 159.639562 
L 347.82977 163.155187 
L 346.646645 163.155187 
L 346.646645 154.406437 
z
M 357.428598 157.599562 
Q 357.246723 157.494562 357.032973 157.445812 
Q 356.819223 157.395187 356.562348 157.395187 
Q 355.647348 157.395187 355.157973 157.989562 
Q 354.668598 158.583937 354.668598 159.697687 
L 354.668598 163.155187 
L 353.584848 163.155187 
L 353.584848 156.592687 
L 354.668598 156.592687 
L 354.668598 157.612687 
Q 355.009848 157.014562 355.553598 156.725812 
Q 356.099223 156.435187 356.879223 156.435187 
Q 356.989848 156.435187 357.124848 156.450187 
Q 357.259848 156.463312 357.422973 156.493312 
L 357.428598 157.599562 
z
M 360.832192 157.348312 
Q 359.965942 157.348312 359.461567 158.025187 
Q 358.957192 158.702062 358.957192 159.879562 
Q 358.957192 161.057062 359.457817 161.733937 
Q 359.960317 162.410812 360.832192 162.410812 
Q 361.694692 162.410812 362.197192 161.732062 
Q 362.701567 161.051437 362.701567 159.879562 
Q 362.701567 158.713312 362.197192 158.030812 
Q 361.694692 157.348312 360.832192 157.348312 
z
M 360.832192 156.435187 
Q 362.238442 156.435187 363.040942 157.350187 
Q 363.845317 158.263312 363.845317 159.879562 
Q 363.845317 161.490187 363.040942 162.408937 
Q 362.238442 163.325812 360.832192 163.325812 
Q 359.420317 163.325812 358.619692 162.408937 
Q 357.820942 161.490187 357.820942 159.879562 
Q 357.820942 158.263312 358.619692 157.350187 
Q 359.420317 156.435187 360.832192 156.435187 
z
M 366.698364 154.728937 
L 366.698364 156.592687 
L 368.918364 156.592687 
L 368.918364 157.430812 
L 366.698364 157.430812 
L 366.698364 160.993312 
Q 366.698364 161.795812 366.917739 162.024562 
Q 367.137114 162.253312 367.812114 162.253312 
L 368.918364 162.253312 
L 368.918364 163.155187 
L 367.812114 163.155187 
Q 366.563364 163.155187 366.088989 162.690187 
Q 365.614614 162.223312 365.614614 160.993312 
L 365.614614 157.430812 
L 364.823364 157.430812 
L 364.823364 156.592687 
L 365.614614 156.592687 
L 365.614614 154.728937 
L 366.698364 154.728937 
z
M 375.950317 159.603937 
L 375.950317 160.130812 
L 370.992817 160.130812 
Q 371.064067 161.244562 371.664067 161.827687 
Q 372.264067 162.410812 373.336567 162.410812 
Q 373.957192 162.410812 374.540317 162.258937 
Q 375.123442 162.107062 375.699067 161.801437 
L 375.699067 162.821437 
Q 375.117817 163.067062 374.508442 163.196437 
Q 373.899067 163.325812 373.272817 163.325812 
Q 371.701567 163.325812 370.784692 162.412687 
Q 369.867817 161.497687 369.867817 159.937687 
Q 369.867817 158.327062 370.737817 157.382062 
Q 371.607817 156.435187 373.085317 156.435187 
Q 374.409067 156.435187 375.179692 157.288312 
Q 375.950317 158.139562 375.950317 159.603937 
z
M 374.872192 159.287062 
Q 374.860942 158.403937 374.377192 157.877062 
Q 373.893442 157.348312 373.096567 157.348312 
Q 372.194692 157.348312 371.652817 157.858312 
Q 371.110942 158.368312 371.028442 159.294562 
L 374.872192 159.287062 
z
M 382.442505 156.843937 
L 382.442505 157.852687 
Q 381.985005 157.599562 381.52563 157.473937 
Q 381.066255 157.348312 380.597505 157.348312 
Q 379.547505 157.348312 378.966255 158.013937 
Q 378.38688 158.677687 378.38688 159.879562 
Q 378.38688 161.081437 378.966255 161.747062 
Q 379.547505 162.410812 380.597505 162.410812 
Q 381.066255 162.410812 381.52563 162.285187 
Q 381.985005 162.159562 382.442505 161.906437 
L 382.442505 162.903937 
Q 381.99063 163.113937 381.50688 163.218937 
Q 381.025005 163.325812 380.47938 163.325812 
Q 378.996255 163.325812 378.122505 162.393937 
Q 377.25063 161.462062 377.25063 159.879562 
Q 377.25063 158.274562 378.13188 157.355812 
Q 379.015005 156.435187 380.55063 156.435187 
Q 381.047505 156.435187 381.52188 156.538312 
Q 381.996255 156.639562 382.442505 156.843937 
z
M 385.383911 154.728937 
L 385.383911 156.592687 
L 387.603911 156.592687 
L 387.603911 157.430812 
L 385.383911 157.430812 
L 385.383911 160.993312 
Q 385.383911 161.795812 385.603286 162.024562 
Q 385.822661 162.253312 386.497661 162.253312 
L 387.603911 162.253312 
L 387.603911 163.155187 
L 386.497661 163.155187 
Q 385.248911 163.155187 384.774536 162.690187 
Q 384.300161 162.223312 384.300161 160.993312 
L 384.300161 157.430812 
L 383.508911 157.430812 
L 383.508911 156.592687 
L 384.300161 156.592687 
L 384.300161 154.728937 
L 385.383911 154.728937 
z
M 389.022114 156.592687 
L 390.100239 156.592687 
L 390.100239 163.155187 
L 389.022114 163.155187 
L 389.022114 156.592687 
z
M 389.022114 154.037062 
L 390.100239 154.037062 
L 390.100239 155.403937 
L 389.022114 155.403937 
L 389.022114 154.037062 
z
M 391.583598 156.592687 
L 392.725473 156.592687 
L 394.776723 162.099562 
L 396.827973 156.592687 
L 397.969848 156.592687 
L 395.507973 163.155187 
L 394.043598 163.155187 
L 391.583598 156.592687 
z
M 405.071411 159.603937 
L 405.071411 160.130812 
L 400.113911 160.130812 
Q 400.185161 161.244562 400.785161 161.827687 
Q 401.385161 162.410812 402.457661 162.410812 
Q 403.078286 162.410812 403.661411 162.258937 
Q 404.244536 162.107062 404.820161 161.801437 
L 404.820161 162.821437 
Q 404.238911 163.067062 403.629536 163.196437 
Q 403.020161 163.325812 402.393911 163.325812 
Q 400.822661 163.325812 399.905786 162.412687 
Q 398.988911 161.497687 398.988911 159.937687 
Q 398.988911 158.327062 399.858911 157.382062 
Q 400.728911 156.435187 402.206411 156.435187 
Q 403.530161 156.435187 404.300786 157.288312 
Q 405.071411 158.139562 405.071411 159.603937 
z
M 403.993286 159.287062 
Q 403.982036 158.403937 403.498286 157.877062 
Q 403.014536 157.348312 402.217661 157.348312 
Q 401.315786 157.348312 400.773911 157.858312 
Q 400.232036 158.368312 400.149536 159.294562 
L 403.993286 159.287062 
z
" clip-path="url(#p3b12eca565)" style="fill: #ffffff; stroke: #000000; stroke-width: 2"/>
    <path d="M 347.82977 155.379562 
L 347.82977 158.666437 
L 349.31852 158.666437 
Q 350.145395 158.666437 350.595395 158.238937 
Q 351.04727 157.811437 351.04727 157.020187 
Q 351.04727 156.234562 350.595395 155.807062 
Q 350.145395 155.379562 349.31852 155.379562 
L 347.82977 155.379562 
z
M 346.646645 154.406437 
L 349.31852 154.406437 
Q 350.790395 154.406437 351.54227 155.072062 
Q 352.29602 155.737687 352.29602 157.020187 
Q 352.29602 158.315812 351.54227 158.977687 
Q 350.790395 159.639562 349.31852 159.639562 
L 347.82977 159.639562 
L 347.82977 163.155187 
L 346.646645 163.155187 
L 346.646645 154.406437 
z
M 357.428598 157.599562 
Q 357.246723 157.494562 357.032973 157.445812 
Q 356.819223 157.395187 356.562348 157.395187 
Q 355.647348 157.395187 355.157973 157.989562 
Q 354.668598 158.583937 354.668598 159.697687 
L 354.668598 163.155187 
L 353.584848 163.155187 
L 353.584848 156.592687 
L 354.668598 156.592687 
L 354.668598 157.612687 
Q 355.009848 157.014562 355.553598 156.725812 
Q 356.099223 156.435187 356.879223 156.435187 
Q 356.989848 156.435187 357.124848 156.450187 
Q 357.259848 156.463312 357.422973 156.493312 
L 357.428598 157.599562 
z
M 360.832192 157.348312 
Q 359.965942 157.348312 359.461567 158.025187 
Q 358.957192 158.702062 358.957192 159.879562 
Q 358.957192 161.057062 359.457817 161.733937 
Q 359.960317 162.410812 360.832192 162.410812 
Q 361.694692 162.410812 362.197192 161.732062 
Q 362.701567 161.051437 362.701567 159.879562 
Q 362.701567 158.713312 362.197192 158.030812 
Q 361.694692 157.348312 360.832192 157.348312 
z
M 360.832192 156.435187 
Q 362.238442 156.435187 363.040942 157.350187 
Q 363.845317 158.263312 363.845317 159.879562 
Q 363.845317 161.490187 363.040942 162.408937 
Q 362.238442 163.325812 360.832192 163.325812 
Q 359.420317 163.325812 358.619692 162.408937 
Q 357.820942 161.490187 357.820942 159.879562 
Q 357.820942 158.263312 358.619692 157.350187 
Q 359.420317 156.435187 360.832192 156.435187 
z
M 366.698364 154.728937 
L 366.698364 156.592687 
L 368.918364 156.592687 
L 368.918364 157.430812 
L 366.698364 157.430812 
L 366.698364 160.993312 
Q 366.698364 161.795812 366.917739 162.024562 
Q 367.137114 162.253312 367.812114 162.253312 
L 368.918364 162.253312 
L 368.918364 163.155187 
L 367.812114 163.155187 
Q 366.563364 163.155187 366.088989 162.690187 
Q 365.614614 162.223312 365.614614 160.993312 
L 365.614614 157.430812 
L 364.823364 157.430812 
L 364.823364 156.592687 
L 365.614614 156.592687 
L 365.614614 154.728937 
L 366.698364 154.728937 
z
M 375.950317 159.603937 
L 375.950317 160.130812 
L 370.992817 160.130812 
Q 371.064067 161.244562 371.664067 161.827687 
Q 372.264067 162.410812 373.336567 162.410812 
Q 373.957192 162.410812 374.540317 162.258937 
Q 375.123442 162.107062 375.699067 161.801437 
L 375.699067 162.821437 
Q 375.117817 163.067062 374.508442 163.196437 
Q 373.899067 163.325812 373.272817 163.325812 
Q 371.701567 163.325812 370.784692 162.412687 
Q 369.867817 161.497687 369.867817 159.937687 
Q 369.867817 158.327062 370.737817 157.382062 
Q 371.607817 156.435187 373.085317 156.435187 
Q 374.409067 156.435187 375.179692 157.288312 
Q 375.950317 158.139562 375.950317 159.603937 
z
M 374.872192 159.287062 
Q 374.860942 158.403937 374.377192 157.877062 
Q 373.893442 157.348312 373.096567 157.348312 
Q 372.194692 157.348312 371.652817 157.858312 
Q 371.110942 158.368312 371.028442 159.294562 
L 374.872192 159.287062 
z
M 382.442505 156.843937 
L 382.442505 157.852687 
Q 381.985005 157.599562 381.52563 157.473937 
Q 381.066255 157.348312 380.597505 157.348312 
Q 379.547505 157.348312 378.966255 158.013937 
Q 378.38688 158.677687 378.38688 159.879562 
Q 378.38688 161.081437 378.966255 161.747062 
Q 379.547505 162.410812 380.597505 162.410812 
Q 381.066255 162.410812 381.52563 162.285187 
Q 381.985005 162.159562 382.442505 161.906437 
L 382.442505 162.903937 
Q 381.99063 163.113937 381.50688 163.218937 
Q 381.025005 163.325812 380.47938 163.325812 
Q 378.996255 163.325812 378.122505 162.393937 
Q 377.25063 161.462062 377.25063 159.879562 
Q 377.25063 158.274562 378.13188 157.355812 
Q 379.015005 156.435187 380.55063 156.435187 
Q 381.047505 156.435187 381.52188 156.538312 
Q 381.996255 156.639562 382.442505 156.843937 
z
M 385.383911 154.728937 
L 385.383911 156.592687 
L 387.603911 156.592687 
L 387.603911 157.430812 
L 385.383911 157.430812 
L 385.383911 160.993312 
Q 385.383911 161.795812 385.603286 162.024562 
Q 385.822661 162.253312 386.497661 162.253312 
L 387.603911 162.253312 
L 387.603911 163.155187 
L 386.497661 163.155187 
Q 385.248911 163.155187 384.774536 162.690187 
Q 384.300161 162.223312 384.300161 160.993312 
L 384.300161 157.430812 
L 383.508911 157.430812 
L 383.508911 156.592687 
L 384.300161 156.592687 
L 384.300161 154.728937 
L 385.383911 154.728937 
z
M 389.022114 156.592687 
L 390.100239 156.592687 
L 390.100239 163.155187 
L 389.022114 163.155187 
L 389.022114 156.592687 
z
M 389.022114 154.037062 
L 390.100239 154.037062 
L 390.100239 155.403937 
L 389.022114 155.403937 
L 389.022114 154.037062 
z
M 391.583598 156.592687 
L 392.725473 156.592687 
L 394.776723 162.099562 
L 396.827973 156.592687 
L 397.969848 156.592687 
L 395.507973 163.155187 
L 394.043598 163.155187 
L 391.583598 156.592687 
z
M 405.071411 159.603937 
L 405.071411 160.130812 
L 400.113911 160.130812 
Q 400.185161 161.244562 400.785161 161.827687 
Q 401.385161 162.410812 402.457661 162.410812 
Q 403.078286 162.410812 403.661411 162.258937 
Q 404.244536 162.107062 404.820161 161.801437 
L 404.820161 162.821437 
Q 404.238911 163.067062 403.629536 163.196437 
Q 403.020161 163.325812 402.393911 163.325812 
Q 400.822661 163.325812 399.905786 162.412687 
Q 398.988911 161.497687 398.988911 159.937687 
Q 398.988911 158.327062 399.858911 157.382062 
Q 400.728911 156.435187 402.206411 156.435187 
Q 403.530161 156.435187 404.300786 157.288312 
Q 405.071411 158.139562 405.071411 159.603937 
z
M 403.993286 159.287062 
Q 403.982036 158.403937 403.498286 157.877062 
Q 403.014536 157.348312 402.217661 157.348312 
Q 401.315786 157.348312 400.773911 157.858312 
Q 400.232036 158.368312 400.149536 159.294562 
L 403.993286 159.287062 
z
" clip-path="url(#p3b12eca565)" style="fill: #ffffff"/>
    <path d="M 356.901958 173.294437 
Q 355.595083 173.294437 355.090708 173.592562 
Q 354.586333 173.890687 354.586333 174.612562 
Q 354.586333 175.186312 354.965083 175.523812 
Q 355.343833 175.859437 355.992583 175.859437 
Q 356.890708 175.859437 357.432583 175.223812 
Q 357.974458 174.588187 357.974458 173.534437 
L 357.974458 173.294437 
L 356.901958 173.294437 
z
M 359.052583 172.848187 
L 359.052583 176.592562 
L 357.974458 176.592562 
L 357.974458 175.596937 
Q 357.605083 176.193187 357.053833 176.478187 
Q 356.502583 176.763187 355.705708 176.763187 
Q 354.698833 176.763187 354.102583 176.196937 
Q 353.508208 175.630687 353.508208 174.681937 
Q 353.508208 173.575687 354.248833 173.013187 
Q 354.991333 172.450687 356.461333 172.450687 
L 357.974458 172.450687 
L 357.974458 172.343812 
Q 357.974458 171.599437 357.485083 171.192562 
Q 356.995708 170.785687 356.110708 170.785687 
Q 355.548208 170.785687 355.013833 170.920687 
Q 354.481333 171.055687 353.990083 171.325687 
L 353.990083 170.328187 
Q 354.580708 170.099437 355.137583 169.986937 
Q 355.694458 169.872562 356.221333 169.872562 
Q 357.646333 169.872562 358.349458 170.611312 
Q 359.052583 171.348187 359.052583 172.848187 
z
M 366.728598 172.630687 
L 366.728598 176.592562 
L 365.650473 176.592562 
L 365.650473 172.666312 
Q 365.650473 171.734437 365.286723 171.273187 
Q 364.922973 170.810062 364.197348 170.810062 
Q 363.323598 170.810062 362.819223 171.366937 
Q 362.314848 171.921937 362.314848 172.883812 
L 362.314848 176.592562 
L 361.231098 176.592562 
L 361.231098 170.030062 
L 362.314848 170.030062 
L 362.314848 171.050062 
Q 362.702973 170.457562 363.226098 170.165062 
Q 363.751098 169.872562 364.437348 169.872562 
Q 365.567973 169.872562 366.147348 170.571937 
Q 366.728598 171.271312 366.728598 172.630687 
z
M 369.944692 168.166312 
L 369.944692 170.030062 
L 372.164692 170.030062 
L 372.164692 170.868187 
L 369.944692 170.868187 
L 369.944692 174.430687 
Q 369.944692 175.233187 370.164067 175.461937 
Q 370.383442 175.690687 371.058442 175.690687 
L 372.164692 175.690687 
L 372.164692 176.592562 
L 371.058442 176.592562 
Q 369.809692 176.592562 369.335317 176.127562 
Q 368.860942 175.660687 368.860942 174.430687 
L 368.860942 170.868187 
L 368.069692 170.868187 
L 368.069692 170.030062 
L 368.860942 170.030062 
L 368.860942 168.166312 
L 369.944692 168.166312 
z
M 373.582895 170.030062 
L 374.66102 170.030062 
L 374.66102 176.592562 
L 373.582895 176.592562 
L 373.582895 170.030062 
z
M 373.582895 167.474437 
L 374.66102 167.474437 
L 374.66102 168.841312 
L 373.582895 168.841312 
L 373.582895 167.474437 
z
M 381.235005 173.234437 
Q 381.235005 172.062562 380.751255 171.419437 
Q 380.26938 170.774437 379.39563 170.774437 
Q 378.52938 170.774437 378.04563 171.419437 
Q 377.56188 172.062562 377.56188 173.234437 
Q 377.56188 174.400687 378.04563 175.045687 
Q 378.52938 175.690687 379.39563 175.690687 
Q 380.26938 175.690687 380.751255 175.045687 
Q 381.235005 174.400687 381.235005 173.234437 
z
M 382.31313 175.778812 
Q 382.31313 177.453187 381.568755 178.270687 
Q 380.826255 179.088187 379.29063 179.088187 
Q 378.722505 179.088187 378.21813 179.003812 
Q 377.713755 178.919437 377.23938 178.743187 
L 377.23938 177.695062 
Q 377.713755 177.951937 378.17688 178.073812 
Q 378.640005 178.197562 379.120005 178.197562 
Q 380.181255 178.197562 380.70813 177.644437 
Q 381.235005 177.091312 381.235005 175.971937 
L 381.235005 175.437562 
Q 380.901255 176.018812 380.380005 176.305687 
Q 379.858755 176.592562 379.131255 176.592562 
Q 377.92563 176.592562 377.18688 175.673812 
Q 376.44813 174.753187 376.44813 173.234437 
Q 376.44813 171.711937 377.18688 170.793187 
Q 377.92563 169.872562 379.131255 169.872562 
Q 379.858755 169.872562 380.380005 170.159437 
Q 380.901255 170.446312 381.235005 171.025687 
L 381.235005 170.030062 
L 382.31313 170.030062 
L 382.31313 175.778812 
z
M 390.147817 173.041312 
L 390.147817 173.568187 
L 385.190317 173.568187 
Q 385.261567 174.681937 385.861567 175.265062 
Q 386.461567 175.848187 387.534067 175.848187 
Q 388.154692 175.848187 388.737817 175.696312 
Q 389.320942 175.544437 389.896567 175.238812 
L 389.896567 176.258812 
Q 389.315317 176.504437 388.705942 176.633812 
Q 388.096567 176.763187 387.470317 176.763187 
Q 385.899067 176.763187 384.982192 175.850062 
Q 384.065317 174.935062 384.065317 173.375062 
Q 384.065317 171.764437 384.935317 170.819437 
Q 385.805317 169.872562 387.282817 169.872562 
Q 388.606567 169.872562 389.377192 170.725687 
Q 390.147817 171.576937 390.147817 173.041312 
z
M 389.069692 172.724437 
Q 389.058442 171.841312 388.574692 171.314437 
Q 388.090942 170.785687 387.294067 170.785687 
Q 386.392192 170.785687 385.850317 171.295687 
Q 385.308442 171.805687 385.225942 172.731937 
L 389.069692 172.724437 
z
M 397.37313 172.630687 
L 397.37313 176.592562 
L 396.295005 176.592562 
L 396.295005 172.666312 
Q 396.295005 171.734437 395.931255 171.273187 
Q 395.567505 170.810062 394.84188 170.810062 
Q 393.96813 170.810062 393.463755 171.366937 
Q 392.95938 171.921937 392.95938 172.883812 
L 392.95938 176.592562 
L 391.87563 176.592562 
L 391.87563 170.030062 
L 392.95938 170.030062 
L 392.95938 171.050062 
Q 393.347505 170.457562 393.87063 170.165062 
Q 394.39563 169.872562 395.08188 169.872562 
Q 396.212505 169.872562 396.79188 170.571937 
Q 397.37313 171.271312 397.37313 172.630687 
z
" clip-path="url(#p3b12eca565)" style="fill: #ffffff; stroke: #000000; stroke-width: 2"/>
    <path d="M 356.901958 173.294437 
Q 355.595083 173.294437 355.090708 173.592562 
Q 354.586333 173.890687 354.586333 174.612562 
Q 354.586333 175.186312 354.965083 175.523812 
Q 355.343833 175.859437 355.992583 175.859437 
Q 356.890708 175.859437 357.432583 175.223812 
Q 357.974458 174.588187 357.974458 173.534437 
L 357.974458 173.294437 
L 356.901958 173.294437 
z
M 359.052583 172.848187 
L 359.052583 176.592562 
L 357.974458 176.592562 
L 357.974458 175.596937 
Q 357.605083 176.193187 357.053833 176.478187 
Q 356.502583 176.763187 355.705708 176.763187 
Q 354.698833 176.763187 354.102583 176.196937 
Q 353.508208 175.630687 353.508208 174.681937 
Q 353.508208 173.575687 354.248833 173.013187 
Q 354.991333 172.450687 356.461333 172.450687 
L 357.974458 172.450687 
L 357.974458 172.343812 
Q 357.974458 171.599437 357.485083 171.192562 
Q 356.995708 170.785687 356.110708 170.785687 
Q 355.548208 170.785687 355.013833 170.920687 
Q 354.481333 171.055687 353.990083 171.325687 
L 353.990083 170.328187 
Q 354.580708 170.099437 355.137583 169.986937 
Q 355.694458 169.872562 356.221333 169.872562 
Q 357.646333 169.872562 358.349458 170.611312 
Q 359.052583 171.348187 359.052583 172.848187 
z
M 366.728598 172.630687 
L 366.728598 176.592562 
L 365.650473 176.592562 
L 365.650473 172.666312 
Q 365.650473 171.734437 365.286723 171.273187 
Q 364.922973 170.810062 364.197348 170.810062 
Q 363.323598 170.810062 362.819223 171.366937 
Q 362.314848 171.921937 362.314848 172.883812 
L 362.314848 176.592562 
L 361.231098 176.592562 
L 361.231098 170.030062 
L 362.314848 170.030062 
L 362.314848 171.050062 
Q 362.702973 170.457562 363.226098 170.165062 
Q 363.751098 169.872562 364.437348 169.872562 
Q 365.567973 169.872562 366.147348 170.571937 
Q 366.728598 171.271312 366.728598 172.630687 
z
M 369.944692 168.166312 
L 369.944692 170.030062 
L 372.164692 170.030062 
L 372.164692 170.868187 
L 369.944692 170.868187 
L 369.944692 174.430687 
Q 369.944692 175.233187 370.164067 175.461937 
Q 370.383442 175.690687 371.058442 175.690687 
L 372.164692 175.690687 
L 372.164692 176.592562 
L 371.058442 176.592562 
Q 369.809692 176.592562 369.335317 176.127562 
Q 368.860942 175.660687 368.860942 174.430687 
L 368.860942 170.868187 
L 368.069692 170.868187 
L 368.069692 170.030062 
L 368.860942 170.030062 
L 368.860942 168.166312 
L 369.944692 168.166312 
z
M 373.582895 170.030062 
L 374.66102 170.030062 
L 374.66102 176.592562 
L 373.582895 176.592562 
L 373.582895 170.030062 
z
M 373.582895 167.474437 
L 374.66102 167.474437 
L 374.66102 168.841312 
L 373.582895 168.841312 
L 373.582895 167.474437 
z
M 381.235005 173.234437 
Q 381.235005 172.062562 380.751255 171.419437 
Q 380.26938 170.774437 379.39563 170.774437 
Q 378.52938 170.774437 378.04563 171.419437 
Q 377.56188 172.062562 377.56188 173.234437 
Q 377.56188 174.400687 378.04563 175.045687 
Q 378.52938 175.690687 379.39563 175.690687 
Q 380.26938 175.690687 380.751255 175.045687 
Q 381.235005 174.400687 381.235005 173.234437 
z
M 382.31313 175.778812 
Q 382.31313 177.453187 381.568755 178.270687 
Q 380.826255 179.088187 379.29063 179.088187 
Q 378.722505 179.088187 378.21813 179.003812 
Q 377.713755 178.919437 377.23938 178.743187 
L 377.23938 177.695062 
Q 377.713755 177.951937 378.17688 178.073812 
Q 378.640005 178.197562 379.120005 178.197562 
Q 380.181255 178.197562 380.70813 177.644437 
Q 381.235005 177.091312 381.235005 175.971937 
L 381.235005 175.437562 
Q 380.901255 176.018812 380.380005 176.305687 
Q 379.858755 176.592562 379.131255 176.592562 
Q 377.92563 176.592562 377.18688 175.673812 
Q 376.44813 174.753187 376.44813 173.234437 
Q 376.44813 171.711937 377.18688 170.793187 
Q 377.92563 169.872562 379.131255 169.872562 
Q 379.858755 169.872562 380.380005 170.159437 
Q 380.901255 170.446312 381.235005 171.025687 
L 381.235005 170.030062 
L 382.31313 170.030062 
L 382.31313 175.778812 
z
M 390.147817 173.041312 
L 390.147817 173.568187 
L 385.190317 173.568187 
Q 385.261567 174.681937 385.861567 175.265062 
Q 386.461567 175.848187 387.534067 175.848187 
Q 388.154692 175.848187 388.737817 175.696312 
Q 389.320942 175.544437 389.896567 175.238812 
L 389.896567 176.258812 
Q 389.315317 176.504437 388.705942 176.633812 
Q 388.096567 176.763187 387.470317 176.763187 
Q 385.899067 176.763187 384.982192 175.850062 
Q 384.065317 174.935062 384.065317 173.375062 
Q 384.065317 171.764437 384.935317 170.819437 
Q 385.805317 169.872562 387.282817 169.872562 
Q 388.606567 169.872562 389.377192 170.725687 
Q 390.147817 171.576937 390.147817 173.041312 
z
M 389.069692 172.724437 
Q 389.058442 171.841312 388.574692 171.314437 
Q 388.090942 170.785687 387.294067 170.785687 
Q 386.392192 170.785687 385.850317 171.295687 
Q 385.308442 171.805687 385.225942 172.731937 
L 389.069692 172.724437 
z
M 397.37313 172.630687 
L 397.37313 176.592562 
L 396.295005 176.592562 
L 396.295005 172.666312 
Q 396.295005 171.734437 395.931255 171.273187 
Q 395.567505 170.810062 394.84188 170.810062 
Q 393.96813 170.810062 393.463755 171.366937 
Q 392.95938 171.921937 392.95938 172.883812 
L 392.95938 176.592562 
L 391.87563 176.592562 
L 391.87563 170.030062 
L 392.95938 170.030062 
L 392.95938 171.050062 
Q 393.347505 170.457562 393.87063 170.165062 
Q 394.39563 169.872562 395.08188 169.872562 
Q 396.212505 169.872562 396.79188 170.571937 
Q 397.37313 171.271312 397.37313 172.630687 
z
" clip-path="url(#p3b12eca565)" style="fill: #ffffff"/>
    <path d="M 330.177583 181.281187 
L 331.368208 181.281187 
L 331.368208 186.596812 
Q 331.368208 188.003062 331.876333 188.621812 
Q 332.386333 189.238687 333.530083 189.238687 
Q 334.666333 189.238687 335.176333 188.621812 
Q 335.686333 188.003062 335.686333 186.596812 
L 335.686333 181.281187 
L 336.875083 181.281187 
L 336.875083 186.743062 
Q 336.875083 188.453062 336.027583 189.326812 
Q 335.181958 190.200562 333.530083 190.200562 
Q 331.870708 190.200562 331.023208 189.326812 
Q 330.177583 188.453062 330.177583 186.743062 
L 330.177583 181.281187 
z
M 344.505161 186.068062 
L 344.505161 190.029937 
L 343.427036 190.029937 
L 343.427036 186.103687 
Q 343.427036 185.171812 343.063286 184.710562 
Q 342.699536 184.247437 341.973911 184.247437 
Q 341.100161 184.247437 340.595786 184.804312 
Q 340.091411 185.359312 340.091411 186.321187 
L 340.091411 190.029937 
L 339.007661 190.029937 
L 339.007661 183.467437 
L 340.091411 183.467437 
L 340.091411 184.487437 
Q 340.479536 183.894937 341.002661 183.602437 
Q 341.527661 183.309937 342.213911 183.309937 
Q 343.344536 183.309937 343.923911 184.009312 
Q 344.505161 184.708687 344.505161 186.068062 
z
M 346.65438 183.467437 
L 347.732505 183.467437 
L 347.732505 190.029937 
L 346.65438 190.029937 
L 346.65438 183.467437 
z
M 346.65438 180.911812 
L 347.732505 180.911812 
L 347.732505 182.278687 
L 346.65438 182.278687 
L 346.65438 180.911812 
z
M 351.218364 182.254312 
L 351.218364 185.541187 
L 352.707114 185.541187 
Q 353.533989 185.541187 353.983989 185.113687 
Q 354.435864 184.686187 354.435864 183.894937 
Q 354.435864 183.109312 353.983989 182.681812 
Q 353.533989 182.254312 352.707114 182.254312 
L 351.218364 182.254312 
z
M 350.035239 181.281187 
L 352.707114 181.281187 
Q 354.178989 181.281187 354.930864 181.946812 
Q 355.684614 182.612437 355.684614 183.894937 
Q 355.684614 185.190562 354.930864 185.852437 
Q 354.178989 186.514312 352.707114 186.514312 
L 351.218364 186.514312 
L 351.218364 190.029937 
L 350.035239 190.029937 
L 350.035239 181.281187 
z
M 360.817192 184.474312 
Q 360.635317 184.369312 360.421567 184.320562 
Q 360.207817 184.269937 359.950942 184.269937 
Q 359.035942 184.269937 358.546567 184.864312 
Q 358.057192 185.458687 358.057192 186.572437 
L 358.057192 190.029937 
L 356.973442 190.029937 
L 356.973442 183.467437 
L 358.057192 183.467437 
L 358.057192 184.487437 
Q 358.398442 183.889312 358.942192 183.600562 
Q 359.487817 183.309937 360.267817 183.309937 
Q 360.378442 183.309937 360.513442 183.324937 
Q 360.648442 183.338062 360.811567 183.368062 
L 360.817192 184.474312 
z
M 364.220786 184.223062 
Q 363.354536 184.223062 362.850161 184.899937 
Q 362.345786 185.576812 362.345786 186.754312 
Q 362.345786 187.931812 362.846411 188.608687 
Q 363.348911 189.285562 364.220786 189.285562 
Q 365.083286 189.285562 365.585786 188.606812 
Q 366.090161 187.926187 366.090161 186.754312 
Q 366.090161 185.588062 365.585786 184.905562 
Q 365.083286 184.223062 364.220786 184.223062 
z
M 364.220786 183.309937 
Q 365.627036 183.309937 366.429536 184.224937 
Q 367.233911 185.138062 367.233911 186.754312 
Q 367.233911 188.364937 366.429536 189.283687 
Q 365.627036 190.200562 364.220786 190.200562 
Q 362.808911 190.200562 362.008286 189.283687 
Q 361.209536 188.364937 361.209536 186.754312 
Q 361.209536 185.138062 362.008286 184.224937 
Q 362.808911 183.309937 364.220786 183.309937 
z
M 370.086958 181.603687 
L 370.086958 183.467437 
L 372.306958 183.467437 
L 372.306958 184.305562 
L 370.086958 184.305562 
L 370.086958 187.868062 
Q 370.086958 188.670562 370.306333 188.899312 
Q 370.525708 189.128062 371.200708 189.128062 
L 372.306958 189.128062 
L 372.306958 190.029937 
L 371.200708 190.029937 
Q 369.951958 190.029937 369.477583 189.564937 
Q 369.003208 189.098062 369.003208 187.868062 
L 369.003208 184.305562 
L 368.211958 184.305562 
L 368.211958 183.467437 
L 369.003208 183.467437 
L 369.003208 181.603687 
L 370.086958 181.603687 
z
M 374.000786 188.541187 
L 375.236411 188.541187 
L 375.236411 190.029937 
L 374.000786 190.029937 
L 374.000786 188.541187 
z
M 374.000786 183.825562 
L 375.236411 183.825562 
L 375.236411 185.312437 
L 374.000786 185.312437 
L 374.000786 183.825562 
z
M 378.99813 182.254312 
L 378.99813 185.541187 
L 380.48688 185.541187 
Q 381.313755 185.541187 381.763755 185.113687 
Q 382.21563 184.686187 382.21563 183.894937 
Q 382.21563 183.109312 381.763755 182.681812 
Q 381.313755 182.254312 380.48688 182.254312 
L 378.99813 182.254312 
z
M 377.815005 181.281187 
L 380.48688 181.281187 
Q 381.958755 181.281187 382.71063 181.946812 
Q 383.46438 182.612437 383.46438 183.894937 
Q 383.46438 185.190562 382.71063 185.852437 
Q 381.958755 186.514312 380.48688 186.514312 
L 378.99813 186.514312 
L 378.99813 190.029937 
L 377.815005 190.029937 
L 377.815005 181.281187 
z
M 385.362583 189.034312 
L 387.295708 189.034312 
L 387.295708 182.359312 
L 385.191958 182.781187 
L 385.191958 181.703062 
L 387.284458 181.281187 
L 388.467583 181.281187 
L 388.467583 189.034312 
L 390.400708 189.034312 
L 390.400708 190.029937 
L 385.362583 190.029937 
L 385.362583 189.034312 
z
M 396.377973 185.312437 
Q 397.227348 185.494312 397.703598 186.069937 
Q 398.181723 186.643687 398.181723 187.487437 
Q 398.181723 188.781187 397.291098 189.491812 
Q 396.400473 190.200562 394.759848 190.200562 
Q 394.210473 190.200562 393.627348 190.091812 
Q 393.044223 189.983062 392.423598 189.765562 
L 392.423598 188.623687 
Q 392.914848 188.910562 393.499848 189.056812 
Q 394.086723 189.203062 394.726098 189.203062 
Q 395.837973 189.203062 396.421098 188.764312 
Q 397.004223 188.325562 397.004223 187.487437 
Q 397.004223 186.713062 396.462348 186.278062 
Q 395.920473 185.841187 394.954848 185.841187 
L 393.934848 185.841187 
L 393.934848 184.868062 
L 395.001723 184.868062 
Q 395.873598 184.868062 396.336723 184.519312 
Q 396.799848 184.170562 396.799848 183.514312 
Q 396.799848 182.841187 396.321723 182.481187 
Q 395.845473 182.119312 394.954848 182.119312 
Q 394.467348 182.119312 393.910473 182.226187 
Q 393.353598 182.331187 392.686098 182.552437 
L 392.686098 181.498687 
Q 393.361098 181.311187 393.949848 181.217437 
Q 394.538598 181.123687 395.059848 181.123687 
Q 396.407973 181.123687 397.191723 181.736812 
Q 397.977348 182.348062 397.977348 183.390562 
Q 397.977348 184.118062 397.561098 184.618687 
Q 397.144848 185.119312 396.377973 185.312437 
z
M 403.678989 182.312437 
L 400.690239 186.983062 
L 403.678989 186.983062 
L 403.678989 182.312437 
z
M 403.367739 181.281187 
L 404.856489 181.281187 
L 404.856489 186.983062 
L 406.105239 186.983062 
L 406.105239 187.967437 
L 404.856489 187.967437 
L 404.856489 190.029937 
L 403.678989 190.029937 
L 403.678989 187.967437 
L 399.730239 187.967437 
L 399.730239 186.825562 
L 403.367739 181.281187 
z
M 409.08063 189.034312 
L 413.211255 189.034312 
L 413.211255 190.029937 
L 407.657505 190.029937 
L 407.657505 189.034312 
Q 408.33063 188.336812 409.49313 187.163062 
Q 410.657505 185.987437 410.95563 185.646187 
Q 411.523755 185.008687 411.748755 184.566187 
Q 411.97563 184.123687 411.97563 183.696187 
Q 411.97563 182.998687 411.486255 182.559937 
Q 410.99688 182.119312 410.211255 182.119312 
Q 409.65438 182.119312 409.03563 182.312437 
Q 408.418755 182.505562 407.71563 182.899312 
L 407.71563 181.703062 
Q 408.430005 181.416187 409.05063 181.269937 
Q 409.67313 181.123687 410.188755 181.123687 
Q 411.54813 181.123687 412.356255 181.804312 
Q 413.16438 182.483062 413.16438 183.619312 
Q 413.16438 184.159312 412.96188 184.643062 
Q 412.761255 185.124937 412.22688 185.781187 
Q 412.08063 185.951812 411.295005 186.763687 
Q 410.511255 187.575562 409.08063 189.034312 
z
M 419.28227 185.312437 
Q 420.131645 185.494312 420.607895 186.069937 
Q 421.08602 186.643687 421.08602 187.487437 
Q 421.08602 188.781187 420.195395 189.491812 
Q 419.30477 190.200562 417.664145 190.200562 
Q 417.11477 190.200562 416.531645 190.091812 
Q 415.94852 189.983062 415.327895 189.765562 
L 415.327895 188.623687 
Q 415.819145 188.910562 416.404145 189.056812 
Q 416.99102 189.203062 417.630395 189.203062 
Q 418.74227 189.203062 419.325395 188.764312 
Q 419.90852 188.325562 419.90852 187.487437 
Q 419.90852 186.713062 419.366645 186.278062 
Q 418.82477 185.841187 417.859145 185.841187 
L 416.839145 185.841187 
L 416.839145 184.868062 
L 417.90602 184.868062 
Q 418.777895 184.868062 419.24102 184.519312 
Q 419.704145 184.170562 419.704145 183.514312 
Q 419.704145 182.841187 419.22602 182.481187 
Q 418.74977 182.119312 417.859145 182.119312 
Q 417.371645 182.119312 416.81477 182.226187 
Q 416.257895 182.331187 415.590395 182.552437 
L 415.590395 181.498687 
Q 416.265395 181.311187 416.854145 181.217437 
Q 417.442895 181.123687 417.964145 181.123687 
Q 419.31227 181.123687 420.09602 181.736812 
Q 420.881645 182.348062 420.881645 183.390562 
Q 420.881645 184.118062 420.465395 184.618687 
Q 420.049145 185.119312 419.28227 185.312437 
z
" clip-path="url(#p3b12eca565)" style="fill: #ffffff; stroke: #000000; stroke-width: 2"/>
    <path d="M 330.177583 181.281187 
L 331.368208 181.281187 
L 331.368208 186.596812 
Q 331.368208 188.003062 331.876333 188.621812 
Q 332.386333 189.238687 333.530083 189.238687 
Q 334.666333 189.238687 335.176333 188.621812 
Q 335.686333 188.003062 335.686333 186.596812 
L 335.686333 181.281187 
L 336.875083 181.281187 
L 336.875083 186.743062 
Q 336.875083 188.453062 336.027583 189.326812 
Q 335.181958 190.200562 333.530083 190.200562 
Q 331.870708 190.200562 331.023208 189.326812 
Q 330.177583 188.453062 330.177583 186.743062 
L 330.177583 181.281187 
z
M 344.505161 186.068062 
L 344.505161 190.029937 
L 343.427036 190.029937 
L 343.427036 186.103687 
Q 343.427036 185.171812 343.063286 184.710562 
Q 342.699536 184.247437 341.973911 184.247437 
Q 341.100161 184.247437 340.595786 184.804312 
Q 340.091411 185.359312 340.091411 186.321187 
L 340.091411 190.029937 
L 339.007661 190.029937 
L 339.007661 183.467437 
L 340.091411 183.467437 
L 340.091411 184.487437 
Q 340.479536 183.894937 341.002661 183.602437 
Q 341.527661 183.309937 342.213911 183.309937 
Q 343.344536 183.309937 343.923911 184.009312 
Q 344.505161 184.708687 344.505161 186.068062 
z
M 346.65438 183.467437 
L 347.732505 183.467437 
L 347.732505 190.029937 
L 346.65438 190.029937 
L 346.65438 183.467437 
z
M 346.65438 180.911812 
L 347.732505 180.911812 
L 347.732505 182.278687 
L 346.65438 182.278687 
L 346.65438 180.911812 
z
M 351.218364 182.254312 
L 351.218364 185.541187 
L 352.707114 185.541187 
Q 353.533989 185.541187 353.983989 185.113687 
Q 354.435864 184.686187 354.435864 183.894937 
Q 354.435864 183.109312 353.983989 182.681812 
Q 353.533989 182.254312 352.707114 182.254312 
L 351.218364 182.254312 
z
M 350.035239 181.281187 
L 352.707114 181.281187 
Q 354.178989 181.281187 354.930864 181.946812 
Q 355.684614 182.612437 355.684614 183.894937 
Q 355.684614 185.190562 354.930864 185.852437 
Q 354.178989 186.514312 352.707114 186.514312 
L 351.218364 186.514312 
L 351.218364 190.029937 
L 350.035239 190.029937 
L 350.035239 181.281187 
z
M 360.817192 184.474312 
Q 360.635317 184.369312 360.421567 184.320562 
Q 360.207817 184.269937 359.950942 184.269937 
Q 359.035942 184.269937 358.546567 184.864312 
Q 358.057192 185.458687 358.057192 186.572437 
L 358.057192 190.029937 
L 356.973442 190.029937 
L 356.973442 183.467437 
L 358.057192 183.467437 
L 358.057192 184.487437 
Q 358.398442 183.889312 358.942192 183.600562 
Q 359.487817 183.309937 360.267817 183.309937 
Q 360.378442 183.309937 360.513442 183.324937 
Q 360.648442 183.338062 360.811567 183.368062 
L 360.817192 184.474312 
z
M 364.220786 184.223062 
Q 363.354536 184.223062 362.850161 184.899937 
Q 362.345786 185.576812 362.345786 186.754312 
Q 362.345786 187.931812 362.846411 188.608687 
Q 363.348911 189.285562 364.220786 189.285562 
Q 365.083286 189.285562 365.585786 188.606812 
Q 366.090161 187.926187 366.090161 186.754312 
Q 366.090161 185.588062 365.585786 184.905562 
Q 365.083286 184.223062 364.220786 184.223062 
z
M 364.220786 183.309937 
Q 365.627036 183.309937 366.429536 184.224937 
Q 367.233911 185.138062 367.233911 186.754312 
Q 367.233911 188.364937 366.429536 189.283687 
Q 365.627036 190.200562 364.220786 190.200562 
Q 362.808911 190.200562 362.008286 189.283687 
Q 361.209536 188.364937 361.209536 186.754312 
Q 361.209536 185.138062 362.008286 184.224937 
Q 362.808911 183.309937 364.220786 183.309937 
z
M 370.086958 181.603687 
L 370.086958 183.467437 
L 372.306958 183.467437 
L 372.306958 184.305562 
L 370.086958 184.305562 
L 370.086958 187.868062 
Q 370.086958 188.670562 370.306333 188.899312 
Q 370.525708 189.128062 371.200708 189.128062 
L 372.306958 189.128062 
L 372.306958 190.029937 
L 371.200708 190.029937 
Q 369.951958 190.029937 369.477583 189.564937 
Q 369.003208 189.098062 369.003208 187.868062 
L 369.003208 184.305562 
L 368.211958 184.305562 
L 368.211958 183.467437 
L 369.003208 183.467437 
L 369.003208 181.603687 
L 370.086958 181.603687 
z
M 374.000786 188.541187 
L 375.236411 188.541187 
L 375.236411 190.029937 
L 374.000786 190.029937 
L 374.000786 188.541187 
z
M 374.000786 183.825562 
L 375.236411 183.825562 
L 375.236411 185.312437 
L 374.000786 185.312437 
L 374.000786 183.825562 
z
M 378.99813 182.254312 
L 378.99813 185.541187 
L 380.48688 185.541187 
Q 381.313755 185.541187 381.763755 185.113687 
Q 382.21563 184.686187 382.21563 183.894937 
Q 382.21563 183.109312 381.763755 182.681812 
Q 381.313755 182.254312 380.48688 182.254312 
L 378.99813 182.254312 
z
M 377.815005 181.281187 
L 380.48688 181.281187 
Q 381.958755 181.281187 382.71063 181.946812 
Q 383.46438 182.612437 383.46438 183.894937 
Q 383.46438 185.190562 382.71063 185.852437 
Q 381.958755 186.514312 380.48688 186.514312 
L 378.99813 186.514312 
L 378.99813 190.029937 
L 377.815005 190.029937 
L 377.815005 181.281187 
z
M 385.362583 189.034312 
L 387.295708 189.034312 
L 387.295708 182.359312 
L 385.191958 182.781187 
L 385.191958 181.703062 
L 387.284458 181.281187 
L 388.467583 181.281187 
L 388.467583 189.034312 
L 390.400708 189.034312 
L 390.400708 190.029937 
L 385.362583 190.029937 
L 385.362583 189.034312 
z
M 396.377973 185.312437 
Q 397.227348 185.494312 397.703598 186.069937 
Q 398.181723 186.643687 398.181723 187.487437 
Q 398.181723 188.781187 397.291098 189.491812 
Q 396.400473 190.200562 394.759848 190.200562 
Q 394.210473 190.200562 393.627348 190.091812 
Q 393.044223 189.983062 392.423598 189.765562 
L 392.423598 188.623687 
Q 392.914848 188.910562 393.499848 189.056812 
Q 394.086723 189.203062 394.726098 189.203062 
Q 395.837973 189.203062 396.421098 188.764312 
Q 397.004223 188.325562 397.004223 187.487437 
Q 397.004223 186.713062 396.462348 186.278062 
Q 395.920473 185.841187 394.954848 185.841187 
L 393.934848 185.841187 
L 393.934848 184.868062 
L 395.001723 184.868062 
Q 395.873598 184.868062 396.336723 184.519312 
Q 396.799848 184.170562 396.799848 183.514312 
Q 396.799848 182.841187 396.321723 182.481187 
Q 395.845473 182.119312 394.954848 182.119312 
Q 394.467348 182.119312 393.910473 182.226187 
Q 393.353598 182.331187 392.686098 182.552437 
L 392.686098 181.498687 
Q 393.361098 181.311187 393.949848 181.217437 
Q 394.538598 181.123687 395.059848 181.123687 
Q 396.407973 181.123687 397.191723 181.736812 
Q 397.977348 182.348062 397.977348 183.390562 
Q 397.977348 184.118062 397.561098 184.618687 
Q 397.144848 185.119312 396.377973 185.312437 
z
M 403.678989 182.312437 
L 400.690239 186.983062 
L 403.678989 186.983062 
L 403.678989 182.312437 
z
M 403.367739 181.281187 
L 404.856489 181.281187 
L 404.856489 186.983062 
L 406.105239 186.983062 
L 406.105239 187.967437 
L 404.856489 187.967437 
L 404.856489 190.029937 
L 403.678989 190.029937 
L 403.678989 187.967437 
L 399.730239 187.967437 
L 399.730239 186.825562 
L 403.367739 181.281187 
z
M 409.08063 189.034312 
L 413.211255 189.034312 
L 413.211255 190.029937 
L 407.657505 190.029937 
L 407.657505 189.034312 
Q 408.33063 188.336812 409.49313 187.163062 
Q 410.657505 185.987437 410.95563 185.646187 
Q 411.523755 185.008687 411.748755 184.566187 
Q 411.97563 184.123687 411.97563 183.696187 
Q 411.97563 182.998687 411.486255 182.559937 
Q 410.99688 182.119312 410.211255 182.119312 
Q 409.65438 182.119312 409.03563 182.312437 
Q 408.418755 182.505562 407.71563 182.899312 
L 407.71563 181.703062 
Q 408.430005 181.416187 409.05063 181.269937 
Q 409.67313 181.123687 410.188755 181.123687 
Q 411.54813 181.123687 412.356255 181.804312 
Q 413.16438 182.483062 413.16438 183.619312 
Q 413.16438 184.159312 412.96188 184.643062 
Q 412.761255 185.124937 412.22688 185.781187 
Q 412.08063 185.951812 411.295005 186.763687 
Q 410.511255 187.575562 409.08063 189.034312 
z
M 419.28227 185.312437 
Q 420.131645 185.494312 420.607895 186.069937 
Q 421.08602 186.643687 421.08602 187.487437 
Q 421.08602 188.781187 420.195395 189.491812 
Q 419.30477 190.200562 417.664145 190.200562 
Q 417.11477 190.200562 416.531645 190.091812 
Q 415.94852 189.983062 415.327895 189.765562 
L 415.327895 188.623687 
Q 415.819145 188.910562 416.404145 189.056812 
Q 416.99102 189.203062 417.630395 189.203062 
Q 418.74227 189.203062 419.325395 188.764312 
Q 419.90852 188.325562 419.90852 187.487437 
Q 419.90852 186.713062 419.366645 186.278062 
Q 418.82477 185.841187 417.859145 185.841187 
L 416.839145 185.841187 
L 416.839145 184.868062 
L 417.90602 184.868062 
Q 418.777895 184.868062 419.24102 184.519312 
Q 419.704145 184.170562 419.704145 183.514312 
Q 419.704145 182.841187 419.22602 182.481187 
Q 418.74977 182.119312 417.859145 182.119312 
Q 417.371645 182.119312 416.81477 182.226187 
Q 416.257895 182.331187 415.590395 182.552437 
L 415.590395 181.498687 
Q 416.265395 181.311187 416.854145 181.217437 
Q 417.442895 181.123687 417.964145 181.123687 
Q 419.31227 181.123687 420.09602 181.736812 
Q 420.881645 182.348062 420.881645 183.390562 
Q 420.881645 184.118062 420.465395 184.618687 
Q 420.049145 185.119312 419.28227 185.312437 
z
" clip-path="url(#p3b12eca565)" style="fill: #ffffff"/>
    <path d="M 356.921645 195.691687 
L 356.921645 198.978562 
L 358.410395 198.978562 
Q 359.23727 198.978562 359.68727 198.551062 
Q 360.139145 198.123562 360.139145 197.332312 
Q 360.139145 196.546687 359.68727 196.119187 
Q 359.23727 195.691687 358.410395 195.691687 
L 356.921645 195.691687 
z
M 355.73852 194.718562 
L 358.410395 194.718562 
Q 359.88227 194.718562 360.634145 195.384187 
Q 361.387895 196.049812 361.387895 197.332312 
Q 361.387895 198.627937 360.634145 199.289812 
Q 359.88227 199.951687 358.410395 199.951687 
L 356.921645 199.951687 
L 356.921645 203.467312 
L 355.73852 203.467312 
L 355.73852 194.718562 
z
M 366.520473 197.911687 
Q 366.338598 197.806687 366.124848 197.757937 
Q 365.911098 197.707312 365.654223 197.707312 
Q 364.739223 197.707312 364.249848 198.301687 
Q 363.760473 198.896062 363.760473 200.009812 
L 363.760473 203.467312 
L 362.676723 203.467312 
L 362.676723 196.904812 
L 363.760473 196.904812 
L 363.760473 197.924812 
Q 364.101723 197.326687 364.645473 197.037937 
Q 365.191098 196.747312 365.971098 196.747312 
Q 366.081723 196.747312 366.216723 196.762312 
Q 366.351723 196.775437 366.514848 196.805437 
L 366.520473 197.911687 
z
M 369.924067 197.660437 
Q 369.057817 197.660437 368.553442 198.337312 
Q 368.049067 199.014187 368.049067 200.191687 
Q 368.049067 201.369187 368.549692 202.046062 
Q 369.052192 202.722937 369.924067 202.722937 
Q 370.786567 202.722937 371.289067 202.044187 
Q 371.793442 201.363562 371.793442 200.191687 
Q 371.793442 199.025437 371.289067 198.342937 
Q 370.786567 197.660437 369.924067 197.660437 
z
M 369.924067 196.747312 
Q 371.330317 196.747312 372.132817 197.662312 
Q 372.937192 198.575437 372.937192 200.191687 
Q 372.937192 201.802312 372.132817 202.721062 
Q 371.330317 203.637937 369.924067 203.637937 
Q 368.512192 203.637937 367.711567 202.721062 
Q 366.912817 201.802312 366.912817 200.191687 
Q 366.912817 198.575437 367.711567 197.662312 
Q 368.512192 196.747312 369.924067 196.747312 
z
M 375.790239 195.041062 
L 375.790239 196.904812 
L 378.010239 196.904812 
L 378.010239 197.742937 
L 375.790239 197.742937 
L 375.790239 201.305437 
Q 375.790239 202.107937 376.009614 202.336687 
Q 376.228989 202.565437 376.903989 202.565437 
L 378.010239 202.565437 
L 378.010239 203.467312 
L 376.903989 203.467312 
Q 375.655239 203.467312 375.180864 203.002312 
Q 374.706489 202.535437 374.706489 201.305437 
L 374.706489 197.742937 
L 373.915239 197.742937 
L 373.915239 196.904812 
L 374.706489 196.904812 
L 374.706489 195.041062 
L 375.790239 195.041062 
z
M 385.042192 199.916062 
L 385.042192 200.442937 
L 380.084692 200.442937 
Q 380.155942 201.556687 380.755942 202.139812 
Q 381.355942 202.722937 382.428442 202.722937 
Q 383.049067 202.722937 383.632192 202.571062 
Q 384.215317 202.419187 384.790942 202.113562 
L 384.790942 203.133562 
Q 384.209692 203.379187 383.600317 203.508562 
Q 382.990942 203.637937 382.364692 203.637937 
Q 380.793442 203.637937 379.876567 202.724812 
Q 378.959692 201.809812 378.959692 200.249812 
Q 378.959692 198.639187 379.829692 197.694187 
Q 380.699692 196.747312 382.177192 196.747312 
Q 383.500942 196.747312 384.271567 197.600437 
Q 385.042192 198.451687 385.042192 199.916062 
z
M 383.964067 199.599187 
Q 383.952817 198.716062 383.469067 198.189187 
Q 382.985317 197.660437 382.188442 197.660437 
Q 381.286567 197.660437 380.744692 198.170437 
Q 380.202817 198.680437 380.120317 199.606687 
L 383.964067 199.599187 
z
M 386.811255 196.904812 
L 387.88938 196.904812 
L 387.88938 203.467312 
L 386.811255 203.467312 
L 386.811255 196.904812 
z
M 386.811255 194.349187 
L 387.88938 194.349187 
L 387.88938 195.716062 
L 386.811255 195.716062 
L 386.811255 194.349187 
z
M 395.601489 199.505437 
L 395.601489 203.467312 
L 394.523364 203.467312 
L 394.523364 199.541062 
Q 394.523364 198.609187 394.159614 198.147937 
Q 393.795864 197.684812 393.070239 197.684812 
Q 392.196489 197.684812 391.692114 198.241687 
Q 391.187739 198.796687 391.187739 199.758562 
L 391.187739 203.467312 
L 390.103989 203.467312 
L 390.103989 196.904812 
L 391.187739 196.904812 
L 391.187739 197.924812 
Q 391.575864 197.332312 392.098989 197.039812 
Q 392.623989 196.747312 393.310239 196.747312 
Q 394.440864 196.747312 395.020239 197.446687 
Q 395.601489 198.146062 395.601489 199.505437 
z
" clip-path="url(#p3b12eca565)" style="fill: #ffffff; stroke: #000000; stroke-width: 2"/>
    <path d="M 356.921645 195.691687 
L 356.921645 198.978562 
L 358.410395 198.978562 
Q 359.23727 198.978562 359.68727 198.551062 
Q 360.139145 198.123562 360.139145 197.332312 
Q 360.139145 196.546687 359.68727 196.119187 
Q 359.23727 195.691687 358.410395 195.691687 
L 356.921645 195.691687 
z
M 355.73852 194.718562 
L 358.410395 194.718562 
Q 359.88227 194.718562 360.634145 195.384187 
Q 361.387895 196.049812 361.387895 197.332312 
Q 361.387895 198.627937 360.634145 199.289812 
Q 359.88227 199.951687 358.410395 199.951687 
L 356.921645 199.951687 
L 356.921645 203.467312 
L 355.73852 203.467312 
L 355.73852 194.718562 
z
M 366.520473 197.911687 
Q 366.338598 197.806687 366.124848 197.757937 
Q 365.911098 197.707312 365.654223 197.707312 
Q 364.739223 197.707312 364.249848 198.301687 
Q 363.760473 198.896062 363.760473 200.009812 
L 363.760473 203.467312 
L 362.676723 203.467312 
L 362.676723 196.904812 
L 363.760473 196.904812 
L 363.760473 197.924812 
Q 364.101723 197.326687 364.645473 197.037937 
Q 365.191098 196.747312 365.971098 196.747312 
Q 366.081723 196.747312 366.216723 196.762312 
Q 366.351723 196.775437 366.514848 196.805437 
L 366.520473 197.911687 
z
M 369.924067 197.660437 
Q 369.057817 197.660437 368.553442 198.337312 
Q 368.049067 199.014187 368.049067 200.191687 
Q 368.049067 201.369187 368.549692 202.046062 
Q 369.052192 202.722937 369.924067 202.722937 
Q 370.786567 202.722937 371.289067 202.044187 
Q 371.793442 201.363562 371.793442 200.191687 
Q 371.793442 199.025437 371.289067 198.342937 
Q 370.786567 197.660437 369.924067 197.660437 
z
M 369.924067 196.747312 
Q 371.330317 196.747312 372.132817 197.662312 
Q 372.937192 198.575437 372.937192 200.191687 
Q 372.937192 201.802312 372.132817 202.721062 
Q 371.330317 203.637937 369.924067 203.637937 
Q 368.512192 203.637937 367.711567 202.721062 
Q 366.912817 201.802312 366.912817 200.191687 
Q 366.912817 198.575437 367.711567 197.662312 
Q 368.512192 196.747312 369.924067 196.747312 
z
M 375.790239 195.041062 
L 375.790239 196.904812 
L 378.010239 196.904812 
L 378.010239 197.742937 
L 375.790239 197.742937 
L 375.790239 201.305437 
Q 375.790239 202.107937 376.009614 202.336687 
Q 376.228989 202.565437 376.903989 202.565437 
L 378.010239 202.565437 
L 378.010239 203.467312 
L 376.903989 203.467312 
Q 375.655239 203.467312 375.180864 203.002312 
Q 374.706489 202.535437 374.706489 201.305437 
L 374.706489 197.742937 
L 373.915239 197.742937 
L 373.915239 196.904812 
L 374.706489 196.904812 
L 374.706489 195.041062 
L 375.790239 195.041062 
z
M 385.042192 199.916062 
L 385.042192 200.442937 
L 380.084692 200.442937 
Q 380.155942 201.556687 380.755942 202.139812 
Q 381.355942 202.722937 382.428442 202.722937 
Q 383.049067 202.722937 383.632192 202.571062 
Q 384.215317 202.419187 384.790942 202.113562 
L 384.790942 203.133562 
Q 384.209692 203.379187 383.600317 203.508562 
Q 382.990942 203.637937 382.364692 203.637937 
Q 380.793442 203.637937 379.876567 202.724812 
Q 378.959692 201.809812 378.959692 200.249812 
Q 378.959692 198.639187 379.829692 197.694187 
Q 380.699692 196.747312 382.177192 196.747312 
Q 383.500942 196.747312 384.271567 197.600437 
Q 385.042192 198.451687 385.042192 199.916062 
z
M 383.964067 199.599187 
Q 383.952817 198.716062 383.469067 198.189187 
Q 382.985317 197.660437 382.188442 197.660437 
Q 381.286567 197.660437 380.744692 198.170437 
Q 380.202817 198.680437 380.120317 199.606687 
L 383.964067 199.599187 
z
M 386.811255 196.904812 
L 387.88938 196.904812 
L 387.88938 203.467312 
L 386.811255 203.467312 
L 386.811255 196.904812 
z
M 386.811255 194.349187 
L 387.88938 194.349187 
L 387.88938 195.716062 
L 386.811255 195.716062 
L 386.811255 194.349187 
z
M 395.601489 199.505437 
L 395.601489 203.467312 
L 394.523364 203.467312 
L 394.523364 199.541062 
Q 394.523364 198.609187 394.159614 198.147937 
Q 393.795864 197.684812 393.070239 197.684812 
Q 392.196489 197.684812 391.692114 198.241687 
Q 391.187739 198.796687 391.187739 199.758562 
L 391.187739 203.467312 
L 390.103989 203.467312 
L 390.103989 196.904812 
L 391.187739 196.904812 
L 391.187739 197.924812 
Q 391.575864 197.332312 392.098989 197.039812 
Q 392.623989 196.747312 393.310239 196.747312 
Q 394.440864 196.747312 395.020239 197.446687 
Q 395.601489 198.146062 395.601489 199.505437 
z
" clip-path="url(#p3b12eca565)" style="fill: #ffffff"/>
   </g>
   <g id="text_5">
    <g clip-path="url(#p3b12eca565)">
     <!-- raxibacumab -->
     <g transform="translate(50.690873 169.873875)scale(0.12 -0.12)">
      <defs>
       <path id="DejaVuSans-78" d="M 3513 3500 
L 2247 1797 
L 3578 0 
L 2900 0 
L 1881 1375 
L 863 0 
L 184 0 
L 1544 1831 
L 300 3500 
L 978 3500 
L 1906 2253 
L 2834 3500 
L 3513 3500 
z
" transform="scale(0.015625)"/>
       <path id="DejaVuSans-6d" d="M 3328 2828 
Q 3544 3216 3844 3400 
Q 4144 3584 4550 3584 
Q 5097 3584 5394 3201 
Q 5691 2819 5691 2113 
L 5691 0 
L 5113 0 
L 5113 2094 
Q 5113 2597 4934 2840 
Q 4756 3084 4391 3084 
Q 3944 3084 3684 2787 
Q 3425 2491 3425 1978 
L 3425 0 
L 2847 0 
L 2847 2094 
Q 2847 2600 2669 2842 
Q 2491 3084 2119 3084 
Q 1678 3084 1418 2786 
Q 1159 2488 1159 1978 
L 1159 0 
L 581 0 
L 581 3500 
L 1159 3500 
L 1159 2956 
Q 1356 3278 1631 3431 
Q 1906 3584 2284 3584 
Q 2666 3584 2933 3390 
Q 3200 3197 3328 2828 
z
" transform="scale(0.015625)"/>
      </defs>
      <use xlink:href="#DejaVuSans-72"/>
      <use xlink:href="#DejaVuSans-61" x="41.113281"/>
      <use xlink:href="#DejaVuSans-78" x="102.392578"/>
      <use xlink:href="#DejaVuSans-69" x="161.572266"/>
      <use xlink:href="#DejaVuSans-62" x="189.355469"/>
      <use xlink:href="#DejaVuSans-61" x="252.832031"/>
      <use xlink:href="#DejaVuSans-63" x="314.111328"/>
      <use xlink:href="#DejaVuSans-75" x="369.091797"/>
      <use xlink:href="#DejaVuSans-6d" x="432.470703"/>
      <use xlink:href="#DejaVuSans-61" x="529.882812"/>
      <use xlink:href="#DejaVuSans-62" x="591.162109"/>
     </g>
    </g>
    <g clip-path="url(#p3b12eca565)">
     <!-- MESH:C542124 -->
     <g transform="translate(43.564935 183.31125)scale(0.12 -0.12)">
      <defs>
       <path id="DejaVuSans-4d" d="M 628 4666 
L 1569 4666 
L 2759 1491 
L 3956 4666 
L 4897 4666 
L 4897 0 
L 4281 0 
L 4281 4097 
L 3078 897 
L 2444 897 
L 1241 4097 
L 1241 0 
L 628 0 
L 628 4666 
z
" transform="scale(0.015625)"/>
       <path id="DejaVuSans-45" d="M 628 4666 
L 3578 4666 
L 3578 4134 
L 1259 4134 
L 1259 2753 
L 3481 2753 
L 3481 2222 
L 1259 2222 
L 1259 531 
L 3634 531 
L 3634 0 
L 628 0 
L 628 4666 
z
" transform="scale(0.015625)"/>
       <path id="DejaVuSans-53" d="M 3425 4513 
L 3425 3897 
Q 3066 4069 2747 4153 
Q 2428 4238 2131 4238 
Q 1616 4238 1336 4038 
Q 1056 3838 1056 3469 
Q 1056 3159 1242 3001 
Q 1428 2844 1947 2747 
L 2328 2669 
Q 3034 2534 3370 2195 
Q 3706 1856 3706 1288 
Q 3706 609 3251 259 
Q 2797 -91 1919 -91 
Q 1588 -91 1214 -16 
Q 841 59 441 206 
L 441 856 
Q 825 641 1194 531 
Q 1563 422 1919 422 
Q 2459 422 2753 634 
Q 3047 847 3047 1241 
Q 3047 1584 2836 1778 
Q 2625 1972 2144 2069 
L 1759 2144 
Q 1053 2284 737 2584 
Q 422 2884 422 3419 
Q 422 4038 858 4394 
Q 1294 4750 2059 4750 
Q 2388 4750 2728 4690 
Q 3069 4631 3425 4513 
z
" transform="scale(0.015625)"/>
       <path id="DejaVuSans-48" d="M 628 4666 
L 1259 4666 
L 1259 2753 
L 3553 2753 
L 3553 4666 
L 4184 4666 
L 4184 0 
L 3553 0 
L 3553 2222 
L 1259 2222 
L 1259 0 
L 628 0 
L 628 4666 
z
" transform="scale(0.015625)"/>
       <path id="DejaVuSans-3a" d="M 750 794 
L 1409 794 
L 1409 0 
L 750 0 
L 750 794 
z
M 750 3309 
L 1409 3309 
L 1409 2516 
L 750 2516 
L 750 3309 
z
" transform="scale(0.015625)"/>
       <path id="DejaVuSans-43" d="M 4122 4306 
L 4122 3641 
Q 3803 3938 3442 4084 
Q 3081 4231 2675 4231 
Q 1875 4231 1450 3742 
Q 1025 3253 1025 2328 
Q 1025 1406 1450 917 
Q 1875 428 2675 428 
Q 3081 428 3442 575 
Q 3803 722 4122 1019 
L 4122 359 
Q 3791 134 3420 21 
Q 3050 -91 2638 -91 
Q 1578 -91 968 557 
Q 359 1206 359 2328 
Q 359 3453 968 4101 
Q 1578 4750 2638 4750 
Q 3056 4750 3426 4639 
Q 3797 4528 4122 4306 
z
" transform="scale(0.015625)"/>
       <path id="DejaVuSans-35" d="M 691 4666 
L 3169 4666 
L 3169 4134 
L 1269 4134 
L 1269 2991 
Q 1406 3038 1543 3061 
Q 1681 3084 1819 3084 
Q 2600 3084 3056 2656 
Q 3513 2228 3513 1497 
Q 3513 744 3044 326 
Q 2575 -91 1722 -91 
Q 1428 -91 1123 -41 
Q 819 9 494 109 
L 494 744 
Q 775 591 1075 516 
Q 1375 441 1709 441 
Q 2250 441 2565 725 
Q 2881 1009 2881 1497 
Q 2881 1984 2565 2268 
Q 2250 2553 1709 2553 
Q 1456 2553 1204 2497 
Q 953 2441 691 2322 
L 691 4666 
z
" transform="scale(0.015625)"/>
       <path id="DejaVuSans-34" d="M 2419 4116 
L 825 1625 
L 2419 1625 
L 2419 4116 
z
M 2253 4666 
L 3047 4666 
L 3047 1625 
L 3713 1625 
L 3713 1100 
L 3047 1100 
L 3047 0 
L 2419 0 
L 2419 1100 
L 313 1100 
L 313 1709 
L 2253 4666 
z
" transform="scale(0.015625)"/>
       <path id="DejaVuSans-32" d="M 1228 531 
L 3431 531 
L 3431 0 
L 469 0 
L 469 531 
Q 828 903 1448 1529 
Q 2069 2156 2228 2338 
Q 2531 2678 2651 2914 
Q 2772 3150 2772 3378 
Q 2772 3750 2511 3984 
Q 2250 4219 1831 4219 
Q 1534 4219 1204 4116 
Q 875 4013 500 3803 
L 500 4441 
Q 881 4594 1212 4672 
Q 1544 4750 1819 4750 
Q 2544 4750 2975 4387 
Q 3406 4025 3406 3419 
Q 3406 3131 3298 2873 
Q 3191 2616 2906 2266 
Q 2828 2175 2409 1742 
Q 1991 1309 1228 531 
z
" transform="scale(0.015625)"/>
       <path id="DejaVuSans-31" d="M 794 531 
L 1825 531 
L 1825 4091 
L 703 3866 
L 703 4441 
L 1819 4666 
L 2450 4666 
L 2450 531 
L 3481 531 
L 3481 0 
L 794 0 
L 794 531 
z
" transform="scale(0.015625)"/>
      </defs>
      <use xlink:href="#DejaVuSans-4d"/>
      <use xlink:href="#DejaVuSans-45" x="86.279297"/>
      <use xlink:href="#DejaVuSans-53" x="149.462891"/>
      <use xlink:href="#DejaVuSans-48" x="212.939453"/>
      <use xlink:href="#DejaVuSans-3a" x="288.134766"/>
      <use xlink:href="#DejaVuSans-43" x="321.826172"/>
      <use xlink:href="#DejaVuSans-35" x="391.650391"/>
      <use xlink:href="#DejaVuSans-34" x="455.273438"/>
      <use xlink:href="#DejaVuSans-32" x="518.896484"/>
      <use xlink:href="#DejaVuSans-31" x="582.519531"/>
      <use xlink:href="#DejaVuSans-32" x="646.142578"/>
      <use xlink:href="#DejaVuSans-34" x="709.765625"/>
     </g>
    </g>
    <g clip-path="url(#p3b12eca565)">
     <!-- Drug -->
     <g transform="translate(75.272123 196.748625)scale(0.12 -0.12)">
      <defs>
       <path id="DejaVuSans-44" d="M 1259 4147 
L 1259 519 
L 2022 519 
Q 2988 519 3436 956 
Q 3884 1394 3884 2338 
Q 3884 3275 3436 3711 
Q 2988 4147 2022 4147 
L 1259 4147 
z
M 628 4666 
L 1925 4666 
Q 3281 4666 3915 4102 
Q 4550 3538 4550 2338 
Q 4550 1131 3912 565 
Q 3275 0 1925 0 
L 628 0 
L 628 4666 
z
" transform="scale(0.015625)"/>
       <path id="DejaVuSans-67" d="M 2906 1791 
Q 2906 2416 2648 2759 
Q 2391 3103 1925 3103 
Q 1463 3103 1205 2759 
Q 947 2416 947 1791 
Q 947 1169 1205 825 
Q 1463 481 1925 481 
Q 2391 481 2648 825 
Q 2906 1169 2906 1791 
z
M 3481 434 
Q 3481 -459 3084 -895 
Q 2688 -1331 1869 -1331 
Q 1566 -1331 1297 -1286 
Q 1028 -1241 775 -1147 
L 775 -588 
Q 1028 -725 1275 -790 
Q 1522 -856 1778 -856 
Q 2344 -856 2625 -561 
Q 2906 -266 2906 331 
L 2906 616 
Q 2728 306 2450 153 
Q 2172 0 1784 0 
Q 1141 0 747 490 
Q 353 981 353 1791 
Q 353 2603 747 3093 
Q 1141 3584 1784 3584 
Q 2172 3584 2450 3431 
Q 2728 3278 2906 2969 
L 2906 3500 
L 3481 3500 
L 3481 434 
z
" transform="scale(0.015625)"/>
      </defs>
      <use xlink:href="#DejaVuSans-44"/>
      <use xlink:href="#DejaVuSans-72" x="77.001953"/>
      <use xlink:href="#DejaVuSans-75" x="118.115234"/>
      <use xlink:href="#DejaVuSans-67" x="181.494141"/>
     </g>
    </g>
   </g>
   <g id="text_6">
    <g clip-path="url(#p3b12eca565)">
     <!-- Bacillus -->
     <g transform="translate(638.188667 163.155187)scale(0.12 -0.12)">
      <defs>
       <path id="DejaVuSans-42" d="M 1259 2228 
L 1259 519 
L 2272 519 
Q 2781 519 3026 730 
Q 3272 941 3272 1375 
Q 3272 1813 3026 2020 
Q 2781 2228 2272 2228 
L 1259 2228 
z
M 1259 4147 
L 1259 2741 
L 2194 2741 
Q 2656 2741 2882 2914 
Q 3109 3088 3109 3444 
Q 3109 3797 2882 3972 
Q 2656 4147 2194 4147 
L 1259 4147 
z
M 628 4666 
L 2241 4666 
Q 2963 4666 3353 4366 
Q 3744 4066 3744 3513 
Q 3744 3084 3544 2831 
Q 3344 2578 2956 2516 
Q 3422 2416 3680 2098 
Q 3938 1781 3938 1306 
Q 3938 681 3513 340 
Q 3088 0 2303 0 
L 628 0 
L 628 4666 
z
" transform="scale(0.015625)"/>
       <path id="DejaVuSans-6c" d="M 603 4863 
L 1178 4863 
L 1178 0 
L 603 0 
L 603 4863 
z
" transform="scale(0.015625)"/>
      </defs>
      <use xlink:href="#DejaVuSans-42"/>
      <use xlink:href="#DejaVuSans-61" x="68.603516"/>
      <use xlink:href="#DejaVuSans-63" x="129.882812"/>
      <use xlink:href="#DejaVuSans-69" x="184.863281"/>
      <use xlink:href="#DejaVuSans-6c" x="212.646484"/>
      <use xlink:href="#DejaVuSans-6c" x="240.429688"/>
      <use xlink:href="#DejaVuSans-75" x="268.212891"/>
      <use xlink:href="#DejaVuSans-73" x="331.591797"/>
     </g>
    </g>
    <g clip-path="url(#p3b12eca565)">
     <!-- anthracis -->
     <g transform="translate(633.340855 176.592562)scale(0.12 -0.12)">
      <defs>
       <path id="DejaVuSans-6e" d="M 3513 2113 
L 3513 0 
L 2938 0 
L 2938 2094 
Q 2938 2591 2744 2837 
Q 2550 3084 2163 3084 
Q 1697 3084 1428 2787 
Q 1159 2491 1159 1978 
L 1159 0 
L 581 0 
L 581 3500 
L 1159 3500 
L 1159 2956 
Q 1366 3272 1645 3428 
Q 1925 3584 2291 3584 
Q 2894 3584 3203 3211 
Q 3513 2838 3513 2113 
z
" transform="scale(0.015625)"/>
       <path id="DejaVuSans-68" d="M 3513 2113 
L 3513 0 
L 2938 0 
L 2938 2094 
Q 2938 2591 2744 2837 
Q 2550 3084 2163 3084 
Q 1697 3084 1428 2787 
Q 1159 2491 1159 1978 
L 1159 0 
L 581 0 
L 581 4863 
L 1159 4863 
L 1159 2956 
Q 1366 3272 1645 3428 
Q 1925 3584 2291 3584 
Q 2894 3584 3203 3211 
Q 3513 2838 3513 2113 
z
" transform="scale(0.015625)"/>
      </defs>
      <use xlink:href="#DejaVuSans-61"/>
      <use xlink:href="#DejaVuSans-6e" x="61.279297"/>
      <use xlink:href="#DejaVuSans-74" x="124.658203"/>
      <use xlink:href="#DejaVuSans-68" x="163.867188"/>
      <use xlink:href="#DejaVuSans-72" x="227.246094"/>
      <use xlink:href="#DejaVuSans-61" x="268.359375"/>
      <use xlink:href="#DejaVuSans-63" x="329.638672"/>
      <use xlink:href="#DejaVuSans-69" x="384.619141"/>
      <use xlink:href="#DejaVuSans-73" x="412.402344"/>
     </g>
    </g>
    <g clip-path="url(#p3b12eca565)">
     <!-- NCBITaxon:1392 -->
     <g transform="translate(612.164605 190.029937)scale(0.12 -0.12)">
      <defs>
       <path id="DejaVuSans-4e" d="M 628 4666 
L 1478 4666 
L 3547 763 
L 3547 4666 
L 4159 4666 
L 4159 0 
L 3309 0 
L 1241 3903 
L 1241 0 
L 628 0 
L 628 4666 
z
" transform="scale(0.015625)"/>
       <path id="DejaVuSans-49" d="M 628 4666 
L 1259 4666 
L 1259 0 
L 628 0 
L 628 4666 
z
" transform="scale(0.015625)"/>
       <path id="DejaVuSans-54" d="M -19 4666 
L 3928 4666 
L 3928 4134 
L 2272 4134 
L 2272 0 
L 1638 0 
L 1638 4134 
L -19 4134 
L -19 4666 
z
" transform="scale(0.015625)"/>
       <path id="DejaVuSans-33" d="M 2597 2516 
Q 3050 2419 3304 2112 
Q 3559 1806 3559 1356 
Q 3559 666 3084 287 
Q 2609 -91 1734 -91 
Q 1441 -91 1130 -33 
Q 819 25 488 141 
L 488 750 
Q 750 597 1062 519 
Q 1375 441 1716 441 
Q 2309 441 2620 675 
Q 2931 909 2931 1356 
Q 2931 1769 2642 2001 
Q 2353 2234 1838 2234 
L 1294 2234 
L 1294 2753 
L 1863 2753 
Q 2328 2753 2575 2939 
Q 2822 3125 2822 3475 
Q 2822 3834 2567 4026 
Q 2313 4219 1838 4219 
Q 1578 4219 1281 4162 
Q 984 4106 628 3988 
L 628 4550 
Q 988 4650 1302 4700 
Q 1616 4750 1894 4750 
Q 2613 4750 3031 4423 
Q 3450 4097 3450 3541 
Q 3450 3153 3228 2886 
Q 3006 2619 2597 2516 
z
" transform="scale(0.015625)"/>
       <path id="DejaVuSans-39" d="M 703 97 
L 703 672 
Q 941 559 1184 500 
Q 1428 441 1663 441 
Q 2288 441 2617 861 
Q 2947 1281 2994 2138 
Q 2813 1869 2534 1725 
Q 2256 1581 1919 1581 
Q 1219 1581 811 2004 
Q 403 2428 403 3163 
Q 403 3881 828 4315 
Q 1253 4750 1959 4750 
Q 2769 4750 3195 4129 
Q 3622 3509 3622 2328 
Q 3622 1225 3098 567 
Q 2575 -91 1691 -91 
Q 1453 -91 1209 -44 
Q 966 3 703 97 
z
M 1959 2075 
Q 2384 2075 2632 2365 
Q 2881 2656 2881 3163 
Q 2881 3666 2632 3958 
Q 2384 4250 1959 4250 
Q 1534 4250 1286 3958 
Q 1038 3666 1038 3163 
Q 1038 2656 1286 2365 
Q 1534 2075 1959 2075 
z
" transform="scale(0.015625)"/>
      </defs>
      <use xlink:href="#DejaVuSans-4e"/>
      <use xlink:href="#DejaVuSans-43" x="74.804688"/>
      <use xlink:href="#DejaVuSans-42" x="144.628906"/>
      <use xlink:href="#DejaVuSans-49" x="213.232422"/>
      <use xlink:href="#DejaVuSans-54" x="242.724609"/>
      <use xlink:href="#DejaVuSans-61" x="287.308594"/>
      <use xlink:href="#DejaVuSans-78" x="348.587891"/>
      <use xlink:href="#DejaVuSans-6f" x="404.642578"/>
      <use xlink:href="#DejaVuSans-6e" x="465.824219"/>
      <use xlink:href="#DejaVuSans-3a" x="529.203125"/>
      <use xlink:href="#DejaVuSans-31" x="562.894531"/>
      <use xlink:href="#DejaVuSans-33" x="626.517578"/>
      <use xlink:href="#DejaVuSans-39" x="690.140625"/>
      <use xlink:href="#DejaVuSans-32" x="753.763672"/>
     </g>
    </g>
    <g clip-path="url(#p3b12eca565)">
     <!-- OrganismTaxon -->
     <g transform="translate(615.010855 203.467312)scale(0.12 -0.12)">
      <defs>
       <path id="DejaVuSans-4f" d="M 2522 4238 
Q 1834 4238 1429 3725 
Q 1025 3213 1025 2328 
Q 1025 1447 1429 934 
Q 1834 422 2522 422 
Q 3209 422 3611 934 
Q 4013 1447 4013 2328 
Q 4013 3213 3611 3725 
Q 3209 4238 2522 4238 
z
M 2522 4750 
Q 3503 4750 4090 4092 
Q 4678 3434 4678 2328 
Q 4678 1225 4090 567 
Q 3503 -91 2522 -91 
Q 1538 -91 948 565 
Q 359 1222 359 2328 
Q 359 3434 948 4092 
Q 1538 4750 2522 4750 
z
" transform="scale(0.015625)"/>
      </defs>
      <use xlink:href="#DejaVuSans-4f"/>
      <use xlink:href="#DejaVuSans-72" x="78.710938"/>
      <use xlink:href="#DejaVuSans-67" x="118.074219"/>
      <use xlink:href="#DejaVuSans-61" x="181.550781"/>
      <use xlink:href="#DejaVuSans-6e" x="242.830078"/>
      <use xlink:href="#DejaVuSans-69" x="306.208984"/>
      <use xlink:href="#DejaVuSans-73" x="333.992188"/>
      <use xlink:href="#DejaVuSans-6d" x="386.091797"/>
      <use xlink:href="#DejaVuSans-54" x="483.503906"/>
      <use xlink:href="#DejaVuSans-61" x="528.087891"/>
      <use xlink:href="#DejaVuSans-78" x="589.367188"/>
      <use xlink:href="#DejaVuSans-6f" x="645.421875"/>
      <use xlink:href="#DejaVuSans-6e" x="706.603516"/>
     </g>
    </g>
   </g>
   <g id="text_7">
    <g clip-path="url(#p3b12eca565)">
     <!-- Inhalational -->
     <g transform="translate(911.597565 163.155187)scale(0.12 -0.12)">
      <use xlink:href="#DejaVuSans-49"/>
      <use xlink:href="#DejaVuSans-6e" x="29.492188"/>
      <use xlink:href="#DejaVuSans-68" x="92.871094"/>
      <use xlink:href="#DejaVuSans-61" x="156.25"/>
      <use xlink:href="#DejaVuSans-6c" x="217.529297"/>
      <use xlink:href="#DejaVuSans-61" x="245.3125"/>
      <use xlink:href="#DejaVuSans-74" x="306.591797"/>
      <use xlink:href="#DejaVuSans-69" x="345.800781"/>
      <use xlink:href="#DejaVuSans-6f" x="373.583984"/>
      <use xlink:href="#DejaVuSans-6e" x="434.765625"/>
      <use xlink:href="#DejaVuSans-61" x="498.144531"/>
      <use xlink:href="#DejaVuSans-6c" x="559.423828"/>
     </g>
    </g>
    <g clip-path="url(#p3b12eca565)">
     <!-- anthrax -->
     <g transform="translate(923.501002 176.592562)scale(0.12 -0.12)">
      <use xlink:href="#DejaVuSans-61"/>
      <use xlink:href="#DejaVuSans-6e" x="61.279297"/>
      <use xlink:href="#DejaVuSans-74" x="124.658203"/>
      <use xlink:href="#DejaVuSans-68" x="163.867188"/>
      <use xlink:href="#DejaVuSans-72" x="227.246094"/>
      <use xlink:href="#DejaVuSans-61" x="268.359375"/>
      <use xlink:href="#DejaVuSans-78" x="329.638672"/>
     </g>
    </g>
    <g clip-path="url(#p3b12eca565)">
     <!-- MESH:C571912 -->
     <g transform="translate(900.42444 190.029937)scale(0.12 -0.12)">
      <defs>
       <path id="DejaVuSans-37" d="M 525 4666 
L 3525 4666 
L 3525 4397 
L 1831 0 
L 1172 0 
L 2766 4134 
L 525 4134 
L 525 4666 
z
" transform="scale(0.015625)"/>
      </defs>
      <use xlink:href="#DejaVuSans-4d"/>
      <use xlink:href="#DejaVuSans-45" x="86.279297"/>
      <use xlink:href="#DejaVuSans-53" x="149.462891"/>
      <use xlink:href="#DejaVuSans-48" x="212.939453"/>
      <use xlink:href="#DejaVuSans-3a" x="288.134766"/>
      <use xlink:href="#DejaVuSans-43" x="321.826172"/>
      <use xlink:href="#DejaVuSans-35" x="391.650391"/>
      <use xlink:href="#DejaVuSans-37" x="455.273438"/>
      <use xlink:href="#DejaVuSans-31" x="518.896484"/>
      <use xlink:href="#DejaVuSans-39" x="582.519531"/>
      <use xlink:href="#DejaVuSans-31" x="646.142578"/>
      <use xlink:href="#DejaVuSans-32" x="709.765625"/>
     </g>
    </g>
    <g clip-path="url(#p3b12eca565)">
     <!-- Disease -->
     <g transform="translate(923.231002 203.467312)scale(0.12 -0.12)">
      <use xlink:href="#DejaVuSans-44"/>
      <use xlink:href="#DejaVuSans-69" x="77.001953"/>
      <use xlink:href="#DejaVuSans-73" x="104.785156"/>
      <use xlink:href="#DejaVuSans-65" x="156.884766"/>
      <use xlink:href="#DejaVuSans-61" x="218.408203"/>
      <use xlink:href="#DejaVuSans-73" x="279.6875"/>
      <use xlink:href="#DejaVuSans-65" x="331.787109"/>
     </g>
    </g>
   </g>
  </g>
 </g>
 <defs>
  <clipPath id="p3b12eca565">
   <rect x="0" y="0" width="1036.8" height="360"/>
  </clipPath>
 </defs>
</svg>
